<svg xmlns="http://www.w3.org/2000/svg" viewBox="0 0 1500 1500"><defs><style>.cls-1{fill:#404040;}</style></defs><title>Iconos finales</title><g id="descubrenos_donde_y_cuando" data-name="descubrenos donde y cuando"><path class="cls-1" d="M1112.36,1291.54H387.64a23,23,0,0,1-23-23V543.82a23,23,0,0,1,23-23h724.72a23,23,0,0,1,23,23v724.72A23,23,0,0,1,1112.36,1291.54Zm-701.72-46h678.72V566.82H410.64Z"/><path class="cls-1" d="M944.4,411.68A22.85,22.85,0,0,1,930,406.56L750,261l-180,145.52a23,23,0,0,1-28.92-35.76L735.54,213.58a23,23,0,0,1,28.92,0L958.87,370.8a23,23,0,0,1-14.47,40.88Z"/><path class="cls-1" d="M750,862.29a23,23,0,0,1-23-23V268a23,23,0,0,1,46,0V839.29A23,23,0,0,1,750,862.29Z"/></g></svg>