<?xml version="1.0" encoding="UTF-8"?>
<svg width="150px" height="140px" viewBox="0 0 150 140" version="1.1" xmlns="http://www.w3.org/2000/svg" xmlns:xlink="http://www.w3.org/1999/xlink">
    <!-- Generator: Sketch 51.3 (57544) - http://www.bohemiancoding.com/sketch -->
    <title>Artboard 6</title>
    <desc>Created with Sketch.</desc>
    <defs></defs>
    <g id="Artboard-6" stroke="none" stroke-width="1" fill="none" fill-rule="evenodd">
        <g id="Group-5" transform="translate(8.000000, 4.000000)">
            <circle id="Oval-7" fill="#FAAC4F" cx="67" cy="67" r="67"></circle>
            <g id="noun_Wheat_834294" transform="translate(33.000000, 33.000000)" fill="#FFFFFF" fill-rule="nonzero">
                <g id="Group">
                    <path d="M46.1665667,20.732 C49.0515333,21.1722 51.8087,18.744 52.5518333,13.8710333 C53.2949667,8.99806667 50.0313333,0.769166667 49.8443667,0.7455 C49.5769333,0.700533333 42.8437667,7.4053 42.103,12.2782667 C41.3646,17.1512333 43.2792333,20.2894333 46.1665667,20.732 Z" id="Shape"></path>
                    <path d="M40.7232333,23.9435667 C40.7232333,18.4789333 35.7769,10.0181 35.5757333,10.0204667 C35.2704333,10.0204667 29.0177,18.4789333 29.0177,23.9435667 C29.0177,29.4105667 31.6328667,32.5203667 34.8704667,32.5203667 C38.1033333,32.5203667 40.7208667,29.4082 40.7232333,23.9435667 Z" id="Shape"></path>
                    <path d="M22.7531333,20.0243667 C22.4502,20.0243667 16.1951,28.4899333 16.1927333,33.9498333 C16.1927333,39.4121 18.8126333,42.5313667 22.0502333,42.5313667 C25.2807333,42.5313667 27.903,39.4121 27.9053667,33.9498333 C27.903,28.4899333 22.9543,20.022 22.7531333,20.0243667 Z" id="Shape"></path>
                    <path d="M56.2367333,17.7547333 C51.3543,18.4458 48.8977,21.1816667 49.3118667,24.0737333 C49.7236667,26.9610667 52.8382,28.9112 57.723,28.2177667 C62.6054333,27.5196 69.3741,20.8598 69.3338667,20.5852667 C69.3102,20.4006667 61.1168,17.0589333 56.2367333,17.7547333 Z" id="Shape"></path>
                    <path d="M46.3890333,41.3196333 C51.8536667,41.3196333 60.3168667,35.0621667 60.3168667,34.7616 C60.3192333,34.5557 51.8536667,29.6117333 46.3890333,29.6117333 C40.9244,29.6117333 37.8122333,32.2316333 37.8122333,35.4645 C37.8122333,38.6973667 40.9244,41.3196333 46.3890333,41.3196333 Z" id="Shape"></path>
                    <path d="M49.9177333,47.2008 C49.9201,46.9949 41.4545333,42.0438333 35.9922667,42.0438333 C30.53,42.0485667 27.4131,44.6684667 27.4131,47.9013333 C27.4131,51.1365667 30.53,53.7612 35.9922667,53.7612 C41.4545333,53.7564667 49.9177333,47.5013667 49.9177333,47.2008 Z" id="Shape"></path>
                    <path d="M56.8615333,13.2225667 C58.8187667,15.1774333 62.2906667,14.8816 65.6016333,11.573 C68.9078667,8.26676667 71.0426,0.142 70.9171667,0.0165666667 C70.7302,-0.165666667 61.8149667,1.17386667 58.5111,4.4801 C55.2025,7.78633333 54.9019333,11.2629667 56.8615333,13.2225667 Z" id="Shape"></path>
                    <path d="M24.9588667,43.9229667 C24.9091667,43.9158667 24.85,43.9206 24.8050333,43.9087667 L0.0852,67.3482333 C-0.1278,67.6275 0.0449666667,68.5883667 0.740766667,69.2818 C1.44366667,69.9823333 2.34536667,70.2142667 2.627,69.9965333 L13.7172,58.3643667 L26.1824333,45.3051 C26.2226667,45.1607333 26.0641,44.7418333 25.7185667,44.3939333 C25.4487667,44.1288667 25.134,43.9892333 24.9588667,43.9229667 Z" id="Shape"></path>
                </g>
            </g>
        </g>
    </g>
</svg>