<svg xmlns="http://www.w3.org/2000/svg" viewBox="0 0 1500 1500"><defs><style>.cls-1{fill:#404040;}</style></defs><title>Iconos finales</title><g id="call_center" data-name="call center"><path class="cls-1" d="M740.89,1416.36A575.73,575.73,0,1,1,965.67,1371,573.83,573.83,0,0,1,740.89,1416.36Zm0-1108.91A529.63,529.63,0,1,0,947.75,349.2,528.19,528.19,0,0,0,740.89,307.45Z"/><path class="cls-1" d="M1276.08,1104.2q-17.24,0-36.46-.87a23,23,0,1,1,2.07-45.95c84.34,3.8,135.58-5.49,161.25-29.24,29.56-27.35,31.3-80.77,33.71-154.69.36-11.18.74-22.74,1.23-34.8,1.56-38.35-8.38-67.24-29.55-85.86-22.71-20-55.33-26-78.69-27.62a229.42,229.42,0,0,0-47,1.62,23,23,0,0,1-7.71-45.35c4.17-.7,102.87-16.75,163.74,36.81,32.09,28.23,47.27,69.37,45.12,122.27-.48,11.87-.85,23.34-1.21,34.43-1.33,40.66-2.47,75.78-8.17,106-6.78,36-19.59,61.76-40.28,80.91-18.5,17.12-43.18,28.65-75.46,35.27C1335.83,1101.88,1308.58,1104.2,1276.08,1104.2Z"/><path class="cls-1" d="M572.84,1220.52c-78.78,0-150.82-12.14-214.65-36.22-67.68-25.52-108.11-57.89-126.18-74.92a23,23,0,1,1,31.54-33.48c27.24,25.65,132.8,108.51,347.44,97.64a23,23,0,0,1,2.33,45.94Q592.8,1220.52,572.84,1220.52Z"/><path class="cls-1" d="M228.67,1102.58H198.91c-45.08-.27-80.26-5.16-107.53-14.95-28.37-10.18-49.23-25.87-63.78-48C1.41,999.9-.37,944.9-2.63,875.28c-.36-11.19-.73-22.76-1.22-34.76-2.15-52.9,13-94,45.12-122.27C102.14,664.7,200.84,680.74,205,681.44a23,23,0,0,1-7.67,45.36h0c-.81-.13-81.54-13-125.8,26.09-21.08,18.62-31,47.48-29.43,85.76.49,12.19.87,23.86,1.24,35.14,2,62.38,3.61,111.65,22.66,140.58,12.75,19.35,39.39,41.63,133.11,42.21h29.55a23,23,0,1,1,0,46Z"/><path class="cls-1" d="M129,727.42A23,23,0,0,1,106.29,708c-.41-2.56-9.85-63.84-.11-147.94,5.73-49.44,16.94-96.64,33.33-140.29C160.12,364.88,189,315.49,225.36,273c51.47-60.2,118.43-107.26,199-139.86,92.27-37.33,204-56.25,332.16-56.25h1.39c210,.22,370.71,59.08,477.66,174.93,35.93,38.93,65.58,84.34,88.12,135a588,588,0,0,1,40.1,129.76c14,73.68,10.91,128.74,10.37,136.66l-.34,48.54a23,23,0,0,1-23,22.84h-.17a23,23,0,0,1-22.83-23.16l.35-49.29c0-.55,0-1.1.07-1.65s4-54.58-10-127a541,541,0,0,0-37.11-119.13c-20.5-45.75-47.33-86.71-79.75-121.75-97.9-105.81-247.14-159.56-443.57-159.77h-1.37c-227.16,0-394.08,60.55-496.2,180-32.86,38.44-59,83.21-77.74,133.08-15.08,40.16-25.41,83.7-30.7,129.42-9,77.91-.25,134.89-.16,135.45a23,23,0,0,1-19.11,26.32A23.67,23.67,0,0,1,129,727.42Z"/><path class="cls-1" d="M730,1297.16c-36,0-70.07-9.52-96.06-26.79-28.46-18.92-44.78-46.09-44.78-74.54s16.32-55.63,44.78-74.55c26-17.27,60.1-26.79,96.06-26.79s70.07,9.52,96.06,26.79c28.46,18.92,44.78,46.09,44.78,74.55s-16.32,55.62-44.78,74.54C800.06,1287.64,766,1297.16,730,1297.16Zm0-156.67c-26.6,0-52.33,7-70.59,19.1-9.06,6-24.25,18.73-24.25,36.24s15.19,30.21,24.25,36.23c18.26,12.14,44,19.1,70.59,19.1s52.33-7,70.59-19.1c9.06-6,24.25-18.73,24.25-36.23s-15.19-30.22-24.25-36.24C782.32,1147.45,756.59,1140.49,730,1140.49Z"/><path class="cls-1" d="M1295.36,845.46a23,23,0,0,1-20.92-13.4c-19.28-41.95-72.7-102.3-217.66-151.54-63.17-21.46-122.27-33.31-151.69-38.44.11,4.43.44,10.15,1.13,17.47a23.42,23.42,0,0,1,.09,2.9L905,702.3a23,23,0,0,1-26,22.06c-60.1-8-116.28-25.13-167-50.88a470.16,470.16,0,0,1-110.71-78,449.11,449.11,0,0,1-50.3-56.3C534.42,597.84,511.36,649,482.15,691.78c-30.72,45-68.21,80.85-111.45,106.6-74.32,44.27-139.86,43.16-142.61,43.08a23,23,0,0,1,1.06-46h0c.58,0,57,.51,120.24-38,37-22.5,69.24-53.87,95.82-93.23,33.73-49.95,58.48-113,73.56-187.55a23,23,0,0,1,43.32-5.3c.19.39,21.79,44.67,72.34,92.11a424.62,424.62,0,0,0,99.62,69.53c38.63,19.46,80.85,33.45,125.84,41.7l.39-12.37c-3.07-33.76-.72-50.19,8.54-60.37a26.63,26.63,0,0,1,19.88-8.87,24.34,24.34,0,0,1,3.07.2c3.48.47,86.38,11.86,179.81,43.59,55.42,18.83,103,41,141.39,65.81,49.74,32.17,84.48,69.2,103.27,110.08a23,23,0,0,1-20.88,32.61Z"/><path class="cls-1" d="M633.52,919.2a23,23,0,0,1-23-23,49.2,49.2,0,1,0-98.4,0,23,23,0,0,1-46,0,95.2,95.2,0,1,1,190.4,0A23,23,0,0,1,633.52,919.2Z"/><path class="cls-1" d="M1010.88,919.2a23,23,0,0,1-23-23,49.2,49.2,0,0,0-98.4,0,23,23,0,0,1-46,0,95.2,95.2,0,0,1,190.4,0A23,23,0,0,1,1010.88,919.2Z"/></g></svg>