<svg id="Layer_1" data-name="Layer 1" xmlns="http://www.w3.org/2000/svg" viewBox="0 0 1500 1500"><defs><style>.cls-1{fill:#4a4a4a;}.cls-2{fill:#ea0029;}</style></defs><title>Artboard 4 copy 31</title><path class="cls-1" d="M1260.36,1089.36q-15.69,0-33.19-.8a20.94,20.94,0,1,1,1.37-41.85l.51,0c76.79,3.46,123.44-5,146.81-26.62,26.91-24.9,28.49-73.53,30.69-140.83.33-10.18.67-20.7,1.12-31.68,1.42-34.92-7.63-61.22-26.91-78.17-20.67-18.21-50.37-23.67-71.64-25.15a209,209,0,0,0-42.79,1.48,20.94,20.94,0,0,1-7-41.29h0c3.79-.64,93.65-15.25,149.07,33.51,29.21,25.7,43,63.16,41.07,111.32-.43,10.8-.77,21.25-1.1,31.34-1.21,37-2.25,69-7.44,96.51-6.17,32.77-17.83,56.22-36.67,73.66-16.84,15.59-39.31,26.08-68.7,32.11C1314.76,1087.24,1290,1089.36,1260.36,1089.36Z"/><path class="cls-1" d="M306.79,1087.88h-27.1c-41-.24-73.07-4.7-97.89-13.61-25.83-9.27-44.82-23.55-58.07-43.7C99.89,994.4,98.26,944.33,96.21,880.94c-.33-10.18-.67-20.72-1.11-31.64-2-48.16,11.83-85.58,41.07-111.32,55.42-48.75,145.28-34.15,149.07-33.51a20.94,20.94,0,0,1-7,41.3h0c-.73-.12-74.23-11.84-114.53,23.75-19.19,17-28.22,43.23-26.79,78.08.45,11.09.79,21.72,1.13,32,1.82,56.79,3.29,101.65,20.63,128,11.61,17.62,35.86,37.9,121.18,38.43h26.91a20.94,20.94,0,0,1,0,41.88h0Z"/><path class="cls-2" d="M216.05,746.33a20.93,20.93,0,0,1-20.68-17.68c-.37-2.33-9-58.12-.1-134.69,5.22-45,15.42-88,30.34-127.72,18.77-50,45.06-94.94,78.16-133.62C350.63,277.81,411.59,235,484.94,205.29c84-34,185.73-51.21,302.41-51.21h1.26c191.19.2,337.5,53.79,434.87,159.26,32.71,35.44,59.71,76.78,80.23,122.9a535.14,535.14,0,0,1,36.5,118.14c12.75,67.08,9.94,117.21,9.45,124.42l-.31,44.19a20.94,20.94,0,0,1-20.94,20.79h-.16a20.93,20.93,0,0,1-20.78-21.08l.32-44.88a12.54,12.54,0,0,1,.06-1.5c.06-.5,3.64-49.69-9.1-115.62A492.83,492.83,0,0,0,1265,452.24c-18.66-41.65-43.09-78.94-72.61-110.84-89.13-96.33-225-145.27-403.83-145.46h-1.24c-206.81,0-358.78,55.13-451.75,163.87-29.92,35-53.72,75.76-70.78,121.16C251,517.53,241.62,557.17,236.8,598.8c-8.19,70.93-.22,122.8-.14,123.31a21,21,0,0,1-17.4,24A21.59,21.59,0,0,1,216.05,746.33Z"/><path class="cls-1" d="M773.12,1373.55c-289.48-.39-523.83-235.39-523.44-524.87S485.07,324.85,774.55,325.25,1298.38,560.63,1298,850.11a524.17,524.17,0,0,1-524.87,523.44Zm0-1009.57c-266.3.38-481.88,216.57-481.5,482.87s216.56,481.87,482.86,481.5,481.88-216.56,481.5-482.87A482.18,482.18,0,0,0,773.12,364Z"/><path class="cls-2" d="M620.12,1195.26c-71.72,0-137.31-11.06-195.42-33-61.61-23.23-98.42-52.7-114.87-68.21a20.94,20.94,0,1,1,28.34-30.83l.37.35c24.8,23.35,120.9,98.79,316.32,88.89a20.94,20.94,0,0,1,2.12,41.83Q638.29,1195.26,620.12,1195.26Z"/><path class="cls-2" d="M763.2,1265c-32.77,0-63.79-8.67-87.45-24.39-25.91-17.23-40.77-42-40.77-67.86s14.86-50.65,40.77-67.87c23.67-15.73,54.72-24.39,87.45-24.39s63.8,8.66,87.46,24.39c25.91,17.22,40.77,42,40.77,67.87s-14.86,50.63-40.77,67.86C827,1256.36,796,1265,763.2,1265Zm0-142.63c-24.21,0-47.64,6.37-64.26,17.38-8.25,5.47-22.08,17.06-22.08,33s13.83,27.5,22.08,33c16.62,11,40.06,17.39,64.26,17.39s47.65-6.37,64.27-17.39c8.25-5.46,22.08-17,22.08-33s-13.83-27.52-22.08-33C810.84,1128.73,787.41,1122.4,763.2,1122.4Z"/><path class="cls-1" d="M1277.92,853.8a21,21,0,0,1-19.05-12.2c-17.55-38.2-66.19-93.14-198.16-138-57.51-19.54-111.32-30.32-138.1-35,.1,4,.4,9.24,1,15.9a21.17,21.17,0,0,1,.08,2.64l-1.19,36.28a20.94,20.94,0,0,1-21.61,20.25,17.7,17.7,0,0,1-2.06-.17c-54.72-7.28-105.87-22.87-152-46.32a428.11,428.11,0,0,1-100.8-71A409.49,409.49,0,0,1,600.23,575c-15.08,53.41-36.08,100-62.67,138.93-28,41-62.1,73.61-101.47,97-67.66,40.31-127.33,39.3-129.83,39.22a20.94,20.94,0,1,1,1-41.87h0c.53,0,51.9.46,109.47-34.6,33.69-20.48,63-49,87.24-84.88,30.71-45.47,53.24-102.88,67-170.75a20.94,20.94,0,0,1,39.44-4.82c.17.35,19.83,40.67,65.86,83.86a386.92,386.92,0,0,0,90.69,63.3,424.19,424.19,0,0,0,114.57,38l.35-11.26c-2.79-30.74-.65-45.69,7.78-55a24.23,24.23,0,0,1,18.1-8.08,21.8,21.8,0,0,1,2.79.19c3.17.42,78.64,10.79,163.7,39.68,50.46,17.14,93.78,37.33,128.73,59.91,45.28,29.29,76.91,63,94,100.22a20.93,20.93,0,0,1-19,29.69Z"/><path class="cls-1" d="M675.37,920.93A20.94,20.94,0,0,1,654.43,900h0a44.8,44.8,0,0,0-89.59,0A20.94,20.94,0,0,1,523,900a86.68,86.68,0,0,1,173.35,0,21,21,0,0,1-20.94,20.94Z"/><path class="cls-1" d="M1018.92,920.93A21,21,0,0,1,998,900h0a44.79,44.79,0,1,0-89.58,0,20.94,20.94,0,1,1-41.88,0,86.67,86.67,0,1,1,173.34,0,20.94,20.94,0,0,1-20.94,20.94Z"/></svg>