<svg id="Capa_3" data-name="Capa 3" xmlns="http://www.w3.org/2000/svg" viewBox="0 0 1500 1500"><defs><style>.cls-1{fill:none;stroke:#000;stroke-linecap:round;stroke-linejoin:round;stroke-width:22px;}</style></defs><title>AtencionAlCliente2</title><path class="cls-1" d="M267.58,141.81C267.58,81.42,317,32,377.39,32H865c60.4,0,109.82,49.42,109.82,109.81L975,846"/><path class="cls-1" d="M797.29,1105.73H377.39c-60.4,0-109.81-49.42-109.81-109.81L268,181"/><path class="cls-1" d="M1014,478s227.65,290.18,227.65,315.9V1469H836.59s-214-20.65-215.39-209c-1.2-166,0-154.31,0-154.31"/><path class="cls-1" d="M790,965c-71.83-70.29-302.89-309.6-196.12-370.42,127-72.33,426,305.41,426,305.41"/><path class="cls-1" d="M974.83,1337.19S783,1286,794,1002"/><line class="cls-1" x1="693.53" y1="1105.73" x2="693.53" y2="864.67"/><line class="cls-1" x1="693.53" y1="601.47" x2="693.53" y2="32"/><line class="cls-1" x1="792.35" y1="32" x2="792" y2="601"/><line class="cls-1" x1="407.42" y1="146.12" x2="407.42" y2="482.07"/><line class="cls-1" x1="534.4" y1="146.12" x2="534.4" y2="350.26"/><rect class="cls-1" x="407.42" y="819.62" width="165.56" height="165.56" rx="12" ry="12"/><circle cx="534" cy="392" r="13"/></svg>