<svg id="svg" version="1.1" width="400" height="435.354273192111" viewBox="0 0 400 435.354273192111" xmlns="http://www.w3.org/2000/svg" xmlns:xlink="http://www.w3.org/1999/xlink" ><g id="svgg"><path id="path0" d="M14.157 13.221 L 13.002 14.463 14.244 13.308 C 15.399 12.234,15.620 11.980,15.399 11.980 C 15.351 11.980,14.792 12.538,14.157 13.221 M23.215 22.279 L 22.060 23.521 23.302 22.366 C 24.457 21.292,24.678 21.037,24.457 21.037 C 24.409 21.037,23.850 21.596,23.215 22.279 M68.791 69.028 L 67.933 69.978 68.882 69.120 C 69.768 68.320,69.966 68.079,69.741 68.079 C 69.690 68.079,69.263 68.506,68.791 69.028 M68.079 83.948 C 68.079 83.999,68.506 84.426,69.028 84.898 L 69.978 85.756 69.120 84.806 C 68.320 83.921,68.079 83.723,68.079 83.948 M63.112 176.278 C 63.112 176.329,63.539 176.756,64.061 177.228 L 65.011 178.086 64.153 177.137 C 63.353 176.251,63.112 176.053,63.112 176.278 M63.824 258.364 L 62.966 259.313 63.915 258.455 C 64.800 257.655,64.999 257.414,64.773 257.414 C 64.723 257.414,64.296 257.841,63.824 258.364 M376.615 341.198 L 375.018 342.878 376.698 341.281 C 377.622 340.403,378.378 339.647,378.378 339.601 C 378.378 339.384,378.099 339.637,376.615 341.198 M385.675 350.256 L 383.784 352.228 385.756 350.337 C 387.588 348.581,387.862 348.283,387.647 348.283 C 387.602 348.283,386.714 349.171,385.675 350.256 " stroke="none" fill="#313131" fill-rule="evenodd"></path><path id="path1" d="" stroke="none" fill="#373737" fill-rule="evenodd"></path><path id="path2" d="M25.931 4.695 C 25.329 5.013,24.836 5.339,24.836 5.418 C 24.836 5.549,27.144 4.470,27.441 4.201 C 27.777 3.896,26.900 4.184,25.931 4.695 M385.099 12.655 C 385.099 12.706,385.526 13.133,386.048 13.605 L 386.998 14.463 386.140 13.514 C 385.340 12.628,385.099 12.430,385.099 12.655 M0.068 46.165 C 0.068 46.728,0.128 46.958,0.201 46.676 C 0.275 46.395,0.275 45.935,0.201 45.654 C 0.128 45.373,0.068 45.603,0.068 46.165 M137.692 59.240 C 172.042 59.281,228.251 59.281,262.600 59.240 C 296.950 59.199,268.846 59.166,200.146 59.166 C 131.446 59.166,103.342 59.199,137.692 59.240 M138.008 65.668 C 172.210 65.709,228.090 65.709,262.186 65.668 C 296.282 65.627,268.298 65.594,200.000 65.594 C 131.702 65.594,103.805 65.627,138.008 65.668 M59.101 76.844 C 59.101 77.568,59.158 77.863,59.227 77.502 C 59.297 77.140,59.297 76.549,59.227 76.187 C 59.158 75.825,59.101 76.121,59.101 76.844 M334.619 76.844 C 334.619 77.407,334.679 77.637,334.752 77.356 C 334.826 77.075,334.826 76.614,334.752 76.333 C 334.679 76.052,334.619 76.282,334.619 76.844 M138.008 88.167 C 172.210 88.207,228.090 88.207,262.186 88.167 C 296.282 88.126,268.298 88.092,200.000 88.092 C 131.702 88.092,103.805 88.126,138.008 88.167 M137.692 94.595 C 172.042 94.636,228.251 94.636,262.600 94.595 C 296.950 94.554,268.846 94.520,200.146 94.520 C 131.446 94.520,103.342 94.554,137.692 94.595 M59.105 164.938 C 59.107 165.741,59.164 166.035,59.231 165.591 C 59.298 165.147,59.296 164.490,59.227 164.130 C 59.158 163.771,59.103 164.134,59.105 164.938 M334.624 164.938 C 334.628 165.581,334.688 165.809,334.757 165.446 C 334.827 165.082,334.825 164.556,334.752 164.277 C 334.678 163.998,334.621 164.295,334.624 164.938 M59.105 270.416 C 59.107 271.220,59.164 271.514,59.231 271.070 C 59.298 270.626,59.296 269.968,59.227 269.609 C 59.158 269.249,59.103 269.613,59.105 270.416 M334.624 270.416 C 334.628 271.059,334.688 271.288,334.757 270.924 C 334.827 270.561,334.825 270.035,334.752 269.756 C 334.678 269.476,334.621 269.774,334.624 270.416 M0.068 317.312 C 0.068 317.874,0.128 318.104,0.201 317.823 C 0.275 317.542,0.275 317.082,0.201 316.801 C 0.128 316.519,0.068 316.749,0.068 317.312 M16.095 330.898 C 16.095 331.059,16.347 331.651,16.654 332.213 C 16.962 332.776,17.214 333.104,17.214 332.944 C 17.214 332.783,16.962 332.191,16.654 331.629 C 16.347 331.066,16.095 330.738,16.095 330.898 M23.070 341.052 C 23.787 341.815,24.411 342.440,24.458 342.440 C 24.678 342.440,24.446 342.177,23.156 340.967 L 21.768 339.664 23.070 341.052 M179.985 352.213 C 179.985 352.293,180.380 352.563,180.862 352.812 C 181.344 353.062,181.738 353.200,181.738 353.119 C 181.738 353.039,181.344 352.769,180.862 352.520 C 180.380 352.271,179.985 352.133,179.985 352.213 M186.706 355.722 C 186.706 355.803,187.232 356.137,187.874 356.465 C 188.517 356.793,189.043 356.995,189.043 356.915 C 189.043 356.834,188.517 356.500,187.874 356.172 C 187.232 355.844,186.706 355.642,186.706 355.722 M194.010 359.517 C 194.010 359.598,194.405 359.868,194.887 360.117 C 195.369 360.366,195.763 360.504,195.763 360.424 C 195.763 360.344,195.369 360.074,194.887 359.825 C 194.405 359.575,194.010 359.437,194.010 359.517 M200.730 363.024 C 200.730 363.104,201.125 363.374,201.607 363.623 C 202.089 363.872,202.484 364.011,202.484 363.930 C 202.484 363.850,202.089 363.580,201.607 363.331 C 201.125 363.082,200.730 362.943,200.730 363.024 M178.524 365.666 C 178.524 365.866,180.313 366.752,180.447 366.619 C 180.511 366.555,180.104 366.285,179.543 366.018 C 178.983 365.750,178.524 365.592,178.524 365.666 M208.035 366.822 C 208.035 366.902,208.430 367.172,208.912 367.421 C 209.394 367.671,209.788 367.809,209.788 367.729 C 209.788 367.648,209.394 367.379,208.912 367.129 C 208.430 366.880,208.035 366.742,208.035 366.822 M185.829 369.452 C 185.829 369.532,186.224 369.802,186.706 370.051 C 187.188 370.300,187.582 370.439,187.582 370.358 C 187.582 370.278,187.188 370.008,186.706 369.759 C 186.224 369.510,185.829 369.371,185.829 369.452 M214.755 370.328 C 214.755 370.409,215.150 370.678,215.632 370.928 C 216.114 371.177,216.508 371.315,216.508 371.235 C 216.508 371.155,216.114 370.885,215.632 370.636 C 215.150 370.386,214.755 370.248,214.755 370.328 M192.549 372.970 C 192.549 373.170,194.338 374.057,194.472 373.923 C 194.535 373.860,194.129 373.590,193.568 373.322 C 193.008 373.055,192.549 372.897,192.549 372.970 M222.060 374.127 C 222.060 374.207,222.454 374.477,222.936 374.726 C 223.419 374.975,223.813 375.114,223.813 375.033 C 223.813 374.953,223.419 374.683,222.936 374.434 C 222.454 374.185,222.060 374.046,222.060 374.127 M199.854 376.756 C 199.854 376.837,200.248 377.106,200.730 377.356 C 201.213 377.605,201.607 377.743,201.607 377.663 C 201.607 377.583,201.213 377.313,200.730 377.064 C 200.248 376.814,199.854 376.676,199.854 376.756 M228.780 377.633 C 228.780 377.713,229.175 377.983,229.657 378.232 C 230.139 378.482,230.533 378.620,230.533 378.539 C 230.533 378.459,230.139 378.189,229.657 377.940 C 229.175 377.691,228.780 377.553,228.780 377.633 M206.574 380.275 C 206.574 380.475,208.363 381.362,208.497 381.228 C 208.560 381.165,208.154 380.894,207.593 380.627 C 207.033 380.360,206.574 380.201,206.574 380.275 M236.085 381.431 C 236.085 381.512,236.479 381.781,236.961 382.031 C 237.443 382.280,237.838 382.418,237.838 382.338 C 237.838 382.258,237.443 381.988,236.961 381.738 C 236.479 381.489,236.085 381.351,236.085 381.431 M213.879 384.061 C 213.879 384.141,214.273 384.411,214.755 384.660 C 215.237 384.910,215.632 385.048,215.632 384.968 C 215.632 384.887,215.237 384.617,214.755 384.368 C 214.273 384.119,213.879 383.981,213.879 384.061 M242.805 384.938 C 242.805 385.018,243.199 385.288,243.682 385.537 C 244.164 385.786,244.558 385.924,244.558 385.844 C 244.558 385.764,244.164 385.494,243.682 385.245 C 243.199 384.995,242.805 384.857,242.805 384.938 M220.599 387.579 C 220.599 387.779,222.388 388.666,222.522 388.533 C 222.585 388.469,222.178 388.199,221.618 387.931 C 221.058 387.664,220.599 387.506,220.599 387.579 M250.110 388.736 C 250.110 388.816,250.504 389.086,250.986 389.335 C 251.468 389.585,251.863 389.723,251.863 389.642 C 251.863 389.562,251.468 389.292,250.986 389.043 C 250.504 388.794,250.110 388.656,250.110 388.736 M227.904 391.366 C 227.904 391.446,228.298 391.716,228.780 391.965 C 229.262 392.214,229.657 392.352,229.657 392.272 C 229.657 392.192,229.262 391.922,228.780 391.673 C 228.298 391.423,227.904 391.285,227.904 391.366 M256.830 392.242 C 256.830 392.322,257.224 392.592,257.706 392.841 C 258.188 393.091,258.583 393.229,258.583 393.149 C 258.583 393.068,258.188 392.799,257.706 392.549 C 257.224 392.300,256.830 392.162,256.830 392.242 M234.624 394.884 C 234.624 395.084,236.413 395.971,236.546 395.837 C 236.610 395.774,236.203 395.503,235.643 395.236 C 235.082 394.969,234.624 394.810,234.624 394.884 M264.134 396.041 C 264.134 396.121,264.529 396.391,265.011 396.640 C 265.493 396.889,265.888 397.027,265.888 396.947 C 265.888 396.867,265.493 396.597,265.011 396.348 C 264.529 396.098,264.134 395.960,264.134 396.041 M241.928 398.670 C 241.928 398.751,242.323 399.020,242.805 399.270 C 243.287 399.519,243.682 399.657,243.682 399.577 C 243.682 399.496,243.287 399.227,242.805 398.977 C 242.323 398.728,241.928 398.590,241.928 398.670 M270.855 399.547 C 270.855 399.627,271.249 399.897,271.731 400.146 C 272.213 400.395,272.608 400.534,272.608 400.453 C 272.608 400.373,272.213 400.103,271.731 399.854 C 271.249 399.605,270.855 399.466,270.855 399.547 M248.649 402.189 C 248.649 402.389,250.438 403.276,250.571 403.142 C 250.635 403.078,250.228 402.808,249.668 402.541 C 249.107 402.273,248.649 402.115,248.649 402.189 M278.159 403.345 C 278.159 403.425,278.554 403.695,279.036 403.944 C 279.518 404.194,279.912 404.332,279.912 404.252 C 279.912 404.171,279.518 403.902,279.036 403.652 C 278.554 403.403,278.159 403.265,278.159 403.345 M255.953 405.975 C 255.953 406.055,256.348 406.325,256.830 406.574 C 257.312 406.823,257.706 406.962,257.706 406.881 C 257.706 406.801,257.312 406.531,256.830 406.282 C 256.348 406.033,255.953 405.894,255.953 405.975 M284.879 406.851 C 284.879 406.932,285.274 407.201,285.756 407.451 C 286.238 407.700,286.633 407.838,286.633 407.758 C 286.633 407.678,286.238 407.408,285.756 407.159 C 285.274 406.909,284.879 406.771,284.879 406.851 M262.673 409.481 C 262.673 409.561,263.068 409.831,263.550 410.080 C 264.032 410.330,264.427 410.468,264.427 410.388 C 264.427 410.307,264.032 410.037,263.550 409.788 C 263.068 409.539,262.673 409.401,262.673 409.481 M292.184 410.650 C 292.184 410.730,292.579 411.000,293.061 411.249 C 293.543 411.498,293.937 411.637,293.937 411.556 C 293.937 411.476,293.543 411.206,293.061 410.957 C 292.579 410.708,292.184 410.569,292.184 410.650 M338.715 412.710 C 338.718 413.353,338.778 413.581,338.848 413.218 C 338.918 412.854,338.915 412.329,338.842 412.049 C 338.769 411.770,338.712 412.067,338.715 412.710 M269.978 413.279 C 269.978 413.360,270.373 413.629,270.855 413.879 C 271.337 414.128,271.731 414.266,271.731 414.186 C 271.731 414.106,271.337 413.836,270.855 413.587 C 270.373 413.337,269.978 413.199,269.978 413.279 M298.904 414.156 C 298.904 414.236,299.299 414.506,299.781 414.755 C 300.263 415.005,300.657 415.143,300.657 415.062 C 300.657 414.982,300.263 414.712,299.781 414.463 C 299.299 414.214,298.904 414.076,298.904 414.156 M276.698 416.786 C 276.698 416.866,277.093 417.136,277.575 417.385 C 278.057 417.634,278.451 417.772,278.451 417.692 C 278.451 417.612,278.057 417.342,277.575 417.093 C 277.093 416.843,276.698 416.705,276.698 416.786 M306.209 417.954 C 306.209 418.035,306.603 418.304,307.085 418.554 C 307.568 418.803,307.962 418.941,307.962 418.861 C 307.962 418.781,307.568 418.511,307.085 418.262 C 306.603 418.012,306.209 417.874,306.209 417.954 M284.003 420.584 C 284.003 420.664,284.397 420.934,284.879 421.183 C 285.362 421.433,285.756 421.571,285.756 421.491 C 285.756 421.410,285.362 421.140,284.879 420.891 C 284.397 420.642,284.003 420.504,284.003 420.584 M290.723 424.090 C 290.723 424.171,291.118 424.440,291.600 424.690 C 292.082 424.939,292.476 425.077,292.476 424.997 C 292.476 424.916,292.082 424.647,291.600 424.397 C 291.118 424.148,290.723 424.010,290.723 424.090 M298.028 427.889 C 298.028 427.969,298.422 428.239,298.904 428.488 C 299.386 428.737,299.781 428.875,299.781 428.795 C 299.781 428.715,299.386 428.445,298.904 428.196 C 298.422 427.946,298.028 427.808,298.028 427.889 M304.748 431.395 C 304.748 431.475,305.142 431.745,305.625 431.994 C 306.107 432.243,306.501 432.382,306.501 432.301 C 306.501 432.221,306.107 431.951,305.625 431.702 C 305.142 431.453,304.748 431.314,304.748 431.395 " stroke="none" fill="#3b3b3b" fill-rule="evenodd"></path><path id="path3" d="M14.305 350.110 C 15.021 350.873,15.646 351.497,15.693 351.497 C 15.912 351.497,15.680 351.235,14.390 350.024 L 13.002 348.722 14.305 350.110 " stroke="none" fill="#3a3a3a" fill-rule="evenodd"></path><path id="path4" d="M43.805 0.116 C 43.737 0.183,42.694 0.316,41.488 0.414 C 39.322 0.588,38.834 0.658,37.400 0.992 C 36.998 1.086,36.329 1.217,35.913 1.284 C 32.630 1.810,23.029 6.016,20.826 7.893 C 20.540 8.136,19.847 8.658,19.284 9.052 C 18.722 9.446,17.693 10.299,16.997 10.947 C 16.302 11.595,15.612 12.169,15.464 12.223 C 14.627 12.525,8.652 20.028,7.036 22.807 C 3.438 28.992,1.032 36.746,0.376 44.266 C 0.074 47.719,0.076 315.499,0.378 318.919 C 1.193 328.167,3.589 335.152,8.648 343.029 C 14.428 352.027,26.066 360.090,36.296 362.183 C 36.662 362.258,37.421 362.396,37.984 362.491 C 38.546 362.586,39.335 362.738,39.737 362.830 C 40.139 362.921,70.471 363.041,107.141 363.096 L 173.815 363.197 177.850 365.267 C 180.069 366.406,183.528 368.195,185.537 369.243 C 187.546 370.290,190.636 371.899,192.403 372.818 C 194.171 373.737,197.327 375.380,199.416 376.470 C 201.505 377.560,204.660 379.204,206.428 380.123 C 208.196 381.041,211.351 382.685,213.440 383.775 C 215.530 384.865,218.685 386.508,220.453 387.427 C 222.221 388.346,225.376 389.990,227.465 391.079 C 229.554 392.169,232.710 393.813,234.478 394.732 C 236.245 395.651,239.401 397.294,241.490 398.384 C 243.579 399.474,246.735 401.117,248.503 402.036 C 250.270 402.955,253.360 404.565,255.369 405.613 C 263.514 409.863,266.192 411.257,269.540 412.992 C 271.468 413.992,274.624 415.636,276.552 416.646 C 278.481 417.656,281.636 419.299,283.565 420.298 C 285.493 421.297,288.649 422.940,290.577 423.950 C 292.505 424.960,295.661 426.603,297.589 427.601 C 299.518 428.599,302.805 430.302,304.894 431.387 C 308.737 433.382,312.012 434.656,313.923 434.901 C 314.499 434.974,315.423 435.120,315.977 435.224 C 317.171 435.448,322.574 434.607,324.032 433.970 C 325.153 433.481,327.195 432.489,328.233 431.930 C 335.157 428.202,340.274 416.032,338.209 408.203 C 337.992 407.380,337.802 406.612,337.788 406.495 C 337.695 405.739,336.868 403.517,335.859 401.315 C 334.323 397.959,333.674 396.463,333.672 396.274 C 333.671 396.154,333.463 395.661,333.210 395.179 C 332.957 394.697,332.425 393.514,332.028 392.549 C 331.632 391.585,331.123 390.402,330.899 389.920 C 329.644 387.224,328.707 385.070,328.705 384.879 C 328.704 384.759,328.496 384.266,328.243 383.784 C 327.990 383.302,327.458 382.118,327.061 381.154 C 326.665 380.190,326.156 379.007,325.932 378.524 C 324.677 375.829,323.740 373.675,323.738 373.484 C 323.737 373.363,323.529 372.871,323.276 372.389 C 323.023 371.907,322.491 370.723,322.094 369.759 C 321.697 368.795,321.190 367.611,320.968 367.129 C 319.655 364.291,319.302 363.434,319.404 363.333 C 319.466 363.270,328.587 363.164,339.671 363.096 C 350.756 363.029,360.252 362.892,360.774 362.793 C 361.297 362.693,362.020 362.556,362.381 362.489 C 366.724 361.676,374.839 358.612,376.771 357.055 C 376.932 356.925,377.571 356.536,378.191 356.191 C 382.700 353.678,390.506 345.492,393.242 340.407 C 395.370 336.451,396.871 332.958,397.841 329.705 C 398.470 327.595,398.469 327.600,398.676 326.516 C 398.768 326.034,398.930 325.245,399.036 324.763 C 399.346 323.360,399.392 323.097,399.629 321.402 C 399.916 319.352,399.927 43.837,399.640 42.075 C 399.522 41.351,399.360 40.299,399.279 39.737 C 398.662 35.447,397.163 30.913,394.740 26.004 C 390.553 17.524,383.830 10.164,376.625 6.174 C 371.461 3.314,366.148 1.416,361.286 0.694 C 360.643 0.598,359.722 0.447,359.240 0.356 C 358.243 0.170,43.996 -0.069,43.805 0.116 M359.240 13.024 C 360.205 13.126,361.224 13.331,361.505 13.481 C 361.786 13.631,362.016 13.691,362.016 13.615 C 362.016 13.331,366.910 15.161,368.736 16.128 C 377.343 20.687,384.702 30.267,386.410 39.136 C 386.479 39.492,386.600 40.003,386.679 40.272 C 386.758 40.540,386.928 41.351,387.056 42.075 C 387.349 43.719,387.369 319.364,387.076 320.964 C 386.959 321.607,386.782 322.593,386.683 323.156 C 384.679 334.529,375.151 345.484,364.061 349.163 C 360.162 350.457,360.776 350.433,329.892 350.537 C 313.751 350.592,300.486 350.695,300.415 350.766 C 300.295 350.886,301.031 352.818,301.974 354.858 C 303.319 357.764,304.164 359.708,304.165 359.899 C 304.166 360.019,304.374 360.511,304.628 360.993 C 304.881 361.476,305.413 362.659,305.809 363.623 C 306.206 364.587,306.714 365.771,306.939 366.253 C 308.194 368.948,309.131 371.102,309.133 371.294 C 309.134 371.414,309.342 371.907,309.595 372.389 C 309.848 372.871,310.380 374.054,310.777 375.018 C 311.173 375.982,311.682 377.166,311.906 377.648 C 313.161 380.343,314.098 382.497,314.100 382.689 C 314.101 382.809,314.309 383.302,314.562 383.784 C 314.815 384.266,315.347 385.449,315.744 386.413 C 316.140 387.378,316.649 388.561,316.873 389.043 C 318.128 391.739,319.065 393.892,319.067 394.084 C 319.068 394.204,319.276 394.697,319.529 395.179 C 319.782 395.661,320.314 396.844,320.711 397.809 C 321.108 398.773,321.616 399.956,321.840 400.438 C 323.095 403.134,324.032 405.288,324.034 405.479 C 324.035 405.599,324.243 406.092,324.496 406.574 C 325.876 409.207,326.448 412.032,326.043 414.221 C 325.122 419.207,321.485 422.590,317.049 422.590 C 314.918 422.590,315.435 422.799,308.108 418.988 C 306.180 417.985,303.024 416.347,301.096 415.349 C 299.167 414.350,296.012 412.706,294.083 411.696 C 292.155 410.686,288.999 409.043,287.071 408.044 C 285.142 407.045,281.987 405.402,280.058 404.392 C 278.130 403.382,274.974 401.738,273.046 400.739 C 271.118 399.741,267.962 398.097,266.034 397.087 C 264.105 396.077,260.950 394.434,259.021 393.435 C 257.093 392.436,253.937 390.792,252.009 389.782 C 250.080 388.773,246.925 387.129,244.996 386.130 C 243.068 385.131,239.912 383.488,237.984 382.478 C 236.056 381.468,232.900 379.824,230.972 378.826 C 229.043 377.827,225.888 376.183,223.959 375.173 C 222.031 374.163,218.875 372.520,216.947 371.521 C 215.018 370.522,211.863 368.879,209.934 367.869 C 208.006 366.859,204.850 365.215,202.922 364.216 C 200.993 363.218,197.838 361.573,195.909 360.561 C 188.279 356.559,185.588 355.165,183.346 354.054 C 182.060 353.417,180.132 352.384,179.061 351.760 L 177.114 350.625 109.521 350.616 C 36.510 350.606,40.592 350.690,35.939 349.102 C 33.767 348.361,29.013 345.986,27.730 345.002 C 25.326 343.157,22.811 340.900,21.741 339.626 C 20.553 338.213,17.823 334.349,17.823 334.082 C 17.823 334.005,17.561 333.586,17.241 333.151 C 15.847 331.256,13.339 323.649,13.025 320.364 C 12.844 318.469,12.825 44.576,13.006 43.243 C 13.082 42.681,13.213 41.892,13.296 41.490 C 13.379 41.088,13.517 40.365,13.603 39.883 C 14.206 36.502,16.541 31.022,18.833 27.611 C 24.330 19.428,32.656 14.045,41.490 12.964 C 42.213 12.876,42.827 12.783,42.854 12.757 C 43.010 12.607,357.800 12.873,359.240 13.024 M72.169 59.888 C 54.889 65.488,54.988 88.421,72.316 93.824 C 75.030 94.671,326.248 94.542,328.561 93.693 C 345.091 87.625,345.091 66.064,328.561 59.996 C 326.311 59.170,74.712 59.064,72.169 59.888 M326.391 65.915 C 337.308 69.119,337.306 84.570,326.388 87.775 C 324.665 88.280,75.676 88.366,73.830 87.862 C 63.069 84.921,63.179 67.780,73.972 65.879 C 74.498 65.786,74.986 65.652,75.057 65.581 C 75.497 65.141,324.883 65.473,326.391 65.915 M71.877 148.025 C 65.824 149.810,61.456 154.448,59.664 160.993 C 58.714 164.463,59.764 170.556,61.931 174.142 C 62.923 175.783,66.756 179.693,67.374 179.693 C 67.561 179.693,67.873 179.883,68.065 180.115 C 68.440 180.567,72.442 181.988,74.183 182.287 C 75.646 182.539,324.773 182.517,326.250 182.265 C 331.459 181.376,339.518 175.078,339.518 171.896 C 339.518 171.669,339.702 171.127,339.927 170.692 C 343.432 163.914,338.352 152.100,330.518 148.810 C 326.557 147.146,337.955 147.279,200.000 147.287 L 74.361 147.293 71.877 148.025 M325.681 153.798 C 329.404 154.349,333.672 158.473,334.360 162.183 C 334.432 162.574,334.582 163.372,334.694 163.958 C 335.422 167.782,332.390 172.946,328.176 175.061 L 326.224 176.041 200.730 176.126 C 60.524 176.220,73.936 176.417,70.516 174.214 C 62.436 169.010,64.962 155.465,74.320 153.816 C 74.815 153.729,75.246 153.632,75.277 153.600 C 75.403 153.474,324.825 153.671,325.681 153.798 M75.361 252.853 C 75.293 252.918,74.763 253.033,74.183 253.109 C 72.601 253.318,68.465 254.758,68.065 255.239 C 67.873 255.471,67.561 255.661,67.374 255.661 C 66.756 255.661,62.923 259.571,61.931 261.213 C 59.764 264.798,58.714 270.892,59.664 274.361 C 61.456 280.906,65.824 285.544,71.877 287.329 L 74.361 288.061 200.000 288.068 C 337.955 288.075,326.557 288.208,330.518 286.545 C 338.352 283.255,343.432 271.441,339.927 264.662 C 339.702 264.227,339.518 263.685,339.518 263.458 C 339.518 262.845,337.388 259.812,335.807 258.174 C 333.618 255.905,330.424 254.121,326.751 253.117 C 325.934 252.893,75.595 252.631,75.361 252.853 M328.176 260.293 C 332.390 262.409,335.422 267.572,334.694 271.396 C 334.582 271.982,334.432 272.781,334.360 273.171 C 333.717 276.642,330.695 279.817,326.568 281.359 C 325.738 281.669,75.804 281.831,74.215 281.523 C 63.356 279.416,62.667 263.525,73.270 259.737 C 74.561 259.276,82.994 259.246,200.438 259.278 L 326.224 259.313 328.176 260.293 " stroke="none" fill="#3e3e3e" fill-rule="evenodd"></path></g></svg>