<svg id="Capa_92" data-name="Capa 92" xmlns="http://www.w3.org/2000/svg" xmlns:xlink="http://www.w3.org/1999/xlink" viewBox="0 0 1500 1500"><defs><style>.cls-1,.cls-2,.cls-3,.cls-4,.cls-5{fill:none;stroke:#000;stroke-linecap:round;stroke-linejoin:round;}.cls-1,.cls-2,.cls-3,.cls-4{stroke-width:11px;}.cls-2{clip-path:url(#clip-path);}.cls-3{clip-path:url(#clip-path-2);}.cls-4{clip-path:url(#clip-path-3);}.cls-5{stroke-width:22px;}.cls-6{clip-path:url(#clip-path-4);}.cls-7{clip-path:url(#clip-path-5);}.cls-8{clip-path:url(#clip-path-6);}.cls-9{clip-path:url(#clip-path-8);}.cls-10{clip-path:url(#clip-path-10);}</style><clipPath id="clip-path"><path class="cls-1" d="M206.07,474.48l2.64,100.73,37.67-1L243.6,468.06a30.58,30.58,0,0,1-18.66,7.18"/></clipPath><clipPath id="clip-path-2"><path class="cls-1" d="M223.22,414a24.32,24.32,0,0,1,7.85,1.08,24.9,24.9,0,0,1,15.56,14.23,24.33,24.33,0,0,1,1.82,8.63"/></clipPath><clipPath id="clip-path-3"><path class="cls-1" d="M441.5,501.61c17.68,3.06,31.14,11,31.65,30.65.74,27.94-24.41,40.19-49,40.83a83,83,0,0,1-44.55-11.92,69.22,69.22,0,0,0,11.78-27.55c7.82,5.26,22.05,12,32.66,11.73,4.76-.12,11.74-2.59,11.59-8.38-.22-8.28-12-8.39-23.9-11.18s-23.83-8.28-24.33-27.32c-.68-26.07,22.61-38.28,45.79-38.89,12-.31,24.05,1.23,35.15,5.92"/></clipPath><clipPath id="clip-path-4"><path class="cls-2" d="M224.94,475.24a29.19,29.19,0,0,1-9.29-1.27"/></clipPath><clipPath id="clip-path-5"><rect class="cls-1" x="-486.34" y="141.6" width="7286.27" height="10028.75" transform="translate(-133.89 84.4) rotate(-1.5)"/></clipPath><clipPath id="clip-path-6"><path class="cls-3" d="M248.45,437.92a24.59,24.59,0,0,1-49.17,1.29,24.36,24.36,0,0,1,1.77-9.78c1.08-2.68,5.11-9.31,7.76-10.36"/></clipPath><clipPath id="clip-path-8"><path class="cls-4" d="M441.5,501.61c-5.2-.9-17-1.63-17.22-8.87-.14-5.38,7.26-7.44,11.62-7.55a46.76,46.76,0,0,1,20.4,4.64"/></clipPath><clipPath id="clip-path-10"><path class="cls-1" d="M306.88,569.31c7.83,5.42,12.56,6.52,22.12,6.27,31.46-.83,52.51-27.05,51.71-57.68-.8-30.42-23.43-56.34-55.09-55.51m0,0c-12.42.33-25.11,5.63-31.68,16.36h-.4l-.31-12-37.67,1,4.16,159.14,37.67-1-1.58-61.26M318.75,545a24.59,24.59,0,1,1,23.94-25.22A24.69,24.69,0,0,1,318.75,545"/></clipPath></defs><title>01ADondeVamos</title><line class="cls-5" x1="593.55" y1="1127.49" x2="1054.99" y2="1127.49"/><polyline class="cls-5" points="98.17 968.2 109.37 968.33 319.13 970.76 265.17 1032.43 154.69 1035 154.69 1068.4 239.48 1068.4 239.48 1127.49 354.28 1127.49"/><polyline class="cls-5" points="349.76 911.58 339.87 935.76 93.34 933.95"/><polyline class="cls-5" points="36.5 879.59 36.5 888.55 360.24 885.98"/><path class="cls-5" d="M532.38,659.88s0,59,41.11,69.33l-61.67.87L517,361.84s2.57-61.66-64.23-61.66H75S28.8,313,26.23,392.67s0,321.16,0,321.16-7.71,33.41,43.68,38.54,295.46,0,295.46,0v96.09L36.5,851.85"/><path class="cls-5" d="M712.15,797.34c1.73-10.75,5.57-15.48,12.93-16.7a111.07,111.07,0,0,1,17.29-1.15c12.26,0,23.82,1.15,23.82,1.15l2.56-51.43h55.86l72.61,215.86s64.23,36,71.94-28.26c0,0-89.93-287.76-109.2-295.47s-150.3-7.71-150.3-7.71l43.68-74.51,161.86,2.57s41.11-43.68-10.27-64.23L779,469.75s48.82-95.06-23.12-131-131,100.2-131,100.2l-48,114.68L568.34,574l-9.21,22-15.27,36.48"/><path class="cls-5" d="M1011.84,602.84c3.36,3,15.21,11.11,18.78,14.69a225.73,225.73,0,0,1,17.2,19.29,215.62,215.62,0,0,1,16.1,23.26,205.92,205.92,0,0,1,13,25.62c27.33,64.66,29.12,162.31-66.67,297.91l-174.71,2.57S712.23,934,712.23,834.74"/><path class="cls-5" d="M1364.83,1127.49h115.62s-25.69-102.77-100.2-146.45-102.77-82.22-79.65-105.34,30.83-110.57-43.68-146.49-105.34-59.05-100.2-113h89.92V554.54h36V451.77h-51.38l-2.57-79.65h-38.54v-33.4H1012.84l-2.57,30.83H979.44l3,63.69,1.07,22.5,1.21,25.38L986,506.45,987.22,533l1.46,30.62,1,21.75"/><path class="cls-5" d="M913.33,139a112.36,112.36,0,1,1-53.16-37.51"/><circle class="cls-5" cx="473.17" cy="1146.45" r="120.38"/><circle class="cls-5" cx="1215.89" cy="1146.45" r="120.38"/><g class="cls-6"><g class="cls-7"><rect class="cls-1" x="182.02" y="443.24" width="88.28" height="156.79" transform="translate(-13.58 6.1) rotate(-1.5)"/></g><rect class="cls-1" x="-486.34" y="141.6" width="7286.27" height="10028.75" transform="translate(-133.89 84.4) rotate(-1.5)"/></g><path class="cls-1" d="M206.07,474.48l2.64,100.73,37.67-1L243.6,468.06a30.58,30.58,0,0,1-18.66,7.18"/><path class="cls-1" d="M224.94,475.24a29.19,29.19,0,0,1-9.29-1.27"/><g class="cls-8"><g class="cls-7"><rect class="cls-1" x="173.97" y="388.67" width="99.79" height="99.78" transform="translate(-11.4 6.01) rotate(-1.5)"/></g><rect class="cls-1" x="-486.34" y="141.6" width="7286.27" height="10028.75" transform="translate(-133.89 84.4) rotate(-1.5)"/></g><path class="cls-1" d="M223.22,414a24.32,24.32,0,0,1,7.85,1.08,24.9,24.9,0,0,1,15.56,14.23,24.33,24.33,0,0,1,1.82,8.63"/><path class="cls-1" d="M248.45,437.92a24.59,24.59,0,0,1-49.17,1.29,24.36,24.36,0,0,1,1.77-9.78c1.08-2.68,5.11-9.31,7.76-10.36"/><g class="cls-9"><g class="cls-7"><rect class="cls-1" x="353.11" y="434.5" width="144.92" height="163.84" transform="translate(-13.37 11.32) rotate(-1.5)"/></g><rect class="cls-1" x="-486.34" y="141.6" width="7286.27" height="10028.75" transform="translate(-133.89 84.4) rotate(-1.5)"/></g><path class="cls-1" d="M441.5,501.61c17.68,3.06,31.14,11,31.65,30.65.74,27.94-24.41,40.19-49,40.83a83,83,0,0,1-44.55-11.92,69.22,69.22,0,0,0,11.78-27.55c7.82,5.26,22.05,12,32.66,11.73,4.76-.12,11.74-2.59,11.59-8.38-.22-8.28-12-8.39-23.9-11.18s-23.83-8.28-24.33-27.32c-.68-26.07,22.61-38.28,45.79-38.89,12-.31,24.05,1.23,35.15,5.92"/><path class="cls-1" d="M441.5,501.61c-5.2-.9-17-1.63-17.22-8.87-.14-5.38,7.26-7.44,11.62-7.55a46.76,46.76,0,0,1,20.4,4.64"/><g class="cls-10"><g class="cls-7"><rect class="cls-1" x="232.27" y="437.28" width="174.39" height="213.32" transform="translate(-14.13 8.55) rotate(-1.5)"/></g><rect class="cls-1" x="-486.34" y="141.6" width="7286.27" height="10028.75" transform="translate(-133.89 84.4) rotate(-1.5)"/></g><path class="cls-1" d="M306.88,569.31c7.83,5.42,12.56,6.52,22.12,6.27,31.46-.83,52.51-27.05,51.71-57.68-.8-30.42-23.43-56.34-55.09-55.51m0,0c-12.42.33-25.11,5.63-31.68,16.36h-.4l-.31-12-37.67,1,4.16,159.14,37.67-1-1.58-61.26M318.75,545a24.59,24.59,0,1,1,23.94-25.22A24.69,24.69,0,0,1,318.75,545"/><polyline class="cls-1" points="62.08 472.82 70.17 472.61 104.3 471.71 131.18 525.47 155 470.39 197.22 469.28 144.54 576.89 120.53 577.52 74.87 495.73 68.72 484.27"/><line class="cls-1" x1="462.2" y1="477.61" x2="462.06" y2="477.33"/><line class="cls-5" x1="80.63" y1="693.3" x2="457.93" y2="693.3"/><line class="cls-5" x1="631" y1="1069.67" x2="979.44" y2="1069.67"/><path class="cls-5" d="M1252.42,888.75c23.12-23.12,30.83-110.57-43.68-146.49s-105.34-59-100.2-113"/><path class="cls-5" d="M1301,1146.45a85.12,85.12,0,0,1-85.12,85.12"/><path class="cls-5" d="M552.29,1146.45a85.12,85.12,0,0,1-85.12,85.12"/><line class="cls-5" x1="1029.84" y1="400.19" x2="1037.8" y2="564.2"/><line class="cls-5" x1="1021.94" y1="1070.16" x2="1021.74" y2="1069.18"/><line class="cls-5" x1="889.8" y1="117.15" x2="889.6" y2="116.17"/></svg>