<svg id="Capa_4" data-name="Capa 4" xmlns="http://www.w3.org/2000/svg" viewBox="0 0 1500 1500"><defs><style>.cls-1{fill:none;stroke:#000;stroke-linecap:round;stroke-linejoin:round;stroke-width:22px;}</style></defs><title>AtencionAlCliente3</title><path class="cls-1" d="M45.13,1435.36s-46-250.59,290-250.59c344.72,0,271,250.59,271,250.59H83.89"/><path class="cls-1" d="M159.61,1010.5A175.36,175.36,0,1,1,189.86,1109,173.63,173.63,0,0,1,177.1,1087"/><polyline class="cls-1" points="1432.92 1435.36 1100.13 1435.36 1086.12 1435.36 1068.87 1435.36 1054.31 1435.36"/><path class="cls-1" d="M1013.15,1435.36H872s-46-250.59,290-250.59c214.83,0,267.12,97.32,276,170.67"/><path class="cls-1" d="M1266,871q6,4.56,11.51,9.6A176.14,176.14,0,0,1,1305,912.37,175.17,175.17,0,1,1,1223.57,847"/><path class="cls-1" d="M487.8,471.15C439.46,440.63,407.66,363.38,407.66,302,407.66,160.06,549.75,45,725,45c105.79,0,199.49,41.91,257.15,106.33,37.89,42.32,60.22,94.36,60.22,150.62,0,141.91-142.09,256.95-317.37,256.95a386.8,386.8,0,0,1-92-11c-22.8-5.58-166.91,120.82-187.22,111.46-18.26-8.42,63.24-145.81,71.23-163.35"/><path class="cls-1" d="M1083.11,530.94c49.61-35.62,85.23-105.94,85.23-167.91,0-77.66-42.56-147.27-109.82-194.39a327.88,327.88,0,0,0-51.93-29.6,356.45,356.45,0,0,0-51.93-18.93"/><path class="cls-1" d="M654.43,552.56C674.79,576.73,699.5,590,725,599A381,381,0,0,0,851,620a387,387,0,0,0,92-11c22.8-5.58,166.9,120.82,187.22,111.45,18.26-8.42-61.06-142.46-71.24-163.34"/><line class="cls-1" x1="567.94" y1="200.21" x2="772.73" y2="200.21"/><line class="cls-1" x1="567.94" y1="314.69" x2="851.6" y2="314.69"/><line class="cls-1" x1="567.94" y1="422.82" x2="851.6" y2="422.82"/><circle cx="831.25" cy="200.21" r="20.35"/><circle cx="162.79" cy="1050.57" r="13.36"/><circle cx="1438.64" cy="1396.56" r="13.36"/></svg>