<svg xmlns="http://www.w3.org/2000/svg" viewBox="0 0 1500 1500"><defs><style>.cls-1{fill:#404040;}</style></defs><title>Iconos correcciones_</title><g id="atención_en_restaurante" data-name="atención en restaurante"><path class="cls-1" d="M410.28,679.92a28.5,28.5,0,0,1-12.13-2.67,27,27,0,0,1-14.4-16.36c-4.07-12.35-2-28.68,20.59-75.64,13.13-27.27,29.39-56.91,41.27-78.55l4.38-8c-8.83-7.36-16.29-13.51-18.09-14.88-17.6-12.45-42.69-36.83-62.65-82.34-14.57-33.2-22.59-69.6-22.59-102.49,0-38.44,9.27-75.68,27.55-110.69,17.45-33.4,42.32-63.32,73.93-88.91C512.16,47.55,597,19,687,19c54.06,0,107.85,10.66,155.58,30.82C889.15,69.5,930.2,98.26,961.29,133c43.23,48.29,66.08,105.68,66.08,166,0,38.43-9.27,75.67-27.55,110.67-17.45,33.4-42.33,63.31-73.93,88.9C861.86,550.35,777,578.9,687,578.9h-.42a409.94,409.94,0,0,1-93.1-10.72c-3.18,1.28-10.72,5-26.66,15.44-14.9,9.79-32.87,22.7-50.25,35.17C458.05,660.81,430.23,679.91,410.28,679.92ZM408.65,634ZM687,65C524.7,65,392.66,170,392.66,299c0,26.28,6.82,56.9,18.71,84,12.31,28.05,29.07,50.55,47.21,63.35,3.38,2.39,21,17.11,35.22,29a23,23,0,0,1,6.14,27.14c-1.95,4.28-6.14,12-14,26.29-10.65,19.4-25.23,46-37.36,70.65-3,6-5.53,11.43-7.7,16.18,16.28-10.84,35-24.31,48.86-34.23,67.48-48.45,91-63.7,110.73-58.87A364.18,364.18,0,0,0,686.6,532.9H687C849.32,532.9,981.37,428,981.37,299c0-48.78-18.8-95.56-54.36-135.28C900.42,134,865,109.25,824.67,92.19,782.57,74.4,735,65,687,65ZM589.55,567.25h0Z"/><path class="cls-1" d="M1089.71,741c-20,0-47.77-19.11-106.3-61.13C966,667.4,948.07,654.5,933.17,644.71c-15.93-10.48-23.47-14.15-26.65-15.43A410.27,410.27,0,0,1,813.39,640h-1.75a402.83,402.83,0,0,1-132.17-22.27l-.12,0c-34.57-12.2-60.15-29.14-80.51-53.31A23,23,0,1,1,634,534.74c15.05,17.87,33.73,30.06,60.56,39.54A355.69,355.69,0,0,0,812.92,594a365.28,365.28,0,0,0,86.64-10.35c19.74-4.83,43.21,10.42,110.67,58.86,13.78,9.89,32.45,23.3,48.7,34.12-2.58-5.62-5.66-12.1-9.36-19.55-13.09-26.35-28.65-54.52-40-75.09-6.61-12-11.38-20.6-13.63-25.21a23,23,0,0,1,8-29.29l28.1-18.49c20.9-15.12,40-38.37,53.76-65.54,13.88-27.36,21.52-57,21.52-83.43,0-67-36.45-131-100-175.55A304.93,304.93,0,0,0,959.07,157a334.47,334.47,0,0,0-48.59-17.72A23,23,0,0,1,922.84,95a378.6,378.6,0,0,1,55.28,20.15,350.66,350.66,0,0,1,55.56,31.67c76.06,53.28,119.66,131,119.66,213.25,0,33.54-9.41,70.55-26.5,104.24s-41.4,63-68.32,82.35c-.25.19-.51.36-.77.53l-10.91,7.19,3,5.41c11.9,21.55,29.89,54.12,44,83.08,24.17,49.63,26.51,66.61,22.39,79.17a27,27,0,0,1-14.36,16.34A28.51,28.51,0,0,1,1089.71,741Zm1.63-45.92ZM910.47,628.34h0Zm134.64-100.4h0Z"/><path class="cls-1" d="M734.73,220.21H529.94a23,23,0,0,1,0-46H734.73a23,23,0,0,1,0,46Z"/><path class="cls-1" d="M813.6,334.69H529.94a23,23,0,0,1,0-46H813.6a23,23,0,0,1,0,46Z"/><path class="cls-1" d="M813.6,442.82H529.94a23,23,0,0,1,0-46H813.6a23,23,0,0,1,0,46Z"/><path class="cls-1" d="M328.93,1084a23,23,0,0,1-23-23,12.77,12.77,0,1,0-25.53,0,23,23,0,0,1-46,0,58.77,58.77,0,1,1,117.53,0A23,23,0,0,1,328.93,1084Z"/><path class="cls-1" d="M515.86,1084a23,23,0,0,1-23-23,12.77,12.77,0,1,0-25.53,0,23,23,0,0,1-46,0,58.77,58.77,0,1,1,117.53,0A23,23,0,0,1,515.86,1084Z"/><path class="cls-1" d="M385.37,1289.73a138.91,138.91,0,0,1-98.89-40.91A23,23,0,1,1,319,1216.29a94,94,0,0,0,132.74,0,23,23,0,1,1,32.52,32.53A138.91,138.91,0,0,1,385.37,1289.73Z"/><path class="cls-1" d="M386.63,1438.33a335.08,335.08,0,1,1,130.83-26.42A334,334,0,0,1,386.63,1438.33Zm0-626.16a290.07,290.07,0,1,0,205.12,85A288.19,288.19,0,0,0,386.63,812.17Z"/><path class="cls-1" d="M1055.67,1084a23,23,0,0,1-23-23,12.77,12.77,0,1,0-25.53,0,23,23,0,0,1-46,0,58.77,58.77,0,1,1,117.53,0A23,23,0,0,1,1055.67,1084Z"/><path class="cls-1" d="M1242.6,1084a23,23,0,0,1-23-23,12.77,12.77,0,1,0-25.53,0,23,23,0,0,1-46,0,58.77,58.77,0,1,1,117.53,0A23,23,0,0,1,1242.6,1084Z"/><path class="cls-1" d="M1112.11,1289.73a139,139,0,0,1-98.9-40.91,23,23,0,1,1,32.53-32.53,94,94,0,0,0,132.73,0,23,23,0,1,1,32.53,32.53A139,139,0,0,1,1112.11,1289.73Z"/><path class="cls-1" d="M1113.37,1438.33a335.08,335.08,0,1,1,130.82-26.42A334.05,334.05,0,0,1,1113.37,1438.33Zm0-626.16a290.09,290.09,0,1,0,205.11,85A288.21,288.21,0,0,0,1113.37,812.17Z"/></g></svg>