<svg id="svg" version="1.1" width="400" height="400" viewBox="0 0 400 400" xmlns="http://www.w3.org/2000/svg" xmlns:xlink="http://www.w3.org/1999/xlink" ><g id="svgg"><path id="path0" d="M288.667 39.733 C 289.240 40.320,289.768 40.800,289.842 40.800 C 289.915 40.800,289.506 40.320,288.933 39.733 C 288.360 39.147,287.832 38.667,287.758 38.667 C 287.685 38.667,288.094 39.147,288.667 39.733 M122.250 52.333 L 121.467 53.200 122.333 52.417 C 123.141 51.687,123.323 51.467,123.117 51.467 C 123.071 51.467,122.681 51.857,122.250 52.333 M126.254 71.800 L 125.200 72.933 126.333 71.879 C 127.387 70.899,127.589 70.667,127.387 70.667 C 127.344 70.667,126.834 71.177,126.254 71.800 M337.721 205.400 L 336.667 206.533 337.800 205.479 C 338.854 204.499,339.056 204.267,338.854 204.267 C 338.811 204.267,338.301 204.777,337.721 205.400 " stroke="none" fill="#545454" fill-rule="evenodd"></path><path id="path1" d="" stroke="none" fill="#545454" fill-rule="evenodd"></path><path id="path2" d="M197.400 2.864 C 198.390 2.916,200.010 2.916,201.000 2.864 C 201.990 2.813,201.180 2.771,199.200 2.771 C 197.220 2.771,196.410 2.813,197.400 2.864 M197.678 20.465 C 198.674 20.516,200.234 20.516,201.144 20.464 C 202.055 20.412,201.240 20.370,199.333 20.370 C 197.427 20.371,196.682 20.413,197.678 20.465 M81.536 196.455 C 81.868 196.519,82.348 196.517,82.603 196.450 C 82.858 196.383,82.587 196.331,82.000 196.334 C 81.413 196.337,81.205 196.391,81.536 196.455 M315.933 196.455 C 316.263 196.518,316.803 196.518,317.133 196.455 C 317.463 196.391,317.193 196.339,316.533 196.339 C 315.873 196.339,315.603 196.391,315.933 196.455 M315.667 214.060 C 316.143 214.119,316.923 214.119,317.400 214.060 C 317.877 214.000,317.487 213.952,316.533 213.952 C 315.580 213.952,315.190 214.000,315.667 214.060 M346.255 372.933 C 346.255 378.800,346.290 381.162,346.333 378.182 C 346.376 375.202,346.376 370.402,346.333 367.516 C 346.290 364.629,346.255 367.067,346.255 372.933 " stroke="none" fill="#545454" fill-rule="evenodd"></path><path id="path3" d="M196.400 2.969 C 191.131 3.115,184.884 3.597,181.333 4.132 C 176.708 4.828,170.968 5.957,167.677 6.819 C 166.755 7.061,165.820 7.296,165.600 7.342 C 165.380 7.388,165.200 7.444,165.200 7.467 C 165.200 7.489,165.020 7.546,164.800 7.592 C 163.823 7.800,163.592 7.877,163.467 8.040 C 163.393 8.136,162.973 8.274,162.533 8.347 C 162.093 8.420,161.416 8.604,161.027 8.756 C 160.639 8.908,160.249 8.960,160.161 8.872 C 160.072 8.783,160.000 8.847,160.000 9.014 C 160.000 9.180,159.820 9.248,159.600 9.163 C 159.380 9.079,159.200 9.139,159.200 9.296 C 159.200 9.454,159.020 9.514,158.800 9.430 C 158.580 9.345,158.400 9.399,158.400 9.548 C 158.400 9.697,157.921 9.901,157.335 10.000 C 156.749 10.099,156.202 10.289,156.119 10.423 C 156.036 10.557,155.683 10.667,155.333 10.667 C 154.984 10.667,154.632 10.773,154.551 10.904 C 154.424 11.110,151.281 12.480,150.533 12.655 C 150.387 12.690,149.907 12.876,149.467 13.070 C 149.027 13.264,148.607 13.443,148.533 13.468 C 148.460 13.494,147.954 13.714,147.409 13.957 C 146.863 14.201,146.293 14.400,146.142 14.400 C 145.991 14.400,145.867 14.520,145.867 14.667 C 145.867 14.813,145.777 14.909,145.667 14.880 C 145.414 14.813,140.190 17.389,139.970 17.689 C 139.880 17.812,139.760 17.894,139.704 17.872 C 139.495 17.792,138.524 18.247,138.181 18.585 C 137.987 18.777,137.657 18.933,137.448 18.933 C 137.238 18.933,137.067 19.025,137.067 19.137 C 137.067 19.249,136.617 19.558,136.067 19.824 C 134.464 20.599,131.938 22.126,130.800 23.006 C 129.714 23.847,127.417 25.313,126.959 25.459 C 126.651 25.556,126.400 25.726,126.400 25.836 C 126.400 25.945,125.933 26.298,125.361 26.619 C 124.790 26.940,124.247 27.399,124.155 27.639 C 124.063 27.880,123.912 28.001,123.820 27.909 C 123.728 27.817,123.501 27.950,123.315 28.204 C 123.129 28.459,122.872 28.667,122.745 28.667 C 122.618 28.667,122.098 29.056,121.590 29.532 C 121.082 30.008,120.582 30.398,120.479 30.399 C 120.375 30.399,119.990 30.670,119.622 31.000 C 119.254 31.330,118.581 31.900,118.127 32.267 C 114.609 35.107,109.526 39.950,106.267 43.567 C 105.240 44.707,104.066 45.990,103.657 46.419 C 103.249 46.849,103.001 47.200,103.106 47.200 C 103.210 47.200,102.893 47.560,102.400 48.000 C 101.907 48.440,101.591 48.800,101.697 48.800 C 101.804 48.800,101.615 49.091,101.279 49.446 C 100.123 50.665,99.579 51.337,98.131 53.333 C 97.333 54.433,96.577 55.407,96.451 55.496 C 96.324 55.586,96.260 55.706,96.308 55.763 C 96.412 55.886,94.888 57.961,94.600 58.089 C 94.490 58.138,94.400 58.348,94.400 58.556 C 94.400 58.763,94.280 58.933,94.133 58.933 C 93.987 58.933,93.867 59.103,93.867 59.311 C 93.867 59.519,93.777 59.729,93.667 59.778 C 93.557 59.827,93.176 60.407,92.821 61.067 C 92.465 61.727,92.015 62.363,91.821 62.480 C 91.626 62.597,91.467 62.849,91.467 63.040 C 91.467 63.231,91.107 63.884,90.667 64.491 C 90.227 65.098,89.867 65.754,89.867 65.947 C 89.867 66.141,89.627 66.557,89.333 66.872 C 89.040 67.187,88.800 67.629,88.800 67.856 C 88.800 68.082,88.709 68.267,88.598 68.267 C 88.488 68.267,88.226 68.657,88.017 69.133 C 87.808 69.610,87.052 71.080,86.338 72.400 C 85.623 73.720,85.063 74.800,85.094 74.800 C 85.124 74.800,84.987 75.250,84.788 75.800 C 84.589 76.350,84.330 76.800,84.213 76.800 C 84.096 76.800,84.019 76.890,84.043 77.000 C 84.067 77.110,83.947 77.538,83.776 77.951 C 83.606 78.364,83.467 78.814,83.467 78.951 C 83.467 79.088,83.347 79.200,83.200 79.200 C 83.053 79.200,82.933 79.420,82.933 79.689 C 82.933 79.958,82.850 80.261,82.748 80.363 C 82.646 80.465,82.535 80.736,82.501 80.964 C 82.468 81.192,82.149 81.999,81.793 82.756 C 81.060 84.314,80.494 85.839,80.464 86.333 C 80.453 86.517,80.344 86.667,80.222 86.667 C 80.100 86.667,80.000 86.866,80.000 87.110 C 80.000 87.805,79.111 90.513,78.815 90.719 C 78.669 90.821,78.631 90.986,78.730 91.086 C 78.830 91.186,78.734 91.612,78.516 92.034 C 78.298 92.455,78.177 92.800,78.246 92.800 C 78.316 92.800,78.198 93.219,77.983 93.732 C 77.769 94.245,77.595 94.725,77.597 94.799 C 77.599 94.873,77.591 94.963,77.580 95.000 C 77.568 95.037,77.519 95.247,77.469 95.467 C 77.420 95.687,77.122 96.887,76.809 98.133 C 76.495 99.380,76.195 100.700,76.142 101.067 C 76.054 101.679,75.677 103.619,74.972 107.091 C 74.821 107.837,74.629 108.977,74.546 109.624 C 74.464 110.271,74.329 111.220,74.248 111.733 C 73.930 113.738,73.552 117.835,73.589 118.892 C 73.643 120.455,72.795 121.366,71.568 121.064 C 71.472 121.040,71.317 121.144,71.224 121.294 C 71.131 121.445,70.699 121.632,70.263 121.711 C 69.827 121.790,69.429 121.978,69.379 122.129 C 69.329 122.280,69.178 122.335,69.044 122.253 C 68.910 122.170,68.800 122.236,68.800 122.400 C 68.800 122.564,68.680 122.624,68.533 122.533 C 68.387 122.443,68.267 122.516,68.267 122.695 C 68.267 122.875,68.187 122.943,68.090 122.846 C 67.993 122.749,67.543 122.949,67.090 123.290 C 66.637 123.632,65.727 124.228,65.067 124.616 C 64.407 125.003,63.490 125.677,63.030 126.112 C 62.570 126.548,62.139 126.850,62.072 126.784 C 61.926 126.637,59.356 129.411,58.317 130.838 C 56.735 133.010,55.247 135.425,55.398 135.576 C 55.485 135.663,55.408 135.733,55.229 135.733 C 55.049 135.733,54.976 135.853,55.067 136.000 C 55.157 136.147,55.084 136.267,54.905 136.267 C 54.725 136.267,54.649 136.338,54.736 136.425 C 54.823 136.512,54.598 137.115,54.235 137.765 C 53.873 138.414,53.649 139.063,53.737 139.206 C 53.826 139.349,53.758 139.467,53.587 139.467 C 53.416 139.467,53.342 139.639,53.423 139.849 C 53.504 140.060,53.458 140.270,53.321 140.316 C 53.183 140.362,53.048 140.760,53.021 141.200 C 52.993 141.640,52.864 142.142,52.734 142.315 C 52.605 142.488,52.468 143.116,52.431 143.711 C 52.394 144.305,52.286 144.870,52.191 144.965 C 51.914 145.241,51.978 188.222,52.255 188.393 C 52.390 188.476,52.452 188.796,52.393 189.103 C 52.334 189.410,52.460 190.080,52.674 190.592 C 52.888 191.103,53.089 191.869,53.121 192.294 C 53.154 192.719,53.271 193.067,53.382 193.067 C 53.493 193.067,53.514 193.247,53.430 193.467 C 53.345 193.687,53.409 193.867,53.571 193.867 C 53.734 193.867,53.867 194.094,53.867 194.373 C 53.867 194.651,54.227 195.604,54.667 196.491 C 55.107 197.378,55.467 198.230,55.467 198.385 C 55.467 198.540,55.572 198.667,55.701 198.667 C 55.830 198.667,56.084 199.027,56.267 199.467 C 56.449 199.907,56.703 200.267,56.832 200.267 C 56.961 200.267,57.067 200.447,57.067 200.667 C 57.067 200.887,57.207 201.067,57.378 201.067 C 57.549 201.067,57.610 201.146,57.513 201.243 C 57.416 201.340,57.578 201.588,57.873 201.794 C 58.168 202.001,58.348 202.269,58.273 202.390 C 58.198 202.511,58.487 202.888,58.915 203.229 C 59.343 203.570,59.644 203.928,59.584 204.025 C 59.524 204.122,60.103 204.757,60.871 205.436 C 61.639 206.115,62.519 206.910,62.828 207.202 C 63.137 207.494,63.500 207.733,63.635 207.733 C 63.771 207.733,64.087 207.973,64.338 208.267 C 64.589 208.560,64.970 208.800,65.184 208.800 C 65.398 208.800,65.669 208.967,65.787 209.172 C 66.019 209.576,68.322 210.710,71.465 211.967 C 73.688 212.857,73.683 212.848,74.015 216.218 C 74.194 218.041,74.276 218.522,74.814 220.933 C 75.043 221.960,75.274 223.040,75.326 223.333 C 75.379 223.627,75.450 223.927,75.485 224.000 C 75.520 224.073,75.571 224.253,75.600 224.400 C 75.628 224.547,75.726 224.847,75.818 225.067 C 75.909 225.287,76.020 225.767,76.065 226.133 C 76.110 226.500,76.228 226.928,76.326 227.085 C 76.425 227.242,76.562 227.662,76.632 228.019 C 76.701 228.375,76.958 229.207,77.202 229.867 C 77.446 230.527,77.672 231.187,77.703 231.333 C 77.734 231.480,77.907 231.870,78.089 232.200 C 78.270 232.530,78.356 232.800,78.278 232.800 C 78.091 232.800,78.974 235.028,79.232 235.206 C 79.343 235.282,79.497 235.692,79.574 236.117 C 79.651 236.542,79.869 236.988,80.057 237.108 C 80.246 237.227,80.312 237.327,80.205 237.329 C 80.097 237.331,80.248 237.759,80.540 238.279 C 81.371 239.758,82.674 242.382,82.658 242.541 C 82.650 242.621,82.888 242.997,83.188 243.379 C 83.488 243.760,83.733 244.227,83.733 244.416 C 83.733 244.605,84.153 245.309,84.667 245.982 C 85.180 246.654,85.600 247.324,85.600 247.469 C 85.600 247.614,85.720 247.733,85.867 247.733 C 86.013 247.733,86.133 247.913,86.133 248.133 C 86.133 248.353,86.253 248.533,86.400 248.533 C 86.547 248.533,86.667 248.713,86.667 248.933 C 86.667 249.153,86.779 249.333,86.915 249.333 C 87.052 249.333,87.242 249.577,87.336 249.876 C 87.431 250.174,87.762 250.654,88.071 250.942 C 88.381 251.231,88.528 251.467,88.399 251.467 C 88.270 251.467,88.398 251.637,88.682 251.845 C 88.967 252.053,89.200 252.326,89.200 252.451 C 89.200 252.577,89.484 252.976,89.832 253.340 C 90.180 253.703,90.661 254.300,90.901 254.667 C 91.790 256.022,98.516 262.910,100.666 264.667 C 101.204 265.107,101.941 265.737,102.301 266.067 C 102.662 266.397,103.022 266.667,103.101 266.667 C 103.283 266.667,105.669 268.578,105.929 268.933 C 106.037 269.080,106.127 269.101,106.129 268.981 C 106.131 268.860,106.309 268.920,106.524 269.114 C 107.372 269.879,107.720 270.122,109.189 270.978 C 110.027 271.467,111.033 272.075,111.423 272.329 C 111.814 272.584,112.403 272.911,112.733 273.056 C 113.703 273.483,113.438 274.048,112.181 274.232 C 111.964 274.264,111.577 274.465,111.319 274.678 C 111.062 274.892,110.840 275.030,110.826 274.985 C 110.812 274.940,110.107 275.210,109.259 275.585 C 108.412 275.960,107.602 276.267,107.459 276.267 C 107.317 276.267,107.200 276.394,107.200 276.549 C 107.200 276.704,107.080 276.757,106.933 276.667 C 106.787 276.576,106.667 276.629,106.667 276.784 C 106.667 276.940,106.531 277.067,106.366 277.067 C 106.200 277.067,105.390 277.455,104.566 277.929 C 103.741 278.404,103.007 278.797,102.933 278.803 C 102.860 278.809,102.452 279.046,102.027 279.331 C 101.601 279.615,101.077 279.873,100.861 279.905 C 100.646 279.936,100.034 280.303,99.501 280.719 C 98.969 281.136,97.753 281.948,96.800 282.525 C 95.847 283.102,94.908 283.730,94.714 283.920 C 94.520 284.111,94.269 284.267,94.156 284.267 C 94.042 284.267,93.601 284.569,93.175 284.938 C 92.749 285.308,91.926 285.938,91.348 286.338 C 90.769 286.739,89.989 287.353,89.614 287.703 C 89.240 288.053,88.629 288.533,88.257 288.770 C 87.445 289.286,86.820 289.827,84.938 291.644 C 84.153 292.402,83.466 292.977,83.411 292.922 C 83.255 292.766,76.490 299.857,76.336 300.337 C 76.300 300.448,75.880 300.952,75.402 301.458 C 74.017 302.924,73.467 303.586,73.467 303.788 C 73.467 303.891,73.017 304.450,72.467 305.031 C 71.917 305.611,71.467 306.165,71.467 306.261 C 71.467 306.357,71.137 306.878,70.733 307.418 C 70.020 308.374,69.827 308.618,69.133 309.446 C 68.950 309.665,68.800 309.969,68.800 310.122 C 68.800 310.275,68.680 310.400,68.533 310.400 C 68.387 310.400,68.267 310.580,68.267 310.800 C 68.267 311.020,68.147 311.200,68.000 311.200 C 67.853 311.200,67.733 311.309,67.733 311.442 C 67.733 311.781,65.104 316.212,64.786 316.409 C 64.642 316.498,64.585 316.668,64.659 316.788 C 64.733 316.908,64.615 317.155,64.397 317.336 C 64.179 317.517,64.000 317.782,64.000 317.925 C 64.000 318.068,63.764 318.516,63.475 318.922 C 63.186 319.328,63.026 319.737,63.119 319.830 C 63.212 319.924,63.142 320.000,62.962 320.000 C 62.782 320.000,62.709 320.120,62.800 320.267 C 62.891 320.413,62.831 320.533,62.667 320.533 C 62.503 320.533,62.443 320.653,62.533 320.800 C 62.624 320.947,62.564 321.067,62.400 321.067 C 62.236 321.067,62.176 321.187,62.267 321.333 C 62.357 321.480,62.297 321.600,62.133 321.600 C 61.969 321.600,61.909 321.720,62.000 321.867 C 62.091 322.013,62.031 322.133,61.867 322.133 C 61.703 322.133,61.643 322.253,61.733 322.400 C 61.824 322.547,61.796 322.667,61.671 322.667 C 61.546 322.667,61.219 323.327,60.945 324.133 C 60.671 324.940,60.346 325.600,60.223 325.600 C 60.101 325.600,60.000 325.813,60.000 326.074 C 60.000 326.335,59.834 326.785,59.632 327.074 C 59.246 327.625,57.839 331.358,57.800 331.933 C 57.788 332.117,57.658 332.267,57.511 332.267 C 57.364 332.267,57.314 332.336,57.399 332.421 C 57.578 332.600,56.851 334.905,56.458 335.406 C 56.311 335.593,56.263 335.819,56.351 335.907 C 56.440 335.995,56.334 336.411,56.117 336.831 C 55.900 337.251,55.725 337.656,55.728 337.731 C 55.731 337.805,55.723 337.897,55.711 337.933 C 55.699 337.970,55.636 338.360,55.570 338.800 C 55.504 339.240,55.375 339.780,55.283 340.000 C 55.191 340.220,55.139 340.503,55.167 340.628 C 55.195 340.754,55.096 341.005,54.945 341.186 C 54.794 341.367,54.747 341.592,54.840 341.685 C 54.933 341.778,54.858 342.037,54.672 342.260 C 54.486 342.484,54.403 342.667,54.486 342.667 C 54.570 342.667,54.449 343.297,54.219 344.067 C 53.988 344.837,53.698 346.187,53.574 347.067 C 53.450 347.947,53.293 349.027,53.225 349.467 C 53.157 349.907,53.026 350.867,52.933 351.600 C 52.839 352.333,52.641 353.773,52.492 354.800 C 51.950 358.539,51.874 382.951,52.401 384.536 C 53.337 387.355,55.368 389.483,57.867 390.264 C 58.233 390.378,58.610 390.591,58.703 390.736 C 58.879 391.009,63.561 391.137,64.267 390.887 C 65.654 390.397,66.450 389.857,67.317 388.820 C 68.454 387.459,69.118 386.274,68.878 386.034 C 68.786 385.942,68.831 385.867,68.978 385.867 C 69.124 385.867,69.263 385.717,69.286 385.533 C 69.309 385.350,69.378 384.780,69.440 384.267 C 69.501 383.753,69.575 377.813,69.603 371.067 C 69.638 362.901,69.768 357.998,69.992 356.400 C 70.178 355.080,70.283 353.918,70.227 353.818 C 70.171 353.719,70.249 353.560,70.400 353.467 C 70.551 353.373,70.615 353.198,70.540 353.078 C 70.421 352.885,70.538 352.163,71.103 349.600 C 71.184 349.233,71.312 348.453,71.388 347.867 C 71.464 347.280,71.643 346.655,71.786 346.478 C 71.929 346.301,71.969 346.031,71.874 345.878 C 71.779 345.725,71.797 345.450,71.914 345.267 C 72.030 345.083,72.142 344.843,72.163 344.733 C 72.183 344.623,72.225 344.503,72.256 344.467 C 72.286 344.430,72.350 344.160,72.398 343.867 C 72.566 342.844,72.765 342.164,73.057 341.617 C 73.219 341.314,73.293 341.067,73.221 341.067 C 73.104 341.067,73.609 339.429,74.045 338.400 C 74.138 338.180,74.251 337.880,74.296 337.733 C 74.810 336.067,75.517 334.305,75.912 333.701 C 76.180 333.292,76.360 332.917,76.311 332.869 C 76.155 332.716,77.191 330.402,77.416 330.401 C 77.534 330.400,77.557 330.280,77.467 330.133 C 77.376 329.987,77.436 329.867,77.600 329.867 C 77.764 329.867,77.824 329.747,77.733 329.600 C 77.643 329.453,77.703 329.333,77.867 329.333 C 78.031 329.333,78.091 329.213,78.000 329.067 C 77.909 328.920,77.969 328.800,78.133 328.800 C 78.297 328.800,78.357 328.680,78.267 328.533 C 78.176 328.387,78.236 328.267,78.400 328.267 C 78.564 328.267,78.624 328.147,78.533 328.000 C 78.443 327.853,78.496 327.733,78.651 327.733 C 78.806 327.733,78.912 327.643,78.887 327.533 C 78.812 327.213,79.530 325.867,79.776 325.867 C 79.899 325.867,80.000 325.668,80.000 325.425 C 80.000 325.182,80.300 324.590,80.667 324.110 C 81.033 323.629,81.333 323.170,81.333 323.090 C 81.333 322.939,83.126 320.080,83.520 319.603 C 83.643 319.455,83.981 319.045,84.272 318.693 C 84.562 318.340,84.800 317.973,84.800 317.876 C 84.800 317.780,85.043 317.440,85.339 317.122 C 85.635 316.804,85.865 316.472,85.850 316.385 C 85.834 316.297,86.308 315.665,86.901 314.980 C 87.495 314.294,88.255 313.393,88.590 312.977 C 90.344 310.800,95.733 305.188,95.733 305.537 C 95.733 305.628,96.273 305.123,96.933 304.415 C 97.593 303.706,98.133 303.207,98.133 303.306 C 98.133 303.502,99.079 302.686,100.178 301.541 C 100.561 301.141,100.979 300.879,101.106 300.958 C 101.233 301.036,101.409 300.913,101.497 300.684 C 101.585 300.454,101.828 300.267,102.037 300.267 C 102.246 300.267,102.486 300.087,102.570 299.867 C 102.655 299.647,102.837 299.467,102.976 299.467 C 103.115 299.467,103.612 299.107,104.081 298.668 C 104.550 298.229,105.083 297.869,105.267 297.868 C 105.450 297.867,105.600 297.747,105.600 297.600 C 105.600 297.453,105.780 297.333,106.000 297.333 C 106.220 297.333,106.400 297.213,106.400 297.067 C 106.400 296.920,106.570 296.800,106.778 296.800 C 106.986 296.800,107.196 296.708,107.244 296.595 C 107.361 296.325,111.083 294.133,111.424 294.133 C 111.570 294.133,111.729 294.033,111.778 293.910 C 111.887 293.635,117.867 290.621,117.867 290.841 C 117.867 290.927,118.034 290.859,118.239 290.689 C 118.444 290.519,118.879 290.328,119.206 290.266 C 119.533 290.203,120.081 289.967,120.424 289.742 C 120.767 289.517,121.204 289.333,121.395 289.333 C 121.585 289.333,122.159 289.111,122.671 288.840 C 123.182 288.569,123.750 288.399,123.933 288.462 C 124.117 288.526,124.267 288.461,124.267 288.319 C 124.267 288.081,126.001 287.584,126.467 287.688 C 126.577 287.713,126.667 287.606,126.667 287.451 C 126.667 287.296,126.792 287.246,126.945 287.341 C 127.098 287.435,127.380 287.382,127.572 287.223 C 127.764 287.064,128.238 286.908,128.627 286.875 C 129.015 286.843,129.333 286.723,129.333 286.609 C 129.333 286.494,129.567 286.400,129.854 286.400 C 130.140 286.400,131.070 286.211,131.920 285.980 C 134.271 285.341,136.764 284.820,138.117 284.686 C 138.786 284.620,139.333 284.550,139.333 284.531 C 139.333 284.481,140.719 284.298,142.267 284.142 C 143.000 284.068,144.050 283.958,144.599 283.897 C 145.152 283.836,145.532 283.894,145.450 284.027 C 145.369 284.159,145.436 284.267,145.600 284.267 C 145.764 284.267,145.824 284.387,145.733 284.533 C 145.643 284.680,145.696 284.800,145.851 284.800 C 146.006 284.800,146.133 284.962,146.133 285.159 C 146.133 285.357,146.385 285.807,146.692 286.159 C 146.999 286.512,147.424 287.133,147.636 287.540 C 148.007 288.255,151.458 291.802,151.476 291.488 C 151.480 291.403,151.703 291.595,151.969 291.914 C 152.553 292.613,157.553 295.260,157.893 295.050 C 158.025 294.969,158.133 295.042,158.133 295.213 C 158.133 295.384,158.302 295.459,158.507 295.380 C 158.713 295.301,158.956 295.312,159.048 295.404 C 159.747 296.102,164.123 296.297,177.067 296.205 C 188.383 296.125,190.400 296.051,191.200 295.690 C 191.713 295.459,192.283 295.324,192.467 295.390 C 192.650 295.457,192.800 295.385,192.800 295.231 C 192.800 295.076,192.980 295.019,193.200 295.104 C 193.420 295.188,193.600 295.124,193.600 294.962 C 193.600 294.800,193.770 294.667,193.978 294.667 C 194.468 294.667,197.940 292.830,198.196 292.435 C 198.304 292.269,198.394 292.246,198.396 292.384 C 198.398 292.522,198.570 292.402,198.779 292.118 C 198.987 291.833,199.258 291.600,199.380 291.600 C 199.675 291.600,203.467 287.797,203.467 287.501 C 203.467 287.376,203.825 286.823,204.263 286.272 C 204.701 285.721,204.994 285.164,204.914 285.035 C 204.834 284.906,204.903 284.800,205.067 284.800 C 205.231 284.800,205.291 284.680,205.200 284.533 C 205.109 284.387,205.162 284.267,205.318 284.267 C 205.473 284.267,205.570 284.117,205.533 283.933 C 205.369 283.110,251.549 283.483,257.600 284.354 C 257.967 284.406,258.987 284.544,259.867 284.658 C 260.747 284.773,261.648 284.961,261.870 285.076 C 262.092 285.190,262.812 285.348,263.470 285.426 C 265.308 285.643,266.500 285.915,266.867 286.204 C 267.050 286.347,267.200 286.394,267.200 286.306 C 267.200 286.218,267.503 286.262,267.874 286.403 C 268.244 286.544,268.814 286.714,269.140 286.782 C 270.621 287.091,270.929 287.179,271.383 287.422 C 271.649 287.564,271.957 287.693,272.067 287.707 C 272.535 287.769,272.844 287.870,274.333 288.448 C 274.590 288.547,274.980 288.653,275.200 288.683 C 275.796 288.763,278.446 289.846,279.133 290.291 C 279.463 290.504,279.733 290.598,279.733 290.498 C 279.733 290.399,279.973 290.535,280.267 290.800 C 280.560 291.065,280.800 291.212,280.800 291.127 C 280.800 290.954,285.654 293.286,285.867 293.561 C 285.940 293.656,286.944 294.210,288.098 294.793 C 289.252 295.375,290.254 296.005,290.326 296.193 C 290.398 296.380,290.573 296.533,290.714 296.533 C 290.992 296.533,293.245 298.024,293.819 298.587 C 294.013 298.778,294.260 298.933,294.369 298.933 C 294.477 298.933,294.829 299.178,295.150 299.477 C 295.471 299.776,295.733 299.941,295.733 299.843 C 295.733 299.744,296.183 300.101,296.733 300.635 C 297.283 301.169,297.853 301.633,298.000 301.666 C 298.147 301.700,298.648 302.089,299.114 302.530 C 299.580 302.972,300.522 303.813,301.208 304.400 C 302.765 305.733,306.716 309.675,308.133 311.310 C 308.720 311.987,309.594 312.959,310.076 313.470 C 310.557 313.982,310.857 314.404,310.742 314.408 C 310.627 314.413,310.716 314.563,310.940 314.742 C 311.632 315.294,314.400 319.004,314.400 319.379 C 314.400 319.574,314.520 319.733,314.667 319.733 C 314.813 319.733,314.933 319.913,314.933 320.133 C 314.933 320.353,315.053 320.533,315.200 320.533 C 315.347 320.533,315.467 320.713,315.467 320.933 C 315.467 321.153,315.591 321.333,315.743 321.333 C 315.895 321.333,316.243 321.843,316.517 322.467 C 316.790 323.090,317.326 324.013,317.707 324.518 C 318.088 325.024,318.400 325.584,318.400 325.763 C 318.400 325.942,318.492 326.129,318.604 326.178 C 318.938 326.323,321.580 331.664,321.405 331.839 C 321.317 331.928,321.384 332.000,321.556 332.000 C 321.727 332.000,321.867 332.128,321.867 332.284 C 321.867 332.440,322.164 333.217,322.526 334.010 C 322.889 334.803,323.259 335.786,323.347 336.193 C 323.436 336.600,323.608 337.173,323.730 337.467 C 324.025 338.177,324.347 339.035,324.381 339.200 C 324.396 339.273,324.503 339.483,324.620 339.667 C 324.736 339.850,324.771 340.000,324.696 340.000 C 324.622 340.000,324.736 340.420,324.951 340.933 C 325.165 341.447,325.264 341.867,325.171 341.867 C 325.078 341.867,325.128 342.020,325.284 342.207 C 325.439 342.394,325.606 342.844,325.656 343.207 C 325.706 343.570,325.846 344.025,325.967 344.218 C 326.088 344.411,326.116 344.640,326.029 344.727 C 325.942 344.813,325.994 345.033,326.145 345.214 C 326.296 345.395,326.395 345.646,326.367 345.772 C 326.339 345.897,326.383 346.180,326.466 346.400 C 326.549 346.620,326.757 347.580,326.928 348.533 C 327.099 349.487,327.309 350.567,327.394 350.933 C 327.581 351.733,327.590 351.801,328.106 355.916 C 328.414 358.370,328.521 362.187,328.544 371.513 C 328.564 379.667,328.669 383.976,328.853 384.197 C 329.007 384.382,329.059 384.533,328.971 384.533 C 328.814 384.533,329.169 385.217,330.380 387.250 C 330.703 387.791,331.405 388.511,331.941 388.850 C 333.205 389.650,334.746 390.536,335.000 390.609 C 335.110 390.641,335.230 390.676,335.267 390.687 C 336.497 391.064,339.879 391.308,340.451 391.061 C 340.716 390.947,341.071 390.823,341.239 390.787 C 343.007 390.409,345.225 387.741,345.853 385.237 C 346.073 384.358,346.026 359.396,345.799 356.533 C 345.532 353.182,345.375 351.858,345.063 350.328 C 344.920 349.629,344.822 348.969,344.845 348.862 C 344.869 348.754,344.808 348.367,344.711 348.000 C 344.615 347.633,344.479 346.913,344.410 346.400 C 344.249 345.197,343.278 340.917,342.917 339.820 C 342.764 339.355,342.579 338.646,342.507 338.246 C 342.434 337.845,342.240 337.266,342.076 336.959 C 341.911 336.651,341.805 336.400,341.839 336.400 C 341.873 336.400,341.843 336.220,341.771 336.000 C 340.994 333.601,340.529 332.086,340.502 331.867 C 340.485 331.720,340.304 331.363,340.102 331.074 C 339.899 330.785,339.732 330.305,339.730 330.007 C 339.728 329.710,339.377 328.777,338.949 327.933 C 338.521 327.090,338.237 326.400,338.316 326.400 C 338.396 326.400,338.268 326.104,338.031 325.743 C 337.794 325.381,337.600 324.901,337.600 324.676 C 337.600 324.451,337.480 324.267,337.333 324.267 C 337.187 324.267,337.089 324.177,337.117 324.067 C 337.166 323.871,334.667 318.664,334.397 318.400 C 334.323 318.327,334.023 317.796,333.731 317.220 C 333.439 316.644,332.810 315.582,332.333 314.860 C 331.857 314.137,331.467 313.384,331.467 313.186 C 331.467 312.988,331.311 312.731,331.122 312.613 C 330.932 312.496,330.215 311.500,329.529 310.400 C 328.843 309.300,328.188 308.280,328.074 308.133 C 327.960 307.986,327.518 307.386,327.092 306.800 C 326.666 306.213,325.946 305.337,325.492 304.852 C 325.038 304.367,324.707 303.908,324.756 303.832 C 324.860 303.670,323.029 301.484,321.398 299.823 C 320.774 299.187,320.344 298.667,320.442 298.667 C 320.540 298.667,319.100 297.197,317.242 295.400 C 312.912 291.214,311.733 290.123,311.733 290.301 C 311.733 290.381,311.315 290.015,310.805 289.490 C 310.294 288.964,309.784 288.533,309.671 288.532 C 309.559 288.531,309.051 288.141,308.543 287.665 C 308.035 287.189,307.516 286.800,307.388 286.800 C 307.261 286.800,307.005 286.592,306.819 286.337 C 306.633 286.083,306.411 285.945,306.325 286.030 C 306.240 286.115,306.013 285.934,305.821 285.626 C 305.629 285.318,305.349 285.067,305.200 285.067 C 305.050 285.067,304.604 284.767,304.209 284.400 C 303.813 284.033,303.365 283.733,303.212 283.733 C 303.059 283.733,302.933 283.606,302.933 283.451 C 302.933 283.296,302.813 283.243,302.667 283.333 C 302.520 283.424,302.400 283.371,302.400 283.216 C 302.400 283.060,302.271 282.933,302.114 282.933 C 301.957 282.933,301.661 282.783,301.457 282.600 C 300.757 281.972,300.399 281.733,299.467 281.268 C 298.489 280.781,297.990 280.484,296.667 279.601 C 296.227 279.307,295.267 278.767,294.533 278.400 C 293.800 278.033,293.160 277.643,293.111 277.532 C 293.061 277.421,292.911 277.398,292.777 277.481 C 292.643 277.564,292.533 277.504,292.533 277.349 C 292.533 277.194,292.443 277.082,292.333 277.101 C 291.976 277.164,290.400 276.423,290.400 276.192 C 290.400 276.069,290.280 276.043,290.133 276.133 C 289.987 276.224,289.867 276.164,289.867 276.000 C 289.867 275.836,289.747 275.776,289.600 275.867 C 289.453 275.957,289.333 275.918,289.333 275.780 C 289.333 275.642,289.063 275.441,288.733 275.334 C 288.403 275.226,288.073 275.118,288.000 275.093 C 287.927 275.068,287.567 274.882,287.200 274.679 C 286.833 274.476,286.533 274.339,286.533 274.374 C 286.533 274.409,286.173 274.291,285.733 274.111 C 285.293 273.932,284.783 273.754,284.599 273.716 C 284.416 273.678,283.739 273.392,283.095 273.080 C 282.451 272.769,281.659 272.463,281.335 272.400 C 281.011 272.338,280.578 272.148,280.373 271.977 C 280.168 271.807,280.000 271.757,280.000 271.867 C 280.000 271.976,279.820 271.916,279.600 271.733 C 279.380 271.551,279.200 271.479,279.200 271.574 C 279.200 271.669,278.841 271.562,278.403 271.335 C 277.964 271.108,277.544 270.925,277.469 270.928 C 277.395 270.931,277.303 270.924,277.267 270.914 C 277.230 270.903,276.909 270.840,276.554 270.775 C 276.199 270.710,275.779 270.550,275.621 270.420 C 275.463 270.290,274.973 270.121,274.533 270.045 C 272.722 269.733,271.851 269.513,271.575 269.298 C 271.415 269.173,271.208 269.147,271.115 269.240 C 271.022 269.333,270.763 269.258,270.540 269.072 C 270.316 268.886,270.133 268.801,270.133 268.882 C 270.133 268.963,269.743 268.912,269.267 268.768 C 268.790 268.625,267.947 268.457,267.394 268.396 C 266.840 268.334,265.880 268.142,265.260 267.969 C 264.640 267.797,263.893 267.624,263.600 267.586 C 263.307 267.548,262.527 267.438,261.867 267.342 C 261.207 267.246,260.307 267.124,259.867 267.070 C 252.738 266.201,254.443 266.248,227.946 266.186 L 205.626 266.133 204.628 264.348 C 204.078 263.366,203.467 262.376,203.268 262.148 C 201.360 259.957,199.298 258.039,198.108 257.347 C 197.315 256.886,196.487 256.395,196.267 256.254 C 195.884 256.010,193.417 254.903,193.000 254.788 C 192.890 254.758,192.740 254.703,192.667 254.667 C 192.593 254.630,192.413 254.570,192.267 254.533 C 192.120 254.497,191.970 254.442,191.933 254.413 C 190.859 253.547,161.218 253.233,160.202 254.076 C 159.975 254.265,159.687 254.400,159.561 254.378 C 159.436 254.355,159.243 254.366,159.133 254.402 C 159.023 254.437,158.813 254.497,158.667 254.533 C 158.520 254.570,158.340 254.630,158.267 254.667 C 158.193 254.703,158.043 254.753,157.933 254.776 C 157.823 254.800,157.433 254.985,157.067 255.188 C 156.700 255.391,156.394 255.507,156.386 255.445 C 156.364 255.264,152.115 257.790,151.637 258.268 C 151.397 258.508,151.200 258.643,151.200 258.567 C 151.200 258.491,150.471 259.173,149.580 260.081 C 147.377 262.327,147.200 262.535,147.200 262.867 C 147.200 263.026,147.110 263.196,147.000 263.244 C 146.890 263.293,146.500 263.910,146.133 264.615 L 145.467 265.896 144.133 265.727 C 142.035 265.461,141.263 265.321,141.007 265.163 C 140.877 265.083,140.087 264.910,139.252 264.779 C 136.742 264.386,136.433 264.320,135.600 263.996 C 135.160 263.826,134.572 263.640,134.294 263.584 C 133.352 263.394,131.868 262.865,131.533 262.599 C 131.350 262.454,131.200 262.423,131.200 262.531 C 131.200 262.640,130.900 262.531,130.533 262.291 C 130.167 262.051,129.867 261.932,129.867 262.027 C 129.867 262.121,129.697 262.058,129.490 261.886 C 129.282 261.714,128.772 261.512,128.356 261.438 C 127.940 261.363,127.560 261.189,127.511 261.051 C 127.462 260.913,127.249 260.800,127.037 260.800 C 126.568 260.800,123.637 259.347,122.533 258.567 C 122.093 258.256,121.673 258.037,121.600 258.079 C 121.527 258.122,120.835 257.731,120.063 257.212 C 119.292 256.692,118.542 256.267,118.397 256.267 C 118.252 256.267,118.133 256.147,118.133 256.000 C 118.133 255.853,117.983 255.733,117.800 255.732 C 117.617 255.731,117.077 255.365,116.600 254.919 C 116.123 254.472,115.729 254.202,115.724 254.320 C 115.720 254.437,115.494 254.268,115.224 253.945 C 114.954 253.621,114.678 253.411,114.611 253.478 C 114.543 253.545,114.179 253.270,113.802 252.867 C 113.424 252.463,112.676 251.773,112.140 251.333 C 110.902 250.317,106.519 245.939,105.467 244.668 C 105.027 244.136,104.327 243.349,103.913 242.917 C 103.498 242.486,103.255 242.133,103.372 242.133 C 103.489 242.133,103.317 241.945,102.988 241.715 C 102.660 241.485,102.460 241.185,102.545 241.048 C 102.629 240.912,102.601 240.799,102.482 240.798 C 102.364 240.797,101.967 240.347,101.600 239.798 C 101.234 239.249,100.784 238.641,100.600 238.448 C 100.417 238.254,100.267 237.939,100.267 237.747 C 100.267 237.555,100.080 237.243,99.851 237.054 C 99.623 236.864,99.264 236.340,99.054 235.888 C 98.844 235.436,98.237 234.296,97.706 233.355 C 97.174 232.413,96.705 231.513,96.664 231.355 C 96.405 230.369,96.177 229.867,95.990 229.867 C 95.872 229.867,95.693 229.489,95.592 229.028 C 95.490 228.567,95.219 227.757,94.988 227.228 C 94.757 226.699,94.590 226.177,94.617 226.067 C 94.644 225.957,94.547 225.867,94.400 225.867 C 94.253 225.867,94.155 225.777,94.182 225.667 C 94.240 225.429,93.641 223.292,93.305 222.533 C 93.174 222.240,93.016 221.700,92.954 221.333 C 92.891 220.967,92.812 220.607,92.779 220.533 C 92.746 220.460,92.695 220.280,92.667 220.133 C 92.638 219.987,92.543 219.687,92.456 219.467 C 91.936 218.162,91.082 212.258,91.419 212.305 C 91.519 212.318,91.690 212.301,91.800 212.265 C 91.910 212.229,92.120 212.170,92.267 212.133 C 92.413 212.097,92.563 212.042,92.600 212.013 C 92.637 211.983,92.847 211.920,93.067 211.873 C 94.147 211.640,100.051 208.081,100.596 207.335 C 100.704 207.187,100.794 207.171,100.796 207.299 C 100.798 207.427,101.280 207.036,101.867 206.432 C 102.453 205.827,102.933 205.408,102.933 205.499 C 102.933 205.590,103.116 205.514,103.340 205.328 C 103.563 205.142,103.693 204.938,103.629 204.873 C 103.564 204.809,103.996 204.286,104.588 203.711 C 105.180 203.137,105.581 202.667,105.480 202.667 C 105.378 202.667,105.454 202.506,105.648 202.309 C 106.167 201.781,107.244 200.337,107.623 199.658 C 108.255 198.528,109.436 196.132,109.491 195.867 C 109.522 195.720,109.691 195.240,109.868 194.800 L 110.188 194.000 110.442 194.667 C 110.688 195.311,112.388 197.962,112.933 198.551 C 113.080 198.710,113.437 199.280,113.727 199.820 C 114.017 200.359,114.347 200.800,114.461 200.800 C 114.574 200.800,114.667 200.971,114.667 201.181 C 114.667 201.390,114.818 201.720,115.004 201.914 C 115.189 202.108,115.993 203.167,116.789 204.267 C 117.586 205.367,118.454 206.481,118.719 206.744 C 118.984 207.006,119.200 207.311,119.200 207.421 C 119.200 207.530,119.770 208.243,120.467 209.004 C 121.163 209.764,122.513 211.257,123.467 212.321 C 125.675 214.784,127.127 216.234,129.556 218.400 C 130.625 219.353,131.896 220.493,132.380 220.933 C 132.864 221.373,133.579 221.973,133.968 222.267 C 134.357 222.560,135.003 223.063,135.404 223.384 C 135.805 223.706,136.913 224.544,137.867 225.246 C 138.820 225.949,139.759 226.676,139.952 226.862 C 140.146 227.048,140.421 227.200,140.564 227.200 C 140.706 227.200,141.473 227.680,142.267 228.267 C 143.061 228.853,143.830 229.333,143.975 229.333 C 144.121 229.333,144.336 229.490,144.453 229.682 C 144.571 229.873,145.191 230.298,145.831 230.627 C 146.471 230.955,147.171 231.399,147.386 231.614 C 147.601 231.829,147.868 231.948,147.981 231.878 C 148.094 231.809,148.439 231.988,148.748 232.276 C 149.058 232.564,149.496 232.800,149.722 232.800 C 149.948 232.800,150.133 232.920,150.133 233.067 C 150.133 233.213,150.223 233.310,150.333 233.281 C 150.443 233.252,151.793 233.876,153.333 234.667 C 154.873 235.457,156.223 236.081,156.333 236.052 C 156.443 236.023,156.533 236.120,156.533 236.267 C 156.533 236.413,156.749 236.533,157.013 236.533 C 157.277 236.533,157.622 236.662,157.778 236.818 C 157.935 236.975,158.229 237.130,158.432 237.162 C 158.634 237.194,159.470 237.540,160.289 237.930 C 161.107 238.321,162.082 238.695,162.454 238.763 C 162.826 238.830,163.386 239.016,163.699 239.176 C 164.011 239.336,164.512 239.591,164.811 239.742 C 165.110 239.894,165.470 239.947,165.611 239.860 C 165.752 239.773,165.867 239.842,165.867 240.013 C 165.867 240.184,166.047 240.255,166.267 240.170 C 166.487 240.086,166.667 240.146,166.667 240.304 C 166.667 240.461,166.847 240.521,167.067 240.437 C 167.287 240.352,167.467 240.412,167.467 240.570 C 167.467 240.728,167.647 240.788,167.867 240.704 C 168.087 240.619,168.267 240.646,168.267 240.764 C 168.267 240.882,168.417 240.988,168.600 241.001 C 168.783 241.013,169.203 241.093,169.533 241.179 C 169.863 241.264,170.403 241.392,170.733 241.463 C 171.063 241.535,171.633 241.713,172.000 241.861 C 172.367 242.008,172.967 242.181,173.333 242.245 C 173.700 242.308,174.060 242.383,174.133 242.411 C 174.207 242.439,174.387 242.484,174.533 242.512 C 175.016 242.602,176.378 242.958,177.733 243.347 C 178.467 243.558,179.693 243.782,180.458 243.844 C 181.223 243.907,181.943 244.016,182.058 244.087 C 182.245 244.202,182.911 244.299,186.133 244.678 C 186.647 244.739,187.427 244.843,187.867 244.909 C 190.258 245.270,199.173 245.614,202.340 245.467 C 208.447 245.184,208.567 245.174,214.800 244.389 C 215.998 244.239,216.990 244.055,219.200 243.577 C 220.300 243.339,221.500 243.104,221.867 243.055 C 222.233 243.007,223.369 242.728,224.391 242.437 C 225.413 242.145,226.343 241.965,226.458 242.036 C 226.573 242.107,226.667 242.045,226.667 241.899 C 226.667 241.753,226.877 241.643,227.133 241.654 C 227.726 241.681,228.361 241.517,228.533 241.293 C 228.607 241.197,229.027 241.057,229.467 240.981 C 229.907 240.905,230.987 240.584,231.867 240.267 C 232.747 239.950,233.587 239.667,233.733 239.638 C 233.880 239.609,234.150 239.492,234.332 239.377 C 234.515 239.263,234.918 239.121,235.228 239.061 C 235.538 239.002,236.318 238.698,236.962 238.386 C 237.606 238.075,238.282 237.789,238.466 237.751 C 238.650 237.713,239.160 237.524,239.600 237.330 C 240.040 237.136,240.460 236.964,240.533 236.946 C 240.607 236.929,240.967 236.748,241.333 236.545 C 241.700 236.343,242.000 236.193,242.000 236.214 C 242.000 236.235,242.270 236.181,242.600 236.095 C 242.930 236.008,243.200 235.825,243.200 235.686 C 243.200 235.548,243.320 235.509,243.467 235.600 C 243.613 235.691,243.733 235.638,243.733 235.482 C 243.733 235.327,243.823 235.224,243.933 235.254 C 244.043 235.284,244.673 235.019,245.333 234.667 C 245.993 234.314,246.623 234.050,246.733 234.079 C 246.843 234.109,246.933 234.006,246.933 233.851 C 246.933 233.696,247.053 233.643,247.200 233.733 C 247.347 233.824,247.467 233.793,247.467 233.666 C 247.467 233.538,247.892 233.266,248.413 233.062 C 248.933 232.857,249.488 232.535,249.645 232.345 C 249.803 232.155,250.098 232.000,250.302 232.000 C 250.505 232.000,251.168 231.640,251.776 231.200 C 252.383 230.760,253.002 230.400,253.151 230.400 C 253.300 230.400,253.612 230.218,253.844 229.995 C 254.224 229.630,256.206 228.280,259.710 226.000 C 260.818 225.278,261.878 224.438,262.804 223.546 C 262.987 223.370,263.197 223.286,263.271 223.360 C 263.345 223.434,263.660 223.172,263.970 222.778 C 264.280 222.384,264.533 222.132,264.533 222.219 C 264.533 222.305,264.863 222.081,265.267 221.721 C 265.670 221.361,266.420 220.702,266.933 220.257 C 269.494 218.035,276.923 210.419,278.400 208.501 C 278.767 208.024,279.337 207.351,279.667 207.005 C 279.997 206.659,280.267 206.267,280.267 206.134 C 280.267 206.002,280.420 205.797,280.606 205.680 C 280.793 205.563,281.145 205.154,281.388 204.771 C 281.631 204.388,282.027 203.878,282.267 203.637 C 282.508 203.397,282.614 203.200,282.502 203.200 C 282.391 203.200,282.532 202.966,282.816 202.679 C 283.712 201.777,283.973 201.395,283.806 201.228 C 283.717 201.139,283.784 201.067,283.956 201.067 C 284.127 201.067,284.267 200.942,284.267 200.789 C 284.267 200.473,285.363 198.846,285.667 198.711 C 285.777 198.662,285.867 198.471,285.867 198.286 C 285.867 198.101,286.107 197.732,286.400 197.467 C 286.693 197.201,286.933 196.882,286.933 196.758 C 286.933 196.634,287.291 195.962,287.728 195.266 C 288.343 194.286,288.524 194.132,288.528 194.584 C 288.531 194.906,288.644 195.237,288.779 195.321 C 288.915 195.404,289.104 195.831,289.201 196.270 C 289.297 196.708,289.493 197.067,289.637 197.067 C 289.781 197.067,289.824 197.187,289.733 197.333 C 289.643 197.480,289.696 197.600,289.851 197.600 C 290.006 197.600,290.133 197.721,290.133 197.869 C 290.133 198.135,292.722 202.220,293.563 203.282 C 294.635 204.633,297.887 207.669,298.087 207.504 C 298.135 207.464,298.387 207.677,298.647 207.978 C 298.908 208.278,299.199 208.446,299.294 208.351 C 299.389 208.256,299.467 208.318,299.467 208.489 C 299.467 208.660,299.647 208.800,299.867 208.800 C 300.087 208.800,300.267 208.905,300.267 209.034 C 300.267 209.163,300.627 209.418,301.067 209.600 C 301.507 209.782,301.867 210.037,301.867 210.166 C 301.867 210.295,301.986 210.400,302.133 210.400 C 302.279 210.400,303.161 210.760,304.092 211.200 C 305.023 211.640,305.983 212.000,306.226 212.000 C 306.468 212.000,306.667 212.133,306.667 212.295 C 306.667 212.458,306.847 212.521,307.067 212.437 C 307.287 212.352,307.467 212.380,307.467 212.497 C 307.467 212.615,307.617 212.729,307.800 212.750 C 308.562 212.839,309.224 212.981,309.600 213.137 C 311.332 213.857,320.259 214.130,321.287 213.495 C 321.459 213.389,321.600 213.358,321.600 213.427 C 321.600 213.496,322.350 213.373,323.267 213.153 C 324.183 212.934,325.113 212.713,325.333 212.664 C 325.553 212.615,325.763 212.550,325.800 212.520 C 325.837 212.491,325.987 212.437,326.133 212.400 C 326.280 212.363,326.460 212.303,326.533 212.267 C 326.607 212.230,326.787 212.170,326.933 212.133 C 327.080 212.097,327.260 212.037,327.333 212.000 C 327.407 211.963,327.557 211.915,327.667 211.893 C 328.152 211.796,331.786 209.856,332.839 209.131 C 333.478 208.692,334.120 208.309,334.267 208.281 C 334.413 208.252,334.629 208.057,334.747 207.848 C 334.864 207.638,335.082 207.467,335.232 207.467 C 335.532 207.467,339.502 203.521,340.480 202.252 C 341.231 201.277,342.114 199.806,343.112 197.867 C 343.527 197.060,343.957 196.360,344.067 196.311 C 344.177 196.262,344.267 196.019,344.267 195.770 C 344.267 195.522,344.454 195.052,344.682 194.726 C 344.911 194.399,345.024 194.013,344.933 193.866 C 344.843 193.720,344.908 193.600,345.079 193.600 C 345.250 193.600,345.321 193.420,345.237 193.200 C 345.152 192.980,345.180 192.800,345.297 192.800 C 345.415 192.800,345.522 192.650,345.536 192.467 C 345.578 191.901,346.074 189.503,346.294 188.800 C 346.409 188.433,346.546 179.201,346.599 168.284 C 346.692 149.119,346.633 147.012,345.886 142.800 C 345.548 140.898,345.490 140.684,345.268 140.518 C 345.159 140.437,345.042 140.047,345.010 139.652 C 344.977 139.257,344.870 138.933,344.771 138.933 C 344.624 138.933,344.416 138.403,344.143 137.333 C 344.061 137.012,342.594 134.204,342.185 133.584 C 340.339 130.791,339.904 130.204,339.212 129.572 C 338.782 129.179,338.492 128.797,338.567 128.722 C 338.642 128.647,338.258 128.244,337.714 127.826 C 337.170 127.408,336.528 126.887,336.287 126.667 C 336.046 126.447,335.373 125.913,334.791 125.481 C 334.209 125.049,333.673 124.629,333.600 124.547 C 333.200 124.105,328.800 121.867,328.331 121.867 C 328.149 121.867,328.000 121.772,328.000 121.657 C 328.000 121.541,327.741 121.427,327.424 121.403 C 327.107 121.380,326.761 121.219,326.654 121.046 C 326.547 120.873,326.326 120.814,326.163 120.915 C 326.000 121.016,325.867 120.975,325.867 120.824 C 325.867 120.673,325.687 120.619,325.467 120.704 C 325.152 120.824,325.067 120.629,325.067 119.790 C 325.067 118.818,324.439 112.453,324.154 110.533 C 324.088 110.093,323.898 108.773,323.730 107.600 C 323.563 106.427,323.311 105.047,323.171 104.533 C 323.031 104.020,322.874 103.240,322.823 102.800 C 322.772 102.360,322.602 101.680,322.446 101.289 C 322.291 100.897,322.169 100.357,322.176 100.089 C 322.183 99.820,321.945 98.764,321.647 97.742 C 321.350 96.721,321.165 95.791,321.236 95.676 C 321.307 95.561,321.245 95.467,321.099 95.467 C 320.953 95.467,320.834 95.257,320.836 95.000 C 320.839 94.382,320.699 93.809,320.443 93.400 C 320.329 93.217,320.305 93.067,320.391 93.067 C 320.477 93.067,320.369 92.722,320.151 92.300 C 319.933 91.879,319.836 91.453,319.936 91.353 C 320.036 91.253,320.000 91.088,319.855 90.986 C 319.537 90.761,318.272 86.936,318.361 86.467 C 318.395 86.283,318.298 86.133,318.145 86.133 C 317.992 86.133,317.867 85.889,317.867 85.591 C 317.867 85.292,317.694 84.782,317.482 84.457 C 317.271 84.132,317.041 83.551,316.972 83.165 C 316.903 82.779,316.490 81.699,316.054 80.765 C 315.376 79.315,315.013 78.476,314.799 77.867 C 314.774 77.793,314.469 77.133,314.121 76.400 C 313.774 75.667,313.515 74.977,313.545 74.867 C 313.575 74.757,313.473 74.667,313.318 74.667 C 313.162 74.667,313.109 74.547,313.200 74.400 C 313.291 74.253,313.238 74.133,313.082 74.133 C 312.927 74.133,312.824 74.043,312.854 73.933 C 312.884 73.823,312.619 73.193,312.267 72.533 C 311.914 71.873,311.650 71.243,311.679 71.133 C 311.709 71.023,311.606 70.933,311.451 70.933 C 311.296 70.933,311.243 70.813,311.333 70.667 C 311.424 70.520,311.384 70.400,311.245 70.400 C 311.105 70.400,310.909 70.071,310.808 69.669 C 310.707 69.267,310.541 68.877,310.439 68.803 C 310.076 68.536,309.333 67.212,309.333 66.832 C 309.333 66.619,309.227 66.404,309.097 66.356 C 308.967 66.307,308.299 65.307,307.612 64.133 C 306.924 62.960,306.247 61.820,306.107 61.600 C 305.966 61.380,305.781 60.990,305.694 60.733 C 305.608 60.477,305.432 60.267,305.302 60.267 C 305.173 60.267,305.067 60.100,305.067 59.895 C 305.067 59.691,304.879 59.452,304.650 59.364 C 304.420 59.276,304.308 59.083,304.399 58.935 C 304.490 58.788,304.438 58.667,304.282 58.667 C 304.127 58.667,304.000 58.487,304.000 58.267 C 304.000 58.047,303.905 57.867,303.788 57.867 C 303.672 57.867,303.222 57.269,302.788 56.539 C 302.355 55.808,301.930 55.208,301.844 55.205 C 301.759 55.202,301.220 54.510,300.648 53.667 C 300.076 52.823,299.456 52.037,299.270 51.920 C 299.085 51.803,298.933 51.562,298.933 51.384 C 298.933 51.207,298.693 50.912,298.400 50.729 C 298.107 50.545,297.867 50.282,297.867 50.143 C 297.867 50.004,297.597 49.592,297.267 49.226 C 296.937 48.860,296.367 48.185,296.000 47.726 C 295.633 47.267,294.763 46.300,294.065 45.579 C 293.368 44.857,292.866 44.267,292.950 44.267 C 293.172 44.267,284.318 35.529,282.817 34.267 C 282.119 33.680,281.260 32.925,280.908 32.588 C 280.555 32.251,280.267 32.060,280.267 32.162 C 280.267 32.264,280.057 32.120,279.800 31.841 C 279.543 31.562,278.793 30.920,278.133 30.414 C 277.473 29.908,276.836 29.336,276.717 29.142 C 276.598 28.948,276.396 28.853,276.269 28.932 C 276.141 29.011,275.848 28.807,275.618 28.478 C 275.388 28.150,275.196 27.998,275.191 28.141 C 275.186 28.283,274.976 28.154,274.724 27.853 C 274.473 27.552,274.147 27.259,274.000 27.201 C 273.853 27.144,273.613 26.992,273.467 26.865 C 273.320 26.738,272.884 26.431,272.498 26.184 C 272.112 25.936,270.852 25.073,269.698 24.267 C 268.544 23.460,267.270 22.656,266.867 22.480 C 266.463 22.303,266.133 22.033,266.133 21.880 C 266.133 21.726,265.981 21.600,265.794 21.600 C 265.607 21.600,264.817 21.180,264.037 20.667 C 263.258 20.153,262.527 19.733,262.413 19.733 C 262.299 19.733,261.905 19.497,261.538 19.209 C 261.172 18.920,260.812 18.743,260.740 18.815 C 260.668 18.887,260.458 18.763,260.272 18.540 C 260.086 18.316,259.769 18.133,259.567 18.133 C 259.365 18.133,259.200 18.023,259.200 17.888 C 259.200 17.753,258.840 17.563,258.400 17.467 C 257.960 17.370,257.600 17.173,257.600 17.030 C 257.600 16.886,257.480 16.843,257.333 16.933 C 257.187 17.024,257.067 16.964,257.067 16.800 C 257.067 16.636,256.947 16.576,256.800 16.667 C 256.653 16.757,256.533 16.697,256.533 16.533 C 256.533 16.369,256.413 16.309,256.267 16.400 C 256.120 16.491,256.000 16.431,256.000 16.267 C 256.000 16.103,255.880 16.043,255.733 16.133 C 255.587 16.224,255.467 16.164,255.467 16.000 C 255.467 15.836,255.347 15.776,255.200 15.867 C 255.053 15.957,254.933 15.897,254.933 15.733 C 254.933 15.569,254.813 15.509,254.667 15.600 C 254.520 15.691,254.400 15.631,254.400 15.467 C 254.400 15.303,254.280 15.243,254.133 15.333 C 253.987 15.424,253.867 15.385,253.867 15.247 C 253.867 15.041,253.306 14.785,252.658 14.695 C 252.586 14.686,252.139 14.470,251.664 14.217 C 251.189 13.963,250.740 13.740,250.667 13.721 C 250.336 13.637,249.325 13.198,247.600 12.391 C 246.573 11.910,245.228 11.383,244.611 11.218 C 243.994 11.054,243.412 10.794,243.318 10.641 C 243.223 10.489,242.992 10.423,242.804 10.495 C 242.615 10.567,242.207 10.449,241.897 10.231 C 241.587 10.014,241.333 9.918,241.333 10.018 C 241.333 10.117,241.153 10.049,240.933 9.867 C 240.713 9.684,240.533 9.605,240.533 9.691 C 240.533 9.777,239.992 9.616,239.330 9.332 C 238.668 9.048,238.068 8.812,237.997 8.808 C 237.925 8.804,237.837 8.790,237.800 8.778 C 237.763 8.766,237.376 8.698,236.938 8.627 C 236.501 8.557,236.081 8.416,236.005 8.316 C 235.876 8.145,235.676 8.078,234.667 7.865 C 234.447 7.819,233.907 7.642,233.467 7.472 C 233.027 7.302,232.637 7.171,232.600 7.181 C 232.563 7.192,232.443 7.186,232.333 7.169 C 232.223 7.152,232.013 7.120,231.867 7.098 C 231.323 7.017,228.653 6.353,228.267 6.204 C 228.047 6.119,227.722 6.072,227.546 6.100 C 227.369 6.128,226.804 5.975,226.289 5.760 C 225.431 5.402,223.581 5.021,222.267 4.932 C 221.973 4.912,221.313 4.815,220.800 4.715 C 220.287 4.616,219.507 4.484,219.067 4.423 C 218.627 4.361,218.267 4.288,218.267 4.260 C 218.267 4.232,217.847 4.175,217.333 4.133 C 216.820 4.092,216.400 4.035,216.400 4.008 C 216.400 3.981,216.040 3.922,215.600 3.877 C 215.160 3.832,214.200 3.723,213.467 3.633 C 212.111 3.468,210.406 3.339,205.867 3.059 C 204.473 2.973,203.213 2.878,203.067 2.847 C 202.920 2.817,199.920 2.872,196.400 2.969 M208.533 20.643 C 209.780 20.735,211.220 20.880,211.733 20.964 C 212.247 21.048,213.027 21.152,213.467 21.195 C 213.907 21.238,214.267 21.295,214.267 21.322 C 214.267 21.348,214.627 21.421,215.067 21.483 C 215.507 21.545,216.287 21.656,216.800 21.730 C 217.313 21.804,218.333 21.940,219.067 22.032 C 219.800 22.124,221.000 22.371,221.733 22.582 C 222.467 22.793,223.301 22.964,223.588 22.962 C 223.874 22.960,224.234 23.057,224.388 23.178 C 224.679 23.407,226.649 23.857,227.005 23.777 C 227.117 23.751,227.643 23.911,228.174 24.133 C 229.106 24.522,230.177 24.813,230.867 24.864 C 231.050 24.878,231.200 25.009,231.200 25.156 C 231.200 25.302,231.275 25.347,231.367 25.255 C 231.459 25.163,231.939 25.257,232.434 25.464 C 232.929 25.670,233.333 25.778,233.333 25.704 C 233.333 25.629,233.483 25.664,233.667 25.780 C 233.850 25.897,234.060 26.004,234.133 26.019 C 234.262 26.045,234.689 26.202,235.667 26.581 C 235.923 26.681,236.313 26.787,236.533 26.817 C 236.753 26.848,237.293 27.065,237.733 27.301 C 238.173 27.537,238.714 27.731,238.935 27.732 C 239.157 27.733,239.907 28.036,240.602 28.407 C 241.298 28.777,241.867 29.003,241.867 28.909 C 241.867 28.815,242.162 28.932,242.524 29.169 C 242.885 29.406,243.365 29.600,243.591 29.600 C 243.816 29.600,244.000 29.720,244.000 29.867 C 244.000 30.013,244.161 30.133,244.357 30.133 C 244.805 30.133,249.973 32.650,250.941 33.339 C 251.337 33.621,251.720 33.792,251.792 33.719 C 251.865 33.646,252.076 33.770,252.261 33.994 C 252.447 34.217,252.705 34.400,252.836 34.400 C 252.966 34.400,253.761 34.861,254.603 35.424 C 255.445 35.986,256.523 36.601,257.000 36.789 C 257.477 36.977,257.867 37.237,257.867 37.366 C 257.867 37.495,258.050 37.600,258.275 37.600 C 258.500 37.600,258.752 37.780,258.837 38.000 C 258.921 38.220,259.158 38.400,259.362 38.400 C 259.566 38.400,259.733 38.520,259.733 38.667 C 259.733 38.813,259.895 38.933,260.093 38.933 C 260.290 38.933,260.703 39.143,261.011 39.400 C 261.318 39.657,262.325 40.407,263.248 41.067 C 264.170 41.727,265.377 42.671,265.929 43.164 C 266.482 43.658,266.933 43.997,266.933 43.918 C 266.933 43.839,267.285 44.095,267.715 44.487 C 268.145 44.879,268.835 45.469,269.248 45.797 C 271.286 47.416,280.441 56.267,280.078 56.267 C 279.994 56.267,280.332 56.685,280.829 57.195 C 281.692 58.081,282.438 58.946,283.789 60.627 C 284.125 61.045,284.610 61.582,284.867 61.820 C 285.123 62.057,285.333 62.405,285.333 62.593 C 285.333 62.780,285.423 62.934,285.533 62.935 C 285.643 62.936,286.033 63.379,286.400 63.918 C 286.767 64.458,287.299 65.118,287.584 65.383 C 287.868 65.649,288.009 65.867,287.898 65.867 C 287.786 65.867,287.888 66.059,288.124 66.295 C 288.789 66.961,290.522 69.640,292.124 72.481 C 292.645 73.405,293.311 74.418,293.603 74.731 C 293.895 75.044,294.133 75.400,294.133 75.522 C 294.133 75.644,294.427 76.208,294.785 76.776 C 295.143 77.344,295.363 77.881,295.274 77.971 C 295.184 78.060,295.251 78.133,295.422 78.133 C 295.593 78.133,295.709 78.223,295.680 78.333 C 295.651 78.443,296.035 79.313,296.533 80.267 C 297.032 81.220,297.415 82.090,297.386 82.200 C 297.357 82.310,297.473 82.400,297.644 82.400 C 297.816 82.400,297.884 82.471,297.797 82.559 C 297.709 82.646,297.869 83.130,298.152 83.634 C 298.435 84.137,298.667 84.726,298.667 84.941 C 298.667 85.157,298.781 85.333,298.921 85.333 C 299.061 85.333,299.255 85.753,299.351 86.267 C 299.447 86.780,299.609 87.200,299.709 87.200 C 299.919 87.200,300.508 88.732,300.694 89.760 C 300.763 90.138,301.009 90.737,301.240 91.091 C 301.472 91.444,301.595 91.733,301.513 91.733 C 301.432 91.733,301.532 92.055,301.735 92.448 C 301.939 92.840,302.045 93.260,301.971 93.381 C 301.896 93.501,301.959 93.600,302.109 93.600 C 302.260 93.600,302.314 93.780,302.230 94.000 C 302.145 94.220,302.216 94.400,302.387 94.400 C 302.558 94.400,302.616 94.533,302.515 94.696 C 302.414 94.860,302.459 95.072,302.615 95.168 C 302.771 95.264,302.948 95.641,303.008 96.005 C 303.069 96.369,303.186 96.847,303.270 97.067 C 303.354 97.287,303.512 97.827,303.623 98.267 C 303.894 99.347,303.925 99.456,303.987 99.533 C 304.017 99.570,304.079 99.780,304.125 100.000 C 304.171 100.220,304.395 101.120,304.624 102.000 C 304.852 102.880,305.099 103.939,305.172 104.354 C 305.246 104.768,305.428 105.488,305.578 105.954 C 305.807 106.666,306.433 110.442,306.824 113.467 C 306.880 113.907,307.056 115.246,307.213 116.444 C 307.534 118.886,307.468 120.921,307.067 120.957 C 306.920 120.971,306.354 121.181,305.809 121.424 C 305.263 121.668,304.633 121.867,304.409 121.867 C 304.184 121.867,304.000 121.994,304.000 122.149 C 304.000 122.304,303.894 122.366,303.764 122.285 C 303.634 122.205,303.380 122.317,303.200 122.533 C 303.020 122.750,302.766 122.862,302.636 122.781 C 302.506 122.701,302.400 122.762,302.400 122.918 C 302.400 123.073,302.209 123.200,301.974 123.200 C 301.740 123.200,301.200 123.448,300.774 123.751 L 300.000 124.303 300.000 123.651 C 300.000 123.292,299.813 122.550,299.583 122.001 C 299.354 121.453,299.229 120.842,299.305 120.644 C 299.381 120.446,299.320 120.208,299.170 120.115 C 299.020 120.022,298.960 119.782,299.037 119.582 C 299.114 119.381,299.059 119.144,298.915 119.055 C 298.770 118.966,298.675 118.752,298.702 118.580 C 298.730 118.408,298.624 117.959,298.468 117.583 C 298.312 117.208,298.144 116.548,298.093 116.117 C 298.043 115.686,297.919 115.271,297.818 115.195 C 297.717 115.119,297.591 114.759,297.537 114.395 C 297.433 113.684,296.383 110.345,295.988 109.467 C 295.856 109.173,295.715 108.753,295.674 108.533 C 295.633 108.313,295.533 108.073,295.450 108.000 C 295.225 107.800,294.145 105.028,294.003 104.286 C 293.935 103.930,293.773 103.570,293.644 103.486 C 293.514 103.402,293.242 102.853,293.039 102.267 C 292.836 101.680,292.549 101.112,292.401 101.004 C 292.224 100.874,292.223 100.805,292.400 100.800 C 292.578 100.795,292.578 100.727,292.400 100.596 C 292.253 100.488,291.713 99.500,291.200 98.400 C 290.687 97.300,290.166 96.327,290.044 96.237 C 289.921 96.147,289.839 96.027,289.861 95.970 C 289.942 95.761,289.489 94.810,289.084 94.336 C 288.854 94.069,288.660 93.763,288.652 93.658 C 288.620 93.252,284.136 86.213,283.390 85.400 C 283.088 85.070,282.920 84.800,283.018 84.800 C 283.115 84.800,283.026 84.590,282.820 84.333 C 280.716 81.716,280.000 80.788,280.000 80.680 C 280.000 80.547,279.375 79.815,277.997 78.331 C 277.556 77.856,277.196 77.403,277.197 77.326 C 277.204 77.013,269.276 68.768,269.120 68.925 C 269.063 68.982,268.440 68.467,267.736 67.781 C 267.032 67.095,266.066 66.233,265.589 65.867 C 265.113 65.500,264.470 64.960,264.162 64.667 C 263.853 64.373,263.516 64.133,263.412 64.133 C 263.309 64.133,262.750 63.683,262.169 63.133 C 261.589 62.583,260.983 62.133,260.824 62.133 C 260.664 62.133,260.532 62.043,260.530 61.933 C 260.528 61.823,259.868 61.320,259.063 60.815 C 258.258 60.309,257.600 59.799,257.600 59.681 C 257.600 59.563,257.438 59.467,257.241 59.467 C 256.924 59.467,256.564 59.223,255.278 58.138 C 255.101 57.989,254.889 57.867,254.808 57.867 C 254.727 57.867,253.942 57.376,253.063 56.776 C 252.185 56.177,251.304 55.662,251.106 55.633 C 250.909 55.604,250.399 55.352,249.973 55.074 C 249.548 54.795,249.200 54.604,249.200 54.649 C 249.200 54.694,248.540 54.340,247.733 53.861 C 246.220 52.963,241.925 50.910,241.770 51.010 C 241.721 51.041,241.472 50.892,241.215 50.679 C 240.958 50.466,240.495 50.253,240.186 50.206 C 239.876 50.158,239.546 49.995,239.452 49.842 C 239.357 49.689,239.112 49.537,238.907 49.503 C 238.701 49.469,238.233 49.277,237.867 49.075 C 237.500 48.874,237.200 48.739,237.200 48.774 C 237.200 48.809,236.862 48.709,236.449 48.552 C 236.036 48.395,235.534 48.267,235.332 48.267 C 235.130 48.267,234.891 48.147,234.800 48.000 C 234.709 47.853,234.342 47.733,233.984 47.733 C 233.626 47.733,233.333 47.600,233.333 47.438 C 233.333 47.276,233.153 47.212,232.933 47.296 C 232.713 47.381,232.533 47.321,232.533 47.163 C 232.533 47.005,232.353 46.945,232.133 47.030 C 231.913 47.114,231.733 47.054,231.733 46.896 C 231.733 46.739,231.553 46.679,231.333 46.763 C 231.113 46.848,230.933 46.790,230.933 46.636 C 230.933 46.482,230.783 46.409,230.600 46.475 C 230.417 46.540,229.937 46.427,229.533 46.223 C 229.130 46.020,228.800 45.910,228.800 45.980 C 228.800 46.049,228.380 45.931,227.867 45.716 C 227.353 45.502,226.933 45.395,226.933 45.479 C 226.933 45.563,226.783 45.538,226.600 45.423 C 226.417 45.309,226.147 45.192,226.000 45.164 C 225.853 45.136,224.953 44.918,224.000 44.679 C 223.047 44.441,221.847 44.191,221.333 44.123 C 220.820 44.056,219.560 43.825,218.533 43.611 C 215.929 43.067,213.560 42.666,212.212 42.542 C 211.582 42.485,209.747 42.311,208.133 42.156 C 204.930 41.849,193.549 41.741,191.200 41.995 C 190.393 42.083,188.861 42.269,187.794 42.408 C 186.728 42.548,185.768 42.650,185.661 42.633 C 185.554 42.617,185.407 42.628,185.333 42.657 C 185.154 42.730,184.377 42.846,182.933 43.016 C 182.273 43.094,181.553 43.222,181.333 43.300 C 181.113 43.379,180.366 43.500,179.673 43.569 C 178.980 43.638,178.298 43.765,178.157 43.852 C 177.930 43.992,176.262 44.393,174.800 44.659 C 174.507 44.712,174.207 44.784,174.133 44.818 C 174.060 44.853,173.880 44.909,173.733 44.943 C 173.587 44.977,173.407 45.028,173.333 45.056 C 173.167 45.120,172.600 45.251,171.733 45.426 C 171.367 45.500,171.067 45.578,171.067 45.601 C 171.067 45.658,170.061 45.893,169.667 45.927 C 169.483 45.943,169.333 46.076,169.333 46.222 C 169.333 46.369,169.264 46.419,169.178 46.334 C 169.093 46.249,168.613 46.350,168.112 46.560 C 167.610 46.769,167.200 46.872,167.200 46.788 C 167.200 46.704,167.050 46.730,166.867 46.847 C 166.683 46.963,166.473 47.070,166.400 47.085 C 166.327 47.099,165.907 47.262,165.467 47.446 C 165.027 47.630,164.464 47.822,164.217 47.872 C 163.970 47.922,163.510 48.101,163.194 48.270 C 162.878 48.439,162.300 48.634,161.910 48.704 C 161.519 48.774,160.806 49.062,160.324 49.345 C 159.842 49.628,159.123 49.919,158.726 49.991 C 158.329 50.063,157.963 50.244,157.913 50.394 C 157.863 50.544,157.616 50.667,157.364 50.667 C 157.113 50.667,156.763 50.811,156.587 50.987 C 156.411 51.163,156.267 51.214,156.267 51.102 C 156.267 50.989,155.923 51.142,155.503 51.441 C 155.083 51.740,154.663 51.908,154.570 51.814 C 154.476 51.721,154.400 51.792,154.400 51.971 C 154.400 52.151,154.280 52.224,154.133 52.133 C 153.987 52.043,153.867 52.103,153.867 52.267 C 153.867 52.431,153.747 52.491,153.600 52.400 C 153.453 52.309,153.333 52.369,153.333 52.533 C 153.333 52.697,153.213 52.757,153.067 52.667 C 152.920 52.576,152.800 52.636,152.800 52.800 C 152.800 52.964,152.680 53.024,152.533 52.933 C 152.387 52.843,152.267 52.903,152.267 53.067 C 152.267 53.231,152.157 53.297,152.023 53.214 C 151.889 53.131,151.739 53.154,151.689 53.265 C 151.640 53.376,151.000 53.767,150.267 54.133 C 149.533 54.500,148.873 54.860,148.800 54.933 C 148.727 55.007,147.857 55.480,146.867 55.986 C 145.877 56.492,145.067 57.008,145.067 57.133 C 145.067 57.258,144.677 57.533,144.200 57.743 C 143.723 57.954,142.613 58.661,141.733 59.314 C 140.853 59.967,139.503 60.877,138.733 61.337 C 137.963 61.796,137.333 62.284,137.333 62.420 C 137.333 62.555,137.215 62.667,137.070 62.667 C 136.767 62.667,135.975 63.275,134.889 64.343 C 134.473 64.751,134.133 65.003,134.133 64.904 C 134.133 64.804,133.844 65.010,133.491 65.361 C 133.138 65.712,132.341 66.420,131.720 66.933 C 130.296 68.110,122.846 75.559,121.600 77.053 C 121.087 77.668,120.367 78.508,120.000 78.919 C 119.633 79.329,119.033 80.053,118.667 80.527 C 118.300 81.001,117.850 81.548,117.667 81.742 C 117.483 81.936,117.333 82.224,117.333 82.381 C 117.333 82.538,117.210 82.667,117.058 82.667 C 116.907 82.667,116.703 82.877,116.605 83.133 C 116.507 83.390,116.088 84.080,115.673 84.667 C 113.117 88.282,112.635 89.006,112.346 89.667 C 112.170 90.070,111.920 90.400,111.790 90.400 C 111.660 90.400,111.213 91.090,110.797 91.933 C 110.381 92.777,109.863 93.677,109.645 93.933 C 109.428 94.190,109.328 94.400,109.423 94.400 C 109.518 94.400,109.236 94.983,108.798 95.696 C 108.359 96.409,108.000 97.129,108.000 97.296 C 108.000 97.463,107.873 97.600,107.718 97.600 C 107.562 97.600,107.509 97.720,107.600 97.867 C 107.691 98.013,107.631 98.133,107.467 98.133 C 107.303 98.133,107.243 98.253,107.333 98.400 C 107.424 98.547,107.364 98.667,107.200 98.667 C 107.036 98.667,106.976 98.787,107.067 98.933 C 107.157 99.080,107.104 99.200,106.949 99.200 C 106.794 99.200,106.667 99.326,106.667 99.480 C 106.667 99.633,106.427 100.256,106.133 100.863 C 105.840 101.470,105.600 102.124,105.600 102.317 C 105.600 102.509,105.480 102.667,105.333 102.667 C 105.187 102.667,105.067 102.863,105.067 103.102 C 105.067 103.341,104.817 103.941,104.512 104.435 C 104.206 104.929,104.029 105.333,104.118 105.333 C 104.206 105.333,104.082 105.633,103.842 106.000 C 103.602 106.367,103.494 106.667,103.602 106.667 C 103.710 106.667,103.671 106.820,103.515 107.008 C 103.359 107.196,103.173 107.674,103.101 108.071 C 103.029 108.467,102.874 108.943,102.756 109.129 C 102.638 109.315,102.529 109.527,102.514 109.600 C 102.499 109.673,102.418 109.913,102.333 110.133 C 101.888 111.287,101.275 113.296,101.153 114.000 C 101.077 114.440,100.936 114.860,100.840 114.933 C 100.677 115.058,100.600 115.289,100.392 116.267 C 100.346 116.487,100.298 116.697,100.287 116.733 C 100.276 116.770,100.255 116.857,100.242 116.927 C 100.228 116.997,99.980 117.927,99.690 118.994 C 99.400 120.060,99.158 121.113,99.152 121.333 C 99.136 121.941,98.620 124.000,98.484 124.000 C 98.418 124.000,97.035 123.343,95.411 122.541 C 93.787 121.739,92.355 121.146,92.229 121.223 C 92.103 121.301,92.000 121.225,92.000 121.054 C 92.000 120.883,91.826 120.810,91.614 120.891 C 91.119 121.081,90.902 120.401,91.076 119.200 C 91.150 118.687,91.256 117.667,91.312 116.933 C 91.487 114.639,92.281 109.526,92.680 108.133 C 92.890 107.400,93.109 106.320,93.167 105.733 C 93.313 104.255,93.632 102.855,93.902 102.509 C 94.027 102.349,94.068 102.157,93.995 102.084 C 93.921 102.010,94.043 101.434,94.266 100.803 C 94.488 100.172,94.723 99.404,94.788 99.095 C 95.095 97.635,95.181 97.313,95.333 97.067 C 95.423 96.921,95.547 96.542,95.608 96.224 C 95.800 95.226,96.592 92.948,96.868 92.600 C 97.013 92.417,97.054 92.267,96.959 92.267 C 96.864 92.267,96.972 91.907,97.200 91.467 C 97.428 91.027,97.548 90.667,97.467 90.667 C 97.386 90.667,97.528 90.277,97.782 89.800 C 98.036 89.323,98.249 88.853,98.255 88.756 C 98.262 88.658,98.357 88.488,98.467 88.378 C 98.577 88.268,98.671 87.988,98.676 87.756 C 98.681 87.523,98.917 86.853,99.200 86.267 C 99.483 85.680,99.719 85.050,99.724 84.867 C 99.729 84.683,99.873 84.533,100.044 84.533 C 100.216 84.533,100.275 84.453,100.177 84.355 C 100.079 84.257,100.198 83.957,100.441 83.688 C 100.684 83.420,100.803 83.200,100.706 83.200 C 100.511 83.200,103.153 77.815,103.453 77.600 C 103.641 77.465,104.068 76.562,104.110 76.209 C 104.123 76.103,104.343 75.772,104.600 75.472 C 104.857 75.172,105.067 74.810,105.067 74.668 C 105.067 74.276,106.722 71.631,107.119 71.387 C 107.310 71.269,107.467 71.048,107.467 70.895 C 107.467 70.508,109.666 67.200,109.923 67.200 C 110.039 67.200,110.133 67.020,110.133 66.800 C 110.133 66.580,110.343 66.189,110.600 65.931 C 110.857 65.672,111.544 64.802,112.127 63.997 C 112.711 63.192,113.371 62.387,113.594 62.208 C 113.817 62.030,113.894 61.880,113.764 61.875 C 113.634 61.870,113.851 61.613,114.245 61.303 C 114.639 60.993,114.903 60.681,114.832 60.610 C 114.761 60.538,115.084 60.075,115.551 59.579 C 116.018 59.084,116.820 58.189,117.333 57.590 C 118.544 56.178,126.312 48.411,127.724 47.200 C 128.322 46.687,129.230 45.873,129.739 45.391 C 130.249 44.910,130.667 44.596,130.667 44.694 C 130.667 44.792,130.920 44.549,131.230 44.155 C 131.540 43.761,131.858 43.503,131.937 43.581 C 132.015 43.660,132.524 43.336,133.067 42.862 C 134.555 41.564,136.120 40.393,136.237 40.492 C 136.294 40.540,136.414 40.462,136.504 40.319 C 136.776 39.886,140.603 37.333,140.981 37.333 C 141.175 37.333,141.333 37.230,141.333 37.103 C 141.333 36.846,145.430 34.400,145.861 34.400 C 146.011 34.400,146.133 34.280,146.133 34.133 C 146.133 33.987,146.373 33.867,146.667 33.867 C 146.960 33.867,147.200 33.769,147.200 33.649 C 147.200 33.407,149.086 32.410,149.400 32.485 C 149.510 32.512,149.600 32.406,149.600 32.251 C 149.600 32.096,149.720 32.043,149.867 32.133 C 150.013 32.224,150.133 32.164,150.133 32.000 C 150.133 31.836,150.253 31.776,150.400 31.867 C 150.547 31.957,150.667 31.897,150.667 31.733 C 150.667 31.569,150.787 31.509,150.933 31.600 C 151.080 31.691,151.200 31.631,151.200 31.467 C 151.200 31.303,151.320 31.243,151.467 31.333 C 151.613 31.424,151.733 31.364,151.733 31.200 C 151.733 31.036,151.853 30.976,152.000 31.067 C 152.147 31.157,152.267 31.104,152.267 30.949 C 152.267 30.794,152.383 30.667,152.526 30.667 C 152.793 30.667,155.338 29.564,156.550 28.923 C 156.927 28.724,157.555 28.504,157.946 28.433 C 158.338 28.362,158.810 28.207,158.996 28.089 C 159.181 27.971,159.393 27.868,159.467 27.860 C 159.540 27.851,159.990 27.636,160.467 27.382 C 160.943 27.128,161.333 26.986,161.333 27.067 C 161.333 27.148,161.693 27.028,162.133 26.800 C 162.573 26.572,162.933 26.464,162.933 26.559 C 162.933 26.654,163.083 26.613,163.267 26.467 C 163.596 26.206,165.208 25.630,166.083 25.461 C 166.330 25.413,166.533 25.356,166.533 25.333 C 166.533 25.275,167.537 25.041,167.933 25.007 C 168.117 24.991,168.267 24.900,168.267 24.806 C 168.267 24.637,169.256 24.369,172.933 23.544 C 173.960 23.314,175.040 23.035,175.333 22.925 C 175.885 22.717,179.827 21.932,180.533 21.889 C 180.753 21.876,181.293 21.810,181.733 21.743 C 186.291 21.048,188.779 20.738,191.294 20.551 C 194.490 20.313,204.826 20.368,208.533 20.643 M209.467 59.706 C 210.493 59.860,211.693 60.040,212.133 60.105 C 212.573 60.170,212.933 60.241,212.933 60.263 C 212.933 60.285,213.440 60.349,214.060 60.405 C 214.680 60.461,215.422 60.633,215.709 60.787 C 215.997 60.941,216.695 61.067,217.262 61.067 C 217.829 61.067,218.437 61.211,218.613 61.387 C 218.789 61.563,218.933 61.628,218.933 61.532 C 218.933 61.436,219.402 61.523,219.976 61.725 C 220.549 61.927,221.073 62.038,221.139 61.972 C 221.205 61.906,221.606 61.986,222.030 62.150 C 222.453 62.315,223.092 62.504,223.448 62.572 C 223.804 62.639,224.224 62.775,224.381 62.873 C 224.538 62.971,224.810 63.073,224.984 63.100 C 225.647 63.201,227.347 63.814,227.667 64.067 C 227.850 64.213,228.000 64.243,228.000 64.135 C 228.000 64.027,228.296 64.132,228.657 64.369 C 229.019 64.606,229.535 64.800,229.805 64.800 C 230.226 64.800,232.115 65.593,233.663 66.419 C 233.918 66.555,234.308 66.667,234.530 66.667 C 234.752 66.667,234.933 66.787,234.933 66.933 C 234.933 67.080,235.023 67.178,235.133 67.150 C 235.412 67.081,239.556 69.140,239.796 69.467 C 239.904 69.613,239.994 69.635,239.996 69.515 C 239.998 69.395,240.330 69.528,240.733 69.810 C 241.137 70.093,241.587 70.371,241.733 70.429 C 242.423 70.700,245.067 72.338,245.067 72.494 C 245.067 72.591,245.404 72.819,245.817 73.002 C 246.229 73.184,246.824 73.574,247.139 73.867 C 247.454 74.160,247.824 74.400,247.961 74.400 C 248.099 74.400,248.601 74.730,249.077 75.133 C 249.552 75.537,250.331 76.197,250.806 76.600 C 251.281 77.003,251.804 77.333,251.966 77.333 C 252.129 77.333,252.412 77.573,252.595 77.867 C 252.778 78.160,253.014 78.400,253.119 78.400 C 253.223 78.400,253.601 78.670,253.958 79.000 C 254.314 79.330,255.308 80.200,256.165 80.933 C 258.039 82.536,262.494 86.933,262.245 86.933 C 262.147 86.933,262.532 87.403,263.100 87.976 C 263.669 88.550,264.405 89.360,264.736 89.776 C 265.068 90.193,265.703 90.953,266.147 91.467 C 266.591 91.980,267.399 93.060,267.944 93.867 C 268.488 94.673,269.008 95.393,269.099 95.467 C 269.364 95.681,274.255 103.450,274.286 103.707 C 274.327 104.056,275.080 105.487,275.397 105.819 C 275.582 106.013,275.748 106.283,275.767 106.419 C 275.824 106.847,275.894 107.045,276.280 107.867 C 276.487 108.307,276.734 108.727,276.830 108.800 C 276.926 108.873,277.202 109.518,277.443 110.233 C 277.685 110.948,278.059 111.785,278.275 112.092 C 278.490 112.400,278.667 112.918,278.667 113.244 C 278.667 113.569,278.789 113.911,278.938 114.003 C 279.087 114.095,279.140 114.282,279.055 114.418 C 278.971 114.555,279.029 114.667,279.184 114.667 C 279.340 114.667,279.467 114.943,279.467 115.280 C 279.467 115.617,279.611 116.037,279.787 116.213 C 279.963 116.389,280.008 116.533,279.887 116.533 C 279.767 116.533,279.817 116.713,280.000 116.933 C 280.183 117.153,280.243 117.333,280.133 117.333 C 280.024 117.333,280.084 117.513,280.267 117.733 C 280.449 117.953,280.520 118.133,280.423 118.133 C 280.327 118.133,280.381 118.381,280.543 118.684 C 280.705 118.987,280.896 119.497,280.968 119.817 C 281.196 120.840,281.291 121.200,281.333 121.200 C 281.356 121.200,281.415 121.380,281.464 121.600 C 281.513 121.820,281.752 122.780,281.995 123.733 C 282.873 127.189,282.960 127.581,283.079 128.648 C 283.145 129.245,283.250 130.033,283.312 130.400 C 283.374 130.767,283.486 131.487,283.560 132.000 C 283.635 132.513,283.760 133.353,283.839 133.867 C 284.521 138.320,284.384 149.752,283.586 154.933 C 283.371 156.327,283.185 157.647,283.173 157.867 C 283.141 158.468,282.448 161.862,282.126 162.997 C 281.971 163.545,281.844 164.053,281.845 164.126 C 281.845 164.199,281.676 164.741,281.468 165.330 C 281.260 165.918,281.152 166.400,281.228 166.400 C 281.303 166.400,281.271 166.550,281.157 166.733 C 281.042 166.917,280.915 167.217,280.874 167.400 C 280.694 168.208,280.571 168.667,280.534 168.667 C 280.512 168.667,280.446 168.920,280.387 169.230 C 280.329 169.540,280.138 170.140,279.963 170.564 C 279.788 170.987,279.633 171.393,279.618 171.467 C 279.604 171.540,279.510 171.728,279.410 171.885 C 279.310 172.042,279.173 172.462,279.105 172.819 C 278.964 173.566,278.634 174.449,277.873 176.120 C 277.576 176.771,277.333 177.431,277.333 177.585 C 277.333 177.740,277.227 177.867,277.098 177.867 C 276.894 177.867,276.706 178.283,276.584 179.004 C 276.551 179.197,274.580 182.979,273.146 185.600 C 272.422 186.923,271.101 189.019,270.674 189.522 C 270.523 189.699,270.400 189.969,270.400 190.122 C 270.400 190.275,270.280 190.400,270.133 190.400 C 269.987 190.400,269.866 190.550,269.865 190.733 C 269.865 190.917,269.505 191.450,269.065 191.919 C 268.626 192.388,268.267 192.843,268.267 192.930 C 268.267 193.123,267.767 193.747,267.133 194.345 C 266.877 194.587,266.666 194.909,266.666 195.059 C 266.665 195.210,266.127 195.933,265.469 196.667 C 264.812 197.400,263.823 198.515,263.271 199.145 C 261.658 200.986,254.133 208.403,254.133 208.153 C 254.133 208.103,253.623 208.528,253.000 209.097 C 252.377 209.667,251.717 210.133,251.533 210.133 C 251.350 210.133,251.199 210.223,251.198 210.333 C 251.197 210.443,250.751 210.833,250.206 211.200 C 249.661 211.567,249.016 212.047,248.773 212.267 C 247.985 212.979,247.097 213.600,246.868 213.600 C 246.745 213.600,246.499 213.722,246.322 213.872 C 245.064 214.933,244.670 215.205,244.168 215.359 C 243.856 215.455,243.030 215.949,242.333 216.456 C 241.637 216.964,241.067 217.290,241.067 217.181 C 241.067 217.073,240.857 217.170,240.600 217.396 C 239.995 217.931,234.667 220.593,234.667 220.361 C 234.667 220.264,234.427 220.401,234.133 220.667 C 233.840 220.932,233.600 221.057,233.600 220.944 C 233.600 220.831,233.315 220.925,232.967 221.154 C 232.097 221.723,229.133 222.911,228.975 222.753 C 228.904 222.682,228.536 222.827,228.156 223.076 C 227.777 223.325,227.467 223.447,227.467 223.348 C 227.467 223.249,227.317 223.264,227.133 223.380 C 226.950 223.497,226.710 223.609,226.600 223.629 C 226.490 223.650,226.340 223.697,226.267 223.733 C 226.193 223.770,226.013 223.830,225.867 223.867 C 225.720 223.903,225.570 223.958,225.533 223.987 C 225.436 224.066,224.453 224.293,224.067 224.327 C 223.883 224.343,223.733 224.476,223.733 224.622 C 223.733 224.769,223.658 224.813,223.565 224.720 C 223.472 224.628,223.169 224.674,222.891 224.822 C 222.613 224.971,221.979 225.145,221.482 225.209 C 220.985 225.272,220.017 225.515,219.331 225.748 C 218.644 225.981,218.018 226.107,217.940 226.029 C 217.861 225.950,217.595 225.993,217.349 226.125 C 217.103 226.256,216.429 226.431,215.851 226.513 C 215.273 226.595,213.840 226.828,212.667 227.031 C 211.493 227.234,209.573 227.505,208.400 227.633 C 206.054 227.890,192.234 227.916,190.533 227.667 C 189.947 227.581,188.747 227.440,187.867 227.355 C 186.987 227.269,185.967 227.130,185.600 227.046 C 185.233 226.961,184.453 226.831,183.867 226.756 C 183.280 226.681,181.420 226.261,179.733 225.821 C 178.047 225.382,176.487 224.982,176.267 224.932 C 176.047 224.882,175.867 224.822,175.867 224.800 C 175.867 224.757,175.479 224.655,174.423 224.422 C 173.259 224.166,171.073 223.401,170.733 223.132 C 170.550 222.987,170.400 222.957,170.400 223.065 C 170.400 223.173,170.104 223.068,169.743 222.831 C 169.381 222.594,168.870 222.400,168.607 222.400 C 168.344 222.400,167.561 222.098,166.867 221.728 C 166.173 221.359,165.544 221.060,165.468 221.065 C 165.393 221.069,164.881 220.873,164.332 220.629 C 163.783 220.384,163.243 220.203,163.133 220.225 C 163.023 220.248,162.933 220.140,162.933 219.984 C 162.933 219.829,162.824 219.770,162.689 219.853 C 162.555 219.935,162.405 219.913,162.356 219.802 C 162.244 219.549,160.205 218.553,159.933 218.619 C 159.823 218.645,159.733 218.547,159.733 218.400 C 159.733 218.253,159.643 218.154,159.533 218.180 C 159.213 218.254,157.867 217.536,157.867 217.291 C 157.867 217.167,157.649 217.067,157.384 217.067 C 157.118 217.067,156.655 216.838,156.354 216.558 C 156.054 216.278,155.341 215.795,154.771 215.485 C 152.627 214.319,150.830 213.132,149.970 212.314 C 149.767 212.120,149.600 212.053,149.600 212.165 C 149.600 212.276,149.375 212.135,149.099 211.850 C 148.455 211.185,147.498 210.400,147.330 210.400 C 147.259 210.400,146.973 210.190,146.695 209.933 C 146.417 209.677,145.887 209.227,145.517 208.933 C 145.146 208.640,144.346 207.980,143.738 207.467 C 142.431 206.364,134.955 198.932,135.021 198.801 C 135.046 198.752,134.800 198.431,134.474 198.089 C 133.112 196.660,132.317 195.733,132.452 195.733 C 132.531 195.733,132.171 195.264,131.653 194.690 C 131.135 194.117,130.563 193.371,130.382 193.033 C 130.201 192.695,129.712 192.054,129.295 191.609 C 128.877 191.164,128.535 190.650,128.535 190.467 C 128.534 190.283,128.427 190.133,128.298 190.133 C 128.168 190.133,127.983 189.923,127.887 189.667 C 127.624 188.969,126.722 187.402,126.479 187.223 C 126.362 187.137,126.052 186.647,125.789 186.133 C 125.128 184.842,124.701 184.124,124.325 183.671 C 124.149 183.458,124.084 183.205,124.180 183.109 C 124.277 183.012,124.216 182.933,124.044 182.933 C 123.873 182.933,123.757 182.843,123.787 182.733 C 123.816 182.623,123.492 181.873,123.067 181.067 C 122.641 180.260,122.317 179.510,122.347 179.400 C 122.376 179.290,122.280 179.200,122.133 179.200 C 121.987 179.200,121.891 179.110,121.921 179.000 C 121.950 178.890,121.708 178.290,121.382 177.667 C 121.056 177.043,120.845 176.533,120.914 176.533 C 120.983 176.533,120.851 176.083,120.621 175.533 C 120.391 174.983,120.078 174.233,119.925 173.867 C 119.772 173.500,119.667 173.110,119.690 173.000 C 119.714 172.890,119.613 172.800,119.467 172.800 C 119.320 172.800,119.200 172.520,119.200 172.178 C 119.200 171.836,119.110 171.466,119.000 171.356 C 118.890 171.246,118.790 171.076,118.777 170.978 C 118.764 170.880,118.665 170.599,118.556 170.354 C 118.448 170.109,118.317 169.689,118.267 169.421 C 118.216 169.153,118.156 168.933,118.133 168.933 C 118.111 168.933,118.054 168.753,118.008 168.533 C 117.800 167.557,117.723 167.325,117.561 167.200 C 117.466 167.127,117.350 166.707,117.304 166.267 C 117.258 165.827,117.109 165.314,116.972 165.127 C 116.836 164.940,116.800 164.711,116.893 164.618 C 116.986 164.525,116.939 164.301,116.788 164.119 C 116.638 163.938,116.538 163.687,116.566 163.561 C 116.595 163.436,116.550 163.153,116.467 162.933 C 116.284 162.446,115.723 159.596,115.622 158.641 C 115.582 158.261,115.474 157.827,115.381 157.678 C 115.289 157.529,115.158 156.671,115.090 155.771 C 115.022 154.871,114.909 154.043,114.839 153.930 C 114.085 152.711,114.092 139.379,114.849 133.600 C 115.410 129.318,115.369 129.552,116.277 125.400 C 116.429 124.703,116.557 123.926,116.560 123.672 C 116.564 123.418,116.682 123.140,116.821 123.053 C 116.961 122.967,117.008 122.787,116.925 122.654 C 116.843 122.520,116.895 122.187,117.042 121.913 C 117.188 121.640,117.368 121.127,117.440 120.775 C 117.755 119.248,117.845 118.938,118.124 118.417 C 118.286 118.114,118.347 117.867,118.260 117.867 C 118.173 117.867,118.197 117.717,118.314 117.533 C 118.430 117.350,118.537 117.140,118.552 117.067 C 118.614 116.761,118.990 115.833,119.238 115.374 C 119.384 115.103,119.437 114.815,119.355 114.733 C 119.274 114.652,119.455 114.183,119.759 113.692 C 120.062 113.202,120.226 112.800,120.122 112.800 C 120.019 112.800,120.056 112.650,120.203 112.467 C 120.351 112.283,120.555 111.743,120.657 111.267 C 120.759 110.790,120.953 110.400,121.088 110.400 C 121.223 110.400,121.333 110.224,121.333 110.009 C 121.333 109.525,122.193 107.633,122.468 107.511 C 122.579 107.461,122.602 107.311,122.519 107.177 C 122.436 107.043,122.503 106.933,122.667 106.933 C 122.831 106.933,122.891 106.813,122.800 106.667 C 122.709 106.520,122.769 106.400,122.933 106.400 C 123.097 106.400,123.157 106.280,123.067 106.133 C 122.976 105.987,123.036 105.867,123.200 105.867 C 123.364 105.867,123.424 105.747,123.333 105.600 C 123.243 105.453,123.316 105.333,123.495 105.333 C 123.675 105.333,123.746 105.257,123.652 105.163 C 123.559 105.070,123.719 104.661,124.008 104.256 C 124.297 103.850,124.533 103.410,124.533 103.279 C 124.533 103.147,124.683 102.890,124.867 102.707 C 125.050 102.523,125.202 102.289,125.204 102.187 C 125.212 101.794,126.985 98.933,127.220 98.933 C 127.355 98.933,127.467 98.805,127.467 98.648 C 127.467 98.374,128.984 96.008,129.336 95.733 C 129.430 95.660,129.734 95.210,130.011 94.733 C 130.288 94.257,130.616 93.867,130.740 93.867 C 130.864 93.867,130.902 93.765,130.825 93.640 C 130.748 93.516,130.951 93.173,131.276 92.878 C 131.934 92.281,132.800 91.258,132.800 91.076 C 132.800 91.011,133.070 90.659,133.400 90.293 C 133.730 89.928,134.480 89.087,135.067 88.425 C 137.025 86.215,144.533 78.778,144.533 79.048 C 144.533 79.118,144.863 78.873,145.267 78.503 C 145.670 78.132,146.190 77.658,146.422 77.448 C 146.655 77.238,146.985 77.067,147.156 77.067 C 147.327 77.067,147.467 76.977,147.468 76.867 C 147.469 76.757,147.919 76.367,148.468 76.000 C 149.017 75.634,149.827 75.004,150.267 74.602 C 150.707 74.199,151.217 73.869,151.400 73.868 C 151.583 73.867,151.733 73.747,151.733 73.600 C 151.733 73.453,151.913 73.333,152.133 73.333 C 152.353 73.333,152.533 73.213,152.533 73.067 C 152.533 72.920,152.660 72.800,152.815 72.800 C 152.969 72.800,153.835 72.298,154.738 71.685 C 156.124 70.744,164.388 66.331,164.598 66.420 C 164.636 66.436,165.027 66.303,165.467 66.125 C 166.652 65.644,168.012 65.115,168.533 64.933 C 168.607 64.907,169.085 64.697,169.597 64.467 C 170.109 64.236,170.619 64.104,170.731 64.173 C 170.842 64.242,170.933 64.175,170.933 64.024 C 170.933 63.873,171.113 63.819,171.333 63.904 C 171.553 63.988,171.733 63.928,171.733 63.770 C 171.733 63.612,171.913 63.552,172.133 63.637 C 172.353 63.721,172.533 63.661,172.533 63.504 C 172.533 63.346,172.713 63.286,172.933 63.370 C 173.153 63.455,173.333 63.411,173.333 63.273 C 173.333 63.135,173.483 63.012,173.667 62.999 C 173.850 62.987,174.300 62.897,174.667 62.800 C 175.033 62.703,175.483 62.613,175.667 62.601 C 175.850 62.588,176.000 62.478,176.000 62.356 C 176.000 62.233,176.242 62.133,176.537 62.133 C 176.832 62.133,177.902 61.904,178.915 61.623 C 179.928 61.342,180.816 61.172,180.889 61.245 C 180.962 61.317,181.258 61.250,181.547 61.095 C 181.837 60.940,182.477 60.789,182.970 60.760 C 183.463 60.731,184.047 60.620,184.267 60.514 C 184.791 60.260,188.306 59.814,191.733 59.567 C 192.833 59.488,193.790 59.366,193.860 59.295 C 194.091 59.065,207.557 59.419,209.467 59.706 M84.800 137.119 C 85.020 137.172,85.320 137.285,85.467 137.371 C 85.613 137.456,86.093 137.611,86.533 137.715 C 87.484 137.940,89.867 139.414,89.867 139.777 C 89.867 139.917,89.957 139.987,90.067 139.932 C 90.177 139.877,90.532 140.110,90.857 140.449 C 91.182 140.789,91.398 141.067,91.337 141.067 C 91.275 141.067,91.520 141.384,91.879 141.772 C 92.239 142.160,92.533 142.640,92.533 142.839 C 92.533 143.038,92.639 143.200,92.768 143.200 C 93.061 143.200,93.751 144.816,93.651 145.267 C 93.610 145.450,93.684 145.600,93.814 145.600 C 94.253 145.600,94.534 184.880,94.108 186.667 C 94.020 187.033,93.879 187.513,93.795 187.733 C 93.710 187.953,93.512 188.553,93.354 189.067 C 93.196 189.580,92.797 190.313,92.467 190.696 C 90.749 192.689,89.223 194.267,89.015 194.267 C 88.886 194.267,88.695 194.387,88.590 194.533 C 88.349 194.871,86.702 195.708,86.000 195.848 C 85.707 195.907,84.963 196.071,84.347 196.213 C 82.133 196.722,79.237 196.494,77.770 195.695 C 77.496 195.546,77.044 195.380,76.764 195.326 C 75.818 195.144,72.145 192.210,72.464 191.891 C 72.544 191.811,72.408 191.669,72.162 191.574 C 71.794 191.433,70.880 190.107,70.802 189.600 C 70.790 189.527,70.631 189.197,70.448 188.867 C 70.265 188.537,70.193 188.267,70.290 188.267 C 70.386 188.267,70.347 188.117,70.202 187.933 C 70.058 187.750,69.905 187.390,69.862 187.133 C 69.711 186.222,69.758 146.789,69.911 146.133 C 70.301 144.465,70.475 144.000,70.711 144.000 C 70.851 144.000,70.891 143.880,70.800 143.733 C 70.709 143.587,70.762 143.467,70.918 143.467 C 71.073 143.467,71.200 143.287,71.200 143.067 C 71.200 142.847,71.320 142.667,71.467 142.667 C 71.613 142.667,71.733 142.517,71.733 142.333 C 71.733 142.012,73.102 140.494,74.478 139.288 C 75.285 138.580,77.332 137.511,77.337 137.795 C 77.340 137.908,77.432 137.857,77.543 137.683 C 77.654 137.509,78.087 137.304,78.505 137.228 C 78.923 137.152,79.326 137.029,79.401 136.955 C 79.543 136.813,84.106 136.952,84.800 137.119 M319.705 137.178 C 320.203 137.262,320.761 137.457,320.945 137.609 C 321.128 137.762,321.544 137.938,321.868 138.000 C 323.120 138.241,326.775 141.689,327.602 143.409 C 327.864 143.954,328.188 144.619,328.321 144.888 C 328.869 145.988,328.921 147.897,328.927 167.067 L 328.933 187.067 328.327 188.332 C 327.994 189.029,327.607 189.899,327.467 190.266 C 327.327 190.633,327.090 190.933,326.940 190.933 C 326.790 190.933,326.667 191.040,326.667 191.170 C 326.667 191.632,323.850 194.275,322.800 194.797 C 322.213 195.089,321.671 195.412,321.594 195.515 C 321.518 195.617,321.158 195.758,320.794 195.827 C 320.431 195.897,319.593 196.078,318.933 196.230 C 317.326 196.601,313.896 196.428,312.773 195.919 C 312.275 195.694,311.597 195.431,311.267 195.337 C 310.937 195.242,310.667 195.052,310.667 194.915 C 310.667 194.779,310.499 194.667,310.294 194.667 C 309.733 194.667,307.677 192.879,306.933 191.745 C 306.713 191.409,306.383 190.978,306.200 190.786 C 306.017 190.595,305.867 190.310,305.867 190.152 C 305.867 189.995,305.740 189.867,305.584 189.867 C 305.429 189.867,305.376 189.747,305.467 189.600 C 305.557 189.453,305.514 189.333,305.370 189.333 C 305.123 189.333,304.662 187.850,304.846 187.645 C 304.894 187.592,304.785 187.370,304.603 187.151 C 304.347 186.843,304.278 182.392,304.293 167.310 C 304.304 156.616,304.302 147.585,304.290 147.240 C 304.278 146.895,304.354 146.475,304.460 146.307 C 304.565 146.138,304.687 145.769,304.731 145.488 C 304.775 145.206,304.943 144.816,305.105 144.621 C 305.266 144.426,305.305 144.267,305.191 144.267 C 305.077 144.267,305.174 144.057,305.406 143.800 C 305.639 143.543,305.807 143.253,305.781 143.155 C 305.755 143.056,305.994 142.677,306.312 142.311 C 306.630 141.945,307.024 141.396,307.186 141.092 C 307.634 140.255,311.273 137.691,312.197 137.561 C 312.501 137.518,313.134 137.316,313.733 137.070 C 314.290 136.842,318.142 136.911,319.705 137.178 " stroke="none" fill="#545454" fill-rule="evenodd"></path><path id="path4" d="M194.467 20.450 C 194.723 20.518,195.143 20.518,195.400 20.450 C 195.657 20.383,195.447 20.329,194.933 20.329 C 194.420 20.329,194.210 20.383,194.467 20.450 M203.136 20.455 C 203.468 20.519,203.948 20.517,204.203 20.450 C 204.458 20.383,204.187 20.331,203.600 20.334 C 203.013 20.337,202.805 20.391,203.136 20.455 M286.667 38.000 C 287.164 38.513,287.631 38.933,287.705 38.933 C 287.778 38.933,287.431 38.513,286.933 38.000 C 286.436 37.487,285.969 37.067,285.895 37.067 C 285.822 37.067,286.169 37.487,286.667 38.000 M197.667 41.798 C 198.657 41.849,200.277 41.849,201.267 41.798 C 202.257 41.746,201.447 41.704,199.467 41.704 C 197.487 41.704,196.677 41.746,197.667 41.798 M128.117 70.200 L 127.333 71.067 128.200 70.283 C 128.677 69.853,129.067 69.463,129.067 69.417 C 129.067 69.211,128.847 69.392,128.117 70.200 M259.467 84.133 C 260.412 85.087,261.245 85.867,261.318 85.867 C 261.391 85.867,260.678 85.087,259.733 84.133 C 258.788 83.180,257.955 82.400,257.882 82.400 C 257.809 82.400,258.522 83.180,259.467 84.133 M114.219 141.600 C 114.219 142.553,114.267 142.943,114.326 142.467 C 114.385 141.990,114.385 141.210,114.326 140.733 C 114.267 140.257,114.219 140.647,114.219 141.600 M114.219 145.600 C 114.219 146.553,114.267 146.943,114.326 146.467 C 114.385 145.990,114.385 145.210,114.326 144.733 C 114.267 144.257,114.219 144.647,114.219 145.600 M271.860 215.533 L 269.733 217.733 271.933 215.606 C 273.977 213.631,274.255 213.333,274.060 213.333 C 274.020 213.333,273.030 214.323,271.860 215.533 M194.603 245.522 C 194.935 245.586,195.415 245.583,195.670 245.517 C 195.925 245.450,195.653 245.398,195.067 245.401 C 194.480 245.404,194.271 245.458,194.603 245.522 M202.870 245.522 C 203.201 245.586,203.681 245.583,203.936 245.517 C 204.191 245.450,203.920 245.398,203.333 245.401 C 202.747 245.404,202.538 245.458,202.870 245.522 M96.800 261.150 C 96.800 261.196,97.190 261.586,97.667 262.017 L 98.533 262.800 97.750 261.933 C 97.020 261.125,96.800 260.944,96.800 261.150 M250.467 266.317 C 250.723 266.384,251.143 266.384,251.400 266.317 C 251.657 266.250,251.447 266.195,250.933 266.195 C 250.420 266.195,250.210 266.250,250.467 266.317 M205.508 283.667 C 205.396 283.848,220.684 283.846,240.133 283.662 C 244.240 283.623,238.157 283.563,226.616 283.529 C 215.074 283.495,205.576 283.557,205.508 283.667 M316.933 295.200 C 317.506 295.787,318.035 296.267,318.108 296.267 C 318.182 296.267,317.773 295.787,317.200 295.200 C 316.627 294.613,316.098 294.133,316.025 294.133 C 315.952 294.133,316.360 294.613,316.933 295.200 M302.667 305.683 C 302.667 305.729,303.057 306.119,303.533 306.550 L 304.400 307.333 303.617 306.467 C 302.887 305.659,302.667 305.477,302.667 305.683 M93.319 307.667 L 92.400 308.667 93.400 307.748 C 94.331 306.892,94.523 306.667,94.319 306.667 C 94.274 306.667,93.824 307.117,93.319 307.667 M305.333 308.350 C 305.333 308.396,305.723 308.786,306.200 309.217 L 307.067 310.000 306.283 309.133 C 305.553 308.325,305.333 308.144,305.333 308.350 M52.062 359.467 C 52.062 359.980,52.117 360.190,52.184 359.933 C 52.251 359.677,52.251 359.257,52.184 359.000 C 52.117 358.743,52.062 358.953,52.062 359.467 " stroke="none" fill="#545454" fill-rule="evenodd"></path></g></svg>