<svg xmlns="http://www.w3.org/2000/svg" viewBox="0 0 1500 1500"><defs><style>.cls-1{fill:#404040;}</style></defs><title>Iconos finales</title><g id="wow"><path class="cls-1" d="M447.67,1247.9a23,23,0,0,1-8.73-44.29c63.92-26.19,102.87-51.16,126.28-81,22.21-28.26,32.11-63.88,32.11-115.49,0-28.77-7.73-39.93-17.51-54.06l-.07-.1-.11-.17c-12-17.57-28.53-41.64-40.3-105.13,0,0,0-.07,0-.11-3.06-17-10.48-20.5-19.87-25l-.17-.08c-6.93-3.35-18.47-8.93-27-24.41-7.35-13.32-11.79-32.8-14-61.31-.05-.59-.07-1.18-.07-1.77,0-34.51,14.2-50.14,21-55.62a21.43,21.43,0,0,1,2.36-1.74c-1.52-8.49-6.16-35.06-10.49-65.36-7.22-44.19-13.46-101.59,2.18-154.09,16.89-56.72,56.75-98.13,118.48-123.1,71.65-29,129.65-29.79,165.69-25.38,30.72,3.77,70.61,15.37,84.77,35.82a20.73,20.73,0,0,0,2.49,1.26l.73.05c12.72-.2,75.07,1.38,115.94,48.76,25.46,29.6,39.23,80.25,40.94,150.56,1.24,50.86-4.17,101.92-9.39,131.57l.78.56c7,5.19,22.55,20.59,22.55,55.39,0,.57,0,1.15-.06,1.72-2.19,29.08-6.63,48.93-14,62.46-8.62,15.85-20.2,21.38-27.13,24.68-9.44,4.56-17,8.19-20.15,25.16-11.74,63.76-28.16,87.82-40.14,105.38l-.12.17c-10.26,14.76-17.67,25.42-17.67,54,0,51.45,9.92,87,32.16,115.23,23.4,29.73,62.33,54.73,126.22,81.05a23,23,0,0,1-17.52,42.53c-71.6-29.5-116.28-58.83-144.85-95.12-29.05-36.91-42-81.22-42-143.69,0-43,13.72-62.76,25.85-80.21,10.73-15.72,22.88-33.6,32.86-87.79,7.5-39.89,33.14-52.26,45.47-58.21l.09,0c4.56-2.18,5-2.41,6.52-5.13,2.73-5,6.41-16.59,8.46-43-.13-11.61-3-16.34-3.91-17.51-14.4-9.22-22.22-26.61-19.15-43.23,4-21.73,10.41-72.49,9.14-124.84-1.41-57.74-12-100.94-29.81-121.65-29.55-34.26-78.94-32.85-81-32.78a23.32,23.32,0,0,1-3.45-.13l-.79-.07a42,42,0,0,1-6.74-.93l-.6-.14c-7.59-1.95-22-8.22-29.32-19.51C821,369,802.44,358.26,766,354.81c-29.63-2.8-77.45-1.09-137,23-48.78,19.73-78.76,50.35-91.64,93.59-13,43.61-7.26,94.4-.82,133.77,0,.15,0,.31.07.47,5,35.23,10.67,66.3,10.73,66.61,0,.1,0,.2.05.3A41.77,41.77,0,0,1,528,715.61c-1.13,1.85-3.64,7.23-3.76,18.62,2,25.66,5.65,36.84,8.33,41.7,1.42,2.57,1.91,2.87,6.66,5.17,12.42,5.89,38.11,18.13,45.37,58.28,10,53.86,22.22,71.71,33,87.45l.08.12c11.44,16.53,25.66,37.1,25.66,80.21,0,62.62-12.93,107-41.94,143.91-28.6,36.4-73.32,65.73-145,95.11A23,23,0,0,1,447.67,1247.9Zm43.83-546ZM498.57,680a22.88,22.88,0,0,0-7.07,21.93A23,23,0,0,1,498.57,680Zm517.39.39,0,0Zm0,0,0,0Zm-5-3.78.08.05ZM823.87,371a.75.75,0,0,0,.07.12A.75.75,0,0,1,823.87,371Z"/><path class="cls-1" d="M750,1352.47A621.13,621.13,0,0,1,508.28,159.34,621.12,621.12,0,0,1,991.72,1303.66,617.06,617.06,0,0,1,750,1352.47Zm0-1195.94A575.13,575.13,0,0,0,526.2,1261.29,575.12,575.12,0,0,0,973.8,201.71,571.29,571.29,0,0,0,750,156.53Z"/></g></svg>