<?xml version="1.0" encoding="UTF-8" standalone="no"?>
<!DOCTYPE svg PUBLIC "-//W3C//DTD SVG 1.1//EN" "http://www.w3.org/Graphics/SVG/1.1/DTD/svg11.dtd">
<svg version="1.1" xmlns="http://www.w3.org/2000/svg" xmlns:xlink="http://www.w3.org/1999/xlink" preserveAspectRatio="xMidYMid meet" viewBox="0 0 640 640" width="640" height="640"><defs><path d="M573.09 308.46C573.09 448.07 459.73 561.43 320.12 561.43C180.5 561.43 67.15 448.07 67.15 308.46C67.15 168.84 180.5 55.49 320.12 55.49C459.73 55.49 573.09 168.84 573.09 308.46Z" id="a4yEonF0S0"></path><path d="M319.95 131.31L321.39 131.35L322.8 131.4L324.17 131.47L325.51 131.55L326.82 131.65L328.1 131.75L329.34 131.87L330.54 132L331.71 132.13L332.7 132.26L333.71 132.4L334.72 132.55L335.75 132.72L336.78 132.9L337.82 133.09L338.87 133.29L339.93 133.5L340.98 133.73L342.04 133.97L343.1 134.23L344.16 134.5L345.22 134.78L346.27 135.07L347.32 135.38L348.37 135.7L349.4 136.03L350.43 136.38L351.44 136.73L352.45 137.11L353.44 137.49L354.41 137.89L355.37 138.31L356.31 138.73L357.24 139.17L358.14 139.63L359.02 140.09L359.88 140.57L360.72 141.07L361.52 141.57L362.3 142.1L363.06 142.63L363.78 143.18L364.47 143.74L365.13 144.32L365.75 144.91L366.34 145.52L366.89 146.14L367.41 146.77L367.88 147.42L367.91 147.43L367.93 147.45L367.96 147.46L367.98 147.48L368.01 147.49L368.04 147.51L368.06 147.52L368.09 147.54L368.11 147.55L368.14 147.57L368.17 147.58L368.19 147.59L368.22 147.61L368.24 147.62L368.27 147.64L368.3 147.65L368.32 147.66L368.35 147.68L368.38 147.69L368.4 147.7L368.43 147.72L368.46 147.73L368.48 147.74L368.51 147.76L368.54 147.77L368.56 147.78L368.59 147.8L368.62 147.81L368.64 147.82L368.67 147.83L368.7 147.85L368.72 147.86L368.75 147.87L368.78 147.88L368.81 147.9L368.83 147.91L368.86 147.92L368.89 147.93L368.92 147.94L368.94 147.96L369.25 147.98L369.7 147.97L370.22 147.97L370.82 147.98L371.49 147.99L372.22 148.02L373.02 148.05L373.89 148.1L374.81 148.17L375.79 148.25L376.82 148.35L377.91 148.47L379.04 148.61L380.21 148.78L381.43 148.97L382.69 149.19L383.99 149.44L385.32 149.72L386.68 150.03L388.07 150.38L389.48 150.77L390.92 151.19L392.38 151.65L393.85 152.15L395.34 152.7L396.84 153.29L398.35 153.93L399.86 154.62L401.37 155.36L402.89 156.15L404.4 156.99L405.91 157.89L407.4 158.85L408.89 159.86L410.36 160.94L411.81 162.08L413.25 163.28L414.66 164.55L416.04 165.89L417.4 167.3L418.72 168.78L419.53 169.74L420.31 170.74L421.08 171.77L421.83 172.84L422.56 173.94L423.27 175.07L423.97 176.23L424.64 177.43L425.3 178.66L425.93 179.93L426.55 181.23L427.15 182.56L427.73 183.92L428.29 185.32L428.83 186.75L429.35 188.21L429.86 189.7L430.34 191.23L430.81 192.79L431.26 194.39L431.68 196.01L432.09 197.67L432.48 199.36L432.85 201.09L433.21 202.84L433.54 204.63L433.85 206.45L434.15 208.3L434.42 210.19L434.68 212.1L434.92 214.05L435.14 216.03L435.33 218.04L435.51 220.09L435.68 222.16L435.82 224.27L435.94 226.41L436.04 228.58L436.13 230.79L436.19 233.02L436.22 234.65L436.25 236.27L436.26 237.9L436.27 239.52L436.26 241.14L436.25 242.76L436.22 244.37L436.19 245.98L436.15 247.58L436.1 249.17L436.04 250.75L435.98 252.32L435.91 253.89L435.83 255.44L435.74 256.98L435.65 258.51L435.55 260.03L435.45 261.53L435.34 263.01L435.22 264.48L435.1 265.93L434.97 267.37L434.84 268.78L434.71 270.18L434.57 271.56L434.43 272.91L434.28 274.24L434.13 275.55L433.98 276.84L433.82 278.1L433.67 279.33L433.51 280.54L433.34 281.72L433.18 282.88L433.02 284L432.85 285.1L432.68 286.16L432.52 287.19L432.35 288.19L432.18 289.16L432.52 289.4L432.75 289.57L432.99 289.76L433.25 289.97L433.51 290.19L433.79 290.44L434.07 290.7L434.36 290.98L434.66 291.28L434.97 291.6L435.28 291.93L435.59 292.29L435.91 292.67L436.23 293.07L436.55 293.49L436.87 293.93L437.19 294.39L437.51 294.88L437.83 295.39L438.14 295.92L438.45 296.47L438.75 297.05L439.04 297.65L439.33 298.28L439.61 298.93L439.88 299.61L440.14 300.31L440.39 301.04L440.62 301.79L440.85 302.58L441.05 303.38L441.25 304.22L441.42 305.08L441.58 305.97L441.72 306.89L441.85 307.84L441.95 308.82L442.03 309.83L442.09 310.86L442.13 311.93L442.14 313.03L442.14 313.1L442.14 313.16L442.14 313.19L442.14 313.21L442.14 313.25L442.14 313.27L442.14 313.3L442.14 313.32L442.14 313.36L442.13 313.38L442.13 313.4L442.13 313.41L442.13 313.43L442.13 313.45L442.13 313.47L442.13 313.49L442.13 313.51L442.13 313.52L442.13 313.54L442.13 313.56L442.13 313.58L442.13 313.6L442.12 313.62L442.12 313.63L442.12 313.65L442.12 313.67L442.12 313.69L442.12 313.71L442.12 313.73L442.11 313.74L442.11 313.76L442.04 314.69L441.96 315.59L441.89 316.49L441.8 317.37L441.72 318.23L441.63 319.08L441.53 319.92L441.43 320.74L441.33 321.55L441.23 322.35L441.12 323.13L441 323.9L440.89 324.65L440.77 325.4L440.64 326.12L440.51 326.84L440.38 327.54L440.24 328.23L440.1 328.91L439.95 329.57L439.8 330.23L439.65 330.87L439.49 331.49L439.33 332.11L439.16 332.71L438.99 333.31L438.82 333.89L438.64 334.45L438.46 335.01L438.27 335.56L438.07 336.09L437.88 336.61L437.68 337.13L437.47 337.63L437.26 338.12L437.04 338.6L436.83 339.07L436.6 339.53L436.37 339.97L436.14 340.41L435.86 340.91L435.58 341.39L435.29 341.86L435 342.31L434.71 342.75L434.41 343.17L434.11 343.58L433.81 343.97L433.5 344.35L433.19 344.71L432.89 345.06L432.58 345.4L432.26 345.73L431.95 346.04L431.64 346.34L431.33 346.63L431.01 346.91L430.7 347.18L430.39 347.44L430.08 347.68L429.77 347.92L429.46 348.15L429.16 348.37L428.86 348.57L428.56 348.77L428.26 348.97L427.96 349.15L427.67 349.32L427.39 349.49L427.1 349.65L426.82 349.81L426.55 349.96L426.28 350.1L426.02 350.23L425.76 350.36L425.51 350.49L425.26 350.61L425.02 350.72L424.79 350.83L424.56 350.94L424.26 351.09L423.97 351.23L423.67 351.38L423.38 351.52L423.09 351.66L422.81 351.81L422.53 351.96L422.25 352.11L421.98 352.26L421.71 352.42L421.44 352.58L421.18 352.75L420.93 352.92L420.68 353.1L420.43 353.28L420.18 353.48L419.95 353.67L419.71 353.88L419.48 354.1L419.26 354.32L419.04 354.56L418.82 354.8L418.62 355.06L418.41 355.33L418.21 355.61L418.02 355.9L417.84 356.21L417.65 356.53L417.48 356.87L417.31 357.22L417.15 357.58L416.99 357.97L416.84 358.37L416.69 358.78L416.56 359.22L416.42 359.67L416.3 360.14L416.18 360.63L416.07 361.14L415.97 361.68L415.59 363.69L415.2 365.63L414.81 367.52L414.41 369.34L414 371.11L413.59 372.82L413.17 374.48L412.75 376.08L412.33 377.63L411.9 379.13L411.46 380.57L411.02 381.97L410.58 383.32L410.14 384.62L409.69 385.88L409.25 387.1L408.8 388.27L408.35 389.4L407.89 390.5L407.44 391.55L406.99 392.57L406.54 393.55L406.08 394.5L405.63 395.41L405.18 396.29L404.74 397.15L404.29 397.97L403.85 398.76L403.41 399.53L402.97 400.28L402.53 401L402.1 401.7L401.68 402.37L401.25 403.03L400.84 403.67L400.43 404.29L400.02 404.9L399.62 405.49L399.23 406.07L398.84 406.64L398.79 406.71L398.46 407.18L398.14 407.64L397.82 408.1L397.51 408.56L397.21 409.01L396.91 409.46L396.61 409.91L396.32 410.36L396.04 410.8L395.76 411.25L395.49 411.71L395.23 412.16L394.97 412.62L394.72 413.08L394.48 413.55L394.24 414.03L394.02 414.51L393.79 415.01L393.58 415.51L393.38 416.02L393.18 416.54L392.99 417.08L392.81 417.63L392.64 418.19L392.48 418.76L392.33 419.35L392.18 419.96L392.05 420.59L391.93 421.23L391.81 421.89L391.71 422.57L391.61 423.28L391.53 424L391.46 424.75L391.39 425.52L391.34 426.31L391.3 427.13L391.27 427.98L391.25 428.85L391.25 429.75L391.26 431.39L391.28 432.99L391.32 434.58L391.38 436.14L391.45 437.67L391.54 439.18L391.64 440.67L391.77 442.14L391.9 443.58L392.06 445L392.23 446.4L392.42 447.78L392.63 449.13L392.85 450.46L393.09 451.78L393.35 453.07L393.62 454.35L393.91 455.6L394.22 456.83L394.55 458.05L394.9 459.25L395.26 460.42L395.64 461.59L396.04 462.73L396.46 463.86L396.9 464.96L397.35 466.06L397.82 467.13L398.31 468.19L398.82 469.24L399.35 470.27L399.9 471.29L400.47 472.29L401.05 473.27L401.66 474.25L402.28 475.21L402.92 476.15L403.59 477.09L404.27 478.01L404.97 478.92L405.73 479.86L406.52 480.8L407.33 481.74L408.17 482.66L409.03 483.58L409.92 484.5L410.84 485.4L411.79 486.31L412.76 487.2L413.76 488.09L414.79 488.98L415.85 489.86L416.94 490.73L418.06 491.6L419.21 492.47L420.39 493.33L421.6 494.19L422.84 495.05L424.11 495.9L425.42 496.75L426.76 497.6L428.13 498.44L429.53 499.29L430.97 500.13L432.44 500.97L433.94 501.8L435.48 502.64L437.06 503.47L438.67 504.31L440.31 505.14L442 505.97L443.71 506.81L445.47 507.64L447.26 508.47L449.09 509.31L450.96 510.14L452.87 510.98L454.81 511.82L456.8 512.66L458.82 513.5L459.19 513.66L459.55 513.84L459.9 514.03L460.24 514.24L460.57 514.45L460.88 514.68L461.19 514.92L461.48 515.17L461.77 515.43L462.04 515.7L462.3 515.98L462.55 516.27L462.78 516.57L463.01 516.87L463.22 517.18L463.42 517.51L463.61 517.83L463.78 518.17L463.94 518.51L464.09 518.86L464.22 519.21L464.34 519.56L464.45 519.93L464.54 520.29L464.62 520.66L464.69 521.03L464.74 521.41L464.78 521.79L464.8 522.17L464.8 522.55L464.8 522.93L464.77 523.32L464.73 523.7L464.68 524.08L464.61 524.47L464.53 524.85L464.42 525.23L464.31 525.61L464.17 525.99L464.02 526.37L463.86 526.73L463.68 527.08L463.49 527.43L463.29 527.76L463.08 528.08L462.86 528.4L462.62 528.7L462.38 528.99L462.12 529.27L461.86 529.54L461.58 529.8L461.3 530.05L461.01 530.28L460.71 530.51L460.4 530.72L460.09 530.92L459.76 531.1L459.44 531.28L459.1 531.44L458.76 531.59L458.42 531.73L458.07 531.85L457.71 531.96L457.35 532.06L456.99 532.14L456.62 532.21L456.25 532.26L455.88 532.3L455.5 532.33L455.13 532.34L454.75 532.34L454.37 532.33L453.99 532.29L453.61 532.25L453.23 532.19L452.85 532.11L452.47 532.02L452.1 531.91L451.72 531.78L451.35 531.64L449.08 530.7L446.85 529.76L444.67 528.81L442.52 527.87L440.42 526.92L438.36 525.97L436.34 525.03L434.36 524.08L432.42 523.12L430.52 522.17L428.66 521.21L426.83 520.25L425.04 519.29L423.3 518.32L421.58 517.35L419.91 516.38L418.27 515.4L416.67 514.42L415.1 513.43L413.56 512.44L412.06 511.44L410.6 510.44L409.17 509.43L407.77 508.41L406.4 507.39L405.07 506.36L403.77 505.32L402.5 504.27L401.26 503.22L400.05 502.16L398.87 501.09L397.72 500.02L396.6 498.93L395.51 497.84L394.45 496.73L393.41 495.62L392.41 494.49L391.43 493.36L390.47 492.21L389.55 491.06L388.63 489.87L387.74 488.67L386.87 487.46L386.03 486.24L385.22 485L384.43 483.74L383.66 482.48L382.92 481.19L382.21 479.9L381.52 478.58L380.85 477.26L380.21 475.91L379.59 474.55L379 473.17L378.43 471.77L377.88 470.35L377.36 468.92L376.86 467.46L376.39 465.99L375.94 464.49L375.51 462.98L375.11 461.45L374.72 459.89L374.36 458.31L374.03 456.71L373.71 455.09L373.42 453.44L373.15 451.77L372.91 450.08L372.68 448.36L372.48 446.62L372.3 444.85L372.14 443.06L372 441.24L371.89 439.39L371.79 437.52L371.72 435.62L371.67 433.69L371.64 431.74L371.63 429.75L371.64 428.39L371.67 427.07L371.72 425.79L371.8 424.54L371.89 423.32L372 422.13L372.13 420.98L372.28 419.86L372.44 418.77L372.62 417.71L372.82 416.68L373.03 415.68L373.26 414.7L373.5 413.75L373.75 412.82L374.02 411.92L374.3 411.05L374.59 410.19L374.89 409.36L375.2 408.55L375.52 407.76L375.85 406.99L376.19 406.24L376.54 405.51L376.89 404.79L377.25 404.09L377.62 403.41L377.99 402.74L378.37 402.08L378.75 401.44L379.13 400.81L379.52 400.19L379.91 399.58L380.3 398.98L380.7 398.38L381.09 397.8L381.48 397.22L381.88 396.65L382.27 396.09L382.66 395.53L383 395.02L383.35 394.51L383.7 394L384.05 393.47L384.4 392.94L384.75 392.4L385.11 391.84L385.46 391.28L385.82 390.7L386.18 390.1L386.54 389.48L386.9 388.85L387.26 388.2L387.62 387.52L387.98 386.83L388.34 386.11L388.7 385.36L389.06 384.59L389.43 383.79L389.79 382.96L390.15 382.09L390.5 381.2L390.86 380.27L391.22 379.31L391.58 378.32L391.93 377.28L392.28 376.21L392.64 375.09L392.99 373.93L393.33 372.74L393.68 371.49L394.02 370.2L394.36 368.86L394.7 367.48L395.04 366.04L395.37 364.56L395.7 363.02L396.03 361.43L396.36 359.78L396.68 358.07L396.93 356.82L397.21 355.61L397.52 354.44L397.86 353.31L398.21 352.22L398.59 351.17L399 350.17L399.42 349.2L399.86 348.26L400.32 347.37L400.79 346.51L401.28 345.68L401.79 344.89L402.31 344.13L402.83 343.4L403.37 342.71L403.92 342.04L404.48 341.41L405.04 340.8L405.6 340.22L406.17 339.67L406.75 339.15L407.32 338.65L407.9 338.17L408.47 337.72L409.04 337.29L409.61 336.89L410.17 336.5L410.73 336.14L411.28 335.79L411.82 335.47L412.35 335.16L412.87 334.87L413.37 334.59L413.86 334.33L414.34 334.09L414.8 333.86L415.25 333.64L415.67 333.43L416.08 333.24L416.12 333.24L416.26 333.17L416.39 333.1L416.52 333.04L416.65 332.98L416.77 332.92L416.88 332.87L416.99 332.81L417.09 332.76L417.19 332.71L417.28 332.66L417.37 332.62L417.45 332.57L417.53 332.53L417.61 332.48L417.68 332.44L417.75 332.4L417.81 332.35L417.88 332.31L417.94 332.27L417.99 332.23L418.05 332.18L418.1 332.14L418.15 332.1L418.2 332.05L418.24 332L418.29 331.96L418.33 331.91L418.38 331.86L418.42 331.8L418.46 331.75L418.5 331.69L418.55 331.63L418.59 331.57L418.63 331.5L418.67 331.44L418.71 331.36L418.76 331.29L418.8 331.21L418.85 331.13L418.9 331.05L418.99 330.88L419.07 330.7L419.17 330.52L419.26 330.32L419.35 330.11L419.44 329.88L419.54 329.65L419.64 329.4L419.73 329.14L419.83 328.86L419.93 328.58L420.03 328.27L420.12 327.95L420.22 327.62L420.32 327.28L420.42 326.91L420.52 326.53L420.62 326.14L420.71 325.73L420.81 325.3L420.91 324.85L421 324.39L421.1 323.91L421.19 323.41L421.29 322.89L421.38 322.36L421.47 321.8L421.56 321.23L421.65 320.63L421.74 320.02L421.82 319.39L421.91 318.73L421.99 318.05L422.07 317.36L422.15 316.64L422.22 315.89L422.3 315.13L422.37 314.34L422.44 313.53L422.51 312.7L422.5 312.33L422.49 311.98L422.48 311.63L422.46 311.3L422.43 310.98L422.41 310.66L422.38 310.36L422.35 310.07L422.31 309.79L422.28 309.51L422.24 309.25L422.2 309L422.15 308.75L422.1 308.52L422.06 308.29L422.01 308.07L421.96 307.87L421.9 307.67L421.85 307.48L421.8 307.29L421.74 307.12L421.69 306.95L421.63 306.8L421.58 306.65L421.52 306.51L421.47 306.37L421.41 306.25L421.36 306.13L421.31 306.01L421.26 305.91L421.2 305.81L421.16 305.72L421.11 305.64L421.06 305.56L421.02 305.49L420.98 305.43L420.94 305.37L420.9 305.32L420.87 305.27L420.84 305.23L420.38 304.93L419.94 304.61L419.5 304.29L419.08 303.95L418.67 303.6L418.27 303.24L417.88 302.86L417.5 302.48L417.14 302.09L416.79 301.68L416.44 301.27L416.12 300.85L415.8 300.42L415.5 299.98L415.21 299.53L414.93 299.08L414.67 298.62L414.42 298.15L414.18 297.67L413.96 297.19L413.75 296.7L413.55 296.21L413.37 295.71L413.21 295.21L413.06 294.7L412.92 294.19L412.8 293.67L412.69 293.15L412.6 292.63L412.53 292.1L412.47 291.58L412.42 291.05L412.4 290.52L412.39 289.98L412.39 289.45L412.41 288.92L412.45 288.38L412.51 287.85L412.58 287.32L412.67 286.78L412.8 286.07L412.93 285.3L413.07 284.49L413.21 283.64L413.35 282.75L413.49 281.82L413.64 280.84L413.78 279.83L413.93 278.78L414.07 277.69L414.22 276.57L414.37 275.41L414.51 274.22L414.65 273L414.79 271.75L414.93 270.46L415.07 269.15L415.2 267.81L415.33 266.44L415.46 265.05L415.58 263.63L415.7 262.19L415.81 260.73L415.92 259.25L416.02 257.74L416.12 256.22L416.21 254.68L416.29 253.12L416.36 251.55L416.43 249.96L416.48 248.36L416.53 246.75L416.57 245.12L416.6 243.48L416.63 241.84L416.64 240.19L416.64 238.53L416.62 236.86L416.6 235.19L416.57 233.52L416.52 231.68L416.45 229.87L416.37 228.08L416.27 226.32L416.16 224.58L416.04 222.86L415.9 221.17L415.74 219.51L415.58 217.87L415.39 216.26L415.2 214.67L414.99 213.11L414.77 211.58L414.53 210.08L414.28 208.6L414.02 207.15L413.74 205.73L413.45 204.34L413.15 202.98L412.83 201.64L412.5 200.34L412.16 199.06L411.8 197.82L411.44 196.61L411.05 195.43L410.66 194.27L410.25 193.15L409.83 192.07L409.4 191.01L408.96 189.99L408.5 189L408.03 188.04L407.55 187.12L407.06 186.23L406.55 185.37L406.03 184.55L405.51 183.76L404.97 183.01L404.41 182.3L403.85 181.61L402.89 180.55L401.9 179.53L400.88 178.58L399.84 177.67L398.78 176.82L397.7 176.01L396.61 175.25L395.5 174.54L394.38 173.88L393.25 173.26L392.12 172.68L390.99 172.14L389.86 171.64L388.73 171.18L387.6 170.76L386.49 170.37L385.39 170.01L384.3 169.69L383.22 169.39L382.17 169.13L381.14 168.89L380.13 168.68L379.15 168.49L378.2 168.33L377.29 168.19L376.4 168.06L375.56 167.96L374.76 167.87L374 167.8L373.29 167.75L372.62 167.7L372.01 167.67L371.45 167.65L370.95 167.63L370.51 167.62L370.13 167.62L369.81 167.62L369.57 167.62L369.39 167.63L369.29 167.63L369.25 167.63L369.21 167.63L369.18 167.63L369.14 167.63L369.1 167.63L369.07 167.63L369.03 167.63L368.99 167.64L368.96 167.64L368.92 167.64L368.88 167.64L368.85 167.64L368.81 167.63L368.77 167.63L368.74 167.63L368.7 167.63L368.66 167.63L368.63 167.63L368.59 167.63L368.55 167.63L368.51 167.63L368.48 167.63L368.44 167.62L368.4 167.62L368.37 167.62L368.33 167.62L368.29 167.62L368.26 167.61L368.22 167.61L368.18 167.61L368.15 167.6L368.11 167.6L368.07 167.6L368.04 167.6L368 167.59L367.96 167.59L367.93 167.59L367.89 167.58L367.85 167.58L367.82 167.57L367.48 167.54L367.41 167.54L367.33 167.53L367.26 167.53L367.19 167.52L367.12 167.52L367.04 167.51L366.97 167.51L366.9 167.5L366.83 167.49L366.75 167.49L366.68 167.48L366.61 167.47L366.54 167.47L366.47 167.46L366.39 167.45L366.32 167.44L366.25 167.43L366.18 167.42L366.11 167.41L366.03 167.4L365.96 167.39L365.89 167.38L365.82 167.37L365.75 167.36L365.67 167.35L365.6 167.34L365.53 167.33L365.46 167.31L365.39 167.3L365.32 167.29L365.24 167.28L365.17 167.26L365.1 167.25L365.03 167.24L364.96 167.22L364.89 167.21L364.82 167.19L364.75 167.18L364.67 167.16L364.6 167.15L364.35 167.09L364.1 167.02L363.84 166.95L363.57 166.87L363.29 166.78L363.01 166.69L362.71 166.59L362.41 166.48L362.1 166.36L361.79 166.24L361.47 166.11L361.14 165.98L360.81 165.83L360.47 165.68L360.13 165.52L359.79 165.36L359.44 165.18L359.1 165L358.75 164.82L358.4 164.62L358.05 164.42L357.7 164.21L357.35 163.99L357 163.77L356.66 163.53L356.31 163.29L355.97 163.05L355.64 162.79L355.31 162.53L354.98 162.26L354.65 161.98L354.34 161.69L354.03 161.4L353.72 161.1L353.43 160.79L353.14 160.47L352.86 160.14L352.59 159.81L352.33 159.47L352.08 159.12L351.84 158.76L351.71 158.66L351.56 158.54L351.38 158.41L351.18 158.27L350.96 158.13L350.71 157.97L350.43 157.8L350.14 157.63L349.81 157.45L349.46 157.26L349.09 157.06L348.69 156.86L348.27 156.66L347.82 156.45L347.34 156.24L346.84 156.02L346.32 155.8L345.77 155.58L345.19 155.35L344.58 155.13L343.95 154.91L343.3 154.68L342.61 154.46L341.9 154.24L341.17 154.02L340.4 153.8L339.61 153.59L338.79 153.38L337.95 153.17L337.08 152.97L336.18 152.78L335.25 152.59L334.3 152.41L333.31 152.24L332.3 152.07L331.26 151.91L330.2 151.77L329.1 151.63L327.98 151.5L326.83 151.39L325.86 151.3L324.87 151.22L323.85 151.15L322.8 151.09L321.73 151.04L320.62 151L319.49 150.98L318.33 150.96L317.15 150.96L315.93 150.97L314.69 151L313.43 151.04L312.14 151.09L310.82 151.17L309.48 151.26L308.11 151.36L306.71 151.49L305.3 151.64L303.85 151.8L302.39 151.99L300.9 152.2L299.38 152.43L297.84 152.68L296.28 152.96L294.7 153.26L293.09 153.59L291.47 153.94L289.81 154.32L288.14 154.73L286.45 155.16L284.73 155.62L283 156.12L281.24 156.64L279.46 157.19L277.66 157.78L275.84 158.39L274 159.04L272.15 159.73L270.27 160.45L268.37 161.2L266.83 161.84L265.31 162.5L263.83 163.17L262.37 163.86L260.94 164.57L259.55 165.3L258.18 166.05L256.84 166.81L255.53 167.6L254.26 168.4L253.01 169.21L251.79 170.05L250.6 170.9L249.44 171.78L248.3 172.67L247.2 173.58L246.13 174.51L245.08 175.45L244.07 176.42L243.08 177.4L242.12 178.41L241.19 179.43L240.29 180.47L239.42 181.53L238.57 182.61L237.76 183.71L236.97 184.82L236.21 185.96L235.48 187.12L234.77 188.29L234.1 189.49L233.45 190.7L232.83 191.94L232.24 193.19L231.68 194.46L231.14 195.76L230.63 197.07L230.15 198.4L229.7 199.76L229.27 201.13L228.87 202.53L228.5 203.94L228.16 205.37L227.84 206.8L227.55 208.24L227.29 209.68L227.05 211.14L226.84 212.6L226.66 214.07L226.49 215.54L226.35 217.01L226.23 218.49L226.14 219.97L226.06 221.45L226 222.94L225.96 224.42L225.94 225.91L225.94 227.39L225.96 228.87L225.99 230.35L226.04 231.82L226.1 233.29L226.17 234.76L226.26 236.22L226.36 237.67L226.48 239.12L226.6 240.56L226.74 241.99L226.88 243.41L227.04 244.82L227.2 246.22L227.37 247.61L227.55 248.98L227.73 250.34L227.92 251.69L228.12 253.03L228.31 254.35L228.51 255.65L228.72 256.94L228.92 258.21L228.92 258.23L228.92 258.24L228.92 258.26L228.92 258.26L228.93 258.28L228.93 258.29L228.93 258.3L228.93 258.31L228.93 258.32L228.93 258.32L228.93 258.33L228.93 258.35L228.94 258.35L228.94 258.36L228.94 258.37L228.94 258.38L228.95 258.39L228.95 258.4L228.95 258.41L229.11 259.53L229.28 260.65L229.44 261.75L229.6 262.85L229.76 263.94L229.92 265.01L230.09 266.07L230.25 267.12L230.41 268.15L230.57 269.17L230.72 270.17L230.88 271.15L231.03 272.11L231.18 273.05L231.33 273.97L231.48 274.87L231.62 275.74L231.76 276.59L231.9 277.41L232.03 278.2L232.16 278.97L232.29 279.71L232.41 280.42L232.52 281.09L232.63 281.74L232.74 282.35L232.84 282.93L232.93 283.47L233.02 283.98L233.11 284.44L233.18 284.87L233.25 285.26L233.31 285.61L233.37 285.92L233.42 286.18L233.45 286.4L233.49 286.58L233.51 286.71L233.53 286.79L233.53 286.83L233.53 286.85L233.53 286.86L233.53 286.87L233.53 286.87L233.53 286.88L233.53 286.89L233.54 286.9L233.54 286.91L233.54 286.92L233.54 286.93L233.54 286.93L233.55 286.94L233.55 286.95L233.55 286.95L233.64 287.5L233.71 288.04L233.77 288.58L233.81 289.13L233.83 289.67L233.83 290.21L233.82 290.74L233.8 291.28L233.75 291.81L233.69 292.34L233.62 292.87L233.53 293.39L233.42 293.91L233.3 294.43L233.16 294.94L233.01 295.45L232.85 295.95L232.67 296.45L232.47 296.94L232.26 297.42L232.04 297.9L231.8 298.37L231.55 298.84L231.28 299.29L231 299.74L230.71 300.18L230.4 300.62L230.09 301.04L229.75 301.45L229.41 301.86L229.05 302.26L228.68 302.64L228.3 303.02L227.9 303.38L227.49 303.74L227.07 304.08L226.64 304.41L226.2 304.73L225.75 305.03L225.28 305.33L225.24 305.39L225.2 305.46L225.16 305.53L225.12 305.61L225.07 305.7L225.03 305.79L224.98 305.89L224.93 305.99L224.88 306.1L224.83 306.22L224.78 306.34L224.73 306.47L224.68 306.61L224.63 306.75L224.57 306.91L224.52 307.06L224.47 307.23L224.42 307.4L224.37 307.58L224.32 307.77L224.27 307.97L224.22 308.17L224.17 308.38L224.12 308.6L224.08 308.83L224.04 309.07L223.99 309.31L223.95 309.56L223.92 309.82L223.88 310.09L223.85 310.37L223.82 310.65L223.79 310.95L223.76 311.25L223.74 311.57L223.72 311.89L223.7 312.22L223.69 312.56L223.68 312.91L223.68 313.27L223.74 314.08L223.81 314.87L223.88 315.63L223.95 316.37L224.03 317.09L224.1 317.79L224.18 318.47L224.26 319.13L224.35 319.76L224.43 320.38L224.52 320.97L224.6 321.55L224.69 322.11L224.78 322.65L224.87 323.17L224.97 323.67L225.06 324.15L225.15 324.62L225.25 325.06L225.34 325.5L225.44 325.91L225.54 326.31L225.63 326.69L225.73 327.06L225.83 327.41L225.93 327.75L226.02 328.07L226.12 328.38L226.22 328.67L226.31 328.95L226.41 329.21L226.5 329.47L226.6 329.71L226.69 329.94L226.78 330.15L226.88 330.36L226.97 330.55L227.06 330.73L227.14 330.9L227.23 331.06L227.27 331.14L227.32 331.22L227.36 331.29L227.4 331.37L227.44 331.43L227.48 331.5L227.52 331.56L227.56 331.62L227.6 331.68L227.64 331.73L227.69 331.79L227.73 331.84L227.77 331.89L227.82 331.94L227.86 331.98L227.91 332.03L227.96 332.08L228.01 332.12L228.06 332.17L228.12 332.21L228.18 332.25L228.24 332.3L228.3 332.34L228.37 332.38L228.44 332.43L228.52 332.47L228.6 332.52L228.68 332.57L228.77 332.62L228.86 332.66L228.95 332.72L229.06 332.77L229.16 332.82L229.27 332.88L229.39 332.94L229.52 333L229.65 333.06L229.78 333.13L229.92 333.2L230.07 333.27L230.48 333.46L230.91 333.67L231.35 333.88L231.82 334.11L232.3 334.36L232.79 334.61L233.3 334.89L233.82 335.18L234.35 335.48L234.9 335.81L235.45 336.15L236 336.51L236.57 336.89L237.14 337.3L237.71 337.72L238.28 338.17L238.86 338.65L239.43 339.15L240.01 339.67L240.58 340.22L241.14 340.8L241.7 341.41L242.26 342.04L242.8 342.71L243.34 343.4L243.87 344.13L244.38 344.89L244.88 345.68L245.37 346.51L245.84 347.38L246.3 348.28L246.74 349.21L247.15 350.19L247.55 351.2L247.93 352.25L248.28 353.34L248.61 354.48L248.91 355.65L249.18 356.87L249.43 358.14L249.75 359.83L250.08 361.47L250.4 363.05L250.74 364.58L251.07 366.06L251.41 367.49L251.75 368.87L252.09 370.2L252.44 371.48L252.78 372.72L253.13 373.91L253.48 375.06L253.84 376.17L254.19 377.24L254.55 378.27L254.9 379.26L255.26 380.22L255.62 381.14L255.98 382.03L256.34 382.89L256.71 383.72L257.07 384.52L257.43 385.29L257.8 386.03L258.16 386.75L258.52 387.44L258.88 388.12L259.25 388.77L259.61 389.4L259.97 390.02L260.33 390.61L260.69 391.19L261.05 391.76L261.4 392.32L261.76 392.86L262.11 393.39L262.46 393.92L262.82 394.43L263.16 394.94L263.51 395.45L263.54 395.5L263.91 396.03L264.28 396.57L264.66 397.12L265.04 397.67L265.42 398.24L265.8 398.82L266.18 399.4L266.56 400L266.94 400.61L267.31 401.23L267.69 401.87L268.06 402.52L268.43 403.19L268.79 403.88L269.15 404.58L269.51 405.29L269.85 406.03L270.19 406.79L270.52 407.56L270.85 408.36L271.16 409.17L271.47 410.01L271.76 410.88L272.04 411.76L272.31 412.67L272.57 413.6L272.82 414.56L273.05 415.55L273.27 416.56L273.47 417.61L273.65 418.68L273.82 419.78L273.97 420.91L274.11 422.07L274.22 423.26L274.32 424.48L274.39 425.74L274.45 427.03L274.48 428.36L274.49 429.72L274.48 431.71L274.45 433.67L274.4 435.6L274.32 437.51L274.23 439.38L274.11 441.23L273.98 443.06L273.82 444.86L273.64 446.63L273.44 448.37L273.21 450.09L272.97 451.79L272.7 453.46L272.41 455.11L272.09 456.74L271.76 458.34L271.4 459.92L271.02 461.48L270.61 463.02L270.19 464.54L269.74 466.03L269.26 467.51L268.76 468.96L268.24 470.4L267.7 471.82L267.13 473.22L266.54 474.6L265.92 475.97L265.28 477.31L264.62 478.64L263.93 479.96L263.21 481.26L262.47 482.54L261.71 483.81L260.92 485.06L260.11 486.3L259.27 487.52L258.4 488.74L257.51 489.94L256.6 491.12L255.67 492.28L254.71 493.43L253.73 494.57L252.73 495.69L251.69 496.81L250.63 497.92L249.53 499.02L248.41 500.1L247.26 501.18L246.08 502.25L244.87 503.31L243.63 504.37L242.36 505.41L241.06 506.45L239.72 507.48L238.36 508.51L236.96 509.52L235.52 510.53L234.06 511.54L232.56 512.54L231.02 513.53L229.45 514.52L227.85 515.5L226.21 516.48L224.53 517.45L222.81 518.42L221.06 519.38L219.27 520.35L217.45 521.3L215.58 522.26L213.68 523.21L211.74 524.16L209.75 525.11L207.73 526.05L205.67 527L203.57 527.94L201.42 528.88L199.23 529.82L197 530.76L194.73 531.7L194.64 531.74L194.55 531.77L194.46 531.81L194.37 531.84L194.28 531.87L194.19 531.91L194.1 531.94L194.01 531.97L193.92 531.99L193.83 532.02L193.74 532.05L193.65 532.08L193.55 532.1L193.46 532.13L193.37 532.15L193.28 532.17L193.18 532.19L193.09 532.21L193 532.23L192.9 532.25L192.81 532.27L192.72 532.29L192.62 532.3L192.53 532.32L192.43 532.33L192.34 532.35L192.25 532.36L192.15 532.37L192.06 532.38L191.96 532.39L191.87 532.4L191.77 532.41L191.68 532.41L191.58 532.42L191.48 532.43L191.39 532.43L191.29 532.43L191.2 532.44L191.1 532.44L191.01 532.44L190.6 532.43L190.2 532.41L189.81 532.37L189.41 532.31L189.03 532.24L188.65 532.15L188.27 532.05L187.9 531.94L187.54 531.81L187.19 531.67L186.84 531.52L186.49 531.35L186.16 531.17L185.83 530.97L185.52 530.77L185.21 530.55L184.91 530.32L184.62 530.08L184.34 529.83L184.06 529.57L183.8 529.3L183.55 529.02L183.31 528.73L183.08 528.43L182.86 528.12L182.66 527.8L182.46 527.48L182.28 527.14L182.11 526.8L181.96 526.45L181.81 526.1L181.68 525.74L181.57 525.37L181.47 524.99L181.38 524.61L181.31 524.23L181.26 523.84L181.21 523.44L181.19 523.04L181.18 522.64L181.19 522.34L181.2 522.04L181.22 521.75L181.25 521.45L181.29 521.16L181.34 520.87L181.39 520.59L181.46 520.3L181.53 520.02L181.61 519.74L181.7 519.47L181.8 519.2L181.9 518.93L182.02 518.66L182.14 518.4L182.26 518.15L182.4 517.89L182.54 517.64L182.69 517.4L182.84 517.16L183.01 516.92L183.18 516.69L183.35 516.47L183.54 516.24L183.73 516.03L183.92 515.82L184.13 515.62L184.33 515.42L184.55 515.22L184.77 515.04L185 514.86L185.23 514.68L185.47 514.52L185.71 514.35L185.96 514.2L186.21 514.05L186.47 513.91L186.74 513.78L187.01 513.66L187.28 513.54L189.31 512.7L191.29 511.87L193.24 511.03L195.15 510.2L197.02 509.37L198.85 508.54L200.64 507.71L202.4 506.88L204.12 506.05L205.8 505.22L207.45 504.39L209.06 503.55L210.63 502.72L212.17 501.89L213.68 501.05L215.15 500.21L216.59 499.38L217.99 498.53L219.36 497.69L220.7 496.84L222.01 496L223.28 495.14L224.52 494.29L225.73 493.43L226.91 492.56L228.06 491.7L229.18 490.82L230.27 489.95L231.33 489.07L232.36 488.18L233.37 487.29L234.34 486.39L235.29 485.49L236.2 484.58L237.1 483.66L237.96 482.74L238.8 481.81L239.61 480.87L240.4 479.93L241.16 478.98L241.86 478.07L242.54 477.15L243.2 476.21L243.85 475.27L244.47 474.3L245.07 473.33L245.66 472.34L246.22 471.34L246.77 470.32L247.3 469.29L247.81 468.24L248.3 467.18L248.77 466.1L249.22 465.01L249.66 463.9L250.08 462.77L250.48 461.62L250.86 460.46L251.22 459.28L251.56 458.08L251.89 456.86L252.2 455.62L252.49 454.37L252.77 453.09L253.02 451.79L253.26 450.48L253.49 449.14L253.69 447.78L253.88 446.4L254.05 445L254.21 443.57L254.35 442.13L254.47 440.66L254.57 439.17L254.66 437.65L254.73 436.11L254.79 434.55L254.83 432.96L254.85 431.34L254.86 429.7L254.85 428.8L254.84 427.92L254.81 427.07L254.76 426.24L254.71 425.44L254.65 424.66L254.57 423.9L254.48 423.17L254.39 422.46L254.28 421.77L254.16 421.1L254.04 420.45L253.9 419.82L253.75 419.2L253.6 418.6L253.43 418.02L253.26 417.45L253.08 416.9L252.89 416.36L252.69 415.83L252.48 415.31L252.27 414.81L252.05 414.31L251.82 413.83L251.59 413.35L251.35 412.88L251.1 412.42L250.84 411.96L250.58 411.51L250.32 411.06L250.05 410.62L249.77 410.17L249.49 409.73L249.2 409.3L248.91 408.86L248.61 408.42L248.31 407.98L248.01 407.53L247.7 407.09L247.39 406.64L247.36 406.6L247.31 406.52L246.93 405.96L246.53 405.38L246.13 404.78L245.72 404.18L245.31 403.56L244.89 402.92L244.47 402.26L244.04 401.58L243.61 400.88L243.17 400.16L242.73 399.42L242.29 398.65L241.84 397.85L241.4 397.03L240.95 396.18L240.5 395.3L240.04 394.38L239.59 393.44L239.13 392.46L238.68 391.44L238.22 390.39L237.77 389.3L237.32 388.17L236.87 387L236.42 385.79L235.97 384.53L235.52 383.23L235.08 381.89L234.64 380.49L234.2 379.05L233.77 377.56L233.34 376.02L232.92 374.42L232.5 372.77L232.09 371.07L231.68 369.3L231.28 367.49L230.89 365.61L230.5 363.67L230.12 361.67L230.12 361.62L230.02 361.09L229.91 360.58L229.79 360.08L229.67 359.61L229.54 359.16L229.41 358.73L229.27 358.31L229.12 357.91L228.97 357.53L228.81 357.16L228.64 356.82L228.47 356.48L228.29 356.16L228.11 355.86L227.92 355.57L227.72 355.29L227.52 355.02L227.32 354.76L227.11 354.52L226.89 354.29L226.67 354.06L226.45 353.85L226.21 353.65L225.98 353.45L225.74 353.26L225.49 353.08L225.25 352.9L224.99 352.73L224.73 352.57L224.47 352.41L224.21 352.26L223.94 352.1L223.66 351.96L223.38 351.81L223.1 351.67L222.82 351.52L222.53 351.38L222.24 351.24L221.94 351.1L221.64 350.95L221.57 350.92L221.34 350.81L221.11 350.7L220.87 350.58L220.63 350.46L220.37 350.33L220.12 350.2L219.85 350.07L219.58 349.92L219.31 349.77L219.03 349.62L218.75 349.46L218.46 349.29L218.17 349.11L217.88 348.93L217.58 348.74L217.28 348.54L216.98 348.33L216.68 348.11L216.37 347.89L216.06 347.65L215.76 347.41L215.45 347.15L215.13 346.89L214.82 346.61L214.51 346.33L214.2 346.03L213.89 345.72L213.58 345.4L213.27 345.06L212.97 344.72L212.66 344.36L212.36 343.99L212.06 343.6L211.76 343.2L211.47 342.79L211.18 342.36L210.89 341.92L210.6 341.47L210.32 340.99L210.05 340.51L209.82 340.07L209.59 339.63L209.36 339.18L209.14 338.72L208.93 338.25L208.72 337.77L208.51 337.27L208.31 336.77L208.12 336.26L207.92 335.73L207.74 335.2L207.55 334.65L207.37 334.09L207.2 333.52L207.03 332.94L206.86 332.35L206.7 331.74L206.54 331.13L206.39 330.5L206.24 329.86L206.09 329.2L205.95 328.54L205.81 327.86L205.68 327.17L205.55 326.47L205.43 325.76L205.31 325.03L205.19 324.29L205.07 323.53L204.96 322.77L204.86 321.99L204.76 321.19L204.66 320.39L204.56 319.56L204.47 318.73L204.39 317.88L204.3 317.02L204.22 316.14L204.15 315.25L204.07 314.35L204.07 314.33L204.07 314.31L204.07 314.27L204.07 314.25L204.07 314.23L204.06 314.21L204.06 314.2L204.06 314.18L204.06 314.14L204.06 314.12L204.06 314.1L204.06 314.08L204.05 314.04L204.05 314.03L204.05 314.01L204.05 313.99L204.05 313.95L204.05 313.93L204.05 313.91L204.05 313.87L204.05 313.86L204.05 313.82L204.05 313.8L204.05 313.76L204.05 313.74L204.05 313.7L204.05 313.69L204.04 313.65L204.04 313.63L204.04 313.59L204.06 312.5L204.09 311.44L204.14 310.41L204.22 309.41L204.31 308.44L204.42 307.5L204.55 306.58L204.7 305.69L204.86 304.83L205.04 304L205.23 303.19L205.43 302.41L205.65 301.66L205.88 300.93L206.11 300.23L206.36 299.55L206.62 298.9L206.89 298.27L207.16 297.66L207.44 297.08L207.72 296.52L208.01 295.99L208.3 295.47L208.6 294.98L208.89 294.51L209.19 294.07L209.49 293.64L209.79 293.23L210.09 292.85L210.38 292.48L210.67 292.14L210.96 291.81L211.24 291.51L211.52 291.22L211.79 290.95L212.05 290.7L212.3 290.46L212.55 290.24L212.78 290.04L213 289.86L213.03 289.84L213.05 289.82L213.08 289.8L213.1 289.78L213.13 289.76L213.15 289.74L213.17 289.72L213.2 289.7L213.22 289.68L213.25 289.66L213.27 289.64L213.3 289.62L213.32 289.6L213.35 289.58L213.37 289.57L213.4 289.55L213.42 289.53L213.45 289.51L213.47 289.49L213.5 289.47L213.52 289.45L213.55 289.43L213.57 289.42L213.6 289.4L213.62 289.38L213.65 289.36L213.67 289.34L213.7 289.33L213.72 289.31L213.75 289.29L213.78 289.27L213.8 289.26L213.83 289.24L213.85 289.22L213.88 289.2L213.91 289.19L213.93 289.17L213.96 289.15L213.99 289.13L214.01 289.12L213.96 288.83L213.9 288.52L213.84 288.18L213.78 287.81L213.71 287.41L213.63 286.99L213.56 286.54L213.47 286.07L213.39 285.57L213.3 285.05L213.21 284.51L213.11 283.94L213.01 283.35L212.9 282.74L212.8 282.11L212.69 281.46L212.58 280.79L212.46 280.1L212.34 279.39L212.22 278.66L212.1 277.92L211.98 277.16L211.85 276.38L211.72 275.59L211.59 274.78L211.46 273.96L211.33 273.12L211.19 272.27L211.06 271.41L210.92 270.53L210.79 269.65L210.65 268.75L210.51 267.84L210.37 266.92L210.23 265.99L210.09 265.06L209.95 264.11L209.81 263.16L209.67 262.2L209.54 261.23L209.31 259.81L209.08 258.36L208.85 256.9L208.63 255.41L208.42 253.91L208.21 252.39L208 250.86L207.81 249.3L207.62 247.74L207.44 246.15L207.27 244.56L207.12 242.95L206.97 241.33L206.84 239.69L206.72 238.05L206.61 236.39L206.52 234.73L206.44 233.06L206.38 231.38L206.34 229.69L206.32 227.99L206.32 226.29L206.33 224.59L206.37 222.87L206.43 221.16L206.51 219.44L206.61 217.72L206.74 216L206.89 214.28L207.07 212.56L207.28 210.84L207.51 209.11L207.77 207.4L208.06 205.68L208.38 203.97L208.74 202.26L209.12 200.56L209.53 198.86L209.98 197.17L210.47 195.49L211.02 193.68L211.62 191.9L212.25 190.15L212.92 188.42L213.63 186.72L214.37 185.04L215.15 183.38L215.96 181.75L216.81 180.15L217.7 178.57L218.63 177.01L219.59 175.48L220.58 173.98L221.61 172.5L222.68 171.04L223.79 169.61L224.93 168.21L226.11 166.83L227.32 165.47L228.57 164.14L229.85 162.84L231.17 161.56L232.53 160.31L233.92 159.08L235.35 157.88L236.81 156.71L238.31 155.56L239.85 154.43L241.42 153.33L243.02 152.26L244.66 151.21L246.34 150.19L248.05 149.2L249.8 148.23L251.58 147.29L253.4 146.37L255.25 145.48L257.14 144.61L259.06 143.78L261.02 142.96L263.3 142.06L265.56 141.2L267.8 140.38L270.01 139.6L272.2 138.87L274.37 138.17L276.51 137.52L278.63 136.91L280.73 136.33L282.8 135.79L284.84 135.28L286.86 134.81L288.86 134.38L290.82 133.97L292.77 133.6L294.68 133.26L296.57 132.96L298.43 132.68L300.26 132.43L302.06 132.2L303.84 132.01L305.58 131.84L307.3 131.69L308.99 131.57L310.65 131.47L312.27 131.4L313.87 131.34L315.44 131.31L316.97 131.29L318.48 131.29L319.95 131.31ZM209.95 294.4L209.49 296.91L209.71 299.49L209.5 296.91L209.96 294.41L211.05 292.11L212.72 290.13L211.04 292.1L209.95 294.4Z" id="f3P6A5TaeQ"></path><path d="M340.57 47.84L350.77 48.84L360.91 50.23L370.97 52.01L380.94 54.18L390.81 56.72L400.56 59.63L410.2 62.91L419.69 66.56L429.04 70.57L438.24 74.93L447.26 79.64L456.11 84.7L464.77 90.1L473.22 95.83L481.46 101.9L489.48 108.3L497.26 115.02L504.79 122.05L512.07 129.41L519.08 137.07L525.81 145.04L532.24 153.3L538.38 161.87L544.2 170.72L549.69 179.87L554.85 189.29L559.67 199L564.12 208.97L568.17 219.12L571.77 229.34L574.93 239.61L577.66 249.92L579.95 260.27L581.81 270.64L583.25 281.01L584.27 291.39L584.88 301.76L585.08 312.1L584.88 322.41L584.27 332.67L583.27 342.88L581.87 353.02L580.09 363.08L577.93 373.05L575.39 382.91L572.48 392.67L569.19 402.3L565.55 411.8L561.54 421.15L557.18 430.35L552.47 439.37L547.41 448.22L542.01 456.87L536.27 465.33L530.21 473.57L523.81 481.58L517.09 489.37L510.05 496.9L502.7 504.18L495.04 511.18L487.07 517.91L478.8 524.35L470.24 530.48L461.38 536.3L452.24 541.8L442.81 546.96L433.11 551.77L423.13 556.23L420.68 557.25L418.22 558.25L415.75 559.22L413.27 560.17L410.79 561.09L408.29 561.99L405.79 562.86L403.28 563.7L400.76 564.52L398.24 565.32L395.7 566.09L393.16 566.83L390.62 567.55L388.07 568.24L385.51 568.9L382.94 569.54L380.37 570.16L377.79 570.75L375.21 571.31L372.62 571.85L370.02 572.36L367.42 572.84L364.82 573.3L362.21 573.73L359.6 574.14L356.98 574.52L354.36 574.87L351.73 575.2L349.11 575.5L346.47 575.77L343.84 576.02L341.2 576.24L338.56 576.43L335.91 576.6L333.27 576.75L330.62 576.86L327.96 576.95L325.31 577.01L322.66 577.05L320 577.05L309.08 576.83L298.27 576.16L287.58 575.07L277.02 573.56L266.59 571.64L256.32 569.31L246.2 566.59L236.24 563.49L226.46 560.01L216.86 556.16L207.44 551.95L198.23 547.4L189.22 542.5L180.43 537.26L171.86 531.7L163.52 525.82L155.42 519.64L147.57 513.15L139.98 506.37L132.65 499.31L125.6 491.98L118.84 484.38L112.36 476.52L106.19 468.42L100.32 460.07L94.77 451.49L89.55 442.69L84.66 433.68L80.11 424.46L75.91 415.04L72.08 405.43L68.61 395.64L65.52 385.69L62.81 375.56L60.5 365.28L58.59 354.86L57.1 344.3L56.02 333.61L55.37 322.8L55.15 311.87L55.28 303.91L55.64 296L56.23 288.13L57.05 280.31L58.1 272.55L59.38 264.85L60.87 257.21L62.59 249.64L64.52 242.14L66.67 234.71L69.03 227.37L71.6 220.11L74.37 212.94L77.34 205.87L80.52 198.89L83.89 192.01L87.46 185.23L91.21 178.57L95.16 172.02L99.3 165.58L103.61 159.27L108.11 153.09L112.79 147.03L117.64 141.11L122.66 135.32L127.86 129.68L133.22 124.19L138.74 118.85L144.43 113.66L150.28 108.63L156.28 103.76L162.43 99.06L168.74 94.53L175.19 90.18L181.79 86.01L188.53 82.02L195.41 78.22L202.43 74.61L209.58 71.2L216.87 67.99L227.01 63.94L237.23 60.34L247.5 57.18L257.81 54.45L268.16 52.16L278.53 50.3L288.91 48.85L299.29 47.83L309.65 47.22L319.99 47.02L330.3 47.23L340.57 47.84ZM299.87 67.61L289.98 68.63L280.2 70.03L270.55 71.81L261.04 73.96L251.67 76.48L242.45 79.35L233.39 82.57L224.5 86.14L215.78 90.03L207.25 94.25L198.91 98.79L190.77 103.64L182.83 108.79L175.11 114.23L167.61 119.96L160.34 125.97L153.32 132.24L146.53 138.78L140.01 145.57L133.74 152.61L127.74 159.88L122.03 167.39L116.6 175.12L111.46 183.06L106.62 191.21L102.09 199.56L97.88 208.1L94 216.82L90.45 225.71L87.24 234.78L84.38 244L81.87 253.37L79.73 262.89L77.97 272.54L76.58 282.32L75.58 292.22L74.98 302.23L74.78 312.35L74.9 319.71L75.23 327.04L75.78 334.33L76.54 341.57L77.52 348.75L78.7 355.88L80.08 362.96L81.67 369.97L83.46 376.91L85.45 383.78L87.64 390.58L90.01 397.3L92.58 403.94L95.33 410.49L98.27 416.95L101.39 423.32L104.7 429.59L108.18 435.76L111.83 441.83L115.66 447.79L119.66 453.63L123.82 459.36L128.15 464.96L132.64 470.45L137.29 475.8L142.1 481.02L147.07 486.11L152.18 491.06L157.45 495.86L162.86 500.52L168.42 505.03L174.12 509.38L179.95 513.57L185.93 517.6L192.04 521.46L198.28 525.16L204.65 528.68L211.15 532.02L217.77 535.18L224.51 538.15L233.91 541.9L243.37 545.23L252.88 548.16L262.43 550.68L272.01 552.8L281.61 554.53L291.22 555.86L300.83 556.81L310.43 557.37L320 557.56L329.55 557.36L339.05 556.8L348.5 555.87L357.89 554.58L367.2 552.93L376.43 550.93L385.57 548.58L394.6 545.88L403.52 542.84L412.32 539.46L420.98 535.75L429.49 531.72L437.85 527.35L446.04 522.67L454.05 517.67L461.88 512.36L469.51 506.74L476.93 500.82L484.14 494.59L491.11 488.08L497.85 481.27L504.34 474.17L510.57 466.8L516.53 459.14L522.21 451.21L527.6 443.01L532.69 434.54L537.46 425.82L541.92 416.83L546.04 407.59L549.79 398.2L553.13 388.74L556.05 379.23L558.57 369.68L560.7 360.1L562.42 350.5L563.76 340.89L564.7 331.28L565.26 321.68L565.45 312.1L565.26 302.56L564.7 293.06L563.77 283.61L562.48 274.22L560.83 264.9L558.82 255.67L556.47 246.54L553.77 237.5L550.73 228.58L547.36 219.79L543.65 211.13L539.61 202.62L535.25 194.26L530.56 186.07L525.56 178.06L520.25 170.23L514.63 162.6L508.71 155.18L502.49 147.97L495.97 140.99L489.16 134.26L482.07 127.77L474.69 121.54L467.03 115.58L459.1 109.9L450.9 104.51L442.44 99.42L433.71 94.64L424.73 90.19L415.49 86.06L413.22 85.12L410.94 84.19L408.65 83.29L406.36 82.41L404.06 81.56L401.75 80.73L399.43 79.93L397.11 79.14L394.78 78.38L392.44 77.65L390.09 76.94L387.74 76.25L385.38 75.58L383.02 74.94L380.65 74.33L378.27 73.74L375.89 73.17L373.51 72.62L371.11 72.1L368.72 71.61L366.32 71.13L363.91 70.69L361.5 70.26L359.08 69.86L356.66 69.49L354.24 69.13L351.81 68.81L349.38 68.5L346.95 68.23L344.51 67.97L342.07 67.74L339.63 67.54L337.18 67.36L334.73 67.2L332.28 67.07L329.83 66.96L327.37 66.88L324.92 66.83L322.46 66.79L320 66.79L309.89 67L299.87 67.61Z" id="b23VmI0hil"></path></defs><g><g><g><use xlink:href="#a4yEonF0S0" opacity="1" fill="#ffffff" fill-opacity="1"></use></g><g><use xlink:href="#f3P6A5TaeQ" opacity="1" fill="#404040" fill-opacity="1"></use><g><use xlink:href="#f3P6A5TaeQ" opacity="1" fill-opacity="0" stroke="#000000" stroke-width="1" stroke-opacity="0"></use></g></g><g><use xlink:href="#b23VmI0hil" opacity="1" fill="#404040" fill-opacity="1"></use><g><use xlink:href="#b23VmI0hil" opacity="1" fill-opacity="0" stroke="#000000" stroke-width="1" stroke-opacity="0"></use></g></g></g></g></svg>