<svg id="svg" version="1.1" width="400" height="400" viewBox="0 0 400 400" xmlns="http://www.w3.org/2000/svg" xmlns:xlink="http://www.w3.org/1999/xlink" ><g id="svgg"><path id="path0" d="M197.029 25.829 C 196.605 26.138,196.336 26.469,196.430 26.563 C 196.524 26.657,196.948 26.481,197.371 26.171 C 197.795 25.862,198.064 25.531,197.970 25.437 C 197.876 25.343,197.452 25.519,197.029 25.829 M114.705 124.683 C 115.202 124.779,115.922 124.775,116.305 124.675 C 116.687 124.575,116.280 124.496,115.400 124.501 C 114.520 124.505,114.207 124.587,114.705 124.683 M283.905 124.683 C 284.402 124.779,285.122 124.775,285.505 124.675 C 285.887 124.575,285.480 124.496,284.600 124.501 C 283.720 124.505,283.407 124.587,283.905 124.683 M324.841 169.608 C 323.874 170.492,323.199 171.332,323.341 171.474 C 323.483 171.617,323.645 171.656,323.700 171.561 C 323.755 171.465,324.512 170.625,325.381 169.694 C 327.376 167.557,327.128 167.517,324.841 169.608 M74.013 168.682 C 74.036 169.221,75.606 170.928,75.852 170.681 C 75.980 170.553,75.616 169.979,75.042 169.406 C 74.469 168.833,74.006 168.507,74.013 168.682 M44.400 172.200 C 45.146 172.970,45.847 173.600,45.957 173.600 C 46.067 173.600,45.546 172.970,44.800 172.200 C 44.054 171.430,43.353 170.800,43.243 170.800 C 43.133 170.800,43.654 171.430,44.400 172.200 M354.800 172.600 C 353.828 173.590,353.123 174.400,353.233 174.400 C 353.343 174.400,354.228 173.590,355.200 172.600 C 356.172 171.610,356.877 170.800,356.767 170.800 C 356.657 170.800,355.772 171.610,354.800 172.600 M50.400 177.823 C 50.400 178.133,54.168 181.565,54.330 181.403 C 54.463 181.271,50.806 177.600,50.542 177.600 C 50.464 177.600,50.400 177.700,50.400 177.823 M346.466 180.289 C 345.512 181.266,344.792 182.125,344.866 182.200 C 345.031 182.364,348.800 178.937,348.800 178.623 C 348.800 178.115,348.104 178.612,346.466 180.289 M322.000 204.600 C 321.028 205.590,320.323 206.400,320.433 206.400 C 320.543 206.400,321.428 205.590,322.400 204.600 C 323.372 203.610,324.077 202.800,323.967 202.800 C 323.857 202.800,322.972 203.610,322.000 204.600 M77.886 204.803 C 78.814 205.770,79.635 206.480,79.712 206.380 C 79.788 206.281,79.029 205.490,78.025 204.622 L 76.200 203.044 77.886 204.803 M110.202 204.402 C 110.602 204.844,111.011 205.122,111.112 205.021 C 111.328 204.805,110.188 203.600,109.767 203.600 C 109.607 203.600,109.803 203.961,110.202 204.402 M81.600 208.170 C 81.600 208.559,84.538 211.195,84.744 210.990 C 84.827 210.906,84.641 210.605,84.330 210.319 C 82.240 208.402,81.600 207.898,81.600 208.170 M315.453 210.653 C 314.382 211.636,313.573 212.506,313.654 212.587 C 313.735 212.668,314.677 211.930,315.747 210.947 C 316.818 209.964,317.627 209.094,317.546 209.013 C 317.465 208.932,316.523 209.670,315.453 210.653 M40.109 242.800 C 40.109 243.790,40.187 244.195,40.282 243.700 C 40.378 243.205,40.378 242.395,40.282 241.900 C 40.187 241.405,40.109 241.810,40.109 242.800 M359.709 242.800 C 359.709 243.790,359.787 244.195,359.882 243.700 C 359.978 243.205,359.978 242.395,359.882 241.900 C 359.787 241.405,359.709 241.810,359.709 242.800 M91.552 244.713 C 91.421 245.507,91.479 245.881,91.701 245.659 C 91.903 245.457,92.001 244.867,91.919 244.346 C 91.793 243.545,91.737 243.602,91.552 244.713 M308.000 244.576 C 308.000 245.113,308.147 245.644,308.328 245.755 C 308.508 245.867,308.577 245.427,308.482 244.779 C 308.272 243.349,308.000 243.235,308.000 244.576 M198.500 275.491 C 199.325 275.578,200.675 275.578,201.500 275.491 C 202.325 275.405,201.650 275.334,200.000 275.334 C 198.350 275.334,197.675 275.405,198.500 275.491 " stroke="none" fill="#000000" fill-rule="evenodd"></path><path id="path1" d="" stroke="none" fill="#1c1c1c" fill-rule="evenodd"></path><path id="path2" d="M198.180 2.365 C 197.971 2.565,196.810 2.825,195.600 2.941 C 192.220 3.266,190.400 3.652,190.400 4.044 C 190.400 4.240,190.166 4.400,189.880 4.400 C 189.144 4.400,187.207 5.341,187.203 5.700 C 187.201 5.865,186.840 6.000,186.400 6.000 C 185.960 6.000,185.600 6.180,185.600 6.400 C 185.600 6.620,185.357 6.800,185.060 6.800 C 183.510 6.800,175.600 15.970,175.600 17.768 C 175.600 18.116,175.420 18.400,175.200 18.400 C 174.980 18.400,174.800 18.760,174.800 19.200 C 174.800 19.640,174.620 20.000,174.400 20.000 C 174.180 20.000,174.000 20.360,174.000 20.800 C 174.000 21.240,173.820 21.600,173.600 21.600 C 173.380 21.600,173.200 21.960,173.200 22.400 C 173.200 22.840,173.020 23.200,172.800 23.200 C 172.580 23.200,172.400 23.560,172.400 24.000 C 172.400 24.440,172.220 24.800,172.000 24.800 C 171.780 24.800,171.600 25.160,171.600 25.600 C 171.600 26.040,171.420 26.400,171.200 26.400 C 170.980 26.400,170.800 26.745,170.800 27.167 C 170.800 27.588,170.659 27.993,170.488 28.067 C 170.131 28.219,167.600 33.436,167.600 34.018 C 167.600 34.228,167.420 34.400,167.200 34.400 C 166.980 34.400,166.800 34.760,166.800 35.200 C 166.800 35.640,166.620 36.000,166.400 36.000 C 166.180 36.000,166.000 36.360,166.000 36.800 C 166.000 37.240,165.820 37.600,165.600 37.600 C 165.380 37.600,165.200 37.960,165.200 38.400 C 165.200 38.840,165.020 39.200,164.800 39.200 C 164.580 39.200,164.400 39.411,164.400 39.670 C 164.400 39.928,163.650 41.683,162.734 43.570 C 161.063 47.010,160.891 47.347,159.845 49.203 C 159.534 49.755,159.217 50.565,159.140 51.003 C 159.063 51.441,158.909 51.890,158.798 52.000 C 158.342 52.450,156.000 57.352,156.000 57.856 C 156.000 58.155,155.820 58.400,155.600 58.400 C 155.380 58.400,155.200 58.760,155.200 59.200 C 155.200 59.640,155.020 60.000,154.800 60.000 C 154.580 60.000,154.400 60.270,154.400 60.600 C 154.400 60.930,154.220 61.200,154.000 61.200 C 153.780 61.200,153.600 61.560,153.600 62.000 C 153.600 62.440,153.420 62.800,153.200 62.800 C 152.980 62.800,152.800 63.160,152.800 63.600 C 152.800 64.040,152.620 64.400,152.400 64.400 C 152.180 64.400,152.000 64.760,152.000 65.200 C 152.000 65.640,151.820 66.000,151.600 66.000 C 151.380 66.000,151.200 66.245,151.200 66.544 C 151.200 67.201,148.724 72.145,148.300 72.333 C 148.135 72.407,148.000 72.812,148.000 73.233 C 148.000 73.655,147.809 74.000,147.576 74.000 C 147.343 74.000,147.255 74.165,147.380 74.368 C 147.505 74.570,147.336 75.007,147.004 75.339 C 146.672 75.671,146.400 76.226,146.400 76.571 C 146.400 76.917,146.220 77.200,146.000 77.200 C 145.780 77.200,145.600 77.386,145.600 77.614 C 145.600 78.420,138.000 94.117,137.505 94.333 C 137.337 94.407,137.200 94.912,137.200 95.457 C 137.200 96.015,137.026 96.339,136.800 96.200 C 136.580 96.064,136.400 96.152,136.400 96.395 C 136.400 97.133,134.488 98.800,133.642 98.800 C 133.205 98.800,132.736 98.980,132.600 99.200 C 132.464 99.420,131.193 99.600,129.776 99.600 C 128.325 99.600,127.200 99.775,127.200 100.000 C 127.200 100.225,126.075 100.400,124.624 100.400 C 123.207 100.400,121.936 100.580,121.800 100.800 C 121.664 101.020,120.404 101.200,119.000 101.200 C 117.596 101.200,116.336 101.380,116.200 101.600 C 116.064 101.820,114.793 102.000,113.376 102.000 C 111.925 102.000,110.800 102.175,110.800 102.400 C 110.800 102.626,109.667 102.800,108.200 102.800 C 106.733 102.800,105.600 102.974,105.600 103.200 C 105.600 103.425,104.475 103.600,103.024 103.600 C 101.607 103.600,100.336 103.780,100.200 104.000 C 100.064 104.220,98.804 104.400,97.400 104.400 C 95.996 104.400,94.736 104.580,94.600 104.800 C 94.464 105.020,93.294 105.200,92.000 105.200 C 90.706 105.200,89.536 105.380,89.400 105.600 C 89.264 105.820,88.094 106.000,86.800 106.000 C 85.506 106.000,84.336 106.180,84.200 106.400 C 84.064 106.620,82.804 106.800,81.400 106.800 C 79.996 106.800,78.736 106.980,78.600 107.200 C 78.464 107.420,77.319 107.600,76.056 107.600 C 74.793 107.600,73.589 107.762,73.380 107.959 C 73.171 108.157,71.740 108.412,70.200 108.525 C 68.660 108.639,66.084 108.923,64.475 109.158 C 62.866 109.392,60.616 109.676,59.475 109.789 C 58.334 109.901,56.860 110.138,56.200 110.316 C 55.540 110.494,54.550 110.608,54.000 110.569 C 53.450 110.530,52.608 110.646,52.130 110.828 C 51.651 111.009,50.336 111.200,49.208 111.251 C 48.080 111.303,47.067 111.492,46.955 111.672 C 46.844 111.853,45.863 112.000,44.776 112.000 C 43.689 112.000,42.800 112.180,42.800 112.400 C 42.800 112.620,42.341 112.800,41.780 112.800 C 41.219 112.800,40.252 113.063,39.631 113.384 C 39.010 113.705,38.389 113.855,38.251 113.717 C 38.113 113.579,38.000 113.677,38.000 113.933 C 38.000 114.190,37.640 114.400,37.200 114.400 C 36.760 114.400,36.400 114.558,36.400 114.751 C 36.400 114.945,35.860 115.327,35.200 115.600 C 34.540 115.873,34.000 116.255,34.000 116.449 C 34.000 116.642,33.759 116.800,33.464 116.800 C 33.169 116.800,32.070 117.610,31.022 118.600 C 29.974 119.590,29.232 120.400,29.374 120.400 C 29.646 120.400,29.169 121.029,27.719 122.582 C 26.759 123.611,24.800 127.431,24.800 128.275 C 24.800 128.564,24.620 128.800,24.400 128.800 C 24.180 128.800,24.000 129.239,24.000 129.776 C 24.000 130.313,23.820 130.864,23.600 131.000 C 23.380 131.136,23.200 132.227,23.200 133.424 C 23.200 134.621,23.020 135.600,22.800 135.600 C 22.272 135.600,22.272 142.274,22.800 142.600 C 23.020 142.736,23.200 143.657,23.200 144.647 C 23.200 145.745,23.356 146.351,23.600 146.200 C 23.838 146.053,24.000 146.529,24.000 147.376 C 24.000 148.159,24.180 148.800,24.400 148.800 C 24.620 148.800,24.800 149.160,24.800 149.600 C 24.800 150.040,24.980 150.400,25.200 150.400 C 25.420 150.400,25.600 150.760,25.600 151.200 C 25.600 151.640,25.780 152.000,26.000 152.000 C 26.220 152.000,26.400 152.296,26.400 152.659 C 26.400 153.929,29.572 157.293,44.270 171.605 C 45.848 173.142,47.363 174.400,47.637 174.400 C 47.910 174.400,48.022 174.511,47.886 174.648 C 47.647 174.886,48.525 176.000,48.951 176.000 C 49.066 176.000,54.749 181.535,61.581 188.300 C 68.412 195.065,76.095 202.580,78.654 205.000 C 90.137 215.862,94.797 220.790,94.850 222.128 C 94.947 224.628,94.715 227.807,94.406 228.200 C 94.233 228.420,94.077 229.462,94.060 230.515 C 94.043 231.568,93.915 232.614,93.776 232.840 C 93.636 233.065,93.441 233.823,93.342 234.525 C 93.243 235.226,92.996 236.746,92.794 237.902 C 92.592 239.058,92.523 240.255,92.641 240.561 C 92.758 240.868,92.662 241.238,92.427 241.383 C 92.192 241.528,92.000 242.627,92.000 243.824 C 92.000 245.021,91.820 246.000,91.600 246.000 C 91.380 246.000,91.200 246.979,91.200 248.176 C 91.200 249.373,91.020 250.464,90.800 250.600 C 90.580 250.736,90.400 251.726,90.400 252.800 C 90.400 253.874,90.220 254.864,90.000 255.000 C 89.780 255.136,89.600 256.216,89.600 257.400 C 89.600 258.584,89.420 259.664,89.200 259.800 C 88.980 259.936,88.800 260.937,88.800 262.024 C 88.800 263.111,88.620 264.000,88.400 264.000 C 88.180 264.000,88.000 264.954,88.000 266.120 C 88.000 267.286,87.836 268.411,87.635 268.620 C 87.435 268.829,87.162 270.080,87.029 271.400 C 86.470 276.968,86.309 278.000,86.000 278.000 C 85.821 278.000,85.575 278.945,85.455 280.100 C 85.048 284.006,84.756 285.797,84.397 286.600 C 84.200 287.040,83.936 288.390,83.810 289.600 C 83.223 295.252,83.105 296.000,82.799 296.000 C 82.618 296.000,82.372 297.035,82.251 298.300 C 81.829 302.708,81.520 304.603,81.161 304.980 C 80.963 305.189,80.800 306.404,80.800 307.680 C 80.800 309.039,80.625 310.000,80.378 310.000 C 80.096 310.000,80.010 311.750,80.118 315.300 C 80.272 320.367,80.478 322.028,81.175 323.800 C 81.348 324.240,81.721 325.320,82.004 326.200 C 83.109 329.638,86.708 334.281,90.404 337.038 C 93.863 339.619,94.517 340.000,95.489 340.000 C 95.990 340.000,96.400 340.180,96.400 340.400 C 96.400 340.620,96.749 340.800,97.176 340.800 C 97.603 340.800,98.052 340.961,98.174 341.158 C 98.713 342.029,111.745 342.815,112.537 342.023 C 112.770 341.790,113.543 341.600,114.256 341.600 C 114.969 341.600,115.664 341.420,115.800 341.200 C 115.936 340.980,116.372 340.800,116.770 340.800 C 117.167 340.800,117.942 340.446,118.492 340.013 C 119.043 339.580,119.597 339.330,119.723 339.457 C 119.850 339.584,120.487 339.308,121.139 338.844 C 121.790 338.380,122.611 338.000,122.962 338.000 C 123.313 338.000,123.600 337.820,123.600 337.600 C 123.600 337.380,123.960 337.200,124.400 337.200 C 124.840 337.200,125.200 337.020,125.200 336.800 C 125.200 336.580,125.560 336.400,126.000 336.400 C 126.440 336.400,126.801 336.265,126.801 336.100 C 126.802 335.935,127.792 335.350,129.000 334.800 C 130.208 334.250,131.198 333.665,131.199 333.500 C 131.199 333.335,131.515 333.196,131.900 333.191 C 132.285 333.186,133.050 332.830,133.600 332.400 C 134.150 331.970,134.825 331.614,135.100 331.609 C 135.375 331.604,135.601 331.465,135.601 331.300 C 135.602 331.135,136.592 330.550,137.800 330.000 C 139.008 329.450,139.998 328.865,139.999 328.700 C 139.999 328.535,140.360 328.400,140.800 328.400 C 141.240 328.400,141.600 328.220,141.600 328.000 C 141.600 327.780,141.960 327.600,142.400 327.600 C 142.840 327.600,143.201 327.465,143.203 327.300 C 143.207 326.935,145.149 326.000,145.903 326.000 C 146.202 326.000,146.336 325.820,146.200 325.600 C 146.064 325.380,146.188 325.195,146.476 325.190 C 147.119 325.177,152.962 322.296,153.867 321.545 C 154.228 321.245,154.630 321.016,154.761 321.036 C 155.330 321.123,156.400 320.677,156.400 320.353 C 156.400 320.159,156.760 320.000,157.200 320.000 C 157.640 320.000,158.003 319.865,158.006 319.700 C 158.010 319.535,158.955 318.950,160.106 318.400 C 161.258 317.850,162.290 317.300,162.400 317.177 C 162.510 317.055,163.185 316.718,163.900 316.429 C 164.615 316.140,165.200 315.745,165.200 315.551 C 165.200 315.358,165.560 315.200,166.000 315.200 C 166.440 315.200,166.800 315.020,166.800 314.800 C 166.800 314.580,167.160 314.400,167.600 314.400 C 168.040 314.400,168.400 314.220,168.400 314.000 C 168.400 313.780,168.771 313.600,169.224 313.600 C 169.677 313.600,169.936 313.420,169.800 313.200 C 169.664 312.980,169.923 312.800,170.376 312.800 C 170.829 312.800,171.200 312.620,171.200 312.400 C 171.200 312.180,171.560 312.000,172.000 312.000 C 172.440 312.000,172.800 311.820,172.800 311.600 C 172.800 311.380,173.083 311.200,173.429 311.200 C 173.774 311.200,174.329 310.928,174.661 310.596 C 174.993 310.264,175.430 310.095,175.632 310.220 C 175.835 310.345,176.000 310.257,176.000 310.024 C 176.000 309.791,176.371 309.600,176.824 309.600 C 177.277 309.600,177.536 309.420,177.400 309.200 C 177.264 308.980,177.489 308.800,177.901 308.800 C 178.312 308.800,179.036 308.440,179.508 308.000 C 179.980 307.560,180.588 307.200,180.859 307.200 C 181.356 307.200,188.827 303.628,189.200 303.212 C 189.310 303.090,190.300 302.542,191.400 301.995 C 192.500 301.448,193.457 300.875,193.526 300.722 C 193.595 300.570,194.270 300.241,195.026 299.991 C 195.782 299.742,196.400 299.372,196.400 299.169 C 196.400 298.966,196.749 298.800,197.176 298.800 C 197.603 298.800,198.064 298.620,198.200 298.400 C 198.615 297.728,201.093 297.954,202.600 298.800 C 203.383 299.240,204.289 299.600,204.612 299.600 C 204.935 299.600,205.200 299.768,205.200 299.974 C 205.200 300.180,205.830 300.576,206.600 300.854 C 207.370 301.133,208.000 301.485,208.000 301.637 C 208.000 301.789,208.437 302.023,208.972 302.157 C 209.507 302.291,210.182 302.630,210.472 302.910 C 210.899 303.321,215.686 305.751,221.500 308.508 C 221.995 308.743,222.400 309.085,222.400 309.268 C 222.400 309.450,222.634 309.600,222.920 309.600 C 223.656 309.600,225.593 310.541,225.597 310.900 C 225.599 311.065,225.960 311.200,226.400 311.200 C 226.840 311.200,227.200 311.380,227.200 311.600 C 227.200 311.820,227.560 312.000,228.000 312.000 C 228.440 312.000,228.800 312.180,228.800 312.400 C 228.800 312.620,229.171 312.800,229.624 312.800 C 230.077 312.800,230.336 312.980,230.200 313.200 C 230.064 313.420,230.198 313.600,230.497 313.600 C 231.251 313.600,233.193 314.535,233.197 314.900 C 233.199 315.065,233.560 315.200,234.000 315.200 C 234.440 315.200,234.800 315.346,234.800 315.525 C 234.800 315.704,235.430 316.098,236.200 316.400 C 236.970 316.702,237.600 317.062,237.600 317.200 C 237.600 317.491,240.225 318.573,240.605 318.438 C 240.746 318.388,241.183 318.719,241.577 319.174 C 241.971 319.628,242.573 320.000,242.914 320.000 C 243.254 320.000,243.593 320.137,243.667 320.305 C 243.848 320.719,252.874 325.200,253.527 325.200 C 253.813 325.200,253.936 325.380,253.800 325.600 C 253.664 325.820,253.798 326.000,254.097 326.000 C 254.851 326.000,256.793 326.935,256.797 327.300 C 256.799 327.465,257.160 327.600,257.600 327.600 C 258.040 327.600,258.400 327.780,258.400 328.000 C 258.400 328.220,258.760 328.400,259.200 328.400 C 259.640 328.400,260.000 328.546,260.000 328.725 C 260.000 328.904,260.630 329.298,261.400 329.600 C 262.170 329.902,262.800 330.296,262.800 330.475 C 262.800 330.654,263.160 330.800,263.600 330.800 C 264.040 330.800,264.400 330.980,264.400 331.200 C 264.400 331.420,264.625 331.604,264.900 331.609 C 265.175 331.614,265.850 331.970,266.400 332.400 C 266.950 332.830,267.715 333.186,268.100 333.191 C 268.485 333.196,268.805 333.335,268.811 333.500 C 268.817 333.665,269.807 334.249,271.011 334.797 C 272.215 335.345,273.200 335.930,273.200 336.097 C 273.200 336.264,273.560 336.400,274.000 336.400 C 274.440 336.400,274.800 336.580,274.800 336.800 C 274.800 337.020,275.160 337.200,275.600 337.200 C 276.040 337.200,276.400 337.391,276.400 337.624 C 276.400 337.857,276.550 337.955,276.733 337.841 C 276.916 337.728,277.703 338.068,278.482 338.597 C 279.260 339.126,280.372 339.678,280.952 339.824 C 281.533 339.969,282.106 340.249,282.227 340.444 C 282.348 340.640,282.966 340.800,283.600 340.800 C 284.234 340.800,284.864 340.980,285.000 341.200 C 285.136 341.420,285.957 341.600,286.824 341.600 C 287.691 341.600,288.400 341.780,288.400 342.000 C 288.400 342.245,290.333 342.400,293.400 342.400 C 296.467 342.400,298.400 342.245,298.400 342.000 C 298.400 341.780,298.925 341.600,299.567 341.600 C 300.209 341.600,301.604 341.224,302.667 340.764 C 303.730 340.304,304.959 339.856,305.399 339.768 C 305.838 339.680,306.258 339.426,306.332 339.204 C 306.406 338.982,306.703 338.800,306.991 338.800 C 307.279 338.800,308.093 338.260,308.800 337.600 C 309.507 336.940,310.201 336.396,310.342 336.391 C 311.635 336.344,317.055 329.128,317.996 326.200 C 318.279 325.320,318.652 324.240,318.825 323.800 C 319.522 322.028,319.728 320.367,319.882 315.300 C 319.990 311.750,319.904 310.000,319.622 310.000 C 319.375 310.000,319.200 309.039,319.200 307.680 C 319.200 306.404,319.037 305.189,318.839 304.980 C 318.480 304.603,318.171 302.708,317.749 298.300 C 317.628 297.035,317.382 296.000,317.201 296.000 C 316.895 296.000,316.777 295.252,316.190 289.600 C 316.064 288.390,315.800 287.040,315.603 286.600 C 315.244 285.797,314.952 284.006,314.545 280.100 C 314.425 278.945,314.179 278.000,314.000 278.000 C 313.695 278.000,313.562 277.140,312.965 271.300 C 312.835 270.035,312.565 268.829,312.365 268.620 C 312.164 268.411,312.000 267.286,312.000 266.120 C 312.000 264.954,311.820 264.000,311.600 264.000 C 311.380 264.000,311.200 263.111,311.200 262.024 C 311.200 260.937,311.020 259.936,310.800 259.800 C 310.580 259.664,310.400 258.584,310.400 257.400 C 310.400 256.216,310.220 255.136,310.000 255.000 C 309.780 254.864,309.600 253.874,309.600 252.800 C 309.600 251.726,309.420 250.736,309.200 250.600 C 308.980 250.464,308.800 249.373,308.800 248.176 C 308.800 246.979,308.620 246.000,308.400 246.000 C 308.180 246.000,308.000 245.021,308.000 243.824 C 308.000 242.627,307.808 241.528,307.573 241.383 C 307.338 241.238,307.242 240.868,307.359 240.561 C 307.477 240.255,307.408 239.058,307.206 237.902 C 307.004 236.746,306.757 235.226,306.658 234.525 C 306.559 233.823,306.364 233.065,306.224 232.840 C 306.085 232.614,305.957 231.568,305.940 230.515 C 305.923 229.462,305.748 228.400,305.552 228.156 C 304.840 227.270,305.022 221.731,305.802 220.540 C 306.514 219.455,317.901 208.000,318.269 208.000 C 318.712 208.000,319.537 206.871,319.281 206.614 C 319.126 206.460,319.181 206.393,319.403 206.467 C 319.625 206.540,321.215 205.205,322.937 203.500 C 324.659 201.795,326.233 200.400,326.434 200.400 C 326.635 200.400,326.800 200.119,326.800 199.776 C 326.800 199.433,326.935 199.235,327.100 199.334 C 327.265 199.434,327.632 199.265,327.916 198.958 C 328.199 198.651,328.321 198.400,328.185 198.400 C 328.050 198.400,328.535 197.905,329.264 197.300 C 329.994 196.695,334.962 191.835,340.305 186.500 C 345.648 181.165,350.094 176.800,350.185 176.800 C 350.734 176.800,371.096 156.630,372.426 154.769 C 373.664 153.035,375.200 150.026,375.200 149.332 C 375.200 149.039,375.380 148.800,375.600 148.800 C 375.820 148.800,376.000 148.260,376.000 147.600 C 376.000 146.940,376.163 146.400,376.361 146.400 C 376.765 146.400,377.134 143.849,377.449 138.900 C 377.590 136.686,377.517 135.600,377.229 135.600 C 376.976 135.600,376.800 134.707,376.800 133.424 C 376.800 132.227,376.620 131.136,376.400 131.000 C 376.180 130.864,376.000 130.313,376.000 129.776 C 376.000 129.239,375.820 128.800,375.600 128.800 C 375.380 128.800,375.200 128.365,375.200 127.833 C 375.200 127.302,375.065 126.807,374.900 126.733 C 374.735 126.660,374.240 125.880,373.800 125.000 C 373.360 124.120,372.640 123.004,372.200 122.519 C 370.764 120.938,370.364 120.400,370.626 120.400 C 370.768 120.400,370.026 119.590,368.978 118.600 C 367.930 117.610,366.831 116.800,366.536 116.800 C 366.241 116.800,366.000 116.642,366.000 116.449 C 366.000 116.255,365.460 115.873,364.800 115.600 C 364.140 115.327,363.600 114.945,363.600 114.751 C 363.600 114.558,363.240 114.400,362.800 114.400 C 362.360 114.400,362.000 114.190,362.000 113.933 C 362.000 113.677,361.887 113.579,361.749 113.717 C 361.611 113.855,360.990 113.705,360.369 113.384 C 359.748 113.063,358.781 112.800,358.220 112.800 C 357.659 112.800,357.200 112.620,357.200 112.400 C 357.200 112.180,356.311 112.000,355.224 112.000 C 354.137 112.000,353.156 111.853,353.045 111.672 C 352.933 111.492,351.920 111.303,350.792 111.251 C 349.664 111.200,348.349 111.009,347.870 110.828 C 347.392 110.646,346.550 110.530,346.000 110.569 C 345.450 110.608,344.460 110.494,343.800 110.316 C 343.140 110.138,341.666 109.901,340.525 109.789 C 339.384 109.676,337.134 109.392,335.525 109.158 C 333.916 108.923,331.340 108.639,329.800 108.525 C 328.260 108.412,326.829 108.157,326.620 107.959 C 326.411 107.762,325.207 107.600,323.944 107.600 C 322.681 107.600,321.536 107.420,321.400 107.200 C 321.264 106.980,320.004 106.800,318.600 106.800 C 317.196 106.800,315.936 106.620,315.800 106.400 C 315.664 106.180,314.494 106.000,313.200 106.000 C 311.906 106.000,310.736 105.820,310.600 105.600 C 310.464 105.380,309.294 105.200,308.000 105.200 C 306.706 105.200,305.536 105.020,305.400 104.800 C 305.264 104.580,304.004 104.400,302.600 104.400 C 301.196 104.400,299.936 104.220,299.800 104.000 C 299.664 103.780,298.393 103.600,296.976 103.600 C 295.525 103.600,294.400 103.425,294.400 103.200 C 294.400 102.974,293.267 102.800,291.800 102.800 C 290.333 102.800,289.200 102.626,289.200 102.400 C 289.200 102.175,288.075 102.000,286.624 102.000 C 285.207 102.000,283.936 101.820,283.800 101.600 C 283.664 101.380,282.404 101.200,281.000 101.200 C 279.596 101.200,278.336 101.020,278.200 100.800 C 278.064 100.580,276.793 100.400,275.376 100.400 C 273.925 100.400,272.800 100.225,272.800 100.000 C 272.800 99.775,271.675 99.600,270.224 99.600 C 268.807 99.600,267.536 99.420,267.400 99.200 C 267.264 98.980,266.795 98.800,266.358 98.800 C 265.512 98.800,263.600 97.133,263.600 96.395 C 263.600 96.152,263.420 96.064,263.200 96.200 C 262.974 96.339,262.800 96.015,262.800 95.457 C 262.800 94.912,262.663 94.407,262.495 94.333 C 262.000 94.117,254.400 78.420,254.400 77.614 C 254.400 77.386,254.220 77.200,254.000 77.200 C 253.780 77.200,253.600 76.917,253.600 76.571 C 253.600 76.226,253.328 75.671,252.996 75.339 C 252.664 75.007,252.495 74.570,252.620 74.368 C 252.745 74.165,252.657 74.000,252.424 74.000 C 252.191 74.000,252.000 73.655,252.000 73.233 C 252.000 72.812,251.865 72.407,251.700 72.333 C 251.276 72.145,248.800 67.201,248.800 66.544 C 248.800 66.245,248.620 66.000,248.400 66.000 C 248.180 66.000,248.000 65.640,248.000 65.200 C 248.000 64.760,247.820 64.400,247.600 64.400 C 247.380 64.400,247.200 64.040,247.200 63.600 C 247.200 63.160,247.020 62.800,246.800 62.800 C 246.580 62.800,246.400 62.440,246.400 62.000 C 246.400 61.560,246.220 61.200,246.000 61.200 C 245.780 61.200,245.600 60.930,245.600 60.600 C 245.600 60.270,245.420 60.000,245.200 60.000 C 244.980 60.000,244.800 59.640,244.800 59.200 C 244.800 58.760,244.620 58.400,244.400 58.400 C 244.180 58.400,244.000 58.155,244.000 57.856 C 244.000 57.352,241.658 52.450,241.202 52.000 C 241.091 51.890,240.937 51.441,240.860 51.003 C 240.783 50.565,240.466 49.755,240.155 49.203 C 239.109 47.347,238.937 47.010,237.266 43.570 C 236.350 41.683,235.600 39.928,235.600 39.670 C 235.600 39.411,235.420 39.200,235.200 39.200 C 234.980 39.200,234.800 38.840,234.800 38.400 C 234.800 37.960,234.620 37.600,234.400 37.600 C 234.180 37.600,234.000 37.240,234.000 36.800 C 234.000 36.360,233.820 36.000,233.600 36.000 C 233.380 36.000,233.200 35.640,233.200 35.200 C 233.200 34.760,233.020 34.400,232.800 34.400 C 232.580 34.400,232.400 34.228,232.400 34.018 C 232.400 33.436,229.869 28.219,229.512 28.067 C 229.341 27.993,229.200 27.588,229.200 27.167 C 229.200 26.745,229.020 26.400,228.800 26.400 C 228.580 26.400,228.400 26.040,228.400 25.600 C 228.400 25.160,228.220 24.800,228.000 24.800 C 227.780 24.800,227.600 24.440,227.600 24.000 C 227.600 23.560,227.420 23.200,227.200 23.200 C 226.980 23.200,226.800 22.840,226.800 22.400 C 226.800 21.960,226.620 21.600,226.400 21.600 C 226.180 21.600,226.000 21.240,226.000 20.800 C 226.000 20.360,225.820 20.000,225.600 20.000 C 225.380 20.000,225.200 19.640,225.200 19.200 C 225.200 18.760,225.020 18.400,224.800 18.400 C 224.580 18.400,224.400 18.116,224.400 17.768 C 224.400 15.970,216.490 6.800,214.940 6.800 C 214.643 6.800,214.400 6.620,214.400 6.400 C 214.400 6.180,214.040 6.000,213.600 6.000 C 213.160 6.000,212.799 5.865,212.797 5.700 C 212.793 5.341,210.856 4.400,210.120 4.400 C 209.834 4.400,209.600 4.240,209.600 4.044 C 209.600 3.652,207.780 3.266,204.400 2.941 C 203.190 2.825,202.029 2.565,201.820 2.365 C 201.327 1.892,198.673 1.892,198.180 2.365 M79.000 15.600 C 78.864 15.820,78.403 16.000,77.976 16.000 C 77.549 16.000,77.200 16.180,77.200 16.400 C 77.200 16.620,77.006 16.800,76.769 16.800 C 76.209 16.800,74.000 19.009,74.000 19.569 C 74.000 19.806,73.864 20.000,73.698 20.000 C 73.531 20.000,73.160 20.585,72.871 21.300 C 72.583 22.015,72.179 22.913,71.974 23.295 C 71.474 24.223,71.495 28.688,72.000 29.000 C 72.220 29.136,72.400 29.687,72.400 30.224 C 72.400 30.761,72.580 31.200,72.800 31.200 C 73.020 31.200,73.200 31.470,73.200 31.800 C 73.200 32.130,73.380 32.400,73.600 32.400 C 73.820 32.400,74.002 32.625,74.005 32.900 C 74.008 33.175,74.365 33.850,74.797 34.400 C 76.707 36.828,78.400 39.232,78.400 39.515 C 78.400 39.685,78.760 40.083,79.200 40.400 C 79.640 40.717,80.000 41.180,80.000 41.429 C 80.000 41.678,80.540 42.446,81.200 43.137 C 81.860 43.828,82.400 44.625,82.400 44.908 C 82.400 45.191,82.760 45.683,83.200 46.000 C 83.640 46.317,84.000 46.778,84.000 47.025 C 84.000 50.171,94.115 54.222,97.505 52.434 C 97.887 52.232,98.856 51.783,99.657 51.435 C 100.900 50.896,101.937 49.916,104.014 47.317 C 104.226 47.051,104.400 46.567,104.400 46.240 C 104.400 45.914,104.580 45.536,104.800 45.400 C 105.701 44.843,105.253 38.308,104.197 36.600 C 103.653 35.720,103.095 34.685,102.957 34.300 C 102.820 33.915,102.548 33.600,102.353 33.600 C 102.159 33.600,102.000 33.407,102.000 33.171 C 102.000 32.936,101.775 32.506,101.500 32.216 C 100.360 31.015,99.600 29.967,99.600 29.595 C 99.600 29.378,99.420 29.200,99.200 29.200 C 98.980 29.200,98.800 29.007,98.800 28.771 C 98.800 28.536,98.575 28.114,98.300 27.835 C 98.025 27.555,97.350 26.730,96.800 26.000 C 96.250 25.270,95.575 24.445,95.300 24.165 C 95.025 23.886,94.800 23.491,94.800 23.288 C 94.800 23.085,94.260 22.354,93.600 21.663 C 92.940 20.972,92.400 20.220,92.400 19.990 C 92.400 17.107,80.482 13.202,79.000 15.600 M312.500 15.744 C 312.005 15.989,311.600 16.327,311.600 16.495 C 311.600 16.663,311.330 16.800,311.000 16.800 C 310.670 16.800,310.400 16.980,310.400 17.200 C 310.400 17.420,310.130 17.600,309.800 17.600 C 309.470 17.600,309.200 17.870,309.200 18.200 C 309.200 18.530,309.020 18.800,308.800 18.800 C 308.580 18.800,308.397 19.115,308.394 19.500 C 308.389 20.098,308.331 20.113,308.000 19.600 C 307.669 19.088,307.611 19.103,307.606 19.704 C 307.603 20.091,307.060 20.972,306.400 21.663 C 305.740 22.354,305.200 23.162,305.200 23.459 C 305.200 23.757,305.059 24.000,304.886 24.000 C 304.714 24.000,304.251 24.545,303.857 25.211 C 303.464 25.877,302.705 26.859,302.171 27.393 C 301.637 27.927,301.200 28.552,301.200 28.782 C 301.200 29.012,301.020 29.200,300.800 29.200 C 300.580 29.200,300.400 29.470,300.400 29.800 C 300.400 30.130,300.220 30.400,300.000 30.400 C 299.780 30.400,299.600 30.630,299.600 30.912 C 299.600 31.193,299.240 31.683,298.800 32.000 C 298.360 32.317,298.000 32.807,298.000 33.088 C 298.000 33.370,297.820 33.600,297.600 33.600 C 297.380 33.600,297.236 33.735,297.280 33.900 C 297.324 34.065,296.784 35.090,296.080 36.178 C 294.750 38.233,294.130 44.739,295.200 45.400 C 295.420 45.536,295.600 45.909,295.600 46.229 C 295.600 46.932,297.271 49.588,297.717 49.595 C 297.891 49.598,298.381 49.924,298.807 50.321 C 301.112 52.468,308.466 53.912,309.400 52.400 C 309.536 52.180,309.997 52.000,310.424 52.000 C 310.851 52.000,311.200 51.832,311.200 51.627 C 311.200 51.422,311.557 51.141,311.994 51.002 C 312.940 50.702,316.000 47.664,316.000 47.025 C 316.000 46.778,316.360 46.317,316.800 46.000 C 317.240 45.683,317.600 45.191,317.600 44.908 C 317.600 44.625,318.140 43.828,318.800 43.137 C 319.460 42.446,320.000 41.678,320.000 41.429 C 320.000 41.180,320.360 40.717,320.800 40.400 C 321.240 40.083,321.600 39.685,321.600 39.515 C 321.600 39.251,323.558 36.442,324.807 34.915 C 325.025 34.648,325.412 33.973,325.666 33.415 C 325.920 32.857,326.280 32.400,326.464 32.400 C 326.649 32.400,326.800 32.040,326.800 31.600 C 326.800 31.160,326.980 30.800,327.200 30.800 C 327.420 30.800,327.600 30.361,327.600 29.824 C 327.600 29.287,327.780 28.736,328.000 28.600 C 328.220 28.464,328.400 27.373,328.400 26.176 C 328.400 24.979,328.220 24.000,328.000 24.000 C 327.780 24.000,327.600 23.460,327.600 22.800 C 327.600 22.140,327.420 21.600,327.200 21.600 C 326.980 21.600,326.800 21.240,326.800 20.800 C 326.800 20.360,326.620 20.000,326.400 20.000 C 326.180 20.000,326.000 19.730,326.000 19.400 C 326.000 19.070,325.838 18.800,325.640 18.800 C 325.442 18.800,324.677 18.213,323.940 17.496 C 321.721 15.337,315.306 14.354,312.500 15.744 M200.400 24.800 C 200.400 25.020,200.805 25.200,201.300 25.200 C 202.295 25.201,204.888 27.180,203.962 27.232 C 203.556 27.254,203.538 27.319,203.900 27.465 C 204.175 27.576,204.400 27.932,204.400 28.257 C 204.400 28.582,204.550 28.755,204.733 28.641 C 204.917 28.528,205.071 28.652,205.077 28.918 C 205.090 29.588,208.488 36.570,208.880 36.733 C 209.056 36.807,209.200 37.142,209.200 37.479 C 209.200 38.183,210.804 41.256,211.400 41.694 C 211.620 41.856,211.659 41.991,211.486 41.994 C 211.313 41.997,211.397 42.405,211.672 42.900 C 211.947 43.395,212.185 43.890,212.200 44.000 C 212.278 44.539,216.240 52.218,216.500 52.333 C 216.665 52.407,216.800 52.686,216.800 52.954 C 216.800 53.663,217.749 55.593,218.100 55.597 C 218.265 55.599,218.400 55.960,218.400 56.400 C 218.400 56.840,218.580 57.200,218.800 57.200 C 219.020 57.200,219.200 57.545,219.200 57.967 C 219.200 58.388,219.335 58.793,219.500 58.867 C 219.932 59.059,221.600 62.372,221.600 63.038 C 221.600 63.347,221.780 63.600,222.000 63.600 C 222.220 63.600,222.400 63.960,222.400 64.400 C 222.400 64.840,222.580 65.200,222.800 65.200 C 223.020 65.200,223.200 65.560,223.200 66.000 C 223.200 66.440,223.380 66.800,223.600 66.800 C 223.820 66.800,224.000 67.160,224.000 67.600 C 224.000 68.040,224.180 68.400,224.400 68.400 C 224.620 68.400,224.800 68.760,224.800 69.200 C 224.800 69.640,224.959 70.000,225.153 70.000 C 225.477 70.000,225.870 70.882,226.219 72.393 C 226.295 72.719,226.541 73.047,226.766 73.122 C 226.991 73.197,227.290 73.875,227.432 74.629 C 227.573 75.383,227.849 76.000,228.045 76.000 C 228.240 76.000,228.400 76.360,228.400 76.800 C 228.400 77.240,228.535 77.602,228.700 77.605 C 228.865 77.607,229.345 78.372,229.766 79.305 C 231.868 83.955,232.597 85.411,232.885 85.533 C 233.058 85.607,233.200 86.012,233.200 86.433 C 233.200 86.855,233.380 87.200,233.600 87.200 C 233.820 87.200,234.000 87.560,234.000 88.000 C 234.000 88.440,234.180 88.800,234.400 88.800 C 234.620 88.800,234.800 88.986,234.800 89.214 C 234.800 89.825,239.700 99.777,240.078 99.933 C 240.255 100.007,240.400 100.412,240.400 100.833 C 240.400 101.255,240.580 101.600,240.800 101.600 C 241.020 101.600,241.200 101.960,241.200 102.400 C 241.200 102.840,241.380 103.200,241.600 103.200 C 241.820 103.200,242.000 103.375,242.000 103.589 C 242.000 104.182,244.124 108.582,244.484 108.733 C 244.658 108.807,244.800 109.096,244.800 109.377 C 244.800 110.265,251.318 116.579,253.300 117.610 C 254.345 118.154,255.200 118.734,255.200 118.899 C 255.200 119.065,255.449 119.200,255.754 119.200 C 256.059 119.200,256.811 119.461,257.426 119.780 C 258.040 120.098,258.691 120.268,258.871 120.156 C 259.052 120.044,259.200 120.143,259.200 120.376 C 259.200 120.609,259.729 120.800,260.376 120.800 C 261.023 120.800,261.664 120.980,261.800 121.200 C 261.936 121.420,262.991 121.600,264.144 121.600 C 265.297 121.600,266.411 121.761,266.620 121.958 C 267.007 122.323,270.839 122.773,274.800 122.919 C 276.010 122.964,277.107 123.146,277.239 123.324 C 277.370 123.503,278.270 123.729,279.239 123.827 C 280.207 123.926,282.530 124.193,284.400 124.422 C 286.270 124.650,288.925 124.934,290.300 125.053 C 291.675 125.171,292.800 125.433,292.800 125.634 C 292.800 125.835,293.959 126.000,295.376 126.000 C 296.793 126.000,298.064 126.180,298.200 126.400 C 298.336 126.620,299.607 126.800,301.024 126.800 C 302.475 126.800,303.600 126.975,303.600 127.200 C 303.600 127.428,304.792 127.600,306.376 127.600 C 307.903 127.600,309.264 127.780,309.400 128.000 C 309.536 128.220,310.717 128.400,312.024 128.400 C 313.331 128.400,314.400 128.565,314.400 128.767 C 314.400 128.969,315.615 129.229,317.100 129.345 C 318.585 129.460,321.060 129.750,322.600 129.988 C 327.550 130.753,330.946 131.222,333.200 131.449 C 334.410 131.571,335.571 131.835,335.780 132.035 C 335.989 132.236,337.264 132.400,338.613 132.400 C 339.963 132.400,341.202 132.535,341.367 132.700 C 341.740 133.074,341.857 133.089,344.824 133.150 C 346.326 133.181,347.153 133.352,347.000 133.600 C 346.847 133.847,347.544 134.000,348.822 134.000 C 353.304 134.000,357.217 138.770,354.400 140.800 C 353.960 141.117,353.600 141.697,353.600 142.088 C 353.600 142.480,353.417 142.800,353.193 142.800 C 352.737 142.800,350.859 144.564,339.995 155.200 C 335.837 159.270,331.326 163.635,329.971 164.900 C 328.615 166.165,327.603 167.200,327.723 167.200 C 327.843 167.200,326.844 168.280,325.503 169.600 C 324.163 170.920,322.916 172.000,322.733 172.000 C 322.550 172.000,322.400 172.270,322.400 172.600 C 322.400 172.930,322.175 173.201,321.900 173.202 C 321.625 173.203,320.576 174.058,319.569 175.102 C 318.562 176.146,317.609 177.037,317.452 177.083 C 317.295 177.129,313.603 180.729,309.248 185.083 C 304.894 189.437,299.482 194.755,297.222 196.900 C 294.963 199.045,293.251 200.800,293.418 200.800 C 293.585 200.800,293.307 201.160,292.800 201.600 C 292.293 202.040,291.725 202.400,291.539 202.400 C 291.352 202.400,291.200 202.658,291.200 202.973 C 291.200 203.288,290.840 203.660,290.400 203.800 C 289.960 203.940,289.600 204.230,289.600 204.445 C 289.600 204.660,289.195 205.256,288.700 205.768 C 287.226 207.293,286.400 208.384,286.400 208.805 C 286.400 209.022,286.220 209.200,286.000 209.200 C 285.780 209.200,285.600 209.560,285.600 210.000 C 285.600 210.440,285.420 210.800,285.200 210.800 C 284.980 210.800,284.800 211.036,284.800 211.325 C 284.800 211.614,284.440 212.595,284.000 213.506 C 283.560 214.416,283.200 215.800,283.200 216.581 C 283.200 217.361,283.020 218.000,282.800 218.000 C 282.553 218.000,282.400 220.059,282.400 223.376 C 282.400 226.529,282.565 228.855,282.800 229.000 C 283.020 229.136,283.203 230.362,283.206 231.724 C 283.210 233.470,283.327 234.023,283.600 233.600 C 283.876 233.173,283.990 233.644,283.994 235.233 C 283.997 236.462,284.135 237.602,284.300 237.767 C 284.670 238.136,284.688 238.268,284.750 241.024 C 284.781 242.393,284.954 243.152,285.200 243.000 C 285.448 242.847,285.600 243.588,285.600 244.953 C 285.600 246.163,285.780 247.264,286.000 247.400 C 286.220 247.536,286.400 248.616,286.400 249.800 C 286.400 250.984,286.580 252.064,286.800 252.200 C 287.020 252.336,287.200 253.416,287.200 254.600 C 287.200 255.784,287.380 256.864,287.600 257.000 C 287.820 257.136,288.000 258.126,288.000 259.200 C 288.000 260.274,288.180 261.264,288.400 261.400 C 288.620 261.536,288.800 262.447,288.800 263.424 C 288.800 264.575,288.976 265.202,289.300 265.206 C 289.633 265.210,289.600 265.342,289.200 265.600 C 288.800 265.858,288.767 265.990,289.100 265.994 C 289.438 265.998,289.600 266.705,289.600 268.176 C 289.600 269.373,289.780 270.464,290.000 270.600 C 290.220 270.736,290.400 271.827,290.400 273.024 C 290.400 274.221,290.580 275.200,290.800 275.200 C 291.020 275.200,291.200 276.064,291.200 277.120 C 291.200 278.176,291.364 279.211,291.565 279.420 C 291.765 279.629,292.014 280.790,292.117 282.000 C 292.319 284.362,292.544 286.103,292.990 288.740 C 293.411 291.230,293.525 291.960,293.941 294.800 C 294.150 296.230,294.437 297.686,294.579 298.036 C 294.721 298.386,294.914 299.376,295.009 300.236 C 295.104 301.096,295.373 302.970,295.608 304.400 C 295.843 305.830,296.136 307.900,296.259 309.000 C 296.382 310.100,296.655 311.212,296.866 311.471 C 297.785 312.599,297.310 317.160,296.125 318.588 C 295.030 319.907,291.178 320.701,290.733 319.700 C 290.660 319.535,289.700 318.952,288.600 318.405 C 287.500 317.858,286.510 317.317,286.400 317.202 C 286.290 317.088,284.940 316.365,283.400 315.597 C 281.860 314.829,280.510 314.110,280.400 314.000 C 279.925 313.524,270.948 309.191,270.447 309.195 C 270.143 309.198,269.603 308.885,269.247 308.500 C 268.891 308.115,267.658 307.350,266.506 306.800 C 265.355 306.250,264.410 305.665,264.406 305.500 C 264.403 305.335,264.040 305.200,263.600 305.200 C 263.160 305.200,262.800 305.020,262.800 304.800 C 262.800 304.580,262.440 304.400,262.000 304.400 C 261.560 304.400,261.200 304.220,261.200 304.000 C 261.200 303.780,260.840 303.600,260.400 303.600 C 259.960 303.600,259.600 303.420,259.600 303.200 C 259.600 302.980,259.240 302.800,258.800 302.800 C 258.360 302.800,258.000 302.620,258.000 302.400 C 258.000 302.180,257.640 302.000,257.200 302.000 C 256.760 302.000,256.400 301.820,256.400 301.600 C 256.400 301.380,256.029 301.200,255.576 301.200 C 255.123 301.200,254.864 301.020,255.000 300.800 C 255.136 300.580,254.877 300.400,254.424 300.400 C 253.971 300.400,253.600 300.220,253.600 300.000 C 253.600 299.780,253.375 299.596,253.100 299.591 C 252.825 299.586,252.150 299.230,251.600 298.800 C 251.050 298.370,250.300 298.014,249.933 298.009 C 249.567 298.004,249.207 297.865,249.133 297.700 C 248.946 297.278,239.475 292.602,239.059 292.726 C 238.871 292.782,238.421 292.506,238.059 292.114 C 237.266 291.255,234.158 289.600,233.339 289.600 C 233.016 289.600,232.864 289.420,233.000 289.200 C 233.136 288.980,233.002 288.800,232.703 288.800 C 231.949 288.800,230.007 287.865,230.003 287.500 C 230.001 287.335,229.640 287.200,229.200 287.200 C 228.760 287.200,228.400 287.020,228.400 286.800 C 228.400 286.580,228.040 286.400,227.600 286.400 C 227.160 286.400,226.800 286.264,226.800 286.098 C 226.800 285.704,224.320 284.585,223.800 284.744 C 223.580 284.811,223.532 284.734,223.694 284.573 C 223.981 284.286,222.275 283.200,221.538 283.200 C 221.334 283.200,220.780 282.840,220.308 282.400 C 219.836 281.960,219.138 281.600,218.758 281.600 C 218.378 281.600,218.007 281.465,217.933 281.300 C 217.784 280.963,214.881 279.558,214.639 279.705 C 214.554 279.757,214.150 279.515,213.742 279.166 C 212.748 278.316,209.168 276.698,208.893 276.974 C 208.772 277.094,208.449 277.007,208.174 276.779 C 206.564 275.442,193.436 275.442,191.826 276.779 C 191.551 277.007,191.228 277.094,191.107 276.974 C 190.855 276.722,187.297 278.282,186.400 279.037 C 186.070 279.315,185.666 279.558,185.503 279.577 C 184.915 279.644,182.197 281.006,182.067 281.300 C 181.993 281.465,181.622 281.600,181.242 281.600 C 180.862 281.600,180.164 281.960,179.692 282.400 C 179.220 282.840,178.666 283.200,178.462 283.200 C 177.725 283.200,176.019 284.286,176.306 284.573 C 176.468 284.734,176.420 284.811,176.200 284.744 C 175.680 284.585,173.200 285.704,173.200 286.098 C 173.200 286.264,172.840 286.400,172.400 286.400 C 171.960 286.400,171.600 286.580,171.600 286.800 C 171.600 287.020,171.240 287.200,170.800 287.200 C 170.360 287.200,169.999 287.335,169.997 287.500 C 169.993 287.865,168.051 288.800,167.297 288.800 C 166.998 288.800,166.864 288.980,167.000 289.200 C 167.136 289.420,166.984 289.600,166.661 289.600 C 165.842 289.600,162.734 291.255,161.941 292.114 C 161.579 292.506,161.129 292.782,160.941 292.726 C 160.525 292.602,151.054 297.278,150.867 297.700 C 150.793 297.865,150.433 298.004,150.067 298.009 C 149.700 298.014,148.950 298.370,148.400 298.800 C 147.850 299.230,147.175 299.586,146.900 299.591 C 146.625 299.596,146.400 299.780,146.400 300.000 C 146.400 300.220,146.029 300.400,145.576 300.400 C 145.123 300.400,144.864 300.580,145.000 300.800 C 145.136 301.020,144.877 301.200,144.424 301.200 C 143.971 301.200,143.600 301.380,143.600 301.600 C 143.600 301.820,143.240 302.000,142.800 302.000 C 142.360 302.000,142.000 302.180,142.000 302.400 C 142.000 302.620,141.640 302.800,141.200 302.800 C 140.760 302.800,140.400 302.980,140.400 303.200 C 140.400 303.420,140.040 303.600,139.600 303.600 C 139.160 303.600,138.800 303.780,138.800 304.000 C 138.800 304.220,138.440 304.400,138.000 304.400 C 137.560 304.400,137.200 304.580,137.200 304.800 C 137.200 305.020,136.840 305.200,136.400 305.200 C 135.960 305.200,135.597 305.335,135.594 305.500 C 135.590 305.665,134.645 306.250,133.494 306.800 C 132.342 307.350,131.109 308.115,130.753 308.500 C 130.397 308.885,129.857 309.198,129.553 309.195 C 129.052 309.191,120.075 313.524,119.600 314.000 C 119.490 314.110,118.140 314.829,116.600 315.597 C 115.060 316.365,113.710 317.088,113.600 317.202 C 113.490 317.317,112.500 317.858,111.400 318.405 C 110.300 318.952,109.340 319.535,109.267 319.700 C 108.837 320.666,105.158 319.966,104.006 318.700 C 102.773 317.345,102.208 312.357,103.177 311.380 C 103.384 311.171,103.595 309.965,103.645 308.700 C 103.696 307.435,103.857 306.400,104.004 306.400 C 104.150 306.400,104.302 305.569,104.340 304.554 C 104.379 303.538,104.539 302.503,104.696 302.254 C 104.853 302.004,105.113 300.810,105.274 299.600 C 105.435 298.390,105.761 296.230,105.999 294.800 C 106.237 293.370,106.516 291.660,106.617 291.000 C 106.719 290.340,106.973 288.871,107.181 287.735 C 107.389 286.600,107.475 285.205,107.372 284.635 C 107.269 284.066,107.368 283.600,107.592 283.600 C 107.816 283.600,108.000 282.801,108.000 281.824 C 108.000 280.847,108.180 279.936,108.400 279.800 C 108.620 279.664,108.800 278.584,108.800 277.400 C 108.800 276.216,108.980 275.136,109.200 275.000 C 109.420 274.864,109.600 273.874,109.600 272.800 C 109.600 271.726,109.780 270.736,110.000 270.600 C 110.220 270.464,110.400 269.384,110.400 268.200 C 110.400 267.016,110.580 265.936,110.800 265.800 C 111.020 265.664,111.200 264.573,111.200 263.376 C 111.200 262.179,111.380 261.200,111.600 261.200 C 111.820 261.200,112.000 260.221,112.000 259.024 C 112.000 257.827,112.180 256.736,112.400 256.600 C 112.620 256.464,112.800 255.363,112.800 254.153 C 112.800 252.788,112.952 252.047,113.200 252.200 C 113.448 252.353,113.600 251.612,113.600 250.247 C 113.600 249.037,113.780 247.936,114.000 247.800 C 114.220 247.664,114.400 246.573,114.400 245.376 C 114.400 244.179,114.580 243.200,114.800 243.200 C 115.022 243.200,115.200 242.133,115.200 240.800 C 115.200 239.467,115.378 238.400,115.600 238.400 C 115.820 238.400,116.000 237.536,116.000 236.480 C 116.000 235.424,116.163 234.389,116.363 234.180 C 117.195 233.310,118.006 218.000,117.221 218.000 C 116.989 218.000,116.800 217.361,116.800 216.581 C 116.800 215.800,116.440 214.416,116.000 213.506 C 115.560 212.595,115.200 211.614,115.200 211.325 C 115.200 211.036,115.020 210.800,114.800 210.800 C 114.580 210.800,114.400 210.440,114.400 210.000 C 114.400 209.560,114.232 209.200,114.027 209.200 C 113.822 209.200,113.537 208.832,113.394 208.382 C 113.251 207.932,112.361 206.767,111.415 205.794 C 110.469 204.820,109.589 203.749,109.460 203.412 C 109.331 203.075,108.949 202.800,108.613 202.800 C 108.276 202.800,107.994 202.575,107.987 202.300 C 107.980 202.025,105.886 199.820,103.334 197.400 C 100.781 194.980,94.961 189.272,90.399 184.715 C 85.837 180.158,81.991 176.543,81.852 176.681 C 81.713 176.820,81.600 176.633,81.600 176.267 C 81.600 175.900,81.448 175.600,81.261 175.600 C 81.075 175.600,80.285 174.980,79.505 174.223 C 78.725 173.466,77.949 172.971,77.779 173.123 C 77.610 173.275,77.593 173.189,77.741 172.931 C 77.897 172.657,77.464 172.082,76.705 171.553 C 75.987 171.053,74.950 170.106,74.400 169.448 C 73.850 168.790,72.140 167.019,70.600 165.514 C 48.230 143.645,47.345 142.800,46.807 142.800 C 46.583 142.800,46.400 142.480,46.400 142.088 C 46.400 141.697,46.040 141.117,45.600 140.800 C 42.793 138.777,46.694 134.000,51.154 134.000 C 52.280 134.000,53.200 133.835,53.200 133.634 C 53.200 133.292,54.133 133.164,60.800 132.590 C 62.230 132.467,63.760 132.203,64.200 132.003 C 64.640 131.802,65.900 131.545,67.000 131.430 C 68.100 131.316,70.350 131.030,72.000 130.795 C 73.650 130.561,76.035 130.270,77.300 130.149 C 78.565 130.028,79.600 129.765,79.600 129.564 C 79.600 129.364,80.950 129.200,82.600 129.200 C 84.333 129.200,85.600 129.031,85.600 128.800 C 85.600 128.574,86.733 128.400,88.200 128.400 C 89.667 128.400,90.800 128.226,90.800 128.000 C 90.800 127.771,92.000 127.600,93.600 127.600 C 95.140 127.600,96.400 127.435,96.400 127.234 C 96.400 126.893,97.478 126.750,104.500 126.161 C 105.985 126.036,107.200 125.784,107.200 125.601 C 107.200 125.289,108.046 125.176,114.902 124.570 C 116.389 124.439,117.531 124.212,117.441 124.066 C 117.350 123.920,118.024 123.818,118.938 123.840 C 120.747 123.883,124.701 123.387,127.686 122.741 C 128.723 122.517,130.387 122.333,131.383 122.333 C 132.379 122.333,133.296 122.168,133.421 121.967 C 133.545 121.765,134.616 121.600,135.800 121.600 C 136.984 121.600,138.064 121.420,138.200 121.200 C 138.336 120.980,138.977 120.800,139.624 120.800 C 140.271 120.800,140.800 120.609,140.800 120.376 C 140.800 120.143,140.948 120.044,141.129 120.156 C 141.309 120.268,141.960 120.098,142.574 119.780 C 143.189 119.461,143.941 119.200,144.246 119.200 C 144.551 119.200,144.800 119.065,144.800 118.899 C 144.800 118.734,145.655 118.154,146.700 117.610 C 148.682 116.579,155.200 110.265,155.200 109.377 C 155.200 109.096,155.342 108.807,155.516 108.733 C 155.876 108.582,158.000 104.182,158.000 103.589 C 158.000 103.375,158.180 103.200,158.400 103.200 C 158.620 103.200,158.800 102.840,158.800 102.400 C 158.800 101.960,158.980 101.600,159.200 101.600 C 159.420 101.600,159.600 101.255,159.600 100.833 C 159.600 100.412,159.745 100.007,159.922 99.933 C 160.300 99.777,165.200 89.825,165.200 89.214 C 165.200 88.986,165.380 88.800,165.600 88.800 C 165.820 88.800,166.000 88.440,166.000 88.000 C 166.000 87.560,166.180 87.200,166.400 87.200 C 166.620 87.200,166.800 86.855,166.800 86.433 C 166.800 86.012,166.942 85.607,167.115 85.533 C 167.403 85.411,168.132 83.955,170.234 79.305 C 170.655 78.372,171.135 77.607,171.300 77.605 C 171.465 77.602,171.600 77.240,171.600 76.800 C 171.600 76.360,171.760 76.000,171.955 76.000 C 172.151 76.000,172.427 75.383,172.568 74.629 C 172.710 73.875,173.009 73.197,173.234 73.122 C 173.459 73.047,173.705 72.719,173.781 72.393 C 174.130 70.882,174.523 70.000,174.847 70.000 C 175.041 70.000,175.200 69.640,175.200 69.200 C 175.200 68.760,175.380 68.400,175.600 68.400 C 175.820 68.400,176.000 68.040,176.000 67.600 C 176.000 67.160,176.180 66.800,176.400 66.800 C 176.620 66.800,176.800 66.440,176.800 66.000 C 176.800 65.560,176.980 65.200,177.200 65.200 C 177.420 65.200,177.600 64.840,177.600 64.400 C 177.600 63.960,177.780 63.600,178.000 63.600 C 178.220 63.600,178.400 63.347,178.400 63.038 C 178.400 62.372,180.068 59.059,180.500 58.867 C 180.665 58.793,180.800 58.388,180.800 57.967 C 180.800 57.545,180.980 57.200,181.200 57.200 C 181.420 57.200,181.600 56.840,181.600 56.400 C 181.600 55.960,181.735 55.599,181.900 55.597 C 182.251 55.593,183.200 53.663,183.200 52.954 C 183.200 52.686,183.335 52.407,183.500 52.333 C 183.760 52.218,187.722 44.539,187.800 44.000 C 187.815 43.890,188.053 43.395,188.328 42.900 C 188.603 42.405,188.687 41.997,188.514 41.994 C 188.341 41.991,188.380 41.856,188.600 41.694 C 189.196 41.256,190.800 38.183,190.800 37.479 C 190.800 37.142,190.944 36.807,191.120 36.733 C 191.512 36.570,194.910 29.588,194.923 28.918 C 194.929 28.652,195.083 28.528,195.267 28.641 C 195.450 28.755,195.600 28.567,195.600 28.224 C 195.600 27.881,195.780 27.600,196.000 27.600 C 196.220 27.600,196.400 27.305,196.400 26.944 C 196.400 26.097,197.553 25.229,198.700 25.213 C 199.195 25.206,199.600 25.020,199.600 24.800 C 199.600 24.580,199.780 24.400,200.000 24.400 C 200.220 24.400,200.400 24.580,200.400 24.800 M26.000 232.000 C 26.000 232.220,25.370 232.400,24.600 232.400 C 23.830 232.400,23.200 232.580,23.200 232.800 C 23.200 233.020,22.660 233.200,22.000 233.200 C 21.340 233.200,20.800 233.380,20.800 233.600 C 20.800 233.820,20.361 234.000,19.824 234.000 C 19.287 234.000,18.736 234.180,18.600 234.400 C 18.464 234.620,17.823 234.800,17.176 234.800 C 16.529 234.800,16.000 234.980,16.000 235.200 C 16.000 235.420,15.561 235.600,15.024 235.600 C 14.487 235.600,13.936 235.780,13.800 236.000 C 13.664 236.220,13.034 236.400,12.400 236.400 C 11.766 236.400,11.136 236.580,11.000 236.800 C 10.864 237.020,10.324 237.200,9.800 237.200 C 9.276 237.200,8.736 237.380,8.600 237.600 C 8.464 237.820,8.003 238.000,7.576 238.000 C 7.149 238.000,6.800 238.157,6.800 238.350 C 6.800 238.543,6.284 238.803,5.654 238.929 C 4.508 239.158,1.200 241.985,1.200 242.735 C 1.200 242.954,0.975 243.208,0.700 243.300 C -0.015 243.538,-0.015 254.061,0.700 254.300 C 0.975 254.392,1.200 254.700,1.200 254.985 C 1.200 255.667,4.390 258.454,4.846 258.171 C 5.041 258.051,5.200 258.143,5.200 258.376 C 5.200 258.609,5.545 258.800,5.967 258.800 C 6.388 258.800,6.797 258.991,6.875 259.224 C 7.062 259.786,14.941 259.776,15.129 259.213 C 15.205 258.986,15.792 258.800,16.433 258.800 C 17.075 258.800,17.600 258.620,17.600 258.400 C 17.600 258.180,17.904 258.000,18.276 258.000 C 18.942 258.000,25.039 256.230,26.600 255.584 C 27.040 255.402,28.120 255.039,29.000 254.777 C 29.880 254.516,30.913 254.144,31.295 253.951 C 31.677 253.758,32.352 253.600,32.795 253.600 C 33.238 253.600,33.600 253.420,33.600 253.200 C 33.600 252.980,33.838 252.800,34.128 252.800 C 34.929 252.800,38.033 249.998,37.909 249.388 C 37.849 249.093,37.960 248.886,38.156 248.926 C 38.351 248.967,38.827 248.010,39.212 246.800 C 41.731 238.898,36.382 231.600,28.072 231.600 C 26.932 231.600,26.000 231.780,26.000 232.000 M367.334 232.524 C 364.896 233.571,362.000 235.795,362.000 236.619 C 362.000 236.938,361.820 237.200,361.600 237.200 C 361.380 237.200,361.229 237.335,361.265 237.500 C 361.300 237.665,361.105 238.340,360.831 239.000 C 359.962 241.091,359.861 244.037,360.590 246.000 C 360.958 246.990,361.276 248.064,361.296 248.386 C 361.347 249.189,365.016 252.800,365.781 252.800 C 366.121 252.800,366.400 252.980,366.400 253.200 C 366.400 253.420,366.749 253.600,367.176 253.600 C 367.603 253.600,368.064 253.780,368.200 254.000 C 368.336 254.220,368.966 254.400,369.600 254.400 C 370.234 254.400,370.864 254.580,371.000 254.800 C 371.136 255.020,371.599 255.200,372.029 255.200 C 372.459 255.200,373.123 255.359,373.505 255.554 C 374.732 256.179,380.751 258.000,381.589 258.000 C 382.035 258.000,382.400 258.180,382.400 258.400 C 382.400 258.620,382.925 258.800,383.567 258.800 C 384.208 258.800,384.795 258.986,384.871 259.213 C 385.059 259.776,392.938 259.786,393.125 259.224 C 393.203 258.991,393.612 258.800,394.033 258.800 C 394.455 258.800,394.800 258.609,394.800 258.376 C 394.800 258.143,394.959 258.051,395.154 258.171 C 395.610 258.454,398.800 255.667,398.800 254.985 C 398.800 254.700,399.017 254.394,399.283 254.306 C 399.835 254.122,400.253 246.874,399.838 244.664 C 399.507 242.900,396.671 239.904,394.375 238.894 C 391.149 237.475,390.370 237.200,389.581 237.200 C 389.152 237.200,388.800 237.020,388.800 236.800 C 388.800 236.580,388.159 236.400,387.376 236.400 C 386.529 236.400,386.053 236.238,386.200 236.000 C 386.344 235.767,385.937 235.600,385.224 235.600 C 384.551 235.600,384.000 235.420,384.000 235.200 C 384.000 234.980,383.460 234.800,382.800 234.800 C 382.140 234.800,381.600 234.620,381.600 234.400 C 381.600 234.180,381.060 234.000,380.400 234.000 C 379.740 234.000,379.200 233.820,379.200 233.600 C 379.200 233.380,378.660 233.200,378.000 233.200 C 377.340 233.200,376.800 233.040,376.800 232.844 C 376.800 231.701,369.801 231.465,367.334 232.524 M198.600 356.400 C 198.751 356.645,198.130 356.800,197.000 356.800 C 195.870 356.800,195.249 356.955,195.400 357.200 C 195.536 357.420,195.367 357.600,195.024 357.600 C 194.681 357.600,194.400 357.780,194.400 358.000 C 194.400 358.220,194.175 358.400,193.900 358.400 C 193.354 358.401,191.200 360.127,191.200 360.563 C 191.200 360.712,190.840 361.220,190.400 361.692 C 189.960 362.164,189.600 362.967,189.600 363.475 C 189.600 363.984,189.420 364.400,189.200 364.400 C 188.942 364.400,188.800 368.725,188.800 376.576 C 188.800 384.263,188.948 388.844,189.200 389.000 C 189.420 389.136,189.600 389.777,189.600 390.424 C 189.600 391.071,189.780 391.600,190.000 391.600 C 190.220 391.600,190.400 391.876,190.400 392.213 C 190.400 392.899,192.942 395.600,193.587 395.600 C 193.814 395.600,194.001 395.735,194.003 395.900 C 194.008 396.380,196.060 397.200,197.256 397.200 C 197.859 397.200,198.464 397.380,198.600 397.600 C 198.736 397.820,199.366 398.000,200.000 398.000 C 200.634 398.000,201.264 397.820,201.400 397.600 C 201.536 397.380,202.156 397.200,202.778 397.200 C 204.053 397.200,206.126 396.259,205.727 395.861 C 205.584 395.717,205.775 395.600,206.152 395.600 C 206.912 395.600,208.800 393.886,208.800 393.195 C 208.800 392.952,209.008 392.881,209.262 393.038 C 209.536 393.207,209.615 393.149,209.458 392.894 C 209.312 392.658,209.464 392.193,209.796 391.861 C 210.128 391.529,210.400 390.895,210.400 390.452 C 210.400 390.009,210.580 389.536,210.800 389.400 C 211.053 389.244,211.200 384.596,211.200 376.776 C 211.200 368.792,211.058 364.400,210.800 364.400 C 210.580 364.400,210.400 364.023,210.400 363.562 C 210.400 362.264,207.419 358.400,206.418 358.400 C 206.188 358.400,206.000 358.220,206.000 358.000 C 206.000 357.780,205.629 357.600,205.176 357.600 C 204.723 357.600,204.464 357.420,204.600 357.200 C 204.751 356.955,204.130 356.800,203.000 356.800 C 201.870 356.800,201.249 356.645,201.400 356.400 C 201.550 356.158,200.996 356.000,200.000 356.000 C 199.004 356.000,198.450 356.158,198.600 356.400 " stroke="none" fill="#404040" fill-rule="evenodd"></path><path id="path3" d="" stroke="none" fill="#555555" fill-rule="evenodd"></path><path id="path4" d="" stroke="none" fill="#7f7f7f" fill-rule="evenodd"></path></g></svg>