<?xml version="1.0" encoding="utf-8"?>
<!-- Generator: Adobe Illustrator 22.0.0, SVG Export Plug-In . SVG Version: 6.00 Build 0)  -->
<svg version="1.1" id="Layer_1" xmlns="http://www.w3.org/2000/svg" xmlns:xlink="http://www.w3.org/1999/xlink" x="0px" y="0px"
	 viewBox="0 0 1500 1500" style="enable-background:new 0 0 1500 1500;" xml:space="preserve">
<style type="text/css">
	.st0{fill:#FFFFFF;stroke:#FFFFFF;stroke-width:10;stroke-miterlimit:10;}
	.st1{fill:#FFFFFF;stroke:#FFFFFF;stroke-width:12;stroke-miterlimit:10;}
</style>
<g id="hamburguesa_3_">
	<g>
		<path class="st0" d="M922.2,890.3C922.2,890.3,922.2,890.3,922.2,890.3l0-31c0,0,0,0,0,0c14.9,0,27.1-12.1,27.1-27.1
			c0-38.1-7.5-75.1-22.2-110c-14.2-33.6-34.6-63.9-60.6-89.8c-26-26-56.2-46.3-89.8-60.6c-34.8-14.7-71.8-22.2-110-22.2H453.8
			c-38.1,0-75.1,7.5-110,22.2c-33.6,14.2-63.9,34.6-89.8,60.6c-26,26-46.3,56.2-60.6,89.8c-14.7,34.8-22.2,71.8-22.2,110
			c0,14.9,12.2,27.1,27.1,27.1l0,31c0,0,0,0,0,0c-32,0-58.1-26-58.1-58c0-42.3,8.3-83.4,24.6-122.1c15.8-37.3,38.4-70.9,67.2-99.7
			c28.8-28.8,62.3-51.4,99.7-67.2c38.7-16.4,79.7-24.6,122-24.6h212.9c42.3,0,83.4,8.3,122,24.6c37.3,15.8,70.9,38.4,99.7,67.2
			c28.8,28.8,51.4,62.3,67.2,99.7c16.4,38.7,24.6,79.7,24.6,122C980.2,864.3,954.2,890.3,922.2,890.3z"/>
	</g>
	<g>
		<path class="st0" d="M837,1188.3H283.5c-79,0-143.2-64.3-143.2-143.2c0-11.5,3.3-22.5,9.5-31.8c-30.5-11.2-52-40.5-52-74.5
			c0-43.8,35.6-79.4,79.3-79.4h766.4c43.8,0,79.4,35.6,79.4,79.3c0,21.2-8.3,41.1-23.2,56.1c-8.3,8.3-18.1,14.5-28.8,18.5
			c6,9.1,9.5,20.1,9.5,31.8C980.2,1124.1,916,1188.3,837,1188.3z M198.2,1018c-7.2,0.1-13.9,2.9-18.9,7.9
			c-5.1,5.1-7.9,11.9-7.9,19.1c0,61.9,50.3,112.2,112.2,112.2H837c61.9,0,112.2-50.3,112.2-112.2c0-14.9-12-27-26.9-27.1l-0.3,0
			c-8.6,0-15.5-7-15.4-15.5c0-8.5,7-15.5,15.5-15.5c0.1,0,0.3,0,0.4,0l21,0.1c12.9,0,25-5,34.1-14.2c9.1-9.1,14.2-21.3,14.2-34.2
			c0-26.7-21.7-48.4-48.4-48.4H177.1c-12.9,0-25.1,5-34.2,14.2c-9.1,9.1-14.2,21.3-14.2,34.2c0,25.6,20.1,46.9,45.7,48.3
			c0.2,0,0.3,0,0.4,0c0.5,0,1.4,0,2.3,0L198,987c0.1,0,0.3,0,0.4,0c8.5,0,15.5,6.9,15.5,15.5c0,8.5-6.9,15.5-15.4,15.5L198.2,1018z"
			/>
	</g>
	<g>
		<path class="st0" d="M427,1037.6c-20.8,0-40.4-8-55.3-22.6c-9-8.8-20.9-13.7-33.6-13.7c-12.6,0-24.5,4.9-33.6,13.7
			c-14.8,14.6-34.5,22.6-55.3,22.6s-40.4-8-55.3-22.6c-6.1-6-6.2-15.8-0.2-21.9c6-6.1,15.8-6.2,21.9-0.2c9,8.9,20.9,13.7,33.5,13.7
			c12.6,0,24.5-4.9,33.5-13.7c14.8-14.6,34.5-22.6,55.3-22.6c20.8,0,40.4,8,55.3,22.6c9,8.9,20.9,13.7,33.6,13.7s24.5-4.9,33.5-13.7
			c14.8-14.6,34.5-22.6,55.3-22.6c20.8,0,40.4,8,55.3,22.6c9,8.9,20.9,13.7,33.6,13.7s24.5-4.9,33.6-13.7
			c14.8-14.6,34.5-22.6,55.3-22.6c20.8,0,40.4,8,55.3,22.6c9,8.8,20.9,13.7,33.6,13.7s24.5-4.9,33.6-13.7
			c14.6-14.4,34.9-23.4,55.8-24.7c22.4-1.4,42.9,5.9,57.8,20.5c6.1,6,6.1,15.8,0.1,21.9c-6,6.1-15.8,6.1-21.9,0.1
			c-8.4-8.3-20.5-12.5-34-11.6c-13.5,0.9-26.6,6.6-36,15.9c-14.9,14.6-34.5,22.6-55.3,22.6c-20.8,0-40.4-8-55.3-22.6
			c-9-8.9-20.9-13.7-33.6-13.7s-24.5,4.9-33.5,13.7c-14.8,14.6-34.5,22.6-55.3,22.6c-20.8,0-40.4-8-55.3-22.6
			c-9-8.9-20.9-13.7-33.6-13.7c-12.6,0-24.5,4.9-33.6,13.7C467.5,1029.6,447.8,1037.6,427,1037.6z"/>
	</g>
	<g>
		<path class="st0" d="M995.3,1256.4h-870c-24,0-43.6-19.5-43.6-43.6c0-24,19.5-43.6,43.6-43.6h870c24,0,43.6,19.6,43.6,43.6
			C1038.8,1236.8,1019.3,1256.4,995.3,1256.4z M125.3,1200.2c-7,0-12.6,5.6-12.6,12.6c0,6.9,5.6,12.6,12.6,12.6h870
			c6.9,0,12.6-5.6,12.6-12.6c0-6.9-5.6-12.6-12.6-12.6H125.3z"/>
	</g>
</g>
<g id="hamburguesa_2_">
	<g>
		<path class="st0" d="M1317.9,483.6C1317.9,483.6,1317.9,483.6,1317.9,483.6l0-31c0,0,0,0,0,0c14.9,0,27.1-12.1,27.1-27.1
			c0-38.1-7.5-75.1-22.2-110c-14.2-33.6-34.6-63.9-60.6-89.8c-26-26-56.2-46.3-89.8-60.6c-34.8-14.7-71.8-22.2-110-22.2H849.6
			c-38.1,0-75.1,7.5-110,22.2c-33.6,14.2-63.9,34.6-89.8,60.6c-26,26-46.3,56.2-60.6,89.8c-14.7,34.8-22.2,71.8-22.2,110
			c0,14.9,12.2,27.1,27.1,27.1l0,31c0,0,0,0,0,0c-32,0-58.1-26-58.1-58c0-42.3,8.3-83.4,24.6-122.1c15.8-37.3,38.4-70.9,67.2-99.7
			c28.8-28.8,62.3-51.4,99.7-67.2c38.7-16.4,79.7-24.6,122-24.6h212.9c42.3,0,83.4,8.3,122,24.6c37.3,15.8,70.9,38.4,99.7,67.2
			c28.8,28.8,51.4,62.3,67.2,99.7c16.4,38.7,24.6,79.7,24.6,122C1376,457.6,1349.9,483.6,1317.9,483.6z"/>
	</g>
	<g>
		<path class="st0" d="M950,750.6h282.7c61.9,0,112.2-50.3,112.2-112.2c0-14.9-12-27-26.9-27.1l-0.3,0c-8.6,0-15.5-7-15.4-15.5
			c0-8.5,7-15.5,15.5-15.5c0.1,0,0.3,0,0.4,0l21,0.1c12.9,0,25-5,34.1-14.2c9.1-9.1,14.2-21.3,14.2-34.2c0-26.7-21.7-48.4-48.4-48.4
			H572.8c-12.9,0-25.1,5-34.2,14.2c-9.1,9.1-14.2,21.3-14.2,34.2l-31,0c0-43.8,35.6-79.4,79.3-79.4h766.4
			c43.8,0,79.4,35.6,79.4,79.3c0,21.2-8.3,41.1-23.2,56.1c-8.3,8.3-18.1,14.5-28.8,18.5c6,9.1,9.5,20.1,9.5,31.8
			c0,79-64.3,143.2-143.2,143.2H959.9 M570.6,580.3"/>
	</g>
	<g>
		<path class="st0" d="M856.3,586.1c14.8-14.6,34.5-22.6,55.3-22.6s40.4,8,55.3,22.6c9,8.9,20.9,13.7,33.6,13.7
			c12.6,0,24.5-4.9,33.6-13.7c14.8-14.6,34.5-22.6,55.3-22.6s40.4,8,55.3,22.6c9,8.8,20.9,13.7,33.6,13.7s24.5-4.9,33.6-13.7
			c14.6-14.4,34.9-23.4,55.8-24.7c22.4-1.4,42.9,5.9,57.8,20.5c6.1,6,6.1,15.8,0.1,21.9c-6,6.1-15.8,6.1-21.9,0.1
			c-8.4-8.3-20.5-12.5-34-11.6c-13.5,0.9-26.6,6.6-36,15.9c-14.9,14.6-34.5,22.6-55.3,22.6c-20.8,0-40.4-8-55.3-22.6
			c-9-8.9-20.9-13.7-33.6-13.7c-12.6,0-24.5,4.9-33.5,13.7c-14.8,14.6-34.5,22.6-55.3,22.6c-20.8,0-40.4-8-55.3-22.6
			c-9-8.9-20.9-13.7-33.6-13.7s-24.5,4.9-33.6,13.7L856.3,586.1z"/>
	</g>
	<g>
		<path class="st0" d="M950.3,762.5H1391c24,0,43.6,19.6,43.6,43.6c0,24-19.5,43.6-43.6,43.6H961v-31H1391c6.9,0,12.6-5.6,12.6-12.6
			c0-6.9-5.6-12.6-12.6-12.6H961.4L950.3,762.5z"/>
	</g>
</g>
</svg>
