<svg id="lupa" xmlns="http://www.w3.org/2000/svg" viewBox="0 0 1500 1500"><defs><style>.cls-1{fill:#404040;}</style></defs><title>Iconos finales</title><path class="cls-1" d="M844.94,1132.2a513.55,513.55,0,0,1-206.22-42.86A526.88,526.88,0,0,1,470.5,972.61a543.16,543.16,0,0,1-113.26-172.9,559.75,559.75,0,0,1,0-423.07A543.16,543.16,0,0,1,470.5,203.74,526.72,526.72,0,0,1,638.72,87a517.59,517.59,0,0,1,412.46,0,526.91,526.91,0,0,1,168.24,116.73,543.25,543.25,0,0,1,113.29,172.9,559.75,559.75,0,0,1,0,423.07,543.25,543.25,0,0,1-113.29,172.9,527.07,527.07,0,0,1-168.24,116.73A513.65,513.65,0,0,1,844.94,1132.2Zm0-1042a467.72,467.72,0,0,0-187.86,39,481.09,481.09,0,0,0-153.59,106.6A497.55,497.55,0,0,0,399.78,394.12a513.87,513.87,0,0,0,0,388.11A497.55,497.55,0,0,0,503.49,940.56a481.09,481.09,0,0,0,153.59,106.6,471.56,471.56,0,0,0,375.74,0,481.17,481.17,0,0,0,153.61-106.6,497.66,497.66,0,0,0,103.73-158.33,513.74,513.74,0,0,0,0-388.11,497.43,497.43,0,0,0-103.73-158.33,481.17,481.17,0,0,0-153.61-106.6A467.78,467.78,0,0,0,844.94,90.15Z"/><path class="cls-1" d="M145.26,1443.61a56.61,56.61,0,0,1-41.52-95.09l370-399.66a23,23,0,1,1,33.75,31.25l-370,399.66a10.67,10.67,0,0,0,1.18,15.59,10.7,10.7,0,0,0,14.48-1.09L526.54,991a23,23,0,1,1,33.75,31.25L186.91,1425.52A56.64,56.64,0,0,1,145.26,1443.61Z"/></svg>