<svg xmlns="http://www.w3.org/2000/svg" viewBox="0 0 1500 1500"><defs><style>.cls-1{fill:#404040;}</style></defs><title>Iconos finales</title><g id="Layer_60" data-name="Layer 60"><path class="cls-1" d="M1338.81,946.4H161.19a65.06,65.06,0,0,1-22.06-126.26l2.13-42.21q0-.58.09-1.17a611.81,611.81,0,0,1,1220.46,62.53,23,23,0,0,1-23,23H161.09a19.06,19.06,0,0,0,.1,38.11H1338.81a19.08,19.08,0,0,0,19-19.06,23,23,0,1,1,46,0A65.12,65.12,0,0,1,1338.81,946.4ZM185.38,816.29h1130A565.84,565.84,0,0,0,187.18,780.84Z"/><path class="cls-1" d="M750,273.48a23,23,0,0,1-23-23V188.71a23,23,0,0,1,46,0v61.77A23,23,0,0,1,750,273.48Z"/><path class="cls-1" d="M1338.81,946.4a23,23,0,0,1,0-46,19.06,19.06,0,0,0,0-38.11,23,23,0,0,1,0-46,65.06,65.06,0,0,1,0,130.11Z"/><path class="cls-1" d="M848.73,1259.88H406a23,23,0,0,1-23-23v-195.8a23,23,0,0,1,8.28-17.68l84.24-70.13A78.93,78.93,0,0,1,525.16,935h.2l242.3,0h.06a51.52,51.52,0,0,1,51.71,50.2c0,.23,0,.47,0,.71a51,51,0,0,1-50.89,50.89H647.7a32.78,32.78,0,1,0,0,65.55H869.44L1081,951.23a58.05,58.05,0,0,1,43.3-10.15l.14,0a58.18,58.18,0,0,1,37.92,23.6c.87,1.2,1.72,2.49,2.6,3.94l.06.11c15.59,26.1,8.44,59.42-16.59,77.87L922.51,1233.23A116.34,116.34,0,0,1,848.73,1259.88Zm-419.73-46H848.69a70.23,70.23,0,0,0,44.51-16.1l226.5-187.08c.4-.33.82-.66,1.25-1,6-4.28,8-11.73,4.63-17.36-.24-.39-.35-.55-.39-.6l-.13-.18a12.28,12.28,0,0,0-17.25-3L895,1140.58l-.13.09a41.61,41.61,0,0,1-24.08,7.65H647.7a78.78,78.78,0,1,1,0-157.55H768.55a4.9,4.9,0,0,0,4.88-4.57A5.42,5.42,0,0,0,767.7,981h0l-242.2,0A32.76,32.76,0,0,0,505,988.62l-76,63.24Z"/><path class="cls-1" d="M402.88,1334.29H184.35a25.8,25.8,0,0,1-25.78-25.78V947.37a25.81,25.81,0,0,1,25.78-25.78,23,23,0,0,1,20.22,34v332.73H382.66V955.56a23,23,0,0,1,20.22-34,25.81,25.81,0,0,1,25.78,25.78v361.14A25.8,25.8,0,0,1,402.88,1334.29Z"/></g></svg>