<svg id="Layer_1" data-name="Layer 1" xmlns="http://www.w3.org/2000/svg" viewBox="0 0 1500 1500"><defs><style>.cls-1{fill:#4a4a4a;}.cls-2{fill:#ea0029;}</style></defs><title>Artboard 4 copy 21</title><path class="cls-1" d="M808.55,596.16a56.44,56.44,0,1,0,67.91,42A56.43,56.43,0,0,0,808.55,596.16Z"/><path class="cls-1" d="M1161.9,529q-4-2.19-8.26-4.07l15.12-58.4a36.59,36.59,0,0,0-26.22-44.6q-1.07-.27-2.13-.48c-29.92-5.89-62.62-4.75-97.22,3.39-34.82,8.2-65.31,25.38-85.83,48.37a117.33,117.33,0,0,0-22.53,36.89q-3.63-2.82-7.4-5.41c-36.64-25.28-80.88-33.57-124.54-23.27a136.33,136.33,0,0,0-53.21,25.19,36.48,36.48,0,0,0-17.56-.21l-68.36,16.09a93,93,0,1,0-169.86,40l-70.75,16.67a36.68,36.68,0,0,0-27.44,28.24l-11.95,58L347,618.79a36.72,36.72,0,0,0-37.09-12.95l-94.41,22.24a36.58,36.58,0,0,0-19.27,59.56l180.31,208a36.48,36.48,0,0,0,36,11.65l53.71-12.64a36.49,36.49,0,0,0,27.06-26.55l41.9-164,30.49,129.48a36.65,36.65,0,0,0,44,27.23l75.22-17.72L704.37,926a36.64,36.64,0,0,0,44,27.24l84.26-19.85a36.63,36.63,0,0,0,27.23-44l-18.79-79.81a152.81,152.81,0,0,0,39.06-4.07c35.88-8.45,66.63-28.24,88.24-56.44,39.88,13.61,83.93,15.9,124.28,6.39,36.67-8.63,68.72-26.25,90.25-49.6,13.9-15.07,23.37-32.13,28.14-50.71s4.8-38.17,0-58.38C1203.78,565.73,1187.24,542.93,1161.9,529Zm-704.08,330L404.11,871.7l-180.24-208,94.41-22.22,85.49,108.26,27.82-134.94L526,592.55Zm227.61-53.6-84.14,19.8L545.42,588a68.57,68.57,0,0,0,84.14-19.81ZM584.35,566.05a56.45,56.45,0,1,1,42-67.9v0A56.69,56.69,0,0,1,584.35,566.05ZM871.77,769.88c-27.37,6.44-57.86,3.35-80.73-13.19l33.21,141.07L740,917.6,656.26,561.88l84.25-19.83,6.32,26.85,1-.21c9.7-27.2,35.72-45.08,63.53-51.58,70.75-16.66,133.7,31,149.71,99C977.1,684.57,942.11,753.31,871.77,769.88Zm212.53-50a190.9,190.9,0,0,1-105.64-6,159,159,0,0,0,13.57-67.44c20,8.17,55.12,16.6,78.91,11.08,10.62-2.49,25.17-11.32,22.13-24.24-4.37-18.53-31-13.26-59-13.94s-57.4-7.47-67.42-50.06c-13.72-58.26,32.9-96.6,84.69-108.8,26.78-6.3,54.6-8.45,81.75-3.1l-15.57,60.29c-14.58-3.9-33.75-4.28-48-.95-9.76,2.29-25.42,10.37-22.58,22.42C1051,555.34,1078,551.44,1090,551c41.16-1.37,75.12,10.13,85.48,54.11C1190.17,667.58,1139.35,706.87,1084.3,719.84Z"/><path class="cls-2" d="M316.08,1289.63A90.36,90.36,0,0,1,228.39,1220L71.91,555.37a90.36,90.36,0,0,1,67.18-108.55l994.09-234a90.27,90.27,0,0,1,108.55,67.14l156.48,664.64a90.36,90.36,0,0,1-67.14,108.55l-5-21.46,5,21.46L337,1287.15A91.47,91.47,0,0,1,316.08,1289.63ZM1154,254.48a46.09,46.09,0,0,0-10.66,1.25l-994.09,234a46.19,46.19,0,0,0-34.34,55.5L271.33,1209.9a46.16,46.16,0,0,0,55.5,34.33l994.09-234a46.19,46.19,0,0,0,34.34-55.5L1198.79,290.06A46.21,46.21,0,0,0,1154,254.48Z"/><path class="cls-2" d="M229,1148.26a22.06,22.06,0,0,1-5-43.54l1126.88-265.3A22.06,22.06,0,1,1,1362.38,882c-.49.13-1,.25-1.49.35L234,1147.66A21.63,21.63,0,0,1,229,1148.26Z"/></svg>