<?xml version="1.0" encoding="UTF-8"?>
<svg width="1454px" height="1589px" viewBox="0 0 1454 1589" version="1.1" xmlns="http://www.w3.org/2000/svg" xmlns:xlink="http://www.w3.org/1999/xlink">
    <!-- Generator: Sketch 51.2 (57519) - http://www.bohemiancoding.com/sketch -->
    <title>noun_House_1319298 Copy 4</title>
    <desc>Created with Sketch.</desc>
    <defs></defs>
    <g id="adomicilio" stroke="none" stroke-width="1" fill="none" fill-rule="evenodd">
        <g id="noun_House_1319298-Copy-4" transform="translate(-23.000000, 0.000000)" fill="#979797" fill-rule="nonzero">
            <g id="Group">
                <g id="Shape">
                    <path d="M310.105252,1522.05882 L1189.89475,1522.05882 C1199.17225,1522.05882 1206.52174,1514.66089 1206.52174,1505.53507 L1206.52174,727.790857 C1206.52174,709.916787 1221.12115,694.852941 1239.13043,694.852941 C1257.26528,694.852941 1271.73913,709.562839 1271.73913,727.708414 L1271.73913,1555.37982 C1271.73913,1573.47435 1257.24503,1588.23529 1239.36566,1588.23529 L260.634339,1588.23529 C243.011808,1588.23529 228.26087,1573.5254 228.26087,1555.37982 L228.26087,727.708414 C228.26087,709.613888 242.860282,694.852941 260.869565,694.852941 C279.004409,694.852941 293.478261,709.599749 293.478261,727.790857 L293.478261,1505.53507 C293.478261,1514.90758 300.922418,1522.05882 310.105252,1522.05882 Z M1271.73913,165.606992 L1271.73913,459.439078 C1271.73913,478.121072 1282.37822,502.997972 1295.50221,515.709639 L1466.14374,680.990109 C1479.38414,693.81453 1479.82628,714.722486 1467.3913,727.941176 C1454.86963,741.252028 1434.25343,741.587099 1421.15009,728.895425 L1230.24744,543.990392 C1217.07106,531.227975 1206.52174,506.102734 1206.52174,487.713597 L1206.52174,214.964623 C1206.52174,205.870775 1199.36104,198.529412 1190.52788,198.529412 L1092.08082,198.529412 C1083.0997,198.529412 1076.08696,206.016601 1076.08696,215.25252 L1076.08696,361.400063 C1076.08696,379.93052 1065.58742,384.503509 1052.63559,371.958585 L761.605608,90.0719272 C755.122047,83.7920614 744.730699,83.9346882 738.23069,90.2304893 L78.6421402,729.096671 C65.4863185,741.839175 45.0436696,741.159867 32.6086957,727.941176 C20.087025,714.630325 20.7398543,693.694433 33.8731924,680.973707 L726.219988,10.378446 C739.540445,-2.52351728 760.570797,-2.41577206 773.610535,10.2142952 L987.25903,217.150574 C1000.32007,229.801275 1010.86957,225.294654 1010.86957,207.130841 L1010.86957,165.241433 C1010.86957,147.323492 1025.42562,132.352941 1043.38142,132.352941 L1239.22728,132.352941 C1256.96621,132.352941 1271.73913,147.241287 1271.73913,165.606992 Z"></path>
                </g>
            </g>
        </g>
    </g>
</svg>