<?xml version="1.0" encoding="UTF-8"?>
<svg width="31px" height="28px" viewBox="0 0 31 28" version="1.1" xmlns="http://www.w3.org/2000/svg" xmlns:xlink="http://www.w3.org/1999/xlink">
    <!-- Generator: Sketch 51.3 (57544) - http://www.bohemiancoding.com/sketch -->
    <title>noun_House_502031</title>
    <desc>Created with Sketch.</desc>
    <defs></defs>
    <g id="Desktop-" stroke="none" stroke-width="1" fill="none" fill-rule="evenodd">
        <g id="Registro-deliverypaso2" transform="translate(-949.000000, -664.000000)" fill="#FFFFFF" fill-rule="nonzero">
            <g id="noun_House_502031" transform="translate(949.000000, 664.000000)">
                <path d="M30.6950032,12.0565333 L16.0099474,0.177422222 C15.8334081,0.0341333333 15.5990988,0.0128 15.475306,0.0128 C15.3515132,0.0128 15.117204,0.0341333333 14.9456881,0.173155556 L11.0894526,3.19751111 L11.0894526,1.26933333 C11.0894526,0.415288889 10.6689159,0 9.80344274,0 L7.66882423,0 C6.33580898,0 6.19156345,0.887822222 6.19156345,1.26933333 L6.19156345,7.14986667 L0.226185621,12.0832 C-0.0508232018,12.3075556 -0.0328822159,12.7100444 0.0665108463,12.9866667 C0.154062858,13.2288 0.466953653,13.5644444 0.827208651,13.5644444 L3.05224973,13.5644444 L3.05224973,26.2542222 C3.05224973,27.0798222 3.68449007,28 4.5912275,28 L26.1394281,28 C27.0171011,28 27.5416955,27.1121778 27.5416955,26.2542222 L27.5416955,13.5644444 L30.2644196,13.5644444 C30.6978738,13.5644444 31,13.1306667 31,12.7416889 C31,12.5788444 30.9354125,12.2336 30.6950032,12.0565333 Z M18.3738517,27.1288889 L12.4712674,27.1288889 L12.4712674,20.5486222 C12.5272432,20.4888889 12.6937356,20.4085333 12.7916934,20.4085333 L18.3501696,20.4010667 C18.3551931,20.4067556 18.3734929,20.4405333 18.3734929,20.5059556 L18.3734929,27.1288889 L18.3738517,27.1288889 Z M26.1394281,27.1288889 L19.25296,27.1288889 L19.25296,20.5066667 C19.25296,19.9452444 18.8754817,19.5377778 18.3555519,19.5377778 L12.7916934,19.5377778 C12.3026221,19.5377778 11.592159,19.9153778 11.592159,20.5066667 L11.592159,27.1288889 L4.5912275,27.1288889 C4.24209592,27.1288889 3.93135804,26.64 3.93135804,26.2542222 L3.93135804,13.5644444 L26.6625872,13.5644444 L26.6625872,26.2542222 C26.6625872,26.6677333 26.4476542,27.1288889 26.1394281,27.1288889 Z M27.2277283,12.6933333 L27.1021414,12.6933333 L3.49180388,12.6933333 L0.901484332,12.6933333 C0.896460856,12.6904889 0.893590299,12.6894222 0.894307938,12.6933333 C0.8917962,12.6865778 0.889643282,12.6787556 0.887849183,12.6705778 L6.9131499,7.68817778 C7.01326061,7.60568889 7.07103058,7.48302222 7.07103058,7.35395556 L7.07103058,1.26933333 C7.07103058,1.08266667 7.07103058,0.871111111 7.66918305,0.871111111 L9.80380156,0.871111111 C10.1841505,0.871111111 10.2107031,0.897066667 10.2107031,1.26933333 L10.2107031,4.09777778 C10.2107031,4.26488889 10.3072256,4.41706667 10.4586475,4.48995556 C10.6107871,4.56284444 10.7909146,4.54328889 10.9229603,4.43946667 L15.4544945,0.884977778 C15.4659767,0.883911111 15.4824824,0.884266667 15.4939647,0.884977778 L30.0914685,12.6933333 L27.2277283,12.6933333 Z" id="Shape"></path>
            </g>
        </g>
    </g>
</svg>