<svg id="svg" version="1.1" width="400" height="526.3157894736842" viewBox="0 0 400 526.3157894736842" xmlns="http://www.w3.org/2000/svg" xmlns:xlink="http://www.w3.org/1999/xlink" ><g id="svgg"><path id="path0" d="M82.105 46.140 C 81.253 47.009,80.635 47.719,80.731 47.719 C 80.828 47.719,81.604 47.009,82.456 46.140 C 83.308 45.272,83.927 44.561,83.830 44.561 C 83.734 44.561,82.958 45.272,82.105 46.140 M318.070 46.667 C 319.021 47.632,319.877 48.421,319.974 48.421 C 320.070 48.421,319.371 47.632,318.421 46.667 C 317.471 45.702,316.614 44.912,316.518 44.912 C 316.421 44.912,317.120 45.702,318.070 46.667 M324.196 52.719 C 325.056 53.636,325.806 54.386,325.863 54.386 C 326.126 54.386,325.847 54.071,324.298 52.617 L 322.632 51.053 324.196 52.719 M74.896 53.421 L 73.509 54.912 75.000 53.525 C 75.820 52.762,76.491 52.091,76.491 52.034 C 76.491 51.769,76.186 52.034,74.896 53.421 M99.279 63.070 L 98.070 64.386 99.386 63.177 C 100.110 62.512,100.702 61.920,100.702 61.861 C 100.702 61.593,100.405 61.845,99.279 63.070 M300.526 63.158 C 301.280 63.930,301.976 64.561,302.072 64.561 C 302.169 64.561,301.631 63.930,300.877 63.158 C 300.123 62.386,299.428 61.754,299.331 61.754 C 299.235 61.754,299.773 62.386,300.526 63.158 M91.911 70.439 L 90.702 71.754 92.018 70.545 C 92.741 69.880,93.333 69.288,93.333 69.229 C 93.333 68.961,93.036 69.214,91.911 70.439 M307.719 70.351 C 308.374 71.026,308.989 71.579,309.085 71.579 C 309.182 71.579,308.725 71.026,308.070 70.351 C 307.416 69.675,306.801 69.123,306.704 69.123 C 306.608 69.123,307.065 69.675,307.719 70.351 M104.715 89.561 L 103.684 90.702 104.825 89.671 C 105.888 88.711,106.126 88.421,105.855 88.421 C 105.795 88.421,105.282 88.934,104.715 89.561 M97.346 96.930 L 96.316 98.070 97.456 97.040 C 98.519 96.079,98.758 95.789,98.487 95.789 C 98.426 95.789,97.913 96.303,97.346 96.930 M277.193 105.724 C 277.193 105.784,277.706 106.297,278.333 106.864 L 279.474 107.895 278.443 106.754 C 277.483 105.691,277.193 105.453,277.193 105.724 M11.743 169.561 L 9.649 171.754 11.842 169.660 C 13.048 168.508,14.035 167.521,14.035 167.467 C 14.035 167.208,13.689 167.524,11.743 169.561 M387.895 169.474 C 388.845 170.439,389.702 171.228,389.798 171.228 C 389.895 171.228,389.196 170.439,388.246 169.474 C 387.295 168.509,386.439 167.719,386.342 167.719 C 386.246 167.719,386.944 168.509,387.895 169.474 M28.931 186.404 L 27.544 187.895 29.035 186.508 C 29.855 185.745,30.526 185.074,30.526 185.017 C 30.526 184.751,30.221 185.017,28.931 186.404 M346.820 186.754 L 345.789 187.895 346.930 186.864 C 347.557 186.297,348.070 185.784,348.070 185.724 C 348.070 185.453,347.781 185.691,346.820 186.754 M52.785 256.930 L 51.754 258.070 52.895 257.040 C 53.958 256.079,54.196 255.789,53.925 255.789 C 53.865 255.789,53.352 256.303,52.785 256.930 M347.193 257.193 C 347.947 257.965,348.642 258.596,348.739 258.596 C 348.835 258.596,348.298 257.965,347.544 257.193 C 346.790 256.421,346.094 255.789,345.998 255.789 C 345.901 255.789,346.439 256.421,347.193 257.193 M370.685 257.281 L 369.298 258.772 370.789 257.385 C 372.176 256.095,372.442 255.789,372.176 255.789 C 372.119 255.789,371.448 256.461,370.685 257.281 M330.175 274.211 C 331.224 275.272,332.160 276.140,332.257 276.140 C 332.353 276.140,331.575 275.272,330.526 274.211 C 329.478 273.149,328.542 272.281,328.445 272.281 C 328.349 272.281,329.127 273.149,330.175 274.211 M12.266 274.474 C 13.126 275.390,13.876 276.140,13.933 276.140 C 14.196 276.140,13.918 275.825,12.368 274.371 L 10.702 272.807 12.266 274.474 M302.259 284.298 L 301.228 285.439 302.368 284.408 C 303.431 283.447,303.670 283.158,303.399 283.158 C 303.339 283.158,302.825 283.671,302.259 284.298 M294.718 291.842 L 293.509 293.158 294.825 291.949 C 296.049 290.823,296.302 290.526,296.034 290.526 C 295.975 290.526,295.383 291.118,294.718 291.842 M76.126 331.316 C 76.986 332.232,77.736 332.982,77.792 332.982 C 78.056 332.982,77.777 332.667,76.228 331.213 L 74.561 329.649 76.126 331.316 M59.825 349.123 C 61.165 350.474,62.341 351.579,62.437 351.579 C 62.534 351.579,61.516 350.474,60.175 349.123 C 58.835 347.772,57.659 346.667,57.563 346.667 C 57.466 346.667,58.484 347.772,59.825 349.123 M132.456 389.123 C 133.407 390.088,134.263 390.877,134.360 390.877 C 134.456 390.877,133.757 390.088,132.807 389.123 C 131.857 388.158,131.000 387.368,130.904 387.368 C 130.807 387.368,131.506 388.158,132.456 389.123 M202.610 389.211 L 201.579 390.351 202.719 389.320 C 203.782 388.360,204.021 388.070,203.750 388.070 C 203.689 388.070,203.176 388.583,202.610 389.211 M42.960 392.719 L 41.930 393.860 43.070 392.829 C 43.697 392.262,44.211 391.749,44.211 391.689 C 44.211 391.418,43.921 391.656,42.960 392.719 M360.000 396.316 C 361.048 397.377,361.985 398.246,362.081 398.246 C 362.178 398.246,361.399 397.377,360.351 396.316 C 359.303 395.254,358.366 394.386,358.270 394.386 C 358.173 394.386,358.952 395.254,360.000 396.316 M342.807 413.158 C 344.050 414.412,345.146 415.439,345.243 415.439 C 345.339 415.439,344.401 414.412,343.158 413.158 C 341.915 411.904,340.819 410.877,340.722 410.877 C 340.626 410.877,341.564 411.904,342.807 413.158 " stroke="none" fill="#313131" fill-rule="evenodd"></path><path id="path1" d="" stroke="none" fill="#373737" fill-rule="evenodd"></path><path id="path2" d="M123.070 17.566 C 121.575 18.330,120.351 19.035,120.351 19.131 C 120.351 19.288,125.930 16.603,126.287 16.275 C 126.784 15.817,125.420 16.364,123.070 17.566 M274.415 16.626 C 274.772 16.954,279.649 19.289,279.649 19.132 C 279.649 18.936,274.893 16.491,274.512 16.491 C 274.378 16.491,274.335 16.552,274.415 16.626 M199.215 23.406 C 199.651 23.490,200.283 23.487,200.618 23.399 C 200.954 23.311,200.596 23.242,199.825 23.246 C 199.053 23.250,198.778 23.322,199.215 23.406 M205.351 23.400 C 205.689 23.488,206.241 23.488,206.579 23.400 C 206.917 23.312,206.640 23.239,205.965 23.239 C 205.289 23.239,205.013 23.312,205.351 23.400 M195.175 52.532 C 195.706 52.612,196.575 52.612,197.105 52.532 C 197.636 52.452,197.202 52.386,196.140 52.386 C 195.079 52.386,194.645 52.452,195.175 52.532 M202.895 52.532 C 203.425 52.612,204.294 52.612,204.825 52.532 C 205.355 52.452,204.921 52.386,203.860 52.386 C 202.798 52.386,202.364 52.452,202.895 52.532 M95.439 66.491 C 94.001 67.939,92.904 69.123,93.000 69.123 C 93.097 69.123,94.352 67.939,95.789 66.491 C 97.227 65.044,98.325 63.860,98.228 63.860 C 98.132 63.860,96.876 65.044,95.439 66.491 M304.211 66.491 C 305.454 67.746,306.550 68.772,306.646 68.772 C 306.743 68.772,305.805 67.746,304.561 66.491 C 303.318 65.237,302.222 64.211,302.126 64.211 C 302.029 64.211,302.967 65.237,304.211 66.491 M139.561 65.815 C 138.201 66.553,138.355 66.807,139.737 66.105 C 141.059 65.432,141.294 65.258,140.848 65.277 C 140.671 65.285,140.092 65.527,139.561 65.815 M259.678 65.748 C 260.036 66.076,264.912 68.412,264.912 68.254 C 264.912 68.058,260.156 65.614,259.775 65.614 C 259.641 65.614,259.598 65.674,259.678 65.748 M135.351 67.920 C 134.039 68.632,134.119 68.928,135.439 68.246 C 136.018 67.946,136.491 67.626,136.491 67.535 C 136.491 67.309,136.454 67.322,135.351 67.920 M196.228 76.041 C 196.759 76.121,197.627 76.121,198.158 76.041 C 198.689 75.960,198.254 75.895,197.193 75.895 C 196.132 75.895,195.697 75.960,196.228 76.041 M201.842 76.041 C 202.373 76.121,203.241 76.121,203.772 76.041 C 204.303 75.960,203.868 75.895,202.807 75.895 C 201.746 75.895,201.311 75.960,201.842 76.041 M279.298 107.465 C 279.298 107.518,280.522 108.742,282.018 110.184 L 284.737 112.807 282.114 110.088 C 279.678 107.562,279.298 107.208,279.298 107.465 M115.943 112.018 L 114.912 113.158 116.053 112.127 C 116.680 111.561,117.193 111.047,117.193 110.987 C 117.193 110.716,116.903 110.955,115.943 112.018 M75.070 129.157 C 74.667 129.947,74.397 130.655,74.471 130.728 C 74.544 130.802,74.948 130.155,75.368 129.291 C 76.324 127.322,76.066 127.206,75.070 129.157 M96.473 139.685 C 95.879 140.862,95.451 141.883,95.521 141.954 C 95.592 142.025,96.154 141.061,96.769 139.813 C 97.385 138.565,97.813 137.544,97.721 137.544 C 97.629 137.544,97.068 138.507,96.473 139.685 M40.093 181.304 C 40.626 181.385,41.415 181.383,41.847 181.300 C 42.278 181.216,41.842 181.150,40.877 181.153 C 39.912 181.156,39.559 181.224,40.093 181.304 M358.338 181.304 C 358.872 181.385,359.661 181.383,360.093 181.300 C 360.524 181.216,360.088 181.150,359.123 181.153 C 358.158 181.156,357.805 181.224,358.338 181.304 M84.695 190.351 C 84.696 192.667,84.753 193.568,84.822 192.355 C 84.890 191.141,84.890 189.246,84.820 188.144 C 84.751 187.042,84.695 188.035,84.695 190.351 M315.214 190.526 C 315.214 192.360,315.273 193.110,315.346 192.193 C 315.418 191.276,315.418 189.776,315.346 188.860 C 315.273 187.943,315.214 188.693,315.214 190.526 M95.473 239.123 C 95.473 239.316,96.010 240.500,96.667 241.754 C 97.323 243.009,97.861 243.877,97.861 243.684 C 97.861 243.491,97.323 242.307,96.667 241.053 C 96.010 239.798,95.473 238.930,95.473 239.123 M303.229 241.236 C 302.809 242.100,302.539 242.807,302.629 242.807 C 302.867 242.807,304.284 239.957,304.126 239.798 C 304.052 239.725,303.648 240.372,303.229 241.236 M40.093 262.357 C 40.626 262.438,41.415 262.436,41.847 262.352 C 42.278 262.269,41.842 262.203,40.877 262.206 C 39.912 262.208,39.559 262.276,40.093 262.357 M358.338 262.357 C 358.872 262.438,359.661 262.436,360.093 262.352 C 360.524 262.269,360.088 262.203,359.123 262.206 C 358.158 262.208,357.805 262.276,358.338 262.357 M283.662 269.211 L 282.632 270.351 283.772 269.320 C 284.399 268.754,284.912 268.240,284.912 268.180 C 284.912 267.909,284.623 268.148,283.662 269.211 M357.816 285.871 C 358.642 285.946,359.905 285.944,360.623 285.869 C 361.342 285.794,360.667 285.733,359.123 285.734 C 357.579 285.736,356.991 285.797,357.816 285.871 M101.053 287.895 C 101.707 288.570,102.322 289.123,102.418 289.123 C 102.515 289.123,102.058 288.570,101.404 287.895 C 100.749 287.219,100.134 286.667,100.038 286.667 C 99.941 286.667,100.398 287.219,101.053 287.895 M146.667 292.103 C 146.667 292.340,149.517 293.758,149.675 293.599 C 149.749 293.526,149.102 293.122,148.238 292.702 C 147.374 292.282,146.667 292.013,146.667 292.103 M195.004 305.160 C 195.441 305.244,196.072 305.241,196.408 305.153 C 196.743 305.066,196.386 304.997,195.614 305.001 C 194.842 305.005,194.568 305.077,195.004 305.160 M203.776 305.160 C 204.212 305.244,204.844 305.241,205.180 305.153 C 205.515 305.066,205.158 304.997,204.386 305.001 C 203.614 305.005,203.340 305.077,203.776 305.160 M265.175 312.481 C 263.864 313.193,263.944 313.489,265.263 312.807 C 265.842 312.508,266.316 312.188,266.316 312.096 C 266.316 311.870,266.278 311.883,265.175 312.481 M194.298 328.669 C 194.732 328.752,195.443 328.752,195.877 328.669 C 196.311 328.585,195.956 328.517,195.088 328.517 C 194.219 328.517,193.864 328.585,194.298 328.669 M204.123 328.669 C 204.557 328.752,205.268 328.752,205.702 328.669 C 206.136 328.585,205.781 328.517,204.912 328.517 C 204.044 328.517,203.689 328.585,204.123 328.669 M159.410 339.912 C 164.007 339.967,171.428 339.967,175.901 339.912 C 180.375 339.856,176.614 339.811,167.544 339.811 C 158.474 339.811,154.814 339.857,159.410 339.912 M193.713 342.238 C 194.072 342.562,196.842 343.856,196.842 343.698 C 196.842 343.499,194.194 342.105,193.815 342.105 C 193.679 342.105,193.633 342.165,193.713 342.238 M96.871 347.151 C 97.229 347.477,100.702 349.116,100.702 348.959 C 100.702 348.761,97.351 347.018,96.971 347.018 C 96.836 347.018,96.791 347.077,96.871 347.151 M223.623 356.754 C 231.887 356.807,245.308 356.807,253.447 356.754 C 261.586 356.702,254.825 356.659,238.421 356.659 C 222.018 356.659,215.358 356.702,223.623 356.754 M322.485 369.959 C 322.843 370.287,327.719 372.622,327.719 372.465 C 327.719 372.269,322.963 369.825,322.582 369.825 C 322.448 369.825,322.405 369.885,322.485 369.959 M223.246 380.614 C 231.496 380.666,244.996 380.666,253.246 380.614 C 261.496 380.561,254.746 380.519,238.246 380.519 C 221.746 380.519,214.996 380.561,223.246 380.614 M126.228 380.949 C 126.662 381.033,127.018 381.218,127.018 381.361 C 127.018 381.504,127.262 381.927,127.561 382.301 C 128.041 382.903,128.040 382.849,127.552 381.842 C 127.157 381.028,126.776 380.715,126.219 380.750 L 125.439 380.797 126.228 380.949 M138.947 393.856 C 138.947 394.096,141.096 395.162,141.256 395.001 C 141.332 394.925,140.844 394.600,140.171 394.279 C 139.498 393.958,138.947 393.768,138.947 393.856 M54.188 415.175 L 53.158 416.316 54.298 415.285 C 54.925 414.718,55.439 414.205,55.439 414.145 C 55.439 413.874,55.149 414.112,54.188 415.175 M0.096 486.667 C 0.096 487.535,0.164 487.890,0.248 487.456 C 0.331 487.022,0.331 486.311,0.248 485.877 C 0.164 485.443,0.096 485.798,0.096 486.667 M23.948 487.193 C 23.952 487.965,24.024 488.239,24.108 487.803 C 24.192 487.366,24.189 486.735,24.101 486.399 C 24.013 486.064,23.944 486.421,23.948 487.193 M375.196 488.246 C 375.198 489.404,375.264 489.835,375.342 489.204 C 375.420 488.574,375.418 487.626,375.338 487.099 C 375.258 486.572,375.194 487.088,375.196 488.246 M399.108 501.228 C 399.108 509.526,399.154 512.871,399.210 508.660 C 399.266 504.450,399.266 497.661,399.210 493.573 C 399.154 489.485,399.108 492.930,399.108 501.228 " stroke="none" fill="#3b3b3b" fill-rule="evenodd"></path><path id="path3" d="M78.410 49.912 L 76.316 52.105 78.509 50.011 C 79.715 48.859,80.702 47.872,80.702 47.818 C 80.702 47.559,80.355 47.875,78.410 49.912 M320.351 48.882 C 320.351 48.942,320.864 49.455,321.491 50.022 L 322.632 51.053 321.601 49.912 C 320.640 48.849,320.351 48.611,320.351 48.882 M101.053 93.158 C 99.615 94.605,98.518 95.789,98.614 95.789 C 98.711 95.789,99.966 94.605,101.404 93.158 C 102.841 91.711,103.939 90.526,103.842 90.526 C 103.746 90.526,102.490 91.711,101.053 93.158 M298.596 93.158 C 299.645 94.219,300.581 95.088,300.678 95.088 C 300.774 95.088,299.996 94.219,298.947 93.158 C 297.899 92.096,296.963 91.228,296.866 91.228 C 296.770 91.228,297.548 92.096,298.596 93.158 M118.070 271.228 C 119.021 272.193,119.877 272.982,119.974 272.982 C 120.070 272.982,119.371 272.193,118.421 271.228 C 117.471 270.263,116.614 269.474,116.518 269.474 C 116.421 269.474,117.120 270.263,118.070 271.228 M281.557 271.316 L 280.526 272.456 281.667 271.426 C 282.294 270.859,282.807 270.346,282.807 270.285 C 282.807 270.014,282.517 270.253,281.557 271.316 M298.596 287.895 C 297.159 289.342,296.061 290.526,296.158 290.526 C 296.254 290.526,297.510 289.342,298.947 287.895 C 300.385 286.447,301.482 285.263,301.386 285.263 C 301.289 285.263,300.034 286.447,298.596 287.895 M39.113 396.579 L 36.667 399.123 39.211 396.676 C 40.610 395.330,41.754 394.186,41.754 394.132 C 41.754 393.875,41.386 394.216,39.113 396.579 M56.294 413.070 L 55.263 414.211 56.404 413.180 C 57.031 412.613,57.544 412.100,57.544 412.040 C 57.544 411.769,57.254 412.007,56.294 413.070 " stroke="none" fill="#3a3a3a" fill-rule="evenodd"></path><path id="path4" d="M185.587 0.142 C 185.505 0.222,184.254 0.397,182.807 0.530 C 179.668 0.818,178.865 0.909,177.018 1.185 C 176.246 1.300,175.140 1.461,174.561 1.541 C 172.472 1.832,170.657 2.121,169.811 2.297 C 169.336 2.396,167.763 2.709,166.316 2.993 C 164.868 3.277,163.347 3.575,162.935 3.656 C 158.302 4.568,141.726 9.515,138.772 10.867 C 138.386 11.044,135.939 12.081,133.333 13.171 C 127.641 15.554,117.290 20.696,113.333 23.106 C 112.658 23.517,111.868 23.962,111.579 24.094 C 111.289 24.226,110.564 24.701,109.967 25.150 C 109.370 25.598,108.789 25.965,108.676 25.965 C 108.399 25.965,99.815 31.879,96.519 34.340 C 93.760 36.401,93.076 36.936,91.813 38.022 C 91.395 38.381,90.350 39.249,89.491 39.951 C 83.114 45.164,74.019 54.382,67.284 62.461 C 65.192 64.969,60.351 71.335,60.351 71.577 C 60.351 71.698,60.075 72.104,59.737 72.478 C 59.041 73.249,55.874 77.968,55.159 79.297 C 54.900 79.779,54.462 80.424,54.186 80.729 C 53.910 81.034,53.684 81.392,53.684 81.526 C 53.684 81.659,53.252 82.436,52.723 83.253 C 52.195 84.069,51.565 85.132,51.323 85.614 C 51.082 86.096,50.341 87.439,49.678 88.596 C 48.407 90.816,45.596 96.399,44.114 99.649 C 42.483 103.223,42.143 104.026,41.059 106.842 C 40.465 108.386,39.841 109.965,39.673 110.351 C 38.876 112.176,35.153 123.803,34.532 126.404 C 34.452 126.741,34.307 127.333,34.211 127.719 C 34.114 128.105,33.956 128.737,33.860 129.123 C 33.570 130.281,33.445 130.859,32.458 135.614 C 31.937 138.123,31.462 140.491,31.402 140.877 C 30.682 145.543,30.187 149.090,29.982 151.053 C 29.817 152.632,29.445 156.911,29.356 158.246 C 29.307 158.991,28.902 159.286,26.667 160.203 C 11.403 166.468,2.485 177.965,0.423 194.035 C 0.101 196.546,0.100 246.844,0.422 249.825 C 2.087 265.235,13.379 279.084,28.158 283.841 C 28.882 284.074,29.494 284.450,29.519 284.676 C 29.544 284.903,29.597 285.482,29.638 285.965 C 29.701 286.723,29.870 287.901,30.366 291.053 C 30.643 292.813,31.788 298.433,32.099 299.561 C 32.193 299.899,32.493 301.044,32.766 302.105 C 34.609 309.257,39.795 321.431,43.753 327.895 C 43.990 328.281,44.297 328.824,44.435 329.102 C 44.574 329.380,45.838 331.275,47.243 333.313 C 48.648 335.350,50.001 337.313,50.250 337.675 C 50.498 338.036,50.860 338.510,51.053 338.727 C 51.246 338.945,52.587 340.544,54.034 342.281 C 57.104 345.967,62.712 351.661,65.965 354.395 C 67.219 355.449,68.325 356.392,68.421 356.491 C 68.518 356.590,69.228 357.139,70.000 357.711 C 70.772 358.283,71.561 358.886,71.754 359.051 C 72.365 359.574,79.492 364.424,80.021 364.676 C 83.654 366.409,83.763 366.919,80.772 368.199 C 77.224 369.717,72.359 372.110,70.000 373.497 C 68.842 374.178,67.500 374.930,67.018 375.168 C 66.060 375.641,54.815 383.069,54.153 383.666 C 53.929 383.869,53.223 384.430,52.585 384.912 C 45.424 390.329,35.953 399.565,29.968 406.969 C 29.600 407.425,29.140 407.977,28.947 408.197 C 28.590 408.604,26.672 411.197,23.463 415.614 C 22.481 416.965,21.593 418.307,21.489 418.596 C 21.385 418.886,20.956 419.596,20.536 420.175 C 20.116 420.754,19.664 421.465,19.532 421.754 C 19.399 422.044,18.988 422.754,18.618 423.333 C 17.334 425.343,13.795 432.200,11.826 436.491 C 9.842 440.816,5.785 452.030,5.098 455.088 C 5.033 455.377,4.633 456.956,4.209 458.596 C 3.786 460.237,3.373 461.974,3.291 462.456 C 3.167 463.184,2.900 464.499,2.259 467.544 C 2.108 468.258,1.723 470.745,1.552 472.105 C 1.454 472.877,1.300 474.061,1.209 474.737 C 1.031 476.056,0.729 479.097,0.494 481.930 C -0.041 488.406,-0.049 514.739,0.483 516.571 C 3.010 525.263,14.882 529.385,20.574 523.547 C 24.053 519.977,24.246 518.691,24.237 499.170 C 24.234 490.460,24.291 482.623,24.365 481.754 C 24.570 479.357,24.863 476.823,25.113 475.263 C 25.238 474.491,25.385 473.544,25.442 473.158 C 25.777 470.854,26.674 466.425,27.217 464.386 C 27.320 464.000,27.471 463.368,27.553 462.982 C 28.117 460.331,30.879 452.172,32.364 448.772 C 33.532 446.099,37.853 437.448,38.761 435.965 C 39.234 435.193,39.879 434.056,40.194 433.437 C 40.509 432.819,40.989 432.128,41.260 431.903 C 41.532 431.678,41.754 431.330,41.754 431.132 C 41.754 430.933,42.268 430.078,42.895 429.233 C 43.522 428.387,44.430 427.164,44.912 426.514 C 45.395 425.865,46.105 424.890,46.491 424.348 C 50.346 418.936,61.004 407.972,65.314 404.983 C 65.769 404.668,66.443 404.132,66.813 403.792 C 67.183 403.451,68.130 402.735,68.918 402.201 C 69.706 401.667,70.430 401.138,70.526 401.025 C 70.623 400.913,71.890 400.044,73.343 399.095 C 76.853 396.801,77.248 396.553,78.070 396.121 C 78.456 395.919,79.404 395.372,80.175 394.906 C 88.054 390.147,102.955 384.395,110.968 383.019 C 111.500 382.927,112.211 382.772,112.547 382.675 C 112.883 382.577,113.768 382.407,114.515 382.297 C 115.261 382.186,115.971 382.035,116.094 381.959 C 116.216 381.884,117.263 381.711,118.421 381.575 C 119.579 381.439,120.921 381.280,121.404 381.222 C 121.886 381.164,123.348 381.021,124.652 380.904 L 127.024 380.692 127.627 382.013 C 129.898 386.983,135.363 392.114,141.329 394.874 C 144.051 396.134,144.978 396.441,148.070 397.105 C 149.634 397.441,185.726 397.453,187.368 397.118 C 190.318 396.517,194.087 395.046,197.386 393.208 C 198.548 392.561,202.554 389.284,203.537 388.177 C 204.982 386.549,208.421 381.363,208.421 380.811 C 208.421 380.288,271.296 380.305,275.088 380.829 C 275.956 380.949,277.377 381.140,278.246 381.252 C 279.114 381.364,280.140 381.505,280.526 381.565 C 280.912 381.625,282.018 381.784,282.982 381.917 C 283.947 382.050,285.763 382.396,287.018 382.685 C 289.232 383.195,289.651 383.294,291.316 383.702 C 291.750 383.809,292.500 383.976,292.982 384.074 C 294.442 384.372,305.077 387.982,306.897 388.797 C 309.319 389.882,318.988 394.653,319.825 395.176 C 320.211 395.417,321.205 396.048,322.035 396.579 C 322.865 397.110,323.624 397.544,323.721 397.544 C 323.882 397.544,327.753 400.104,328.596 400.768 C 328.789 400.920,330.763 402.426,332.982 404.114 C 342.205 411.128,355.558 426.200,359.649 434.211 C 359.846 434.596,360.390 435.544,360.857 436.316 C 363.797 441.174,367.427 449.221,370.032 456.660 C 371.107 459.728,373.537 469.414,373.818 471.754 C 373.935 472.719,374.106 473.891,374.199 474.358 C 374.292 474.826,374.464 476.010,374.581 476.990 C 374.697 477.970,374.870 479.325,374.964 480.000 C 375.058 480.675,375.203 487.544,375.285 495.263 C 375.515 516.889,375.505 516.697,376.618 518.872 C 381.641 528.679,395.926 528.579,398.566 518.719 C 398.932 517.350,399.121 483.798,398.782 480.175 C 398.494 477.093,397.923 472.104,397.739 471.053 C 397.494 469.660,397.190 467.877,397.052 467.018 C 396.974 466.535,396.817 465.746,396.704 465.263 C 396.591 464.781,396.428 463.950,396.342 463.418 C 396.256 462.886,396.103 462.175,396.001 461.839 C 395.900 461.503,395.740 460.833,395.646 460.351 C 395.552 459.868,395.388 459.118,395.281 458.684 C 395.175 458.250,395.022 457.618,394.941 457.281 C 393.355 450.630,387.389 434.984,384.472 429.825 C 383.872 428.763,382.991 427.184,382.514 426.316 C 381.381 424.254,380.611 422.888,380.171 422.164 C 378.964 420.175,375.311 414.604,375.070 414.386 C 374.963 414.289,374.332 413.421,373.666 412.456 C 373.001 411.491,372.369 410.623,372.262 410.526 C 372.155 410.430,371.604 409.719,371.036 408.947 C 370.468 408.175,369.922 407.465,369.821 407.368 C 369.720 407.272,369.189 406.640,368.641 405.965 C 363.721 399.902,354.320 390.596,349.416 386.935 C 348.709 386.407,347.920 385.771,347.662 385.521 C 346.414 384.309,335.761 376.992,333.509 375.799 C 333.123 375.594,332.096 375.019,331.228 374.520 C 329.495 373.526,321.105 369.298,318.596 368.155 C 312.338 365.304,298.915 360.947,292.837 359.794 C 292.435 359.717,291.711 359.572,291.228 359.470 C 290.746 359.369,289.798 359.205,289.123 359.106 C 288.447 359.008,287.500 358.838,287.018 358.729 C 286.535 358.620,285.746 358.475,285.263 358.407 C 283.516 358.159,281.544 357.895,279.825 357.677 C 278.860 357.555,277.518 357.382,276.842 357.292 C 276.167 357.202,260.620 357.056,242.294 356.967 C 223.968 356.878,208.811 356.667,208.610 356.498 C 208.410 356.330,207.934 355.588,207.554 354.850 C 203.885 347.734,195.903 342.065,186.842 340.137 C 185.859 339.928,149.494 339.961,148.421 340.172 C 147.939 340.267,147.228 340.409,146.842 340.488 C 139.244 342.038,130.341 348.958,127.462 355.552 C 127.155 356.255,126.850 356.488,126.410 356.354 C 126.069 356.250,124.921 356.074,123.860 355.962 C 122.798 355.850,121.666 355.680,121.344 355.584 C 120.701 355.392,119.689 355.180,118.070 354.896 C 114.682 354.303,106.899 351.825,103.333 350.204 C 97.965 347.763,93.107 345.177,92.216 344.287 C 91.982 344.052,91.624 343.858,91.421 343.856 C 91.218 343.854,90.108 343.143,88.954 342.277 C 87.800 341.411,86.774 340.699,86.674 340.696 C 86.573 340.693,85.997 340.259,85.393 339.731 C 84.790 339.204,83.684 338.299,82.937 337.722 C 77.151 333.247,69.467 324.392,64.658 316.657 C 59.626 308.563,54.953 295.988,53.838 287.544 C 53.710 286.579,53.550 285.373,53.481 284.863 C 53.367 284.021,53.542 283.867,55.413 283.168 C 65.110 279.541,75.057 270.070,78.189 261.483 C 78.630 260.273,79.119 259.363,79.276 259.460 C 79.540 259.623,82.041 263.654,83.064 265.565 C 83.422 266.233,85.624 269.352,86.941 271.053 C 87.090 271.246,87.595 271.956,88.063 272.632 C 88.531 273.307,89.004 273.939,89.114 274.035 C 89.225 274.132,90.177 275.316,91.231 276.667 C 95.916 282.670,106.453 293.207,112.456 297.891 C 113.807 298.945,114.991 299.898,115.088 300.009 C 115.184 300.119,115.816 300.592,116.491 301.060 C 117.167 301.528,117.877 302.033,118.070 302.182 C 119.859 303.566,122.864 305.665,123.860 306.225 C 124.535 306.606,126.746 307.933,128.772 309.175 C 133.519 312.084,142.875 316.693,148.246 318.768 C 150.561 319.663,153.009 320.612,153.684 320.878 C 154.976 321.387,160.825 323.190,163.509 323.907 C 164.377 324.139,165.246 324.373,165.439 324.427 C 165.632 324.480,166.263 324.619,166.842 324.735 C 167.421 324.851,168.526 325.112,169.297 325.316 C 171.026 325.774,171.763 325.928,173.333 326.157 C 174.009 326.256,174.956 326.426,175.439 326.535 C 176.758 326.835,177.576 326.980,179.123 327.189 C 179.895 327.293,181.158 327.466,181.930 327.574 C 187.030 328.288,191.973 328.557,200.000 328.557 C 209.278 328.557,214.426 328.213,220.965 327.156 C 223.191 326.796,223.298 326.778,224.561 326.544 C 225.237 326.418,226.184 326.252,226.667 326.174 C 227.149 326.096,228.594 325.786,229.876 325.486 C 231.159 325.185,232.580 324.862,233.034 324.768 C 236.571 324.036,245.287 321.306,250.351 319.343 C 254.542 317.719,256.634 316.769,262.721 313.728 C 268.385 310.897,269.163 310.484,271.417 309.110 C 272.196 308.634,273.101 308.088,273.429 307.895 C 274.444 307.296,283.323 301.278,283.509 301.063 C 283.605 300.951,284.395 300.316,285.263 299.652 C 296.651 290.949,308.022 278.748,316.212 266.445 C 319.222 261.923,319.513 261.460,319.963 260.473 C 320.523 259.245,320.944 259.236,321.409 260.443 C 325.532 271.128,334.903 279.923,346.209 283.718 C 347.707 284.221,349.172 284.675,349.466 284.726 C 349.760 284.778,350.632 284.943,351.404 285.094 C 352.175 285.244,353.123 285.420,353.509 285.484 C 354.617 285.669,363.571 285.673,364.737 285.490 C 380.204 283.060,392.460 273.036,397.407 258.772 C 398.076 256.842,398.704 254.711,398.803 254.035 C 398.901 253.360,399.061 252.575,399.158 252.292 C 399.687 250.750,399.825 244.471,399.825 221.754 C 399.825 199.091,399.700 193.639,399.119 190.877 C 399.018 190.395,398.853 189.514,398.753 188.920 C 396.821 177.397,385.100 164.274,373.031 160.121 C 370.844 159.368,370.646 159.017,370.357 155.373 C 370.149 152.747,370.041 151.668,369.677 148.596 C 369.353 145.859,369.128 144.185,368.926 143.011 C 368.824 142.416,368.662 141.456,368.566 140.877 C 368.295 139.251,368.094 138.151,367.895 137.193 C 367.794 136.711,367.636 135.921,367.544 135.439 C 365.679 125.712,359.879 107.966,355.789 99.474 C 355.418 98.702,354.396 96.570,353.520 94.737 C 351.930 91.409,351.013 89.696,348.718 85.767 C 348.050 84.621,347.387 83.447,347.246 83.158 C 346.846 82.336,346.235 81.365,345.000 79.586 C 344.373 78.683,343.852 77.814,343.843 77.656 C 343.833 77.498,343.241 76.553,342.527 75.555 C 338.160 69.460,335.985 66.470,335.804 66.316 C 335.690 66.219,334.734 65.035,333.679 63.684 C 331.523 60.924,331.015 60.337,326.074 54.912 C 316.489 44.388,301.848 32.217,290.850 25.630 C 288.962 24.499,285.132 22.248,283.735 21.448 C 279.432 18.986,268.183 13.608,264.211 12.115 C 263.342 11.788,262.158 11.321,261.579 11.076 C 256.569 8.958,243.163 4.905,237.018 3.652 C 236.632 3.573,235.132 3.277,233.684 2.993 C 232.237 2.709,230.717 2.406,230.308 2.320 C 229.384 2.125,227.291 1.789,225.439 1.538 C 224.667 1.433,223.640 1.287,223.158 1.213 C 222.675 1.139,221.491 0.985,220.526 0.870 C 219.561 0.755,218.219 0.574,217.544 0.468 C 216.087 0.239,185.803 -0.071,185.587 0.142 M211.574 23.668 C 215.616 24.003,219.046 24.391,221.081 24.744 C 221.579 24.831,222.605 24.991,223.362 25.100 C 225.511 25.411,226.329 25.559,229.123 26.140 C 229.605 26.241,230.474 26.406,231.053 26.507 C 231.632 26.609,232.369 26.772,232.691 26.869 C 233.014 26.967,233.606 27.119,234.007 27.208 C 234.775 27.377,235.729 27.611,236.754 27.881 C 237.092 27.970,238.359 28.285,239.570 28.581 C 242.018 29.179,250.719 32.036,252.632 32.869 C 253.307 33.164,254.215 33.547,254.649 33.720 C 256.595 34.497,257.439 34.841,258.421 35.258 C 260.265 36.040,271.699 41.764,273.158 42.635 C 273.930 43.096,274.877 43.638,275.263 43.841 C 276.210 44.337,277.148 44.930,278.485 45.876 C 279.100 46.311,279.703 46.667,279.826 46.667 C 280.019 46.667,282.656 48.392,283.684 49.191 C 283.877 49.341,285.633 50.634,287.586 52.065 C 291.706 55.083,291.591 54.991,296.457 59.120 C 302.573 64.310,309.651 71.652,315.562 78.939 C 318.210 82.204,325.345 92.444,326.080 94.035 C 326.214 94.325,326.633 95.035,327.010 95.614 C 327.975 97.093,328.666 98.393,331.673 104.386 C 334.172 109.366,334.767 110.619,336.420 114.386 C 337.517 116.886,340.209 124.485,341.019 127.368 C 341.426 128.816,341.906 130.474,342.086 131.053 C 342.469 132.282,343.395 135.926,343.647 137.193 C 343.743 137.675,344.057 139.175,344.345 140.526 C 344.633 141.877,344.960 143.620,345.072 144.400 C 345.184 145.180,345.353 146.206,345.448 146.681 C 345.543 147.155,345.700 148.175,345.797 148.947 C 345.894 149.719,346.049 150.904,346.141 151.579 C 346.306 152.778,346.561 155.250,346.811 158.068 L 346.936 159.468 344.785 160.277 C 342.249 161.230,339.540 162.534,338.070 163.508 C 336.685 164.426,336.606 164.406,336.353 163.070 C 335.950 160.940,335.855 160.528,334.937 156.923 C 333.676 151.973,330.795 142.930,329.489 139.825 C 327.545 135.199,326.846 133.681,324.562 129.123 C 322.485 124.977,321.771 123.670,319.651 120.122 C 318.977 118.993,318.345 117.912,318.248 117.719 C 317.719 116.674,310.081 105.815,309.486 105.263 C 309.382 105.167,308.120 103.667,306.683 101.930 C 303.271 97.809,294.008 88.540,290.000 85.236 C 288.263 83.805,286.763 82.550,286.667 82.448 C 286.570 82.346,285.307 81.400,283.860 80.345 C 282.412 79.290,281.070 78.297,280.877 78.138 C 280.309 77.669,271.541 71.930,271.394 71.930 C 271.320 71.930,270.423 71.434,269.401 70.829 C 267.456 69.676,256.678 64.211,256.349 64.211 C 256.245 64.211,255.247 63.799,254.132 63.297 C 253.017 62.795,251.789 62.246,251.404 62.077 C 248.058 60.615,233.159 56.118,229.855 55.572 C 229.116 55.450,226.423 54.905,224.737 54.537 C 223.627 54.294,217.358 53.395,215.088 53.152 C 211.024 52.719,206.416 52.526,200.000 52.520 C 191.288 52.512,186.356 52.834,179.649 53.849 C 177.483 54.177,175.504 54.498,174.912 54.619 C 174.302 54.743,172.661 55.064,169.935 55.592 C 159.207 57.670,140.709 64.808,130.702 70.731 C 129.930 71.188,128.982 71.731,128.596 71.937 C 127.331 72.611,126.547 73.120,121.754 76.376 C 106.788 86.544,93.688 99.736,83.788 114.608 C 80.967 118.845,80.495 119.585,80.123 120.351 C 79.982 120.640,79.399 121.667,78.828 122.632 C 77.130 125.496,73.128 133.624,71.744 137.018 C 71.036 138.754,70.256 140.649,70.012 141.228 C 68.749 144.221,66.774 150.223,65.567 154.737 C 65.335 155.605,65.101 156.474,65.047 156.667 C 64.993 156.860,64.854 157.491,64.739 158.070 C 64.623 158.649,64.361 159.754,64.156 160.526 C 63.951 161.298,63.713 162.313,63.628 162.782 C 63.379 164.144,63.149 164.285,62.197 163.661 C 60.729 162.700,57.512 161.129,55.259 160.274 C 53.307 159.534,53.152 159.395,53.186 158.421 C 53.228 157.204,53.629 153.023,53.875 151.228 C 53.968 150.553,54.120 149.447,54.213 148.772 C 54.306 148.096,54.463 147.149,54.562 146.667 C 54.661 146.184,54.839 145.000,54.956 144.035 C 55.074 143.070,55.229 142.181,55.300 142.058 C 55.371 141.936,55.522 141.226,55.636 140.480 C 56.592 134.197,61.691 118.152,64.971 111.101 C 66.917 106.920,71.863 97.352,72.978 95.614 C 73.349 95.035,73.911 94.056,74.227 93.437 C 74.543 92.819,75.024 92.128,75.295 91.903 C 75.567 91.678,75.789 91.346,75.789 91.166 C 75.789 90.986,76.416 89.939,77.181 88.840 C 80.680 83.815,81.531 82.620,81.725 82.456 C 81.840 82.360,82.585 81.412,83.380 80.351 C 84.176 79.289,85.122 78.085,85.483 77.675 C 85.845 77.264,86.772 76.160,87.544 75.222 C 89.669 72.638,96.770 65.020,97.834 64.183 C 98.350 63.778,99.646 62.631,100.714 61.635 C 101.782 60.639,103.420 59.193,104.354 58.421 C 105.287 57.649,106.334 56.781,106.680 56.491 C 108.207 55.213,108.678 54.840,110.000 53.856 C 110.772 53.281,111.482 52.718,111.579 52.605 C 111.930 52.192,119.902 46.667,120.146 46.667 C 120.285 46.667,120.900 46.311,121.515 45.876 C 122.852 44.930,123.790 44.337,124.737 43.841 C 125.123 43.638,126.070 43.094,126.842 42.631 C 128.467 41.657,139.240 36.243,141.264 35.384 C 142.016 35.065,143.380 34.473,144.294 34.068 C 145.209 33.664,146.119 33.333,146.317 33.333 C 146.514 33.333,146.950 33.177,147.285 32.985 C 148.230 32.445,154.323 30.368,158.421 29.188 C 163.839 27.629,164.784 27.377,165.935 27.186 C 166.595 27.076,167.226 26.931,167.339 26.862 C 167.452 26.793,168.096 26.644,168.772 26.532 C 169.447 26.420,170.395 26.245,170.877 26.143 C 171.360 26.041,172.215 25.873,172.777 25.771 C 173.340 25.668,173.893 25.527,174.006 25.458 C 174.118 25.388,175.079 25.237,176.140 25.123 C 177.202 25.008,178.453 24.838,178.920 24.746 C 179.719 24.589,181.749 24.324,184.561 24.011 C 185.237 23.936,187.368 23.776,189.298 23.655 C 191.228 23.535,192.836 23.410,192.872 23.378 C 193.043 23.226,209.271 23.477,211.574 23.668 M209.298 76.302 C 210.263 76.372,211.763 76.519,212.632 76.627 C 214.975 76.921,217.277 77.233,218.070 77.366 C 218.456 77.431,219.482 77.587,220.351 77.713 C 226.036 78.539,239.254 82.422,244.552 84.821 C 248.174 86.462,256.310 90.530,257.719 91.405 C 258.491 91.884,259.360 92.385,259.649 92.517 C 261.174 93.218,271.228 100.208,271.930 101.057 C 272.026 101.173,272.447 101.502,272.865 101.787 C 276.847 104.503,288.090 115.969,291.208 120.494 C 291.486 120.898,291.820 121.307,291.951 121.404 C 292.778 122.015,299.265 131.923,301.177 135.494 C 302.071 137.165,303.043 138.981,303.336 139.529 C 304.464 141.639,307.018 147.394,307.018 147.827 C 307.018 148.076,307.158 148.431,307.329 148.614 C 308.110 149.452,312.125 162.333,312.791 166.140 C 312.892 166.719,313.057 167.588,313.158 168.070 C 313.491 169.668,314.032 172.792,314.253 174.386 C 314.346 175.061,314.490 176.088,314.572 176.667 C 315.489 183.146,315.489 197.907,314.572 204.386 C 314.490 204.965,314.346 205.991,314.253 206.667 C 314.032 208.261,313.491 211.384,313.158 212.982 C 313.057 213.465,312.892 214.333,312.791 214.912 C 312.128 218.704,308.100 231.660,307.342 232.439 C 307.164 232.622,307.018 232.977,307.018 233.227 C 307.018 233.477,306.557 234.670,305.995 235.876 C 305.432 237.083,304.493 239.096,303.907 240.351 C 301.822 244.817,296.002 254.592,294.023 256.952 C 293.831 257.181,293.093 258.158,292.383 259.123 C 286.527 267.085,275.539 277.871,267.898 283.158 C 260.088 288.562,254.484 291.803,247.719 294.830 C 246.658 295.305,245.000 296.051,244.035 296.488 C 240.784 297.960,229.291 301.614,225.965 302.232 C 225.482 302.322,224.377 302.556,223.509 302.753 C 222.640 302.949,221.292 303.202,220.512 303.315 C 219.733 303.428,218.706 303.598,218.232 303.693 C 217.757 303.788,216.737 303.945,215.965 304.042 C 215.193 304.139,214.009 304.294,213.333 304.386 C 207.152 305.231,192.848 305.231,186.667 304.386 C 185.991 304.294,184.807 304.139,184.035 304.042 C 183.263 303.945,182.243 303.788,181.768 303.693 C 181.294 303.598,180.267 303.428,179.488 303.315 C 178.708 303.202,177.360 302.949,176.491 302.753 C 175.623 302.556,174.518 302.324,174.035 302.237 C 170.726 301.638,159.571 298.090,155.877 296.462 C 149.959 293.853,148.227 293.011,143.333 290.366 C 141.135 289.177,133.582 284.381,132.522 283.500 C 132.293 283.310,130.903 282.247,129.434 281.138 C 120.145 274.130,110.366 263.707,104.009 254.039 C 101.638 250.433,100.773 249.068,100.339 248.246 C 100.136 247.860,99.498 246.754,98.922 245.789 C 97.650 243.660,95.179 238.566,93.006 233.597 C 91.195 229.455,87.943 218.972,87.235 214.997 C 87.140 214.465,86.983 213.754,86.885 213.418 C 86.788 213.082,86.617 212.196,86.507 211.450 C 86.397 210.704,86.245 209.994,86.170 209.871 C 86.095 209.749,85.922 208.702,85.786 207.544 C 85.649 206.386,85.489 205.044,85.430 204.561 C 84.501 197.045,84.501 184.007,85.430 176.491 C 85.489 176.009,85.649 174.667,85.786 173.509 C 85.922 172.351,86.095 171.304,86.170 171.181 C 86.245 171.059,86.397 170.349,86.507 169.602 C 86.617 168.856,86.788 167.971,86.885 167.635 C 86.983 167.299,87.140 166.588,87.235 166.056 C 87.933 162.133,91.277 151.370,93.008 147.476 C 93.420 146.548,94.096 145.000,94.510 144.035 C 95.726 141.202,99.070 134.781,100.358 132.807 C 100.736 132.228,101.155 131.518,101.290 131.228 C 104.115 125.149,118.110 108.822,125.088 103.464 C 125.667 103.019,126.219 102.569,126.316 102.463 C 126.603 102.146,128.568 100.579,129.623 99.825 C 130.162 99.439,130.787 98.951,131.010 98.741 C 131.622 98.164,138.138 93.684,138.364 93.684 C 138.473 93.684,139.240 93.250,140.070 92.719 C 142.553 91.131,142.782 91.005,148.136 88.280 C 155.347 84.608,166.276 80.488,171.405 79.506 C 171.792 79.432,172.739 79.204,173.510 79.000 C 174.281 78.795,175.386 78.543,175.965 78.440 C 176.544 78.337,177.412 78.167,177.895 78.061 C 179.281 77.759,181.859 77.344,184.386 77.016 C 185.158 76.916,186.342 76.758,187.018 76.664 C 187.693 76.571,189.825 76.400,191.754 76.286 C 193.684 76.171,195.328 76.014,195.407 75.936 C 195.554 75.791,206.118 76.069,209.298 76.302 M43.860 181.508 C 50.693 183.171,55.961 188.104,57.339 194.132 C 57.718 195.790,57.598 248.322,57.211 249.756 C 54.951 258.152,46.342 263.507,37.544 261.989 C 31.814 261.001,25.344 254.757,24.394 249.298 C 23.918 246.564,24.198 194.510,24.696 193.098 C 26.743 187.296,32.241 182.369,37.550 181.578 C 38.415 181.449,39.202 181.262,39.298 181.161 C 39.465 180.988,42.745 181.237,43.860 181.508 M362.396 181.545 C 368.523 182.894,373.875 187.876,375.440 193.688 C 376.060 195.993,375.936 248.618,375.306 250.404 C 369.760 266.123,348.485 266.123,342.939 250.404 C 342.325 248.662,342.184 195.997,342.788 193.753 C 344.353 187.942,350.273 182.401,355.796 181.578 C 356.661 181.449,357.447 181.262,357.544 181.161 C 357.725 180.973,360.957 181.228,362.396 181.545 " stroke="none" fill="#3e3e3e" fill-rule="evenodd"></path></g></svg>