<?xml version="1.0" encoding="utf-8"?>
<!-- Generator: Adobe Illustrator 22.1.0, SVG Export Plug-In . SVG Version: 6.00 Build 0)  -->
<svg version="1.1" xmlns="http://www.w3.org/2000/svg" xmlns:xlink="http://www.w3.org/1999/xlink" x="0px" y="0px"
	 viewBox="0 0 1500 1500" style="enable-background:new 0 0 1500 1500;" xml:space="preserve">
<style type="text/css">
	.st0{display:none;}
	.st1{display:inline;}
	.st2{fill:#FFFFFF;}
</style>
<g id="Capa_2" class="st0">
	<g class="st1">
		<rect x="0.5" y="0.5" width="1499" height="1499"/>
		<path class="st2" d="M1499,1v1498H1V1H1499 M1500,0H0v1500h1500V0L1500,0z"/>
	</g>
</g>
<g id="Capa_1">
	<g>
		<path class="st2" d="M1070.7,1411.6c-1.9,0-3.8-0.4-5.6-1.4c-6.8-3.6-12.5-6.4-20.8-10.5c-5.4-2.6-8-8.8-6.2-14.5
			c7-21.8,13.1-40.6,20.5-63.4c-6.1-10.7-13.5-23.5-21.8-37.7c-0.5,0.2-1,0.4-1.4,0.6c-5.4,11.3-10.6,22.9-15.6,34.1
			c-7.5,16.8-15.3,34.1-23.8,50.7c-3.8,7.2-10.2,11.4-17.7,16.2c-3.7,2.4-7.9,5.1-12.5,8.6c-3.6,2.7-8.4,3.2-12.4,1.3
			c-4-1.9-6.7-5.9-6.8-10.4c-1.4-39.8,12.7-71.6,26.3-102.3c10.1-22.9,19.7-44.6,22.9-68.9c-5.7-9.9-12.2-21.2-19.5-34
			c-3.4-5.9-6.9-12.1-10.7-18.6c-5.3,5-9.4,9.1-11.9,13.3c-17.6,31.9-35.2,64.7-52.1,96.4c-9.2,17.1-18.7,34.9-28.1,52.3
			c0,0,0,0.1-0.1,0.1c-1,1.8-2,3.7-3,5.6c-6.2,12-13.9,26.8-31.9,31.2c-2.4,0.6-4.9,0.4-7.2-0.5c-9.1-3.6-15.2-9.1-18.3-16.4
			c-3-7.1-2.6-15.4,1-23.8c0,0,0-0.1,0.1-0.1c7.9-17.8,17-35.3,25.9-52.3c1.3-2.5,2.6-5,3.9-7.6c0,0,0-0.1,0.1-0.1
			c17.4-32.6,34.3-64.7,52.3-98.6c10.5-19.9,21.2-40,32-60.5c-11.7-20.7-23.7-41.6-35.2-61.2c-7.3,1.1-10.6,5.8-15.5,12.6
			c-1.7,2.4-3.5,4.9-5.5,7.2c-9.8,12.1-19.6,24.7-29,36.8c-11.3,14.6-23,29.8-35.2,44.4c-0.2,0.2-0.3,0.4-0.5,0.5
			c-5.6,6-12.9,9.4-19.3,12.4c-2.1,1-4.1,1.9-5.7,2.8c-4.5,2.5-10.1,1.9-13.9-1.6c-14.9-13.5-17-29.8-5.6-44.8
			c10.4-14.4,21.2-28.6,31.7-42.4c7.1-9.3,14.4-18.9,21.4-28.4c0,0,0.1-0.1,0.1-0.1c11.7-15.3,24.5-32.4,39-51.9
			c-21.1-53.5-46-95.7-74.4-126c-1.3,10.5-0.8,21.2-0.3,32.1c0.1,3,0.3,6,0.4,9c0,0,0,0.1,0,0.2c0.3,13.7,1.9,27.7,3.5,41.2
			c0.8,7.2,1.7,14.7,2.4,22c0.4,3.9-1.2,7.7-4.2,10.2c-13.3,11.2-20.6,17.4-30.9,18.2c-10.1,0.8-18.6-4.2-34-13.1
			c-4.3-2.5-6.6-7.3-5.8-12.2c0.8-5.2,1.6-10.5,2.4-15.7c4.9-31.1,10-63,6.8-95c-21.3,18.7-32.7,39.9-76.1,124.8
			c7.7,17.4,20.5,32.8,34,49.1c8.2,9.9,16.8,20.2,24.2,31.2c4.6,6.7,9.6,13.3,14.3,19.8c8.2,11.1,16.7,22.6,24.2,34.7
			c4.5,7,2.9,14.9,1.4,22.6c-0.6,3.2-1.3,6.5-1.7,10.2c-0.4,4-2.8,7.5-6.3,9.3c-3.5,1.9-7.7,1.9-11.3,0
			c-33.2-17.7-53-45.1-72.2-71.5c-12.9-17.7-25.1-34.6-41-48.5c-16.4,16.7-26,38.4-36.2,61.1c-0.3,0.6-0.5,1.2-0.8,1.8
			c8.6,16.1,17.2,32.2,25.8,48.2c21.4,39.9,43.4,81.2,65,121.9c0,0.1,0.1,0.2,0.1,0.3c10.4,20.9,18.1,38.4,24.1,54.9
			c2.8,8-1.1,15-5,21.7c-1.7,3-3.6,6.3-5.3,10.2c-1.7,3.8-5.2,6.4-9.2,7c-4.1,0.6-8.2-0.9-10.8-4.1c-30.3-35.3-50.8-75.3-70.6-113.9
			c-15-29.3-30.5-59.4-50.1-87.1c-15.2,18.6-25.5,36.5-32.1,55.4c2.9,22.6,12.4,43.4,22.4,65.3c13.9,30.5,28.3,62.1,26.4,101.6
			c-0.2,4.1-2.5,7.9-6.1,9.9s-8,2-11.6,0.1c-32.2-17.5-42.5-45.3-51.6-69.7c-4.8-12.8-9.3-25.1-16.7-34.7c-5.5,4-8.8,6.7-11.5,10.1
			c-3.8,4.6-7.4,11.4-13.9,24c6,18.3,12.6,38,18.9,57.2l1,3.1c1.6,4.9,0,10.2-4.1,13.4c-1.1,0.8-2.2,1.6-3.1,2.4
			c-4.4,3.4-7.9,6-12.3,8.9c-2.9,1.9-6.5,2.4-9.9,1.5c-18.7-5.4-25.8-19.8-32-32.5c-3.6-7.5-7.1-14.6-12.8-20
			c-16.3-1.5-39.8-3.6-67.2-5.6c-3.7-0.3-7.1-2.2-9.1-5.3c-2-3.1-2.6-7-1.4-10.5c11-32.3,36.5-34.6,55.2-36.3
			c9.8-0.9,18.2-1.6,23.6-5.7c1.4-2.1,2.8-4.1,4.2-6.2c5-7.2,10.1-14.7,14.2-21.9c1.6-3.1,2.6-6.9,3.6-10.9
			c-0.1-0.2-0.3-0.3-0.4-0.5c-14.9,1.4-30.1,3.1-44.8,4.7c-15.2,1.7-31,3.5-46.6,4.9c-11.8,1.1-21.2-1.3-27.8-7.4
			c-6.5-5.9-9.8-14.5-9.8-25.7c0-4.4,2.4-8.4,6.2-10.5c28.2-15.4,59-18.1,88.9-20.7c25.6-2.2,52-4.5,76.3-15
			c1.7-2.7,3.5-5.4,5.4-8.2c8.8-13.3,17.9-27,24.1-44.3c-0.9-0.1-1.8-0.2-2.7-0.3c-10.4-1-19.4-1.9-28.1-1.9
			c-28.3,0.8-57.1,1.6-84.9,2.5c-28.2,0.9-57.3,1.8-86,2.5c-0.8,0-1.7,0-2.5,0c-27.6,0-34.3-17-35.8-27.4c-0.4-3,0.3-6,2-8.5
			c0.5-0.7,0.9-1.5,1.4-2.4c1.6-3,5-9.1,12.5-9.5c43.6-3.6,88.1-7.2,131-10.6c42.5-3.4,86.4-7,130.1-10.5
			c15.4-18.7,26.3-37.5,34.6-59.3c-33-6.3-65.1-10.6-96.4-14.8c-14.9-2-30.4-4.1-45.6-6.3c-4.2-0.6-7.8-3.5-9.4-7.4
			c-1.4-3.6-2.7-7-4.2-10.6c-1.5-3.7-3-7.7-4.9-12.5c-1.3-3.3-1.1-6.9,0.6-10s4.6-5.3,8-6.1c36.7-8.1,71.6-2.3,105.5,3.3
			c26.3,4.4,53.4,8.9,81,6.6c18.8-27,35-56.4,52.1-87.5c3.5-6.4,7.1-12.9,10.8-19.5c-1.1,0.9-2.4,2-3.8,3.3c-3.5,3-7.4,6.5-12.4,8.8
			c-9.6,4.3-23.6,9.2-36,2.7c-14.1-7.5-19.2-26.6-22.3-44.4c-0.9-5.4,1.9-10.8,6.9-13c4-1.8,8.1-3.6,12.1-5.3
			c8.3-3.6,16.9-7.3,25.1-11.5c5.1-2.6,10.1-5.5,15.3-8.7c-33.9-7.9-74.1-8-151.6-1.6c-2.3,4.6-4.6,9.4-7.1,14.3
			c-5.6,11.3-11.5,23-16.8,34.9c-5.9,12.8-11.6,26-17.2,38.7c-8,18.2-16.2,37.1-25,55.3c-0.1,0.1-0.1,0.2-0.2,0.4
			c-3.9,7.5-10.9,11.6-18.3,15.9c-3.3,1.9-6.7,3.9-10.2,6.4c-3.3,2.3-7.5,2.8-11.2,1.4s-6.5-4.6-7.4-8.5c-7.5-32,3.6-54.6,13.4-74.6
			c3.5-7.1,6.8-13.8,9-20.5c0,0,0-0.1,0-0.1c5.7-16.8,12.1-33.1,18.9-50.3c1.9-4.7,3.8-9.5,5.6-14.4c-3.6-1.3-6.5-2.2-8.8-2.3
			c-15.2-0.5-30.4-0.4-46.5-0.3c-5.2,0-10.6,0.1-16,0.1c-21.8,29.6-41.4,61-60.4,91.4c-11.8,18.9-24,38.4-36.5,57.2
			c-2.5,3.8-5.1,7.7-7.6,11.5c-10.9,16.6-22.2,33.7-34.5,49.4c-6.1,8-16.7,8.5-24.4,8.9c-1.2,0.1-2.3,0.1-3.2,0.2
			c-7.4,1.1-12-4.3-14.5-7.3c-0.9-1.1-2-2.4-3.3-3.7c-3.5-3.5-4.4-8.8-2.5-13.3c16.6-37.7,39.7-72.6,62-106.3
			c17.4-26.3,35.4-53.5,50.1-81.8c-22.8-9-27.6-8.8-64.6-4.2c-17.2,14.2-30.7,32.3-44.9,51.5c-19.5,26.3-39.7,53.5-71.7,73.8
			c-3.5,2.2-7.8,2.5-11.5,0.8c-3.7-1.7-6.3-5.2-6.8-9.3c-5.1-37.8,15.1-61.7,32.8-82.7c9.7-11.5,19-22.4,24-35.1
			c-15.1-0.9-28.8-1.6-39.1-2c-9.1,4.8-15.6,12.9-22.4,21.5C57.7,803,43.9,820.3,17,817.7c-5-0.5-9.2-4.1-10.4-9
			c-5.5-21.7,2.8-33.8,8.8-42.7c1.3-1.9,2.5-3.6,3.4-5.3c0.1-0.1,0.1-0.2,0.2-0.3c3.5-5.9,6.8-12.1,10.6-19.2
			c0.5-0.8,0.9-1.7,1.4-2.6c-9.3-16.8-18.8-34-29.4-53.3c-1.6-3-1.9-6.5-0.8-9.7c1.1-3.2,3.5-5.8,6.6-7.1c2.6-1.1,5.3-2.5,7.9-3.9
			c8-4.1,17-8.8,24.6-2.2c13.5,12,26.3,24.8,41,39.7c2.1,2.1,4.2,4.2,6.4,6.4h43.3c-2.8-6.1-5.3-11.2-8.4-15.7
			c-6.8-9.8-14.3-19.7-21.5-29.2c-8.8-11.6-17.9-23.7-26.3-36.1c-5-7.3-6.5-15.4-4.2-22.9c1.8-6,7-14.2,21.3-19.7
			c3.8-1.5,8.1-0.9,11.4,1.5c24.5,17.9,42.1,42.1,59.1,65.5c14.6,20.2,29.8,41,49.1,57.2c3.1,0.2,6.2,0.5,9.2,0.8
			c18.5,1.6,36.1,3.2,55-1.8c-3.8-14-11.9-26-20.4-38.5c-4.1-6.1-8.4-12.4-12.2-19c-7.5-12.4-15.6-24.9-23.4-36.9
			c-6.6-10.2-13.4-20.8-20-31.4c0,0,0-0.1-0.1-0.1c-3.3-5.5-6.9-10.9-10.7-16.6c-11.7-17.4-23.7-35.4-29.1-59.5
			c-0.7-3.1-0.1-6.4,1.6-9.1c1.7-2.7,4.4-4.6,7.5-5.3c2.4-0.5,5.1-1.3,7.6-2.1c8.5-2.6,17.3-5.2,24.2,0.9c0.1,0.1,0.2,0.2,0.4,0.3
			c9.8,9.4,19.3,21.1,29.2,35.8c0,0.1,0.1,0.1,0.1,0.2c12.7,19.7,25.5,39.8,37.8,59.2c16.2,25.4,32.9,51.7,49.6,77.4
			c0,0,0.1,0.1,0.1,0.1c7,11.1,15,22.2,22.7,32.9c2.4,3.3,4.8,6.7,7.2,10.1c25.2,5.3,49.1,4.3,70,1.7c-2.3-21.9-11.8-41.6-21.8-62.2
			c-13.4-27.8-27.3-56.5-22.2-91.1c0,0,0-0.1,0-0.1c1.3-8,8.6-10.1,11.8-11c0.3-0.1,0.6-0.2,0.8-0.2c1.4-0.6,2.9-0.9,4.5-0.9
			c0.4,0,1.1-0.1,1.8-0.1c3.3-0.3,8.7-0.9,13.5,2.8c5,3.6,10.4,8.2,13.6,14.8c0,0.1,0.1,0.1,0.1,0.2c15.5,34.2,30.5,67.9,46.4,103.6
			c5.9,13.2,11.8,26.4,17.7,39.8c49.4,8.8,97,6.5,141.8,1.4c-18.1-16.5-39-25.8-59.3-34.9c-9.6-4.3-19.5-8.7-28.8-13.8
			c-3.3-1.8-5.5-5-6.1-8.7c-2.5-16.1-4-25.8,0.7-35c4.5-8.8,13-13.9,28.4-23c4.3-2.5,9.7-2.2,13.6,0.9c3,2.3,5.9,4.7,8.9,7.1
			c23.8,19,48.2,38.5,76.7,52.6c-10.8-33.9-30.4-67.4-70.9-123.7c-44.2,2.4-91.5,8.6-129.8,13.6c-11.1,1.5-25.7,2.8-39.8,0.6
			c-8.6-1.1-13.1-8.7-16.7-14.8c-1.4-2.4-2.9-4.8-4.4-6.8c-2.1-2.8-2.9-6.3-2.2-9.7s2.8-6.3,5.9-8.1c28.8-16.2,59.4-18.8,89-21.3
			c23.1-2,45.1-3.8,65.9-11.8c-6.3-22.1-19.5-40.3-34.6-60.6c-3.7-0.4-7.5-0.8-11.1-1.2c-13.1-1.4-26.7-2.9-40-3.5
			c-31.8-1.2-64.3-2.1-95.8-3.1c-29.6-0.9-60.3-1.7-90.4-2.9c-6.3-0.2-15.7-1.2-23.5-6.5c-8.3-5.7-13-14.8-13.8-26.9
			c-0.3-4,1.5-8,4.7-10.4c20.5-15.5,42.6-12.8,62.1-10.5c7.7,0.9,14.9,1.8,21.8,1.6c16.7-0.6,33.5,0.1,49.8,0.9
			c10.7,0.5,21.7,1,32.4,1.1c6.7,0.1,13.5,0.4,20,0.7c15.7,0.7,31.8,1.4,48.3-0.7c-4.8-17.1-14-30.9-24.3-46.6
			c-2.6-3.9-5.3-8-8-12.2c-6.3-0.9-12.6-1.8-19-2.7c-36.5-5.2-74.3-10.6-111.8-16.4c-11.8-1.8-33.7-5.1-37.7-34.4
			c-0.8-5.6,2.4-10.9,7.7-12.9c29.1-10.9,57.7-6.3,85.3-1.9c12.5,2,24.5,3.9,36.4,4.5c-1.2-12-7.9-20.9-15.4-31
			c-1.9-2.5-3.8-5.1-5.6-7.7c-6.7-4-15.1-4.8-24.8-5.7c-16.9-1.6-38-3.6-52.5-25.8c-3.4-5.2-2.3-12.1,2.6-16c1.2-1,2.6-2.4,4-3.8
			c4.3-4.4,9.7-9.9,17.8-10.6c13-1.2,25.7-0.9,36.8-0.7c3,0.1,5.8,0.1,8.5,0.1c7.2-3.8,11.6-11.2,16.5-19.6
			c8.8-14.9,19.8-33.5,49.9-34.5c3.8-0.1,7.3,1.5,9.7,4.5s3.2,6.8,2.3,10.4c-2.1,8.6-4.2,16.9-6.3,24.8c-4,15.7-7.8,30.6-11.2,45.5
			c2,13.4,8.1,25.3,19.3,37.3c11.6-14.7,18-31.4,24.7-48.8c5-12.9,10.1-26.2,17.4-38.6c9.9-17.1,25.6-20.7,44.4-10.3
			c3.4,1.9,5.6,5.3,6.1,9.1c2.6,22.9-6.7,42.6-15.7,61.7c-3.7,7.9-7.3,15.4-9.9,23c-7,19.9-15,39.2-23.6,59.6
			c-1.6,3.8-3.2,7.7-4.8,11.6c10.7,17.6,22.5,37.2,33.7,55.7c5.9-1.6,8.1-5.9,11.8-12.8c0.6-1.1,1.1-2.1,1.7-3.1
			c17.7-32.5,35.6-65.7,52.8-97.8c10.1-18.8,20.6-38.3,30.9-57.5c5.8-10.9,15.4-29.1,39.4-26.4c2.4,0.3,4.6,1.2,6.4,2.7
			c20.5,17.2,9.3,38.5,4.6,47.6c-14.4,27.4-29.2,55.2-43.6,82.1c-11.8,22.1-24,44.9-35.9,67.5c-8.7,17.1-17.2,34.2-25.4,50.7
			c-1.3,2.7-2.6,5.3-3.9,7.9c8.2,23.8,21.1,42.8,34.7,62.7c12.5-10.6,21.5-22.8,30.9-35.5c6-8.1,12.1-16.4,19.1-24.1
			c0-0.1,0.1-0.1,0.1-0.2c4.8-5.1,9-11,13.5-17.2c11.5-16,24.5-34.2,50.3-41.8c3.2-0.9,6.6-0.5,9.4,1.1c2.9,1.6,4.9,4.4,5.7,7.6
			c0.5,2.1,1.4,4.6,2.3,6.9c2.4,6.5,5.5,14.7,1.4,22.4c-8.3,15.5-18.7,29.8-29.6,44.3c-23.2,30.6-47,61.3-69.5,90.4
			c19.7,40.7,43,81.1,70.9,122.5c0,0,0-0.1,0-0.1c0.3-5.6-0.9-12.1-3.2-25.1c-0.6-3.5,0.3-7.1,2.6-9.9c0.9-1,1.9-2.6,3-4.4
			c3.5-5.5,7.9-12.3,15.9-15c14.8-5.4,28.7-4.7,39.2,1.7c8.9,5.5,14.6,14.8,16,26.1c0,0.1,0,0.1,0,0.2c0.6,5.6,0.8,11.1,0.8,16.7
			c13.3-22,26.4-44,40.2-67c8.1-13.6,16.4-27.4,24.8-41.5c-2.1-2.9-4.1-5.8-6.1-8.6c-10.9-15.4-21.3-30-32-44.7
			c-5.5-7.3-11.2-14.7-16.8-21.9c-13.7-17.8-27.9-36.3-40.8-55.3c-0.1-0.1-0.1-0.2-0.2-0.2c-4.6-7.1-4.6-15.4-4.6-24.9
			c0-4,0-8.6-0.4-13.6c-0.3-4.4,1.9-8.6,5.6-11c3.8-2.3,8.5-2.4,12.3-0.2c34.6,19.9,55.3,48,75.3,75.2c12.5,17,24.5,33.3,39.2,46.4
			c3-2.5,5.5-4.7,6.7-6.5c6.8-11.1,13.3-22.4,20.1-34.3c3.6-6.3,7.3-12.7,11.2-19.5c-25.3-47.7-49.9-94.8-68.7-130.8
			c-4.1-7.7-8.3-15.6-12.4-23.3c-10.8-20.2-22-41-31.8-62.1c-3.7-7.8-2.9-16.1-2.2-24.1c0.3-3,0.5-6.2,0.5-9.2c0-4.3,2.3-8.2,6-10.4
			c3.7-2.1,8.3-2.2,12,0c32.2,18.5,33.9,21.7,77.7,103.1c6.6,12.1,13.2,24.3,19.8,36.4c10.2,18.8,20.7,38.1,31.2,57.6
			c12.8-7.3,18.1-18.9,23.6-31.1c3.2-7.1,6.5-14.3,11.4-20.6c-2.3-24.7-12.5-46.1-23.2-68.8c-13.4-28.3-27.3-57.6-23.4-92.5
			c0.1-0.8,0.2-1.5,0.5-2.2c1.8-5.9,6.6-8.1,10.5-9.8c1.4-0.6,2.9-1.3,4.6-2.2c3.1-1.6,6.8-1.8,10.1-0.5
			c20.2,8.2,26.6,26.3,31.7,40.8c2.1,6,4.1,11.6,6.8,16.2c0,0,0,0.1,0.1,0.1c7.4,13.1,13.4,26.4,19.8,40.6c1.1,2.4,2.2,4.8,3.3,7.3
			c10.2-8.4,14.3-19.3,19-31.5c0.4-1,0.8-2,1.2-3c2.9-7.5-0.3-15.2-5.8-27.1c-6.6-14.3-15.7-33.9-2.4-54.7c2.2-3.5,6-5.5,10.1-5.5
			c2.2,0,4-0.1,5.7-0.2c4.1-0.2,11.6-0.7,15.7,5.7c7.9,10.3,15.7,20.7,23.3,30.8c4,5.3,8,10.6,12,15.9c17.7,1.1,34.4,1.9,50.6,2.7
			l7.8,0.4c4.8,0.2,9,3.3,10.7,7.9c3.8,10.6,3.8,19.8-0.2,27.4c-3.6,7-10.2,12-19.1,14.4c-0.1,0-0.2,0-0.3,0.1
			c-13.6,3.4-27.4,5.6-40.8,7.7c-4,0.6-7.9,1.3-11.6,1.9c-1.7,2.3-3.5,4.5-5.2,6.7c-8.9,11.4-15.9,20.3-17,32.5
			c12.6-0.7,25.4-2.5,37.8-4.3c25-3.5,50.8-7.1,76.8-2.6c4,0.7,7.3,3.3,8.9,7c4.8,11.1,5,20.7,0.7,28.5
			c-4.3,7.9-12.7,12.8-24.7,14.7c-33.6,5.4-66.7,10.2-101.7,15.2c-11.7,1.7-23.5,3.4-35.4,5.1c-14.4,18.3-26,35.9-33.9,58.3
			c0.5,0.1,1,0.1,1.5,0.2c7.8,1.1,14.5,2.1,20.8,1.9c23-0.6,46.4-1.3,69-2.1c30.9-1,62.9-2.1,94.5-2.6c10.2-0.3,20.3,1.5,31,3.5
			c5.2,0.9,10.6,1.9,16.3,2.7c4.1,0.6,7.7,3.3,9.3,7.1c1.7,3.8,1.2,8.3-1.2,11.7c-2.5,3.5-4.4,7-6.2,10.1c-4,7.1-8.2,14.5-16.9,16
			c-20.9,3.7-42.4,4.9-60.6,5.5c-42,1.4-84,2.5-124.7,3.6c-21.3,0.6-41.5,1.1-61.7,1.7c-16.5,11.7-24.7,27.4-32.7,42.7
			c-3.2,6.1-6.2,11.9-9.7,17.4c2.7,6.8,7.5,7.6,16.2,9c0.7,0.1,1.4,0.2,2.1,0.3c11.5,1.7,23.4,2.9,34.9,4.1
			c12.8,1.3,26.1,2.7,39.1,4.7c0.1,0,0.1,0,0.2,0c13,2.2,25.8,5.5,39.4,8.9c6.8,1.7,13.9,3.5,21.4,5.3c3.8,0.9,6.9,3.6,8.4,7.2
			c1.5,3.6,1.1,7.7-1,11c-2,3.1-3.7,6.3-5.1,9.2c-3.7,7.2-7.5,14.6-15.9,16.1c-0.1,0-0.1,0-0.2,0c-11.2,1.9-23.9,1.9-39.9,0.1
			c-41.7-4.5-83.4-9.7-127.4-15.1l-2-0.2c-1.9,2.6-3.9,5.1-5.8,7.6c-6.8,8.8-13.2,17.2-18.8,26.1c-22.6,35.8-45.1,72.4-66.8,107.7
			l-2.1,3.4c3.1,0.1,6.8-0.9,11.2-3.6c0,0,0.1,0,0.1-0.1c30.6-18,60.5-36.1,92.1-55.2c9.7-5.9,19.5-11.8,29.4-17.8
			c3.2-1.9,7.1-2.3,10.6-0.9c13.1,5.2,21.1,8.3,26.1,16.4c4.7,7.5,4.9,16.3,5.2,32.3c0.1,4.5-2.3,8.6-6.3,10.7
			c-31.2,17-64.6,35.2-99.6,54.4c0,0.1,0.1,0.2,0.1,0.2c1.2,0.6,5.2,0.7,6.5,0.7c29.6,0.4,59.9,0.3,89.2,0.2
			c10.2,0,20.5-0.1,30.8-0.1c17-24.9,28-52.9,38.7-80.1c10.4-26.5,21.1-53.9,37.4-77.9c1.8-2.6,4.5-4.4,7.6-5
			c17.5-3.5,26.2,2.8,29.8,6.9c5.3,5.9,6.8,14.3,4.1,22.9c-4.7,17.2-11.3,34.1-17.6,50.4c-1.6,4.1-3.2,8.2-4.8,12.3
			c-7.8,21.9-16.3,43.6-25.4,66.3c14.4,7.7,28.8,6.9,45.2,6.1c8.1-0.4,16.4-0.8,25-0.2c5.8-8.8,11.4-17.6,17.1-26.4
			c19.2-29.6,37.4-57.6,56.3-85.6c7.8-11.5,15.2-23.8,22.4-35.6c16.4-27.1,33.4-55.1,57.1-79.5c2.3-2.4,5.6-3.7,9-3.6
			c3.4,0.1,6.5,1.6,8.7,4.1c16.6,19.2,18.7,36,6.8,54.6c-9.3,14.7-18.8,29.7-28,44.1c-19.3,30.3-39.2,61.7-58.4,92.9
			c-4.9,7.9-9.3,16-14.3,25.4c-1.5,2.8-3,5.6-4.6,8.5c16.2,3.8,31.2,3.1,46.9,2.3c5.2-0.3,10.6-0.5,16-0.6
			c21-16.7,36.6-37.9,53.1-60.2c16-21.7,32.6-44.2,54.5-62.1c2.6-2.1,5.9-3,9.2-2.6c12.8,1.8,21.3,6.9,25.2,15.3
			c2.7,5.8,4.3,15.6-4.1,29.2c0,0-0.1,0.1-0.1,0.1c-7.2,11.4-15.7,22.1-23.8,32.4c-5.5,6.9-11.1,14.1-16.2,21.2
			c-5.2,7.2-9.9,14.8-15.4,23.6c-0.5,0.9-1.1,1.7-1.6,2.6c15.8,4.4,29.6,2.9,44.7-1c7.2-3.5,12.3-10.6,18.2-18.7
			c9.9-13.7,22.3-30.8,49.1-31.7c6.1-0.2,11.4,4.2,12.3,10.3c0.3,1.8,0.8,3.8,1.4,6c1.6,6.2,3.6,13.9,0,21.1
			c-6.1,12.9-13.6,24.7-19.6,34.2c-1,1.5-1.9,3-2.7,4.3c-0.5,8.9,4.6,16.5,10.4,25.3c8.5,12.8,20.2,30.4,8.8,53.6
			c-2.2,4.5-7,7.1-12,6.6c-24.3-2.5-36-17.5-46.4-30.8c-5.7-7.3-11.1-14.3-18.6-19.5c-1-0.1-2.1-0.2-3.3-0.4
			c-6.3-0.7-14.9-1.7-23.4-1.9c-5.3-0.2-11.2,0.5-16.8,1.1c-0.4,0-0.9,0.1-1.3,0.1c0,0.1-0.1,0.3-0.1,0.4
			c8.7,12.6,17.9,25.3,26.8,37.6c10.2,14.1,20.8,28.6,30.8,43.3c5.1,7,6.7,14.8,4.7,22.1c-1.7,6-6.7,14.4-21.1,20.2
			c-3.4,1.4-7.2,1.1-10.4-0.6c-18.9-10.5-31.1-27.3-43-43.6c-4.2-5.8-8.2-11.3-12.5-16.5c-10.8-13-21.2-26-32.3-39.8
			c-5.5-6.8-11.1-13.8-16.8-20.9h-68.2c14.4,32.4,34.2,61.8,53.4,90.4c21.7,32.3,44.2,65.7,58.1,102.7c1.5,3.9,0.8,8.3-1.7,11.6
			c-8.6,11.2-17.6,13.7-23.6,13.8c-8.2,0.2-16-3.8-22.2-11.1c-0.1-0.1-0.2-0.2-0.3-0.3c-9.9-12.7-18.7-26.3-27.3-39.4
			c-3.4-5.3-7-10.7-10.5-16c0-0.1-0.1-0.1-0.1-0.2c-18.6-28.6-37.3-57.8-55.4-85.9c-13.5-21.1-27.5-42.8-41.2-64.1
			c-24.1-5.9-47.1-4.7-73-2.9c2.5,21.6,11.6,42,21.1,63.4c13.7,30.8,27.8,62.7,26.4,103.6c-0.2,4.7-3.1,8.9-7.5,10.7
			c-4.4,1.8-9.4,0.8-12.8-2.4c-34.4-32.8-49.1-69.8-63.3-105.5c-9.8-24.6-19.1-48-34.4-68H865.7c0.4,0.3,0.9,0.6,1.3,0.8
			c0.1,0,0.1,0.1,0.2,0.1c2.8,1.5,7.2,2.2,11.8,2.9c4.8,0.7,10.2,1.6,15.4,3.6c21,8.2,31.3,24,26.9,41.3c0,0.1,0,0.2-0.1,0.3
			c-2.7,9.6-9.3,17-15.7,24.2c-2.6,2.9-5.2,5.8-7.6,9c-3.7,4.7-10.2,6-15.4,3.1c-12.9-7.3-24.3-13.8-35.4-20.1
			c20.7,37.9,41.7,75.1,62.1,111.3c27.9,4,55.2-0.5,84.1-5.2c34.6-5.7,70.4-11.5,108.3-2.1c3.6,0.9,6.6,3.4,8.1,6.7
			c1.5,3.4,1.4,7.2-0.3,10.5c-17.4,33-45.6,33.7-66.1,34.2c-7.8,0.2-15.2,0.4-21.3,2c-18.6,5.4-37.4,7.7-57.3,10.1
			c-5.5,0.7-11,1.4-16.7,2.1c4,23.5,18.5,41.3,34.9,61.5c0.2,0.2,0.4,0.5,0.6,0.7c91.7,5.4,178.5,10.5,258.2,15
			c4.6,0.3,8.6,3.1,10.4,7.4c5.5,13.3,5.6,24.1,0.3,32.1c-5,7.6-13.9,11.4-26.3,11.4c-26.7,0-53.9-0.6-80.2-1.3
			c-20-0.5-40.8-1-61.1-1.2c-0.1,0-0.2,0-0.2,0c-15.8-0.5-31.9-0.3-49-0.2c-5.1,0-10.4,0.1-15.8,0.1c0.4,4,0.9,7.4,2.1,9.7
			c4.8,9.6,10.5,19.1,16.5,29.1c2.6,4.3,5.3,8.8,8,13.4c22.9,11.7,49.1,14,76.8,16.3c31,2.7,63,5.4,93.2,21.7c3.1,1.7,5.3,4.6,6,8.1
			c0.7,3.4-0.1,7-2.2,9.8c-1.6,2-3.1,4.3-4.5,6.6c-4.3,6.6-9.1,14-17.7,15.2c-13.8,2.4-27.9,0.8-40.1-0.8c-0.2,0-0.3,0-0.5-0.1
			c-24.9-4.4-46.2-7.7-67.6-7.3c0,10.2,5.5,17.1,11.6,24.8c2.7,3.4,5.2,6.6,7.2,10.1c9.5,6.3,20.3,8.3,31.7,10.5
			c16.4,3.1,35,6.7,50.2,23.6c2.1,2.4,3.2,5.5,3.1,8.7c-0.2,3.2-1.6,6.2-4,8.3c-17.5,15.5-36,15.5-52.3,15.6c-9,0-17.5,0.1-25.4,2.6
			c-5.4,8.5-11.7,18.4-18.2,28.7c-4,6.4-8.2,13-12.5,19.8C1078.6,1409.6,1074.7,1411.6,1070.7,1411.6z M343.6,1329.3
			c20.9,1.7,38.6,3.3,51.1,4.4c2.3,0.2,4.4,1.1,6.2,2.5c11.7,9,17.2,20.4,22.2,30.5c4.4,9,7.4,14.7,12.3,17.9c0.6-0.5,1.3-1,2-1.5
			c-6.4-19.3-12.9-39-18.9-57c-1-3-0.7-6.4,0.7-9.2c17.5-34.2,18.8-35.7,43.7-53.3c4.6-3.2,10.7-2.9,14.9,0.8
			c15.9,14.1,22.9,32.9,29.7,51.1c5.7,15.2,11.1,29.8,21.5,41.8c-3.6-23-13-43.7-22.9-65.3c-10.7-23.5-21.8-47.8-24.7-75.3
			c-0.2-1.7,0-3.4,0.5-5c8.7-26.5,24.2-51.9,47.5-77.6c2.4-2.6,5.8-4.1,9.3-3.9c3.5,0.1,6.8,1.8,9,4.6
			c25.3,32.5,43.6,68.1,61.3,102.6c17.2,33.4,33.5,65.3,55.6,94.6c-5.5-14.5-12.4-30-21.6-48.6c-21.5-40.6-43.6-81.8-64.9-121.7
			c-9.5-17.8-19-35.6-28.6-53.4c-1.8-3.3-1.9-7.2-0.4-10.6c1.1-2.4,2.1-4.8,3.2-7.2c12.2-27.2,24.7-55.4,49.9-76.4
			c4.3-3.6,10.4-3.7,14.9-0.4c22.7,17,38.5,38.8,53.7,59.8c15,20.7,29.4,40.5,49.5,55.3c0-0.1,0-0.1,0-0.2
			c-6.8-10.9-14.4-21.2-22.5-32.1c-4.9-6.6-9.9-13.4-14.7-20.4c0,0-0.1-0.1-0.1-0.1c-6.8-10-15-19.9-22.9-29.4
			c-15.3-18.5-31.1-37.6-39.9-60.7c-1.2-3.2-1-6.7,0.5-9.7c58.4-114.4,64.1-122.9,101.5-150.6c3.3-2.4,7.6-3,11.4-1.6
			c3.8,1.4,6.6,4.7,7.5,8.7c9.2,42.9,2.8,83.9-3.5,123.5c-0.4,2.5-0.8,5-1.2,7.5c6.2,3.5,11.1,6,13.1,5.9c2-0.2,6.7-3.8,12.4-8.5
			c-0.5-5-1.1-10-1.7-15.2c-1.6-14-3.3-28.5-3.7-43.4c-0.1-2.9-0.2-5.8-0.4-8.6c-0.9-18.3-1.8-39.1,6.5-60.8
			c1.4-3.7,4.5-6.4,8.4-7.3c3.8-0.9,7.9,0.1,10.8,2.7c38.4,34.2,71.3,86.6,97.7,155.7c1.5,3.8,0.9,8.1-1.6,11.4
			c-16.2,21.9-30.3,40.7-43.1,57.5c-7.1,9.6-14.5,19.2-21.6,28.6c-10.4,13.7-21.2,27.9-31.5,42.1c-0.1,0.1-0.1,0.2-0.2,0.2
			c-1.6,2.2-3,4-2.2,6.5c3.9-1.9,7.6-3.8,9.8-6c11.8-14.2,23.3-29,34.4-43.4c9.5-12.3,19.4-25,29.5-37.4c0.1-0.1,0.1-0.2,0.2-0.3
			c1.4-1.6,2.8-3.6,4.3-5.7c7-9.8,17.6-24.5,42.7-22.7c3.9,0.3,7.5,2.5,9.5,5.9c13.6,23.2,28.2,48.5,42.1,73.3
			c2,3.6,2.1,7.9,0.1,11.5c-11.9,22.4-23.6,44.5-35.1,66.3c-17.9,33.9-34.9,66-52.3,98.6c-1.3,2.5-2.6,5-3.9,7.5
			c-9.1,17.4-17.6,33.8-25.2,50.9c-1.1,2.6-1.2,4.4-0.9,5c0.2,0.4,0.6,0.9,1.3,1.4c4.9-2.8,8.2-8.8,12.7-17.5c1-2,2.1-4.1,3.3-6.2
			c9.4-17.4,18.9-35.1,28-52.2c17-31.8,34.6-64.6,52.3-96.8c0-0.1,0.1-0.1,0.1-0.2c4.3-7.5,10.4-13.2,16.8-19.4
			c3.2-3,6.5-6.2,9.9-9.8c2.6-2.8,6.4-4.2,10.1-3.7c3.8,0.4,7.1,2.6,9,5.9c6.6,11.5,12.8,22.2,18.4,32.2
			c8.2,14.4,15.3,26.8,21.5,37.4c1.3,2.2,1.8,4.7,1.6,7.2c-2.9,29.7-14.3,55.3-25.2,80c-10,22.6-19.6,44.3-23,68.6
			c1.5-1.1,2.6-2.1,2.9-2.7c8.2-15.9,15.8-33,23.2-49.4c5.4-12,11-24.5,16.8-36.6c3-6.5,9-8.9,14.8-11.2c2.2-0.9,4.5-1.8,6.9-3
			c5.7-2.8,12.5-0.8,15.7,4.7c8.2,14.1,20.1,34.5,29.9,51.8c1.7,2.9,2,6.4,1,9.6c-7,21.5-12.7,39.1-19,58.4c0.8,0.4,1.5,0.8,2.2,1.1
			c2.3-3.6,4.5-7.1,6.7-10.5c7.4-11.8,14.5-22.8,20.4-32.2c1.3-2,3.2-3.6,5.4-4.6c13.3-5.7,26.5-5.8,38-5.8c8.5,0,15.9-0.1,22.7-2
			c-7.2-3.4-15.3-4.9-24.1-6.6c-13.7-2.6-29.2-5.6-43.6-16.3c-1.6-1.2-2.9-2.8-3.7-4.6c-1-2.2-3.4-5.2-5.9-8.3
			c-8.6-10.9-21.6-27.4-14.9-54.2c1.3-5,5.6-8.6,10.8-9c27.4-2,53.7,2,82.9,7.1c9.8,1.3,21,2.6,31,1.2c0.2-0.2,0.4-0.5,0.6-0.8
			c-22.4-9-46.5-11.1-71.7-13.2c-30.1-2.6-61.1-5.3-89.2-20.8c-1.9-1.1-3.5-2.6-4.6-4.5c-3.1-5.4-6.4-10.8-9.5-16
			c-6.3-10.4-12.2-20.3-17.4-30.7c-3.6-7.1-4.3-15-4.9-22.5c-0.2-2.7-0.5-5.5-0.8-8.3c-0.5-3.4,0.6-6.9,2.9-9.5
			c2.3-2.6,5.6-4.1,9-4.1c10.1,0,19.6-0.1,28.8-0.2c17.2-0.2,33.5-0.3,49.7,0.2c20.4,0.2,41.2,0.7,61.3,1.2
			c26.2,0.6,53.2,1.3,79.7,1.3c3.5,0,5.4-0.5,6.2-0.8c0-0.4,0-1.3-0.2-2.5c-79-4.5-164.8-9.5-255.3-14.8c-3.4-0.2-6.5-1.8-8.6-4.4
			c-1.3-1.6-2.6-3.2-3.9-4.8c-19.8-24.3-40.2-49.4-41.3-86.5c-0.2-6.1,4.2-11.3,10.2-12.2c9.9-1.5,19.4-2.7,28.7-3.8
			c18.9-2.3,36.8-4.5,53.6-9.4c0,0,0.1,0,0.1,0c8.9-2.5,18.2-2.7,27.2-2.9c13.4-0.3,24.8-0.6,34.1-7.5c-26.4-2.8-52.4,1.4-79.6,5.8
			c-31.4,5.1-63.8,10.4-97.7,4.2c-3.5-0.6-6.5-2.8-8.3-5.9c-23.2-41.1-47.2-83.6-70.7-127c-4-6.9-1-14.1,1.3-19.3
			c0.8-1.9,1.7-3.9,2.4-6c1.1-3.4,3.7-6.2,7.1-7.5c3.4-1.3,7.1-1,10.3,0.8l13.6,7.8c9.8,5.6,19.7,11.2,30.6,17.5
			c0.7-0.8,1.3-1.5,1.9-2.2c5-5.6,9.3-10.4,10.5-14.7c0.5-1.9,0.4-3.7-1.6-6c-2.2-2.6-6-5-10.7-6.9c-2.8-1.1-6.5-1.7-10.4-2.3
			c-6.1-0.9-13-2-19.5-5.5c-6.8-3.6-11.3-9.2-16.6-15.6c-2.5-3.1-5.3-6.6-8.8-10.3c-3.2-3.5-4.1-8.6-2.2-13c1.9-4.4,6.2-7.2,11-7.2
			h183.3c3.6,0,6.9,1.6,9.2,4.3c19.9,23.8,31,51.8,41.8,78.8c9.2,23.1,18.6,46.8,33.7,68.8c-4.6-20.1-12.7-38.5-20.7-56.6
			c-11.6-26.2-23.7-53.3-23.8-84.2c0-6.3,4.9-11.6,11.2-12c2.3-0.2,4.6-0.3,6.9-0.5c30.4-2.2,59.1-4.2,90.3,4.5
			c2.8,0.8,5.2,2.6,6.8,5c14.6,22.5,29.4,45.7,43.8,68c18.1,28.1,36.7,57.2,55.3,85.8c3.6,5.4,7.2,10.9,10.7,16.2
			c8.2,12.6,16.7,25.7,25.9,37.5c1.6,1.8,2.9,2.4,3.2,2.4c0,0,0,0,0,0c0.1,0,0.3-0.1,0.5-0.2c-13-31.5-32.3-60.2-52.7-90.5
			c-23.2-34.4-47.1-70-62.6-111.6c-1.4-3.7-0.8-7.8,1.4-11c2.2-3.2,5.9-5.1,9.9-5.1h91.8c3.6,0,7,1.6,9.3,4.4
			c7.1,8.7,13.9,17.2,20.5,25.4c11,13.7,21.4,26.6,32.1,39.6c4.7,5.8,9.1,11.8,13.3,17.6c9.4,12.9,18.4,25.2,30,33.4
			c1.1-0.8,1.6-1.4,1.9-1.7c-0.1-0.3-0.4-0.9-1-1.7c-0.1-0.1-0.2-0.2-0.2-0.3c-9.9-14.5-20.4-28.9-30.5-42.9
			c-9.7-13.3-19.7-27.1-29.2-41c-0.1-0.1-0.1-0.2-0.2-0.3c-4.1-6.4-2.2-13.2-0.7-18.7c0.5-1.8,1-3.7,1.4-5.5c1-5.4,5.5-9.4,11-9.8
			c2.8-0.2,5.8-0.5,9-0.9c6.5-0.7,13.2-1.5,20.1-1.2c9.5,0.2,18.8,1.3,25.5,2.1c2.3,0.3,4.3,0.5,5.8,0.6c1.8,0.2,3.6,0.8,5.2,1.7
			c12.3,7.6,20.1,17.7,27.1,26.5c7.3,9.4,12.7,15.8,20.2,19.2c-0.2-6.1-3.8-11.9-9.5-20.5c-7.5-11.3-16.9-25.4-14-44.4
			c0.2-1.6,0.8-3.1,1.6-4.5c1.3-2.1,2.8-4.4,4.3-6.9c5.6-8.8,12.4-19.6,17.9-31c-0.1-0.5-0.2-1.3-0.4-2.1c-8.2,3-13.6,9.9-20.9,20.1
			c-7.1,9.8-15.1,20.9-28.7,26.9c-0.6,0.3-1.2,0.5-1.8,0.6c-20.1,5.4-44.8,9-74.9-5c-3.2-1.5-5.5-4.2-6.5-7.5s-0.4-6.9,1.4-9.9
			c3.4-5.3,6.5-10.2,9.4-14.9c5.7-9.1,10.7-17,16.2-24.8c5.4-7.6,11.3-15,16.9-22.2c8.1-10.3,15.8-19.9,22.3-30.3
			c1.9-3.1,2.5-5.2,2.7-6.2c-0.3-0.2-0.9-0.5-1.8-0.8c-17.5,15.3-31.4,34.2-46.1,54c-17.6,23.8-35.7,48.4-61.1,67.5
			c-2.1,1.6-4.6,2.4-7.2,2.4c0,0,0,0-0.1,0c-6.2,0-12.4,0.3-18.9,0.6c-20.5,1-43.8,2.1-70-8c-3.3-1.3-5.8-3.9-7-7.2
			c-1.2-3.3-0.9-6.9,0.9-10c4.3-7.5,7.9-14.4,11.5-21c5-9.4,9.8-18.3,15.1-26.8c19.3-31.2,39.2-62.7,58.5-93.1
			c9.2-14.4,18.7-29.4,28-44.1c2.7-4.2,5.2-8.1,2.9-14.4c-16.9,19.9-30.5,42.3-43.7,64.1c-7.3,12.1-14.9,24.7-23,36.6
			c-18.9,27.9-36.9,55.8-56.1,85.3c-7,10.8-14,21.6-21.2,32.6c-2.6,3.9-7.1,6-11.8,5.3c-9.1-1.3-18.4-0.9-28.2-0.4
			c-20.9,1-44.5,2.2-68.4-15.8c-4.3-3.3-5.9-9-3.9-14l1.3-3.3c9.8-24.7,19.1-48.1,27.4-71.5c0-0.1,0.1-0.2,0.1-0.3
			c1.6-4.2,3.2-8.4,4.9-12.6c6.2-15.8,12.5-32.1,16.9-48.2c0-0.1,0.1-0.2,0.1-0.3c-0.4,0-1-0.1-1.7-0.1c-13.1,20.7-22.3,44-32,68.7
			c-11.9,30.4-24.2,61.8-45.2,90.4c-2.3,3.1-5.9,4.9-9.7,4.9c-12.3,0-24.6,0-36.9,0.1c-29.4,0.1-59.8,0.2-89.6-0.2
			c-5.8-0.1-16.3-0.3-23.8-8.6c-5.2-5.7-7.5-13.9-6.7-24.2c0.3-4.1,2.6-7.7,6.2-9.6c35-19.2,68.5-37.5,99.9-54.6
			c-0.2-6.2-0.5-11.3-1.3-12.6c-0.6-1-4.6-2.8-9.1-4.6c-8.2,4.9-16.3,9.8-24.3,14.7c-31.7,19.2-61.6,37.3-92.3,55.4
			c-12.3,7.4-24.8,9-36.2,4.8c-4.9,1.8-10.4,0.2-13.7-4c-0.8-1.1-1.4-2.1-1.9-2.8c-0.1-0.2-0.2-0.4-0.3-0.5
			c-2.8-3.9-2.9-9.1-0.4-13.2l10.5-17.1c21.8-35.4,44.3-72.1,66.9-107.9c6.1-9.9,13.3-19.1,20.1-28c3.2-4.2,6.6-8.5,9.7-12.8
			c2.6-3.5,6.8-5.4,11.1-4.8l8.9,1.1c44,5.4,85.6,10.5,127.2,15.1c12.1,1.4,21.8,1.6,30,0.6c0.1-0.2,0.3-0.5,0.4-0.7
			c-2.2-0.5-4.3-1.1-6.4-1.6c-13.1-3.3-25.4-6.4-37.5-8.5c-12.3-1.9-25.2-3.2-37.7-4.5c-11.8-1.2-24.1-2.5-36.1-4.2
			c-0.1,0-0.2,0-0.2,0c-0.7-0.1-1.4-0.2-2-0.3c-11.7-1.9-31.3-5.1-37.2-32.2c-0.7-3.3,0-6.8,2-9.5c4-5.6,7.5-12.3,11.2-19.5
			c9.4-18,20-38.3,43.7-53.6c1.8-1.2,4-1.8,6.2-1.9c21.4-0.6,42.7-1.2,65.2-1.8c40.6-1.1,82.6-2.2,124.5-3.6
			c16.6-0.6,35.9-1.6,54.7-4.7c0.2-0.3,0.4-0.6,0.5-0.9c-9.6-1.7-18-3.2-25.6-3c-0.1,0-0.1,0-0.2,0c-31.4,0.5-63.3,1.6-94.2,2.6
			c-22.6,0.7-46,1.5-69.2,2.1c-8.3,0.2-16.3-0.9-24.8-2.1c-4.7-0.7-9.6-1.4-15.1-1.9c-3.5-0.4-6.7-2.2-8.7-5.1
			c-2-2.9-2.6-6.5-1.7-9.9c9.9-36.7,27.7-62.1,45.5-84c1.9-2.4,4.6-3.9,7.6-4.3c13.5-2,26.9-3.9,40.2-5.8
			c34.9-5,67.8-9.7,101.3-15.1c6.1-0.9,7.4-2.6,7.4-2.6c0,0,0.1-0.4,0.1-1.4c-20-2.2-40.5,0.7-62.2,3.7c-17,2.4-34.5,4.8-52.5,4.8
			c-5.9,0-10.9-4.3-11.8-10.1c-4.6-28.5,9.2-46.1,21.3-61.6c2.5-3.2,5.1-6.5,7.5-9.9c1.8-2.6,4.6-4.3,7.7-4.9c5.5-1,11-1.9,16.8-2.8
			c12.8-2.1,26.1-4.2,38.7-7.3c2-0.6,3.6-1.4,4-2.2c0.1-0.2,0.2-0.5,0.2-0.8c-16.7-0.8-35.4-1.8-54.7-3c-3.5-0.2-6.7-1.9-8.8-4.7
			c-5.1-6.8-10.3-13.6-15.4-20.4c-6-8-12.2-16.2-18.3-24.3c-0.8,6.6,2.3,13.8,6.9,23.7c5.9,12.7,13.2,28.6,6.4,45.9
			c-0.4,0.9-0.7,1.9-1.1,2.9c-6.9,17.9-14.7,38.2-41.4,51.1c-2.9,1.4-6.2,1.6-9.2,0.5c-3-1.1-5.5-3.3-6.8-6.2
			c-3.2-6.8-6.2-13.5-9.1-20c-6.1-13.6-11.9-26.4-18.7-38.5c-3.8-6.6-6.3-13.6-8.6-20.3c-3.5-10.1-6.3-17.4-11.3-22.2
			c0,24.5,10.6,46.9,21.8,70.5c11.9,25.1,24.2,51.1,25.8,82.5c0.2,3.4-1.1,6.7-3.5,9.1c-4,4-6.9,10.5-10.4,18
			c-7.3,16.1-17.4,38.1-47.1,47.9c-5.5,1.8-11.6-0.6-14.3-5.7c-12.2-22.7-24.5-45.3-36.4-67.1c-6.6-12.2-13.3-24.4-19.9-36.5
			c-21.6-40.3-32.5-60.5-41.1-72.1c-3.6-4.8-6.7-8.1-10.5-11c0.1,0.9,0.2,1.6,0.5,2.1c9.6,20.6,20.6,41.1,31.2,61
			c4.1,7.7,8.4,15.6,12.5,23.5c19.5,37.5,45.4,86.9,71.7,136.6c2,3.7,1.9,8.1-0.3,11.7c-5.1,8.7-9.9,17-14.5,25
			c-7,12.1-13.5,23.6-20.5,35c0,0,0,0.1-0.1,0.1c-3.4,5.4-8,9.2-12.9,13.2c-2,1.6-4,3.3-6,5.1c-4.3,3.9-10.8,4.2-15.4,0.6
			c-21-16.1-36.4-37.1-51.3-57.4c-14.4-19.6-29.2-39.7-49.4-55.9c0.1,1.5,0.3,2.7,0.6,3.3c12.4,18.3,26.3,36.4,39.7,53.8
			c5.6,7.3,11.4,14.8,17,22.2c0,0.1,0.1,0.1,0.1,0.2c10.8,14.8,21.2,29.5,32.2,44.9c3.5,4.9,7.1,9.9,10.7,15c2.8,3.9,3,9,0.5,13.1
			c-9.8,16.4-19.4,32.4-28.8,48.2c-16.6,27.9-32.4,54.2-48.5,80.8c-0.1,0.1-0.2,0.3-0.3,0.4c-3.6,5.4-9.2,7.3-14.2,9
			c-1.8,0.6-3.7,1.3-5.4,2c-3.7,1.7-8,1.3-11.4-0.9c-3.4-2.2-5.5-6-5.5-10.1c0-4.9,0.1-9.6,0.2-14.2c0.2-9.3,0.5-18.1-0.4-26.5
			c-0.5-4-2.1-6.8-4.7-8.4c-4.1-2.5-10.8-2.4-18.5,0.4c-1,0.9-2.8,3.7-3.9,5.4c-0.4,0.7-0.8,1.3-1.3,2c4.5,25.2,3.9,28.4-4.5,56.7
			c-1.3,4.4-5,7.7-9.6,8.4c-4.5,0.7-9.1-1.2-11.8-4.9c-37.1-52.6-66.9-103.2-91.2-154.6c-1.9-4.1-1.4-8.9,1.4-12.5
			c23.8-30.7,49.2-63.4,73.8-96c10.1-13.5,19.2-25.9,26.5-39.2c-0.1-0.3-0.2-0.7-0.4-1.1c-11.3,6.5-18.7,16.8-27,28.3
			c-4.7,6.6-9.6,13.4-15.5,19.6c-6.2,6.8-11.7,14.2-17.5,22.1c-11.8,15.9-25.1,34-46.3,48.4c-5.5,3.7-12.9,2.3-16.6-3.2
			c-2-2.9-3.9-5.7-5.9-8.6c-16-23.3-31.2-45.3-40.5-75.4c-0.9-3-0.7-6.1,0.7-8.9c2-4,4-8.1,6.1-12.3c8.3-16.6,16.8-33.8,25.6-51
			c0,0,0-0.1,0.1-0.1c11.9-22.6,24.2-45.5,36-67.6c14.3-26.8,29.2-54.6,43.5-81.9c4.8-9.2,5.4-12.8,3.9-15.3
			c-4,0.7-6.7,4.2-11.8,13.8c0,0,0,0.1,0,0.1c-10.3,19.1-20.8,38.6-30.9,57.5c-17.2,32.1-35.1,65.4-52.9,97.9
			c-0.5,0.9-1,1.8-1.5,2.8c-5.2,9.9-13.8,26.4-39.4,26.4c-4.2,0-8.1-2.2-10.3-5.8c-13.3-22.1-28.1-46.5-40.7-67.3
			c-2-3.3-2.3-7.3-0.8-10.8c2.4-5.9,4.8-11.6,7.2-17.3c8.4-20.1,16.4-39,23.1-58.3c3.1-8.8,7-17.2,10.9-25.4
			c6.8-14.5,13.3-28.3,13.8-42.2c-3.4-0.8-4.4,1-6.1,3.9c0,0.1-0.1,0.1-0.1,0.2c-6.3,10.6-10.9,22.4-15.7,35
			c-8.6,22.5-17.6,45.7-38,66.1c-4.5,4.5-11.7,4.7-16.5,0.4c-21.7-19.5-33.2-39.4-36-62.7c-0.2-1.4-0.1-2.7,0.2-4.1
			c3.6-16,7.6-31.7,11.8-48.3c0.4-1.4,0.7-2.9,1.1-4.3c-4.7,3.8-8.3,9.5-12.8,17.2c-6.6,11.2-14.1,24-30,30.5
			c-1.4,0.6-3,0.9-4.6,0.9c-3.6,0-7.5-0.1-11.6-0.2c-10.3-0.2-21.9-0.5-33.3,0.5c-0.2,0.2-0.5,0.4-0.8,0.7
			c6.9,5.4,15.6,6.5,28.2,7.7c12.2,1.2,26,2.5,38.1,11.1c1.2,0.9,2.2,1.9,3,3.1c1.9,2.8,4,5.7,6.3,8.8
			c10.6,14.2,23.7,31.8,19.6,59.2c-0.9,5.7-5.7,10-11.4,10.2c-17.9,0.7-35.4-2.1-52.3-4.8c-21.5-3.5-42-6.7-61.6-2.7
			c2.6,2.5,6.9,3.3,13.7,4.3c37.4,5.8,75.1,11.2,111.6,16.4c8.3,1.2,16.4,2.4,24.5,3.5c3.5,0.5,6.6,2.6,8.5,5.6
			c3.5,5.6,7.1,11.1,10.5,16.3c13.5,20.5,26.3,39.8,30.5,67.8c0.9,6.3-3.2,12.2-9.4,13.5c-23.7,5-45.3,4.1-66.2,3.2
			c-6.6-0.3-12.9-0.6-19.2-0.6c-11.2-0.1-22.4-0.6-33.3-1.1c-16.5-0.8-32.1-1.5-47.8-0.9c0,0-0.1,0-0.1,0
			c-8.7,0.2-17.2-0.8-25.4-1.8c-14.4-1.7-27.2-3.3-38.5,2c1.7,3,5.2,4.2,12.8,4.5c30,1.1,60.6,2,90.2,2.8c31.5,0.9,64,1.9,96,3.1
			c14.1,0.6,28.1,2.1,41.7,3.6c5.6,0.6,10.8,1.2,16.1,1.7c3.4,0.3,6.4,2.1,8.5,4.8l1.9,2.5c18.7,25.1,36.3,48.9,42.3,81.5
			c1,5.3-1.7,10.6-6.6,13c-27.3,13.1-55.6,15.5-83,17.9c-23.9,2-46.7,3.9-67.8,12.7c0.1,0.2,0.3,0.5,0.4,0.7
			c10.4,1.2,21.7,0.1,30.6-1.1c40.7-5.3,91.3-12,138.3-14.1c4-0.2,7.9,1.7,10.3,4.9c54.8,75.5,74.6,113.2,84.8,161.1
			c0.9,4.3-0.6,8.7-3.8,11.5c-3.3,2.9-7.9,3.7-11.9,2.3c-42-15.1-74.3-40.8-105.5-65.7c-0.8-0.6-1.6-1.2-2.3-1.9
			c-6.5,3.9-11.1,7-12.1,9c-0.9,1.8-0.3,7.3,0.7,14.5c6.9,3.5,14.2,6.8,21.9,10.2c27.5,12.3,58.8,26.3,83.5,58.5
			c2.6,3.4,3.2,7.9,1.6,11.9c-1.6,4-5.3,6.8-9.5,7.3c-55.2,7.4-115,12.6-178.6,0.1c-3.8-0.7-7.1-3.3-8.7-6.9
			c-6.8-15.3-13.6-30.5-20.3-45.5c-15.9-35.6-30.8-69.2-46.3-103.4c-0.3-0.5-0.7-1.1-1.3-1.7c-0.3,23.2,10,44.5,20.9,66.9
			c12.2,25.2,24.8,51.3,24.7,83.1c0,5.9-4.4,11-10.3,11.8c-26.8,3.9-58.9,6.8-94.2-1.6c-2.8-0.7-5.3-2.4-7-4.8
			c-3.2-4.5-6.5-9.1-9.8-13.6c-7.9-10.9-16-22.3-23.5-34c-16.7-25.8-33.5-52.1-49.7-77.5c-12.3-19.4-25-39.4-37.7-59
			c-7.8-11.5-15.3-20.9-22.7-28.6c-0.4,0.1-0.9,0.2-1.3,0.4c5.2,14.7,13.6,27.3,22.5,40.4c3.8,5.7,7.7,11.5,11.3,17.5
			c6.4,10.4,13.1,20.8,19.7,30.9c7.9,12.2,16.1,24.9,23.8,37.7c0,0.1,0.1,0.2,0.1,0.2c3.3,5.8,7.2,11.5,11.3,17.5
			c11,16.2,23.4,34.5,26.3,58.7c0.6,5.5-2.5,10.7-7.7,12.6c-27.7,10.5-52.8,8.3-75.1,6.3c-4.3-0.4-8.4-0.7-12.5-1
			c-2.4-0.2-4.8-1.1-6.7-2.6c-23.2-18.5-40.1-41.8-56.4-64.2c-15.1-20.8-29.5-40.6-48.1-55.8c-0.9,0.7-1.3,1.2-1.4,1.4
			c0,0.1,0.2,0.9,1.1,2.2c0,0,0.1,0.1,0.1,0.1c8,11.9,16.9,23.7,25.5,35.1c7.4,9.7,15,19.8,22.1,30.1c5.3,7.7,8.9,15.8,13.1,25.2
			c1.6,3.5,3.2,7.2,5,11.1c1.8,3.7,1.5,8.1-0.7,11.6c-2.2,3.5-6,5.6-10.1,5.6H82.1c-3.2,0-6.2-1.3-8.5-3.5c-3.4-3.4-6.7-6.8-9.9-10
			c-12.7-12.8-23.9-24-35.1-34.3c0,0-0.1,0-0.1,0c9.4,17,18,32.6,26.5,48c2,3.6,2,7.9,0.1,11.5c-1.6,2.9-3,5.6-4.4,8.2
			c-3.9,7.3-7.3,13.6-11,20c-1.4,2.5-2.9,4.8-4.4,6.9c-3.2,4.8-5.8,8.5-6.3,13.7c7.6-2.3,13.1-8.8,21.1-18.9
			c8.5-10.6,18.1-22.7,34-29.6c1.7-0.7,3.5-1.1,5.4-1l0.5,0c13.6,0.7,34.2,1.6,56.4,3.1c3.3,0.2,6.4,1.8,8.5,4.4s3,5.9,2.6,9.2
			c-3.4,25.4-18.4,43-32.8,60.1c-11.3,13.4-21.6,25.5-25.8,40.4c17.9-15.8,31.9-34.6,45.5-52.9c15.2-20.5,31-41.7,51.9-58.1
			c1.7-1.4,3.8-2.2,5.9-2.5c49.4-6.1,52.7-5.7,89.6,9.3l2.4,1c3.1,1.2,5.5,3.7,6.7,6.8s1.1,6.5-0.4,9.5
			c-16.3,34-37.2,65.5-57.4,96.1c-20.7,31.2-40.3,60.8-55.5,92.8c1.3-0.1,2.4-0.2,3.3-0.4c11.4-14.7,22.2-31,32.6-46.8
			c2.6-3.9,5.1-7.8,7.7-11.6c12.4-18.5,24.4-37.9,36.1-56.6c20.3-32.5,41.3-66.1,65.2-97.9c2.3-3,5.8-4.8,9.6-4.8
			c7.5,0,14.8,0,21.9-0.1c16.4-0.1,31.8-0.2,47.5,0.3c0,0,0.1,0,0.1,0c6.3,0.3,11.8,2.2,17.7,4.3c2.9,1,5.8,2.1,9.2,3.1
			c3.2,0.9,5.9,3.2,7.4,6.2c1.5,3,1.7,6.5,0.5,9.6c-3.4,8.9-6.9,17.8-10.2,26.3c-6.7,17-13,33-18.5,49.2c-2.7,8.2-6.5,16-10.2,23.5
			c-6.4,13.2-12.6,25.9-13.3,41c2-1.3,3.6-2.5,4.1-3.3c8.5-17.7,16.6-36.2,24.5-54.2c5.6-12.8,11.4-26.1,17.3-39.1
			c5.5-12.2,11.5-24.1,17.2-35.7c3.5-7.1,6.9-13.8,9.9-20.2c1.8-3.8,5.6-6.4,9.8-6.8c106.2-9,147.9-6.9,193.7,9.9
			c4.3,1.6,7.4,5.6,7.8,10.2c0.4,4.6-1.8,9.1-5.8,11.4c-5.1,3-9.8,5.9-14.4,8.7c-8.6,5.3-16.7,10.3-25.2,14.7
			c-9,4.6-18,8.4-26.6,12.2c-1,0.4-2,0.9-3,1.3c3.3,14,6.6,17.3,8,18.1c1,0.5,4.5,1.3,14.8-3.3c1.7-0.8,4-2.8,6.5-5
			c7.8-6.9,22.4-19.6,45.4-6c5.6,3.3,7.5,10.6,4.3,16.3c-6.7,11.8-13.4,23.9-19.8,35.5c-17.6,31.9-35.8,64.9-56.7,94.2
			c-2,2.8-5,4.6-8.4,5c-32.8,3.7-63.4-1.4-93-6.3c-28.2-4.7-55.1-9.1-82.4-5.9c0.4,1,0.8,2,1.1,2.9c12.9,1.9,25.9,3.6,38.5,5.3
			c35.9,4.8,73,9.8,111.5,17.8c3.3,0.7,6.2,2.8,7.9,5.7c1.7,2.9,2.1,6.4,1.1,9.7c-10.1,32.2-24.5,58.2-46.7,84.1
			c-2.1,2.4-5,3.9-8.1,4.2c-45.3,3.7-91,7.4-135.1,11c-39.4,3.2-80.1,6.5-120.2,9.7c2,0.6,4.8,0.8,8.8,0.7c0,0,0.1,0,0.1,0
			c28.7-0.8,57.8-1.7,86-2.5c27.9-0.9,56.7-1.7,85.2-2.5c0.1,0,0.1,0,0.2,0c10-0.1,19.6,0.9,30.7,2c5.3,0.5,10.9,1.1,17,1.6
			c3.5,0.3,6.7,2.1,8.7,4.9c2.1,2.8,2.8,6.4,2,9.8c-6.7,28.1-19.8,47.9-31.4,65.4c-2.5,3.7-4.8,7.3-7,10.8c-1.2,2-3,3.5-5.1,4.5
			c-29,13.5-58.7,16-87.5,18.5c-25.7,2.2-50.1,4.3-72,14.1c0.2,0.5,0.5,0.8,0.8,1.1c1.4,1.2,4.9,1.7,9.4,1.3
			c15.4-1.4,31.1-3.2,46.2-4.9c16.2-1.8,33-3.7,49.5-5.2c0.1,0,0.1,0,0.2,0c8.3-0.6,13.5,5.6,17,9.8c1,1.2,2,2.4,2.9,3.2
			c3.3,3.1,4.5,7.8,3.2,12.2c-0.5,1.6-0.9,3.3-1.4,5.2c-1.3,5.2-2.8,11-5.9,16.8c-0.1,0.1-0.1,0.2-0.2,0.3c-4.6,8.1-10,16-15.3,23.7
			c-1.7,2.5-3.4,5-5.1,7.4c-0.5,0.8-1.2,1.5-1.9,2.2c-11.3,10.3-25.8,11.5-38.6,12.7C357.5,1324.4,349.5,1325.4,343.6,1329.3z
			 M259.9,1111.4C259.9,1111.4,259.9,1111.4,259.9,1111.4C259.9,1111.4,259.9,1111.4,259.9,1111.4z M259.9,1111.4
			C259.9,1111.4,259.9,1111.4,259.9,1111.4C259.9,1111.4,259.9,1111.4,259.9,1111.4z M191.4,962.2L191.4,962.2L191.4,962.2z
			 M1476.2,686.6L1476.2,686.6L1476.2,686.6z M1476.7,684.9C1476.7,684.9,1476.7,684.9,1476.7,684.9
			C1476.7,684.9,1476.7,684.9,1476.7,684.9z M1111.4,566.4C1111.4,566.4,1111.4,566.4,1111.4,566.4L1111.4,566.4z M385.8,543.8
			c-0.1,0-0.2,0.1-0.2,0.1C385.6,543.9,385.7,543.9,385.8,543.8z M1229.7,370.5C1229.7,370.5,1229.7,370.5,1229.7,370.5
			C1229.7,370.5,1229.7,370.5,1229.7,370.5z M342.8,147.4C342.8,147.4,342.8,147.4,342.8,147.4C342.8,147.4,342.8,147.4,342.8,147.4
			z"/>
	</g>
</g>
</svg>
