<svg xmlns="http://www.w3.org/2000/svg" viewBox="0 0 1500 1500"><defs><style>.cls-1{fill:#a9a6a1;}</style></defs><title>Iconos finales</title><g id="wow"><path class="cls-1" d="M990.8,1038.36h-1.06c-31.21-.16-59.51-12-79.68-33.33-23.79-25.17-31.41-57.7-32.72-85.38a225.07,225.07,0,0,1-41.55,28.56A224.53,224.53,0,1,1,725.34,525.45,223.85,223.85,0,0,1,879,581.56l.1-20.34a23,23,0,0,1,23-22.89h.11a23,23,0,0,1,22.89,23.12L923.36,901c0,.35,0,.7,0,1.06-1.59,31.07,5.38,55.75,20.16,71.39S976.87,992.3,990,992.36h.84c47.69,0,93.33-20.55,128.59-57.94,23.07-24.46,40.59-54.93,52.09-90.58,12.84-39.79,17.75-85,14.61-134.36a23,23,0,1,1,45.9-2.92c3.51,55.15-2.12,106.09-16.73,151.4-13.61,42.21-34.61,78.55-62.4,108a233.11,233.11,0,0,1-76.36,54.23A212.58,212.58,0,0,1,990.8,1038.36Zm-260.34-467c-1.35,0-2.71,0-4.07,0a178.51,178.51,0,1,0,148,284,23.36,23.36,0,0,1,3.19-3.52l1-201.61A178.34,178.34,0,0,0,730.46,571.4Z"/><path class="cls-1" d="M750,1233.5h-2.47a483.5,483.5,0,0,1,2.36-967h2.52A483.13,483.13,0,0,1,1233.5,752.44a23,23,0,0,1-23,22.89h-.12a23,23,0,0,1-22.88-23.12A437.74,437.74,0,1,0,747.79,1187.5H750A436.06,436.06,0,0,0,982,1121a23,23,0,1,1,24.43,39A482,482,0,0,1,750,1233.5Z"/></g></svg>