<?xml version="1.0" encoding="utf-8"?>
<!-- Generator: Adobe Illustrator 22.0.0, SVG Export Plug-In . SVG Version: 6.00 Build 0)  -->
<svg version="1.1" id="Layer_1" xmlns="http://www.w3.org/2000/svg" xmlns:xlink="http://www.w3.org/1999/xlink" x="0px" y="0px"
	 viewBox="0 0 1500 1500" style="enable-background:new 0 0 1500 1500;" xml:space="preserve">
<style type="text/css">
	.st0{fill:#FFFFFF;stroke:#FFFFFF;stroke-width:10;stroke-miterlimit:10;}
	.st1{fill:#FFFFFF;stroke:#FFFFFF;stroke-width:12;stroke-miterlimit:10;}
</style>
<g>
	<path class="st1" d="M345,636.7c-20.5,0-35.4,16.8-35.4,37.3c0,20.5,16.8,37.3,35.4,37.3c18.7,0,35.4-16.8,35.4-37.3
		C380.4,653.5,363.6,636.7,345,636.7z M345,692.7c-9.3,0-16.8-7.5-16.8-18.7c0-11.2,7.5-18.7,16.8-18.7s16.8,7.5,16.8,18.7
		C361.8,685.2,354.3,692.7,345,692.7z"/>
	<path class="st1" d="M1419.6,881.1c-13.1-78.4-46.6-136.2-97-169.8c-11.2-7.5-20.5-13.1-31.7-16.8c11.2-5.6,22.4-11.2,31.7-18.7
		c50.4-33.6,80.2-91.4,93.3-171.6c1.9-7.5,0-14.9-5.6-22.4c-3.7-5.6-11.2-11.2-18.7-11.2c-74.6-11.2-134.3,0-181,35.4
		c-52.2,41-72.8,100.7-80.2,141.8c-80.2-80.2-162.3-141.8-246.3-182.8V317.7c0-13.1-5.6-26.1-14.9-33.6
		c-9.3-9.3-20.5-13.1-33.6-11.2c-104.5,7.5-203.4,54.1-278,130.6c-235.1,24.3-406.7,190.3-472,264.9C67,689,67,722.5,85.6,743.1
		c65.3,74.6,238.8,242.5,477.6,264.9c74.6,72.8,169.8,115.7,272.4,123.1c1.9,0,1.9,0,3.7,0c11.2,0,22.4-3.7,31.7-13.1
		s14.9-20.5,14.9-33.6V944.6c84-42.9,167.9-104.5,250-186.6c11.2,39.2,33.6,89.6,80.2,125c33.6,24.3,76.5,37.3,125,37.3
		c18.7,0,37.3-1.9,56-5.6l0,0C1412.1,912.8,1421.4,897.9,1419.6,881.1z M1234.9,536c35.4-28,84-37.3,143.7-29.9
		c-11.2,65.3-37.3,111.9-76.5,139.9c-48.5,33.6-108.2,29.9-138.1,26.1C1169.6,642.3,1182.6,577,1234.9,536z M839.4,310.2
		c1.9,0,3.7,1.9,5.6,1.9c1.9,1.9,3.7,3.7,3.7,7.5v128.7c-76.5-31.7-153-48.5-231.3-48.5C680.8,347.6,757.3,315.8,839.4,310.2z
		 M113.6,717c-5.6-7.5-5.6-18.7,0-26.1c46.6-52.2,147.4-153,287.3-210.8c61.6,56,97,138.1,97,225.7c0,85.8-33.6,166-93.3,222
		C264.7,871.8,160.3,771.1,113.6,717z M846.8,1084.5c0,3.7-1.9,5.6-3.7,7.5c0,0-1.9,1.9-3.7,1.9c-78.4-5.6-153-35.4-214.5-84
		c74.6-1.9,149.3-16.8,223.9-48.5v123.1H846.8z M1121.1,718.8C953.2,892.3,777.8,978.1,602.4,972.5c-56-1.9-108.2-11.2-158.6-28
		c57.8-61.6,91.4-147.4,91.4-236.9c0-91.4-35.4-179.1-95.1-240.7c50.4-16.8,104.5-28,162.3-29.9c3.7,0,9.3,0,13.1,0
		c171.6,0,341.4,85.8,505.6,253.7C1128.5,698.3,1128.5,711.4,1121.1,718.8L1121.1,718.8z M1236.7,853.1
		c-52.2-39.2-67.2-104.5-72.8-132.5c29.9-5.6,87.7-11.2,138.1,22.4c39.2,26.1,67.2,72.8,78.4,138.1
		C1322.6,888.6,1274.1,879.3,1236.7,853.1z"/>
</g>
</svg>
