<?xml version="1.0" encoding="utf-8"?>
<!-- Generator: Adobe Illustrator 22.0.0, SVG Export Plug-In . SVG Version: 6.00 Build 0)  -->
<svg version="1.1" id="Layer_1" xmlns="http://www.w3.org/2000/svg" xmlns:xlink="http://www.w3.org/1999/xlink" x="0px" y="0px"
	 viewBox="0 0 1500 1500" style="enable-background:new 0 0 1500 1500;" xml:space="preserve">
<style type="text/css">
	.st0{fill:#FFFFFF;}
</style>
<g id="huevo_estrellado">
	<g>
		<path class="st0" d="M697.6,1291.4c-10.6,0-21-1.1-31.5-3.4c-112.5-24.7-164.1-137.8-166.3-142.6c-0.4-0.9-0.8-1.9-1.1-2.9
			c-0.1-0.3-7.8-26.4-18.5-54.3c-18.4-47.5-29.1-57.3-30.7-58.6c-2.1-0.9-5.2-2.2-8.7-3.6c-45.2-18.2-182.8-73.7-199.6-190.2
			c-7.9-54.7-3-102.5,14.4-142.3c12.9-29.4,32.7-54.4,58.9-74.3c4.6-3.5,9.7-7.1,15-11c36.1-25.9,85.4-61.4,94.5-127.1
			c11.2-80.5,36.2-161.8,142.7-211.1c0.9-0.4,1.9-0.8,2.9-1.1c4.5-1.4,110.9-33.3,177.8,14.2c11.5,8.2,21.3,15.4,30,21.8
			c34.9,25.7,47.9,35.4,80.3,40.3c16.1,2.4,42.2-0.2,69.8-3.1c45.6-4.6,97.2-9.9,134.5,4.5c26.9,10.4,58.1,24.2,85.5,47.3
			c30.8,26,52.1,59.4,65.1,102.1c20.5,67.6-0.9,126.8-15,166c-4.7,13-9.2,25.3-9.8,32.2c-3.4,37.2,16.5,78.4,32.5,111.5
			c6.7,13.9,13.1,27.1,17.2,38.8c8.3,23.7,9.8,59.6,4,96.1c-4.8,29.9-16.4,72.9-44.9,107.8c-30.9,37.9-57.3,60.9-85.6,74.5
			c-28.5,13.7-60.1,18.4-102.4,15.3c-72-5.3-85.4,1.3-108.2,22.9c-4.1,3.9-9.9,10.3-16.6,17.8c-19.3,21.3-48.4,53.4-84,77.6
			C765.6,1279.7,731.3,1291.4,697.6,1291.4z M542.4,1127.8c5.3,11,49.4,96.8,133.6,115.2c31.4,6.9,63.5-1.2,98.1-24.6
			c31.1-21,56.9-49.5,75.7-70.3c7.3-8.1,13.7-15.1,19.1-20.2c19.5-18.5,36.1-28.1,57.4-33.1c20.1-4.7,44.1-5.4,85.8-2.3
			c34.3,2.5,58-0.8,79.1-10.9c21.9-10.5,43.4-29.6,69.8-62c17.2-21.1,29.6-51.6,35.1-86c5.5-34.5,2.4-61.2-2-73.6
			c-3.2-9.2-9-21.2-15.2-33.9c-18.5-38.2-41.5-85.8-36.9-135.8c1.2-12.7,6.3-27,12.3-43.6c12.8-35.5,30.4-84.1,14.3-137
			c-23-75.5-73.4-100.7-123.2-119.9c-27-10.5-72.8-5.8-113.2-1.7c-30.6,3.1-59.5,6.1-81.3,2.8c-43.6-6.6-63.9-21.6-100.7-48.7
			c-8.5-6.3-18.1-13.4-29.3-21.3c-24.6-17.5-60.2-18.8-85.7-16.9c-25.1,1.9-45.2,7.2-50.6,8.7c-80.7,37.9-103.8,95.1-114.9,174.9
			c-5.2,37.4-21.1,71.6-47.2,101.5c-21.7,24.8-46.3,42.5-66.1,56.7c-5.1,3.7-9.9,7.1-14,10.2c-20.2,15.4-34.8,33.7-44.7,56.2
			c-13.9,31.7-17.6,71.2-11,117.2c13,90.3,132.1,138.3,171.3,154.1c4.3,1.8,7.8,3.1,10.5,4.3c12.2,5.3,29.2,19.3,53.4,80.8
			C532.6,1095.5,540.4,1121,542.4,1127.8z M450.1,1029.9L450.1,1029.9L450.1,1029.9z"/>
	</g>
	<g>
		<path class="st0" d="M769.2,988c-60.6,0-117.5-23.6-160.4-66.4c-42.8-42.8-66.4-99.8-66.4-160.4s23.6-117.5,66.4-160.4
			s99.8-66.4,160.4-66.4s117.5,23.6,160.4,66.4c42.8,42.8,66.4,99.8,66.4,160.4s-23.6,117.5-66.4,160.4
			C886.7,964.4,829.8,988,769.2,988z M769.2,580.5c-99.7,0-180.8,81.1-180.8,180.8S669.5,942,769.2,942S950,860.9,950,761.2
			S868.9,580.5,769.2,580.5z"/>
	</g>
</g>
</svg>
