<svg xmlns="http://www.w3.org/2000/svg" viewBox="0 0 1500 1500"><defs><style>.cls-1{fill:#404040;}</style></defs><title>Iconos finales</title><g id="cuentas_y_pagos" data-name="cuentas y pagos"><path class="cls-1" d="M788.91,1100.6H402.26A124.26,124.26,0,0,1,278.15,976.48l.39-750.27-.39-36V190A124.26,124.26,0,0,1,402.26,65.9h449A124.26,124.26,0,0,1,975.38,190l.17,648.41a23,23,0,0,1-23,23h0a23,23,0,0,1-23-23L929.38,190a78.2,78.2,0,0,0-78.12-78.12h-449a78.2,78.2,0,0,0-78.11,78l.39,36v.25l-.39,750.39a78.2,78.2,0,0,0,78.11,78.1H788.91a23,23,0,0,1,0,46Z"/><path class="cls-1" d="M994.78,1435.1H825.1c-.74,0-1.48,0-2.21-.11-2.2-.21-54.45-5.52-107.33-33.8-72.54-38.8-111.2-101.52-111.79-181.37-.42-57-.57-97.91-.46-121.61,0-8.33.11-14.4.21-18.06.05-1.7.1-2.89.17-3.85a23,23,0,0,1,46-1.09,23.43,23.43,0,0,1-.14,5.81c-.18,5.52-.53,30.12.26,138.46.46,62.42,29.5,109.7,86.33,140.52,41.24,22.38,83.45,28.26,90.29,29.1H994.78c99.42,0,180.3-80.88,180.3-180.3V910.24a337.28,337.28,0,0,0-67.13-202L939.14,482.46A23,23,0,1,1,976,454.92l168.8,225.83a383.27,383.27,0,0,1,76.29,229.49V1208.8a226.29,226.29,0,0,1-226.3,226.3Z"/><path class="cls-1" d="M952.4,1313.73a23,23,0,0,1-5.94-.78c-2.06-.55-50.88-14-97.68-62.51C821.65,1222.3,800.54,1188,786,1148.56c-17.78-48.39-25.57-104.7-23.14-167.37a23,23,0,0,1,.21-2.35l1.47-10.31C747.4,950.1,704.45,903,662,848c-76-98.46-109.77-168.62-103.1-214.49,3-20.45,13.82-36.54,31.37-46.54,34.09-19.42,78.87-14.14,133.09,15.68,39.09,21.5,84.19,56.22,134,103.2,83.7,78.88,151.68,164.45,154.54,168.06a23,23,0,1,1-36.07,28.55c-.68-.86-69-86.85-150.34-163.43C727.46,646.69,650,605.83,613,626.91c-5.18,3-7.68,6.78-8.61,13.18-2.14,14.7,2.75,61.63,94,179.76,52.17,67.55,106.61,124.47,107.15,125a23,23,0,0,1,6.17,19.16l-2.86,20.09c-2.05,56.15,4.81,106.13,20.39,148.56,12.29,33.43,30,62.3,52.68,85.8,37.41,38.79,76.05,49.9,76.43,50a23,23,0,0,1-5.92,45.23Z"/><path class="cls-1" d="M693.37,1100.6a23,23,0,0,1-23-23v-222a23,23,0,0,1,46,0v222A23,23,0,0,1,693.37,1100.6Z"/><path class="cls-1" d="M693.37,636.27a23,23,0,0,1-23-23V88.9a23,23,0,1,1,46,0V613.27A23,23,0,0,1,693.37,636.27Z"/><path class="cls-1" d="M784,695.11h0a23,23,0,0,1-23-23l.32-583.21a23,23,0,0,1,23-23h0a23,23,0,0,1,23,23L807,672.13A23,23,0,0,1,784,695.11Z"/><path class="cls-1" d="M429.92,526.33a23,23,0,0,1-23-23V194a23,23,0,1,1,46,0V503.33A23,23,0,0,1,429.92,526.33Z"/><path class="cls-1" d="M546.84,405a23,23,0,0,1-23-23V194a23,23,0,0,1,46,0V382A23,23,0,0,1,546.84,405Z"/><path class="cls-1" d="M571.31,989.59H441a34.08,34.08,0,0,1-34.05-34.05V825.2A34.08,34.08,0,0,1,441,791.15H571.31a34.08,34.08,0,0,1,34.05,34.05V955.54A34.08,34.08,0,0,1,571.31,989.59Zm-118.39-46H559.36V837.15H452.92ZM571.31,837.15h0Z"/></g></svg>