<svg xmlns="http://www.w3.org/2000/svg" viewBox="0 0 1500 1500"><defs><style>.cls-1{fill:#404040;}</style></defs><title>Iconos correcciones_</title><g id="desayunos"><path class="cls-1" d="M1228,671.09H962.67a23,23,0,0,1-23-23V623.35C892.49,590,858.6,536.86,838.84,465.05c-16.74-60.82-18.93-120.51-18.75-150.67a23,23,0,1,1,46,.27c-.17,27.79,1.83,82.7,17.1,138.2,18.07,65.65,48.87,112.27,91.54,138.56A23,23,0,0,1,985.67,611v14.1H1205V611.26a23,23,0,0,1,10.85-19.53c97.63-60.75,106.64-214.12,106-277.24a23,23,0,1,1,46-.48c.38,37.32-2.31,93.75-17.34,150.63-19,72-52.46,125.39-99.49,158.91v24.54A23,23,0,0,1,1228,671.09Z"/><path class="cls-1" d="M1344.27,332.59H842.44a23,23,0,0,1,0-46h501.83a23,23,0,0,1,0,46Z"/><path class="cls-1" d="M1352.7,518q-10.35,0-21.57-1.06a23,23,0,1,1,4.29-45.8c35.52,3.33,59.88-3,72.41-18.69,14.88-18.68,13-50,9-70.85H1353.2a23,23,0,0,1,0-46h81.51a23,23,0,0,1,21.8,15.68,205.3,205.3,0,0,1,8.61,44.53c2.77,34.7-4.54,64.14-21.17,85.12C1424.43,505.52,1393.79,517.94,1352.7,518Z"/><path class="cls-1" d="M994.65,289.51,955.15,266l-.07.11c.19-.33,18.66-32.64,2.34-51.73-31.45-36.77-14.16-79.17-.63-96.46L993,146.23l.14-.19a44.6,44.6,0,0,0-6.63,14.66c-2.13,9-.27,16.57,5.86,23.74,16.13,18.86,21.42,43.46,15.3,71.15A123.33,123.33,0,0,1,994.65,289.51Z"/><path class="cls-1" d="M1098.55,236.42,1059,212.86l-.06.1c.19-.32,18.66-32.63,2.34-51.72-31.46-36.77-14.17-79.18-.63-96.46l36.21,28.36.15-.19a44.37,44.37,0,0,0-6.64,14.66c-2.13,9-.27,16.57,5.86,23.73,16.14,18.87,21.43,43.47,15.31,71.16A123.69,123.69,0,0,1,1098.55,236.42Z"/><path class="cls-1" d="M1210.51,289.51,1171,266l-.06.1c.18-.32,18.66-32.63,2.33-51.72-31.45-36.77-14.16-79.17-.63-96.46l36.22,28.36.15-.19a44.27,44.27,0,0,0-6.64,14.66c-2.13,9-.27,16.57,5.86,23.74,16.13,18.86,21.42,43.46,15.3,71.15A123.47,123.47,0,0,1,1210.51,289.51Z"/><path class="cls-1" d="M1285.21,671.09H901.5a23,23,0,0,1,0-46h383.71a23,23,0,0,1,0,46Z"/><path class="cls-1" d="M888.75,1359.92c-95.18,0-172.62-77.44-172.62-172.62s77.44-172.62,172.62-172.62,172.62,77.44,172.62,172.62a174.44,174.44,0,0,1-3,32.15,23,23,0,0,1-45.21-8.52,126.63,126.63,0,1,0-124.42,103,125.8,125.8,0,0,0,72.8-23A23,23,0,0,1,988,1328.53,171.54,171.54,0,0,1,888.75,1359.92Z"/><path class="cls-1" d="M1122.52,1360c-25,0-52.15-2.45-81.54-7.34-1.09-.18-27.11-4.64-72.33-23.19-28.79-11.8-61.27-34.51-96.53-67.51a23,23,0,0,1-7.29-17.22c.28-15,8.88-43.1,39.35-52.87a23.13,23.13,0,0,1,11.82-.59c2.22.47,157.76,32.21,230.47-40.51,71.94-71.94,87-101.93,107.93-143.45A83.22,83.22,0,0,1,1277,979.35c4.57-3.63,5.11-7.18,5.29-8.35a117,117,0,0,0,0-31.93,23,23,0,0,1,14.48-25.27c.38-.14,9.41-3.59,19.16-6.68,16.54-5.26,30.09-8.67,41.25-1a24.06,24.06,0,0,1,10.36,18.14c1.43,8.08,10.38,34.78,15.51,42.49,24.94,16.75,24.11,57.09,20.48,90.75l-.41,3.76c-5,46.43-14.2,132.84-77.2,204.71-24.41,27.85-55.72,58.79-102.89,77C1193.78,1354.34,1160.52,1360,1122.52,1360ZM914.18,1238.05c26.88,23.87,51,40.28,71.92,48.84,39.81,16.33,62.3,20.35,62.52,20.39,65.53,10.9,117.17,8.57,157.81-7.16,37.77-14.62,63.13-39.62,84.9-64.46,53.4-60.92,61.32-135,66.06-179.28l.4-3.8c3.75-34.73-.19-45.78-1.4-48.23-7-4.39-14.91-13.1-25-41-.26-.71-1-2.84-2-5.8a152.54,152.54,0,0,1-1.64,20.34c-2.25,14.76-9.9,27.7-22.13,37.43a37.91,37.91,0,0,0-10.1,12.63c-22,43.65-39.32,78.13-116.49,155.3-21.6,21.6-49.82,37.75-83.87,48-26.26,7.91-56.08,12.33-88.63,13.16a485.82,485.82,0,0,1-92-6.65ZM1321.6,926c0,.71,0,1.43.11,2.14C1321.64,927.34,1321.6,926.62,1321.6,926Zm46-.07v0Z"/><path class="cls-1" d="M822.72,1038.5c0-.18-.56-18.44-11.85-34.23-6.9-9.66-16.21-16.35-28.47-20.47a23,23,0,0,1,14.65-43.6c21.45,7.2,38.69,19.76,51.24,37.31C868,1005,868.7,1034.74,868.72,1038l-46,.27Z"/><path class="cls-1" d="M853.64,1011.1a98.33,98.33,0,0,1-19.91-2.14,25.63,25.63,0,0,1-26.94-25c-7.13-32,2.13-52.74,11.67-64.84,25.57-32.47,75.2-33,86.78-32.65a23,23,0,0,1,24.1,21.74c.33,6.19,2.24,61.26-32.57,88.68C887.66,1004.08,873.63,1011.1,853.64,1011.1ZM850.32,965c7.59.59,13.6-.81,17.94-4.2,5.89-4.61,10.5-13.92,13-26.3-12.6,2.52-22.08,7.17-26.75,13.14C851.25,951.87,849.84,957.68,850.32,965Z"/><path class="cls-1" d="M997.5,1072.5c-7.28-24.33-7.2-48.86.23-69,4.28-11.64,12.75-26.51,28.77-31.31a34.87,34.87,0,0,1,10.08-1.47c8.43,0,17.61,3,26.53,8.61a45.91,45.91,0,0,0,24.56,7.11c.64,0,1.29,0,1.93,0h0a46,46,0,0,0,43.39-4.92c9.79-6.81,19.9-10.41,29.24-10.41a35.08,35.08,0,0,1,10.06,1.47c16,4.8,24.5,19.68,28.78,31.31,7.43,20.2,7.51,44.72.22,69a121.93,121.93,0,0,1-19.17,38.51c14.9,5,28.15,13.1,40.34,22.68a169.85,169.85,0,0,0,22.9-48c10.12-33.79,9.72-68.64-1.12-98.12-11.17-30.37-32-51.5-58.75-59.5a80.79,80.79,0,0,0-23.26-3.4c-18.77,0-37.87,6.39-55.5,18.64a84.85,84.85,0,0,0-10-26.16,57.43,57.43,0,0,0,49.45-72,8.81,8.81,0,0,0-6.25-6.25,57,57,0,0,0-14.79-1.94A57.38,57.38,0,0,0,1068,888.07a84.88,84.88,0,0,0-44.92-12.8,8.84,8.84,0,0,0,0,17.68,67.83,67.83,0,0,1,64.61,47.44c-16.38-10.34-33.88-15.72-51.09-15.72a80.85,80.85,0,0,0-23.27,3.4c-26.72,8-47.58,29.13-58.75,59.5-7.61,20.69-10.07,44-7.36,67.78,17.13,6.41,34.16,13.08,51.16,19.84C998.07,1074.29,997.78,1073.4,997.5,1072.5Z"/></g><g id="Capa_74" data-name="Capa 74"><path class="cls-1" d="M454.07,898a171.76,171.76,0,0,1-122.26-50.65c-67.41-67.41-67.41-177.1,0-244.51a172.89,172.89,0,0,1,244.51,0c67.42,67.41,67.42,177.1,0,244.51A171.74,171.74,0,0,1,454.07,898Zm0-299.8A126.9,126.9,0,1,0,543.8,814.86c49.47-49.48,49.47-130,0-179.46A126.07,126.07,0,0,0,454.07,598.23Z"/><path class="cls-1" d="M353,1062.77c-34,0-66.66-8.63-92.64-24.61-29.79-18.32-49.47-45.32-55.42-76l-.06-.3c-5.61-31.21-30.61-56.64-68.59-69.77s-68.56-27.82-90.67-43.56c-26.72-19-40.27-39.32-40.27-60.35,0-36.76,19.79-71.42,55.72-97.61,29.36-21.45,39.89-50.24,28.14-77-9.35-21.46-12-43.45-7.75-65.43,6.14-31.88,27.23-60.38,59.38-80.28,30.19-18.7,69.07-29,109.47-29h2.15a253.44,253.44,0,0,1,57,7c24.38,6,49,.17,59.91-14.07,25.78-33.67,73.26-50,123.89-42.57,60.85,8.84,98.47,38.63,115,91.07,6.75,21.44,24.72,40,48,49.63,60.62,24.93,99.82,78.07,99.82,135.38a127.78,127.78,0,0,1-23.36,73.31,32.9,32.9,0,0,0-1.33,36.51A117.76,117.76,0,0,1,746.71,854v0c-8.25,54.55-54.66,103.14-115.47,120.9-26.25,7.68-52.54,9.72-78.14,6l-.56-.08c-15.78-2.24-33.94,4.63-45.18,17.1-34.54,38.34-89.3,62.52-146.5,64.67Q356.94,1062.77,353,1062.77ZM250.16,953.52c4.49,22.87,21.14,37.34,34.34,45.46,20.28,12.48,46.78,18.75,74.6,17.67,45-1.69,87.68-20.19,114.07-49.5,21.24-23.56,54.63-36,85.22-31.92l.79.1c19.18,2.81,39.08,1.26,59.15-4.61a129.09,129.09,0,0,0,56.59-33.61c14.52-15,23.62-32.28,26.3-50a72.19,72.19,0,0,0-9.28-48.36,78.82,78.82,0,0,1,3.08-86.4,82,82,0,0,0,15.1-47c0-38.58-28-75-71.35-92.85-35.79-14.78-63.6-44.06-74.4-78.34-11.11-35.32-34.36-53.07-77.73-59.37-34.16-5-65.09,4.59-80.74,25-11.22,14.65-27.73,25.23-47.75,30.61a120.28,120.28,0,0,1-59.56.18,207.1,207.1,0,0,0-46.45-5.73h-1.79c-32,0-62.24,7.85-85.26,22.1C144,520,130.35,537.7,126.68,556.79c-2.46,12.85-.92,25.4,4.71,38.33a98.42,98.42,0,0,1,3.21,72.37c-7.8,22.93-23.83,43.75-46.37,60.22C64.46,745,51.39,766.49,51.39,788.16c0,2.22,3.76,10.65,21,22.88,18.27,13,45.59,26,79,37.55C205.46,867.3,241.46,905.54,250.16,953.52Zm473.8-103h0Z"/></g></svg>