<svg id="svg" version="1.1" width="400" height="279.78142076502735" viewBox="0 0 400 279.78142076502735" xmlns="http://www.w3.org/2000/svg" xmlns:xlink="http://www.w3.org/1999/xlink" ><g id="svgg"><path id="path0" d="" stroke="none" fill="#000000" fill-rule="evenodd"></path><path id="path1" d="" stroke="none" fill="#171717" fill-rule="evenodd"></path><path id="path2" d="" stroke="none" fill="#242424" fill-rule="evenodd"></path><path id="path3" d="" stroke="none" fill="#333333" fill-rule="evenodd"></path><path id="path4" d="M256.694 0.566 C 184.791 5.947,119.101 46.378,97.281 98.681 C 95.967 101.830,101.430 100.818,57.726 106.008 C 27.580 109.589,20.865 110.460,19.995 110.903 C 14.339 113.789,16.260 122.882,22.541 122.954 C 23.292 122.962,39.119 121.158,57.711 118.945 C 76.303 116.732,91.578 114.984,91.655 115.061 C 91.732 115.139,91.502 116.669,91.142 118.462 C 90.783 120.254,90.404 122.367,90.301 123.156 C 90.197 123.945,90.026 124.590,89.919 124.590 C 87.695 124.590,40.497 130.148,39.820 130.490 C 33.751 133.552,35.680 142.595,42.409 142.631 C 43.203 142.635,54.030 141.511,66.469 140.133 C 78.908 138.755,89.134 137.677,89.193 137.736 C 89.316 137.859,89.926 145.140,89.822 145.239 C 89.785 145.274,76.616 147.032,60.559 149.145 C 28.142 153.411,29.792 153.091,28.301 155.411 C 25.381 159.958,28.223 165.574,33.444 165.574 C 34.295 165.574,88.925 158.493,91.447 158.056 L 92.320 157.904 93.147 160.578 C 93.601 162.048,94.267 164.000,94.626 164.914 L 95.280 166.577 92.107 167.044 C 82.336 168.482,68.479 170.669,63.115 171.620 C 48.703 174.175,5.948 182.332,4.461 182.810 C -1.506 184.728,-1.064 193.737,5.065 195.108 C 6.434 195.415,7.284 195.282,21.765 192.498 C 59.692 185.208,69.806 183.412,89.481 180.473 C 95.041 179.643,99.963 178.901,100.419 178.825 C 101.214 178.692,101.324 178.804,103.151 181.621 C 108.771 190.285,118.010 199.821,127.650 206.907 C 135.591 212.744,157.080 222.983,167.623 225.953 C 168.074 226.080,170.225 226.689,172.404 227.306 C 178.480 229.026,190.112 231.224,198.087 232.158 C 218.322 234.529,253.253 231.805,270.492 226.512 C 271.469 226.212,274.727 225.212,277.732 224.290 C 296.427 218.552,311.586 212.204,327.998 203.239 C 330.775 201.722,336.524 197.916,339.961 195.320 C 341.427 194.212,343.647 192.600,344.894 191.737 C 369.325 174.831,390.489 145.577,396.968 119.759 C 412.151 59.246,366.361 8.943,288.798 0.929 C 283.831 0.416,262.000 0.169,256.694 0.566 M278.962 13.240 C 293.154 13.643,308.573 16.405,322.404 21.022 C 383.556 41.435,404.526 95.232,371.127 146.013 C 330.539 207.724,230.205 237.814,159.426 209.502 C 154.150 207.392,146.712 203.767,145.533 202.732 C 145.028 202.288,143.785 201.553,142.771 201.098 C 136.041 198.079,122.807 186.620,116.888 178.689 C 73.179 120.120,132.572 36.802,232.269 16.824 C 244.764 14.321,262.390 12.640,272.131 13.024 C 273.258 13.068,276.332 13.165,278.962 13.240 M222.268 57.153 C 210.020 58.231,200.947 72.295,205.334 83.402 C 205.512 83.851,204.997 83.880,196.794 83.880 L 188.065 83.880 186.386 84.719 C 184.048 85.887,183.510 86.662,180.319 93.462 C 178.772 96.758,177.446 99.395,177.372 99.321 C 177.299 99.248,176.041 96.573,174.577 93.378 C 171.664 87.019,170.745 85.678,168.484 84.485 L 167.077 83.743 154.235 83.743 L 141.393 83.743 140.133 84.484 C 137.252 86.178,135.963 88.556,136.110 91.903 L 136.208 94.126 150.276 121.399 C 165.068 150.076,165.219 150.337,167.698 151.554 L 169.262 152.322 177.322 152.322 L 185.383 152.322 186.797 151.577 C 189.005 150.412,189.439 149.714,198.133 133.333 C 202.639 124.843,206.500 117.589,206.714 117.213 C 207.052 116.618,207.093 118.461,207.034 131.557 L 206.967 146.585 207.730 148.137 C 209.736 152.224,210.857 152.575,222.208 152.683 L 231.439 152.771 231.407 162.826 C 231.371 174.461,231.402 174.633,233.925 176.901 C 236.137 178.890,236.359 178.921,248.907 179.009 L 259.973 179.087 261.327 178.421 C 265.615 176.313,265.948 175.261,266.064 163.456 C 266.119 157.761,266.262 153.825,266.412 153.825 C 266.552 153.825,267.804 154.024,269.194 154.266 C 277.625 155.739,288.350 153.213,294.634 148.276 C 295.533 147.569,295.767 147.496,296.219 147.779 C 310.574 156.743,331.040 157.317,343.169 149.095 C 355.872 140.484,358.413 122.052,348.337 111.612 L 346.227 109.426 349.102 104.098 C 354.857 93.435,354.427 89.567,347.148 86.521 C 330.936 79.736,310.675 82.756,302.292 93.207 C 300.719 95.168,301.236 95.296,297.976 92.138 C 288.797 83.246,275.616 80.205,264.143 84.333 C 262.372 84.970,262.247 84.980,260.883 84.574 C 259.747 84.237,257.886 84.153,251.558 84.153 L 243.652 84.153 243.831 83.538 C 248.066 68.982,237.317 55.829,222.268 57.153 M227.728 65.626 C 233.639 67.125,237.584 73.536,236.305 79.563 C 234.393 88.563,223.254 92.234,216.564 86.068 C 207.322 77.549,215.523 62.532,227.728 65.626 M280.738 91.530 C 299.733 96.469,307.051 120.757,294.469 137.105 C 286.607 147.321,270.278 149.569,260.494 141.783 C 259.563 141.042,258.731 140.252,258.644 140.027 C 258.022 138.405,257.923 140.497,257.923 155.355 L 257.923 171.092 248.702 170.895 C 243.630 170.787,239.473 170.683,239.463 170.663 C 239.453 170.644,239.534 157.534,239.643 141.530 C 239.752 125.526,239.853 107.913,239.866 102.391 L 239.891 92.350 249.044 92.350 L 258.197 92.350 258.197 95.355 C 258.197 97.008,258.254 98.361,258.325 98.361 C 258.395 98.361,259.409 97.401,260.579 96.229 C 265.474 91.319,273.094 89.543,280.738 91.530 M335.285 91.682 C 338.173 92.136,343.510 93.698,344.315 94.325 C 344.715 94.636,344.448 95.260,341.741 100.329 L 338.721 105.986 337.735 105.550 C 329.592 101.950,320.780 103.728,323.063 108.512 C 323.889 110.242,324.636 110.546,332.606 112.397 C 342.189 114.622,346.456 119.678,346.115 128.406 C 345.471 144.898,323.702 152.177,303.962 142.500 C 299.587 140.356,299.785 140.656,301.258 138.388 C 302.926 135.819,304.431 132.614,305.335 129.705 C 306.057 127.380,306.099 127.317,306.661 127.682 C 317.150 134.502,327.862 135.188,327.868 129.040 C 327.870 126.534,326.150 125.543,318.720 123.770 C 307.978 121.206,304.120 116.942,304.729 108.307 C 305.612 95.805,318.149 88.984,335.285 91.682 M171.000 105.396 C 174.394 112.797,177.237 118.852,177.318 118.852 C 177.399 118.852,180.292 112.831,183.747 105.471 L 190.027 92.089 200.369 92.083 L 210.710 92.077 210.189 92.964 C 209.902 93.453,203.666 105.195,196.330 119.057 L 182.993 144.262 177.195 144.262 L 171.397 144.262 158.336 118.921 C 151.153 104.983,145.036 93.178,144.744 92.688 L 144.214 91.797 154.522 91.868 L 164.830 91.940 171.000 105.396 M220.179 94.819 C 223.830 95.947,228.418 95.455,231.899 93.562 L 233.607 92.633 233.607 111.983 C 233.607 122.625,233.525 134.303,233.426 137.934 L 233.246 144.536 224.092 144.536 L 214.938 144.536 215.119 129.986 C 215.219 121.984,215.300 110.251,215.300 103.913 L 215.301 92.390 216.872 93.336 C 217.736 93.856,219.224 94.524,220.179 94.819 M267.213 107.203 C 257.544 109.303,254.294 121.859,261.712 128.458 C 267.008 133.169,275.914 132.198,279.852 126.479 C 286.335 117.066,278.290 104.797,267.213 107.203 M340.113 202.270 C 336.675 204.880,332.995 207.363,329.508 209.427 C 327.780 210.450,326.030 211.488,325.618 211.734 C 324.900 212.164,325.025 212.184,328.760 212.225 C 342.197 212.372,353.263 218.146,355.316 226.082 C 357.852 235.882,346.712 248.906,330.502 255.092 C 305.847 264.501,279.079 255.021,283.333 238.387 C 284.112 235.342,288.135 228.415,289.125 228.415 C 289.245 228.415,289.344 228.292,289.344 228.142 C 289.344 227.680,288.869 227.803,282.042 230.040 C 278.401 231.233,274.651 232.419,273.708 232.676 C 270.710 233.494,270.081 235.128,270.084 242.077 C 270.098 275.135,327.645 282.644,356.974 253.415 C 376.149 234.305,370.777 210.028,345.577 201.914 C 343.974 201.398,342.723 200.879,342.796 200.761 C 343.173 200.150,342.146 200.728,340.113 202.270 M125.296 216.189 C 108.008 233.498,110.934 255.751,131.770 265.422 C 155.840 276.593,192.039 266.709,206.764 244.945 C 208.054 243.038,210.100 239.343,210.105 238.909 C 210.108 238.708,208.055 238.551,203.757 238.426 C 200.263 238.324,197.086 238.170,196.696 238.085 C 196.073 237.949,195.765 238.198,194.127 240.162 C 180.512 256.486,149.833 262.456,133.998 251.865 C 124.949 245.813,124.554 236.771,132.910 226.979 C 135.122 224.387,139.447 220.717,140.027 220.939 C 141.660 221.566,139.795 220.203,136.680 218.495 C 134.614 217.361,131.890 215.809,130.626 215.047 C 127.765 213.321,128.267 213.214,125.296 216.189 " stroke="none" fill="#3e3e3e" fill-rule="evenodd"></path></g></svg>