<svg id="svg" version="1.1" width="400" height="279.78142076502735" viewBox="0 0 400 279.78142076502735" xmlns="http://www.w3.org/2000/svg" xmlns:xlink="http://www.w3.org/1999/xlink" ><g id="svgg"><path id="path0" d="" stroke="none" fill="#000000" fill-rule="evenodd"></path><path id="path1" d="" stroke="none" fill="#171717" fill-rule="evenodd"></path><path id="path2" d="" stroke="none" fill="#282828" fill-rule="evenodd"></path><path id="path3" d="M127.322 217.184 C 127.322 217.374,127.175 217.434,126.981 217.322 C 126.793 217.214,126.735 217.231,126.853 217.360 C 126.970 217.489,126.049 218.646,124.806 219.931 L 122.545 222.268 125.126 219.751 C 126.546 218.367,127.621 217.147,127.515 217.041 C 127.409 216.935,127.322 217.000,127.322 217.184 M121.858 223.195 C 121.858 223.385,121.711 223.445,121.516 223.333 C 121.329 223.225,121.266 223.237,121.377 223.360 C 121.489 223.483,121.435 223.779,121.257 224.019 C 121.079 224.258,121.227 224.180,121.585 223.846 C 121.944 223.512,122.152 223.154,122.048 223.049 C 121.943 222.945,121.858 223.010,121.858 223.195 M119.820 225.391 C 119.634 225.693,120.065 226.019,120.317 225.767 C 120.577 225.507,120.528 225.137,120.235 225.137 C 120.093 225.137,119.907 225.251,119.820 225.391 M195.274 241.693 C 195.004 242.054,194.882 242.350,195.003 242.350 C 195.242 242.350,195.996 241.257,195.852 241.120 C 195.804 241.075,195.544 241.332,195.274 241.693 M192.102 245.412 C 190.688 246.872,189.442 248.011,189.332 247.943 C 189.064 247.778,188.400 248.600,188.622 248.823 C 188.719 248.919,188.798 248.855,188.798 248.679 C 188.798 248.504,188.954 248.361,189.144 248.361 C 189.504 248.361,195.012 242.974,194.795 242.835 C 194.727 242.792,193.516 243.951,192.102 245.412 M187.707 249.314 C 187.522 249.538,187.261 249.653,187.128 249.571 C 186.994 249.489,186.885 249.552,186.885 249.711 C 186.885 250.163,187.300 250.052,187.842 249.454 C 188.114 249.153,188.271 248.907,188.191 248.907 C 188.111 248.907,187.893 249.090,187.707 249.314 M129.235 251.012 C 129.235 251.301,131.765 253.825,132.054 253.825 C 132.167 253.825,131.825 253.444,131.295 252.978 C 130.764 252.512,130.400 252.017,130.486 251.878 C 130.571 251.739,130.484 251.660,130.292 251.701 C 130.100 251.742,129.937 251.602,129.930 251.389 C 129.917 250.978,129.235 250.608,129.235 251.012 " stroke="none" fill="#353535" fill-rule="evenodd"></path><path id="path4" d="M256.694 0.566 C 184.791 5.947,119.101 46.378,97.281 98.681 C 95.967 101.830,101.430 100.818,57.726 106.008 C 27.580 109.589,20.865 110.460,19.995 110.903 C 14.339 113.789,16.260 122.882,22.541 122.954 C 23.292 122.962,39.119 121.158,57.711 118.945 C 76.303 116.732,91.578 114.984,91.655 115.061 C 91.732 115.139,91.502 116.669,91.142 118.462 C 90.783 120.254,90.404 122.367,90.301 123.156 C 90.197 123.945,90.026 124.590,89.919 124.590 C 87.695 124.590,40.497 130.148,39.820 130.490 C 33.751 133.552,35.680 142.595,42.409 142.631 C 43.203 142.635,54.030 141.511,66.469 140.133 C 78.908 138.755,89.134 137.677,89.193 137.736 C 89.316 137.859,89.926 145.140,89.822 145.239 C 89.785 145.274,76.616 147.032,60.559 149.145 C 28.142 153.411,29.792 153.091,28.301 155.411 C 25.381 159.958,28.223 165.574,33.444 165.574 C 34.295 165.574,88.925 158.493,91.447 158.056 L 92.320 157.904 93.147 160.578 C 93.601 162.048,94.267 164.000,94.626 164.914 L 95.280 166.577 92.107 167.044 C 82.336 168.482,68.479 170.669,63.115 171.620 C 48.703 174.175,5.948 182.332,4.461 182.810 C -1.506 184.728,-1.064 193.737,5.065 195.108 C 6.434 195.415,7.284 195.282,21.765 192.498 C 59.692 185.208,69.806 183.412,89.481 180.473 C 95.041 179.643,99.963 178.901,100.419 178.825 C 101.214 178.692,101.324 178.804,103.151 181.621 C 108.771 190.285,118.010 199.821,127.650 206.907 C 135.591 212.744,157.080 222.983,167.623 225.953 C 168.074 226.080,170.225 226.689,172.404 227.306 C 177.384 228.716,185.523 230.361,192.045 231.276 C 194.808 231.664,197.144 232.025,197.237 232.079 C 197.329 232.132,198.941 232.253,200.820 232.347 C 202.698 232.440,205.772 232.609,207.650 232.720 C 227.216 233.884,256.818 230.958,270.492 226.507 C 271.318 226.238,272.732 225.807,273.634 225.549 C 299.535 218.145,325.239 206.395,340.230 195.105 C 341.544 194.116,343.641 192.600,344.890 191.737 C 369.287 174.882,390.490 145.576,396.968 119.759 C 412.151 59.246,366.361 8.943,288.798 0.929 C 283.831 0.416,262.000 0.169,256.694 0.566 M278.962 13.240 C 293.154 13.643,308.573 16.405,322.404 21.022 C 383.556 41.435,404.526 95.232,371.127 146.013 C 330.539 207.724,230.205 237.814,159.426 209.502 C 154.150 207.392,146.712 203.767,145.533 202.732 C 145.028 202.288,143.785 201.553,142.771 201.098 C 136.041 198.079,122.807 186.620,116.888 178.689 C 73.179 120.120,132.572 36.802,232.269 16.824 C 244.764 14.321,262.390 12.640,272.131 13.024 C 273.258 13.068,276.332 13.165,278.962 13.240 M222.268 57.153 C 210.020 58.231,200.947 72.295,205.334 83.402 C 205.512 83.851,204.997 83.880,196.794 83.880 L 188.065 83.880 186.386 84.719 C 184.048 85.887,183.510 86.662,180.319 93.462 C 178.772 96.758,177.446 99.395,177.372 99.321 C 177.299 99.248,176.041 96.573,174.577 93.378 C 171.664 87.019,170.745 85.678,168.484 84.485 L 167.077 83.743 154.235 83.743 L 141.393 83.743 140.133 84.484 C 137.252 86.178,135.963 88.556,136.110 91.903 L 136.208 94.126 150.276 121.399 C 165.068 150.076,165.219 150.337,167.698 151.554 L 169.262 152.322 177.322 152.322 L 185.383 152.322 186.797 151.577 C 189.005 150.412,189.439 149.714,198.133 133.333 C 202.639 124.843,206.500 117.589,206.714 117.213 C 207.052 116.618,207.093 118.461,207.034 131.557 L 206.967 146.585 207.730 148.137 C 209.736 152.224,210.857 152.575,222.208 152.683 L 231.439 152.771 231.407 162.826 C 231.371 174.461,231.402 174.633,233.925 176.901 C 236.137 178.890,236.359 178.921,248.907 179.009 L 259.973 179.087 261.327 178.421 C 265.615 176.313,265.948 175.261,266.064 163.456 C 266.119 157.761,266.262 153.825,266.412 153.825 C 266.552 153.825,267.804 154.024,269.194 154.266 C 277.625 155.739,288.350 153.213,294.634 148.276 C 295.533 147.569,295.767 147.496,296.219 147.779 C 310.574 156.743,331.040 157.317,343.169 149.095 C 355.872 140.484,358.413 122.052,348.337 111.612 L 346.227 109.426 349.102 104.098 C 354.857 93.435,354.427 89.567,347.148 86.521 C 330.936 79.736,310.675 82.756,302.292 93.207 C 300.719 95.168,301.236 95.296,297.976 92.138 C 288.797 83.246,275.616 80.205,264.143 84.333 C 262.372 84.970,262.247 84.980,260.883 84.574 C 259.747 84.237,257.886 84.153,251.558 84.153 L 243.652 84.153 243.831 83.538 C 248.066 68.982,237.317 55.829,222.268 57.153 M227.728 65.626 C 233.639 67.125,237.584 73.536,236.305 79.563 C 234.393 88.563,223.254 92.234,216.564 86.068 C 207.322 77.549,215.523 62.532,227.728 65.626 M280.738 91.530 C 299.733 96.469,307.051 120.757,294.469 137.105 C 286.607 147.321,270.278 149.569,260.494 141.783 C 259.563 141.042,258.731 140.252,258.644 140.027 C 258.022 138.405,257.923 140.497,257.923 155.355 L 257.923 171.092 248.702 170.895 C 243.630 170.787,239.473 170.683,239.463 170.663 C 239.453 170.644,239.534 157.534,239.643 141.530 C 239.752 125.526,239.853 107.913,239.866 102.391 L 239.891 92.350 249.044 92.350 L 258.197 92.350 258.197 95.355 C 258.197 97.008,258.254 98.361,258.325 98.361 C 258.395 98.361,259.409 97.401,260.579 96.229 C 265.474 91.319,273.094 89.543,280.738 91.530 M335.285 91.682 C 338.173 92.136,343.510 93.698,344.315 94.325 C 344.715 94.636,344.448 95.260,341.741 100.329 L 338.721 105.986 337.735 105.550 C 329.592 101.950,320.780 103.728,323.063 108.512 C 323.889 110.242,324.636 110.546,332.606 112.397 C 342.189 114.622,346.456 119.678,346.115 128.406 C 345.471 144.898,323.702 152.177,303.962 142.500 C 299.587 140.356,299.785 140.656,301.258 138.388 C 302.926 135.819,304.431 132.614,305.335 129.705 C 306.057 127.380,306.099 127.317,306.661 127.682 C 317.150 134.502,327.862 135.188,327.868 129.040 C 327.870 126.534,326.150 125.543,318.720 123.770 C 307.978 121.206,304.120 116.942,304.729 108.307 C 305.612 95.805,318.149 88.984,335.285 91.682 M171.000 105.396 C 174.394 112.797,177.237 118.852,177.318 118.852 C 177.399 118.852,180.292 112.831,183.747 105.471 L 190.027 92.089 200.369 92.083 L 210.710 92.077 210.189 92.964 C 209.902 93.453,203.666 105.195,196.330 119.057 L 182.993 144.262 177.195 144.262 L 171.397 144.262 158.336 118.921 C 151.153 104.983,145.036 93.178,144.744 92.688 L 144.214 91.797 154.522 91.868 L 164.830 91.940 171.000 105.396 M220.179 94.819 C 223.830 95.947,228.418 95.455,231.899 93.562 L 233.607 92.633 233.607 111.983 C 233.607 122.625,233.525 134.303,233.426 137.934 L 233.246 144.536 224.092 144.536 L 214.938 144.536 215.119 129.986 C 215.219 121.984,215.300 110.251,215.300 103.913 L 215.301 92.390 216.872 93.336 C 217.736 93.856,219.224 94.524,220.179 94.819 M267.213 107.203 C 257.544 109.303,254.294 121.859,261.712 128.458 C 267.008 133.169,275.914 132.198,279.852 126.479 C 286.335 117.066,278.290 104.797,267.213 107.203 M339.447 207.116 C 337.813 208.325,336.107 209.593,335.656 209.933 C 334.762 210.607,329.607 213.796,326.776 215.426 C 325.799 215.989,324.974 216.473,324.943 216.502 C 324.911 216.530,326.632 216.573,328.768 216.596 C 342.196 216.743,353.263 222.520,355.316 230.454 C 357.852 240.254,346.712 253.278,330.502 259.464 C 305.847 268.873,279.079 259.393,283.333 242.759 C 284.112 239.713,288.135 232.787,289.125 232.787 C 289.245 232.787,289.344 232.664,289.344 232.514 C 289.344 232.051,288.869 232.175,282.042 234.412 C 278.401 235.604,274.651 236.791,273.708 237.048 C 270.710 237.866,270.081 239.499,270.084 246.448 C 270.098 279.506,327.645 287.016,356.974 257.787 C 376.149 238.677,370.777 214.399,345.577 206.286 C 343.974 205.770,342.723 205.251,342.796 205.133 C 343.179 204.512,342.118 205.141,339.447 207.116 M124.658 219.588 C 123.419 220.897,122.404 222.087,122.404 222.232 C 122.404 222.377,122.435 222.440,122.473 222.373 C 122.510 222.306,123.645 221.117,124.994 219.732 C 126.344 218.347,127.327 217.212,127.180 217.211 C 127.033 217.210,125.898 218.280,124.658 219.588 M125.594 220.800 C 121.207 225.260,118.104 229.850,115.964 235.046 C 115.454 236.283,115.026 237.049,115.013 236.749 L 114.989 236.202 114.754 236.749 C 114.410 237.550,114.431 238.041,114.801 237.813 C 115.018 237.678,115.062 237.767,114.937 238.092 C 114.836 238.355,114.754 238.751,114.754 238.973 C 114.754 239.195,114.644 239.308,114.509 239.225 C 113.752 238.757,113.925 248.359,114.727 251.366 C 122.394 280.088,174.391 283.300,200.957 256.694 C 205.803 251.841,211.343 243.443,209.699 243.443 C 209.368 243.443,209.300 243.292,209.437 242.862 C 209.561 242.471,209.522 242.342,209.319 242.468 C 209.153 242.571,209.016 242.838,209.016 243.061 C 209.016 243.519,203.201 243.563,198.497 243.140 L 196.038 242.919 195.082 244.069 C 189.279 251.046,181.364 256.278,172.107 259.255 C 153.678 265.182,133.328 261.227,128.185 250.719 C 127.206 248.719,126.765 246.808,127.353 247.112 C 127.562 247.220,127.505 247.123,127.228 246.897 C 125.894 245.810,127.556 239.230,130.114 235.473 C 132.939 231.324,138.976 225.454,140.010 225.851 C 141.352 226.366,140.296 225.340,138.571 224.454 C 137.419 223.862,134.714 222.352,132.562 221.099 C 130.410 219.845,128.468 218.751,128.247 218.666 C 127.988 218.566,127.047 219.323,125.594 220.800 M121.294 223.566 C 120.316 224.807,120.029 225.445,120.895 224.454 C 121.579 223.671,122.238 222.678,122.072 222.678 C 122.030 222.678,121.679 223.077,121.294 223.566 M119.272 226.430 C 118.891 226.990,118.579 227.561,118.579 227.697 C 118.579 227.909,119.338 226.899,120.042 225.751 C 120.537 224.942,119.903 225.502,119.272 226.430 M117.350 229.781 C 116.954 230.563,116.686 231.257,116.753 231.325 C 116.821 231.393,117.197 230.806,117.589 230.020 C 117.980 229.235,118.249 228.540,118.185 228.477 C 118.122 228.413,117.746 229.000,117.350 229.781 M192.008 245.159 C 190.543 246.671,189.344 247.977,189.344 248.060 C 189.344 248.299,194.268 243.363,194.564 242.828 C 194.951 242.126,194.909 242.165,192.008 245.159 M127.596 248.145 C 127.596 248.377,127.800 248.736,128.050 248.942 C 128.466 249.285,128.474 249.259,128.150 248.634 C 127.674 247.718,127.596 247.649,127.596 248.145 M185.028 250.937 C 183.828 251.785,183.536 252.148,184.563 251.515 C 185.983 250.639,186.469 250.273,186.195 250.287 C 186.049 250.294,185.524 250.587,185.028 250.937 M130.477 252.207 C 131.071 252.820,131.803 253.445,132.104 253.596 C 132.404 253.746,131.980 253.245,131.162 252.481 C 129.375 250.815,128.971 250.653,130.477 252.207 M133.880 254.918 C 134.556 255.368,135.226 255.736,135.368 255.737 C 135.510 255.737,135.044 255.369,134.334 254.918 C 132.654 253.853,132.278 253.853,133.880 254.918 M135.792 256.135 C 135.792 256.350,137.718 257.182,137.868 257.031 C 137.947 256.952,137.617 256.690,137.134 256.449 C 136.254 256.011,135.792 255.902,135.792 256.135 M172.893 256.872 C 172.648 257.027,172.724 257.097,173.140 257.100 C 173.469 257.102,173.802 257.001,173.879 256.876 C 174.060 256.583,173.353 256.580,172.893 256.872 M171.175 257.377 C 170.691 257.585,170.714 257.614,171.380 257.631 C 171.793 257.642,172.131 257.527,172.131 257.377 C 172.131 257.056,171.921 257.056,171.175 257.377 M139.754 257.923 C 139.847 258.074,140.192 258.188,140.522 258.178 C 141.099 258.159,141.101 258.150,140.574 257.923 C 139.822 257.600,139.554 257.600,139.754 257.923 M167.350 258.470 C 166.866 258.678,166.889 258.707,167.555 258.724 C 167.968 258.735,168.306 258.620,168.306 258.470 C 168.306 258.149,168.096 258.149,167.350 258.470 M164.754 259.016 L 164.071 259.235 164.822 259.262 C 165.236 259.277,165.574 259.167,165.574 259.016 C 165.574 258.866,165.543 258.755,165.505 258.770 C 165.468 258.785,165.130 258.896,164.754 259.016 M161.339 259.563 L 160.246 259.759 161.254 259.797 C 161.809 259.819,162.339 259.713,162.432 259.563 C 162.525 259.413,162.563 259.307,162.516 259.328 C 162.470 259.350,161.940 259.455,161.339 259.563 M147.476 259.756 C 147.816 259.821,148.308 259.819,148.569 259.751 C 148.830 259.682,148.552 259.629,147.951 259.632 C 147.350 259.635,147.136 259.691,147.476 259.756 " stroke="none" fill="#3e3e3e" fill-rule="evenodd"></path></g></svg>