<svg id="Layer_1" data-name="Layer 1" xmlns="http://www.w3.org/2000/svg" viewBox="0 0 1500 1500"><defs><style>.cls-1{fill:#4a4a4a;}.cls-2{fill:#ea0029;}</style></defs><title>Artboard 4 copy 51</title><path class="cls-1" d="M136.09,721.12a20.88,20.88,0,0,1-2.45-41.61l258.73-30.87a20.88,20.88,0,1,1,4.95,41.47L138.59,721A23.27,23.27,0,0,1,136.09,721.12Z"/><path class="cls-1" d="M201.17,786.58a20.88,20.88,0,0,1-2.28-41.64l177-19.66a20.88,20.88,0,1,1,4.61,41.51l-177,19.66A22.74,22.74,0,0,1,201.17,786.58Z"/><path class="cls-1" d="M171.14,862.56A20.88,20.88,0,0,1,168.42,821l207-27.23a20.88,20.88,0,0,1,5.44,41.41l-207,27.23A19,19,0,0,1,171.14,862.56Z"/><path class="cls-1" d="M81.56,961.16a20.88,20.88,0,0,1-4-41.38c6.27-1.22,154.25-30,205.28-38.66,26-4.38,80.62-12.56,121.9-18.63a20.88,20.88,0,0,1,6.09,41.32h0c-41.08,6-95.43,14.16-121,18.49-50.52,8.55-202.75,38.13-204.26,38.46A21.74,21.74,0,0,1,81.56,961.16Z"/><path class="cls-1" d="M576.72,1190.5c-31.37,0-60.18-6.78-83.32-19.61-25.15-13.92-41.76-33.82-48.06-57.53-7.89-29.66,1.2-62,25.62-91.12a182.19,182.19,0,0,1,46.19-38.82,20.88,20.88,0,0,1,21.48,35.82A140.06,140.06,0,0,0,503,1049.08c-15.44,18.39-21.57,37.41-17.25,53.56,7.21,27.16,44.64,46.11,91,46.11a188.65,188.65,0,0,0,48.32-6.48c24.78-6.59,47.58-17.9,65.92-32.68,16.73-13.51,28.76-29.34,33.88-44.57a20.88,20.88,0,1,1,39.82,12.57q-.11.36-.24.72c-15.7,46.76-66.19,87.73-128.65,104.35A230.2,230.2,0,0,1,576.72,1190.5Z"/><path class="cls-1" d="M1091.26,1190.5c-31.36,0-60.18-6.78-83.32-19.61-25.14-13.92-41.76-33.82-48.06-57.53-7.89-29.66,1.21-62,25.63-91.12a20.9,20.9,0,0,1,32,26.85c-15.43,18.38-21.56,37.4-17.25,53.56,7.26,27.15,44.65,46.11,91,46.11a188.65,188.65,0,0,0,48.32-6.48c32.47-8.64,62.14-25.88,81.39-47.29,17.09-19,24.33-39.52,19.87-56.29-7.26-27.13-44.64-46.1-91-46.1-4.54,0-9.21.19-13.82.55a20.88,20.88,0,0,1-3.45-41.62l.2,0c5.68-.44,11.43-.67,17.07-.67,31.35,0,60.16,6.78,83.31,19.61,25.13,13.94,41.76,33.83,48.11,57.52,8.17,30.65-2.49,65.26-29.19,94.94-24.88,27.68-61,48.9-101.67,59.73A230.18,230.18,0,0,1,1091.26,1190.5Z"/><path class="cls-2" d="M786.28,1086.72q-9.85,0-19.66-.29c-64.7-1.92-125.45-13.19-180.55-33.51-55.72-20.55-103-49.31-140.34-85.63-39.31-38.13-66-82.68-79.21-132.54S354.23,733,369.43,680.41c14.46-50,41.14-98.47,79.31-144,37.73-45,84.86-84.95,140.07-118.74,56.89-34.84,120-61.59,187.51-79.53s135.61-26.06,202.27-24.09c64.71,1.91,125.46,13.19,180.56,33.51,55.73,20.56,102.94,49.35,140.35,85.6,39.31,38.13,66,82.71,79.23,132.55h0c13.25,49.86,12.26,101.8-3,154.33-14.46,50-41.14,98.47-79.31,144-37.73,45-84.85,85-140.07,118.73-56.88,34.81-120,61.57-187.51,79.53A708.27,708.27,0,0,1,786.28,1086.72ZM959,355.53c-56.76,0-114.49,7.7-171.94,23-63.65,16.93-123,42.09-176.44,74.79-51.36,31.42-95.05,68.42-129.88,109.94-34.4,41-58.34,84.35-71.18,128.75-13.06,45.2-14,89.64-2.72,132.08s34.17,80.55,68,113.28c33.19,32.18,75.49,57.88,125.73,76.41,50.84,18.75,107.13,29.17,167.34,31,62.64,1.81,126.66-5.78,190.31-22.7s123-42.09,176.44-74.8c51.36-31.42,95.05-68.4,129.88-109.94,34.4-41,58.35-84.33,71.18-128.73,13.08-45.19,14-89.63,2.73-132.06s-34.16-80.58-68-113.32c-33.2-32.18-75.5-57.89-125.73-76.41-50.84-18.77-107.13-29.18-167.34-31q-9.21-.24-18.39-.25Z"/><path class="cls-1" d="M956.85,668.45a40.45,40.45,0,1,0,40.22,40.71A40.46,40.46,0,0,0,956.85,668.45Z"/><path class="cls-1" d="M1214.3,681.2c-1.6-1.48-3.3-2.88-5.07-4.23l20.36-38.13a26.23,26.23,0,0,0-10.78-35.48c-.45-.24-.91-.47-1.37-.68-19.85-9.15-42.82-13.86-68.29-14-25.65-.16-49.78,6.68-67.94,19.24a83.8,83.8,0,0,0-21.91,21.88c-1.37-1.7-2.78-3.38-4.24-5a110.65,110.65,0,0,0-82.84-37.22,97.81,97.81,0,0,0-41.31,8.58,26.18,26.18,0,0,0-12.19-3.1l-50.34-.3a66.65,66.65,0,1,0-125-.72l-52.09-.32a26.36,26.36,0,0,0-23.88,15l-18.08,38.38-17.78-38.65a26.32,26.32,0,0,0-23.66-15.27l-69.52-.42A26.23,26.23,0,0,0,514.9,629l90.48,175.28a26.16,26.16,0,0,0,23.14,14.18l39.53.23a26.13,26.13,0,0,0,23.37-13.94l56.81-107.13L747.65,793a26.26,26.26,0,0,0,26.06,26.38l55.38.33-.36,61a26.24,26.24,0,0,0,26.06,26.38l62,.37a26.25,26.25,0,0,0,26.38-26.06l.35-58.76a109.56,109.56,0,0,0,27.91,3.74,111,111,0,0,0,71-24.45,163,163,0,0,0,85.49,25.42c27,.17,52.3-6.71,71.23-19.34a84.33,84.33,0,0,0,28.14-30.59c6.45-12.1,9.75-25.78,9.85-40.67C1237.29,713.81,1229.6,695.15,1214.3,681.2Zm-546,111.31-39.53-.23L538.2,617l69.52.42L649,707.24,691,617.93l69.49.42Zm167.58,1-62-.37,1-174.7a49.13,49.13,0,0,0,62,.37ZM805.74,609.71a40.45,40.45,0,1,1,40.68-40.22h0A40.62,40.62,0,0,1,805.74,609.71ZM971.62,800.1c-20.14-.11-40.85-7.39-54-22.77L917,881.19l-62-.37,1.58-261.9,62,.37L918.45,639h.66c11.35-17.31,32.48-25.34,52.95-25.22,52.09.31,87.91,44.13,87.61,94.17-.31,50.43-36.26,92.43-88.05,92.11Zm156.48.91a136.72,136.72,0,0,1-72.62-21.94,114.12,114.12,0,0,0,20.81-44.68c12.59,9.07,35.59,20.88,53.1,21,7.82,0,19.44-3.63,19.49-13.16.09-13.62-19.32-14.44-38.72-19.64s-38.73-14.88-38.54-46.22c.25-42.91,39.18-61.74,77.34-61.53,19.71.12,39.46,3.31,57.46,11.6l-21,39.45c-9.49-5.18-22.78-8.67-33.27-8.73-7.18,0-19.44,3-19.5,11.8-.07,11.93,19.35,13.74,27.84,15.43,28.9,6,50.63,19.72,50.44,52.09-.29,46-42.3,64.81-82.84,64.57Z"/></svg>