<?xml version="1.0" encoding="utf-8"?>
<!-- Generator: Adobe Illustrator 22.1.0, SVG Export Plug-In . SVG Version: 6.00 Build 0)  -->
<svg version="1.1" xmlns="http://www.w3.org/2000/svg" xmlns:xlink="http://www.w3.org/1999/xlink" x="0px" y="0px"
	 viewBox="0 0 1500 1500" style="enable-background:new 0 0 1500 1500;" xml:space="preserve">
<style type="text/css">
	.st0{display:none;}
	.st1{display:inline;stroke:#FFFFFF;stroke-miterlimit:10;}
	.st2{fill:#FFFFFF;}
	.st3{fill-rule:evenodd;clip-rule:evenodd;fill:#FFFFFF;}
</style>
<g id="Capa_2" class="st0">
	<rect x="-234.5" y="-15.5" class="st1" width="1759" height="1515"/>
</g>
<g id="Capa_1">
	<path class="st2" d="M1492.4,240c0,18.5-9.5,35.2-33.6,35.2c-23.9,0-33.8-16.7-33.8-35.2c0-18.4,9.9-35,33.8-35
		C1482.9,205.1,1492.4,221.6,1492.4,240 M1486.2,240c0-15.6-7.3-29.2-27.4-29.2c-20.2,0-27.4,13.5-27.4,29.2
		c0,15.9,7.2,29.2,27.4,29.2C1478.9,269.2,1486.2,256,1486.2,240 M1444.9,221.6c0-1.2,0.6-1.6,1.5-1.6h14.2
		c10.5,0,16.7,4.7,16.7,13.1c0,7.7-4.4,11.1-10.2,11.9l9.7,12.5c0.6,0.8,0,1.5-1,1.5h-5.4c-0.7,0-1.1-0.1-1.7-1l-9.4-12.3h-7.1v11.9
		c0,1-0.4,1.4-1.5,1.4h-4.4c-0.9,0-1.5-0.4-1.5-1.4V221.6z M1458.8,239.8c8.4,0,11.1-1.6,11.1-6.7c0-4.7-3-6.8-10.3-6.8h-7.3v13.5
		H1458.8z"/>
	<g>
		<path class="st2" d="M788.7,1082.6c-19.7,50.4-72.4,95.1-141.6,113.5c-21.4,5.7-43,8.6-64.3,8.6c-77,0-138.9-38.3-154.1-95.3
			c-10-37.7,0.8-77.9,30.4-113.2c2.1-2.5,4.2-4.9,6.4-7.3l42.4,25.4c-4.3,4-8.4,8.3-12.1,12.7c-19.3,23-26.7,47.9-20.8,70.1
			c9.5,35.7,52.8,59.7,107.8,59.7c17.1,0,34.7-2.3,52-7c46-12.3,83.4-39.2,101.9-69.4L788.7,1082.6z"/>
		<path class="st2" d="M1307.6,928.2c43.5,15.3,75.3,45.4,85.6,84.1c19.8,74.6-45.9,157-146.5,183.8c-21.4,5.7-43,8.6-64.3,8.6
			c-77,0-138.9-38.3-154.1-95.3c-4.6-17.2-4.8-35-0.9-52.6l58.5-16.9c-12.1,19.2-16.1,39-11.3,57.1c9.5,35.7,52.8,59.7,107.7,59.7
			c17.1,0,34.7-2.3,52-7c73.8-19.6,125.3-76.9,112.5-125.1c-8.8-33.2-46.8-56.2-96.3-59.3L1307.6,928.2z"/>
		<g>
			<g>
				<path class="st3" d="M313.5,775.2c-64.1,7.8-148.9,18.6-190.7,25.5c-8.5,1.4-16.8,1.6-18.4-6.7l0,0c-1.6-8.4,4-16.5,12.6-17.9
					c42.2-7,127.7-17.9,192.1-25.7"/>
				<path class="st3" d="M321.8,607.4c-92.3,10.5-206.7,24.1-244.6,29.4c-8.9,1.2-17.3,1.3-18.8-7.1l0,0
					c-1.4-8.4,4.7-16.4,13.7-17.6c40-5.6,164.1-20.4,258.7-31"/>
				<path class="st3" d="M306.7,695.3c-49.7,5-104.8,11.2-148.5,17.3c-8.9,1.2-17.3,1.3-18.8-7.1l0,0c-1.4-8.4,4.7-16.4,13.6-17.6
					c45.8-6.4,104-12.9,155.6-18"/>
			</g>
			<g>
				<path class="st2" d="M342.7,855.8C231,872.5,106.3,895.6,18,914.9c-8.3,1.8-16.3,2.3-17.9-6c-1.6-8.4,4-16.8,12.3-18.6
					c84-18.4,213-42.7,318.9-58.9"/>
			</g>
		</g>
	</g>
	<g>
		<path class="st2" d="M823.6,1051.4c-7.4,0-14.8-0.1-22.1-0.3c-72.7-2.2-140.8-14.8-202.6-37.6c-62.1-22.9-114.6-54.9-156.2-95.2
			c-43.3-42-72.7-91.1-87.2-145.9c-14.6-54.8-13.5-112,3.3-170c16.1-55.6,45.8-109.4,88.3-160.2c42.3-50.4,95.2-95.2,157.2-133.2
			c64-39.2,135.1-69.3,211.2-89.5c76.1-20.2,152.7-29.4,227.8-27.1c72.7,2.1,140.8,14.8,202.6,37.6c62.1,22.9,114.7,54.9,156.2,95.2
			c43.3,42,72.7,91.1,87.3,145.9l0,0c14.6,54.8,13.5,112-3.3,170c-16.1,55.5-45.8,109.4-88.3,160.1
			c-42.3,50.4-95.2,95.2-157.2,133.2c-64,39.2-135.1,69.3-211.2,89.6C960.7,1042.2,891.6,1051.4,823.6,1051.4z M1021.2,215.2
			c-64.4,0-131.8,8.6-199.9,26.6c-73.9,19.7-142.9,48.9-205.1,86.9c-59.9,36.6-110.9,79.8-151.6,128.3
			c-40.5,48.2-68.7,99.3-83.8,151.8c-15.6,53.9-16.6,106.9-3.1,157.7c55.7,209.4,345.3,314.9,645.6,235.2
			c300.3-79.9,499.3-315.2,443.6-524.7l0,0C1423.9,315,1240.9,215.2,1021.2,215.2z"/>
	</g>
	<g>
		<g>
			<path class="st2" d="M756.8,543.4L662.9,723h-27.8L541,543.4H587l46.6,99.7l15.5,33.1l15.4-33.1l46.2-99.6H756.8 M784.8,526.4
				h-85L649,635.9l-51.2-109.5h-85l112,213.6h48.4L784.8,526.4L784.8,526.4z"/>
		</g>
		<g>
			<path class="st2" d="M886.6,748.5h-92.7V508.9l13.7,10.8c6.8,5.3,17.9,11.6,32.6,11.6c14.7,0,25.9-6.3,32.6-11.6l13.7-10.8V748.5
				z M810.9,731.5h58.7V541.6c-9.2,4.4-19.2,6.7-29.4,6.7c-10.2,0-20.1-2.3-29.3-6.7V731.5z"/>
		</g>
		<g>
			<path class="st2" d="M839.9,524c-31.9,0-57.9-26-57.9-58c0-32,26-58,57.9-58c32,0,58,26,58,58C897.9,498,871.9,524,839.9,524z
				 M839.9,425.1c-22.6,0-40.9,18.4-40.9,41c0,22.6,18.4,41,40.9,41c22.6,0,41-18.4,41-41C880.9,443.5,862.5,425.1,839.9,425.1z"/>
		</g>
		<g>
			<path class="st2" d="M1235.5,755.6c-32.4,0-65.6-9.8-93.5-27.6l-7.8-5l5.6-7.3c11.5-15.1,19.4-32.4,23.6-51.5l2.7-12.6l10.5,7.5
				c16.5,11.7,42.5,23.7,60.2,23.7c6.2,0,15.2-2.7,15.2-7.7c0-5.8-8.5-8.3-26.5-12.1c-4.7-1-9.6-2.1-14.6-3.4
				c-11.1-3-25.3-7.7-36.3-18.2c-11.6-11.1-17.5-26.6-17.5-46.3c0-27,11.5-49.3,33.2-64.5c18.2-12.7,42.9-19.7,69.5-19.7
				c27.8,0,52.6,4.9,73.8,14.5l8.2,3.7l-33.6,63.9l-7.6-4.1c-10.4-5.6-25.2-9.4-36.7-9.4c-6.7,0-15.3,2.9-15.3,6.1
				c0,5.7,16,8.4,22.9,9.6c1.6,0.3,3.1,0.5,4.4,0.8l0,0c21.2,4.3,37,11.3,48.3,21.5c13.7,12.3,20.6,29.2,20.6,50.1
				c0,28.7-12.3,52.2-35.6,67.9C1290,748.4,1263.8,755.6,1235.5,755.6z M1158.8,718.2c23.5,13.2,50.4,20.4,76.7,20.4
				c42.6,0,92.3-18.6,92.3-71.1c0-30.3-17-47.3-55.2-55c-1.2-0.2-2.5-0.5-4-0.7c-6-1-14.3-2.4-21.3-5.5c-13-5.7-15.8-14.5-15.8-20.8
				c0-8.2,4.8-14.9,13.5-19.1c5.4-2.5,12.4-4.1,18.8-4.1c11.6,0,25.4,3,37,7.8l17.2-32.8c-17.1-6.3-36.7-9.5-58.4-9.5
				c-23.1,0-44.3,5.9-59.7,16.7c-17.2,12-25.9,29.1-25.9,50.6c0,30.8,16.4,41.5,41.1,48c4.6,1.2,9.3,2.2,13.9,3.2
				c9.5,2,18.4,4,25.4,7.4c12,5.9,14.6,14.9,14.6,21.4c0,16-16.6,24.7-32.2,24.7c-20.4-0.1-44-10.9-59.8-20.3
				C1172.8,693.4,1166.7,706.3,1158.8,718.2z"/>
		</g>
		<g>
			<path class="st2" d="M986.4,855.1h-92.8V517.9h92.8v11.7c14.8-12,34.8-18.7,56.9-18.7c32.6,0,62.4,13.2,84.1,37.1
				c20.8,22.9,32.2,53.5,32.2,85.9c0,32.6-11.4,62.9-32,85.5c-21.4,23.4-51,36.3-83.5,36.3c-21.8,0-41.9-6.1-57.7-17.1V855.1z
				 M910.6,838.1h58.8V696.8l14.9,17.2c13.5,15.6,35.3,24.6,59.8,24.6c27.6,0,52.8-10.9,71-30.7c17.7-19.4,27.5-45.7,27.5-74
				c0-28.2-9.9-54.7-27.8-74.5c-18.4-20.3-43.8-31.5-71.5-31.5c-24.9,0-46.3,10.2-57.4,27.3l-2.5,3.9h-14v-24.2h-58.8V838.1z
				 M1025.1,693.6c-32,0-58-26-58-57.9c0-32,26-58,58-58c32,0,57.9,26,57.9,58C1083.1,667.6,1057.1,693.6,1025.1,693.6z
				 M1025.1,594.7c-22.6,0-41,18.4-41,41c0,22.6,18.4,40.9,41,40.9c22.6,0,40.9-18.4,40.9-40.9
				C1066.1,613.1,1047.7,594.7,1025.1,594.7z"/>
		</g>
	</g>
</g>
</svg>
