<svg id="svg" version="1.1" width="400" height="400" viewBox="0 0 400 400" xmlns="http://www.w3.org/2000/svg" xmlns:xlink="http://www.w3.org/1999/xlink" ><g id="svgg"><path id="path0" d="" stroke="none" fill="#000000" fill-rule="evenodd"></path><path id="path1" d="" stroke="none" fill="#1c1c1c" fill-rule="evenodd"></path><path id="path2" d="" stroke="none" fill="#242424" fill-rule="evenodd"></path><path id="path3" d="M125.721 133.667 L 124.667 134.800 125.800 133.746 C 126.854 132.766,127.056 132.533,126.854 132.533 C 126.811 132.533,126.301 133.043,125.721 133.667 M190.177 186.811 C 189.730 187.792,189.815 188.001,190.298 187.110 C 190.524 186.693,190.659 186.303,190.598 186.242 C 190.537 186.181,190.347 186.437,190.177 186.811 M293.830 211.451 C 294.176 211.753,294.586 212.000,294.741 212.000 C 295.069 212.000,295.053 211.987,294.000 211.370 L 293.200 210.902 293.830 211.451 M355.050 231.800 L 354.267 232.667 355.133 231.883 C 355.941 231.153,356.123 230.933,355.917 230.933 C 355.871 230.933,355.481 231.323,355.050 231.800 " stroke="none" fill="#2d2d2d" fill-rule="evenodd"></path><path id="path4" d="M259.170 73.444 C 259.077 73.528,252.437 73.921,251.467 73.899 C 250.802 73.884,243.667 74.418,242.667 74.557 C 242.153 74.628,241.073 74.747,240.267 74.820 C 239.460 74.894,238.500 75.001,238.133 75.058 C 237.767 75.115,236.114 75.345,234.461 75.569 C 232.808 75.792,231.359 76.035,231.240 76.108 C 231.122 76.182,230.377 76.315,229.585 76.406 C 228.794 76.497,226.763 76.869,225.073 77.234 C 223.383 77.599,221.657 77.946,221.239 78.006 C 220.820 78.066,220.220 78.200,219.906 78.305 C 219.591 78.409,219.153 78.523,218.933 78.558 C 218.122 78.688,216.918 78.959,216.400 79.129 C 216.107 79.226,215.717 79.276,215.533 79.241 C 215.350 79.205,215.200 79.276,215.200 79.397 C 215.200 79.518,214.890 79.643,214.511 79.674 C 213.645 79.746,208.988 80.963,207.600 81.481 C 207.307 81.591,206.827 81.722,206.533 81.774 C 206.240 81.826,205.760 81.978,205.467 82.113 C 205.012 82.322,204.320 82.524,203.067 82.811 C 202.151 83.021,199.812 83.857,199.533 84.073 C 199.350 84.216,199.200 84.268,199.200 84.189 C 199.200 84.110,198.570 84.286,197.800 84.579 C 197.030 84.873,196.040 85.214,195.600 85.337 C 194.766 85.571,189.328 87.568,188.400 87.981 C 186.666 88.753,185.354 89.305,184.533 89.607 C 183.532 89.976,181.928 90.652,180.000 91.518 C 177.931 92.448,166.273 98.215,166.133 98.378 C 166.060 98.463,165.340 98.858,164.533 99.256 C 162.723 100.148,160.316 101.525,157.040 103.545 C 155.661 104.394,154.293 105.234,154.000 105.411 C 153.707 105.589,152.896 106.123,152.199 106.600 C 151.502 107.077,150.874 107.467,150.802 107.467 C 150.628 107.467,147.103 109.879,146.933 110.115 C 146.860 110.216,146.074 110.736,145.186 111.270 C 144.298 111.804,143.244 112.545,142.844 112.916 C 142.444 113.287,141.858 113.729,141.542 113.898 C 140.861 114.262,140.389 114.631,139.789 115.267 C 139.546 115.523,139.195 115.733,139.007 115.733 C 138.820 115.733,138.667 115.827,138.667 115.943 C 138.667 116.058,138.335 116.348,137.929 116.587 C 137.523 116.827,136.833 117.364,136.396 117.781 C 135.958 118.198,135.180 118.836,134.667 119.199 C 134.153 119.562,133.407 120.191,133.009 120.596 C 132.611 121.002,132.222 121.333,132.145 121.333 C 131.923 121.333,130.908 122.179,129.746 123.333 C 129.155 123.920,128.577 124.400,128.462 124.400 C 128.347 124.400,127.686 124.966,126.993 125.657 C 120.390 132.243,116.267 136.483,116.267 136.686 C 116.267 136.737,115.817 137.248,115.267 137.821 C 114.090 139.048,113.333 139.954,113.333 140.136 C 113.333 140.208,113.123 140.491,112.867 140.764 C 112.371 141.293,110.783 143.153,110.446 143.600 C 110.336 143.747,109.620 144.695,108.856 145.706 C 108.092 146.718,107.467 147.708,107.467 147.906 C 107.467 148.105,107.344 148.267,107.193 148.267 C 107.043 148.267,106.806 148.567,106.667 148.933 C 106.527 149.300,106.283 149.600,106.124 149.600 C 105.965 149.600,105.909 149.720,106.000 149.867 C 106.091 150.013,106.050 150.133,105.910 150.133 C 105.770 150.133,105.332 150.763,104.937 151.533 C 104.541 152.303,104.079 153.053,103.909 153.200 C 103.515 153.540,101.934 156.157,100.768 158.400 C 100.272 159.353,99.741 160.267,99.588 160.431 C 99.434 160.595,99.145 161.225,98.945 161.831 C 98.745 162.437,98.501 162.933,98.403 162.933 C 98.305 162.933,97.946 163.563,97.605 164.333 C 97.264 165.103,96.601 166.573,96.133 167.600 C 95.664 168.627,94.971 170.307,94.593 171.333 C 93.612 173.996,93.518 174.251,93.467 174.400 C 93.442 174.473,93.273 174.893,93.091 175.333 C 92.909 175.773,92.743 176.343,92.723 176.600 C 92.703 176.857,92.602 177.067,92.498 177.067 C 92.306 177.067,91.858 178.638,91.947 178.995 C 91.974 179.102,91.759 179.792,91.469 180.528 C 91.179 181.264,90.993 181.867,91.057 181.867 C 91.121 181.867,90.999 182.283,90.786 182.791 C 90.574 183.300,90.400 184.056,90.400 184.471 C 90.400 184.887,90.288 185.341,90.151 185.480 C 90.014 185.619,89.827 186.273,89.737 186.933 C 89.646 187.593,89.528 188.373,89.476 188.667 C 87.729 198.399,87.349 207.499,88.443 213.333 C 88.540 213.847,88.648 214.507,88.683 214.800 C 88.719 215.093,88.827 215.813,88.923 216.400 C 89.020 216.987,89.153 217.947,89.219 218.533 C 89.286 219.120,89.512 220.200,89.722 220.933 C 89.932 221.667,90.162 222.595,90.234 222.996 C 90.305 223.397,90.436 223.843,90.526 223.988 C 90.616 224.134,90.742 224.662,90.806 225.164 C 90.923 226.077,93.127 232.787,93.513 233.404 C 93.626 233.585,93.742 233.888,93.770 234.077 C 93.870 234.737,94.802 236.798,95.000 236.799 C 95.110 236.800,95.200 236.965,95.200 237.167 C 95.200 237.670,97.991 243.294,98.585 243.989 C 98.850 244.298,99.075 244.637,99.084 244.742 C 99.140 245.352,103.170 251.467,103.517 251.467 C 103.653 251.467,103.690 251.588,103.599 251.735 C 103.508 251.883,103.620 252.076,103.850 252.164 C 104.079 252.252,104.267 252.440,104.267 252.582 C 104.267 252.723,104.897 253.594,105.667 254.515 C 106.437 255.437,107.455 256.673,107.930 257.261 C 108.983 258.567,115.884 265.600,116.113 265.600 C 116.203 265.600,116.664 265.990,117.138 266.467 C 117.612 266.943,118.397 267.633,118.881 268.000 C 119.366 268.367,120.086 268.941,120.481 269.276 C 121.734 270.340,125.330 273.067,125.479 273.067 C 125.558 273.067,125.887 273.317,126.211 273.623 C 126.535 273.928,127.340 274.493,128.000 274.876 C 128.660 275.260,129.260 275.646,129.333 275.732 C 129.407 275.819,130.251 276.365,131.209 276.945 C 132.168 277.525,133.188 278.151,133.476 278.335 C 133.764 278.519,134.180 278.752,134.400 278.851 C 134.620 278.951,135.640 279.526,136.667 280.129 C 138.542 281.232,139.384 281.636,139.575 281.526 C 139.631 281.493,139.910 281.677,140.194 281.934 C 140.478 282.191,140.790 282.321,140.888 282.223 C 140.986 282.125,141.067 282.184,141.067 282.356 C 141.067 282.527,141.157 282.654,141.267 282.638 C 141.669 282.580,142.667 283.002,142.667 283.231 C 142.667 283.361,142.818 283.467,143.004 283.467 C 143.189 283.467,143.759 283.691,144.271 283.965 C 144.782 284.239,145.292 284.474,145.405 284.488 C 145.517 284.501,146.177 284.767,146.871 285.078 C 147.565 285.389,148.320 285.682,148.548 285.730 C 148.776 285.777,149.676 286.114,150.548 286.477 C 151.420 286.841,152.549 287.228,153.058 287.337 C 153.566 287.445,154.166 287.628,154.391 287.741 C 154.616 287.855,155.340 288.094,156.000 288.272 C 156.660 288.450,157.380 288.665,157.600 288.750 C 157.820 288.834,158.120 288.919,158.267 288.938 C 158.630 288.986,160.672 289.544,162.133 289.995 C 162.793 290.199,164.173 290.562,165.200 290.803 C 167.773 291.405,168.006 291.455,169.067 291.631 C 169.580 291.716,170.109 291.853,170.241 291.934 C 170.374 292.016,170.734 292.117,171.041 292.160 C 171.349 292.203,171.900 292.311,172.267 292.399 C 172.633 292.488,173.233 292.622,173.600 292.696 C 173.967 292.770,174.807 292.956,175.467 293.108 C 176.127 293.261,177.070 293.429,177.563 293.482 C 178.056 293.535,178.836 293.698,179.296 293.845 C 179.757 293.991,180.613 294.166,181.200 294.232 C 181.787 294.299,182.836 294.484,183.531 294.644 C 184.227 294.804,184.887 294.911,184.998 294.882 C 185.109 294.853,185.980 294.961,186.933 295.123 C 187.887 295.285,188.847 295.429,189.067 295.442 C 189.287 295.456,190.727 295.639,192.267 295.849 C 193.807 296.059,196.078 296.305,197.315 296.396 C 198.552 296.487,199.641 296.609,199.735 296.668 C 201.062 297.488,229.554 297.363,236.133 296.509 C 237.307 296.357,238.937 296.182,239.756 296.121 C 240.575 296.060,242.075 295.885,243.089 295.731 C 244.103 295.578,245.353 295.402,245.867 295.340 C 246.380 295.278,248.000 295.029,249.467 294.788 C 250.933 294.546,252.493 294.294,252.933 294.228 C 253.373 294.162,253.913 294.042,254.133 293.961 C 254.353 293.881,254.893 293.759,255.333 293.691 C 255.773 293.623,257.093 293.349,258.267 293.082 C 260.258 292.629,261.909 292.303,262.533 292.241 C 262.680 292.226,263.014 292.100,263.275 291.960 C 263.536 291.820,264.090 291.663,264.506 291.610 C 265.441 291.492,272.096 289.678,273.600 289.131 C 273.820 289.052,274.120 288.950,274.267 288.907 C 274.413 288.863,275.133 288.652,275.867 288.436 C 276.600 288.221,277.620 287.901,278.133 287.724 C 284.319 285.598,287.007 284.638,287.867 284.247 C 288.160 284.114,289.240 283.694,290.267 283.313 C 291.293 282.933,292.253 282.531,292.400 282.422 C 292.547 282.312,293.687 281.812,294.933 281.311 C 296.180 280.810,297.240 280.309,297.289 280.198 C 297.339 280.087,297.489 280.065,297.623 280.147 C 297.757 280.230,297.867 280.171,297.867 280.016 C 297.867 279.860,298.058 279.733,298.292 279.733 C 298.672 279.733,299.659 279.296,300.800 278.621 C 301.020 278.491,301.440 278.306,301.733 278.210 C 302.471 277.969,308.656 274.764,309.909 273.974 C 310.472 273.618,310.935 273.418,310.937 273.530 C 310.940 273.642,311.030 273.613,311.137 273.467 C 311.245 273.320,311.929 272.900,312.658 272.533 C 313.387 272.167,314.647 271.462,315.458 270.968 C 316.269 270.474,317.473 269.768,318.133 269.398 C 318.793 269.029,321.057 267.573,323.164 266.163 C 325.271 264.753,327.400 263.352,327.895 263.049 C 328.389 262.746,329.073 262.236,329.414 261.916 C 329.755 261.595,330.129 261.333,330.245 261.333 C 330.361 261.333,331.157 260.763,332.015 260.067 C 332.873 259.370,334.427 258.140,335.468 257.333 C 336.508 256.527,337.632 255.627,337.964 255.333 C 338.296 255.040,339.095 254.380,339.738 253.867 C 340.382 253.353,341.496 252.363,342.215 251.667 C 342.933 250.970,343.563 250.400,343.616 250.400 C 344.185 250.400,356.183 238.310,359.097 234.800 C 359.462 234.360,360.355 233.340,361.081 232.534 C 361.806 231.728,362.400 230.991,362.400 230.897 C 362.400 230.803,362.817 230.262,363.327 229.696 C 363.837 229.130,364.257 228.585,364.260 228.486 C 364.264 228.386,364.657 227.887,365.133 227.376 C 365.610 226.866,366.180 226.182,366.400 225.858 C 366.620 225.533,366.959 225.103,367.152 224.901 C 367.346 224.699,367.406 224.531,367.286 224.529 C 367.165 224.527,367.192 224.437,367.346 224.329 C 367.500 224.221,367.917 223.713,368.272 223.200 C 368.628 222.687,369.132 222.034,369.393 221.750 C 369.653 221.465,369.867 221.088,369.867 220.912 C 369.867 220.735,370.047 220.521,370.267 220.437 C 370.487 220.352,370.667 220.100,370.667 219.875 C 370.667 219.650,370.766 219.467,370.888 219.467 C 371.010 219.467,371.276 219.137,371.480 218.733 C 371.684 218.330,372.181 217.567,372.585 217.037 C 372.989 216.508,373.242 215.998,373.148 215.904 C 373.055 215.810,373.099 215.733,373.247 215.733 C 373.395 215.733,373.745 215.287,374.025 214.741 C 374.304 214.195,374.739 213.516,374.991 213.234 C 375.242 212.951,375.385 212.617,375.308 212.493 C 375.231 212.368,375.266 212.266,375.384 212.266 C 375.503 212.266,375.957 211.576,376.393 210.733 C 376.829 209.890,377.339 209.041,377.526 208.848 C 377.847 208.516,377.970 208.124,377.898 207.667 C 377.881 207.557,377.987 207.467,378.133 207.467 C 378.280 207.467,378.400 207.237,378.400 206.956 C 378.400 206.674,378.509 206.404,378.642 206.356 C 378.919 206.254,382.133 199.692,382.133 199.229 C 382.133 199.063,382.245 198.718,382.381 198.463 C 383.008 197.291,383.822 195.347,383.822 195.024 C 383.822 194.827,383.942 194.667,384.089 194.667 C 384.236 194.667,384.280 194.591,384.187 194.498 C 384.095 194.406,384.143 194.097,384.296 193.813 C 384.448 193.528,384.748 192.621,384.963 191.796 C 385.178 190.972,385.484 190.140,385.643 189.949 C 385.802 189.757,385.853 189.600,385.757 189.600 C 385.660 189.600,385.700 189.379,385.845 189.108 C 385.989 188.837,386.170 188.327,386.245 187.975 C 386.321 187.622,386.502 186.913,386.647 186.400 C 386.793 185.887,387.088 184.843,387.304 184.080 C 387.667 182.796,387.936 181.503,388.134 180.093 C 388.178 179.778,388.280 179.298,388.360 179.027 C 388.510 178.522,388.771 176.866,388.963 175.200 C 389.023 174.687,389.160 173.547,389.268 172.667 C 389.572 170.202,389.455 159.310,389.101 157.067 C 388.685 154.433,388.377 152.659,388.152 151.600 C 388.090 151.307,387.965 150.707,387.874 150.267 C 387.783 149.827,387.574 148.987,387.409 148.400 C 387.245 147.813,387.082 147.190,387.048 147.016 C 386.947 146.506,386.395 144.745,386.018 143.733 C 385.826 143.220,385.520 142.320,385.338 141.733 C 384.719 139.749,381.282 132.147,380.817 131.733 C 380.734 131.660,380.202 130.700,379.634 129.600 C 379.065 128.500,378.284 127.180,377.897 126.667 C 377.510 126.153,377.022 125.398,376.812 124.988 C 376.602 124.577,376.033 123.778,375.548 123.212 C 375.063 122.645,374.667 122.106,374.667 122.012 C 374.667 121.719,371.142 117.138,369.600 115.429 C 369.233 115.022,368.393 114.070,367.733 113.312 C 366.005 111.328,361.720 107.042,359.754 105.333 C 358.827 104.527,357.667 103.477,357.176 103.000 C 356.686 102.523,356.190 102.132,356.076 102.130 C 355.961 102.127,355.327 101.651,354.667 101.070 C 352.866 99.485,352.842 99.467,352.573 99.467 C 352.436 99.467,352.254 99.286,352.169 99.064 C 352.084 98.843,351.919 98.693,351.802 98.731 C 351.685 98.769,351.233 98.470,350.797 98.067 C 350.362 97.663,349.877 97.333,349.720 97.333 C 349.562 97.333,349.201 97.123,348.917 96.867 C 348.096 96.126,344.613 93.867,344.292 93.867 C 344.131 93.867,344.000 93.761,344.000 93.631 C 344.000 93.502,343.790 93.327,343.533 93.242 C 343.277 93.158,342.587 92.784,342.000 92.412 C 341.413 92.039,340.453 91.493,339.867 91.198 C 339.280 90.904,338.260 90.353,337.600 89.974 C 336.940 89.595,336.280 89.253,336.133 89.215 C 335.776 89.122,333.568 88.049,333.067 87.725 C 332.603 87.425,329.219 85.907,327.467 85.212 C 326.807 84.950,326.027 84.634,325.733 84.509 C 324.217 83.862,322.191 83.133,321.608 83.025 C 321.246 82.957,320.812 82.788,320.644 82.648 C 320.077 82.177,310.158 79.129,309.272 79.153 C 309.018 79.160,308.740 79.052,308.653 78.912 C 308.567 78.772,308.380 78.730,308.237 78.819 C 308.094 78.907,307.832 78.865,307.655 78.724 C 307.382 78.508,305.840 78.096,304.933 77.997 C 304.787 77.981,304.427 77.889,304.133 77.791 C 303.840 77.694,303.154 77.561,302.609 77.495 C 302.064 77.429,301.503 77.305,301.362 77.218 C 301.004 76.997,293.725 75.737,288.800 75.044 C 284.786 74.479,283.216 74.317,278.533 73.987 C 277.653 73.925,276.153 73.808,275.200 73.727 C 273.144 73.552,259.318 73.308,259.170 73.444 M277.200 78.777 C 277.787 78.834,279.287 78.958,280.533 79.052 C 281.780 79.147,283.100 79.273,283.467 79.332 C 284.123 79.439,287.114 79.839,289.200 80.100 C 291.867 80.434,300.680 82.027,301.020 82.238 C 301.125 82.303,301.749 82.439,302.406 82.539 C 303.876 82.765,303.890 82.768,305.200 83.159 C 305.787 83.333,308.067 83.957,310.267 84.545 C 312.467 85.134,314.507 85.728,314.800 85.867 C 315.093 86.006,316.653 86.549,318.267 87.075 C 319.880 87.600,321.709 88.263,322.330 88.548 C 322.952 88.833,323.565 89.067,323.693 89.067 C 324.375 89.067,336.496 94.834,336.863 95.333 C 336.970 95.480,337.060 95.506,337.063 95.392 C 337.065 95.277,337.729 95.607,338.539 96.125 C 339.348 96.643,340.062 97.067,340.125 97.067 C 340.188 97.067,340.773 97.427,341.425 97.867 C 342.077 98.307,342.688 98.667,342.783 98.667 C 342.878 98.667,343.101 98.790,343.278 98.942 C 343.830 99.413,348.544 102.667,348.676 102.667 C 348.744 102.667,349.022 102.877,349.293 103.133 C 350.160 103.953,350.933 104.533,351.159 104.533 C 351.279 104.533,351.878 104.995,352.489 105.559 C 353.100 106.123,353.600 106.539,353.600 106.483 C 353.600 106.427,353.956 106.746,354.391 107.191 C 354.826 107.636,355.230 108.000,355.288 108.000 C 355.347 108.000,355.988 108.570,356.714 109.267 C 357.439 109.963,359.046 111.506,360.283 112.694 C 362.073 114.413,366.703 119.573,367.676 120.934 C 367.996 121.381,369.433 123.311,369.725 123.685 C 369.876 123.879,370.210 124.236,370.467 124.478 C 370.723 124.720,370.933 125.072,370.933 125.259 C 370.933 125.447,371.045 125.600,371.182 125.600 C 371.319 125.600,371.507 125.839,371.599 126.132 C 371.692 126.424,371.914 126.814,372.092 126.998 C 372.271 127.183,373.075 128.413,373.879 129.733 C 374.683 131.053,375.488 132.373,375.667 132.667 C 375.846 132.960,376.425 134.100,376.955 135.200 C 377.484 136.300,378.026 137.240,378.159 137.289 C 378.291 137.338,378.400 137.601,378.400 137.873 C 378.400 138.146,378.511 138.437,378.646 138.521 C 378.782 138.604,378.971 139.031,379.067 139.470 C 379.164 139.908,379.373 140.267,379.532 140.267 C 379.692 140.267,379.746 140.342,379.654 140.435 C 379.561 140.528,379.627 140.858,379.800 141.168 C 379.973 141.479,380.134 141.823,380.157 141.933 C 380.181 142.043,380.230 142.193,380.267 142.267 C 380.303 142.340,380.356 142.490,380.383 142.600 C 380.410 142.710,380.635 143.265,380.883 143.833 C 381.131 144.400,381.333 145.083,381.333 145.350 C 381.333 145.617,381.455 145.911,381.604 146.003 C 381.753 146.095,381.811 146.274,381.733 146.400 C 381.655 146.526,381.715 146.706,381.867 146.800 C 382.018 146.894,382.075 147.078,381.993 147.211 C 381.912 147.343,382.032 147.813,382.261 148.256 C 382.490 148.699,382.662 149.092,382.644 149.131 C 382.625 149.169,382.735 149.680,382.888 150.267 C 383.161 151.316,383.266 151.879,383.584 154.000 C 383.671 154.587,383.822 155.487,383.917 156.000 C 384.702 160.214,384.829 170.556,384.138 173.867 C 384.061 174.233,383.944 175.013,383.878 175.600 C 383.715 177.050,382.984 181.036,382.838 181.274 C 382.773 181.380,382.650 181.887,382.566 182.400 C 382.482 182.913,382.298 183.723,382.158 184.200 C 382.018 184.677,381.970 185.067,382.051 185.067 C 382.132 185.067,382.080 185.217,381.936 185.400 C 381.682 185.723,381.414 186.618,381.158 188.000 C 381.090 188.367,380.922 188.781,380.784 188.920 C 380.646 189.059,380.533 189.429,380.533 189.742 C 380.533 190.055,380.443 190.401,380.333 190.511 C 380.223 190.621,380.126 190.791,380.117 190.889 C 380.108 190.987,379.897 191.534,379.648 192.105 C 379.399 192.677,379.027 193.637,378.822 194.239 C 378.617 194.841,378.029 196.254,377.516 197.380 C 377.002 198.505,376.651 199.495,376.735 199.580 C 376.820 199.664,376.749 199.733,376.578 199.733 C 376.407 199.733,376.267 199.922,376.267 200.152 C 376.267 200.383,376.086 200.753,375.864 200.974 C 375.643 201.195,375.530 201.487,375.613 201.621 C 375.697 201.756,375.631 201.867,375.467 201.867 C 375.303 201.867,375.243 201.987,375.333 202.133 C 375.424 202.280,375.384 202.400,375.245 202.400 C 375.045 202.400,374.138 204.166,374.013 204.800 C 373.998 204.873,373.788 205.233,373.546 205.600 C 373.304 205.967,372.947 206.627,372.753 207.067 C 372.559 207.507,372.010 208.464,371.533 209.194 C 371.057 209.924,370.667 210.674,370.667 210.861 C 370.667 211.047,370.547 211.200,370.400 211.200 C 370.253 211.200,370.133 211.371,370.133 211.581 C 370.133 211.790,369.982 212.120,369.797 212.314 C 369.612 212.508,368.923 213.507,368.266 214.533 C 367.609 215.560,366.710 216.892,366.269 217.493 C 365.828 218.095,364.387 220.065,363.067 221.872 C 361.747 223.679,360.517 225.308,360.333 225.493 C 360.150 225.677,360.000 225.888,360.000 225.960 C 360.000 226.033,359.670 226.439,359.267 226.862 C 358.447 227.721,358.024 228.239,356.386 230.384 C 355.764 231.200,354.973 232.123,354.627 232.435 C 354.282 232.748,353.439 233.650,352.754 234.440 C 351.330 236.080,344.499 242.998,343.314 244.000 C 341.820 245.263,337.998 248.631,336.979 249.581 C 336.418 250.105,335.698 250.776,335.379 251.073 C 335.061 251.370,334.320 251.964,333.733 252.393 C 333.147 252.822,332.459 253.419,332.206 253.720 C 331.953 254.021,331.741 254.147,331.735 254.000 C 331.729 253.849,331.641 253.862,331.529 254.032 C 331.251 254.456,327.800 257.067,327.518 257.067 C 327.388 257.067,327.071 257.301,326.812 257.586 C 326.554 257.872,325.635 258.557,324.771 259.107 C 323.907 259.657,323.200 260.204,323.200 260.321 C 323.200 260.438,323.080 260.533,322.933 260.533 C 322.785 260.533,321.397 261.373,319.848 262.400 C 318.299 263.427,316.919 264.267,316.782 264.267 C 316.645 264.267,316.533 264.387,316.533 264.533 C 316.533 264.680,316.419 264.800,316.278 264.800 C 316.138 264.800,315.388 265.179,314.612 265.642 C 310.868 267.876,308.088 269.419,304.533 271.237 C 303.433 271.799,302.023 272.560,301.398 272.927 C 300.774 273.294,300.206 273.600,300.136 273.609 C 299.853 273.641,297.876 274.496,295.867 275.454 C 294.693 276.013,293.283 276.629,292.733 276.822 C 292.183 277.016,291.733 277.270,291.733 277.387 C 291.733 277.504,291.641 277.570,291.528 277.533 C 291.333 277.470,290.369 277.842,287.803 278.970 C 287.181 279.243,286.619 279.467,286.554 279.467 C 286.488 279.467,286.097 279.595,285.684 279.752 C 285.271 279.909,284.906 280.036,284.873 280.035 C 284.670 280.027,280.346 281.683,279.710 282.012 C 279.286 282.231,278.848 282.410,278.736 282.409 C 278.625 282.408,278.053 282.577,277.467 282.785 C 275.868 283.352,272.488 284.344,271.758 284.460 C 271.405 284.517,270.775 284.739,270.358 284.955 C 269.941 285.171,269.600 285.290,269.600 285.221 C 269.600 285.152,268.970 285.283,268.200 285.511 C 266.028 286.156,263.136 286.938,262.400 287.078 C 261.461 287.257,258.204 287.980,256.933 288.291 C 255.779 288.573,255.180 288.700,253.333 289.055 C 252.673 289.181,251.882 289.346,251.574 289.419 C 251.266 289.493,250.366 289.632,249.574 289.729 C 248.782 289.825,247.113 290.079,245.867 290.293 C 244.620 290.508,243.000 290.739,242.267 290.807 C 241.533 290.876,240.453 291.011,239.867 291.109 C 238.761 291.294,238.607 291.311,235.733 291.577 C 229.288 292.173,225.315 292.333,217.067 292.328 C 210.574 292.324,207.566 292.234,201.867 291.876 C 201.353 291.844,200.273 291.742,199.467 291.650 C 198.660 291.559,197.174 291.417,196.165 291.336 C 195.156 291.255,194.256 291.146,194.165 291.093 C 194.074 291.040,193.220 290.917,192.267 290.819 C 191.313 290.722,189.693 290.510,188.667 290.350 C 187.640 290.190,186.440 290.022,186.000 289.977 C 185.560 289.932,184.900 289.831,184.533 289.752 C 183.104 289.445,182.495 289.330,181.500 289.180 C 180.931 289.093,180.271 288.982,180.033 288.933 C 179.795 288.883,178.100 288.538,176.267 288.167 C 171.268 287.154,167.156 286.195,164.016 285.309 C 162.467 284.873,160.780 284.447,160.267 284.364 C 159.753 284.281,159.153 284.117,158.933 284.000 C 158.713 283.882,158.445 283.771,158.336 283.752 C 158.228 283.734,157.988 283.674,157.803 283.619 C 157.618 283.565,156.567 283.256,155.467 282.934 C 154.367 282.612,153.107 282.211,152.667 282.044 C 152.227 281.876,151.807 281.730,151.733 281.717 C 151.660 281.705,151.300 281.560,150.933 281.395 C 150.567 281.229,149.307 280.679,148.133 280.171 C 144.597 278.641,136.911 274.807,136.533 274.384 C 136.460 274.302,135.440 273.646,134.267 272.926 C 133.093 272.205,131.376 271.103,130.450 270.475 C 129.524 269.847,128.681 269.333,128.576 269.333 C 128.471 269.333,127.991 268.973,127.510 268.533 C 127.028 268.093,126.521 267.733,126.384 267.733 C 126.246 267.733,126.133 267.636,126.133 267.518 C 126.133 267.399,125.640 266.949,125.038 266.518 C 124.435 266.086,123.743 265.553,123.500 265.333 C 123.256 265.113,122.519 264.513,121.862 264.000 C 121.205 263.487,120.291 262.707,119.831 262.267 C 116.202 258.790,113.600 256.229,113.600 256.133 C 113.600 256.070,113.270 255.667,112.867 255.237 C 112.463 254.807,111.653 253.887,111.067 253.193 C 110.480 252.499,109.730 251.629,109.400 251.260 C 109.070 250.891,108.800 250.509,108.800 250.411 C 108.800 250.314,108.590 250.001,108.333 249.717 C 107.621 248.927,106.381 247.231,106.397 247.068 C 106.405 246.988,106.286 246.775,106.134 246.595 C 105.051 245.313,104.800 244.943,104.800 244.626 C 104.800 244.428,104.680 244.267,104.533 244.267 C 104.387 244.267,104.267 244.096,104.267 243.887 C 104.267 243.678,103.970 243.155,103.607 242.724 C 103.245 242.293,103.008 241.881,103.081 241.808 C 103.153 241.736,103.030 241.524,102.806 241.339 C 102.583 241.153,102.400 240.836,102.400 240.634 C 102.400 240.432,102.273 240.267,102.118 240.267 C 101.962 240.267,101.909 240.147,102.000 240.000 C 102.091 239.853,102.038 239.733,101.882 239.733 C 101.727 239.733,101.600 239.503,101.600 239.222 C 101.600 238.941,101.479 238.671,101.331 238.621 C 101.183 238.572,101.005 238.241,100.937 237.885 C 100.868 237.530,100.660 237.142,100.473 237.024 C 100.286 236.905,100.232 236.806,100.351 236.804 C 100.471 236.802,100.321 236.451,100.018 236.026 C 99.715 235.600,99.467 235.067,99.467 234.841 C 99.467 234.616,99.360 234.366,99.230 234.285 C 99.099 234.204,98.923 233.860,98.837 233.520 C 98.752 233.180,98.485 232.429,98.243 231.851 C 98.001 231.273,97.814 230.772,97.827 230.737 C 97.840 230.702,97.619 230.132,97.335 229.470 C 97.051 228.808,96.889 228.267,96.975 228.267 C 97.062 228.267,97.005 228.114,96.850 227.927 C 96.438 227.430,95.343 223.534,94.772 220.533 C 94.703 220.167,94.581 219.652,94.501 219.389 C 94.422 219.126,94.306 218.503,94.245 218.005 C 94.183 217.506,94.020 216.804,93.883 216.443 C 93.746 216.083,93.686 215.736,93.750 215.673 C 93.813 215.609,93.733 214.847,93.571 213.978 C 93.220 212.097,93.173 211.668,92.909 207.867 C 92.648 204.107,92.752 199.981,93.198 196.400 C 93.253 195.960,93.370 195.000,93.458 194.267 C 93.546 193.533,93.683 192.633,93.762 192.267 C 93.841 191.900,93.945 191.339,93.994 191.021 C 94.078 190.464,94.238 189.688,94.560 188.267 C 94.643 187.900,94.816 187.120,94.945 186.533 C 95.073 185.947,95.295 185.077,95.437 184.600 C 95.580 184.123,95.630 183.733,95.549 183.733 C 95.468 183.733,95.529 183.580,95.685 183.392 C 95.841 183.204,96.027 182.726,96.099 182.329 C 96.171 181.933,96.292 181.508,96.368 181.386 C 96.443 181.263,96.565 180.871,96.637 180.515 C 96.709 180.158,97.125 178.877,97.561 177.667 C 97.998 176.457,98.290 175.467,98.211 175.467 C 98.132 175.467,98.207 175.299,98.377 175.094 C 98.548 174.889,98.732 174.485,98.788 174.196 C 98.844 173.907,99.559 172.189,100.378 170.378 C 101.197 168.566,101.867 166.930,101.867 166.742 C 101.867 166.554,101.979 166.400,102.115 166.400 C 102.252 166.400,102.448 166.130,102.550 165.800 C 102.789 165.030,103.792 162.841,103.985 162.667 C 104.128 162.538,104.991 160.997,105.853 159.334 C 106.080 158.894,106.353 158.469,106.460 158.389 C 106.677 158.226,107.851 156.184,108.256 155.267 C 108.401 154.937,108.643 154.667,108.793 154.667 C 108.944 154.667,109.067 154.542,109.067 154.389 C 109.067 154.236,109.303 153.858,109.591 153.548 C 109.879 153.239,110.062 152.900,109.997 152.795 C 109.932 152.690,110.116 152.390,110.406 152.128 C 110.696 151.865,110.933 151.489,110.933 151.292 C 110.933 151.095,111.027 150.933,111.143 150.933 C 111.258 150.933,111.574 150.557,111.846 150.096 C 112.118 149.636,112.534 149.045,112.770 148.782 C 113.515 147.955,113.867 147.494,113.867 147.345 C 113.867 147.265,114.077 146.978,114.333 146.707 C 114.590 146.435,114.980 145.981,115.200 145.698 C 115.420 145.414,116.200 144.467,116.933 143.593 C 117.667 142.719,118.447 141.781,118.667 141.507 C 118.887 141.233,119.397 140.671,119.800 140.258 C 120.203 139.845,120.533 139.443,120.533 139.363 C 120.533 139.216,123.669 135.854,125.885 133.625 C 126.555 132.951,128.161 131.440,129.455 130.267 C 130.749 129.093,132.126 127.833,132.517 127.467 C 132.907 127.100,133.690 126.440,134.257 126.000 C 134.824 125.560,136.064 124.549,137.013 123.753 C 138.844 122.217,140.242 121.127,143.467 118.722 C 144.567 117.901,145.507 117.133,145.556 117.015 C 145.604 116.897,145.784 116.799,145.956 116.799 C 146.127 116.798,146.643 116.445,147.103 116.013 C 147.564 115.582,148.014 115.302,148.103 115.392 C 148.193 115.482,148.267 115.416,148.267 115.244 C 148.267 115.073,148.392 114.933,148.545 114.933 C 148.806 114.933,149.108 114.725,149.990 113.933 C 150.195 113.750,150.426 113.600,150.505 113.600 C 150.583 113.600,151.162 113.236,151.791 112.790 C 153.834 111.343,154.917 110.667,155.195 110.667 C 155.344 110.667,155.467 110.576,155.467 110.466 C 155.467 110.356,156.007 109.979,156.667 109.629 C 157.327 109.279,157.867 108.882,157.867 108.747 C 157.867 108.612,157.987 108.576,158.133 108.667 C 158.280 108.757,158.400 108.704,158.400 108.549 C 158.400 108.394,158.528 108.267,158.685 108.267 C 158.842 108.267,159.494 107.907,160.133 107.467 C 160.773 107.027,161.352 106.667,161.419 106.667 C 161.648 106.667,165.990 104.186,167.200 103.364 C 167.860 102.916,168.431 102.577,168.468 102.611 C 168.505 102.644,169.405 102.227,170.468 101.684 C 175.155 99.287,179.180 97.367,183.200 95.610 C 184.447 95.065,185.975 94.390,186.597 94.110 C 187.219 93.829,187.843 93.600,187.985 93.600 C 188.127 93.600,188.998 93.250,189.921 92.822 C 190.845 92.394,192.229 91.845,192.997 91.602 C 193.765 91.358,194.462 91.048,194.546 90.913 C 194.630 90.777,194.943 90.667,195.242 90.667 C 195.541 90.667,196.164 90.500,196.626 90.295 C 197.738 89.804,198.454 89.536,198.893 89.446 C 199.091 89.406,200.891 88.835,202.893 88.177 C 208.084 86.472,211.367 85.514,215.333 84.546 C 217.240 84.081,219.400 83.538,220.133 83.338 C 221.871 82.865,230.169 81.244,232.533 80.916 C 233.370 80.799,234.722 80.569,235.683 80.378 C 235.876 80.340,236.776 80.236,237.683 80.147 C 238.591 80.058,239.513 79.936,239.733 79.876 C 240.104 79.775,241.866 79.585,244.800 79.329 C 245.460 79.271,247.260 79.155,248.800 79.070 C 252.996 78.840,255.582 78.640,255.684 78.538 C 255.803 78.419,275.806 78.641,277.200 78.777 M368.224 82.862 C 366.954 83.343,365.562 84.280,364.817 85.156 C 364.587 85.425,364.203 85.878,363.963 86.162 C 363.723 86.447,363.383 87.067,363.207 87.540 C 363.032 88.013,362.798 88.580,362.686 88.800 C 362.338 89.485,362.335 93.333,362.681 93.751 C 362.856 93.961,362.923 94.133,362.830 94.133 C 362.737 94.133,362.975 94.733,363.359 95.467 C 363.742 96.200,364.155 96.800,364.277 96.800 C 364.398 96.800,364.566 97.010,364.649 97.267 C 364.807 97.755,367.681 99.734,368.381 99.836 C 368.603 99.869,368.868 99.979,368.970 100.081 C 369.296 100.407,373.469 100.291,373.813 99.947 C 373.989 99.771,374.133 99.713,374.133 99.818 C 374.133 100.143,376.816 98.668,376.974 98.256 C 377.057 98.042,377.291 97.867,377.495 97.867 C 377.700 97.867,377.867 97.759,377.867 97.628 C 377.867 97.497,378.197 97.036,378.600 96.604 C 379.918 95.192,380.896 90.054,380.051 88.978 C 379.917 88.807,379.725 88.326,379.626 87.910 C 379.526 87.494,379.148 86.834,378.786 86.443 C 378.424 86.053,378.063 85.529,377.983 85.280 C 377.904 85.031,377.606 84.753,377.320 84.662 C 377.034 84.572,376.800 84.388,376.800 84.253 C 376.800 82.918,370.691 81.927,368.224 82.862 M374.687 84.638 C 380.367 87.847,380.171 95.361,374.335 98.139 C 367.176 101.547,360.486 92.292,365.820 86.360 C 366.848 85.217,369.067 83.701,369.067 84.141 C 369.067 84.225,369.266 84.182,369.510 84.045 C 370.384 83.556,373.380 83.899,374.687 84.638 M367.733 91.312 L 367.733 96.267 368.800 96.267 L 369.867 96.267 369.867 94.667 C 369.867 92.580,370.823 92.362,372.256 94.120 C 373.915 96.156,374.051 96.267,374.882 96.267 C 375.983 96.267,376.118 95.937,375.323 95.190 C 374.959 94.849,374.425 94.167,374.135 93.676 L 373.608 92.784 374.204 92.549 C 375.670 91.974,376.339 89.827,375.547 88.241 C 374.910 86.964,373.594 86.493,370.467 86.421 L 367.733 86.358 367.733 91.312 M373.530 88.586 C 374.465 89.362,373.286 91.564,372.062 91.329 C 371.808 91.281,371.210 91.232,370.733 91.220 L 369.867 91.200 369.867 89.752 C 369.867 88.455,369.929 88.294,370.467 88.212 C 371.416 88.066,373.161 88.279,373.530 88.586 M216.118 133.358 C 216.033 133.496,215.851 133.540,215.715 133.455 C 215.578 133.371,215.317 133.396,215.133 133.510 C 214.950 133.625,214.655 133.740,214.478 133.767 C 211.998 134.144,207.383 138.463,206.050 141.656 C 204.502 145.360,205.126 152.379,207.201 154.606 C 207.494 154.920,207.733 155.284,207.733 155.415 C 207.733 155.764,210.648 158.463,211.753 159.137 C 215.049 161.148,220.020 161.607,223.781 160.249 C 226.551 159.249,229.646 156.894,230.593 155.067 C 230.821 154.627,231.081 154.207,231.171 154.133 C 231.437 153.915,232.302 151.951,232.679 150.706 C 233.116 149.265,233.104 144.828,232.659 143.360 C 232.181 141.781,231.374 140.000,231.137 140.000 C 231.025 140.000,230.933 139.813,230.933 139.584 C 230.933 138.059,223.552 132.755,222.411 133.460 C 222.278 133.542,222.101 133.496,222.015 133.358 C 221.930 133.220,220.603 133.108,219.067 133.108 C 217.530 133.108,216.203 133.220,216.118 133.358 M222.667 137.327 C 224.929 138.224,228.234 141.070,228.258 142.141 C 228.263 142.365,228.437 142.791,228.645 143.088 C 229.651 144.524,229.717 148.806,228.766 150.841 C 228.434 151.552,228.184 152.221,228.212 152.327 C 228.324 152.757,224.928 155.799,223.642 156.421 C 219.503 158.422,214.754 157.491,211.400 154.021 C 210.557 153.149,209.867 152.333,209.867 152.209 C 209.867 152.085,209.669 151.537,209.428 150.991 C 208.786 149.543,208.762 149.401,208.762 147.067 C 208.762 144.722,208.808 144.407,209.279 143.551 C 209.456 143.231,209.600 142.804,209.600 142.602 C 209.600 142.169,210.663 140.793,212.072 139.403 C 214.662 136.848,219.211 135.957,222.667 137.327 M228.710 159.067 C 228.002 159.727,227.356 160.267,227.276 160.267 C 227.195 160.267,226.914 160.515,226.651 160.818 C 226.389 161.120,226.075 161.377,225.954 161.387 C 225.456 161.429,224.533 161.971,224.533 162.221 C 224.533 162.368,224.462 162.418,224.376 162.331 C 224.289 162.244,223.690 162.400,223.045 162.676 C 221.553 163.316,217.227 163.251,215.667 162.565 C 215.117 162.324,214.667 162.212,214.667 162.316 C 214.667 162.421,214.523 162.363,214.347 162.187 C 214.171 162.011,213.825 161.867,213.579 161.867 C 213.333 161.867,212.980 161.684,212.795 161.460 C 212.609 161.237,212.393 161.118,212.315 161.196 C 212.237 161.274,211.894 161.076,211.553 160.756 C 211.212 160.436,210.933 160.268,210.933 160.383 C 210.933 160.498,210.697 160.309,210.409 159.963 C 210.120 159.617,209.880 159.437,209.876 159.563 C 209.871 159.689,209.631 159.509,209.342 159.163 C 209.054 158.817,208.814 158.646,208.809 158.784 C 208.804 158.922,208.624 158.802,208.408 158.518 C 208.042 158.033,208.016 158.063,208.008 159.000 L 208.000 160.000 195.600 160.000 C 188.780 160.000,183.227 160.090,183.261 160.200 C 183.332 160.433,182.402 162.460,179.133 169.200 C 178.493 170.520,177.948 171.691,177.921 171.801 C 177.895 171.912,177.697 172.424,177.481 172.939 C 177.266 173.455,177.115 173.922,177.145 173.977 C 177.175 174.032,176.981 174.319,176.713 174.615 C 176.445 174.911,176.199 175.314,176.166 175.510 C 176.133 175.706,175.873 176.347,175.589 176.933 C 175.304 177.520,175.064 178.060,175.056 178.133 C 175.048 178.207,174.657 179.013,174.187 179.926 C 173.718 180.838,173.333 181.693,173.333 181.825 C 173.333 182.348,171.895 184.614,171.795 184.249 C 171.602 183.546,168.943 178.268,168.735 178.177 C 168.622 178.128,168.592 177.988,168.667 177.865 C 168.743 177.743,168.645 177.483,168.450 177.288 C 168.255 177.093,168.068 176.845,168.035 176.738 C 167.678 175.574,167.373 174.933,167.174 174.933 C 167.042 174.933,166.933 174.702,166.933 174.419 C 166.933 174.136,166.783 173.744,166.600 173.547 C 166.027 172.934,165.339 171.550,165.518 171.371 C 165.612 171.277,165.549 171.200,165.378 171.200 C 165.207 171.200,165.067 171.069,165.067 170.908 C 165.067 170.748,164.570 169.638,163.962 168.442 C 163.355 167.245,162.145 164.857,161.275 163.133 L 159.692 160.000 147.711 160.000 L 135.729 160.000 136.584 161.533 C 137.055 162.377,137.546 163.140,137.676 163.230 C 137.806 163.320,137.905 163.440,137.897 163.496 C 137.850 163.816,138.226 164.800,138.395 164.800 C 138.505 164.800,138.810 165.370,139.073 166.067 C 139.336 166.763,139.631 167.393,139.728 167.467 C 139.826 167.540,140.472 168.740,141.165 170.133 C 142.277 172.372,144.137 175.936,144.993 177.467 C 145.156 177.760,145.559 178.540,145.887 179.200 C 146.216 179.860,146.664 180.760,146.884 181.200 C 147.104 181.640,147.502 182.314,147.768 182.697 C 148.033 183.080,148.174 183.470,148.081 183.563 C 147.988 183.657,148.071 183.733,148.267 183.733 C 148.462 183.733,148.555 183.801,148.472 183.884 C 148.389 183.967,148.789 184.835,149.361 185.813 C 149.932 186.791,150.400 187.743,150.400 187.929 C 150.400 188.115,150.512 188.267,150.649 188.267 C 150.852 188.267,151.122 188.785,151.343 189.600 C 151.450 189.995,151.849 190.818,151.990 190.933 C 152.079 191.007,152.446 191.697,152.805 192.467 C 153.165 193.237,153.558 193.867,153.679 193.867 C 153.799 193.867,153.824 193.987,153.733 194.133 C 153.643 194.280,153.671 194.400,153.797 194.400 C 153.923 194.400,154.187 194.850,154.384 195.400 C 154.581 195.950,154.816 196.460,154.907 196.533 C 154.997 196.607,155.551 197.627,156.136 198.800 C 156.721 199.973,157.320 201.021,157.467 201.129 C 157.613 201.237,157.651 201.327,157.551 201.329 C 157.394 201.333,159.267 204.997,160.007 206.133 C 160.151 206.353,160.388 206.833,160.534 207.200 C 160.680 207.567,160.919 208.047,161.065 208.267 C 161.211 208.487,161.592 209.207,161.912 209.867 C 162.232 210.527,162.720 211.397,162.998 211.800 C 163.276 212.203,163.434 212.533,163.349 212.533 C 163.138 212.533,164.838 215.552,165.186 215.796 C 165.706 216.159,178.878 216.038,179.217 215.667 C 179.519 215.335,180.062 214.330,182.135 210.267 C 182.733 209.093,183.455 207.743,183.739 207.267 C 184.023 206.790,184.205 206.400,184.142 206.400 C 184.080 206.400,184.461 205.650,184.988 204.733 C 186.328 202.405,187.310 200.436,187.251 200.200 C 187.223 200.090,187.312 200.000,187.449 200.000 C 187.585 200.000,187.776 199.754,187.871 199.453 C 187.967 199.152,188.455 198.180,188.956 197.294 C 189.457 196.407,189.867 195.524,189.867 195.330 C 189.867 195.136,189.957 194.938,190.067 194.889 C 190.177 194.840,190.977 193.420,191.846 191.733 C 195.421 184.792,195.944 183.800,196.363 183.160 C 196.605 182.792,196.721 182.410,196.623 182.312 C 196.525 182.214,196.568 182.133,196.719 182.133 C 196.870 182.133,197.316 181.443,197.711 180.600 C 198.105 179.757,198.645 178.707,198.912 178.267 C 199.178 177.827,199.345 177.377,199.282 177.267 C 199.220 177.157,199.303 177.067,199.467 177.067 C 199.631 177.067,199.697 176.957,199.614 176.823 C 199.531 176.689,199.554 176.539,199.665 176.489 C 199.776 176.440,200.401 175.320,201.054 174.000 C 201.707 172.680,202.415 171.390,202.628 171.133 C 202.842 170.877,202.907 170.665,202.775 170.663 C 202.642 170.660,202.663 170.570,202.821 170.463 C 203.181 170.217,205.067 166.664,205.067 166.231 C 205.067 166.055,205.158 165.871,205.269 165.822 C 205.380 165.773,206.010 164.658,206.669 163.344 L 207.867 160.955 207.935 188.478 L 208.002 216.000 219.068 216.000 L 230.133 216.000 230.133 186.933 C 230.133 170.947,230.103 157.867,230.066 157.867 C 230.029 157.867,229.419 158.407,228.710 159.067 M263.701 158.521 C 263.550 158.672,263.237 158.759,261.664 159.086 C 260.444 159.340,255.960 162.003,254.626 163.267 C 254.149 163.718,254.133 163.673,254.133 161.867 L 254.133 160.000 243.333 160.000 L 232.533 160.000 232.533 201.067 L 232.533 242.133 243.333 242.133 L 254.133 242.133 254.133 228.000 C 254.133 218.675,254.225 213.867,254.402 213.867 C 254.550 213.867,255.168 214.227,255.776 214.667 C 256.383 215.107,257.042 215.467,257.240 215.467 C 257.438 215.467,257.600 215.567,257.600 215.691 C 257.600 215.814,258.110 216.068,258.733 216.254 C 259.357 216.441,260.107 216.701,260.400 216.831 C 262.912 217.946,271.115 218.152,275.200 217.203 C 275.567 217.118,276.167 217.003,276.533 216.949 C 278.891 216.599,283.733 214.839,283.733 214.333 C 283.733 214.206,283.839 214.167,283.968 214.247 C 284.097 214.326,284.517 214.077,284.901 213.693 C 285.286 213.308,285.600 213.069,285.600 213.161 C 285.600 213.462,286.744 212.441,289.116 210.025 C 290.398 208.719,291.389 207.557,291.318 207.442 C 291.247 207.327,291.349 207.135,291.544 207.016 C 291.884 206.810,293.909 203.366,293.866 203.068 C 293.855 202.989,294.100 202.356,294.411 201.662 C 294.722 200.968,295.019 200.198,295.070 199.951 C 295.121 199.703,295.275 199.283,295.413 199.017 C 295.643 198.572,296.026 197.064,296.416 195.067 C 296.502 194.627,296.621 194.027,296.681 193.733 C 297.243 190.986,297.396 185.364,296.954 183.733 C 296.854 183.367,296.714 182.767,296.643 182.400 C 296.572 182.033,296.375 181.313,296.205 180.800 C 296.035 180.287,295.871 179.747,295.841 179.600 C 294.701 174.017,288.290 165.352,283.333 162.692 C 282.747 162.377,281.907 161.902,281.467 161.636 C 281.027 161.370,280.575 161.135,280.464 161.115 C 280.352 161.094,279.909 160.895,279.478 160.673 C 279.047 160.450,278.479 160.226,278.214 160.175 C 277.950 160.123,277.400 159.945,276.993 159.778 C 276.302 159.495,273.878 159.020,271.733 158.748 C 270.020 158.530,263.866 158.357,263.701 158.521 M318.880 158.542 C 318.823 158.599,318.242 158.706,317.588 158.779 C 314.896 159.080,313.184 159.410,312.542 159.753 C 312.317 159.873,311.683 160.043,311.133 160.131 C 310.583 160.219,310.133 160.405,310.133 160.545 C 310.133 160.685,310.041 160.770,309.928 160.733 C 309.718 160.665,307.441 161.605,307.200 161.859 C 307.127 161.937,306.875 162.120,306.640 162.267 C 304.538 163.580,303.658 164.277,302.333 165.676 C 301.490 166.567,300.800 167.455,300.800 167.648 C 300.800 167.842,300.673 168.000,300.518 168.000 C 300.295 168.000,299.158 170.092,299.068 170.667 C 299.057 170.740,298.908 171.051,298.737 171.359 C 298.565 171.666,298.369 172.206,298.300 172.559 C 298.231 172.911,297.987 173.995,297.756 174.966 C 297.169 177.442,297.352 182.345,298.105 184.326 C 298.232 184.660,298.322 184.993,298.305 185.067 C 298.272 185.210,299.473 187.246,299.722 187.467 C 299.804 187.540,300.202 188.110,300.606 188.733 C 301.010 189.357,301.451 189.867,301.586 189.867 C 301.721 189.867,301.900 190.085,301.985 190.352 C 302.069 190.619,302.528 191.041,303.003 191.291 C 303.478 191.541,304.256 191.993,304.731 192.296 C 305.207 192.599,305.747 192.872,305.931 192.903 C 306.116 192.934,306.537 193.107,306.867 193.289 C 307.197 193.470,307.467 193.551,307.467 193.469 C 307.467 193.387,307.798 193.491,308.203 193.700 C 308.608 193.910,309.298 194.146,309.736 194.225 C 310.175 194.304,312.515 194.868,314.937 195.479 C 320.056 196.770,320.861 197.224,320.484 198.611 C 320.174 199.754,319.470 200.038,316.091 200.384 C 314.881 200.508,313.095 200.129,311.367 199.380 C 310.800 199.135,310.263 198.933,310.175 198.933 C 309.907 198.933,303.912 195.943,303.200 195.454 C 301.896 194.558,299.485 193.354,299.373 193.542 C 299.274 193.708,298.915 195.325,298.548 197.249 C 298.487 197.570,298.305 198.080,298.143 198.383 C 297.981 198.686,297.915 198.933,297.997 198.933 C 298.079 198.933,297.953 199.227,297.718 199.586 C 297.483 199.945,297.316 200.275,297.348 200.319 C 297.447 200.458,294.819 205.729,294.604 205.822 C 294.492 205.871,294.400 206.019,294.400 206.150 C 294.400 206.282,293.998 207.022,293.507 207.795 C 291.851 210.399,291.858 210.219,293.377 211.039 C 294.118 211.439,294.970 211.995,295.270 212.274 C 295.569 212.553,295.916 212.719,296.040 212.642 C 296.165 212.565,296.267 212.629,296.267 212.784 C 296.267 212.940,296.500 213.067,296.784 213.067 C 297.069 213.067,297.377 213.188,297.469 213.337 C 297.618 213.578,299.161 214.337,299.867 214.517 C 300.013 214.554,300.493 214.735,300.933 214.918 C 302.270 215.475,304.909 216.322,305.333 216.331 C 305.553 216.336,305.883 216.458,306.067 216.602 C 306.250 216.747,306.400 216.803,306.400 216.727 C 306.400 216.652,306.850 216.700,307.400 216.836 C 307.950 216.972,308.820 217.143,309.333 217.217 C 309.847 217.291,310.687 217.464,311.200 217.601 C 312.715 218.006,318.714 218.164,321.251 217.867 C 324.205 217.520,324.325 217.499,324.751 217.232 C 324.944 217.112,325.161 217.073,325.234 217.145 C 325.603 217.515,331.158 215.499,332.418 214.538 C 332.885 214.181,333.339 213.962,333.427 214.050 C 333.515 214.138,333.663 214.013,333.755 213.773 C 333.847 213.533,334.031 213.403,334.163 213.485 C 334.295 213.567,334.476 213.446,334.564 213.217 C 334.652 212.988,334.827 212.800,334.953 212.800 C 335.724 212.800,338.965 208.930,340.341 206.367 C 341.265 204.647,341.519 203.959,342.248 201.200 C 343.007 198.330,343.069 192.622,342.362 190.800 C 342.077 190.067,341.819 189.347,341.789 189.200 C 341.758 189.053,341.463 188.551,341.133 188.084 C 340.803 187.618,340.533 187.114,340.533 186.966 C 340.533 186.512,336.571 182.937,336.067 182.935 C 335.883 182.934,335.733 182.826,335.733 182.696 C 335.733 182.486,333.924 181.628,333.399 181.589 C 333.290 181.581,332.949 181.409,332.642 181.208 C 332.022 180.802,328.121 179.575,326.667 179.329 C 322.559 178.633,319.200 177.170,319.200 176.077 C 319.200 175.395,323.524 174.605,324.971 175.022 C 325.244 175.100,326.056 175.239,326.776 175.329 C 327.495 175.419,328.305 175.611,328.576 175.756 C 328.846 175.900,329.067 175.965,329.067 175.899 C 329.067 175.796,332.307 176.897,333.648 177.456 C 334.001 177.603,334.256 177.313,334.848 176.088 C 335.262 175.233,335.691 174.493,335.802 174.444 C 335.913 174.395,335.935 174.245,335.853 174.111 C 335.770 173.976,335.807 173.867,335.935 173.867 C 336.064 173.867,336.521 173.117,336.951 172.200 C 337.381 171.283,337.853 170.445,338.000 170.337 C 338.178 170.207,338.178 170.139,338.000 170.133 C 337.823 170.128,337.824 170.059,338.001 169.929 C 338.149 169.821,338.629 169.013,339.068 168.133 C 339.507 167.253,339.941 166.473,340.033 166.400 C 340.422 166.087,342.116 162.400,341.870 162.400 C 341.318 162.400,341.191 162.354,340.800 162.015 C 340.319 161.597,338.604 160.783,338.028 160.698 C 337.801 160.665,337.532 160.554,337.430 160.452 C 337.328 160.350,336.984 160.267,336.667 160.267 C 336.349 160.267,336.005 160.183,335.903 160.081 C 335.729 159.907,335.336 159.788,334.400 159.629 C 334.180 159.592,333.760 159.484,333.467 159.390 C 332.784 159.171,331.591 158.970,329.078 158.650 C 327.171 158.407,319.100 158.322,318.880 158.542 M271.467 162.358 C 273.665 162.665,276.224 163.282,276.981 163.688 C 277.248 163.830,277.559 163.955,277.671 163.963 C 277.784 163.972,278.429 164.224,279.105 164.523 C 279.781 164.822,280.439 165.067,280.567 165.067 C 280.695 165.067,280.800 165.187,280.800 165.333 C 280.800 165.480,280.961 165.600,281.159 165.600 C 281.356 165.600,281.730 165.835,281.990 166.123 C 282.251 166.410,282.539 166.625,282.632 166.600 C 282.831 166.546,283.775 167.347,285.776 169.267 C 286.579 170.037,287.137 170.667,287.018 170.667 C 286.898 170.667,287.149 170.967,287.575 171.334 C 288.001 171.700,288.250 172.000,288.128 172.000 C 288.007 172.000,288.191 172.303,288.539 172.672 C 288.886 173.042,289.201 173.550,289.237 173.801 C 289.274 174.052,289.431 174.299,289.585 174.351 C 289.740 174.402,289.867 174.538,289.867 174.651 C 289.867 174.765,290.311 175.805,290.854 176.962 C 291.397 178.120,291.862 179.157,291.887 179.267 C 291.913 179.377,291.958 179.497,291.987 179.533 C 292.017 179.570,292.084 179.780,292.137 180.000 C 292.191 180.220,292.468 181.120,292.754 182.000 C 293.819 185.278,293.987 187.402,293.462 190.933 C 293.364 191.593,293.253 192.373,293.216 192.667 C 293.179 192.960,292.988 193.920,292.791 194.800 C 292.594 195.680,292.424 196.460,292.413 196.533 C 292.401 196.607,292.297 196.817,292.180 197.000 C 292.064 197.183,292.038 197.445,292.122 197.582 C 292.206 197.718,292.167 197.897,292.034 197.979 C 291.901 198.061,291.723 198.407,291.637 198.747 C 291.552 199.088,291.157 200.079,290.760 200.950 C 290.364 201.821,290.060 202.623,290.086 202.733 C 290.112 202.843,290.013 202.933,289.867 202.933 C 289.720 202.933,289.600 203.099,289.600 203.301 C 289.600 203.503,289.417 203.820,289.194 204.005 C 288.970 204.191,288.849 204.405,288.925 204.480 C 289.194 204.749,285.326 209.086,284.239 209.733 C 283.993 209.880,283.238 210.396,282.562 210.879 C 281.886 211.363,281.333 211.678,281.333 211.580 C 281.333 211.482,281.142 211.560,280.907 211.755 C 280.673 211.949,280.228 212.147,279.919 212.194 C 279.610 212.242,279.291 212.367,279.212 212.473 C 279.132 212.580,278.767 212.708,278.400 212.759 C 278.033 212.810,277.602 212.959,277.442 213.090 C 277.282 213.221,277.075 213.253,276.982 213.160 C 276.889 213.067,276.660 213.107,276.473 213.250 C 276.286 213.392,275.664 213.535,275.090 213.566 C 274.516 213.597,273.939 213.689,273.808 213.770 C 273.180 214.157,266.626 214.332,264.533 214.017 C 262.987 213.785,261.475 213.481,261.067 213.322 C 260.993 213.294,260.843 213.284,260.733 213.302 C 260.623 213.319,260.533 213.213,260.533 213.067 C 260.533 212.920,260.421 212.800,260.284 212.800 C 260.147 212.800,259.697 212.660,259.284 212.489 C 258.871 212.318,258.473 212.168,258.400 212.155 C 257.502 212.002,254.342 208.893,253.867 207.696 C 253.672 207.203,253.352 206.610,253.155 206.378 C 252.959 206.146,252.879 205.876,252.977 205.778 C 253.075 205.680,253.028 205.600,252.871 205.600 C 252.715 205.600,252.371 205.000,252.107 204.267 C 251.844 203.533,251.525 202.933,251.398 202.933 C 251.272 202.933,251.243 202.813,251.333 202.667 C 251.424 202.520,251.364 202.400,251.200 202.400 C 251.036 202.400,250.961 202.304,251.033 202.187 C 251.106 202.070,251.055 201.800,250.920 201.587 C 250.770 201.350,250.673 208.445,250.671 219.933 L 250.667 238.667 243.333 238.667 L 236.000 238.667 236.000 201.067 L 236.000 163.467 243.333 163.467 L 250.667 163.467 250.675 168.200 C 250.683 172.481,250.722 172.882,251.086 172.400 C 253.293 169.479,254.507 168.136,256.267 166.670 C 261.620 162.209,264.519 161.387,271.467 162.358 M328.400 162.270 C 329.280 162.376,330.240 162.487,330.533 162.516 C 331.932 162.655,336.614 163.901,336.714 164.160 C 336.824 164.447,335.264 168.002,334.912 168.267 C 334.814 168.340,334.293 169.294,333.755 170.388 C 332.476 172.983,332.375 173.095,331.579 172.792 C 331.224 172.657,330.933 172.608,330.933 172.683 C 330.933 172.758,330.664 172.675,330.336 172.499 C 330.007 172.323,329.497 172.145,329.203 172.104 C 328.908 172.063,328.367 171.950,328.000 171.854 C 326.286 171.404,321.530 171.200,320.384 171.527 C 315.593 172.892,314.275 176.298,317.284 179.533 C 317.660 179.937,318.124 180.267,318.317 180.267 C 318.509 180.267,318.667 180.357,318.668 180.467 C 318.669 180.641,320.726 181.604,321.467 181.778 C 321.613 181.812,322.713 182.087,323.911 182.389 C 325.109 182.691,326.429 182.986,326.844 183.043 C 327.598 183.148,331.356 184.428,331.865 184.754 C 332.013 184.848,332.193 184.927,332.267 184.930 C 332.419 184.936,335.927 187.292,336.537 187.798 C 337.141 188.300,339.083 191.467,338.786 191.467 C 338.710 191.467,338.775 191.704,338.930 191.994 C 339.307 192.699,339.497 196.963,339.203 198.133 C 339.074 198.647,338.904 199.487,338.826 200.000 C 338.639 201.222,337.760 203.680,337.372 204.068 C 337.204 204.236,337.067 204.481,337.067 204.612 C 337.067 204.744,336.830 205.183,336.541 205.589 C 336.252 205.995,336.089 206.400,336.179 206.490 C 336.269 206.580,336.146 206.730,335.905 206.822 C 335.664 206.915,335.467 207.086,335.467 207.202 C 335.467 207.535,333.034 209.866,331.995 210.530 C 330.461 211.509,327.951 212.800,327.580 212.800 C 327.390 212.800,326.897 212.939,326.484 213.110 C 326.071 213.280,325.662 213.406,325.574 213.390 C 325.487 213.374,324.887 213.516,324.241 213.705 C 321.595 214.480,313.030 214.479,309.646 213.703 C 307.715 213.260,304.015 212.205,303.067 211.828 C 300.128 210.657,299.897 210.576,299.667 210.624 C 299.557 210.648,299.467 210.540,299.467 210.384 C 299.467 210.229,299.347 210.176,299.200 210.267 C 299.053 210.357,298.933 210.304,298.933 210.149 C 298.933 209.994,298.843 209.893,298.733 209.926 C 298.623 209.959,298.209 209.769,297.813 209.504 L 297.092 209.022 298.313 206.711 C 298.985 205.440,299.624 204.280,299.734 204.133 C 299.845 203.987,300.024 203.577,300.132 203.223 C 300.241 202.869,300.497 202.180,300.701 201.691 C 300.906 201.202,301.094 200.712,301.120 200.601 C 301.146 200.491,301.319 200.109,301.503 199.752 C 301.688 199.396,301.778 199.006,301.703 198.885 C 301.628 198.763,302.684 199.252,304.050 199.970 C 305.416 200.689,306.833 201.366,307.200 201.474 C 307.567 201.583,307.927 201.750,308.000 201.845 C 308.147 202.035,311.229 203.205,312.985 203.737 C 314.027 204.052,316.408 204.004,319.164 203.612 C 323.000 203.066,325.697 198.389,323.683 195.774 C 323.012 194.904,321.495 193.633,321.283 193.764 C 321.164 193.838,321.067 193.751,321.067 193.571 C 321.067 193.392,320.986 193.325,320.888 193.423 C 320.790 193.521,320.430 193.419,320.088 193.195 C 319.746 192.971,319.467 192.854,319.467 192.934 C 319.467 193.015,319.107 192.894,318.667 192.667 C 318.227 192.439,317.867 192.304,317.867 192.367 C 317.867 192.430,317.338 192.322,316.691 192.127 C 316.044 191.933,315.447 191.842,315.364 191.925 C 315.281 192.008,315.060 191.953,314.873 191.802 C 314.562 191.551,313.486 191.250,312.133 191.035 C 311.424 190.923,310.886 190.782,310.400 190.584 C 310.180 190.494,309.172 190.114,308.159 189.740 C 302.528 187.659,300.596 183.845,301.203 176.000 C 301.459 172.687,304.914 167.256,307.658 165.854 C 308.066 165.645,308.700 165.269,309.067 165.017 C 309.763 164.539,314.045 162.977,315.200 162.779 C 316.911 162.486,317.302 162.430,318.796 162.269 C 319.674 162.174,320.414 162.075,320.441 162.048 C 320.569 161.922,326.989 162.101,328.400 162.270 M160.104 168.933 C 161.587 171.867,162.860 174.327,162.933 174.400 C 163.266 174.733,164.533 177.371,164.533 177.731 C 164.533 177.952,164.624 178.133,164.735 178.133 C 164.846 178.133,165.095 178.523,165.290 179.000 C 166.018 180.787,167.849 184.407,168.119 184.596 C 168.294 184.718,168.299 184.795,168.133 184.800 C 167.963 184.805,167.966 184.879,168.142 185.004 C 168.293 185.112,169.224 186.850,170.211 188.867 C 172.003 192.528,172.862 193.551,172.565 191.667 C 172.548 191.557,172.673 191.467,172.844 191.467 C 173.016 191.467,173.084 191.395,172.997 191.308 C 172.910 191.221,173.114 190.651,173.450 190.042 C 173.786 189.432,174.206 188.483,174.384 187.933 C 174.562 187.383,174.819 186.933,174.954 186.933 C 175.089 186.933,175.200 186.801,175.200 186.639 C 175.200 186.477,175.490 185.767,175.844 185.061 C 176.199 184.355,176.419 183.708,176.333 183.622 C 176.248 183.537,176.294 183.467,176.435 183.467 C 176.638 183.467,177.318 182.065,177.471 181.333 C 177.486 181.260,178.254 179.640,179.178 177.733 C 180.102 175.827,181.017 173.907,181.212 173.467 C 181.408 173.027,181.995 171.766,182.517 170.664 C 183.039 169.563,183.467 168.513,183.467 168.331 C 183.467 168.149,183.587 168.000,183.733 168.000 C 183.880 168.000,184.002 167.850,184.003 167.667 C 184.005 167.483,184.357 166.643,184.784 165.800 C 185.212 164.957,185.496 164.267,185.415 164.267 C 185.334 164.267,185.417 164.087,185.600 163.867 C 185.882 163.527,187.189 163.467,194.317 163.467 L 202.703 163.467 202.198 164.200 C 201.920 164.603,201.432 165.473,201.112 166.133 C 200.792 166.793,200.411 167.513,200.265 167.733 C 200.119 167.953,199.880 168.433,199.734 168.800 C 199.588 169.167,199.351 169.647,199.207 169.867 C 198.467 171.003,196.594 174.667,196.751 174.671 C 196.851 174.673,196.813 174.763,196.667 174.871 C 196.520 174.979,195.921 176.027,195.336 177.200 C 194.751 178.373,194.197 179.393,194.107 179.467 C 194.016 179.540,193.781 180.050,193.584 180.600 C 193.387 181.150,193.123 181.600,192.997 181.600 C 192.871 181.600,192.843 181.720,192.933 181.867 C 193.024 182.013,192.999 182.133,192.879 182.133 C 192.758 182.133,192.365 182.763,192.005 183.533 C 191.646 184.303,191.281 184.993,191.195 185.067 C 191.110 185.140,190.826 185.770,190.564 186.467 C 190.303 187.163,189.979 187.733,189.845 187.733 C 189.710 187.733,189.600 187.890,189.600 188.082 C 189.600 188.274,189.170 189.144,188.645 190.016 C 188.120 190.887,187.670 191.720,187.645 191.867 C 187.620 192.013,187.540 192.193,187.467 192.267 C 187.393 192.340,186.932 193.180,186.442 194.133 C 185.951 195.087,185.382 196.167,185.177 196.533 C 184.972 196.900,184.682 197.500,184.534 197.867 C 184.386 198.233,183.670 199.613,182.943 200.933 C 182.215 202.253,181.054 204.473,180.363 205.867 C 179.671 207.260,179.030 208.460,178.938 208.533 C 178.845 208.607,178.603 209.087,178.400 209.600 C 178.197 210.113,177.952 210.593,177.856 210.667 C 177.761 210.740,177.512 211.160,177.304 211.600 L 176.927 212.400 172.070 212.473 L 167.213 212.545 167.044 211.873 C 166.951 211.503,166.769 211.200,166.638 211.200 C 166.507 211.200,166.400 210.960,166.400 210.667 C 166.400 210.373,166.260 210.133,166.089 210.133 C 165.918 210.133,165.848 210.064,165.933 209.978 C 166.111 209.800,164.042 205.832,163.616 205.537 C 163.461 205.430,163.442 205.340,163.575 205.337 C 163.707 205.335,163.642 205.123,163.428 204.867 C 163.215 204.610,162.508 203.320,161.856 202.000 C 161.204 200.680,160.550 199.512,160.402 199.404 C 160.254 199.296,160.220 199.206,160.326 199.204 C 160.570 199.199,157.871 194.068,157.486 193.804 C 157.329 193.696,157.297 193.606,157.415 193.604 C 157.533 193.602,157.320 193.090,156.941 192.467 C 156.562 191.843,155.774 190.373,155.190 189.200 C 154.606 188.027,153.250 185.387,152.178 183.333 C 151.105 181.280,149.823 178.820,149.328 177.867 C 148.833 176.913,148.322 176.060,148.192 175.970 C 148.061 175.880,147.965 175.730,147.978 175.637 C 148.010 175.402,146.943 173.273,145.785 171.260 C 145.255 170.340,144.825 169.560,144.828 169.527 C 144.849 169.324,144.403 168.337,144.137 168.000 C 143.964 167.780,143.387 166.668,142.855 165.529 L 141.889 163.459 149.648 163.529 L 157.407 163.600 160.104 168.933 M212.413 165.304 C 213.459 166.283,219.848 167.128,222.400 166.625 C 223.763 166.356,225.480 165.764,225.888 165.421 C 226.119 165.226,226.389 165.067,226.488 165.067 C 226.586 165.067,226.667 175.747,226.667 188.800 L 226.667 212.533 219.067 212.533 L 211.467 212.533 211.467 188.800 C 211.467 164.434,211.467 164.418,212.413 165.304 M81.200 174.019 C 78.560 174.339,75.800 174.677,75.067 174.769 C 74.333 174.861,69.233 175.477,63.733 176.137 C 58.233 176.797,53.253 177.399,52.667 177.473 C 51.121 177.669,38.460 179.208,37.200 179.352 C 36.613 179.420,35.053 179.599,33.733 179.750 C 32.413 179.902,30.973 180.076,30.533 180.137 C 30.093 180.198,27.633 180.494,25.067 180.794 C 18.210 181.596,16.914 182.037,16.611 183.672 C 15.873 187.648,18.785 188.817,25.786 187.358 C 26.108 187.291,27.068 187.166,27.919 187.080 C 29.514 186.919,37.893 185.797,41.200 185.303 C 42.227 185.149,43.547 184.972,44.133 184.910 C 44.720 184.848,45.608 184.729,46.108 184.645 C 46.607 184.562,47.507 184.436,48.108 184.366 C 48.708 184.296,50.460 184.056,52.000 183.832 C 53.540 183.608,55.400 183.372,56.133 183.308 C 56.867 183.244,57.767 183.120,58.133 183.033 C 58.500 182.946,59.220 182.833,59.733 182.783 C 60.247 182.733,60.907 182.639,61.200 182.574 C 61.493 182.509,62.513 182.371,63.467 182.267 C 64.420 182.162,65.435 182.031,65.723 181.976 C 66.408 181.844,67.843 181.648,69.333 181.481 C 70.551 181.345,78.588 180.246,82.000 179.749 C 83.027 179.600,84.002 179.475,84.168 179.472 C 84.407 179.468,85.095 178.244,85.220 177.600 C 85.234 177.527,85.497 176.932,85.804 176.278 C 86.112 175.625,86.305 174.995,86.233 174.878 C 86.161 174.762,86.203 174.667,86.326 174.667 C 86.449 174.667,86.574 174.387,86.602 174.044 C 86.663 173.300,87.104 173.302,81.200 174.019 M261.718 174.958 C 261.633 175.096,261.451 175.140,261.315 175.055 C 261.178 174.971,260.917 174.996,260.733 175.110 C 260.550 175.225,260.255 175.340,260.078 175.367 C 257.598 175.744,252.983 180.063,251.650 183.256 C 250.102 186.960,250.726 193.979,252.801 196.206 C 253.094 196.520,253.333 196.884,253.333 197.015 C 253.333 197.364,256.248 200.063,257.353 200.737 C 260.649 202.748,265.620 203.207,269.381 201.849 C 272.151 200.849,275.246 198.494,276.193 196.667 C 276.421 196.227,276.681 195.807,276.771 195.733 C 277.037 195.515,277.902 193.551,278.279 192.306 C 278.716 190.865,278.704 186.428,278.259 184.960 C 277.781 183.381,276.974 181.600,276.737 181.600 C 276.625 181.600,276.533 181.413,276.533 181.184 C 276.533 179.659,269.152 174.355,268.011 175.060 C 267.878 175.142,267.701 175.096,267.615 174.958 C 267.530 174.820,266.203 174.708,264.667 174.708 C 263.130 174.708,261.803 174.820,261.718 174.958 M268.267 178.927 C 270.529 179.824,273.834 182.670,273.858 183.741 C 273.863 183.965,274.037 184.391,274.245 184.688 C 275.251 186.124,275.317 190.406,274.366 192.441 C 274.034 193.152,273.784 193.821,273.812 193.927 C 273.924 194.357,270.528 197.399,269.242 198.021 C 265.103 200.022,260.354 199.091,257.000 195.621 C 256.157 194.749,255.467 193.933,255.467 193.809 C 255.467 193.685,255.269 193.137,255.028 192.591 C 254.386 191.143,254.362 191.001,254.362 188.667 C 254.362 186.322,254.408 186.007,254.879 185.151 C 255.056 184.831,255.200 184.404,255.200 184.202 C 255.200 183.769,256.263 182.393,257.672 181.003 C 260.262 178.448,264.811 177.557,268.267 178.927 M77.600 196.166 C 76.207 196.372,74.407 196.606,73.600 196.684 C 72.793 196.763,70.693 197.007,68.933 197.227 C 67.173 197.446,65.193 197.684,64.533 197.754 C 63.194 197.896,57.108 198.634,55.867 198.805 C 55.427 198.865,52.967 199.165,50.400 199.470 C 47.833 199.775,45.433 200.068,45.067 200.122 C 44.700 200.176,43.680 200.299,42.800 200.397 C 39.495 200.763,37.928 201.520,37.677 202.872 C 36.989 206.583,40.013 208.076,45.600 206.785 C 46.425 206.594,49.465 206.191,51.600 205.989 C 52.480 205.906,53.500 205.768,53.867 205.684 C 54.233 205.599,54.950 205.496,55.460 205.455 C 56.363 205.382,58.332 205.115,62.400 204.513 C 63.500 204.350,64.940 204.167,65.600 204.107 C 66.260 204.046,67.100 203.923,67.467 203.832 C 67.833 203.741,68.613 203.632,69.200 203.589 C 70.905 203.465,80.049 202.135,80.311 201.972 C 80.443 201.891,80.526 201.084,80.497 200.179 C 80.450 198.699,80.584 197.576,80.971 196.200 C 81.126 195.649,81.085 195.649,77.600 196.166 M78.933 217.084 C 78.127 217.205,75.067 217.616,72.133 217.999 C 69.200 218.381,66.440 218.746,66.000 218.809 C 65.560 218.873,58.240 219.833,49.733 220.943 C 30.943 223.395,32.654 223.160,31.161 223.495 C 28.910 224.000,28.083 225.504,28.757 227.867 C 29.360 229.984,32.235 230.361,38.667 229.166 C 39.663 228.981,39.928 228.944,42.000 228.699 C 42.733 228.612,43.693 228.480,44.133 228.405 C 44.573 228.330,45.833 228.154,46.933 228.013 C 48.033 227.873,49.353 227.695,49.867 227.618 C 51.636 227.355,58.802 226.362,59.733 226.251 C 61.589 226.030,68.688 225.043,69.600 224.878 C 70.113 224.786,70.617 224.728,70.720 224.751 C 70.823 224.773,71.525 224.674,72.280 224.531 C 73.036 224.387,74.392 224.202,75.294 224.118 C 76.195 224.035,77.173 223.890,77.467 223.796 C 77.760 223.703,78.300 223.603,78.667 223.574 C 82.007 223.311,82.589 223.074,82.043 222.200 C 81.929 222.017,81.890 221.867,81.956 221.867 C 82.023 221.867,81.969 221.417,81.837 220.867 C 81.704 220.317,81.525 219.267,81.438 218.533 C 81.351 217.800,81.225 217.110,81.158 217.000 C 81.021 216.776,80.984 216.778,78.933 217.084 M84.800 238.018 C 83.847 238.190,82.047 238.519,80.800 238.750 C 79.553 238.981,76.493 239.539,74.000 239.991 C 71.507 240.443,67.847 241.119,65.867 241.493 C 63.887 241.867,60.707 242.462,58.800 242.816 C 56.893 243.169,54.733 243.579,54.000 243.725 C 53.267 243.872,51.647 244.171,50.400 244.389 C 49.153 244.608,46.513 245.091,44.533 245.462 C 42.553 245.833,39.913 246.321,38.667 246.547 C 37.420 246.773,35.860 247.065,35.200 247.196 C 34.540 247.327,32.920 247.629,31.600 247.866 C 29.123 248.311,27.149 248.677,25.067 249.078 C 24.407 249.205,22.787 249.502,21.467 249.737 C 20.147 249.973,18.527 250.273,17.867 250.404 C 17.207 250.535,15.587 250.838,14.267 251.077 C 12.947 251.316,11.027 251.669,10.000 251.862 C 8.973 252.055,7.293 252.357,6.267 252.532 C 5.240 252.708,4.192 252.960,3.937 253.093 C 3.682 253.225,3.322 253.336,3.137 253.339 C 2.566 253.349,1.600 254.242,1.479 254.871 C 1.415 255.200,1.301 255.569,1.225 255.693 C 0.930 256.170,1.698 258.035,2.477 258.733 C 3.344 259.510,6.932 259.648,8.229 258.953 C 8.505 258.806,8.794 258.750,8.873 258.828 C 8.951 258.907,9.777 258.795,10.708 258.581 C 11.638 258.366,13.240 258.048,14.267 257.873 C 15.293 257.698,17.033 257.374,18.133 257.154 C 19.233 256.934,20.613 256.696,21.200 256.626 C 21.787 256.557,22.747 256.383,23.333 256.241 C 23.920 256.099,24.875 255.918,25.455 255.839 C 26.036 255.761,26.584 255.651,26.674 255.596 C 26.764 255.540,27.429 255.419,28.152 255.326 C 28.875 255.233,30.067 254.997,30.800 254.802 C 31.533 254.606,32.313 254.454,32.533 254.462 C 32.753 254.471,33.653 254.323,34.533 254.133 C 35.413 253.944,36.433 253.755,36.800 253.713 C 37.167 253.670,38.487 253.442,39.733 253.206 C 40.980 252.969,42.600 252.666,43.333 252.532 C 50.191 251.277,52.348 250.879,55.467 250.296 C 60.236 249.405,60.200 249.411,63.733 248.790 C 65.420 248.494,67.340 248.136,68.000 247.996 C 68.660 247.855,69.500 247.690,69.867 247.629 C 71.572 247.342,77.123 246.331,78.800 246.002 C 79.827 245.800,82.107 245.372,83.867 245.052 C 85.627 244.732,87.706 244.334,88.488 244.168 L 89.909 243.867 89.248 242.894 C 88.884 242.359,88.501 241.639,88.395 241.294 C 88.290 240.949,88.019 240.457,87.794 240.200 C 87.568 239.943,87.467 239.733,87.568 239.733 C 87.669 239.733,87.602 239.463,87.419 239.133 C 87.236 238.803,87.081 238.449,87.076 238.347 C 87.050 237.830,86.378 237.733,84.800 238.018 M339.066 261.751 C 338.540 262.108,338.005 262.400,337.877 262.400 C 337.749 262.400,337.604 262.492,337.556 262.605 C 337.425 262.907,334.492 264.800,334.155 264.800 C 333.996 264.800,333.867 264.892,333.867 265.004 C 333.867 265.117,333.177 265.621,332.333 266.125 C 331.490 266.628,330.680 267.144,330.533 267.270 C 330.024 267.709,325.958 270.308,325.514 270.478 C 324.769 270.764,325.012 271.198,325.933 271.230 C 326.410 271.247,327.160 271.303,327.600 271.356 C 329.179 271.545,330.267 271.700,330.267 271.737 C 330.267 271.787,331.179 271.984,332.000 272.110 C 332.367 272.167,333.384 272.456,334.260 272.752 C 335.136 273.048,335.946 273.233,336.060 273.163 C 336.174 273.093,336.267 273.143,336.267 273.275 C 336.267 273.407,336.777 273.666,337.400 273.849 C 341.653 275.102,349.333 281.590,349.333 283.930 C 349.333 284.115,349.424 284.267,349.535 284.267 C 349.774 284.267,350.359 285.923,350.538 287.109 C 350.608 287.572,350.757 288.198,350.869 288.501 C 351.061 289.020,350.841 293.917,350.574 295.067 C 350.506 295.360,350.273 296.080,350.057 296.667 C 349.841 297.253,349.512 298.153,349.327 298.667 C 349.142 299.180,348.858 299.780,348.696 300.000 C 348.533 300.220,348.269 300.640,348.108 300.933 C 347.434 302.166,347.051 302.798,346.800 303.090 C 346.653 303.261,346.353 303.667,346.133 303.991 C 344.865 305.862,340.817 309.844,338.867 311.140 C 338.317 311.505,337.867 311.894,337.867 312.003 C 337.867 312.112,337.507 312.351,337.067 312.533 C 336.627 312.716,336.267 312.970,336.267 313.099 C 336.267 313.228,336.087 313.333,335.867 313.333 C 335.647 313.333,335.467 313.428,335.467 313.544 C 335.467 313.660,334.597 314.221,333.533 314.791 C 332.470 315.361,331.540 315.903,331.467 315.996 C 331.393 316.088,330.913 316.326,330.400 316.524 C 329.545 316.854,328.390 317.343,326.267 318.274 C 325.449 318.632,324.133 319.054,324.133 318.958 C 324.133 318.929,323.660 319.103,323.081 319.344 C 322.503 319.586,321.843 319.828,321.615 319.882 C 321.387 319.936,320.420 320.173,319.467 320.410 C 318.513 320.647,317.313 320.894,316.800 320.960 C 316.287 321.025,315.147 321.209,314.267 321.368 C 309.195 322.288,299.507 321.894,295.600 320.608 C 295.307 320.512,294.947 320.408,294.800 320.378 C 282.606 317.878,274.749 306.054,278.601 296.000 C 278.685 295.780,278.775 295.540,278.801 295.467 C 278.827 295.393,279.049 294.884,279.294 294.335 C 279.539 293.785,279.729 293.268,279.716 293.186 C 279.704 293.104,279.999 292.635,280.374 292.144 C 281.454 290.728,280.568 290.724,276.400 292.126 C 275.813 292.324,274.613 292.688,273.733 292.936 C 271.866 293.462,270.430 293.886,269.867 294.079 C 269.647 294.154,269.347 294.232,269.200 294.252 C 268.925 294.290,266.793 294.872,266.197 295.073 C 266.012 295.135,265.778 295.180,265.677 295.173 C 264.930 295.122,264.417 301.737,264.868 305.600 C 265.247 308.844,265.865 311.025,267.083 313.422 C 267.294 313.837,267.467 314.337,267.467 314.533 C 267.467 314.729,267.593 314.931,267.748 314.983 C 267.903 315.034,268.060 315.254,268.097 315.472 C 268.181 315.956,269.530 318.129,270.719 319.693 C 272.553 322.107,277.390 326.555,278.237 326.607 C 278.367 326.615,278.547 326.735,278.637 326.875 C 279.032 327.490,285.573 331.067,286.765 331.321 C 286.931 331.356,287.427 331.532,287.867 331.712 C 288.307 331.892,289.298 332.204,290.070 332.406 C 290.842 332.608,291.610 332.857,291.778 332.961 C 291.945 333.064,292.334 333.181,292.641 333.220 C 292.949 333.259,293.920 333.479,294.800 333.709 C 299.389 334.910,311.125 335.205,316.133 334.246 C 316.573 334.162,317.293 334.038,317.733 333.972 C 319.973 333.633,322.849 332.990,324.461 332.469 C 325.454 332.148,326.387 331.874,326.533 331.860 C 326.921 331.824,327.932 331.499,329.600 330.876 C 330.407 330.575,331.307 330.241,331.600 330.134 C 332.778 329.704,339.611 326.302,339.763 326.070 C 339.853 325.933,339.973 325.852,340.030 325.889 C 340.087 325.927,340.641 325.637,341.261 325.245 C 341.882 324.854,342.512 324.533,342.661 324.533 C 342.811 324.533,342.933 324.413,342.933 324.267 C 342.933 324.120,343.048 324.000,343.188 324.000 C 343.427 324.000,347.186 321.189,348.906 319.724 C 351.815 317.246,357.333 311.165,357.333 310.437 C 357.333 310.270,357.460 310.133,357.616 310.133 C 357.771 310.133,357.823 310.012,357.732 309.865 C 357.641 309.717,357.743 309.528,357.959 309.446 C 358.175 309.363,358.505 308.914,358.694 308.448 C 358.882 307.981,359.125 307.538,359.234 307.462 C 359.471 307.296,361.867 302.215,361.867 301.879 C 361.867 301.750,362.094 301.113,362.373 300.464 C 362.651 299.815,362.945 298.875,363.026 298.375 C 363.108 297.875,363.312 296.927,363.480 296.267 C 363.843 294.838,363.958 288.104,363.648 286.400 C 363.269 284.314,362.446 281.376,361.949 280.336 C 361.686 279.785,361.469 279.273,361.466 279.200 C 361.448 278.740,360.687 277.333,360.457 277.333 C 360.303 277.333,360.255 277.256,360.349 277.163 C 360.548 276.964,359.719 275.467,359.409 275.467 C 359.294 275.467,359.200 275.334,359.200 275.172 C 359.200 274.430,354.806 269.529,352.800 268.033 C 352.287 267.650,351.807 267.264,351.733 267.176 C 350.869 266.137,343.618 262.156,341.411 261.509 C 340.054 261.111,340.000 261.117,339.066 261.751 M115.288 277.423 C 115.090 277.768,114.149 278.912,112.323 281.027 C 111.988 281.415,111.328 282.374,110.857 283.156 C 110.385 283.939,109.880 284.779,109.733 285.023 C 109.587 285.267,109.348 285.647,109.204 285.867 C 108.951 286.253,108.905 286.381,108.833 286.914 C 108.815 287.050,108.609 287.353,108.376 287.586 C 108.142 287.820,107.921 288.158,107.883 288.339 C 107.846 288.519,107.657 289.027,107.463 289.467 C 107.270 289.907,107.100 290.327,107.086 290.400 C 107.053 290.571,106.416 292.239,106.117 292.933 C 105.991 293.227,105.830 293.827,105.760 294.267 C 105.689 294.707,105.553 295.367,105.457 295.733 C 104.485 299.442,104.813 308.480,105.989 310.383 C 106.089 310.544,106.229 311.000,106.301 311.396 C 106.373 311.792,106.527 312.240,106.644 312.392 C 106.760 312.543,106.997 313.086,107.170 313.599 C 107.537 314.687,109.522 318.050,110.200 318.731 C 110.457 318.989,110.667 319.316,110.667 319.459 C 110.667 319.694,115.848 324.995,116.800 325.734 C 117.957 326.632,120.018 327.919,121.776 328.839 C 122.863 329.409,123.959 329.983,124.210 330.116 C 125.807 330.960,127.013 331.467,127.422 331.467 C 127.681 331.467,128.007 331.579,128.147 331.717 C 128.286 331.855,128.700 332.026,129.067 332.096 C 129.433 332.167,130.243 332.409,130.867 332.634 C 131.490 332.859,132.000 332.991,132.000 332.928 C 132.000 332.865,132.330 332.940,132.733 333.096 C 133.916 333.551,137.499 334.235,140.533 334.585 C 142.611 334.824,150.711 334.837,152.933 334.605 C 153.960 334.498,155.400 334.346,156.133 334.268 C 157.595 334.113,161.498 333.371,162.133 333.128 C 162.353 333.044,162.813 332.942,163.156 332.902 C 163.498 332.861,164.578 332.557,165.556 332.225 C 166.533 331.893,167.423 331.602,167.533 331.577 C 167.643 331.553,167.763 331.509,167.800 331.480 C 167.837 331.451,168.167 331.372,168.533 331.305 C 168.900 331.238,169.680 330.961,170.267 330.690 C 171.243 330.239,172.199 329.838,172.533 329.740 C 172.607 329.719,173.119 329.503,173.672 329.262 C 174.224 329.021,174.704 328.834,174.738 328.847 C 174.906 328.913,181.312 325.459,182.049 324.905 C 182.516 324.554,183.026 324.267,183.182 324.267 C 183.339 324.267,183.467 324.147,183.467 324.000 C 183.467 323.853,183.599 323.733,183.762 323.733 C 184.092 323.733,185.250 322.845,187.843 320.600 C 188.055 320.417,188.316 320.267,188.422 320.267 C 188.529 320.267,189.063 319.817,189.609 319.267 C 190.156 318.717,191.127 317.766,191.768 317.154 C 192.409 316.541,193.413 315.482,194.000 314.800 C 194.587 314.118,195.367 313.218,195.733 312.800 C 196.837 311.544,197.067 311.233,197.067 310.995 C 197.067 310.870,197.306 310.511,197.598 310.197 C 198.183 309.569,198.942 308.370,199.664 306.933 C 199.922 306.420,200.253 305.912,200.400 305.804 C 200.578 305.673,200.578 305.605,200.400 305.600 C 200.227 305.595,200.229 305.523,200.405 305.396 C 200.706 305.179,201.285 303.975,201.599 302.915 C 201.780 302.303,201.727 302.229,201.101 302.220 C 200.715 302.214,199.140 302.131,197.600 302.035 C 190.127 301.570,187.776 301.580,187.618 302.077 C 187.536 302.334,187.139 302.928,186.735 303.397 C 186.331 303.866,185.640 304.694,185.200 305.239 C 183.338 307.542,176.407 313.600,175.633 313.600 C 175.555 313.600,175.082 313.877,174.583 314.216 C 174.084 314.554,172.969 315.184,172.105 315.616 C 171.240 316.047,170.493 316.490,170.444 316.600 C 170.396 316.710,170.126 316.800,169.844 316.800 C 169.563 316.800,169.333 316.900,169.333 317.022 C 169.333 317.144,169.183 317.251,169.000 317.258 C 168.817 317.265,167.407 317.778,165.867 318.398 C 164.327 319.018,162.768 319.579,162.402 319.646 C 162.037 319.712,160.897 320.013,159.869 320.313 C 156.052 321.429,151.912 321.903,146.061 321.896 C 143.454 321.893,141.206 321.819,141.064 321.732 C 140.923 321.645,140.416 321.531,139.937 321.479 C 139.458 321.428,138.527 321.261,137.867 321.108 C 137.207 320.956,136.307 320.758,135.867 320.668 C 134.894 320.470,134.660 320.402,134.087 320.153 C 133.842 320.046,133.482 319.935,133.287 319.905 C 133.093 319.876,132.783 319.758,132.600 319.643 C 132.417 319.529,132.267 319.498,132.267 319.576 C 132.267 319.827,126.196 316.613,125.572 316.031 C 125.239 315.721,124.880 315.467,124.775 315.467 C 124.325 315.467,121.365 312.256,120.322 310.637 C 116.952 305.407,116.920 298.643,120.237 292.640 C 121.639 290.102,122.721 288.635,124.933 286.273 C 125.373 285.804,126.010 285.115,126.348 284.743 L 126.963 284.067 122.882 281.542 C 120.637 280.154,118.200 278.686,117.467 278.281 C 116.733 277.876,115.993 277.430,115.822 277.291 C 115.615 277.123,115.435 277.167,115.288 277.423 " stroke="none" fill="#373737" fill-rule="evenodd"></path></g></svg>