<svg xmlns="http://www.w3.org/2000/svg" viewBox="0 0 1500 1500"><defs><style>.cls-1{fill:#404040;}</style></defs><title>Iconos finales</title><g id="experiencias"><path class="cls-1" d="M186.33,1486a23,23,0,0,1-23-22.58L161,1332.61a23,23,0,0,1,22.58-23.41l80.12-1.44a23,23,0,1,1,.83,46l-57.12,1,1.53,85.17,327-.57,2.65-96.92-29.91,1.2a23,23,0,1,1-1.85-46l54.5-2.19a23,23,0,0,1,23.91,23.61L581.31,1463a23,23,0,0,1-23,22.37l-372,.64Z"/><path class="cls-1" d="M395.17,504.3a24.58,24.58,0,0,1,24.56,24l8.78,365.4,52.4-1.26-6.78-282.32a24.7,24.7,0,0,1,24-24.77l4.37-.1h.6a24.61,24.61,0,0,1,24.59,24l10.69,445.52,1.46,0a25.42,25.42,0,0,0,24.59,19.22,25.65,25.65,0,0,0,7-1,25.24,25.24,0,0,0,15.26-12.12L651.06,945a51.06,51.06,0,0,1,31.08-24.18l.41-.12a24.25,24.25,0,0,1,6.47-.9c16.92,0,29.3,18.69,20.58,35l-145.46,271.5a186.32,186.32,0,0,1-159.78,98.29l-44.54,1.07c-1.52,0-3.05.06-4.56.06-100.84,0-183.77-80.51-186.2-181.87L158,680.9a24.63,24.63,0,0,1,23.86-25.32l4.38-.1h.59a24.71,24.71,0,0,1,24.6,24.14l5.12,213.5.21,5.67,52.4-1.26L262,601.7a24.57,24.57,0,0,1,24-25.16l4.33-.11h.61a24.58,24.58,0,0,1,24.56,24l7.11,295.81L375,895l-8.77-365.4a24.58,24.58,0,0,1,24-25.17l4.34-.1h.6m0-46c-.57,0-1.14,0-1.7,0l-4.35.1a70.67,70.67,0,0,0-68.87,72.26l.15,6.16a70.36,70.36,0,0,0-29.46-6.41c-.57,0-1.14,0-1.7,0l-4.35.1A70.67,70.67,0,0,0,216,602.81l.32,13.13a70.21,70.21,0,0,0-29.56-6.47l-1.7,0-4.37.11A70.62,70.62,0,0,0,112,682l11.11,462.92a232.19,232.19,0,0,0,232.19,226.76c1.88,0,3.78,0,5.66-.07l44.55-1.07A232.34,232.34,0,0,0,604.69,1248L750.14,976.48a69.12,69.12,0,0,0-1.6-68.7,70.62,70.62,0,0,0-24.23-24.24A68.86,68.86,0,0,0,689,873.79a70.26,70.26,0,0,0-18.79,2.58h-.05l0,0-.78.22c-25.29,7.26-46.07,23.61-58.52,46L582.42,973.8l-8.78-365.66a70.59,70.59,0,0,0-70.57-68.91l-1.7,0-4.38.11a70.08,70.08,0,0,0-30.79,7.9l-.48-20.07a70.58,70.58,0,0,0-70.55-68.89Z"/><path class="cls-1" d="M1313.67,1486h-.05l-372-.64a23,23,0,0,1-23-22.37l-3.92-143.85a23,23,0,0,1,23.91-23.61l54.5,2.19a23,23,0,1,1-1.85,46l-29.91-1.2,2.65,96.92,327,.57,1.53-85.17-57.12-1a23,23,0,1,1,.83-46l80.12,1.44a23,23,0,0,1,22.58,23.41l-2.36,130.79A23,23,0,0,1,1313.67,1486Z"/><path class="cls-1" d="M1104.83,504.3h.6l4.34.1a24.58,24.58,0,0,1,24,25.17L1125,895l52.4,1.25,7.11-295.81a24.58,24.58,0,0,1,24.56-24h.61l4.33.11a24.57,24.57,0,0,1,24,25.16l-7.1,295.82,52.4,1.26.21-5.67,5.12-213.5a24.71,24.71,0,0,1,24.6-24.14h.59l4.38.1a24.63,24.63,0,0,1,23.86,25.32l-11.11,462.91c-2.43,101.36-85.37,181.87-186.2,181.87-1.52,0-3,0-4.56-.06l-44.54-1.07a186.32,186.32,0,0,1-159.78-98.29L790.4,954.76c-8.72-16.28,3.66-35,20.58-35a24.25,24.25,0,0,1,6.47.9l.41.12A51.06,51.06,0,0,1,848.94,945l64.38,115.84A25.24,25.24,0,0,0,928.58,1073a25.65,25.65,0,0,0,7,1,25.42,25.42,0,0,0,24.59-19.22l1.46,0,10.69-445.52a24.62,24.62,0,0,1,24.59-24h.6l4.37.1a24.7,24.7,0,0,1,24,24.77l-6.78,282.32,52.4,1.26,8.78-365.4a24.58,24.58,0,0,1,24.56-24m0-46a70.58,70.58,0,0,0-70.55,68.89l-.48,20.07a70.08,70.08,0,0,0-30.79-7.9l-4.37-.11-1.71,0a70.59,70.59,0,0,0-70.57,68.91L917.58,973.8l-28.43-51.15c-12.44-22.42-33.22-38.77-58.51-46h0l-.74-.21h0l-.09,0A70.2,70.2,0,0,0,811,873.79a68.77,68.77,0,0,0-35.29,9.76,70.39,70.39,0,0,0-24.22,24.23,69.09,69.09,0,0,0-1.61,68.7L895.31,1248a232.34,232.34,0,0,0,199.22,122.55l44.55,1.07c1.87,0,3.78.07,5.66.07a232.19,232.19,0,0,0,232.19-226.76L1388,682a70.62,70.62,0,0,0-68.75-72.4l-4.37-.11-1.7,0a70.21,70.21,0,0,0-29.56,6.47l.32-13.13a70.67,70.67,0,0,0-68.87-72.26l-4.34-.1c-.58,0-1.14,0-1.71,0a70.36,70.36,0,0,0-29.46,6.41l.15-6.16a70.67,70.67,0,0,0-68.87-72.26l-4.34-.1c-.58,0-1.14,0-1.71,0Z"/><path class="cls-1" d="M737.17,702.42c-.4,0-.81,0-1.21,0a23,23,0,0,1-21.78-24.16c.14-2.76,3.74-68.45,25.22-145.22,12.75-45.58,29.21-85.64,48.93-119.06,25.43-43.08,56.44-75.36,92.16-95.93a23,23,0,0,1,23,39.86c-66.3,38.17-101.71,123-119.75,187.52C763.58,617.31,760.15,680,760.12,680.61A23,23,0,0,1,737.17,702.42Z"/><path class="cls-1" d="M660.3,717.45a23,23,0,0,1-23-22.53c-4.72-232-93.44-392.09-94.34-393.68a23,23,0,1,1,40.08-22.58c1,1.75,24.46,43.75,48.59,116.07A1023.58,1023.58,0,0,1,683.3,694a23,23,0,0,1-22.52,23.46Z"/><path class="cls-1" d="M726.1,414.19a23,23,0,0,1-22.76-19.91,535.8,535.8,0,0,1-3.88-71.15c.67-54.05,10-94.95,27.73-121.55a23,23,0,1,1,38.27,25.51c-26.16,39.25-20.81,129.53-16.54,161A23,23,0,0,1,729.22,414,23.47,23.47,0,0,1,726.1,414.19Z"/><path class="cls-1" d="M964.48,383.5a25,25,0,0,1-24.88-23.08l-3.42-46.19-40-23.36a24.9,24.9,0,0,1,3.15-44.54L942.2,228.8l9.87-45.26a24.9,24.9,0,0,1,43.33-10.77l29.92,35.36,46.08-4.61A24.89,24.89,0,0,1,1095,241.4l-24.38,39.38,18.62,42.41a24.9,24.9,0,0,1-28.72,34.19l-45-11L981,377.17A24.73,24.73,0,0,1,964.48,383.5Zm-8.16-110.78,7.25,4.24A36.79,36.79,0,0,1,981.7,306l.62,8.37,6.27-5.59a36.76,36.76,0,0,1,33.22-8.26l8.16,2-3.38-7.69a36.83,36.83,0,0,1,2.41-34.16l4.42-7.14-8.35.84a36.79,36.79,0,0,1-31.74-12.84l-5.43-6.41-1.78,8.2a36.82,36.82,0,0,1-22,26.22Zm4-70.24,0,0Z"/><path class="cls-1" d="M808.84,206.42c-.4,0-.79,0-1.19,0a24.36,24.36,0,0,1-21.32-14.69l-13.89-31.86-34.12-6.61a24.52,24.52,0,0,1-11.61-42.42l26-23.06-4.26-34.49a24.52,24.52,0,0,1,36.77-24.14l30,17.6L846.68,32A24.52,24.52,0,0,1,881,59.52l-7.49,33.93,23.72,25.41A24.52,24.52,0,0,1,881.68,160l-34.59,3.37-16.83,30.4A24.35,24.35,0,0,1,808.84,206.42Zm-19.22-90a34.06,34.06,0,0,1,21.47,17.19,34,34,0,0,1,23-15.09A34.05,34.05,0,0,1,826.82,92a34,34,0,0,1-27.47-1.3A34,34,0,0,1,789.62,116.4Zm-27.7-47.62h0Z"/><path class="cls-1" d="M481.23,316.61a24.62,24.62,0,0,1-20.84-11.41l-24.12-37.79-48.66,2.46a24.79,24.79,0,0,1-23.35-13.5,25.07,25.07,0,0,1,3-27.13l34.11-41.91L389.5,140.82a25.26,25.26,0,0,1,31.86-30.29l45.85,14.18,43.57-32A25.06,25.06,0,0,1,538,91.12a24.76,24.76,0,0,1,12.31,24l-4.9,48.47,36.54,26a24.64,24.64,0,0,1,10.11,23.8,25.2,25.2,0,0,1-16.94,20.29l-50.69,17.16-19.67,49.76a25.23,25.23,0,0,1-21.12,15.91C482.85,316.58,482,316.61,481.23,316.61Zm-39.76-95.48a35.86,35.86,0,0,1,30.27,16.35l5.26,8.25,5.67-14.32a40.68,40.68,0,0,1,24.48-23.29l14.59-4.93-8-5.68A35.9,35.9,0,0,1,499.1,164.6l.68-6.73-8.14,6a38.59,38.59,0,0,1-34,6.06l-14.36-4.44L447,180a38.57,38.57,0,0,1-7.76,33.68l-6.36,7.82,6.76-.34C440.23,221.15,440.85,221.13,441.47,221.13Zm-33.71-66.66h0Z"/></g></svg>