<svg id="Layer_1" data-name="Layer 1" xmlns="http://www.w3.org/2000/svg" viewBox="0 0 1500 1500"><defs><style>.cls-1{fill:#ea0029;}.cls-2{fill:#4a4a4a;}</style></defs><title>Artboard 4 copy 41</title><path class="cls-1" d="M1206.45,454.16H1014c-58,0-105.14-46.27-105.14-103.11V162.65a21.08,21.08,0,0,1,35.83-15.09L1221.19,418a21.08,21.08,0,0,1-14.74,36.15ZM951,212.75v138.3c0,33.63,28.25,61,63,61h140.79Z"/><path class="cls-1" d="M1150.05,1391H364.76c-42.55,0-77.15-34-77.15-75.91V217.63c0-41.88,34.6-75.95,77.15-75.95h561a21.08,21.08,0,1,1,0,42.16h-561c-19.25,0-35,15.16-35,33.79V1315.11c0,18.6,15.69,33.75,35,33.75h785.29c19.25,0,35-15.15,35-33.75v-878a21.09,21.09,0,0,1,42.17,0v878C1227.19,1357,1192.58,1391,1150.05,1391Z"/><path class="cls-2" d="M523.39,590.44H462.14c-16.87,0-30.59,13.33-30.59,29.92s13.75,30,30.59,30h30.62c0,16.55,13.68,30,30.63,30s30.58-13.41,30.58-30v-5.55c35.58-12.37,61.21-45.32,61.21-84.28,0-49.57-41.15-89.83-91.79-89.83-16.9,0-30.63-13.41-30.63-30s13.75-29.95,30.63-29.95h61.25c16.86,0,30.54-13.32,30.54-29.91s-13.68-30-30.54-30H554c0-16.5-13.64-29.95-30.58-29.95s-30.63,13.41-30.63,29.95v5.55c-35.53,12.38-61.21,45.32-61.21,84.27,0,49.5,41.2,89.83,91.84,89.83,16.87,0,30.58,13.41,30.58,30s-13.75,30-30.58,30"/><path class="cls-2" d="M1074.08,722.29H703.9a21.08,21.08,0,0,1,0-42.16h370.18a21.08,21.08,0,1,1,0,42.16Z"/><path class="cls-2" d="M1073.46,936.37H466.76a21.09,21.09,0,0,1,0-42.17h606.7a21.09,21.09,0,0,1,0,42.17Z"/><path class="cls-2" d="M1073.46,1150.42H466.76a21.08,21.08,0,1,1,0-42.16h606.7a21.08,21.08,0,1,1,0,42.16Z"/></svg>