<svg xmlns="http://www.w3.org/2000/svg" viewBox="0 0 1500 1500"><defs><style>.cls-1,.cls-2{fill:#404040;}.cls-2{fill-rule:evenodd;}</style></defs><title>Iconos finales</title><g id="experiencias"><path class="cls-1" d="M1239.7,409.48h-210C966.45,409.48,915,359,915,297V91.46A23,23,0,0,1,954.09,75l301.69,295a23,23,0,0,1-16.08,39.44ZM961,146.12V297c0,36.68,30.81,66.52,68.68,66.52h153.59Z"/><path class="cls-1" d="M1178.17,1431.54H321.46c-46.41,0-84.16-37.15-84.16-82.81V151.44c0-45.69,37.75-82.86,84.16-82.86h612a23,23,0,0,1,0,46H321.46c-21,0-38.16,16.54-38.16,36.86V1348.73c0,20.29,17.12,36.81,38.16,36.81h856.71c21,0,38.15-16.52,38.15-36.81V390.88a23,23,0,1,1,46,0v957.85C1262.32,1394.39,1224.57,1431.54,1178.17,1431.54Z"/><path class="cls-1" d="M1178.17,1409H321.46c-34,0-61.66-27.06-61.66-60.31V151.44c0-33.28,27.66-60.36,61.66-60.36h612v1H321.46c-33.45,0-60.66,26.63-60.66,59.36V1348.73c0,32.7,27.21,59.31,60.66,59.31h856.71c33.44,0,60.65-26.61,60.65-59.31V390.88h1v957.85C1239.82,1382,1212.16,1409,1178.17,1409Z"/><path class="cls-2" d="M494.52,558.16H427.7c-18.4,0-33.37,14.54-33.37,32.64s15,32.68,33.37,32.68h33.41c0,18.06,14.92,32.68,33.41,32.68s33.36-14.62,33.36-32.68v-6.05c38.82-13.5,66.78-49.45,66.78-91.95,0-54.08-44.9-98-100.14-98-18.44,0-33.41-14.63-33.41-32.69s15-32.68,33.41-32.68h66.82c18.39,0,33.32-14.53,33.32-32.63s-14.93-32.68-33.32-32.68H527.88c0-18-14.88-32.68-33.36-32.68s-33.41,14.63-33.41,32.68v6.05c-38.77,13.51-66.78,49.44-66.78,91.94,0,54,44.95,98,100.19,98,18.4,0,33.36,14.63,33.36,32.68s-15,32.68-33.36,32.68"/><path class="cls-1" d="M1095.29,702H691.45a23,23,0,0,1,0-46h403.84a23,23,0,0,1,0,46Z"/><path class="cls-1" d="M1094.61,935.54H432.74a23,23,0,0,1,0-46h661.87a23,23,0,0,1,0,46Z"/><path class="cls-1" d="M1094.61,1169.06H432.74a23,23,0,0,1,0-46h661.87a23,23,0,1,1,0,46Z"/></g></svg>