<svg id="svg" version="1.1" width="400" height="401.8754186202277" viewBox="0 0 400 401.8754186202277" xmlns="http://www.w3.org/2000/svg" xmlns:xlink="http://www.w3.org/1999/xlink" ><g id="svgg"><path id="path0" d="M399.865 200.938 C 399.865 311.527,399.896 356.768,399.933 301.474 C 399.970 246.179,399.970 155.697,399.933 100.402 C 399.896 45.107,399.865 90.348,399.865 200.938 " stroke="none" fill="#000000" fill-rule="evenodd"></path><path id="path1" d="M37.100 64.367 L 34.963 66.577 37.173 64.440 C 39.226 62.455,39.506 62.157,39.311 62.157 C 39.270 62.157,38.276 63.151,37.100 64.367 M362.224 64.920 C 362.224 64.966,362.616 65.358,363.094 65.790 L 363.965 66.577 363.178 65.707 C 362.445 64.895,362.224 64.713,362.224 64.920 M214.457 69.190 L 213.128 70.596 214.534 69.267 C 215.841 68.031,216.064 67.783,215.864 67.783 C 215.822 67.783,215.189 68.416,214.457 69.190 M45.406 72.672 L 43.269 74.883 45.479 72.746 C 46.695 71.570,47.689 70.576,47.689 70.535 C 47.689 70.340,47.390 70.620,45.406 72.672 M210.164 73.476 L 209.377 74.347 210.248 73.560 C 210.727 73.127,211.119 72.735,211.119 72.689 C 211.119 72.482,210.897 72.665,210.164 73.476 M223.028 77.227 L 221.969 78.366 223.108 77.307 C 224.167 76.322,224.370 76.088,224.167 76.088 C 224.123 76.088,223.611 76.601,223.028 77.227 M217.549 82.652 C 216.898 83.315,216.426 83.858,216.499 83.858 C 216.573 83.858,217.166 83.315,217.816 82.652 C 218.467 81.989,218.939 81.447,218.866 81.447 C 218.792 81.447,218.199 81.989,217.549 82.652 M341.443 269.859 L 340.656 270.730 341.527 269.943 C 342.339 269.210,342.521 268.989,342.314 268.989 C 342.268 268.989,341.876 269.380,341.443 269.859 M70.596 270.328 C 71.172 270.918,71.703 271.400,71.777 271.400 C 71.850 271.400,71.440 270.918,70.864 270.328 C 70.288 269.739,69.757 269.257,69.684 269.257 C 69.610 269.257,70.021 269.739,70.596 270.328 M322.700 272.539 L 320.295 275.017 322.773 272.611 C 325.075 270.377,325.373 270.060,325.179 270.060 C 325.139 270.060,324.023 271.175,322.700 272.539 M337.965 273.610 L 336.906 274.749 338.044 273.690 C 338.670 273.107,339.183 272.595,339.183 272.551 C 339.183 272.348,338.950 272.551,337.965 273.610 M78.366 278.366 C 80.425 280.429,82.170 282.117,82.243 282.117 C 82.317 282.117,80.693 280.429,78.634 278.366 C 76.575 276.303,74.830 274.615,74.756 274.615 C 74.682 274.615,76.307 276.303,78.366 278.366 M62.291 278.634 C 62.866 279.223,63.397 279.705,63.471 279.705 C 63.545 279.705,63.134 279.223,62.559 278.634 C 61.983 278.044,61.452 277.562,61.378 277.562 C 61.305 277.562,61.715 278.044,62.291 278.634 M315.192 279.772 L 314.133 280.911 315.271 279.852 C 316.330 278.867,316.533 278.634,316.330 278.634 C 316.287 278.634,315.774 279.146,315.192 279.772 M331.003 280.844 L 329.404 282.518 331.078 280.919 C 332.634 279.434,332.875 279.169,332.677 279.169 C 332.636 279.169,331.883 279.923,331.003 280.844 M311.437 283.255 L 310.650 284.126 311.520 283.339 C 312.332 282.606,312.514 282.384,312.307 282.384 C 312.261 282.384,311.869 282.776,311.437 283.255 M70.194 286.805 C 72.032 288.647,73.595 290.154,73.669 290.154 C 73.743 290.154,72.300 288.647,70.462 286.805 C 68.625 284.963,67.061 283.456,66.987 283.456 C 66.914 283.456,68.357 284.963,70.194 286.805 M86.671 286.403 C 87.247 286.993,87.778 287.475,87.852 287.475 C 87.925 287.475,87.515 286.993,86.939 286.403 C 86.363 285.814,85.832 285.332,85.759 285.332 C 85.685 285.332,86.096 285.814,86.671 286.403 M323.644 287.877 C 322.993 288.540,322.521 289.082,322.594 289.082 C 322.668 289.082,323.261 288.540,323.912 287.877 C 324.562 287.214,325.035 286.671,324.961 286.671 C 324.887 286.671,324.294 287.214,323.644 287.877 M89.752 289.166 C 89.752 289.212,90.144 289.604,90.623 290.037 L 91.494 290.824 90.707 289.953 C 89.973 289.141,89.752 288.959,89.752 289.166 M319.742 291.561 L 318.955 292.431 319.826 291.644 C 320.637 290.911,320.820 290.690,320.613 290.690 C 320.567 290.690,320.175 291.082,319.742 291.561 M78.366 294.709 C 78.941 295.298,79.472 295.780,79.546 295.780 C 79.620 295.780,79.209 295.298,78.634 294.709 C 78.058 294.119,77.527 293.637,77.453 293.637 C 77.380 293.637,77.790 294.119,78.366 294.709 M81.447 297.472 C 81.447 297.518,81.839 297.910,82.317 298.342 L 83.188 299.129 82.401 298.259 C 81.668 297.447,81.447 297.265,81.447 297.472 " stroke="none" fill="#313131" fill-rule="evenodd"></path><path id="path2" d="" stroke="none" fill="#373737" fill-rule="evenodd"></path><path id="path3" d="M293.311 34.491 C 294.090 34.545,295.295 34.545,295.990 34.490 C 296.685 34.435,296.048 34.391,294.575 34.391 C 293.101 34.392,292.533 34.437,293.311 34.491 M103.751 35.294 C 104.451 35.349,105.596 35.349,106.296 35.294 C 106.996 35.239,106.423 35.194,105.023 35.194 C 103.624 35.194,103.051 35.239,103.751 35.294 M332.753 43.135 C 333.269 43.417,333.811 43.648,333.958 43.648 C 334.106 43.648,333.804 43.417,333.289 43.135 C 332.773 42.852,332.230 42.621,332.083 42.621 C 331.936 42.621,332.237 42.852,332.753 43.135 M334.896 44.059 C 334.896 44.132,335.258 44.380,335.700 44.608 C 336.142 44.837,336.504 44.964,336.504 44.890 C 336.504 44.816,336.142 44.569,335.700 44.340 C 335.258 44.112,334.896 43.985,334.896 44.059 M246.685 46.235 C 245.646 46.798,245.763 46.993,246.818 46.456 C 247.828 45.943,248.007 45.810,247.667 45.825 C 247.532 45.830,247.090 46.015,246.685 46.235 M293.168 46.011 C 293.868 46.066,295.013 46.066,295.713 46.011 C 296.413 45.956,295.841 45.910,294.441 45.910 C 293.041 45.910,292.468 45.956,293.168 46.011 M104.027 46.815 C 104.731 46.870,105.816 46.870,106.438 46.813 C 107.060 46.757,106.484 46.712,105.157 46.713 C 103.831 46.713,103.322 46.759,104.027 46.815 M146.037 56.632 C 146.311 56.879,148.426 57.867,148.426 57.747 C 148.426 57.595,146.404 56.530,146.115 56.530 C 146.011 56.530,145.976 56.576,146.037 56.632 M359.411 62.157 C 360.879 63.630,362.140 64.836,362.214 64.836 C 362.287 64.836,361.147 63.630,359.678 62.157 C 358.210 60.683,356.949 59.478,356.875 59.478 C 356.802 59.478,357.943 60.683,359.411 62.157 M40.173 61.554 L 39.250 62.559 40.255 61.635 C 41.190 60.776,41.382 60.549,41.178 60.549 C 41.133 60.549,40.681 61.001,40.173 61.554 M216.730 67.180 L 215.807 68.185 216.812 67.262 C 217.747 66.402,217.940 66.175,217.735 66.175 C 217.690 66.175,217.238 66.628,216.730 67.180 M34.147 67.582 L 33.088 68.721 34.226 67.662 C 34.853 67.079,35.365 66.567,35.365 66.523 C 35.365 66.320,35.132 66.523,34.147 67.582 M185.931 71.333 C 187.918 73.359,189.576 75.017,189.614 75.017 C 189.807 75.017,189.423 74.619,186.001 71.262 L 182.317 67.649 185.931 71.333 M351.373 70.462 C 352.841 71.936,354.102 73.141,354.176 73.141 C 354.250 73.141,353.109 71.936,351.641 70.462 C 350.173 68.989,348.912 67.783,348.838 67.783 C 348.764 67.783,349.905 68.989,351.373 70.462 M48.342 69.725 L 47.555 70.596 48.426 69.809 C 48.905 69.376,49.297 68.985,49.297 68.938 C 49.297 68.732,49.076 68.914,48.342 69.725 M212.044 71.601 L 210.985 72.739 212.123 71.680 C 213.182 70.695,213.385 70.462,213.182 70.462 C 213.139 70.462,212.626 70.975,212.044 71.601 M224.899 75.352 L 224.113 76.222 224.983 75.435 C 225.462 75.003,225.854 74.611,225.854 74.565 C 225.854 74.358,225.633 74.540,224.899 75.352 M207.485 76.423 L 206.698 77.294 207.569 76.507 C 208.048 76.074,208.439 75.683,208.439 75.636 C 208.439 75.429,208.218 75.612,207.485 76.423 M175.887 77.696 C 176.762 78.580,177.538 79.303,177.612 79.303 C 177.686 79.303,177.030 78.580,176.155 77.696 C 175.280 76.812,174.504 76.088,174.431 76.088 C 174.357 76.088,175.013 76.812,175.887 77.696 M220.085 79.906 L 218.486 81.581 220.161 79.982 C 221.082 79.102,221.835 78.349,221.835 78.307 C 221.835 78.109,221.571 78.351,220.085 79.906 M179.102 80.911 C 179.678 81.500,180.209 81.983,180.283 81.983 C 180.357 81.983,179.946 81.500,179.370 80.911 C 178.795 80.322,178.264 79.839,178.190 79.839 C 178.116 79.839,178.527 80.322,179.102 80.911 M12.578 98.889 C 11.978 100.083,11.530 101.103,11.583 101.156 C 11.636 101.209,12.185 100.232,12.803 98.985 C 13.422 97.738,13.870 96.718,13.799 96.718 C 13.728 96.718,13.179 97.695,12.578 98.889 M0.077 146.685 C 0.079 147.421,0.131 147.691,0.192 147.284 C 0.254 146.876,0.252 146.274,0.189 145.944 C 0.125 145.615,0.075 145.948,0.077 146.685 M11.597 146.952 C 11.599 147.689,11.651 147.959,11.713 147.552 C 11.774 147.144,11.773 146.542,11.709 146.212 C 11.645 145.882,11.595 146.216,11.597 146.952 M385.636 150.301 C 385.636 152.143,385.679 152.897,385.731 151.976 C 385.783 151.055,385.783 149.548,385.731 148.627 C 385.679 147.706,385.636 148.459,385.636 150.301 M397.156 150.301 C 397.156 152.143,397.199 152.897,397.251 151.976 C 397.304 151.055,397.304 149.548,397.251 148.627 C 397.199 147.706,397.156 148.459,397.156 150.301 M0.080 152.713 C 0.080 153.523,0.131 153.855,0.192 153.449 C 0.253 153.044,0.253 152.381,0.192 151.976 C 0.131 151.571,0.080 151.902,0.080 152.713 M11.597 152.579 C 11.599 153.315,11.651 153.585,11.713 153.178 C 11.774 152.771,11.773 152.168,11.709 151.838 C 11.645 151.509,11.595 151.842,11.597 152.579 M382.093 210.996 C 381.644 211.981,381.730 212.191,382.215 211.296 C 382.442 210.878,382.577 210.485,382.516 210.424 C 382.455 210.363,382.264 210.620,382.093 210.996 M29.337 214.066 C 29.566 214.508,29.813 214.869,29.886 214.869 C 29.960 214.869,29.833 214.508,29.605 214.066 C 29.376 213.624,29.129 213.262,29.055 213.262 C 28.982 213.262,29.108 213.624,29.337 214.066 M379.236 216.745 C 379.008 217.187,378.881 217.549,378.955 217.549 C 379.028 217.549,379.276 217.187,379.504 216.745 C 379.733 216.303,379.860 215.941,379.786 215.941 C 379.712 215.941,379.465 216.303,379.236 216.745 M326.985 268.252 L 325.117 270.194 327.060 268.326 C 328.864 266.591,329.124 266.309,328.928 266.309 C 328.887 266.309,328.013 267.184,326.985 268.252 M68.051 267.733 C 68.051 267.779,68.443 268.171,68.922 268.604 L 69.792 269.390 69.005 268.520 C 68.272 267.708,68.051 267.526,68.051 267.733 M339.704 271.601 L 338.781 272.605 339.786 271.682 C 340.721 270.823,340.914 270.596,340.709 270.596 C 340.664 270.596,340.212 271.048,339.704 271.601 M73.007 273.007 C 73.882 273.891,74.658 274.615,74.732 274.615 C 74.806 274.615,74.150 273.891,73.275 273.007 C 72.400 272.123,71.624 271.400,71.551 271.400 C 71.477 271.400,72.132 272.123,73.007 273.007 M57.066 272.823 C 57.066 272.869,57.458 273.261,57.937 273.694 L 58.808 274.481 58.021 273.610 C 57.287 272.799,57.066 272.616,57.066 272.823 M334.622 276.959 L 332.351 279.303 334.695 277.032 C 335.985 275.783,337.040 274.728,337.040 274.688 C 337.040 274.493,336.732 274.782,334.622 276.959 M318.285 276.892 C 317.188 277.997,316.350 278.902,316.423 278.902 C 316.497 278.902,317.455 277.997,318.553 276.892 C 319.651 275.787,320.489 274.883,320.415 274.883 C 320.342 274.883,319.383 275.787,318.285 276.892 M65.104 281.447 C 66.053 282.405,66.890 283.188,66.964 283.188 C 67.037 283.188,66.321 282.405,65.372 281.447 C 64.422 280.489,63.585 279.705,63.512 279.705 C 63.438 279.705,64.155 280.489,65.104 281.447 M83.054 283.054 C 83.554 283.570,84.023 283.992,84.097 283.992 C 84.171 283.992,83.822 283.570,83.322 283.054 C 82.822 282.539,82.353 282.117,82.279 282.117 C 82.206 282.117,82.554 282.539,83.054 283.054 M326.986 284.595 L 324.849 286.805 327.060 284.668 C 329.112 282.683,329.392 282.384,329.197 282.384 C 329.156 282.384,328.162 283.379,326.986 284.595 M321.486 289.819 L 320.563 290.824 321.567 289.901 C 322.120 289.393,322.572 288.941,322.572 288.896 C 322.572 288.691,322.345 288.884,321.486 289.819 M75.419 291.762 C 76.442 292.793,77.340 293.637,77.414 293.637 C 77.487 293.637,76.710 292.793,75.687 291.762 C 74.663 290.730,73.765 289.886,73.692 289.886 C 73.618 289.886,74.395 290.730,75.419 291.762 M318.135 292.900 L 317.348 293.771 318.218 292.984 C 319.030 292.251,319.212 292.029,319.005 292.029 C 318.959 292.029,318.567 292.421,318.135 292.900 M80.375 296.450 C 80.875 296.966,81.344 297.388,81.418 297.388 C 81.492 297.388,81.143 296.966,80.643 296.450 C 80.143 295.934,79.674 295.512,79.600 295.512 C 79.527 295.512,79.875 295.934,80.375 296.450 M83.054 298.811 C 83.054 298.857,83.446 299.249,83.925 299.682 L 84.796 300.469 84.009 299.598 C 83.275 298.786,83.054 298.604,83.054 298.811 M215.874 349.517 C 214.872 350.060,214.933 350.287,215.941 349.766 C 216.383 349.537,216.745 349.293,216.745 349.223 C 216.745 349.050,216.716 349.060,215.874 349.517 M210.516 352.329 C 209.963 352.621,209.511 352.919,209.511 352.992 C 209.511 353.066,209.993 352.879,210.583 352.579 C 211.172 352.278,211.654 351.974,211.654 351.903 C 211.654 351.728,211.653 351.729,210.516 352.329 M190.757 359.665 C 190.757 359.738,191.119 359.986,191.561 360.214 C 192.003 360.443,192.364 360.570,192.364 360.496 C 192.364 360.422,192.003 360.175,191.561 359.946 C 191.119 359.718,190.757 359.591,190.757 359.665 M195.044 360.080 C 194.528 360.363,194.226 360.594,194.374 360.594 C 194.521 360.594,195.064 360.363,195.579 360.080 C 196.095 359.798,196.397 359.567,196.249 359.567 C 196.102 359.567,195.559 359.798,195.044 360.080 M217.749 361.573 C 216.748 362.117,216.809 362.343,217.816 361.822 C 218.259 361.593,218.620 361.349,218.620 361.279 C 218.620 361.107,218.591 361.116,217.749 361.573 M197.991 371.467 C 197.622 371.677,197.441 371.850,197.589 371.850 C 197.736 371.850,198.158 371.677,198.526 371.467 C 198.895 371.256,199.076 371.084,198.928 371.084 C 198.781 371.084,198.359 371.256,197.991 371.467 M188.881 371.721 C 188.881 371.795,189.243 372.042,189.685 372.271 C 190.127 372.499,190.489 372.626,190.489 372.552 C 190.489 372.479,190.127 372.231,189.685 372.003 C 189.243 371.774,188.881 371.647,188.881 371.721 " stroke="none" fill="#3a3a3a" fill-rule="evenodd"></path><path id="path4" d="M287.970 34.691 C 287.912 34.749,286.963 34.870,285.861 34.960 C 284.760 35.049,283.557 35.166,283.188 35.219 C 282.820 35.271,281.916 35.387,281.179 35.476 C 279.943 35.626,279.423 35.707,277.763 36.011 C 276.706 36.205,271.091 37.389,270.127 37.621 C 266.646 38.461,257.706 41.438,255.127 42.616 C 254.502 42.901,253.922 43.135,253.838 43.135 C 253.145 43.135,241.212 49.221,238.580 50.916 C 238.138 51.201,237.597 51.519,237.379 51.624 C 237.160 51.728,236.239 52.332,235.332 52.966 C 234.425 53.600,233.611 54.119,233.522 54.119 C 233.434 54.119,233.149 54.293,232.890 54.505 C 232.630 54.717,230.870 55.993,228.978 57.341 C 227.086 58.688,225.277 60.009,224.959 60.275 C 218.631 65.573,216.421 67.556,212.571 71.394 C 210.055 73.902,207.161 76.904,206.141 78.064 C 205.121 79.224,204.163 80.309,204.012 80.475 C 203.861 80.641,202.732 82.043,201.502 83.590 C 200.273 85.137,199.218 86.375,199.158 86.342 C 199.098 86.308,198.083 85.068,196.903 83.586 C 188.029 72.448,176.258 61.570,165.305 54.386 C 163.905 53.468,162.433 52.490,162.034 52.212 C 161.634 51.935,161.240 51.708,161.158 51.708 C 161.075 51.708,160.497 51.381,159.874 50.981 C 158.112 49.851,157.644 49.603,151.991 46.795 C 145.626 43.633,146.320 43.948,142.532 42.504 C 136.572 40.232,128.105 37.749,124.046 37.082 C 123.351 36.968,121.798 36.680,121.098 36.535 C 120.877 36.490,120.214 36.388,119.625 36.309 C 119.035 36.230,118.131 36.104,117.616 36.030 C 112.838 35.342,102.740 35.053,98.058 35.470 C 94.261 35.808,92.754 35.991,90.422 36.397 C 89.538 36.551,88.392 36.741,87.877 36.820 C 86.637 37.009,86.077 37.127,84.795 37.472 C 84.206 37.630,83.483 37.804,83.188 37.857 C 80.536 38.338,72.296 41.099,68.855 42.659 C 66.811 43.586,60.208 46.908,59.076 47.579 C 58.486 47.928,57.823 48.298,57.602 48.401 C 57.381 48.504,56.827 48.868,56.371 49.210 C 55.915 49.552,55.455 49.833,55.348 49.833 C 55.166 49.833,53.160 51.153,52.250 51.872 C 52.025 52.049,50.293 53.357,48.400 54.778 C 46.506 56.199,44.517 57.760,43.979 58.247 C 37.384 64.218,35.517 66.097,30.911 71.400 C 29.307 73.247,24.934 78.800,24.055 80.107 C 23.807 80.476,22.633 82.216,21.447 83.974 C 20.261 85.733,19.290 87.212,19.290 87.262 C 19.290 87.311,19.006 87.801,18.660 88.351 C 16.175 92.290,11.434 101.332,9.776 105.291 C 9.375 106.249,8.829 107.515,8.562 108.104 C 7.320 110.849,4.260 119.777,3.604 122.572 C 3.570 122.719,3.335 123.624,3.083 124.581 C 2.831 125.539,2.572 126.624,2.508 126.993 C 2.443 127.361,2.205 128.567,1.977 129.672 C 1.749 130.777,1.521 131.983,1.470 132.351 C 1.418 132.719,1.313 133.382,1.236 133.825 C 1.158 134.267,1.018 135.291,0.924 136.102 C 0.830 136.912,0.709 137.877,0.656 138.245 C 0.007 142.706,0.013 155.768,0.667 161.554 C 0.890 163.526,1.095 165.196,1.194 165.841 C 1.251 166.209,1.367 167.035,1.453 167.676 C 1.737 169.793,2.254 172.652,2.518 173.565 C 2.590 173.811,2.713 174.434,2.793 174.950 C 2.951 175.975,2.945 175.948,3.743 179.236 C 5.840 187.880,9.622 198.927,13.189 206.832 C 14.745 210.280,15.255 211.345,17.359 215.539 C 18.616 218.044,20.038 220.817,20.519 221.701 C 21.001 222.585,21.625 223.731,21.905 224.246 C 22.185 224.762,22.696 225.666,23.039 226.256 C 23.383 226.845,23.832 227.629,24.037 227.997 C 24.243 228.366,24.643 229.029,24.928 229.471 C 25.213 229.913,25.538 230.455,25.651 230.676 C 25.764 230.898,26.408 231.922,27.083 232.954 C 27.758 233.985,28.360 234.950,28.422 235.097 C 28.636 235.611,34.844 244.765,36.905 247.605 C 38.047 249.180,39.163 250.729,39.384 251.046 C 39.605 251.364,39.967 251.847,40.188 252.120 C 40.409 252.393,40.891 253.011,41.259 253.493 C 43.169 255.996,49.808 264.307,50.508 265.072 C 50.659 265.237,51.864 266.638,53.187 268.185 C 54.510 269.732,55.721 271.119,55.878 271.266 C 56.035 271.413,57.181 272.674,58.423 274.067 C 69.128 286.069,87.991 303.850,101.271 314.455 C 101.493 314.632,103.362 316.117,105.425 317.755 C 107.488 319.394,109.420 320.937,109.717 321.184 C 110.015 321.432,111.462 322.533,112.932 323.631 C 114.403 324.728,115.727 325.723,115.874 325.841 C 116.628 326.446,121.162 329.791,122.317 330.596 C 123.047 331.104,123.704 331.589,123.778 331.674 C 123.851 331.758,124.270 332.056,124.708 332.336 C 125.147 332.615,125.629 332.949,125.780 333.078 C 126.256 333.484,130.516 336.445,132.858 337.997 C 134.094 338.817,135.248 339.630,135.423 339.804 C 135.597 339.978,137.117 341.012,138.801 342.102 C 140.484 343.192,142.883 344.760,144.131 345.585 C 145.379 346.411,146.705 347.245,147.077 347.439 C 147.448 347.633,148.137 348.085,148.607 348.444 C 149.077 348.802,149.549 349.096,149.655 349.096 C 149.762 349.096,150.244 349.397,150.727 349.766 C 151.210 350.134,151.685 350.435,151.783 350.435 C 151.880 350.435,152.340 350.707,152.804 351.038 C 153.268 351.370,154.028 351.846,154.493 352.096 C 154.958 352.346,156.043 353.008,156.905 353.567 C 158.760 354.768,159.360 355.137,160.080 355.518 C 160.375 355.674,160.978 356.033,161.420 356.315 C 161.862 356.597,162.827 357.151,163.563 357.546 C 164.300 357.942,165.084 358.406,165.305 358.578 C 165.526 358.751,166.249 359.177,166.912 359.526 C 167.575 359.875,168.299 360.300,168.520 360.470 C 168.741 360.641,169.223 360.927,169.591 361.106 C 169.960 361.284,170.743 361.721,171.333 362.077 C 171.922 362.432,172.766 362.909,173.208 363.137 C 173.650 363.364,174.675 363.929,175.486 364.390 C 179.621 366.747,185.678 370.027,187.944 371.137 C 188.828 371.570,190.250 372.346,191.103 372.860 C 192.280 373.570,192.826 373.754,193.362 373.619 C 195.150 373.170,218.932 361.236,226.792 356.843 C 227.528 356.431,228.674 355.801,229.337 355.443 C 230.000 355.085,231.085 354.479,231.748 354.096 C 232.411 353.714,233.376 353.176,233.891 352.901 C 235.031 352.294,236.692 351.338,237.776 350.664 C 238.218 350.390,238.942 349.977,239.384 349.748 C 240.588 349.124,241.295 348.706,241.699 348.380 C 241.899 348.219,242.666 347.763,243.403 347.367 C 244.139 346.971,245.104 346.416,245.546 346.133 C 245.988 345.850,246.526 345.534,246.742 345.431 C 246.958 345.328,247.802 344.800,248.617 344.259 C 249.433 343.717,250.523 343.047,251.039 342.769 C 251.556 342.491,252.358 341.993,252.822 341.661 C 253.286 341.330,253.746 341.058,253.844 341.058 C 253.941 341.058,254.416 340.757,254.899 340.388 C 255.382 340.020,255.864 339.719,255.971 339.719 C 256.077 339.719,256.549 339.425,257.019 339.067 C 257.489 338.708,258.174 338.253,258.542 338.056 C 259.601 337.486,267.686 332.154,272.065 329.136 C 275.432 326.816,278.757 324.481,279.042 324.238 C 279.194 324.108,279.676 323.774,280.114 323.494 C 280.552 323.215,280.971 322.917,281.045 322.832 C 281.119 322.748,281.782 322.263,282.518 321.754 C 283.255 321.246,283.918 320.769,283.992 320.693 C 284.066 320.617,285.995 319.171,288.279 317.479 C 290.563 315.787,292.564 314.278,292.727 314.126 C 292.889 313.973,293.974 313.128,295.137 312.249 C 296.300 311.369,297.384 310.529,297.545 310.382 C 297.707 310.234,298.236 309.812,298.721 309.444 C 299.206 309.076,299.812 308.593,300.068 308.372 C 300.325 308.151,302.433 306.403,304.753 304.488 C 326.534 286.506,348.420 263.705,361.215 245.665 C 361.471 245.305,362.254 244.225,362.956 243.265 C 363.659 242.306,364.580 240.979,365.004 240.318 C 365.428 239.657,366.242 238.502,366.813 237.752 C 367.383 237.001,367.850 236.296,367.850 236.185 C 367.850 236.075,368.513 235.021,369.324 233.845 C 370.134 232.668,370.797 231.636,370.797 231.551 C 370.797 231.466,371.077 231.024,371.420 230.568 C 371.762 230.112,372.125 229.558,372.226 229.337 C 372.328 229.116,372.648 228.573,372.939 228.131 C 373.230 227.689,373.593 227.086,373.747 226.792 C 373.900 226.497,374.315 225.774,374.670 225.184 C 375.025 224.595,375.503 223.751,375.732 223.309 C 375.962 222.867,376.563 221.782,377.068 220.898 C 378.659 218.111,384.997 205.275,384.997 204.838 C 384.997 204.754,385.298 204.061,385.666 203.298 C 386.035 202.534,386.336 201.810,386.336 201.688 C 386.336 201.567,386.569 200.957,386.853 200.332 C 388.898 195.841,393.607 180.701,394.290 176.423 C 394.399 175.740,394.574 174.881,395.309 171.434 C 395.432 170.857,395.699 169.179,395.879 167.850 C 395.958 167.261,396.070 166.477,396.127 166.109 C 396.237 165.387,396.486 163.337,396.648 161.822 C 397.273 155.941,397.274 144.855,396.650 139.183 C 396.378 136.710,396.220 135.359,396.133 134.762 C 395.891 133.107,395.694 131.877,395.572 131.269 C 395.499 130.906,395.382 130.308,395.311 129.940 C 395.040 128.523,394.928 128.006,394.797 127.574 C 394.723 127.328,394.609 126.825,394.544 126.457 C 393.779 122.146,389.574 109.374,386.958 103.416 C 385.639 100.410,382.009 93.029,380.568 90.422 C 379.387 88.285,379.261 88.070,378.515 86.913 C 378.126 86.309,377.583 85.405,377.308 84.903 C 376.823 84.019,372.675 77.698,372.403 77.428 C 372.329 77.354,371.402 76.132,370.344 74.712 C 365.165 67.760,357.731 59.983,351.276 54.765 C 350.928 54.483,350.506 54.133,350.338 53.985 C 349.545 53.288,341.941 47.957,341.741 47.957 C 341.690 47.957,340.823 47.453,339.813 46.837 C 333.976 43.277,323.362 38.835,317.147 37.352 C 316.889 37.291,316.437 37.180,316.142 37.106 C 315.241 36.881,314.488 36.722,312.257 36.284 C 311.078 36.053,309.843 35.810,309.511 35.743 C 308.826 35.606,307.813 35.466,305.693 35.214 C 304.883 35.118,303.858 34.988,303.416 34.926 C 302.338 34.774,288.104 34.558,287.970 34.691 M300.737 46.219 C 302.373 46.334,304.945 46.608,305.693 46.747 C 306.062 46.816,306.785 46.932,307.301 47.005 C 308.506 47.176,309.671 47.386,310.516 47.584 C 310.884 47.670,311.487 47.795,311.855 47.862 C 317.225 48.829,328.321 53.191,333.415 56.338 C 333.706 56.518,334.670 57.107,335.559 57.648 C 337.887 59.066,343.057 62.712,343.470 63.226 C 343.543 63.318,343.887 63.587,344.234 63.825 C 346.082 65.087,352.768 71.488,355.534 74.641 C 357.626 77.027,359.119 78.824,359.942 79.951 C 360.382 80.553,361.015 81.345,361.349 81.712 C 361.683 82.079,361.956 82.462,361.956 82.564 C 361.956 82.665,362.117 82.909,362.314 83.106 C 362.511 83.303,362.963 83.899,363.319 84.431 C 363.674 84.962,364.478 86.129,365.104 87.024 C 365.730 87.919,366.242 88.726,366.242 88.818 C 366.242 88.909,366.544 89.379,366.912 89.862 C 367.281 90.345,367.582 90.814,367.582 90.904 C 367.582 90.994,367.896 91.525,368.279 92.085 C 368.662 92.644,369.089 93.342,369.228 93.637 C 369.367 93.932,369.831 94.776,370.260 95.512 C 371.092 96.944,374.934 104.627,375.820 106.631 C 376.113 107.294,376.539 108.259,376.767 108.774 C 376.995 109.290,377.507 110.556,377.903 111.587 C 378.300 112.619,378.780 113.825,378.969 114.267 C 380.406 117.624,383.835 129.825,384.314 133.289 C 384.416 134.025,384.542 134.869,384.594 135.164 C 385.358 139.477,385.654 143.735,385.646 150.301 C 385.639 156.894,385.355 161.170,384.605 165.975 C 384.559 166.269,384.440 167.113,384.340 167.850 C 384.239 168.587,384.100 169.391,384.030 169.637 C 383.960 169.883,383.846 170.365,383.778 170.709 C 383.465 172.269,383.378 172.724,383.244 173.476 C 383.166 173.918,383.041 174.481,382.966 174.727 C 382.822 175.203,382.640 176.001,382.427 177.093 C 382.355 177.461,382.218 178.004,382.122 178.299 C 382.027 178.593,381.921 178.989,381.888 179.177 C 381.854 179.365,381.641 180.149,381.413 180.918 C 381.185 181.688,380.681 183.403,380.293 184.729 C 379.258 188.260,376.932 194.664,376.133 196.179 C 375.998 196.434,375.887 196.758,375.887 196.897 C 375.887 197.036,375.519 197.972,375.068 198.977 C 374.617 199.982,374.044 201.275,373.795 201.851 C 372.021 205.956,366.301 216.923,363.652 221.299 C 361.379 225.054,361.376 225.058,360.684 226.037 C 360.352 226.506,360.080 226.962,360.080 227.050 C 360.080 227.333,353.658 236.716,352.073 238.750 C 351.541 239.433,350.924 240.258,350.703 240.583 C 350.482 240.909,350.093 241.435,349.838 241.753 C 349.213 242.531,349.086 242.697,348.176 243.939 C 347.327 245.095,343.197 250.282,342.950 250.502 C 342.867 250.576,342.361 251.179,341.825 251.842 C 341.289 252.505,340.585 253.349,340.261 253.717 C 339.937 254.086,339.170 254.987,338.557 255.720 C 333.746 261.469,321.049 274.637,314.258 280.919 C 311.409 283.555,307.625 286.967,306.363 288.038 C 305.774 288.538,305.231 289.021,305.157 289.112 C 305.084 289.202,303.999 290.148,302.746 291.215 C 300.361 293.246,300.284 293.310,297.933 295.245 C 297.127 295.908,296.223 296.673,295.923 296.946 C 295.624 297.219,294.956 297.762,294.441 298.152 C 293.925 298.542,293.371 298.982,293.211 299.129 C 293.050 299.277,292.521 299.699,292.036 300.067 C 291.551 300.435,290.899 300.962,290.587 301.238 C 290.275 301.514,289.357 302.237,288.547 302.844 C 287.736 303.452,287.013 304.018,286.939 304.102 C 286.865 304.186,286.082 304.790,285.198 305.443 C 284.313 306.096,283.454 306.752,283.288 306.899 C 283.122 307.046,282.719 307.348,282.392 307.569 C 282.066 307.790,281.580 308.151,281.313 308.372 C 281.046 308.593,280.560 308.955,280.233 309.176 C 279.907 309.397,279.504 309.700,279.338 309.849 C 279.042 310.114,276.419 312.028,274.675 313.250 C 274.192 313.588,273.469 314.136,273.068 314.467 C 272.666 314.799,272.256 315.070,272.156 315.070 C 272.056 315.070,271.814 315.230,271.618 315.426 C 271.423 315.622,270.058 316.596,268.585 317.590 C 267.112 318.585,265.699 319.567,265.444 319.773 C 264.659 320.406,255.346 326.591,255.177 326.591 C 255.090 326.591,254.274 327.103,253.363 327.729 C 252.453 328.356,251.467 329.014,251.172 329.193 C 250.877 329.371,249.433 330.276,247.963 331.202 C 246.493 332.129,245.082 333.007,244.829 333.155 C 244.575 333.302,242.430 334.598,240.062 336.035 C 237.694 337.472,235.677 338.647,235.582 338.647 C 235.486 338.647,235.217 338.811,234.984 339.011 C 234.752 339.212,233.898 339.736,233.088 340.178 C 231.657 340.956,230.685 341.505,228.600 342.711 C 225.938 344.252,225.367 344.574,224.246 345.169 C 223.583 345.521,222.438 346.149,221.701 346.565 C 217.675 348.836,214.394 350.538,202.960 356.289 L 193.327 361.133 191.841 360.303 C 191.024 359.847,189.632 359.089,188.747 358.619 C 186.758 357.562,184.610 356.390,182.853 355.403 C 182.117 354.989,181.092 354.421,180.576 354.141 C 180.060 353.861,179.156 353.356,178.567 353.017 C 177.977 352.679,177.073 352.161,176.557 351.867 C 173.179 349.940,172.090 349.313,171.735 349.093 C 171.391 348.879,162.084 343.301,160.788 342.532 C 160.539 342.384,159.133 341.506,157.663 340.579 C 156.193 339.653,154.749 338.749,154.454 338.570 C 154.159 338.391,153.159 337.733,152.231 337.106 C 151.303 336.480,150.487 335.968,150.418 335.968 C 150.271 335.968,140.074 329.175,139.380 328.615 C 139.124 328.409,137.710 327.426,136.238 326.432 C 134.765 325.437,133.400 324.463,133.204 324.267 C 133.009 324.072,132.767 323.911,132.667 323.911 C 132.567 323.911,132.156 323.640,131.755 323.308 C 131.353 322.977,130.594 322.405,130.067 322.036 C 129.540 321.668,128.463 320.884,127.674 320.295 C 126.886 319.705,125.974 319.042,125.649 318.821 C 124.747 318.208,119.375 314.194,119.223 314.019 C 119.149 313.934,118.064 313.084,116.812 312.129 C 115.559 311.174,114.354 310.247,114.133 310.068 C 113.912 309.889,112.706 308.929,111.453 307.934 C 110.201 306.938,109.116 306.057,109.042 305.974 C 108.969 305.892,108.486 305.502,107.971 305.108 C 107.455 304.714,106.692 304.090,106.275 303.721 C 105.858 303.352,105.019 302.650,104.409 302.161 C 103.423 301.370,101.663 299.870,100.851 299.129 C 100.690 298.982,99.907 298.319,99.112 297.656 C 97.554 296.357,93.386 292.672,91.245 290.700 C 90.519 290.031,89.012 288.644,87.896 287.616 C 80.861 281.138,67.166 266.957,61.889 260.687 C 61.226 259.900,60.559 259.124,60.408 258.964 C 60.089 258.627,57.125 255.111,56.527 254.360 C 56.304 254.080,55.152 252.646,53.965 251.172 C 51.891 248.595,47.573 242.897,46.476 241.289 C 46.185 240.863,45.707 240.189,45.412 239.793 C 43.908 237.767,39.116 230.734,39.116 230.552 C 39.116 230.474,38.724 229.837,38.245 229.137 C 37.766 228.436,37.229 227.622,37.051 227.328 C 36.873 227.033,35.934 225.466,34.965 223.845 C 33.995 222.224,33.087 220.717,32.948 220.496 C 32.808 220.275,32.467 219.672,32.189 219.156 C 31.912 218.640,31.253 217.435,30.725 216.477 C 28.971 213.293,24.441 204.065,23.295 201.340 C 23.171 201.045,22.808 200.207,22.488 199.477 C 20.115 194.065,16.180 182.562,15.427 178.835 C 15.397 178.687,15.294 178.326,15.198 178.031 C 15.103 177.736,14.966 177.194,14.894 176.825 C 14.682 175.740,14.499 174.937,14.355 174.460 C 14.281 174.213,14.155 173.650,14.075 173.208 C 13.868 172.065,13.692 171.167,13.523 170.395 C 13.228 169.045,12.866 167.019,12.733 165.975 C 12.658 165.385,12.525 164.360,12.438 163.697 C 11.815 158.981,11.667 156.293,11.669 149.766 C 11.671 143.969,11.761 141.951,12.183 138.245 C 12.406 136.284,12.853 133.511,13.262 131.547 C 13.339 131.179,13.465 130.516,13.542 130.074 C 14.210 126.263,17.431 116.084,18.777 113.533 C 18.912 113.278,19.022 112.946,19.022 112.797 C 19.022 112.240,24.381 101.206,25.986 98.459 C 26.416 97.723,26.896 96.879,27.052 96.584 C 27.208 96.289,27.573 95.687,27.864 95.244 C 28.155 94.802,28.474 94.260,28.573 94.039 C 28.671 93.818,29.155 93.078,29.647 92.395 C 30.140 91.713,30.543 91.061,30.543 90.947 C 30.543 90.833,30.841 90.349,31.206 89.871 C 31.571 89.392,32.431 88.181,33.117 87.178 C 33.804 86.176,34.500 85.213,34.664 85.038 C 34.829 84.864,35.204 84.381,35.499 83.965 C 38.373 79.912,46.100 71.565,50.368 67.904 C 52.012 66.495,54.523 64.452,55.293 63.898 C 55.703 63.603,56.300 63.138,56.619 62.863 C 59.875 60.067,74.618 51.976,76.458 51.976 C 76.638 51.976,76.900 51.868,77.040 51.735 C 77.482 51.317,84.719 49.102,87.073 48.664 C 87.441 48.595,88.285 48.417,88.948 48.269 C 90.123 48.005,91.326 47.797,93.235 47.526 C 93.751 47.453,94.534 47.339,94.977 47.273 C 99.470 46.599,110.640 46.597,115.338 47.270 C 115.780 47.333,116.864 47.464,117.746 47.561 C 118.628 47.657,119.435 47.788,119.538 47.852 C 119.641 47.916,120.246 48.035,120.881 48.117 C 121.516 48.199,122.518 48.392,123.108 48.545 C 123.697 48.698,124.541 48.881,124.983 48.951 C 127.607 49.367,137.220 52.517,140.857 54.153 C 143.565 55.370,144.339 55.725,146.283 56.643 C 147.388 57.165,149.136 58.070,150.167 58.654 C 151.199 59.238,152.405 59.901,152.847 60.127 C 153.847 60.639,153.834 60.631,158.875 63.937 C 161.159 65.435,163.317 66.914,163.671 67.222 C 164.025 67.531,164.388 67.783,164.478 67.783 C 164.567 67.783,164.941 68.054,165.307 68.386 C 165.674 68.717,166.397 69.306,166.912 69.695 C 167.428 70.084,168.106 70.626,168.420 70.901 C 168.733 71.175,169.576 71.882,170.293 72.472 C 178.029 78.831,187.363 89.154,193.348 97.967 C 194.354 99.449,196.062 101.956,197.144 103.539 L 199.110 106.417 199.803 105.385 C 200.184 104.818,200.573 104.293,200.669 104.220 C 200.764 104.146,201.437 103.191,202.163 102.098 C 204.982 97.854,204.886 97.989,207.744 94.209 C 214.458 85.325,222.412 77.067,230.409 70.678 C 232.251 69.207,233.974 67.829,234.238 67.618 C 235.320 66.751,241.289 62.620,241.661 62.481 C 241.882 62.398,242.436 62.050,242.892 61.708 C 243.348 61.365,243.821 61.085,243.943 61.085 C 244.064 61.085,244.354 60.921,244.587 60.721 C 245.557 59.885,254.200 55.429,257.736 53.942 C 258.989 53.415,260.496 52.773,261.085 52.514 C 263.554 51.431,272.897 48.582,275.488 48.123 C 275.894 48.051,276.437 47.931,276.694 47.856 C 276.950 47.781,277.582 47.655,278.098 47.574 C 278.614 47.494,279.367 47.366,279.772 47.291 C 281.632 46.944,282.058 46.874,283.188 46.728 C 285.288 46.456,286.199 46.375,289.082 46.201 C 290.630 46.107,291.956 45.967,292.029 45.889 C 292.143 45.770,296.951 45.952,300.737 46.219 " stroke="none" fill="#3e3e3e" fill-rule="evenodd"></path></g></svg>