<svg xmlns="http://www.w3.org/2000/svg" viewBox="0 0 1500 1500"><defs><style>.cls-1{fill:#55b6b2;}</style></defs><title>Iconos finales</title><g id="souveniers"><path class="cls-1" d="M173.81,294C213.64,360.07,253,413.88,293.44,457.67c46,49.79,93.53,86.7,145.33,112.83,98.66,49.77,201,54.14,314.85,54.53l46.15.16V365.47l520,430.2L800,1224V965.69l-44.33-1.61c-63.44-2.3-122.56-9.68-175.72-21.92-52.23-12-100-29-142-50.6-41.31-21.2-78.15-47.38-109.5-77.81A436.22,436.22,0,0,1,249,708.15C175.3,571.81,173.21,407.85,173.81,294m-11.48-77.08a33.91,33.91,0,0,0-8.68,1A34.6,34.6,0,0,0,127.9,251.3v27.54C127.13,398,126.37,578,208.48,730c95.4,176.24,278.77,270.35,545.54,280v238.72a34.31,34.31,0,0,0,56.12,26.53l549.6-453a35.15,35.15,0,0,0,12.51-26.77A34.65,34.65,0,0,0,1359.74,769L810.39,314.55A35,35,0,0,0,773.66,310a34.17,34.17,0,0,0-19.89,31.11V579c-222.14-.76-375.43-16.58-561.6-344.82a34,34,0,0,0-29.84-17.33Z"/></g></svg>