<?xml version="1.0" encoding="UTF-8"?>
<svg width="84px" height="95px" viewBox="0 0 84 95" version="1.1" xmlns="http://www.w3.org/2000/svg" xmlns:xlink="http://www.w3.org/1999/xlink">
    <!-- Generator: Sketch 51.3 (57544) - http://www.bohemiancoding.com/sketch -->
    <title>Group 19</title>
    <desc>Created with Sketch.</desc>
    <defs></defs>
    <g id="V2" stroke="none" stroke-width="1" fill="none" fill-rule="evenodd">
        <g id="New-home-desktop" transform="translate(-685.000000, -3766.000000)" fill-rule="nonzero">
            <g id="Group-19" transform="translate(685.000000, 3766.000000)">
                <path d="M16,72 C14.8972,72 14,72.8972 14,74 C14,75.1028 14.8972,76 16,76 C17.1028,76 18,75.1028 18,74 C18,72.8972 17.1028,72 16,72 Z" id="Shape" fill="#7ED321"></path>
                <path d="M50.1608521,45.5365387 C49.9813837,45.469345 49.8048028,45.3972564 49.6277777,45.3260578 C49.4956197,45.2728813 49.3625732,45.2217073 49.2317479,45.1663059 C49.0480593,45.0886549 48.8672583,45.0058865 48.6862351,44.9240081 C48.5651828,44.8694967 48.4425757,44.8172102 48.322634,44.7604738 C48.128506,44.6690281 47.9377098,44.5717974 47.7462473,44.4754568 C47.6425199,44.4233928 47.5374598,44.3737763 47.434843,44.3201548 C47.2082864,44.2020096 46.9857279,44.077857 46.7638357,43.9532594 C46.6992004,43.9169926 46.6327882,43.8829508 46.5685972,43.8460165 C46.2814033,43.6811472 45.9977634,43.5107155 45.7181214,43.3347214 C45.7143455,43.332274 45.7110138,43.330049 45.7074599,43.3276016 C45.4338151,43.1553899 45.1639462,42.9776158 44.8978532,42.7947244 C44.8205575,42.7417704 44.745927,42.6857015 44.6695197,42.6318575 C44.4787235,42.4974701 44.2877052,42.3630827 44.1009071,42.2238004 C44.0082854,42.1543818 43.9183291,42.0818482 43.826818,42.0115396 C43.659788,41.8831595 43.492758,41.755447 43.3292819,41.6230621 C43.2308853,41.5431861 43.1353761,41.4601952 43.0378679,41.3787618 C42.8854975,41.2514943 42.7326828,41.1242268 42.583422,40.9936218 C42.4832484,40.9055135 42.3859624,40.8147353 42.2873436,40.7255145 C42.1451905,40.5966895 42.0028152,40.468087 41.8637716,40.336147 C41.7644865,40.2418089 41.6678668,40.1448007 41.5701365,40.0489051 C41.4359794,39.9174102 41.3018224,39.7859152 41.170997,39.6515278 C41.073711,39.5516272 40.9788681,39.4492792 40.883359,39.3478212 C40.7565317,39.2132113 40.6299265,39.0786014 40.5062089,38.9413216 C40.4113661,38.8360811 40.3191886,38.7288382 40.2261227,38.6218178 C40.106181,38.4840929 39.9864614,38.3461456 39.8698513,38.2057508 C39.7783402,38.095838 39.6890503,37.9841451 39.5993161,37.8726748 C39.4858157,37.73139 39.3729816,37.5898828 39.2625908,37.446373 C39.1746335,37.3317878 39.0886753,37.21609 39.002717,37.0999473 C38.8956579,36.9555476 38.7892652,36.8104804 38.6853157,36.6636332 C38.6013564,36.5452655 38.5191741,36.4255628 38.4374361,36.3056377 C38.3363741,36.157678 38.2366447,36.0090509 38.1389144,35.8590888 C38.0589533,35.7364937 37.980769,35.6130086 37.903029,35.4890785 C37.8084083,35.3380039 37.7153424,35.1864843 37.6240534,35.0336298 C37.5487567,34.9072523 37.4745705,34.7802072 37.4012728,34.6524947 C37.3128713,34.4983052 37.2260246,34.3430032 37.1409548,34.1868112 C37.0703224,34.0573187 37.0005785,33.9273813 36.9323894,33.7965538 C36.849985,33.6392493 36.7700239,33.4808324 36.6909512,33.3215255 C36.6252053,33.1886956 36.5601258,33.0558656 36.4966011,32.9219232 C36.420638,32.7612814 36.3468961,32.599527 36.2742647,32.4371051 C36.2136275,32.3018278 36.1534345,32.1663279 36.0950184,32.0297155 C36.0252745,31.8661812 35.958196,31.7008669 35.8917838,31.5355526 C35.8364774,31.3976053 35.7809488,31.2598805 35.7280856,31.1205982 C35.6645609,30.9539489 35.6043679,30.7861871 35.5446192,30.6177579 C35.4946434,30.4773631 35.4444456,30.3371908 35.3969131,30.1959061 C35.3398297,30.0259194 35.2863002,29.8545977 35.2329928,29.683276 C35.188792,29.5411013 35.1439249,29.3998165 35.1021674,29.2567518 C35.0513032,29.0829827 35.0048813,28.9078785 34.9577931,28.7327744 C34.9195895,28.5897097 34.8800531,28.447535 34.8442927,28.3038028 C34.8000919,28.1260287 34.7603335,27.9469197 34.7199087,27.7682556 C34.68748,27.6245234 34.6537186,27.4819037 34.6237332,27.3372815 C34.5859737,27.1550575 34.5533229,26.9710536 34.5195616,26.7874946 C34.4935742,26.6448749 34.4653657,26.5029227 34.4415994,26.3594129 C34.4105034,26.1702916 34.3847382,25.9798353 34.3580844,25.7896015 C34.3383163,25.6498742 34.316327,25.5108144 34.2987799,25.3704196 C34.2741252,25.170396 34.2554676,24.9685924 34.2356995,24.7672338 C34.2225947,24.6352939 34.2068246,24.5040214 34.195941,24.371859 C34.1775055,24.1484733 34.1659556,23.9235302 34.1537393,23.699032 C34.1475201,23.5871167 34.1381913,23.4760913 34.1335269,23.3639535 C34.1195337,23.02665 34.1122039,22.6880116 34.1122039,22.3482607 C34.1122039,22.0436641 34.1193115,21.7399575 34.1301952,21.4366959 C34.1319721,21.3888593 34.1330826,21.3410227 34.1350817,21.2931861 C34.147298,21.0039417 34.1646229,20.7155873 34.1866122,20.4279004 C34.1908324,20.3727215 34.1954968,20.317765 34.199939,20.2625861 C34.2239274,19.9724517 34.252358,19.6832073 34.2865636,19.3948529 C34.2910059,19.3576962 34.2961145,19.3207619 34.3007789,19.2836051 C34.3360951,18.9976981 34.3756315,18.7126812 34.4209428,18.4283317 C34.4247187,18.4051921 34.4278283,18.3818301 34.4313822,18.3586905 C34.4782483,18.0681111 34.5317778,17.7793117 34.5890833,17.4909573 C34.5993006,17.4400058 34.6090736,17.3886093 34.6197351,17.3374353 C34.6774848,17.0568682 34.739899,16.7774137 34.8071996,16.4990716 C34.8194159,16.448565 34.8320764,16.3985035 34.8447369,16.3482195 C34.9158135,16.0627575 34.990666,15.777963 35.0719599,15.4949485 C35.0781791,15.4733664 35.0850646,15.4522294 35.0910617,15.4306473 C35.171245,15.1545301 35.256759,14.8795255 35.3467153,14.6060783 C35.3549335,14.5809362 35.3618191,14.5553492 35.3700373,14.5302072 C33.7765892,14.1779965 32.1436047,14 30.5004029,14 C25.4066552,14 20.6027666,15.6627103 16.6078184,18.8081318 C11.1373648,23.1149808 8,29.5775906 8,36.5388131 C8,37.9445409 8.13193591,39.358501 8.39203178,40.7406442 C10.1500666,50.0807907 17.6286558,57.3410474 27.0021023,58.8061815 C27.6026995,58.9000747 28.0162763,59.4598739 27.9303181,60.0626147 L27.0589636,66.1732362 L29.6121677,66.1732362 C29.6772472,66.2602321 36.0441543,74.9351164 29.7154509,81.275131 C21.9367852,89.0671525 27.2992913,94.6188649 27.3543757,94.6740438 C27.5711592,94.8914221 27.8554656,95 28.1395498,95 C28.423634,95 28.7081624,94.8914221 28.9247239,94.6740438 C29.3585132,94.2397322 29.3585132,93.5353109 28.9247239,93.1009993 C28.9156172,93.0916545 27.9993956,92.1342555 27.7632881,90.4782201 C27.4285618,88.1306681 28.6468589,85.4923143 31.2857991,82.848398 C34.4802473,79.6486876 35.4975309,75.4926906 34.2281476,70.8302935 C33.6977386,68.8823437 32.8752492,67.2429955 32.2513301,66.1732362 L33.9422864,66.1732362 L33.070932,60.0626147 C32.9849737,59.4598739 33.3985506,58.8998522 33.9991477,58.8061815 C41.4737389,57.6378567 47.8866236,52.7133596 51,45.8353504 C50.8589574,45.7881814 50.7210244,45.7356724 50.5815366,45.6860558 C50.440494,45.6366618 50.2996735,45.5886027 50.1608521,45.5365387 Z" id="Shape" fill="#7ED321"></path>
                <path d="M9,9 C10.6542,9 12,7.6542 12,6 C12,4.3458 10.6542,3 9,3 C7.3458,3 6,4.3458 6,6 C6,7.6542 7.3458,9 9,9 Z" id="Shape" fill="#FAAC4F"></path>
                <path d="M75,79 C73.8972,79 73,79.8972 73,81 C73,82.1028 73.8972,83 75,83 C76.1028,83 77,82.1028 77,81 C77,79.8972 76.1028,79 75,79 Z" id="Shape" fill="#FAAC4F"></path>
                <path d="M60.1268392,51.7092734 L61.9416939,51.7092734 L61.0701372,45.6532384 C60.9841809,45.0558601 61.3979704,44.5008209 61.9985538,44.4079836 C73.0085093,42.7020707 81,33.4205459 81,22.3385067 C81,10.021136 70.9066894,0 58.5001111,0 C49.1601951,0 40.9306032,5.58060225 37.5338865,14.2171173 C36.770497,16.1581005 36.2894084,18.1802336 36.0966175,20.2517623 C36.0322058,20.9421984 36,21.6381474 36,22.3385067 C36,32.3342833 42.7703341,41.183376 52.4640701,43.8577958 C53.3262982,44.0955123 54.1800862,44.2807458 55.0014462,44.4079836 C55.6018075,44.5010415 56.0153749,45.0558601 55.9296407,45.6532384 L55.058084,51.7092734 L57.6025676,51.7092734 C58.2371337,52.815603 64.042181,63.3624495 59.8676377,71.6516516 C54.9534706,81.4090503 59.6646298,90.9878309 59.8676377,91.3909344 C60.0619833,91.7770582 60.453784,92 60.8609103,92 C61.0274922,92 61.1967394,91.9627328 61.3559918,91.8840085 C61.9043795,91.6129942 62.1275993,90.9512252 61.8550712,90.4063298 C61.8104273,90.3172412 57.4473132,81.3883218 61.8541828,72.6382409 C65.9305538,64.543975 61.8468532,55.0560471 60.1268392,51.7092734 Z M59.5702334,7.79370235 C59.7186024,7.20360112 60.3202963,6.8441598 60.9137723,6.99058252 C61.0288248,7.01902911 63.7598802,7.70681898 66.4947113,9.734465 C70.1735068,12.4624703 72.0980834,16.3084925 72.0598807,20.8559766 C72.0547721,21.4617345 71.558358,21.9495162 70.9495565,21.9495162 C70.9462249,21.9495162 70.9433375,21.9495162 70.9400058,21.9495162 C70.3267622,21.9444443 69.8339018,21.4467394 69.8387882,20.8376737 C69.9163043,11.6240679 60.7667359,9.22815991 60.3771563,9.13047126 C59.7832362,8.98184337 59.4216423,8.38380357 59.5702334,7.79370235 Z" id="Shape" fill="#FAAC4F"></path>
                <path d="M82,46 C80.8972,46 80,46.897 80,48 C80,49.1028 80.8972,50 82,50 C83.1028,50 84,49.1028 84,48 C84,46.897 83.1028,46 82,46 Z" id="Shape" fill="#7ED321"></path>
                <path d="M2,54 C0.8972,54 0,54.8972 0,56 C0,57.1028 0.8972,58 2,58 C3.1028,58 4,57.1028 4,56 C4,54.8972 3.1028,54 2,54 Z" id="Shape" fill="#FAAC4F"></path>
            </g>
        </g>
    </g>
</svg>