<svg id="svg" version="1.1" width="400" height="272.231884057971" viewBox="0 0 400 272.231884057971" xmlns="http://www.w3.org/2000/svg" xmlns:xlink="http://www.w3.org/1999/xlink" ><g id="svgg"><path id="path0" d="" stroke="none" fill="#000000" fill-rule="evenodd"></path><path id="path1" d="" stroke="none" fill="#1c1c1c" fill-rule="evenodd"></path><path id="path2" d="" stroke="none" fill="#242424" fill-rule="evenodd"></path><path id="path3" d="" stroke="none" fill="#333333" fill-rule="evenodd"></path><path id="path4" d="M246.145 23.205 C 185.121 27.772,129.370 62.085,110.852 106.474 C 109.737 109.147,114.373 108.288,77.282 112.693 C 51.697 115.732,45.998 116.471,45.260 116.848 C 40.459 119.297,42.090 127.014,47.420 127.075 C 48.058 127.082,61.490 125.551,77.269 123.673 C 93.048 121.794,106.011 120.311,106.077 120.377 C 106.143 120.442,105.947 121.741,105.642 123.262 C 105.337 124.784,105.016 126.577,104.928 127.246 C 104.840 127.916,104.694 128.464,104.604 128.464 C 102.716 128.464,62.660 133.181,62.085 133.471 C 56.934 136.069,58.571 143.744,64.282 143.775 C 64.956 143.778,74.145 142.824,84.702 141.655 C 95.258 140.486,103.937 139.570,103.988 139.621 C 104.092 139.725,104.610 145.904,104.521 145.988 C 104.490 146.018,93.314 147.510,79.686 149.303 C 52.174 152.924,53.574 152.652,52.309 154.622 C 49.830 158.480,52.242 163.246,56.673 163.246 C 57.396 163.246,103.760 157.237,105.901 156.866 L 106.642 156.737 107.343 159.006 C 107.729 160.254,108.294 161.910,108.599 162.687 L 109.153 164.098 106.461 164.494 C 98.168 165.715,86.408 167.571,81.855 168.378 C 69.624 170.546,33.338 177.469,32.076 177.874 C 27.012 179.503,27.387 187.148,32.589 188.312 C 33.751 188.572,34.472 188.459,46.761 186.097 C 78.951 179.910,87.534 178.386,104.232 175.892 C 108.951 175.187,113.128 174.557,113.515 174.492 C 114.189 174.380,114.283 174.475,115.833 176.866 C 120.553 184.141,130.091 193.945,136.875 198.493 C 137.360 198.818,137.690 199.205,137.626 199.374 C 137.564 199.540,137.611 199.615,137.732 199.541 C 137.852 199.466,139.494 200.310,141.381 201.417 C 159.113 211.813,175.175 217.135,196.986 219.840 C 204.239 220.740,221.071 220.669,231.072 219.697 C 239.583 218.869,256.368 215.870,258.899 214.725 C 259.154 214.610,260.641 214.140,262.203 213.682 C 282.917 207.608,304.735 197.678,315.679 189.342 C 317.192 188.189,318.740 187.061,319.118 186.835 C 322.838 184.608,332.812 176.017,338.231 170.373 C 389.206 117.275,371.818 50.009,301.681 28.983 C 292.893 26.349,283.776 24.586,273.391 23.513 C 269.176 23.077,250.648 22.868,246.145 23.205 M265.043 33.961 C 277.089 34.303,290.174 36.647,301.913 40.566 C 353.812 57.890,371.609 103.548,343.264 146.645 C 308.817 199.019,223.664 224.556,163.594 200.528 C 159.116 198.737,152.804 195.661,151.803 194.782 C 151.374 194.406,150.319 193.782,149.459 193.396 C 143.748 190.833,132.516 181.109,127.492 174.377 C 90.397 124.670,140.803 53.958,225.416 37.003 C 236.020 34.879,250.979 33.452,259.246 33.778 C 260.203 33.815,262.812 33.898,265.043 33.961 M216.928 71.230 C 206.533 72.145,198.832 84.081,202.556 93.507 C 202.707 93.889,202.270 93.913,195.308 93.913 L 187.900 93.913 186.475 94.625 C 184.491 95.617,184.034 96.275,181.325 102.046 C 180.013 104.843,178.887 107.080,178.825 107.018 C 178.762 106.956,177.695 104.686,176.453 101.974 C 173.981 96.578,173.201 95.439,171.281 94.427 L 170.087 93.797 159.188 93.797 L 148.290 93.797 147.220 94.426 C 144.775 95.863,143.681 97.882,143.806 100.722 L 143.889 102.609 155.829 125.756 C 168.382 150.094,168.510 150.315,170.615 151.348 L 171.942 152.000 178.783 152.000 L 185.623 152.000 186.823 151.367 C 188.698 150.379,189.066 149.787,196.444 135.884 C 200.269 128.678,203.546 122.522,203.727 122.203 C 204.014 121.698,204.049 123.262,203.999 134.377 L 203.942 147.130 204.589 148.448 C 206.292 151.916,207.243 152.215,216.877 152.306 L 224.711 152.381 224.684 160.915 C 224.653 170.789,224.680 170.935,226.821 172.860 C 228.698 174.548,228.887 174.574,239.536 174.649 L 248.928 174.715 250.077 174.150 C 253.716 172.361,253.999 171.468,254.097 161.449 C 254.144 156.616,254.265 153.275,254.393 153.275 C 254.511 153.275,255.574 153.444,256.754 153.650 C 263.909 154.899,273.011 152.756,278.344 148.566 C 279.108 147.966,279.306 147.904,279.690 148.144 C 291.873 155.752,309.242 156.239,319.536 149.261 C 330.317 141.953,332.473 126.310,323.922 117.449 L 322.131 115.594 324.572 111.072 C 329.455 102.023,329.090 98.740,322.913 96.155 C 309.154 90.396,291.958 92.959,284.844 101.829 C 283.509 103.494,283.948 103.602,281.180 100.922 C 273.391 93.375,262.204 90.795,252.467 94.298 C 250.964 94.839,250.858 94.846,249.700 94.503 C 248.736 94.216,247.157 94.145,241.786 94.145 L 235.076 94.145 235.228 93.623 C 238.822 81.269,229.700 70.107,216.928 71.230 M221.561 78.421 C 226.579 79.694,229.927 85.134,228.841 90.249 C 227.219 97.888,217.764 101.003,212.087 95.770 C 204.243 88.540,211.203 75.795,221.561 78.421 M266.551 100.406 C 282.672 104.597,288.882 125.210,278.204 139.085 C 271.532 147.755,257.674 149.663,249.370 143.055 C 248.580 142.427,247.873 141.756,247.800 141.565 C 247.272 140.188,247.188 141.964,247.188 154.574 L 247.188 167.930 239.362 167.763 C 235.058 167.671,231.529 167.582,231.521 167.566 C 231.513 167.550,231.582 156.423,231.674 142.841 C 231.767 129.258,231.852 114.310,231.863 109.623 L 231.884 101.101 239.652 101.101 L 247.420 101.101 247.420 103.652 C 247.420 105.055,247.469 106.203,247.529 106.203 C 247.589 106.203,248.450 105.389,249.442 104.393 C 253.597 100.227,260.064 98.719,266.551 100.406 M312.845 100.534 C 315.296 100.920,319.825 102.246,320.509 102.778 C 320.848 103.042,320.621 103.571,318.324 107.874 L 315.761 112.675 314.924 112.305 C 308.013 109.249,300.535 110.758,302.472 114.818 C 303.173 116.286,303.807 116.544,310.571 118.115 C 318.704 120.004,322.325 124.295,322.036 131.702 C 321.490 145.699,303.014 151.877,286.261 143.664 C 282.548 141.844,282.716 142.099,283.966 140.174 C 285.382 137.994,286.659 135.273,287.426 132.804 C 288.039 130.832,288.075 130.778,288.551 131.088 C 297.454 136.876,306.545 137.458,306.550 132.240 C 306.552 130.113,305.092 129.272,298.786 127.767 C 289.670 125.592,286.395 121.972,286.912 114.644 C 287.661 104.034,298.301 98.245,312.845 100.534 M173.417 112.174 C 176.297 118.455,178.710 123.594,178.779 123.594 C 178.848 123.594,181.303 118.484,184.235 112.237 L 189.565 100.880 198.342 100.875 L 207.118 100.870 206.676 101.623 C 206.433 102.038,201.140 112.003,194.914 123.768 L 183.595 145.159 178.675 145.159 L 173.754 145.159 162.669 123.652 C 156.573 111.823,151.382 101.805,151.134 101.388 L 150.683 100.632 159.432 100.693 L 168.180 100.754 173.417 112.174 M215.155 103.197 C 218.254 104.154,222.147 103.737,225.101 102.130 L 226.551 101.342 226.551 117.764 C 226.551 126.796,226.482 136.707,226.398 139.789 L 226.245 145.391 218.476 145.391 L 210.707 145.391 210.860 133.043 C 210.945 126.252,211.014 116.295,211.014 110.915 L 211.014 101.135 212.348 101.938 C 213.081 102.380,214.344 102.946,215.155 103.197 M255.072 113.707 C 246.867 115.490,244.108 126.146,250.403 131.746 C 254.898 135.745,262.456 134.921,265.799 130.067 C 271.301 122.078,264.473 111.665,255.072 113.707 M316.733 198.176 C 314.443 199.983,309.190 203.472,306.145 205.210 C 304.965 205.884,304.000 206.452,304.000 206.474 C 304.000 206.495,305.487 206.529,307.304 206.549 C 322.131 206.711,332.130 214.305,329.753 223.598 C 326.223 237.400,304.173 248.479,285.797 245.683 C 269.263 243.167,263.305 231.444,273.148 220.794 C 274.317 219.529,273.849 219.577,268.931 221.222 C 266.347 222.086,263.084 223.130,261.681 223.542 C 257.908 224.649,257.506 225.452,257.509 231.884 C 257.521 259.940,306.360 266.314,331.252 241.507 C 347.526 225.289,342.966 204.684,321.580 197.799 C 320.219 197.361,319.157 196.920,319.219 196.820 C 319.599 196.205,318.409 196.855,316.733 198.176 M134.370 210.631 C 131.662 213.432,129.478 216.412,127.978 219.354 C 127.392 220.503,126.839 221.370,126.748 221.280 C 126.658 221.189,126.651 221.289,126.732 221.500 C 126.813 221.712,126.769 222.074,126.635 222.305 C 126.448 222.627,126.388 222.644,126.380 222.377 C 126.371 222.072,126.343 222.071,126.154 222.371 C 126.018 222.585,126.022 222.765,126.164 222.853 C 126.311 222.944,126.312 223.190,126.167 223.554 L 125.942 224.116 125.904 223.536 C 125.872 223.054,125.834 223.092,125.675 223.766 C 125.571 224.210,125.563 224.628,125.657 224.693 C 125.752 224.758,125.754 225.072,125.662 225.391 C 125.520 225.887,125.488 225.904,125.441 225.507 C 125.291 224.221,125.070 227.792,125.111 230.841 C 125.481 258.639,172.372 265.428,198.083 241.405 C 202.409 237.363,207.839 229.333,206.247 229.333 C 206.048 229.333,205.950 229.229,206.029 229.101 C 206.108 228.974,206.062 228.870,205.927 228.870 C 205.792 228.870,205.681 228.990,205.681 229.138 C 205.681 229.398,197.815 229.279,195.362 228.982 C 194.442 228.870,194.424 228.883,193.064 230.633 C 182.405 244.346,155.445 249.639,142.013 240.655 C 139.256 238.811,136.269 235.115,136.677 234.051 C 136.748 233.866,136.714 233.772,136.602 233.841 C 136.489 233.911,136.326 233.684,136.239 233.338 C 136.152 232.991,136.178 232.675,136.297 232.635 C 136.415 232.596,136.459 232.283,136.393 231.940 C 136.285 231.375,136.257 231.359,136.085 231.775 C 135.560 233.042,136.206 228.322,136.790 226.622 C 138.162 222.629,144.659 214.729,146.834 214.410 C 147.613 214.296,147.092 213.831,144.778 212.574 C 143.393 211.822,141.141 210.537,139.771 209.719 C 136.669 207.866,137.117 207.790,134.370 210.631 " stroke="none" fill="#ffffff" fill-rule="evenodd"></path></g></svg>