<svg id="svg" version="1.1" width="400" height="279.78142076502735" viewBox="0 0 400 279.78142076502735" xmlns="http://www.w3.org/2000/svg" xmlns:xlink="http://www.w3.org/1999/xlink" ><g id="svgg"><path id="path0" d="" stroke="none" fill="#000000" fill-rule="evenodd"></path><path id="path1" d="" stroke="none" fill="#171717" fill-rule="evenodd"></path><path id="path2" d="" stroke="none" fill="#242424" fill-rule="evenodd"></path><path id="path3" d="M125.583 218.648 C 121.245 222.999,114.937 232.514,116.390 232.514 C 116.542 232.514,116.667 232.268,116.667 231.967 C 116.667 231.667,116.790 231.421,116.940 231.421 C 117.090 231.421,117.213 231.175,117.213 230.874 C 117.213 230.574,117.336 230.328,117.486 230.328 C 117.637 230.328,117.760 230.082,117.760 229.781 C 117.760 229.481,117.883 229.235,118.033 229.235 C 118.183 229.235,118.306 228.989,118.306 228.689 C 118.306 228.388,118.408 228.142,118.533 228.142 C 118.658 228.142,118.935 227.804,119.148 227.391 C 119.361 226.977,119.751 226.401,120.014 226.110 C 120.277 225.818,120.492 225.474,120.492 225.343 C 120.492 225.213,120.860 224.714,121.310 224.234 C 121.760 223.754,122.130 223.238,122.133 223.087 C 122.135 222.937,123.549 221.407,125.276 219.688 C 127.003 217.968,128.415 216.523,128.415 216.477 C 128.415 216.032,127.462 216.763,125.583 218.648 M115.764 233.168 C 115.652 233.452,115.625 233.749,115.704 233.828 C 115.953 234.077,116.172 233.669,116.068 233.150 C 115.972 232.674,115.958 232.675,115.764 233.168 M194.550 242.468 C 192.172 245.550,187.299 249.680,183.237 252.056 C 182.224 252.649,181.549 253.185,181.736 253.247 C 181.923 253.310,182.124 253.219,182.181 253.046 C 182.239 252.874,182.522 252.732,182.810 252.732 C 183.098 252.732,183.333 252.609,183.333 252.459 C 183.333 252.309,183.495 252.186,183.692 252.186 C 183.889 252.186,184.288 251.971,184.580 251.708 C 184.871 251.445,185.447 251.055,185.861 250.842 C 186.274 250.629,186.612 250.352,186.612 250.227 C 186.612 250.102,186.766 249.999,186.954 249.999 C 187.141 249.998,187.688 249.629,188.168 249.179 C 188.648 248.729,189.143 248.361,189.266 248.361 C 189.628 248.361,194.809 243.057,194.809 242.686 C 194.809 242.501,194.902 242.350,195.016 242.350 C 195.276 242.350,195.981 241.245,195.823 241.087 C 195.758 241.022,195.186 241.644,194.550 242.468 M127.596 248.008 C 127.596 248.464,128.758 250.546,129.012 250.546 C 129.135 250.546,129.235 250.705,129.235 250.898 C 129.235 251.342,131.735 253.825,132.182 253.825 C 132.364 253.825,132.514 253.927,132.514 254.052 C 132.514 254.177,132.852 254.454,133.265 254.667 C 133.678 254.880,134.255 255.270,134.546 255.533 C 134.837 255.796,135.237 256.011,135.434 256.011 C 135.631 256.011,135.792 256.134,135.792 256.284 C 135.792 256.434,136.038 256.557,136.339 256.557 C 136.639 256.557,136.885 256.680,136.885 256.831 C 136.885 256.981,137.223 257.100,137.637 257.096 C 138.233 257.090,137.925 256.845,136.148 255.911 C 132.688 254.094,130.277 251.948,128.450 249.059 C 127.980 248.315,127.596 247.843,127.596 248.008 M180.055 253.838 C 179.351 254.214,179.243 254.349,179.645 254.351 C 180.199 254.354,181.342 253.654,181.128 253.443 C 181.063 253.380,180.581 253.558,180.055 253.838 M176.503 255.464 C 175.420 255.919,175.363 255.982,176.025 255.996 C 176.438 256.004,176.776 255.888,176.776 255.738 C 176.776 255.587,177.022 255.464,177.322 255.464 C 177.623 255.464,177.869 255.342,177.869 255.191 C 177.869 255.041,177.838 254.925,177.801 254.933 C 177.763 254.942,177.179 255.181,176.503 255.464 M172.814 256.831 C 171.033 257.464,170.793 257.611,171.516 257.629 C 172.005 257.641,172.404 257.527,172.404 257.377 C 172.404 257.227,172.773 257.104,173.224 257.104 C 173.675 257.104,174.044 256.981,174.044 256.831 C 174.044 256.680,174.290 256.557,174.590 256.557 C 174.891 256.557,175.137 256.434,175.137 256.284 C 175.137 256.134,175.106 256.021,175.068 256.032 C 175.031 256.044,174.016 256.403,172.814 256.831 M138.525 257.402 C 138.525 257.539,138.760 257.650,139.048 257.650 C 139.336 257.650,139.617 257.784,139.671 257.947 C 139.725 258.111,140.134 258.203,140.579 258.152 C 141.312 258.069,141.253 258.018,139.956 257.607 C 139.169 257.358,138.525 257.266,138.525 257.402 M169.399 257.923 L 168.716 258.142 169.467 258.169 C 169.880 258.184,170.219 258.074,170.219 257.923 C 170.219 257.773,170.188 257.663,170.150 257.678 C 170.113 257.692,169.775 257.803,169.399 257.923 M141.803 258.508 C 141.803 258.637,142.111 258.743,142.486 258.743 C 142.862 258.743,143.169 258.696,143.169 258.638 C 143.169 258.581,142.862 258.475,142.486 258.403 C 142.111 258.331,141.803 258.378,141.803 258.508 M167.213 258.470 C 166.604 258.665,166.640 258.692,167.555 258.716 C 168.118 258.731,168.579 258.620,168.579 258.470 C 168.579 258.157,168.190 258.157,167.213 258.470 M164.617 259.016 C 163.802 259.224,163.803 259.225,164.822 259.257 C 165.386 259.275,165.847 259.167,165.847 259.016 C 165.847 258.715,165.801 258.715,164.617 259.016 M144.331 259.205 C 144.594 259.273,145.024 259.273,145.287 259.205 C 145.550 259.136,145.335 259.080,144.809 259.080 C 144.283 259.080,144.068 259.136,144.331 259.205 M146.825 259.616 C 146.750 259.737,147.342 259.826,148.140 259.814 C 149.711 259.791,149.656 259.663,148.003 259.499 C 147.430 259.442,146.900 259.495,146.825 259.616 M160.929 259.563 L 159.699 259.754 161.134 259.795 C 161.935 259.818,162.568 259.716,162.568 259.563 C 162.568 259.413,162.476 259.308,162.363 259.331 C 162.251 259.353,161.605 259.458,160.929 259.563 " stroke="none" fill="#353535" fill-rule="evenodd"></path><path id="path4" d="M256.694 0.566 C 184.791 5.947,119.101 46.378,97.281 98.681 C 95.967 101.830,101.430 100.818,57.726 106.008 C 27.580 109.589,20.865 110.460,19.995 110.903 C 14.339 113.789,16.260 122.882,22.541 122.954 C 23.292 122.962,39.119 121.158,57.711 118.945 C 76.303 116.732,91.578 114.984,91.655 115.061 C 91.732 115.139,91.502 116.669,91.142 118.462 C 90.783 120.254,90.404 122.367,90.301 123.156 C 90.197 123.945,90.026 124.590,89.919 124.590 C 87.695 124.590,40.497 130.148,39.820 130.490 C 33.751 133.552,35.680 142.595,42.409 142.631 C 43.203 142.635,54.030 141.511,66.469 140.133 C 78.908 138.755,89.134 137.677,89.193 137.736 C 89.316 137.859,89.926 145.140,89.822 145.239 C 89.785 145.274,76.616 147.032,60.559 149.145 C 28.142 153.411,29.792 153.091,28.301 155.411 C 25.381 159.958,28.223 165.574,33.444 165.574 C 34.295 165.574,88.925 158.493,91.447 158.056 L 92.320 157.904 93.147 160.578 C 93.601 162.048,94.267 164.000,94.626 164.914 L 95.280 166.577 92.107 167.044 C 82.336 168.482,68.479 170.669,63.115 171.620 C 48.703 174.175,5.948 182.332,4.461 182.810 C -1.506 184.728,-1.064 193.737,5.065 195.108 C 6.434 195.415,7.284 195.282,21.765 192.498 C 59.692 185.208,69.806 183.412,89.481 180.473 C 95.041 179.643,99.963 178.901,100.419 178.825 C 101.214 178.692,101.324 178.804,103.151 181.621 C 108.711 190.194,119.950 201.745,127.943 207.104 C 128.515 207.487,128.903 207.943,128.828 208.143 C 128.755 208.338,128.811 208.427,128.953 208.339 C 129.095 208.251,131.030 209.246,133.253 210.549 C 154.146 222.799,173.072 229.069,198.770 232.257 C 207.317 233.317,227.150 233.233,238.934 232.088 C 248.962 231.113,268.740 227.580,271.721 226.230 C 272.022 226.094,273.774 225.541,275.615 225.001 C 300.022 217.844,325.729 206.144,338.624 196.322 C 340.408 194.964,342.231 193.634,342.677 193.367 C 347.060 190.743,358.812 180.621,365.197 173.971 C 425.260 111.407,404.772 32.149,322.131 7.375 C 311.777 4.271,301.034 2.193,288.798 0.929 C 283.831 0.416,262.000 0.169,256.694 0.566 M278.962 13.240 C 293.154 13.643,308.573 16.405,322.404 21.022 C 383.556 41.435,404.526 95.232,371.127 146.013 C 330.539 207.724,230.205 237.814,159.426 209.502 C 154.150 207.392,146.712 203.767,145.533 202.732 C 145.028 202.288,143.785 201.553,142.771 201.098 C 136.041 198.079,122.807 186.620,116.888 178.689 C 73.179 120.120,132.572 36.802,232.269 16.824 C 244.764 14.321,262.390 12.640,272.131 13.024 C 273.258 13.068,276.332 13.165,278.962 13.240 M222.268 57.153 C 210.020 58.231,200.947 72.295,205.334 83.402 C 205.512 83.851,204.997 83.880,196.794 83.880 L 188.065 83.880 186.386 84.719 C 184.048 85.887,183.510 86.662,180.319 93.462 C 178.772 96.758,177.446 99.395,177.372 99.321 C 177.299 99.248,176.041 96.573,174.577 93.378 C 171.664 87.019,170.745 85.678,168.484 84.485 L 167.077 83.743 154.235 83.743 L 141.393 83.743 140.133 84.484 C 137.252 86.178,135.963 88.556,136.110 91.903 L 136.208 94.126 150.276 121.399 C 165.068 150.076,165.219 150.337,167.698 151.554 L 169.262 152.322 177.322 152.322 L 185.383 152.322 186.797 151.577 C 189.005 150.412,189.439 149.714,198.133 133.333 C 202.639 124.843,206.500 117.589,206.714 117.213 C 207.052 116.618,207.093 118.461,207.034 131.557 L 206.967 146.585 207.730 148.137 C 209.736 152.224,210.857 152.575,222.208 152.683 L 231.439 152.771 231.407 162.826 C 231.371 174.461,231.402 174.633,233.925 176.901 C 236.137 178.890,236.359 178.921,248.907 179.009 L 259.973 179.087 261.327 178.421 C 265.615 176.313,265.948 175.261,266.064 163.456 C 266.119 157.761,266.262 153.825,266.412 153.825 C 266.552 153.825,267.804 154.024,269.194 154.266 C 277.625 155.739,288.350 153.213,294.634 148.276 C 295.533 147.569,295.767 147.496,296.219 147.779 C 310.574 156.743,331.040 157.317,343.169 149.095 C 355.872 140.484,358.413 122.052,348.337 111.612 L 346.227 109.426 349.102 104.098 C 354.857 93.435,354.427 89.567,347.148 86.521 C 330.936 79.736,310.675 82.756,302.292 93.207 C 300.719 95.168,301.236 95.296,297.976 92.138 C 288.797 83.246,275.616 80.205,264.143 84.333 C 262.372 84.970,262.247 84.980,260.883 84.574 C 259.747 84.237,257.886 84.153,251.558 84.153 L 243.652 84.153 243.831 83.538 C 248.066 68.982,237.317 55.829,222.268 57.153 M227.728 65.626 C 233.639 67.125,237.584 73.536,236.305 79.563 C 234.393 88.563,223.254 92.234,216.564 86.068 C 207.322 77.549,215.523 62.532,227.728 65.626 M280.738 91.530 C 299.733 96.469,307.051 120.757,294.469 137.105 C 286.607 147.321,270.278 149.569,260.494 141.783 C 259.563 141.042,258.731 140.252,258.644 140.027 C 258.022 138.405,257.923 140.497,257.923 155.355 L 257.923 171.092 248.702 170.895 C 243.630 170.787,239.473 170.683,239.463 170.663 C 239.453 170.644,239.534 157.534,239.643 141.530 C 239.752 125.526,239.853 107.913,239.866 102.391 L 239.891 92.350 249.044 92.350 L 258.197 92.350 258.197 95.355 C 258.197 97.008,258.254 98.361,258.325 98.361 C 258.395 98.361,259.409 97.401,260.579 96.229 C 265.474 91.319,273.094 89.543,280.738 91.530 M335.285 91.682 C 338.173 92.136,343.510 93.698,344.315 94.325 C 344.715 94.636,344.448 95.260,341.741 100.329 L 338.721 105.986 337.735 105.550 C 329.592 101.950,320.780 103.728,323.063 108.512 C 323.889 110.242,324.636 110.546,332.606 112.397 C 342.189 114.622,346.456 119.678,346.115 128.406 C 345.471 144.898,323.702 152.177,303.962 142.500 C 299.587 140.356,299.785 140.656,301.258 138.388 C 302.926 135.819,304.431 132.614,305.335 129.705 C 306.057 127.380,306.099 127.317,306.661 127.682 C 317.150 134.502,327.862 135.188,327.868 129.040 C 327.870 126.534,326.150 125.543,318.720 123.770 C 307.978 121.206,304.120 116.942,304.729 108.307 C 305.612 95.805,318.149 88.984,335.285 91.682 M171.000 105.396 C 174.394 112.797,177.237 118.852,177.318 118.852 C 177.399 118.852,180.292 112.831,183.747 105.471 L 190.027 92.089 200.369 92.083 L 210.710 92.077 210.189 92.964 C 209.902 93.453,203.666 105.195,196.330 119.057 L 182.993 144.262 177.195 144.262 L 171.397 144.262 158.336 118.921 C 151.153 104.983,145.036 93.178,144.744 92.688 L 144.214 91.797 154.522 91.868 L 164.830 91.940 171.000 105.396 M220.179 94.819 C 223.830 95.947,228.418 95.455,231.899 93.562 L 233.607 92.633 233.607 111.983 C 233.607 122.625,233.525 134.303,233.426 137.934 L 233.246 144.536 224.092 144.536 L 214.938 144.536 215.119 129.986 C 215.219 121.984,215.300 110.251,215.300 103.913 L 215.301 92.390 216.872 93.336 C 217.736 93.856,219.224 94.524,220.179 94.819 M267.213 107.203 C 257.544 109.303,254.294 121.859,261.712 128.458 C 267.008 133.169,275.914 132.198,279.852 126.479 C 286.335 117.066,278.290 104.797,267.213 107.203 M339.867 206.731 C 337.168 208.860,330.979 212.971,327.391 215.019 C 326.001 215.812,324.863 216.482,324.863 216.508 C 324.863 216.533,326.615 216.573,328.757 216.596 C 346.227 216.787,358.008 225.735,355.208 236.684 C 351.048 252.947,325.067 266.001,303.415 262.707 C 283.934 259.743,276.913 245.930,288.511 233.381 C 289.889 231.891,289.337 231.947,283.542 233.885 C 280.497 234.904,276.653 236.134,275.000 236.619 C 270.554 237.923,270.080 238.870,270.084 246.448 C 270.098 279.506,327.645 287.016,356.974 257.787 C 376.149 238.677,370.777 214.399,345.577 206.286 C 343.974 205.770,342.723 205.251,342.796 205.133 C 343.243 204.409,341.842 205.174,339.867 206.731 M125.222 221.150 C 121.232 225.238,118.138 229.695,116.483 233.742 C 115.898 235.172,115.688 235.475,115.618 234.991 C 115.567 234.639,115.690 234.236,115.891 234.095 C 116.188 233.887,116.183 233.858,115.864 233.944 C 115.321 234.091,114.862 235.521,115.276 235.777 C 115.496 235.913,115.511 236.172,115.326 236.633 L 115.062 237.295 115.020 236.612 C 114.983 236.013,114.945 236.043,114.711 236.858 C 114.557 237.393,114.547 237.856,114.686 237.951 C 114.820 238.041,114.840 238.422,114.732 238.798 C 114.564 239.381,114.526 239.401,114.472 238.934 C 114.295 237.419,114.034 241.627,114.082 245.219 C 114.519 277.973,169.769 285.972,200.063 257.667 C 205.145 252.919,211.560 243.443,209.692 243.443 C 209.319 243.443,209.319 243.359,209.692 242.637 C 210.176 241.702,210.222 241.257,209.836 241.257 C 209.686 241.257,209.563 241.503,209.563 241.803 C 209.563 242.104,209.440 242.350,209.290 242.350 C 209.139 242.350,209.016 242.615,209.016 242.940 L 209.016 243.529 203.484 243.345 C 200.441 243.244,197.459 243.101,196.858 243.028 C 195.774 242.897,195.752 242.912,194.150 244.974 C 181.591 261.132,149.824 267.368,133.998 256.783 C 130.749 254.610,127.230 250.255,127.710 249.002 C 127.794 248.784,127.754 248.673,127.622 248.754 C 127.489 248.836,127.299 248.578,127.199 248.180 C 127.098 247.777,127.141 247.380,127.296 247.284 C 127.450 247.189,127.498 246.815,127.403 246.453 C 127.242 245.838,127.216 245.830,127.010 246.326 C 126.394 247.810,127.158 242.244,127.844 240.248 C 129.628 235.055,137.974 225.304,140.148 225.873 C 141.506 226.228,140.480 225.419,137.653 223.905 C 135.971 223.005,133.204 221.438,131.503 220.423 C 127.687 218.148,128.212 218.087,125.222 221.150 " stroke="none" fill="#ffffff" fill-rule="evenodd"></path></g></svg>