<svg xmlns="http://www.w3.org/2000/svg" viewBox="0 0 1500 1500"><defs><style>.cls-1{fill:#404040;}</style></defs><title>Iconos finales</title><g id="wow"><path class="cls-1" d="M826.63,589.61a58.85,58.85,0,1,0,70.8,43.81A59.14,59.14,0,0,0,826.63,589.61Z"/><path class="cls-1" d="M1195.05,519.61q-4.15-2.28-8.61-4.24l15.76-60.9a38.14,38.14,0,0,0-29.56-47c-31.19-6.14-65.29-4.95-101.36,3.54-36.31,8.55-68.1,26.46-89.5,50.43a122.44,122.44,0,0,0-23.49,38.46q-3.78-2.93-7.71-5.64c-38.21-26.36-84.33-35-129.86-24.26a142.22,142.22,0,0,0-55.48,26.26,38,38,0,0,0-18.3-.22l-71.28,16.78a97,97,0,1,0-177.11,41.7L424.79,571.9a38.27,38.27,0,0,0-28.62,29.44l-12.46,60.44-38.36-48.57a38.28,38.28,0,0,0-38.68-13.5l-98.44,23.18A38.15,38.15,0,0,0,188.14,685l188,216.89a38.06,38.06,0,0,0,37.57,12.15l56-13.18a38.07,38.07,0,0,0,28.22-27.69l43.69-171,31.79,135a38.2,38.2,0,0,0,45.88,28.39l78.43-18.47L718,933.5a38.2,38.2,0,0,0,45.88,28.4l87.85-20.69a38.19,38.19,0,0,0,28.39-45.87l-19.59-83.21a159.53,159.53,0,0,0,40.73-4.25c37.41-8.81,69.47-29.44,92-58.85,41.58,14.2,87.51,16.58,129.58,6.67,38.24-9,71.66-27.37,94.11-51.72,14.49-15.71,24.36-33.5,29.34-52.87s5-39.8,0-60.87C1238.72,557.88,1221.47,534.11,1195.05,519.61ZM460.93,863.73l-56,13.18L217,660l98.44-23.17,89.14,112.88,29-140.69,98.4-23.17Zm237.32-55.89-87.73,20.65L552.27,581.08A71.49,71.49,0,0,0,640,560.43ZM592.86,558.22a58.86,58.86,0,1,1,43.78-70.77A59.11,59.11,0,0,1,592.86,558.22ZM892.54,770.74c-28.54,6.72-60.33,3.5-84.17-13.75L843,904.08l-87.84,20.68L667.84,553.87l87.84-20.68,6.59,28,1-.22c10.12-28.36,37.25-47,66.24-53.78,73.77-17.37,139.41,32.36,156.1,103.22C1002.37,681.79,965.88,753.47,892.54,770.74Zm221.6-52.17c-34.56,8.13-73.79,6.58-110.15-6.21a165.82,165.82,0,0,0,14.15-70.31c20.9,8.52,57.47,17.31,82.28,11.55,11.07-2.6,26.24-11.8,23.07-25.27-4.55-19.32-32.27-13.83-61.49-14.54s-59.85-7.79-70.3-52.19C977.39,500.85,1026,460.88,1080,448.16c27.92-6.57,56.93-8.82,85.24-3.24L1149,507.79c-15.2-4.07-35.18-4.47-50-1-10.18,2.39-26.5,10.82-23.54,23.38,4,16.88,32.06,12.81,44.66,12.37,42.92-1.43,78.33,10.56,89.13,56.41C1224.53,664.08,1171.54,705.05,1114.14,718.57Z"/><path class="cls-1" d="M313.15,1312.66a94.2,94.2,0,0,1-91.43-72.58l-163.16-693a94.22,94.22,0,0,1,70.05-113.18l1036.49-244a94.11,94.11,0,0,1,113.18,70l163.16,693a94.22,94.22,0,0,1-70,113.18l-5.27-22.38,5.27,22.38-1036.49,244A94.85,94.85,0,0,1,313.15,1312.66Zm873.61-1079.3a48.45,48.45,0,0,0-11.12,1.3l-1036.49,244a48.17,48.17,0,0,0-35.81,57.87l163.15,693a48.13,48.13,0,0,0,57.87,35.8l1036.49-244a48.17,48.17,0,0,0,35.81-57.87l-163.15-693a48.18,48.18,0,0,0-46.75-37.1Z"/><path class="cls-1" d="M222.3,1165.26a23,23,0,0,1-5.25-45.39L1392,843.25A23,23,0,1,1,1402.53,888L227.59,1164.64A22.93,22.93,0,0,1,222.3,1165.26Z"/></g></svg>