<svg xmlns="http://www.w3.org/2000/svg" viewBox="0 0 1500 1500"><defs><style>.cls-1{fill:#404040;}</style></defs><title>Iconos finales</title><g id="papalote"><path class="cls-1" d="M420,1384.11a385,385,0,1,1,150.28-30.35A383.84,383.84,0,0,1,420,1384.11ZM420,658A340,340,0,1,0,708.28,817.5a341.33,341.33,0,0,0-135-123.12h0A336.46,336.46,0,0,0,420,658Z"/><path class="cls-1" d="M783.11,1010.26a23,23,0,0,1-20.91-13.4c-17.18-37.37-64.86-70.23-137.88-95a675.32,675.32,0,0,0-88.23-23.06l.09,1.07a23.26,23.26,0,0,1,.09,2.89l-.83,26.1a23,23,0,0,1-26,22.06c-91.4-12.18-151.75-53.75-186.27-86.48a305.64,305.64,0,0,1-24.26-25.81c-10.64,33.15-24.61,62.47-41.74,87.56-20.77,30.42-46.16,54.7-75.47,72.15C131,1008.46,85.92,1007.68,84,1007.64l1.16-46H85c.4,0,35.74.15,75.26-24.17,23.1-14.21,43.25-34,59.9-58.79,21.31-31.75,37-71.92,46.59-119.4A23,23,0,0,1,310.11,754c.1.2,13.91,28.32,46.15,58.42,36.94,34.48,81.88,57.46,133.84,68.5-1.91-23.16.29-35.07,7.82-43.34a25.64,25.64,0,0,1,18.89-8.41,22.62,22.62,0,0,1,3.07.21,702.25,702.25,0,0,1,119.24,28.89c86.5,29.38,142,69.55,164.87,119.38a23,23,0,0,1-20.88,32.61Z"/><path class="cls-1" d="M363.37,1107.38a23,23,0,0,1-23-23,19.16,19.16,0,0,0-38.32,0,23,23,0,0,1-46,0,65.16,65.16,0,0,1,130.32,0A23,23,0,0,1,363.37,1107.38Z"/><path class="cls-1" d="M583.71,1107.38a23,23,0,0,1-23-23,19.16,19.16,0,0,0-38.32,0,23,23,0,0,1-46,0,65.16,65.16,0,0,1,130.32,0A23,23,0,0,1,583.71,1107.38Z"/><path class="cls-1" d="M429.89,1246.67a159.67,159.67,0,0,1-113.66-47,23,23,0,0,1,32.52-32.52,114.9,114.9,0,0,0,162.27,0,23,23,0,0,1,32.53,32.52A159.67,159.67,0,0,1,429.89,1246.67Z"/><path class="cls-1" d="M913.74,893.06a382,382,0,0,1-174.13-41.41,23,23,0,0,1,20.77-41,340.12,340.12,0,0,0,393.83-544.1A340.13,340.13,0,0,0,614.33,668.4a23,23,0,0,1-40.47,21.87A386.48,386.48,0,1,1,913.74,893.06Z"/><path class="cls-1" d="M1276.83,519.22a23,23,0,0,1-20.91-13.4c-17.18-37.37-64.86-70.23-137.88-95a673.4,673.4,0,0,0-88.23-23l.09,1.06a23.42,23.42,0,0,1,.09,2.9l-.83,26.09a23,23,0,0,1-26,22.06c-91.4-12.18-151.75-53.74-186.27-86.47a305.64,305.64,0,0,1-24.26-25.81C782,360.71,768,390,750.86,415.12c-20.77,30.42-46.16,54.69-75.47,72.15-50.63,30.15-95.76,29.37-97.66,29.32l1.16-46h-.14c.37,0,35.74.15,75.26-24.17,23.1-14.21,43.25-34,59.9-58.8,21.31-31.74,37-71.92,46.59-119.39a23,23,0,0,1,43.33-5.3c.09.2,13.91,28.33,46.15,58.42,36.94,34.49,81.88,57.47,133.84,68.51-1.91-23.16.29-35.07,7.82-43.35a25.63,25.63,0,0,1,18.89-8.4,24.34,24.34,0,0,1,3.07.2,702.85,702.85,0,0,1,119.24,28.9c86.5,29.38,142,69.54,164.87,119.38a23,23,0,0,1-20.88,32.61Z"/><path class="cls-1" d="M857.09,616.34a23,23,0,0,1-23-23,19.16,19.16,0,0,0-38.32,0,23,23,0,1,1-46,0,65.16,65.16,0,0,1,130.32,0A23,23,0,0,1,857.09,616.34Z"/><path class="cls-1" d="M1077.42,616.34a23,23,0,0,1-23-23,19.16,19.16,0,1,0-38.31,0,23,23,0,0,1-46,0,65.16,65.16,0,1,1,130.31,0A23,23,0,0,1,1077.42,616.34Z"/><path class="cls-1" d="M923.61,755.63a159.67,159.67,0,0,1-113.66-47,23,23,0,0,1,32.52-32.53,114.88,114.88,0,0,0,162.27,0,23,23,0,0,1,32.53,32.53A159.67,159.67,0,0,1,923.61,755.63Z"/><path class="cls-1" d="M490.45,439.37a232.28,232.28,0,0,1-41.25-3.92c-46.08-8.35-90.86-29.07-113-44.78A23,23,0,0,1,351.51,349c4.79.4,18.37-2.72,39-17,18.21-12.64,31.4-27,35.95-34.91,10.1-17.69,7-38.2,3.35-61.94-2.93-19.18-5.95-39-1.87-59.22,5-24.6,19.27-44,43.73-59.45,49.78-31.32,108.69-27,153.75,11.15,20.33,17.23,35.83,40.23,43.65,64.75,8.65,27.13,7.77,54.47-2.55,79.06a23,23,0,1,1-42.41-17.8c12.17-29,.48-66.41-28.43-90.92-13.71-11.62-29.62-18.75-46-20.61-18.21-2.06-36.21,2.41-53.51,13.3-28,17.6-26.5,36-20.9,72.8,4.3,28.17,9.17,60.1-8.88,91.7-9.15,16-27.71,34.64-49.66,49.88-2.88,2-6,4-9.23,6.06a272.87,272.87,0,0,0,49.92,14.34c56,10.14,83.77-5.8,97.26-21A23,23,0,1,1,589,399.8C565.73,426,532.09,439.37,490.45,439.37Z"/><path class="cls-1" d="M1339.33,439.37c-41.64,0-75.27-13.38-98.57-39.57a23,23,0,0,1,34.37-30.58c13.48,15.16,41.3,31.1,97.25,21a273,273,0,0,0,49.93-14.34c-3.27-2-6.36-4.06-9.23-6.06-21.95-15.23-40.52-33.88-49.66-49.88-18.06-31.6-13.19-63.53-8.89-91.7,5.61-36.75,7.06-55.2-20.89-72.8-17.31-10.89-35.31-15.36-53.52-13.3-16.37,1.86-32.27,9-46,20.61-28.91,24.51-40.6,61.9-28.42,90.92a23,23,0,0,1-42.42,17.8c-10.31-24.59-11.19-51.93-2.54-79.06,7.82-24.52,23.31-47.52,43.64-64.75,45.07-38.2,104-42.47,153.75-11.15,24.46,15.4,38.77,34.85,43.74,59.45,4.08,20.21,1,40-1.88,59.22-3.62,23.75-6.75,44.25,3.36,61.94,4.54,7.95,17.73,22.27,36,34.91,20.59,14.3,34.16,17.42,39,17a23,23,0,0,1,15.27,41.66c-22.1,15.71-66.87,36.43-113,44.78A232.11,232.11,0,0,1,1339.33,439.37Z"/></g></svg>