<svg xmlns="http://www.w3.org/2000/svg" viewBox="0 0 1500 1500"><defs><style>.cls-1{fill:#404040;}</style></defs><title>Iconos finales</title><g id="wow"><path class="cls-1" d="M587.43,1232.87c-34.55,0-66.29-7.47-91.78-21.6-27.7-15.34-46-37.26-52.94-63.37-8.69-32.67,1.33-68.31,28.23-100.37,13.69-16.33,30.81-30.72,50.87-42.76a23,23,0,0,1,23.66,39.45c-15.66,9.4-28.88,20.45-39.28,32.87-17,20.26-23.76,41.21-19,59,7.95,29.91,49.18,50.79,100.27,50.79a207.48,207.48,0,0,0,53.23-7.14c27.3-7.26,52.41-19.72,72.61-36,18.43-14.88,31.68-32.31,37.32-49.09a23,23,0,1,1,43.6,14.64c-17.29,51.51-72.91,96.63-141.71,114.94A253.77,253.77,0,0,1,587.43,1232.87Z"/><path class="cls-1" d="M1154.21,1232.87c-34.55,0-66.29-7.47-91.78-21.6-27.7-15.34-46-37.26-52.94-63.37-8.69-32.67,1.33-68.31,28.23-100.37A23,23,0,0,1,1073,1077.1c-17,20.25-23.75,41.2-19,59,8,29.91,49.18,50.79,100.27,50.79a207.48,207.48,0,0,0,53.23-7.14c35.76-9.52,68.44-28.5,89.65-52.09,18.82-20.93,26.8-43.53,21.89-62-8-29.89-49.18-50.78-100.25-50.78-5,0-10.15.21-15.23.6a23,23,0,1,1-3.58-45.86c6.26-.49,12.59-.74,18.81-.74,34.53,0,66.26,7.47,91.76,21.6,27.69,15.35,46,37.26,53,63.36,9,33.76-2.74,71.88-32.15,104.58-27.41,30.49-67.2,53.86-112,65.79A253.83,253.83,0,0,1,1154.21,1232.87Z"/><path class="cls-1" d="M818.26,1118.55q-10.85,0-21.65-.32c-71.27-2.11-138.19-14.53-198.88-36.91C536.35,1058.68,484.33,1027,443.14,987c-43.3-42-72.65-91.08-87.25-146S342.36,728.88,359.1,671c15.93-55.11,45.32-108.47,87.36-158.6,41.56-49.57,93.47-93.57,154.29-130.79C663.41,343.23,732.9,313.76,807.29,294s149.38-28.7,222.81-26.53c71.28,2.1,138.19,14.52,198.89,36.91,61.38,22.64,113.39,54.36,154.59,94.29,43.31,42,72.67,91.1,87.28,146h0c14.59,54.92,13.5,112.14-3.25,170-15.93,55.11-45.32,108.47-87.36,158.59-41.56,49.57-93.47,93.57-154.29,130.78-62.66,38.34-132.15,67.82-206.55,87.6C952.31,1109.55,884.74,1118.55,818.26,1118.55Zm190.25-805.42c-62.52,0-126.12,8.49-189.4,25.3C749,357.07,683.63,384.79,624.76,420.81c-56.57,34.61-104.7,75.36-143.06,121.1-37.89,45.19-64.27,92.91-78.41,141.82-14.39,49.79-15.38,98.74-3,145.49S437.93,917.94,475.15,954c36.56,35.44,83.16,63.75,138.5,84.16,56,20.66,118,32.13,184.32,34.09,69,2,139.52-6.36,209.63-25s135.5-46.36,194.36-82.39c56.57-34.61,104.7-75.35,143.06-121.1,37.89-45.18,64.27-92.89,78.41-141.8,14.4-49.78,15.4-98.73,3-145.47s-37.62-88.76-74.84-124.82c-36.57-35.45-83.17-63.77-138.5-84.17-56-20.67-118-32.14-184.32-34.09C1022,313.23,1015.26,313.13,1008.51,313.13Z"/><path class="cls-1" d="M102.07,715.84A23,23,0,0,1,99.37,670l285-34a23,23,0,0,1,5.45,45.68l-285,34A23.47,23.47,0,0,1,102.07,715.84Z"/><path class="cls-1" d="M173.76,787.94a23,23,0,0,1-2.51-45.86l194.94-21.66a23,23,0,0,1,5.08,45.72L176.32,787.8A24.7,24.7,0,0,1,173.76,787.94Z"/><path class="cls-1" d="M140.68,871.64a23,23,0,0,1-3-45.8l228-30a23,23,0,0,1,6,45.61l-228,30A22,22,0,0,1,140.68,871.64Z"/><path class="cls-1" d="M42,980.24a23,23,0,0,1-4.37-45.58c6.91-1.34,169.91-33.06,226.12-42.58,28.6-4.83,88.8-13.83,134.28-20.52a23,23,0,0,1,6.7,45.51c-45.25,6.66-105.11,15.6-133.3,20.37-55.65,9.42-223.33,42-225,42.37A23.14,23.14,0,0,1,42,980.24Z"/><path class="cls-1" d="M1006.15,657.82a44.56,44.56,0,1,0,44.3,44.84A44.78,44.78,0,0,0,1006.15,657.82Z"/><path class="cls-1" d="M1289.74,671.86c-1.77-1.62-3.64-3.17-5.59-4.65l22.43-42a28.89,28.89,0,0,0-13.39-39.84c-21.86-10.07-47.16-15.26-75.22-15.43-28.25-.17-54.83,7.36-74.84,21.19A92.54,92.54,0,0,0,1119,615.24c-1.51-1.88-3.06-3.73-4.67-5.52a121.9,121.9,0,0,0-91.25-41,107.62,107.62,0,0,0-45.5,9.45,29,29,0,0,0-13.43-3.42l-55.45-.33A73.42,73.42,0,1,0,771,573.63l-57.38-.35a29,29,0,0,0-26.3,16.57l-19.92,42.27-19.58-42.57a29,29,0,0,0-26.07-16.82l-76.57-.46a28.89,28.89,0,0,0-25.84,42.14L619,807.48a28.81,28.81,0,0,0,25.49,15.62l43.54.26A28.78,28.78,0,0,0,713.77,808L776.35,690l-.64,105a28.93,28.93,0,0,0,28.71,29.06l61,.36-.4,67.16a28.91,28.91,0,0,0,28.71,29.06l68.33.41a28.92,28.92,0,0,0,29.06-28.71l.38-64.72a120.91,120.91,0,0,0,30.74,4.12c29.09.17,56.36-9.3,78.19-26.93a179.64,179.64,0,0,0,94.17,28c29.74.18,57.61-7.39,78.46-21.31a92.87,92.87,0,0,0,31-33.69c7.1-13.33,10.74-28.4,10.84-44.8C1315.06,707.79,1306.59,687.23,1289.74,671.86ZM688.25,794.48l-43.54-.26L545,601.16l76.58.46L667,700.55l46.36-98.38,76.54.46Zm184.59,1.09-68.24-.41,1.15-192.44a54.11,54.11,0,0,0,68.24.41ZM839.7,593.12a44.56,44.56,0,1,1,44.81-44.29A44.75,44.75,0,0,1,839.7,593.12Zm182.72,209.72c-22.19-.13-45-8.15-59.49-25.09l-.69,114.41-68.33-.41,1.74-288.49,68.33.41-.13,21.76h.73c12.5-19.07,35.78-27.92,58.32-27.79,57.38.35,96.84,48.62,96.51,103.74C1119.07,756.92,1079.47,803.19,1022.42,802.84Zm172.37,1a150.65,150.65,0,0,1-80-24.17,125.58,125.58,0,0,0,22.92-49.22c13.87,10,39.21,23,58.5,23.14,8.61,0,21.41-4,21.47-14.5.09-15-21.29-15.91-42.66-21.63s-42.66-16.39-42.45-50.92c.28-47.26,43.16-68,85.19-67.77,21.71.13,43.47,3.64,63.3,12.78L1257.94,655c-10.46-5.71-25.1-9.55-36.65-9.62-7.91-.05-21.42,3.25-21.48,13-.08,13.14,21.31,15.14,30.66,17,31.84,6.59,55.77,21.72,55.56,57.38C1285.72,783.42,1239.44,804.15,1194.79,803.88Z"/></g></svg>