<svg id="svg" version="1.1" width="400" height="400" viewBox="0 0 400 400" xmlns="http://www.w3.org/2000/svg" xmlns:xlink="http://www.w3.org/1999/xlink" ><g id="svgg"><path id="path0" d="M399.866 200.000 C 399.866 310.073,399.896 355.103,399.933 300.067 C 399.970 245.030,399.970 154.970,399.933 99.933 C 399.896 44.897,399.866 89.927,399.866 200.000 " stroke="none" fill="#000000" fill-rule="evenodd"></path><path id="path1" d="" stroke="none" fill="#313131" fill-rule="evenodd"></path><path id="path2" d="" stroke="none" fill="#373737" fill-rule="evenodd"></path><path id="path3" d="M332.333 256.866 L 332.267 346.399 285.000 346.467 L 237.733 346.535 285.008 346.601 C 322.632 346.653,332.309 346.599,332.410 346.333 C 332.480 346.150,332.506 305.800,332.468 256.667 L 332.399 167.333 332.333 256.866 M347.332 266.667 C 347.332 315.287,347.362 335.177,347.400 310.867 C 347.438 286.557,347.438 246.777,347.400 222.467 C 347.362 198.157,347.332 218.047,347.332 266.667 M395.850 209.667 L 395.067 210.533 395.933 209.750 C 396.741 209.020,396.923 208.800,396.717 208.800 C 396.671 208.800,396.281 209.190,395.850 209.667 M179.021 253.533 C 188.675 253.572,204.395 253.572,213.954 253.533 C 223.513 253.494,215.613 253.463,196.400 253.463 C 177.187 253.463,169.366 253.495,179.021 253.533 M169.990 268.599 C 169.920 268.783,169.894 288.313,169.932 312.000 L 170.002 355.067 170.067 311.800 L 170.133 268.533 196.399 268.533 L 222.665 268.533 222.734 311.733 L 222.802 354.933 222.801 311.667 L 222.800 268.400 196.459 268.332 C 175.527 268.278,170.091 268.333,169.990 268.599 M83.267 346.600 C 96.430 346.638,117.970 346.638,131.133 346.600 C 144.297 346.562,133.527 346.530,107.200 346.530 C 80.873 346.530,70.103 346.562,83.267 346.600 M79.133 361.533 C 94.570 361.571,119.830 361.571,135.267 361.533 C 150.703 361.495,138.073 361.464,107.200 361.464 C 76.327 361.464,63.697 361.495,79.133 361.533 M257.267 361.533 C 272.557 361.571,297.577 361.571,312.867 361.533 C 328.157 361.495,315.647 361.464,285.067 361.464 C 254.487 361.464,241.977 361.495,257.267 361.533 " stroke="none" fill="#3a3a3a" fill-rule="evenodd"></path><path id="path4" d="M196.224 39.303 C 195.158 39.817,192.249 41.953,190.800 43.287 C 190.507 43.557,189.127 44.698,187.734 45.822 C 186.341 46.947,185.033 48.026,184.828 48.220 C 184.623 48.415,183.603 49.255,182.562 50.087 C 181.521 50.919,180.428 51.820,180.134 52.089 C 179.841 52.358,178.460 53.498,177.067 54.622 C 175.674 55.747,174.366 56.826,174.161 57.020 C 173.956 57.215,172.936 58.055,171.895 58.887 C 170.854 59.719,169.762 60.620,169.468 60.889 C 169.174 61.158,167.794 62.298,166.400 63.422 C 165.007 64.547,163.700 65.626,163.494 65.820 C 163.289 66.015,162.270 66.855,161.228 67.687 C 160.187 68.519,159.095 69.420,158.801 69.689 C 158.507 69.958,157.127 71.098,155.734 72.222 C 154.341 73.347,153.033 74.426,152.828 74.620 C 152.623 74.815,151.603 75.655,150.562 76.487 C 149.521 77.319,148.428 78.220,148.134 78.489 C 147.841 78.758,146.460 79.898,145.067 81.022 C 143.674 82.147,142.366 83.226,142.161 83.420 C 141.956 83.615,140.936 84.455,139.895 85.287 C 138.854 86.119,137.762 87.020,137.468 87.289 C 137.174 87.558,135.794 88.698,134.400 89.822 C 133.007 90.947,131.700 92.026,131.494 92.220 C 131.289 92.415,130.270 93.255,129.228 94.087 C 128.187 94.919,127.095 95.820,126.801 96.089 C 126.507 96.358,125.127 97.498,123.734 98.622 C 122.341 99.747,121.033 100.826,120.828 101.020 C 120.623 101.215,119.603 102.055,118.562 102.887 C 117.521 103.719,116.428 104.620,116.134 104.889 C 115.841 105.158,114.460 106.298,113.067 107.422 C 111.674 108.547,110.366 109.626,110.161 109.820 C 109.956 110.015,108.936 110.855,107.895 111.687 C 106.854 112.519,105.762 113.420,105.468 113.689 C 105.174 113.958,103.794 115.098,102.400 116.222 C 101.007 117.347,99.700 118.426,99.494 118.620 C 99.289 118.815,98.270 119.655,97.228 120.487 C 96.187 121.319,95.095 122.220,94.801 122.489 C 94.507 122.758,93.127 123.898,91.734 125.022 C 90.341 126.147,89.033 127.226,88.828 127.420 C 88.623 127.615,87.603 128.455,86.562 129.287 C 85.521 130.119,84.428 131.020,84.134 131.289 C 83.841 131.558,82.460 132.698,81.067 133.822 C 79.674 134.947,78.366 136.026,78.161 136.220 C 77.956 136.415,76.936 137.255,75.895 138.087 C 74.854 138.919,73.762 139.820,73.468 140.089 C 73.174 140.358,71.794 141.498,70.400 142.622 C 69.007 143.747,67.700 144.826,67.494 145.020 C 67.289 145.215,66.270 146.055,65.228 146.887 C 64.187 147.719,63.095 148.620,62.801 148.889 C 62.507 149.158,61.127 150.298,59.734 151.422 C 58.341 152.547,57.033 153.626,56.828 153.820 C 56.623 154.015,55.603 154.855,54.562 155.687 C 53.521 156.519,52.428 157.420,52.134 157.689 C 51.841 157.958,50.460 159.098,49.067 160.222 C 47.674 161.347,46.366 162.426,46.161 162.620 C 45.956 162.815,44.936 163.655,43.895 164.487 C 42.854 165.319,41.762 166.220,41.468 166.489 C 41.174 166.758,39.794 167.898,38.400 169.022 C 37.007 170.147,35.700 171.226,35.494 171.420 C 35.289 171.615,34.270 172.455,33.228 173.287 C 32.187 174.119,31.095 175.020,30.801 175.289 C 30.507 175.558,29.127 176.698,27.734 177.822 C 26.341 178.947,25.033 180.026,24.828 180.220 C 24.623 180.415,23.603 181.255,22.562 182.087 C 21.521 182.919,20.428 183.820,20.134 184.089 C 19.841 184.358,18.460 185.498,17.067 186.622 C 15.674 187.747,14.366 188.826,14.161 189.020 C 13.956 189.215,12.936 190.055,11.895 190.887 C 10.854 191.719,9.762 192.620,9.468 192.889 C 9.174 193.158,7.794 194.298,6.401 195.422 C 0.942 199.828,0.168 200.925,0.155 204.267 C 0.139 208.289,2.691 211.171,6.667 211.621 C 9.407 211.931,11.116 211.118,15.366 207.480 C 15.678 207.214,16.875 206.232,18.027 205.298 C 19.179 204.364,20.364 203.380,20.660 203.111 C 20.957 202.842,22.340 201.702,23.733 200.578 C 25.126 199.453,26.434 198.374,26.639 198.180 C 26.844 197.985,27.864 197.145,28.905 196.313 C 29.946 195.481,31.038 194.580,31.332 194.311 C 31.626 194.042,33.006 192.902,34.400 191.778 C 35.793 190.653,37.100 189.574,37.306 189.380 C 37.511 189.185,38.531 188.346,39.573 187.514 C 40.614 186.683,41.527 185.939,41.600 185.862 C 41.673 185.785,42.273 185.267,42.933 184.712 L 44.133 183.701 44.267 269.784 L 44.400 355.867 44.999 357.081 C 45.811 358.730,47.064 359.959,48.696 360.711 L 50.059 361.338 107.025 361.336 C 162.755 361.335,164.020 361.323,165.352 360.817 C 166.966 360.204,168.230 358.981,169.173 357.119 L 169.860 355.764 169.865 312.254 C 169.868 288.323,169.936 268.637,170.017 268.505 C 170.213 268.189,222.587 268.189,222.783 268.505 C 222.864 268.637,222.932 288.323,222.935 312.254 L 222.940 355.764 223.627 357.119 C 224.570 358.981,225.834 360.204,227.448 360.817 C 228.780 361.323,230.039 361.335,285.187 361.336 C 348.691 361.338,342.816 361.540,345.147 359.281 C 347.420 357.078,347.205 366.750,347.201 267.000 C 347.200 218.270,347.289 178.401,347.399 178.403 C 347.610 178.405,348.874 179.379,351.085 181.241 C 351.808 181.850,354.560 184.128,357.200 186.302 C 359.840 188.476,362.240 190.456,362.533 190.701 C 362.827 190.946,365.227 192.926,367.867 195.101 C 370.507 197.276,372.907 199.256,373.200 199.501 C 373.493 199.746,375.893 201.721,378.533 203.890 C 381.173 206.060,383.393 207.906,383.467 207.994 C 383.841 208.443,386.921 210.670,387.732 211.078 C 391.609 213.032,397.250 210.188,398.067 205.869 C 398.751 202.252,397.647 200.237,392.800 196.248 C 390.967 194.739,389.407 193.436,389.333 193.351 C 389.260 193.267,388.348 192.517,387.306 191.686 C 386.264 190.854,385.244 190.015,385.039 189.820 C 384.834 189.626,383.526 188.547,382.133 187.422 C 380.740 186.298,379.359 185.158,379.066 184.889 C 378.772 184.620,377.679 183.719,376.638 182.887 C 375.597 182.055,374.577 181.215,374.372 181.020 C 374.167 180.826,372.859 179.747,371.466 178.622 C 370.073 177.498,368.693 176.358,368.399 176.089 C 368.105 175.820,367.013 174.919,365.972 174.087 C 364.930 173.255,363.911 172.415,363.706 172.220 C 363.500 172.026,362.193 170.947,360.800 169.822 C 359.406 168.698,358.026 167.558,357.732 167.289 C 357.438 167.020,356.346 166.119,355.305 165.287 C 354.264 164.455,353.244 163.615,353.039 163.420 C 352.834 163.226,351.526 162.147,350.133 161.022 C 348.740 159.898,347.359 158.758,347.066 158.489 C 346.772 158.220,345.679 157.319,344.638 156.487 C 343.597 155.655,342.577 154.815,342.372 154.620 C 342.167 154.426,340.859 153.347,339.466 152.222 C 338.073 151.098,336.693 149.958,336.399 149.689 C 336.105 149.420,335.013 148.519,333.972 147.687 C 332.930 146.855,331.911 146.015,331.706 145.820 C 331.500 145.626,330.193 144.547,328.800 143.422 C 327.406 142.298,326.026 141.158,325.732 140.889 C 325.438 140.620,324.346 139.719,323.305 138.887 C 322.264 138.055,321.244 137.215,321.039 137.020 C 320.834 136.826,319.526 135.747,318.133 134.622 C 316.740 133.498,315.359 132.358,315.066 132.089 C 314.772 131.820,313.679 130.919,312.638 130.087 C 311.597 129.255,310.577 128.415,310.372 128.220 C 310.167 128.026,308.859 126.947,307.466 125.822 C 306.073 124.698,304.693 123.558,304.399 123.289 C 304.105 123.020,303.013 122.119,301.972 121.287 C 300.930 120.455,299.911 119.615,299.706 119.420 C 299.500 119.226,298.193 118.147,296.800 117.022 C 295.406 115.898,294.026 114.758,293.732 114.489 C 293.438 114.220,292.346 113.319,291.305 112.487 C 290.264 111.655,289.244 110.815,289.039 110.620 C 288.834 110.426,287.526 109.347,286.133 108.222 C 284.740 107.098,283.359 105.958,283.066 105.689 C 282.772 105.420,281.679 104.519,280.638 103.687 C 279.597 102.855,278.577 102.015,278.372 101.820 C 278.167 101.626,276.859 100.547,275.466 99.422 C 274.073 98.298,272.693 97.158,272.399 96.889 C 272.105 96.620,271.013 95.719,269.972 94.887 C 268.930 94.055,267.911 93.215,267.706 93.020 C 267.500 92.826,266.193 91.747,264.800 90.622 C 263.406 89.498,262.026 88.358,261.732 88.089 C 261.438 87.820,260.346 86.919,259.305 86.087 C 258.264 85.255,257.244 84.415,257.039 84.220 C 256.834 84.026,255.526 82.947,254.133 81.822 C 252.740 80.698,251.359 79.558,251.066 79.289 C 250.772 79.020,249.679 78.119,248.638 77.287 C 247.597 76.455,246.577 75.615,246.372 75.420 C 246.167 75.226,244.859 74.147,243.466 73.022 C 242.073 71.898,240.693 70.758,240.399 70.489 C 240.105 70.220,239.013 69.319,237.972 68.487 C 236.930 67.655,235.911 66.815,235.706 66.620 C 235.500 66.426,234.193 65.347,232.800 64.222 C 231.406 63.098,230.026 61.958,229.732 61.689 C 229.438 61.420,228.346 60.519,227.305 59.687 C 226.264 58.855,225.244 58.015,225.039 57.820 C 224.834 57.626,223.526 56.547,222.133 55.422 C 220.740 54.298,219.357 53.158,219.060 52.889 C 218.764 52.620,217.579 51.636,216.427 50.702 C 215.275 49.768,214.078 48.791,213.766 48.531 C 213.455 48.271,212.060 47.117,210.667 45.968 C 209.273 44.819,207.893 43.677,207.600 43.430 C 201.894 38.624,199.463 37.742,196.224 39.303 M200.650 57.133 C 202.136 58.379,202.010 58.275,205.600 61.221 C 206.993 62.364,208.193 63.368,208.267 63.451 C 208.340 63.534,209.252 64.283,210.294 65.114 C 211.336 65.946,212.356 66.785,212.561 66.980 C 212.766 67.174,214.074 68.253,215.467 69.378 C 216.860 70.502,218.241 71.642,218.534 71.911 C 218.828 72.180,219.921 73.081,220.962 73.913 C 222.003 74.745,223.023 75.585,223.228 75.780 C 223.433 75.974,224.741 77.053,226.134 78.178 C 227.527 79.302,228.907 80.442,229.201 80.711 C 229.495 80.980,230.587 81.881,231.628 82.713 C 232.670 83.545,233.689 84.385,233.894 84.580 C 234.100 84.774,235.407 85.853,236.800 86.978 C 238.194 88.102,239.574 89.242,239.868 89.511 C 240.162 89.780,241.254 90.681,242.295 91.513 C 243.336 92.345,244.356 93.185,244.561 93.380 C 244.766 93.574,246.074 94.653,247.467 95.778 C 248.860 96.902,250.241 98.042,250.534 98.311 C 250.828 98.580,251.921 99.481,252.962 100.313 C 254.003 101.145,255.023 101.985,255.228 102.180 C 255.433 102.374,256.741 103.453,258.134 104.578 C 259.527 105.702,260.907 106.842,261.201 107.111 C 261.495 107.380,262.587 108.281,263.628 109.113 C 264.670 109.945,265.689 110.785,265.894 110.980 C 266.100 111.174,267.407 112.253,268.800 113.378 C 270.194 114.502,271.574 115.642,271.868 115.911 C 272.162 116.180,273.254 117.081,274.295 117.913 C 275.336 118.745,276.356 119.585,276.561 119.780 C 276.766 119.974,278.074 121.053,279.467 122.178 C 280.860 123.302,282.241 124.442,282.534 124.711 C 282.828 124.980,283.921 125.881,284.962 126.713 C 286.003 127.545,287.023 128.385,287.228 128.580 C 287.433 128.774,288.741 129.853,290.134 130.978 C 291.527 132.102,292.909 133.242,293.206 133.511 C 293.503 133.780,294.688 134.764,295.840 135.698 C 296.992 136.632,298.189 137.609,298.500 137.871 C 298.812 138.132,301.227 140.126,303.867 142.301 C 306.507 144.476,308.907 146.456,309.200 146.701 C 309.493 146.946,311.893 148.926,314.533 151.101 C 317.173 153.276,319.573 155.256,319.867 155.501 C 320.160 155.746,322.560 157.721,325.200 159.890 C 327.840 162.060,330.060 163.905,330.133 163.991 C 330.207 164.077,330.776 164.543,331.398 165.028 L 332.530 165.908 332.465 256.221 L 332.400 346.533 285.133 346.601 L 237.867 346.668 237.833 303.201 C 237.815 279.294,237.775 259.643,237.745 259.533 C 237.715 259.423,237.593 258.973,237.474 258.533 C 237.050 256.961,235.534 255.267,233.784 254.406 L 232.133 253.594 196.428 253.595 L 160.723 253.596 159.265 254.264 C 156.950 255.324,155.757 256.816,155.052 259.533 C 155.023 259.643,154.985 279.293,154.967 303.200 L 154.933 346.667 107.200 346.667 L 59.467 346.667 59.467 258.839 L 59.467 171.012 61.133 169.711 C 62.050 168.996,63.040 168.188,63.333 167.916 C 63.627 167.645,65.006 166.502,66.400 165.378 C 67.793 164.253,69.100 163.174,69.306 162.980 C 69.511 162.785,70.530 161.945,71.572 161.113 C 72.613 160.281,73.705 159.380,73.999 159.111 C 74.293 158.842,75.673 157.702,77.066 156.578 C 78.459 155.453,79.767 154.374,79.972 154.180 C 80.177 153.985,81.197 153.145,82.238 152.313 C 83.279 151.481,84.372 150.580,84.666 150.311 C 84.959 150.042,86.340 148.902,87.733 147.778 C 89.126 146.653,90.434 145.574,90.639 145.380 C 90.844 145.185,91.864 144.345,92.905 143.513 C 93.946 142.681,95.038 141.780,95.332 141.511 C 95.626 141.242,97.006 140.102,98.400 138.978 C 99.793 137.853,101.100 136.774,101.306 136.580 C 101.511 136.385,102.530 135.545,103.572 134.713 C 104.613 133.881,105.705 132.980,105.999 132.711 C 106.293 132.442,107.673 131.302,109.066 130.178 C 110.459 129.053,111.767 127.974,111.972 127.780 C 112.177 127.585,113.197 126.745,114.238 125.913 C 115.279 125.081,116.372 124.180,116.666 123.911 C 116.959 123.642,118.340 122.502,119.733 121.378 C 121.126 120.253,122.434 119.174,122.639 118.980 C 122.844 118.785,123.864 117.945,124.905 117.113 C 125.946 116.281,127.038 115.380,127.332 115.111 C 127.626 114.842,129.006 113.702,130.400 112.578 C 131.793 111.453,133.100 110.374,133.306 110.180 C 133.511 109.985,134.530 109.145,135.572 108.313 C 136.613 107.481,137.705 106.580,137.999 106.311 C 138.293 106.042,139.673 104.902,141.066 103.778 C 142.459 102.653,143.767 101.574,143.972 101.380 C 144.177 101.185,145.197 100.345,146.238 99.513 C 147.279 98.681,148.372 97.780,148.666 97.511 C 148.959 97.242,150.340 96.102,151.733 94.978 C 153.126 93.853,154.434 92.774,154.639 92.580 C 154.844 92.385,155.864 91.545,156.905 90.713 C 157.946 89.881,159.038 88.980,159.332 88.711 C 159.626 88.442,161.006 87.302,162.400 86.178 C 163.793 85.053,165.100 83.974,165.306 83.780 C 165.511 83.585,166.530 82.745,167.572 81.913 C 168.613 81.081,169.705 80.180,169.999 79.911 C 170.293 79.642,171.673 78.502,173.066 77.378 C 174.459 76.253,175.767 75.174,175.972 74.980 C 176.177 74.785,177.197 73.945,178.238 73.113 C 179.279 72.281,180.372 71.380,180.666 71.111 C 180.959 70.842,182.340 69.702,183.733 68.578 C 185.126 67.453,186.434 66.374,186.639 66.180 C 186.844 65.985,187.864 65.145,188.905 64.313 C 189.946 63.481,191.038 62.580,191.332 62.311 C 191.626 62.042,193.007 60.902,194.400 59.778 C 195.793 58.653,197.353 57.344,197.867 56.869 C 199.045 55.778,199.033 55.777,200.650 57.133 " stroke="none" fill="#3e3e3e" fill-rule="evenodd"></path></g></svg>