<svg xmlns="http://www.w3.org/2000/svg" viewBox="0 0 1500 1500"><defs><style>.cls-1{fill:#404040;}</style></defs><title>Iconos finales</title><g id="temporada"><path class="cls-1" d="M1254.72,1339.72H245.28v-815L348,345l10.67-50.79V211.61A51.39,51.39,0,0,1,410,160.28H1090a51.39,51.39,0,0,1,51.34,51.33V293l16.5,51.26,96.85,180.81Zm-963.44-46h917.44V536.62l-93.37-174.3-20-62.09V211.61a5.34,5.34,0,0,0-5.34-5.33H410a5.34,5.34,0,0,0-5.34,5.33V299l-13.14,62.55L291.28,537Z"/><path class="cls-1" d="M904.53,683.69c-74.81-74.76-209.95-61.26-301.34,30.13S498.3,940.37,573.07,1015.15c32.52,32.5,76.4,48.32,123.18,48.32,60.83,0,126.5-26.77,178.15-78.45C965.79,893.64,979.29,758.47,904.53,683.69ZM633.45,744.05c43.43-43.46,98.17-66.2,147.77-66.2,35.17,0,67.7,11.58,91.9,35.16-12.93,8.64-24.5,11.66-38,15C813.46,733.44,789,739.56,759.6,769s-35.54,53.92-40.93,75.51c-4.86,19.32-8.66,34.6-29.7,55.63s-36.31,24.84-55.65,29.68c-15.86,4-33.27,8.41-53,22C551.63,891.5,571.23,806.27,633.45,744.05ZM844.14,954.77c-73.88,73.9-180.31,87.79-238.83,31.86,13.07-8.86,24.76-11.88,38.43-15.3,21.61-5.41,46.09-11.53,75.51-41s35.54-53.9,40.93-75.51c4.86-19.35,8.67-34.62,29.7-55.66s36.27-24.82,55.59-29.65c15.66-3.92,32.87-8.33,52.34-21.57C925.75,808.29,906,892.91,844.14,954.77Z"/><rect class="cls-1" x="381.63" y="282.14" width="736.74" height="46"/></g></svg>