<?xml version="1.0" encoding="iso-8859-1"?>
<!-- Generator: Adobe Illustrator 19.0.0, SVG Export Plug-In . SVG Version: 6.00 Build 0)  -->
<svg xmlns="http://www.w3.org/2000/svg" xmlns:xlink="http://www.w3.org/1999/xlink" version="1.1" id="Layer_1" x="0px" y="0px" viewBox="0 0 512 512" style="enable-background:new 0 0 512 512;" xml:space="preserve" width="512px" height="512px">
<g>
	<g>
		<path d="M512,248.996v-15.412c0-10.106-4.546-19.163-11.695-25.253c7.149-6.09,11.695-15.148,11.695-25.253v-15.412    c0-18.293-14.882-33.175-33.175-33.175H316.781v-28.577c0-4.376-3.546-7.922-7.922-7.922H203.14c-4.375,0-7.922,3.546-7.922,7.922    v28.577H33.175C14.882,134.49,0,149.371,0,167.665v15.412c0,10.106,4.546,19.163,11.695,25.253C4.546,214.42,0,223.478,0,233.583    v15.412c0,10.106,4.547,19.164,11.696,25.254C4.547,280.339,0,289.397,0,299.503v15.411c0,10.106,4.547,19.164,11.696,25.254    C4.547,346.259,0,355.316,0,365.422v15.412c0,18.293,14.882,33.175,33.175,33.175h445.65c18.293,0,33.175-14.882,33.175-33.175    v-15.412c0-10.106-4.546-19.163-11.695-25.253c7.149-6.09,11.695-15.148,11.695-25.254v-15.411    c0-10.106-4.546-19.163-11.695-25.254C507.454,268.16,512,259.101,512,248.996z M211.062,113.835h89.874v20.655h-89.874V113.835z     M439.708,150.334v103.717c0,16.928-13.772,30.7-30.7,30.7c-16.928,0-30.701-13.772-30.701-30.7v-31.186    c0-25.665-20.881-46.546-46.545-46.546c-25.665,0-46.546,20.881-46.546,46.546v85.29c0,16.928-13.772,30.701-30.7,30.701    c-16.928,0-30.701-13.772-30.701-30.701v-89.491c0-25.665-20.88-46.545-46.545-46.545s-46.545,20.88-46.545,46.545v29.235    c0,16.928-13.772,30.7-30.7,30.7c-16.928,0-30.7-13.772-30.7-30.7v-97.565H439.708z M361.737,216.253    c0.47,2.131,0.725,4.341,0.725,6.611v31.186c0,4.249,0.583,8.363,1.655,12.277H301.06v-43.464c0-2.27,0.256-4.481,0.725-6.611    H361.737z M310.856,200.408c5.485-5.11,12.834-8.245,20.905-8.245c8.07,0,15.419,3.135,20.904,8.245H310.856z M207.866,216.253    c0.062,0.796,0.104,1.598,0.104,2.41v47.664h-65.214c2.448-5.655,3.812-11.885,3.812-18.429v-29.235    c0-0.812,0.041-1.614,0.104-2.41H207.866z M152.603,200.408c5.598-7.545,14.571-12.445,24.667-12.445    c10.096,0,19.067,4.9,24.667,12.445H152.603z M15.844,167.665c0-9.556,7.774-17.331,17.331-17.331h20.302v50.074H33.175    c-9.556,0-17.331-7.774-17.331-17.331V167.665z M15.844,233.583c0-9.556,7.774-17.331,17.331-17.331h20.302v31.646    c0,6.544,1.365,12.774,3.813,18.429H33.175c-9.556,0-17.331-7.774-17.331-17.332V233.583z M15.844,299.503    c0-9.556,7.774-17.331,17.331-17.331H68.57c8.29,7.614,19.337,12.271,31.452,12.271c12.116,0,23.163-4.657,31.452-12.271h76.494    v25.982c0,8.813,2.462,17.06,6.734,24.093H33.175c-9.556,0-17.331-7.774-17.331-17.332V299.503z M478.825,398.164H33.175    c-9.556,0-17.331-7.774-17.331-17.331v-15.412c0-9.556,7.774-17.331,17.331-17.331h197.466c6.985,4.191,15.152,6.608,23.873,6.608    c8.722,0,16.888-2.417,23.873-6.608h200.436c9.556,0,17.331,7.774,17.331,17.331v15.412h0.001    C496.156,390.39,488.381,398.164,478.825,398.164z M478.825,332.246H294.326c4.272-7.033,6.734-15.28,6.734-24.093v-25.982h70.889    c8.508,11.185,21.952,18.423,37.057,18.423c15.106,0,28.549-7.239,37.057-18.423h32.76c9.556,0,17.331,7.774,17.331,17.331v15.412    h0.001C496.156,324.471,488.381,332.246,478.825,332.246z M496.156,248.996c0,9.557-7.774,17.332-17.331,17.332h-24.928    c1.072-3.915,1.655-8.028,1.655-12.277v-37.798h23.272c9.556,0,17.331,7.774,17.331,17.331V248.996z M496.156,183.077    c0,9.556-7.774,17.331-17.331,17.331h-23.272v-50.074h23.272c9.556,0,17.331,7.774,17.331,17.331V183.077z" fill="#FFFFFF"/>
	</g>
</g>
<g>
</g>
<g>
</g>
<g>
</g>
<g>
</g>
<g>
</g>
<g>
</g>
<g>
</g>
<g>
</g>
<g>
</g>
<g>
</g>
<g>
</g>
<g>
</g>
<g>
</g>
<g>
</g>
<g>
</g>
</svg>
