<svg xmlns="http://www.w3.org/2000/svg" viewBox="0 0 1500 1500"><defs><style>.cls-1{fill:#fff;}.cls-2,.cls-3{fill:none;stroke:#404040;stroke-linecap:round;stroke-width:46px;}.cls-2{stroke-linejoin:round;}.cls-3{stroke-miterlimit:10;}</style></defs><title>Iconos correcciones</title><g id="hot_cakes" data-name="hot cakes"><path class="cls-1" d="M1181.54,431.37V697.81c-.23,17.93-6,34.78-16.12,47.46-9.26,11.55-21.1,18.19-33.35,18.7-.51,0-1,0-1.53,0-10.85,0-21.74-4.9-30.76-13.88-10.17-10.12-17.1-24.45-19.58-40.44q-.2-23.84-.37-47.67-.36-46.14-.73-92.3a18.56,18.56,0,0,0-1-5.91c-10.56-30.93-28.58-56.7-52.11-74.5-20.87-15.8-45.16-24.2-69.41-24.2a104.64,104.64,0,0,0-10.76.55c-23.9,2.49-46.77,13.07-66.13,30.6C861,513.18,846.36,535.91,837.35,562a18.6,18.6,0,0,0-1,5.62l-8.06,295C822,889.19,804,909.3,784.06,911.82a34.17,34.17,0,0,1-4.39.28c-22.54,0-44.11-21.73-50.8-51.87l-5.23-294.88a18.14,18.14,0,0,0-.57-4.27C707.51,499.5,661,456.64,607.39,454.42c-1.41-.06-2.82-.09-4.22-.09-27,0-53.58,10.62-75.37,30.14-22.17,19.88-38.44,48.33-45.81,80.1a18.88,18.88,0,0,0-.47,3.59q-2.08,59.34-4.14,118.69l-.26,7.47c-4.72,30.41-26,53-50,53h-.65c-24.55-.4-45.78-24.14-49.7-55.38l-.66-260.16,30.78.63,49,1h.48l416.27-2.05h309M330,384.8l.12,47.08.66,260.17v2.81l.35,2.8c3.06,24.32,13.18,47.13,28.51,64.23,17.78,19.83,41.22,31,66,31.41h1.48c24.41,0,47.74-10.48,65.71-29.51,15.51-16.44,26.09-38.61,29.79-62.43l.42-2.71.09-2.75.26-7.46.2-5.85q1.92-55,3.84-110.07c5.47-21.64,16.47-40.67,31.12-53.8,13.23-11.86,29.09-18.4,44.66-18.4.77,0,1.55,0,2.32.05,15.28.63,30.09,7.18,42.84,18.93,13.63,12.57,23.76,29.86,29.38,50.15L682.87,861l.08,4.64,1,4.53c5.15,23.16,16.06,43.74,31.57,59.51,18,18.3,40.77,28.38,64.14,28.38a80.39,80.39,0,0,0,10.17-.65c20.57-2.6,40.35-13.42,55.66-30.48,13.15-14.64,22.67-33.22,27.52-53.71l1.1-4.62.13-4.73,7.94-290.63c6.53-17.2,16.29-32,28.38-42.92s25.89-17.48,40-18.94a57.18,57.18,0,0,1,6-.31c14.39,0,28.79,5.14,41.65,14.88,15.22,11.51,27.23,28.29,34.91,48.72q.36,42.75.67,85.49l0,2.17q.18,23.83.37,47.68l0,3.38.52,3.33c4,25.59,15.55,49,32.58,66,17.67,17.6,40.12,27.29,63.22,27.29,1.16,0,2.33,0,3.48-.08,25.68-1.06,49.6-13.81,67.3-35.89,16.54-20.64,25.86-47.51,26.22-75.64v-313H872.34L456.4,387.42l-43.39-.9-5.21-.11L377,385.78l-47.07-1Z"/><path class="cls-2" d="M863.1,810.12h413.75a76.32,76.32,0,0,1,76.09,76.1v46.55a76.32,76.32,0,0,1-76.09,76.12H236.47a76.33,76.33,0,0,1-76.1-76.12V886.22a76.34,76.34,0,0,1,76.1-76.1"/><path class="cls-2" d="M332.86,611.35H239.51a79.37,79.37,0,0,1-79.14-79.14V491.73a79.38,79.38,0,0,1,79.14-79.15H1273.79a79.39,79.39,0,0,1,79.15,79.15v40.48c0,43.53-35.62,79.14-64.09,79.14l-73.6-.27"/><polyline class="cls-2" points="522.29 611.35 672.79 611.35 700.67 611.35"/><path class="cls-2" d="M674.08,810.1H236.47A76.32,76.32,0,0,1,160.37,734V687.45a76.32,76.32,0,0,1,76.1-76.1h86.22"/><path class="cls-2" d="M1276.85,611.35a76.3,76.3,0,0,1,76.09,76.1V734a76.3,76.3,0,0,1-76.09,76.09"/><line class="cls-2" x1="888.02" y1="611.35" x2="1033.05" y2="611.35"/><path class="cls-3" d="M1272.62,1008.89h122.86a41.66,41.66,0,0,1,41.65,41.66h0a41.65,41.65,0,0,1-41.65,41.65h-1291a41.65,41.65,0,0,1-41.65-41.65h0a41.66,41.66,0,0,1,41.65-41.66h1168.1"/></g></svg>