<svg id="svg" version="1.1" width="400" height="413.52657004830917" viewBox="0 0 400 413.52657004830917" xmlns="http://www.w3.org/2000/svg" xmlns:xlink="http://www.w3.org/1999/xlink" ><g id="svgg"><path id="path0" d="M388.670 45.066 C 389.814 46.284,390.062 46.504,390.062 46.296 C 390.062 46.252,389.472 45.662,388.751 44.985 L 387.440 43.754 388.670 45.066 M11.027 45.204 L 10.076 46.239 11.111 45.287 C 12.075 44.402,12.273 44.168,12.062 44.168 C 12.016 44.168,11.550 44.634,11.027 45.204 M25.121 60.041 C 24.450 60.725,23.964 61.284,24.040 61.284 C 24.116 61.284,24.726 60.725,25.397 60.041 C 26.067 59.358,26.554 58.799,26.478 58.799 C 26.402 58.799,25.791 59.358,25.121 60.041 M373.775 59.162 C 373.775 59.209,374.179 59.613,374.672 60.059 L 375.569 60.870 374.759 59.972 C 374.003 59.136,373.775 58.948,373.775 59.162 M137.091 255.851 C 137.014 255.975,138.466 257.559,140.318 259.370 L 143.685 262.664 140.432 259.338 C 138.643 257.508,137.266 255.924,137.373 255.818 C 137.479 255.712,137.491 255.625,137.398 255.625 C 137.306 255.625,137.168 255.726,137.091 255.851 M280.325 257.902 L 278.123 260.179 280.400 257.977 C 282.515 255.932,282.804 255.625,282.602 255.625 C 282.561 255.625,281.536 256.649,280.325 257.902 M275.907 262.319 L 273.982 264.320 275.983 262.395 C 277.842 260.607,278.111 260.317,277.908 260.317 C 277.866 260.317,276.966 261.218,275.907 262.319 M117.736 266.115 C 120.010 268.392,121.932 270.255,122.008 270.255 C 122.084 270.255,120.286 268.392,118.012 266.115 C 115.739 263.837,113.816 261.974,113.741 261.974 C 113.665 261.974,115.463 263.837,117.736 266.115 M239.472 269.220 L 234.783 273.982 239.545 269.292 C 243.969 264.935,244.431 264.458,244.234 264.458 C 244.195 264.458,242.052 266.601,239.472 269.220 M157.212 276.052 C 159.638 278.482,161.684 280.469,161.760 280.469 C 161.836 280.469,159.914 278.482,157.488 276.052 C 155.062 273.623,153.015 271.636,152.940 271.636 C 152.864 271.636,154.786 273.623,157.212 276.052 M261.284 276.605 C 259.010 278.882,257.212 280.745,257.288 280.745 C 257.364 280.745,259.286 278.882,261.560 276.605 C 263.833 274.327,265.631 272.464,265.556 272.464 C 265.480 272.464,263.557 274.327,261.284 276.605 M134.576 282.678 C 136.849 284.955,138.772 286.818,138.847 286.818 C 138.923 286.818,137.125 284.955,134.852 282.678 C 132.578 280.400,130.656 278.537,130.580 278.537 C 130.504 278.537,132.302 280.400,134.576 282.678 M247.058 290.614 L 245.549 292.202 247.136 290.693 C 248.611 289.291,248.850 289.027,248.645 289.027 C 248.602 289.027,247.887 289.741,247.058 290.614 M13.112 403.037 C 13.706 403.644,14.253 404.141,14.329 404.141 C 14.405 404.141,13.982 403.644,13.389 403.037 C 12.796 402.429,12.248 401.932,12.172 401.932 C 12.096 401.932,12.519 402.429,13.112 403.037 " stroke="none" fill="#313131" fill-rule="evenodd"></path><path id="path1" d="" stroke="none" fill="#373737" fill-rule="evenodd"></path><path id="path2" d="M278.880 17.046 L 278.813 34.230 199.379 34.300 L 119.945 34.369 199.388 34.438 C 262.738 34.493,278.857 34.437,278.962 34.161 C 279.035 33.972,279.061 26.177,279.020 16.839 L 278.947 -0.138 278.880 17.046 M309.866 17.115 L 309.869 34.369 336.025 34.371 L 362.181 34.373 336.096 34.300 L 310.011 34.228 309.937 17.045 L 309.863 -0.138 309.866 17.115 M35.269 34.426 C 35.612 34.492,36.109 34.489,36.373 34.420 C 36.637 34.351,36.356 34.297,35.749 34.300 C 35.141 34.303,34.926 34.360,35.269 34.426 M50.884 34.437 C 58.449 34.478,70.747 34.478,78.213 34.437 C 85.679 34.397,79.489 34.363,64.458 34.363 C 49.427 34.363,43.319 34.397,50.884 34.437 M363.906 34.421 C 364.172 34.490,364.607 34.490,364.872 34.421 C 365.138 34.351,364.921 34.295,364.389 34.295 C 363.858 34.295,363.640 34.351,363.906 34.421 M0.086 72.188 C 0.087 73.099,0.139 73.438,0.200 72.942 C 0.262 72.446,0.260 71.700,0.197 71.286 C 0.134 70.871,0.084 71.277,0.086 72.188 M379.640 102.622 L 379.572 131.677 199.793 131.746 L 20.014 131.815 199.802 131.884 C 343.428 131.939,379.616 131.884,379.721 131.608 C 379.793 131.418,379.820 118.282,379.780 102.415 L 379.708 73.568 379.640 102.622 M199.793 152.312 L 379.571 152.381 379.641 261.767 L 379.711 371.153 379.711 261.698 L 379.710 152.243 199.862 152.243 L 20.014 152.242 199.793 152.312 M184.314 187.590 C 183.666 188.950,183.757 189.182,184.435 187.897 C 184.743 187.313,184.946 186.787,184.887 186.727 C 184.827 186.667,184.569 187.056,184.314 187.590 M206.403 189.783 C 206.656 190.312,206.911 190.696,206.971 190.636 C 207.097 190.510,206.259 188.820,206.071 188.820 C 206.001 188.820,206.151 189.253,206.403 189.783 M180.663 195.195 C 180.420 195.664,180.271 196.098,180.330 196.157 C 180.390 196.217,180.646 195.833,180.898 195.304 C 181.466 194.113,181.269 194.022,180.663 195.195 M209.819 196.687 C 209.819 196.839,209.997 197.274,210.214 197.654 C 210.431 198.033,210.608 198.219,210.608 198.068 C 210.608 197.916,210.431 197.481,210.214 197.101 C 209.997 196.722,209.819 196.536,209.819 196.687 M176.994 202.772 C 176.532 203.787,176.620 204.004,177.120 203.081 C 177.354 202.650,177.493 202.246,177.430 202.183 C 177.367 202.120,177.171 202.385,176.994 202.772 M213.412 204.141 C 213.412 204.293,213.650 204.852,213.941 205.383 C 214.232 205.914,214.470 206.225,214.470 206.073 C 214.470 205.921,214.232 205.362,213.941 204.831 C 213.650 204.300,213.412 203.989,213.412 204.141 M173.272 210.503 C 172.624 211.863,172.715 212.094,173.393 210.809 C 173.701 210.225,173.904 209.699,173.844 209.639 C 173.785 209.580,173.527 209.968,173.272 210.503 M217.273 212.146 C 217.273 212.298,217.450 212.733,217.667 213.112 C 217.884 213.492,218.062 213.678,218.062 213.527 C 218.062 213.375,217.884 212.940,217.667 212.560 C 217.450 212.181,217.273 211.994,217.273 212.146 M193.705 214.645 C 192.691 216.711,192.785 216.956,193.820 214.948 C 194.279 214.060,194.608 213.287,194.551 213.231 C 194.495 213.174,194.114 213.810,193.705 214.645 M197.126 216.839 C 197.126 216.991,197.426 217.674,197.792 218.357 C 198.157 219.041,198.457 219.476,198.457 219.324 C 198.457 219.172,198.157 218.489,197.792 217.805 C 197.426 217.122,197.126 216.687,197.126 216.839 M169.541 218.231 C 169.079 219.246,169.167 219.463,169.667 218.540 C 169.900 218.109,170.040 217.705,169.977 217.642 C 169.914 217.579,169.718 217.844,169.541 218.231 M220.865 219.600 C 220.865 219.752,221.103 220.311,221.394 220.842 C 221.685 221.373,221.923 221.684,221.923 221.532 C 221.923 221.380,221.685 220.821,221.394 220.290 C 221.103 219.758,220.865 219.448,220.865 219.600 M165.819 225.962 C 165.170 227.322,165.262 227.553,165.940 226.268 C 166.248 225.684,166.451 225.158,166.391 225.098 C 166.331 225.039,166.074 225.427,165.819 225.962 M188.044 226.238 C 187.212 227.950,187.305 228.190,188.162 226.543 C 188.545 225.807,188.811 225.158,188.753 225.100 C 188.695 225.042,188.376 225.554,188.044 226.238 M224.899 228.154 C 225.151 228.683,225.407 229.068,225.467 229.008 C 225.593 228.881,224.755 227.191,224.566 227.191 C 224.496 227.191,224.646 227.624,224.899 228.154 M202.647 228.157 C 202.647 228.309,202.947 228.992,203.313 229.676 C 203.678 230.359,203.978 230.794,203.978 230.642 C 203.978 230.490,203.678 229.807,203.313 229.124 C 202.947 228.440,202.647 228.006,202.647 228.157 M182.523 237.557 C 181.691 239.268,181.784 239.508,182.641 237.861 C 183.024 237.125,183.290 236.476,183.232 236.418 C 183.174 236.360,182.855 236.873,182.523 237.557 M208.168 239.476 C 208.168 239.627,208.468 240.311,208.834 240.994 C 209.200 241.677,209.499 242.112,209.499 241.960 C 209.499 241.808,209.200 241.125,208.834 240.442 C 208.468 239.758,208.168 239.324,208.168 239.476 M104.970 248.585 C 104.973 249.193,105.029 249.408,105.095 249.065 C 105.161 248.722,105.159 248.225,105.090 247.961 C 105.021 247.697,104.966 247.978,104.970 248.585 M107.937 256.263 C 107.937 256.311,108.340 256.714,108.834 257.160 L 109.731 257.971 108.920 257.074 C 108.164 256.238,107.937 256.050,107.937 256.263 M246.647 262.319 L 244.168 264.872 246.722 262.394 C 248.126 261.030,249.275 259.881,249.275 259.840 C 249.275 259.640,248.949 259.947,246.647 262.319 M271.636 266.253 C 270.504 267.391,269.641 268.323,269.717 268.323 C 269.793 268.323,270.781 267.391,271.912 266.253 C 273.043 265.114,273.906 264.182,273.830 264.182 C 273.754 264.182,272.767 265.114,271.636 266.253 M150.173 269.289 C 151.456 270.580,152.569 271.636,152.645 271.636 C 152.721 271.636,151.732 270.580,150.449 269.289 C 149.165 267.999,148.052 266.943,147.976 266.943 C 147.900 266.943,148.889 267.999,150.173 269.289 M122.015 270.055 C 122.015 270.097,122.978 271.060,124.155 272.195 L 126.294 274.258 124.231 272.119 C 122.314 270.132,122.015 269.853,122.015 270.055 M228.699 279.986 L 227.329 281.435 228.778 280.066 C 229.576 279.312,230.228 278.660,230.228 278.616 C 230.228 278.410,229.972 278.640,228.699 279.986 M255.072 282.540 C 253.941 283.678,253.078 284.610,253.154 284.610 C 253.230 284.610,254.217 283.678,255.349 282.540 C 256.480 281.401,257.343 280.469,257.267 280.469 C 257.191 280.469,256.204 281.401,255.072 282.540 M140.925 288.751 C 142.132 289.965,143.182 290.959,143.258 290.959 C 143.334 290.959,142.408 289.965,141.201 288.751 C 139.993 287.536,138.943 286.542,138.867 286.542 C 138.791 286.542,139.717 287.536,140.925 288.751 M165.143 288.475 C 165.143 289.006,165.200 289.224,165.270 288.958 C 165.339 288.692,165.339 288.257,165.270 287.992 C 165.200 287.726,165.143 287.943,165.143 288.475 M399.788 371.843 C 399.788 372.374,399.845 372.591,399.914 372.326 C 399.984 372.060,399.984 371.625,399.914 371.360 C 399.845 371.094,399.788 371.311,399.788 371.843 M27.053 388.268 C 27.568 388.799,28.052 389.234,28.128 389.234 C 28.204 389.234,27.844 388.799,27.329 388.268 C 26.814 387.736,26.331 387.302,26.255 387.302 C 26.179 387.302,26.538 387.736,27.053 388.268 M386.601 402.830 L 385.231 404.279 386.680 402.909 C 387.478 402.155,388.130 401.503,388.130 401.460 C 388.130 401.254,387.874 401.483,386.601 402.830 M21.532 409.246 C 21.532 409.433,23.774 410.548,23.899 410.423 C 23.957 410.365,23.448 410.048,22.768 409.717 C 22.088 409.387,21.532 409.175,21.532 409.246 " stroke="none" fill="#3b3b3b" fill-rule="evenodd"></path><path id="path3" d="M251.079 257.827 L 249.156 259.903 251.204 257.912 C 252.331 256.817,253.196 255.883,253.127 255.836 C 253.058 255.789,252.137 256.685,251.079 257.827 M109.593 257.909 C 109.593 257.951,110.556 258.913,111.732 260.048 L 113.872 262.112 111.808 259.972 C 109.892 257.985,109.593 257.707,109.593 257.909 M143.823 262.878 C 143.823 262.920,144.786 263.882,145.963 265.017 L 148.102 267.081 146.039 264.941 C 144.122 262.954,143.823 262.676,143.823 262.878 M267.495 270.393 C 266.364 271.532,265.500 272.464,265.576 272.464 C 265.652 272.464,266.640 271.532,267.771 270.393 C 268.902 269.255,269.765 268.323,269.689 268.323 C 269.614 268.323,268.626 269.255,267.495 270.393 M232.430 276.259 L 230.090 278.675 232.505 276.335 C 234.749 274.161,235.046 273.844,234.846 273.844 C 234.804 273.844,233.717 274.931,232.430 276.259 M128.226 276.329 C 129.281 277.391,130.206 278.261,130.282 278.261 C 130.358 278.261,129.557 277.391,128.502 276.329 C 127.448 275.266,126.523 274.396,126.447 274.396 C 126.371 274.396,127.172 275.266,128.226 276.329 M250.786 286.888 L 248.861 288.889 250.863 286.964 C 252.722 285.176,252.990 284.886,252.788 284.886 C 252.746 284.886,251.845 285.787,250.786 286.888 " stroke="none" fill="#3a3a3a" fill-rule="evenodd"></path><path id="path4" d="M91.438 17.256 L 91.511 34.513 62.802 34.526 C 47.012 34.534,33.720 34.578,33.264 34.624 C 32.601 34.692,30.234 35.109,28.571 35.451 C 16.249 37.983,3.604 50.744,1.220 63.054 C 0.734 65.559,0.504 66.857,0.335 68.047 C 0.060 69.973,0.087 371.782,0.362 374.327 C 0.678 377.261,0.714 377.477,1.367 380.449 C 2.641 386.248,4.951 391.734,8.148 396.549 C 8.753 397.460,9.372 398.347,9.524 398.519 C 9.676 398.692,10.545 399.723,11.456 400.812 C 15.274 405.374,19.254 408.235,26.087 411.331 C 26.894 411.697,30.624 412.718,31.746 412.881 C 32.277 412.958,33.209 413.131,33.816 413.267 C 35.149 413.564,366.145 413.479,367.150 413.181 C 367.529 413.069,368.275 412.889,368.806 412.781 C 369.337 412.673,369.834 412.570,369.910 412.550 C 369.986 412.531,370.421 412.422,370.876 412.308 C 373.797 411.577,381.026 407.995,382.333 406.631 C 382.409 406.552,383.037 406.032,383.730 405.476 C 386.375 403.352,391.673 397.349,392.583 395.445 C 392.728 395.141,392.998 394.645,393.183 394.341 C 394.594 392.028,395.137 390.917,396.224 388.120 C 397.271 385.427,397.690 384.193,398.236 382.195 C 398.440 381.449,399.107 378.128,399.318 376.812 C 399.379 376.432,399.526 375.003,399.645 373.637 C 399.911 370.596,399.938 71.253,399.673 68.737 C 399.480 66.902,399.011 64.262,398.520 62.250 C 396.565 54.231,390.505 45.661,383.303 40.731 C 382.295 40.040,381.382 39.476,381.275 39.476 C 381.168 39.476,380.648 39.187,380.119 38.834 C 379.591 38.481,378.599 37.974,377.916 37.707 C 377.233 37.440,376.301 37.053,375.845 36.846 C 375.137 36.524,372.290 35.626,371.429 35.452 C 366.479 34.453,367.352 34.479,336.922 34.421 L 309.869 34.369 309.798 17.184 L 309.727 0.000 294.410 0.000 L 279.093 0.000 279.022 17.184 L 278.951 34.369 199.517 34.438 L 120.083 34.508 120.083 17.254 L 120.083 0.000 105.724 -0.000 L 91.365 -0.000 91.438 17.256 M366.460 55.249 C 372.441 56.528,377.984 62.062,379.417 68.185 C 379.781 69.743,379.828 74.044,379.773 100.897 L 379.710 131.815 199.931 131.884 L 20.152 131.953 20.096 102.347 C 20.065 86.063,20.042 72.429,20.044 72.050 C 20.071 66.665,24.285 59.107,28.199 57.423 C 28.555 57.270,29.034 57.026,29.262 56.881 C 30.104 56.344,31.851 55.659,33.228 55.325 C 35.130 54.864,364.309 54.788,366.460 55.249 M379.710 262.664 C 379.710 323.395,379.620 373.582,379.509 374.189 C 379.399 374.796,379.239 375.666,379.155 376.121 C 377.680 384.071,371.350 391.436,364.913 392.692 C 363.062 393.053,35.120 392.815,33.913 392.452 C 29.532 391.133,24.361 386.217,22.651 381.745 C 22.456 381.233,22.133 380.442,21.935 379.986 C 21.736 379.531,21.285 378.164,20.932 376.950 L 20.290 374.741 20.218 263.423 L 20.145 152.104 199.928 152.174 L 379.710 152.243 379.710 262.664 M192.516 179.128 C 190.382 179.739,188.664 180.827,187.476 182.319 C 186.368 183.711,186.325 183.789,184.051 188.544 C 183.071 190.594,181.459 193.948,180.470 195.997 C 179.480 198.047,177.773 201.587,176.676 203.865 C 175.579 206.142,173.902 209.620,172.949 211.594 C 171.997 213.568,170.319 217.046,169.221 219.324 C 164.778 228.541,163.378 231.318,163.198 231.274 C 163.094 231.249,162.512 231.317,161.905 231.426 C 161.297 231.535,160.304 231.685,159.696 231.760 C 159.089 231.834,158.406 231.949,158.178 232.015 C 157.950 232.082,157.090 232.209,156.267 232.299 C 155.444 232.389,154.699 232.506,154.611 232.560 C 154.523 232.614,153.719 232.736,152.825 232.831 C 151.930 232.927,151.123 233.051,151.030 233.107 C 150.938 233.164,150.131 233.288,149.236 233.384 C 148.341 233.479,147.534 233.603,147.442 233.660 C 147.349 233.716,146.542 233.840,145.647 233.936 C 144.753 234.031,143.945 234.155,143.853 234.212 C 143.761 234.268,142.953 234.393,142.059 234.488 C 141.164 234.583,140.356 234.707,140.264 234.764 C 140.172 234.820,139.365 234.945,138.470 235.040 C 137.575 235.135,136.768 235.259,136.676 235.316 C 136.583 235.373,135.776 235.497,134.881 235.592 C 133.987 235.687,133.179 235.811,133.087 235.868 C 132.995 235.925,132.187 236.049,131.293 236.144 C 130.398 236.239,129.590 236.363,129.498 236.420 C 129.406 236.477,128.599 236.601,127.704 236.696 C 126.809 236.791,126.002 236.915,125.910 236.972 C 125.817 237.029,125.010 237.153,124.115 237.248 C 123.221 237.343,122.413 237.468,122.321 237.524 C 122.229 237.581,121.421 237.705,120.527 237.800 C 119.632 237.895,118.824 238.019,118.732 238.076 C 118.640 238.132,117.939 238.246,117.175 238.328 C 109.501 239.152,105.394 242.480,105.200 248.033 C 105.035 252.784,105.744 253.900,114.336 262.393 C 125.041 272.975,138.004 285.728,141.536 289.150 C 143.238 290.800,144.580 292.232,144.518 292.333 C 144.455 292.433,144.328 293.128,144.234 293.877 C 144.140 294.626,144.004 295.446,143.932 295.699 C 143.747 296.345,143.582 297.240,143.405 298.540 C 143.322 299.153,143.175 300.028,143.078 300.483 C 142.981 300.939,142.874 301.498,142.841 301.725 C 142.655 302.995,142.408 304.432,142.271 305.038 C 142.186 305.418,142.069 306.039,142.013 306.418 C 141.957 306.798,141.844 307.419,141.763 307.798 C 141.682 308.178,141.545 309.048,141.459 309.731 C 141.373 310.414,141.243 311.181,141.171 311.434 C 140.969 312.144,140.803 313.064,140.631 314.424 C 140.545 315.107,140.415 315.873,140.343 316.127 C 140.140 316.837,139.974 317.756,139.803 319.117 C 139.717 319.800,139.583 320.580,139.505 320.850 C 139.428 321.120,139.316 321.679,139.257 322.092 C 139.198 322.505,139.084 323.154,139.003 323.533 C 138.922 323.913,138.785 324.783,138.699 325.466 C 138.612 326.149,138.483 326.916,138.410 327.169 C 138.208 327.879,138.042 328.799,137.870 330.159 C 137.784 330.842,137.655 331.608,137.582 331.862 C 137.398 332.508,137.232 333.403,137.056 334.703 C 136.973 335.316,136.825 336.190,136.728 336.646 C 136.632 337.101,136.525 337.660,136.492 337.888 C 136.329 338.998,136.055 340.595,135.898 341.339 C 134.878 346.189,135.693 349.575,138.556 352.387 C 140.358 354.156,142.534 355.070,145.146 355.153 C 147.806 355.239,148.255 355.064,155.832 350.986 C 158.034 349.800,161.458 347.969,163.837 346.704 C 164.900 346.139,166.639 345.209,167.702 344.638 C 169.544 343.647,171.304 342.707,175.293 340.579 C 176.937 339.702,178.607 338.806,183.161 336.355 C 185.364 335.169,188.832 333.318,190.954 332.196 C 191.900 331.695,193.156 331.008,193.746 330.669 L 194.818 330.052 196.857 331.075 C 197.978 331.638,199.952 332.668,201.242 333.364 C 202.533 334.060,204.520 335.128,205.659 335.737 C 206.798 336.346,208.475 337.245,209.386 337.735 C 210.297 338.226,212.036 339.157,213.251 339.806 C 214.465 340.454,216.204 341.386,217.115 341.876 C 218.026 342.366,219.765 343.298,220.980 343.946 C 222.195 344.595,223.934 345.527,224.845 346.017 C 231.357 349.522,233.135 350.473,236.439 352.219 C 237.502 352.781,238.744 353.443,239.199 353.690 C 247.474 358.176,256.333 351.000,254.149 341.581 C 254.011 340.983,253.680 339.188,253.571 338.440 C 253.537 338.213,253.431 337.654,253.334 337.198 C 253.237 336.743,253.089 335.868,253.006 335.255 C 252.830 333.955,252.664 333.060,252.480 332.414 C 252.408 332.161,252.278 331.394,252.192 330.711 C 252.020 329.351,251.854 328.431,251.652 327.721 C 251.579 327.468,251.450 326.701,251.364 326.018 C 251.277 325.335,251.140 324.465,251.059 324.086 C 250.791 322.828,250.195 319.471,249.982 318.012 C 249.949 317.785,249.842 317.226,249.745 316.770 C 249.648 316.315,249.501 315.440,249.417 314.827 C 249.241 313.527,249.075 312.632,248.891 311.986 C 248.819 311.733,248.689 310.966,248.603 310.283 C 248.431 308.923,248.265 308.003,248.063 307.293 C 247.991 307.040,247.861 306.273,247.775 305.590 C 247.689 304.907,247.552 304.037,247.471 303.658 C 247.390 303.278,247.275 302.629,247.216 302.216 C 247.157 301.803,247.046 301.244,246.968 300.974 C 246.891 300.704,246.757 299.924,246.671 299.241 C 246.499 297.881,246.333 296.961,246.131 296.251 C 246.058 295.998,245.929 295.231,245.842 294.548 C 245.756 293.865,245.633 293.039,245.570 292.713 C 245.459 292.150,253.995 283.574,277.534 260.597 C 282.786 255.471,283.806 254.106,284.548 251.208 C 285.909 245.893,282.154 239.973,276.743 238.903 C 276.162 238.788,274.217 238.483,273.292 238.362 C 272.761 238.293,272.015 238.174,271.636 238.099 C 271.256 238.023,270.449 237.900,269.841 237.824 C 269.234 237.748,268.427 237.624,268.047 237.548 C 267.667 237.472,266.860 237.348,266.253 237.272 C 265.645 237.196,264.838 237.072,264.458 236.996 C 264.079 236.920,263.271 236.795,262.664 236.720 C 262.057 236.644,261.249 236.520,260.870 236.444 C 260.490 236.368,259.683 236.243,259.075 236.168 C 258.468 236.092,257.660 235.968,257.281 235.892 C 256.901 235.815,256.094 235.691,255.487 235.615 C 254.879 235.540,254.072 235.415,253.692 235.339 C 253.313 235.263,252.505 235.139,251.898 235.063 C 251.291 234.988,250.483 234.863,250.104 234.787 C 249.724 234.711,248.916 234.587,248.309 234.511 C 247.702 234.435,246.894 234.311,246.515 234.235 C 246.135 234.159,245.328 234.035,244.720 233.959 C 244.113 233.883,243.306 233.759,242.926 233.683 C 242.547 233.607,241.739 233.483,241.132 233.407 C 240.524 233.331,239.717 233.207,239.337 233.131 C 238.958 233.055,238.150 232.931,237.543 232.855 C 236.936 232.779,236.128 232.655,235.749 232.579 C 235.369 232.503,234.562 232.378,233.954 232.301 C 233.347 232.225,232.540 232.103,232.160 232.030 C 231.781 231.958,231.035 231.840,230.504 231.769 C 229.972 231.697,229.041 231.556,228.433 231.454 C 227.826 231.353,227.143 231.245,226.915 231.215 C 226.474 231.158,225.761 229.818,222.197 222.360 C 220.964 219.779,219.114 215.928,218.087 213.803 C 213.969 205.280,212.535 202.307,210.628 198.344 C 209.533 196.066,207.917 192.712,207.038 190.890 C 206.159 189.068,204.987 186.627,204.434 185.465 C 201.916 180.172,197.350 177.744,192.516 179.128 M201.960 226.501 C 203.876 230.449,206.657 236.163,208.140 239.199 C 209.623 242.236,211.031 245.155,211.269 245.687 C 212.492 248.425,215.362 250.280,219.186 250.805 C 220.078 250.928,222.126 251.218,222.912 251.333 C 223.368 251.400,224.237 251.525,224.845 251.611 C 226.467 251.840,227.757 252.024,228.847 252.180 C 229.379 252.256,230.248 252.381,230.780 252.456 C 231.311 252.532,232.181 252.656,232.712 252.732 C 233.244 252.809,234.113 252.931,234.645 253.004 C 235.176 253.077,235.871 253.189,236.190 253.253 C 236.509 253.316,237.428 253.452,238.233 253.554 C 239.039 253.656,239.958 253.790,240.277 253.852 C 240.595 253.913,241.353 254.028,241.960 254.106 C 242.567 254.184,243.437 254.303,243.892 254.370 C 244.348 254.437,245.217 254.562,245.825 254.648 C 247.447 254.877,248.737 255.061,249.827 255.217 C 250.359 255.293,251.285 255.421,251.885 255.500 C 252.486 255.580,253.040 255.708,253.117 255.785 C 253.194 255.863,247.403 261.696,240.248 268.749 C 226.415 282.384,225.893 282.987,225.068 286.266 C 224.784 287.398,224.938 290.514,225.394 292.881 C 225.466 293.254,225.592 294.004,225.673 294.548 C 225.754 295.092,225.878 295.837,225.949 296.204 C 226.020 296.572,226.144 297.317,226.225 297.861 C 226.306 298.404,226.430 299.149,226.501 299.517 C 226.572 299.884,226.696 300.630,226.777 301.173 C 226.858 301.717,226.985 302.467,227.058 302.841 C 227.321 304.174,228.007 308.234,228.175 309.455 C 228.270 310.138,228.391 310.945,228.445 311.249 C 228.653 312.414,228.828 313.498,228.977 314.539 C 229.062 315.134,229.188 315.942,229.257 316.334 C 229.326 316.726,229.458 317.528,229.551 318.116 C 229.645 318.705,229.771 319.445,229.832 319.762 C 229.892 320.078,230.009 320.781,230.090 321.325 C 230.171 321.869,230.295 322.614,230.366 322.981 C 230.437 323.349,230.569 324.149,230.660 324.759 C 230.751 325.369,230.885 325.964,230.957 326.081 C 231.218 326.503,229.709 325.792,226.225 323.849 C 225.466 323.425,224.253 322.749,223.531 322.346 C 222.808 321.942,221.657 321.302,220.974 320.922 C 220.291 320.542,219.143 319.902,218.424 319.499 C 217.704 319.096,216.556 318.470,215.873 318.107 C 215.190 317.744,214.010 317.100,213.251 316.675 C 211.167 315.508,209.387 314.515,207.934 313.709 C 207.214 313.311,206.066 312.670,205.383 312.287 C 204.227 311.637,202.873 310.906,200.442 309.618 C 199.569 309.154,197.862 308.635,195.754 308.189 C 195.392 308.113,194.451 308.184,193.664 308.348 C 192.876 308.512,191.907 308.704,191.512 308.776 C 191.116 308.848,190.007 309.339,189.047 309.868 C 188.087 310.397,186.743 311.125,186.059 311.486 C 185.376 311.846,184.196 312.488,183.437 312.912 C 182.678 313.336,181.530 313.976,180.886 314.335 C 179.069 315.347,177.217 316.381,175.707 317.227 C 174.948 317.652,173.768 318.297,173.085 318.659 C 172.402 319.022,171.254 319.648,170.534 320.051 C 169.815 320.454,168.697 321.078,168.050 321.438 C 167.403 321.798,166.190 322.482,165.355 322.957 C 164.520 323.433,163.402 324.018,162.871 324.258 C 162.340 324.497,161.714 324.862,161.481 325.069 C 160.469 325.965,159.028 326.345,159.156 325.681 C 159.220 325.347,159.339 324.629,159.420 324.086 C 159.501 323.542,159.626 322.797,159.696 322.429 C 159.767 322.062,159.901 321.259,159.994 320.646 C 160.087 320.033,160.215 319.189,160.278 318.772 C 160.412 317.890,160.647 316.457,160.788 315.666 C 160.843 315.362,160.964 314.555,161.059 313.872 C 161.235 312.607,162.206 306.836,162.451 305.601 C 162.525 305.228,162.652 304.477,162.733 303.934 C 162.814 303.390,162.938 302.645,163.009 302.277 C 163.080 301.910,163.204 301.165,163.285 300.621 C 163.366 300.078,163.490 299.332,163.561 298.965 C 163.678 298.356,163.795 297.620,164.152 295.238 C 164.305 294.216,164.461 293.319,164.704 292.063 C 164.807 291.532,164.902 289.911,164.916 288.460 C 164.962 283.657,165.213 283.983,149.765 268.771 C 142.537 261.654,136.661 255.794,136.707 255.748 C 136.753 255.702,137.410 255.592,138.168 255.505 C 138.925 255.418,139.805 255.295,140.124 255.233 C 140.442 255.171,141.362 255.037,142.167 254.934 C 142.972 254.832,143.892 254.697,144.210 254.633 C 144.529 254.569,145.224 254.457,145.756 254.384 C 146.287 254.311,147.157 254.189,147.688 254.113 C 148.219 254.037,149.089 253.912,149.620 253.837 C 150.152 253.761,151.021 253.637,151.553 253.561 C 152.084 253.484,152.954 253.360,153.485 253.285 C 154.017 253.209,154.886 253.085,155.418 253.008 C 155.949 252.932,156.818 252.808,157.350 252.732 C 157.881 252.657,158.751 252.533,159.282 252.456 C 159.814 252.380,160.727 252.254,161.311 252.176 C 161.896 252.098,162.703 251.979,163.106 251.913 C 163.508 251.846,164.396 251.715,165.079 251.622 C 165.763 251.528,166.632 251.404,167.012 251.346 C 169.116 251.022,170.256 250.854,170.832 250.781 C 175.231 250.223,177.254 248.605,179.600 243.767 C 181.440 239.973,184.912 232.862,188.909 224.707 C 190.509 221.442,192.513 217.285,193.364 215.469 L 194.911 212.166 196.694 215.745 C 197.675 217.713,200.044 222.553,201.960 226.501 " stroke="none" fill="#3e3e3e" fill-rule="evenodd"></path></g></svg>