<?xml version="1.0" encoding="utf-8"?>
<!-- Generator: Adobe Illustrator 22.1.0, SVG Export Plug-In . SVG Version: 6.00 Build 0)  -->
<svg version="1.1" id="Capa_1" xmlns="http://www.w3.org/2000/svg" xmlns:xlink="http://www.w3.org/1999/xlink" x="0px" y="0px"
	 viewBox="0 0 538.3 512" style="enable-background:new 0 0 538.3 512;" xml:space="preserve">
<style type="text/css">
	.st0{fill:none;stroke:#fff;stroke-width:15;stroke-miterlimit:10;}
</style>
<path class="st0" d="M324.5,439.3l15.5-4c25.8-7.2,49.6-19.3,70.3-35.3c2.1-1.6,0.8-5-1.9-4.8c0,0-0.1,0-0.1,0
	c-86.9,8.2-164-54.8-173.6-141.2c-9.6-86.6,52.9-165.5,139.4-176c11.6-1.4,23.1-1.5,34.3-0.5c2.7,0.2,4-3.1,1.9-4.8
	c-34-26.2-76.4-42.1-122.4-42.8C173.7,28.2,78.2,121.9,78,236.1c-0.1,31,7.1,61.8,19.4,88.6"/>
<path class="st0" d="M303.9,436.9"/>
<path class="st0" d="M64.9,381.7c2.6-0.3,4.6-2.4,4.8-5c3.4-38.4,35.5-68.5,74.7-68.5c24.4,0,46.2,11.6,59.9,29.7
	c1.4,1.9,4,2.7,6.2,1.9c5-1.9,10.5-2.9,16.2-2.9c23.5,0,42.9,17.4,46,40c0.3,2.4,2.3,4.4,4.8,4.6c26.4,2.6,47.1,25,47.1,52.1
	c0,29-23.4,52.5-52.3,52.5l-201.7,0.2c-28.9,0-52.4-23.4-52.4-52.4C18,406.7,38.5,384.4,64.9,381.7z"/>
<path class="st0" d="M306.6,219.8c2.2-0.2,3.8-2,4-4.2c2.8-31.7,29.4-56.6,61.8-56.7c20.2,0,38.2,9.6,49.5,24.6
	c1.2,1.6,3.3,2.3,5.1,1.6c4.2-1.6,8.7-2.4,13.4-2.4c19.4,0,35.4,14.4,38,33.1c0.3,2,1.9,3.6,4,3.8c21.9,2.2,38.9,20.6,39,43.1
	c0,24-19.4,43.4-43.3,43.4l-166.8,0.2c-23.9,0-43.3-19.4-43.4-43.3C267.8,240.6,284.8,222.1,306.6,219.8z"/>
</svg>
