<?xml version="1.0" encoding="UTF-8"?>
<svg width="1500px" height="1500px" viewBox="0 0 1500 1500" version="1.1" xmlns="http://www.w3.org/2000/svg" xmlns:xlink="http://www.w3.org/1999/xlink">
    <!-- Generator: Sketch 51.2 (57519) - http://www.bohemiancoding.com/sketch -->
    <title>Group 26</title>
    <desc>Created with Sketch.</desc>
    <defs>
        <polygon id="path-1" points="0 728.15534 757.281553 728.15534 757.281553 0 0 0"></polygon>
    </defs>
    <g id="Website" stroke="none" stroke-width="1" fill="none" fill-rule="evenodd">
        <g id="Group-26">
            <g id="Group-25">
                <circle id="Oval-6" fill="#EF3E42" cx="750" cy="750" r="750"></circle>
                <g id="Group-24" transform="translate(378.640777, 393.203883)">
                    <g id="Group-23">
                        <g id="Group-17">
                            <path d="M456.735926,525.362302 C453.644068,525.639961 450.67302,526.418762 447.822783,527.698705 C444.968072,528.992192 442.54291,530.915492 440.542822,533.48215 C438.542734,536.05558 437.540453,539.638065 437.540453,544.222833 C437.540453,549.180071 438.932013,552.857367 441.728556,555.241176 C444.516151,557.624984 447.424556,558.816889 450.458246,558.816889 C453.12503,558.816889 455.706798,558.268342 458.190129,557.164476 C460.677934,556.067382 462.888322,554.50978 464.834716,552.484897 C466.767686,550.466786 468.315853,547.900129 469.470266,544.77138 C470.624679,541.656175 471.197411,537.985652 471.197411,533.759809 L471.197411,524.949198 L464.467809,524.949198 C462.405079,524.949198 459.827785,525.084642 456.735926,525.362302" id="Fill-1" fill="#FFFFFF"></path>
                            <mask id="mask-2" fill="white">
                                <use xlink:href="#path-1"></use>
                            </mask>
                            <g id="Clip-4"></g>
                            <rect id="Rectangle-16" fill="#FFFFFF" mask="url(#mask-2)" x="151.456311" y="372.544592" width="437.540453" height="270.941522"></rect>
                            <path d="M526.031167,560.550353 L557.066078,560.550353 L557.066078,401.909552 L526.031167,401.909552 L526.031167,560.550353 Z M506.178999,560.550353 L477.631968,560.550353 L477.631968,547.751746 L477.219865,547.751746 C473.770411,553.206636 469.181315,557.123629 463.462751,559.502725 C457.739099,561.881821 451.700011,563.068789 445.360748,563.068789 C440.669898,563.068789 436.157116,562.403055 431.807141,561.076747 C427.467341,559.75044 423.641398,557.753238 420.329312,555.095463 C417.017225,552.442848 414.397065,549.150303 412.463742,545.23331 C410.535508,541.316317 409.568846,536.774876 409.568846,531.593504 C409.568846,525.720595 410.637261,520.755974 412.779179,516.69448 C414.916009,512.638148 417.810905,509.283674 421.468954,506.625899 C425.121916,503.968123 429.293822,501.903832 433.984673,500.433024 C438.670435,498.962216 443.52918,497.883624 448.565993,497.181765 C453.597719,496.479906 458.634532,496.061887 463.666258,495.922547 C468.697984,495.783208 473.353221,495.710957 477.631968,495.710957 C477.631968,490.116727 475.663032,485.678501 471.735335,482.385956 C467.802551,479.103732 463.147314,477.45746 457.774713,477.45746 C452.671759,477.45746 448.016523,478.541213 443.809003,480.708719 C439.596395,482.881386 435.84168,485.848805 432.534681,489.626458 L415.984424,472.420589 C421.779303,466.965698 428.535756,462.873241 436.25887,460.143215 C443.981984,457.41835 451.979833,456.050757 460.252418,456.050757 C469.359384,456.050757 476.838289,457.20676 482.699308,459.513606 C488.560327,461.825613 493.251178,465.216211 496.766772,469.690563 C500.282366,474.170076 502.734633,479.661091 504.108309,486.163609 C505.492161,492.671288 506.178999,500.19047 506.178999,508.721154 L506.178999,560.550353 Z M349.26954,528.239031 C353.614428,532.997222 359.714568,535.371158 367.57505,535.371158 C371.024504,535.371158 373.990628,534.60737 376.473421,533.064312 C378.956214,531.526415 381.087956,529.704677 382.88391,527.609422 L403.361864,549.428983 C398.533646,554.465854 392.845608,558.000953 386.297751,560.029119 C379.749893,562.052125 373.502209,563.068789 367.57505,563.068789 C359.851936,563.068789 352.576539,561.814732 345.748858,559.291135 C338.921178,556.7727 332.994019,553.175672 327.962293,548.48973 C322.925479,543.798628 318.962169,538.173433 316.067273,531.593504 C313.172377,525.018736 311.722385,517.675019 311.722385,509.562353 C311.722385,501.449688 313.172377,494.105971 316.067273,487.531202 C318.962169,480.956434 322.925479,475.326079 327.962293,470.634977 C332.994019,465.949035 338.921178,462.346846 345.748858,459.828411 C352.576539,457.309975 359.851936,456.050757 367.57505,456.050757 C373.502209,456.050757 379.749893,457.067421 386.297751,459.095587 C392.845608,461.123753 398.533646,464.653692 403.361864,469.690563 L382.88391,491.515285 C381.362691,489.280689 379.225861,487.422827 376.473421,485.952019 C373.710805,484.486372 370.744681,483.753549 367.57505,483.753549 C359.714568,483.753549 353.614428,486.132645 349.26954,490.885676 C344.924653,495.643868 342.752209,501.867707 342.752209,509.562353 C342.752209,517.257 344.924653,523.480839 349.26954,528.239031 Z M265.175106,560.550353 L231.250386,508.932744 L230.833196,508.932744 L230.833196,560.550353 L199.80846,560.550353 L199.80846,401.914713 L230.833196,401.914713 L230.833196,498.859002 L265.175106,458.569193 L303.241205,458.569193 L263.313011,504.525482 L304.274006,560.550353 L265.175106,560.550353 Z M378.640777,75.0444769 C408.586922,75.0444769 433.542044,99.3463485 433.542044,130.733901 C433.542044,162.126613 408.586922,186.428485 378.640777,186.428485 C348.689543,186.428485 323.73951,162.126613 323.73951,130.733901 C323.73951,100.357851 347.697444,75.0444769 378.640777,75.0444769 Z M755.979509,700.81896 L601.252669,246.169081 C598.256019,238.066737 591.265533,233.004062 582.280672,233.004062 L461.493814,233.004062 C490.44786,208.70219 509.409682,170.223797 508.412495,128.710895 C506.413033,59.8512916 451.511766,3.1503651 383.631801,0.11069588 C309.763624,-2.92381261 248.869058,56.8167831 248.869058,131.750564 C248.869058,172.251963 266.833693,208.70219 295.787739,233.004062 L175.000882,233.004062 C167.013208,233.004062 159.025534,238.066737 156.028884,246.169081 L1.30204453,700.81896 C-3.68389203,713.978818 6.29306879,728.15534 20.2740419,728.15534 L737.007511,728.15534 C750.988485,727.143837 760.965445,713.978818 755.979509,700.81896 Z" id="Fill-3" fill="#FFFFFF" mask="url(#mask-2)"></path>
                        </g>
                    </g>
                    <path d="M242.083495,467.308738 L278.883495,417.708738 C280.750161,415.175404 282.950161,413.908738 285.483495,413.908738 L305.083495,413.908738 C306.816829,413.908738 307.983495,414.508738 308.583495,415.708738 C309.183495,416.908738 308.950161,418.175404 307.883495,419.508738 L263.083495,478.908738 L309.083495,548.908738 C310.150161,550.375404 310.383495,551.708738 309.783495,552.908738 C309.183495,554.108738 308.016829,554.708738 306.283495,554.708738 L286.283495,554.708738 C283.616829,554.708738 281.483495,553.242072 279.883495,550.308738 L242.083495,492.308738 L242.083495,549.908738 C242.083495,553.108738 240.483495,554.708738 237.283495,554.708738 L220.483495,554.708738 C217.283495,554.708738 215.683495,553.108738 215.683495,549.908738 L215.683495,418.508738 C215.683495,415.442072 217.283495,413.908738 220.483495,413.908738 L237.283495,413.908738 C240.483495,413.908738 242.083495,415.442072 242.083495,418.508738 L242.083495,467.308738 Z M316.483495,500.908738 C316.483495,482.375404 320.316829,468.508738 327.983495,459.308738 C335.650161,450.108738 346.683495,445.508738 361.083495,445.508738 C370.950161,445.508738 378.816829,446.975404 384.683495,449.908738 C387.483495,451.242072 388.550161,453.108738 387.883495,455.508738 L384.683495,467.108738 C384.016829,469.775404 382.083495,470.575404 378.883495,469.508738 C374.083495,467.908738 369.416829,467.108738 364.883495,467.108738 C356.883495,467.108738 351.016829,469.742072 347.283495,475.008738 C343.550161,480.275404 341.683495,488.908738 341.683495,500.908738 C341.683495,512.908738 343.550161,521.608738 347.283495,527.008738 C351.016829,532.408738 356.750161,535.108738 364.483495,535.108738 C369.416829,535.108738 374.616829,534.108738 380.083495,532.108738 C383.016829,531.042072 384.816829,531.842072 385.483495,534.508738 L388.483495,546.308738 C389.016829,548.575404 387.950161,550.375404 385.283495,551.708738 C379.150161,554.908738 371.483495,556.508738 362.283495,556.508738 C331.750161,556.508738 316.483495,537.975404 316.483495,500.908738 Z M481.083495,480.308738 L481.083495,550.308738 C481.083495,553.242072 479.616829,554.708738 476.683495,554.708738 L463.483495,554.708738 C460.683495,554.708738 459.150161,553.442072 458.883495,550.908738 L458.283495,541.708738 C452.683495,551.308738 442.950161,556.108738 429.083495,556.108738 C419.883495,556.108738 412.650161,553.408738 407.383495,548.008738 C402.116829,542.608738 399.483495,534.908738 399.483495,524.908738 C399.483495,519.175404 400.416829,514.175404 402.283495,509.908738 C404.150161,505.642072 406.650161,502.208738 409.783495,499.608738 C412.916829,497.008738 417.050161,494.908738 422.183495,493.308738 C427.316829,491.708738 432.583495,490.575404 437.983495,489.908738 C443.383495,489.242072 449.816829,488.842072 457.283495,488.708738 L457.283495,482.108738 C457.283495,476.508738 455.883495,472.442072 453.083495,469.908738 C450.283495,467.375404 445.616829,466.108738 439.083495,466.108738 C431.616829,466.108738 423.216829,467.775404 413.883495,471.108738 C411.083495,472.042072 409.350161,471.042072 408.683495,468.108738 L406.483495,456.508738 C405.950161,454.108738 406.950161,452.375404 409.483495,451.308738 C418.150161,447.575404 429.083495,445.708738 442.283495,445.708738 C455.750161,445.708738 465.583495,448.542072 471.783495,454.208738 C477.983495,459.875404 481.083495,468.575404 481.083495,480.308738 Z M457.283495,515.708738 L457.283495,504.308738 C445.416829,504.708738 436.750161,506.175404 431.283495,508.708738 C425.816829,511.242072 423.083495,516.175404 423.083495,523.508738 C423.083495,533.242072 427.616829,538.108738 436.683495,538.108738 C443.350161,538.108738 448.450161,536.008738 451.983495,531.808738 C455.516829,527.608738 457.283495,522.242072 457.283495,515.708738 Z M526.883495,418.108738 L526.883495,550.308738 C526.883495,553.242072 525.416829,554.708738 522.483495,554.708738 L506.683495,554.708738 C503.750161,554.708738 502.283495,553.242072 502.283495,550.308738 L502.283495,418.108738 C502.283495,415.308738 503.750161,413.908738 506.683495,413.908738 L522.483495,413.908738 C525.416829,413.908738 526.883495,415.308738 526.883495,418.108738 Z" id="Kcal" fill="#EF3E42"></path>
                </g>
            </g>
        </g>
    </g>
</svg>