<svg id="Capa_1" data-name="Capa 1" xmlns="http://www.w3.org/2000/svg" viewBox="0 0 1500 1500"><defs><style>.cls-1{fill:#d6312d;}.cls-2{fill:#fff;}</style></defs><title>LogoSinDelantal</title><g id="adomicilio"><g id="Menu_platillo_pedido_choose" data-name="Menu platillo pedido choose"><g id="Group-6"><circle id="Oval-Copy" class="cls-1" cx="749.6" cy="749.52" r="735.48"/><g id="sindelantal"><path id="Shape" class="cls-2" d="M957.66,300.65c26.73,8.36,48,21.09,57.84,44.67,7.28,17.41,5,33.4-6.41,48.69-5.9,7.87-12.17,15.69-19.66,22.51-36.09,32.87-9.37,80.43,37.17,86.71C1006.14,514,948,513,929.28,501.46c-17.72-10.84-20.67-25.36-5.4-41.76,14.41-15.4,31.76-28.91,47.25-43.72,16.07-15.28,31.19-31.21,28.67-53.37-2.16-19.13-25.07-32.4-45.16-26.36-14.7,4.45-17.36,12.32-7,26,1.22-4.62,2.16-8,3-11.26,12,.77,20.31,19.31,10.58,27.9-7.34,6.46-19.44,11.91-30,12.74-20.6,1.54-52.23-20.32-56-35.72-5.84-23.7,6.48-41.82,34.93-51.53,3.39-1.13,6.63-2.49,9.94-3.79Q938.86,300.67,957.66,300.65Z"/><path id="Shape-2" data-name="Shape" class="cls-2" d="M395.61,471.31c-8.41-28.67-2.78-53.34,27.29-69.77,28.25-15.5,56.64-12,81.74,2.83,12.8-8.06,23.7-17.53,37-22.76,27.8-10.89,60.73-1.67,77.19,19.5,15.58,20.06,12.44,51.44-9.37,67.74-9.8,7.32-10.24,13.42-5.85,21.91q30,58.41,60.07,117.21c-13,3.93-29.48,9-47,14.27q-16.47-18.36-32.93-36.67l-3.07,1.48c8.85,13,17.7,26,27,39.68-8.35,4.55-15.66,8.56-24.3,13.29C573,628.64,563,617.63,553,606.61l-3.73,2c8.34,12.06,16.61,24.18,25,36.37-13.83,12.49-27.07,24.48-41.63,37.65-19.25-20.43-38.27-40.79-57.59-60.85-13.17-13.66-26.56-27.26-40.75-40.18-3.3-3-10.47-4.92-15.3-4.3-39.87,5-71.12-11-78.51-40.74C332.91,505.77,352.81,481.4,395.61,471.31Z"/><path id="Shape-3" data-name="Shape" class="cls-2" d="M816.46,596.59c32.57-13.07,63.47-26.58,95.31-38,47-16.83,94.73-32.06,141.7-47.87,29.46,44.49-1.37,114.47-59.49,140.16C927,680.53,845.34,656.44,816.46,596.59Z"/><path id="Shape-4" data-name="Shape" class="cls-2" d="M931.08,1190.79a1739.07,1739.07,0,0,1-324.76.12C637.65,1175.61,898.84,1175.41,931.08,1190.79Z"/><path id="Shape-5" data-name="Shape" class="cls-2" d="M858.42,456.73c-5.26,3.81-10.74,10.74-14.81,10.1-7.3-1.08-16-5.34-20.07-10.8-10.95-14.62-8.64-35.79,3.09-47.93S860,392.59,876.81,400c17.06,7.5,30.53,28.22,26.32,45.39-2.8,11.5-10,22.25-16.21,32.86-4.56,7.76-11.23,14.5-16.14,22.06-12.71,19.77-7.52,31.47,16.84,38.53,6.81,2,13.9,3.17,24.36,5.53-21.55,7.37-39.17,6-54-4.71-13.27-9.53-13.69-23.84-9.62-37.95,3.44-11.7,8.15-23.14,11-35a45.37,45.37,0,0,0,.27-21c-.7-2.67-8.21-4.58-12.91-5.28-1.19-.19-3.44,5.72-5.26,8.84C845.44,451,849.3,452.72,858.42,456.73Z"/><path id="Shape-6" data-name="Shape" class="cls-2" d="M837.65,587.14c4-23.3-2.3-37.34-19.63-41.84-5.39-1.38-12.27,1.37-20.9,2.54,10,4.64,14.64,6.79,19.23,8.88-5,5.81-8.47,14.62-15.2,16.84-15.36,5.1-34-6.26-40-21.93-6.17-16.19,2.14-32,20-37.93C812,503.38,849,521.14,853.8,549,856.25,563.18,854.27,576.7,837.65,587.14Z"/><path id="Shape-7" data-name="Shape" class="cls-2" d="M578.33,814.75c-5.68-8.88-11.81-17.64-18-26.86,8.45-4.52,15.55-8.35,23-12.41-6-8.82-11.29-16.65-16.9-24.89-8.45,3-15.47,5.52-25.05,9-7.84-11.31-14.5-22.16-22.65-32.31-15.1-18.68-36.86-28.13-65.64-24.88-27.59,3.07-46.58,15.25-53.91,36.25-7.4,21.28-1.57,41.29,22.51,53.65,14.95,7.66,34.39,10,51.43,14.67.9-1.1,0,.18-1.12,1.4-22.05,24.3-20.63,51.74,3.67,70.12,22.35,16.94,58.76,19.09,84.18,5.11C587.75,868.17,595.08,840.85,578.33,814.75ZM471,764.46c-7.71,3-17.05.64-21-5.34s-.83-13.22,6.88-16.3,17-.63,21,5.34S478.59,761.44,471,764.46Zm58.46,87.76c-7.7,3-17,.63-21-5.34s-.82-13.22,6.88-16.3,17.05-.64,21,5.34S537.13,849.2,529.43,852.22Z"/><path id="Shape-8" data-name="Shape" class="cls-2" d="M1157.81,614.64c-7,2.67-14,5.1-20.75,7.9-91.68,38-186.47,70-286.31,91.59A73.46,73.46,0,0,1,817.62,713c-33.72-9.56-67.22-13-102.2-5.17-11.71,2.62-23.94,5.11-36,5.29-14.6.18-29.2-2.14-47.88-3.68,13.72-10.75,21.42-14.38,33.13-4.4,9.49,8,19.79,3,20.76-5.52-7.71-4-13-7.9-19.42-9.74-8.23-2.38-17.2-3.15-25.87-4.34s-20.16.24-25.12-3.68c-5.41-4.34-4.67-13.55-6.6-20.67,43.28,24.29,87.23,27.32,129,23.4,3.71-8.79,5-14.85,8.53-19.9,9.93-14,3.18-31.24-15-30.77-19.94.54-29.43-8.55-38-19.07-7.79-9.44-15.57-10.86-26.91-5-35.13,18-70.18,36-105.54,53.69-16.15,8.08-16.82,15.56-5,28.1,59.29,63.26,91.24,135.84,108.88,212.83,5.71,24.88,8.3,50.25-3.49,74.78-13.56,28.21-50.32,35.34-77.74,14.73-10.08-7.6-18-17-27-25.66-6.89,4.39-13.34,8.55-20.9,13.43-16.68-13.79-33.21-27.33-50.1-41.29-3.19,1.61-6.08,2.73-8.45,4.34-8.75,5.94-17.35,12.11-26.16,18.29,3.85,5.23,7.26,9.8,10.82,14.61-63.15,14.56-77.16,33.8-55.74,74.67,3.34,6.36,4.89,14.38,18.31,11.17,10.67-2.56,21.05-3.09,19.64-16-.74-6.77,2.59-14.32,6.15-20.79,6.6-12.12,15.12-14,33-8.32l-22.16,14.61c31.5,14.32,58.11,29.29,87.38,39.21,73.15,24.71,138.59,1.42,167.13-58,10.3-21.45,18.23-43.6,26-62.31,5,2.31,10.67,6.59,17.2,7.6,35.13,5.76,66.11,17.76,90.19,39,17.2,15.15,32.24,31.84,48.84,48.35,4.45-2.13,10.31-4.87,16.68-7.9,15.71,15.39,30.61,29.94,45.88,44.91,13-7.6,24.31-14.26,36.24-21.21-3.63-5.64-6.75-10.57-10.16-15.86,2.75-.65,4.45-1.3,6.23-1.42,56.85-3.68,78-31.78,54.92-73.77-1.78-3.27-8.67-6.18-13.56-6.78-16-1.9-22,4.22-23.42,17.41-2.38,21.8-16.83,30-37.8,23.46,6.52-4.33,12.75-8.49,19.71-13.13-24.68-39.32-60.47-66.64-115.47-76.2,27.5-32.62,39-67.19,34.24-105.08-1-7.78-2.44-13.19-15.86-12.65-28.16,1.12-56.4.35-84.64.35,43.44-6.53,86.72-10.39,130.08-13.54,20.08-1.49,34.46-6,32.53-25.54-.67-6.89,2.15-14,3-19.19,6.82,0,13,1.25,18.16-.18,34.16-9.5,54.69-28.33,58.1-57.67,1-8.62,5-13.37,15.27-17.05,27-9.62,53.29-20.61,80-31C1157.59,630.67,1164.18,625.57,1157.81,614.64ZM673.62,627.05a13.53,13.53,0,0,1,2.74.3,8.18,8.18,0,0,0-2.74,5.94c0,4.39,3.78,8,8.89,9a12.62,12.62,0,0,1-8.89,3.38c-6.37,0-11.63-4.16-11.63-9.32S667.25,627.05,673.62,627.05Z"/></g></g></g></g></svg>