<?xml version="1.0" encoding="UTF-8"?>
<svg width="106px" height="79px" viewBox="0 0 106 79" version="1.1" xmlns="http://www.w3.org/2000/svg" xmlns:xlink="http://www.w3.org/1999/xlink">
    <!-- Generator: Sketch 51.3 (57544) - http://www.bohemiancoding.com/sketch -->
    <title>LOGO_VIPS</title>
    <desc>Created with Sketch.</desc>
    <defs></defs>
    <g id="V2" stroke="none" stroke-width="1" fill="none" fill-rule="evenodd">
        <g id="New-home-desktop" transform="translate(-86.000000, -24.000000)">
            <g id="LOGO_VIPS" transform="translate(86.000000, 24.000000)">
                <path d="M105.087217,25.3596809 C110.467847,45.6076358 91.5093823,68.2262726 62.7414654,75.8726932 C33.9735486,83.5191138 6.29341249,73.3076931 0.912782531,53.0597382 C-4.46784743,32.8117833 14.4906177,10.1931465 43.2585346,2.53700998 C72.0167391,-5.10941062 99.7065875,5.11172594 105.087217,25.3596809" id="Shape" fill="#ED1C2C" fill-rule="nonzero"></path>
                <rect id="Rectangle-path" x="0" y="0" width="106" height="78.4109589"></rect>
                <polygon id="Shape" fill="#FFFFFF" fill-rule="nonzero" points="29.3071392 40.1750145 33.7390356 30.4931507 41.1415525 30.4931507 31.4125303 49.369863 27.201748 49.369863 17.4246575 30.4931507 24.8367881 30.4931507"></polygon>
                <path d="M45.9817352,31.681468 C44.701338,31.681468 43.5292821,31.2236736 42.5936073,30.4931507 L42.5936073,49.369863 L49.369863,49.369863 L49.369863,30.4931507 C48.4341882,31.2236736 47.2621323,31.681468 45.9817352,31.681468" id="Shape" fill="#FFFFFF" fill-rule="nonzero"></path>
                <path d="M50.3378995,25.1689498 C50.3378995,27.5556234 48.3781107,29.5251142 45.9817352,29.5251142 C43.5950616,29.5251142 41.6255708,27.5653253 41.6255708,25.1689498 C41.6255708,22.7822762 43.5853597,20.8127854 45.9817352,20.8127854 C48.3684087,20.8224873 50.3378995,22.7822762 50.3378995,25.1689498" id="Shape" fill="#FDD900" fill-rule="nonzero"></path>
                <path d="M84.4756712,37.414893 C83.5503835,37.2323905 81.4241906,37.0498879 81.4241906,35.7819756 C81.4241906,34.8406468 82.7629047,34.5140633 83.5503835,34.5140633 C84.7020714,34.5140633 86.1490638,34.8790684 87.1924733,35.4169706 L89.4564751,31.209807 C87.4877779,30.3357159 85.3320545,30.0091324 83.1763311,30.0091324 C79.0125365,30.0091324 74.7699941,32.0454764 74.7699941,36.6176451 C74.7699941,39.960323 76.8863436,40.9688897 79.0125365,41.5163972 C81.128886,42.0639048 83.2550789,42.1311426 83.2550789,43.5815575 C83.2550789,44.5997295 81.9951127,44.9935507 81.1387295,44.9935507 C79.2290932,44.9935507 76.7091608,43.7448492 75.3310728,42.7843096 C74.9373333,44.5420971 74.1793849,46.1654091 73.086758,47.5581916 C75.518099,49.0854496 78.3628664,49.8538813 81.0304511,49.8538813 C85.4600198,49.8538813 90.0273973,47.8175373 90.0273973,42.9187851 C90.0175538,39.4896586 87.6354302,38.0392438 84.4756712,37.414893" id="Shape" fill="#FFFFFF" fill-rule="nonzero"></path>
                <path d="M62.5454399,44.7204184 C60.174607,44.7204184 58.2181881,42.7445675 58.2181881,40.3285518 C58.2181881,37.9223175 60.1649695,35.9366852 62.5454399,35.9366852 C64.9162727,35.9366852 66.8726916,37.9125361 66.8726916,40.3285518 C66.8726916,42.7445675 64.9162727,44.7204184 62.5454399,44.7204184 M64.1356326,30.0091324 C61.9479129,30.0091324 59.6927304,30.8992435 58.488039,32.77728 L58.4205762,32.77728 L58.4205762,30.6351446 L51.7899543,30.6351446 L51.7899543,59.0502283 L58.4205762,59.0502283 L58.4205762,47.7820092 C59.8372934,49.4448541 62.0635633,50.2175878 64.2127329,50.2175878 C69.7446761,50.2175878 73.5707763,45.6398738 73.5707763,40.1622673 C73.5611387,34.733568 69.706126,30.0091324 64.1356326,30.0091324" id="Shape" fill="#FFFFFF" fill-rule="nonzero"></path>
                <path d="M94.1462772,31.4360303 C94.6848919,31.4360303 94.8644301,31.3253401 94.8644301,30.9731438 C94.8644301,30.6410731 94.6754425,30.5102574 94.1935241,30.5102574 L93.7210551,30.5102574 L93.7210551,31.4460931 L94.1462772,31.4460931 L94.1462772,31.4360303 Z M93.2391367,30.1781866 C93.2391367,30.0976846 93.2769342,30.0674964 93.3430799,30.0674964 L94.2596698,30.0674964 C94.9400252,30.0674964 95.3368991,30.3995671 95.3368991,30.9731438 C95.3368991,31.5064696 95.0534177,31.7379128 94.6848919,31.7982893 L95.3180004,32.6636858 C95.3557979,32.7139996 95.3180004,32.7743761 95.2518547,32.7743761 L94.9022276,32.7743761 C94.8549807,32.7743761 94.8266326,32.7643133 94.7888351,32.7039368 L94.1840747,31.8586658 L93.7210551,31.8586658 L93.7210551,32.6838113 C93.7210551,32.7542506 93.6927069,32.7743761 93.6265613,32.7743761 L93.3430799,32.7743761 C93.2769342,32.7743761 93.2391367,32.7441878 93.2391367,32.6838113 L93.2391367,30.1781866 Z M95.9227607,31.4561558 C95.9227607,30.3693789 95.4502917,29.4436059 94.1462772,29.4436059 C92.8328133,29.4436059 92.3697937,30.3794416 92.3697937,31.4561558 C92.3697937,32.5529956 92.8328133,33.4687058 94.1462772,33.4687058 C95.4408423,33.4687058 95.9227607,32.5429328 95.9227607,31.4561558 Z M96.3196347,31.4561558 C96.3196347,32.7341251 95.705425,33.8812785 94.1462772,33.8812785 C92.6060282,33.8812785 91.9634703,32.7341251 91.9634703,31.4561558 C91.9634703,30.1781866 92.6060282,29.0410959 94.1462772,29.0410959 C95.6959756,29.0410959 96.3196347,30.1781866 96.3196347,31.4561558 Z" id="Shape" fill="#FFFFFF" fill-rule="nonzero"></path>
                <path d="M94.1462772,31.4360303 C94.6848919,31.4360303 94.8644301,31.3253401 94.8644301,30.9731438 C94.8644301,30.6410731 94.6754425,30.5102574 94.1935241,30.5102574 L93.7210551,30.5102574 L93.7210551,31.4460931 L94.1462772,31.4460931 L94.1462772,31.4360303 Z M93.2391367,30.1781866 C93.2391367,30.0976846 93.2769342,30.0674964 93.3430799,30.0674964 L94.2596698,30.0674964 C94.9400252,30.0674964 95.3368991,30.3995671 95.3368991,30.9731438 C95.3368991,31.5064696 95.0534177,31.7379128 94.6848919,31.7982893 L95.3180004,32.6636858 C95.3557979,32.7139996 95.3180004,32.7743761 95.2518547,32.7743761 L94.9022276,32.7743761 C94.8549807,32.7743761 94.8266326,32.7643133 94.7888351,32.7039368 L94.1840747,31.8586658 L93.7210551,31.8586658 L93.7210551,32.6838113 C93.7210551,32.7542506 93.6927069,32.7743761 93.6265613,32.7743761 L93.3430799,32.7743761 C93.2769342,32.7743761 93.2391367,32.7441878 93.2391367,32.6838113 L93.2391367,30.1781866 Z M95.9227607,31.4561558 C95.9227607,30.3693789 95.4502917,29.4436059 94.1462772,29.4436059 C92.8328133,29.4436059 92.3697937,30.3794416 92.3697937,31.4561558 C92.3697937,32.5529956 92.8328133,33.4687058 94.1462772,33.4687058 C95.4408423,33.4687058 95.9227607,32.5429328 95.9227607,31.4561558 Z M96.3196347,31.4561558 C96.3196347,32.7341251 95.705425,33.8812785 94.1462772,33.8812785 C92.6060282,33.8812785 91.9634703,32.7341251 91.9634703,31.4561558 C91.9634703,30.1781866 92.6060282,29.0410959 94.1462772,29.0410959 C95.6959756,29.0410959 96.3196347,30.1781866 96.3196347,31.4561558 Z" id="Shape" stroke="#FFFFFF" stroke-width="0.161"></path>
            </g>
        </g>
    </g>
</svg>