<svg id="Capa_1" data-name="Capa 1" xmlns="http://www.w3.org/2000/svg" viewBox="0 0 1500 1500"><defs><style>.cls-1{fill:#ec614f;}.cls-2{fill:#fff;}</style></defs><title>LogoRappi</title><g id="adomicilio"><g id="Menu_platillo_pedido_choose" data-name="Menu platillo pedido choose"><g id="Group-9"><ellipse id="Oval" class="cls-1" cx="750.17" cy="749.55" rx="734.92" ry="738.45"/><g id="rappi"><path id="Shape" class="cls-2" d="M982.53,1123.31c6.85-.71,13.7-1.29,20.55-2.13a197.78,197.78,0,0,0,44.3-10.77,206.09,206.09,0,0,0,75.16-47.65c20.23-20,36-43.21,48.66-68.62a258.77,258.77,0,0,0,21.38-61.71c.58-2.71,1-5.42,1.54-8.06-3.84,2.84-7.17,5.93-10.56,9a158.1,158.1,0,0,1-26.7,19.87c-11,6.38-22.73,10.7-35.41,11.86a74.8,74.8,0,0,1-30.4-3.68,119.48,119.48,0,0,1-31-15.79c-14.6-10.07-27.73-21.93-40.91-33.73C1004.68,899,990,886.52,974.34,875.3c-12.36-8.84-25.1-17.09-39.06-23.22a101.39,101.39,0,0,0-54-8,107.21,107.21,0,0,0-33.16,10.26c-11.27,5.48-21.51,12.57-31.43,20.18-11.53,8.84-22.67,18.12-34,27.21-2.56,2.07-5.06,4.2-7.68,6.2-4.48,3.48-7.81,3.48-12.36.19-.89-.65-1.79-1.42-2.69-2.13-4.28-3.55-8.57-7.09-12.86-10.58-14.54-12-29.13-23.85-45-34-15-9.54-31.18-16.12-49-17.8a97.38,97.38,0,0,0-38.22,3.68c-13.31,4.13-25.48,10.45-37.19,18-20,12.83-38.29,27.79-56.09,43.53-12,10.64-24.26,21.22-36.81,31.28A120.34,120.34,0,0,1,446,961.45a75.28,75.28,0,0,1-35.47,2.84c-12.23-2-23.37-6.9-33.81-13.48a171.87,171.87,0,0,1-26.12-20.57c-2.24-2.13-4.54-4.07-6.84-6.13a112.51,112.51,0,0,0,2.56,14.7c1.66,6.52,3.39,13,5.44,19.42a268,268,0,0,0,34.12,69.58,232.68,232.68,0,0,0,36,41.66,208.06,208.06,0,0,0,126.38,53.26H579a242.16,242.16,0,0,0,117.6-39.34c30.61-20.44,54.87-46.62,70-80.67.39-.84.83-1.61,1.28-2.39.07-.19.39-.25,1-.57a33.18,33.18,0,0,1,1.86,3.35,173.14,173.14,0,0,0,32.07,48.36,210.63,210.63,0,0,0,48.79,38.82,239.68,239.68,0,0,0,70.17,27.35c9.15,2,18.43,3.09,27.72,4.38,5.37.71,10.75,1,16.19,1.55Z"/><path id="Shape-2" data-name="Shape" class="cls-2" d="M264.6,492.44a10,10,0,0,0,1.47-3c2.05-12.64,7.56-23.86,14.47-34.3,11.65-17.74,26.83-31.93,44.69-43.21a181.18,181.18,0,0,1,43.28-20.18,184.69,184.69,0,0,1,64.34-6.91c24.39,1.62,47.76,7.1,68.95,20.19,12,7.41,22.09,17,29.26,29.41A54.43,54.43,0,0,1,538,455.75c2.88,25.6-5.06,47.78-20.74,67.58-11.46,14.44-25.67,25.53-41.55,34.69a230.69,230.69,0,0,1-41.87,18.44c-3.46,1.17-3.84,1.75-3.59,5.42a323.65,323.65,0,0,0,4.48,38.31c3.4,17.86,8.58,35.14,17.23,51.2,7.68,14.31,17.41,26.82,31.17,35.85a64.36,64.36,0,0,0,28,10.39A77,77,0,0,0,544.89,714a110.07,110.07,0,0,0,20.1-9c2.88-1.67,5.82-2.71,9.34-1.55,6.41,2.07,10.89,11.22,4.23,17.61a174,174,0,0,1-15.43,12.83c-15.75,11.93-32.65,21.67-51.6,27.41-11.91,3.61-24.07,5.42-36.43,4.38A86,86,0,0,1,427,746.39c-12.55-10.13-22.15-22.7-29.7-36.89-10.06-19-16.26-39.21-19.85-60.36-1.09-6.25-1.79-12.64-2.69-18.89a3.53,3.53,0,0,0-.32-1.68c-.58-.77-1.28-1.68-2-1.87-.57-.13-1.47.77-2,1.42a5.73,5.73,0,0,0-.71,1.93q-6.62,26.51-13.18,53c-.39,1.55-.58,3.1-.9,4.71-1.28,6.38-5.32,10.19-11.46,11.67a35,35,0,0,1-18.05-.58,45,45,0,0,1-22.41-14.44,26.8,26.8,0,0,1-6.28-17c-.25-7.09,1-14.05,2.31-21,4-20.83,9.67-41.21,15.94-61.39,10-32.31,21.19-64.17,33.93-95.44,4.74-11.68,9.92-23.22,15.05-34.76,2.75-6.13,7.68-9.74,14.15-11.09a70.69,70.69,0,0,1,8.38-1c3-.26,6.08-.58,9.16-.58a82.42,82.42,0,0,1,9.79.58c4.93.58,9.86,1,14.73,2.06,7.81,1.74,11.2,8.58,7.94,15.93-9.93,22.38-18.89,45.14-27.28,68.1-2.37,6.51-4.67,13-7,19.6a11,11,0,0,0-.58,1.94c-.44,2.38.84,3.67,3.08,2.7a94.15,94.15,0,0,0,9.09-4.57c18.82-10.52,34.7-24.25,46.48-42.5,6.08-9.41,10.75-19.54,12.86-30.63A78.67,78.67,0,0,0,466,447c-2.82-16.06-12.48-25.54-27.66-29.8-9.73-2.71-19.59-2.64-29.57-1.74-18.19,1.61-33.49,9.67-47.51,20.77A131.93,131.93,0,0,0,317,499.92,65.22,65.22,0,0,0,313.45,520c0,8-5.38,12.38-12.42,13.15a27.5,27.5,0,0,1-20.62-6.06,36.76,36.76,0,0,1-14.14-24.82,19.2,19.2,0,0,0-1.6-4.33C264.6,496.05,264.6,494.24,264.6,492.44Z"/><path id="Shape-3" data-name="Shape" class="cls-2" d="M1223,422.73a11.44,11.44,0,0,0-1,2.45,41.81,41.81,0,0,1-34.25,34.76c-23.37,3.87-44.49-12.13-48.14-35-3.72-23.22,12.61-45.46,36.11-48.43a13.11,13.11,0,0,0,2.49-.9h5.44a12.68,12.68,0,0,0,2.44.9,42.13,42.13,0,0,1,36,34.95,12.19,12.19,0,0,0,1,2.45C1223,416.8,1223,419.76,1223,422.73Z"/><path id="Shape-4" data-name="Shape" class="cls-2" d="M650.39,499.73c2.56-1.1,3.07-3,4-4.52,3.46-5.87,7.94-10.51,14.41-13a36.49,36.49,0,0,1,12.61-2.06,36.91,36.91,0,0,1,18.31,4.12,28,28,0,0,1,8.83,7.35,14.31,14.31,0,0,1,2.18,15.1c-3.08,7.48-6.4,14.83-9.6,22.24-9,21.22-17.93,42.56-25,64.55-2.82,8.77-5.25,17.67-6.15,26.89a51,51,0,0,0,.19,10.84c.52,3.87,2.63,5,6.34,3.48a25.16,25.16,0,0,0,5.83-3.35,87.06,87.06,0,0,0,29.06-41.53c9.16-27.35,19.27-54.43,30.6-81,2-4.7,4.1-9.41,6.28-14,4-8.58,11.2-13.09,20.17-14.32,10.43-1.48,20.29.52,28.74,7.35a33.75,33.75,0,0,1,4.29,4.33c2,2.25,2.18,2.25,4.61.32,5.7-4.45,11.33-9.1,17.35-13.09,10.75-7.16,22.86-9.74,35.6-8.58,10.94,1,19.65,6.38,26.05,15.41,5.76,8.06,8.58,17.22,9.73,27,2.24,18.51-.19,36.57-5.06,54.36a271,271,0,0,1-19.2,50.3,215.7,215.7,0,0,1-18.18,29.6,31.31,31.31,0,0,0-1.92,2.84c-.2.39-.26,1.35,0,1.55a2.7,2.7,0,0,0,1.79.32,2.59,2.59,0,0,0,1.21-.58c13.58-8.06,25.93-17.47,34.64-31A90.33,90.33,0,0,0,898,599.81c10.11-30.7,21.13-61.07,33.87-90.73,1.92-4.52,3.9-9,5.95-13.42,4.42-9.67,12.23-14.25,22.41-15.22a37.55,37.55,0,0,1,20.16,3.29,31.85,31.85,0,0,1,10.7,8.19c2.3,2.84,2.43,2.65,5.37.33,4.87-3.87,9.67-7.87,14.79-11.42a55.43,55.43,0,0,1,37.58-9.87c10.76,1,19.46,6.26,25.93,15,5,6.83,7.75,14.64,9.28,22.89a106.36,106.36,0,0,1,1,29.28c-2.17,24.7-10.18,47.72-20,70.23a206.46,206.46,0,0,1-23.3,40c-.77,1-2.63,2.25-1.16,3.74,1.22,1.22,2.56-.26,3.59-.91,9.92-6.06,19.27-12.76,27.27-21.28,9.67-10.31,15.94-22.5,19.78-36.11a480.1,480.1,0,0,1,26-71.06c4.35-9.42,9-18.64,13.89-27.73,5.18-9.68,13.64-14.19,24.39-14.71,6.27-.32,12.42.2,18.25,2.78a29.14,29.14,0,0,1,10.82,8c3.84,4.65,5,9.81,2.68,15.61-2.49,6-5.12,11.93-7.68,17.86-9.92,23-19.72,46-27.14,69.91a208.47,208.47,0,0,0-5.57,23.53c-.77,4.07-.51,8.39-.32,12.58s2.75,5.87,6.72,4.13a30.17,30.17,0,0,0,7.11-4.58,156.36,156.36,0,0,0,25.35-27.86c2.82-3.87,5.57-7.74,8.32-11.67a11,11,0,0,1,10.12-5.1c8.26.32,12.67,8.26,8.19,15.22-6.47,10-13,20-19.91,29.73a248.24,248.24,0,0,1-28.1,33.27c-8.78,8.71-18.12,16.84-28.81,23.22a55.46,55.46,0,0,1-26.7,8c-13.06.45-23.5-7.23-27-20.06-1.22-4.58-1.54-9.41-2.24-14.12-.2-1.23,0-2.52-.13-3.74-.32-2.65-1.86-3.36-4-1.94-1.47,1-2.88,2.2-4.29,3.36a192.32,192.32,0,0,1-53.14,29.08,116.33,116.33,0,0,1-35.08,7c-5.06.2-10.18.65-15.24.52a67.54,67.54,0,0,1-12.42-1.35,26.86,26.86,0,0,1-18-12.32c-.89-1.35-1.41-3.48-3.58-3s-2,2.51-2.5,4.13c-5,17.73-10.18,35.4-14.85,53.26-3.52,13.41-6.47,27-9.54,40.5-1.54,6.64-5.76,10.64-12.29,12-5.19,1.1-10.12.26-15-1.22a38.31,38.31,0,0,1-18.44-12.25c-6.34-7.49-8.71-16.19-6.47-25.8q4.8-20.79,10.18-41.4c3.2-12.12,6.85-24,10.31-36.11a36.48,36.48,0,0,0,1.21-4.65c.32-2.19-1.15-3.22-3.13-2.38a9.9,9.9,0,0,0-1.73,1.1,200,200,0,0,1-41.93,21.47A125,125,0,0,1,801,693.7a148.86,148.86,0,0,1-23.31,1.23,80.32,80.32,0,0,1-12.42-1.42,26.87,26.87,0,0,1-17.92-12.45c-.84-1.29-1.41-3.16-3.4-2.9s-2.11,2.19-2.56,3.68c-6.72,24.56-13.5,49.14-20.1,73.7-1.66,6.13-2.82,12.45-4,18.7-2,10.58-8.13,14.84-19.33,14.26s-20.49-6-27.66-14.77a28.24,28.24,0,0,1-5.63-25.09c3.13-14,6.66-27.85,10.3-41.72,2.95-11.09,6.28-22.12,9.42-33.15.19-.64.32-1.35.51-2a2.29,2.29,0,0,0-.9-3c-1.21-.77-2.11-.06-3,.65-5.44,4.44-10.69,9.15-16.32,13.34A58.76,58.76,0,0,1,639.83,694a40.84,40.84,0,0,1-15.11.07c-9.54-1.87-15.5-7.93-18.89-16.83-.38-1-.7-2.2-1.15-3.23-1.66-3.8-5.44-4.71-8.58-2s-6,5.61-9.15,8.13c-9.16,7.16-19.4,12.19-30.93,13.93-11.26,1.74-22.08.38-31.69-6.45-7.17-5.09-12-12-15.43-20a76.65,76.65,0,0,1-5.57-23.8c-1.85-20.37,1.54-40.17,7-59.65a251.33,251.33,0,0,1,23.63-57.26c10.75-18.64,24.84-34.12,43.27-45.27,9.29-5.61,19.27-9.61,30.09-10.83a48.76,48.76,0,0,1,17.55.83c11.9,3.16,19.59,10.84,23.36,22.57A55,55,0,0,1,650.39,499.73Zm373.88,21.86c-.13-1.23-.32-3.16-.57-5.1a12.31,12.31,0,0,0-.58-2.64c-1.28-4.19-3.39-5.1-7.11-2.71a43.68,43.68,0,0,0-6.85,5.48c-7.55,7.48-13.51,16.25-18.95,25.28a274.25,274.25,0,0,0-28.42,65.9c-3.27,11.16-6.15,22.38-6.73,34.05a43.56,43.56,0,0,0,1.09,11.48c.77,3.49,3.14,4.32,6.21,2.52a33.16,33.16,0,0,0,5.7-4.32,80.33,80.33,0,0,0,13.13-15.61,279.79,279.79,0,0,0,39.88-91.76A125.37,125.37,0,0,0,1024.27,521.59Zm-189.69.77c-.58-3.22-.9-6.51-1.79-9.67-.77-2.78-2.69-3.49-5.32-2.32a15.41,15.41,0,0,0-4.29,2.7,144.56,144.56,0,0,0-11,11.55c-8.38,10.38-15.11,21.86-21.06,33.79a289.57,289.57,0,0,0-21.26,56.42c-2.37,9.16-4.48,18.38-4.8,27.86a41.59,41.59,0,0,0,1,10.13c.9,4.12,3.33,5,6.79,2.77a50.11,50.11,0,0,0,8.06-6.71c7.75-8.06,13.71-17.47,19.28-27.15,13.18-23,23.49-47.2,29.83-73A159.32,159.32,0,0,0,834.58,522.36ZM565.76,638.44a38.57,38.57,0,0,0,.06,5.48,57.92,57.92,0,0,0,1.34,8.06c1.22,4.19,3.46,5,7.11,2.51a33.53,33.53,0,0,0,5-4.06,91.92,91.92,0,0,0,15.88-21.6c13.38-24.31,23.69-49.85,29.39-77.19,1.92-9.35,3.58-18.83,3.26-28.44a40.77,40.77,0,0,0-1.73-10.38c-1.28-4.32-3.71-5-7.42-2.52a37,37,0,0,0-5.7,4.84A91.63,91.63,0,0,0,599.88,533a284.75,284.75,0,0,0-28.49,68.42C568.12,613.48,565.88,625.8,565.76,638.44Z"/></g></g></g></g></svg>