<svg id="Capa_2" data-name="Capa 2" xmlns="http://www.w3.org/2000/svg" viewBox="0 0 430.48 430.49"><defs><style>.cls-1{fill:#fff;}</style></defs><title>LogoNFL</title><path class="cls-1" d="M425.13,192.13l-8.33-6.39A885.22,885.22,0,0,1,251.19,20.13l-6.39-8.32,10.29-2a332.07,332.07,0,0,1,63.46-6.08c51.32,0,87.11,11.5,88.6,12a22,22,0,0,1,14.07,14.09h0c.59,1.83,14.51,45.41,11.57,105.29a329.8,329.8,0,0,1-5.65,46.75Zm-157-171.44A870.5,870.5,0,0,0,416.24,168.84a317.38,317.38,0,0,0,3.56-34.4c2.83-57.52-10.38-98.9-10.94-100.63h0a9,9,0,0,0-5.74-5.75c-1.42-.47-35.29-11.35-84.57-11.35A320.53,320.53,0,0,0,268.08,20.69Z" transform="translate(-2.71 -3.71)"/><path class="cls-1" d="M202.91,423l-2.68-3.58A900,900,0,0,0,17.47,236.66L13.89,234l1.23-4.31c2.67-9.3,5.76-18.44,9.17-27.16C39.77,163,63.49,127.07,94.78,95.78c38.34-38.34,83.4-65.13,133.91-79.63L233,14.91l2.68,3.59A900,900,0,0,0,418.44,201.24l3.58,2.69-1.23,4.31c-2.69,9.38-5.81,18.58-9.25,27.36-15.48,39.44-39.17,75.28-70.41,106.52-38.34,38.34-83.39,65.13-133.91,79.63Zm-174-194a912.1,912.1,0,0,1,179,179c46.64-14.15,88.35-39.4,124-75.07,30-30,52.67-64.31,67.5-102.08,2.77-7.06,5.32-14.42,7.59-21.92a912.37,912.37,0,0,1-179-179C181.36,44.06,139.65,69.29,104,105,74,135,51.22,169.4,36.4,207.25,33.65,214.25,31.13,221.55,28.88,229Zm179.57,90.65a8.61,8.61,0,0,1-2.73-.44A21.18,21.18,0,0,1,201.3,317c-.27-.16-.53-.32-.79-.46A185.19,185.19,0,0,1,171.81,296c-2.09-1.77-4.19-3.62-6.4-5.63-4.91,3.53-9.06,6.35-13,8.85-1.05.67-2.11,1.33-3.18,2a9.87,9.87,0,0,1-13.93-4.34c-1.46-3.15-1.14-6.5,1-10,.95-1.58,2-3.26,3.25-5.14,2.17-3.29,4.49-6.66,7-10.2-.83-.91-1.66-1.82-2.47-2.73-2.06-2.31-4.12-4.72-6.13-7.15-5.29-6.43-13-16.25-18.92-27.25l-.18-.32c-.86-1.55-2.87-5.17-.88-9.42a8.74,8.74,0,0,1,5.11-4.66,10.23,10.23,0,0,1,8,.82,121.84,121.84,0,0,1,12.69,7.73,217.93,217.93,0,0,1,22.51,17.67c6.22-7.45,12.8-14.92,19.62-22.28q3.19-3.44,6.43-6.83l.78-.82c-3.32-3.79-6.51-7.68-9.5-11.59-3.73-4.85-6.93-9.41-9.79-13.94-1.44-2.28-2.67-4.34-3.75-6.3-.07-.14-.16-.29-.25-.44-.86-1.45-2.46-4.16-1.95-7.54a8.81,8.81,0,0,1,4.67-6.6,9.71,9.71,0,0,1,8.77.05c1.75.89,3.55,1.89,5.83,3.26,4.35,2.62,8.78,5.61,13.55,9.14s9.63,7.44,14.27,11.48l.36.31c1.56-1.48,3.12-3,4.66-4.4,8.74-8.17,17-15.51,25.31-22.36a219.63,219.63,0,0,1-18.14-23.17,118.33,118.33,0,0,1-7.48-12.41,9.84,9.84,0,0,1-.69-7.66,8.79,8.79,0,0,1,4.63-5.13c4.38-2.09,8.23.12,9.87,1.06l.4.23c8.49,4.62,17.19,10.71,27.36,19.15,2.4,2,4.78,4,7.06,6.08.8.72,1.59,1.43,2.38,2.16,3.63-2.6,7.09-5,10.48-7.18,1.88-1.22,3.45-2.21,4.95-3.11a10.11,10.11,0,0,1,9.22-1.08,9.52,9.52,0,0,1,5.42,5.74,9.76,9.76,0,0,1-.83,8.08c-.76,1.31-1.55,2.56-2.21,3.6-2.45,3.88-5.24,8-8.49,12.53,2.15,2.36,4.12,4.59,6,6.83A213.21,213.21,0,0,1,310.32,193c2.32,3.48,4.25,6.65,5.92,9.69l.22.39c1.05,1.85,3,5.28,1.74,9.22a8.36,8.36,0,0,1-2.57,3.84,6.79,6.79,0,0,1-1.69,1.15h0l-.08,0,0,0,0,0-.22.1h0l-.13.06h0a9.52,9.52,0,0,1-8.63-.66l-.16-.09c-1.63-.84-3.32-1.79-5.3-3-3.89-2.33-7.76-4.9-11.83-7.84-6-4.31-12-9.14-17.94-14.39-6.45,7.75-13,15.26-19.59,22.36-2.06,2.24-4.22,4.55-6.41,6.85l-.81.85c3.24,3.73,6.34,7.52,9.23,11.31,3.86,5,7.16,9.77,10.08,14.45,1.62,2.58,2.91,4.79,4.05,7l.18.32c.81,1.47,3,5.37.6,9.69-2.06,3.79-6.8,6.24-12.74,3.18-2-1-4.11-2.22-6.59-3.74-4.68-2.87-9.41-6.11-14.44-9.91-4.22-3.19-8.41-6.58-12.47-10.11h0c-2.24,2.14-4.54,4.31-6.84,6.46-7.65,7.11-15.41,14-23.14,20.42A216.78,216.78,0,0,1,209,294.31a106.73,106.73,0,0,1,7.38,12.52,8.93,8.93,0,0,1-1.31,9.78A8.76,8.76,0,0,1,208.45,319.63Zm-42-46.16,4,3.75q1.6,1.5,3.22,3c2.31,2.12,4.49,4,6.64,5.87,5.63,4.78,10.83,8.83,15.83,12.31a219.32,219.32,0,0,0-19.54-24l-4.73-5.09,6.15-5c9-7.35,18.09-15.29,27-23.59,2.26-2.1,4.51-4.23,6.7-6.33l3.49-3.36,5.2-5.05,5.35,4.87c.55.49,1.09,1,1.65,1.48,4.41,3.92,9,7.68,13.62,11.17,2,1.47,3.84,2.85,5.7,4.15-1.55-2.22-3.2-4.48-5-6.82-3.45-4.5-7.19-9-11.14-13.41l-.81-.9a6.69,6.69,0,0,1-2.24-4.76,6.88,6.88,0,0,1,2-5.1l1.56-1.61q1.55-1.61,3.08-3.22c2.12-2.23,4.21-4.46,6.29-6.72,7.86-8.51,15.74-17.61,23.41-27l4.39-5.38,5.08,4.72a231.45,231.45,0,0,0,21.81,18c.74.54,1.48,1.06,2.21,1.58-3.55-5.1-7.5-10.2-12-15.52-1.82-2.14-3.71-4.29-5.78-6.56-1.06-1.15-2.12-2.3-3.2-3.43a6.83,6.83,0,0,1-.23-9.3l.49-.67,1.18-1.62,1.94-2.71c-1.66,1.17-3.35,2.39-5.09,3.68a6.93,6.93,0,0,1-9.45-.55l-.82-.78c-.52-.48-1-1-1.58-1.47-1-1-2.09-1.92-3.15-2.87-2.17-1.94-4.41-3.88-6.69-5.76-4.86-4-9.34-7.49-13.6-10.46a219.64,219.64,0,0,0,20.12,24.62l4.76,5.09-5.4,4.39-2.74,2.24-.23.19c-8.82,7.21-17.65,15-27,23.7q-3.37,3.16-6.71,6.37l-1.88,1.82a7,7,0,0,1-5.11,2,6.81,6.81,0,0,1-4.78-2.28l-.68-.62c-1.08-1-2.17-2-3.28-2.91-4.38-3.81-8.91-7.46-13.46-10.83-1.44-1.06-2.83-2.07-4.2-3,1.59,2.29,3.3,4.62,5.16,7,3.54,4.61,7.36,9.2,11.36,13.63l.85.94a6.78,6.78,0,0,1,2.28,4.79,6.94,6.94,0,0,1-2,5.12l-1.56,1.6-3.09,3.22q-3.16,3.32-6.29,6.69c-8.25,8.9-16.14,18-23.44,27l-4.4,5.4-5.08-4.75A218.89,218.89,0,0,0,138,240.32c2.83,4,6.12,8.32,10,13.07,1.89,2.3,3.84,4.57,5.79,6.76,1,1.17,2.09,2.32,3.15,3.47l1.49,1.6.63.67a6.83,6.83,0,0,1,.92,9.31c-1.63,2.2-3.17,4.31-4.62,6.37,1-.72,2.08-1.48,3.17-2.27s2.35-1.71,3.51-2.58ZM159.15,266h0Zm37.92-53.8h0Zm13.47-4.91Z" transform="translate(-2.71 -3.71)"/><path class="cls-1" d="M117.36,434.2c-49.25,0-84.42-10.66-88.26-11.88a22,22,0,0,1-14.4-14.16C14.11,406.34.23,363,3.1,303.17a329.3,329.3,0,0,1,5.67-47.09l2-10.3,8.33,6.39A885.81,885.81,0,0,1,184.72,417.78l6.39,8.32-10.29,2A331.28,331.28,0,0,1,117.36,434.2ZM19.67,269.07a318.44,318.44,0,0,0-3.58,34.73c-2.76,57.5,10.41,98.6,11,100.32a9,9,0,0,0,5.9,5.79c3.71,1.17,37.1,11.29,84.39,11.29a320.56,320.56,0,0,0,50.48-4A870.13,870.13,0,0,0,19.67,269.07Z" transform="translate(-2.71 -3.71)"/></svg>