<svg id="Capa_1" data-name="Capa 1" xmlns="http://www.w3.org/2000/svg" viewBox="0 0 1500 1500"><defs><style>.cls-1{fill:#ea0a2a;}.cls-2,.cls-3{fill:#fff;}.cls-2{stroke:#fff;stroke-miterlimit:10;}</style></defs><title>LogoLlamada</title><g id="adomicilio"><g id="Menu_platillo_pedido_choose" data-name="Menu platillo pedido choose"><g id="Group-9"><ellipse id="Oval" class="cls-1" cx="749.78" cy="750.02" rx="731.46" ry="734.98"/></g></g></g><path class="cls-2" d="M1086.47,1245.76l-6-.44c-100.52-7.51-193.95-25.22-277.69-52.66-76.39-25-146.45-58.69-208.22-100.06-104.23-69.81-187-162.46-245.91-275.37A842.48,842.48,0,0,1,290.87,676a903.11,903.11,0,0,1-28.41-121.44C251.5,487,252,441.82,252.14,436.89c-.11-8,3.27-20.29,38.94-59.76,16.59-18.37,33-34.67,35.58-37.24C369,292.92,407.48,269,441,268.69h.57c24.22,0,36.75,12.72,38.11,14.18l1.31,1.4.93,1.69c71.14,129.2,103.39,195.11,115,235.09,6.17,21.22,7,36.7,2.75,50.19-4.09,12.9-12,21.38-20.39,30.36a167.81,167.81,0,0,0-15,17.82c-17,24-27.33,39.43-27.29,51.49,0,10.87,8.06,24.48,30.65,52,33.69,41.08,76.69,86.75,121.08,128.58,45.19,42.58,87.81,77.34,120,97.87,20.25,12.92,42.66,12.53,68.5-1.18,23.46-12.45,44.16-33.11,56.53-45.46,5.76-5.74,9.56-9.53,12.89-12,7.35-5.39,17.13-4.28,25.73-2.48a234.62,234.62,0,0,1,28.3,8.39c21.33,7.51,49.11,19.16,78.24,32.79,52.67,24.66,120,60.89,151.08,88.62,10.57,9.44,15.89,22.2,15.36,36.89-1.08,30.54-27.1,70.36-79.54,121.75a942,942,0,0,1-74.59,65.38ZM283.23,437.91c-.08,5.68-.25,49.51,10.12,112.9A874.61,874.61,0,0,0,321,668.11,811,811,0,0,0,376.86,804c56.61,108,135.92,196.55,235.75,263.25,59.36,39.66,126.78,72,200.38,96,79.56,26,168.29,43,263.82,50.57,10.88-8.69,39.24-31.9,67.4-59.51,59.91-58.76,69.59-88.16,70-100.44.19-5.53-1.3-9.29-5-12.59-22.51-20.1-74.27-50.62-135.07-79.64-59.13-28.23-99.46-42-111.67-43.6-1.91,1.81-4.47,4.36-6.82,6.71-13.6,13.57-36.36,36.28-63.92,50.91-16.1,8.54-32,13.29-47.16,14.11-18.6,1-36.3-3.76-52.64-14.18-68.58-43.73-175.37-143.88-248.41-233-24.94-30.42-37.62-49.85-37.7-71.64s12.5-40.64,33-69.59a193.14,193.14,0,0,1,17.68-21c6.68-7.15,11.51-12.32,13.47-18.52,2.27-7.17,1.33-17.38-3-32.14-10.71-36.85-42.89-102.46-111-226.19-2.2-1.45-7.49-4.11-16.32-3.7-32,1.46-70.31,39-90.32,61.2l-.63.67c-.16.16-15.94,15.74-32.19,33.54C289.3,425.2,284.14,435.58,283.23,437.91Zm-.16.46Z"/><path class="cls-3" d="M1009,754.55A15.55,15.55,0,0,1,993.41,739,246.06,246.06,0,0,0,747.33,492.93a15.55,15.55,0,0,1,0-31.1A277,277,0,0,1,1024.51,739,15.55,15.55,0,0,1,1009,754.55Z"/><path class="cls-3" d="M1143.49,841.09A15.55,15.55,0,0,1,1128,825.54,461.35,461.35,0,0,0,666.21,363.8a15.55,15.55,0,0,1,0-31.1A492.42,492.42,0,0,1,1159,825.54,15.55,15.55,0,0,1,1143.49,841.09Z"/></svg>