<svg xmlns="http://www.w3.org/2000/svg" viewBox="0 0 1500 1500"><defs><style>.cls-1{fill:#404040;}</style></defs><title>Iconos finales</title><g id="cara_q" data-name="cara q"><path class="cls-1" d="M1233.5,580.5c-46.88,0-91.16-14.79-124.7-41.63-35-28.05-54.32-65.8-54.32-106.29a124.29,124.29,0,0,1,.69-13.08c0-18.14,5.53-146.27,161.89-306.08a23,23,0,0,1,33.29.43c6.48,7,158.72,172.4,161.8,309.64h0c0,.83.08,1.84.14,2.91.11,1.82.23,3.89.23,6.18,0,40.49-19.29,78.24-54.32,106.29C1324.66,565.71,1280.38,580.5,1233.5,580.5ZM1101.17,419.81a18.89,18.89,0,0,1-.14,3.52,79.32,79.32,0,0,0-.55,9.25c0,26.24,13.17,51.24,37.08,70.38C1163,523.3,1197,534.5,1233.5,534.5S1304,523.3,1329.44,503c23.91-19.14,37.08-44.14,37.08-70.38,0-.95-.08-2.19-.15-3.5s-.17-2.9-.21-4.56h0c-1.09-48.78-27-112.31-75-183.72a903.27,903.27,0,0,0-58.33-77.15c-66.86,72.8-99,136.11-114.33,177.63C1101,388.51,1101.15,418.15,1101.17,419.81Z"/><path class="cls-1" d="M717,1393.5A629.66,629.66,0,0,1,472,184a628.84,628.84,0,0,1,652.9,100.51,23,23,0,0,1-29.82,35,581.93,581.93,0,1,0,168.3,239.15,23,23,0,0,1,43.06-16.19A629.32,629.32,0,0,1,717,1393.5Z"/><path class="cls-1" d="M600.51,678.27a23,23,0,0,1-23-23,49.21,49.21,0,0,0-98.41,0,23,23,0,0,1-46,0,95.21,95.21,0,0,1,190.41,0A23,23,0,0,1,600.51,678.27Z"/><path class="cls-1" d="M977.86,678.27a23,23,0,0,1-23-23,49.2,49.2,0,0,0-98.4,0,23,23,0,0,1-46,0,95.2,95.2,0,0,1,190.4,0A23,23,0,0,1,977.86,678.27Z"/><path class="cls-1" d="M714.44,1093.52a257.16,257.16,0,0,1-183.07-75.72,23,23,0,1,1,32.52-32.53,213.16,213.16,0,0,0,301.09,0,23,23,0,0,1,32.52,32.53A257.13,257.13,0,0,1,714.44,1093.52Z"/></g></svg>