<svg xmlns="http://www.w3.org/2000/svg" viewBox="0 0 1500 1500"><defs><style>.cls-1{fill:#404040;}</style></defs><title>Iconos finales</title><g id="malteadas"><path class="cls-1" d="M632.41,960.42c-4,0-7.15-.2-9.08-.37h-2c-54.79,0-102.1-32.84-140.67-97.67C451.6,813.5,427.15,745.59,408,660.56,375.87,517.81,369.55,377,369.3,371.09a23,23,0,0,1,23-24H857.67a23,23,0,0,1,23,22.22c0,1.27.94,31.92-8.93,108.12a23,23,0,0,1-45.62-5.9c4.77-36.79,6.9-62.3,7.85-78.44H416.7C419.91,439.46,429.33,546.05,453,651c18.08,80.17,40.73,143.45,67.32,188.08,14.95,25.09,31.13,44.15,48.09,56.64,17.42,12.84,35.5,18.84,55.25,18.34a19,19,0,0,1,3.21.15c5.4.56,22.47.64,31.42-6A23,23,0,1,1,685.78,945C668.13,958.18,645.66,960.42,632.41,960.42Z"/><path class="cls-1" d="M577.92,1048.58a23,23,0,0,1-23-23V937.4a23,23,0,0,1,46,0v88.18A23,23,0,0,1,577.92,1048.58Z"/><path class="cls-1" d="M672,1048.58a23,23,0,0,1-23-23V947.77a23,23,0,0,1,46,0v77.81A23,23,0,0,1,672,1048.58Z"/><path class="cls-1" d="M461.57,1048.58a23,23,0,0,1,0-46l233-.09h0a23,23,0,0,1,0,46l-233,.09Z"/><path class="cls-1" d="M442.89,393.1a75.25,75.25,0,0,1-37.12-10.93c-16.54-10-36.35-31-36.86-73.67-.33-27.65,7.54-48.88,23.38-63.11,19.12-17.19,42.56-17,49.5-16.49H799.5a23,23,0,1,1,0,46H440.82a13.83,13.83,0,0,1-2.53-.13c-1.35-.06-9.82-.24-15.48,5-6.74,6.28-8,18.77-7.9,28.14.2,17.35,5.16,29.09,14.73,34.9a31.8,31.8,0,0,0,13.14,4.25H443a23,23,0,0,1,.17,46Zm-4.8-118.36Z"/><path class="cls-1" d="M839.1,393.11a23,23,0,0,1-20.84-32.71c5.49-11.9,18.63-50.33,7.43-70.48-1.71-3.08-6.93-12.45-29-15.19a23,23,0,0,1-19.57-28.05C780.93,230,782.59,200,774,188.85c-1.68-2.17-4.13-4.2-10.65-4.37-55.18-1.45-137.48,0-138.3,0H487.68c-4,.79-16.4,4.79-22.06,24.4-.49,2.07-1.33,8.41-2.58,26.73l-.1,1.46a23,23,0,0,1-45.89-3.18l.1-1.42c1.22-17.83,2.3-29.45,4.21-36.12,7.8-27.24,23.79-41.45,35.83-48.56,13.15-7.77,24.78-9.06,27-9.23.61,0,1.23-.08,1.85-.08H624.4c4.72-.08,85.33-1.43,140.13,0,19.15.5,35,8.2,45.86,22.25,16.35,21.16,17,52.4,15,73.66,22.18,7.91,34.15,21.75,40.54,33.3,24.43,44.19-2.83,105.31-6,112.13A23,23,0,0,1,839.1,393.11Z"/><path class="cls-1" d="M871.78,1273.65c-54.79,0-102.1-32.85-140.67-97.67-29.08-48.9-53.53-116.8-72.68-201.83C626.3,831.4,620,690.59,619.73,684.67a23,23,0,0,1,23-24H1108.1a23,23,0,0,1,23,24.06c-.27,5.82-7,144.13-39.47,285.6-19.36,84.23-44,151.93-73.14,201.21-39.27,66.31-87.46,100.65-143.23,102C874.08,1273.63,872.93,1273.65,871.78,1273.65Zm-204.65-567c3.21,46.36,12.63,152.95,36.3,257.86,18.08,80.17,40.73,143.45,67.32,188.09,15,25.08,31.13,44.14,48.09,56.64,17.42,12.83,35.49,18.83,55.25,18.34,20-.5,38.35-7.38,56.07-21,17.16-13.21,33.51-32.82,48.61-58.29,26.75-45.11,49.59-108.27,67.89-187.74,23.85-103.56,33.56-208.05,36.93-253.88Z"/><path class="cls-1" d="M828.35,1362.17a23,23,0,0,1-23-23V1251a23,23,0,0,1,46,0v88.19A23,23,0,0,1,828.35,1362.17Z"/><path class="cls-1" d="M922.46,1362.17a23,23,0,0,1-23-23V1238.55a23,23,0,0,1,46,0v100.62A23,23,0,0,1,922.46,1362.17Z"/><path class="cls-1" d="M1029.18,1362.17H712a23,23,0,0,1,0-46h317.18a23,23,0,1,1,0,46Z"/><path class="cls-1" d="M693.32,706.69a75.19,75.19,0,0,1-37.12-10.94c-16.54-10-36.35-31-36.86-73.67-.33-27.64,7.54-48.88,23.38-63.11,19.12-17.18,42.55-17,49.5-16.48h360.5a23,23,0,0,1,0,46H691.25a13.83,13.83,0,0,1-2.53-.13c-1.36-.07-9.82-.25-15.48,5-6.74,6.28-8,18.77-7.91,28.14.21,17.35,5.17,29.09,14.74,34.9a31.72,31.72,0,0,0,13.14,4.26h.17a23,23,0,0,1,.16,46Zm-4.8-118.37Z"/><path class="cls-1" d="M1089.53,706.69A23,23,0,0,1,1068.69,674c5.49-11.9,18.63-50.33,7.43-70.47-1.71-3.08-6.93-12.46-29-15.2a23,23,0,0,1-19.57-28c3.83-16.72,5.49-46.71-3.13-57.83-1.68-2.16-4.13-4.19-10.65-4.36-55.17-1.45-137.48,0-138.31,0H738.11c-4,.78-16.26,4.74-22,24.08-.87,4.84-1.9,23.6-2.29,30.74-.2,3.49-.36,6.39-.48,8.19a23,23,0,1,1-45.89-3.17c.11-1.66.26-4.33.44-7.54,1.26-23,2.12-34.32,3.87-40.43,7.79-27.25,23.79-41.45,35.83-48.57a66.93,66.93,0,0,1,27-9.23c.62,0,1.24-.07,1.86-.07H874.83c4.72-.09,85.34-1.44,140.13,0,19.15.51,35,8.2,45.86,22.26,16.35,21.16,17,52.39,15,73.65,22.18,7.92,34.15,21.75,40.54,33.31,24.43,44.18-2.83,105.3-6,112.13A23,23,0,0,1,1089.53,706.69ZM716,522.56s0,0,0,0S716,522.57,716,522.56Z"/></g></svg>