<svg xmlns="http://www.w3.org/2000/svg" viewBox="0 0 1500 1500"><defs><style>.cls-1{fill:#404040;}</style></defs><title>Iconos finales</title><g id="experiencias"><path class="cls-1" d="M1349.59,1221.58H150.45c-72.83,0-136.06-56.83-150.35-135.13a23,23,0,0,1,22.63-27.13H1477.27a23,23,0,0,1,22.63,27.13C1485.61,1164.75,1422.4,1221.58,1349.59,1221.58ZM53.33,1105.32c17.42,42,55.06,70.26,97.12,70.26H1349.59c42,0,79.66-28.29,97.08-70.26Z"/><path class="cls-1" d="M828.21,324.42H671.82a23,23,0,0,1,0-46H828.21a23,23,0,0,1,0,46Z"/><path class="cls-1" d="M1375.62,1084.6a23,23,0,0,1-23-23C1352.62,729.32,1082.28,459,750,459S147.39,729.32,147.39,1061.6a23,23,0,0,1-46,0C101.39,704,392.36,413,750,413s648.62,291,648.62,648.62A23,23,0,0,1,1375.62,1084.6Z"/><path class="cls-1" d="M750,451.91a23,23,0,0,1-23-23V308.49a23,23,0,0,1,46,0V428.91A23,23,0,0,1,750,451.91Z"/></g></svg>