<svg id="svg" version="1.1" width="400" height="400" viewBox="0 0 400 400" xmlns="http://www.w3.org/2000/svg" xmlns:xlink="http://www.w3.org/1999/xlink" ><g id="svgg"><path id="path0" d="M77.194 160.867 L 75.067 163.067 77.267 160.940 C 78.477 159.770,79.467 158.780,79.467 158.740 C 79.467 158.545,79.169 158.823,77.194 160.867 M23.067 313.600 C 23.640 314.187,24.168 314.667,24.242 314.667 C 24.315 314.667,23.906 314.187,23.333 313.600 C 22.760 313.013,22.232 312.533,22.158 312.533 C 22.085 312.533,22.494 313.013,23.067 313.600 " stroke="none" fill="#404040" fill-rule="evenodd"></path><path id="path1" d="M179.853 76.872 C 179.782 77.058,179.758 80.148,179.800 83.738 L 179.877 90.267 179.938 83.535 L 180.000 76.803 200.067 76.733 L 220.133 76.663 200.058 76.598 C 184.037 76.546,179.957 76.602,179.853 76.872 M193.188 100.133 C 193.188 105.707,193.223 108.025,193.266 105.284 C 193.310 102.544,193.310 97.984,193.266 95.151 C 193.223 92.318,193.188 94.560,193.188 100.133 M194.737 123.658 C 195.142 123.719,195.742 123.718,196.070 123.654 C 196.398 123.591,196.067 123.541,195.333 123.543 C 194.600 123.545,194.332 123.597,194.737 123.658 M203.933 123.655 C 204.263 123.718,204.803 123.718,205.133 123.655 C 205.463 123.591,205.193 123.539,204.533 123.539 C 203.873 123.539,203.603 123.591,203.933 123.655 M40.067 278.000 C 40.070 278.587,40.125 278.795,40.189 278.464 C 40.252 278.132,40.250 277.652,40.183 277.397 C 40.116 277.142,40.064 277.413,40.067 278.000 M26.488 280.133 C 26.489 281.160,26.537 281.547,26.595 280.994 C 26.652 280.441,26.651 279.601,26.592 279.127 C 26.534 278.654,26.486 279.107,26.488 280.133 M359.785 281.266 L 359.733 283.200 199.800 283.267 L 39.867 283.334 199.808 283.400 C 334.190 283.456,359.772 283.409,359.889 283.105 C 359.965 282.906,359.984 281.976,359.932 281.039 L 359.836 279.333 359.785 281.266 M11.418 283.400 C 14.251 283.443,18.811 283.443,21.551 283.400 C 24.291 283.356,21.973 283.321,16.400 283.321 C 10.827 283.321,8.585 283.356,11.418 283.400 M378.333 283.400 C 381.157 283.443,385.777 283.443,388.600 283.400 C 391.423 283.356,389.113 283.321,383.467 283.321 C 377.820 283.321,375.510 283.356,378.333 283.400 M376.654 313.667 L 375.600 314.800 376.733 313.746 C 377.787 312.766,377.989 312.533,377.787 312.533 C 377.744 312.533,377.234 313.043,376.654 313.667 M386.254 323.267 L 385.200 324.400 386.333 323.346 C 387.387 322.366,387.589 322.133,387.387 322.133 C 387.344 322.133,386.834 322.643,386.254 323.267 M45.000 323.388 C 45.330 323.452,45.870 323.452,46.200 323.388 C 46.530 323.325,46.260 323.273,45.600 323.273 C 44.940 323.273,44.670 323.325,45.000 323.388 M353.803 323.389 C 354.135 323.452,354.615 323.450,354.870 323.383 C 355.125 323.316,354.853 323.264,354.267 323.267 C 353.680 323.270,353.471 323.325,353.803 323.389 " stroke="none" fill="#404040" fill-rule="evenodd"></path><path id="path2" d="M207.267 110.324 C 207.670 110.385,208.330 110.385,208.733 110.324 C 209.137 110.263,208.807 110.213,208.000 110.213 C 207.193 110.213,206.863 110.263,207.267 110.324 M217.933 111.117 C 218.190 111.184,218.610 111.184,218.867 111.117 C 219.123 111.050,218.913 110.995,218.400 110.995 C 217.887 110.995,217.677 111.050,217.933 111.117 M191.938 123.660 C 192.417 123.719,193.137 123.718,193.538 123.657 C 193.939 123.596,193.547 123.548,192.667 123.549 C 191.787 123.551,191.459 123.601,191.938 123.660 M206.467 123.658 C 206.870 123.719,207.530 123.719,207.933 123.658 C 208.337 123.597,208.007 123.547,207.200 123.547 C 206.393 123.547,206.063 123.597,206.467 123.658 M187.670 123.922 C 188.001 123.986,188.481 123.983,188.736 123.917 C 188.991 123.850,188.720 123.798,188.133 123.801 C 187.547 123.804,187.338 123.858,187.670 123.922 M103.930 139.072 C 102.942 139.735,102.133 140.336,102.133 140.408 C 102.133 140.479,102.973 139.979,104.000 139.296 C 105.633 138.210,106.065 137.867,105.797 137.867 C 105.759 137.867,104.919 138.409,103.930 139.072 M128.467 140.150 C 127.183 140.804,126.133 141.399,126.133 141.472 C 126.133 141.591,130.907 139.286,131.178 139.036 C 131.567 138.677,130.481 139.123,128.467 140.150 M307.646 147.806 C 309.058 148.942,309.470 149.147,308.400 148.182 C 307.813 147.653,307.234 147.216,307.113 147.210 C 306.992 147.205,307.232 147.473,307.646 147.806 M111.333 150.133 C 110.453 150.719,109.825 151.199,109.937 151.199 C 110.166 151.200,113.067 149.312,113.067 149.162 C 113.067 148.991,112.954 149.054,111.333 150.133 M317.867 156.603 C 317.867 156.665,318.497 157.242,319.267 157.884 C 320.037 158.526,320.498 158.841,320.292 158.583 C 319.879 158.064,317.867 156.422,317.867 156.603 M325.582 164.200 C 326.225 164.970,326.801 165.600,326.864 165.600 C 327.045 165.600,325.403 163.588,324.884 163.174 C 324.626 162.968,324.940 163.430,325.582 164.200 M86.794 170.467 L 84.400 172.933 86.867 170.539 C 89.158 168.315,89.455 168.000,89.261 168.000 C 89.221 168.000,88.111 169.110,86.794 170.467 M317.333 174.933 C 317.798 175.520,318.238 176.000,318.311 176.000 C 318.385 176.000,318.065 175.520,317.600 174.933 C 317.135 174.347,316.695 173.867,316.622 173.867 C 316.549 173.867,316.869 174.347,317.333 174.933 M67.456 193.615 C 67.136 194.064,66.920 194.475,66.974 194.530 C 67.028 194.584,67.343 194.217,67.672 193.714 C 68.415 192.580,68.247 192.504,67.456 193.615 M65.930 195.882 C 65.602 196.383,65.333 196.882,65.333 196.991 C 65.333 197.101,65.644 196.733,66.024 196.174 C 66.403 195.616,66.672 195.116,66.621 195.065 C 66.569 195.014,66.258 195.381,65.930 195.882 M353.333 202.769 C 353.333 203.055,354.127 204.533,354.280 204.533 C 354.354 204.533,354.215 204.143,353.973 203.667 C 353.478 202.693,353.333 202.490,353.333 202.769 M356.000 208.102 C 356.000 208.388,356.793 209.867,356.947 209.867 C 357.020 209.867,356.882 209.477,356.640 209.000 C 356.145 208.027,356.000 207.824,356.000 208.102 M57.587 210.159 C 57.280 210.760,57.075 211.297,57.131 211.353 C 57.187 211.409,57.494 210.918,57.813 210.261 C 58.540 208.765,58.343 208.677,57.587 210.159 M55.720 213.893 C 55.414 214.493,55.209 215.031,55.264 215.087 C 55.320 215.143,55.627 214.651,55.946 213.994 C 56.673 212.498,56.476 212.410,55.720 213.893 M40.334 271.333 C 40.337 271.920,40.391 272.129,40.455 271.797 C 40.519 271.465,40.517 270.985,40.450 270.730 C 40.383 270.475,40.331 270.747,40.334 271.333 M372.867 271.600 C 372.870 272.187,372.925 272.395,372.989 272.064 C 373.052 271.732,373.050 271.252,372.983 270.997 C 372.916 270.742,372.864 271.013,372.867 271.600 M359.539 272.267 C 359.539 272.927,359.591 273.197,359.655 272.867 C 359.718 272.537,359.718 271.997,359.655 271.667 C 359.591 271.337,359.539 271.607,359.539 272.267 M26.747 274.933 C 26.747 275.740,26.797 276.070,26.858 275.667 C 26.919 275.263,26.919 274.603,26.858 274.200 C 26.797 273.797,26.747 274.127,26.747 274.933 M40.080 275.733 C 40.080 276.540,40.130 276.870,40.191 276.467 C 40.252 276.063,40.252 275.403,40.191 275.000 C 40.130 274.597,40.080 274.927,40.080 275.733 M373.154 276.933 C 373.155 277.960,373.204 278.347,373.261 277.794 C 373.319 277.241,373.318 276.401,373.259 275.927 C 373.200 275.454,373.153 275.907,373.154 276.933 M359.806 278.400 C 359.806 279.060,359.858 279.330,359.922 279.000 C 359.985 278.670,359.985 278.130,359.922 277.800 C 359.858 277.470,359.806 277.740,359.806 278.400 M380.861 308.686 C 380.531 309.189,380.315 309.600,380.379 309.600 C 380.565 309.600,381.670 307.981,381.559 307.870 C 381.505 307.816,381.191 308.183,380.861 308.686 M394.521 311.758 C 394.286 312.212,394.141 312.630,394.199 312.688 C 394.257 312.746,394.504 312.375,394.748 311.863 C 395.296 310.713,395.106 310.625,394.521 311.758 M376.786 313.800 L 375.867 314.800 376.867 313.881 C 377.417 313.376,377.867 312.926,377.867 312.881 C 377.867 312.677,377.641 312.869,376.786 313.800 M392.064 315.882 C 391.735 316.383,391.467 316.882,391.467 316.991 C 391.467 317.101,391.777 316.733,392.157 316.174 C 392.537 315.616,392.805 315.116,392.754 315.065 C 392.702 315.014,392.392 315.381,392.064 315.882 M7.440 315.600 C 7.889 316.470,8.259 316.952,8.257 316.667 C 8.256 316.520,8.009 316.100,7.710 315.733 C 7.347 315.291,7.257 315.246,7.440 315.600 M371.788 317.714 C 370.549 318.590,370.375 318.841,371.421 318.241 C 371.908 317.962,372.433 317.583,372.586 317.400 C 372.981 316.929,372.796 317.002,371.788 317.714 M13.467 323.200 C 14.040 323.787,14.568 324.267,14.642 324.267 C 14.715 324.267,14.306 323.787,13.733 323.200 C 13.160 322.613,12.632 322.133,12.558 322.133 C 12.485 322.133,12.894 322.613,13.467 323.200 M386.119 323.133 L 385.200 324.133 386.200 323.214 C 387.131 322.359,387.323 322.133,387.119 322.133 C 387.074 322.133,386.624 322.583,386.119 323.133 M378.941 328.946 C 377.723 329.806,378.142 329.795,379.409 328.933 C 379.949 328.567,380.273 328.273,380.129 328.280 C 379.985 328.287,379.450 328.587,378.941 328.946 M373.800 331.884 C 373.103 332.247,372.533 332.603,372.533 332.676 C 372.533 332.795,375.173 331.548,375.444 331.301 C 375.775 331.000,374.907 331.308,373.800 331.884 M356.333 336.717 C 356.590 336.784,357.010 336.784,357.267 336.717 C 357.523 336.650,357.313 336.595,356.800 336.595 C 356.287 336.595,356.077 336.650,356.333 336.717 " stroke="none" fill="#8c8c8c" fill-rule="evenodd"></path><path id="path3" d="" stroke="none" fill="#8b8b8b" fill-rule="evenodd"></path><path id="path4" d="M180.000 83.467 L 180.000 90.133 186.670 90.133 L 193.340 90.133 193.270 100.200 L 193.200 110.267 192.533 110.293 C 190.037 110.394,185.109 110.713,184.667 110.803 C 184.373 110.862,183.233 110.981,182.133 111.067 C 181.033 111.152,179.321 111.337,178.328 111.478 C 177.335 111.618,175.955 111.798,175.261 111.877 C 174.568 111.957,173.820 112.075,173.600 112.141 C 173.380 112.206,172.060 112.440,170.667 112.661 C 169.273 112.881,167.233 113.245,166.133 113.470 C 165.033 113.694,163.713 113.941,163.200 114.019 C 162.687 114.096,162.087 114.224,161.867 114.303 C 161.647 114.383,161.218 114.495,160.914 114.554 C 160.611 114.612,159.171 114.968,157.714 115.346 C 156.258 115.723,154.816 116.083,154.509 116.147 C 154.202 116.210,152.762 116.626,151.309 117.070 C 149.856 117.515,148.451 117.930,148.187 117.993 C 147.009 118.274,142.501 119.841,142.200 120.074 C 142.017 120.216,141.867 120.263,141.867 120.180 C 141.867 120.045,140.998 120.343,139.333 121.050 C 139.040 121.175,138.200 121.489,137.467 121.748 C 136.733 122.007,135.593 122.460,134.933 122.754 C 134.273 123.049,133.673 123.310,133.600 123.335 C 133.250 123.452,132.289 123.862,131.200 124.359 C 130.540 124.660,129.929 124.913,129.843 124.920 C 129.756 124.927,129.036 125.253,128.243 125.645 C 127.449 126.036,125.000 127.236,122.800 128.311 C 120.600 129.387,118.740 130.335,118.667 130.418 C 118.593 130.502,117.933 130.854,117.200 131.200 C 116.467 131.546,115.807 131.908,115.733 132.003 C 115.660 132.098,115.210 132.346,114.733 132.553 C 114.257 132.761,113.867 133.021,113.867 133.132 C 113.867 133.243,113.764 133.333,113.640 133.333 C 113.515 133.333,112.345 133.988,111.040 134.787 C 109.734 135.587,108.187 136.500,107.600 136.816 C 107.013 137.133,106.473 137.478,106.400 137.584 C 106.224 137.837,102.203 140.533,102.001 140.533 C 101.915 140.533,101.699 140.652,101.522 140.796 C 100.073 141.978,99.496 142.400,99.330 142.400 C 99.224 142.400,98.750 142.730,98.277 143.133 C 97.804 143.537,97.146 144.047,96.815 144.267 C 96.483 144.487,95.834 144.995,95.373 145.396 C 94.911 145.797,94.450 146.127,94.347 146.129 C 94.245 146.131,93.865 146.407,93.504 146.742 C 93.143 147.077,92.461 147.647,91.988 148.009 C 90.029 149.509,88.700 150.606,85.701 153.200 C 80.983 157.280,73.459 164.810,69.733 169.180 C 69.147 169.868,68.367 170.767,68.000 171.177 C 67.633 171.588,67.033 172.300,66.667 172.760 C 65.965 173.640,64.772 175.043,64.120 175.756 C 63.907 175.988,63.733 176.258,63.733 176.356 C 63.733 176.453,63.523 176.754,63.267 177.023 C 63.010 177.292,62.620 177.783,62.400 178.114 C 62.180 178.445,61.820 178.934,61.600 179.200 C 61.380 179.466,61.020 179.954,60.800 180.284 C 60.580 180.614,60.070 181.271,59.667 181.744 C 59.263 182.217,58.933 182.683,58.933 182.780 C 58.933 182.877,58.633 183.280,58.267 183.676 C 57.900 184.071,57.600 184.546,57.600 184.731 C 57.600 184.915,57.480 185.067,57.333 185.067 C 57.187 185.067,57.066 185.217,57.066 185.400 C 57.066 185.583,56.713 186.145,56.283 186.649 C 55.852 187.153,55.234 188.083,54.908 188.716 C 54.582 189.349,54.215 189.867,54.091 189.867 C 53.968 189.867,53.867 189.981,53.867 190.121 C 53.867 190.371,52.930 191.883,52.133 192.921 C 51.913 193.207,51.733 193.597,51.733 193.788 C 51.733 193.978,51.616 194.133,51.472 194.133 C 51.328 194.133,51.135 194.433,51.043 194.800 C 50.951 195.167,50.780 195.467,50.664 195.467 C 50.547 195.467,50.324 195.797,50.167 196.200 C 50.010 196.603,49.582 197.413,49.216 198.000 C 48.849 198.587,48.291 199.607,47.974 200.267 C 47.657 200.927,47.317 201.527,47.218 201.600 C 46.944 201.803,42.251 211.442,40.856 214.667 C 40.634 215.180,40.306 215.900,40.127 216.267 C 39.948 216.633,39.649 217.413,39.462 218.000 C 39.276 218.587,38.831 219.709,38.474 220.495 C 38.117 221.281,37.784 222.139,37.733 222.402 C 37.682 222.666,37.448 223.253,37.213 223.707 C 36.979 224.162,36.864 224.533,36.959 224.533 C 37.054 224.533,37.013 224.683,36.868 224.867 C 36.616 225.186,34.502 231.355,34.281 232.419 C 34.222 232.702,33.990 233.443,33.765 234.067 C 33.541 234.690,33.416 235.200,33.488 235.200 C 33.560 235.200,33.500 235.421,33.355 235.692 C 33.211 235.963,33.039 236.478,32.974 236.838 C 32.908 237.197,32.609 238.286,32.309 239.258 C 32.009 240.230,31.567 241.965,31.326 243.113 C 31.086 244.261,30.846 245.380,30.793 245.600 C 30.441 247.072,29.618 250.937,29.515 251.600 C 29.447 252.040,29.200 253.540,28.967 254.933 C 28.605 257.096,28.334 259.086,27.624 264.804 C 27.560 265.320,27.425 266.760,27.326 268.004 C 27.226 269.249,27.110 270.627,27.068 271.067 C 27.025 271.507,26.900 274.421,26.788 277.543 C 26.676 280.665,26.499 283.272,26.393 283.337 C 26.288 283.402,21.474 283.463,15.695 283.473 C 3.990 283.492,3.984 283.493,1.993 285.467 C 1.115 286.338,0.150 287.733,0.427 287.733 C 0.521 287.733,0.455 287.907,0.279 288.119 C -0.840 289.467,1.301 304.316,2.934 306.533 C 3.042 306.680,3.284 307.280,3.472 307.867 C 3.659 308.453,4.291 309.833,4.875 310.933 C 5.459 312.033,6.125 313.293,6.354 313.733 C 6.584 314.173,6.969 314.745,7.210 315.005 C 7.451 315.264,7.817 315.804,8.024 316.205 C 8.231 316.605,8.520 317.069,8.667 317.234 C 8.813 317.399,9.113 317.805,9.333 318.135 C 10.902 320.489,16.918 326.406,19.333 327.971 C 19.920 328.351,20.460 328.723,20.533 328.798 C 20.727 328.995,21.669 329.575,22.133 329.782 C 22.353 329.881,22.593 330.041,22.667 330.139 C 22.740 330.237,23.120 330.486,23.510 330.692 C 23.901 330.898,24.952 331.455,25.845 331.930 C 26.739 332.405,27.528 332.798,27.599 332.804 C 27.797 332.820,28.529 333.090,30.133 333.739 C 31.734 334.386,33.237 334.892,34.028 335.050 C 34.306 335.105,35.373 335.348,36.400 335.590 C 41.643 336.824,33.656 336.766,199.333 336.772 C 362.111 336.778,358.033 336.803,362.933 335.761 C 363.593 335.621,364.549 335.426,365.057 335.328 C 365.564 335.230,366.764 334.857,367.723 334.498 C 368.682 334.139,369.675 333.798,369.930 333.739 C 370.824 333.532,377.571 330.087,378.289 329.470 C 378.688 329.127,379.326 328.689,379.707 328.497 C 380.343 328.176,380.947 327.731,383.009 326.066 C 383.972 325.289,388.489 320.772,389.266 319.809 C 390.939 317.738,391.377 317.140,391.716 316.471 C 391.919 316.070,392.307 315.504,392.579 315.212 C 393.118 314.634,396.740 307.614,396.929 306.781 C 396.993 306.498,397.339 305.482,397.698 304.523 C 398.057 303.564,398.420 302.424,398.506 301.990 C 398.592 301.555,398.794 300.540,398.955 299.733 C 400.529 291.838,400.248 287.768,397.973 285.493 C 396.010 283.530,396.558 283.609,384.365 283.517 L 373.397 283.435 373.217 278.717 C 372.993 272.866,372.417 264.733,372.109 263.088 C 372.056 262.806,371.947 261.966,371.867 261.221 C 371.685 259.544,370.752 253.621,370.413 252.000 C 370.276 251.340,369.970 249.780,369.735 248.533 C 369.499 247.287,369.204 245.907,369.079 245.467 C 368.953 245.027,368.774 244.187,368.679 243.600 C 368.585 243.013,368.202 241.453,367.827 240.133 C 367.453 238.813,367.092 237.442,367.026 237.085 C 366.960 236.729,366.843 236.337,366.768 236.214 C 366.692 236.092,366.572 235.663,366.502 235.262 C 366.369 234.499,363.233 224.863,362.968 224.400 C 362.884 224.253,362.794 224.013,362.767 223.867 C 362.741 223.720,362.569 223.240,362.386 222.800 C 362.202 222.360,362.023 221.880,361.988 221.733 C 361.884 221.297,360.295 217.376,360.017 216.869 C 359.875 216.611,359.563 215.920,359.324 215.333 C 359.085 214.747,358.697 213.847,358.462 213.333 C 358.227 212.820,358.027 212.324,358.018 212.231 C 358.001 212.075,357.490 211.013,355.167 206.312 C 353.569 203.078,352.316 200.673,352.087 200.400 C 351.964 200.253,351.715 199.833,351.533 199.467 C 351.086 198.562,350.421 197.446,347.067 191.964 C 346.920 191.725,346.447 190.945,346.015 190.231 C 345.584 189.517,344.624 188.048,343.882 186.967 C 343.140 185.885,342.399 184.768,342.234 184.484 C 342.069 184.200,341.679 183.674,341.367 183.315 C 341.055 182.956,340.800 182.589,340.800 182.500 C 340.800 182.410,340.470 181.950,340.067 181.477 C 339.663 181.004,339.153 180.346,338.933 180.015 C 338.713 179.683,338.205 179.034,337.804 178.573 C 337.403 178.111,337.073 177.650,337.071 177.547 C 337.069 177.445,336.786 177.058,336.443 176.688 C 336.100 176.317,335.590 175.696,335.309 175.306 C 335.029 174.916,334.560 174.306,334.267 173.949 C 333.973 173.593,333.433 172.934,333.067 172.485 C 332.700 172.036,332.040 171.271,331.600 170.785 C 331.160 170.298,330.260 169.276,329.600 168.513 C 325.101 163.311,318.526 156.841,312.681 151.867 C 312.164 151.427,311.398 150.767,310.980 150.400 C 310.562 150.033,309.878 149.493,309.460 149.200 C 308.641 148.625,307.342 147.577,306.651 146.933 C 306.415 146.713,305.943 146.353,305.602 146.133 C 305.262 145.913,304.796 145.523,304.566 145.267 C 304.336 145.010,303.995 144.800,303.807 144.800 C 303.620 144.800,303.467 144.676,303.467 144.525 C 303.467 144.374,303.257 144.170,303.000 144.072 C 302.743 143.974,302.413 143.796,302.267 143.677 C 301.125 142.750,299.896 141.867,299.747 141.867 C 299.648 141.867,299.314 141.631,299.005 141.343 C 298.696 141.055,297.144 139.975,295.555 138.943 C 293.966 137.910,292.535 136.959,292.375 136.828 C 292.215 136.697,291.680 136.382,291.188 136.127 C 290.696 135.873,290.128 135.500,289.927 135.299 C 289.726 135.098,289.390 134.933,289.181 134.933 C 288.971 134.933,288.800 134.816,288.800 134.672 C 288.800 134.528,288.500 134.335,288.133 134.243 C 287.767 134.151,287.467 133.998,287.467 133.903 C 287.467 133.808,287.077 133.561,286.600 133.353 C 286.123 133.146,285.673 132.900,285.600 132.807 C 285.527 132.715,285.047 132.425,284.533 132.163 C 284.020 131.902,282.760 131.228,281.733 130.665 C 279.245 129.303,271.022 125.217,270.699 125.182 C 270.522 125.164,268.836 124.416,267.733 123.867 C 267.367 123.685,266.587 123.384,266.000 123.200 C 265.413 123.015,264.796 122.755,264.627 122.622 C 264.459 122.489,264.084 122.334,263.793 122.278 C 263.503 122.222,262.686 121.913,261.978 121.590 C 261.270 121.267,260.565 120.976,260.412 120.943 C 260.259 120.909,259.798 120.744,259.388 120.576 C 258.978 120.408,258.318 120.193,257.922 120.099 C 257.525 120.004,257.050 119.808,256.867 119.664 C 256.683 119.520,256.533 119.491,256.533 119.600 C 256.533 119.709,256.353 119.649,256.133 119.467 C 255.913 119.284,255.733 119.224,255.733 119.333 C 255.733 119.443,255.574 119.400,255.379 119.238 C 255.184 119.076,254.734 118.890,254.379 118.825 C 254.024 118.760,253.703 118.682,253.667 118.653 C 253.630 118.624,253.480 118.570,253.333 118.533 C 253.187 118.497,253.037 118.442,253.000 118.413 C 252.963 118.383,252.753 118.318,252.533 118.268 C 252.313 118.218,251.443 117.933,250.600 117.636 C 249.757 117.339,249.067 117.143,249.067 117.201 C 249.067 117.259,248.647 117.131,248.135 116.917 C 247.622 116.702,247.112 116.528,247.001 116.529 C 246.891 116.530,246.440 116.416,246.000 116.275 C 245.560 116.134,244.900 115.960,244.533 115.887 C 243.968 115.775,241.901 115.275,239.867 114.757 C 238.641 114.445,237.069 114.115,234.961 113.728 C 233.730 113.502,232.650 113.272,232.561 113.218 C 231.479 112.551,214.258 110.518,209.000 110.436 L 206.667 110.400 206.667 100.267 L 206.667 90.133 213.333 90.133 L 220.000 90.133 220.000 83.467 L 220.000 76.800 200.000 76.800 L 180.000 76.800 180.000 83.467 M212.133 123.818 C 212.573 123.892,214.133 124.035,215.600 124.137 C 217.067 124.239,218.331 124.361,218.409 124.408 C 218.488 124.455,219.268 124.577,220.143 124.677 C 221.018 124.778,221.913 124.893,222.133 124.932 C 222.527 125.003,224.293 125.280,225.600 125.476 C 227.011 125.688,228.149 125.890,228.533 125.996 C 228.753 126.057,229.473 126.178,230.133 126.266 C 230.793 126.353,231.693 126.533,232.133 126.665 C 232.573 126.797,233.593 127.027,234.400 127.177 C 236.045 127.481,236.169 127.510,238.867 128.230 C 239.930 128.514,240.800 128.705,240.800 128.654 C 240.800 128.604,241.460 128.789,242.267 129.067 C 243.073 129.344,243.733 129.524,243.733 129.466 C 243.733 129.408,244.137 129.529,244.629 129.735 C 245.122 129.941,245.812 130.167,246.163 130.237 C 246.513 130.308,248.420 130.922,250.400 131.602 C 252.380 132.282,254.120 132.871,254.267 132.912 C 254.413 132.952,254.871 133.123,255.284 133.292 C 255.697 133.462,256.183 133.600,256.364 133.600 C 256.545 133.600,256.807 133.702,256.947 133.826 C 257.086 133.950,258.220 134.442,259.467 134.919 C 263.146 136.328,264.302 136.852,271.067 140.174 C 274.000 141.614,276.460 142.856,276.533 142.932 C 276.607 143.009,277.147 143.311,277.733 143.603 C 278.320 143.894,278.860 144.193,278.933 144.267 C 279.086 144.420,280.040 144.973,281.200 145.581 C 281.640 145.811,282.060 146.074,282.133 146.164 C 282.207 146.254,282.747 146.588,283.333 146.904 C 285.251 147.940,286.265 148.585,286.356 148.828 C 286.404 148.959,286.560 149.067,286.700 149.067 C 286.841 149.067,287.606 149.547,288.400 150.133 C 289.194 150.720,289.969 151.200,290.122 151.200 C 290.275 151.200,290.400 151.320,290.400 151.467 C 290.400 151.613,290.531 151.733,290.691 151.733 C 290.981 151.733,291.749 152.272,293.445 153.667 C 293.936 154.070,294.420 154.400,294.521 154.400 C 294.622 154.400,294.861 154.550,295.053 154.733 C 295.245 154.917,295.672 155.247,296.003 155.467 C 296.334 155.687,296.799 156.055,297.036 156.286 C 297.273 156.517,297.885 156.995,298.396 157.349 C 298.908 157.703,299.526 158.174,299.769 158.396 C 300.311 158.890,301.536 159.906,302.666 160.800 C 303.129 161.167,303.911 161.827,304.402 162.267 C 304.893 162.707,305.968 163.667,306.790 164.400 C 308.689 166.093,317.305 174.712,319.067 176.681 C 321.010 178.852,321.916 179.894,322.667 180.821 C 323.033 181.273,323.573 181.921,323.867 182.261 C 324.160 182.601,324.670 183.192,325.000 183.575 C 325.330 183.957,325.600 184.350,325.600 184.446 C 325.600 184.543,325.774 184.812,325.988 185.044 C 327.275 186.447,327.467 186.693,327.467 186.942 C 327.467 187.093,327.647 187.286,327.867 187.370 C 328.087 187.455,328.267 187.695,328.267 187.904 C 328.267 188.112,328.447 188.352,328.667 188.437 C 328.887 188.521,329.067 188.737,329.067 188.915 C 329.067 189.094,329.367 189.522,329.733 189.867 C 330.100 190.211,330.402 190.622,330.405 190.780 C 330.408 190.938,330.828 191.545,331.338 192.130 C 331.849 192.715,332.267 193.345,332.267 193.530 C 332.267 193.715,332.387 193.867,332.533 193.867 C 332.680 193.867,332.800 194.047,332.800 194.267 C 332.800 194.487,332.920 194.667,333.067 194.667 C 333.213 194.667,333.333 194.847,333.333 195.067 C 333.333 195.287,333.453 195.467,333.600 195.467 C 333.747 195.467,333.867 195.647,333.867 195.867 C 333.867 196.087,333.967 196.267,334.089 196.267 C 334.211 196.267,334.657 196.927,335.079 197.733 C 335.501 198.540,335.941 199.200,336.056 199.200 C 336.172 199.200,336.267 199.310,336.267 199.443 C 336.267 199.577,336.687 200.325,337.200 201.104 C 337.713 201.883,338.133 202.674,338.133 202.861 C 338.133 203.047,338.223 203.201,338.333 203.202 C 338.443 203.203,338.669 203.473,338.835 203.802 C 340.141 206.395,340.655 207.352,340.804 207.467 C 341.046 207.654,345.602 216.800,345.453 216.800 C 345.386 216.800,345.614 217.370,345.959 218.067 C 346.304 218.763,346.769 219.753,346.992 220.267 C 347.215 220.780,347.554 221.560,347.746 222.000 C 347.938 222.440,348.112 222.860,348.133 222.933 C 348.154 223.007,348.303 223.367,348.464 223.733 C 348.840 224.590,349.129 225.382,349.215 225.788 C 349.252 225.965,349.474 226.494,349.708 226.963 C 349.942 227.432,350.133 227.909,350.133 228.024 C 350.133 228.138,350.273 228.570,350.444 228.983 C 350.615 229.396,350.780 229.823,350.811 229.933 C 350.842 230.043,350.897 230.193,350.933 230.267 C 350.970 230.340,351.020 230.490,351.044 230.600 C 351.068 230.710,351.437 231.820,351.863 233.067 C 352.290 234.313,352.665 235.453,352.696 235.600 C 352.727 235.747,353.191 237.367,353.727 239.200 C 354.750 242.705,355.940 247.315,356.170 248.667 C 356.244 249.107,356.470 250.067,356.670 250.800 C 356.870 251.533,357.160 252.973,357.314 254.000 C 357.468 255.027,357.646 256.121,357.709 256.433 C 357.772 256.744,357.896 257.464,357.986 258.033 C 358.075 258.601,358.261 259.787,358.400 260.667 C 358.633 262.147,358.717 262.833,359.070 266.133 C 359.140 266.793,359.262 267.873,359.340 268.533 C 359.618 270.898,359.944 276.728,359.984 280.067 L 360.024 283.467 200.012 283.467 L 40.000 283.467 40.006 279.533 C 40.016 273.262,40.631 266.363,41.890 258.400 C 42.503 254.520,42.456 254.778,43.174 251.333 C 44.239 246.226,44.762 244.106,46.002 239.867 C 46.688 237.520,47.289 235.420,47.338 235.200 C 47.386 234.980,47.450 234.770,47.480 234.733 C 47.509 234.697,47.553 234.577,47.578 234.467 C 47.646 234.162,48.287 232.186,48.464 231.733 C 48.550 231.513,48.641 231.273,48.666 231.200 C 48.691 231.127,48.831 230.767,48.978 230.400 C 49.124 230.033,49.518 228.953,49.852 228.000 C 50.187 227.047,50.617 225.907,50.808 225.467 C 51.000 225.027,51.358 224.127,51.605 223.467 C 52.130 222.060,52.690 220.787,53.389 219.407 C 53.666 218.861,53.884 218.350,53.873 218.271 C 53.823 217.903,59.332 206.715,59.916 206.000 C 60.035 205.853,60.382 205.253,60.687 204.666 C 61.508 203.085,61.961 202.330,62.333 201.925 C 62.517 201.725,62.667 201.390,62.667 201.181 C 62.667 200.971,62.768 200.800,62.893 200.800 C 63.017 200.800,63.335 200.320,63.600 199.733 C 63.865 199.147,64.157 198.667,64.251 198.667 C 64.344 198.667,64.765 198.009,65.185 197.206 C 65.605 196.403,66.170 195.508,66.441 195.217 C 66.712 194.927,66.933 194.601,66.933 194.494 C 66.933 194.387,67.473 193.613,68.133 192.772 C 68.793 191.932,69.333 191.136,69.333 191.002 C 69.333 190.869,69.633 190.478,70.000 190.133 C 70.367 189.789,70.667 189.361,70.667 189.182 C 70.667 189.003,70.847 188.788,71.067 188.704 C 71.287 188.619,71.467 188.379,71.467 188.170 C 71.467 187.961,71.647 187.721,71.867 187.637 C 72.087 187.552,72.267 187.300,72.267 187.075 C 72.267 186.850,72.377 186.667,72.512 186.667 C 72.646 186.667,73.003 186.268,73.305 185.780 C 73.606 185.292,74.126 184.584,74.460 184.206 C 74.794 183.828,75.307 183.201,75.600 182.814 C 75.893 182.426,76.433 181.767,76.800 181.350 C 77.167 180.932,77.861 180.128,78.343 179.562 C 80.806 176.669,81.894 175.520,86.983 170.440 C 92.058 165.374,93.104 164.385,96.097 161.817 C 96.664 161.331,97.434 160.660,97.810 160.326 C 98.186 159.993,98.844 159.453,99.273 159.126 C 99.702 158.800,100.431 158.195,100.893 157.781 C 101.355 157.367,102.063 156.854,102.467 156.641 C 102.870 156.427,103.200 156.136,103.200 155.993 C 103.200 155.850,103.384 155.733,103.608 155.733 C 103.833 155.733,104.086 155.553,104.170 155.333 C 104.255 155.113,104.461 154.931,104.629 154.929 C 104.796 154.927,105.353 154.568,105.867 154.132 C 106.380 153.696,106.945 153.218,107.122 153.070 C 107.299 152.921,107.569 152.800,107.722 152.800 C 107.875 152.800,108.000 152.688,108.000 152.551 C 108.000 152.415,108.210 152.235,108.467 152.153 C 108.723 152.070,109.337 151.657,109.830 151.234 C 110.323 150.812,111.703 149.889,112.897 149.184 C 114.090 148.479,115.127 147.831,115.200 147.745 C 115.442 147.459,120.035 144.800,120.287 144.800 C 120.422 144.800,120.533 144.708,120.533 144.596 C 120.533 144.484,120.983 144.179,121.533 143.919 C 122.083 143.659,123.373 142.979,124.400 142.407 C 126.479 141.251,130.491 139.237,132.933 138.124 C 135.803 136.817,138.471 135.649,138.667 135.615 C 138.740 135.602,138.926 135.511,139.080 135.413 C 139.458 135.172,142.166 134.104,142.667 133.998 C 142.887 133.952,143.427 133.763,143.867 133.579 C 144.307 133.395,144.727 133.230,144.800 133.211 C 145.645 133.000,147.943 132.136,148.200 131.932 C 148.383 131.787,148.533 131.757,148.533 131.867 C 148.533 131.976,148.713 131.916,148.933 131.733 C 149.153 131.551,149.333 131.491,149.333 131.600 C 149.333 131.709,149.513 131.649,149.733 131.467 C 149.953 131.284,150.133 131.224,150.133 131.333 C 150.133 131.443,150.313 131.383,150.533 131.200 C 150.753 131.017,150.933 130.936,150.933 131.020 C 150.933 131.103,151.623 130.928,152.467 130.631 C 154.087 130.060,154.084 130.061,155.333 129.753 C 155.773 129.645,156.435 129.444,156.804 129.305 C 157.172 129.167,157.772 128.999,158.137 128.931 C 158.502 128.864,160.000 128.493,161.467 128.107 C 162.933 127.721,164.613 127.314,165.200 127.202 C 165.787 127.090,167.047 126.813,168.000 126.586 C 168.953 126.359,170.153 126.113,170.667 126.038 C 171.180 125.962,172.320 125.780,173.200 125.631 C 174.693 125.379,176.674 125.067,177.600 124.938 C 177.820 124.908,178.840 124.789,179.867 124.675 C 180.893 124.560,181.971 124.423,182.261 124.370 C 182.840 124.264,184.915 124.061,188.800 123.730 C 191.407 123.508,210.704 123.581,212.133 123.818 M385.764 297.871 C 385.682 298.459,385.487 299.179,385.331 299.471 C 385.175 299.762,385.127 300.000,385.223 300.000 C 385.320 300.000,385.249 300.180,385.067 300.400 C 384.884 300.620,384.824 300.800,384.933 300.800 C 385.043 300.800,384.983 300.980,384.800 301.200 C 384.617 301.420,384.545 301.600,384.640 301.600 C 384.735 301.600,384.616 301.900,384.375 302.267 C 384.135 302.633,384.006 302.933,384.087 302.933 C 384.451 302.933,381.363 308.508,380.302 309.765 C 379.916 310.223,379.240 311.053,378.800 311.611 C 377.807 312.870,376.116 314.570,374.912 315.520 C 374.411 315.917,373.408 316.722,372.685 317.310 C 371.362 318.384,365.971 321.248,364.884 321.453 C 364.563 321.513,364.053 321.695,363.751 321.857 C 363.448 322.019,363.200 322.091,363.200 322.016 C 363.200 321.941,362.870 322.008,362.467 322.164 C 361.522 322.529,361.153 322.610,358.267 323.083 C 355.636 323.514,43.198 323.539,40.933 323.108 C 40.347 322.996,39.567 322.794,39.200 322.659 C 38.833 322.524,38.233 322.363,37.867 322.300 C 36.440 322.056,29.873 319.250,29.333 318.653 C 29.260 318.572,28.720 318.216,28.133 317.863 C 27.547 317.509,26.926 317.095,26.755 316.943 C 26.583 316.791,26.133 316.427,25.754 316.133 C 25.105 315.631,21.916 312.498,20.600 311.070 C 20.270 310.712,20.000 310.313,20.000 310.184 C 20.000 310.055,19.760 309.732,19.466 309.466 C 19.172 309.200,18.615 308.432,18.228 307.758 C 16.871 305.395,16.210 304.130,16.127 303.733 C 16.081 303.513,15.852 302.884,15.619 302.335 C 15.385 301.785,15.225 301.294,15.264 301.242 C 15.302 301.191,15.169 300.950,14.967 300.708 C 14.766 300.465,14.680 300.267,14.777 300.267 C 14.873 300.267,14.834 300.045,14.689 299.775 C 14.544 299.504,14.365 298.994,14.291 298.641 C 14.217 298.289,14.077 297.730,13.980 297.400 L 13.804 296.800 199.859 296.800 L 385.914 296.800 385.764 297.871 " stroke="none" fill="#404040" fill-rule="evenodd"></path></g></svg>