<svg xmlns="http://www.w3.org/2000/svg" viewBox="0 0 1500 1500"><defs><style>.cls-1{fill:#404040;}</style></defs><title>Iconos finales</title><g id="wow"><path class="cls-1" d="M385.64,222.26a230.47,230.47,0,0,1,37.79,3.13c124.94,20.73,209.41,138.85,188.66,263.8A228,228,0,0,1,575,581a357.21,357.21,0,0,1,107.92-16.79,354.46,354.46,0,0,1,211,69.75,228.07,228.07,0,0,1-5.48-98.93c18.64-112.22,115.82-191.8,226-191.79a230,230,0,0,1,37.85,3.14c124.94,20.73,209.41,138.85,188.67,263.79C1322.21,722.42,1225,802,1114.9,802a231.07,231.07,0,0,1-37.84-3.13,228.68,228.68,0,0,1-69-23.29,354.75,354.75,0,0,1,26.25,203.81c-29,174.59-180.16,298.36-351.51,298.36a359.4,359.4,0,0,1-58.84-4.87c-194.35-32.27-325.76-216-293.48-410.36a354.79,354.79,0,0,1,90.72-184.39,232.87,232.87,0,0,1-35.75,2.78,226.54,226.54,0,0,1-37.11-3C256.39,662.59,186.56,594.58,164.23,510c-16.76-45.72-2.71-104.66-2.71-104.66,22.15-107.56,116.92-183.07,224.12-183.07m0-46a275.17,275.17,0,0,0-269,219.17c-2.36,10.26-15.55,73.29,3.69,128.28a275.22,275.22,0,0,0,212.06,198,402.56,402.56,0,0,0,284,596.55,401.95,401.95,0,0,0,325.1-89A402.86,402.86,0,0,0,1078,845.51a274.74,274.74,0,0,0,213.79-62.1,275.25,275.25,0,0,0-132-482.39,274.72,274.72,0,0,0-222.26,60.83A274.39,274.39,0,0,0,843,527.52q-1.92,11.47-2.84,23a400.31,400.31,0,0,0-157.3-32.26q-15.09,0-30.14,1.14,2.84-11.17,4.74-22.65A275.11,275.11,0,0,0,431,180a277.42,277.42,0,0,0-45.32-3.75Z"/></g></svg>