<svg xmlns="http://www.w3.org/2000/svg" viewBox="0 0 1500 1500"><defs><style>.cls-1,.cls-2{fill:none;stroke:#fff;stroke-linecap:round;stroke-width:46px;}.cls-1{stroke-linejoin:round;}.cls-2{stroke-miterlimit:10;}</style></defs><title>Iconos correcciones</title><g id="mollete"><path class="cls-1" d="M1398.85,734.38v70.86C1398.85,909.49,1307.59,994,1195,994H262.07C149.49,994,58.22,909.49,58.22,805.24V734.38H945.36"/><path class="cls-1" d="M960.46,734.46c47.21,0,66.25,21.51,86.58,32s37.5,29.72,39.78,52.5c2,20.08-7.49,39.59-8.18,59.76s14.4,37.67,34.56,38.58c18.31.84,39.78-20.07,39.47-37.28s-.11-37.93,14.5-47,34.84-.21,50.73-7c13.18-5.64.26-26.35,8.84-37.84,31.74-42.5,93.23-43.7,145.65-51.84,9.78-1.52,26.27-18.93,22.29-35.44A34.24,34.24,0,0,0,1368,667.6c-34.91-7.69-61.71-31.2-87.63-53.94-30.15-26.45-58.63-51.44-98.08-51.44-49.28,0-72.43,11.6-99.26,25-29,14.54-61.94,31-124.59,31s-95.56-16.48-124.6-31c-26.82-13.43-50-25-99.27-25h-.54c-49.28,0-72.44,11.6-99.26,25-29,14.54-61.95,31-124.6,31s-95.56-16.48-124.6-31c-26.81-13.42-50-25-99.25-25-39.44,0-67.92,25-98.08,51.44-25.92,22.74-52.72,46.25-87.63,53.94a34.22,34.22,0,0,0-24.54,45.17"/><path class="cls-1" d="M626.32,473.83l82.14-47.43a27.73,27.73,0,0,1,37.87,10.15l38.25,66.87"/><path class="cls-1" d="M918.18,585.65V535.92a24.17,24.17,0,0,1,24.17-24.17h74.94a24.17,24.17,0,0,1,24.17,24.17v49.73"/><path class="cls-1" d="M406.39,582.1V539.47a27.72,27.72,0,0,1,27.71-27.72H502"/><circle class="cls-1" cx="848.4" cy="518.27" r="63.83"/><circle class="cls-1" cx="573.21" cy="532.13" r="63.83"/><path class="cls-2" d="M1277.26,994h122.86a41.66,41.66,0,0,1,41.66,41.66h0a41.66,41.66,0,0,1-41.66,41.66H109.17a41.66,41.66,0,0,1-41.66-41.66h0A41.66,41.66,0,0,1,109.17,994H1277.26"/></g></svg>