<?xml version="1.0" encoding="utf-8"?>
<!-- Generator: Adobe Illustrator 22.0.0, SVG Export Plug-In . SVG Version: 6.00 Build 0)  -->
<svg version="1.1" id="Layer_1" xmlns="http://www.w3.org/2000/svg" xmlns:xlink="http://www.w3.org/1999/xlink" x="0px" y="0px"
	 viewBox="0 0 1500 1500" style="enable-background:new 0 0 1500 1500;" xml:space="preserve">
<style type="text/css">
	.st0{fill:#ED7124;}
</style>
<title>Iconos finales</title>
<g id="papalote">
	<path class="st0" d="M420,1384.1c-212.6-0.2-384.8-172.8-384.5-385.5C35.7,786,208.3,613.9,420.9,614.1
		c212.6,0.2,384.8,172.8,384.5,385.5c-0.2,154.6-92.8,294-235.2,354.2C522.7,1373.9,471.6,1384.2,420,1384.1z M420,658
		C232.2,658.1,80.1,810.4,80.1,998.1s152.4,339.9,340.1,339.9s339.9-152.4,339.9-340.1c0-63.8-18-126.3-51.9-180.4
		c-33-52.5-79.6-95.1-135-123.1l0,0C525.8,670.3,473.3,657.8,420,658z"/>
	<path class="st0" d="M783.1,1010.3c-9,0-17.2-5.2-20.9-13.4c-17.2-37.4-64.9-70.2-137.9-95c-28.9-9.7-58.3-17.4-88.2-23.1l0.1,1.1
		c0.1,1,0.1,1.9,0.1,2.9l-0.8,26.1c-0.4,12.7-11,22.7-23.7,22.2c-0.8,0-1.5-0.1-2.3-0.2c-91.4-12.2-151.8-53.8-186.3-86.5
		c-8.6-8.1-16.7-16.7-24.3-25.8c-10.6,33.2-24.6,62.5-41.7,87.6c-20.8,30.4-46.2,54.7-75.5,72.2c-50.7,30.1-95.8,29.3-97.7,29.3
		l1.2-46H85c0.4,0,35.7,0.2,75.3-24.2c23.1-14.2,43.2-34,59.9-58.8c21.3-31.8,37-71.9,46.6-119.4c2.5-12.5,14.6-20.5,27.1-18
		c7.1,1.4,13.2,6.2,16.3,12.8c0.1,0.2,13.9,28.3,46.1,58.4c36.9,34.5,81.9,57.5,133.8,68.5c-1.9-23.2,0.3-35.1,7.8-43.3
		c4.8-5.3,11.7-8.4,18.9-8.4c1,0,2.1,0.1,3.1,0.2c40.5,6.1,80.4,15.8,119.2,28.9c86.5,29.4,142,69.5,164.9,119.4
		c5.3,11.5,0.3,25.2-11.3,30.5C789.7,1009.5,786.4,1010.3,783.1,1010.3z"/>
	<path class="st0" d="M363.4,1107.4c-12.7,0-23-10.3-23-23l0,0c0-10.6-8.6-19.2-19.2-19.2s-19.2,8.6-19.2,19.2l0,0
		c0,12.7-10.3,23-23,23s-23-10.3-23-23c0-36,29.2-65.2,65.2-65.2c36,0,65.1,29.2,65.2,65.2C386.4,1097.1,376.1,1107.4,363.4,1107.4
		L363.4,1107.4z"/>
	<path class="st0" d="M583.7,1107.4c-12.7,0-23-10.3-23-23l0,0c0-10.6-8.6-19.2-19.2-19.2c-10.6,0-19.2,8.6-19.2,19.2l0,0
		c0,12.7-10.3,23-23,23c-12.7,0-23-10.3-23-23c0-36,29.2-65.2,65.2-65.2c36,0,65.1,29.2,65.2,65.2
		C606.7,1097.1,596.4,1107.4,583.7,1107.4L583.7,1107.4z"/>
	<path class="st0" d="M429.9,1246.7c-42.6,0.1-83.6-16.8-113.7-47c-8.8-9.2-8.5-23.7,0.7-32.5c8.9-8.5,23-8.5,31.8,0
		c44.8,44.7,117.4,44.7,162.3,0c9.1-8.9,23.6-8.7,32.5,0.3c8.8,8.9,8.8,23.2,0,32.2C513.5,1229.9,472.5,1246.8,429.9,1246.7z"/>
	<path class="st0" d="M913.7,893.1c-60.5,0.2-120.2-14-174.1-41.4c-11.1-6.2-15-20.2-8.8-31.3c5.8-10.4,18.7-14.7,29.6-9.7
		c167.7,84.7,372.2,17.4,456.9-150.3c66.2-131.1,40.8-290-63.1-393.8c-132.9-132.8-348.3-132.7-481,0.2
		c-106.1,106.2-130,269.4-58.9,401.6c6,11.2,1.9,25.1-9.3,31.2c-11.2,6-25.1,1.9-31.2-9.3C472.4,502.5,542.4,268,730.2,166.5
		s422.3-31.5,523.7,156.3s31.5,422.3-156.3,523.7C1041.1,877.1,977.9,893.1,913.7,893.1z"/>
	<path class="st0" d="M1276.8,519.2c-9,0-17.2-5.2-20.9-13.4c-17.2-37.4-64.9-70.2-137.9-95c-28.9-9.7-58.3-17.3-88.2-23l0.1,1.1
		c0.1,1,0.1,1.9,0.1,2.9l-0.8,26.1c-0.4,12.7-11,22.7-23.7,22.2c-0.8,0-1.5-0.1-2.3-0.2c-91.4-12.2-151.8-53.7-186.3-86.5
		c-8.6-8.1-16.7-16.7-24.3-25.8C782,360.7,768,390,750.9,415.1c-20.8,30.4-46.2,54.7-75.5,72.1c-50.6,30.1-95.8,29.4-97.7,29.3
		l1.2-46h-0.1c0.4,0,35.7,0.1,75.3-24.2c23.1-14.2,43.2-34,59.9-58.8c21.3-31.7,37-71.9,46.6-119.4c2.5-12.5,14.6-20.5,27.1-18
		c7.1,1.4,13.1,6.1,16.2,12.7c0.1,0.2,13.9,28.3,46.2,58.4c36.9,34.5,81.9,57.5,133.8,68.5c-1.9-23.2,0.3-35.1,7.8-43.4
		c4.8-5.3,11.7-8.4,18.9-8.4c1,0,2.1,0.1,3.1,0.2c40.5,6.1,80.4,15.8,119.2,28.9c86.5,29.4,142,69.5,164.9,119.4
		c5.3,11.5,0.3,25.2-11.3,30.5C1283.4,518.5,1280.1,519.2,1276.8,519.2L1276.8,519.2z"/>
	<path class="st0" d="M857.1,616.3c-12.7,0-23-10.3-23-23c0-10.6-8.6-19.2-19.2-19.2c-10.6,0-19.2,8.6-19.2,19.2l0,0
		c0,12.7-10.3,23-23,23s-23-10.3-23-23c0-36,29.2-65.2,65.2-65.2c36,0,65.1,29.2,65.2,65.2C880.1,606,869.8,616.3,857.1,616.3z"/>
	<path class="st0" d="M1077.4,616.3c-12.7,0-23-10.3-23-23c0.2-10.6-8.1-19.4-18.7-19.6s-19.4,8.1-19.6,18.7c0,0.3,0,0.6,0,0.9
		c0,12.7-10.3,23-23,23s-23-10.3-23-23c-0.4-36,28.4-65.5,64.3-66s65.5,28.4,66,64.3c0,0.5,0,1.1,0,1.6
		C1100.4,606,1090.1,616.3,1077.4,616.3z"/>
	<path class="st0" d="M923.6,755.6c-42.6,0.1-83.6-16.8-113.7-47c-8.9-9.1-8.7-23.6,0.3-32.5c8.9-8.8,23.2-8.8,32.2,0
		c44.8,44.7,117.4,44.7,162.3,0c9-9,23.5-9,32.5,0s9,23.5,0,32.5C1007.2,738.8,966.3,755.8,923.6,755.6z"/>
	<path class="st0" d="M490.5,439.4c-13.8-0.1-27.6-1.4-41.2-3.9c-46.1-8.4-90.9-29.1-113-44.8c-10.4-7.4-12.8-21.7-5.4-32.1
		c4.7-6.7,12.6-10.3,20.8-9.6c4.8,0.4,18.4-2.7,39-17c18.2-12.6,31.4-27,36-34.9c10.1-17.7,7-38.2,3.4-61.9c-2.9-19.2-6-39-1.9-59.2
		c5-24.6,19.3-44,43.7-59.4c49.8-31.3,108.7-27,153.8,11.2c20.3,17.2,35.8,40.2,43.7,64.8c8.7,27.1,7.8,54.5-2.5,79.1
		c-4.7,11.8-18.1,17.5-29.9,12.8c-11.8-4.7-17.5-18.1-12.8-29.9c0.1-0.2,0.2-0.5,0.3-0.7c12.2-29,0.5-66.4-28.4-90.9
		c-13.7-11.6-29.6-18.8-46-20.6c-18.2-2.1-36.2,2.4-53.5,13.3c-28,17.6-26.5,36-20.9,72.8c4.3,28.2,9.2,60.1-8.9,91.7
		c-9.1,16-27.7,34.6-49.7,49.9c-2.9,2-6,4-9.2,6.1c16.1,6.4,32.9,11.2,49.9,14.3c56,10.1,83.8-5.8,97.3-21
		c8.2-9.7,22.7-10.8,32.4-2.6c9.7,8.2,10.8,22.7,2.6,32.4c-0.2,0.3-0.5,0.5-0.7,0.8C565.7,426,532.1,439.4,490.5,439.4z"/>
	<path class="st0" d="M1339.3,439.4c-41.6,0-75.3-13.4-98.6-39.6c-8.4-9.5-7.6-24,1.9-32.5c9.5-8.4,24-7.6,32.5,1.9
		c13.5,15.2,41.3,31.1,97.2,21c17.1-3.2,33.8-8,49.9-14.3c-3.3-2-6.4-4.1-9.2-6.1c-21.9-15.2-40.5-33.9-49.7-49.9
		c-18.1-31.6-13.2-63.5-8.9-91.7c5.6-36.8,7.1-55.2-20.9-72.8c-17.3-10.9-35.3-15.4-53.5-13.3c-16.4,1.9-32.3,9-46,20.6
		c-28.9,24.5-40.6,61.9-28.4,90.9c4.9,11.7-0.6,25.2-12.3,30.1c-11.7,4.9-25.2-0.6-30.1-12.3c-10.3-24.6-11.2-51.9-2.5-79.1
		c7.8-24.5,23.3-47.5,43.6-64.8c45.1-38.2,104-42.5,153.8-11.2c24.5,15.4,38.8,34.8,43.7,59.5c4.1,20.2,1,40-1.9,59.2
		c-3.6,23.7-6.8,44.2,3.4,61.9c4.5,8,17.7,22.3,36,34.9c20.6,14.3,34.2,17.4,39,17c12.7-1.1,23.8,8.3,24.9,21c0.7,8.1-3,16-9.6,20.7
		c-22.1,15.7-66.9,36.4-113,44.8C1367,438,1353.2,439.3,1339.3,439.4z"/>
</g>
</svg>
