<?xml version="1.0" encoding="UTF-8"?>
<svg width="32px" height="31px" viewBox="0 0 32 31" version="1.1" xmlns="http://www.w3.org/2000/svg" xmlns:xlink="http://www.w3.org/1999/xlink">
    <!-- Generator: Sketch 51.3 (57544) - http://www.bohemiancoding.com/sketch -->
    <title>noun_building_1247472</title>
    <desc>Created with Sketch.</desc>
    <defs></defs>
    <g id="Desktop-" stroke="none" stroke-width="1" fill="none" fill-rule="evenodd">
        <g id="Registro-deliverypaso2" transform="translate(-1134.000000, -662.000000)" fill="#FFFFFF" fill-rule="nonzero">
            <g id="noun_building_1247472" transform="translate(1134.000000, 662.000000)">
                <path d="M12.3591524,17 L14.6408476,17 C14.8390997,17 15,16.8346282 15,16.6300407 L15,14.54532 C15,13.6933037 14.3269484,13 13.5001796,13 C12.6730516,13 12,13.6933037 12,14.54532 L12,16.6300407 C12,16.8342582 12.1609003,17 12.3591524,17 Z M12.7183048,14.54532 C12.7183048,14.1013688 13.0691967,13.7399186 13.5001796,13.7399186 C13.9311625,13.7399186 14.2816952,14.1013688 14.2816952,14.54532 L14.2816952,16.2600814 L12.7183048,16.2600814 L12.7183048,14.54532 Z" id="Shape"></path>
                <path d="M12.3591524,11 L14.6408476,11 C14.8390997,11 15,10.8346282 15,10.6300407 L15,8.54495006 C15,7.69293378 14.3269484,7 13.5001796,7 C12.6730516,7 12,7.69293378 12,8.54495006 L12,10.6300407 C12,10.8346282 12.1609003,11 12.3591524,11 Z M12.7183048,8.54495006 C12.7183048,8.10099889 13.0691967,7.73991861 13.5001796,7.73991861 C13.9311625,7.73991861 14.2816952,8.10099889 14.2816952,8.54495006 L14.2816952,10.2600814 L12.7183048,10.2600814 L12.7183048,8.54495006 Z" id="Shape"></path>
                <path d="M7.6408476,17 C7.83909972,17 8,16.8346282 8,16.6300407 L8,14.54532 C8,13.6933037 7.3269484,13 6.49982042,13 C5.67269245,13 5,13.6933037 5,14.54532 L5,16.6300407 C5,16.8346282 5.16090028,17 5.3591524,17 L7.6408476,17 Z M5.7183048,14.54532 C5.7183048,14.1013688 6.06883754,13.7399186 6.49982042,13.7399186 C6.9308033,13.7399186 7.2816952,14.1013688 7.2816952,14.54532 L7.2816952,16.2600814 L5.7183048,16.2600814 L5.7183048,14.54532 Z" id="Shape"></path>
                <path d="M5.3591524,11 L7.6408476,11 C7.83909972,11 8,10.8346282 8,10.6300407 L8,8.54495006 C8,7.69293378 7.3269484,7 6.49982042,7 C5.67269245,7 5,7.69293378 5,8.54495006 L5,10.6300407 C5,10.8346282 5.16090028,11 5.3591524,11 Z M5.7183048,8.54495006 C5.7183048,8.10099889 6.06883754,7.73991861 6.49982042,7.73991861 C6.9308033,7.73991861 7.2816952,8.10099889 7.2816952,8.54495006 L7.2816952,10.2600814 L5.7183048,10.2600814 L5.7183048,8.54495006 Z" id="Shape"></path>
                <path d="M32,17.8060125 C32,16.9694 31.728025,16.1614625 31.2132293,15.469775 C31.1744899,15.41785 31.1345523,15.3667 31.0934165,15.316325 C31.2747332,14.89705 31.3665897,14.4580125 31.3665897,14.008125 C31.3665897,13.2288625 31.0874259,12.4713 30.5754259,11.8493625 C30.7160062,11.50565 30.7870952,11.1472125 30.7870952,10.78025 C30.7870952,10.7279375 30.7854977,10.675625 30.782702,10.6233125 C30.6920437,8.9764375 29.1971794,7.6860625 27.37922,7.6860625 C25.500156,7.6860625 23.9713448,9.0740875 23.9713448,10.78025 C23.9713448,11.1472125 24.0424337,11.50565 24.183014,11.8493625 C24.0711888,11.9849875 23.9729423,12.1283625 23.8838814,12.2756125 C23.5320312,12.1283625 23.1478315,12.0466 22.7580406,12.0466 C21.2715632,12.0466 20.0622527,13.1474875 20.0622527,14.50025 C20.0622527,14.7746 20.1121747,15.04275 20.2108206,15.300825 C19.8282184,15.7840375 19.6201435,16.365675 19.6201435,16.963975 C19.6201435,17.301875 19.6856412,17.632025 19.815039,17.9486125 C19.3757254,18.504675 19.1364992,19.1754375 19.1364992,19.8628625 C19.1364992,21.5554625 20.5538846,22.9524 22.3678502,23.1294875 L22.3774353,26.25235 L17.1731669,26.25235 L17.1731669,5.0417625 L17.8005866,5.0417625 C18.0210421,5.0417625 18.1999626,4.86855 18.1999626,4.6542625 L18.1999626,2.7125 C18.1999626,2.4982125 18.0210421,2.325 17.8005866,2.325 L11.6609797,2.325 L11.6609797,0.3875 C11.6609797,0.1732125 11.4820593,0 11.2616037,0 L8.53266771,0 C8.31221217,0 8.13329173,0.1732125 8.13329173,0.3875 L8.13329173,2.325 L7.18876755,2.325 L7.18876755,0.3875 C7.18876755,0.1732125 7.00984711,0 6.78939158,0 L4.06045554,0 C3.84,0 3.66107956,0.1732125 3.66107956,0.3875 L3.66107956,2.325 L1.53280499,2.325 C1.31234945,2.325 1.13342902,2.4982125 1.13342902,2.7125 L1.13342902,4.6542625 C1.13342902,4.86855 1.31234945,5.0417625 1.53280499,5.0417625 L2.12188456,5.0417625 L2.12188456,26.253125 L1.68097348,26.253125 C1.46051794,26.253125 1.2815975,26.4263375 1.2815975,26.640625 L1.2815975,28.27355 L0.399375975,28.27355 C0.178920437,28.27355 0,28.4467625 0,28.66105 L0,30.6125 C0,30.8267875 0.178920437,31 0.399375975,31 L31.550702,31 C31.7711576,31 31.950078,30.8267875 31.950078,30.6125 L31.950078,28.66105 C31.950078,28.4467625 31.7711576,28.27355 31.550702,28.27355 L30.6688799,28.27355 L30.6688799,26.640625 C30.6688799,26.4263375 30.4899594,26.253125 30.2695039,26.253125 L27.8033573,26.253125 L27.7893791,21.9724125 C30.145298,21.7837 32,19.9888 32,17.8060125 Z M27.3796193,8.4610625 C28.7726427,8.4610625 29.9172543,9.4290375 29.9855476,10.664 C29.9875445,10.70275 29.9887426,10.7411125 29.9887426,10.7806375 C29.9887426,11.11195 29.908468,11.4355125 29.7507145,11.742025 C29.6764306,11.886175 29.7015913,12.0593875 29.8142153,12.1779625 C30.3002559,12.68985 30.5682371,13.340075 30.5682371,14.0085125 C30.5682371,14.4208125 30.4675944,14.8230375 30.2687051,15.203175 C30.1940218,15.345775 30.217585,15.5182125 30.3278128,15.637175 C30.4124805,15.728625 30.4923557,15.8243375 30.5662402,15.9235375 C30.9819906,16.4823125 31.2016474,17.1333125 31.2016474,17.8060125 C31.2016474,19.5637125 29.7035881,21.0145125 27.7869828,21.19625 L27.7809922,19.43235 L29.1248924,18.1284125 C29.2810484,17.9769 29.2810484,17.732 29.1248924,17.5804875 C28.9687363,17.428975 28.7163307,17.428975 28.5601747,17.5804875 L27.7773978,18.3399875 L27.7726053,16.874075 C27.7718066,16.660175 27.5932855,16.4877375 27.3732293,16.4877375 C27.37283,16.4877375 27.3724306,16.4877375 27.3720312,16.4877375 C27.1515757,16.4885125 26.9730546,16.6625 26.9738534,16.8764 L26.9786459,18.2869 L26.2505835,17.5804875 C26.0944275,17.428975 25.8420218,17.428975 25.6858658,17.5804875 C25.5297098,17.732 25.5297098,17.9769 25.6858658,18.1284125 L26.9822402,19.3862375 L26.9882309,21.198575 C25.0640374,21.0230375 23.5579906,19.5683625 23.5579906,17.8060125 C23.5579906,17.0162875 23.8683058,16.2459375 24.4318253,15.6367875 C24.542053,15.517825 24.5652168,15.3453875 24.4905335,15.2027875 C24.2920437,14.8230375 24.1910016,14.420425 24.1910016,14.008125 C24.1910016,13.3396875 24.4585835,12.68985 24.944624,12.177575 C25.057248,12.059 25.0824087,11.8854 25.0081248,11.7416375 C24.8499719,11.4355125 24.7700967,11.11195 24.7700967,10.78025 C24.7704961,9.5011125 25.9410671,8.4610625 27.3796193,8.4610625 Z M19.9356505,19.8636375 C19.9356505,19.2839375 20.1640936,18.7174125 20.5786459,18.2694625 C20.6884743,18.1505 20.7120374,17.9780625 20.6377535,17.8354625 C20.49278,17.5580125 20.4192949,17.264675 20.4192949,16.96475 C20.4192949,16.47805 20.6145897,16.0041375 20.9696349,15.6302 C21.0818596,15.511625 21.1070203,15.338025 21.0331357,15.1942625 C20.9193136,14.9733875 20.8614041,14.7401125 20.8614041,14.501025 C20.8614041,13.5752875 21.7124743,12.822375 22.7584399,12.822375 C23.036805,12.822375 23.3099782,12.879725 23.5599875,12.9831875 C23.4517566,13.3141125 23.3922496,13.6589875 23.3922496,14.0085125 C23.3922496,14.4587875 23.4837067,14.897825 23.6654228,15.3171 C23.0791388,16.03475 22.7588393,16.90895 22.7588393,17.8064 C22.7588393,19.3242375 23.6586334,20.6522 24.9973417,21.3857375 C24.5468456,21.9096375 23.8910702,22.2529625 23.1646053,22.3467375 L23.1598128,20.7626375 C23.1594134,20.5487375 22.980493,20.3763 22.7604368,20.3763 C22.7600374,20.3763 22.7596381,20.3763 22.7592387,20.3763 C22.5387832,20.377075 22.3602621,20.550675 22.3610608,20.7649625 L22.3658534,22.3482875 C20.995195,22.1770125 19.9356505,21.1296 19.9356505,19.8636375 Z M8.93164431,0.775 L10.8618284,0.775 L10.8618284,2.325 L8.93164431,2.325 L8.93164431,0.775 Z M4.45983151,0.775 L6.3900156,0.775 L6.3900156,2.325 L4.45983151,2.325 L4.45983151,0.775 Z M1.93218097,3.1 L17.40161,3.1 L17.40161,4.2667625 L1.93218097,4.2667625 L1.93218097,3.1 Z M2.92063651,5.0417625 L16.374415,5.0417625 L16.374415,26.253125 L12.2808112,26.253125 L12.2808112,18.79375 C12.2808112,18.5794625 12.1018908,18.40625 11.8814353,18.40625 L7.45195632,18.40625 C7.23150078,18.40625 7.05258034,18.5794625 7.05258034,18.79375 L7.05258034,26.253125 L2.92063651,26.253125 L2.92063651,5.0417625 Z M11.4820593,26.253125 L7.85133229,26.253125 L7.85133229,19.18125 L11.4820593,19.18125 L11.4820593,26.253125 Z M31.1513261,30.225 L0.79875195,30.225 L0.79875195,29.04855 L31.1513261,29.04855 L31.1513261,30.225 Z M29.8701279,28.27355 L2.07995008,28.27355 L2.07995008,27.028125 L29.8697285,27.028125 L29.8697285,28.27355 L29.8701279,28.27355 Z M23.1765866,26.253125 L23.1670016,23.1271625 C24.2061778,23.0202125 25.150702,22.5110375 25.7493666,21.7174375 C26.1411544,21.8519 26.5565055,21.9406375 26.9902278,21.973575 L27.0042059,26.253125 L23.1765866,26.253125 Z" id="Shape"></path>
            </g>
        </g>
    </g>
</svg>