<svg id="Capa_2" data-name="Capa 2" xmlns="http://www.w3.org/2000/svg" viewBox="0 0 1432.08 971.99"><defs><style>.cls-1{fill:none;stroke:#000;stroke-linecap:round;stroke-linejoin:round;stroke-width:46px;}</style></defs><title>Icono Pan de Muerto</title><path d="M207.27,1106" transform="translate(-23.28 -264.39)"/><path class="cls-1" d="M207.27,1124.69S15.88,1039,91.77,871.94C152.23,738.87,225,543.51,481,446.63c65.33-24.72,142.59-43,234.61-52.25C1168.22,349,1370.17,872,1370.17,872s81.83,224.62-199.91,278S634.67,1271.84,207.27,1124.69Z" transform="translate(-23.28 -264.39)"/><path class="cls-1" d="M471.89,446.63c-64.31-53.22-137.54-40.24-173.14-28.43C216,445.66,198.19,547.34,198.19,547.34S60.36,586.85,47.34,698.19C40.5,756.67,67.82,809.21,97.45,839" transform="translate(-23.28 -264.39)"/><path class="cls-1" d="M573.35,418.2S615.12,282,743.62,287.55,896.25,407,896.25,407" transform="translate(-23.28 -264.39)"/><path class="cls-1" d="M1009.87,450.41s62.77-65.38,144.38-42c108.81,31.16,122.66,158.49,122.66,158.49s92.1-5.21,139.7,110.7c9.85,24,47.44,84.34-46.44,194.36" transform="translate(-23.28 -264.39)"/><path class="cls-1" d="M634.67,780.6S541.84,511,731,511c0,0,163.58-20.43,96.42,269.57,0,0,97.78,272.36-83.8,275.15S634.67,780.6,634.67,780.6Z" transform="translate(-23.28 -264.39)"/></svg>