<svg xmlns="http://www.w3.org/2000/svg" viewBox="0 0 1500 1500"><defs><style>.cls-1{fill:#a9a6a1;}</style></defs><title>Iconos finales</title><g id="wow"><path class="cls-1" d="M1050.72,685.31a60.49,60.49,0,0,1,60.48,60.36v398a60.55,60.55,0,0,1-60.48,60.48H449.16a60.49,60.49,0,0,1-60.36-60.48v-398a60.43,60.43,0,0,1,60.36-60.36h601.56m0-46H449.16A106.49,106.49,0,0,0,342.8,745.67v398c0,58.66,47.72,106.48,106.36,106.48h601.56a106.67,106.67,0,0,0,106.48-106.48v-398c0-58.64-47.82-106.36-106.48-106.36Z"/><path class="cls-1" d="M1007.25,662.31a23,23,0,0,1-23-23V527.39c0-127.65-105.06-231.5-234.19-231.5S515.75,399.74,515.75,527.39V639.31a23,23,0,0,1-46,0V527.39c0-153,125.74-277.5,280.31-277.5s280.19,124.48,280.19,277.5V639.31A23,23,0,0,1,1007.25,662.31Z"/><path class="cls-1" d="M750,842.91a40.8,40.8,0,0,1,40.64,40.78v122a40.71,40.71,0,1,1-81.41,0v-122A40.83,40.83,0,0,1,750,842.91m0-46a86.87,86.87,0,0,0-86.77,86.78v122a86.71,86.71,0,1,0,173.41,0v-122A86.8,86.8,0,0,0,750,796.91Z"/></g></svg>