<?xml version="1.0" encoding="utf-8"?>
<!-- Generator: Adobe Illustrator 22.0.0, SVG Export Plug-In . SVG Version: 6.00 Build 0)  -->
<svg version="1.1" id="Layer_1" xmlns="http://www.w3.org/2000/svg" xmlns:xlink="http://www.w3.org/1999/xlink" x="0px" y="0px"
	 viewBox="0 0 1500 1500" style="enable-background:new 0 0 1500 1500;" xml:space="preserve">
<style type="text/css">
	.st0{fill:#a9a6a1;}
</style>
<title>Iconos correcciones_</title>
<g id="ayudanos_con_t_us_apellidos">
	<path class="st0" d="M750,855.5c-212.5-0.1-384.7-172.5-384.6-385C365.5,316,458,176.5,600.2,116.3
		c195.9-82.3,421.5,9.7,503.8,205.7c82.1,195.4-9.2,420.4-204.3,503.3C852.4,845.3,801.4,855.6,750,855.5z M750,132.1
		c-187.1,0-338.7,151.6-338.7,338.7c0,187.1,151.6,338.7,338.7,338.7s338.7-151.6,338.7-338.7c0-89.8-35.7-176-99.2-239.5
		C926.1,167.6,839.9,131.8,750,132.1L750,132.1z"/>
	<path class="st0" d="M1238.5,1413.9h-977c-40.3,0-73-32.6-73-72.8c0-2.4,0.1-4.8,0.3-7.2c13.9-139.6,78.4-269.9,181.4-366.8
		C474.9,868.6,609.8,814.4,750,814.4s275.1,54.2,379.8,152.7c103.1,96.9,167.5,227.2,181.4,366.8c3.9,40.1-25.4,75.7-65.5,79.7
		C1243.3,1413.8,1240.9,1413.9,1238.5,1413.9L1238.5,1413.9z M750,860.4c-128.4,0-252.1,49.8-348.3,140.2
		c-95,89.3-154.3,209.3-167.1,337.9c-0.8,7.5,1.7,15,6.8,20.6c5.1,5.7,12.4,9,20.1,8.9h977c7.7,0,15-3.2,20.1-8.9
		c5.1-5.6,7.6-13,6.8-20.6c-12.8-128.6-72.2-248.6-167.2-337.9C1002.1,910.2,878.4,860.4,750,860.4z"/>
</g>
</svg>
