<svg id="Layer_1" data-name="Layer 1" xmlns="http://www.w3.org/2000/svg" viewBox="0 0 1500 1500"><defs><style>.cls-1{fill:#ea0029;}.cls-2{fill:#4a4a4a;}</style></defs><title>Artboard 41</title><path class="cls-1" d="M351.89,1341.76a41,41,0,0,1-40.9-41.12,41.87,41.87,0,0,1,.58-6.79l65.56-382.23a77.9,77.9,0,0,0-22.4-69L77,572a41,41,0,0,1,22.7-69.85l383.82-55.76a77.9,77.9,0,0,0,58.66-42.62L713.82,56a41,41,0,0,1,73.44,0L958.89,403.73a77.93,77.93,0,0,0,58.6,42.62l383.78,55.76A41,41,0,0,1,1424,572l-277.69,270.7a77.9,77.9,0,0,0-22.4,69l65.56,382.23A41,41,0,0,1,1130,1337L786.77,1156.55a77.93,77.93,0,0,0-72.51,0L371,1337A40.93,40.93,0,0,1,351.89,1341.76Zm-220-790.54,260,253.37a131,131,0,0,1,37.7,116.07l-61.37,357.83,321.3-168.93a131,131,0,0,1,122,0l321.3,168.93-61.27-357.83a131.09,131.09,0,0,1,37.7-116l260-253.48L1009.87,499a131.06,131.06,0,0,1-98.69-71.66L750.51,101.69,589.86,427.26a131.08,131.08,0,0,1-98.7,71.65Zm1261.8,3.56"/><path class="cls-2" d="M35.57,945.61a26.58,26.58,0,0,1-8.21-51.87l136.88-44.48a26.61,26.61,0,1,1,16.48,50.6L43.8,944.29A26.2,26.2,0,0,1,35.57,945.61Z"/><path class="cls-2" d="M393.18,221.58a26.58,26.58,0,0,1-21.53-11L287.05,94.18a26.58,26.58,0,0,1,42.14-32.42c.3.4.6.8.88,1.21l84.59,116.45a26.57,26.57,0,0,1-21.48,42.2Z"/><path class="cls-2" d="M1107.64,221.8a26.58,26.58,0,0,1-21.49-42.21l84.6-116.43a26.58,26.58,0,0,1,43,31.2l-84.6,116.45A26.6,26.6,0,0,1,1107.64,221.8Z"/><path class="cls-2" d="M1465.45,945.66a26.39,26.39,0,0,1-8.23-1.31l-136.93-44.49a26.58,26.58,0,0,1,16.29-50.61l.14,0,136.88,44.48a26.58,26.58,0,0,1-8.2,51.87Z"/><path class="cls-2" d="M750.51,1464.93a26.59,26.59,0,0,1-26.59-26.59h0V1294.41a26.59,26.59,0,1,1,53.17,0v143.93a26.58,26.58,0,0,1-26.58,26.59Z"/></svg>