<svg id="Capa_1" data-name="Capa 1" xmlns="http://www.w3.org/2000/svg" viewBox="0 0 1500 1500"><defs><style>.cls-1{fill:none;stroke:#fff;stroke-linecap:round;stroke-linejoin:round;stroke-width:49px;}</style></defs><title>IconoFavoritos</title><path class="cls-1" d="M1111.66,713.45a103.94,103.94,0,0,1-18-78.51l9.64-56.21-40.83-39.8c-.62-.61-1.19-1.25-1.79-1.87-312.47,260.67-348,678.51-344.6,883.63a14.67,14.67,0,0,0,29,2.7C831.34,1003.6,994.35,805.2,1111.66,713.45Z"/><path class="cls-1" d="M498.88,433.13l-94.29,21.11-36.07,89.65c-.66,1.62-1.4,3.2-2.13,4.78,147.17,208.2,223.82,633.27,254.46,847.39a9.7,9.7,0,0,0,19.3-1.3c3.73-461.84-66.92-770-138.23-962.41C500.91,432.6,499.91,432.9,498.88,433.13Z"/><path class="cls-1" d="M1143.76,1180.93l-13.36-18.38a104.47,104.47,0,0,1-19.33-49.21c-102.86,27.43-257.59,97.63-307,275.17a20.38,20.38,0,0,0,36.41,17C894.4,1327.31,991.37,1224,1136,1203c.08-.23.14-.46.22-.69Z"/><path class="cls-1" d="M408.23,1001.64a104.76,104.76,0,0,1-37,32l-20.15,10.48-2.79,22.54a105.8,105.8,0,0,1-4.41,19.69c86.36,97.55,150,231.55,188.46,327.76a13.59,13.59,0,0,0,26-7.33C524.33,1205.74,464.77,1079.81,408.23,1001.64Z"/><path class="cls-1" d="M1203.85,546.07l-18,104.68a11.1,11.1,0,0,0,16.11,11.7L1296,613l94,49.42a11.09,11.09,0,0,0,16.1-11.7l-17.95-104.68,76-74.13a11.1,11.1,0,0,0-6.15-18.93L1353,437.73l-47-95.23a11.09,11.09,0,0,0-19.9,0l-47,95.23L1133.94,453a11.1,11.1,0,0,0-6.15,18.93Z"/><path class="cls-1" d="M478.45,341.85a11.1,11.1,0,0,0,4.7-19.34L371.32,228.94,385,83.78a11.1,11.1,0,0,0-16.94-10.45L244.52,150.77,110.69,92.91A11.1,11.1,0,0,0,95.52,105.8L131,247.22,34.6,356.62A11.09,11.09,0,0,0,42.17,375l145.47,10L261.9,510.47a11.1,11.1,0,0,0,9.55,5.45l.84,0a11.09,11.09,0,0,0,9.46-6.92L336.18,373.7Z"/><path class="cls-1" d="M1445.47,1137a11.11,11.11,0,0,0-7.56-9l-68.38-22.19-20.48-68.91a11.09,11.09,0,0,0-8.76-7.78,10.93,10.93,0,0,0-1.88-.16,11.11,11.11,0,0,0-9,4.58l-42.24,58.18-71.86-1.81h-.28a11.1,11.1,0,0,0-9,17.62l42.28,58.15-23.94,67.8a11.1,11.1,0,0,0,10.47,14.79,11.32,11.32,0,0,0,3.43-.54l68.37-22.24,57.08,43.71a11.09,11.09,0,0,0,17.84-8.82l0-71.89,59.21-40.77A11.13,11.13,0,0,0,1445.47,1137Z"/><path class="cls-1" d="M328.1,950.69a11.09,11.09,0,0,0-.42-19.9l-65.13-30.45-11.83-70.91a11.1,11.1,0,0,0-19.06-5.75l-49.08,52.54-71.1-10.66a11.42,11.42,0,0,0-1.64-.12,11.09,11.09,0,0,0-9.71,16.47l34.79,62.92-32.11,64.33a11.09,11.09,0,0,0,9.93,16.05,10.7,10.7,0,0,0,2.11-.2l70.59-13.64,51.26,50.4a11.1,11.1,0,0,0,18.8-6.54l8.83-71.35Z"/><path class="cls-1" d="M799.91,349l-8.63-21-22.21-4.8A104.77,104.77,0,0,1,725,302c-35.78,95.18-60.83,242.4-34.48,463.84,1.41,11.91,18.8,11.77,19.93-.17,9.74-102.72,34.85-268.81,99-398.82A105.25,105.25,0,0,1,799.91,349Z"/><path class="cls-1" d="M831.57,94.37l7.26,71.53L784,212.43a11.1,11.1,0,0,0,4.84,19.31l70.27,15.2,27.31,66.5a11.09,11.09,0,0,0,9.5,6.86c.26,0,.51,0,.77,0a11.11,11.11,0,0,0,9.59-5.52l36.17-62.13,71.69-5.42a11.1,11.1,0,0,0,7.44-18.47l-47.91-53.6,17-69.85a11.11,11.11,0,0,0-15.27-12.79l-65.78,29L848.44,83.81a11.1,11.1,0,0,0-16.87,10.56Z"/></svg>