<svg xmlns="http://www.w3.org/2000/svg" viewBox="0 0 1500 1500"><defs><style>.cls-1{fill:#404040;}</style></defs><title>Iconos correcciones_</title><g id="estrella"><path class="cls-1" d="M405.1,1274.35a35.48,35.48,0,0,1-34.88-41.45l56.72-330.72a67.4,67.4,0,0,0-19.38-59.67L167.27,608.29a35.43,35.43,0,0,1,19.64-60.43L519,499.61a67.41,67.41,0,0,0,50.76-36.88l148.5-300.9a35.43,35.43,0,0,1,63.54,0l148.5,300.9A67.42,67.42,0,0,0,981,499.61l332.06,48.25a35.43,35.43,0,0,1,19.64,60.43L1092.44,842.51a67.4,67.4,0,0,0-19.38,59.67l56.72,330.72a35.43,35.43,0,0,1-51.4,37.35l-297-156.15a67.41,67.41,0,0,0-62.74,0l-297,156.15A35.41,35.41,0,0,1,405.1,1274.35Zm-190.38-684L439.66,809.57A113.38,113.38,0,0,1,472.28,910l-53.1,309.61,278-146.17a113.35,113.35,0,0,1,105.55,0l278,146.17L1027.72,910a113.38,113.38,0,0,1,32.62-100.38L1285.28,590.3,974.41,545.13a113.41,113.41,0,0,1-85.39-62L750,201.4,611,483.09a113.41,113.41,0,0,1-85.4,62Zm1091.76,3.08h0Zm-566-411.19Z"/><path class="cls-1" d="M131.41,931.59a23,23,0,0,1-7.1-44.88l118.43-38.49A23,23,0,1,1,257,892L138.53,930.45A22.93,22.93,0,0,1,131.41,931.59Z"/><path class="cls-1" d="M440.83,305.13a23,23,0,0,1-18.63-9.48L349,194.9a23,23,0,1,1,37.22-27l73.19,100.75a23,23,0,0,1-18.58,36.52Z"/><path class="cls-1" d="M1059,305.32a23,23,0,0,1-18.59-36.52l73.2-100.74a23,23,0,0,1,37.22,27l-73.2,100.75A23,23,0,0,1,1059,305.32Z"/><path class="cls-1" d="M1368.59,931.63a22.92,22.92,0,0,1-7.12-1.13L1243,892a23,23,0,1,1,14.21-43.75l118.44,38.48a23,23,0,0,1-7.1,44.88Z"/><path class="cls-1" d="M750,1380.92a23,23,0,0,1-23-23V1233.38a23,23,0,0,1,46,0v124.54A23,23,0,0,1,750,1380.92Z"/></g></svg>