<svg version="1.1" xmlns="http://www.w3.org/2000/svg" xmlns:xlink="http://www.w3.org/1999/xlink" style="" xml:space="preserve" width="496" height="496"><rect id="backgroundrect" width="100%" height="100%" x="0" y="0" fill="none" stroke="none"/>













<g class="currentLayer" style=""><title>Layer 1</title><path d="M440,432H56c-3.9,0-7.3-2.8-7.9-6.7l-48-296c-0.6-3.9,1.7-7.7,5.4-8.9c3.8-1.2,7.8,0.5,9.6,4L93,280.1l35.2-161.8  c0.8-3.6,3.8-6.1,7.5-6.3c3.6-0.2,6.9,2.2,8,5.7L192,276.5l48.3-158.8c1-3.4,4.1-5.7,7.7-5.7c3.5,0,6.6,2.3,7.7,5.7L304,276.5  l48.2-159.3c1.1-3.5,4.3-5.8,8-5.7c3.6,0.1,6.7,2.7,7.5,6.3l35.2,161.9l78-155.2c1.8-3.5,5.9-5.2,9.6-4c3.8,1.2,6.1,5,5.4,8.9  l-48,296C447.3,429.2,443.9,432,440,432z M62.8,416h370.4l38.6-237.9L407,307c-1.5,3-4.8,4.8-8.2,4.3c-3.4-0.4-6.1-2.9-6.8-6.2  l-33.5-153.9l-46.9,155.1c-1,3.4-4.1,5.7-7.6,5.7c0,0,0,0,0,0c-3.5,0-6.6-2.3-7.7-5.7L248,147.5l-48.3,158.8c-1,3.4-4.1,5.7-7.7,5.7  c-3.5,0-6.6-2.3-7.7-5.7l-47.1-154.6l-33.5,154c-0.7,3.3-3.5,5.8-6.8,6.2c-3.4,0.4-6.6-1.3-8.2-4.4L24.3,178.5L62.8,416z" id="svg_1" class="" fill="#ffffff" fill-opacity="1"/><path d="M112,202.1l-32-57.6l-30.9,55.6l-14-7.8L73,124.1c2.8-5.1,11.2-5.1,14,0l39,70.2L112,202.1z" id="svg_2" class="selected" fill="#ffffff" fill-opacity="1"/><path d="M384,202.1l-14-7.8l39-70.2c1.4-2.6,4.1-4.4,7-4.1c2.9,0,5.6,1.6,7,4.2l36.3,66.4l-14.1,7.7l-29.3-53.6L384,202.1z" id="svg_3" class="" fill="#ffffff" fill-opacity="1"/><path d="M166.6,199.4l-14.7-6.3l32.8-76.3c1.3-2.9,4.1-4.8,7.3-4.8h0c3.2,0,6,1.9,7.3,4.7l33.2,74.8l-14.6,6.5L192.1,140  L166.6,199.4z" id="svg_4" class="" fill="#ffffff" fill-opacity="1"/><path d="M329.9,198L304,139.7L278.1,198l-14.6-6.5l33.2-74.8c1.3-2.9,4.1-4.7,7.3-4.7c3.2,0,6,1.9,7.3,4.7l33.2,74.8L329.9,198z" id="svg_5" class="" fill="#ffffff" fill-opacity="1"/><path d="M424,496H72c-22.1,0-40-17.9-40-40s17.9-40,40-40h352c22.1,0,40,17.9,40,40S446,496,424,496z M72,432c-13.2,0-24,10.8-24,24  c0,13.2,10.8,24,24,24h352c13.2,0,24-10.8,24-24c0-13.2-10.8-24-24-24H72z" id="svg_6" class="" fill="#ffffff" fill-opacity="1"/><path d="M248,136c-3,0-5.8-1.7-7.2-4.4l-24-48c-1-1.9-1.1-4.1-0.4-6.1l24-72c1.1-3.3,4.1-5.5,7.6-5.5c3.4,0,6.5,2.2,7.6,5.5l24,72  c0.7,2,0.5,4.2-0.4,6.1l-24,48C253.8,134.3,251,136,248,136z M232.6,79.4l15.4,30.7l15.4-30.7L248,33.3L232.6,79.4z" id="svg_7" class="" fill="#ffffff" fill-opacity="1"/><path d="M359.9,128C359.9,128,359.8,128,359.9,128c-3,0-5.8-1.7-7.1-4.4l-15.9-31.4c-1.1-2.2-1.2-4.9,0-7.1l16-32.6  c2.7-5.5,11.7-5.5,14.4,0l16,32.6c1.1,2.3,1.1,4.9-0.1,7.2L367,123.7C365.6,126.3,362.9,128,359.9,128z M352.9,88.5l7,13.8l7.1-13.9  l-7-14.4L352.9,88.5z" id="svg_8" class="" fill="#ffffff" fill-opacity="1"/><path d="M135.9,128c-3,0.4-5.8-1.7-7.1-4.4l-15.9-31.4c-1.1-2.2-1.2-4.9,0-7.1l16-32.6c2.7-5.5,11.7-5.5,14.4,0l16,32.6  c1.1,2.3,1.1,4.9-0.1,7.2L143,123.7C141.6,126.3,138.9,128,135.9,128z M128.9,88.5l7,13.8l7.1-13.9l-7-14.4L128.9,88.5z" id="svg_9" class="" fill="#ffffff" fill-opacity="1"/><path d="M40,448h416v16H40V448z" id="svg_10" class="" fill="#ffffff" fill-opacity="1"/><path d="M248,405.7c-3,0-5.8-1.7-7.2-4.4l-24-48c-1-1.9-1.1-4.1-0.4-6.1l24-72c1.1-3.3,4.1-5.5,7.6-5.5c3.4,0,6.5,2.2,7.6,5.5l24,72  c0.7,2,0.5,4.2-0.4,6.1l-24,48C253.8,404,251.1,405.7,248,405.7z M232.7,349.1l15.4,30.7l15.4-30.7L248,303L232.7,349.1z" id="svg_11" class="" fill="#ffffff" fill-opacity="1"/><path d="M360,388.7c-2.3,0-4.4-1.3-5.4-3.3l-18-36c-0.7-1.4-0.8-3.1-0.3-4.6l18-54c0.8-2.4,3.1-4.1,5.7-4.1s4.9,1.6,5.7,4.1l18,54  c0.5,1.5,0.4,3.2-0.3,4.6l-18,36C364.3,387.4,362.3,388.7,360,388.7z M348.5,346.3l11.5,23l11.5-23L360,311.7L348.5,346.3z" id="svg_12" class="" fill="#ffffff" fill-opacity="1"/><path d="M143,396.5c-2.3,0-4.4-1.3-5.4-3.3l-18-36c-0.7-1.4-0.8-3.1-0.3-4.6l18-54c0.8-2.4,3.1-4.1,5.7-4.1c2.6,0,4.9,1.6,5.7,4.1  l18,54c0.5,1.5,0.4,3.2-0.3,4.6l-18,36C147.4,395.2,145.3,396.5,143,396.5z M131.5,354l11.5,23l11.5-23L143,319.5L131.5,354z" id="svg_13" class="" fill="#ffffff" fill-opacity="1"/></g></svg>