<?xml version="1.0" encoding="utf-8"?>
<!-- Generator: Adobe Illustrator 22.0.0, SVG Export Plug-In . SVG Version: 6.00 Build 0)  -->
<svg version="1.1" id="Layer_1" xmlns="http://www.w3.org/2000/svg" xmlns:xlink="http://www.w3.org/1999/xlink" x="0px" y="0px"
	 viewBox="0 0 1500 1500" style="enable-background:new 0 0 1500 1500;" xml:space="preserve">
<style type="text/css">
	.st0{fill:#FFFFFF;}
</style>
<title>SaborAMexico</title>
<g id="Capa_10">
	<g>
		<path class="st0" d="M1040.9,1213.1c-64.6,0-145.3-10.3-241.8-30.9c-38.4-8.2-100-4.7-165.1-1c-67.2,3.8-143.3,8.1-215.2,1.4
			c-52-4.8-91.7-28.1-114.7-67.3c-19.2-32.7-23-69.7-22.9-95c0.2-29.3,5.7-54.7,11-66.9c5.1-11.5,5-15-1.6-53
			c-3.2-18.3-7.5-43.3-12.4-79.1c-4.3-31.2-0.3-59.8,11.8-85.1c9.4-19.7,23.5-37,42-51.4c6.8-5.3,13.9-10.1,21.4-14.3
			c-59.7-88.7-24.1-152,10.5-213.4c1.7-3,3.4-6,5-9c11.2-20.1,25.5-40.3,53.3-52c23.6-9.9,55.5-13,103.5-10.1L523,432
			c-40.1-2.5-66.4-0.4-82.8,6.5c-12.6,5.3-20.8,13.7-31,32.1c-1.7,3.1-3.4,6.1-5.1,9.1c-36.7,65.2-60.9,108.2,2.8,185.4l21.2,25.7
			l-31.5,10.7c-13.1,4.5-25.2,11-36.1,19.6c-29.7,23.2-42,54.8-36.6,94.1c4.7,34.9,9,59.5,12.1,77.4c6.7,38.5,9.4,54.4-1.6,79.4
			c-5.3,12.1-16.9,75.2,9.4,120c15.7,26.7,41.6,41.3,79.3,44.8c68.5,6.4,142.8,2.1,208.3-1.6c71.3-4,132.9-7.5,177.3,2
			c237.5,50.7,322.5,25.6,352.1,6.2c29.6-19.5,64.8-33.7,102-48.7c67-27,136.2-54.9,172.6-115.2c5.5-33,7.4-85.4-5.5-101.6
			c-1.9-2.4-3.4-2.9-5.6-3.1c-45.6-2.4-57.5-15.5-79.9-45.1c-10-13.2-23.7-31.3-47.1-55.6c-10.5-10.9-27.5-29.9-47.2-51.8
			c-29.9-33.2-67-74.5-93.7-101.4l32.6-32.4c27.5,27.6,65,69.4,95.2,103c19.4,21.6,36.2,40.3,46.2,50.6
			c25.3,26.3,39.9,45.6,50.6,59.7c8.3,11,13.8,18.3,19,21.6c3.4,2.2,9.1,4.5,26.6,5.4c15.8,0.8,29.4,7.9,39.3,20.5
			c14.5,18.3,20.8,47.6,19.4,89.4c-1,28.2-5.3,51.9-5.5,52.9l-0.7,3.8l-1.9,3.4c-43.7,76.6-125.3,109.5-197.3,138.5
			c-35.1,14.1-68.2,27.5-93.9,44.4C1154.4,1202.7,1105.9,1213.1,1040.9,1213.1z"/>
	</g>
	<g>
		<path class="st0" d="M324.9,749.9C101.3,677,68.8,598.2,42.7,534.9c-3.5-8.5-6.8-16.4-10.4-24c-8.5-17.7-15.5-43.5-1.2-66.1
			c8.8-14,24.5-23.9,45.3-28.8c13.6-3.2,25-3.2,26.3-3.2l25.2,0.1l-2.3,24.7c-0.1,2-1.6,40.2,26,81.6c16.6,24.9,40.5,46.4,71,63.8
			c39.3,22.4,89.7,38,149.7,46.4l-6.4,45.6c-66.9-9.4-123.6-27.3-168.3-53.2c-36.9-21.4-66-48.3-86.3-79.9
			c-19.4-30.2-27.1-59-30-79.2c-5.2,1.8-9.5,4.1-11.3,7c-2.3,3.7-0.9,11.8,3.9,21.6c4.2,8.7,7.9,17.7,11.4,26.3
			c11.9,28.9,24.2,58.7,57.7,89.4c40.1,36.9,104.3,69.4,196.2,99.3L324.9,749.9z"/>
	</g>
</g>
<g id="Capa_11">
	<g>
		<path class="st0" d="M695.5,538.8c-11.1,0-22.9-6.3-35.2-18.9l-3.9-4l0.6-5.6c0.1-0.6,1.5-14.2,5-29.2c5.5-23.2,12.8-36.6,23-42.2
			c6.6-3.7,14.2-3.7,21.3-0.2c6,3,10.6,4.5,14.3,5.7c6.3,2.1,13.4,4.4,16.8,12.5c2.5,5.9,1.9,12.4-0.2,24.6c-5.5,32-16.6,50.9-33,56
			C701.3,538.4,698.4,538.8,695.5,538.8z M681.5,507c6.5,5.8,12.2,8.6,15.5,7.6c5.3-1.6,12.5-13.8,16.5-37.1
			c0.8-4.8,1.2-7.8,1.4-9.7c-0.6-0.2-1.3-0.4-1.8-0.6c-4.2-1.4-9.8-3.2-17.2-6.9c-2,1.9-6.4,8.8-10.5,26
			C683.4,494.3,682.2,502,681.5,507z"/>
	</g>
	<g>
		<path class="st0" d="M1042.7,624.9c-1.9,0-3.9-0.1-5.9-0.2c-14.8-1.2-25.9-12.2-29.7-29.4c-1.6-7.4-1.8-15.5-0.4-22.6
			c1.8-9.3,5.9-16,11.9-19.3l0,0c25-14,41.7-9.7,51.2-3.7c14.4,9.1,20.1,26.8,19.3,39.4c-0.6,9.5-5,18.2-12.4,24.6
			C1068.4,621,1056.4,624.9,1042.7,624.9z M1031.3,573.7c-1.6,3.1-2.8,13.3,0.8,21.4c2.4,5.3,5.3,5.5,6.5,5.6
			c9.5,0.8,17.7-1.2,22.5-5.3c2.5-2.2,3.9-4.9,4.1-8c0.3-4.8-2.1-13.8-8.2-17.6C1050,565.5,1039.4,569.4,1031.3,573.7z
			 M1031.6,573.3L1031.6,573.3z"/>
	</g>
	<g>
		<path class="st0" d="M781.8,833.6c-2.4,0-4.9-0.1-7.4-0.3c-17.5-1.4-30.7-14.6-35.3-35.4c-4.1-18.6-0.8-42.6,13.3-50.4l0,0
			c30.9-17.3,51.2-12.2,62.8-4.9c17.4,11,24.3,32.5,23.4,47.8c-0.7,11.3-6,21.8-14.8,29.4C813.4,828.8,798.7,833.6,781.8,833.6z
			 M764.6,768.1c-2.4,3-5.1,17.5-0.4,30c4,10.6,10.1,11.1,12.1,11.2c13.5,1.1,24.8-1.7,31.7-7.7c4-3.5,6.3-7.8,6.6-12.8
			c0.5-7.3-3-20.2-12.2-26C791.6,756,775.9,761.9,764.6,768.1z M764.7,768L764.7,768z"/>
	</g>
	<g>
		<path class="st0" d="M870.5,584.1c-11.9,0-26.7-3.1-44.8-11.6l-5.7-2.7l-1-6.2c-0.1-0.7-2.9-17.8-2.6-35.9
			c0.5-29,8.9-45.7,24.9-49.7c16.2-4.1,41.9-3.9,60.8,9.8c11.9,8.7,18.8,21.2,19.9,36.3c1.6,22.1-6.2,40.8-21.4,51.3
			C893.9,580.1,884.1,584.1,870.5,584.1z M841.8,553.4c19.7,8.1,35.6,8.9,45.3,2.3c8-5.5,12-16.3,11-29.8c-0.6-8-3.9-14.1-10.1-18.6
			c-11.4-8.3-29.2-8.9-40.9-6c-1.6,0.4-6.4,6.2-6.8,26.6C840.2,537.7,841.1,547.3,841.8,553.4z"/>
	</g>
	<g>
		<path class="st0" d="M691.3,700.8c-2.4,0-4.9-0.1-7.4-0.3c-17.5-1.4-30.7-14.7-35.3-35.5c-4-18.6-0.8-42.6,13.3-50.4
			c30.9-17.3,51.2-12.2,62.8-4.9c17.4,11,24.3,32.5,23.3,47.8c-0.7,11.3-6,21.8-14.8,29.4C722.9,696,708.2,700.8,691.3,700.8z
			 M674.1,635.4c-2.4,3-5.1,17.5-0.4,30c4,10.6,10.1,11.1,12.1,11.2c13.5,1.1,24.7-1.7,31.7-7.7c4.1-3.5,6.3-7.8,6.6-12.8
			c0.5-7.3-3-20.2-12.2-26C701.1,623.2,685.4,629.1,674.1,635.4z M673.7,635.6C673.7,635.6,673.7,635.6,673.7,635.6L673.7,635.6
			C673.7,635.6,673.7,635.6,673.7,635.6z M674.2,635.2C674.2,635.2,674.2,635.2,674.2,635.2z"/>
	</g>
	<g>
		<path class="st0" d="M496.5,1055c-26.3,0-45-7.5-57.1-22.8c-26.5-33.5-10.7-89.4,15.5-181.9c14.8-52.3,33.2-117.4,47-191.4
			c14.9-80.4,21.2-143.3,18.7-186.7c-1.8-30.1-7.3-40.9-9-43.5c-5.9-4-9.8-10.5-10.2-17.9c-0.5-9.3,4.6-18,13-22
			c35.4-17.1,87.6-22.4,155-15.9c55,5.3,121.1,18.7,191,38.7c125.8,36.1,249,89.2,286.6,123.5c28.6,26.2,50.4,64.2,66.6,116.3
			c13.5,43.4,21.4,90.8,28.4,132.6c2.1,12.6,4.1,24.5,6.2,35.9c12.6,69.6,4.1,120.9-26.1,157c-23,27.6-58.1,45-107.2,53.2
			c-40.4,6.8-85.4,6.8-128.8,6.8c-12.2,0-24.8,0-36.8,0.2c-102.8,1.4-236.2,7.8-343.3,13c-38,1.8-73.8,3.6-103,4.8
			C500.7,1055,498.6,1055,496.5,1055z M558.5,421.9c2,6,3.7,13.1,5.1,21.3c7.8,47.3,2.2,122.7-16.6,224
			c-14.1,76.1-32.9,142.3-47.9,195.5c-11.2,39.7-20.9,73.9-25.1,99.7c-4.6,28.4-1.1,38,1.5,41.2c3.1,3.9,12.3,5.8,25.4,5.3
			c29-1.2,64.8-3,102.7-4.8c107.5-5.2,241.4-11.7,344.9-13.1c12.3-0.2,25.1-0.2,37.4-0.2c80.8,0,164.4,0,200.8-43.5
			c20.9-25,26.1-64,16.1-119.3c-2.1-11.7-4.1-23.8-6.3-36.6c-13-78.2-29.3-175.5-80.7-222.5c-27.9-25.5-138.3-76-268.2-113.3
			c-67.3-19.3-130.5-32.1-182.8-37.2C621.6,414.4,585.5,415.6,558.5,421.9z M516.6,431.1C516.6,431.2,516.7,431.2,516.6,431.1
			C516.7,431.2,516.6,431.2,516.6,431.1z M516.6,431.1C516.6,431.1,516.6,431.1,516.6,431.1C516.6,431.1,516.6,431.1,516.6,431.1z
			 M516.5,431.1C516.5,431.1,516.5,431.1,516.5,431.1C516.5,431.1,516.5,431.1,516.5,431.1z M516.5,431.1
			C516.5,431.1,516.5,431.1,516.5,431.1C516.5,431.1,516.5,431.1,516.5,431.1z M516.4,431.1C516.4,431.1,516.4,431.1,516.4,431.1
			C516.4,431.1,516.4,431.1,516.4,431.1z"/>
	</g>
	<g>
		<path class="st0" d="M1059.7,782.3c-11.9,0-26.7-3.1-44.8-11.6l-5.7-2.7l-1-6.2c-0.1-0.7-2.9-17.8-2.6-35.9
			c0.5-29,8.9-45.7,24.9-49.7c16.2-4.1,41.9-3.9,60.8,9.8c11.9,8.7,18.8,21.2,19.9,36.3c1.6,22.1-6.2,40.8-21.4,51.3
			C1083,778.3,1073.2,782.3,1059.7,782.3z M1030.9,751.6c19.7,8.1,35.6,8.9,45.3,2.3c8-5.5,12-16.3,11-29.8
			c-0.6-8-3.9-14.1-10.1-18.6c-11.4-8.3-29.2-8.9-40.9-6c-1.6,0.4-6.4,6.2-6.8,26.9C1029.3,736.1,1030.2,745.6,1030.9,751.6z"/>
	</g>
	<g>
		<path class="st0" d="M886.8,727.6c-2.4,0-4.9-0.1-7.4-0.3c-17.5-1.4-30.7-14.6-35.3-35.4c-4.1-18.6-0.8-42.6,13.3-50.4l0,0
			c30.9-17.3,51.2-12.2,62.8-4.9c17.4,11,24.3,32.5,23.4,47.8c-0.7,11.3-6,21.8-14.8,29.4C918.4,722.8,903.7,727.6,886.8,727.6z
			 M869.6,662.1c-2.4,3-5.1,17.5-0.4,30c4,10.6,10.1,11.1,12.1,11.2c13.5,1.1,24.8-1.7,31.7-7.7c4-3.5,6.3-7.8,6.6-12.8
			c0.5-7.3-3-20.2-12.2-26C896.6,650,880.9,655.9,869.6,662.1z M869.7,662L869.7,662z"/>
	</g>
</g>
</svg>
