<svg xmlns="http://www.w3.org/2000/svg" viewBox="0 0 1500 1500"><defs><style>.cls-1{fill:#404040;}</style></defs><title>Iconos correcciones_</title><g id="escanear_código" data-name="escanear código"><path class="cls-1" d="M1185.94,1314.21H314.06A201.75,201.75,0,0,1,112.83,1113V534.81A201.75,201.75,0,0,1,314.06,333.58H1186a201.75,201.75,0,0,1,201.22,201.23V1113a201.75,201.75,0,0,1-201.22,201.22ZM314.06,379.58A155.76,155.76,0,0,0,158.83,534.81V1113a155.74,155.74,0,0,0,155.23,155.22h871.88A155.74,155.74,0,0,0,1341.16,1113V1048.4h0V534.81A155.76,155.76,0,0,0,1186,379.58Z"/><path class="cls-1" d="M436.76,379.58a23,23,0,0,1-18.06-37.21c21.76-27.68,80.65-103.38,91.69-121,9.25-14.79,31.24-25.23,112.23-31.58,43.09-3.37,83.71-3.93,85.42-4h97.75c1.53,0,37.91.58,76.69,4,73.2,6.41,94.16,17.25,103.1,31.56,11,17.66,69.94,93.37,91.71,121.05a23,23,0,0,1-36.17,28.43C1033.21,360.73,965.26,274.18,948,248,944.16,246,927.42,239.47,872,235c-33.38-2.66-64.21-3.21-66.68-3.25H708.5c-2.51,0-37.43.58-75.08,3.27-62.71,4.49-81.14,11.06-85.68,13.23-17.54,26.57-85,112.48-92.88,122.51A23,23,0,0,1,436.76,379.58ZM546.55,248.93Zm402.47-.4Z"/><path class="cls-1" d="M760.37,1091.33a290.94,290.94,0,1,1,205.72-85.22A289,289,0,0,1,760.37,1091.33Zm0-535.87A244.94,244.94,0,1,0,933.56,627.2,243.34,243.34,0,0,0,760.37,555.46Z"/><path class="cls-1" d="M760.37,1006.42c-113.61,0-206-92.42-206-206s92.42-206,206-206,206,92.42,206,206S874,1006.42,760.37,1006.42Zm0-366c-88.25,0-160,71.78-160,160s71.78,160,160,160,160-71.79,160-160S848.61,640.37,760.37,640.37Z"/></g></svg>