<svg id="svg" version="1.1" width="400" height="295.2" viewBox="0 0 400 295.2" xmlns="http://www.w3.org/2000/svg" xmlns:xlink="http://www.w3.org/1999/xlink" ><g id="svgg"><path id="path0" d="M399.801 120.133 C 399.804 120.720,399.858 120.929,399.922 120.597 C 399.986 120.265,399.983 119.785,399.917 119.530 C 399.850 119.275,399.798 119.547,399.801 120.133 " stroke="none" fill="#000000" fill-rule="evenodd"></path><path id="path1" d="M226.667 0.299 C 97.926 3.467,-14.344 98.418,1.340 190.866 C 14.382 267.733,111.890 311.720,219.925 289.472 C 351.325 262.412,433.065 153.803,384.917 70.245 C 361.201 29.088,305.595 1.676,243.200 0.384 C 239.753 0.312,236.273 0.224,235.467 0.187 C 234.660 0.149,230.700 0.200,226.667 0.299 M178.731 79.803 C 190.315 84.071,193.656 98.365,185.074 106.939 C 171.833 120.166,150.656 104.969,158.721 88.027 C 162.131 80.864,171.339 77.080,178.731 79.803 M246.933 113.497 C 272.807 117.587,285.402 150.471,269.907 173.481 C 258.796 189.981,235.162 193.798,220.867 181.400 L 219.200 179.955 219.200 200.777 L 219.200 221.600 206.533 221.600 L 193.865 221.600 193.933 168.467 L 194.000 115.333 206.593 115.264 L 219.186 115.195 219.260 119.178 L 219.333 123.161 220.731 121.453 C 226.177 114.797,236.099 111.784,246.933 113.497 M319.867 113.351 C 324.828 113.823,332.296 115.709,335.278 117.242 L 336.023 117.626 334.977 119.546 C 334.402 120.602,332.520 124.167,330.795 127.467 C 329.071 130.767,327.624 133.509,327.580 133.560 C 327.537 133.612,326.264 133.170,324.751 132.579 C 315.690 129.037,306.832 130.001,306.215 134.597 C 305.789 137.778,308.392 139.400,316.366 140.922 C 331.246 143.762,337.905 150.314,337.928 162.133 C 337.956 177.239,326.902 187.018,308.088 188.528 C 297.785 189.355,282.047 185.387,275.513 180.315 L 274.893 179.834 276.344 177.717 C 279.138 173.637,281.110 169.368,282.555 164.267 C 282.950 162.873,283.300 161.700,283.332 161.660 C 283.364 161.620,284.573 162.330,286.019 163.239 C 299.207 171.528,312.905 172.096,312.469 164.335 C 312.290 161.165,310.484 160.087,302.052 158.116 C 286.005 154.366,281.314 149.913,281.285 138.400 C 281.240 120.893,296.307 111.111,319.867 113.351 M93.422 115.800 C 93.625 116.130,97.437 124.229,101.895 133.797 C 106.353 143.365,110.060 151.193,110.133 151.191 C 110.207 151.190,114.001 143.121,118.566 133.261 L 126.866 115.333 141.033 115.264 C 148.825 115.226,155.196 115.286,155.192 115.398 C 155.187 115.509,146.871 131.500,136.711 150.933 L 118.239 186.267 110.121 186.267 L 102.003 186.267 83.540 151.067 C 73.385 131.707,65.074 115.717,65.072 115.533 C 65.068 115.271,68.041 115.200,79.061 115.200 L 93.054 115.200 93.422 115.800 M162.620 116.446 C 169.084 120.736,177.697 120.759,184.282 116.502 C 185.164 115.933,185.941 115.467,186.009 115.467 C 186.077 115.467,186.133 131.427,186.133 150.933 L 186.133 186.400 173.467 186.400 L 160.800 186.400 160.800 150.933 C 160.800 131.427,160.878 115.467,160.972 115.467 C 161.067 115.467,161.809 115.907,162.620 116.446 M230.686 135.891 C 221.064 138.478,215.912 149.263,219.997 158.267 C 226.319 172.198,246.675 170.427,250.521 155.611 C 253.552 143.933,242.317 132.764,230.686 135.891 " stroke="none" fill="#3e3e3e" fill-rule="evenodd"></path><path id="path2" d="M161.600 83.867 C 160.952 84.527,160.482 85.067,160.556 85.067 C 160.629 85.067,161.219 84.527,161.867 83.867 C 162.514 83.207,162.984 82.667,162.911 82.667 C 162.838 82.667,162.248 83.207,161.600 83.867 M156.880 95.467 C 156.880 96.273,156.930 96.603,156.991 96.200 C 157.052 95.797,157.052 95.137,156.991 94.733 C 156.930 94.330,156.880 94.660,156.880 95.467 M72.085 115.400 C 76.019 115.441,82.379 115.441,86.219 115.400 C 90.058 115.358,86.840 115.324,79.067 115.324 C 71.293 115.324,68.152 115.358,72.085 115.400 M126.841 115.400 C 126.729 115.582,137.233 115.579,150.267 115.393 C 153.053 115.354,148.950 115.294,141.149 115.261 C 133.348 115.227,126.909 115.290,126.841 115.400 M200.333 115.400 C 203.817 115.442,209.517 115.442,213.000 115.400 C 216.483 115.358,213.633 115.323,206.667 115.323 C 199.700 115.323,196.850 115.358,200.333 115.400 M221.990 120.067 L 220.667 121.467 222.067 120.143 C 223.368 118.914,223.589 118.667,223.390 118.667 C 223.348 118.667,222.718 119.297,221.990 120.067 M287.590 121.933 L 286.267 123.333 287.667 122.010 C 288.437 121.282,289.067 120.652,289.067 120.610 C 289.067 120.411,288.820 120.632,287.590 121.933 M264.533 122.217 C 264.533 122.263,264.923 122.653,265.400 123.083 L 266.267 123.867 265.483 123.000 C 264.753 122.192,264.533 122.011,264.533 122.217 M313.536 130.322 C 313.868 130.386,314.348 130.383,314.603 130.317 C 314.858 130.250,314.587 130.198,314.000 130.201 C 313.413 130.204,313.205 130.258,313.536 130.322 M234.336 135.389 C 234.668 135.452,235.148 135.450,235.403 135.383 C 235.658 135.316,235.387 135.264,234.800 135.267 C 234.213 135.270,234.005 135.325,234.336 135.389 M281.134 138.267 C 281.137 138.853,281.191 139.062,281.255 138.730 C 281.319 138.399,281.317 137.919,281.250 137.664 C 281.183 137.409,281.131 137.680,281.134 138.267 M223.200 140.133 C 222.552 140.793,222.082 141.333,222.156 141.333 C 222.229 141.333,222.819 140.793,223.467 140.133 C 224.114 139.473,224.584 138.933,224.511 138.933 C 224.438 138.933,223.848 139.473,223.200 140.133 M246.133 140.133 C 246.631 140.647,247.098 141.067,247.171 141.067 C 247.245 141.067,246.898 140.647,246.400 140.133 C 245.902 139.620,245.435 139.200,245.362 139.200 C 245.289 139.200,245.636 139.620,246.133 140.133 M332.000 147.550 C 332.000 147.596,332.390 147.986,332.867 148.417 L 333.733 149.200 332.950 148.333 C 332.220 147.525,332.000 147.344,332.000 147.550 M276.610 151.067 C 276.612 151.800,276.663 152.068,276.725 151.663 C 276.786 151.258,276.784 150.658,276.721 150.330 C 276.658 150.002,276.608 150.333,276.610 151.067 M285.733 151.200 C 286.306 151.787,286.835 152.267,286.908 152.267 C 286.982 152.267,286.573 151.787,286.000 151.200 C 285.427 150.613,284.898 150.133,284.825 150.133 C 284.752 150.133,285.160 150.613,285.733 151.200 M251.010 151.600 C 251.012 152.333,251.063 152.602,251.125 152.196 C 251.186 151.791,251.184 151.191,251.121 150.863 C 251.058 150.535,251.008 150.867,251.010 151.600 M337.949 162.267 C 337.951 163.147,338.001 163.475,338.060 162.995 C 338.119 162.516,338.118 161.796,338.057 161.395 C 337.996 160.995,337.948 161.387,337.949 162.267 M265.458 178.733 L 263.867 180.400 265.533 178.808 C 267.082 177.330,267.322 177.067,267.125 177.067 C 267.084 177.067,266.334 177.817,265.458 178.733 M220.000 180.667 C 220.498 181.180,220.965 181.600,221.038 181.600 C 221.111 181.600,220.764 181.180,220.267 180.667 C 219.769 180.153,219.302 179.733,219.229 179.733 C 219.155 179.733,219.502 180.153,220.000 180.667 M240.604 188.725 C 241.009 188.786,241.609 188.784,241.937 188.721 C 242.265 188.658,241.933 188.608,241.200 188.610 C 240.467 188.612,240.198 188.663,240.604 188.725 M303.667 188.726 C 304.143 188.785,304.923 188.785,305.400 188.726 C 305.877 188.667,305.487 188.619,304.533 188.619 C 303.580 188.619,303.190 188.667,303.667 188.726 " stroke="none" fill="#717171" fill-rule="evenodd"></path><path id="path3" d="M168.933 79.683 C 154.865 83.867,152.882 103.095,165.825 109.829 C 179.672 117.033,194.813 102.481,188.121 88.400 C 184.790 81.389,176.247 77.508,168.933 79.683 M236.933 113.339 C 229.794 114.261,223.514 117.729,219.802 122.800 L 219.217 123.600 219.208 119.533 L 219.200 115.467 206.667 115.467 L 194.133 115.467 194.133 168.533 L 194.133 221.600 206.667 221.600 L 219.200 221.600 219.200 200.640 L 219.200 179.680 220.708 181.058 C 236.219 195.234,263.386 188.550,272.760 168.250 C 285.316 141.062,264.875 109.732,236.933 113.339 M307.867 113.340 C 290.653 115.295,280.432 125.554,281.440 139.867 C 282.117 149.487,286.908 154.345,298.409 157.076 C 306.185 158.922,307.118 159.164,308.554 159.708 C 315.857 162.471,313.078 170.133,304.773 170.133 C 300.190 170.133,291.351 166.907,285.388 163.058 C 284.318 162.367,283.406 161.847,283.361 161.901 C 283.316 161.955,283.074 162.837,282.822 163.860 C 281.744 168.239,279.560 173.121,276.810 177.302 C 275.904 178.678,275.262 179.897,275.382 180.010 C 276.990 181.535,285.870 185.395,290.675 186.659 C 316.795 193.530,339.042 181.252,337.773 160.667 C 337.098 149.728,330.690 143.914,316.160 141.059 C 308.034 139.463,305.204 137.488,306.148 134.071 C 307.381 129.605,316.492 128.922,325.296 132.635 L 327.458 133.547 331.529 125.783 C 333.768 121.513,335.638 117.930,335.685 117.821 C 335.860 117.415,331.316 115.763,327.333 114.784 C 321.985 113.470,312.754 112.786,307.867 113.340 M67.315 119.800 C 68.563 122.183,76.885 138.053,85.809 155.067 L 102.035 186.000 110.121 186.000 L 118.208 186.000 136.468 151.067 C 146.510 131.853,154.787 115.982,154.860 115.798 C 154.965 115.530,152.151 115.476,140.952 115.531 L 126.911 115.600 118.593 133.533 C 114.017 143.397,110.207 151.467,110.124 151.467 C 110.041 151.467,106.200 143.370,101.587 133.475 L 93.200 115.483 79.123 115.475 L 65.047 115.467 67.315 119.800 M161.067 150.933 L 161.067 186.133 173.467 186.133 L 185.867 186.133 185.867 150.907 L 185.867 115.681 185.000 116.261 C 178.042 120.922,169.161 121.034,162.510 116.546 C 161.848 116.099,161.253 115.733,161.187 115.733 C 161.121 115.733,161.067 131.573,161.067 150.933 M238.400 135.615 C 251.007 138.578,255.400 153.903,246.276 163.092 C 233.251 176.209,212.053 160.915,220.185 144.267 C 223.383 137.718,231.315 133.950,238.400 135.615 " stroke="none" fill="#ffffff" fill-rule="evenodd"></path><path id="path4" d="M172.474 79.129 C 173.101 79.185,174.061 79.184,174.607 79.127 C 175.153 79.070,174.640 79.024,173.467 79.025 C 172.293 79.026,171.847 79.073,172.474 79.129 M189.662 94.133 C 189.662 94.647,189.717 94.857,189.784 94.600 C 189.851 94.343,189.851 93.923,189.784 93.667 C 189.717 93.410,189.662 93.620,189.662 94.133 M189.662 96.800 C 189.662 97.313,189.717 97.523,189.784 97.267 C 189.851 97.010,189.851 96.590,189.784 96.333 C 189.717 96.077,189.662 96.287,189.662 96.800 M184.917 107.000 L 184.133 107.867 185.000 107.083 C 185.477 106.653,185.867 106.263,185.867 106.217 C 185.867 106.011,185.647 106.192,184.917 107.000 M243.533 113.250 C 243.790 113.318,244.210 113.318,244.467 113.250 C 244.723 113.183,244.513 113.129,244.000 113.129 C 243.487 113.129,243.277 113.183,243.533 113.250 M308.600 113.250 C 308.857 113.318,309.277 113.318,309.533 113.250 C 309.790 113.183,309.580 113.129,309.067 113.129 C 308.553 113.129,308.343 113.183,308.600 113.250 M316.200 113.255 C 316.530 113.318,317.070 113.318,317.400 113.255 C 317.730 113.191,317.460 113.139,316.800 113.139 C 316.140 113.139,315.870 113.191,316.200 113.255 M160.866 150.867 L 160.933 186.267 173.467 186.267 L 186.000 186.267 186.068 150.867 C 186.110 128.780,186.041 115.467,185.883 115.467 C 185.745 115.467,185.546 115.605,185.441 115.775 C 185.323 115.965,185.368 116.010,185.559 115.892 C 185.791 115.749,185.867 124.366,185.867 150.918 L 185.867 186.133 173.465 186.133 L 161.063 186.133 161.131 150.800 C 161.169 131.367,161.110 115.467,160.999 115.467 C 160.888 115.467,160.828 131.397,160.866 150.867 M193.997 168.533 C 193.997 197.793,194.029 209.763,194.067 195.133 C 194.105 180.503,194.105 156.563,194.067 141.933 C 194.029 127.303,193.997 139.273,193.997 168.533 M172.738 119.927 C 173.217 119.986,173.937 119.985,174.338 119.924 C 174.739 119.863,174.347 119.814,173.467 119.816 C 172.587 119.817,172.259 119.867,172.738 119.927 M315.267 130.317 C 315.523 130.384,315.943 130.384,316.200 130.317 C 316.457 130.250,316.247 130.195,315.733 130.195 C 315.220 130.195,315.010 130.250,315.267 130.317 M276.329 147.467 C 276.329 147.980,276.383 148.190,276.450 147.933 C 276.518 147.677,276.518 147.257,276.450 147.000 C 276.383 146.743,276.329 146.953,276.329 147.467 M276.329 154.667 C 276.329 155.180,276.383 155.390,276.450 155.133 C 276.518 154.877,276.518 154.457,276.450 154.200 C 276.383 153.943,276.329 154.153,276.329 154.667 M303.661 170.059 C 304.134 170.118,304.974 170.119,305.527 170.061 C 306.081 170.004,305.693 169.955,304.667 169.954 C 303.640 169.953,303.187 170.000,303.661 170.059 M102.041 186.200 C 102.109 186.310,105.751 186.400,110.133 186.400 C 114.516 186.400,118.157 186.310,118.225 186.200 C 118.293 186.090,114.652 186.000,110.133 186.000 C 105.615 186.000,101.973 186.090,102.041 186.200 M300.067 188.450 C 300.323 188.518,300.743 188.518,301.000 188.450 C 301.257 188.383,301.047 188.329,300.533 188.329 C 300.020 188.329,299.810 188.383,300.067 188.450 M308.067 188.450 C 308.323 188.518,308.743 188.518,309.000 188.450 C 309.257 188.383,309.047 188.329,308.533 188.329 C 308.020 188.329,307.810 188.383,308.067 188.450 " stroke="none" fill="#a1a2a1" fill-rule="evenodd"></path></g></svg>