<svg id="svg" version="1.1" width="400" height="400" viewBox="0 0 400 400" xmlns="http://www.w3.org/2000/svg" xmlns:xlink="http://www.w3.org/1999/xlink" ><g id="svgg"><path id="path0" d="M91.700 125.487 C 92.305 125.578,93.295 125.578,93.900 125.487 C 94.505 125.395,94.010 125.320,92.800 125.320 C 91.590 125.320,91.095 125.395,91.700 125.487 M308.500 125.487 C 309.105 125.578,310.095 125.578,310.700 125.487 C 311.305 125.395,310.810 125.320,309.600 125.320 C 308.390 125.320,307.895 125.395,308.500 125.487 " stroke="none" fill="#000000" fill-rule="evenodd"></path><path id="path1" d="M226.493 22.400 C 226.768 22.840,227.131 23.200,227.300 23.200 C 227.469 23.200,227.382 22.840,227.107 22.400 C 226.832 21.960,226.469 21.600,226.300 21.600 C 226.131 21.600,226.218 21.960,226.493 22.400 M110.800 124.400 C 110.800 124.620,111.070 124.800,111.400 124.800 C 111.730 124.800,112.000 124.620,112.000 124.400 C 112.000 124.180,111.730 124.000,111.400 124.000 C 111.070 124.000,110.800 124.180,110.800 124.400 M354.800 128.713 C 354.800 128.885,355.295 129.053,355.900 129.087 C 356.849 129.139,356.890 129.100,356.200 128.802 C 355.158 128.352,354.800 128.329,354.800 128.713 M365.200 129.686 C 365.200 129.859,365.560 130.000,366.000 130.000 C 366.440 130.000,366.800 129.859,366.800 129.686 C 366.800 129.513,366.440 129.371,366.000 129.371 C 365.560 129.371,365.200 129.513,365.200 129.686 M126.000 144.435 C 126.000 144.636,126.390 144.800,126.867 144.800 C 127.343 144.800,127.608 144.675,127.455 144.522 C 127.023 144.089,126.000 144.029,126.000 144.435 M115.600 145.200 C 115.600 145.420,115.870 145.600,116.200 145.600 C 116.530 145.600,116.800 145.420,116.800 145.200 C 116.800 144.980,116.530 144.800,116.200 144.800 C 115.870 144.800,115.600 144.980,115.600 145.200 M316.000 147.584 C 316.675 148.038,318.288 148.155,317.852 147.718 C 317.697 147.563,317.082 147.379,316.485 147.309 C 315.648 147.210,315.537 147.273,316.000 147.584 M25.790 173.448 C 26.147 173.804,26.559 173.974,26.707 173.826 C 26.856 173.678,26.712 173.389,26.388 173.184 C 25.443 172.587,25.087 172.744,25.790 173.448 M355.613 187.891 C 355.089 188.482,355.103 188.523,355.746 188.276 C 356.142 188.124,356.541 188.000,356.633 188.000 C 356.725 188.000,356.800 187.820,356.800 187.600 C 356.800 187.012,356.281 187.139,355.613 187.891 M369.944 204.023 C 369.050 204.802,369.046 204.823,369.878 204.420 C 370.360 204.187,370.866 203.817,371.001 203.598 C 371.395 202.962,370.963 203.135,369.944 204.023 M352.200 218.400 C 351.540 218.837,351.180 219.192,351.400 219.188 C 351.801 219.182,353.976 217.623,353.600 217.612 C 353.490 217.608,352.860 217.963,352.200 218.400 M105.600 241.393 C 105.600 241.525,105.982 242.031,106.449 242.517 L 107.299 243.400 106.847 242.522 C 106.400 241.654,105.600 240.929,105.600 241.393 M310.667 253.867 C 310.520 254.013,310.400 254.583,310.400 255.133 C 310.400 256.407,310.994 255.863,311.019 254.567 C 311.039 253.491,311.040 253.493,310.667 253.867 M63.879 354.957 C 63.715 355.374,63.675 355.809,63.791 355.924 C 64.155 356.289,64.476 355.691,64.324 354.931 C 64.183 354.235,64.162 354.236,63.879 354.957 " stroke="none" fill="#3f3f3f" fill-rule="evenodd"></path><path id="path2" d="M196.000 9.244 C 195.230 9.433,193.758 9.669,192.730 9.768 C 191.701 9.868,190.351 10.211,189.730 10.533 C 189.108 10.854,188.150 11.180,187.600 11.258 C 187.050 11.336,186.510 11.490,186.400 11.600 C 185.995 12.005,184.398 12.800,183.989 12.800 C 183.757 12.800,183.180 13.160,182.708 13.600 C 182.236 14.040,181.602 14.400,181.301 14.400 C 180.999 14.400,180.852 14.561,180.974 14.757 C 181.095 14.954,180.791 15.222,180.297 15.353 C 179.429 15.584,176.399 18.000,176.978 18.000 C 177.136 18.000,176.531 18.706,175.633 19.569 C 174.735 20.431,174.000 21.342,174.000 21.592 C 174.000 21.842,173.792 21.919,173.538 21.762 C 173.262 21.591,173.185 21.651,173.346 21.912 C 173.494 22.152,173.162 22.802,172.608 23.356 C 172.053 23.910,171.600 24.642,171.600 24.982 C 171.600 25.322,171.420 25.600,171.200 25.600 C 170.980 25.600,170.800 25.960,170.800 26.400 C 170.800 26.840,170.665 27.201,170.500 27.203 C 170.141 27.207,169.200 29.144,169.200 29.880 C 169.200 30.166,169.020 30.400,168.800 30.400 C 168.580 30.400,168.400 30.672,168.400 31.005 C 168.400 31.338,168.241 31.923,168.047 32.305 C 167.852 32.687,167.471 33.540,167.200 34.200 C 166.929 34.860,166.548 35.713,166.353 36.095 C 166.159 36.477,166.000 37.062,166.000 37.395 C 166.000 37.728,165.820 38.000,165.600 38.000 C 165.380 38.000,165.200 38.540,165.200 39.200 C 165.200 39.860,165.043 40.400,164.850 40.400 C 164.658 40.400,164.396 40.918,164.270 41.552 C 164.143 42.185,163.769 42.974,163.439 43.304 C 163.108 43.634,162.932 43.999,163.047 44.114 C 163.162 44.228,162.846 45.105,162.346 46.061 C 161.344 47.976,161.322 48.040,161.250 49.224 C 161.222 49.677,161.020 49.936,160.800 49.800 C 160.578 49.663,160.399 49.963,160.398 50.476 C 160.396 50.984,160.126 51.916,159.798 52.546 C 159.469 53.176,159.200 54.031,159.200 54.446 C 159.200 54.861,159.020 55.200,158.800 55.200 C 158.580 55.200,158.400 55.740,158.400 56.400 C 158.400 57.060,158.220 57.600,158.000 57.600 C 157.780 57.600,157.600 57.960,157.600 58.400 C 157.600 58.840,157.464 59.200,157.298 59.200 C 157.028 59.200,156.652 59.962,155.620 62.600 C 154.900 64.442,154.458 65.497,153.695 67.200 C 153.251 68.190,152.615 69.614,152.282 70.365 C 151.948 71.115,151.779 72.000,151.905 72.330 C 152.055 72.721,151.973 72.830,151.668 72.642 C 151.369 72.457,151.200 72.649,151.200 73.176 C 151.200 73.629,151.053 74.000,150.872 74.000 C 150.692 74.000,150.300 74.900,150.000 76.000 C 149.700 77.100,149.308 78.000,149.128 78.000 C 148.947 78.000,148.800 78.360,148.800 78.800 C 148.800 79.240,148.620 79.600,148.400 79.600 C 148.180 79.600,148.021 79.735,148.047 79.900 C 148.188 80.793,147.957 82.020,147.680 81.849 C 147.504 81.740,147.113 82.495,146.812 83.526 C 146.512 84.557,146.137 85.670,145.979 86.000 C 144.891 88.283,144.736 88.772,144.976 89.162 C 145.125 89.403,145.098 89.600,144.915 89.600 C 144.424 89.600,143.242 91.991,142.939 93.600 C 142.793 94.370,142.568 95.090,142.437 95.200 C 141.904 95.649,141.200 97.241,141.200 97.995 C 141.200 98.438,141.020 98.800,140.800 98.800 C 140.580 98.800,140.400 99.160,140.400 99.600 C 140.400 100.040,140.220 100.400,140.000 100.400 C 139.780 100.400,139.600 100.940,139.600 101.600 C 139.600 102.260,139.420 102.800,139.200 102.800 C 138.980 102.800,138.800 103.160,138.800 103.600 C 138.800 104.040,138.659 104.400,138.487 104.400 C 138.315 104.400,138.134 104.895,138.084 105.500 C 138.034 106.105,137.815 106.660,137.597 106.733 C 137.378 106.807,137.200 107.212,137.200 107.633 C 137.200 108.055,137.020 108.400,136.800 108.400 C 136.580 108.400,136.400 108.760,136.400 109.200 C 136.400 109.640,136.220 110.000,136.000 110.000 C 135.780 110.000,135.600 110.504,135.600 111.120 C 135.600 111.736,135.408 112.432,135.172 112.668 C 134.937 112.903,134.694 113.344,134.633 113.648 C 134.476 114.421,133.903 115.761,133.627 116.000 C 133.500 116.110,133.147 116.920,132.843 117.800 C 132.162 119.770,130.375 122.380,129.700 122.391 C 129.425 122.396,129.200 122.580,129.200 122.800 C 129.200 123.031,127.933 123.200,126.200 123.200 C 124.399 123.200,123.200 123.365,123.200 123.614 C 123.200 123.887,122.911 123.873,122.352 123.574 C 121.756 123.255,121.584 123.251,121.775 123.560 C 121.968 123.871,120.575 124.000,117.024 124.000 C 113.941 124.000,112.000 124.155,112.000 124.400 C 112.000 124.647,109.889 124.800,106.467 124.800 C 103.423 124.800,100.811 124.922,100.661 125.072 C 100.511 125.222,98.186 125.422,95.494 125.517 C 92.453 125.624,90.489 125.861,90.306 126.145 C 90.093 126.475,90.011 126.465,90.006 126.110 C 90.002 125.768,89.727 125.722,89.100 125.959 C 88.605 126.145,86.276 126.290,83.924 126.280 C 80.990 126.268,79.452 126.425,79.024 126.780 C 78.570 127.157,78.400 127.170,78.400 126.825 C 78.400 126.565,78.197 126.478,77.948 126.632 C 77.700 126.785,75.658 126.948,73.411 126.993 C 71.164 127.038,69.162 127.169,68.963 127.283 C 68.587 127.498,66.537 127.612,60.900 127.730 C 58.483 127.781,57.600 127.940,57.600 128.324 C 57.600 128.613,57.397 128.721,57.145 128.566 C 56.736 128.313,55.080 128.314,48.584 128.570 C 47.475 128.614,46.392 128.758,46.177 128.890 C 45.963 129.023,43.540 129.192,40.794 129.266 C 38.047 129.340,35.706 129.525,35.590 129.678 C 35.475 129.831,33.675 129.987,31.590 130.025 C 29.506 130.063,27.620 130.231,27.400 130.400 C 27.180 130.568,26.370 130.804,25.600 130.924 C 22.198 131.456,18.760 132.695,18.208 133.587 C 18.068 133.814,17.773 134.000,17.553 134.000 C 17.333 134.000,17.272 133.807,17.418 133.570 C 17.564 133.334,17.305 133.378,16.842 133.667 C 16.379 133.956,16.000 134.329,16.000 134.496 C 16.000 134.663,15.706 134.800,15.347 134.800 C 14.988 134.800,14.403 135.116,14.047 135.503 C 13.691 135.889,12.911 136.456,12.314 136.763 C 11.716 137.070,11.322 137.473,11.437 137.660 C 11.553 137.847,11.356 138.000,11.000 138.000 C 10.644 138.000,10.464 138.180,10.600 138.400 C 10.736 138.620,10.537 138.800,10.157 138.800 C 9.777 138.800,9.577 138.910,9.711 139.044 C 9.845 139.179,8.921 140.304,7.657 141.544 C 5.451 143.709,5.201 144.031,5.200 144.700 C 5.199 144.865,4.753 145.518,4.208 146.152 C 3.663 146.786,3.314 147.461,3.432 147.652 C 3.550 147.843,3.457 148.000,3.224 148.000 C 2.991 148.000,2.800 148.265,2.800 148.588 C 2.800 148.911,2.440 149.817,2.000 150.600 C 1.560 151.383,1.200 152.379,1.200 152.812 C 1.200 153.245,0.975 153.603,0.700 153.606 C 0.334 153.611,0.346 153.705,0.745 153.958 C 1.206 154.249,1.206 154.331,0.745 154.485 C 0.071 154.710,-0.069 172.237,0.600 172.714 C 0.820 172.871,1.062 173.450,1.138 174.000 C 1.214 174.550,1.439 175.060,1.638 175.133 C 1.837 175.207,2.000 175.593,2.000 175.993 C 2.000 176.392,2.439 177.491,2.976 178.436 C 3.513 179.381,3.859 180.304,3.746 180.487 C 3.633 180.670,3.689 180.770,3.870 180.710 C 4.052 180.649,4.265 180.780,4.345 181.000 C 4.425 181.220,5.009 181.895,5.642 182.500 C 6.275 183.105,6.613 183.600,6.394 183.600 C 6.175 183.600,7.049 184.680,8.337 186.000 C 9.624 187.320,10.896 188.400,11.163 188.400 C 11.429 188.400,11.544 188.567,11.418 188.771 C 11.292 188.975,11.551 189.257,11.994 189.398 C 12.437 189.539,12.800 189.878,12.800 190.152 C 12.800 190.426,13.422 190.895,14.182 191.193 C 14.942 191.491,15.471 191.885,15.358 192.068 C 15.245 192.250,15.304 192.400,15.488 192.400 C 15.672 192.400,16.493 193.051,17.312 193.846 C 18.130 194.641,18.800 195.181,18.800 195.046 C 18.800 194.912,19.459 195.424,20.265 196.184 C 21.071 196.944,21.881 197.473,22.065 197.360 C 22.249 197.246,22.400 197.553,22.400 198.043 C 22.400 198.533,22.509 198.824,22.643 198.691 C 22.893 198.441,23.121 198.600,25.298 200.544 C 26.002 201.173,26.988 201.843,27.489 202.034 C 27.990 202.224,28.400 202.685,28.400 203.057 C 28.400 203.429,28.502 203.631,28.626 203.507 C 28.751 203.383,29.606 203.980,30.526 204.835 C 31.447 205.690,32.333 206.392,32.497 206.395 C 32.660 206.398,33.335 206.967,33.997 207.659 C 34.658 208.352,35.205 208.757,35.212 208.559 C 35.219 208.362,35.408 208.515,35.632 208.900 C 35.856 209.285,36.211 209.600,36.419 209.600 C 36.628 209.600,37.541 210.320,38.448 211.200 C 39.355 212.080,40.345 212.800,40.648 212.800 C 40.952 212.800,41.200 212.985,41.200 213.212 C 41.200 213.803,44.063 216.226,44.573 216.067 C 44.808 215.993,44.874 216.060,44.719 216.214 C 44.423 216.510,45.319 217.600,45.857 217.600 C 46.030 217.600,46.538 217.956,46.986 218.391 C 48.417 219.781,52.375 222.800,52.767 222.800 C 52.976 222.800,53.260 223.160,53.400 223.600 C 53.540 224.040,53.926 224.400,54.258 224.400 C 54.591 224.400,55.554 225.120,56.400 226.000 C 57.246 226.880,58.221 227.600,58.569 227.600 C 58.916 227.600,59.200 227.858,59.200 228.173 C 59.200 228.488,59.574 228.865,60.030 229.010 C 60.487 229.154,60.758 229.376,60.632 229.501 C 60.507 229.626,61.033 230.157,61.802 230.679 C 62.571 231.201,63.200 231.802,63.200 232.014 C 63.200 232.226,63.399 232.400,63.642 232.400 C 64.272 232.400,66.405 234.262,66.111 234.556 C 65.885 234.782,66.602 234.958,67.300 234.847 C 67.465 234.821,67.600 235.100,67.600 235.467 C 67.600 235.833,67.718 236.016,67.861 235.872 C 68.005 235.728,68.871 236.283,69.787 237.105 C 70.702 237.927,71.870 238.870,72.381 239.200 C 72.892 239.530,73.727 240.205,74.237 240.700 C 74.747 241.195,75.382 241.600,75.648 241.600 C 75.915 241.600,76.022 241.711,75.886 241.848 C 75.634 242.100,76.536 243.200,76.995 243.200 C 77.134 243.200,78.063 243.965,79.061 244.900 C 80.058 245.835,80.945 246.558,81.031 246.507 C 81.169 246.425,83.154 248.109,85.227 250.067 C 85.616 250.433,86.038 250.628,86.167 250.500 C 86.295 250.372,86.400 250.597,86.400 251.000 C 86.400 251.403,86.517 251.616,86.660 251.473 C 86.804 251.330,87.158 251.525,87.448 251.906 C 88.078 252.737,88.199 258.267,87.591 258.470 C 87.367 258.544,87.158 259.272,87.127 260.087 C 87.097 260.901,86.920 261.474,86.736 261.360 C 86.551 261.246,86.400 261.783,86.400 262.553 C 86.400 263.323,86.220 264.064,86.000 264.200 C 85.780 264.336,85.600 265.056,85.600 265.800 C 85.600 266.544,85.420 267.264,85.200 267.400 C 84.980 267.536,84.797 268.402,84.794 269.324 C 84.789 270.553,84.684 270.840,84.400 270.400 C 84.122 269.970,84.011 270.397,84.006 271.900 C 84.003 273.055,83.820 274.000,83.600 274.000 C 83.380 274.000,83.200 274.619,83.200 275.376 C 83.200 276.133,83.020 276.864,82.800 277.000 C 82.580 277.136,82.400 278.047,82.400 279.024 C 82.400 280.001,82.220 280.800,82.000 280.800 C 81.780 280.800,81.600 281.329,81.600 281.976 C 81.600 282.623,81.420 283.264,81.200 283.400 C 80.980 283.536,80.800 284.168,80.800 284.805 C 80.800 285.441,80.633 286.376,80.430 286.881 C 80.226 287.387,79.829 288.925,79.547 290.300 C 79.266 291.675,78.878 292.800,78.687 292.800 C 78.495 292.800,78.378 293.385,78.426 294.100 C 78.474 294.815,78.307 295.907,78.056 296.526 C 77.805 297.145,77.600 297.970,77.600 298.359 C 77.600 298.748,77.469 299.198,77.308 299.359 C 77.147 299.520,77.002 300.255,76.984 300.992 C 76.967 301.730,76.773 302.573,76.553 302.867 C 76.334 303.160,76.184 303.805,76.222 304.300 C 76.260 304.795,76.135 305.200,75.945 305.200 C 75.755 305.200,75.600 305.819,75.600 306.576 C 75.600 307.333,75.401 308.076,75.157 308.226 C 74.849 308.417,74.879 308.604,75.257 308.844 C 75.657 309.097,75.668 309.189,75.300 309.194 C 74.984 309.198,74.800 309.790,74.800 310.800 C 74.800 311.680,74.620 312.400,74.400 312.400 C 74.180 312.400,74.000 313.120,74.000 314.000 C 74.000 314.880,73.820 315.600,73.600 315.600 C 73.380 315.600,73.200 316.039,73.200 316.576 C 73.200 317.113,73.020 317.664,72.800 317.800 C 72.580 317.936,72.400 318.757,72.400 319.624 C 72.400 320.491,72.255 321.200,72.078 321.200 C 71.901 321.200,71.712 321.965,71.658 322.900 C 71.604 323.835,71.389 324.660,71.180 324.733 C 70.971 324.807,70.800 325.561,70.800 326.410 C 70.800 327.258,70.620 328.064,70.400 328.200 C 70.180 328.336,70.000 329.077,70.000 329.847 C 70.000 330.679,69.838 331.147,69.600 331.000 C 69.354 330.848,69.200 331.521,69.200 332.753 C 69.200 333.853,69.020 334.864,68.800 335.000 C 68.580 335.136,68.400 335.687,68.400 336.224 C 68.400 336.761,68.175 337.203,67.900 337.206 C 67.567 337.210,67.600 337.342,68.000 337.600 C 68.400 337.858,68.433 337.990,68.100 337.994 C 67.812 337.997,67.600 338.510,67.600 339.200 C 67.600 339.860,67.465 340.400,67.300 340.400 C 67.135 340.400,66.963 341.073,66.918 341.894 C 66.873 342.716,66.648 343.451,66.418 343.527 C 66.188 343.604,66.000 344.472,66.000 345.457 C 66.000 346.549,65.844 347.151,65.600 347.000 C 65.353 346.848,65.200 347.529,65.200 348.776 C 65.200 349.889,65.020 350.800,64.800 350.800 C 64.574 350.800,64.400 351.933,64.400 353.400 C 64.400 354.994,64.233 356.000,63.968 356.000 C 63.250 356.000,64.093 364.729,65.114 367.870 C 65.341 368.568,65.423 369.243,65.297 369.370 C 65.170 369.496,65.277 369.600,65.533 369.600 C 65.790 369.600,66.000 370.050,66.000 370.600 C 66.000 371.150,66.180 371.600,66.400 371.600 C 66.620 371.600,66.800 371.971,66.800 372.424 C 66.800 372.877,66.980 373.136,67.200 373.000 C 67.420 372.864,67.600 373.123,67.600 373.576 C 67.600 374.029,67.760 374.400,67.957 374.400 C 68.153 374.400,68.593 375.101,68.936 375.957 C 69.681 377.818,76.799 385.084,78.228 385.443 C 78.763 385.577,79.200 385.847,79.200 386.043 C 79.200 386.240,79.425 386.355,79.700 386.300 C 79.975 386.245,80.155 386.425,80.100 386.700 C 80.045 386.975,80.272 387.200,80.605 387.200 C 81.303 387.200,82.862 388.012,83.294 388.600 C 83.456 388.820,83.591 388.855,83.594 388.677 C 83.597 388.500,84.095 388.623,84.700 388.951 C 85.815 389.556,87.544 390.059,89.000 390.204 C 89.440 390.248,90.790 390.483,92.000 390.728 C 94.246 391.182,101.633 391.074,102.439 390.576 C 102.684 390.425,103.540 390.218,104.342 390.118 C 105.144 390.017,106.767 389.500,107.948 388.967 C 109.130 388.435,110.330 388.000,110.615 388.000 C 110.900 388.000,111.193 387.865,111.267 387.700 C 111.340 387.535,112.255 386.967,113.300 386.437 C 114.345 385.908,115.200 385.323,115.200 385.137 C 115.200 384.952,115.393 384.800,115.628 384.800 C 115.863 384.800,116.841 384.260,117.800 383.600 C 118.759 382.940,119.654 382.400,119.789 382.400 C 119.923 382.400,120.420 382.040,120.892 381.600 C 121.364 381.160,121.987 380.800,122.275 380.800 C 122.564 380.800,122.800 380.620,122.800 380.400 C 122.800 380.180,123.036 380.000,123.325 380.000 C 123.613 380.000,124.236 379.640,124.708 379.200 C 125.180 378.760,125.778 378.400,126.036 378.400 C 126.295 378.400,126.797 378.076,127.153 377.680 C 127.509 377.283,128.467 376.649,129.281 376.270 C 130.096 375.890,130.996 375.360,131.281 375.090 C 131.744 374.653,133.008 373.932,136.461 372.133 C 137.045 371.829,137.624 371.315,137.748 370.990 C 137.873 370.666,138.319 370.400,138.738 370.400 C 139.158 370.400,139.726 370.130,140.000 369.800 C 140.274 369.470,140.746 369.200,141.049 369.200 C 141.352 369.200,141.600 369.042,141.600 368.849 C 141.600 368.655,142.140 368.273,142.800 368.000 C 143.460 367.727,144.000 367.345,144.000 367.151 C 144.000 366.958,144.236 366.800,144.525 366.800 C 144.813 366.800,145.405 366.485,145.840 366.100 C 146.275 365.715,146.883 365.344,147.190 365.275 C 147.498 365.206,148.031 364.846,148.375 364.475 C 148.719 364.104,149.268 363.741,149.596 363.668 C 149.924 363.595,150.284 363.411,150.396 363.258 C 150.508 363.105,151.455 362.535,152.500 361.991 C 153.545 361.447,154.400 360.866,154.400 360.701 C 154.400 360.535,154.648 360.400,154.951 360.400 C 155.254 360.400,155.730 360.126,156.008 359.790 C 156.286 359.455,156.597 359.264,156.699 359.366 C 156.801 359.468,157.324 359.112,157.861 358.576 C 158.397 358.039,159.104 357.600,159.431 357.600 C 159.758 357.600,160.129 357.330,160.255 357.000 C 160.382 356.670,160.804 356.400,161.194 356.400 C 161.583 356.400,162.124 356.132,162.396 355.804 C 162.668 355.477,163.050 355.307,163.245 355.428 C 163.440 355.549,163.600 355.446,163.600 355.200 C 163.600 354.954,163.780 354.864,164.000 355.000 C 164.220 355.136,164.400 355.057,164.400 354.824 C 164.400 354.591,164.576 354.400,164.792 354.400 C 165.007 354.400,166.132 353.681,167.292 352.802 C 168.451 351.923,169.726 351.203,170.124 351.202 C 170.522 351.201,170.755 351.050,170.642 350.868 C 170.529 350.685,171.058 350.291,171.818 349.993 C 172.578 349.695,173.200 349.304,173.200 349.125 C 173.200 348.946,173.470 348.800,173.800 348.800 C 174.130 348.800,174.400 348.620,174.400 348.400 C 174.400 348.180,174.790 348.000,175.267 348.000 C 175.743 348.000,176.016 347.883,175.873 347.740 C 175.513 347.380,176.840 346.428,177.724 346.413 C 178.122 346.406,178.336 346.220,178.200 346.000 C 178.064 345.780,178.233 345.600,178.576 345.600 C 178.919 345.600,179.200 345.420,179.200 345.200 C 179.200 344.980,179.545 344.800,179.967 344.800 C 180.388 344.800,180.793 344.634,180.867 344.430 C 180.940 344.227,181.270 344.002,181.600 343.930 C 181.930 343.859,182.491 343.485,182.847 343.100 C 183.203 342.715,183.708 342.400,183.971 342.400 C 184.233 342.400,184.359 342.257,184.251 342.083 C 184.144 341.909,184.409 341.739,184.842 341.707 C 185.274 341.674,186.125 341.232,186.733 340.724 C 187.340 340.216,188.504 339.444,189.319 339.009 C 190.133 338.574,190.800 338.068,190.800 337.885 C 190.800 337.702,190.980 337.664,191.200 337.800 C 191.420 337.936,191.600 337.846,191.600 337.600 C 191.600 337.354,191.765 337.255,191.966 337.379 C 192.167 337.503,192.392 337.469,192.466 337.302 C 192.658 336.869,195.904 334.800,196.391 334.800 C 196.616 334.800,196.800 334.620,196.800 334.400 C 196.800 334.180,197.700 334.000,198.800 334.000 C 199.900 334.000,200.800 334.180,200.800 334.400 C 200.800 334.620,201.070 334.800,201.400 334.800 C 201.730 334.800,202.000 334.980,202.000 335.200 C 202.000 335.420,202.274 335.600,202.609 335.600 C 203.248 335.600,206.390 337.503,206.894 338.196 C 207.056 338.418,207.191 338.467,207.194 338.304 C 207.197 338.141,207.566 338.321,208.013 338.704 C 208.460 339.087,208.955 339.404,209.113 339.408 C 209.629 339.422,212.000 340.964,212.000 341.286 C 212.000 341.459,212.360 341.600,212.800 341.600 C 213.240 341.600,213.600 341.759,213.600 341.953 C 213.600 342.148,213.915 342.407,214.300 342.529 C 215.209 342.817,217.153 344.012,218.158 344.900 C 218.594 345.285,219.288 345.600,219.699 345.600 C 220.111 345.600,220.336 345.780,220.200 346.000 C 220.064 346.220,220.323 346.400,220.776 346.400 C 221.229 346.400,221.600 346.550,221.600 346.732 C 221.600 346.915,222.095 347.319,222.700 347.630 C 223.305 347.940,224.101 348.523,224.470 348.924 C 224.838 349.324,225.243 349.641,225.370 349.626 C 226.332 349.516,226.809 349.661,226.600 350.000 C 226.464 350.220,226.723 350.400,227.176 350.400 C 227.629 350.400,228.000 350.584,228.000 350.810 C 228.000 351.035,228.405 351.395,228.900 351.609 C 229.848 352.019,231.262 352.856,231.600 353.208 C 231.710 353.323,232.295 353.634,232.900 353.900 C 233.505 354.165,234.000 354.556,234.000 354.768 C 234.000 354.981,234.384 355.080,234.854 354.990 C 235.324 354.899,235.595 354.938,235.457 355.077 C 235.179 355.354,236.706 356.539,237.489 356.654 C 237.761 356.694,238.270 357.013,238.621 357.363 C 238.971 357.714,239.514 358.000,239.829 358.000 C 240.143 358.000,240.400 358.180,240.400 358.400 C 240.400 358.620,240.760 358.800,241.200 358.800 C 241.640 358.800,242.000 358.958,242.000 359.151 C 242.000 359.345,242.540 359.727,243.200 360.000 C 243.860 360.273,244.400 360.611,244.400 360.751 C 244.400 360.890,244.941 361.244,245.602 361.537 C 246.264 361.830,246.703 362.234,246.579 362.435 C 246.454 362.636,246.723 362.800,247.176 362.800 C 247.629 362.800,248.000 362.958,248.000 363.151 C 248.000 363.345,248.540 363.727,249.200 364.000 C 249.860 364.273,250.400 364.622,250.400 364.774 C 250.400 364.926,251.030 365.298,251.800 365.600 C 252.570 365.902,253.200 366.262,253.200 366.400 C 253.200 366.538,253.822 366.895,254.582 367.193 C 255.342 367.491,255.884 367.864,255.786 368.022 C 255.641 368.258,256.469 368.673,257.629 368.946 C 257.754 368.976,258.172 369.315,258.557 369.700 C 258.942 370.085,259.432 370.400,259.645 370.400 C 259.859 370.400,260.420 370.760,260.892 371.200 C 261.364 371.640,262.043 372.000,262.400 372.000 C 262.757 372.000,263.436 372.360,263.908 372.800 C 264.380 373.240,264.954 373.600,265.183 373.600 C 265.412 373.600,265.600 373.746,265.600 373.925 C 265.600 374.104,266.230 374.498,267.000 374.800 C 267.770 375.102,268.400 375.496,268.400 375.675 C 268.400 375.854,268.670 376.000,269.000 376.000 C 269.330 376.000,269.600 376.180,269.600 376.400 C 269.600 376.620,269.842 376.800,270.138 376.800 C 270.434 376.800,271.002 377.160,271.400 377.600 C 271.798 378.040,272.366 378.400,272.662 378.400 C 272.958 378.400,273.200 378.580,273.200 378.800 C 273.200 379.020,273.545 379.200,273.967 379.200 C 274.388 379.200,274.793 379.342,274.867 379.514 C 275.106 380.080,277.508 381.600,278.162 381.600 C 278.513 381.600,278.800 381.780,278.800 382.000 C 278.800 382.220,279.030 382.400,279.312 382.400 C 279.593 382.400,280.071 382.744,280.374 383.164 C 280.676 383.584,281.166 383.834,281.462 383.721 C 281.758 383.607,282.000 383.724,282.000 383.981 C 282.000 384.237,282.180 384.336,282.400 384.200 C 282.620 384.064,282.800 384.149,282.800 384.389 C 282.800 384.629,283.115 384.941,283.500 385.083 C 283.885 385.225,284.757 385.759,285.438 386.271 C 286.119 386.782,286.914 387.200,287.206 387.200 C 287.498 387.200,288.050 387.484,288.433 387.830 C 288.816 388.177,289.371 388.502,289.665 388.552 C 290.552 388.704,293.372 389.684,293.800 389.990 C 294.020 390.147,294.740 390.237,295.400 390.190 C 296.060 390.143,296.719 390.291,296.864 390.518 C 297.238 391.102,306.916 391.129,307.638 390.548 C 307.947 390.300,308.740 390.135,309.400 390.182 C 310.060 390.228,310.955 390.027,311.389 389.733 C 311.823 389.440,312.467 389.200,312.821 389.200 C 313.175 389.200,314.350 388.751,315.432 388.202 C 316.514 387.653,317.606 387.203,317.857 387.202 C 318.109 387.201,318.417 386.933,318.542 386.607 C 318.683 386.239,319.029 386.113,319.450 386.275 C 319.911 386.452,320.038 386.385,319.842 386.068 C 319.683 385.811,319.743 385.600,319.976 385.600 C 320.785 385.600,321.008 385.453,322.518 383.928 C 323.353 383.085,324.478 382.105,325.018 381.751 C 325.558 381.398,326.000 380.943,326.000 380.741 C 326.000 380.539,326.634 379.739,327.409 378.964 C 328.185 378.189,328.734 377.417,328.631 377.250 C 328.527 377.083,328.793 376.693,329.221 376.385 C 329.650 376.076,330.000 375.493,330.000 375.088 C 330.000 374.684,330.180 374.464,330.400 374.600 C 330.620 374.736,330.800 374.567,330.800 374.224 C 330.800 373.881,330.980 373.600,331.200 373.600 C 331.420 373.600,331.600 373.139,331.600 372.576 C 331.600 372.013,331.742 371.640,331.915 371.748 C 332.088 371.855,332.270 371.468,332.317 370.889 C 332.365 370.309,332.584 369.656,332.802 369.438 C 333.021 369.219,333.200 368.637,333.200 368.144 C 333.200 367.651,333.380 367.136,333.600 367.000 C 333.820 366.864,334.000 365.964,334.000 365.000 C 334.000 364.036,334.180 363.136,334.400 363.000 C 334.952 362.659,334.935 352.400,334.382 352.400 C 334.153 352.400,333.994 352.175,334.030 351.900 C 334.202 350.571,333.962 348.376,333.664 348.560 C 333.480 348.674,333.304 348.124,333.275 347.337 C 333.245 346.551,333.046 345.696,332.832 345.438 C 332.618 345.180,332.398 344.222,332.344 343.308 C 332.291 342.395,332.101 341.738,331.923 341.847 C 331.745 341.957,331.600 341.317,331.600 340.424 C 331.600 339.531,331.420 338.800,331.200 338.800 C 330.980 338.800,330.800 338.091,330.800 337.224 C 330.800 336.357,330.620 335.536,330.400 335.400 C 330.180 335.264,330.000 334.443,330.000 333.576 C 330.000 332.709,329.820 332.000,329.600 332.000 C 329.380 332.000,329.200 331.643,329.200 331.206 C 329.200 330.173,328.405 326.797,327.953 325.905 C 327.759 325.523,327.600 324.679,327.600 324.029 C 327.600 323.379,327.420 322.736,327.200 322.600 C 326.980 322.464,326.800 321.823,326.800 321.176 C 326.800 320.529,326.620 320.000,326.400 320.000 C 326.180 320.000,326.000 319.201,326.000 318.224 C 326.000 317.247,325.820 316.336,325.600 316.200 C 325.380 316.064,325.200 315.333,325.200 314.576 C 325.200 313.819,325.012 313.200,324.782 313.200 C 324.553 313.200,324.394 312.975,324.430 312.700 C 324.581 311.539,324.377 309.967,324.099 310.139 C 323.933 310.241,323.765 309.847,323.725 309.263 C 323.628 307.844,323.340 306.024,323.020 304.800 C 322.735 303.707,322.411 302.248,322.178 301.000 C 321.855 299.269,320.678 294.962,320.348 294.305 C 320.157 293.923,320.000 292.903,320.000 292.039 C 320.000 291.174,319.828 290.407,319.618 290.333 C 319.407 290.260,319.191 289.537,319.137 288.726 C 319.084 287.915,318.896 287.341,318.720 287.449 C 318.448 287.617,318.186 285.287,318.363 284.270 C 318.394 284.089,318.235 284.055,318.010 284.194 C 317.753 284.353,317.600 283.767,317.600 282.624 C 317.600 281.621,317.420 280.800,317.200 280.800 C 316.980 280.800,316.800 280.069,316.800 279.176 C 316.800 278.196,316.642 277.651,316.400 277.800 C 316.158 277.949,316.000 277.404,316.000 276.424 C 316.000 275.531,315.858 274.800,315.685 274.800 C 315.417 274.800,315.199 273.667,315.093 271.718 C 315.078 271.452,314.917 271.328,314.733 271.441 C 314.550 271.555,314.400 270.917,314.400 270.024 C 314.400 269.131,314.220 268.400,314.000 268.400 C 313.780 268.400,313.597 267.815,313.594 267.100 C 313.588 265.852,312.922 263.511,312.294 262.534 C 312.130 262.278,312.221 261.977,312.498 261.866 C 312.897 261.705,312.897 261.657,312.500 261.632 C 312.189 261.612,312.000 260.996,312.000 260.000 C 312.000 259.120,311.820 258.400,311.600 258.400 C 311.380 258.400,311.200 257.759,311.200 256.976 C 311.200 256.129,311.038 255.653,310.800 255.800 C 310.097 256.235,310.371 254.530,311.277 252.833 C 311.848 251.763,313.416 250.215,315.777 248.391 C 319.874 245.226,322.000 243.304,322.000 242.766 C 322.000 242.565,322.296 242.400,322.657 242.400 C 323.018 242.400,323.828 241.862,324.457 241.204 C 325.086 240.546,325.600 240.139,325.600 240.300 C 325.600 240.460,326.057 240.099,326.616 239.496 C 327.175 238.893,327.760 238.398,327.916 238.397 C 328.072 238.395,328.875 237.753,329.700 236.971 C 330.525 236.189,331.200 235.685,331.200 235.850 C 331.200 236.016,331.533 235.802,331.940 235.375 C 333.482 233.761,335.978 231.600,336.301 231.600 C 336.486 231.600,337.341 230.880,338.200 230.000 C 339.059 229.120,339.906 228.400,340.081 228.400 C 340.256 228.400,341.141 227.680,342.048 226.800 C 342.955 225.920,343.880 225.200,344.105 225.200 C 344.330 225.200,345.014 224.676,345.626 224.036 C 346.238 223.396,346.842 222.976,346.969 223.103 C 347.096 223.229,347.200 223.076,347.200 222.762 C 347.200 222.231,348.086 221.588,349.650 220.984 C 350.008 220.846,350.518 220.327,350.783 219.831 C 351.049 219.335,352.142 218.418,353.212 217.793 C 354.283 217.168,355.083 216.535,354.992 216.387 C 354.900 216.238,355.280 215.910,355.835 215.657 C 356.391 215.404,356.734 215.017,356.599 214.798 C 356.464 214.579,356.641 214.400,356.992 214.400 C 357.344 214.400,358.316 213.681,359.152 212.802 C 359.988 211.924,360.790 211.324,360.936 211.469 C 361.081 211.614,361.214 211.388,361.232 210.967 C 361.249 210.545,361.354 210.424,361.464 210.698 C 361.592 211.016,362.236 210.603,363.233 209.566 C 364.095 208.669,364.800 208.083,364.800 208.263 C 364.800 208.444,365.242 208.144,365.781 207.596 C 367.114 206.243,368.000 205.523,368.000 205.792 C 368.000 205.914,368.609 205.426,369.354 204.707 C 370.099 203.988,371.224 203.009,371.854 202.532 C 374.091 200.836,375.809 199.407,376.447 198.708 C 376.803 198.319,377.398 198.000,377.771 198.000 C 378.143 198.000,378.358 197.856,378.250 197.681 C 378.142 197.505,378.218 197.100,378.420 196.781 C 378.657 196.407,378.790 196.373,378.794 196.684 C 378.797 196.951,379.520 196.442,380.400 195.553 C 381.280 194.664,382.000 194.084,382.000 194.264 C 382.000 194.444,382.457 194.099,383.016 193.496 C 383.575 192.893,384.216 192.400,384.440 192.400 C 384.664 192.400,384.736 192.220,384.600 192.000 C 384.464 191.780,384.633 191.600,384.976 191.600 C 385.319 191.600,385.600 191.420,385.600 191.200 C 385.600 190.980,385.870 190.800,386.200 190.800 C 386.530 190.800,386.800 190.620,386.800 190.400 C 386.800 190.180,386.975 190.000,387.188 190.000 C 387.787 190.000,394.800 182.765,394.800 182.147 C 394.800 181.846,394.980 181.600,395.200 181.600 C 395.420 181.600,395.600 181.240,395.600 180.800 C 395.600 180.360,395.780 180.000,396.000 180.000 C 396.220 180.000,396.400 179.719,396.400 179.376 C 396.400 178.991,396.591 178.863,396.900 179.041 C 397.175 179.199,397.280 179.194,397.133 179.031 C 396.987 178.867,397.302 177.867,397.833 176.809 C 398.365 175.750,398.800 174.520,398.800 174.075 C 398.800 173.631,399.025 173.192,399.300 173.100 C 400.021 172.860,400.021 154.261,399.300 153.540 C 399.025 153.265,398.800 152.615,398.800 152.096 C 398.800 151.569,398.623 151.262,398.400 151.400 C 398.173 151.540,398.000 151.204,398.000 150.624 C 398.000 150.061,397.859 149.600,397.687 149.600 C 397.515 149.600,397.334 149.105,397.284 148.500 C 397.234 147.895,397.015 147.340,396.797 147.267 C 396.578 147.193,396.400 146.868,396.400 146.543 C 396.400 146.218,396.220 146.064,396.000 146.200 C 395.780 146.336,395.600 146.066,395.600 145.600 C 395.600 145.134,395.420 144.864,395.200 145.000 C 394.980 145.136,394.800 144.952,394.800 144.592 C 394.800 144.232,394.080 143.246,393.200 142.400 C 392.320 141.554,391.600 140.549,391.600 140.165 C 391.600 139.781,391.502 139.565,391.382 139.685 C 391.262 139.805,390.317 139.115,389.283 138.152 C 388.248 137.188,387.166 136.400,386.877 136.400 C 386.589 136.400,386.445 136.250,386.558 136.068 C 386.671 135.885,386.141 135.491,385.380 135.192 C 384.437 134.822,384.156 134.548,384.498 134.331 C 384.836 134.117,384.713 134.010,384.124 134.006 C 383.642 134.003,383.136 133.820,383.000 133.600 C 382.864 133.380,382.268 133.197,381.676 133.194 C 380.834 133.189,380.731 133.103,381.200 132.800 C 381.695 132.480,381.656 132.411,380.980 132.406 C 380.529 132.403,379.983 132.223,379.767 132.007 C 379.550 131.790,378.722 131.565,377.926 131.507 C 377.129 131.448,376.561 131.265,376.663 131.100 C 376.764 130.935,376.195 130.800,375.397 130.800 C 374.600 130.800,373.638 130.634,373.259 130.432 C 372.881 130.229,371.408 130.020,369.986 129.966 C 368.564 129.912,367.268 129.673,367.106 129.434 C 366.906 129.139,366.810 129.160,366.806 129.500 C 366.799 130.084,365.330 130.183,365.133 129.613 C 365.059 129.397,362.921 129.202,360.302 129.172 C 356.884 129.133,355.678 128.993,355.878 128.659 C 356.030 128.407,355.849 128.447,355.477 128.749 C 355.105 129.051,354.800 129.137,354.800 128.940 C 354.800 128.743,352.780 128.527,350.312 128.460 C 347.843 128.393,345.669 128.243,345.480 128.126 C 345.291 128.009,342.946 127.845,340.268 127.761 C 337.591 127.678,334.950 127.491,334.400 127.345 C 333.850 127.200,331.150 127.031,328.400 126.969 C 325.650 126.907,322.860 126.694,322.200 126.496 C 321.540 126.298,319.479 126.187,317.621 126.251 C 315.553 126.322,314.033 126.193,313.704 125.920 C 313.307 125.591,313.045 125.595,312.703 125.937 C 312.136 126.504,311.459 126.552,311.800 126.000 C 311.957 125.745,310.621 125.575,308.124 125.532 C 303.390 125.449,303.107 125.430,302.600 125.151 C 302.380 125.031,299.867 124.889,297.015 124.835 C 294.163 124.781,291.553 124.590,291.215 124.410 C 290.877 124.230,288.175 124.056,285.212 124.023 C 282.097 123.988,279.719 123.793,279.575 123.560 C 279.439 123.339,279.163 123.189,278.963 123.226 C 277.547 123.493,271.193 123.135,271.400 122.800 C 271.536 122.580,271.308 122.400,270.893 122.400 C 269.756 122.400,266.800 118.212,266.800 116.600 C 266.800 116.485,266.422 115.538,265.960 114.496 C 265.498 113.453,264.936 112.150,264.711 111.600 C 264.487 111.050,264.044 110.105,263.728 109.499 C 263.412 108.894,263.282 108.191,263.439 107.937 C 263.615 107.652,263.548 107.585,263.262 107.762 C 262.959 107.949,262.800 107.695,262.800 107.024 C 262.800 106.461,262.620 106.000,262.400 106.000 C 262.180 106.000,262.000 105.640,262.000 105.200 C 262.000 104.760,261.820 104.400,261.600 104.400 C 261.380 104.400,261.200 104.040,261.200 103.600 C 261.200 103.160,260.975 102.797,260.700 102.794 C 260.367 102.790,260.400 102.658,260.800 102.400 C 261.130 102.187,261.220 102.008,261.000 102.003 C 260.469 101.991,259.600 100.077,259.600 98.920 C 259.600 98.414,259.420 98.000,259.200 98.000 C 258.980 98.000,258.800 97.640,258.800 97.200 C 258.800 96.760,258.620 96.400,258.400 96.400 C 258.180 96.400,257.999 95.995,257.999 95.500 C 257.998 95.005,257.634 94.004,257.190 93.276 C 256.746 92.548,256.487 91.783,256.615 91.576 C 256.743 91.369,256.646 91.200,256.400 91.200 C 256.154 91.200,256.056 91.032,256.183 90.828 C 256.309 90.623,256.227 90.340,256.000 90.200 C 255.773 90.060,255.691 89.777,255.817 89.572 C 255.944 89.368,255.885 89.200,255.688 89.200 C 255.379 89.200,254.205 86.305,254.201 85.533 C 254.201 85.387,254.065 85.132,253.900 84.967 C 253.735 84.802,253.600 84.337,253.600 83.933 C 253.600 83.530,253.465 83.199,253.300 83.197 C 253.135 83.195,252.792 82.745,252.537 82.196 C 252.283 81.648,252.201 81.277,252.356 81.373 C 252.511 81.469,252.138 80.524,251.528 79.273 C 250.917 78.023,250.414 76.685,250.409 76.300 C 250.404 75.915,250.220 75.600,250.000 75.600 C 249.780 75.600,249.600 75.240,249.600 74.800 C 249.600 74.360,249.409 74.000,249.176 74.000 C 248.943 74.000,248.844 73.852,248.956 73.671 C 249.068 73.491,248.898 72.840,248.580 72.226 C 248.261 71.611,248.000 70.859,248.000 70.554 C 248.000 70.249,247.820 70.000,247.600 70.000 C 247.380 70.000,247.200 69.640,247.200 69.200 C 247.200 68.760,247.059 68.400,246.887 68.400 C 246.715 68.400,246.534 67.905,246.484 67.300 C 246.434 66.695,246.215 66.140,245.997 66.067 C 245.778 65.993,245.594 65.633,245.587 65.267 C 245.581 64.900,245.041 63.525,244.387 62.210 C 243.734 60.896,243.200 59.501,243.200 59.110 C 243.200 58.720,243.020 58.400,242.800 58.400 C 242.580 58.400,242.400 58.040,242.400 57.600 C 242.400 57.160,242.220 56.800,242.000 56.800 C 241.780 56.800,241.600 56.390,241.600 55.889 C 241.600 55.388,241.320 54.578,240.977 54.089 C 240.635 53.600,240.477 53.200,240.626 53.200 C 240.776 53.200,240.699 52.961,240.457 52.669 C 240.214 52.376,239.962 51.791,239.896 51.369 C 239.831 50.946,239.636 50.375,239.465 50.100 C 239.293 49.825,239.298 49.597,239.476 49.594 C 239.654 49.591,239.616 49.456,239.392 49.294 C 238.869 48.918,238.000 46.949,238.000 46.143 C 238.000 45.802,237.668 45.046,237.261 44.462 C 236.855 43.878,236.279 42.557,235.981 41.526 C 235.684 40.495,235.296 39.740,235.120 39.849 C 234.944 39.958,234.800 39.668,234.800 39.204 C 234.800 38.741,234.440 37.616,234.000 36.706 C 233.560 35.795,233.200 34.713,233.200 34.301 C 233.200 33.890,233.020 33.664,232.800 33.800 C 232.566 33.945,232.400 33.530,232.400 32.800 C 232.400 32.070,232.234 31.655,232.000 31.800 C 231.773 31.940,231.600 31.604,231.600 31.024 C 231.600 30.461,231.420 30.000,231.200 30.000 C 230.980 30.000,230.800 29.730,230.800 29.400 C 230.800 29.070,230.620 28.800,230.400 28.800 C 230.180 28.800,230.000 28.440,230.000 28.000 C 230.000 27.560,229.820 27.200,229.600 27.200 C 229.380 27.200,229.200 26.750,229.200 26.200 C 229.200 25.576,228.600 24.583,227.600 23.552 C 226.720 22.645,226.000 21.727,226.000 21.512 C 226.000 21.297,225.494 20.644,224.875 20.060 C 224.257 19.477,223.633 18.685,223.488 18.300 C 223.343 17.915,222.919 17.600,222.546 17.600 C 222.172 17.600,221.983 17.483,222.126 17.341 C 222.453 17.013,220.804 15.550,220.394 15.804 C 220.227 15.907,219.993 15.615,219.872 15.155 C 219.751 14.692,219.462 14.438,219.224 14.585 C 218.988 14.731,218.687 14.570,218.555 14.228 C 218.424 13.885,218.170 13.695,217.990 13.806 C 217.811 13.917,217.393 13.736,217.061 13.404 C 216.729 13.072,216.304 12.800,216.118 12.800 C 215.931 12.800,214.714 12.248,213.413 11.573 C 212.113 10.898,210.762 10.421,210.413 10.513 C 210.063 10.604,209.559 10.446,209.293 10.162 C 209.027 9.877,208.416 9.720,207.934 9.813 C 207.453 9.905,206.842 9.801,206.577 9.581 C 205.948 9.059,197.811 8.800,196.000 9.244 M202.400 30.400 C 202.400 30.620,202.990 30.800,203.712 30.800 C 204.552 30.800,205.225 31.080,205.585 31.579 C 205.893 32.007,206.280 32.274,206.444 32.173 C 206.877 31.905,210.557 35.642,210.685 36.480 C 210.745 36.871,211.245 38.126,211.797 39.270 C 212.349 40.414,212.800 41.687,212.800 42.098 C 212.800 42.510,212.980 42.736,213.200 42.600 C 213.426 42.460,213.600 42.788,213.600 43.353 C 213.600 43.903,213.780 44.464,214.000 44.600 C 214.220 44.736,214.400 45.197,214.400 45.624 C 214.400 46.051,214.550 46.400,214.733 46.400 C 214.917 46.400,215.074 46.625,215.082 46.900 C 215.105 47.618,215.366 48.567,215.605 48.800 C 215.718 48.910,216.233 49.900,216.749 51.000 C 217.265 52.100,217.848 53.313,218.044 53.695 C 218.240 54.077,218.400 54.762,218.400 55.218 C 218.400 55.674,218.580 55.936,218.800 55.800 C 219.026 55.660,219.200 55.988,219.200 56.553 C 219.200 57.103,219.380 57.664,219.600 57.800 C 219.820 57.936,220.000 58.397,220.000 58.824 C 220.000 59.251,220.180 59.600,220.400 59.600 C 220.620 59.600,220.779 59.735,220.753 59.900 C 220.623 60.719,220.836 61.625,221.117 61.451 C 221.291 61.344,221.477 61.828,221.530 62.528 C 221.582 63.227,221.800 63.860,222.013 63.933 C 222.226 64.007,222.400 64.401,222.400 64.810 C 222.400 65.218,222.580 65.664,222.800 65.800 C 223.020 65.936,223.200 66.397,223.200 66.824 C 223.200 67.251,223.380 67.600,223.600 67.600 C 223.820 67.600,224.000 67.872,224.000 68.205 C 224.000 68.538,224.159 69.123,224.353 69.505 C 224.548 69.887,224.929 70.740,225.200 71.400 C 225.471 72.060,225.840 72.893,226.019 73.251 C 226.199 73.609,226.466 74.547,226.615 75.337 C 226.763 76.126,227.077 76.733,227.314 76.686 C 227.550 76.639,227.746 77.050,227.750 77.600 C 227.753 78.150,227.883 78.690,228.038 78.800 C 228.193 78.910,228.383 79.360,228.460 79.800 C 228.537 80.240,228.744 80.706,228.920 80.836 C 229.096 80.966,229.268 81.448,229.303 81.908 C 229.338 82.368,229.492 82.667,229.646 82.572 C 229.800 82.477,230.156 83.299,230.438 84.399 C 230.721 85.500,231.097 86.400,231.276 86.400 C 231.454 86.400,231.606 86.715,231.613 87.100 C 231.620 87.485,231.877 88.132,232.185 88.539 C 232.493 88.945,232.637 89.560,232.505 89.904 C 232.346 90.318,232.423 90.433,232.732 90.242 C 233.027 90.060,233.200 90.235,233.200 90.715 C 233.200 91.134,233.450 92.000,233.756 92.639 C 234.062 93.277,234.618 94.520,234.990 95.400 C 235.362 96.280,235.832 97.313,236.034 97.695 C 236.235 98.077,236.400 98.672,236.400 99.018 C 236.400 99.364,236.580 99.536,236.800 99.400 C 237.033 99.256,237.200 99.655,237.200 100.353 C 237.200 101.013,237.380 101.664,237.600 101.800 C 237.820 101.936,238.000 102.487,238.000 103.024 C 238.000 103.561,238.180 104.000,238.400 104.000 C 238.620 104.000,238.800 104.349,238.800 104.776 C 238.800 105.203,238.980 105.664,239.200 105.800 C 239.420 105.936,239.600 106.397,239.600 106.824 C 239.600 107.251,239.780 107.600,240.000 107.600 C 240.220 107.600,240.400 108.050,240.400 108.600 C 240.400 109.150,240.536 109.600,240.702 109.600 C 241.093 109.600,242.028 111.712,242.108 112.776 C 242.142 113.229,242.323 113.600,242.509 113.600 C 242.695 113.600,242.736 113.780,242.600 114.000 C 242.464 114.220,242.543 114.400,242.776 114.400 C 243.009 114.400,243.181 114.535,243.157 114.700 C 243.067 115.324,243.709 116.800,244.070 116.800 C 244.278 116.800,244.356 116.947,244.245 117.126 C 244.134 117.306,244.310 118.161,244.636 119.026 C 244.962 119.892,245.333 120.915,245.461 121.300 C 245.589 121.685,245.852 122.000,246.047 122.000 C 246.241 122.000,246.400 122.525,246.400 123.167 C 246.400 123.808,246.564 124.393,246.763 124.467 C 246.963 124.540,247.188 124.960,247.263 125.400 C 247.339 125.840,248.005 127.370,248.743 128.800 C 250.802 132.784,251.341 133.710,252.100 134.563 C 252.485 134.997,252.800 135.527,252.800 135.742 C 252.800 135.957,252.919 136.014,253.064 135.869 C 253.210 135.724,253.528 136.005,253.772 136.494 C 254.016 136.984,254.628 137.590,255.132 137.841 C 255.636 138.092,256.490 138.682,257.029 139.151 C 257.569 139.620,258.218 140.048,258.472 140.102 C 258.726 140.156,259.263 140.515,259.667 140.900 C 260.070 141.285,260.771 141.600,261.224 141.600 C 261.677 141.600,261.936 141.780,261.800 142.000 C 261.655 142.234,262.070 142.400,262.800 142.400 C 263.530 142.400,263.945 142.566,263.800 142.800 C 263.593 143.135,265.358 143.428,266.500 143.247 C 266.665 143.221,266.800 143.352,266.800 143.537 C 266.800 143.722,268.015 143.912,269.500 143.959 C 270.985 144.006,272.256 144.204,272.325 144.398 C 272.394 144.593,274.914 144.762,277.925 144.774 C 281.215 144.788,283.452 144.957,283.533 145.198 C 283.614 145.442,285.916 145.600,289.400 145.600 C 292.685 145.600,295.190 145.763,295.267 145.982 C 295.340 146.192,297.603 146.392,300.297 146.426 C 303.041 146.461,305.096 146.644,304.973 146.844 C 304.786 147.146,316.527 147.397,316.939 147.100 C 317.015 147.045,317.330 147.204,317.639 147.453 C 317.957 147.709,319.930 147.937,322.192 147.978 C 324.388 148.018,326.278 148.201,326.392 148.385 C 326.506 148.569,328.839 148.744,331.576 148.773 C 334.663 148.807,336.762 149.002,337.106 149.288 C 337.529 149.639,337.737 149.625,337.980 149.232 C 338.169 148.926,338.398 148.873,338.539 149.101 C 338.671 149.314,340.798 149.514,343.266 149.545 C 345.912 149.578,347.860 149.773,348.013 150.021 C 348.156 150.253,348.437 150.411,348.637 150.374 C 349.803 150.154,359.215 150.452,359.059 150.704 C 358.956 150.871,360.960 151.058,363.512 151.119 C 366.064 151.179,368.343 151.386,368.576 151.577 C 368.809 151.769,369.720 151.983,370.600 152.053 C 372.585 152.212,374.150 152.956,375.137 154.211 C 375.553 154.740,375.988 155.079,376.103 154.963 C 376.218 154.848,376.556 155.304,376.854 155.977 C 377.152 156.650,377.514 157.200,377.660 157.200 C 378.736 157.200,379.801 165.981,378.800 166.600 C 378.580 166.736,378.400 167.184,378.400 167.595 C 378.400 168.006,378.124 168.619,377.786 168.957 C 377.448 169.295,377.173 169.713,377.174 169.886 C 377.179 170.385,374.644 173.181,374.178 173.191 C 373.946 173.196,373.109 173.785,372.319 174.500 C 371.528 175.215,370.503 176.065,370.041 176.388 C 369.578 176.712,369.197 177.252,369.194 177.588 C 369.188 178.129,369.143 178.131,368.800 177.600 C 368.529 177.180,368.410 177.154,368.406 177.513 C 368.403 177.794,368.110 178.137,367.755 178.273 C 367.021 178.554,366.287 179.162,363.257 181.996 C 362.078 183.098,360.942 184.000,360.733 184.000 C 360.524 184.000,360.464 184.180,360.600 184.400 C 360.736 184.620,360.558 184.800,360.205 184.800 C 359.852 184.800,359.114 185.250,358.564 185.800 C 358.014 186.350,357.392 186.800,357.182 186.800 C 356.972 186.800,356.800 187.058,356.800 187.373 C 356.800 187.688,356.434 188.062,355.987 188.204 C 355.540 188.346,354.738 188.898,354.205 189.431 C 353.672 189.964,353.038 190.400,352.795 190.400 C 352.552 190.400,352.464 190.580,352.600 190.800 C 352.736 191.020,352.612 191.200,352.324 191.200 C 351.658 191.201,349.550 192.994,349.807 193.340 C 349.913 193.483,349.879 193.509,349.732 193.399 C 349.364 193.123,347.559 194.347,346.671 195.474 C 346.270 195.983,345.674 196.400,345.347 196.400 C 345.020 196.400,344.855 196.565,344.979 196.766 C 345.103 196.967,344.543 197.541,343.735 198.040 C 342.926 198.540,341.783 199.453,341.194 200.069 C 340.605 200.686,340.005 201.072,339.862 200.928 C 339.718 200.784,339.600 200.967,339.600 201.333 C 339.600 201.700,339.454 201.955,339.276 201.900 C 338.986 201.811,337.249 203.052,335.162 204.841 C 334.751 205.193,334.531 205.598,334.674 205.741 C 334.817 205.883,334.619 206.000,334.235 206.000 C 333.851 206.000,332.868 206.696,332.051 207.547 C 331.234 208.398,330.208 209.207,329.772 209.345 C 329.337 209.484,328.309 210.248,327.490 211.044 C 326.670 211.840,326.000 212.366,326.000 212.213 C 326.000 212.060,325.301 212.662,324.446 213.552 C 323.592 214.441,322.651 215.221,322.355 215.285 C 322.060 215.348,321.153 216.075,320.341 216.900 C 319.528 217.725,318.745 218.400,318.601 218.400 C 318.456 218.400,317.836 218.895,317.221 219.500 C 315.643 221.054,314.035 222.400,313.757 222.400 C 313.627 222.400,313.017 222.940,312.400 223.600 C 311.783 224.260,311.164 224.800,311.023 224.800 C 310.720 224.800,309.803 225.526,308.901 226.480 C 308.547 226.853,308.137 227.084,307.989 226.993 C 307.841 226.902,307.504 227.231,307.240 227.725 C 306.976 228.219,306.274 228.845,305.680 229.117 C 304.752 229.542,302.685 231.208,300.366 233.401 C 300.018 233.730,299.645 234.000,299.537 234.000 C 299.208 234.000,294.800 238.413,294.800 238.742 C 294.800 238.911,294.459 239.415,294.043 239.862 C 293.044 240.934,292.118 242.758,291.942 244.000 C 291.864 244.550,291.643 245.115,291.450 245.255 C 291.257 245.394,291.100 245.976,291.100 246.547 C 291.100 247.118,290.943 247.488,290.750 247.369 C 290.558 247.250,290.400 247.894,290.400 248.800 C 290.400 249.896,290.253 250.356,289.960 250.175 C 289.641 249.978,289.641 250.130,289.961 250.727 C 290.252 251.271,290.265 251.636,290.001 251.799 C 289.479 252.122,289.478 258.277,290.000 258.600 C 290.220 258.736,290.400 259.647,290.400 260.624 C 290.400 261.601,290.580 262.400,290.800 262.400 C 291.020 262.400,291.200 263.131,291.200 264.024 C 291.200 265.004,291.358 265.549,291.600 265.400 C 291.841 265.251,292.000 265.788,292.000 266.753 C 292.000 267.633,292.176 268.461,292.390 268.594 C 292.605 268.727,292.718 269.367,292.643 270.018 C 292.567 270.668,292.642 271.200,292.810 271.200 C 292.977 271.200,293.222 271.479,293.353 271.821 C 293.501 272.208,293.427 272.340,293.156 272.173 C 292.851 271.984,292.837 272.129,293.108 272.652 C 293.322 273.063,293.444 273.726,293.380 274.125 C 293.316 274.523,293.487 274.935,293.761 275.040 C 294.035 275.145,294.266 275.809,294.275 276.516 C 294.284 277.222,294.508 278.520,294.772 279.400 C 295.036 280.280,295.352 281.810,295.473 282.800 C 295.595 283.790,295.835 284.690,296.007 284.800 C 296.179 284.910,296.379 285.630,296.451 286.400 C 296.524 287.170,296.713 287.895,296.873 288.012 C 297.033 288.129,297.209 288.907,297.265 289.740 C 297.321 290.574,297.510 291.344,297.684 291.452 C 297.858 291.559,298.000 292.065,298.000 292.575 C 298.000 293.085,298.247 294.109,298.548 294.851 C 298.849 295.593,299.006 296.450,298.896 296.756 C 298.774 297.096,298.872 297.203,299.148 297.032 C 299.455 296.842,299.600 297.265,299.600 298.353 C 299.600 299.233,299.780 300.064,300.000 300.200 C 300.220 300.336,300.400 301.236,300.400 302.200 C 300.400 303.164,300.580 304.064,300.800 304.200 C 301.020 304.336,301.200 305.067,301.200 305.824 C 301.200 306.581,301.380 307.200,301.600 307.200 C 301.820 307.200,302.000 307.920,302.000 308.800 C 302.000 309.680,302.180 310.400,302.400 310.400 C 302.620 310.400,302.803 311.165,302.806 312.100 C 302.811 313.345,302.916 313.639,303.200 313.200 C 303.478 312.770,303.589 313.188,303.594 314.676 C 303.597 315.818,303.780 316.864,304.000 317.000 C 304.220 317.136,304.400 317.787,304.400 318.447 C 304.400 319.196,304.561 319.548,304.827 319.383 C 305.061 319.238,305.220 319.363,305.179 319.660 C 304.982 321.098,305.235 322.825,305.610 322.594 C 305.835 322.455,305.994 322.489,305.963 322.670 C 305.754 323.870,306.061 326.010,306.410 325.794 C 306.635 325.655,306.794 325.689,306.763 325.870 C 306.529 327.214,306.859 329.727,307.200 329.200 C 307.481 328.765,307.589 329.117,307.594 330.476 C 307.597 331.508,307.756 332.449,307.946 332.567 C 308.136 332.684,308.418 333.550,308.571 334.490 C 309.018 337.229,309.044 337.357,309.347 338.272 C 309.506 338.751,309.703 339.741,309.785 340.472 C 309.867 341.202,310.217 342.700,310.563 343.800 C 310.908 344.900,311.193 346.385,311.196 347.100 C 311.198 347.815,311.339 348.400,311.509 348.400 C 311.852 348.400,312.800 352.134,312.800 353.488 C 312.800 353.964,312.953 354.447,313.139 354.562 C 313.649 354.877,313.726 360.400,313.221 360.400 C 312.990 360.400,312.800 360.940,312.800 361.600 C 312.800 362.260,312.620 362.800,312.400 362.800 C 312.180 362.800,312.021 362.935,312.047 363.100 C 312.073 363.265,312.073 363.610,312.047 363.867 C 311.979 364.537,308.958 367.600,308.365 367.600 C 308.091 367.600,307.984 367.717,308.127 367.861 C 308.460 368.193,306.543 369.200,305.578 369.200 C 305.176 369.200,304.736 369.380,304.600 369.600 C 304.278 370.121,300.922 370.121,300.600 369.600 C 300.464 369.380,299.958 369.196,299.476 369.191 C 298.994 369.186,298.150 368.830,297.600 368.400 C 297.050 367.970,296.411 367.614,296.180 367.609 C 295.949 367.604,295.535 367.375,295.260 367.100 C 294.985 366.825,294.634 366.588,294.480 366.574 C 293.924 366.522,291.605 364.992,291.603 364.676 C 291.601 364.498,291.420 364.464,291.200 364.600 C 290.980 364.736,290.800 364.688,290.800 364.495 C 290.800 364.086,287.163 362.172,286.670 362.320 C 286.489 362.375,286.444 362.253,286.570 362.049 C 286.696 361.845,286.259 361.490,285.600 361.260 C 284.940 361.030,284.400 360.652,284.400 360.421 C 284.400 360.189,284.203 360.000,283.962 360.000 C 283.721 360.000,282.956 359.596,282.262 359.102 C 281.568 358.607,280.955 358.247,280.900 358.302 C 280.598 358.599,279.991 358.337,280.200 358.000 C 280.336 357.780,280.167 357.600,279.824 357.600 C 279.481 357.600,279.200 357.420,279.200 357.200 C 279.200 356.980,278.840 356.800,278.400 356.800 C 277.960 356.800,277.600 356.620,277.600 356.400 C 277.600 356.180,277.306 356.000,276.947 356.000 C 276.588 356.000,276.003 355.667,275.647 355.260 C 275.291 354.853,274.149 354.068,273.110 353.517 C 272.070 352.965,271.335 352.398,271.477 352.257 C 271.618 352.116,271.333 352.000,270.843 352.000 C 270.351 352.000,270.063 351.821,270.200 351.600 C 270.336 351.380,270.077 351.200,269.624 351.200 C 269.171 351.200,268.800 351.020,268.800 350.800 C 268.800 350.580,268.530 350.400,268.200 350.400 C 267.870 350.400,267.600 350.220,267.600 350.000 C 267.600 349.780,267.403 349.600,267.162 349.600 C 266.921 349.600,266.168 349.205,265.490 348.721 C 264.748 348.193,264.376 348.073,264.557 348.421 C 264.800 348.887,264.755 348.883,264.326 348.400 C 263.380 347.335,260.000 345.202,260.000 345.669 C 260.000 345.919,259.640 345.707,259.200 345.200 C 258.760 344.693,258.400 344.423,258.400 344.600 C 258.400 344.777,258.040 344.507,257.600 344.000 C 257.160 343.493,256.800 343.202,256.800 343.354 C 256.800 343.507,256.406 343.264,255.925 342.816 C 255.443 342.367,254.768 341.994,254.425 341.987 C 253.617 341.971,252.334 340.999,252.673 340.660 C 252.816 340.517,252.654 340.400,252.312 340.400 C 251.432 340.400,249.561 339.373,249.873 339.061 C 250.016 338.917,249.674 338.800,249.112 338.800 C 248.455 338.800,247.753 338.373,247.145 337.604 C 246.625 336.946,246.011 336.406,245.780 336.404 C 245.116 336.398,243.207 335.432,243.203 335.100 C 243.201 334.935,242.880 334.800,242.488 334.800 C 242.097 334.800,241.517 334.440,241.200 334.000 C 240.883 333.560,240.415 333.200,240.161 333.200 C 239.906 333.200,239.470 332.926,239.192 332.590 C 238.914 332.255,238.595 332.072,238.484 332.183 C 238.372 332.294,237.957 332.012,237.562 331.556 C 237.166 331.100,236.686 330.823,236.494 330.942 C 236.302 331.060,235.708 330.753,235.173 330.258 C 234.174 329.335,232.832 328.624,232.300 328.736 C 232.135 328.771,232.000 328.616,232.000 328.390 C 232.000 328.040,230.047 327.041,229.670 327.198 C 229.598 327.228,229.217 326.881,228.823 326.426 C 228.429 325.972,227.812 325.600,227.453 325.600 C 227.094 325.600,226.800 325.420,226.800 325.200 C 226.800 324.980,226.564 324.800,226.275 324.800 C 225.987 324.800,225.364 324.440,224.892 324.000 C 224.420 323.560,223.756 323.200,223.417 323.200 C 223.078 323.200,222.800 323.020,222.800 322.800 C 222.800 322.580,222.519 322.400,222.176 322.400 C 221.833 322.400,221.664 322.220,221.800 322.000 C 221.936 321.780,221.677 321.600,221.224 321.600 C 220.771 321.600,220.400 321.409,220.400 321.176 C 220.400 320.943,220.240 320.851,220.045 320.972 C 219.850 321.093,219.468 320.923,219.196 320.596 C 218.924 320.268,218.485 320.000,218.221 320.000 C 217.956 320.000,217.340 319.575,216.853 319.056 C 216.365 318.537,215.256 317.772,214.388 317.356 C 213.519 316.940,212.807 316.465,212.805 316.300 C 212.802 316.135,212.485 315.996,212.100 315.991 C 211.715 315.986,210.950 315.630,210.400 315.200 C 209.850 314.770,209.083 314.414,208.695 314.409 C 208.307 314.404,207.587 314.192,207.095 313.938 C 206.603 313.683,205.930 313.355,205.600 313.207 C 202.936 312.019,189.496 313.361,188.867 314.879 C 188.793 315.055,188.399 315.200,187.990 315.200 C 187.582 315.200,187.136 315.380,187.000 315.600 C 186.864 315.820,186.486 316.000,186.160 316.000 C 185.833 316.000,185.211 316.331,184.777 316.736 C 184.342 317.141,183.495 317.725,182.893 318.033 C 182.292 318.342,181.485 318.938,181.100 319.358 C 180.647 319.853,180.400 319.938,180.400 319.600 C 180.400 319.291,180.095 319.430,179.653 319.939 C 179.242 320.412,178.702 320.800,178.453 320.800 C 178.204 320.800,178.000 320.980,178.000 321.200 C 178.000 321.420,177.595 321.603,177.100 321.606 C 176.372 321.611,176.315 321.686,176.800 322.000 C 177.285 322.314,177.228 322.389,176.500 322.394 C 176.005 322.397,175.600 322.580,175.600 322.800 C 175.600 323.020,175.240 323.200,174.800 323.200 C 174.360 323.200,174.000 323.380,174.000 323.600 C 174.000 323.820,173.730 324.000,173.400 324.000 C 173.070 324.000,172.800 324.180,172.800 324.400 C 172.800 324.620,172.530 324.800,172.200 324.800 C 171.870 324.800,171.600 324.980,171.600 325.200 C 171.600 325.420,171.240 325.600,170.800 325.600 C 170.360 325.600,170.000 325.751,170.000 325.935 C 170.000 326.119,168.965 326.788,167.700 327.421 C 166.435 328.055,165.190 328.849,164.932 329.187 C 164.675 329.524,164.308 329.800,164.117 329.800 C 163.627 329.800,159.200 332.516,159.200 332.816 C 159.200 332.952,158.300 333.485,157.200 334.000 C 156.100 334.515,155.200 335.064,155.200 335.220 C 155.200 335.376,154.660 335.727,154.000 336.000 C 153.340 336.273,152.800 336.622,152.800 336.774 C 152.800 336.926,152.170 337.298,151.400 337.600 C 150.630 337.902,150.000 338.296,150.000 338.475 C 150.000 338.654,149.730 338.800,149.400 338.800 C 149.070 338.800,148.800 338.980,148.800 339.200 C 148.800 339.420,148.395 339.603,147.900 339.606 C 147.172 339.611,147.115 339.686,147.600 340.000 C 148.066 340.301,147.949 340.389,147.076 340.394 C 146.430 340.397,146.058 340.570,146.200 340.800 C 146.336 341.020,146.167 341.200,145.824 341.200 C 145.481 341.200,145.200 341.380,145.200 341.600 C 145.200 341.820,144.964 342.000,144.675 342.000 C 144.387 342.000,143.764 342.360,143.292 342.800 C 142.820 343.240,142.282 343.600,142.096 343.600 C 141.480 343.600,139.606 344.595,139.603 344.924 C 139.601 345.102,139.439 345.148,139.242 345.026 C 139.045 344.904,138.776 345.085,138.645 345.428 C 138.513 345.770,138.224 345.939,138.003 345.802 C 137.781 345.665,137.600 345.743,137.600 345.976 C 137.600 346.209,137.412 346.400,137.183 346.400 C 136.954 346.400,136.380 346.760,135.908 347.200 C 135.436 347.640,134.813 348.000,134.525 348.000 C 134.236 348.000,134.000 348.191,134.000 348.424 C 134.000 348.657,133.819 348.735,133.597 348.598 C 133.376 348.461,133.086 348.631,132.954 348.975 C 132.822 349.319,132.374 349.600,131.957 349.600 C 131.541 349.600,131.200 349.780,131.200 350.000 C 131.200 350.220,130.919 350.400,130.576 350.400 C 130.233 350.400,130.048 350.554,130.164 350.742 C 130.405 351.131,128.705 351.997,127.681 352.006 C 127.095 352.011,127.084 352.066,127.600 352.400 C 128.110 352.730,128.093 352.789,127.484 352.794 C 126.780 352.800,124.328 354.311,124.067 354.900 C 123.993 355.065,123.671 355.200,123.350 355.200 C 123.029 355.200,122.380 355.560,121.908 356.000 C 121.436 356.440,120.813 356.800,120.525 356.800 C 120.236 356.800,120.000 356.980,120.000 357.200 C 120.000 357.420,119.640 357.600,119.200 357.600 C 118.760 357.600,118.400 357.750,118.400 357.932 C 118.400 358.115,117.905 358.519,117.300 358.830 C 116.695 359.140,115.885 359.738,115.500 360.158 C 115.115 360.579,114.794 360.760,114.787 360.561 C 114.780 360.363,114.527 360.527,114.224 360.926 C 113.921 361.325,113.432 361.612,113.137 361.563 C 112.339 361.431,111.172 362.030,111.426 362.442 C 111.548 362.639,111.277 362.800,110.824 362.800 C 110.371 362.800,110.000 362.958,110.000 363.151 C 110.000 363.345,109.460 363.727,108.800 364.000 C 108.140 364.273,107.600 364.655,107.600 364.849 C 107.600 365.042,107.319 365.200,106.976 365.200 C 106.633 365.200,106.441 365.343,106.549 365.517 C 106.656 365.691,106.402 365.860,105.982 365.891 C 105.563 365.923,104.721 366.412,104.110 366.979 C 103.500 367.545,102.775 367.922,102.500 367.817 C 102.225 367.711,102.000 367.799,102.000 368.013 C 102.000 368.226,101.719 368.400,101.376 368.400 C 101.033 368.400,100.840 368.542,100.948 368.715 C 101.055 368.888,100.660 369.070,100.071 369.119 C 99.482 369.167,98.940 369.385,98.867 369.603 C 98.793 369.822,97.748 370.000,96.543 370.000 C 95.185 370.000,94.447 369.848,94.600 369.600 C 94.750 369.358,94.196 369.200,93.200 369.200 C 92.204 369.200,91.650 369.042,91.800 368.800 C 91.936 368.580,91.677 368.400,91.224 368.400 C 90.771 368.400,90.400 368.220,90.400 368.000 C 90.400 367.780,90.100 367.600,89.733 367.600 C 89.367 367.600,89.178 367.489,89.314 367.352 C 89.619 367.048,88.845 366.248,87.900 365.890 C 87.515 365.744,87.200 365.259,87.200 364.813 C 87.200 364.366,87.049 364.000,86.864 364.000 C 86.679 364.000,86.299 363.306,86.019 362.458 C 85.249 360.123,85.973 351.607,86.944 351.594 C 87.221 351.590,87.187 351.453,86.857 351.244 C 86.479 351.004,86.449 350.817,86.757 350.626 C 87.001 350.476,87.200 349.813,87.200 349.153 C 87.200 348.375,87.356 348.049,87.644 348.227 C 87.952 348.418,88.044 347.949,87.944 346.702 C 87.856 345.603,87.995 344.720,88.300 344.435 C 88.575 344.179,88.800 343.436,88.800 342.784 C 88.800 342.133,88.949 341.600,89.132 341.600 C 89.315 341.600,89.443 340.960,89.417 340.179 C 89.391 339.397,89.589 338.575,89.857 338.353 C 90.125 338.130,90.277 337.598,90.194 337.170 C 90.112 336.742,90.316 335.742,90.647 334.949 C 90.979 334.156,91.151 333.248,91.029 332.933 C 90.907 332.613,90.985 332.467,91.205 332.603 C 91.445 332.752,91.600 332.047,91.600 330.800 C 91.600 329.537,91.753 328.847,92.000 329.000 C 92.247 329.153,92.400 328.463,92.400 327.200 C 92.400 326.074,92.560 325.252,92.757 325.373 C 92.953 325.494,93.223 324.965,93.357 324.197 C 93.490 323.429,93.710 322.170,93.844 321.400 C 93.978 320.630,94.248 320.000,94.444 320.000 C 94.640 320.000,94.803 319.055,94.806 317.900 C 94.811 316.397,94.922 315.970,95.200 316.400 C 95.475 316.825,95.590 316.324,95.594 314.676 C 95.598 313.231,95.751 312.446,96.000 312.600 C 96.241 312.749,96.400 312.212,96.400 311.247 C 96.400 310.367,96.580 309.536,96.800 309.400 C 97.020 309.264,97.200 308.634,97.200 308.000 C 97.200 307.366,97.380 306.736,97.600 306.600 C 97.820 306.464,98.000 305.821,98.000 305.171 C 98.000 304.521,98.159 303.677,98.353 303.295 C 98.805 302.403,99.600 299.027,99.600 297.994 C 99.600 297.557,99.780 297.200,100.000 297.200 C 100.220 297.200,100.400 296.581,100.400 295.824 C 100.400 295.067,100.580 294.336,100.800 294.200 C 101.020 294.064,101.200 293.243,101.200 292.376 C 101.200 291.385,101.386 290.798,101.700 290.794 C 102.033 290.790,102.000 290.658,101.600 290.400 C 101.200 290.142,101.167 290.010,101.500 290.006 C 101.775 290.003,102.000 289.548,102.000 288.995 C 102.000 288.442,102.159 287.677,102.353 287.295 C 102.848 286.320,103.600 282.988,103.600 281.771 C 103.600 281.211,103.735 280.835,103.900 280.936 C 104.065 281.037,104.235 280.470,104.277 279.675 C 104.320 278.881,104.526 277.865,104.736 277.416 C 105.191 276.440,106.227 271.926,106.094 271.500 C 106.042 271.335,106.164 271.200,106.365 271.200 C 106.565 271.200,106.682 270.885,106.624 270.500 C 106.566 270.115,106.686 269.260,106.891 268.600 C 107.096 267.940,107.297 266.918,107.336 266.329 C 107.376 265.740,107.542 265.125,107.704 264.962 C 107.867 264.800,108.000 264.056,108.000 263.310 C 108.000 262.507,108.163 262.054,108.400 262.200 C 108.648 262.353,108.800 261.612,108.800 260.247 C 108.800 259.037,108.989 257.930,109.220 257.788 C 109.725 257.476,109.654 250.800,109.146 250.800 C 108.956 250.800,108.800 250.080,108.800 249.200 C 108.800 248.320,108.620 247.600,108.400 247.600 C 108.180 247.600,108.000 247.060,108.000 246.400 C 108.000 245.740,107.820 245.200,107.600 245.200 C 107.380 245.200,107.221 245.065,107.247 244.900 C 107.386 244.019,107.115 243.260,106.380 242.470 C 105.928 241.986,105.670 241.411,105.805 241.192 C 105.940 240.973,105.815 240.532,105.526 240.212 C 105.236 239.893,103.740 238.198,102.200 236.447 C 100.660 234.696,99.220 233.249,99.000 233.231 C 98.780 233.214,98.060 232.729,97.400 232.155 C 96.740 231.580,95.570 230.636,94.800 230.057 C 94.030 229.477,92.905 228.488,92.300 227.859 C 91.695 227.230,91.200 226.852,91.200 227.019 C 91.200 227.186,90.864 226.935,90.453 226.461 C 90.042 225.988,89.582 225.600,89.430 225.600 C 89.183 225.600,88.377 224.900,84.932 221.700 C 84.400 221.205,83.874 220.800,83.764 220.800 C 83.655 220.800,83.090 220.360,82.510 219.821 C 81.929 219.283,81.279 218.951,81.065 219.083 C 80.851 219.215,80.799 219.125,80.949 218.882 C 81.100 218.639,80.829 218.229,80.348 217.972 C 79.433 217.482,77.108 215.499,76.044 214.300 C 75.702 213.915,75.257 213.600,75.054 213.600 C 74.852 213.600,74.171 213.060,73.540 212.400 C 72.909 211.740,72.170 211.196,71.897 211.191 C 71.623 211.187,70.862 210.557,70.204 209.791 C 69.546 209.026,68.751 208.400,68.437 208.400 C 68.123 208.400,67.978 208.289,68.114 208.152 C 68.449 207.818,67.393 206.800,66.712 206.800 C 66.412 206.800,65.505 206.080,64.696 205.200 C 63.887 204.320,63.025 203.600,62.781 203.600 C 62.537 203.600,61.646 202.880,60.800 202.000 C 59.954 201.120,59.079 200.400,58.854 200.400 C 58.629 200.400,57.274 199.230,55.844 197.800 C 54.414 196.370,52.997 195.200,52.694 195.200 C 52.392 195.200,51.764 194.795,51.299 194.300 C 50.834 193.805,49.881 192.950,49.180 192.400 C 48.479 191.850,46.892 190.459,45.653 189.309 C 44.414 188.159,43.251 187.214,43.069 187.209 C 42.886 187.204,42.024 186.480,41.153 185.600 C 40.282 184.720,39.398 184.000,39.188 184.000 C 38.978 184.000,38.582 183.640,38.307 183.200 C 38.032 182.760,37.673 182.400,37.508 182.400 C 37.156 182.400,36.000 181.485,34.160 179.750 C 33.430 179.062,32.736 178.597,32.617 178.716 C 32.498 178.836,32.400 178.723,32.400 178.467 C 32.400 178.210,32.226 178.000,32.014 178.000 C 31.801 178.000,31.075 177.460,30.400 176.800 C 29.725 176.140,28.952 175.600,28.682 175.600 C 28.413 175.600,27.968 175.240,27.693 174.800 C 27.418 174.360,27.002 174.000,26.768 174.000 C 26.179 174.000,25.183 172.950,25.486 172.648 C 25.622 172.511,25.532 172.400,25.285 172.400 C 24.640 172.400,22.933 170.601,23.100 170.099 C 23.178 169.865,22.827 169.384,22.321 169.030 C 21.814 168.675,21.364 167.983,21.321 167.492 C 21.278 167.002,21.087 165.374,20.898 163.876 C 20.683 162.173,20.698 161.063,20.939 160.914 C 21.166 160.774,21.191 160.891,21.000 161.200 C 20.786 161.546,20.833 161.627,21.138 161.438 C 21.392 161.281,21.601 160.668,21.601 160.076 C 21.602 159.484,21.999 158.370,22.482 157.600 C 22.966 156.830,23.371 156.102,23.381 155.982 C 23.584 153.651,29.769 151.291,36.028 151.158 C 38.413 151.107,40.271 150.915,40.158 150.732 C 39.989 150.459,48.611 150.151,50.300 150.370 C 50.575 150.406,50.800 150.269,50.800 150.065 C 50.800 149.764,56.465 149.425,60.297 149.498 C 60.793 149.507,61.085 149.337,60.949 149.118 C 60.807 148.888,61.052 148.907,61.527 149.161 C 62.071 149.452,62.436 149.465,62.599 149.201 C 62.744 148.966,65.003 148.800,68.047 148.800 C 71.412 148.800,73.160 148.659,73.000 148.400 C 72.763 148.017,76.597 147.832,81.343 147.996 C 82.520 148.037,83.192 147.910,83.046 147.674 C 82.895 147.430,84.624 147.262,87.667 147.225 C 90.341 147.193,92.725 147.041,92.965 146.886 C 93.498 146.542,94.158 146.498,100.100 146.411 C 102.685 146.372,104.800 146.174,104.800 145.971 C 104.800 145.761,107.152 145.600,110.200 145.600 C 113.170 145.600,115.600 145.439,115.600 145.242 C 115.600 145.045,117.625 144.842,120.100 144.792 C 125.906 144.674,126.000 144.668,126.000 144.413 C 126.000 144.294,127.665 144.140,129.700 144.071 C 131.735 144.002,133.460 143.777,133.533 143.572 C 133.607 143.368,134.091 143.200,134.610 143.200 C 135.128 143.200,135.664 143.020,135.800 142.800 C 135.936 142.580,136.456 142.400,136.956 142.400 C 138.169 142.400,141.805 140.545,141.125 140.273 C 140.836 140.158,140.995 140.049,141.477 140.032 C 141.960 140.014,142.635 139.600,142.977 139.111 C 143.320 138.622,143.600 138.359,143.600 138.527 C 143.600 138.861,144.156 138.440,146.208 136.550 C 146.955 135.862,147.664 135.397,147.783 135.516 C 147.902 135.636,148.000 135.472,148.000 135.152 C 148.000 134.832,148.533 133.947,149.184 133.185 C 149.835 132.423,150.375 131.575,150.384 131.300 C 150.393 131.025,150.625 130.797,150.900 130.794 C 151.292 130.789,151.294 130.721,150.909 130.476 C 150.548 130.246,150.627 130.013,151.209 129.594 C 151.644 129.280,152.000 128.624,152.000 128.135 C 152.000 127.647,152.183 127.134,152.407 126.996 C 152.630 126.858,152.726 126.604,152.619 126.431 C 152.513 126.259,152.684 125.776,153.000 125.359 C 153.316 124.942,153.580 124.184,153.587 123.676 C 153.594 123.168,153.758 122.850,153.951 122.970 C 154.314 123.194,154.969 121.017,154.827 120.060 C 154.783 119.763,154.939 119.638,155.173 119.783 C 155.418 119.935,155.600 119.725,155.600 119.290 C 155.600 118.874,155.735 118.398,155.900 118.233 C 156.065 118.068,156.215 117.813,156.234 117.667 C 156.252 117.520,156.491 116.860,156.764 116.200 C 157.037 115.540,157.285 114.685,157.316 114.300 C 157.346 113.915,157.512 113.600,157.685 113.600 C 157.858 113.600,158.000 113.240,158.000 112.800 C 158.000 112.360,158.180 112.000,158.400 112.000 C 158.620 112.000,158.800 111.651,158.800 111.224 C 158.800 110.797,158.980 110.336,159.200 110.200 C 159.420 110.064,159.600 109.513,159.600 108.976 C 159.600 108.439,159.780 108.000,160.000 108.000 C 160.220 108.000,160.400 107.751,160.400 107.446 C 160.400 107.141,160.661 106.389,160.980 105.774 C 161.298 105.160,161.468 104.509,161.356 104.329 C 161.244 104.148,161.343 104.000,161.576 104.000 C 161.809 104.000,162.000 103.629,162.000 103.176 C 162.000 102.723,162.160 102.451,162.355 102.572 C 162.550 102.693,162.702 102.568,162.692 102.296 C 162.645 101.008,162.835 100.375,163.200 100.600 C 163.426 100.739,163.600 100.415,163.600 99.857 C 163.600 99.312,163.778 98.807,163.997 98.733 C 164.215 98.660,164.434 98.105,164.484 97.500 C 164.534 96.895,164.715 96.400,164.887 96.400 C 165.059 96.400,165.200 95.950,165.200 95.400 C 165.200 94.850,165.380 94.400,165.600 94.400 C 165.820 94.400,166.000 94.051,166.000 93.624 C 166.000 93.197,166.180 92.736,166.400 92.600 C 166.620 92.464,166.800 91.913,166.800 91.376 C 166.800 90.839,166.980 90.400,167.200 90.400 C 167.420 90.400,167.600 89.950,167.600 89.400 C 167.600 88.850,167.735 88.399,167.900 88.397 C 168.259 88.393,169.200 86.456,169.200 85.720 C 169.200 85.434,169.351 85.200,169.536 85.200 C 169.893 85.200,170.933 82.377,170.933 81.410 C 170.933 81.094,171.062 80.914,171.218 81.011 C 171.375 81.108,171.909 79.926,172.405 78.385 C 172.901 76.843,173.465 75.483,173.660 75.363 C 173.854 75.243,173.909 74.977,173.783 74.772 C 173.656 74.568,173.704 74.400,173.889 74.400 C 174.074 74.400,174.266 73.905,174.316 73.300 C 174.366 72.695,174.585 72.140,174.803 72.067 C 175.022 71.993,175.200 71.588,175.200 71.167 C 175.200 70.745,175.380 70.400,175.600 70.400 C 175.820 70.400,176.000 69.961,176.000 69.424 C 176.000 68.887,176.180 68.336,176.400 68.200 C 176.620 68.064,176.800 67.593,176.800 67.153 C 176.800 66.713,176.958 66.450,177.150 66.569 C 177.343 66.688,177.500 66.301,177.500 65.709 C 177.500 65.118,177.703 64.566,177.950 64.483 C 178.197 64.401,178.400 63.988,178.400 63.567 C 178.400 63.145,178.580 62.800,178.800 62.800 C 179.020 62.800,179.200 62.249,179.200 61.576 C 179.200 60.863,179.367 60.456,179.600 60.600 C 179.827 60.740,180.000 60.404,180.000 59.824 C 180.000 59.261,180.180 58.800,180.400 58.800 C 180.620 58.800,180.779 58.665,180.753 58.500 C 180.598 57.518,180.853 56.785,181.262 57.038 C 181.516 57.195,181.621 57.157,181.495 56.954 C 181.370 56.751,181.597 55.872,182.000 55.000 C 182.403 54.128,182.647 53.277,182.543 53.108 C 182.438 52.938,182.543 52.800,182.776 52.800 C 183.009 52.800,183.200 52.451,183.200 52.024 C 183.200 51.597,183.380 51.136,183.600 51.000 C 183.820 50.864,184.000 50.448,183.999 50.076 C 183.998 49.467,185.506 46.094,186.000 45.600 C 186.110 45.490,186.264 44.950,186.341 44.400 C 186.419 43.850,186.616 43.310,186.780 43.200 C 186.943 43.090,187.209 42.460,187.370 41.800 C 187.531 41.140,187.963 40.266,188.331 39.858 C 188.699 39.450,188.938 39.090,188.863 39.058 C 188.788 39.026,188.853 38.327,189.007 37.504 C 189.161 36.680,189.428 36.093,189.599 36.199 C 189.769 36.305,190.155 36.089,190.455 35.719 C 190.924 35.140,190.916 35.096,190.400 35.400 C 189.867 35.714,189.867 35.667,190.400 34.978 C 191.297 33.820,191.684 33.466,193.000 32.602 C 195.075 31.239,196.062 30.800,197.046 30.800 C 197.571 30.800,198.000 30.620,198.000 30.400 C 198.000 30.180,198.990 30.000,200.200 30.000 C 201.410 30.000,202.400 30.180,202.400 30.400 " stroke="none" fill="#535353" fill-rule="evenodd"></path><path id="path3" d="" stroke="none" fill="#666666" fill-rule="evenodd"></path><path id="path4" d="M95.500 125.482 C 95.995 125.578,96.805 125.578,97.300 125.482 C 97.795 125.387,97.390 125.309,96.400 125.309 C 95.410 125.309,95.005 125.387,95.500 125.482 M305.100 125.482 C 305.595 125.578,306.405 125.578,306.900 125.482 C 307.395 125.387,306.990 125.309,306.000 125.309 C 305.010 125.309,304.605 125.387,305.100 125.482 " stroke="none" fill="#7f7f7f" fill-rule="evenodd"></path></g></svg>