<svg id="svg" version="1.1" width="400" height="400" viewBox="0 0 400 400" xmlns="http://www.w3.org/2000/svg" xmlns:xlink="http://www.w3.org/1999/xlink" ><g id="svgg"><path id="path0" d="M193.625 14.384 C 193.323 14.571,192.639 14.645,192.106 14.549 C 191.558 14.449,191.238 14.537,191.370 14.751 C 191.498 14.959,190.883 15.251,190.002 15.400 C 189.121 15.549,188.400 15.814,188.400 15.991 C 188.400 16.167,187.787 16.426,187.039 16.566 C 186.290 16.707,185.576 17.087,185.451 17.411 C 185.327 17.735,185.032 18.000,184.796 18.000 C 184.400 18.000,182.433 19.262,181.367 20.200 C 179.234 22.076,178.025 23.302,177.000 24.625 C 176.340 25.477,175.485 26.495,175.100 26.887 C 174.715 27.279,174.428 27.645,174.462 27.700 C 174.645 27.994,173.409 30.729,173.162 30.577 C 173.002 30.477,172.922 30.712,172.985 31.098 C 173.049 31.484,172.808 32.134,172.450 32.542 C 172.093 32.950,171.785 33.580,171.767 33.942 C 171.718 34.945,171.196 36.917,170.776 37.695 C 170.291 38.591,170.299 38.910,170.799 38.601 C 171.063 38.437,171.063 38.708,170.798 39.405 C 170.578 39.983,170.509 40.893,170.643 41.428 L 170.887 42.400 158.943 42.474 C 152.375 42.514,146.145 42.543,145.100 42.538 C 143.734 42.530,143.200 42.685,143.200 43.087 C 143.200 43.395,143.030 43.542,142.823 43.414 C 142.346 43.119,139.885 45.491,140.178 45.964 C 140.297 46.158,140.126 46.419,139.798 46.546 C 139.313 46.731,139.200 47.687,139.200 51.587 L 139.200 56.400 103.335 56.400 L 67.470 56.400 65.578 57.614 C 64.537 58.282,63.579 59.227,63.448 59.714 C 63.318 60.201,63.208 132.548,63.205 220.484 L 63.200 380.368 64.784 381.984 C 66.358 383.589,67.106 384.058,66.565 383.100 C 66.339 382.700,66.390 382.700,66.821 383.100 C 67.523 383.751,332.202 383.844,332.604 383.193 C 332.742 382.970,332.987 382.869,333.149 382.968 C 333.311 383.068,334.153 382.499,335.021 381.704 L 336.600 380.258 336.704 220.829 C 336.808 61.059,336.795 59.200,335.528 59.200 C 335.322 59.200,335.264 59.020,335.400 58.799 C 335.537 58.579,335.187 58.223,334.624 58.009 C 334.061 57.795,333.600 57.465,333.600 57.277 C 333.600 56.687,333.422 56.683,296.400 56.439 L 260.200 56.200 260.175 51.800 C 260.142 46.242,259.120 43.900,256.313 42.955 C 254.977 42.505,255.623 42.527,241.700 42.461 L 228.800 42.400 228.800 39.667 C 228.800 38.163,228.675 36.808,228.522 36.655 C 228.369 36.502,228.210 36.157,228.168 35.888 C 228.127 35.620,227.873 34.590,227.604 33.600 C 227.335 32.610,227.102 31.710,227.086 31.600 C 227.070 31.490,226.819 31.162,226.529 30.871 C 226.238 30.581,226.000 30.086,226.000 29.771 C 226.000 29.457,225.801 29.200,225.557 29.200 C 225.314 29.200,225.219 28.928,225.346 28.596 C 225.480 28.248,225.261 27.795,224.829 27.525 C 224.417 27.268,224.152 26.864,224.241 26.629 C 224.329 26.393,223.852 25.888,223.181 25.508 C 222.415 25.073,222.006 24.552,222.081 24.108 C 222.151 23.690,221.983 23.445,221.670 23.510 C 221.379 23.570,221.235 23.467,221.350 23.281 C 221.586 22.899,220.524 21.887,219.457 21.477 C 219.068 21.328,218.861 21.024,218.998 20.803 C 219.135 20.581,218.961 20.400,218.611 20.400 C 218.261 20.400,217.871 20.130,217.745 19.800 C 217.618 19.470,217.175 19.200,216.761 19.200 C 216.346 19.200,215.782 18.840,215.507 18.400 C 215.232 17.960,214.680 17.600,214.280 17.600 C 213.880 17.600,213.658 17.429,213.787 17.221 C 213.916 17.012,213.657 16.912,213.211 16.998 C 212.765 17.084,212.400 16.974,212.400 16.753 C 212.400 16.533,212.220 16.464,212.000 16.600 C 211.780 16.736,211.600 16.578,211.600 16.248 C 211.600 15.845,211.012 15.561,209.800 15.379 C 208.810 15.231,208.000 14.986,208.000 14.835 C 208.000 14.271,194.493 13.848,193.625 14.384 M201.439 27.294 C 201.638 27.413,202.333 27.508,202.983 27.505 C 203.634 27.502,204.235 27.704,204.317 27.952 C 204.400 28.201,204.626 28.308,204.818 28.189 C 205.145 27.987,206.754 28.700,207.200 29.244 C 207.310 29.378,207.985 29.788,208.700 30.154 C 209.415 30.521,210.000 31.007,210.000 31.234 C 210.000 31.461,210.181 31.535,210.403 31.398 C 210.624 31.261,210.930 31.476,211.083 31.875 C 211.235 32.274,211.684 32.949,212.080 33.375 C 212.476 33.802,212.800 34.387,212.800 34.675 C 212.800 34.964,212.980 35.200,213.200 35.200 C 213.420 35.200,213.600 35.448,213.600 35.751 C 213.600 36.054,213.882 36.536,214.226 36.821 C 214.613 37.143,214.766 37.682,214.626 38.237 C 214.501 38.739,214.600 39.200,214.853 39.284 C 215.163 39.388,215.298 41.285,215.283 45.317 C 215.271 48.553,215.421 51.200,215.618 51.200 C 215.814 51.200,215.871 51.470,215.745 51.800 C 215.603 52.169,215.745 52.400,216.113 52.400 C 216.442 52.400,216.686 52.659,216.656 52.977 C 216.625 53.294,216.750 53.519,216.932 53.477 C 217.115 53.434,217.475 53.760,217.732 54.200 C 218.432 55.397,218.368 55.392,233.100 55.510 L 246.800 55.620 246.800 64.810 L 246.800 74.000 199.700 74.000 L 152.600 74.000 152.600 64.800 L 152.600 55.600 165.600 55.572 C 180.751 55.540,180.737 55.541,181.859 54.244 C 182.331 53.698,182.820 53.354,182.946 53.479 C 183.071 53.604,183.292 52.966,183.437 52.061 C 183.581 51.155,183.842 50.502,184.015 50.609 C 184.337 50.808,184.302 49.769,183.976 49.442 C 183.437 48.903,184.535 38.601,185.220 37.776 C 185.425 37.529,185.491 37.225,185.367 37.100 C 185.077 36.810,186.258 34.519,187.243 33.462 C 187.659 33.015,188.000 32.532,188.000 32.389 C 188.000 32.246,188.460 31.919,189.023 31.663 C 189.585 31.406,189.940 31.026,189.811 30.818 C 189.550 30.395,191.148 29.382,191.854 29.523 C 192.104 29.573,192.413 29.344,192.539 29.014 C 192.671 28.671,193.033 28.515,193.385 28.650 C 193.730 28.782,194.000 28.673,194.000 28.400 C 194.000 28.125,194.270 28.018,194.621 28.153 C 194.977 28.289,195.137 28.222,194.997 27.995 C 194.852 27.760,195.400 27.600,196.353 27.600 C 197.233 27.600,198.036 27.465,198.138 27.300 C 198.345 26.964,200.880 26.959,201.439 27.294 M323.200 219.800 L 323.200 370.400 199.808 370.400 L 76.415 370.400 76.198 369.500 C 76.079 369.005,76.031 301.460,76.091 219.400 L 76.200 70.200 87.400 70.200 L 98.600 70.200 98.600 204.500 C 98.600 278.365,98.735 338.800,98.900 338.800 C 99.065 338.800,99.200 339.124,99.200 339.520 C 99.200 339.916,99.416 340.456,99.680 340.720 C 99.944 340.984,100.021 341.200,99.851 341.200 C 99.682 341.200,99.813 341.470,100.143 341.800 C 100.473 342.130,100.916 342.400,101.129 342.400 C 101.341 342.400,101.618 342.670,101.745 343.000 C 101.871 343.330,102.351 343.600,102.811 343.600 C 103.271 343.600,103.537 343.779,103.402 343.997 C 102.965 344.703,296.018 344.521,296.561 343.815 C 296.803 343.501,297.266 343.189,297.590 343.122 C 298.287 342.978,299.196 342.195,299.209 341.729 C 299.214 341.548,299.570 340.950,300.000 340.400 C 300.773 339.412,300.782 337.764,300.791 204.600 L 300.799 69.800 311.800 69.912 C 319.159 69.988,322.800 69.888,322.800 69.612 C 322.800 69.386,322.890 69.200,323.000 69.200 C 323.110 69.200,323.200 136.970,323.200 219.800 M139.235 76.400 C 139.333 83.631,139.430 84.400,140.247 84.400 C 140.551 84.400,140.779 84.535,140.753 84.700 C 140.640 85.416,140.821 86.112,141.059 85.874 C 141.202 85.731,141.607 85.926,141.959 86.307 C 142.964 87.394,141.344 87.361,199.597 87.488 L 254.994 87.608 256.697 86.705 C 257.634 86.208,258.400 85.655,258.400 85.477 C 258.400 85.299,258.580 85.264,258.800 85.400 C 259.020 85.536,259.200 85.379,259.200 85.052 C 259.200 84.725,259.436 84.219,259.724 83.929 C 260.116 83.534,260.242 81.733,260.224 76.800 L 260.200 70.200 273.700 70.000 L 287.201 69.800 287.200 200.200 L 287.200 330.600 200.000 330.502 C 152.040 330.448,112.800 330.313,112.800 330.202 C 112.800 330.091,112.800 271.502,112.800 200.005 L 112.800 70.011 125.900 69.905 C 133.105 69.847,139.033 69.803,139.073 69.806 C 139.113 69.810,139.186 72.777,139.235 76.400 M171.965 98.900 C 171.683 99.202,170.802 99.344,169.743 99.259 C 168.779 99.182,167.677 99.256,167.295 99.425 C 166.913 99.593,166.510 99.749,166.400 99.772 C 166.290 99.794,165.947 99.972,165.638 100.168 C 165.219 100.434,165.162 100.381,165.415 99.962 C 165.698 99.493,165.647 99.486,165.111 99.920 C 164.758 100.206,163.959 100.532,163.335 100.644 C 162.711 100.756,162.140 101.016,162.067 101.224 C 161.993 101.431,161.599 101.600,161.190 101.600 C 160.782 101.600,160.334 101.783,160.196 102.007 C 160.058 102.230,159.796 102.321,159.614 102.209 C 159.433 102.096,159.181 102.274,159.054 102.602 C 158.928 102.931,158.549 103.200,158.213 103.200 C 157.876 103.200,157.600 103.395,157.600 103.633 C 157.600 103.872,157.382 103.994,157.116 103.905 C 156.850 103.817,156.146 104.207,155.551 104.772 C 154.103 106.150,153.200 106.871,153.200 106.650 C 153.200 106.550,152.608 107.038,151.885 107.734 C 151.161 108.430,150.632 109.135,150.708 109.300 C 150.785 109.465,150.657 109.600,150.424 109.600 C 150.191 109.600,150.000 109.889,150.000 110.243 C 150.000 110.640,149.778 110.801,149.420 110.663 C 149.062 110.526,148.739 110.762,148.574 111.283 C 148.427 111.746,147.880 112.520,147.360 113.002 C 146.839 113.485,146.530 113.997,146.673 114.140 C 146.816 114.283,146.738 114.400,146.498 114.400 C 146.259 114.400,145.942 114.953,145.794 115.629 C 145.645 116.304,145.431 116.765,145.318 116.651 C 145.003 116.337,143.158 120.008,143.419 120.430 C 143.544 120.634,143.493 120.800,143.304 120.800 C 142.864 120.800,142.142 122.893,141.787 125.200 C 141.634 126.190,141.358 127.188,141.173 127.418 C 140.727 127.975,140.702 128.388,140.693 135.600 C 140.683 143.688,140.731 144.398,141.312 144.625 C 141.607 144.740,141.838 145.790,141.896 147.281 C 141.948 148.638,142.148 149.849,142.339 149.974 C 142.530 150.098,142.638 150.515,142.579 150.900 C 142.519 151.285,142.635 151.600,142.835 151.600 C 143.036 151.600,143.200 152.039,143.200 152.576 C 143.200 153.113,143.383 153.666,143.607 153.804 C 143.830 153.942,143.924 154.199,143.816 154.374 C 143.708 154.550,143.955 154.997,144.366 155.369 C 144.838 155.796,145.032 156.355,144.894 156.885 C 144.744 157.457,144.822 157.634,145.137 157.439 C 145.429 157.259,145.600 157.449,145.600 157.953 C 145.600 158.393,145.783 158.866,146.007 159.004 C 146.230 159.142,146.322 159.402,146.211 159.582 C 146.100 159.762,146.277 160.132,146.604 160.404 C 146.932 160.676,147.200 161.146,147.200 161.449 C 147.200 161.752,147.354 162.000,147.542 162.000 C 147.730 162.000,148.060 162.585,148.275 163.300 C 148.490 164.015,148.858 164.561,149.093 164.513 C 149.328 164.466,149.631 164.871,149.768 165.413 C 149.904 165.956,150.202 166.400,150.431 166.400 C 150.660 166.400,150.741 166.572,150.612 166.781 C 150.397 167.128,150.957 168.001,152.300 169.416 C 152.575 169.706,152.800 170.099,152.800 170.290 C 152.800 170.481,153.332 171.079,153.983 171.619 C 154.634 172.158,155.174 172.828,155.183 173.107 C 155.200 173.603,166.210 184.800,166.680 184.800 C 166.812 184.800,167.514 185.385,168.241 186.100 C 170.047 187.875,170.800 188.482,170.800 188.161 C 170.800 188.013,171.275 188.365,171.855 188.945 C 172.435 189.525,173.155 190.000,173.455 190.000 C 173.755 190.000,174.000 190.156,174.000 190.346 C 174.000 190.536,174.765 191.211,175.700 191.846 C 176.635 192.481,177.457 193.125,177.526 193.278 C 177.595 193.430,177.940 193.445,178.291 193.310 C 178.716 193.146,178.834 193.221,178.642 193.532 C 178.483 193.789,178.543 194.023,178.776 194.050 C 180.252 194.224,182.000 195.161,182.000 195.778 C 182.000 196.144,182.232 196.286,182.600 196.145 C 182.930 196.018,183.200 196.093,183.200 196.311 C 183.200 196.687,184.661 197.335,185.300 197.243 C 185.465 197.219,185.600 197.368,185.600 197.574 C 185.600 197.780,186.230 198.176,187.000 198.454 C 187.770 198.733,188.400 199.105,188.400 199.280 C 188.400 199.456,188.670 199.600,189.000 199.600 C 189.330 199.600,189.600 199.799,189.600 200.043 C 189.600 200.286,189.879 200.378,190.221 200.247 C 190.577 200.111,190.737 200.178,190.597 200.405 C 190.463 200.622,190.723 200.800,191.176 200.800 C 191.629 200.800,192.000 200.999,192.000 201.243 C 192.000 201.486,192.279 201.578,192.621 201.447 C 192.962 201.316,193.144 201.367,193.025 201.560 C 192.905 201.753,193.976 201.911,195.404 201.911 C 196.832 201.911,198.000 201.740,198.000 201.532 C 198.000 201.323,198.155 201.248,198.344 201.365 C 198.765 201.626,200.793 200.725,200.797 200.276 C 200.799 200.098,200.960 200.051,201.155 200.172 C 201.350 200.293,201.730 200.125,202.000 199.800 C 202.270 199.475,202.650 199.307,202.845 199.428 C 203.040 199.549,203.200 199.399,203.200 199.096 C 203.200 198.774,204.026 198.320,205.183 198.005 C 206.274 197.708,207.263 197.214,207.380 196.907 C 207.498 196.600,207.777 196.462,208.000 196.600 C 208.223 196.738,208.514 196.569,208.646 196.225 C 208.778 195.881,209.110 195.600,209.385 195.600 C 209.660 195.600,210.710 194.970,211.718 194.200 C 212.727 193.430,213.734 192.800,213.956 192.800 C 214.178 192.800,214.518 192.519,214.710 192.175 C 214.902 191.831,215.336 191.509,215.674 191.460 C 216.011 191.410,216.596 191.061,216.972 190.685 C 217.349 190.308,217.815 190.000,218.008 190.000 C 218.201 190.000,219.217 189.190,220.265 188.200 C 221.313 187.210,222.408 186.400,222.698 186.400 C 222.988 186.400,223.328 186.131,223.454 185.802 C 223.581 185.474,223.876 185.323,224.110 185.468 C 224.380 185.635,224.439 185.479,224.273 185.045 C 224.116 184.637,224.170 184.458,224.405 184.603 C 224.622 184.737,224.800 184.646,224.800 184.400 C 224.800 184.154,224.961 184.052,225.158 184.174 C 225.355 184.296,225.619 184.126,225.746 183.798 C 225.872 183.469,226.238 183.200,226.560 183.200 C 226.883 183.200,227.261 182.837,227.402 182.394 C 227.543 181.951,227.826 181.693,228.032 181.820 C 228.238 181.947,228.574 181.635,228.778 181.126 C 228.982 180.617,229.161 180.352,229.175 180.538 C 229.189 180.724,229.853 180.094,230.652 179.138 C 231.450 178.182,232.215 177.405,232.352 177.410 C 232.811 177.430,234.000 176.227,234.000 175.744 C 234.000 175.481,234.706 174.531,235.569 173.633 C 236.431 172.735,237.055 172.000,236.955 172.000 C 236.855 172.000,237.298 171.486,237.941 170.858 C 238.584 170.230,239.233 169.327,239.384 168.852 C 239.536 168.371,239.850 168.107,240.091 168.256 C 240.355 168.420,240.408 168.336,240.225 168.041 C 240.050 167.757,240.288 167.244,240.800 166.800 C 241.312 166.356,241.550 165.843,241.375 165.559 C 241.188 165.257,241.245 165.180,241.526 165.355 C 241.799 165.523,242.077 165.231,242.232 164.616 C 242.372 164.057,242.666 163.600,242.886 163.600 C 243.106 163.600,243.193 163.358,243.079 163.062 C 242.966 162.766,243.207 162.283,243.615 161.989 C 244.023 161.695,244.266 161.307,244.155 161.127 C 244.044 160.947,244.099 160.800,244.279 160.800 C 244.602 160.800,245.699 158.644,245.847 157.717 C 245.889 157.452,246.197 156.689,246.529 156.021 C 246.862 155.354,247.261 154.231,247.416 153.527 C 247.571 152.822,247.947 151.996,248.251 151.692 C 248.555 151.387,248.724 150.693,248.625 150.148 C 248.517 149.551,248.657 149.076,248.979 148.953 C 249.272 148.840,249.520 148.355,249.530 147.874 C 249.540 147.393,249.729 146.100,249.950 145.000 C 250.171 143.900,250.363 141.864,250.376 140.476 C 250.389 139.088,250.538 138.038,250.706 138.142 C 251.092 138.381,251.072 133.339,250.685 132.952 C 250.528 132.795,250.400 131.707,250.400 130.533 C 250.400 129.360,250.245 128.400,250.055 128.400 C 249.866 128.400,249.796 127.953,249.901 127.407 C 250.005 126.860,249.951 126.095,249.780 125.707 C 249.326 124.675,249.338 124.712,249.006 123.300 C 248.838 122.585,248.553 122.000,248.373 122.000 C 248.193 122.000,248.115 121.640,248.200 121.200 C 248.285 120.760,248.199 120.400,248.009 120.400 C 247.819 120.400,247.545 119.860,247.400 119.200 C 247.255 118.540,246.974 118.000,246.776 118.000 C 246.578 118.000,246.295 117.520,246.148 116.934 C 246.001 116.348,245.502 115.434,245.040 114.902 C 244.578 114.371,244.290 113.879,244.400 113.810 C 244.510 113.741,244.261 113.309,243.847 112.851 C 243.432 112.394,242.942 112.112,242.758 112.226 C 242.574 112.340,242.298 111.930,242.144 111.316 C 241.698 109.533,237.105 105.281,235.900 105.536 C 235.735 105.571,235.600 105.330,235.600 105.000 C 235.600 104.670,235.349 104.400,235.043 104.400 C 234.736 104.400,234.382 104.130,234.255 103.800 C 234.129 103.470,233.749 103.200,233.413 103.200 C 233.076 103.200,232.800 103.026,232.800 102.813 C 232.800 102.599,232.539 102.525,232.220 102.648 C 231.900 102.770,231.045 102.420,230.320 101.869 C 229.594 101.318,228.325 100.742,227.500 100.589 C 226.675 100.436,226.000 100.131,226.000 99.912 C 226.000 99.691,225.374 99.586,224.600 99.676 C 223.830 99.766,223.200 99.713,223.200 99.558 C 223.200 99.404,222.345 99.179,221.300 99.060 C 220.255 98.940,218.680 98.748,217.800 98.633 C 216.573 98.473,216.433 98.505,217.200 98.772 L 218.200 99.120 217.200 99.175 C 215.316 99.278,210.600 99.607,210.100 99.670 C 209.825 99.705,209.600 99.883,209.600 100.067 C 209.600 100.250,209.139 100.400,208.576 100.400 C 208.013 100.400,207.654 100.563,207.777 100.763 C 207.900 100.962,207.613 101.024,207.138 100.900 C 206.547 100.745,206.365 100.820,206.561 101.137 C 206.749 101.442,206.497 101.600,205.824 101.600 C 205.261 101.600,204.800 101.780,204.800 102.000 C 204.800 102.220,204.440 102.400,204.000 102.400 C 203.560 102.400,203.200 102.580,203.200 102.800 C 203.200 103.020,202.930 103.200,202.600 103.200 C 202.270 103.200,202.000 103.356,202.000 103.547 C 202.000 103.859,200.667 104.885,197.647 106.898 C 197.071 107.282,196.742 107.597,196.916 107.598 C 197.089 107.599,197.004 107.843,196.726 108.141 C 195.911 109.014,194.931 108.701,193.465 107.100 C 192.710 106.275,191.881 105.600,191.622 105.600 C 191.364 105.600,191.240 105.458,191.348 105.285 C 191.455 105.112,191.060 104.754,190.471 104.491 C 189.882 104.227,188.877 103.559,188.238 103.006 C 187.599 102.453,186.789 101.999,186.438 101.999 C 186.087 101.998,185.215 101.640,184.500 101.204 C 183.785 100.768,183.200 100.505,183.200 100.620 C 183.200 100.734,182.795 100.603,182.300 100.328 C 181.805 100.053,181.130 99.806,180.800 99.780 C 180.470 99.753,179.930 99.615,179.600 99.474 C 179.270 99.333,178.147 99.259,177.104 99.309 C 175.884 99.368,175.140 99.222,175.017 98.900 C 174.911 98.625,174.287 98.400,173.628 98.400 C 172.970 98.400,172.221 98.625,171.965 98.900 M221.131 113.194 C 221.207 113.420,221.449 113.494,221.669 113.357 C 222.066 113.112,225.208 114.314,225.608 114.864 C 225.723 115.021,226.263 115.349,226.808 115.592 C 228.613 116.397,229.599 117.068,229.346 117.321 C 229.209 117.458,229.570 117.786,230.148 118.049 C 230.727 118.313,231.200 118.770,231.200 119.064 C 231.200 119.359,231.384 119.600,231.609 119.600 C 231.833 119.600,232.220 120.044,232.467 120.587 C 232.715 121.131,233.056 121.489,233.226 121.384 C 233.396 121.279,233.752 121.869,234.017 122.696 C 234.282 123.523,234.845 124.580,235.268 125.045 C 235.690 125.510,236.000 126.050,235.955 126.245 C 235.876 126.589,236.171 127.563,236.729 128.800 C 236.878 129.130,237.000 130.030,237.000 130.800 C 237.000 131.570,237.176 132.326,237.391 132.480 C 237.860 132.816,237.679 139.218,237.183 139.818 C 236.993 140.049,236.856 140.589,236.878 141.018 C 236.975 142.895,235.633 147.996,234.767 149.039 C 234.558 149.292,234.510 149.821,234.661 150.215 C 234.840 150.682,234.784 150.838,234.501 150.662 C 234.237 150.500,233.956 150.889,233.790 151.646 C 233.494 152.994,232.399 155.052,230.921 157.038 C 230.414 157.719,230.000 158.456,230.000 158.676 C 230.000 158.896,229.640 159.402,229.200 159.800 C 228.760 160.198,228.400 160.676,228.400 160.862 C 228.400 161.275,227.835 161.969,225.223 164.768 C 224.110 165.960,223.200 167.181,223.200 167.481 C 223.200 167.780,222.931 168.128,222.602 168.254 C 222.274 168.381,222.104 168.645,222.226 168.842 C 222.348 169.039,222.248 169.200,222.005 169.200 C 221.761 169.200,221.091 169.695,220.515 170.300 C 219.940 170.905,219.602 171.130,219.764 170.800 C 219.941 170.440,219.830 170.480,219.486 170.900 C 219.170 171.285,218.804 171.600,218.672 171.600 C 218.540 171.600,217.590 172.500,216.561 173.600 C 215.532 174.700,214.445 175.600,214.145 175.600 C 213.845 175.600,213.600 175.768,213.600 175.973 C 213.600 176.178,213.285 176.450,212.900 176.577 C 211.834 176.928,209.382 179.238,209.533 179.749 C 209.607 179.997,209.539 180.072,209.383 179.916 C 209.046 179.580,207.007 180.576,205.877 181.629 C 205.438 182.038,204.945 182.290,204.781 182.188 C 204.618 182.087,204.381 182.274,204.254 182.602 C 204.128 182.931,203.666 183.200,203.227 183.200 C 202.787 183.200,202.236 183.558,202.002 183.996 C 201.768 184.434,201.446 184.773,201.288 184.749 C 200.384 184.612,199.586 184.854,199.800 185.200 C 199.936 185.420,199.789 185.600,199.473 185.600 C 199.157 185.600,198.667 185.878,198.385 186.218 C 198.103 186.558,197.621 186.740,197.315 186.623 C 197.009 186.505,196.868 186.587,197.003 186.805 C 197.137 187.022,196.967 187.200,196.624 187.200 C 196.281 187.200,195.986 187.425,195.968 187.700 C 195.943 188.097,195.895 188.097,195.734 187.698 C 195.623 187.421,195.366 187.298,195.163 187.423 C 194.960 187.548,194.687 187.370,194.555 187.028 C 194.424 186.685,194.155 186.504,193.958 186.626 C 193.761 186.748,193.600 186.657,193.600 186.424 C 193.600 186.191,193.465 186.019,193.300 186.043 C 192.753 186.122,191.200 185.512,191.200 185.218 C 191.200 184.929,189.026 183.803,188.971 184.063 C 188.956 184.138,188.628 183.885,188.243 183.500 C 187.858 183.115,187.305 182.800,187.014 182.800 C 186.723 182.800,186.391 182.553,186.275 182.251 C 186.159 181.950,185.606 181.588,185.046 181.447 C 184.486 181.307,183.580 180.744,183.032 180.196 C 182.485 179.648,181.758 179.200,181.418 179.200 C 181.078 179.200,180.800 178.919,180.800 178.576 C 180.800 178.233,180.643 178.050,180.450 178.169 C 180.258 178.288,179.619 177.938,179.030 177.393 C 178.441 176.847,177.777 176.400,177.556 176.400 C 177.334 176.400,177.225 176.265,177.313 176.100 C 177.401 175.935,177.142 175.485,176.737 175.100 C 176.331 174.715,176.000 174.488,176.000 174.596 C 176.000 174.935,174.320 173.505,171.072 170.400 C 166.724 166.244,166.000 165.471,166.000 164.984 C 166.000 164.751,165.050 163.579,163.889 162.380 C 162.727 161.181,161.774 160.110,161.769 160.000 C 161.740 159.253,160.106 156.419,159.700 156.410 C 159.425 156.405,159.221 156.265,159.247 156.100 C 159.384 155.238,159.156 154.380,158.843 154.574 C 158.646 154.695,158.366 154.301,158.220 153.697 C 158.074 153.094,157.504 151.726,156.952 150.659 C 156.400 149.591,156.049 148.618,156.171 148.496 C 156.293 148.373,156.200 148.041,155.965 147.758 C 155.729 147.474,155.444 146.647,155.331 145.921 C 155.218 145.194,154.971 144.412,154.782 144.183 C 154.281 143.573,153.830 138.687,153.934 135.000 C 154.081 129.820,154.174 129.028,154.700 128.471 C 154.975 128.181,155.200 127.677,155.200 127.352 C 155.200 127.026,155.507 126.184,155.883 125.480 C 156.259 124.776,156.574 124.058,156.583 123.885 C 156.592 123.712,156.870 123.400,157.200 123.192 C 157.683 122.886,157.691 122.811,157.242 122.806 C 156.897 122.802,157.088 122.425,157.742 121.819 C 158.324 121.280,158.800 120.641,158.800 120.400 C 158.800 119.886,160.750 118.000,161.282 118.000 C 161.483 118.000,161.547 117.838,161.424 117.639 C 161.301 117.440,161.741 117.090,162.400 116.860 C 163.060 116.630,163.600 116.252,163.600 116.021 C 163.600 115.789,163.870 115.600,164.200 115.600 C 164.530 115.600,164.800 115.416,164.800 115.190 C 164.800 114.755,166.530 113.976,167.700 113.884 C 168.085 113.854,168.400 113.698,168.400 113.538 C 168.400 113.377,168.756 113.315,169.192 113.398 C 169.627 113.482,170.088 113.382,170.215 113.175 C 170.343 112.969,171.887 112.800,173.647 112.800 C 175.736 112.800,176.759 112.943,176.593 113.211 C 176.430 113.475,176.789 113.543,177.600 113.400 C 178.411 113.257,178.770 113.325,178.607 113.589 C 178.375 113.964,179.002 114.156,180.300 114.107 C 180.575 114.097,180.800 114.339,180.800 114.644 C 180.800 114.950,181.146 115.200,181.569 115.200 C 181.991 115.200,183.516 116.345,184.958 117.744 C 186.399 119.144,187.702 120.179,187.853 120.044 C 188.004 119.910,187.994 120.033,187.830 120.318 C 187.500 120.890,188.305 122.106,188.808 121.795 C 188.983 121.687,189.031 121.959,188.916 122.399 C 188.796 122.857,188.904 123.200,189.166 123.200 C 189.418 123.200,189.741 123.501,189.882 123.869 C 190.787 126.228,196.430 128.210,197.940 126.700 C 198.215 126.425,198.570 126.200,198.729 126.200 C 198.889 126.200,199.453 125.795,199.985 125.300 C 200.516 124.805,201.083 124.400,201.244 124.400 C 201.406 124.400,201.738 123.795,201.982 123.055 C 202.226 122.314,202.915 121.266,203.513 120.726 C 204.111 120.185,205.095 119.136,205.700 118.394 C 206.305 117.652,206.800 117.195,206.800 117.377 C 206.800 117.559,207.173 117.234,207.629 116.654 C 208.085 116.074,208.716 115.600,209.032 115.600 C 209.347 115.600,209.991 115.156,210.463 114.614 C 210.935 114.071,211.481 113.727,211.678 113.848 C 211.874 113.970,212.252 113.907,212.518 113.710 C 212.783 113.512,213.270 113.366,213.600 113.385 C 213.930 113.404,214.396 113.232,214.635 113.003 C 215.189 112.473,220.948 112.643,221.131 113.194 M193.600 130.885 C 193.600 131.058,193.330 131.200,193.000 131.200 C 192.670 131.200,192.040 131.560,191.600 132.000 C 191.160 132.440,190.665 132.755,190.500 132.700 C 190.335 132.645,190.137 133.045,190.061 133.589 C 189.984 134.132,189.669 134.938,189.361 135.378 C 188.964 135.944,188.800 137.439,188.800 140.489 L 188.800 144.800 184.700 144.861 C 182.445 144.894,180.420 144.956,180.200 144.999 C 179.110 145.208,177.600 146.029,177.600 146.414 C 177.600 146.652,177.446 146.752,177.258 146.636 C 176.964 146.454,175.911 148.096,175.829 148.867 C 175.813 149.013,175.665 149.268,175.500 149.433 C 175.021 149.912,175.141 154.400,175.633 154.400 C 175.872 154.400,175.991 154.625,175.898 154.900 C 175.704 155.476,177.759 157.464,179.126 158.022 C 179.635 158.230,182.020 158.400,184.426 158.400 L 188.800 158.400 188.800 163.424 C 188.800 166.570,188.945 168.358,189.188 168.207 C 189.402 168.075,189.700 168.459,189.851 169.061 C 190.002 169.662,190.544 170.543,191.056 171.017 C 191.568 171.492,191.876 171.991,191.739 172.127 C 191.603 172.263,191.876 172.301,192.346 172.210 C 192.816 172.120,193.200 172.237,193.200 172.470 C 193.200 173.070,198.503 172.692,198.708 172.076 C 198.795 171.814,199.201 171.600,199.610 171.600 C 200.445 171.600,201.142 170.807,200.324 170.788 C 200.036 170.781,200.160 170.575,200.600 170.329 C 201.040 170.083,201.451 169.843,201.513 169.795 C 201.574 169.747,201.720 169.279,201.836 168.754 C 201.952 168.229,202.112 167.530,202.193 167.200 C 202.273 166.870,202.353 164.755,202.369 162.500 L 202.400 158.400 207.171 158.400 C 211.182 158.400,212.054 158.288,212.643 157.700 C 213.028 157.315,213.356 157.082,213.371 157.182 C 213.387 157.282,213.796 157.025,214.280 156.610 C 214.763 156.196,215.068 155.709,214.956 155.529 C 214.844 155.348,214.904 155.200,215.089 155.200 C 215.527 155.200,216.420 152.062,216.313 150.900 C 216.267 150.405,216.088 150.000,215.915 150.000 C 215.742 150.000,215.600 149.634,215.600 149.187 C 215.600 148.741,215.330 148.271,215.000 148.145 C 214.670 148.018,214.400 147.738,214.400 147.521 C 214.400 147.006,212.741 145.630,212.100 145.613 C 211.825 145.606,211.600 145.440,211.600 145.244 C 211.600 145.047,209.485 144.912,206.900 144.944 L 202.200 145.000 202.326 140.893 C 202.419 137.843,202.298 136.478,201.853 135.586 C 201.524 134.926,201.447 134.505,201.681 134.650 C 202.669 135.261,200.291 132.530,199.199 131.800 C 198.541 131.360,198.002 130.865,198.001 130.700 C 198.001 130.535,197.809 130.400,197.576 130.400 C 197.343 130.400,197.281 130.608,197.438 130.862 C 197.626 131.166,197.547 131.214,197.204 131.002 C 196.516 130.577,193.600 130.482,193.600 130.885 M141.800 213.200 C 141.939 213.426,141.614 213.600,141.054 213.600 C 139.977 213.600,137.442 215.821,137.821 216.434 C 137.945 216.635,137.746 216.800,137.377 216.800 C 136.903 216.800,136.768 217.035,136.916 217.601 C 137.031 218.041,136.965 218.302,136.770 218.181 C 136.006 217.709,136.312 304.290,137.079 305.933 C 137.865 307.613,139.907 309.705,140.441 309.375 C 140.638 309.253,140.800 309.340,140.800 309.569 C 140.800 309.856,160.365 309.988,203.623 309.993 C 250.995 309.998,266.377 309.886,266.162 309.538 C 265.986 309.253,266.052 309.185,266.335 309.360 C 266.889 309.702,268.770 308.411,268.787 307.676 C 268.794 307.388,268.961 307.252,269.158 307.374 C 269.588 307.640,270.097 306.481,269.778 305.964 C 269.654 305.764,269.743 305.600,269.976 305.600 C 270.272 305.600,270.400 292.301,270.400 261.600 C 270.400 230.899,270.272 217.600,269.976 217.600 C 269.743 217.600,269.671 217.408,269.816 217.173 C 269.961 216.939,269.747 216.475,269.340 216.144 C 268.912 215.795,268.853 215.649,269.200 215.798 C 269.530 215.939,269.177 215.502,268.415 214.827 C 267.653 214.152,266.719 213.600,266.339 213.600 C 265.958 213.600,265.531 213.411,265.388 213.181 C 265.211 212.894,264.950 212.909,264.564 213.230 C 264.159 213.566,264.000 213.572,264.000 213.249 C 264.000 212.919,247.778 212.800,202.776 212.800 C 162.063 212.800,141.636 212.934,141.800 213.200 M170.300 225.852 C 171.194 226.092,171.200 226.144,171.200 233.847 L 171.200 241.600 160.600 241.600 L 150.000 241.600 150.000 233.867 C 150.000 229.613,150.120 226.013,150.267 225.867 C 150.599 225.535,169.066 225.521,170.300 225.852 M256.467 225.804 C 256.891 225.966,256.976 227.598,256.884 233.804 L 256.767 241.600 220.584 241.600 L 184.400 241.600 184.400 233.867 C 184.400 229.613,184.520 226.013,184.667 225.867 C 184.975 225.559,255.665 225.497,256.467 225.804 M171.200 261.800 L 171.200 269.600 160.617 269.600 L 150.033 269.600 149.917 261.966 C 149.853 257.767,149.875 254.257,149.967 254.166 C 150.058 254.075,154.873 254.000,160.667 254.000 L 171.200 254.000 171.200 261.800 M256.918 261.900 L 257.000 269.600 220.600 269.600 L 184.200 269.601 184.316 261.798 L 184.433 253.996 220.634 254.098 L 256.836 254.200 256.918 261.900 M170.300 282.252 C 171.193 282.491,171.200 282.552,171.200 290.047 L 171.200 297.600 160.617 297.600 L 150.033 297.600 149.917 290.000 C 149.843 285.199,149.947 282.337,150.200 282.231 C 150.834 281.965,169.301 281.984,170.300 282.252 M256.600 282.306 C 256.842 282.484,257.000 285.563,257.000 290.100 L 257.000 297.600 220.700 297.600 L 184.400 297.600 184.400 290.033 C 184.400 284.354,184.525 282.416,184.900 282.265 C 185.702 281.941,256.159 281.982,256.600 282.306 " stroke="none" fill="#3c3c3c" fill-rule="evenodd"></path><path id="path1" d="M183.928 45.639 C 183.858 47.641,183.935 49.362,184.100 49.463 C 184.265 49.564,184.400 47.927,184.400 45.824 C 184.400 40.970,184.097 40.852,183.928 45.639 M260.142 52.600 C 260.141 54.580,260.208 55.440,260.292 54.512 C 260.376 53.584,260.377 51.964,260.295 50.912 C 260.212 49.860,260.143 50.620,260.142 52.600 M246.572 64.800 C 246.572 69.970,246.629 72.085,246.699 69.500 C 246.768 66.915,246.768 62.685,246.699 60.100 C 246.629 57.515,246.572 59.630,246.572 64.800 M76.198 220.000 C 76.198 302.390,76.244 336.095,76.300 294.900 C 76.356 253.705,76.356 186.295,76.300 145.100 C 76.244 103.905,76.198 137.610,76.198 220.000 M98.598 204.000 C 98.598 277.590,98.644 307.695,98.700 270.900 C 98.756 234.105,98.756 173.895,98.700 137.100 C 98.644 100.305,98.598 130.410,98.598 204.000 M260.157 75.600 C 260.157 78.570,260.220 79.785,260.297 78.300 C 260.374 76.815,260.374 74.385,260.297 72.900 C 260.220 71.415,260.157 72.630,260.157 75.600 M215.845 99.128 C 215.733 99.308,216.173 99.377,216.821 99.282 C 217.470 99.187,218.000 99.040,218.000 98.955 C 218.000 98.650,216.043 98.807,215.845 99.128 M155.323 225.899 C 158.141 225.968,162.641 225.968,165.323 225.899 C 168.005 225.830,165.700 225.773,160.200 225.773 C 154.700 225.774,152.505 225.830,155.323 225.899 M202.730 225.900 C 212.702 225.959,228.902 225.959,238.730 225.900 C 248.559 225.840,240.400 225.792,220.600 225.792 C 200.800 225.792,192.759 225.840,202.730 225.900 M149.861 254.300 C 149.759 254.465,152.853 254.554,156.738 254.497 C 170.073 254.303,171.385 254.167,160.724 254.084 C 154.852 254.038,149.963 254.135,149.861 254.300 M197.200 254.294 C 231.234 254.569,257.106 254.572,256.938 254.300 C 256.836 254.135,240.428 254.042,220.476 254.094 C 200.524 254.146,190.050 254.236,197.200 254.294 M155.323 282.299 C 158.141 282.368,162.641 282.368,165.323 282.299 C 168.005 282.230,165.700 282.173,160.200 282.173 C 154.700 282.174,152.505 282.230,155.323 282.299 M202.900 282.300 C 212.745 282.359,228.855 282.359,238.700 282.300 C 248.545 282.240,240.490 282.192,220.800 282.192 C 201.110 282.192,193.055 282.240,202.900 282.300 " stroke="none" fill="#403c3c" fill-rule="evenodd"></path><path id="path2" d="M183.928 45.639 C 183.858 47.641,183.935 49.362,184.100 49.463 C 184.265 49.564,184.400 47.927,184.400 45.824 C 184.400 40.970,184.097 40.852,183.928 45.639 M260.142 52.600 C 260.141 54.580,260.208 55.440,260.292 54.512 C 260.376 53.584,260.377 51.964,260.295 50.912 C 260.212 49.860,260.143 50.620,260.142 52.600 M246.572 64.800 C 246.572 69.970,246.629 72.085,246.699 69.500 C 246.768 66.915,246.768 62.685,246.699 60.100 C 246.629 57.515,246.572 59.630,246.572 64.800 M76.198 220.000 C 76.198 302.390,76.244 336.095,76.300 294.900 C 76.356 253.705,76.356 186.295,76.300 145.100 C 76.244 103.905,76.198 137.610,76.198 220.000 M98.598 204.000 C 98.598 277.590,98.644 307.695,98.700 270.900 C 98.756 234.105,98.756 173.895,98.700 137.100 C 98.644 100.305,98.598 130.410,98.598 204.000 M260.157 75.600 C 260.157 78.570,260.220 79.785,260.297 78.300 C 260.374 76.815,260.374 74.385,260.297 72.900 C 260.220 71.415,260.157 72.630,260.157 75.600 M215.845 99.128 C 215.733 99.308,216.173 99.377,216.821 99.282 C 217.470 99.187,218.000 99.040,218.000 98.955 C 218.000 98.650,216.043 98.807,215.845 99.128 M155.323 225.899 C 158.141 225.968,162.641 225.968,165.323 225.899 C 168.005 225.830,165.700 225.773,160.200 225.773 C 154.700 225.774,152.505 225.830,155.323 225.899 M202.730 225.900 C 212.702 225.959,228.902 225.959,238.730 225.900 C 248.559 225.840,240.400 225.792,220.600 225.792 C 200.800 225.792,192.759 225.840,202.730 225.900 M149.861 254.300 C 149.759 254.465,152.853 254.554,156.738 254.497 C 170.073 254.303,171.385 254.167,160.724 254.084 C 154.852 254.038,149.963 254.135,149.861 254.300 M197.200 254.294 C 231.234 254.569,257.106 254.572,256.938 254.300 C 256.836 254.135,240.428 254.042,220.476 254.094 C 200.524 254.146,190.050 254.236,197.200 254.294 M155.323 282.299 C 158.141 282.368,162.641 282.368,165.323 282.299 C 168.005 282.230,165.700 282.173,160.200 282.173 C 154.700 282.174,152.505 282.230,155.323 282.299 M202.900 282.300 C 212.745 282.359,228.855 282.359,238.700 282.300 C 248.545 282.240,240.490 282.192,220.800 282.192 C 201.110 282.192,193.055 282.240,202.900 282.300 " stroke="none" fill="#403c3c" fill-rule="evenodd"></path><path id="path3" d="M183.928 45.639 C 183.858 47.641,183.935 49.362,184.100 49.463 C 184.265 49.564,184.400 47.927,184.400 45.824 C 184.400 40.970,184.097 40.852,183.928 45.639 M260.142 52.600 C 260.141 54.580,260.208 55.440,260.292 54.512 C 260.376 53.584,260.377 51.964,260.295 50.912 C 260.212 49.860,260.143 50.620,260.142 52.600 M246.572 64.800 C 246.572 69.970,246.629 72.085,246.699 69.500 C 246.768 66.915,246.768 62.685,246.699 60.100 C 246.629 57.515,246.572 59.630,246.572 64.800 M76.198 220.000 C 76.198 302.390,76.244 336.095,76.300 294.900 C 76.356 253.705,76.356 186.295,76.300 145.100 C 76.244 103.905,76.198 137.610,76.198 220.000 M98.598 204.000 C 98.598 277.590,98.644 307.695,98.700 270.900 C 98.756 234.105,98.756 173.895,98.700 137.100 C 98.644 100.305,98.598 130.410,98.598 204.000 M260.157 75.600 C 260.157 78.570,260.220 79.785,260.297 78.300 C 260.374 76.815,260.374 74.385,260.297 72.900 C 260.220 71.415,260.157 72.630,260.157 75.600 M215.845 99.128 C 215.733 99.308,216.173 99.377,216.821 99.282 C 217.470 99.187,218.000 99.040,218.000 98.955 C 218.000 98.650,216.043 98.807,215.845 99.128 M155.323 225.899 C 158.141 225.968,162.641 225.968,165.323 225.899 C 168.005 225.830,165.700 225.773,160.200 225.773 C 154.700 225.774,152.505 225.830,155.323 225.899 M202.730 225.900 C 212.702 225.959,228.902 225.959,238.730 225.900 C 248.559 225.840,240.400 225.792,220.600 225.792 C 200.800 225.792,192.759 225.840,202.730 225.900 M149.861 254.300 C 149.759 254.465,152.853 254.554,156.738 254.497 C 170.073 254.303,171.385 254.167,160.724 254.084 C 154.852 254.038,149.963 254.135,149.861 254.300 M197.200 254.294 C 231.234 254.569,257.106 254.572,256.938 254.300 C 256.836 254.135,240.428 254.042,220.476 254.094 C 200.524 254.146,190.050 254.236,197.200 254.294 M155.323 282.299 C 158.141 282.368,162.641 282.368,165.323 282.299 C 168.005 282.230,165.700 282.173,160.200 282.173 C 154.700 282.174,152.505 282.230,155.323 282.299 M202.900 282.300 C 212.745 282.359,228.855 282.359,238.700 282.300 C 248.545 282.240,240.490 282.192,220.800 282.192 C 201.110 282.192,193.055 282.240,202.900 282.300 " stroke="none" fill="#403c3c" fill-rule="evenodd"></path><path id="path4" d="M183.928 45.639 C 183.858 47.641,183.935 49.362,184.100 49.463 C 184.265 49.564,184.400 47.927,184.400 45.824 C 184.400 40.970,184.097 40.852,183.928 45.639 M260.142 52.600 C 260.141 54.580,260.208 55.440,260.292 54.512 C 260.376 53.584,260.377 51.964,260.295 50.912 C 260.212 49.860,260.143 50.620,260.142 52.600 M246.572 64.800 C 246.572 69.970,246.629 72.085,246.699 69.500 C 246.768 66.915,246.768 62.685,246.699 60.100 C 246.629 57.515,246.572 59.630,246.572 64.800 M76.198 220.000 C 76.198 302.390,76.244 336.095,76.300 294.900 C 76.356 253.705,76.356 186.295,76.300 145.100 C 76.244 103.905,76.198 137.610,76.198 220.000 M98.598 204.000 C 98.598 277.590,98.644 307.695,98.700 270.900 C 98.756 234.105,98.756 173.895,98.700 137.100 C 98.644 100.305,98.598 130.410,98.598 204.000 M260.157 75.600 C 260.157 78.570,260.220 79.785,260.297 78.300 C 260.374 76.815,260.374 74.385,260.297 72.900 C 260.220 71.415,260.157 72.630,260.157 75.600 M215.845 99.128 C 215.733 99.308,216.173 99.377,216.821 99.282 C 217.470 99.187,218.000 99.040,218.000 98.955 C 218.000 98.650,216.043 98.807,215.845 99.128 M155.323 225.899 C 158.141 225.968,162.641 225.968,165.323 225.899 C 168.005 225.830,165.700 225.773,160.200 225.773 C 154.700 225.774,152.505 225.830,155.323 225.899 M202.730 225.900 C 212.702 225.959,228.902 225.959,238.730 225.900 C 248.559 225.840,240.400 225.792,220.600 225.792 C 200.800 225.792,192.759 225.840,202.730 225.900 M149.861 254.300 C 149.759 254.465,152.853 254.554,156.738 254.497 C 170.073 254.303,171.385 254.167,160.724 254.084 C 154.852 254.038,149.963 254.135,149.861 254.300 M197.200 254.294 C 231.234 254.569,257.106 254.572,256.938 254.300 C 256.836 254.135,240.428 254.042,220.476 254.094 C 200.524 254.146,190.050 254.236,197.200 254.294 M155.323 282.299 C 158.141 282.368,162.641 282.368,165.323 282.299 C 168.005 282.230,165.700 282.173,160.200 282.173 C 154.700 282.174,152.505 282.230,155.323 282.299 M202.900 282.300 C 212.745 282.359,228.855 282.359,238.700 282.300 C 248.545 282.240,240.490 282.192,220.800 282.192 C 201.110 282.192,193.055 282.240,202.900 282.300 " stroke="none" fill="#403c3c" fill-rule="evenodd"></path></g></svg>