<svg xmlns="http://www.w3.org/2000/svg" viewBox="0 0 1500 1500"><defs><style>.cls-1{fill:#404040;}</style></defs><title>Iconos finales</title><g id="descubrenos_donde_y_cuando" data-name="descubrenos donde y cuando"><path class="cls-1" d="M774,402.29c-49.44,0-94.65-17.61-120.93-47.09-18.75-21.05-27-46.57-23.87-73.8,4.06-34.56,26.31-67.16,62.63-91.84a213.6,213.6,0,0,1,118.91-36.35c49.75,0,95.55,18.11,122.52,48.43,13.09,14.73,27.87,39.28,23.94,72.63-4,35-26.29,67.73-62.65,92.15C860.08,389.55,817.27,402.29,774,402.29Zm36.74-203.08c-32.58,0-66.5,10.35-93.06,28.4C692.9,244.43,677.3,266,674.86,286.72c-1.63,14.17,2.46,26.58,12.52,37.87,17.43,19.55,50.61,31.7,86.59,31.7,33.77,0,68.36-10.23,94.9-28.05C893.51,311.68,909,290.08,911.48,269c1.56-13.23-2.69-25.57-12.63-36.74C880.48,211.55,847.53,199.21,810.71,199.21Z"/><path class="cls-1" d="M715.57,1346.78c-3.06,0-6.07-.08-9.05-.23-55.22-3-99.49-23.42-128-59.19-32.55-40.76-43.48-99.14-31.6-168.82a2.93,2.93,0,0,1,0-.29c5.7-31.08,46.34-237.53,48.71-249.1l.12-.63c13.86-68.91,17.13-125.39,9.71-167.9-5.7-32.67-17.21-57.06-36.23-76.74a23,23,0,0,1,1.69-33.54c13.5-11.42,30.47-22.21,49.08-31.19,39.68-19.17,83.75-28.47,120.89-25.52,55.1,4.39,98.82,26,126.44,62.51,31.49,41.61,40.88,100.27,27.17,169.63l-.06.27c-18,85.76-34.71,163.16-43.67,204.73l-.23,1.08c-5.65,26.14-7.25,33.62-7.66,35.8l0,.22v0l0,.16c-12.05,69.23-13.83,125.78-5.3,168.08,6.55,32.51,18.69,56.58,38.22,75.76a23,23,0,0,1-.81,33.57c-13.19,11.78-29.87,23-48.24,32.48C790.68,1336.45,750.72,1346.78,715.57,1346.78ZM592.19,1126.4c-9.58,56.32-1.89,102.06,22.23,132.26,20.13,25.22,52.82,39.72,94.54,41.95,29.32,1.56,64.54-7.06,96.65-23.62a219.15,219.15,0,0,0,20.66-12.11c-16.38-22-27.52-48.34-33.85-79.73-9.79-48.58-8.13-109.09,5.07-185,0-.19.07-.38.1-.57l.06-.34c.5-2.66,1.54-7.51,7.92-37.09l.23-1.07c9-41.52,25.61-118.78,43.6-204.36,11.06-56.06,4.58-102-18.75-132.83-19.48-25.74-51.77-41.09-93.41-44.41-29.24-2.32-64.68,5.36-97.24,21.09a214.79,214.79,0,0,0-21,11.56c15.79,22.46,26.24,49,31.75,80.58,8.52,48.83,5.27,109.3-9.92,184.86l-.05.21-.09.48C639,886.47,598,1094.65,592.19,1126.4Z"/></g></svg>