<svg id="svg" version="1.1" width="400" height="335.9180687637162" viewBox="0 0 400 335.9180687637162" xmlns="http://www.w3.org/2000/svg" xmlns:xlink="http://www.w3.org/1999/xlink" ><g id="svgg"><path id="path0" d="M114.119 140.252 C 114.119 140.303,114.546 140.731,115.069 141.203 L 116.020 142.063 115.161 141.112 C 114.360 140.225,114.119 140.026,114.119 140.252 M88.213 142.282 L 86.467 144.111 88.296 142.365 C 89.994 140.742,90.258 140.454,90.042 140.454 C 89.997 140.454,89.174 141.277,88.213 142.282 M184.188 141.990 L 182.736 143.526 184.272 142.074 C 185.700 140.725,185.943 140.454,185.724 140.454 C 185.678 140.454,184.987 141.145,184.188 141.990 M210.680 141.423 C 210.680 141.473,211.108 141.901,211.631 142.374 L 212.582 143.233 211.723 142.282 C 210.922 141.396,210.680 141.197,210.680 141.423 M107.535 150.695 C 108.490 151.661,109.338 152.451,109.418 152.451 C 109.499 152.451,108.783 151.661,107.827 150.695 C 106.872 149.729,106.024 148.939,105.944 148.939 C 105.863 148.939,106.579 149.729,107.535 150.695 M96.694 150.768 L 95.538 152.012 96.781 150.855 C 97.938 149.779,98.159 149.525,97.938 149.525 C 97.890 149.525,97.331 150.084,96.694 150.768 " stroke="none" fill="#fff" fill-rule="evenodd"></path><path id="path1" d="" stroke="none" fill="#fff" fill-rule="evenodd"></path><path id="path2" d="M349.598 34.454 C 351.891 34.504,355.644 34.504,357.937 34.454 C 360.230 34.405,358.354 34.364,353.767 34.364 C 349.181 34.364,347.304 34.405,349.598 34.454 M382.370 34.454 C 384.663 34.504,388.416 34.504,390.710 34.454 C 393.003 34.405,391.127 34.364,386.540 34.364 C 381.953 34.364,380.077 34.405,382.370 34.454 M284.053 34.747 C 286.346 34.796,290.099 34.796,292.392 34.747 C 294.685 34.698,292.809 34.657,288.222 34.657 C 283.636 34.657,281.759 34.698,284.053 34.747 M316.533 34.747 C 318.826 34.796,322.579 34.796,324.872 34.747 C 327.165 34.698,325.289 34.657,320.702 34.657 C 316.116 34.657,314.239 34.698,316.533 34.747 M218.525 35.040 C 220.828 35.089,224.515 35.089,226.719 35.039 C 228.922 34.990,227.037 34.949,222.531 34.949 C 218.025 34.950,216.222 34.990,218.525 35.040 M250.988 35.040 C 253.281 35.089,257.034 35.089,259.327 35.040 C 261.620 34.990,259.744 34.950,255.157 34.950 C 250.571 34.950,248.694 34.990,250.988 35.040 M152.670 35.332 C 154.963 35.382,158.716 35.382,161.010 35.332 C 163.303 35.283,161.426 35.242,156.840 35.242 C 152.253 35.242,150.377 35.283,152.670 35.332 M185.443 35.332 C 187.736 35.382,191.489 35.382,193.782 35.332 C 196.075 35.283,194.199 35.242,189.612 35.242 C 185.026 35.242,183.149 35.283,185.443 35.332 M87.125 35.625 C 89.418 35.674,93.171 35.674,95.465 35.625 C 97.758 35.575,95.881 35.535,91.295 35.535 C 86.708 35.535,84.832 35.575,87.125 35.625 M119.769 35.625 C 122.153 35.674,125.971 35.674,128.255 35.625 C 130.538 35.575,128.588 35.535,123.921 35.535 C 119.254 35.535,117.386 35.576,119.769 35.625 M21.598 35.918 C 23.901 35.967,27.588 35.967,29.791 35.917 C 31.994 35.868,30.110 35.827,25.604 35.827 C 21.097 35.827,19.295 35.868,21.598 35.918 M54.060 35.917 C 56.353 35.967,60.106 35.967,62.399 35.917 C 64.693 35.868,62.816 35.828,58.230 35.828 C 53.643 35.828,51.767 35.868,54.060 35.917 M399.505 39.649 C 399.507 40.614,399.562 40.974,399.627 40.448 C 399.692 39.922,399.691 39.132,399.624 38.693 C 399.557 38.253,399.504 38.683,399.505 39.649 M399.808 47.842 C 399.809 49.129,399.860 49.620,399.922 48.932 C 399.984 48.243,399.983 47.190,399.920 46.591 C 399.857 45.991,399.807 46.554,399.808 47.842 M349.890 46.159 C 352.184 46.208,355.936 46.208,358.230 46.159 C 360.523 46.109,358.647 46.069,354.060 46.069 C 349.473 46.069,347.597 46.109,349.890 46.159 M383.235 46.155 L 387.978 46.247 388.086 48.361 L 388.194 50.475 388.171 48.281 L 388.149 46.086 383.321 46.075 L 378.493 46.063 383.235 46.155 M282.151 46.450 C 283.398 46.505,285.439 46.505,286.686 46.450 C 287.933 46.395,286.913 46.350,284.418 46.350 C 281.924 46.350,280.903 46.395,282.151 46.450 M316.825 46.451 C 319.119 46.501,322.871 46.501,325.165 46.451 C 327.458 46.402,325.582 46.362,320.995 46.362 C 316.408 46.362,314.532 46.402,316.825 46.451 M218.508 46.744 C 220.801 46.793,224.554 46.793,226.847 46.744 C 229.140 46.695,227.264 46.654,222.677 46.654 C 218.091 46.654,216.214 46.695,218.508 46.744 M251.152 46.744 C 253.535 46.793,257.354 46.793,259.638 46.744 C 261.921 46.695,259.971 46.654,255.304 46.654 C 250.636 46.655,248.768 46.695,251.152 46.744 M152.963 47.037 C 155.256 47.086,159.009 47.086,161.302 47.037 C 163.595 46.987,161.719 46.947,157.132 46.947 C 152.546 46.947,150.669 46.987,152.963 47.037 M183.528 47.035 C 184.607 47.091,186.451 47.091,187.624 47.035 C 188.798 46.980,187.915 46.934,185.662 46.933 C 183.409 46.933,182.449 46.978,183.528 47.035 M87.143 47.329 C 89.446 47.379,93.133 47.379,95.336 47.329 C 97.539 47.279,95.655 47.239,91.149 47.239 C 86.642 47.239,84.840 47.280,87.143 47.329 M119.898 47.329 C 122.191 47.379,125.944 47.379,128.237 47.329 C 130.530 47.280,128.654 47.239,124.067 47.239 C 119.481 47.239,117.604 47.280,119.898 47.329 M21.580 47.622 C 23.873 47.671,27.626 47.671,29.920 47.622 C 32.213 47.572,30.337 47.532,25.750 47.532 C 21.163 47.532,19.287 47.572,21.580 47.622 M54.224 47.622 C 56.608 47.671,60.426 47.671,62.710 47.622 C 64.993 47.572,63.043 47.532,58.376 47.532 C 53.709 47.532,51.841 47.573,54.224 47.622 M388.120 60.132 C 388.120 62.546,388.166 63.494,388.221 62.240 C 388.276 60.985,388.275 59.010,388.220 57.851 C 388.165 56.691,388.120 57.718,388.120 60.132 M399.824 59.985 C 399.824 62.319,399.869 63.274,399.925 62.107 C 399.980 60.940,399.980 59.031,399.925 57.864 C 399.869 56.697,399.824 57.652,399.824 59.985 M388.115 88.515 C 388.115 90.446,388.163 91.198,388.220 90.186 C 388.277 89.174,388.277 87.594,388.219 86.675 C 388.161 85.756,388.114 86.584,388.115 88.515 M399.820 88.661 C 399.820 90.673,399.867 91.496,399.924 90.490 C 399.981 89.484,399.981 87.838,399.924 86.832 C 399.867 85.827,399.820 86.650,399.820 88.661 M388.097 97.732 C 388.097 98.778,388.150 99.206,388.215 98.683 C 388.280 98.160,388.280 97.304,388.215 96.781 C 388.150 96.258,388.097 96.686,388.097 97.732 M399.798 98.171 C 399.800 99.137,399.854 99.497,399.919 98.971 C 399.985 98.445,399.983 97.655,399.916 97.215 C 399.850 96.775,399.796 97.206,399.798 98.171 M387.784 103.731 C 387.787 104.375,387.847 104.603,387.917 104.239 C 387.987 103.875,387.985 103.349,387.911 103.069 C 387.838 102.789,387.781 103.087,387.784 103.731 M399.498 104.023 C 399.501 104.828,399.557 105.123,399.625 104.678 C 399.692 104.233,399.690 103.575,399.621 103.215 C 399.551 102.855,399.496 103.219,399.498 104.023 M387.784 107.827 C 387.787 108.471,387.847 108.700,387.917 108.336 C 387.987 107.972,387.985 107.445,387.911 107.166 C 387.838 106.886,387.781 107.184,387.784 107.827 M399.489 108.120 C 399.492 108.764,399.552 108.993,399.622 108.629 C 399.692 108.265,399.689 107.738,399.616 107.458 C 399.543 107.178,399.485 107.476,399.489 108.120 M399.190 111.778 C 399.190 112.341,399.250 112.571,399.324 112.290 C 399.397 112.008,399.397 111.547,399.324 111.266 C 399.250 110.984,399.190 111.214,399.190 111.778 M98.742 126.435 C 98.485 126.933,98.326 127.392,98.390 127.456 C 98.453 127.519,98.724 127.112,98.992 126.551 C 99.594 125.289,99.385 125.192,98.742 126.435 M100.512 147.368 C 102.608 147.586,104.982 147.605,104.857 147.403 C 104.782 147.282,103.576 147.205,102.177 147.230 C 100.779 147.256,100.029 147.318,100.512 147.368 M192.528 150.329 L 190.929 152.012 192.612 150.412 C 193.537 149.533,194.294 148.776,194.294 148.730 C 194.294 148.513,194.014 148.766,192.528 150.329 M203.072 150.549 C 203.618 151.112,204.131 151.573,204.211 151.573 C 204.292 151.573,203.911 151.112,203.365 150.549 C 202.819 149.985,202.307 149.525,202.226 149.525 C 202.146 149.525,202.526 149.985,203.072 150.549 M126.701 150.244 C 126.701 150.325,127.228 150.659,127.871 150.988 C 128.515 151.316,129.042 151.519,129.042 151.438 C 129.042 151.358,128.515 151.023,127.871 150.695 C 127.228 150.367,126.701 150.164,126.701 150.244 M318.654 150.695 C 319.217 151.003,319.810 151.256,319.971 151.256 C 320.132 151.256,319.802 151.003,319.239 150.695 C 318.676 150.387,318.083 150.134,317.922 150.134 C 317.762 150.134,318.091 150.387,318.654 150.695 M12.582 225.399 L 12.729 299.195 12.802 225.619 C 12.843 185.152,12.777 151.943,12.656 151.822 C 12.535 151.701,12.502 184.811,12.582 225.399 M381.993 153.109 C 381.917 153.310,381.888 186.262,381.929 226.335 L 382.004 299.195 382.151 225.969 C 382.231 185.695,382.260 152.743,382.215 152.743 C 382.169 152.743,382.070 152.908,381.993 153.109 M53.337 155.885 C 54.107 155.945,55.292 155.945,55.971 155.883 C 56.650 155.822,56.020 155.772,54.572 155.773 C 53.124 155.774,52.568 155.824,53.337 155.885 M148.436 155.885 C 149.205 155.945,150.390 155.945,151.070 155.883 C 151.749 155.822,151.119 155.772,149.671 155.773 C 148.222 155.774,147.667 155.824,148.436 155.885 M244.696 155.884 C 245.461 155.945,246.712 155.945,247.476 155.884 C 248.241 155.824,247.615 155.775,246.086 155.775 C 244.557 155.775,243.932 155.824,244.696 155.884 M340.097 155.885 C 340.866 155.945,342.051 155.945,342.730 155.883 C 343.409 155.822,342.780 155.772,341.331 155.773 C 339.883 155.774,339.327 155.824,340.097 155.885 M24.427 160.412 C 24.348 160.620,24.317 189.298,24.359 224.140 L 24.434 287.491 24.507 223.911 C 24.579 160.432,24.580 160.331,25.165 160.644 C 25.486 160.816,25.750 160.891,25.750 160.811 C 25.750 160.408,24.564 160.051,24.427 160.412 M273.299 161.229 C 272.414 161.697,271.793 162.085,271.919 162.093 C 272.230 162.112,275.055 160.670,275.055 160.493 C 275.055 160.297,275.095 160.280,273.299 161.229 M26.628 161.375 C 27.030 161.605,27.491 161.793,27.652 161.793 C 27.813 161.793,27.615 161.605,27.213 161.375 C 26.811 161.145,26.350 160.957,26.189 160.957 C 26.028 160.957,26.225 161.145,26.628 161.375 M370.297 224.287 C 370.297 259.049,370.331 273.226,370.373 255.792 C 370.415 238.358,370.415 209.916,370.373 192.588 C 370.331 175.260,370.297 189.525,370.297 224.287 M53.182 167.590 C 54.027 167.649,55.410 167.649,56.255 167.590 C 57.099 167.530,56.408 167.482,54.718 167.482 C 53.029 167.482,52.337 167.530,53.182 167.590 M148.281 167.590 C 149.126 167.649,150.508 167.649,151.353 167.590 C 152.198 167.530,151.507 167.482,149.817 167.482 C 148.127 167.482,147.436 167.530,148.281 167.590 M244.707 167.590 C 245.638 167.649,247.087 167.648,247.926 167.589 C 248.765 167.530,248.003 167.483,246.233 167.483 C 244.462 167.484,243.776 167.532,244.707 167.590 M339.941 167.590 C 340.786 167.649,342.169 167.649,343.014 167.590 C 343.859 167.530,343.168 167.482,341.478 167.482 C 339.788 167.482,339.097 167.530,339.941 167.590 M235.110 229.993 C 235.110 261.617,235.145 274.554,235.187 258.742 C 235.228 242.930,235.228 217.056,235.187 201.244 C 235.145 185.432,235.110 198.369,235.110 229.993 M321.138 229.993 C 321.138 261.617,321.173 274.554,321.214 258.742 C 321.256 242.930,321.256 217.056,321.214 201.244 C 321.173 185.432,321.138 198.369,321.138 229.993 M68.081 178.396 C 67.974 178.503,67.886 197.925,67.886 221.556 L 67.886 264.521 145.647 264.448 L 223.409 264.376 145.794 264.301 L 68.178 264.227 68.178 221.361 L 68.178 178.494 145.794 178.420 L 223.409 178.346 145.842 178.273 C 103.181 178.233,68.188 178.288,68.081 178.396 M246.815 235.845 C 246.815 264.250,246.849 275.871,246.891 261.668 C 246.933 247.465,246.933 224.225,246.891 210.022 C 246.849 195.819,246.815 207.440,246.815 235.845 M309.434 235.845 C 309.434 264.250,309.468 275.871,309.510 261.668 C 309.552 247.465,309.552 224.225,309.510 210.022 C 309.468 195.819,309.434 207.440,309.434 235.845 M79.785 190.100 C 79.678 190.207,79.590 204.362,79.590 221.556 L 79.590 252.816 145.647 252.744 L 211.704 252.671 145.794 252.597 L 79.883 252.522 79.883 221.361 L 79.883 190.199 145.794 190.124 L 211.704 190.050 145.842 189.977 C 109.618 189.938,79.893 189.993,79.785 190.100 " stroke="none" fill="#fff" fill-rule="evenodd"></path><path id="path3" d="M279.737 142.356 C 279.026 143.080,278.510 143.672,278.591 143.672 C 278.671 143.672,279.318 143.080,280.029 142.356 C 280.740 141.631,281.256 141.039,281.175 141.039 C 281.095 141.039,280.447 141.631,279.737 142.356 M376.719 141.990 L 375.860 142.941 376.811 142.081 C 377.697 141.280,377.896 141.039,377.670 141.039 C 377.620 141.039,377.192 141.467,376.719 141.990 M306.657 141.716 C 306.657 141.766,307.085 142.194,307.608 142.667 L 308.559 143.526 307.699 142.575 C 306.898 141.689,306.657 141.489,306.657 141.716 M10.680 150.110 C 11.473 150.914,12.187 151.573,12.268 151.573 C 12.348 151.573,11.766 150.914,10.973 150.110 C 10.180 149.305,9.466 148.647,9.386 148.647 C 9.305 148.647,9.888 149.305,10.680 150.110 M288.065 150.768 L 286.613 152.304 288.149 150.852 C 289.577 149.503,289.820 149.232,289.601 149.232 C 289.555 149.232,288.864 149.923,288.065 150.768 M384.912 150.475 L 384.053 151.426 385.004 150.567 C 385.890 149.766,386.089 149.525,385.863 149.525 C 385.813 149.525,385.385 149.952,384.912 150.475 M298.171 149.909 C 298.171 149.959,298.599 150.387,299.122 150.860 L 300.073 151.719 299.214 150.768 C 298.413 149.882,298.171 149.683,298.171 149.909 " stroke="none" fill="#fff" fill-rule="evenodd"></path><path id="path4" d="M361.919 34.374 C 361.849 34.444,341.914 34.582,317.619 34.681 C 229.020 35.041,217.212 35.091,181.565 35.260 C 142.390 35.447,114.221 35.564,45.647 35.828 C 21.426 35.921,1.247 36.072,0.805 36.164 L -0.000 36.330 0.000 85.237 L 0.000 134.143 1.477 137.079 C 4.098 142.289,5.827 144.711,10.168 149.252 L 12.875 152.083 12.875 225.566 L 12.875 299.049 197.366 299.049 L 381.858 299.049 381.858 226.233 L 381.858 153.417 384.870 150.373 C 386.526 148.699,388.295 146.803,388.801 146.159 C 390.514 143.980,391.807 142.205,391.807 142.032 C 391.807 141.938,392.083 141.473,392.420 140.999 C 392.758 140.526,393.433 139.386,393.922 138.467 C 394.410 137.548,395.185 136.269,395.644 135.625 C 398.797 131.201,399.833 115.731,399.818 73.299 C 399.809 49.392,399.704 35.582,399.525 34.821 C 399.426 34.403,362.331 33.963,361.919 34.374 M388.149 72.871 C 388.149 99.442,387.966 108.876,387.268 118.215 C 386.593 127.254,386.586 127.282,383.923 132.404 C 381.690 136.697,377.497 141.875,373.950 144.717 C 367.282 150.062,358.087 154.190,350.549 155.224 C 349.824 155.324,348.574 155.492,347.769 155.597 C 344.693 156.002,333.191 155.715,332.380 155.214 C 332.271 155.147,331.673 155.018,331.051 154.928 C 330.429 154.837,329.722 154.692,329.481 154.605 C 329.239 154.518,328.713 154.386,328.310 154.311 C 325.932 153.869,319.810 151.348,316.362 149.390 C 311.810 146.804,304.795 140.432,303.024 137.273 C 302.877 137.011,302.662 136.730,302.545 136.650 C 301.939 136.230,299.893 132.263,300.324 132.344 C 300.573 132.391,300.658 121.463,300.658 89.357 C 300.658 60.787,300.757 46.340,300.951 46.405 C 301.112 46.459,311.317 46.405,323.628 46.285 C 335.940 46.165,355.494 46.076,367.081 46.087 L 388.149 46.107 388.149 72.871 M288.880 87.833 L 288.954 129.433 287.872 131.505 C 287.276 132.645,286.666 133.841,286.516 134.163 C 285.141 137.117,277.418 145.381,274.508 147.012 C 274.246 147.159,273.965 147.373,273.884 147.487 C 273.464 148.080,267.554 151.267,264.521 152.537 C 262.578 153.350,258.480 154.567,256.545 154.905 C 256.101 154.983,255.508 155.112,255.228 155.193 C 252.487 155.982,239.603 155.990,236.966 155.205 C 236.338 155.018,235.378 154.823,234.089 154.619 C 231.397 154.194,225.604 151.965,221.214 149.665 C 214.388 146.088,206.749 138.063,203.606 131.165 C 203.110 130.078,202.392 128.505,202.011 127.670 L 201.317 126.152 201.317 86.526 L 201.317 46.901 213.296 46.686 C 219.885 46.568,228.016 46.550,231.365 46.645 C 236.504 46.792,246.535 46.723,284.491 46.283 L 288.806 46.233 288.880 87.833 M189.612 91.390 L 189.612 135.815 188.003 137.953 C 186.383 140.107,181.486 145.000,180.016 145.935 C 179.581 146.212,179.159 146.516,179.078 146.611 C 178.941 146.772,177.017 148.054,175.708 148.856 C 172.361 150.907,166.597 153.345,162.763 154.331 C 158.370 155.461,155.356 155.804,149.817 155.804 C 145.020 155.804,142.439 155.578,139.576 154.906 C 139.173 154.812,138.515 154.678,138.113 154.609 C 137.710 154.540,137.052 154.370,136.650 154.232 C 136.247 154.093,135.089 153.744,134.075 153.457 C 133.062 153.170,132.165 152.826,132.083 152.693 C 132.001 152.560,131.751 152.451,131.528 152.451 C 131.010 152.451,127.206 150.654,125.677 149.686 C 125.033 149.279,124.243 148.827,123.921 148.681 C 123.599 148.536,122.855 148.041,122.268 147.581 C 121.680 147.121,120.830 146.481,120.378 146.159 C 118.257 144.648,114.151 140.550,112.129 137.927 L 111.196 136.716 111.121 91.978 L 111.046 47.239 129.920 47.148 C 140.300 47.097,148.837 47.013,148.891 46.961 C 148.945 46.908,158.130 46.887,169.301 46.915 L 189.612 46.964 189.612 91.390 M99.267 86.394 L 99.342 125.677 97.501 129.334 C 94.211 135.875,92.260 138.596,87.780 142.890 C 81.992 148.438,72.637 153.597,66.569 154.587 C 66.086 154.666,65.362 154.809,64.960 154.904 C 62.138 155.575,59.544 155.798,54.572 155.798 C 49.600 155.798,47.006 155.575,44.184 154.904 C 43.782 154.809,43.058 154.667,42.575 154.590 C 39.784 154.146,31.489 150.834,28.226 148.861 C 27.114 148.189,24.141 146.199,23.994 146.029 C 23.914 145.935,23.177 145.356,22.357 144.740 C 18.980 142.206,14.730 137.254,12.611 133.386 L 11.704 131.731 11.704 89.745 L 11.704 47.760 17.775 47.543 C 21.113 47.424,28.059 47.404,33.210 47.499 C 38.361 47.593,51.726 47.568,62.911 47.443 C 74.097 47.317,86.836 47.191,91.221 47.163 L 99.193 47.110 99.267 86.394 M199.262 146.142 C 203.563 151.623,214.109 159.842,219.362 161.808 C 220.213 162.126,221.142 162.517,221.427 162.677 C 222.748 163.416,230.105 165.717,232.334 166.088 C 232.736 166.155,233.394 166.286,233.797 166.380 C 235.395 166.753,236.128 166.861,239.795 167.263 C 241.742 167.476,250.168 167.469,252.377 167.251 C 255.738 166.921,258.391 166.502,259.789 166.081 C 260.058 166.000,260.607 165.871,261.010 165.795 C 264.772 165.080,271.782 162.251,276.957 159.358 C 281.572 156.778,287.490 151.720,291.566 146.873 C 292.979 145.192,293.763 144.470,293.947 144.680 C 294.098 144.852,294.967 145.914,295.878 147.039 C 298.053 149.726,302.125 153.623,305.031 155.799 C 306.486 156.889,309.018 158.595,309.179 158.595 C 309.247 158.595,309.859 158.951,310.540 159.385 C 313.869 161.508,320.706 164.356,325.238 165.509 C 326.759 165.897,327.130 165.979,329.042 166.358 C 329.685 166.486,330.410 166.631,330.651 166.681 C 331.168 166.788,333.133 167.039,335.187 167.261 C 337.297 167.489,345.367 167.478,347.769 167.243 C 351.997 166.830,353.394 166.582,357.753 165.466 C 361.400 164.533,365.091 163.278,367.666 162.094 C 368.310 161.798,369.199 161.468,369.642 161.361 L 370.446 161.166 370.446 224.255 L 370.446 287.345 345.721 287.345 L 320.995 287.345 320.995 229.993 L 320.995 172.641 278.127 172.641 L 235.260 172.641 235.260 229.993 L 235.260 287.345 129.773 287.345 L 24.287 287.345 24.287 223.897 C 24.287 189.000,24.363 160.373,24.455 160.280 C 24.548 160.188,25.568 160.588,26.723 161.169 C 27.878 161.751,29.283 162.405,29.846 162.623 C 31.433 163.237,36.671 165.059,37.163 165.167 C 37.405 165.220,38.194 165.423,38.917 165.618 C 39.640 165.813,40.430 166.007,40.672 166.049 C 41.104 166.125,43.031 166.503,43.892 166.681 C 44.360 166.777,46.216 167.029,48.135 167.255 C 49.789 167.451,59.532 167.447,61.383 167.251 C 67.980 166.550,78.627 163.375,82.809 160.862 C 85.173 159.441,90.006 156.404,90.354 156.121 C 90.561 155.953,90.890 155.683,91.086 155.522 C 91.281 155.360,92.165 154.639,93.050 153.920 C 93.936 153.201,95.858 151.391,97.323 149.898 L 99.986 147.184 102.335 147.184 L 104.683 147.184 106.304 149.030 C 108.866 151.948,118.223 159.473,119.289 159.473 C 119.374 159.473,120.188 159.930,121.097 160.487 C 124.458 162.549,132.497 165.388,137.764 166.375 C 139.163 166.637,140.557 166.899,140.863 166.958 C 144.588 167.673,154.868 167.601,159.334 166.828 C 160.296 166.662,161.478 166.467,161.960 166.396 C 163.921 166.105,170.812 164.126,172.787 163.286 C 176.227 161.823,178.535 160.714,180.102 159.771 C 180.907 159.287,181.763 158.792,182.004 158.670 C 185.464 156.929,194.032 149.342,197.051 145.347 L 197.886 144.243 198.351 144.908 C 198.607 145.275,199.017 145.830,199.262 146.142 M68.178 221.361 L 68.178 264.228 145.721 264.228 L 223.263 264.228 223.263 221.361 L 223.263 178.493 145.721 178.493 L 68.178 178.493 68.178 221.361 M309.583 235.845 L 309.583 287.345 278.127 287.345 L 246.672 287.345 246.672 235.845 L 246.672 184.345 278.127 184.345 L 309.583 184.345 309.583 235.845 M211.558 221.361 L 211.558 252.816 145.574 252.816 L 79.590 252.816 79.590 221.556 C 79.590 204.362,79.678 190.207,79.785 190.100 C 79.893 189.993,109.585 189.905,145.769 189.905 L 211.558 189.905 211.558 221.361 " stroke="none" fill="#fff" fill-rule="evenodd"></path></g></svg>