<?xml version="1.0" encoding="utf-8"?>
<!-- Generator: Adobe Illustrator 22.0.0, SVG Export Plug-In . SVG Version: 6.00 Build 0)  -->
<svg version="1.1" id="Layer_1" xmlns="http://www.w3.org/2000/svg" xmlns:xlink="http://www.w3.org/1999/xlink" x="0px" y="0px"
	 viewBox="0 0 1500 1500" style="enable-background:new 0 0 1500 1500;" xml:space="preserve">
<style type="text/css">
	.st0{fill:#FFFFFF;}
	.st1{fill:none;}
</style>
<title>DiscoTopHits-02</title>
<g id="Capa_2">
	<g>
		<circle class="st0" cx="751" cy="751" r="245.6"/>
	</g>
	<g>
		<path class="st0" d="M751,1270c-105.9,0-207.8-31.7-294.6-91.6c-84.8-58.6-149.7-139.9-187.7-235.3c-2.6-6.4,0.6-13.7,7-16.2
			c6.4-2.6,13.7,0.6,16.2,7c36.2,90.8,98,168.2,178.7,224c82.6,57.1,179.6,87.2,280.4,87.2c66.7,0,131.4-13.1,192.3-38.8
			c58.8-24.9,111.7-60.5,157-105.9c45.4-45.4,81-98.2,105.9-157c25.8-60.9,38.8-125.6,38.8-192.3s-13.1-131.4-38.8-192.3
			c-24.9-58.8-60.5-111.7-105.9-157c-45.4-45.4-98.2-81-157-105.9C882.4,270.1,817.7,257,751,257c-59.1,0-117.1,11-172.4,32.8
			c-53.1,20.9-102.2,51.1-146.1,89.6c-87.8,77.2-147.4,182.3-167.8,296c-1.2,6.8-7.7,11.3-14.5,10.1c-6.8-1.2-11.3-7.7-10.1-14.5
			c21.4-119.2,83.9-229.4,175.9-310.3c46-40.5,97.6-72.2,153.4-94.1C627.7,243.6,688.8,232,751,232c70.1,0,138,13.7,202,40.8
			c61.8,26.1,117.3,63.6,165,111.2c47.7,47.7,85.1,103.2,111.2,165c27.1,64,40.8,132,40.8,202s-13.7,138-40.8,202
			c-26.1,61.8-63.6,117.3-111.2,165c-47.7,47.7-103.2,85.1-165,111.2C889,1256.3,821.1,1270,751,1270z"/>
	</g>
	<g>
		<path class="st0" d="M750.1,1353c-66.3,0-131.8-10.9-194.6-32.5c-63.1-21.6-121.7-53.4-174.2-94.4c-5.4-4.2-6.4-12.1-2.2-17.5
			c4.2-5.4,12.1-6.4,17.5-2.2c50.4,39.3,106.5,69.7,167,90.5c60.1,20.6,122.9,31.1,186.5,31.1c0.3,0,0.6,0,0.9,0
			c77.9,0,153.5-15.3,224.6-45.3c68.7-29.1,130.4-70.7,183.4-123.7s94.6-114.7,123.7-183.4c30.1-71.1,45.3-146.7,45.3-224.6
			s-15.3-153.5-45.3-224.6C1253.6,457.7,1212,396,1159,343c-53-53-114.7-94.6-183.4-123.7C904.5,189.3,828.9,174,751,174
			s-153.5,15.3-224.6,45.3C457.7,248.4,396,290,343,343c-53,53-94.6,114.7-123.7,183.4C189.3,597.5,174,673.1,174,751
			c-0.1,70.9,12.7,140.4,38.1,206.5c2.5,6.4-0.8,13.7-7.2,16.1c-6.4,2.5-13.7-0.8-16.1-7.2c-26.4-69-39.8-141.5-39.7-215.5
			c0-81.2,15.9-160.1,47.3-234.3c30.3-71.7,73.7-136.1,129-191.3c55.3-55.3,119.7-98.7,191.3-129C590.9,164.9,669.7,149,751,149
			c81.3,0,160.1,15.9,234.3,47.3c71.7,30.3,136.1,73.7,191.3,129c55.3,55.3,98.7,119.7,129,191.3c31.4,74.2,47.3,153.1,47.3,234.3
			s-15.9,160.1-47.3,234.3c-30.3,71.7-73.7,136.1-129,191.3c-55.3,55.3-119.7,98.7-191.3,129C910.8,1337.2,831.7,1353.1,750.1,1353z
			"/>
	</g>
	<g>
		<path class="st0" d="M1117,204.7l-11.7-7.1c-17.6-10.7-34.9-21.2-38.7-23.5C748.3-0.4,348.8,116.3,174.4,434.6
			c-53.1,97-81,205.8-80.9,316.4c0,51,5.8,101.8,17.5,151.5c11.3,48,28.1,94.6,49.9,138.9c10.4,21.1,1.7,46.5-19.3,56.9
			c-5.8,2.9-12.2,4.4-18.7,4.4c-15.7,0-4.6,52.6-38.1-23.7C62.2,1028,41,976.2,28.3,922c-13.2-56-19.8-113.4-19.8-171
			C8.4,341,340.7,8.4,750.7,8.3c125,0,248.1,31.5,357.6,91.7l1.5,0.9l13.9,8.4"/>
	</g>
	<g>
		<path class="st0" d="M330.6,1256.6c279.5,232,694.1,193.6,926.2-85.9c155.9-187.7,195-446.4,101.6-671.8
			c-9-21.7,1.3-46.5,22.9-55.5c0,0,0,0,0,0c10.8-4.5-2.3-43,8-39.5c17.1,5.8,43.1,51.6,47.6,62.4
			c157.5,378.6-21.8,813.2-400.4,970.7c-255.1,106.1-548,61.8-760.3-115c-8.3-6.9-19.8-16.8-27.1-26c0,0,49.3-4.8,58.7-10
			S330.6,1256.6,330.6,1256.6z"/>
	</g>
	<g>
		<path class="st0" d="M751,1180c-57.9,0-114.1-11.3-167-33.7c-51.1-21.6-97-52.5-136.4-91.9s-70.3-85.3-91.9-136.4
			C333.3,865.1,322,808.9,322,751s11.3-114.1,33.7-167c21.6-51.1,52.5-97,91.9-136.4s85.3-70.3,136.4-91.9
			c52.9-22.4,109.1-33.7,167-33.7s114.1,11.3,167,33.7c51.1,21.6,97,52.5,136.4,91.9s70.3,85.3,91.9,136.4
			c22.4,52.9,33.7,109.1,33.7,167s-11.3,114.1-33.7,167c-21.6,51.1-52.5,97-91.9,136.4s-85.3,70.3-136.4,91.9
			C865.1,1168.7,808.9,1180,751,1180z M751,347c-54.5,0-107.5,10.7-157.3,31.7c-48.1,20.3-91.3,49.5-128.4,86.6
			c-37.1,37.1-66.2,80.3-86.6,128.4C357.7,643.5,347,696.5,347,751s10.7,107.5,31.7,157.3c20.3,48.1,49.5,91.3,86.6,128.4
			c37.1,37.1,80.3,66.2,128.4,86.6c49.8,21.1,102.7,31.7,157.3,31.7s107.5-10.7,157.3-31.7c48.1-20.3,91.3-49.5,128.4-86.6
			s66.2-80.3,86.6-128.4c21.1-49.8,31.7-102.7,31.7-157.3s-10.7-107.5-31.7-157.3c-20.3-48.1-49.5-91.3-86.6-128.4
			c-37.1-37.1-80.3-66.2-128.4-86.6C858.5,357.7,805.5,347,751,347z"/>
	</g>
	<g>
		<path class="st0" d="M751,1096c-46.6,0-91.8-9.1-134.3-27.1c-41.1-17.4-78-42.3-109.7-73.9c-31.7-31.7-56.6-68.6-73.9-109.7
			c-18-42.5-27.1-87.7-27.1-134.3s9.1-91.8,27.1-134.3c17.4-41.1,42.3-78,73.9-109.7s68.6-56.6,109.7-73.9
			c42.5-18,87.7-27.1,134.3-27.1s91.8,9.1,134.3,27.1c41.1,17.4,78,42.3,109.7,73.9c31.7,31.7,56.6,68.6,73.9,109.7
			c18,42.5,27.1,87.7,27.1,134.3s-9.1,91.8-27.1,134.3c-17.4,41.1-42.3,78-73.9,109.7c-31.7,31.7-68.6,56.6-109.7,73.9
			C842.8,1086.9,797.6,1096,751,1096z M751,431c-85.5,0-165.8,33.3-226.3,93.7C464.3,585.2,431,665.5,431,751
			c0,85.5,33.3,165.8,93.7,226.3c60.4,60.4,140.8,93.7,226.3,93.7c85.5,0,165.8-33.3,226.3-93.7c60.4-60.4,93.7-140.8,93.7-226.3
			c0-85.5-33.3-165.8-93.7-226.3C916.8,464.3,836.5,431,751,431z"/>
	</g>
</g>
<g id="Capa_4">
	<g>
		<path class="st1" d="M270.9,681.5c0.1-0.1,0,0-0.3,0C270.8,681.6,271,681.5,270.9,681.5z"/>
	</g>
	<g>
		<path class="st1" d="M291.7,846.5c2.9-7.5,5.1-15.2,6.6-23.1c0.8-4,1.4-8.3,2-12.2l0.8-7l0.6-6.3c1.3-17.2,1.6-34.7-0.2-51.6
			s-6-33.7-13.6-47.5c-3.7-6.8-8.7-12.9-13.2-15.6c-0.9-0.6-1.8-1-2.8-1.4c-0.3-0.1-0.6-0.2-0.9-0.2c0.2,0-0.6,0,0.3-0.1h-0.7
			c-1.1,0.6-2.1,1.5-2.9,2.6c-3.8,4.6-7.1,12.6-9.6,20.5c-2.5,8.4-4.5,16.9-5.9,25.5c-3,17.7-4.9,35.6-5.8,53.5c-1,18-1.4,36-1.5,54
			c0.1,25.2,0.9,50.2,2.1,75c7-7.9,13.8-15.9,20.1-24C277.4,875.2,286.1,861.3,291.7,846.5z"/>
	</g>
	<g>
		<path class="st1" d="M267.8,1240.2c-5.1-29.9-10.4-60.9-15.2-92.8c-2.3-14.8-4.5-29.8-6.5-45c-0.2,0.1-0.4,0.2-0.6,0.2
			c-13.6,5.4-25.6,14.3-34.7,25.8c-7.7,9.9-13.2,21.3-16,33.5c-2.3,9.4-2.6,19.2-0.7,28.7c1.2,6.2,3.7,12.1,7.4,17.2
			c1,1.4,2.1,2.8,3.3,4l1.2,1.3l-1.7-0.6l-2.1-0.7l-2.8-1.4c-6.5-3.6-11.9-8.8-15.9-15.1c-5.5-8.2-9.9-20.1-11-34.6
			c-1.1-17,2.3-34,9.8-49.3c8.2-17.5,23.5-34.8,44.3-46.7c2.6-1.5,5.3-2.8,8-4.1l4.4-1.9c0.6-0.2,1.1-0.5,1.6-0.7
			c-2.1-18.1-4.1-36.4-5.9-55l-2.5,2.5l-20,18.8c-6.3,5.8-12.2,11.8-18,18c-11.4,12.2-21.9,25.4-31.2,39.3
			c-18.2,27.6-31.4,58.4-33.8,90c-0.4,4-0.3,7.9-0.4,11.8c0.2,3.9,0.2,7.9,0.8,11.7c0.8,7.7,2.5,15.4,5,22.7
			c2.5,7.3,5.8,14.3,9.9,20.8c4.1,6.6,9,12.6,14.6,17.9c5.5,5.5,11.9,10,18.1,14l5.5,3l2.4,1.3l2.7,1.3l5.4,2.5l5.5,2.2
			c7.3,2.8,14.8,5,22.4,6.6c7.5,1.6,15.2,2.5,22.9,2.7c10.7,0.4,21.4-0.7,31.8-3.2c-0.1-0.8-0.2-1.7-0.4-2.5
			C272.9,1269.9,270.3,1255.2,267.8,1240.2z"/>
	</g>
	<g>
		<path class="st1" d="M356.8,1189.8v-0.5l-0.1-1l-0.1-2.1c-0.3-2.8-0.5-5.5-1.1-8.2c-1-5.4-2.4-10.7-4.3-15.8
			c-3.8-10-8.9-19.3-15.4-27.8c-12.5-16.5-28.7-28.3-44.5-33.6c-7.5-2.5-15.5-3.6-23.4-3.3c-1.9,0.1-3.8,0.3-5.7,0.6
			c-0.1,0-0.2,0-0.3,0c1.7,16,3.5,31.8,5.3,47.5c5.7,48.4,12,94.7,17.9,138.7c14.7-4.7,28.2-12.4,39.7-22.6
			c20.9-18.3,31.6-44.1,32-66.6l0.1-5.3C356.9,1189.3,356.7,1190.5,356.8,1189.8z"/>
	</g>
	<g>
		<path class="st0" d="M393,1150.2c-1.7-7.8-4.2-15.3-7.4-22.6c-3-7.1-6.7-14-11-20.4c-16.8-25.5-41.6-44.6-69.6-52.4
			c-6.9-1.9-14-3.2-21.2-3.7c-7-0.4-14-0.1-20.9,0.9c-1.8,0.2-3.6,0.5-5.4,0.9c-2.1-21.9-4-44.2-5.7-66.8
			c20.3-20.5,39.8-42.2,57.2-67.7c11.3-16.8,21.7-35.7,28-56.5c3.1-10.3,5.4-20.8,6.7-31.4c0.6-5.3,1-10.3,1.4-15.8l0.3-7l0.1-7.8
			c0.2-20.3-2.1-40.6-7-60.4c-4.9-19.8-12.3-39.4-24.7-57.3c-3.2-4.6-6.8-8.9-10.8-12.9c-4.3-4.5-9.3-8.2-14.8-11.2
			c-3.2-1.7-6.6-2.9-10.2-3.7c-2-0.4-4-0.7-6-0.7c-0.7,0-0.5-0.1-2.1,0l-0.9,0.1c-5.7,0.4-11.2,2.6-15.6,6.2
			c-2.8,2.2-5.2,4.8-7.3,7.6c-7.4,10.4-10.3,20.3-13,30c-2.4,9.5-4.2,19.1-5.4,28.8c-4.6,38-4.8,75-3.9,111.5
			c0.7,32.1,2.4,63.7,4.7,94.8c-11,11.7-22.4,23.2-33.6,34.8c-6.5,6.6-12.9,12.9-19.5,19.8c-6.8,7.1-13.4,14.4-19.6,22.1
			c-12.4,15.3-23.3,31.8-32.4,49.3c-9.2,17.4-16.2,35.8-20.9,54.9c-4.8,19-6.6,38.5-5.5,58.1c0.2,4.8,0.9,9.7,1.4,14.5
			c0.9,4.8,1.6,9.6,2.9,14.2c2.3,9.3,5.6,18.4,9.7,27.1c8.1,17.1,19.9,32.1,34.6,44l5.4,4.2l5.7,3.8c3.6,2.6,8,4.8,11.9,7l5.7,2.7
			l3.1,1.5l3,1.2l6.1,2.5l6.2,2.2c16.3,5.6,33.3,8.7,50.5,9.2c11.7,0.3,23.4-0.5,34.9-2.6c1.2,7.9,2.4,15.8,3.6,23.6
			c2.1,13.9,3.6,27.5,4.8,40.8c1.2,12.9,1.7,25.9,1.5,38.9c-0.2,6.2-0.7,12.3-1.5,18.4c-0.2,1.4-0.4,3.1-0.7,4.3l-0.9,4.5
			c-0.8,2.8-1.4,5.4-2.5,8.1c-3.7,10.4-9.8,19.8-17.8,27.3c-7.4,6.9-16.4,11.9-26.2,14.5l-3.5,0.8l-0.9,0.2c-0.1,0-0.4,0.1-0.3,0.1
			l-0.5,0.1l-1.9,0.3c-2.3,0.3-4.6,0.5-6.9,0.5c-4.5,0.1-9.1-0.3-13.5-1.2c-4.1-0.9-8.1-2.2-11.9-4c-3.5-1.8-6.8-4-9.8-6.6
			c-5.3-4.6-9.1-10.6-11.2-17.3c-0.9-3-1.4-6.1-1.5-9.2c-0.1-1.5-0.1-3,0-4.4l0.2-2.2c0.1,0.6,0,0,0.1,0v-0.3v-0.7l0.1-1.4
			c0.4-2.5,1-4.9,1.7-7.3c0.8-2.2,1.7-4.4,2.8-6.4c1.2-2.2,2.7-4.2,4.5-5.9c16,11.7,38.5,8.1,50.1-7.9c4.5-6.1,6.9-13.5,6.9-21.1
			c0-19.8-15.8-36.6-35.6-37c-14.1-0.3-28.7,3.8-42,17.7c-10.7,11.2-19.2,27.1-21.3,44.1c-0.6,4.3-0.8,8.7-0.7,13
			c0.1,4.7,0.6,9.3,1.5,13.9c2.1,9.4,5.8,18.3,11,26.4c5.7,8.8,13.4,16.1,22.5,21.5c4.6,2.8,9.5,5,14.6,6.6
			c5.2,1.7,10.5,2.9,15.9,3.5c5.5,0.6,11.1,0.7,16.7,0.2c2.9-0.3,5.7-0.7,8.5-1.3l1.9-0.4l1.1-0.3l1.1-0.3l4.2-1.2
			c11.5-3.7,21.9-10.2,30.4-18.9c8.8-9.1,15.3-20.1,19.2-32.2c1-3.1,1.9-6.3,2.5-9.5l0.8-4.6c0.3-1.8,0.4-3.3,0.6-4.9
			c0.7-6.4,1.1-12.9,1.1-19.4c0.3-26.1-2.9-53.1-6.4-81.1c-1-8-2.1-16.1-3.2-24.3c18.2-4.2,35.5-11.6,51.1-21.8
			c13.9-9.2,25.9-20.9,35.6-34.4c7.2-10.3,12.8-21.6,16.6-33.5c0.7-1.9,1.2-4.2,1.8-6.3s1.1-4.5,1.4-6l1-5.2l0.8-6.9
			c0.4-4.2,0.6-8.3,0.4-12.5C395.9,1166.4,394.9,1158.2,393,1150.2z M270.9,681.5c0.1,0-0.1,0-0.3,0
			C270.8,681.5,271,681.5,270.9,681.5z M270.4,679.7L270.4,679.7z M244.9,837.7c0-18,0.5-36,1.5-54c0.9-17.9,2.8-35.8,5.8-53.5
			c1.5-8.6,3.4-17.1,5.9-25.5c2.5-8,5.8-15.9,9.6-20.5c0.8-1.1,1.8-1.9,2.9-2.6h0.7c-1,0-0.2,0-0.3,0.1c0.3,0.1,0.6,0.1,0.9,0.2
			c1,0.3,1.9,0.8,2.8,1.4c4.5,2.7,9.5,8.8,13.2,15.6c7.6,13.8,11.7,30.7,13.6,47.5s1.6,34.4,0.2,51.6l-0.6,6.3l-0.8,7
			c-0.6,3.8-1.2,8.2-2,12.2c-1.5,7.9-3.8,15.6-6.6,23.1c-5.6,14.8-14.3,28.6-24.6,42.2c-6.3,8.1-13,16.1-20.1,24
			C245.8,887.9,245,862.9,244.9,837.7L244.9,837.7z M243.9,1290c-7.7-0.2-15.3-1.1-22.9-2.7c-7.7-1.5-15.2-3.7-22.4-6.6l-5.5-2.2
			l-5.4-2.5l-2.7-1.3l-2.4-1.3l-5.5-3c-6.2-4-12.7-8.4-18.1-14c-5.6-5.3-10.5-11.3-14.6-17.9c-4.1-6.5-7.5-13.5-9.9-20.8
			c-2.5-7.3-4.2-15-5-22.7c-0.6-3.8-0.5-7.8-0.8-11.7c0.1-4,0-7.8,0.4-11.8c2.4-31.6,15.6-62.5,33.8-90c9.3-13.9,19.8-27,31.2-39.3
			c5.7-6.2,11.7-12.2,18-18l20-18.8l2.5-2.5c1.8,18.5,3.7,36.9,5.9,55c-0.6,0.2-1.1,0.5-1.6,0.7l-4.4,1.9c-2.7,1.4-5.4,2.6-8,4.1
			c-20.8,11.9-36,29.2-44.3,46.7c-7.5,15.3-10.9,32.3-9.8,49.3c1.1,14.5,5.5,26.4,11,34.6c3.9,6.3,9.4,11.5,15.9,15.1l2.8,1.4
			l2.1,0.7l1.7,0.6l-1.2-1.3c-1.2-1.2-2.3-2.6-3.3-4c-3.6-5.2-6.2-11-7.4-17.2c-1.9-9.5-1.6-19.3,0.7-28.7
			c2.8-12.2,8.3-23.7,16-33.5c9.1-11.5,21.1-20.4,34.7-25.8c0.2-0.1,0.4-0.2,0.6-0.2c2,15.2,4.2,30.2,6.5,45
			c4.8,31.9,10.1,62.9,15.2,92.8c2.6,15,5.1,29.6,7.6,44c0.1,0.8,0.3,1.7,0.4,2.5C265.3,1289.3,254.6,1290.4,243.9,1290L243.9,1290z
			 M356.7,1195c-0.4,22.5-11.1,48.3-32,66.6c-11.5,10.2-25.1,17.9-39.7,22.5c-5.9-43.9-12.3-90.3-17.9-138.7
			c-1.8-15.6-3.6-31.4-5.3-47.5c0.1,0,0.2,0,0.3,0c1.9-0.3,3.8-0.5,5.7-0.6c7.9-0.4,15.9,0.7,23.4,3.3c15.8,5.4,32,17.1,44.5,33.6
			c6.5,8.5,11.6,17.8,15.4,27.8c1.9,5.1,3.4,10.4,4.3,15.8c0.6,2.7,0.8,5.4,1.1,8.2l0.1,2.1l0.1,1v0.5c0,0.8,0.1-0.5,0.1-0.1
			L356.7,1195z"/>
	</g>
	<g>
		<path class="st0" d="M1389.4,435.3V435l-1.2-363.8l0,0V65l-280.3,35l0.4,43.1l1.2,280.2c-14.6-13.9-36.1-22.7-60-22.7
			c-44.1,0-79.8,29.8-79.8,66.5s35.7,65.7,79.8,65.7c43.6,0,79-26.9,79.8-66.1h0.1v0.6c0,0,0-0.1,0-0.2s0-0.1,0-0.2l-1-284.6
			l240.2-32.8l1.1,241.9c-14.6-13.9-36.1-22.8-60.1-22.8c-44.1,0-79.8,29.8-79.8,66.5s35.7,67.4,79.8,67.4c43.6,0,79-28.7,79.8-64.3
			h0.1L1389.4,435.3z M1128.3,160.7l-0.1-19.3l240.2-31.2l0.1,17.7L1128.3,160.7z"/>
	</g>
	<g>
		<polygon class="st0" points="1123.8,203.3 1376.9,172.5 1376.9,203.2 1123.8,230.9 		"/>
	</g>
</g>
</svg>
