<svg id="svg" version="1.1" width="400" height="692.0415224913495" viewBox="0 0 400 692.0415224913495" xmlns="http://www.w3.org/2000/svg" xmlns:xlink="http://www.w3.org/1999/xlink" ><g id="svgg"><path id="path0" d="" stroke="none" fill="#000000" fill-rule="evenodd"></path><path id="path1" d="M198.900 652.676 C 199.285 652.776,199.915 652.776,200.300 652.676 C 200.685 652.575,200.370 652.493,199.600 652.493 C 198.830 652.493,198.515 652.575,198.900 652.676 " stroke="none" fill="#2a2a2a" fill-rule="evenodd"></path><path id="path2" d="M38.400 0.412 C 34.417 1.114,33.791 1.263,31.835 1.971 C 25.250 4.356,19.909 7.481,15.895 11.300 C 15.259 11.905,14.598 12.400,14.425 12.400 C 14.253 12.400,13.772 12.872,13.356 13.449 C 12.940 14.025,12.226 14.880,11.770 15.349 C 8.468 18.733,3.200 27.581,3.200 29.741 C 3.200 30.067,3.033 30.393,2.829 30.467 C 2.248 30.675,0.820 36.626,0.397 40.600 C -0.125 45.502,-0.125 646.498,0.397 651.400 C 0.820 655.374,2.248 661.325,2.829 661.533 C 3.033 661.607,3.206 661.967,3.214 662.333 C 3.221 662.700,3.575 663.720,4.000 664.600 C 4.425 665.480,4.779 666.344,4.786 666.519 C 4.794 666.695,5.520 667.923,6.400 669.248 C 7.280 670.573,8.000 671.815,8.000 672.008 C 8.000 672.202,8.229 672.504,8.510 672.680 C 8.790 672.856,9.305 673.450,9.654 674.000 C 10.004 674.550,10.809 675.563,11.445 676.251 C 12.080 676.939,12.988 677.929,13.462 678.451 C 16.482 681.778,23.044 686.427,27.221 688.198 C 31.836 690.155,34.142 690.876,37.600 691.441 C 41.912 692.146,356.784 692.282,361.200 691.581 C 365.356 690.921,368.944 689.955,369.700 689.291 C 370.085 688.953,370.400 688.784,370.400 688.916 C 370.400 689.326,374.892 687.203,377.068 685.766 C 378.205 685.015,379.320 684.400,379.545 684.400 C 379.770 684.400,380.190 684.078,380.477 683.684 C 380.765 683.290,381.630 682.533,382.400 682.002 C 385.704 679.724,390.168 674.673,392.780 670.257 C 393.319 669.345,393.976 668.380,394.241 668.110 C 394.506 667.841,395.215 666.311,395.818 664.710 C 396.421 663.110,397.105 661.440,397.338 661.000 C 397.571 660.560,397.800 660.020,397.846 659.800 C 397.893 659.580,398.259 658.230,398.660 656.800 C 399.691 653.128,400.029 43.458,399.004 37.507 C 398.289 33.354,395.659 26.197,393.820 23.400 C 393.097 22.300,392.385 21.011,392.237 20.536 C 392.090 20.060,391.526 19.381,390.984 19.027 C 390.443 18.672,389.994 18.161,389.987 17.891 C 389.969 17.230,388.580 15.600,388.036 15.600 C 387.796 15.600,387.600 15.365,387.600 15.078 C 387.600 14.587,383.475 10.400,382.991 10.400 C 382.758 10.400,382.056 9.857,380.881 8.770 C 380.506 8.423,379.480 7.713,378.600 7.191 C 377.720 6.669,376.904 6.105,376.787 5.938 C 375.901 4.674,366.796 1.334,362.200 0.588 C 358.192 -0.063,42.066 -0.235,38.400 0.412 M283.901 37.164 C 292.725 38.871,292.439 51.163,283.537 52.809 C 279.598 53.537,122.941 53.138,121.102 52.395 C 114.379 49.680,114.862 39.259,121.800 37.343 C 123.721 36.813,281.185 36.639,283.901 37.164 M364.800 315.600 L 364.800 540.000 200.000 540.000 L 35.200 540.000 35.200 315.600 L 35.200 91.200 200.000 91.200 L 364.800 91.200 364.800 315.600 M205.464 591.756 C 207.598 592.076,210.104 592.762,211.464 593.398 C 212.749 593.998,214.430 594.784,215.200 595.144 C 215.970 595.505,216.744 596.025,216.920 596.300 C 217.096 596.575,217.759 597.069,218.394 597.397 C 219.527 597.983,224.400 602.525,224.400 602.995 C 224.400 603.126,224.750 603.609,225.178 604.069 C 225.606 604.528,226.461 605.916,227.078 607.152 C 227.695 608.388,228.328 609.496,228.484 609.614 C 230.357 611.023,231.455 623.524,230.195 629.083 C 228.442 636.810,222.310 644.909,215.478 648.522 C 210.586 651.108,209.183 651.515,201.453 652.595 C 196.317 653.312,185.717 650.225,181.389 646.752 C 179.120 644.930,175.200 640.985,175.200 640.522 C 175.200 640.221,174.965 639.885,174.678 639.774 C 174.390 639.664,173.626 638.545,172.980 637.287 C 172.333 636.029,171.695 634.910,171.562 634.800 C 170.246 633.717,168.808 625.730,169.004 620.600 C 169.270 613.617,172.579 604.883,175.779 602.715 C 176.010 602.558,176.200 602.257,176.200 602.045 C 176.200 601.483,179.442 598.585,181.670 597.155 C 182.732 596.474,183.600 595.755,183.600 595.558 C 183.600 595.361,183.735 595.228,183.900 595.263 C 184.164 595.318,187.558 593.888,189.800 592.776 C 192.669 591.354,199.728 590.895,205.464 591.756 " stroke="none" fill="#3e3e3e" fill-rule="evenodd"></path><path id="path3" d="" stroke="none" fill="#555555" fill-rule="evenodd"></path><path id="path4" d="" stroke="none" fill="#7f7f7f" fill-rule="evenodd"></path></g></svg>