<svg xmlns="http://www.w3.org/2000/svg" viewBox="0 0 1500 1500"><defs><style>.cls-1{fill:#404040;}</style></defs><title>Iconos finales</title><g id="experiencias"><path class="cls-1" d="M750,1432a23,23,0,0,1-18.29-9.06c-69.07-90.63-171.77-231.29-268.82-386.75C324.45,814.47,254.25,651,254.25,550.45,254.25,284.41,476.64,68,750,68s495.75,216.43,495.75,482.47c0,52-18.81,121.15-55.91,205.66-34.74,79.15-86.13,173.37-152.73,280.05-96.92,155.27-199.68,296-268.81,386.8A23,23,0,0,1,750,1432Zm0-1318c-248,0-449.75,195.8-449.75,436.47,0,45.56,17.51,108.54,52,187.2,33.86,77.15,84.2,169.4,149.63,274.2,87.88,140.77,180.52,269.4,248.09,359.09,67.63-89.8,160.32-218.52,248.09-359.14h0c65.44-104.81,115.78-197.06,149.63-274.18,34.52-78.64,52-141.62,52-187.17C1199.75,309.78,998,114,750,114Zm5.93,664.55C611,778.53,493,663.18,493,521.41S611,264.34,755.93,264.34s262.94,115.32,262.94,257.07S900.92,778.53,755.93,778.53Zm0-468.19C636.31,310.34,539,405,539,521.41s97.32,211.12,216.94,211.12,216.94-94.71,216.94-211.12S875.55,310.34,755.93,310.34Z"/></g></svg>