<svg id="Layer_1" data-name="Layer 1" xmlns="http://www.w3.org/2000/svg" viewBox="0 0 1500 1500"><defs><style>.cls-1{fill:#ea0029;}.cls-2{fill:#fff;}.cls-3{fill:#4a4a4a;}</style></defs><title>Artboard 4 copy1</title><path class="cls-1" d="M695.56,1440a22.67,22.67,0,0,1-18-8.93c-68.07-89.33-169.3-228-264.95-381.18C276.13,831.36,206.94,670.24,206.94,571.14c0-262.21,219.19-475.51,488.62-475.51S1184.17,309,1184.17,571.16c0,51.25-18.54,119.4-55.1,202.7-34.24,78-84.89,170.87-150.53,276-95.53,153-196.81,291.74-264.95,381.23A22.66,22.66,0,0,1,695.56,1440Z"/><path class="cls-2" d="M695.59,141c-244.43,0-443.28,193-443.28,430.19,0,44.9,17.26,107,51.25,184.5,33.37,76,83,167,147.48,270.26,86.61,138.74,177.92,265.52,244.52,353.92,66.65-88.51,158-215.38,244.52-354h0c64.5-103.3,114.11-194.23,147.47-270.24,34-77.5,51.26-139.58,51.26-184.47C1138.86,333.93,940,141,695.59,141Z"/><path class="cls-3" d="M701.43,796c-142.84,0-259.14-113.7-259.14-253.43s116.3-253.37,259.14-253.37S960.59,402.81,960.59,542.52,844.34,795.93,701.43,795.93Z"/></svg>