<svg xmlns="http://www.w3.org/2000/svg" viewBox="0 0 1500 1500"><defs><style>.cls-1{fill:#404040;}</style></defs><title>Iconos finales</title><g id="experiencias"><path class="cls-1" d="M747.82,219.07c188.07,0,341.09,153,341.09,341.1s-153,341.09-341.09,341.09-341.11-153-341.11-341.09,153-341.1,341.11-341.1m0-46c-214.24,0-387.11,174.34-387.11,387.1S533.58,947.26,747.82,947.26s387.09-174.32,387.09-387.09S962,173.07,747.82,173.07Z"/><path class="cls-1" d="M844.09,88.89l55.44,75.81a28.55,28.55,0,0,0,21.35,10.47,20.89,20.89,0,0,0,3.46-.28l93.38-14.56,21.88,91.83c2.91,10.21,10.21,17.5,19,19L1150.46,293l-14.58,93.3c-1.46,10.19,2.92,18.95,10.22,24.77L1222,466.45l-51.08,80.18a31,31,0,0,0,0,27.7l49.62,80.19-75.87,55.4c-7.3,5.82-11.68,16-10.22,24.77L1149,828l-91.92,21.89c-10.22,2.91-17.51,10.21-19,18.94l-21.89,91.86-93.38-14.59a27.27,27.27,0,0,0-3.88-.28c-8.55,0-15.84,4.15-20.93,10.47l-55.43,75.83L762.4,982.52a21.93,21.93,0,0,0-26.27,0l-80.22,49.57-55.44-75.83a28.65,28.65,0,0,0-21.36-10.47,20.77,20.77,0,0,0-3.45.28l-93.38,14.59L460.4,868.8c-2.93-10.19-10.21-17.5-19-18.94L349.52,828l14.6-93.28c1.44-10.2-2.92-19-10.23-24.77L278,654.52l49.62-80.19a31,31,0,0,0,0-27.7L278,466.45l75.86-55.39c7.31-5.82,11.67-16.05,10.23-24.77L349.52,293l91.91-21.87c10.22-2.93,17.51-10.21,19-19l21.88-91.83,93.38,14.56a27.3,27.3,0,0,0,3.89.28c8.53,0,15.83-4.13,20.92-10.47l55.44-75.81,80.22,49.55a30.78,30.78,0,0,0,27.73,0l80.23-49.55m-188.15-46a45.94,45.94,0,0,0-37.16,18.85l-48.14,65.81-81.27-12.67a45.36,45.36,0,0,0-7.13-.56,46,46,0,0,0-44.7,35.34l-19,79.62-79.69,18.95a46,46,0,0,0-34.8,51.87l12.7,81.11L250.91,429.3a46,46,0,0,0-12,61.35l43.21,69.83-43.21,69.83a46,46,0,0,0,12,61.35l65.86,48.11-12.69,81.09a46,46,0,0,0,34.79,51.86l79.7,19,19,79.62a46,46,0,0,0,44.7,35.34,45.48,45.48,0,0,0,7.14-.56l81.26-12.69,48.13,65.83a46,46,0,0,0,61.31,12l69.19-42.74,69.19,42.74a46,46,0,0,0,61.31-12l48.13-65.83,81.26,12.69a45.48,45.48,0,0,0,7.14.56,46,46,0,0,0,44.7-35.34l19-79.62,79.7-19a46,46,0,0,0,34.79-51.86l-12.69-81.1,65.86-48.1a46,46,0,0,0,12-61.35l-43.12-69.67,44.26-69.48a46,46,0,0,0-11.68-61.87l-65.86-48.08,12.68-81.12a46,46,0,0,0-34.8-51.86l-79.67-18.95-19-79.62a46,46,0,0,0-44.7-35.34,45.36,45.36,0,0,0-7.13.56l-81.27,12.67L881.22,61.74a46,46,0,0,0-61.3-12L750,92.94,680.08,49.76a45.82,45.82,0,0,0-24.14-6.87Z"/><path class="cls-1" d="M928.73,998.55l35,5.84v405.55L763.86,1249.28a28.75,28.75,0,0,0-16.6-5.44,24.14,24.14,0,0,0-15.51,5.44L530.42,1411.11V1005.85l35-5.84,59.8,83.09c4.39,7.3,13.15,10.21,20.43,10.21a23.56,23.56,0,0,0,13.13-4.37l87.55-52.48,87.53,52.48a25.56,25.56,0,0,0,13.58,4c8,0,15.88-3.87,21.43-11.25l59.83-83.11m0-46a46,46,0,0,0-37.33,19.13l-49.33,68.53L770,997a46,46,0,0,0-47.3,0l-71.78,43-48.14-66.89a46,46,0,0,0-44.9-18.5l-35,5.84a46,46,0,0,0-38.44,45.37v405.26A46,46,0,0,0,559.24,1447l188.57-151.57,187.11,150.4a46,46,0,0,0,74.82-35.85V1004.39A46,46,0,0,0,971.3,959l-35-5.83a45.14,45.14,0,0,0-7.57-.63Z"/><path class="cls-1" d="M880.68,773a27.71,27.71,0,0,1-12.92-3.21L755.24,710.65a11.27,11.27,0,0,0-10.47,0L632.24,769.81A27.71,27.71,0,0,1,592,740.6l21.49-125.3a11.23,11.23,0,0,0-3.24-10l-91-88.73a27.71,27.71,0,0,1,15.36-47.26l125.8-18.28a11.24,11.24,0,0,0,8.47-6.16l56.26-114a27.71,27.71,0,0,1,49.7,0h0l56.26,114a11.22,11.22,0,0,0,8.47,6.16l125.8,18.28a27.71,27.71,0,0,1,15.36,47.26l-91,88.73a11.23,11.23,0,0,0-3.24,10L908,740.6A27.76,27.76,0,0,1,880.68,773ZM750,663.36a57.16,57.16,0,0,1,26.64,6.58l79.72,41.9-15.23-88.76A57.26,57.26,0,0,1,857.6,572.4l64.49-62.86-89.13-13a57.23,57.23,0,0,1-43.1-31.32L750,384.51l-39.86,80.76A57.25,57.25,0,0,1,667,496.59l-89.12,13L642.4,572.4a57.26,57.26,0,0,1,16.47,50.68l-15.23,88.76,79.72-41.9A57.16,57.16,0,0,1,750,663.36ZM958.76,514.87h0ZM733.6,351.27h0Z"/></g></svg>