<svg xmlns="http://www.w3.org/2000/svg" viewBox="0 0 1500 1500"><defs><style>.cls-1{fill:#404040;}</style></defs><title>Iconos finales</title><g id="oso"><path class="cls-1" d="M749.39,1342.73c-62.6,0-139.46-3.07-185.55-26.09-26.83,17-59.75,25.93-96,25.93a235.06,235.06,0,0,1-27.36-1.63c-54.88-6.42-109.47-31.39-153.71-70.3-53.22-46.8-84-107.05-84.43-165.29-.32-41.81,15.75-79.56,45.24-106.3,24.05-21.8,55.27-35.25,90.7-39.52-5.43-19.74-4.63-44,2.61-71,10-37.47,31.53-77.33,60.52-112.23a313.46,313.46,0,0,1,38.4-39,351.65,351.65,0,0,1-52.3-80.7,330.39,330.39,0,0,1-27.25-191.94C288.12,456.08,232,394.57,232,320.2c0-80.2,65.25-145.45,145.45-145.45a145.57,145.57,0,0,1,121.24,65.06c70.56-53.42,158.7-82.54,251.31-82.54s180.77,29.12,251.32,82.53a145.6,145.6,0,0,1,121.24-65.05C1202.75,174.75,1268,240,1268,320.2c0,74.37-56.11,135.88-128.22,144.42a330.39,330.39,0,0,1-27.25,191.94,351.88,351.88,0,0,1-52.29,80.69,313.66,313.66,0,0,1,38.4,39c29,34.89,50.48,74.75,60.52,112.23,7.24,27,8,51.27,2.6,71,35.44,4.27,66.64,17.72,90.69,39.53,29.49,26.73,45.56,64.48,45.24,106.29-.44,58.24-31.21,118.49-84.43,165.29-44.24,38.91-98.83,63.88-153.71,70.3-47.08,5.51-90-3.08-123.39-24.3-46.16,23-123.25,26.07-185.75,26.09ZM601.27,1282.2c46,14.59,119.11,14.55,149.12,14.53,27,0,101.92,0,148.3-14.58-18.17-24.34-27.83-54.39-27.58-86.89.44-58.25,31.21-118.5,84.43-165.3a302.08,302.08,0,0,1,34.32-26.08c-4.82-18.81-12.29-47.24-14.54-54.19a432.48,432.48,0,0,0-23.49-57.76A400.57,400.57,0,0,0,921,839.59c-52.66,23.13-110.79,35.35-171,35.35s-118.28-12.22-170.94-35.35a399.29,399.29,0,0,0-30.88,52.33,428.71,428.71,0,0,0-23.48,57.75c-2.23,6.88-9.73,35.45-14.55,54.22A299.84,299.84,0,0,1,544.46,1030c53.22,46.8,84,107,84.43,165.3C629.14,1227.78,619.47,1257.85,601.27,1282.2ZM363.41,1004c-34.31,0-64,10-85,29.09h0c-19.94,18.08-30.36,42.93-30.14,71.87.33,44.49,26.06,93.5,68.81,131.1,37.29,32.8,83,53.81,128.68,59.15a189.22,189.22,0,0,0,22,1.32c34.31,0,63.95-10,84.95-29.08,19.94-18.09,30.36-42.94,30.14-71.88-.34-44.5-26.06-93.51-68.81-131.11-37.29-32.79-83-53.8-128.68-59.14A189,189,0,0,0,363.41,1004Zm773.18,0a189,189,0,0,0-22,1.32c-45.69,5.34-91.39,26.35-128.68,59.14-42.75,37.6-68.47,86.61-68.81,131.11-.22,28.94,10.2,53.79,30.14,71.88,25.37,23,63.35,32.87,107,27.76,45.69-5.34,91.39-26.35,128.68-59.15,42.75-37.6,68.48-86.61,68.81-131.1.22-28.94-10.2-53.79-30.14-71.87h0C1200.55,1014.08,1170.9,1004,1136.59,1004ZM263,1016.09h0Zm126.11-56.61,1.63.19a269.77,269.77,0,0,1,77.76,21.57c4.57-17.64,10.16-38.71,12.43-45.73a475.23,475.23,0,0,1,26-64,449.4,449.4,0,0,1,30.79-53,392.43,392.43,0,0,1-65.36-47.89l-.38-.33a265.34,265.34,0,0,0-35.22,35.38c-24.83,29.9-43.11,63.55-51.46,94.75-7,26-6.05,47.45,2.47,57.35C388.24,958.32,388.69,958.9,389.11,959.48Zm573.18-141a451.06,451.06,0,0,1,30.79,53.06,478.26,478.26,0,0,1,26,63.93c2.3,7.1,7.88,28.12,12.45,45.73a269.85,269.85,0,0,1,77.74-21.56l1.65-.19c.42-.59.87-1.16,1.34-1.71,8.52-9.9,9.45-31.34,2.48-57.35-8.36-31.2-26.64-64.85-51.47-94.74a265.59,265.59,0,0,0-35.23-35.4l-.38.34A392.43,392.43,0,0,1,962.29,818.51ZM388.23,419.16a23,23,0,0,1,22.32,28.55,284.05,284.05,0,0,0-8.37,68.39c0,83.13,35.89,161.41,101.05,220.43C569,796.12,656.67,828.94,750,828.94s181-32.82,246.78-92.41c65.16-59,101-137.3,101-220.43a284.69,284.69,0,0,0-8.37-68.4,23,23,0,0,1,24.28-28.46c3.08.27,6,.4,8.82.4A99.43,99.43,0,1,0,1030,283.83a23,23,0,0,1-36.61,8.83C928,235,841.53,203.27,750,203.27S572.07,235,506.65,292.67A23,23,0,0,1,470,283.84a99.46,99.46,0,1,0-92.59,135.8c2.91,0,5.85-.13,8.75-.39C386.88,419.19,387.56,419.16,388.23,419.16ZM750,792.42c-56.18,0-109.3-15.48-149.56-43.59-42.77-29.87-66.33-70.38-66.33-114.09s23.56-84.22,66.33-114.09c40.26-28.11,93.38-43.59,149.56-43.59s109.31,15.48,149.57,43.59C942.34,550.51,965.9,591,965.9,634.74S942.34,719,899.57,748.83C859.31,776.94,806.19,792.42,750,792.42Zm0-167.23a23,23,0,0,1,23,23v97.2c38.06-3.41,73-15.28,100.24-34.28,30.09-21,46.66-48.13,46.66-76.37s-16.57-55.36-46.67-76.38c-32.6-22.76-76.37-35.3-123.23-35.3s-90.62,12.54-123.22,35.3c-30.1,21-46.67,48.14-46.67,76.38s16.57,55.36,46.66,76.37C654,730.11,689,742,727,745.39v-97.2A23,23,0,0,1,750,625.19Z"/><path class="cls-1" d="M878.48,548.26a46.36,46.36,0,1,1,46.35-46.35A46.41,46.41,0,0,1,878.48,548.26Zm0-46.71a.36.36,0,1,0,0,.71.36.36,0,0,0,0-.71Z"/><path class="cls-1" d="M621.52,548.26a46.36,46.36,0,1,1,46.36-46.35A46.41,46.41,0,0,1,621.52,548.26Zm0-46.71a.36.36,0,0,0,0,.71.36.36,0,0,0,.36-.35A.36.36,0,0,0,621.52,501.55Z"/><path class="cls-1" d="M750,593.06c23.67,0,42.86,6.24,42.86,13.94S773.67,620.94,750,620.94,707.15,614.7,707.15,607s19.19-13.94,42.85-13.94m0-46c-16.38,0-31.78,2.19-44.53,6.34a76.53,76.53,0,0,0-23,11.71c-13.55,10.42-21.32,25.69-21.32,41.89s7.77,31.46,21.32,41.89a76.3,76.3,0,0,0,23,11.71c12.75,4.15,28.15,6.34,44.53,6.34s31.79-2.19,44.54-6.34a76.3,76.3,0,0,0,23-11.71c13.55-10.43,21.32-25.69,21.32-41.89s-7.77-31.47-21.32-41.89a76.53,76.53,0,0,0-23-11.71c-12.75-4.15-28.15-6.34-44.54-6.34Z"/></g></svg>