<svg xmlns="http://www.w3.org/2000/svg" viewBox="0 0 1500 1500"><defs><style>.cls-1{fill:#404040;}</style></defs><title>Iconos finales</title><g id="promo"><path class="cls-1" d="M752.48,1414.46a82.41,82.41,0,0,1-68-35.75c-.06-.08-.11-.16-.16-.24l-72.32-108-.12-.18c-8.49-12.95-25.79-18.85-41.13-14l-139.32,43.76a82.62,82.62,0,0,1-107.21-84l8.48-133.89a36.72,36.72,0,0,0-26.59-37.49l-125.83-35.34a82.41,82.41,0,0,1-47.78-122.73l79.24-127.93a36.62,36.62,0,0,0-.77-39.72L134.42,605.46a82.5,82.5,0,0,1,40.84-123.92l132.7-47a36.6,36.6,0,0,0,24.34-34.45V265.32A82.55,82.55,0,0,1,443,187.73l125.29,45.48a36.77,36.77,0,0,0,42.62-13.47L681.85,119l.45-.63a82.83,82.83,0,0,1,134,2.49l72.82,104.16a36.77,36.77,0,0,0,42.62,13.47L1057,193.05a82.55,82.55,0,0,1,110.72,77.59V405.41A36.62,36.62,0,0,0,1192,439.87l132.7,47a82.5,82.5,0,0,1,40.84,123.92L1289,724.25a36.62,36.62,0,0,0-.77,39.72l79.24,127.93a82.41,82.41,0,0,1-47.78,122.73L1193.88,1050a36.72,36.72,0,0,0-26.59,37.49l8.48,133.89a82.62,82.62,0,0,1-107.21,84l-139.32-43.76a36.84,36.84,0,0,0-41.69,14.88l-66,100.69a82.43,82.43,0,0,1-68.1,37.26Zm-30-61.72a36,36,0,0,0,30,15.72h.43A36,36,0,0,0,783,1352l66.05-100.69A83,83,0,0,1,943,1217.74l139.32,43.76a36.61,36.61,0,0,0,47.51-37.24l-8.48-133.9a82.55,82.55,0,0,1,60.06-84.68l125.83-35.34a36.4,36.4,0,0,0,21.11-54.22l-79.24-127.93a82.7,82.7,0,0,1,1.75-89.67l76.56-113.47a36.51,36.51,0,0,0-18.07-54.83l-132.69-47a82.68,82.68,0,0,1-55-77.82V270.64a36.55,36.55,0,0,0-49-34.35L947.39,281.77a82.79,82.79,0,0,1-96-30.36L778.55,147.26a36.82,36.82,0,0,0-59.34-1.38L648.58,246.16a82.8,82.8,0,0,1-96,30.29L427.32,231a36.55,36.55,0,0,0-49,34.35V400.09a82.68,82.68,0,0,1-55,77.82l-132.69,47a36.51,36.51,0,0,0-18.07,54.83l76.56,113.46a82.72,82.72,0,0,1,1.75,89.68L171.62,910.8A36.4,36.4,0,0,0,192.73,965l125.83,35.34A82.55,82.55,0,0,1,378.62,1085l-8.48,133.9a36.61,36.61,0,0,0,47.51,37.24L557,1212.42c35.08-11,73.43,2.38,93.31,32.58Z"/><path class="cls-1" d="M576.79,739.42A94.51,94.51,0,1,1,597.9,737,94.56,94.56,0,0,1,576.79,739.42Zm0-142.8a48.38,48.38,0,0,0-47.17,59.21,48.39,48.39,0,1,0,47.17-59.21Z"/><path class="cls-1" d="M587,1031.92a23,23,0,0,1-19.46-35.22L889.3,483.42a23,23,0,1,1,39,24.43L606.49,1021.14A23,23,0,0,1,587,1031.92Z"/><path class="cls-1" d="M918.81,954a94.66,94.66,0,1,1,21.28-2.42A95.22,95.22,0,0,1,918.81,954Zm.27-142.84a48.88,48.88,0,0,0-10.91,1.24,48.4,48.4,0,1,0,58,36.36h0a48.43,48.43,0,0,0-47.08-37.6Z"/></g></svg>