<svg xmlns="http://www.w3.org/2000/svg" viewBox="0 0 1500 1500"><defs><style>.cls-1{fill:#404040;}</style></defs><title>Iconos finales</title><g id="experiencias"><path class="cls-1" d="M1198.07,1336.71H301.92c-53.86,0-97.67-43.91-97.67-97.88V812.55H189.9a60.46,60.46,0,0,1-60.34-60.43V564.91c0-54,43.82-97.89,97.69-97.89h1045.5c53.87,0,97.69,43.92,97.69,97.89V752.12a60.46,60.46,0,0,1-60.34,60.43h-14.35v426.28C1295.75,1292.8,1251.93,1336.71,1198.07,1336.71ZM227.25,513a51.85,51.85,0,0,0-51.69,51.89V752.12a14.41,14.41,0,0,0,14.34,14.43h60.35v472.28a51.83,51.83,0,0,0,51.67,51.88h896.15a51.83,51.83,0,0,0,51.68-51.88V766.55h60.35a14.41,14.41,0,0,0,14.34-14.43V564.91A51.85,51.85,0,0,0,1272.75,513Z"/><path class="cls-1" d="M776.19,507.33c-16.66,0-28.45-3.49-35-10.37h0c-11.5-12-13.92-31.21-7.84-62.26,4.3-22,12.8-49,24.56-78.11,26.21-64.83,61.28-123.17,93.8-156.07l0,0c23.45-23.63,56.78-37.19,91.44-37.19h0c34.67,0,68,13.56,91.45,37.19,50.42,51.08,50.42,134.12,0,185.15-23.28,23.58-68.29,53.49-117.45,78.07C884.6,480,823,507.33,776.19,507.33Zm0-46h0c27.25,0,71.14-14.13,120.42-38.77,44.28-22.14,85.61-49.33,105.29-69.25,32.78-33.21,32.78-87.25,0-120.47-14.84-15-36.27-23.55-58.76-23.55h0c-22.47,0-43.88,8.59-58.76,23.56h0c-26.51,26.83-56.39,76-79.92,131.47-10.59,25-18.77,48.72-23.67,68.67C777.37,447,776.34,455.91,776.15,461.33Z"/><path class="cls-1" d="M723.85,507.33c-46.74,0-108.39-27.23-141-43.46-49.17-24.49-94.18-54.29-117.46-77.78C415,335.21,415,252.4,465.41,201.51h0a128.55,128.55,0,0,1,182.91,0C680.87,234.27,716,292.41,742.16,357c11.77,29,20.26,55.94,24.55,77.86,6,30.58,3.46,50.34-8,62.17l-1.12,1.16-1.26,1C751.62,502.9,742.12,507.33,723.85,507.33Zm-.39-38.95ZM498.07,233.91a85.33,85.33,0,0,0,0,119.8c19.67,19.85,61,46.92,105.3,69,49.3,24.56,93.21,38.64,120.47,38.64h0c-.19-5.4-1.21-14.32-4.64-28.23-4.89-19.86-13.07-43.5-23.65-68.36-23.51-55.23-53.38-104.14-79.88-130.83a82.56,82.56,0,0,0-117.61,0ZM732,460.59Z"/><rect class="cls-1" x="227.25" y="766.55" width="1045.51" height="46"/><rect class="cls-1" x="727" y="509.25" width="46" height="804.46"/></g></svg>