<svg xmlns="http://www.w3.org/2000/svg" viewBox="0 0 1500 1500"><defs><style>.cls-1{fill:#404040;}</style></defs><title>Iconos finales</title><g id="tienda"><path class="cls-1" d="M1377.24,1220.2H113.42a23,23,0,0,1-23-23V693.58a23,23,0,0,1,46,0V1174.2H1354.24V711.82a23,23,0,1,1,46,0V1197.2A23,23,0,0,1,1377.24,1220.2Z"/><g id="Shape"><path class="cls-1" d="M1254.52,755.68c-68.6,0-131-30.68-168.54-80.63-38.64,50.52-99.88,80.63-167.73,80.63-42.49,0-83-11.13-117.16-32.2a194.68,194.68,0,0,1-53.67-48.6,204.53,204.53,0,0,1-54.36,48.6c-34.15,21.07-74.09,32.2-115.5,32.2-68.08,0-129.51-30.32-168.13-81.15-38.62,50.83-100.05,81.15-168.14,81.15-84.73,0-162.51-46.39-193.54-115.44a23,23,0,0,1-2-9.43V308.91a23,23,0,0,1,22.9-23L1427,279.8a23,23,0,0,1,23.09,22.3c0,.78,2.37,78.95,3.54,158.15,2.35,159.3-1.75,173.22-6,181-15.27,33.44-41.18,61.91-75,82.38C1337.93,744.58,1297.09,755.68,1254.52,755.68ZM1086.38,607.81h.36a23,23,0,0,1,20.63,13.57c24.1,53.63,81.86,88.29,147.15,88.29,34.17,0,66.77-8.8,94.28-25.45,25.83-15.64,45.49-37.07,56.92-62,4.11-21.15,2.78-162.28-1-296.32l-1313,5.91V625.65c11.48,23,31.22,43.65,56,58.53a181.76,181.76,0,0,0,93.53,25.5c64.25,0,120.75-34.08,147.46-88.93a23,23,0,0,1,41.36,0c26.7,54.85,83.2,88.93,147.45,88.93,32.87,0,64.46-8.76,91.35-25.35,25.59-15.78,45.75-37.77,58.32-63.58a23,23,0,0,1,41.66.64c11.45,25.5,30.94,47.26,56.35,62.94,26.89,16.59,59,25.35,93,25.35,64.25,0,120.75-34.08,147.46-88.93A23,23,0,0,1,1086.38,607.81Zm320.7,11.65,0,0Z"/></g><g id="Shape-2" data-name="Shape"><path class="cls-1" d="M409.73,663.69a23,23,0,0,1-23-23V308.91a23,23,0,0,1,46,0V640.69A23,23,0,0,1,409.73,663.69Z"/></g><g id="Shape-3" data-name="Shape"><path class="cls-1" d="M745.33,663.69a23,23,0,0,1-23-23V308.91a23,23,0,1,1,46,0V640.69A23,23,0,0,1,745.33,663.69Z"/></g><g id="Shape-4" data-name="Shape"><path class="cls-1" d="M1086.25,663.69a23,23,0,0,1-23-23V308.91a23,23,0,0,1,46,0V640.69A23,23,0,0,1,1086.25,663.69Z"/></g><path class="cls-1" d="M1162.66,1217.61a23,23,0,0,1-23-23V814.77H922.84v379.84a23,23,0,0,1-46,0V791.77a23,23,0,0,1,23-23h262.82a23,23,0,0,1,23,23v402.84A23,23,0,0,1,1162.66,1217.61Z"/><path class="cls-1" d="M801.19,1083.35H309a23,23,0,0,1-23-23V812.14a23,23,0,0,1,23-23H801.19a23,23,0,0,1,23,23v248.21A23,23,0,0,1,801.19,1083.35Zm-469.19-46H778.19V835.14H332Z"/></g></svg>