<?xml version="1.0" encoding="UTF-8"?>
<svg width="13px" height="13px" viewBox="0 0 13 13" version="1.1" xmlns="http://www.w3.org/2000/svg" xmlns:xlink="http://www.w3.org/1999/xlink">
    <!-- Generator: Sketch 51.3 (57544) - http://www.bohemiancoding.com/sketch -->
    <title>Path Copy 2</title>
    <desc>Created with Sketch.</desc>
    <defs></defs>
    <g id="fase2" stroke="none" stroke-width="1" fill="none" fill-rule="evenodd">
        <g id="Landing-clasicosdesktop-fase3" transform="translate(-339.000000, -5499.000000)" fill="#FF1628">
            <g id="Group-4" transform="translate(66.000000, 5469.000000)">
                <g id="Group-5" transform="translate(273.000000, 30.000000)">
                    <path d="M3.10078355,12.7429192 L5.9348876,11.2515029 C6.20930373,11.1070945 6.64977767,11.1079863 6.92249911,11.2515029 L9.75660317,12.7429192 C10.2889432,13.0230573 10.6498871,12.769507 10.5468565,12.1682118 L10.0055907,9.00934145 C9.95318192,8.70347947 10.0901433,8.28443461 10.3107794,8.06915964 L12.6036178,5.83203533 C13.0342899,5.41182799 12.9049199,4.98986698 12.3017679,4.90213922 L9.1331433,4.44126626 C8.82633678,4.39664157 8.47050951,4.13676582 8.33414874,3.8602019 L6.91709682,0.986166761 C6.65092675,0.44632624 6.21002775,0.439090324 5.94028989,0.986166761 L4.52323797,3.8602019 C4.38602985,4.13848429 4.02915526,4.39691713 3.72424342,4.44126626 L0.555618844,4.90213922 C-0.0395555312,4.98870661 -0.182675938,5.40619563 0.253768879,5.83203533 L2.54660729,8.06915964 C2.7686145,8.28577235 2.90388116,8.70536833 2.85179598,9.00934145 L2.31053023,12.1682118 C2.2088623,12.7615539 2.56130804,13.0268122 3.10078355,12.7429192 Z" id="Path-Copy-2"></path>
                </g>
            </g>
        </g>
    </g>
</svg>