<?xml version="1.0" encoding="UTF-8"?>
<svg width="34px" height="55px" viewBox="0 0 34 55" version="1.1" xmlns="http://www.w3.org/2000/svg" xmlns:xlink="http://www.w3.org/1999/xlink">
    <!-- Generator: Sketch 51.3 (57544) - http://www.bohemiancoding.com/sketch -->
    <title>Group 3</title>
    <desc>Created with Sketch.</desc>
    <defs></defs>
    <g id="Page-1" stroke="none" stroke-width="1" fill="none" fill-rule="evenodd">
        <g id="Landing-clasicosdesktop" transform="translate(-765.000000, -4891.000000)">
            <g id="Group-3" transform="translate(765.000000, 4891.000000)">
                <g id="noun_Favorite_1327732" fill="#FF1628" fill-rule="nonzero">
                    <g id="Group">
                        <g id="Shape">
                            <path d="M2.47165198,53.6836634 C1.44191207,54.5473886 0.607142857,54.1561922 0.607142857,52.7938189 L0.607142857,3.06486864 C0.607142857,1.70969578 1.69798222,0.611111111 3.04461488,0.611111111 L30.9553851,0.611111111 C32.3015638,0.611111111 33.3928571,1.70249518 33.3928571,3.06486864 L33.3928571,52.7938189 C33.3928571,54.1489916 32.557396,54.5468082 31.528348,53.6836634 L17.92832,42.2762324 C17.415623,41.8461925 16.5783076,41.8512835 16.07168,42.2762324 L2.47165198,53.6836634 Z"></path>
                        </g>
                    </g>
                </g>
                <path d="M12.293114,24.8418544 L16.2170035,22.7769505 C16.5969396,22.5770134 17.2067871,22.5782481 17.5843768,22.7769505 L21.5082663,24.8418544 C22.2453047,25.2297128 22.7450407,24.8786659 22.6023922,24.0461574 L21.8529959,19.6726207 C21.7804346,19.2491469 21.9700611,18.6689686 22.2755375,18.3709149 L25.4500308,15.2735592 C26.0463074,14.6917714 25.8671912,14.1075556 25.0321119,13.9860943 L20.6450702,13.3480039 C20.2202887,13.2862199 19.7276368,12.9264152 19.5388418,12.5435054 L17.5768972,8.56433036 C17.208378,7.81690737 16.5979421,7.80688906 16.2244831,8.56433036 L14.2625385,12.5435054 C14.0725704,12.9287945 13.5784684,13.2866014 13.1563101,13.3480039 L8.76926848,13.9860943 C7.94523436,14.105949 7.7470805,14.6839732 8.35134949,15.2735592 L11.5258428,18.3709149 C11.8332175,18.6708208 12.0204976,19.2517621 11.9483844,19.6726207 L11.1989881,24.0461574 C11.0582263,24.8676546 11.5461964,25.2349116 12.293114,24.8418544 Z" id="Path-Copy-2" fill="#FFFFFF"></path>
            </g>
        </g>
    </g>
</svg>