<?xml version="1.0" encoding="UTF-8"?>
<svg width="51px" height="73px" viewBox="0 0 51 73" version="1.1" xmlns="http://www.w3.org/2000/svg" xmlns:xlink="http://www.w3.org/1999/xlink">
    <!-- Generator: Sketch 51.3 (57544) - http://www.bohemiancoding.com/sketch -->
    <title>Group 4</title>
    <desc>Created with Sketch.</desc>
    <defs></defs>
    <g id="Page-1" stroke="none" stroke-width="1" fill="none" fill-rule="evenodd">
        <g id="Landing-clasicosdesktop" transform="translate(-1066.000000, -5139.000000)">
            <g id="Group-4" transform="translate(1066.000000, 5139.000000)">
                <g id="Group-6-Copy-2" fill="#FF1628" fill-rule="nonzero">
                    <g id="noun_Location_1355745-Copy-2">
                        <path d="M25.5,0 C16.2366702,0.000487542533 7.70207912,5.19190146 3.20568354,13.5611682 C-1.29071205,21.930435 -1.04170481,32.1612098 3.85614777,40.2863071 L25.5,73 L47.1438522,40.2863071 C52.0417048,32.1612098 52.2907121,21.930435 47.7943165,13.5611682 C43.2979209,5.19190146 34.7633298,0.000487542533 25.5,0 Z" id="Shape"></path>
                    </g>
                </g>
                <path d="M18.7528175,36.7488276 L24.9248663,33.4692744 C25.5224837,33.1517271 26.481738,33.1536881 27.0756647,33.4692744 L33.2477136,36.7488276 C34.4070319,37.364838 35.1930874,36.8072929 34.9687097,35.4850734 L33.7899531,28.5388681 C33.6758184,27.8662922 33.9740898,26.9448325 34.4545863,26.4714531 L39.4478788,21.5521234 C40.385787,20.6281075 40.1040477,19.7002353 38.7905167,19.5073262 L31.8899565,18.4938885 C31.2218001,18.3957609 30.4468874,17.8243066 30.1499239,17.2161557 L27.0638997,10.8962894 C26.4842405,9.70920582 25.5240604,9.69329439 24.9366313,10.8962894 L21.8506071,17.2161557 C21.5517983,17.8280854 20.7746048,18.3963669 20.1105746,18.4938885 L13.2100144,19.5073262 C11.9138568,19.6976837 11.6021724,20.6157222 12.5526522,21.5521234 L17.5459448,26.4714531 C18.0294271,26.9477741 18.3240079,27.8704457 18.2105779,28.5388681 L17.0318214,35.4850734 C16.8104112,36.7898044 17.5779597,37.3730949 18.7528175,36.7488276 Z" id="Path" fill="#FFFFFF"></path>
            </g>
        </g>
    </g>
</svg>