<svg xmlns="http://www.w3.org/2000/svg" width="661.9" height="109.825" viewBox="0 0 661.9 109.825">
  <g id="input-madera" transform="translate(-514.048 -1269.482)">
    <path id="Trazado_262" data-name="Trazado 262" d="M524.611,1378.925l1.921-25.058,5.236-2.219-5.982-3.26,6.148-2.839-4.4-3-2.091-35.1-.531-16.928,6.82-1.967-4.959-3.908.8-8.029,643.895-7.127,7.249,7.228-1.46,6.28-5.908,1.346,6.413,5.625-7.852,2.435,6.847,7.991,1.684,38.689-6.51,5.079,4.827,5.37-7.492,1.093,8.238,4.386-.35,24.016h-9.313l-577.9-.089Z" transform="translate(-2.776 -0.002)" fill="#a67d52"/>
    <path id="Trazado_263" data-name="Trazado 263" d="M1399.063,1283.019l-3.958-.579,1.02.894Z" transform="translate(-231.573 -3.406)" fill="none"/>
    <path id="Trazado_264" data-name="Trazado 264" d="M1163.719,1366.53l-79.187-14.44,59.5,3.654-56.039-20.028,54.971,1.781-39.776-19.244,55.113-3.389-32.4-13.623,34.422-4.912-31.677-12.54,35.907-3.861-1.02-.895-32.029-4.682,24.363-4.772-638.192-.1-.8,8.029,4.959,3.908-6.82,1.967.531,16.928,2.091,35.1,4.4,3-6.148,2.839,5.982,3.26-5.236,2.219-2.577,25.2,64.571-.132,532.18.082-9.841-.656Z" fill="#c49a6c"/>
    <path id="Trazado_265" data-name="Trazado 265" d="M1370.662,1375.616l.35-24.016-8.238-4.386,7.492-1.093-4.827-5.369,6.51-5.079-1.684-38.689-6.847-7.991,7.852-2.435-3.312-2.905-35.907,3.861,31.677,12.54-34.422,4.912,32.4,13.623-55.113,3.389,39.776,19.244-54.971-1.781,56.039,20.029-59.5-3.654,79.187,14.44-62.76,4.7,9.841.656,45.718.007Z" transform="translate(-203.405 -3.725)" fill="#c49a6c"/>
    <path id="Trazado_266" data-name="Trazado 266" d="M1370.662,1375.616l.35-24.016-8.238-4.386,7.492-1.093-4.827-5.369,6.51-5.079-1.684-38.689-6.847-7.991,7.852-2.435-3.312-2.905-35.907,3.861,31.677,12.54-34.422,4.912,32.4,13.623-55.113,3.389,39.776,19.244-54.971-1.781,56.039,20.029-59.5-3.654,79.187,14.44-62.76,4.7,9.841.656,45.718.007Z" transform="translate(-203.405 -3.725)" fill="#402312" opacity="0.09" style="mix-blend-mode: multiply;isolation: isolate"/>
    <path id="Trazado_267" data-name="Trazado 267" d="M1383.685,1279.07l-2.081-1.826,5.908-1.347,1.46-6.28-12.952,0-24.363,4.771Z" transform="translate(-220.153 -0.035)" fill="#c49a6c"/>
    <path id="Trazado_268" data-name="Trazado 268" d="M1383.685,1279.07l-2.081-1.826,5.908-1.347,1.46-6.28-12.952,0-24.363,4.771Z" transform="translate(-220.153 -0.035)" fill="#402312" opacity="0.05" style="mix-blend-mode: multiply;isolation: isolate"/>
    <path id="Trazado_269" data-name="Trazado 269" d="M1174.387,1415.835l-7.13-7.132-653.209-.242,7.13,7.274Z" transform="translate(0 -36.529)" fill="#87562a"/>
  </g>
</svg>
