<?xml version="1.0" encoding="UTF-8"?>
<svg width="25px" height="25px" viewBox="0 0 25 25" version="1.1" xmlns="http://www.w3.org/2000/svg" xmlns:xlink="http://www.w3.org/1999/xlink">
    <!-- Generator: Sketch 51.3 (57544) - http://www.bohemiancoding.com/sketch -->
    <title>Group 3</title>
    <desc>Created with Sketch.</desc>
    <defs></defs>
    <g id="V2" stroke="none" stroke-width="1" fill="none" fill-rule="evenodd">
        <g id="Perfil-DESKTOP-pedidos" transform="translate(-65.000000, -519.000000)" fill="#909090" fill-rule="nonzero">
            <g id="Group-2" transform="translate(0.000000, 126.000000)">
                <g id="Group-14">
                    <g id="Group-8" transform="translate(29.000000, 393.000000)">
                        <g id="settings" transform="translate(36.000000, 0.000000)">
                            <g id="Group-3">
                                <path d="M23.7203525,9.87570503 L21.9656104,9.57802381 C21.7828248,8.98788385 21.5478147,8.4186338 21.2605801,7.87549614 L22.2946246,6.42886986 C22.7333101,5.81261751 22.6654183,4.97179862 22.1275063,4.43910591 L20.5712172,2.8828076 C20.2787602,2.59034886 19.8922991,2.42845206 19.4797258,2.42845206 C19.1559341,2.42845206 18.8478098,2.52767913 18.5866875,2.71568832 L17.1348473,3.74973888 C16.5708231,3.45205766 15.9806866,3.20660121 15.3696604,3.0238145 L15.0772033,1.28995195 C14.9518646,0.543137665 14.3095037,0 13.5522489,0 L11.3535989,0 C10.5963442,0 9.95398323,0.543137665 9.82864451,1.28995195 L9.52574261,3.06559432 C8.94082859,3.24838103 8.37158191,3.488615 7.82844746,3.78107374 L6.39227464,2.74702319 C6.13115231,2.559014 5.81780552,2.45978692 5.49401383,2.45978692 C5.08144055,2.45978692 4.68975705,2.62168373 4.40252249,2.91414247 L2.84101095,4.47044078 C2.3083214,5.00313349 2.23520715,5.84395237 2.67389266,6.46020472 L3.71838198,7.92772091 C3.43114742,8.47608105 3.20135977,9.04533111 3.02379658,9.63547107 L1.28994431,9.92792981 C0.543134447,10.0532693 0,10.695634 0,11.4528933 L0,13.6515563 C0,14.4088155 0.543134447,15.0511803 1.28994431,15.1765197 L3.06557616,15.4794234 C3.24836179,16.0643409 3.48859433,16.633591 3.78105134,17.1767286 L2.75222936,18.6076875 C2.31354385,19.2239398 2.38143565,20.0647587 2.91934765,20.5974514 L4.47563674,22.1537497 C4.76809375,22.4462085 5.1545548,22.6081053 5.56712808,22.6081053 C5.89091977,22.6081053 6.19904412,22.5088782 6.46016645,22.320869 L7.92767395,21.2763735 C8.45514105,21.5531648 9.00872039,21.7777314 9.57796707,21.9552956 L9.87042408,23.710048 C9.9957628,24.4568623 10.6381237,25 11.3953785,25 L13.599251,25 C14.3565057,25 14.9988667,24.4568623 15.1242054,23.710048 L15.4218848,21.9552956 C16.0120213,21.7725089 16.581268,21.5374974 17.1244024,21.2502611 L18.5710201,22.2843117 C18.8321425,22.4723209 19.1454893,22.5715479 19.4692809,22.5715479 C19.8818542,22.5715479 20.2683153,22.4096511 20.5607723,22.1171924 L22.1170614,20.5608941 C22.6497509,20.0282014 22.7228652,19.1873825 22.2841797,18.5711301 L21.2501352,17.1192814 C21.5373698,16.5709212 21.7776023,16.0016712 21.9551655,15.4167537 L23.7099076,15.124295 C24.4567175,14.9989555 24.9998519,14.3565908 24.9998519,13.5993315 L24.9998519,11.4006685 C25.0102968,10.6434092 24.4671623,10.0010445 23.7203525,9.87570503 Z M23.6002362,13.5993315 C23.6002362,13.6672237 23.5532342,13.724671 23.4853424,13.7351159 L21.2919148,14.1006894 C21.0151251,14.1476917 20.7957824,14.3513683 20.7278906,14.6177146 C20.5294376,15.3854188 20.2265357,16.1217882 19.8191849,16.8059327 C19.6781788,17.0461667 19.6886237,17.3438479 19.8505195,17.5736369 L21.1404639,19.3910591 C21.177021,19.4432839 21.1717985,19.5216211 21.1247965,19.5686234 L19.5685074,21.1249217 C19.5319503,21.161479 19.4953932,21.1667015 19.4692809,21.1667015 C19.4379463,21.1667015 19.411834,21.1562565 19.3909442,21.1405891 L17.5787553,19.8506371 C17.3541901,19.6887403 17.0512882,19.6782954 16.8110556,19.8193023 C16.1269151,20.2266555 15.3905501,20.5295592 14.6228505,20.7280134 C14.3512833,20.7959056 14.1476079,21.0204721 14.1058283,21.2920409 L13.7350346,23.4854815 C13.7245897,23.5533737 13.6671428,23.600376 13.599251,23.600376 L11.4006009,23.600376 C11.3327091,23.600376 11.2752622,23.5533737 11.2648173,23.4854815 L10.8992461,21.2920409 C10.852244,21.0152496 10.6485686,20.7959056 10.3822239,20.7280134 C9.63541399,20.5347817 8.91471636,20.2371005 8.24102074,19.8506371 C8.13134936,19.7879674 8.00601065,19.7566325 7.88589437,19.7566325 C7.74488832,19.7566325 7.59865981,19.7984124 7.47854354,19.8871945 L5.65068723,21.1875914 C5.62457499,21.2032588 5.59846276,21.2137038 5.57235053,21.2137038 C5.55146074,21.2137038 5.50968117,21.2084813 5.47312404,21.171924 L3.91683495,19.6156257 C3.86983293,19.5686234 3.86461049,19.4955087 3.90116761,19.4380614 L5.18588948,17.6363067 C5.34778532,17.4065177 5.35823022,17.103614 5.21722416,16.86338 C4.80987332,16.1844579 4.49652653,15.4480886 4.29807356,14.6803844 C4.2249593,14.414038 4.00561655,14.2103614 3.73404932,14.1633591 L1.52495441,13.7873407 C1.4570626,13.7768958 1.41006058,13.7194485 1.41006058,13.6515563 L1.41006058,11.4528933 C1.41006058,11.385001 1.4570626,11.3275538 1.52495441,11.3171088 L3.70271464,10.9515354 C3.97950431,10.9045331 4.20406952,10.7008565 4.27196132,10.4292877 C4.46519185,9.66158346 4.7628713,8.91999164 5.16499969,8.23584709 C5.30600575,7.99561312 5.29033841,7.6979319 5.12844257,7.47336536 L3.82805336,5.64549822 C3.79149624,5.59327345 3.79671868,5.51493629 3.8437207,5.46793399 L5.40000979,3.91163568 C5.43656692,3.87507834 5.47312404,3.86985586 5.49923628,3.86985586 C5.53057096,3.86985586 5.55668319,3.88030081 5.57757297,3.89596825 L7.37931705,5.18069772 C7.6091047,5.34259453 7.91200661,5.35303948 8.15223915,5.21203259 C8.83115721,4.80467934 9.56752218,4.49133069 10.3352218,4.29287654 C10.6015666,4.21976186 10.805242,4.0004178 10.852244,3.72884897 L11.2282602,1.51974097 C11.2387051,1.45184876 11.296152,1.40484646 11.3640438,1.40484646 L13.5626938,1.40484646 C13.6305856,1.40484646 13.6880326,1.45184876 13.6984774,1.51974097 L14.0640487,3.6975141 C14.1110507,3.97430541 14.3147261,4.19887194 14.5862934,4.26676415 C15.3748828,4.4652183 16.1269151,4.77334447 16.826723,5.1859202 C17.0669555,5.32692709 17.364635,5.31648214 17.5944226,5.15458534 L19.3961667,3.8594109 C19.4222789,3.84374347 19.4483912,3.83329852 19.4745034,3.83329852 C19.4953932,3.83329852 19.5371728,3.83852099 19.5737299,3.87507834 L21.130019,5.43137665 C21.177021,5.47837894 21.1822434,5.55149363 21.1456863,5.60894088 L19.855742,7.42114059 C19.6938461,7.64570712 19.6834013,7.94861082 19.8244073,8.18884479 C20.2317581,8.87298935 20.5346601,9.60935868 20.733113,10.3770629 C20.8010048,10.6486317 21.02557,10.8523083 21.2971373,10.8940882 L23.4905648,11.2648841 C23.5584566,11.275329 23.6054587,11.3327763 23.6054587,11.4006685 L23.6054587,13.5993315 L23.6002362,13.5993315 Z" id="Shape"></path>
                                <path d="M12.5,7.23684211 C9.59583737,7.23684211 7.23684211,9.59583737 7.23684211,12.5 C7.23684211,15.4041626 9.59583737,17.7631579 12.5,17.7631579 C15.4041626,17.7631579 17.7631579,15.4041626 17.7631579,12.5 C17.7631579,9.59583737 15.4041626,7.23684211 12.5,7.23684211 Z M12.5,16.3875019 C10.3549957,16.3875019 8.61249809,14.6450043 8.61249809,12.5 C8.61249809,10.3549957 10.3549957,8.61249809 12.5,8.61249809 C14.6450043,8.61249809 16.3875019,10.3549957 16.3875019,12.5 C16.3875019,14.6450043 14.6450043,16.3875019 12.5,16.3875019 Z" id="Shape"></path>
                            </g>
                        </g>
                    </g>
                </g>
            </g>
        </g>
    </g>
</svg>