<?xml version="1.0" encoding="UTF-8"?>
<svg width="25px" height="25px" viewBox="0 0 25 25" version="1.1" xmlns="http://www.w3.org/2000/svg" xmlns:xlink="http://www.w3.org/1999/xlink">
    <!-- Generator: Sketch 51.3 (57544) - http://www.bohemiancoding.com/sketch -->
    <title>Shape</title>
    <desc>Created with Sketch.</desc>
    <defs></defs>
    <g id="V2" stroke="none" stroke-width="1" fill="none" fill-rule="evenodd">
        <g id="Perfil-DESKTOP-pedidos" transform="translate(-65.000000, -359.000000)" fill="#909090" fill-rule="nonzero">
            <g id="Group-2" transform="translate(0.000000, 126.000000)">
                <g id="Group-14">
                    <g id="Group-12" transform="translate(51.000000, 233.000000)">
                        <g id="noun_House_396472" transform="translate(14.000000, 0.000000)">
                            <g id="Group">
                                <path d="M12.4913194,0.0995 C12.3009945,0.101789297 12.117196,0.168441487 11.9704861,0.288373626 L0.303819444,9.90375824 C0.0331808898,10.1250872 -0.0681383297,10.4904528 0.0504683472,10.8173636 C0.169075024,11.1442745 0.482155449,11.3625778 0.833333333,11.3632363 L2.5,11.3632363 L2.5,24.0005989 C2.50004601,24.4557598 2.8731151,24.8247292 3.33333333,24.8247747 L8.88888889,24.8247747 L16.1111111,24.8247747 L21.6666667,24.8247747 C22.1268849,24.8247292 22.499954,24.4557598 22.5,24.0005989 L22.5,11.3632363 L24.1666667,11.3632363 C24.5178446,11.3625778 24.830925,11.1442745 24.9495317,10.8173636 C25.0681383,10.4904528 24.9668191,10.1250872 24.6961806,9.90375824 L21.1111111,6.95046154 L21.1111111,0.923675824 C21.1110651,0.468514937 20.737996,0.0995455093 20.2777778,0.0995 L16.3888889,0.0995 C15.9286707,0.0995455093 15.5556016,0.468514937 15.5555556,0.923675824 L15.5555556,2.36598352 L13.0295139,0.288373626 C12.8782041,0.164695435 12.6876096,0.0978083225 12.4913194,0.0995 Z M17.2222222,1.74785165 L19.4444444,1.74785165 L19.4444444,7.33679396 C19.4447887,7.58279003 19.5562098,7.81577727 19.7482639,7.97209615 L21.8663194,9.71488462 L21.6666667,9.71488462 C21.2064484,9.71493012 20.8333793,10.0838996 20.8333333,10.5390604 L20.8333333,23.1764231 L16.1111111,23.1764231 L16.1111111,15.2093901 C16.1110651,14.7542292 15.737996,14.3852598 15.2777778,14.3852143 L9.72222222,14.3852143 C9.69330668,14.3837229 9.66433221,14.3837229 9.63541667,14.3852143 C9.20939467,14.4293762 8.88659802,14.7857477 8.88888889,15.2093901 L8.88888889,23.1764231 L4.16666667,23.1764231 L4.16666667,10.5390604 C4.16662065,10.0838996 3.79355156,9.71493012 3.33333333,9.71488462 L3.13368056,9.71488462 L12.5,1.99682143 L15.859375,4.76124451 C16.1081982,4.96366379 16.452702,5.00611027 16.7441353,4.87025627 C17.0355687,4.73440227 17.2217239,4.44458482 17.2222222,4.12594231 L17.2222222,1.74785165 Z M10.5555556,16.0335659 L14.4444444,16.0335659 L14.4444444,23.1764231 L10.5555556,23.1764231 L10.5555556,16.0335659 Z" id="Shape"></path>
                            </g>
                        </g>
                    </g>
                </g>
            </g>
        </g>
    </g>
</svg>