<?xml version="1.0" encoding="UTF-8"?>
<svg width="90px" height="91px" viewBox="0 0 90 91" version="1.1" xmlns="http://www.w3.org/2000/svg" xmlns:xlink="http://www.w3.org/1999/xlink">
    <!-- Generator: Sketch 51.3 (57544) - http://www.bohemiancoding.com/sketch -->
    <title>noun_ballons_2372487</title>
    <desc>Created with Sketch.</desc>
    <defs></defs>
    <g id="V2" stroke="none" stroke-width="1" fill="none" fill-rule="evenodd">
        <g id="New-home-desktop" transform="translate(-676.000000, -3747.000000)" fill="#FFF" fill-rule="nonzero">
            <g id="noun_ballons_2372487" transform="translate(676.000000, 3747.000000)">
                <path d="M15.495,45.2649558 L12.36,50.5572405 C12.0592261,51.0712933 12.0532661,51.7086858 12.3443737,52.2283948 C12.6354813,52.7481039 13.1792273,53.0708109 13.77,53.0744876 L16.77,53.0744876 C17.238021,55.4485798 17.1455164,57.9007992 16.5,60.2319613 C16.1320391,61.4240261 15.6286823,62.5689721 15,63.6438927 C14.2191562,64.9959386 13.7094508,66.4902591 13.5,68.0414931 C13.095,71.2411265 14.19,74.6833861 16.785,78.2317947 C17.08632,78.7068415 17.6236536,78.9734399 18.1797031,78.9237774 C18.7357526,78.874115 19.2185281,78.5164076 19.4327953,77.9953122 C19.6470624,77.4742167 19.557374,76.8759405 19.2,76.4424263 C17.085,73.5309115 16.2,70.8468589 16.485,68.4357607 C16.6763771,67.2463424 17.0995669,66.1072056 17.73,65.0844859 C18.4714506,63.8238849 19.0654369,62.4804245 19.5,61.0811531 C20.1921753,58.4690794 20.299784,55.7338845 19.815,53.0744876 L22.245,53.0744876 C22.8405051,53.0740512 23.3895729,52.7492522 23.6816736,52.2246288 C23.9737743,51.7000054 23.9635801,51.0569676 23.655,50.5420763 L20.535,45.28012 C25.6338323,44.3262308 30.0632508,41.1617827 32.655,36.6213964 C35.2123164,39.5713805 38.6889302,41.5507155 42.51,42.232128 L39.375,47.5244126 C39.0755082,48.0361433 39.0681082,48.6703511 39.3555764,49.1890812 C39.6430446,49.7078113 40.1819137,50.0326279 40.77,50.0416597 L43.5,50.0416597 L43.5,60.9901683 L43.275,60.7475421 C40.9305512,58.3774389 37.1294488,58.3774389 34.785,60.7475421 C32.4405512,63.1176453 32.4405512,66.9603417 34.785,69.3304449 C34.92,69.4669222 35.1,69.6185636 35.28,69.770205 L27,69.770205 L27,78.8686886 L30,78.8686886 L30,91 L60,91 L60,78.8535244 L63,78.8535244 L63,69.7550408 L54.72,69.7550408 C54.9,69.6033994 55.065,69.451758 55.215,69.3152808 C57.5594486,66.9451776 57.5594485,63.1024812 55.2149998,60.7323781 C52.8705511,58.362275 49.0694488,58.3622749 46.725,60.7323779 L46.5,60.9750042 L46.5,50.0416597 L49.23,50.0416597 C49.8255051,50.0412233 50.3745729,49.7164243 50.6666736,49.1918009 C50.9587743,48.6671775 50.9485801,48.0241397 50.64,47.5092485 L47.505,42.2169638 C51.3260698,41.5355513 54.8026836,39.5562164 57.36,36.6062323 C59.9517492,41.1466186 64.3811677,44.3110666 69.48,45.2649558 L66.36,50.5269122 C66.0434675,51.0425676 66.0289374,51.6913315 66.3220594,52.2209416 C66.6151813,52.7505518 67.1697003,53.077435 67.77,53.0744876 L70.2,53.0744876 C69.7103226,55.732761 69.8128067,58.467946 70.5,61.0811531 C70.9155118,62.4777493 71.4893199,63.821109 72.21,65.0844859 C72.856262,66.1036908 73.2948265,67.2430322 73.5,68.4357607 C73.815,70.8468589 72.885,73.5309115 70.785,76.4424263 C70.427626,76.8759405 70.3379376,77.4742167 70.5522047,77.9953122 C70.7664719,78.5164076 71.2492474,78.874115 71.8052969,78.9237774 C72.3613464,78.9734399 72.89868,78.7068415 73.2,78.2317947 C75.795,74.6833861 76.905,71.2714548 76.5,68.0414931 C76.2570981,66.4995083 75.7168656,65.0207974 74.91,63.6893851 C74.2813177,62.6144645 73.7779609,61.4695185 73.41,60.2774538 C72.7871112,57.9246808 72.725421,55.4560556 73.23,53.0744876 L76.23,53.0744876 C76.8255051,53.0740512 77.3745729,52.7492522 77.6666736,52.2246288 C77.9587743,51.7000054 77.9485801,51.0569676 77.64,50.5420763 L74.505,45.2497917 C83.25,43.8091985 90,34.9685052 90,24.2626229 C90,12.5559073 81.93,3.03282786 72,3.03282786 C67.2424972,3.09706806 62.7412624,5.22320725 59.64,8.8710215 C56.6437431,3.51603303 51.083983,0.147129269 45,0 C38.9271852,0.172752512 33.3858243,3.54315374 30.39,8.88618564 C27.2846227,5.22484473 22.7703984,3.09220789 18,3.03282786 C8.07,3.03282786 0,12.5559073 0,24.2626229 C0,34.9685052 6.75,43.8091985 15.495,45.2649558 Z M43.5,72.7878687 L46.5,72.7878687 L46.5,75.8206966 L43.5,75.8206966 L43.5,72.7878687 Z M36.915,62.8856857 C37.4777048,62.3161903 38.2412723,61.9961978 39.0375,61.9961978 C39.8337277,61.9961978 40.5972952,62.3161903 41.16,62.8856857 C42.4544921,64.4563285 43.2677021,66.3745822 43.5,68.4054324 C43.5811025,68.8114473 43.4943874,69.23333 43.26,69.5730712 C43.05,69.7853691 42.15,69.9066822 40.575,69.3456091 C39.2216324,68.8652947 37.9734959,68.1236686 36.9,67.161973 C35.7409682,65.974891 35.7476696,64.064428 36.915,62.8856857 Z M30,72.7878687 L40.5,72.7878687 L40.5,75.8206966 L30,75.8206966 L30,72.7878687 Z M33,87.952008 L33,78.8535244 L40.5,78.8535244 L40.5,87.952008 L33,87.952008 Z M43.5,87.952008 L43.5,78.8535244 L46.5,78.8535244 L46.5,87.952008 L43.5,87.952008 Z M57,87.952008 L49.5,87.952008 L49.5,78.8535244 L57,78.8535244 L57,87.952008 Z M60,75.8206966 L49.5,75.8206966 L49.5,72.7878687 L60,72.7878687 L60,75.8206966 Z M48.84,62.8856857 C50.0122244,61.7006341 51.9127756,61.7006341 53.085,62.8856857 C54.2572244,64.0707373 54.2572244,65.9920856 53.085,67.1771371 C52.0115041,68.1388327 50.7633676,68.8804588 49.41,69.3607732 C47.91,69.9218464 46.95,69.8005332 46.725,69.5882353 C46.4906126,69.2484941 46.4038975,68.8266114 46.485,68.4205966 C46.718773,66.3827949 47.5374277,64.4587266 48.84,62.8856857 Z M16.155,50.0416597 L18,46.917847 L19.845,50.0416597 L16.155,50.0416597 Z M46.5,47.0088319 L43.155,47.0088319 L45,43.8850192 L46.845,47.0088319 L46.5,47.0088319 Z M70.155,50.0416597 L72,46.917847 L73.845,50.0416597 L70.155,50.0416597 Z M72,6.06565572 C80.265,6.06565572 87,14.2239627 87,24.2626229 C87,34.3012831 80.265,42.4595901 72,42.4595901 C66.825,42.4595901 62.085,39.2599567 59.34,34.0131645 C61.7550572,30.1985503 63.0262144,25.7587491 63,21.229795 C63.0012962,17.9846189 62.358617,14.7721547 61.11,11.7825362 C63.6639274,8.26957269 67.6884333,6.15684368 72,6.06565572 Z M45,3.03282786 C50.565,3.03282786 55.65,6.74804199 58.275,12.737877 C59.4216508,15.418437 60.0088923,18.3093393 60,21.229795 C60,31.2684553 53.265,39.4267622 45,39.4267622 C36.735,39.4267622 30,31.2684553 30,21.229795 C30,11.1911348 36.735,3.03282786 45,3.03282786 Z M18,6.06565572 C22.3195191,6.15573552 26.3510221,8.27483276 28.905,11.7977004 C27.6457161,14.7791848 26.9976535,17.987892 27,21.229795 C26.9737856,25.7587491 28.2449428,30.1985503 30.66,34.0131645 C27.915,39.2599567 23.175,42.4595901 18,42.4595901 C9.735,42.4595901 3,34.3012831 3,24.2626229 C3,14.2239627 9.735,6.06565572 18,6.06565572 Z" id="Shape"></path>
            </g>
        </g>
    </g>
</svg>