<?xml version="1.0" encoding="UTF-8"?>
<svg width="30px" height="34px" viewBox="0 0 30 34" version="1.1" xmlns="http://www.w3.org/2000/svg" xmlns:xlink="http://www.w3.org/1999/xlink">
    <!-- Generator: Sketch 51.3 (57544) - http://www.bohemiancoding.com/sketch -->
    <title>noun_Balloon_2369319</title>
    <desc>Created with Sketch.</desc>
    <defs></defs>
    <g id="Page-1" stroke="none" stroke-width="1" fill="none" fill-rule="evenodd">
        <g id="New-mobile-home" transform="translate(-289.000000, -1121.000000)" fill="#FFFFFF" fill-rule="nonzero">
            <g id="noun_Balloon_2369319" transform="translate(289.000000, 1121.000000)">
                <g id="Group">
                    <path d="M5.52631579,25.8906028 C5.091,25.8906028 4.73684211,26.2469673 4.73684211,26.6849953 C4.73684211,27.1230234 5.091,27.4793879 5.52631579,27.4793879 C5.96163158,27.4793879 6.31578947,27.1230234 6.31578947,26.6849953 C6.31578947,26.2469673 5.96163158,25.8906028 5.52631579,25.8906028 Z" id="Shape"></path>
                    <path d="M17.6107895,16.333028 C17.547,16.3090374 17.4842368,16.2832991 17.4213158,16.2578785 C17.3743421,16.2388925 17.3270526,16.2206215 17.2805526,16.2008411 C17.2152632,16.1731168 17.151,16.1435654 17.0866579,16.1143318 C17.0436316,16.0948692 17.0000526,16.0762009 16.9574211,16.0559439 C16.8884211,16.0232944 16.8206053,15.9885794 16.7525526,15.9541822 C16.7156842,15.9355935 16.6783421,15.9178785 16.6418684,15.8987336 C16.5613421,15.8565514 16.4822368,15.8122243 16.4033684,15.7677383 C16.3803947,15.7547897 16.3567895,15.7426355 16.3339737,15.7294486 C16.2318947,15.6705841 16.1310789,15.6097336 16.0316842,15.5468972 C16.0303421,15.5460234 16.0291579,15.545229 16.0278947,15.5443551 C15.9306316,15.4828692 15.8347105,15.4193972 15.7401316,15.3540981 C15.7126579,15.3351916 15.6861316,15.3151729 15.6589737,15.2959486 C15.5911579,15.2479673 15.5232632,15.199986 15.4568684,15.150257 C15.4239474,15.125472 15.3919737,15.0995748 15.3594474,15.074472 C15.3000789,15.0286355 15.2407105,14.9830374 15.1826053,14.935771 C15.1476316,14.9072523 15.1136842,14.8776215 15.0790263,14.8485467 C15.0248684,14.8031075 14.9705526,14.7576682 14.9175,14.7110374 C14.8818947,14.6795794 14.8473158,14.6471682 14.8122632,14.6153131 C14.7617368,14.5693178 14.7111316,14.5234019 14.6617105,14.4762944 C14.6264211,14.4426121 14.5920789,14.4079766 14.5573421,14.3737383 C14.5096579,14.3267897 14.4619737,14.2798411 14.4154737,14.2318598 C14.3808947,14.1961916 14.3471842,14.1596495 14.3132368,14.1234252 C14.2681579,14.0753645 14.2231579,14.0273037 14.1791842,13.9782897 C14.1454737,13.940715 14.1127105,13.9024252 14.0796316,13.864215 C14.037,13.8150421 13.9944474,13.7657897 13.953,13.7156636 C13.9204737,13.6764206 13.8887368,13.6365421 13.8568421,13.596743 C13.8165,13.5462991 13.7763947,13.4957757 13.7371579,13.4445374 C13.7058947,13.4036262 13.6753421,13.3623178 13.6447895,13.3208505 C13.6067368,13.2692944 13.5689211,13.2175 13.5319737,13.1650701 C13.5021316,13.1228084 13.4729211,13.0800701 13.4438684,13.0372523 C13.4079474,12.9844252 13.3725,12.9313598 13.3377632,12.8778178 C13.3093421,12.8340467 13.2815526,12.7899579 13.2539211,12.7457103 C13.2202895,12.691771 13.1872105,12.6376729 13.1547632,12.5830981 C13.128,12.5379766 13.1016316,12.4926168 13.0755789,12.4470187 C13.0441579,12.3919673 13.0132895,12.3365187 12.9830526,12.2807523 C12.9579474,12.2345187 12.9331579,12.1881262 12.9089211,12.1414159 C12.8796316,12.0852523 12.8512105,12.0286916 12.8231053,11.9718131 C12.7997368,11.9243879 12.7766053,11.8769626 12.7540263,11.8291402 C12.7270263,11.771785 12.7008158,11.7140327 12.675,11.6560421 C12.6534474,11.607743 12.6320526,11.5593645 12.6112895,11.5105888 C12.5865,11.4522009 12.5626579,11.3931776 12.5390526,11.3341542 C12.5193947,11.2849019 12.4996579,11.235729 12.4808684,11.186 C12.4582895,11.1265 12.4368947,11.0666028 12.4156579,11.0064673 C12.3978947,10.9563411 12.3800526,10.9062944 12.3631579,10.8558505 C12.3428684,10.7951589 12.3238421,10.7339907 12.3048947,10.6728224 C12.2891842,10.6220607 12.2732368,10.5716168 12.2583947,10.5205374 C12.2403158,10.4584953 12.2238158,10.3959766 12.2070789,10.3334579 C12.1935,10.2823785 12.1794474,10.2316168 12.1667368,10.1802991 C12.1510263,10.1168271 12.1368947,10.0528785 12.1225263,9.98908879 C12.111,9.93777103 12.099,9.88685047 12.0883421,9.83521495 C12.0749211,9.77015421 12.0633158,9.70445794 12.0513158,9.63892056 C12.0420789,9.588 12.0320526,9.53731776 12.0236053,9.48607944 C12.0125526,9.41855607 12.0033947,9.35055607 11.9939211,9.28263551 C11.9868947,9.23274766 11.9790789,9.18309813 11.9728421,9.13297196 C11.9640789,9.06155607 11.9574474,8.98950467 11.9504211,8.91761215 C11.9457632,8.87050467 11.9401579,8.82363551 11.9362895,8.7764486 C11.9297368,8.69669159 11.9256316,8.6163785 11.9212895,8.5362243 C11.9190789,8.49626636 11.9157632,8.45662617 11.9141053,8.41658879 C11.9091316,8.29615888 11.9065263,8.17525234 11.9065263,8.0539486 C11.9065263,7.94519626 11.9090526,7.83676168 11.9129211,7.72848598 C11.9135526,7.71140654 11.9139474,7.6943271 11.9146579,7.67724766 C11.919,7.57397664 11.9251579,7.47102336 11.9329737,7.36830841 C11.9344737,7.34860748 11.9361316,7.32898598 11.9377105,7.30928505 C11.9462368,7.20569626 11.9563421,7.10242523 11.9685,6.99947196 C11.9700789,6.98620561 11.9718947,6.97301869 11.9735526,6.95975234 C11.9861053,6.8576729 12.0001579,6.75591121 12.0162632,6.65438785 C12.0176053,6.64612617 12.0187105,6.63778505 12.0199737,6.62952336 C12.0366316,6.5257757 12.0556579,6.42266355 12.0760263,6.31971028 C12.0796579,6.30151869 12.0831316,6.28316822 12.0869211,6.2648972 C12.1074474,6.1647243 12.1296316,6.0649486 12.1535526,5.96557009 C12.1578947,5.94753738 12.1623947,5.92966355 12.1668947,5.91171028 C12.1921579,5.80978972 12.2187632,5.70810748 12.2476579,5.60706075 C12.2498684,5.59935514 12.2523158,5.59180841 12.2544474,5.5841028 C12.2829474,5.48551869 12.3133421,5.38733178 12.3453158,5.28970093 C12.3482368,5.2807243 12.3506842,5.27158879 12.3536053,5.26261215 C11.7872368,5.13685981 11.2068158,5.07330841 10.6227632,5.07330841 C8.81226316,5.07330841 7.10478947,5.66695794 5.68484211,6.78999065 C3.74044737,8.32769626 2.62531579,10.6350888 2.62531579,13.1205047 C2.62531579,13.6224019 2.67221053,14.1272383 2.76465789,14.620715 C3.38952632,17.9554953 6.04768421,20.5476776 9.37934211,21.070785 C9.59281579,21.1043084 9.73981579,21.3041776 9.70926316,21.5193785 L9.39955263,23.7010981 L10.3070526,23.7010981 C10.3301842,23.7321589 12.5932105,26.8294159 10.3437632,29.0930374 C7.57894737,31.8750794 9.48497368,33.8572477 9.50455263,33.8769486 C9.58160526,33.9545607 9.68265789,33.9933271 9.78363158,33.9933271 C9.88460526,33.9933271 9.98573684,33.9545607 10.0627105,33.8769486 C10.2168947,33.7218832 10.2168947,33.4703785 10.0627105,33.3153131 C10.0594737,33.3119766 9.73381579,32.9701495 9.64989474,32.3788832 C9.53092105,31.5407196 9.96394737,30.598729 10.9019211,29.6547523 C12.0373421,28.5123364 12.3989211,27.0284907 11.9477368,25.3638411 C11.7592105,24.6683505 11.4668684,24.0830421 11.2451053,23.7010981 L11.8461316,23.7010981 L11.5364211,21.5193785 C11.5058684,21.3041776 11.6528684,21.104229 11.8663421,21.070785 C14.5230789,20.6536495 16.8024474,18.8954206 17.9090526,16.439715 C17.8589211,16.4228738 17.8098947,16.4041262 17.7603158,16.3864112 C17.7101842,16.3687757 17.6601316,16.3516168 17.6107895,16.333028 Z" id="Shape"></path>
                    <path d="M3.55263158,3.64761215 C4.20560526,3.64761215 4.73684211,3.11306542 4.73684211,2.45602336 C4.73684211,1.79898131 4.20560526,1.26443458 3.55263158,1.26443458 C2.89965789,1.26443458 2.36842105,1.79898131 2.36842105,2.45602336 C2.36842105,3.11306542 2.89965789,3.64761215 3.55263158,3.64761215 Z" id="Shape"></path>
                    <path d="M26.8421053,28.2737804 C26.4067895,28.2737804 26.0526316,28.6301449 26.0526316,29.0681729 C26.0526316,29.5062009 26.4067895,29.8625654 26.8421053,29.8625654 C27.2774211,29.8625654 27.6315789,29.5062009 27.6315789,29.0681729 C27.6315789,28.6301449 27.2774211,28.2737804 26.8421053,28.2737804 Z" id="Shape"></path>
                    <path d="M21.2714211,18.6344626 L21.9165,18.6344626 L21.6067105,16.4528224 C21.5761579,16.2376215 21.7232368,16.0376729 21.9367105,16.004229 C25.8501316,15.3896869 28.6906579,12.0460888 28.6906579,8.05386916 C28.6906579,3.61663084 25.1030526,0.00659345794 20.6932105,0.00659345794 C17.3733947,0.00659345794 14.4482368,2.01696262 13.2408947,5.12820093 C12.9695526,5.82742523 12.7985526,6.55588318 12.7300263,7.30213551 C12.7071316,7.55085981 12.6956842,7.80157009 12.6956842,8.05386916 C12.6956842,11.654771 15.1021579,14.8425888 18.5477368,15.806028 C18.8542105,15.8916636 19.1576842,15.9583925 19.4496316,16.004229 C19.6630263,16.0377523 19.8100263,16.2376215 19.7795526,16.4528224 L19.4697632,18.6344626 L20.3741842,18.6344626 C20.5997368,19.0330093 22.6631053,22.8324299 21.1792895,25.8185514 C19.4325789,29.3335794 21.1071316,32.7842617 21.1792895,32.9294766 C21.2483684,33.0685748 21.3876316,33.1488879 21.5323421,33.1488879 C21.5915526,33.1488879 21.6517105,33.1354626 21.7083158,33.1071028 C21.9032368,33.009472 21.9825789,32.7710748 21.8857105,32.5747804 C21.8698421,32.5426869 20.319,29.3261121 21.8853947,26.1739626 C23.3343158,23.2580654 21.8827895,19.8401121 21.2714211,18.6344626 Z M21.0735789,2.81421495 C21.1263158,2.60163551 21.3401842,2.47214953 21.5511316,2.5248972 C21.5920263,2.53514486 22.5627632,2.78291589 23.5348421,3.51335981 C24.8424474,4.4961028 25.5265263,5.8816028 25.5129474,7.51979907 C25.5111316,7.73801869 25.3346842,7.91373832 25.1182895,7.91373832 C25.1171053,7.91373832 25.1160789,7.91373832 25.1148947,7.91373832 C24.8969211,7.91191121 24.7217368,7.73261682 24.7234737,7.51320561 C24.7510263,4.19407477 21.4988684,3.33096729 21.3603947,3.2957757 C21.1492895,3.24223364 21.0207632,3.02679439 21.0735789,2.81421495 Z" id="Shape"></path>
                    <path d="M29.2105263,16.3578925 C28.7752105,16.3578925 28.4210526,16.7141776 28.4210526,17.152285 C28.4210526,17.5903131 28.7752105,17.9466776 29.2105263,17.9466776 C29.6458421,17.9466776 30,17.5903131 30,17.152285 C30,16.7141776 29.6458421,16.3578925 29.2105263,16.3578925 Z" id="Shape"></path>
                    <path d="M0.789473684,19.5354626 C0.354157895,19.5354626 0,19.8918271 0,20.3298551 C0,20.7678832 0.354157895,21.1242477 0.789473684,21.1242477 C1.22478947,21.1242477 1.57894737,20.7678832 1.57894737,20.3298551 C1.57894737,19.8918271 1.22478947,19.5354626 0.789473684,19.5354626 Z" id="Shape"></path>
                </g>
            </g>
        </g>
    </g>
</svg>