<?xml version="1.0" encoding="UTF-8"?>
<svg width="32px" height="35px" viewBox="0 0 32 35" version="1.1" xmlns="http://www.w3.org/2000/svg" xmlns:xlink="http://www.w3.org/1999/xlink">
    <!-- Generator: Sketch 51.3 (57544) - http://www.bohemiancoding.com/sketch -->
    <title>Shape</title>
    <desc>Created with Sketch.</desc>
    <defs></defs>
    <g id="Desktop-" stroke="none" stroke-width="1" fill="none" fill-rule="evenodd">
        <g id="Registro-deliverypaso2" transform="translate(-1043.000000, -660.000000)" fill="#FFFFFF" fill-rule="nonzero">
            <path d="M1063.66542,660.000159 C1063.60352,660.001716 1063.53643,660.01523 1063.48287,660.03665 L1043.23124,669.383556 C1043.09542,669.443964 1043.00112,669.587883 1043,669.736519 L1043,693.882695 C1043.00002,694.086613 1043.18554,694.272111 1043.38945,694.272149 L1063.64108,694.272149 L1074.54581,694.272149 C1074.76089,694.272128 1074.93524,694.097776 1074.93526,693.882695 L1074.93526,667.399792 C1074.93524,667.184711 1074.76089,667.010359 1074.54581,667.010338 L1064.03054,667.010338 L1064.03054,660.389613 C1064.03552,660.095415 1063.85114,659.995438 1063.66542,660.000159 Z M1063.25163,660.998135 L1063.25163,693.493241 L1056.24145,693.493241 L1056.24145,689.209242 C1056.24143,689.005324 1056.05591,688.819788 1055.852,688.819788 L1051.17854,688.819788 C1050.92058,688.828356 1050.79508,689.062418 1050.78909,689.209242 L1050.78909,693.493241 L1043.77891,693.493241 L1043.77891,669.979928 L1063.25163,660.998135 Z M1064.03054,667.789247 L1074.15635,667.789247 L1074.15635,693.493241 L1064.03054,693.493241 L1064.03054,667.789247 Z M1066.75672,670.125973 C1066.55281,670.125992 1066.36728,670.311517 1066.36726,670.515427 L1066.36726,675.188872 C1066.36728,675.392791 1066.55281,675.578327 1066.75672,675.578327 L1071.43017,675.578327 C1071.63408,675.578327 1071.81961,675.392791 1071.81963,675.188872 L1071.81963,670.515427 C1071.81972,670.315353 1071.68965,670.132827 1071.43017,670.125973 L1066.75672,670.125973 Z M1067.14617,670.904882 L1071.04072,670.904882 L1071.04072,674.799418 L1067.14617,674.799418 L1067.14617,670.904882 Z M1046.50509,671.683791 C1046.25017,671.690645 1046.11706,671.882288 1046.11564,672.073237 L1046.11564,677.52561 C1046.11565,677.729529 1046.30118,677.915065 1046.50509,677.915065 L1051.95745,677.915065 C1052.16136,677.915065 1052.34689,677.729529 1052.34691,677.52561 L1052.34691,672.073237 C1052.34689,671.869319 1052.16136,671.68381 1051.95745,671.683791 L1046.50509,671.683791 Z M1055.07309,671.683791 C1054.81817,671.690645 1054.68506,671.882288 1054.68363,672.073237 L1054.68363,677.52561 C1054.68365,677.729529 1054.86918,677.915065 1055.07309,677.915065 L1060.52545,677.915065 C1060.72936,677.915065 1060.91488,677.729529 1060.9149,677.52561 L1060.9149,672.073237 C1060.91488,671.869319 1060.72936,671.68381 1060.52545,671.683791 L1055.07309,671.683791 Z M1046.89454,672.462692 L1051.568,672.462692 L1051.568,677.136156 L1046.89454,677.136156 L1046.89454,672.462692 Z M1055.46254,672.462692 L1060.13599,672.462692 L1060.13599,677.136156 L1055.46254,677.136156 L1055.46254,672.462692 Z M1066.75672,677.915065 C1066.55281,677.915104 1066.36728,678.100601 1066.36726,678.304519 L1066.36726,682.977972 C1066.36728,683.18189 1066.55281,683.367387 1066.75672,683.367426 L1071.43017,683.367426 C1071.63408,683.367387 1071.81961,683.18189 1071.81963,682.977972 L1071.81963,678.304519 C1071.81972,678.104456 1071.68965,677.921919 1071.43017,677.915065 L1066.75672,677.915065 Z M1067.14617,678.693974 L1071.04072,678.693974 L1071.04072,682.588518 L1067.14617,682.588518 L1067.14617,678.693974 Z M1046.50509,680.251791 C1046.25017,680.258801 1046.11706,680.450296 1046.11564,680.641246 L1046.11564,686.093607 C1046.11565,686.297525 1046.30118,686.483023 1046.50509,686.483062 L1051.95745,686.483062 C1052.16136,686.483023 1052.34689,686.297525 1052.34691,686.093607 L1052.34691,680.641246 C1052.34689,680.437327 1052.16136,680.251791 1051.95745,680.251791 L1046.50509,680.251791 Z M1055.07309,680.251791 C1054.81817,680.258801 1054.68506,680.450296 1054.68363,680.641246 L1054.68363,686.093607 C1054.68365,686.297525 1054.86918,686.483023 1055.07309,686.483062 L1060.52545,686.483062 C1060.72936,686.483023 1060.91488,686.297525 1060.9149,686.093607 L1060.9149,680.641246 C1060.91488,680.437327 1060.72936,680.251791 1060.52545,680.251791 L1055.07309,680.251791 Z M1046.89454,681.0307 L1051.568,681.0307 L1051.568,685.704153 L1046.89454,685.704153 L1046.89454,681.0307 Z M1055.46254,681.0307 L1060.13599,681.0307 L1060.13599,685.704153 L1055.46254,685.704153 L1055.46254,681.0307 Z M1066.75672,685.704153 C1066.55281,685.704153 1066.36728,685.889689 1066.36726,686.093607 L1066.36726,690.76706 C1066.36728,690.970978 1066.55281,691.156475 1066.75672,691.156514 L1071.43017,691.156514 C1071.63408,691.156475 1071.81961,690.970978 1071.81963,690.76706 L1071.81963,686.093607 C1071.81972,685.893544 1071.68965,685.711007 1071.43017,685.704153 L1066.75672,685.704153 Z M1067.14617,686.483062 L1071.04072,686.483062 L1071.04072,690.377605 L1067.14617,690.377605 L1067.14617,686.483062 Z M1051.568,689.598697 L1055.46254,689.598697 L1055.46254,693.493241 L1051.568,693.493241 L1051.568,689.598697 Z" id="Shape"></path>
        </g>
    </g>
</svg>