<?xml version="1.0" encoding="UTF-8"?>
<svg width="25px" height="25px" viewBox="0 0 25 25" version="1.1" xmlns="http://www.w3.org/2000/svg" xmlns:xlink="http://www.w3.org/1999/xlink">
    <!-- Generator: Sketch 51.3 (57544) - http://www.bohemiancoding.com/sketch -->
    <title>dinner</title>
    <desc>Created with Sketch.</desc>
    <defs></defs>
    <g id="V2" stroke="none" stroke-width="1" fill="none" fill-rule="evenodd">
        <g id="Perfil-DESKTOP-DIRECCIÓN" transform="translate(-65.000000, -446.000000)" fill="#909090" fill-rule="nonzero">
            <g id="Group-14" transform="translate(0.000000, 126.000000)">
                <g id="Group-9" transform="translate(11.000000, 309.000000)">
                    <g id="dinner" transform="translate(54.000000, 11.000000)">
                        <path d="M24.6131836,0.0866732144 C24.375,-0.0408170031 24.0860352,-0.0268033331 23.8613281,0.123050163 C22.4766602,1.04609692 21.035498,2.15869442 20.0047363,4.43198514 C17.9805176,2.56509086 15.3052734,1.51367498 12.5,1.51367498 C10.6967285,1.51367498 8.90146484,1.95971984 7.32421875,2.78550098 L7.32421875,0.732425082 C7.32421875,0.327932948 6.99628906,3.30396247e-06 6.59179688,3.30396247e-06 C6.18730469,3.30396247e-06 5.859375,0.327932948 5.859375,0.732425082 L5.859375,5.90820565 L4.39453125,5.90820565 L4.39453125,0.732425082 C4.39453125,0.327932948 4.06660156,3.30396247e-06 3.66210938,3.30396247e-06 C3.25761719,3.30396247e-06 2.9296875,0.327932948 2.9296875,0.732425082 L2.9296875,5.90820565 L1.46484375,5.90820565 L1.46484375,0.732425082 C1.46484375,0.327932948 1.13691406,3.30396247e-06 0.732421875,3.30396247e-06 C0.327929688,3.30396247e-06 0,0.327932948 0,0.732425082 C0,1.03354809 0,7.76518782 0,8.10547098 C0,9.06030484 0.612353516,9.87441606 1.46484375,10.1767598 L1.46484375,22.8027347 C1.46484375,24.0143068 2.45053711,25 3.66210938,25 C4.87368164,25 5.859375,24.0143068 5.859375,22.8027347 L5.859375,21.2906743 C7.77260742,22.7311526 10.1177734,23.5351564 12.5,23.5351564 C15.5845215,23.5351564 18.5304199,22.2076176 20.6054688,19.9689948 L20.6054688,22.8027347 C20.6054688,24.0143068 21.5911621,25 22.8027344,25 C24.0143066,25 25,24.0143068 25,22.8027347 C25,22.5538089 25,1.07431957 25,0.732425082 C25,0.46230793 24.8513184,0.214114604 24.6131836,0.0866732144 Z M7.32421875,4.47588162 C8.84267578,3.50810831 10.665625,2.97851854 12.5,2.97851854 C15.1506836,2.97851854 17.6658203,4.05918246 19.4632812,5.95547127 C19.2937988,6.59580321 19.1898437,7.25249258 19.154834,7.91333234 C17.6665039,5.79790293 15.2342773,4.44336209 12.5,4.44336209 C10.597998,4.44336209 8.76357422,5.1155788 7.32421875,6.29648685 L7.32421875,4.47588162 Z M6.3949707,9.89829301 C6.88461914,9.5509786 7.22617187,9.00869352 7.30581055,8.38530493 C8.5543457,6.83051998 10.4801758,5.90820565 12.5,5.90820565 C16.1616211,5.90820565 19.140625,8.86528534 19.140625,12.5000017 C19.140625,16.134718 16.1616211,19.0917977 12.5,19.0917977 C8.83837891,19.0917977 5.859375,16.1347668 5.859375,12.5000017 C5.859375,11.5947772 6.03964844,10.7206074 6.3949707,9.89829301 Z M4.39453125,22.8027347 C4.39453125,23.206592 4.0659668,23.5351564 3.66210938,23.5351564 C3.25825195,23.5351564 2.9296875,23.206592 2.9296875,22.8027347 L2.9296875,10.3027363 L4.39453125,10.3027363 L4.39453125,22.8027347 Z M5.12695312,8.83789276 L2.19726562,8.83789276 C1.7934082,8.83789276 1.46484375,8.50932835 1.46484375,8.10547098 L1.46484375,7.3730492 L5.859375,7.3730492 L5.859375,8.10547098 C5.859375,8.50932835 5.53081055,8.83789276 5.12695312,8.83789276 Z M20.6054688,17.5746104 C18.8520996,20.3522955 15.7653809,22.0703129 12.5,22.0703129 C10.0533691,22.0703129 7.65004883,21.0893072 5.859375,19.3700691 L5.859375,17.1071788 C7.33574219,19.1917976 9.75263672,20.5566412 12.5,20.5566412 C15.6427734,20.5566412 18.3791016,18.7570321 19.7242676,16.146925 C19.7723145,16.1568371 19.8220703,16.1621105 19.8730469,16.1621105 L20.6054688,16.1621105 L20.6054688,17.5746104 Z M23.5351562,22.8027347 C23.5351562,23.206592 23.2065918,23.5351564 22.8027344,23.5351564 C22.398877,23.5351564 22.0703125,23.206592 22.0703125,22.8027347 L22.0703125,15.4296888 C22.0703125,15.0251966 21.7423828,14.697267 21.3378906,14.697267 L20.6054688,14.697267 L20.6054688,8.41469946 C20.6054688,6.0025904 21.7109375,3.67290321 23.5351562,2.15366513 C23.5351562,2.73813771 23.5351562,22.4220218 23.5351562,22.8027347 Z" id="Shape"></path>
                    </g>
                </g>
            </g>
        </g>
    </g>
</svg>