<?xml version="1.0" encoding="UTF-8"?>
<svg width="25px" height="30px" viewBox="0 0 25 30" version="1.1" xmlns="http://www.w3.org/2000/svg" xmlns:xlink="http://www.w3.org/1999/xlink">
    <!-- Generator: Sketch 51.3 (57544) - http://www.bohemiancoding.com/sketch -->
    <title>Shape</title>
    <desc>Created with Sketch.</desc>
    <defs></defs>
    <g id="V2" stroke="none" stroke-width="1" fill="none" fill-rule="evenodd">
        <g id="Perfil-DESKTOP-pedidos" transform="translate(-66.000000, -278.000000)" fill="#979797" fill-rule="nonzero">
            <g id="Group-2" transform="translate(0.000000, 126.000000)">
                <g id="Group-14">
                    <g id="Group-7" transform="translate(64.000000, 152.000000)">
                        <g id="noun_User_1435441" transform="translate(2.000000, 0.000000)">
                            <path d="M0,25.14945 L0,26.6559063 C-1.49022562e-15,28.0425609 1.12679511,29.1666667 2.51676732,29.1666667 L22.4831214,29.1666667 C23.8730936,29.1666667 24.9998887,28.0425609 24.9998887,26.6559063 L24.9998887,25.14945 C25.0217209,19.9845983 21.8287688,15.348357 16.9881794,13.5162602 C18.7457486,11.9554926 19.7400685,9.71216691 19.7146774,7.36489718 C19.7146774,3.18029651 16.6106643,0 12.4999444,0 C8.38922441,0 5.28521138,3.22214252 5.28521138,7.40674319 C5.2598202,9.75401292 6.25414013,11.9973386 8.01170931,13.5581062 C3.19326343,15.3946628 0.00764532189,20.0036162 0,25.14945 Z M6.96305626,7.40674319 C6.96305626,4.10090866 9.31203909,1.71568627 12.4999444,1.71568627 C15.6878496,1.71568627 18.0368325,4.10090866 18.0368325,7.40674319 C18.0368325,10.7125777 15.5620113,13.5999522 12.4999444,13.5999522 C9.43787746,13.5999522 6.96305626,10.7962697 6.96305626,7.40674319 Z M9.85733868,14.6879484 C11.5417987,15.4241354 13.45809,15.4241354 15.1425501,14.6879484 C19.9314881,15.921377 23.2888406,20.2154018 23.3220439,25.14945 L23.3220439,26.6559063 C23.3220439,27.1181245 22.9464455,27.4928264 22.4831214,27.4928264 L2.51676732,27.4928264 C2.05344325,27.4928264 1.67784488,27.1181245 1.67784488,26.6559063 L1.67784488,25.14945 C1.66644501,20.2000454 5.04261114,15.8819582 9.85733868,14.6879484 Z" id="Shape"></path>
                        </g>
                    </g>
                </g>
            </g>
        </g>
    </g>
</svg>