<?xml version="1.0" encoding="utf-8"?>
<!-- Generator: Adobe Illustrator 22.0.0, SVG Export Plug-In . SVG Version: 6.00 Build 0)  -->
<svg version="1.1" id="svg" xmlns="http://www.w3.org/2000/svg" xmlns:xlink="http://www.w3.org/1999/xlink" x="0px" y="0px"
	 viewBox="0 0 361.7 380.6" style="enable-background:new 0 0 361.7 380.6;" xml:space="preserve">
<style type="text/css">
	.st0{fill:#2D2D2D;}
</style>
<title>cupon</title>
<g id="svgg">
	<path id="path0" class="st0" d="M175.5,0.1c-0.5,0.2-1.1,0.3-1.7,0.3c-0.7,0-1.4,0.2-1.9,0.6c-0.4,0.3-0.8,0.5-1.3,0.5
		c-0.7,0.1-1.4,0.4-1.9,0.8c-0.4,0.4-0.9,0.6-1.4,0.8c-0.2,0-0.5,0.3-0.6,0.6c-0.1,0.3-0.5,0.6-0.8,0.6c-0.3,0-0.7,0.4-0.8,0.8
		s-0.4,0.7-0.6,0.6S164,5.8,164,6s-0.2,0.3-0.4,0.2s-0.4,0-0.4,0.2c-0.2,0.5-0.5,1-1,1.4c-0.5,0.5-0.9,1-0.8,1.1s-0.2,0.4-0.6,0.6
		s-0.8,0.6-0.8,0.9c-0.5,1.2-1.2,2.2-2,3.2c-1,1.1-1.9,2.3-2.6,3.6c0.3,0-0.2,0.6-1.9,2.4c-0.5,0.4-0.8,1-1.1,1.5
		c-0.1,0.4-0.3,0.7-0.6,1c-0.5,0.6-0.9,1.2-1.2,1.9c-0.3,0.7-0.6,1.2-0.6,0.9c0-0.5-1.4,1.4-1.4,1.9c0,0.2-0.3,0.6-0.7,0.8
		c-0.4,0.2-0.6,0.6-0.7,1.1c-0.1,0.5-0.4,0.8-0.8,1.1c-0.4,0.3-0.7,0.7-0.6,0.9s-0.2,0.6-0.7,1s-0.7,0.6-0.5,0.6s0,0.3-0.5,0.8
		s-0.8,0.8-0.7,0.9s-0.3,0.7-0.8,1.3c-0.4,0.4-0.8,0.9-1,1.5c0,0.6-2.9,3.6-3.5,3.6c-0.3,0-0.5,0.2-0.5,0.4c0,0.5-2.1,1.5-3.1,1.4
		c-0.5,0-0.8,0.1-0.7,0.3s-0.4,0.3-1.2,0.3c-0.6,0.1-1.2-0.1-1.7-0.4c-0.2-0.2-0.5-0.3-0.8-0.2c-0.2,0.1-0.5,0.1-0.8,0
		c-0.3-0.2-0.7-0.3-1.1-0.4c-0.4,0-0.8-0.2-1.1-0.5c-0.2-0.2-0.6-0.3-0.9-0.2c-0.4,0.1-0.7,0-0.7-0.2s-0.6-0.4-1.4-0.6
		s-1.4-0.5-1.4-0.7s-0.2-0.3-0.6-0.2c-0.3,0.1-0.6,0.1-0.8,0c-0.3-0.2-0.7-0.3-1.1-0.4c-0.5-0.1-1-0.3-1.4-0.5
		c-0.2-0.2-0.6-0.3-0.9-0.2c-0.2,0.1-0.8-0.1-1.3-0.5c-0.4-0.4-0.9-0.6-1.4-0.6c-0.3,0.1-0.5,0-0.5-0.2s-0.8-0.5-1.8-0.7
		s-1.8-0.4-1.8-0.6s-0.6-0.5-1.4-0.6s-1.4-0.4-1.4-0.6s-0.6-0.4-1.4-0.6c-1.1-0.2-2.1-0.6-3.1-1c-0.8-0.4-1.7-0.7-2.6-0.8
		c-0.5,0-0.9-0.2-0.9-0.4s-0.7-0.5-1.5-0.6c-0.6-0.1-1.2-0.3-1.7-0.6c-0.4-0.3-0.8-0.5-1.3-0.5c-0.6-0.1-1.1-0.3-1.6-0.5
		c-0.5-0.2-1-0.4-1.5-0.5c-0.6-0.1-1.1-0.3-1.7-0.5c-0.7-0.3-1.5-0.5-2.3-0.5c-0.9,0-1.6-0.2-1.6-0.4c0-0.4-4.8-0.4-5.4,0
		c-0.8,0.3-1.7,0.5-2.6,0.5c-1.1,0.1-2.1,0.4-3.1,0.8c-0.4,0.3-0.9,0.5-1.4,0.6c-0.4,0-0.7,0.3-0.8,0.6c-0.2,0.4-0.6,0.6-1.1,0.6
		c-0.5,0-0.7,0.2-0.6,0.4c0.1,0.2,0,0.3-0.3,0.2s-1,0.2-1.6,0.7s-1.7,1.5-2.4,2.1s-1.4,1.4-1.4,1.7s-0.2,0.5-0.4,0.5
		c-0.2,0-0.5,0.5-0.6,1c-0.1,0.5-0.4,0.9-0.6,0.8c-0.2-0.1-0.5,0.2-0.6,0.8c-0.1,0.6-0.4,0.9-0.6,0.8c-0.4-0.2-0.9,1-0.6,1.4
		c0.1,0.2,0,0.4-0.2,0.4s-0.4,0.4-0.4,0.8s-0.2,0.7-0.5,0.5s-0.4,0-0.2,0.8c0.1,0.6,0,1.2-0.1,1.3c-0.2,0.3-0.4,0.6-0.3,1
		c0,0.4-0.2,0.8-0.4,0.8s-0.3,8.6-0.3,22.6c0,12.4,0,22.6-0.2,22.6S60,92.5,60,93.2s-0.2,1.1-0.4,1s-0.3,0-0.2,0.3
		c0.1,0.4-0.1,0.8-0.4,1.1c-0.3,0.3-0.6,0.7-0.6,1.1c0,0.3-0.1,0.5-0.3,0.3s-0.5,0.1-0.8,0.5s-0.7,0.7-0.9,0.6s-0.4,0-0.4,0.2
		c0,0.6-4.1,2.3-4.9,2.1c-0.2,0-0.3,0.1-0.3,0.3s-0.3,0.3-0.7,0.3c-0.3-0.1-0.7,0-0.9,0.3c-0.2,0.2-0.5,0.4-0.8,0.5
		c-0.5,0.1-1,0.3-1.5,0.6c-0.5,0.3-0.8,0.3-0.7,0.1s-0.2-0.2-0.8,0.2c-0.5,0.3-1,0.5-1.6,0.6c-0.3,0-0.5,0.2-0.5,0.3
		s-0.7,0.5-1.5,0.6c-2.5,0.6-4.8,1.4-7.1,2.5c-0.6,0.3-1.3,0.5-2,0.7c-0.4,0.1-0.8,0.2-1.2,0.3c-0.5,0.2-1.1,0.4-1.6,0.6
		c-1.6,0.4-1.8,0.5-2.1,0.6c-0.2,0-0.4,0-0.6,0c-0.2,0-0.3,0.1-0.3,0.3s-0.3,0.4-0.7,0.4c-0.4,0-0.9,0.2-1.2,0.5
		c-0.3,0.3-0.5,0.4-0.5,0.2s-0.8,0.1-1.8,0.5c-0.7,0.4-1.5,0.6-2.3,0.5c-0.3-0.2-0.3-0.1-0.2,0.2s-0.1,0.5-0.7,0.5s-1,0.2-1,0.7
		s-0.1,0.6-0.4,0.1c-0.2-0.3-0.4-0.4-0.4-0.1s-0.5,0.4-1,0.4s-1.1,0-1.2,0.2c-0.3,0.2-0.6,0.4-1,0.3c-0.4,0-0.8,0.2-0.8,0.4
		s-0.3,0.3-0.7,0.2s-0.6-0.1-0.4,0s-0.2,0.6-2.8,2c-0.7,0.4-1.3,0.9-1.7,1.5c-0.3,0.5-0.8,1-1.3,1.2c-0.5,0.2-0.9,0.6-0.9,0.9
		s-0.1,0.7-0.1,0.9s-0.4,0.3-0.7,0.1s-0.6-0.1-0.4,0.2s0.1,0.5,0,0.5c-0.6,0.5-1,1.2-1.3,1.9c-0.3,0.7-0.8,1.4-1.2,2.1
		c-1.3,1.2-2,5.3-1.8,10.8c0.2,7.3,0.2,7.2,0.8,7.2c0.3,0,0.5,0.3,0.5,0.7c0.1,1.8,0.3,2.4,0.6,2.2s0.3,0.2,0.3,0.6s0.2,0.7,0.5,0.6
		s0.4-0.1,0.2,0.2c-0.1,0.4-0.1,0.8,0.1,1.2c0.2,0.4,0.4,0.5,0.4,0.3c0-0.4,0.9,0.9,1.6,2.5c0.2,0.5,0.6,0.9,0.8,0.9s0.5,0.5,0.6,1
		s0.4,0.9,0.6,0.8s0.3,0,0.2,0.3c-0.1,0.4,0.1,0.8,0.4,1.1c0.3,0.3,0.6,0.7,0.6,1.1c0,0.3,0.2,0.5,0.4,0.3s0.5,0.2,0.6,0.8
		c0.1,0.5,0.4,0.9,0.8,1.2c0.3,0.2,0.5,0.5,0.6,0.8c0,0.3,0.2,0.6,0.5,0.6c0.2,0,0.4,0.1,0.2,0.3s0.2,0.6,0.7,1.1
		c0.5,0.5,1,1.1,1.2,1.8c0.2,0.5,0.4,0.8,0.5,0.7s0.6,0.4,2,2.9c0.4,0.7,0.8,1.2,1,1.1s0.3-0.1,0.4,0.1c0.1,1.2,0.4,1.9,0.8,2.1
		c0.3,0.1,0.4,0.4,0.4,0.7c0,0.4,0.3,0.7,0.6,0.8c0.3,0.1,0.5,0.4,0.4,0.5s0.2,0.6,0.6,1s0.7,0.9,0.5,1.1s-0.1,0.3,0.2,0.1
		c0.4-0.3,2.1,2.2,2.1,3.1c0,0.3,0.4,0.7,0.8,1s0.8,0.7,0.8,0.9c0.1,0.4,0.2,0.7,0.5,1c0.9,0.8,1.5,1.8,1.7,2.9
		c0.2,0.7,0.4,1.3,0.5,1.3c0.4,0,0.3,3.7-0.1,4.4c-0.2,0.2-0.2,0.6,0.1,0.8c0,0,0.1,0.1,0.1,0.1c0.3,0.2,0.4,0.4,0.1,0.4
		s-0.9,1-1.5,2.2c-0.3,0.9-0.9,1.7-1.5,2.4c-0.4,0.2-0.4,0.2,0,0.2s0.4,0.1,0,0.6s-0.7,0.5-0.9,0.3s-0.3-0.1-0.1,0.1
		c0.3,0.4-1,2.9-2,4c-0.4,0.4-0.7,0.9-1,1.5c-0.1,0.4-0.5,0.7-0.7,0.7s-0.3,0.2,0.1,0.6s0.4,0.6,0,0.5s-0.7,0.2-1,0.7
		c-0.2,0.4-0.4,0.7-0.7,1c-0.2,0.3-0.4,0.6-0.4,1c-0.1,0.4-0.4,0.8-0.7,0.7s-0.5,0.2-0.3,0.7s0.1,0.8-0.1,0.8s-0.5,0.4-0.6,0.8
		s-0.4,0.7-0.6,0.6s-0.4,0.2-0.4,0.8s-0.2,1-0.6,1s-0.5,0.2-0.4,0.4s0.1,0.4-0.2,0.4s-0.4,0.4-0.4,0.8c0,0.4-0.2,0.8-0.5,1.1
		c-0.4,0.4-0.8,0.8-1,1.3c-0.5,1.1-1.2,2.2-2,3.1c-0.3,0.3-0.4,0.7-0.3,0.9s-0.3,0.9-1,1.5s-1.1,1.2-1,1.4s-0.1,0.4-0.4,0.7
		c-0.3,0.3-0.5,0.7-0.6,1.1c0,0.3-0.2,0.5-0.4,0.3s-0.3,0-0.1,0.4s0,0.6-0.3,0.6s-0.4,0.1-0.3,0.2s-0.3,0.8-0.9,1.4
		c-0.7,0.9-1.2,1.8-1.6,2.9c-0.3,0.9-0.6,1.6-0.8,1.6c-1.4,0-2.7,13.8-1.5,17.4L1,251c0.1,0.5,0.5,0.9,0.7,0.9s0.3,0.2,0.1,0.4
		s-0.1,0.4,0.2,0.4s0.4,0.3,0.4,0.6s0.2,0.6,0.4,0.6s0.3,0.2,0.2,0.4s0,0.4,0.2,0.4s0.3,0.2,0.2,0.4s0.4,1,1.2,1.8s1.4,1.5,1.2,1.8
		s0.1,0.4,0.6,0.4s0.7,0.2,0.6,0.6s0,0.6,0.2,0.6c0.7,0,2.8,1.7,2.6,2.1c-0.1,0.2,0,0.3,0.3,0.3c1.1,0.1,2.2,0.6,3.1,1.3
		c0.4,0.5,2.8,1.5,2.6,1.1c-0.1-0.2,0.2-0.1,0.8,0.3c0.5,0.3,1,0.5,1.6,0.5c0.4-0.1,0.7,0,1,0.2c0.2,0.2,0.5,0.4,0.8,0.5
		c1.2,0.1,2.4,0.5,3.5,1c0.1,0.2,0.6,0.3,1,0.2s0.8,0,0.8,0.1s0.3,0.3,0.7,0.4c1.5,0.1,2.9,0.5,4.2,1.1c0.8,0.3,1.6,0.6,2.5,0.6
		c0.5,0,1,0.2,1,0.4s0.4,0.4,0.9,0.4c1.5,0,3.5,0.5,3.3,0.8c-0.1,0.2,0.1,0.3,0.5,0.3c0.5,0,1,0.1,1.5,0.2c0.4,0.1,1.5,0.3,2.4,0.5
		c0.7,0.1,1.4,0.3,2.1,0.7c0.3,0.2,0.6,0.3,1,0.3c1,0,2,0.3,2.9,0.9c0.6,0.3,0.7,0.3,0.4-0.1s0-0.2,0.5,0.2c0.6,0.4,1.3,0.7,2.1,0.7
		c0.7,0,1.2,0.2,1.1,0.4s0.1,0.3,0.5,0.3c1.2,0,3.3,1.1,5,2.8c1.4,1.5,1.8,1.9,1.6,2.4c-0.1,0.3,0,0.5,0.2,0.5
		c0.8,0,1.4,7.2,0.7,7.9c-0.1,0.1,0,0.5,0.2,0.9s0.2,0.8,0.1,0.8s-0.4,1.6-0.4,3.6c0,1.4-0.1,2.9-0.4,4.3c-0.3,1.6-0.4,3.2-0.3,4.8
		c0.1,1.4,0,2.7-0.2,4.1c-0.8,0-0.8,25.3,0.1,25.8c0.2,0.1,0.2,0.4,0.1,0.6c0,0,0,0,0,0c-0.1,0.2-0.1,0.4,0.1,0.4
		c0.4,0,1.4,2,1.1,2.3c-0.1,0.1,0,0.4,0.2,0.6c1.6,1.9,2,2.5,2.2,3.1c0.1,0.4,0.3,0.7,0.5,0.6c0.3-0.3,2.1,1.6,2.1,2.2
		c0,0.2,0.1,0.3,0.3,0.2c0.4-0.2,1.7,1.2,1.4,1.5c-0.1,0.2-0.1,0.2,0.2,0c0.2-0.1,0.8,0.1,1.3,0.5c0.3,0.4,0.7,0.6,1.2,0.8
		c0.4,0.1,0.7,0.3,0.9,0.6c0.2,0.3,0.6,0.5,1,0.6c0.7,0.1,1.4,0.4,2,0.7c3.2,1.4,16,1.7,15.5,0.3c-0.1-0.3,0.2-0.4,0.8-0.3
		c0.7,0.1,1,0,1-0.2s0.3-0.3,0.6-0.2c0.4,0.1,0.8,0.1,1.1-0.2c0.3-0.2,0.8-0.3,1.2-0.3c0.4,0.1,0.7-0.1,0.7-0.2s0.5-0.4,1.2-0.4
		c0.7,0,1.3-0.2,1.8-0.6c0.5-0.5,0.6-0.5,0.6-0.1c0,0.4,0.1,0.4,0.3,0c0.6-0.4,1.3-0.7,2-0.8c0.9-0.1,1.7-0.4,1.7-0.6s2.7-1,3.3-0.9
		c0.2,0,0.3-0.1,0.3-0.3s0.3-0.3,0.7-0.3c0.4,0.1,0.7,0,1-0.3c0.3-0.3,0.6-0.4,1-0.5c0.7-0.1,1.3-0.3,1.9-0.6
		c0.9-0.3,1.8-0.6,2.7-0.7c0.8-0.1,1.4-0.4,1.3-0.6s1.6-0.5,1.9-0.2c0.4-0.1,0.8-0.3,1.2-0.6c0.6-0.4,1.2-0.6,1.9-0.5
		c0.5,0.1,0.8,0,0.8-0.2s0.5-0.4,1-0.4s0.9-0.2,0.8-0.3s0.2-0.3,0.8-0.2s0.9,0,0.8-0.2s0.6-0.4,1.5-0.5c0.7,0,1.3-0.2,1.9-0.6
		c0.7-1.2,9.4-1.1,10.1,0.1c0.1,0.2,0.4,0.3,0.5,0.2c0.3-0.3,2.2,1.4,2.2,2c0,0.2,0.2,0.4,0.4,0.4c0,0,0,0,0,0c0.2,0,0.6,0.5,0.8,1
		s0.6,1,0.8,1s0.5,0.4,0.6,1c0.3,0.7,0.7,1.4,1.2,2c0.5,0.5,0.9,1.1,0.7,1.2s0.2,0.6,0.8,1.1c0.7,0.6,1.2,1.4,1.5,2.2
		c0.3,0.8,0.8,1.4,1.1,1.4s0.5,0.2,0.3,0.6s0.1,0.8,0.6,1c0.4,0.2,0.7,0.6,0.8,1c0,0.3,0.2,0.6,0.4,0.6s0.5,0.5,0.6,1
		s0.4,0.9,0.7,0.7s0.3,0,0.2,0.4s-0.1,0.7,0.3,0.7s0.8,0.8,0.6,1.7c0,0.2,0.1,0.2,0.3,0.1s0.5,0.1,0.9,1.3c0.3,0.5,0.7,0.9,1.1,1.2
		c0.5,0.5,0.9,1,0.7,1.2s0.1,0.5,0.6,0.8s0.7,0.7,0.6,0.9s-0.1,0.4,0.2,0.4s0.5,0.4,0.6,0.8s0.4,0.7,0.6,0.6s0.4,0.1,0.4,0.6
		s0.2,0.8,0.4,0.8s0.3,0.2,0.2,0.4s0,0.5,0.4,0.6c0.3,0.1,0.6,0.5,0.6,0.8c0,0.3,0.2,0.6,0.4,0.6s0.3,0.2,0.2,0.4s0.1,0.6,0.6,0.8
		s0.8,0.6,0.8,0.9c0,0.6,2.3,3.2,3.4,3.8c0.5,0.3,0.7,0.5,0.5,0.5c-0.5,0,1.2,1.5,2.1,1.8c0.5,0.1,0.7,0.4,0.6,0.6s-0.1,0.3,0.1,0.3
		c0.6-0.2,2.1,0.5,2.1,0.9c0,0.2,0.2,0.3,0.4,0.1c0.3-0.1,0.6,0,0.8,0.3c0.3,0.4,2.2,0.5,9.6,0.5s9.3-0.1,9.6-0.5
		c0.1-0.3,0.5-0.4,0.8-0.3c0.2,0.1,0.4,0.1,0.4-0.1s0.4-0.5,0.9-0.6c0.7-0.2,1.2-0.6,1.7-1.2c0.4-0.5,0.9-1,1.2-1
		c0.5,0,4.6-3.6,4.1-3.6c-0.1,0,0.3-0.5,0.9-1.2s1.1-1.3,1-1.4s0.3-0.9,1-1.8s1.1-1.7,1-1.8s0.1-0.5,0.6-0.8s0.8-0.8,0.8-1
		c0-0.3,0.3-0.6,0.6-0.8c0.4-0.2,0.6-0.5,0.6-0.9c0-0.4,0.3-0.8,0.6-1c0.4-0.1,0.5-0.4,0.4-0.6s0.2-0.8,0.8-1.4s0.9-1.3,0.8-1.5
		s0-0.4,0.4-0.4s0.7-0.4,0.9-0.9c0.4-1.4,2-3.5,2.4-3.2c0.2,0.2,0.2,0.1,0.1-0.2s0.1-0.8,0.5-1.3s0.7-0.9,0.6-1s0-0.2,0.2-0.2
		s0.6-0.5,0.9-1.2s0.6-1.2,0.9-1.2s0.4-0.2,0.2-0.4s0.1-0.7,0.6-1.1c0.4-0.3,0.7-0.8,0.8-1.3c0-0.3,0.3-0.6,0.6-0.8
		c0.3-0.1,0.6-0.4,0.6-0.7c0.1-0.4,0.3-0.8,0.6-1c0.3-0.3,0.5-0.6,0.4-0.9s-0.1-0.4,0.1-0.4s0.5-0.5,0.8-1.2s0.7-1.2,1.1-1.2
		c0.5-0.1,0.8-0.4,1.1-0.8c0.2-0.4,0.6-0.7,1-0.8c0.4,0,0.5-0.2,0.3-0.5s-0.1-0.4,0.3-0.2c0.3,0.1,0.7,0.1,1-0.1
		c1.2-0.5,2.6-0.8,3.9-0.8c1.1,0,2.2,0.3,3.2,0.8c0.3,0.3,0.7,0.4,1.1,0.4c0.5,0,0.9,0.1,1.3,0.2c0.8,0.4,1.6,0.6,2.4,0.8
		c1,0.1,4.2,1.2,4.2,1.5c0.6,0.3,1.3,0.5,2,0.5c1.1,0.1,2,0.4,2,0.6s0.2,0.3,0.5,0.4c1.7,0.2,3.1,0.6,3.1,0.9s0.4,0.3,0.8,0.2
		s0.8,0,0.8,0.2s0.2,0.3,0.5,0.4c2.4,0.2,3.2,0.4,3.5,0.8c0.6,0.4,1.2,0.6,1.8,0.7c0.8,0.1,1.5,0.4,2.2,0.8c0.5,0.4,0.5,0.3,0.2-0.1
		s-0.1-0.4,0.7,0.1c0.6,0.4,1.2,0.6,1.5,0.5c0.1-0.1,0.3-0.1,0.4,0.1c0,0,0,0.1,0,0.1c0.1,0.2,0.5,0.5,1,0.5c0.4,0,0.8,0.2,1.2,0.4
		c0.3,0.2,0.7,0.3,1,0.3c0.7,0.1,1.4,0.3,2,0.6c1.3,0.6,2.6,0.9,4,1c0.2,0,0.2,0.2,0.1,0.4s0.4,0.3,1.2,0.3s1.4,0.1,1.4,0.2
		s0.4,0.3,1,0.3c0.4,0,0.8,0.1,1.2,0.3c0.2,0.4,6.5,0.3,7.4,0c1.4-0.4,2.8-0.7,4.3-0.8c0.3,0,0.4-0.1,0.3-0.3s0.2-0.5,0.7-0.8
		c0.7-0.4,0.8-0.4,0.5,0s-0.2,0.4,0.3,0c0.3-0.3,0.8-0.4,0.9-0.2s0.2,0.1,0.1-0.1s0.4-0.7,1.2-1c0.7-0.2,1.4-0.6,2-1.2
		c0.3-0.4,0.5-0.5,0.5-0.3c0,0.4,4.5-4.3,5-5.2c0.2-0.4,0.5-0.7,0.9-1c0.3-0.2,0.5-0.6,0.5-1c0.1-0.5,0.3-1,0.6-1.3
		c0.4-0.4,0.6-1,0.7-1.5c0-0.5,0.2-0.9,0.3-0.9c0.4,0,1.2-3.3,1.2-5c0-0.8,0.2-1.4,0.4-1.4c0.2,0,0.4-0.2,0.4-0.4c0,0,0,0,0,0
		c0-0.2-0.2-0.3-0.5-0.1s-0.4,0.1,0-0.4s0.5-2.2-0.1-3.5c-0.3-0.6-0.6-7.1-0.7-13.9c0-2.3-0.2-4.1-0.4-4.1c-0.3-1.4-0.4-2.8-0.2-4.2
		c0.1-1.3,0-2.7-0.2-4c-0.3-1.2-0.4-2.5-0.4-3.7c0-1.4-0.1-2.8-0.3-4.2c-0.3-0.5-0.4-5.8,0-5.6c0.1,0.1,0.2-0.3,0.2-0.9
		c0-0.5,0.1-0.9,0.4-1.3c0.7-0.7,1.2-1.7,1.4-2.7c0-0.4,0.1-0.6,0.3-0.4s0.5-0.1,0.8-0.4c0.2-0.3,0.6-0.6,0.9-0.7l0.8-0.1
		c0.2-0.1,0.4-0.3,0.3-0.5c0,0,0,0,0,0c-0.1-0.2,0-0.3,0.2-0.4c0.1,0,0.1,0,0.2,0c0.3,0,0.5,0,0.5-0.2s0.5-0.3,1-0.2s1,0,1-0.2
		s0.4-0.5,0.9-0.5c0.4,0,0.8-0.1,1.2-0.3c0.9-0.4,2-0.6,3-0.6c0.5,0,0.9-0.2,0.9-0.4s0.5-0.3,1.2-0.3s1.3-0.2,1.4-0.4
		c0.1-0.2,0.4-0.3,0.6-0.2c0.2,0.1,0.4,0.1,0.6-0.1c0.6-0.4,1.2-0.6,1.9-0.6c0.7-0.1,1.4-0.3,2.1-0.6c0.6-0.3,1.2-0.5,1.8-0.6
		c0.8-0.1,1.9-0.4,2.4-0.5c0.6-0.1,1.1-0.2,1.7-0.2c0.4,0,0.7-0.1,0.7-0.3s0.9-0.5,2-0.6s1.9-0.4,1.8-0.6s0.2-0.4,0.7-0.4
		c0.6,0,1.2-0.1,1.7-0.2c0.4-0.1,0.9-0.2,1.3-0.2c0.3,0,0.5-0.2,0.5-0.4s0.5-0.3,1-0.3c0.8-0.1,1.6-0.2,2.3-0.5
		c0.6-0.3,1.3-0.4,2-0.4c0.4,0,0.7-0.1,0.7-0.3s0.4-0.4,0.9-0.4c0.9,0,6.6-2.6,7-3.2c0.1-0.2,0.3-0.3,0.5-0.2c0,0,0,0,0,0
		c0.2,0.1,0.8-0.5,1.5-1.2s2-2.2,3.1-3.2s1.8-1.9,1.7-2c0.2-0.7,0.5-1.4,1-2.1c0.5-0.7,0.9-1.5,1.2-2.4c0-0.2,0.1-0.4,0.3-0.5
		c0,0,0.1,0,0.1,0c0.2,0,0.3-0.4,0.2-0.8s0-0.8,0.2-0.8c0.7,0,0.5-13.1-0.2-14.3c-0.5-0.8-0.5-1-0.1-0.8s0.4,0.1-0.1-0.6
		c-0.4-0.5-0.6-1.1-0.7-1.7c0-0.4-0.2-0.6-0.4-0.5s-0.5-0.2-0.6-0.8c-0.1-0.5-0.4-1.1-0.8-1.5c-0.3-0.3-0.5-0.8-0.6-1.3
		c0-0.4-0.1-0.7-0.3-0.5s-1.5-2.1-1.4-2.7c0-0.2-0.1-0.2-0.3-0.1s-0.6-0.1-0.8-0.6s-0.3-0.8-0.1-0.8s0-0.3-0.5-0.6s-0.6-0.6-0.4-0.6
		s0-0.4-0.4-0.8s-0.6-0.8-0.4-0.8s0-0.2-0.3-0.4c-0.4-0.2-0.6-0.6-0.7-1c0-0.3-0.2-0.6-0.4-0.6s-0.6-0.6-0.8-1.4
		c-0.2-0.6-0.5-1.2-1-1.6c-0.3-0.1-0.5-0.4-0.6-0.8c0-0.4-0.3-0.7-0.6-0.8c-0.3-0.1-0.5-0.5-0.4-0.8c0.1-0.3,0-0.6-0.2-0.6
		c-0.4,0-1.5-1.9-2.4-4.1c-0.3-0.7-0.7-1-1-0.9s-0.5,0.1-0.3-0.2c0.1-0.4,0-0.7-0.2-1c-0.3-0.3-0.4-0.6-0.2-0.6s0-0.3-0.4-0.6
		c-0.4-0.3-0.6-0.7-0.7-1.2c0-0.3-0.2-0.6-0.4-0.6s-0.9-0.9-1.5-1.9c-0.5-0.9-1.1-1.8-1.7-2.6c-0.3-0.4-0.4-0.7-0.2-0.7
		s0-0.3-0.4-0.6s-0.6-0.7-0.5-0.9s-0.1-0.5-0.5-0.8s-0.7-0.7-0.6-0.9s0-0.4-0.2-0.4c-0.2,0-0.4-0.2-0.4-0.4c0,0,0,0,0,0
		c-0.2-0.5-0.4-1-0.8-1.4c-0.4-0.5-0.7-1.2-0.8-1.9c0-0.4-0.1-0.8-0.3-1.1c-0.4-0.4-0.4-3.5,0-3.5c0.2,0,0.3-0.5,0.3-1.1
		c0.1-0.8,0.3-1.5,0.8-2.2c0.4-0.4,0.6-0.9,0.8-1.5c0-0.2,0.2-0.3,0.5-0.2s0.4,0.1,0.2-0.2s0.2-1,0.7-1.6c0.5-0.5,0.9-1.1,1.2-1.8
		c0.1-0.4,0.4-0.6,0.6-0.5s0.5-0.3,0.6-1s0.4-1.2,0.6-1.2s0.5-0.4,0.6-0.9c0.2-0.6,0.6-1.1,1-1.6c0.4-0.3,0.6-0.6,0.7-1.1
		c0-0.3,0.2-0.6,0.5-0.8c0.8-0.7,1.4-1.5,1.8-2.5c0.3-0.5,0.6-0.9,1-1.3c0.4-0.3,0.6-0.8,0.7-1.3c0-0.4,0.3-0.7,0.6-0.8
		c0.3-0.1,0.6-0.4,0.6-0.8c0-0.4,0.3-0.7,0.6-0.8c0.3-0.1,0.6-0.5,0.6-0.9c0-0.3,0.2-0.6,0.4-0.6s0.4-0.3,0.4-0.6
		c0.1-0.5,0.4-1,0.7-1.3c0.4-0.4,0.8-0.9,1-1.4c0.1-0.4,0.5-0.7,0.7-0.7s0.4-0.2,0.2-0.5c-0.1-0.4,0.2-0.8,0.5-1.1s0.6-0.6,0.5-1.1
		c-0.1-0.3,0.1-0.5,0.4-0.5s0.6-0.3,0.6-0.8s0.2-0.8,0.4-0.8s0.6-0.4,0.8-1s0.6-1,0.8-1s0.4-0.3,0.4-0.6c0.1-0.4,0.3-0.7,0.6-0.9
		c0.4-0.2,0.6-0.5,0.6-0.7c0.1-0.6,0.3-1.3,0.7-1.8c1.6-1.3,3-16.1,1.6-17c-0.3-0.3-0.4-0.7-0.4-1.2c0-0.4-0.1-0.8-0.3-1.2
		c-0.2-0.2-0.3-0.3-0.3-0.6c-0.2-0.7-0.5-1.3-0.9-1.9c-0.5-0.9-0.7-1.8-0.6-2s0.1-0.2-0.2-0.1s-0.6-0.2-0.9-0.9
		c-0.4-1.2-2.7-3.6-3.4-3.6c-0.2,0-0.2-0.2-0.1-0.4s-0.2-0.4-0.6-0.6s-0.7-0.4-0.5-0.7s0.1-0.4-0.1-0.2s-0.8-0.1-1.3-0.6
		s-1.1-0.7-1.3-0.5s-0.3,0.1-0.2-0.2s-0.2-0.6-0.8-0.7c-0.7-0.2-1.4-0.5-2-0.9c-0.5-0.3-1-0.5-1.2-0.3s-0.5,0-0.7-0.3
		c-0.4-0.4-1-0.7-1.6-0.8c-0.6-0.1-1.2-0.3-1.7-0.7c-0.3-0.3-0.6-0.4-0.6-0.2s-0.8,0-1.8-0.3c-0.6-0.2-1.2-0.4-1.8-0.3
		c0,0.1-0.5-0.2-1-0.6c-0.5-0.4-1.1-0.7-1.7-0.8c-0.4,0-0.7-0.1-1-0.3c-0.2-0.2-0.5-0.3-0.8-0.3c-1,0-2.7-0.7-2.7-1
		s-0.3-0.3-0.7-0.2c-0.4,0.1-0.8,0-1.2-0.2c-0.2-0.2-0.5-0.3-0.8-0.3c-0.6,0.1-2.1-0.5-2.1-0.8c0-0.2-0.7-0.4-1.6-0.6
		s-1.6-0.5-1.6-0.7s-0.4-0.4-1-0.2s-1,0-1-0.2s-0.4-0.3-0.8-0.3s-0.8-0.2-0.8-0.4s-0.3-0.3-0.6-0.2s-0.6,0-0.6-0.2s-0.8-0.5-1.8-0.7
		s-1.7-0.4-1.6-0.7s0-0.3-0.3-0.3c-0.9,0.1-3.1-0.5-3.1-0.9c0-0.2-0.2-0.3-0.4-0.2s-1-0.1-1.8-0.6c-1-0.5-1.4-0.6-1.4-0.3
		s-0.2,0.2-0.5-0.2s-0.6-0.6-0.7-0.5c-0.3,0.3-3.9-3.4-3.7-3.8c0.1-0.2,0-0.4-0.2-0.4s-0.4-0.3-0.2-0.6s0-0.6-0.2-0.7
		s-0.4-8.3-0.5-21.3c-0.2-26.9-0.1-25.8-0.6-25.8c-0.2,0-0.4-0.5-0.4-1.2s-0.1-1.2-0.3-1.2c-0.5-0.7-0.9-1.6-1.1-2.4
		c-0.2-1-0.7-1.9-1.3-2.6c-0.3-0.1-0.5-0.4-0.5-0.8c0-0.4-0.3-0.7-0.6-0.8c-0.3-0.1-0.6-0.4-0.6-0.8c0-0.3-0.4-0.6-0.8-0.8
		s-0.8-0.4-0.7-0.5s-0.6-1-1.5-1.8l-2.2-2c-0.5-0.4-1.1-0.7-1.7-0.8c-1.7-0.4-3.9-1.7-3.6-2c0.1-0.2-0.1-0.2-0.6,0s-0.9,0.1-0.9-0.1
		s-0.5-0.4-1.2-0.4c-0.6,0-1.2-0.1-1.7-0.3c-0.8-0.5-5.1-0.6-6.4-0.2c-0.7,0.2-1.1,0.2-0.9,0s0-0.4-0.2-0.4c-0.3,0-0.4,0.2-0.4,0.5
		c0,0,0,0,0,0c0,0.3-0.6,0.5-1.5,0.6c-2.4,0.1-3.3,0.3-3,0.6s-0.7,0.5-1.6,0.4c-0.2,0-0.4,0.2-0.5,0.6c-0.3,0.4-0.7,0.6-1.2,0.6
		c-0.6,0-1.2,0.2-1.8,0.4c-0.6,0.3-1.2,0.5-1.8,0.6c-0.7,0.1-1.4,0.4-2.1,0.6c-0.5,0.2-1.1,0.4-1.6,0.4c-0.3,0-0.5,0.1-0.5,0.3
		s-0.7,0.5-1.6,0.7c-0.9,0.1-1.6,0.4-1.6,0.6s-0.7,0.5-1.6,0.6s-1.6,0.4-1.6,0.6s-0.3,0.4-0.6,0.5s-0.5,0.1-0.3-0.3s0.1-0.3-0.4,0
		c-1.8,1.1-3.7,1.8-5.8,2.3c-0.4,0-0.8,0.3-0.7,0.5s-0.2,0.4-0.6,0.4c-2,0-2.9,0.2-2.7,0.5s-0.1,0.3-0.6,0.2s-0.8,0-0.8,0.2
		s-0.4,0.4-0.8,0.4c-0.4,0-0.7,0.1-1,0.4c-0.2,0.2-0.4,0.4-0.7,0.3c-0.5-0.1-1.5,0.2-3.3,1.1c-0.8,0.3-1.6,0.5-2.4,0.6
		c-2.5,0.1-4.2,0-4-0.4s-0.2-0.3-0.7-0.2c-0.5,0.1-1.1-0.1-1.4-0.5c-0.3-0.3-0.7-0.6-1.1-0.6c-0.3,0-0.5-0.1-0.4-0.2
		c0.4-0.4-0.5-1.8-0.9-1.5c-0.2,0.1-0.5-0.2-0.7-0.7c-0.3-0.6-0.7-1.2-1.1-1.7c-0.6-0.8-1.2-1.6-1.7-2.4c-0.4-0.7-0.9-1.5-1.5-2.1
		c-0.3-0.2-0.4-0.6-0.5-0.9c0-0.2-0.2-0.3-0.4-0.2s-0.7-0.6-1-1.6c-0.3-0.9-0.8-1.6-1.4-2.2c-0.4-0.2-0.7-0.5-0.7-0.7
		c0.1-0.5-1.1-2.1-1.4-1.8c-0.1,0.1-0.3-0.1-0.3-0.5c0-0.9-1-2.3-1.3-1.9c-0.1,0.2-0.3,0-0.3-0.4s-0.2-0.7-0.4-0.7s-0.4-0.3-0.4-0.6
		c-0.1-0.5-0.4-1-0.8-1.3c-0.4-0.3-0.7-0.7-0.8-1.2c-0.1-0.3-0.3-0.6-0.6-0.7c-0.3-0.1-0.6-0.4-0.5-0.5c0.1-0.5-0.9-2.1-1.9-3.1
		c-0.5-0.5-0.9-1.1-1.2-1.7c-0.2-0.5-0.5-0.9-0.7-0.9s-0.3-0.1-0.2-0.2s-0.2-0.7-0.7-1.3c-0.4-0.4-0.8-0.9-1-1.4
		c0-0.2-0.2-0.2-0.5,0s-0.4,0.1-0.2-0.2s0-0.7-0.5-1.1s-0.8-0.8-0.6-1s-0.2-0.5-0.8-0.8c-0.5-0.2-1-0.5-1.3-1
		c-0.1-0.3-0.4-0.6-0.8-0.6c-0.3,0-0.6-0.2-0.6-0.4s-0.3-0.4-0.6-0.4s-0.5-0.2-0.4-0.4s-0.9-0.9-2.2-1.5c-0.9-0.3-1.7-0.8-2.4-1.4
		c0-0.1-0.4-0.2-0.9-0.2c-0.4,0.1-0.9-0.1-1.2-0.4C187.3,0.2,176-0.2,175.5,0.1 M183.4,14.4c-0.1,0.2,0,0.3,0.3,0.2s1,0.2,1.5,0.7
		s1,0.8,1,0.7c0-0.4,1.8,1,1.8,1.5c0,0.3,0.1,0.5,0.3,0.5c0.4,0,2.8,3.2,2.9,4c0.4,0.8,1,1.5,1.7,2.1c0.9,0.8,1.3,1.5,1,1.5
		s-0.2,0.3,0.3,0.8c0.4,0.4,0.7,0.9,0.9,1.4c0,0.4,0.2,0.6,0.4,0.4s0.4,0.1,0.4,0.5c0,0.4,0.2,0.8,0.5,1.1c0.3,0.2,0.4,0.1,0.2-0.2
		s-0.2-0.5,0-0.5s0.5,0.6,0.8,1.3c0.5,1.4,1.4,2.7,2.5,3.6c0.5,0.4,0.8,0.8,0.7,1s0.1,0.6,0.6,1s0.6,1,0.5,1.3s-0.1,0.3,0.1,0.2
		c0.4-0.3,1.7,1,2,2.2c0.3,0.6,0.7,1.2,1.2,1.8c0.6,0.6,1.1,1.3,1.5,2.1c0.3,0.6,0.6,1,1.1,1.5c0.3,0.1,0.4,0.4,0.5,0.7
		c0.2,0.5,0.4,0.9,0.8,1.2c0.4,0.4,0.7,0.9,0.8,1.4c0,0.3,0.3,0.6,0.6,0.6c0,0,0,0,0,0c0.4,0,0.5,0.2,0.4,0.4s0,0.5,0.4,0.6
		s0.6,0.4,0.5,0.5s0.2,0.6,0.6,1s0.7,0.6,0.7,0.5s0.3,0.1,0.8,0.5c2.2,2.1,3.4,3,3.1,2.6s-0.2-0.4,0.5,0c0.4,0.3,0.7,0.6,0.6,0.8
		s1.8,0.9,3.2,1c0.4,0,0.8,0.2,0.7,0.4c0,0.2,0.1,0.4,0.3,0.4c0,0,0,0,0.1,0c1.7,0.2,3.4,0.4,5.1,0.8c1.5,0.3,2.9,0.3,4.4,0
		c1.6-0.4,3.3-0.6,4.9-0.7c0.4,0,0.7-0.2,0.7-0.4s0.7-0.5,1.6-0.6s1.6-0.4,1.6-0.6s0.3-0.2,0.6-0.1s0.6,0,0.6-0.2s0.8-0.5,1.8-0.7
		s1.8-0.4,1.8-0.6s0.4-0.4,0.8-0.4c0.4,0,0.7-0.1,1-0.4c0.2-0.2,0.6-0.3,0.9-0.1c0.4,0.2,0.6,0.1,0.4-0.2c-0.2-0.3-0.1-0.5,0-0.5
		c1.1,0,2.2-0.3,3.2-0.8c0.2-0.2,0.6-0.3,0.9-0.2c0.2,0.1,0.4,0.1,0.4-0.2s0.4-0.4,0.9-0.4c0.6,0,1.2-0.2,1.7-0.6
		c0.7-0.4,1.5-0.7,2.3-0.8c0.8-0.2,1.5-0.4,1.5-0.6s0.5-0.4,1-0.4s1-0.2,1-0.4s0.3-0.3,0.6-0.2s0.6,0,0.6-0.2s0.4-0.3,0.8-0.2
		s0.8,0,0.8-0.2s0.7-0.5,1.5-0.7c0.7-0.1,1.4-0.4,1.9-0.9c0.5-0.4,1.1-0.7,1.7-0.6c0.7,0,1.1-0.2,1-0.3s0.2-0.3,0.7-0.3
		c0.6,0,1.2-0.2,1.8-0.6c0.5-0.3,1.1-0.5,1.7-0.4c0.5,0.1,1,0,1.1-0.2c0.3-0.5,2.9-0.5,3.2,0c0.3,0.2,0.7,0.3,1,0.2
		c0.4-0.1,0.8-0.1,0.8,0.2s0.5,0.4,1,0.4c0.6,0,1.1,0.3,1.5,0.8c0.2,0.4,0.6,0.7,1,0.8c0.3,0,0.5,0.3,0.5,0.6c0,0.3,0.2,0.6,0.5,0.6
		c2.1,0,2.3,2.2,2.3,25.8s0.1,24.4,0.5,24.9c0.2,0.4,0.3,0.8,0.3,1.2c0,0.6,0.2,0.9,0.5,0.7s0.4,0,0.3,0.8s-0.1,1,0.1,0.8
		s0.5,0.3,0.6,0.9c0.6,1.8,1.5,3.4,2.8,4.7c0.3,0.3,0.4,0.7,0.2,0.8s-0.1,0.2,0.2,0c0.5-0.3,2.8,2.1,2.6,2.7c-0.1,0.2,0,0.2,0.2,0.1
		s0.8,0.2,1.4,0.8s1,0.9,1,0.8s0.4,0.2,0.9,0.6s1,0.7,1,0.5s0.6,0,1.1,0.6c0.4,0.4,0.8,0.7,1.3,0.9c0.2,0,0.3,0,0.5,0
		c0.4,0.1,0.8,0.2,1.2,0.3c0.4,0.1,0.8,0.2,1.2,0.5c0.3,0.2,0.6,0.3,1,0.3c0.6,0,1.1,0.2,1.5,0.6c0.4,0.3,0.8,0.6,0.9,0.5
		c0.5-0.3,1.4,0,1.1,0.4s-0.1,0.3,0.2,0.2c0.4-0.1,0.8-0.1,1.2,0.1c1,0.4,2.1,0.8,3.1,1.1c1,0.3,2.1,0.7,3,1.2
		c0.4,0.3,0.8,0.5,1.2,0.5c1,0,6.3,1.9,6.1,2.1s0.1,0.2,0.6,0.1c0.7,0,1.5,0.2,2,0.6c0.6,0.4,1.3,0.7,1.5,0.6s0.4-0.1,0.4,0.1
		s0.8,0.5,1.8,0.6s1.7,0.4,1.6,0.6s0.2,0.4,0.7,0.4c0.7,0.1,1.4,0.3,2.1,0.6c0.5,0.3,1,0.5,1.5,0.6c0.5,0.1,1,0.3,1.5,0.5
		c0.5,0.2,1.1,0.4,1.7,0.4c0.4,0,0.9,0.2,1.2,0.5c0.4,0.5,1,0.7,1.7,0.7c0.2,0,0.3,0.2,0.2,0.4s0.6,0.6,1.5,0.4
		c0.2,0,0.2,0.1,0.1,0.4s0.2,0.8,0.7,1.3c1.3,1.2,2.3,3.3,2,4.1c-0.2,0.5-0.1,0.6,0.2,0.4s0.5,0.2,0.5,1.5c0,1-0.1,1.8-0.3,1.8
		s-0.3,0.7-0.3,1.5c0.1,0.8-0.3,1.6-0.9,2.1c-0.5,0.4-0.8,0.9-1,1.4c-0.1,0.4-0.3,0.7-0.5,0.7s-0.6,0.5-0.9,1.2s-0.7,1.2-0.9,1.2
		s-0.4,0.2-0.2,0.7c0.2,0.5,0,1.1-0.6,1.3c0,0,0,0,0,0c-0.4,0.2-0.7,0.6-0.8,1c0,0.3-0.3,0.5-0.6,0.5c-0.3,0-0.6,0.3-0.6,0.6
		c0,0,0,0,0,0c-0.1,0.4-0.3,0.8-0.7,1c-0.5,0.3-0.5,0.4-0.1,0.4s0.3,0.2-0.3,0.8c-0.4,0.3-0.7,0.7-0.9,1.1c-0.2,0.6-0.6,1.2-1,1.7
		c-0.6,0.7-1.1,1.5-1,1.6s-0.3,0.8-0.8,1.4c-0.4,0.4-0.8,0.9-1,1.5c0,0.2-0.2,0.2-0.5,0.1s-0.4-0.1-0.2,0.2s-0.2,0.9-0.7,1.4
		c-0.5,0.4-0.8,0.9-1,1.4c0,0.3-0.2,0.5-0.5,0.5c-0.3,0-0.3,0.1,0.1,0.4s0.5,0.4-0.1,0.4c-0.4,0-0.7,0.2-0.7,0.6
		c0,0.4-0.2,0.7-0.6,0.9c-0.3,0.2-0.6,0.4-0.6,0.5c0,0.6-0.6,1.6-0.9,1.4s-0.2,0.2-0.1,0.6s0,0.8-0.3,0.7s-0.9,0.6-1.3,1.4
		s-0.9,1.5-1.1,1.5s-0.5,0.4-0.6,0.9c-0.3,0.9-0.9,1.8-1.6,2.4c-0.8,1.3-1.5,2.6-2,4c-0.1,0.2-0.2,0.4-0.3,0.6
		c-0.2,0.4-0.3,0.8-0.3,1.2c0,0.5-0.2,0.9-0.4,0.9s-0.4,0.3-0.4,0.7s-0.1,2.6-0.2,5s0,4.3,0.1,4.3s0.3,0.6,0.2,1.3
		c-0.1,0.6,0,1.3,0.2,1.9c0.5,0.8,0.8,1.7,0.9,2.7c0,0.3,0.2,0.6,0.5,0.7c0.4,0.3,0.6,0.8,0.6,1.3c0,0.6,0.1,0.9,0.3,0.8
		s1.3,1.4,1.4,2.2c0.4,0.7,0.9,1.4,1.3,2.1c0.7,1,1.2,1.9,1,1.9s-0.1,0.1,0.1,0.3c1.1,1.2,2,2.5,2.6,4c0,0.3,0.2,0.4,0.4,0.3
		s0.6,0.3,0.3,0.8c0,0.1,0.2,0.5,0.7,1s0.6,0.8,0.4,0.9s0,0.2,0.3,0.4c0.4,0.2,0.6,0.6,0.7,1c0,0.3,0.1,0.6,0.3,0.6
		c0.3,0,0.9,1,1.7,2.9c0.2,0.6,0.6,1.1,0.8,1.1s0.3,0.2,0.1,0.4s-0.1,0.4,0.2,0.4s0.4,0.2,0.4,0.6c0,0.3,0.2,0.6,0.6,0.8
		c0.5,0.4,0.8,0.9,0.8,1.4c0.1,0.7,0.5,1.2,0.6,1.2s0.5,0.3,0.6,0.7c0.3,0.5,0.6,1.1,1,1.5c0.4,0.4,0.7,0.9,0.8,1.4
		c0.2,0.5,0.5,1,0.8,1.4c0.4,0.4,0.6,0.9,0.5,1.1s0,0.3,0.2,0.3s0.5,0.3,0.6,0.8c0.2,0.7,0.6,1.3,2.2,3.1c0.2,0.3,0.4,0.7,0.4,1.1
		c0,0.3,0.2,0.6,0.4,0.6c0.4,0,1.7,2.6,1.8,3.7c0,0.4,0.1,0.7,0.3,1c0.5,0.5,0.4,3.4-0.1,3.4c-0.2,0-0.4,0.2-0.2,0.6
		c0.1,0.4,0,0.8-0.3,1.1c-0.4,0.4-0.4,0.4,0,0.2s0.5-0.1,0.5,0.1c0,0.2-0.2,0.4-0.4,0.4c0,0,0,0,0,0c-0.2,0-0.6,0.5-0.8,1
		s-0.6,1-0.8,1s-0.4,0.3-0.4,0.6c0,0.3-0.2,0.7-0.5,0.9c-0.3,0.2-0.4,0.1-0.2-0.3s0-0.1-0.4,0.3c-0.3,0.4-0.7,0.8-1.2,0.9
		c-0.3,0-0.5,0.2-0.5,0.4c0,0.2-0.2,0.3-0.4,0.2s-0.7,0-1,0.4s-0.8,0.5-1,0.4c-0.2-0.1-0.5,0-0.6,0.2c-0.2,0.2-0.5,0.3-0.8,0.2
		c-0.4-0.1-0.8-0.1-1.1,0.2c-0.7,0.4-1.5,0.6-2.3,0.7c-1.1,0.1-2.3,0.4-3.3,0.9c-0.7,0.3-1.5,0.5-2.3,0.5c-0.6,0-1.2,0.2-1.2,0.5
		s-0.3,0.2-0.7,0.1c-0.3-0.2-0.7-0.1-1,0.2c-0.4,0.3-0.8,0.5-1.3,0.5c-0.6,0-1,0.1-1,0.3s-0.4,0.2-0.8,0.1s-0.8,0-0.8,0.2
		s-0.5,0.5-1.2,0.5s-1.2,0.2-1.2,0.4s-0.4,0.3-0.8,0.2s-0.8,0-0.8,0.2c0,0.4-2.9,1.1-3.9,0.9c-0.3,0-0.5,0.1-0.5,0.3
		s-0.4,0.3-0.8,0.2s-0.8,0-0.8,0.2c0,0.4-3,1-4,0.9c-0.3,0-0.5,0.1-0.4,0.5s-0.1,0.5-0.9,0.4c-0.6-0.1-1.2,0-1.2,0.2s-0.5,0.3-1,0.3
		s-0.9,0-0.8,0.1c0.3,0.3-3.8,1.7-4.2,1.5c-0.2-0.1-0.3,0.1-0.3,0.5s-0.2,0.5-0.4,0.4c-0.4-0.2-2.5,1.1-3.7,2.3
		c-0.2,0.3-0.5,0.5-0.9,0.7c-0.5,0-3.1,2.9-3.1,3.4c0,0.3-0.3,0.6-0.7,0.6c-0.4,0-0.5,0.1-0.2,0.2c0.5,0.2,0.4,0.4-1,1.9
		c-0.3,0.3-0.4,0.6-0.5,0.9c-0.1,0.4-0.3,0.7-0.6,0.9c-0.3,0.2-0.5,0.6-0.4,1c0.1,0.3,0,0.6-0.2,0.8c-0.3,0.3-0.4,0.6-0.4,1
		c0,0.4-0.2,0.8-0.4,0.8s-0.3,0.6-0.2,1.4s0,1.3-0.2,1.2c-0.5-0.3-0.4,8.8,0.2,9.1c0.3,0.2,0.3,0.3,0,0.3s-0.4,0.5-0.1,1.5
		c0.2,1.5,0.3,2.9,0.2,4.4c-0.1,1-0.1,2.1,0.2,3.1c0.3,1.2,0.5,2.5,0.4,3.8c0,2.6,0.1,3.6,0.5,3.6s0.4,0.1,0,0.3s-0.4,1-0.2,2.5
		c0.2,1.7,0.3,3.3,0.3,5c-0.1,1,0,2.1,0.4,3.1c0.4,0.3,0.4,10.2,0,10.9c-0.1,0.2-0.3,0.4-0.4,0.7c-0.5,2.3-4,5.4-6.8,5.9l-2.1,0.4
		c-0.6,0.2-1.3,0.1-1.9-0.2c-0.4-0.4-0.6-0.4-0.9,0s-0.4,0.3-0.8-0.2s-0.6-0.6-0.8-0.5c-1-0.1-1.9-0.3-2.8-0.7
		c-0.9-0.4-1.8-0.6-2.8-0.7c-0.2,0.2-0.8,0-3.8-1.4c-0.9-0.5-1.6-0.6-1.4-0.4s0.1,0.4-0.3,0s-0.7-0.4-0.9-0.2s-0.3,0.1-0.3-0.2
		s-0.9-0.5-2-0.7c-0.8,0-1.5-0.2-2.2-0.6c-0.5-0.3-1.2-0.5-1.8-0.6c-0.9-0.1-1.5-0.4-1.4-0.6s-0.7-0.5-1.8-0.6s-2-0.4-2-0.6
		s-0.4-0.3-0.8-0.2s-0.8,0-0.8-0.2s-0.1-0.4-0.3-0.3c-0.6,0.1-3.3-0.6-3.3-0.9s-0.8-0.5-1.8-0.6s-1.8-0.5-1.8-0.7s-0.3-0.2-0.7,0.1
		s-0.5,0.4-0.4,0.1s-0.3-0.6-1.5-0.8c-1-0.1-1.7-0.4-1.6-0.6s-0.1-0.3-0.5-0.2c-0.3,0.1-0.7,0-0.9-0.2c-0.7-0.3-1.4-0.5-2.2-0.6
		c-0.8-0.1-1.6-0.3-2.4-0.6c-0.6-0.4-7.9-0.4-7.6,0s-1.2,0.9-1.8,0.6c-0.6-0.1-1.3,0.1-1.8,0.4c-0.5,0.3-1.1,0.4-1.7,0.6
		c-1,0.2-2,0.6-2.9,1.3c0,0.1-0.5,0.4-1.1,0.5c-0.8,0.2-0.9,0.4-0.6,0.6s0.1,0.4-0.6,0.6c-0.9,0.4-1.7,1-2.3,1.8
		c-0.7,0.9-1.3,1.5-1.5,1.4c-0.3-0.2-0.9,1.1-0.8,1.6c0,0.2-0.1,0.2-0.3,0.1s-0.5,0.1-0.6,0.6s-0.4,0.7-0.7,0.5s-0.3-0.1-0.2,0.2
		s-0.1,0.8-0.4,1.2c-0.5,0.6-0.9,1.3-1.2,2c-0.2,0.6-0.6,1.1-1.1,1.5c-0.3,0.1-0.5,0.4-0.6,0.8c0,0.4-0.3,0.7-0.6,0.8
		c-0.4,0.2-0.6,0.6-0.6,1.1s-0.2,0.8-0.6,1.1c-0.3,0.1-0.6,0.4-0.6,0.8c-0.3,0.8-0.7,1.4-1.2,2c-0.7,0.8-1.1,1.4-1,1.4
		s0,0.3-0.4,0.6c-0.3,0.3-0.6,0.8-0.6,1.2c0,0.3-0.2,0.5-0.4,0.4s-0.5,0.2-0.7,0.7c-0.1,0.4-0.3,0.8-0.5,1.1c-1,1.3-1.9,2.6-2.6,4.1
		c-0.2,0.5-0.5,0.9-0.9,1.3c-0.5,0.6-0.8,1.2-0.6,1.5s0.1,0.3-0.2,0.2s-0.5-0.1-0.5,0.1c0,0.4-0.3,0.9-1.5,2.2
		c-0.3,0.3-0.4,0.6-0.2,0.8s0.1,0.2-0.2,0.2s-0.6,0.6-0.9,1.4c-0.2,0.7-0.6,1.3-1.3,1.6c-0.4,0.1-0.7,0.4-0.6,0.5
		c0.3,0.3-0.8,1.3-1.5,1.3c-0.4,0-0.6,0.2-0.6,0.4c0,0.4-2.3,1-3.2,0.9c-0.3,0-0.7,0.1-0.9,0.4c-0.2,0.4-0.5,0.4-1.2,0.1
		c-0.8-0.3-1.6-0.6-2.4-0.7c-0.8-0.1-1.5-0.4-1.5-0.7s-0.2-0.3-0.5-0.2s-1.1-0.5-1.9-1.3s-1.5-1.5-1.6-1.4s-0.2-0.2-0.1-0.7
		s0-0.8-0.1-0.6s-0.6-0.3-1-0.9s-0.9-1.2-1.2-1.2s-0.3-0.2-0.2-0.4s-0.1-0.8-0.6-1.2s-0.7-1-0.6-1.2s-0.1-0.6-0.6-0.8
		c-0.4-0.2-0.7-0.6-0.8-1c0-0.3-0.2-0.6-0.4-0.6s-0.5-0.5-0.6-1s-0.4-1-0.7-1s-0.3-0.2-0.1-0.5s0.1-0.4-0.4-0.2s-0.6,0.1-0.4-0.3
		c0.1-0.3,0-0.6-0.3-0.7c0,0,0,0,0,0c-0.4-0.3-0.7-0.8-0.8-1.3c-0.2-0.7-0.5-1.3-1-1.7c-0.4-0.3-0.7-0.7-0.9-1.2
		c-0.2-0.6-0.6-1.1-1-1.6c-0.4-0.4-0.7-0.9-0.9-1.4c-0.1-0.4-0.4-0.8-0.8-1.1c-0.4-0.3-0.7-0.8-0.8-1.4c0-0.4-0.1-0.5-0.3-0.4
		s-0.6-0.4-1-1.3c-0.5-1-1.2-2-1.9-2.9c-0.7-0.7-1.1-1.5-1-1.6s-0.2-0.5-0.6-0.6s-0.7-0.4-0.6-0.6s-0.1-0.8-0.6-1.3
		c-0.3-0.4-0.6-0.8-0.8-1.2c0-0.6-5.3-5.5-5.7-5.2s-0.3,0.1-0.1-0.2s0-0.5-0.6-0.5s-0.7-0.2-0.6-0.5s0.1-0.4-0.4-0.2
		c-0.4,0.1-0.9,0-1.2-0.3c-0.3-0.3-0.6-0.5-1-0.6c-0.2,0-0.4-0.2-0.5-0.4c-0.5-0.3-1-0.5-1.6-0.6c-0.8-0.1-1.5-0.3-2.1-0.7
		c-0.8-0.6-10.9-0.7-11.3,0c-0.7,0.4-1.4,0.6-2.1,0.7c-1.1,0.1-1.9,0.4-1.9,0.6s-0.8,0.5-1.8,0.6s-1.8,0.4-1.8,0.6s-0.4,0.3-0.8,0.2
		s-0.8,0-0.8,0.2s-0.4,0.4-1,0.4c-0.4,0-0.9,0.1-1.2,0.4c-0.3,0.2-0.7,0.3-1,0.2c-0.4-0.1-0.7,0-0.6,0.2s-0.4,0.5-1.1,0.6
		c-0.7,0.2-1.4,0.4-2.1,0.7c-0.8,0.3-1.6,0.5-2.4,0.6c-0.6,0-1.3,0.2-1.8,0.5c-0.3,0.2-0.6,0.3-0.9,0.2c-0.4-0.1-0.8,0.1-1,0.5
		c-0.1,0.3-0.4,0.5-0.6,0.3c-0.3-0.1-0.6,0-0.9,0.2c-0.6,0.3-1.2,0.6-1.9,0.7c-1.3,0.3-2.6,0.7-3.8,1.1c-1,0.4-2,0.6-3.1,0.8
		c-0.4,0-0.7,0.1-0.7,0.3s-0.4,0.3-0.8,0.2c-0.4-0.1-0.7,0-0.6,0.2c0.1,0.2-0.2,0.4-0.7,0.4c-0.7,0-1.4,0.2-2,0.6
		c-1,0.4-2,0.7-3.1,0.8c-1.1,0.1-1.9,0.4-1.8,0.6c0.3,0.5-4.3,0.5-4.8,0c-0.7-0.4-1.4-0.6-2.1-0.8c-0.9-0.3-1.6-0.6-1.5-0.8
		s-0.1-0.6-0.5-0.9c-0.6-0.5-0.6-0.5-0.3,0c0.3,0.5,0.2,0.5-0.1,0.3c-0.3-0.2-0.4-0.4-0.3-0.6c0.1-0.1-0.1-0.6-0.4-1
		c-0.3-0.4-0.6-0.6-0.6-0.4s-0.3-0.1-0.6-0.8c-0.3-0.5-0.4-1.1-0.4-1.7c0.1-0.3,0-0.5-0.2-0.5c-0.5,0-0.5-7.9,0-8.2
		c0.2-0.1,0.4-0.4,0.4-0.6c0-0.2-0.2-0.3-0.4-0.1s-0.4,0.1-0.4-0.2c0-0.2,0.1-0.4,0.3-0.4c0.2,0,0.4-1.1,0.4-2.5s0.1-4.5,0.2-6.9
		c0.1-2.4,0.3-5.2,0.3-6.1c0-0.9,0.2-1.7,0.3-1.7c0.2-1.5,0.3-2.9,0.2-4.4c-0.1-1.5,0-2.9,0.2-4.4c0.7,0,0.4-12-0.3-12.3
		c-0.7-0.3-0.6-0.5-0.1-1c0.3-0.4,0.4-0.6,0.2-0.6c-0.2,0-0.4-0.5-0.4-1.1c0-0.5-0.2-1-0.5-1.4c-0.2-0.2-0.3-0.5-0.2-0.7
		c0.1-0.2,0.1-0.4-0.1-0.4s-0.5-0.4-0.7-0.9c-0.4-0.8-0.8-1.6-1.4-2.3c-0.5-0.5-0.9-1.1-1.1-1.8c-0.4-0.7-0.9-1.4-1.6-1.9
		c-0.9-0.8-2.1-1.9-2.7-2.5s-1.2-1-1.4-0.9s-0.6,0-2-1.3c-0.3-0.2-0.6-0.4-0.9-0.5c-1.6-0.4-2.2-0.6-2.2-0.9s-0.5-0.3-1.2-0.2
		s-1.2-0.1-1.2-0.2s-0.5-0.3-1-0.3s-0.9-0.2-0.8-0.4s-0.1-0.4-0.5-0.4c-3.4-0.6-6.8-1.4-10.1-2.4c-0.3-0.1-0.6-0.2-0.9-0.1
		c-0.2,0-0.3-0.1-0.3-0.3s-0.1-0.4-0.3-0.4c-1.1,0.2-2.5-0.1-2.3-0.5s0-0.3-0.4-0.1c-0.4,0.1-0.8,0.1-1.1-0.2
		c-0.8-0.4-1.6-0.6-2.4-0.7c-1-0.1-1.9-0.4-1.9-0.6s-0.1-0.3-0.3-0.3c-1.3-0.1-2.7-0.4-3.9-0.9c-0.4-0.2-0.8-0.3-1.2-0.3
		c-0.7-0.1-1.4-0.3-2-0.5c-0.6-0.2-1.2-0.4-1.8-0.5c-0.4,0-0.7-0.1-1-0.3c-0.6-0.3-1.3-0.4-2-0.5c-0.8-0.2-1.7-0.4-2.4-0.8
		c-0.5-0.3-1-0.4-1.1-0.3s-0.4,0-0.5-0.4c-0.1-0.4-0.5-0.6-0.9-0.7c-0.3,0-0.5-0.1-0.4-0.2s-0.2-0.6-0.7-1.1c-1.1-1-2.4-4.1-2-4.7
		c0.1-0.3,0-0.6-0.3-0.8c-0.5-0.3-0.5-0.5,0-1.2c0.3-0.3,0.4-0.8,0.3-1.2c-0.2-0.4,0.9-3.7,1.4-4c0.3-0.3,0.5-0.7,0.6-1.1
		c0.2-0.5,0.4-0.8,0.6-0.7s0.5-0.6,0.8-1.6s0.6-1.7,0.7-1.6c0.3,0.3,1.5-1.4,1.9-2.4c0.1-0.5,0.4-0.9,0.9-1.1
		c0.3-0.2,0.6-0.5,0.6-0.8c0-0.3,0.2-0.6,0.4-0.6s0.3-0.2,0.2-0.4s-0.1-0.4,0.1-0.4s0.5-0.4,0.6-1s0.4-1,0.6-1s0.3-0.3,0.2-0.6
		s0-0.6,0.2-0.6s0.4-0.3,0.4-0.6s0.2-0.5,0.4-0.4s0.3,0,0.2-0.3s0.1-0.7,0.6-0.9s0.8-0.5,0.6-0.8s0-0.6,0.2-0.6s0.5-0.3,0.7-0.7
		c0.5-1,1.1-2,1.8-2.9c0.8-1.2,1.4-2.4,1.3-2.5s0-0.2,0.2-0.2s0.5-0.5,0.7-1s0.4-0.9,0.6-0.8s0.4-0.1,0.4-0.5
		c0.1-0.6,0.4-1.1,0.8-1.5c0.4-0.4,0.7-0.8,0.6-0.9c-0.3-0.3,0.6-1.7,1-1.5c0.2,0.1,0.4,0.1,0.3-0.1c-0.1-0.6,0.8-2.5,1.2-2.5
		c0.2,0,0.4-0.4,0.4-0.8c0-0.4,0.2-0.8,0.6-1c0.3-0.1,0.5-0.4,0.4-0.6s0-0.5,0.4-0.6c0.4-0.2,0.7-0.5,0.8-0.8c0.2-0.4,0-0.5-0.3-0.3
		s-0.2,0,0.2-0.3c0.4-0.4,0.7-0.8,0.7-1.4c0-0.5,0.2-1,0.6-1.3c0.4-0.4,0.6-0.9,0.6-1.5c0-0.5,0.2-0.9,0.3-0.8s0.3-0.2,0.3-0.7
		c0-0.5,0-0.9,0.3-1.3c0.6-0.9,0.1-10.6-0.7-12c-0.4-0.7-0.6-1.4-0.7-2.1c0-0.4-0.2-0.8-0.3-0.8s-0.9-1.6-0.8-2.1
		c0-0.2-0.2-0.3-0.5-0.3s-1-1.1-1-1.9c-0.5-0.7-1-1.4-1.6-2c-0.3-0.3-0.4-0.6-0.5-0.9c0-0.2-0.4-0.7-0.9-1.1s-0.6-0.5-0.3-0.4
		s0.2-0.2-0.4-0.8s-0.8-1.1-0.6-1.1s0-0.3-0.5-0.6s-0.8-0.8-0.7-0.9s-0.1-0.6-0.4-0.8c-0.3-0.3-0.5-0.6-0.6-1.1
		c0-0.4-0.3-0.7-0.6-0.8c-0.3-0.1-0.6-0.4-0.6-0.8c0-0.3-0.2-0.6-0.4-0.6s-0.6-0.5-0.8-1s-0.6-0.9-0.9-0.7s-0.4,0.1-0.2,0
		c0.3-0.4-2-4.3-2.8-4.8c-0.3-0.2-0.5-0.5-0.5-0.9c0-0.3-0.2-0.6-0.3-0.6s-1-1.2-1.3-2.2c-0.2-0.4-0.5-0.7-0.8-0.9
		c-0.4-0.3-0.7-0.6-0.8-1.1c0-0.3-0.2-0.6-0.4-0.6s-0.4-0.2-0.4-0.6c-0.3-0.8-0.8-1.5-1.4-2.1c-0.8-0.8-1.4-1.8-1.9-2.9
		c-0.3-0.7-0.6-1.3-0.8-1.3c-0.8,0-1.7-3-1.7-5.7c0-3.5,0.7-5.6,2.8-7.5c0.8-0.8,1.4-1.1,1.2-0.8c-0.2,0.3,0,0.3,0.3-0.1
		c0.4-0.4,0.9-0.8,1.5-0.9c0.4-0.1,0.8-0.3,1.2-0.6c0.7-0.4,1.4-0.6,2.1-0.7c1-0.1,1.8-0.4,1.7-0.6c-0.2-0.4,1.2-0.8,2.5-0.8
		c0.5,0,0.9-0.2,0.9-0.4s0.3-0.4,0.6-0.2s0.5,0,0.4-0.3s0-0.5,0.6-0.3c0.5,0.1,1,0,1.4-0.3c0.3-0.3,0.8-0.4,1.2-0.2
		c0.3,0.1,0.5,0.1,0.4-0.1s0.6-0.5,1.6-0.6s1.8-0.4,1.8-0.6s0.6-0.5,1.4-0.6s1.3-0.4,1.2-0.6s0.2-0.3,0.7-0.2c0.5,0,1-0.1,1.4-0.3
		c0.6-0.3,1.2-0.5,1.8-0.6c0.7-0.1,1.4-0.4,1.5-0.6s0.5-0.4,0.9-0.4c0.4,0,0.7-0.1,1-0.4c0.1-0.2,0.4-0.3,0.6-0.2
		c0.2,0.1,0.4,0.1,0.4-0.2s0.8-0.5,1.8-0.7s1.8-0.4,1.8-0.6s0.4-0.3,0.8-0.2s0.8-0.1,0.8-0.4s0.2-0.5,0.6-0.3
		c0.4,0.1,0.8,0.1,1.1-0.2c0.7-0.4,1.5-0.7,2.3-0.9c0.8-0.2,1.5-0.5,2.2-0.8c0.5-0.3,1-0.4,1.5-0.6c0.6-0.2,1.1-0.4,1.1-0.6
		s0.3-0.3,0.7-0.1s0.6,0.1,0.4-0.2s0-0.5,0.3-0.5c0.5-0.1,1-0.3,1.4-0.7c0.6-0.5,1.1-0.9,1.8-1.3c2-1.6,3.8-3.5,5.3-5.6
		c0.2-0.3,0.7-1.4,1.3-2.3c0.4-0.6,0.7-1.3,0.8-2.1c-0.1-0.2,0-0.5,0.2-0.6c0.3-0.3,0.4-0.6,0.4-1c0-0.4,0.2-0.8,0.4-0.8
		c0.2,0,0.3-0.7,0.2-1.6s0-1.6,0.2-1.6s0.4-8.7,0.4-21.7c0-11.9,0.1-22.2,0.2-22.7c0.1-0.5,0.2-1.3,0.2-1.6c0-0.5,0.1-0.5,0.4,0
		c0.3,0.5,0.4,0.5,0.4-0.1c0.1-0.5,0.3-0.9,0.6-1.3c0.3-0.3,0.5-0.8,0.4-1s0.3-0.6,0.9-0.9c0.5-0.2,0.9-0.5,1.3-0.8
		c1.2-1.5,7.5-2.2,9.8-1c0.5,0.3,1.1,0.5,1.7,0.6c0.3,0,0.5,0.2,0.6,0.4c0,0.2,0.2,0.3,0.4,0.2c0.4-0.1,0.8-0.1,1.1,0.1
		c0.7,0.4,3,1.4,3.3,1.5c1.7,0.4,3.4,1,5,1.7c0.5,0.3,1.1,0.5,1.6,0.7c3.1,0.8,4,1.1,4.3,1.5c0.2,0.2,0.6,0.3,0.9,0.1
		c0.4-0.2,0.6-0.1,0.4,0.2s0.2,0.4,0.8,0.4s1,0.2,0.8,0.4s0.1,0.3,0.6,0.2s0.8,0,0.8,0.2s0.4,0.5,1,0.5s1,0.2,1,0.4s0.3,0.3,0.6,0.2
		s0.6,0,0.6,0.2s0.7,0.5,1.6,0.7s1.6,0.5,1.6,0.7s0.4,0.3,0.8,0.2s0.8,0,0.9,0.2s0.5,0.4,1,0.4s0.8,0.2,0.7,0.3s0.6,0.4,1.4,0.5
		s1.6,0.4,1.6,0.7s0.4,0.3,0.8,0.2s0.8,0,0.8,0.2s0.6,0.3,1.4,0.2s1.4,0,1.4,0.2c0,0.5,8.7,0,9.8-0.6c0.4-0.1,0.9-0.2,1.3-0.1
		c0.5,0,0.8-0.1,0.7-0.3s0.2-0.3,0.8-0.3s1-0.1,1-0.3c0.6-0.6,1.4-1,2.2-1.3c0.8-0.3,1.6-0.7,2.2-1.3c0-0.2,0.2-0.3,0.4-0.3
		c0.9-0.5,1.6-1.2,2.3-2c1-1.1,2.4-2.5,3-3.2c0.5-0.4,0.8-1,1.1-1.5c0-0.2,0.3-0.6,0.7-0.8s0.6-0.5,0.4-0.7s0.2-0.7,0.7-1.2
		c0.5-0.4,0.8-0.8,1-1.4c0.1-0.3,0.3-0.6,0.6-0.7c0.3-0.1,0.6-0.4,0.6-0.7c0.1-0.4,0.3-0.8,0.6-1c0.3-0.3,0.5-0.6,0.4-0.7
		s0.2-0.6,0.7-1.1c0.5-0.4,0.9-1,1.2-1.6c0.3-0.6,0.7-1.2,1.1-1.8c0.6-0.7,1.1-1.4,1.5-2.1c0.3-0.6,0.7-1,0.9-0.9s0.3-0.1,0.2-0.5
		c0.2-0.9,0.7-1.6,1.4-2.2c0.7-0.6,1.2-1.3,1.5-2.2c0-0.4,0.2-0.7,0.6-0.9c0.3-0.1,0.6-0.4,0.6-0.8c0.2-0.7,0.6-1.3,1.2-1.7
		c0.6-0.6,1.1-1.2,1-1.4s0.3-0.7,0.8-1.3c0.5-0.5,1-1.2,1.3-1.8c0.1-0.4,0.4-0.7,0.5-0.7c0.6-0.3,1.2-0.8,1.7-1.3
		c0.6-0.6,1.4-1.1,2.2-1.3c0.5,0,0.7-0.1,0.6-0.3s1.2-0.3,3-0.3C182.4,13.9,183.5,14.1,183.4,14.4 M224,111.6
		c-1.2,0.6-2.3,1.6-2.9,2.9c-0.4,0.8-1,1.6-1.6,2.3c-0.3,0.2-0.4,0.4-0.1,0.4s0.1,0.2-0.3,0.4c-0.4,0.2-0.6,0.6-0.7,1
		c0,0.3-0.2,0.6-0.4,0.6s-0.6,0.6-0.8,1.2c-0.3,0.8-0.7,1.4-1.3,2c-0.5,0.4-0.7,0.8-0.6,0.8c0.3,0-1,2.1-1.5,2.5
		c-0.2,0.1-0.4,0.3-0.4,0.6c-0.2,0.8-0.5,1.5-0.9,2.1c-0.7,0.9-1.4,1.9-1.8,2.9c-0.1,0.3-0.3,0.6-0.6,0.8c-0.4,0.4-0.8,0.8-0.9,1.4
		c-0.2,0.5-0.5,0.8-0.7,0.7s-0.4,0.1-0.4,0.6c0,0.4-0.2,0.9-0.6,1.1c-0.7,0.7-1.2,1.5-1.6,2.4c-0.6,1.1-1.2,2.1-1.4,2.1
		s-0.4,0.3-0.4,0.6c0,0.4-0.2,0.7-0.6,0.8c-0.4,0.3-0.7,0.7-0.8,1.2c-0.1,0.5-0.4,1-0.7,1s-0.3,0.2-0.2,0.4s0.1,0.4-0.1,0.4
		s-0.8,0.8-1.3,1.8s-1.1,1.8-1.3,1.8s-0.3,0.3-0.2,0.6s0,0.6-0.2,0.6s-0.4,0.3-0.4,0.7c0,0.6-0.1,0.6-0.4,0.1s-0.4-0.4-0.4,0.3
		c0,0.5-0.2,0.9-0.6,1.1c-0.3,0.1-0.5,0.4-0.4,0.6s0.1,0.4-0.1,0.4s-0.6,0.4-0.9,0.8c-0.4,0.7-0.4,0.8,0,0.6c0.3-0.1,0.2,0-0.2,0.3
		s-0.7,0.7-0.7,0.8c0,0.6-1.9,3-2.2,2.8s-0.2-0.1-0.1,0.2s-0.1,0.8-0.5,1.3s-0.6,0.9-0.5,1.1s0,0.2-0.2,0.2s-0.4,0.2-0.2,0.4
		s0.1,0.4-0.2,0.4s-0.4,0.4-0.4,0.8s-0.1,0.7-0.3,0.6s-0.8,0.7-1.3,1.7s-1.1,1.9-1.2,1.8s-0.5,0.5-0.7,1.2s-0.6,1.3-0.8,1.2
		s-0.5,0.2-0.6,0.8s-0.4,1-0.6,1s-0.3,0.2-0.1,0.4s-0.2,0.7-0.7,1s-0.8,0.6-0.6,0.6s0,0.5-0.4,1.2s-0.8,1.2-1,1.2s-0.4,0.5-0.5,1
		s-0.4,0.9-0.6,0.8s-0.4,0.1-0.4,0.6c0,0.4-0.2,0.8-0.6,1.1c-0.5,0.4-0.8,1-1,1.6c-0.2,0.8-0.6,1.4-0.8,1.4s-0.5,0.5-0.8,1.2
		c-0.3,0.8-0.8,1.5-1.3,2.1c-1,1-1.8,2.2-2.3,3.6c-0.2,0.6-0.6,1.1-0.9,1.1s-0.3,0.1-0.2,0.3s-0.1,0.6-0.6,1
		c-0.5,0.4-0.8,1.1-0.9,1.7c0,0.5-0.1,1-0.3,1c-0.8-0.1-1.2,0.1-1.2,0.6c-0.1,0.5-0.4,0.9-0.7,1.3c-0.5,0.6-0.6,0.7-0.1,0.5
		s0.5-0.2,0,0.2c-0.9,0.8-2.2,2.9-1.5,2.6c0.3-0.2,0.1,0.1-0.5,0.7c-0.6,0.5-1,1.1-1.3,1.8c-0.2,0.5-0.5,0.7-0.7,0.6s-0.4,0-0.2,0.4
		s0.1,0.7-0.1,0.7s-0.7,0.5-1,1.2s-0.5,1.2-0.4,1.2s0,0.2-0.3,0.6s-0.6,0.5-0.7,0.4c-0.5,0.5-0.9,1.1-1.2,1.8
		c-0.6,1.1-1.2,1.9-1.4,1.8s-0.2,0.1-0.1,0.4c0.1,0.3,0,0.7-0.4,0.8c0,0,0,0,0,0c-0.4,0.1-0.5,0.4-0.4,0.6s-0.1,0.5-0.5,0.7
		s-0.6,0.4-0.4,0.4s-0.1,0.4-0.6,0.8s-0.8,0.9-0.7,1.1s-0.1,0.6-0.6,1s-0.7,0.9-0.5,1.2s0.1,0.4-0.1,0.2s-0.6,0.3-0.8,0.9
		s-0.6,1.2-0.9,1.2s-0.4,0.1-0.2,0.3s-0.2,0.8-0.8,1.5c-0.5,0.5-0.8,1-1,1.6c-0.2,0.6-0.5,1.1-1,1.5c-0.5,0.5-0.9,1.1-0.7,1.2
		s0,0.2-0.2,0.2s-0.6,0.5-0.7,1.2c-0.1,0.6-0.5,1.2-1.1,1.4c-0.4,0.1-0.7,0.5-0.6,0.8c0.1,0.3-0.1,0.7-0.4,0.8
		c-0.3,0.1-0.5,0.4-0.4,0.6s-0.1,0.6-0.5,1c-1,0.8-1.7,1.9-2.1,3.1c-0.2,0.6-0.6,1.1-0.8,1s-0.5,0.6-0.4,1.5c0,0.2-0.2,0.3-0.6,0.3
		s-0.5,0.2-0.4,0.4s0.1,0.4-0.2,0.4s-0.4,0.3-0.4,0.6c0,0.3-0.2,0.6-0.5,0.6c-0.2,0-0.4,0.1-0.2,0.2s-0.2,0.7-0.6,1.2
		c-0.4,0.4-0.7,0.9-0.9,1.4c0,0.2-0.1,0.6-0.1,0.8s-0.3,0.4-0.6,0.4c-0.3,0-0.6,0.3-0.6,0.7c-0.1,0.5-0.3,0.9-0.7,1.2
		c-0.4,0.3-0.5,0.5-0.1,0.3s0.1,0.3-0.6,1c-0.6,0.7-1.1,1.3-0.9,1.3s-0.3,0.8-1,1.8c-0.4,0.7-1,1.3-1.6,1.8c-0.2,0-0.3,0.1-0.2,0.3
		s-0.3,1.1-1,2c-0.5,0.6-0.9,1.3-1.2,2.1c0,0.2-0.1,0.4-0.3,0.4c0,0,0,0,0,0c-0.2,0-0.5,0.3-0.6,0.7c-0.4,0.9-0.9,1.7-1.5,2.4
		c-1.4,1.8-1.9,6.5-0.8,7.2c0.4,0.4,0.7,0.9,0.9,1.4c0.2,0.6,0.6,1,0.8,0.9s0.7,0.1,1.1,0.6c0.4,0.4,0.9,0.7,1.4,0.8
		c0.4,0,0.7,0.1,0.7,0.3s0.7,0.3,1.6,0.3s1.6-0.1,1.6-0.3s0.5-0.3,1-0.3c0.8-0.1,1.5-0.5,2-1c0.4-0.4,0.8-0.8,1.4-1
		c0.2,0,0.4-0.1,0.3-0.3c-0.1-0.5,0.8-2.3,1.6-3.2c0.5-0.5,0.7-0.9,0.5-0.9s0-0.2,0.4-0.4c0.4-0.2,0.6-0.6,0.7-1
		c0-0.3,0.2-0.6,0.4-0.6s0.6-0.6,0.8-1.2c0.3-0.8,0.7-1.4,1.3-2c0.5-0.4,0.7-0.8,0.6-0.8s-0.1-0.3,0.2-0.6s0.4-0.6,0.2-0.6
		s0.2-0.4,0.8-1c0.4-0.4,0.8-0.8,1.1-1.3c0.4-0.9,0.8-1.7,1.4-2.5c0.5-0.8,1-1.6,1.4-2.4c0.3-0.6,0.7-1.1,1.2-1.6
		c0.5-0.5,0.9-1.1,1.2-1.8c0.1-0.5,0.4-0.9,0.8-1.2c0.7-0.7,1.2-1.6,1.6-2.5c0.4-1,1-1.8,1.2-1.8s0.4-0.3,0.4-0.6
		c0-0.4,0.3-0.7,0.6-0.9c0.4-0.3,0.6-0.7,0.6-1.2c0-0.5,0.2-1,0.5-1c0.6,0,2.1-2.6,2.2-4c0.1-0.3,0.3-0.4,0.6-0.4
		c0.3,0,0.7-0.5,0.8-1s0.4-0.9,0.6-0.8s0.4,0,0.4-0.4c0.1-0.5,0.3-0.9,0.6-1.2c0.3-0.4,0.5-0.6,0.4-0.6s0.1-0.4,0.5-0.8
		c0.3-0.3,0.5-0.7,0.7-1.1c0-0.7,2.5-4,2.8-3.8s0.2,0.1,0-0.2s0.1-0.9,0.5-1.3s0.7-0.8,0.6-0.8s0.1-0.3,0.4-0.6
		c0.3-0.3,0.6-0.7,0.6-1.2c0-0.3,0.1-0.6,0.3-0.6c0.6-0.5,1-1.1,1.3-1.8c0.3-0.7,0.7-1.3,1.2-1.8c0.4-0.5,0.7-1,0.9-1.6
		c0.4-0.9,0.8-1.6,1-1.6s0.4-0.4,0.4-0.8s0.2-0.7,0.4-0.6c0.4,0.3,0.9-0.9,0.6-1.4c-0.1-0.2,0.1-0.2,0.5-0.1s0.6,0.1,0.4-0.1
		s0.3-1.2,0.9-2.1c0.5-0.6,0.9-1.3,1.2-2.1c0-0.2,0.2-0.3,0.4-0.2s0.4,0,0.4-0.4c0.1-0.5,0.4-1,0.8-1.3c0.5-0.5,0.8-1.1,1-1.8
		c0.1-0.6,0.4-1.1,0.6-1.1s0.4-0.4,0.4-0.8s0.1-0.8,0.3-0.8s0.7-0.6,1.1-1.3c0.5-0.8,1.1-1.6,1.7-2.3c0.4-0.4,0.7-0.9,0.9-1.4
		c0-0.4,0.4-1,2-2.9c0.3-0.4,0.5-0.9,0.5-1.5c0-0.5,0.1-0.9,0.3-0.9c0.8,0.1,1.2-0.2,1.2-0.6c0.1-0.4,0.3-0.8,0.6-1.1
		c0.3-0.3,0.5-0.6,0.4-0.7s0.1-0.5,0.4-0.8c0.3-0.3,0.5-0.7,0.4-1.1c-0.1-0.3,0-0.5,0.3-0.4c0.2,0,0.4-0.1,0.5-0.3c0,0,0-0.1,0-0.1
		c0.1-0.4,0.3-0.8,0.6-1c0.4-0.3,0.7-0.7,0.9-1.2c0.1-0.4,0.4-0.7,0.7-0.7s0.4-0.4,0.4-0.8s0.2-0.8,0.4-0.8s0.7-0.7,1.1-1.6
		s0.9-1.5,1-1.3s0.2,0.1,0.1-0.2c-0.3-0.4,0.3-1.3,1.8-3c0.4-0.4,0.5-0.8,0.4-1s0-0.4,0.4-0.6c0.4-0.2,0.6-0.6,0.7-1
		c0-0.3,0.2-0.6,0.4-0.6s0.3-0.2,0.2-0.4s-0.1-0.4,0.2-0.4c0.3,0,0.4-0.2,0.4-0.5c0.2-0.6,0.5-1.2,1-1.6c0.6-0.6,0.9-1.3,0.7-1.6
		s-0.1-0.3,0.2-0.2s0.5,0,0.5-0.3c0.1-0.6,0.5-1.1,0.9-1.4c0.8-0.8,0.8-0.8,0.1-0.6s-0.5,0,0.3-0.6c0.8-0.6,1.5-1.3,2-2.2
		c0.3-0.8,0.8-1.5,1.3-2.1c0.4-0.4,0.8-1,1-1.5c0.4-0.8,0.9-1.5,1.4-2.1c0.6-0.6,1.1-1.3,1.4-2.1c0.1-0.4,0.4-0.8,0.6-0.8
		s0.4-0.2,0.4-0.5c0.1-0.5,0.4-1.1,0.8-1.5c0.4-0.4,0.7-0.9,0.8-1.5c0-0.4,0.3-0.7,0.6-0.8c0.4-0.2,0.6-0.5,0.6-0.9
		c0-0.4,0.3-0.8,0.7-1c0.4-0.1,0.6-0.4,0.4-0.5s0.1-0.6,0.4-1s0.6-0.8,0.5-0.9s0.3-0.6,0.9-1.3c0.5-0.5,0.9-1,1.1-1.7
		c0-0.3,0.2-0.6,0.5-0.8c0.6-0.4,1.2-1.3,2.2-3.3c0.2-0.6,0.6-1.1,1-1.5c0.2-0.2,0.3-0.4,0.3-0.7c0-0.4,0.3-0.7,0.6-0.8
		s0.6-0.4,0.6-0.8c0-0.4,0.3-0.7,0.6-0.8c0.3-0.1,0.5-0.4,0.4-0.6s0.1-0.7,0.6-1c0.5-0.3,0.8-0.8,0.7-1.1c-0.1-0.3,0.1-0.6,0.4-0.7
		c0.3-0.2,0.6-0.5,0.6-0.8c0-0.3,0.2-0.6,0.4-0.6c0.2,0,0.4-0.2,0.4-0.4c0,0,0,0,0,0c0.3-0.8,0.8-1.6,1.4-2.3
		c1.9-2.5,1.8-7.5-0.2-8.7c-0.2-0.2-0.3-0.5-0.1-0.7c0.1-0.3,0.1-0.3,0-0.2s-1-0.1-1.8-0.6C229,110.5,226.3,110.5,224,111.6
		 M124.9,135.4c-0.8,0.3-1.5,0.5-2.3,0.6c-1.5,0.2-7.2,3.3-8.6,4.6c-0.5,0.5-1.1,1-1.7,1.3c-0.8,0.4-1.4,1-1.9,1.8v0.6
		c0,0.2-0.5,0.7-1.2,1s-1.2,0.9-1.2,1.4s-0.2,0.7-0.4,0.6c-0.2-0.1-0.8,1-1.5,2.4c-0.3,0.9-0.8,1.8-1.4,2.6c-0.1,0-0.3,0.1-0.3,0.2
		c0,0,0,0.1,0,0.1c-0.1,1.1-0.4,2.3-0.8,3.3c-0.2,0.4-0.3,0.9-0.2,1.4c0.1,0.4,0,0.9-0.2,1.2c-0.3,1.6-0.3,3.2-0.2,4.8
		c0.2,5.7,0.3,6.3,0.6,6.6c0.5,1,0.8,2,0.9,3.1c0,0.3,0.2,0.5,0.4,0.5s0.3,0.4,0.3,0.8s0.2,0.8,0.4,0.8s0.3,0.3,0.2,0.6
		c-0.1,0.3-0.1,0.5,0.1,0.4c0.2-0.1,0.5,0.2,0.6,0.8s0.4,1,0.6,1c0.1,0,0.3,0.1,0.3,0.3c0,0,0,0.1,0,0.1c-0.2,0.7,5,6.4,5.8,6.4
		c0.2,0,0.3,0.2,0.1,0.4s-0.1,0.4,0.1,0.3c0.4-0.1,1.7,0.8,3.4,2.2c0.6,0.5,1.3,0.8,2,0.9c0.6,0.1,1.2,0.4,1.2,0.6s0.6,0.5,1.3,0.6
		c0.6,0.1,1.2,0.4,1.8,0.7c0.3,0.2,0.7,0.3,1.1,0.2c0.3-0.1,0.6-0.1,0.9,0.1c0.3,0.3,1.9,0.4,9.9,0.4c1.6,0,2.2-0.1,2.1-0.4
		s0.1-0.4,0.8-0.2s1,0,1-0.4s0.3-0.5,0.8-0.3c0.9,0,1.8-0.2,2.6-0.6c0.8-0.4,1.6-0.7,2.4-0.8c0.3,0,0.5-0.2,0.6-0.4
		c0-0.2,0.2-0.3,0.4-0.2s0.7-0.2,1.2-0.8s0.8-0.9,0.8-0.6s0.3,0.1,0.7-0.2s0.7-0.8,0.6-1s0.1-0.3,0.4-0.3c0.4,0,0.7-0.3,0.8-0.6
		c0.1-0.3,0.4-0.5,0.6-0.4s0.5-0.1,0.6-0.6s0.4-0.7,0.5-0.6s0.6-0.4,1.1-1.3s0.9-1.3,0.9-1.1c0,0.6,2-3,2-3.6c0.1-0.4,0.3-0.8,0.7-1
		c0.4-0.2,0.6-0.4,0.4-0.4s0-0.4,0.3-1c0.3-0.4,0.5-0.8,0.7-1.3c0.1-0.4,0.2-0.9,0.4-1.3c0.3-1.1,0.5-2.2,0.6-3.3
		c0-0.8,0.2-1.6,0.5-2.3c0.3-1,0.4-2,0.3-3c0-1.6-0.1-3-0.3-3c-0.4-0.8-0.6-1.6-0.5-2.5c0-1-0.2-1.9-0.7-2.7
		c-0.3-0.2-0.4-0.6-0.2-0.9c0.1-0.3,0.1-0.7-0.2-0.9c-0.3-0.3-0.4-0.7-0.4-1.1c0-0.4-0.2-0.8-0.6-1c-0.4-0.4-0.7-0.9-0.8-1.4
		c-0.1-0.7-0.4-1.1-0.5-1s-1.3-1.7-1.3-2.4c-0.9-1.1-1.9-2.1-3-3c-0.6-0.5-1.2-1-1.7-1.6c-0.6-0.7-1.2-1.2-2-1.6
		c-0.2,0-0.4-0.2-0.5-0.4c0-0.2-0.4-0.4-0.8-0.4s-0.8-0.1-0.8-0.3s-0.5-0.6-1.1-0.9c-0.6-0.3-1.1-0.7-1.7-1.1
		c-0.4-0.3-0.8-0.4-1.3-0.3c-0.4,0.1-0.8,0-1-0.2c-0.3-0.3-0.6-0.4-1-0.4c-0.4,0-0.8-0.2-0.8-0.4c0-0.4-0.1-0.4-7.5-0.6
		c-2.2-0.1-4.3,0-6.4,0.4 M134.3,149.6c0.9,0.1,1.7,0.4,1.7,0.6s0.1,0.3,0.3,0.2c0.4-0.3,3.4,1.1,3,1.5s0.5,0.4,1.2,0.3
		c0.2,0,0.2,0.2,0.1,0.6s-0.1,0.6,0.4,0.4s0.5-0.1,0.4,0.2s-0.1,0.4,0.1,0.4c0.6,0,2.9,4.7,2.9,5.9c0,0.5,0.2,0.9,0.4,0.9
		s0.4,1,0.4,2.2s-0.2,2.2-0.4,2.2s-0.3,0.2,0,0.8s0.3,0.9-0.2,1.1c-0.4,0.2-0.6,0.7-0.5,1.1c0,0.6-0.3,1.2-0.8,1.7
		c-0.4,0.4-0.7,0.8-0.9,1.3c-0.2,0.8-0.8,1.5-1.6,1.7c-0.2,0-0.4,0.2-0.2,0.4s0,0.4-0.4,0.4c-0.4,0-0.7,0.3-0.9,0.6
		c-0.2,0.4-0.6,0.6-1,0.6c-0.4,0-0.7,0.2-0.6,0.4s-0.1,0.5-0.4,0.6s-0.5,0.1-0.4-0.1s-0.4,0-1.3,0.4c-0.7,0.4-1.6,0.6-2.4,0.6
		c-0.5-0.1-0.9,0-0.9,0.3s-0.2,0.3-0.4,0.2c-0.8-0.2-1.6-0.4-2.5-0.4c-2.3-0.2-6-1.7-5.7-2.3c0.1-0.2,0-0.3-0.3-0.2
		c-0.5,0.1-2.1-1.4-3.8-3.4c-0.8-1.4-1.2-2.9-1.4-4.5c0-0.3-0.1-0.5-0.3-0.6c-0.5-0.3-0.7-4.1-0.2-4.9c0.2-0.4,0.3-0.8,0.2-1.2
		c-0.1-0.4,0.1-0.7,0.3-0.7s0.4-0.5,0.4-1c0-0.5,0.2-1,0.6-1.2c0.3-0.1,0.5-0.4,0.4-0.6s0.6-1.2,1.6-2.2c0.7-0.7,1.3-1.5,1.8-2.3
		c0-0.3,0.1-0.2,0.3,0.1s0.5,0.3,1.1-0.2c0.3-0.4,0.8-0.6,1.3-0.6c0.3,0.1,0.6-0.1,0.7-0.4c0.1-0.3,0.4-0.5,0.7-0.4
		c0.6,0.1,1.3,0,1.9-0.1c1.4-0.3,2.1-0.3,5.1,0.1 M226.8,194.4c0,0.2-0.7,0.4-1.6,0.4s-1.6,0.2-1.6,0.4s-0.4,0.4-0.8,0.2
		s-0.9-0.1-1,0.1c-0.5,0.3-1,0.5-1.6,0.6c-0.8,0.1-1.4,0.4-1.4,0.6s-0.3,0.3-0.6,0.1s-0.6,0-0.6,0.2s-0.3,0.4-0.6,0.4
		s-0.6,0.2-0.6,0.4s-0.1,0.4-0.3,0.3c-0.5-0.2-2.1,1.1-1.8,1.5c0.2,0.2,0.1,0.2-0.1,0.2c-1.2-0.3-4,2-4.7,3.8
		c-0.1,0.4-0.4,0.6-0.7,0.5s-0.3,0-0.2,0.3s-0.2,0.7-0.8,1s-0.9,0.6-0.8,0.8s-0.2,0.9-0.8,1.5c-0.5,0.4-0.8,1-1,1.6
		c0,0.3-0.2,0.5-0.4,0.5s-0.5,0.7-0.7,1.6c0,0.7-0.3,1.3-0.6,1.8c-0.2,0.1-0.2,0.4-0.1,0.6l0,0c0.1,0.3,0,0.6-0.3,0.8
		c-0.8,0.5-1,11.5-0.4,14.2c0.2,0.9,0.4,1.7,0.5,2.6c0,0.4,0.2,0.6,0.4,0.5s0.3,0.2,0.3,0.7c0.1,0.8,0.4,1.5,0.8,2.1
		c0.4,0.5,0.6,1.1,0.8,1.7c0.3,0.7,0.7,1.3,1.2,1.8c2.4,2.6,2.6,2.8,2,2.5c-0.4-0.2-0.3,0.1,0.2,0.7s1,1,1.3,0.9s0.5,0.2,0.5,0.6
		s0.2,0.7,0.4,0.6s0.4-0.1,0.4,0.2c0,0.3,0.3,0.4,0.5,0.4c0.4,0.1,0.8,0.3,1.1,0.7c1.1,1.2,2.3,2.1,3,2.1c0.3,0,0.5,0.2,0.4,0.4
		s0.1,0.3,0.6,0.2s0.8,0,0.8,0.3s0.2,0.4,0.4,0.2s0.4-0.1,0.4,0.2s0.4,0.4,0.8,0.4s0.8,0.2,0.8,0.4c0,1,9.1,2.3,9.7,1.4
		c0.2-0.2,0.3-0.2,0.3,0.2s0.5,0.5,2.7,0.3c1.5-0.2,3-0.3,3.4-0.4c0.4,0,0.6-0.2,0.5-0.4s0.2-0.3,0.7-0.3c0.7-0.1,1.4-0.3,2-0.6
		c0.6-0.3,1-0.4,0.9-0.2c-0.3,0.5,1.2-0.3,2.3-1.2c0.3-0.3,0.8-0.4,1.2-0.2c0.3,0.2,0.4,0.1,0.2-0.1s0.3-0.5,1-0.7s1.1-0.4,1-0.6
		s0-0.4,0.3-0.4c0.7-0.3,1.4-0.8,1.8-1.4c0.4-0.6,1-1.1,1.6-1.4c0.2,0,0.6-0.4,0.9-0.9c0.4-0.7,0.9-1.3,1.5-1.9
		c0.5-0.5,1-1.1,1.3-1.7c0.1-0.4,0.4-0.7,0.6-0.7s0.5-0.5,0.6-1.2s0.4-1.1,0.6-1s0.5-0.4,0.6-1.2s0.4-1.3,0.7-1.1s0.3,0,0.2-0.4
		c-0.1-0.4,0-0.8,0.2-1.1c0.4-0.4,0.4-0.4-0.1-0.2c-0.6,0.3,0.2-1.3,0.8-1.8c0.2-0.1,0.2-0.6,0.1-1.1s0-1,0.2-1.1
		c0.6-0.4,0.5-1.5-0.1-1.1c-0.4,0.2-0.4,0.2,0-0.3c0.3-0.4,0.5-0.9,0.5-1.5c0-0.6-0.2-0.9-0.5-0.6s-0.4,0.1,0-0.4
		c0.8-1,0.4-6.9-0.5-7.6c-0.2-0.2-0.2-0.3,0.1-0.3s0.2-0.5-0.3-1.5c-0.4-0.8-0.7-1.7-1-2.6c-0.1-0.6-0.4-1.1-0.6-1.1
		c-0.2,0-0.2-0.2-0.1-0.6c0.1-0.3-0.1-0.7-0.4-0.8c-0.4-0.1-0.6-0.5-0.6-0.9c-0.2-0.7-0.5-1.3-1-1.9c-0.5-0.6-0.9-1.4-0.7-1.6
		s0.1-0.4,0-0.2c-0.4,0.3-4.2-3.3-4-3.8c0.1-0.2,0-0.3-0.3-0.3c-0.5-0.1-0.9-0.4-1.2-0.8c-0.3-0.4-0.6-0.6-1-0.9
		c-0.7-0.1-1.3-0.4-1.1-0.7s-0.3-0.4-1-0.6s-1.2-0.4-1.2-0.6s-0.3-0.4-0.6-0.6s-0.5-0.1-0.3,0.3s-0.1,0.2-0.5-0.2
		c-0.5-0.4-1-0.6-1.6-0.7c-0.4,0-0.8-0.1-1.1-0.3c-0.3-0.3-0.8-0.4-3.3-0.8c-0.7,0-1.3-0.3-1.9-0.7c-0.2-0.3-0.4-0.2-0.7,0.2
		s-0.4,0.4-0.4,0.2s-0.9-0.4-2-0.5c-1.3,0-1.9,0.1-1.7,0.4s0.1,0.3-0.3,0.1C228,194,226.8,193.9,226.8,194.4 M232,209.2
		c0,0.2,0.2,0.4,0.4,0.4c0,0,0,0,0.1,0c1.1-0.2,2.2,0,3.2,0.6c0.4,0.4,0.9,0.7,1.5,0.8c1.1,0.3,5.2,4.3,5.2,5c0,0.3,0.1,0.4,0.3,0.3
		s0.3,0.2,0.4,0.7c0,0.9,0.2,1.7,0.6,2.5c0.5,0.8,0.5,6.7,0,6.9c-0.2,0.1-0.4,0.3-0.2,0.5c0.2,0.4-1.2,3.4-2,4
		c-0.3,0.3-0.5,0.7-0.3,0.9s0.1,0.3-0.2,0.1s-0.5,0.1-0.7,0.6s-0.4,0.8-0.5,0.6s-0.4,0-0.7,0.2c-2.6,2.1-3,2.4-3.6,2.1
		c-0.4-0.1-0.6-0.1-0.6,0.2s-0.4,0.4-1,0.4s-1,0.1-1,0.3c0,0.5-6.5-0.2-6.8-0.8c-0.1-0.2-0.4-0.4-0.5-0.4c-0.8,0.2-1.7-0.2-2.2-0.8
		c-0.4-0.5-0.8-0.7-0.8-0.5s-0.5-0.2-1.2-0.8c-0.5-0.4-0.9-0.9-1.2-1.5c-0.2-0.5-0.6-1-1-1.3c-0.6-0.6-0.9-1.2-0.8-1.6
		s0.1-0.5-0.1-0.4s-1-3-1-5c0-0.4-0.1-0.8-0.3-1.1c-0.2-0.3-0.1-0.5,0.2-0.5s0.4-0.1,0-0.3s-0.4-0.6,0.1-1.6
		c0.4-0.7,0.5-1.3,0.3-1.3s0-0.2,0.4-0.5c0.4-0.4,0.7-0.9,0.8-1.4c0.1-0.5,0.3-1,0.7-1.4c0.3-0.3,0.6-0.6,0.7-1
		c0.1-0.4,0.3-0.7,0.6-1c0.3-0.3,0.3-0.2,0.1,0.1s0.2,0.1,0.9-0.4s1.2-1,1.1-1.2s0.3-0.5,1.8-0.9c0.3-0.1,0.5-0.3,0.8-0.4
		c0.8-0.5,1.7-0.7,2.7-0.7c0.4,0,0.8-0.1,1.2-0.4c0.5-0.5,3-0.4,3,0.1"/>
	<path id="path1" class="st0" d="M202.8,38.5c0.1,0.5,0.3,0.9,0.7,1.2c0.6,0.5,0.6,0.5,0.1-0.5C202.9,37.8,202.8,37.7,202.8,38.5
		 M224.6,43.2c0.3,0.3,0.7,0.4,1.2,0.5c0.6,0.1,0.9,0.1,0.8-0.1c-0.3-0.3-0.7-0.4-1.2-0.5C224.8,43,224.5,43,224.6,43.2 M286.9,72.4
		c0,10.9,0.1,15.3,0.1,9.9s0.1-14.4,0-19.8S286.9,61.5,286.9,72.4 M228.7,58.6c0.5,0.1,1.1,0.1,1.6,0c0.4-0.1,0-0.2-0.9-0.2
		S228.2,58.6,228.7,58.6 M346.9,141.2c-0.2,0.9-0.3,1.5-0.1,1.4c0.5-0.8,0.7-1.8,0.7-2.8C347.4,139.7,347.1,140.3,346.9,141.2
		 M16.8,143.4c0.2,0.6,0.6,1.2,1,1.7c0.5,0.7,1,1.2,1,1.1c-0.3-0.6-0.6-1.2-1-1.7C17.2,143.7,16.8,143.2,16.8,143.4 M342.2,148.8
		c-0.4,0.4-0.5,0.8-0.3,0.8c0.5,0,1.4-1.2,1.2-1.4S342.6,148.3,342.2,148.8 M21,175.4c0.9,1.6,0.9,1.6,0.9,1.1
		c-0.2-0.5-0.4-1-0.8-1.4l-0.8-0.9L21,175.4 M208.6,204.2c-0.4,0.5-0.6,1-0.4,1c0.3,0,1.4-1.6,1.2-1.8S209.1,203.7,208.6,204.2
		 M216.6,220.2c-0.2,0.4-0.2,0.9-0.1,1c0.4,0.4,0.7-0.2,0.5-1S216.9,219.5,216.6,220.2"/>
	<path id="path2" class="st0" d="M202.8,38.5c0.1,0.5,0.3,0.9,0.7,1.2c0.6,0.5,0.6,0.5,0.1-0.5C202.9,37.8,202.8,37.7,202.8,38.5
		 M224.6,43.2c0.3,0.3,0.7,0.4,1.2,0.5c0.6,0.1,0.9,0.1,0.8-0.1c-0.3-0.3-0.7-0.4-1.2-0.5C224.8,43,224.5,43,224.6,43.2 M286.9,72.4
		c0,10.9,0.1,15.3,0.1,9.9s0.1-14.4,0-19.8S286.9,61.5,286.9,72.4 M228.7,58.6c0.5,0.1,1.1,0.1,1.6,0c0.4-0.1,0-0.2-0.9-0.2
		S228.2,58.6,228.7,58.6 M346.9,141.2c-0.2,0.9-0.3,1.5-0.1,1.4c0.5-0.8,0.7-1.8,0.7-2.8C347.4,139.7,347.1,140.3,346.9,141.2
		 M16.8,143.4c0.2,0.6,0.6,1.2,1,1.7c0.5,0.7,1,1.2,1,1.1c-0.3-0.6-0.6-1.2-1-1.7C17.2,143.7,16.8,143.2,16.8,143.4 M342.2,148.8
		c-0.4,0.4-0.5,0.8-0.3,0.8c0.5,0,1.4-1.2,1.2-1.4S342.6,148.3,342.2,148.8 M21,175.4c0.9,1.6,0.9,1.6,0.9,1.1
		c-0.2-0.5-0.4-1-0.8-1.4l-0.8-0.9L21,175.4 M208.6,204.2c-0.4,0.5-0.6,1-0.4,1c0.3,0,1.4-1.6,1.2-1.8S209.1,203.7,208.6,204.2
		 M216.6,220.2c-0.2,0.4-0.2,0.9-0.1,1c0.4,0.4,0.7-0.2,0.5-1S216.9,219.5,216.6,220.2"/>
	<path id="path3" class="st0" d="M202.8,38.5c0.1,0.5,0.3,0.9,0.7,1.2c0.6,0.5,0.6,0.5,0.1-0.5C202.9,37.8,202.8,37.7,202.8,38.5
		 M224.6,43.2c0.3,0.3,0.7,0.4,1.2,0.5c0.6,0.1,0.9,0.1,0.8-0.1c-0.3-0.3-0.7-0.4-1.2-0.5C224.8,43,224.5,43,224.6,43.2 M286.9,72.4
		c0,10.9,0.1,15.3,0.1,9.9s0.1-14.4,0-19.8S286.9,61.5,286.9,72.4 M228.7,58.6c0.5,0.1,1.1,0.1,1.6,0c0.4-0.1,0-0.2-0.9-0.2
		S228.2,58.6,228.7,58.6 M346.9,141.2c-0.2,0.9-0.3,1.5-0.1,1.4c0.5-0.8,0.7-1.8,0.7-2.8C347.4,139.7,347.1,140.3,346.9,141.2
		 M16.8,143.4c0.2,0.6,0.6,1.2,1,1.7c0.5,0.7,1,1.2,1,1.1c-0.3-0.6-0.6-1.2-1-1.7C17.2,143.7,16.8,143.2,16.8,143.4 M342.2,148.8
		c-0.4,0.4-0.5,0.8-0.3,0.8c0.5,0,1.4-1.2,1.2-1.4S342.6,148.3,342.2,148.8 M21,175.4c0.9,1.6,0.9,1.6,0.9,1.1
		c-0.2-0.5-0.4-1-0.8-1.4l-0.8-0.9L21,175.4 M208.6,204.2c-0.4,0.5-0.6,1-0.4,1c0.3,0,1.4-1.6,1.2-1.8S209.1,203.7,208.6,204.2
		 M216.6,220.2c-0.2,0.4-0.2,0.9-0.1,1c0.4,0.4,0.7-0.2,0.5-1S216.9,219.5,216.6,220.2"/>
	<path id="path4" class="st0" d="M202.8,38.5c0.1,0.5,0.3,0.9,0.7,1.2c0.6,0.5,0.6,0.5,0.1-0.5C202.9,37.8,202.8,37.7,202.8,38.5
		 M224.6,43.2c0.3,0.3,0.7,0.4,1.2,0.5c0.6,0.1,0.9,0.1,0.8-0.1c-0.3-0.3-0.7-0.4-1.2-0.5C224.8,43,224.5,43,224.6,43.2 M286.9,72.4
		c0,10.9,0.1,15.3,0.1,9.9s0.1-14.4,0-19.8S286.9,61.5,286.9,72.4 M228.7,58.6c0.5,0.1,1.1,0.1,1.6,0c0.4-0.1,0-0.2-0.9-0.2
		S228.2,58.6,228.7,58.6 M346.9,141.2c-0.2,0.9-0.3,1.5-0.1,1.4c0.5-0.8,0.7-1.8,0.7-2.8C347.4,139.7,347.1,140.3,346.9,141.2
		 M16.8,143.4c0.2,0.6,0.6,1.2,1,1.7c0.5,0.7,1,1.2,1,1.1c-0.3-0.6-0.6-1.2-1-1.7C17.2,143.7,16.8,143.2,16.8,143.4 M342.2,148.8
		c-0.4,0.4-0.5,0.8-0.3,0.8c0.5,0,1.4-1.2,1.2-1.4S342.6,148.3,342.2,148.8 M21,175.4c0.9,1.6,0.9,1.6,0.9,1.1
		c-0.2-0.5-0.4-1-0.8-1.4l-0.8-0.9L21,175.4 M208.6,204.2c-0.4,0.5-0.6,1-0.4,1c0.3,0,1.4-1.6,1.2-1.8S209.1,203.7,208.6,204.2
		 M216.6,220.2c-0.2,0.4-0.2,0.9-0.1,1c0.4,0.4,0.7-0.2,0.5-1S216.9,219.5,216.6,220.2"/>
</g>
</svg>
