<?xml version="1.0" encoding="UTF-8"?>
<svg width="50px" height="53px" viewBox="0 0 50 53" version="1.1" xmlns="http://www.w3.org/2000/svg" xmlns:xlink="http://www.w3.org/1999/xlink">
    <!-- Generator: Sketch 51.3 (57544) - http://www.bohemiancoding.com/sketch -->
    <title>Iconos finales_tarjeta vips 2 promo Copy 3</title>
    <desc>Created with Sketch.</desc>
    <defs></defs>
    <g id="Mobile" stroke="none" stroke-width="1" fill="none" fill-rule="evenodd">
        <g id="HomeRegistrado-Copy-9" transform="translate(-251.000000, -348.000000)" fill-rule="nonzero">
            <g id="Iconos-finales_tarjeta-vips-2-promo-Copy-3" transform="translate(251.000000, 348.000000)">
                <path d="M25.0990342,52.9999988 C24.0203923,53.0009415 23.0106248,52.4675756 22.399905,51.5743008 C22.3975234,51.5711104 22.3955388,51.56792 22.3935541,51.5647297 L19.5229508,47.257726 L19.5181876,47.2505476 C19.1811934,46.734106 18.4945032,46.498816 17.8856114,46.6922323 L12.3555719,48.4373664 C11.3248675,48.7625441 10.2008823,48.5568532 9.35049165,47.8874324 C8.50010101,47.2180117 8.03241051,46.1707481 8.10007709,45.0874747 L8.43667438,39.7479865 C8.47717563,39.0626709 8.03837339,38.4410829 7.38123547,38.2528979 L2.3866556,36.8435506 C1.39711845,36.5643361 0.595743096,35.8340758 0.222862884,34.8717754 C-0.150017329,33.9094751 -0.0510366966,32.8270495 0.490120379,31.9491195 L3.6353998,26.8473141 C3.93593425,26.3591545 3.92397578,25.7393841 3.60483613,25.2632938 L0.566331087,20.7373508 C-0.000478606344,19.8935975 -0.146630463,18.8337591 0.170503952,17.866961 C0.487638367,16.900163 1.23233862,16.1353006 2.18739635,15.7954629 L7.45466766,13.9211187 C8.03339653,13.7144072 8.42020064,13.1643644 8.42079715,12.5472643 L8.42079715,7.172682 C8.42095325,6.09931013 8.94193622,5.09341297 9.81679108,4.47734184 C10.6916459,3.8612707 11.8105064,3.71239322 12.8148208,4.0784189 L17.7879664,5.892146 C18.4079081,6.11751631 19.1012571,5.89735408 19.4796853,5.35496693 L22.2955122,1.33748961 L22.3133741,1.31236542 C22.9476893,0.468598494 23.9457215,-0.0190736112 24.9979904,0.000571657362 C26.0502592,0.020216926 27.0295695,0.544804908 27.6322464,1.41166578 L30.5226963,5.56553155 C30.9011244,6.10791871 31.5944735,6.32808093 32.2144152,6.10271062 L37.18637,4.29057871 C38.1907785,3.9242244 39.309895,4.07293994 40.1849657,4.6890518 C41.0600365,5.30516365 41.5811253,6.31126894 41.5811875,7.38484181 L41.5811875,12.7594241 C41.5814931,13.3759765 41.9671586,13.925915 42.5449354,14.1336773 L47.8122067,16.0080215 C48.7672644,16.3478592 49.5119647,17.1127216 49.8290991,18.0795196 C50.1462335,19.0463177 50.0000817,20.1061561 49.433272,20.9499094 L46.3951639,25.4746561 C46.0760242,25.9507463 46.0640658,26.5705167 46.3646002,27.0586763 L49.5098796,32.1604817 C50.0510367,33.0384118 50.1500173,34.1208373 49.7771371,35.0831376 C49.4042569,36.045438 48.6028815,36.7756983 47.6133444,37.0549128 L42.6195584,38.4654565 C41.9624205,38.6536415 41.5236182,39.2752296 41.5641195,39.9605451 L41.9007168,45.3000333 C41.9683833,46.3833067 41.5006929,47.4305703 40.6503022,48.0999911 C39.7999116,48.7694118 38.6759264,48.9751027 37.645222,48.649925 L32.1151825,46.904791 C31.4936043,46.7104757 30.8190228,46.9523792 30.4603781,47.4982003 L27.8406351,51.5136837 C27.2426501,52.430927 26.228838,52.9882282 25.1375365,52.9996 L25.0990342,52.9999988 Z M23.9082419,50.5386259 C24.1764366,50.9338565 24.6229398,51.168924 25.0990342,51.1655342 L25.1161023,51.1655342 C25.5990515,51.1635699 26.0483346,50.9166452 26.3104669,50.509115 L28.9321947,46.4936316 C29.7398176,45.2628208 31.26027,44.7169824 32.6613592,45.1548713 L38.1913987,46.9000054 C38.6482671,47.044217 39.1465226,46.9530212 39.5234231,46.6562047 C39.9003236,46.3593882 40.107475,45.8950622 40.0772168,45.4148867 L39.7406195,40.0749997 C39.6431475,38.5253336 40.6366877,37.1179333 42.1245857,36.6979898 L47.1191656,35.2886425 C47.5564132,35.1654111 47.910551,34.8428077 48.0753127,34.4176361 C48.2400744,33.9924645 48.1962857,33.5142042 47.9570865,33.1263671 L44.811807,28.0245618 C44.1337613,26.9223457 44.1609364,25.5233494 44.8812699,24.4485523 L47.9201719,19.9234069 C48.170853,19.5500501 48.2354573,19.0811567 48.0951508,18.6534219 C47.9548443,18.2256871 47.6254214,17.8872613 47.202918,17.7368049 L41.9360436,15.8624607 C40.628485,15.3957197 39.754417,14.1531795 39.7529244,12.7590253 L39.7529244,7.38484181 C39.7527403,6.90975918 39.5221209,6.46457605 39.1349247,6.19186768 C38.7477285,5.91915932 38.2525454,5.85314826 37.8079636,6.01497536 L32.8356119,7.82870247 C31.4390538,8.33666527 29.8769741,7.84033538 29.0250765,6.61795588 L26.1338327,2.46448891 C25.8672707,2.08141109 25.4351058,1.8487225 24.9700069,1.8378554 C24.504908,1.82698831 24.0624441,2.03924108 23.7784456,2.40945497 L20.9749235,6.40858765 C20.1221637,7.62982225 18.5603267,8.12493083 17.1643881,7.61654266 L12.1924333,5.80401194 C11.7478516,5.64218484 11.2526684,5.7081959 10.8654722,5.98090426 C10.478276,6.25361263 10.2476566,6.69879576 10.2474726,7.17387839 L10.2474726,12.5472643 C10.2459799,13.9414185 9.37191194,15.1839587 8.06435332,15.6506997 L2.79747894,17.5250439 C2.37497548,17.6755003 2.04555262,18.0139261 1.90524612,18.4416609 C1.76493962,18.8693957 1.8295439,19.3382891 2.08022504,19.7116459 L5.11912701,24.2363925 C5.83943065,25.3113452 5.86660448,26.7104333 5.1885899,27.8128007 L2.04291355,32.9142073 C1.80404075,33.3019917 1.7604356,33.7800173 1.9251715,34.2049655 C2.08990741,34.6299138 2.44383217,34.9523802 2.8808344,35.0756851 L7.87541428,36.4850324 C9.36300516,36.9049143 10.3564649,38.3118684 10.2593805,39.8612447 L9.92278319,45.2011317 C9.89252495,45.6813072 10.0996764,46.1456332 10.4765769,46.4424497 C10.8534774,46.7392662 11.3517329,46.830462 11.8086013,46.6862504 L17.3398315,44.9427115 C18.7322647,44.5040352 20.2544942,45.0376251 21.0435926,46.2419909 L23.9082419,50.5386259 Z" id="Shape" fill="#404040"></path>
                <path d="M18.5050147,25.999996 C16.6487168,26.0027592 15.1131966,24.5556416 15.0059364,22.7023659 C14.8986762,20.8490901 16.2569955,19.2344747 18.1012168,19.0230487 C19.9454381,18.8116228 21.6338933,20.0769487 21.9487968,21.9064198 C22.2637003,23.7358908 21.0954863,25.492971 19.2867204,25.9103794 C19.0303461,25.9695267 18.7681225,25.9995887 18.5050147,25.999996 Z M18.5050147,20.7118751 C17.9592675,20.711675 17.4431897,20.9602576 17.1031352,21.3871278 C16.7630807,21.813998 16.6361371,22.3725997 16.7583042,22.9045197 C16.9679081,23.8182299 17.8462958,24.4159662 18.7731337,24.2755964 C19.6999717,24.1352265 20.3619901,23.3041952 20.2916595,22.369392 C20.221329,21.4345888 19.442421,20.7119756 18.5050147,20.7118751 Z" id="Shape" fill="#EA2229"></path>
                <path d="M17.9370231,37 C17.5959439,36.9996566 17.2819451,36.8289001 17.1169936,36.5540578 C16.9520422,36.2792156 16.9621353,35.9436039 17.1433524,35.6775851 L30.2662442,16.4053217 C30.4442287,16.1437419 30.7602769,15.9894485 31.0953364,16.0005623 C31.430396,16.0116761 31.7335634,16.1865086 31.8906385,16.4592022 C32.0477136,16.7318958 32.0348328,17.0610217 31.8568483,17.3226015 L18.7319173,36.5952404 C18.5603133,36.8471479 18.2600093,37.0000625 17.9370231,37 Z" id="Shape" fill="#EA2229"></path>
                <path d="M31.4993354,34 C29.6435194,33.9997511 28.1105718,32.5508761 28.0056802,30.69795 C27.9007886,28.845024 29.2604284,27.23239 31.1043593,27.0226862 C32.9482902,26.8129824 34.6352969,28.0791318 34.949122,29.9082966 C35.2629471,31.7374614 34.09446,33.4935611 32.2860882,33.9105253 C32.0280365,33.9698435 31.7641165,33.9998582 31.4993354,34 Z M31.5093177,28.718777 C31.3735697,28.7188606 31.2382633,28.7342398 31.105959,28.7646235 C30.1427636,28.9856272 29.5410652,29.9456128 29.761996,30.9088627 C29.9829268,31.8721126 30.9428329,32.4738993 31.9060575,32.2530231 C32.8692822,32.0321469 33.4711075,31.0722408 33.2503041,30.1089617 C33.0640491,29.2971062 32.3425988,28.7209027 31.5096874,28.718777 L31.5093177,28.718777 Z" id="Shape" fill="#EA2229"></path>
            </g>
        </g>
    </g>
</svg>