<?xml version="1.0" encoding="UTF-8"?>
<svg width="99px" height="99px" viewBox="0 0 99 99" version="1.1" xmlns="http://www.w3.org/2000/svg" xmlns:xlink="http://www.w3.org/1999/xlink">
    <!-- Generator: Sketch 51.3 (57544) - http://www.bohemiancoding.com/sketch -->
    <title>Group 18</title>
    <desc>Created with Sketch.</desc>
    <defs></defs>
    <g id="V2" stroke="none" stroke-width="1" fill="none" fill-rule="evenodd">
        <g id="New-home-desktop" transform="translate(-958.000000, -918.000000)" fill-rule="nonzero">
            <g id="Group-18" transform="translate(958.000000, 918.000000)">
                <circle id="Oval" fill="#EB624E" cx="49.5" cy="49.5" r="49.5"></circle>
                <g id="rappi" transform="translate(23.000000, 26.000000)" fill="#FFFFFF">
                    <path d="M40.7753202,44.3182513 C41.1618551,44.275382 41.5566141,44.2410866 41.943149,44.1896435 C42.7984603,44.0781834 43.6455474,43.863837 44.459738,43.5551783 C46.0634466,42.9464346 47.5191206,41.986163 48.7280702,40.7343803 C49.8794507,39.5511885 50.7758827,38.1793718 51.4913835,36.6703735 C52.0424014,35.5129032 52.4536087,34.2868421 52.7085573,33.0179117 C52.7414538,32.8550085 52.7661263,32.7006791 52.7990229,32.5377759 C52.5769709,32.709253 52.3878155,32.8893039 52.1986602,33.0693548 C51.7381079,33.5151952 51.2282108,33.9095925 50.6854171,34.2439728 C50.060382,34.6212224 49.3942261,34.878438 48.6705011,34.9470289 C48.0865867,34.998472 47.5026723,34.9213073 46.9434303,34.7326825 C46.3183951,34.5097623 45.7262566,34.2011036 45.1834629,33.7981324 C44.352824,33.1979626 43.6126508,32.5034805 42.8560293,31.8004244 C42.0336146,31.0373514 41.2029758,30.3 40.3147679,29.6312394 C39.6157154,29.1082343 38.8919905,28.6195246 38.0942483,28.2594228 C37.1320231,27.8135823 36.0711082,27.6506791 35.0266415,27.7878608 C34.3687097,27.8821732 33.7354504,28.0879457 33.1433119,28.3966044 C32.5018284,28.7224109 31.917914,29.1425297 31.358672,29.5883701 C30.7007402,30.1113752 30.0674809,30.6601019 29.4259975,31.2002547 C29.2779628,31.3202886 29.1381523,31.4488964 28.9901177,31.5689304 C28.7351691,31.7747029 28.5460138,31.7747029 28.2910652,31.5775042 C28.2417203,31.5432088 28.1923755,31.4917657 28.1348064,31.4488964 C27.888082,31.2345501 27.6495818,31.0287776 27.4028574,30.8230051 C26.5804427,30.1113752 25.7498038,29.4083192 24.8451477,28.8081494 C23.9898364,28.242275 23.0769561,27.8564516 22.065386,27.7535654 C21.333437,27.6764007 20.5932638,27.7535654 19.8942113,27.9679117 C19.1375898,28.2165535 18.4467614,28.5852292 17.7806055,29.0310696 C16.6456733,29.7941426 15.6094307,30.6772496 14.5978607,31.6117997 C13.9152565,32.237691 13.216204,32.8721562 12.5089274,33.4637521 C11.8592198,34.0210526 11.1108224,34.4497453 10.304856,34.7241087 C9.65514842,34.9470289 8.96432008,35.0070458 8.28994004,34.8955857 C7.5991117,34.7755518 6.96585239,34.4840407 6.37371382,34.0982173 C5.83914427,33.7466893 5.34569546,33.3351443 4.89336738,32.8807301 C4.77000518,32.7521222 4.63841883,32.6406621 4.50683248,32.5206282 C4.53972907,32.8121392 4.58907395,33.1036503 4.65486713,33.3951613 C4.74533274,33.7809847 4.8440225,34.1668081 4.96738471,34.5440577 C5.41971278,36.0101868 6.06942039,37.3991511 6.90828337,38.6595076 C7.49219779,39.5597623 8.18302613,40.3914261 8.95609594,41.1287776 C10.9381153,42.9978778 13.4711526,44.1039049 16.1357761,44.2839559 L17.8792953,44.2839559 C20.2642979,44.1210526 22.567059,43.3236842 24.5573025,41.9518676 C26.2925975,40.7429542 27.6742542,39.1910866 28.5295655,37.1762309 C28.5542379,37.1247878 28.5789104,37.0819185 28.6035828,37.0304754 C28.6035828,37.0219015 28.6282552,37.0133277 28.6611518,36.99618 C28.7022726,37.0561969 28.7351691,37.1247878 28.7680657,37.1933786 C29.2203938,38.2479626 29.8289807,39.2168081 30.5856022,40.0570458 C31.3915686,40.9658744 32.3291213,41.7375212 33.3571397,42.3548387 C34.5989859,43.1093379 35.9395218,43.6580645 37.3458509,43.9752971 C37.8639722,44.0953311 38.3903176,44.155348 38.916663,44.2325127 C39.2209564,44.275382 39.5252498,44.2925297 39.8377674,44.3268251 L40.7753202,44.3182513 Z" id="Shape"></path>
                    <path d="M0.00822414687,6.96196944 C0.0493448812,6.91052632 0.0740173218,6.85050934 0.0904656155,6.78191851 C0.205603672,6.03599321 0.518121252,5.3672326 0.912880302,4.74991511 C1.57081205,3.69533107 2.43434747,2.86366723 3.45414168,2.19490662 C4.21898734,1.68904924 5.04962618,1.2860781 5.9131616,1.00314092 C7.09743874,0.643039049 8.33928492,0.505857385 9.5646828,0.591595925 C10.9463395,0.685908319 12.2786513,1.01171477 13.4793767,1.78336163 C14.1619809,2.22062818 14.7376712,2.78650255 15.1406544,3.52385399 C15.3544822,3.90967742 15.4860685,4.33837012 15.5354134,4.78421053 C15.6998964,6.30178268 15.2475683,7.61358234 14.3593604,8.78820034 C13.7096528,9.64558574 12.9036864,10.2971986 11.9990303,10.8459253 C11.2424088,11.2917657 10.4446665,11.6604414 9.62225183,11.9348048 C9.42487231,12.0033956 9.40019987,12.037691 9.41664816,12.2520374 C9.45776889,13.0151104 9.54001036,13.7696095 9.67159671,14.5241087 C9.86075209,15.5786927 10.1568214,16.6075552 10.6502702,17.559253 C11.08615,18.4080645 11.6371678,19.145416 12.4184618,19.6855688 C12.8954623,20.0199491 13.438256,20.2257216 14.0057221,20.3028862 C14.6554297,20.3800509 15.3051373,20.3114601 15.9219483,20.0885399 C16.3167074,19.9513582 16.7032423,19.7713073 17.0651047,19.556961 C17.2295877,19.4540747 17.3940706,19.3940577 17.5914501,19.4626486 C17.9533126,19.5826825 18.2082612,20.1228353 17.8299504,20.5086587 C17.5503294,20.7830221 17.2624843,21.0316638 16.9499667,21.2717317 C16.0535347,21.9747878 15.0995336,22.5578098 14.0221704,22.8921902 C13.3477904,23.1065365 12.656962,23.2094228 11.9496854,23.1494058 C10.9463395,23.0722411 9.99233844,22.6692699 9.21926864,22.0090832 C8.50376786,21.4089134 7.96097417,20.6629881 7.53331853,19.8227504 C6.96585239,18.6995756 6.61221408,17.499236 6.40661041,16.2474533 C6.34081723,15.8787776 6.30792065,15.501528 6.25035162,15.1328523 C6.25035162,15.0985569 6.24212747,15.0642615 6.23390332,15.029966 C6.20100674,14.9870968 6.159886,14.9270798 6.11876527,14.9185059 C6.08586868,14.9099321 6.0365238,14.9613752 6.00362721,15.0042445 C5.98717892,15.0385399 5.97073062,15.0814092 5.96250648,15.1157046 C5.71578207,16.1617148 5.46083352,17.207725 5.21410911,18.2537351 C5.18943667,18.3480475 5.18121252,18.4337861 5.16476423,18.5366723 C5.09074691,18.9139219 4.8604708,19.1368421 4.51505663,19.2311545 C4.17786661,19.316893 3.82422829,19.2997453 3.48703827,19.1968591 C2.99358946,19.0511036 2.54948553,18.7510187 2.21229551,18.3394737 C1.98201939,18.0565365 1.85865719,17.7050085 1.85865719,17.3363328 C1.8422089,16.9162139 1.91622622,16.5046689 1.99024354,16.0931239 C2.22051965,14.858489 2.54126138,13.6495756 2.8948997,12.4578098 C3.46236583,10.5458404 4.09562514,8.65959253 4.81935006,6.80764007 C5.09074691,6.11315789 5.3868162,5.43582343 5.67466134,4.74991511 C5.83092013,4.38981324 6.11054112,4.17546689 6.48062773,4.08972835 C6.63688652,4.06400679 6.79314531,4.03828523 6.95762825,4.02971138 C7.13033533,4.01256367 7.30304242,3.99541596 7.4757495,3.99541596 C7.66490488,3.99541596 7.84583611,4.00398981 8.03499149,4.02971138 C8.31461248,4.06400679 8.59423347,4.08972835 8.87385447,4.14974533 C9.3179584,4.25263158 9.50711378,4.65560272 9.32618254,5.09286927 C8.75871641,6.42181664 8.25704345,7.76791171 7.78004293,9.12258065 C7.64845658,9.50840407 7.51687023,9.8942275 7.38528388,10.2800509 C7.36883559,10.3143463 7.36061144,10.3572156 7.3523873,10.391511 C7.32771486,10.5286927 7.40173218,10.6058574 7.52509438,10.5544143 C7.69780147,10.4772496 7.87050855,10.3829372 8.04321563,10.2800509 C9.11235473,9.65415959 10.0170109,8.84821732 10.6831668,7.76791171 C11.0285809,7.21061121 11.2917536,6.61044143 11.4151158,5.95025467 C11.5220298,5.39295416 11.5302539,4.8270798 11.4480124,4.26977929 C11.2917536,3.31808149 10.7407358,2.76078098 9.87720038,2.50356537 C9.32618254,2.34066214 8.76694056,2.34923599 8.19947442,2.40067912 C7.16323192,2.49499151 6.2996965,2.97512733 5.50195425,3.62674024 C4.3176771,4.59558574 3.44591754,5.9073854 2.98536531,7.39923599 C2.86200311,7.78505942 2.78798579,8.17945671 2.77976164,8.5910017 C2.77976164,9.06256367 2.47546821,9.31977929 2.07248501,9.37122241 C1.65305352,9.42266553 1.22539788,9.29405772 0.904656155,9.01112054 C0.460552224,8.65101868 0.164482937,8.12801358 0.0986897624,7.54499151 C0.0822414687,7.45925297 0.0493448812,7.37351443 0.00822414687,7.28777589 C0.00822414687,7.17631579 0.00822414687,7.07342954 0.00822414687,6.96196944 Z" id="Shape-2"></path>
                    <path d="M54.4356281,2.83794567 C54.4109557,2.88081494 54.3945074,2.93225806 54.3780591,2.98370119 C54.2218003,4.02971138 53.4405063,4.86137521 52.4289363,5.04142615 C51.1048486,5.2729202 49.9041232,4.32122241 49.6985195,2.96655348 C49.4846917,1.59473684 50.4140203,0.274363328 51.7463321,0.102886248 C51.795677,0.0943123939 51.8450218,0.0685908319 51.8861426,0.0514431239 L52.1986602,0.0514431239 C52.2397809,0.0771646859 52.2891258,0.0943123939 52.3384706,0.102886248 C53.3829373,0.248641766 54.2135761,1.08887946 54.3862832,2.16918506 C54.4027315,2.22062818 54.4191798,2.27207131 54.4438522,2.31494058 C54.4356281,2.48641766 54.4356281,2.65789474 54.4356281,2.83794567 Z" id="Shape-3"></path>
                    <path d="M21.9173514,7.39923599 C22.065386,7.33064516 22.0900585,7.21918506 22.1476275,7.13344652 C22.345007,6.78191851 22.5999556,6.50755518 22.9700422,6.36179966 C23.2003183,6.27606112 23.4388186,6.23319185 23.685543,6.2417657 C24.0474054,6.224618 24.4010437,6.31035654 24.7217855,6.48183362 C24.919165,6.59329372 25.0836479,6.73904924 25.2234584,6.91910017 C25.4290621,7.16774194 25.478407,7.51926995 25.3468206,7.81078098 C25.1741136,8.25662139 24.9849582,8.68531409 24.8040269,9.1311545 C24.2941298,10.391511 23.7842327,11.6518676 23.3812495,12.9550934 C23.2249907,13.4780985 23.0851803,14.0011036 23.0358354,14.5498302 C23.0193871,14.7641766 23.0193871,14.9785229 23.0440595,15.1928693 C23.0769561,15.4243633 23.1920942,15.4929542 23.405922,15.3986418 C23.52106,15.3471986 23.6361981,15.2786078 23.7348879,15.2014431 C24.5079577,14.5669779 25.0836479,13.7181664 25.3879414,12.740747 C25.9060626,11.1202886 26.4817529,9.51697793 27.1232364,7.94796265 C27.2383744,7.67359932 27.3535125,7.39066214 27.4768747,7.11629881 C27.7071508,6.61044143 28.110134,6.34465195 28.6200311,6.26748727 C29.2121697,6.18174873 29.7714117,6.30178268 30.2484122,6.70475382 C30.3388778,6.78191851 30.4211193,6.86765705 30.4951366,6.96196944 C30.6102746,7.0991511 30.6184988,7.0991511 30.7583093,6.97911715 C31.079051,6.71332767 31.3997927,6.43896435 31.7452069,6.20747029 C32.3537938,5.78735144 33.0446221,5.63302207 33.768347,5.7016129 C34.3933822,5.76162988 34.886831,6.07886248 35.2486935,6.61044143 C35.5776593,7.09057725 35.7339181,7.63073005 35.7997113,8.20517827 C35.9230735,9.30263158 35.7914872,10.3743633 35.5118662,11.4203735 C35.2404693,12.449236 34.8786069,13.4438031 34.4180546,14.3955008 C34.1219853,15.0042445 33.7765712,15.5958404 33.3818121,16.1445671 C33.3406914,16.1960102 33.3077948,16.2560272 33.2748982,16.3160441 C33.2666741,16.3417657 33.2584499,16.3932088 33.2748982,16.4103565 C33.3077948,16.4275042 33.3406914,16.4360781 33.373588,16.4275042 C33.3982604,16.4189304 33.4229329,16.4103565 33.4393812,16.3932088 C34.212451,15.913073 34.9115034,15.3557725 35.4049523,14.5584041 C35.6434525,14.1725806 35.8326079,13.7610357 35.9641942,13.3237691 C36.5398845,11.5061121 37.1649197,9.70560272 37.8886446,7.94796265 C37.9955585,7.68217317 38.1106966,7.4163837 38.2258346,7.15059423 C38.4807832,6.57614601 38.916663,6.31035654 39.5005774,6.25033956 C39.8953364,6.20747029 40.2900955,6.26748727 40.6437338,6.4475382 C40.8740099,6.5589983 41.0878377,6.73047538 41.2523207,6.93624788 C41.383907,7.10772496 41.3921312,7.09057725 41.5566141,6.95339559 C41.8362351,6.72190153 42.1076319,6.49040747 42.3954771,6.27606112 C43.0122881,5.82164686 43.7771338,5.61587436 44.5337553,5.69303905 C45.1423421,5.75305603 45.635791,6.06171477 46.0058776,6.58471986 C46.2937227,6.987691 46.4499815,7.45067912 46.532223,7.93938879 C46.6309127,8.51383701 46.647361,9.09685908 46.589792,9.6713073 C46.4664298,11.1374363 46.0141017,12.5006791 45.4548597,13.8296265 C45.1012214,14.6698642 44.6571175,15.4586587 44.1307721,16.1960102 C44.0896513,16.2560272 43.9827374,16.3331919 44.0649789,16.4189304 C44.1307721,16.4875212 44.2130135,16.4017827 44.2705826,16.3674873 C44.8380487,16.0073854 45.3643941,15.6129881 45.8167222,15.1071307 C46.36774,14.4983871 46.7213783,13.7781834 46.9434303,12.9722411 C47.3299652,11.5318336 47.823414,10.1257216 48.4237767,8.76247878 C48.6705011,8.20517827 48.9336738,7.65645161 49.2132948,7.12487267 C49.5093641,6.55042445 49.9863646,6.28463497 50.5949515,6.25033956 C50.9485898,6.23319185 51.3022281,6.25891341 51.631194,6.41324278 C51.8696943,6.51612903 52.0752979,6.67903226 52.248005,6.88480475 C52.470057,7.15916808 52.5358502,7.46782683 52.4042638,7.81078098 C52.2644533,8.162309 52.1164187,8.51383701 51.968384,8.86536503 C51.4009179,10.2286078 50.8499001,11.5918506 50.4304686,13.0065365 C50.2988822,13.4609508 50.1919683,13.9325127 50.117951,14.3955008 C50.0768303,14.6355688 50.0850544,14.8927844 50.1015027,15.1414261 C50.1097268,15.3900679 50.2577615,15.4929542 50.4798135,15.3900679 C50.6278481,15.3214771 50.7594345,15.2271647 50.8827967,15.1157046 C51.4255903,14.6269949 51.910815,14.0782683 52.3220224,13.4695246 C52.4782811,13.2380306 52.6345399,13.0151104 52.7907987,12.7750424 C52.9141609,12.5692699 53.1362129,12.4578098 53.366489,12.4749576 C53.8352654,12.4921053 54.0819898,12.9636672 53.8352654,13.3752122 C53.4651788,13.9668081 53.0950922,14.5584041 52.7085573,15.1328523 C52.2315567,15.8359083 51.6969872,16.4960951 51.1130728,17.1048387 C50.6113998,17.6192699 50.0850544,18.0994058 49.4764675,18.4766553 C49.0159153,18.7681664 48.4977941,18.9310696 47.9632245,18.9482173 C47.2230513,18.9739389 46.6309127,18.5195246 46.4335332,17.7564516 C46.36774,17.4820883 46.3430676,17.1991511 46.310171,16.9162139 C46.3019469,16.8476231 46.310171,16.7704584 46.3019469,16.6932937 C46.2854986,16.5389643 46.1950329,16.4960951 46.0716707,16.5818336 C45.9894293,16.6418506 45.9071878,16.7104414 45.8249463,16.7790323 C44.912066,17.5163837 43.8922718,18.0994058 42.8066844,18.5023769 C42.165201,18.7510187 41.4990451,18.8882003 40.8164409,18.9139219 C40.5285958,18.9224958 40.2407506,18.9482173 39.9529055,18.9482173 C39.7144052,18.9482173 39.475905,18.9139219 39.2456288,18.8710526 C38.8179732,18.7853141 38.4478866,18.5280985 38.2258346,18.142275 C38.1764897,18.0651104 38.1435932,17.9365025 38.020231,17.9622241 C37.8968688,17.9879457 37.9050929,18.1079796 37.8804205,18.2108659 C37.5925753,19.2568761 37.3047302,20.3028862 37.0333333,21.3660441 C36.8359538,22.1634126 36.6632467,22.960781 36.4905396,23.7667233 C36.400074,24.1611205 36.1615738,24.3926146 35.7914872,24.4783531 C35.4954179,24.546944 35.2157969,24.4955008 34.9361759,24.4097623 C34.5249685,24.2811545 34.1631061,24.0325127 33.8917092,23.6809847 C33.5298468,23.2351443 33.3982604,22.7207131 33.5216226,22.1548387 C33.7025539,21.3317487 33.8999334,20.5172326 34.0973129,19.7027165 C34.2782441,18.9825127 34.4838478,18.2794567 34.6812273,17.5678268 C34.7058998,17.4735144 34.7305722,17.3877759 34.7470205,17.2934635 C34.7634688,17.1648557 34.6812273,17.1048387 34.5660893,17.1562818 C34.5331927,17.1734295 34.5002961,17.1991511 34.4673995,17.2248727 C33.7272263,17.7478778 32.9212599,18.1679966 32.0823969,18.4938031 C31.5560515,18.6910017 31.0132578,18.8281834 30.46224,18.8882003 C30.0263602,18.9482173 29.5822563,18.9739389 29.1381523,18.9567912 C28.8996521,18.9482173 28.669376,18.9224958 28.4308757,18.8710526 C28.0032201,18.7853141 27.6331335,18.5195246 27.4110815,18.1337012 C27.3617366,18.0565365 27.32884,17.9450764 27.2219261,17.9622241 C27.1150122,17.9793718 27.0985639,18.0908319 27.0738915,18.1765705 C26.6955807,19.6341256 26.3090458,21.083107 25.9307351,22.5406621 C25.8402694,22.900764 25.7744763,23.2780136 25.700459,23.6466893 C25.5853209,24.2725806 25.2399067,24.5212224 24.6066474,24.486927 C23.9733881,24.4526316 23.4470427,24.135399 23.0358354,23.6123939 C22.7068695,23.2008489 22.5917314,22.6435484 22.7150936,22.1291171 C22.8960249,21.2974533 23.0934044,20.4829372 23.2990081,19.6598472 C23.463491,18.9996604 23.6526464,18.3480475 23.8335776,17.6964346 C23.8418018,17.6621392 23.8500259,17.6192699 23.8664742,17.5764007 C23.8993708,17.5163837 23.8746983,17.4306452 23.8171293,17.3963497 C23.7513361,17.3534805 23.6937671,17.3963497 23.6444222,17.4306452 C23.3319047,17.6964346 23.0358354,17.970798 22.7150936,18.2194397 C22.3038863,18.55382 21.8186616,18.7853141 21.3005404,18.8882003 C21.0209194,18.9482173 20.7248501,18.9482173 20.4452291,18.8882003 C19.9024354,18.7767402 19.5652454,18.4166384 19.37609,17.8936333 C19.3514176,17.8336163 19.3349693,17.7650255 19.3102968,17.7050085 C19.2198312,17.4820883 18.9977793,17.4220713 18.8250722,17.5849745 C18.6441409,17.7478778 18.4878822,17.9193548 18.3069509,18.0651104 C17.7888297,18.4852292 17.2049152,18.7853141 16.5469835,18.8882003 C15.9055,18.9910866 15.2969132,18.9139219 14.7458953,18.5023769 C14.334688,18.202292 14.0632911,17.790747 13.8659116,17.3191851 C13.6849804,16.8733447 13.5780665,16.3932088 13.553394,15.913073 C13.4464801,14.7041596 13.6438596,13.5381154 13.9481531,12.3806452 C14.2606707,11.1974533 14.7129987,10.0571307 15.288689,8.99397284 C15.8972759,7.88794567 16.7032423,6.97054329 17.7477089,6.31035654 C18.2740543,5.97597623 18.8415205,5.74448217 19.4583315,5.66731749 C19.7872974,5.62444822 20.1244874,5.63302207 20.4534533,5.71876061 C21.1278333,5.9073854 21.5637131,6.36179966 21.7775409,7.05628183 C21.8433341,7.17631579 21.8844548,7.28777589 21.9173514,7.39923599 Z M43.1520986,8.69388795 C43.1438745,8.62529711 43.1356503,8.50526316 43.119202,8.39380306 C43.1109779,8.34235993 43.1027537,8.29091681 43.0863054,8.23947368 C43.0122881,7.99083192 42.89715,7.93938879 42.6833222,8.07657046 C42.5435117,8.17088285 42.4119254,8.28234295 42.2967873,8.40237691 C41.8691317,8.84821732 41.5319417,9.36264856 41.2194241,9.90280136 C40.5203716,11.1202886 39.9775779,12.4320883 39.6074913,13.8039049 C39.4183359,14.4640917 39.2620771,15.1328523 39.2291805,15.8187606 C39.2209564,16.0502547 39.2456288,16.2731749 39.2949737,16.4960951 C39.3360945,16.7018676 39.475905,16.7533107 39.648612,16.6418506 C39.7637501,16.5732598 39.870664,16.4875212 39.9693538,16.384635 C40.2571989,16.1102716 40.5039233,15.8016129 40.7177511,15.4586587 C41.7786661,13.8039049 42.5435117,11.9605263 42.9793915,10.0228353 C43.0698571,9.58556876 43.1274262,9.13972835 43.1520986,8.69388795 Z M32.3784662,8.73675722 C32.3455696,8.54813243 32.3291213,8.35093379 32.2797764,8.162309 C32.2386557,7.99940577 32.1235177,7.9565365 31.975483,8.02512733 C31.8850174,8.0679966 31.8027759,8.11943973 31.7287586,8.18803056 C31.5067066,8.40237691 31.301103,8.63387097 31.1037234,8.87393888 C30.6267229,9.49125637 30.2484122,10.1685908 29.9112221,10.8716469 C29.401325,11.9348048 28.9901177,13.0579796 28.7022726,14.2154499 C28.5706862,14.7556027 28.447324,15.3043294 28.4308757,15.8616299 C28.4226516,16.0674024 28.447324,16.264601 28.4884447,16.4617997 C28.5377896,16.7018676 28.6776001,16.7618846 28.8749796,16.6247029 C29.0394626,16.5132428 29.1957214,16.3760611 29.3355319,16.2303056 C29.7796358,15.7501698 30.1168258,15.1928693 30.4293434,14.6269949 C31.1777408,13.2637521 31.7616552,11.8319185 32.1235177,10.3057725 C32.2468799,9.7827674 32.3291213,9.25976231 32.3784662,8.73675722 Z M17.1062255,15.6129881 C17.0980013,15.7244482 17.0980013,15.8273345 17.1062255,15.9387946 C17.1226738,16.1016978 17.1473462,16.2560272 17.1802428,16.4189304 C17.246036,16.6675722 17.3776223,16.7190153 17.583226,16.5646859 C17.6819158,16.4960951 17.7806055,16.4103565 17.8710711,16.324618 C18.2329336,15.9473684 18.537227,15.5186757 18.7757273,15.0471138 C19.5323488,13.6067063 20.1244874,12.097708 20.4452291,10.4772496 C20.552143,9.91994907 20.6508328,9.36264856 20.6343845,8.79677419 C20.6261603,8.5910017 20.5932638,8.3852292 20.5356947,8.17945671 C20.4616774,7.92224109 20.3218669,7.87937182 20.1162632,8.03370119 C20.0011252,8.11943973 19.8942113,8.21375212 19.7955215,8.31663837 C19.5076764,8.63387097 19.260952,8.99397284 19.0553483,9.37122241 C18.3480717,10.6401528 17.805278,12.0033956 17.4351914,13.4180815 C17.246036,14.1297114 17.1144496,14.858489 17.1062255,15.6129881 Z" id="Shape-4"></path>
                </g>
            </g>
        </g>
    </g>
</svg>