<?xml version="1.0" encoding="UTF-8"?>
<svg width="99px" height="99px" viewBox="0 0 99 99" version="1.1" xmlns="http://www.w3.org/2000/svg" xmlns:xlink="http://www.w3.org/1999/xlink">
    <!-- Generator: Sketch 51.3 (57544) - http://www.bohemiancoding.com/sketch -->
    <title>Group 7</title>
    <desc>Created with Sketch.</desc>
    <defs></defs>
    <g id="V2" stroke="none" stroke-width="1" fill="none" fill-rule="evenodd">
        <g id="New-home-desktop" transform="translate(-1102.000000, -918.000000)" fill-rule="nonzero">
            <g id="Group-7" transform="translate(1102.000000, 918.000000)">
                <circle id="Oval" fill="#D6312C" cx="49.5" cy="49.5" r="49.5"></circle>
                <g id="sindelantal" transform="translate(23.000000, 18.000000)" fill="#FFFFFF">
                    <path d="M41.2111999,0.0775628697 C42.9876157,0.663593441 44.4021689,1.55125739 45.0601007,3.18869576 C45.5453253,4.40384738 45.3890665,5.51558185 44.632445,6.58422583 C44.237686,7.13578402 43.8264786,7.6787241 43.3248057,8.15271942 C40.9233548,10.4451331 42.6997705,13.7544822 45.8002739,14.1940052 C44.4432897,14.9437796 40.5779406,14.8748348 39.3278703,14.0733518 C38.1518173,13.3149593 37.9544378,12.306642 38.9660078,11.1604351 C39.928233,10.0831731 41.0796136,9.14380053 42.1076319,8.11824703 C43.176771,7.04960305 44.180117,5.94648668 44.015634,4.40384738 C43.8758235,3.0680424 42.3461322,2.14590606 41.0138204,2.5681928 C40.0351469,2.87844428 39.8624399,3.43000246 40.545044,4.37799309 C40.6272855,4.05912352 40.6848545,3.81781681 40.7424236,3.5937463 C41.5401658,3.64545488 42.0911837,4.93816937 41.4497002,5.54143614 C40.9644755,5.98957716 40.1585091,6.36877341 39.4512325,6.42910009 C38.0778,6.53251725 35.9806425,5.01573224 35.725694,3.93847016 C35.3391591,2.28379561 36.1533496,1.0255535 38.0449034,0.344723865 C38.2669554,0.267160996 38.4890073,0.172361933 38.7028351,0.0775628697 C39.5499223,0.0775628697 40.3805611,0.0775628697 41.2111999,0.0775628697 Z" id="Shape_1_"></path>
                    <path d="M3.84067659,11.9705362 C3.2814346,9.97113781 3.65974535,8.25613658 5.65821304,7.10992973 C7.53331853,6.03266765 9.42487231,6.27397435 11.0943741,7.30814595 C11.9414612,6.74796967 12.6734103,6.08437623 13.553394,5.72241617 C15.4038271,4.96402366 17.5914501,5.60176281 18.6852617,7.08407544 C19.7215042,8.48020709 19.5159005,10.6692036 18.0602265,11.8067924 C17.4105189,12.3152601 17.3776223,12.7375468 17.6736916,13.3321955 C19.0060034,16.0468959 20.3383152,18.7702145 21.670627,21.5021511 C20.8070916,21.7779302 19.71328,22.1312722 18.5454512,22.4932322 C17.8135021,21.6400407 17.081553,20.7868491 16.3578281,19.9422756 L16.1522244,20.0456928 C16.744363,20.9505929 17.3282774,21.8554931 17.9450885,22.8121018 C17.3858465,23.1309714 16.9006218,23.4067505 16.3331557,23.7342381 C15.6423273,22.9413732 14.9761714,22.1743626 14.3100155,21.407352 L14.0632911,21.5452416 C14.614309,22.3898151 15.1653268,23.2257704 15.7245688,24.078962 C14.8034644,24.9493898 13.9234806,25.7853451 12.9530313,26.6988634 C11.6700644,25.2768774 10.4117699,23.8548915 9.12057887,22.4587598 C8.24881931,21.5107692 7.3523873,20.5627786 6.41483455,19.6578784 C6.19278259,19.4510441 5.71578207,19.3131546 5.39504034,19.356245 C2.74686505,19.7009689 0.666155896,18.5892344 0.172707084,16.5208913 C-0.328965875,14.3663671 0.995121771,12.6686021 3.84067659,11.9705362 Z" id="Shape-2_1_"></path>
                    <path d="M31.8274484,20.7006681 C33.990399,19.7871499 36.0464357,18.8477773 38.1682656,18.0549125 C41.2934414,16.8828513 44.4679621,15.8228254 47.5931379,14.7197091 C49.5504849,17.8222238 47.5026723,22.6914484 43.6373233,24.4840125 C39.1716115,26.5437376 33.7436746,24.8718269 31.8274484,20.7006681 Z" id="Shape-3_1_"></path>
                    <path d="M39.4430084,62.1020044 C32.2633282,62.8086883 25.0343031,62.8173064 17.8463987,62.1106225 C19.935332,61.0419785 37.3047302,61.0247423 39.4430084,62.1020044 Z" id="Shape-4_1_"></path>
                    <path d="M34.6154342,10.9536008 C34.2617958,11.2207618 33.8999334,11.7033752 33.6285365,11.6602847 C33.1433119,11.5827219 32.5676216,11.2897066 32.2962247,10.9105103 C31.5642757,9.89357494 31.7205345,8.41988041 32.5018284,7.56668885 C33.2831224,6.71349728 34.7223481,6.48942677 35.840832,7.00651257 C36.9757643,7.53221646 37.8721963,8.9714386 37.5925753,10.169354 C37.4034199,10.970837 36.9264194,11.7206114 36.5152121,12.4617677 C36.2109186,13.0047078 35.7668147,13.470085 35.446073,13.9957889 C34.5989859,15.3746844 34.9444,16.1847855 36.564557,16.6846351 C37.016885,16.8225246 37.4856614,16.9087056 38.1847139,17.0724494 C36.7537123,17.5895352 35.5776593,17.4947362 34.5907617,16.7449618 C33.710778,16.0813683 33.6778814,15.0816691 33.9492783,14.0992061 C34.1795544,13.2804869 34.492072,12.487622 34.6812273,11.6602847 C34.7963654,11.1776713 34.8045895,10.6778217 34.6976756,10.1952083 C34.6483307,10.0056102 34.1548819,9.87633875 33.8423643,9.82463017 C33.7601229,9.80739397 33.6120882,10.2210626 33.488726,10.436515 C33.7518987,10.5571684 34.0068473,10.6778217 34.6154342,10.9536008 Z" id="Shape-5"></path>
                    <path d="M33.2337775,20.0370747 C33.4969502,18.4168725 33.0775187,17.4344095 31.9261381,17.124158 C31.5642757,17.029359 31.1119476,17.2189571 30.5362573,17.305138 C31.2024132,17.6326257 31.5067066,17.7791334 31.8110001,17.925641 C31.4820342,18.3306915 31.2517581,18.9425764 30.79943,19.0977021 C29.7796358,19.4510441 28.5377896,18.6581792 28.1430306,17.572299 C27.7318232,16.4433284 28.2828411,15.340212 29.4753424,14.9265434 C31.5231549,14.2112414 33.990399,15.4436292 34.3029166,17.3827009 C34.4673995,18.373782 34.3358132,19.3131546 33.2337775,20.0370747 Z" id="Shape-6"></path>
                    <path d="M15.9877415,35.8943725 C15.6094307,35.2738695 15.2064476,34.6619847 14.7870161,34.0242455 C15.3462581,33.7053759 15.8232586,33.438215 16.3167074,33.1624359 C15.9137242,32.550551 15.56831,31.9989928 15.1899993,31.4301984 C14.6307573,31.6370328 14.1619809,31.8180128 13.5204974,32.0593195 C13.0023762,31.2750727 12.5582723,30.5166802 12.0154786,29.8099963 C11.0121327,28.5086637 9.5646828,27.8536883 7.64845658,28.0777588 C5.81447183,28.2932113 4.54795322,29.1377847 4.06272855,30.6028612 C3.56927974,32.0851738 3.95581464,33.4813054 5.55952328,34.3431151 C6.55464505,34.8774371 7.84583611,35.0411809 8.98076838,35.3686686 C9.0383374,35.2911057 8.98076838,35.3772867 8.90675105,35.4634677 C7.44285291,37.1526146 7.53331853,39.0658321 9.15347546,40.3499285 C10.642046,41.5306077 13.0599452,41.6771153 14.7541195,40.7032704 C16.6127767,39.6173902 17.1062255,37.721409 15.9877415,35.8943725 Z M8.85740617,32.3954253 C8.34750907,32.6022596 7.72247391,32.4385157 7.45930121,32.0248471 C7.19612851,31.6111785 7.40173218,31.1027108 7.91985343,30.8872583 C8.42975054,30.6718059 9.04656155,30.8441679 9.3179584,31.2578365 C9.5811311,31.6715051 9.35907913,32.1799728 8.85740617,32.3954253 Z M12.7392035,38.5056558 C12.2293064,38.7124901 11.6124954,38.5487463 11.3410985,38.1350776 C11.0779258,37.721409 11.2835295,37.2129413 11.8016508,36.9974889 C12.3115479,36.7820364 12.936583,36.9543984 13.1997557,37.368067 C13.4629284,37.7903538 13.2491006,38.2988215 12.7392035,38.5056558 Z" id="Shape-7"></path>
                    <path d="M54.5178696,21.9589102 C54.0490932,22.1485084 53.588541,22.3122522 53.1362129,22.5104684 C47.0421201,25.1562241 40.7341994,27.3883111 34.0973129,28.8878599 C33.3653638,29.0343676 32.6169665,29.0085133 31.8932415,28.8102971 C29.6480494,28.1467036 27.4275298,27.9053969 25.1000962,28.448337 C24.3188023,28.629317 23.5046117,28.801679 22.7068695,28.8189152 C21.7364202,28.8275332 20.7659708,28.6724075 19.5241247,28.5603723 C20.437005,27.8105978 20.9469021,27.560673 21.728196,28.2501208 C22.3614553,28.8102971 23.0440595,28.4569551 23.1098527,27.8623064 C22.5999556,27.5865273 22.2463173,27.3107482 21.8186616,27.1814768 C21.2676438,27.017733 20.6755052,26.9660244 20.0998149,26.8798434 C19.5241247,26.7936624 18.759279,26.8970796 18.4303131,26.6213005 C18.0684507,26.3196671 18.1177955,25.6733099 17.9944333,25.1820784 C20.8728847,26.8712253 23.7924569,27.0866777 26.5722185,26.8108986 C26.8189429,26.1990138 26.9011844,25.776727 27.1396847,25.4233851 C27.7976164,24.4495402 27.3535125,23.2430066 26.1445629,23.277479 C24.8204752,23.3119514 24.1872159,22.6828303 23.6197498,21.9502921 C23.1016285,21.2953168 22.5835073,21.1918996 21.8268858,21.6055683 C19.4912281,22.8638104 17.1637945,24.1134344 14.8116885,25.3458222 C13.7343253,25.9059985 13.6932045,26.4317024 14.4827226,27.3021301 C18.422089,31.7059775 20.552143,36.7648003 21.7199719,42.1338745 C22.0982826,43.8661119 22.2709897,45.6328217 21.4896958,47.3478229 C20.5850396,49.312749 18.142468,49.8125986 16.3167074,48.3733764 C15.6505515,47.8476725 15.1159819,47.1926972 14.5238434,46.5894304 C14.0632911,46.8910638 13.6356355,47.1840791 13.1339625,47.528803 C12.0237027,46.5721942 10.9298912,45.6242036 9.80318306,44.6503587 C9.58935524,44.7623939 9.40019987,44.8399568 9.24394108,44.9519921 C8.66002665,45.3656607 8.09256052,45.7965655 7.50042194,46.2274704 C7.75537049,46.5894304 7.98564661,46.9083 8.21592272,47.2444058 C4.01338367,48.2613412 3.08405507,49.5971461 4.50683248,52.4497361 C4.72888445,52.8892591 4.83579836,53.4494353 5.72400622,53.2253648 C6.43128285,53.0443848 7.12211119,53.0099124 7.03164557,52.1136304 C6.98230069,51.639635 7.20435265,51.1139312 7.44285291,50.6657901 C7.8787327,49.8212167 8.44619883,49.6919452 9.63870013,50.0883777 L8.16657784,51.1053131 C10.2637353,52.1050123 12.0319269,53.147802 13.9728255,53.8372497 C18.8332963,55.560869 23.18387,53.9320488 25.0836479,49.7953624 C25.7662521,48.3044316 26.2925975,46.7531743 26.8107188,45.4518417 C27.1396847,45.6155855 27.5179954,45.9086008 27.9538752,45.9775456 C30.2895329,46.3825961 32.3455696,47.2185515 33.9492783,48.692246 C35.0924347,49.7436538 36.0957806,50.9070968 37.1978163,52.0619218 C37.4938856,51.9154141 37.8804205,51.725816 38.3080761,51.5103636 C39.3525427,52.5790076 40.3394404,53.595943 41.3592346,54.6387327 C42.22277,54.1130288 42.9793915,53.6476516 43.7689096,53.1650382 C43.5304094,52.7686057 43.3165815,52.4324999 43.0945296,52.0619218 C43.2754608,52.0188313 43.3905989,51.9671227 43.5057369,51.9671227 C47.2888445,51.7085798 48.6951736,49.7522719 47.1572581,46.8307371 C47.0421201,46.6066666 46.5815678,46.3998323 46.252602,46.3567418 C45.191687,46.2274704 44.7887038,46.6497571 44.6982382,47.5718934 C44.5419794,49.0886784 43.5797542,49.6660909 42.1816493,49.2093318 C42.6175291,48.9076984 43.0287364,48.6146831 43.4892886,48.2958136 C41.8444592,45.5552588 39.4676808,43.6506595 35.8079355,42.987066 C37.6336961,40.7118885 38.3985417,38.3074395 38.0860241,35.6616839 C38.020231,35.1187438 37.9215412,34.7395475 37.0333333,34.782638 C35.1582278,34.8602009 33.2831224,34.8084923 31.4080169,34.8084923 C34.2946924,34.3517332 37.1731438,34.0845722 40.0598194,33.8691198 C41.3921312,33.7657026 42.3543564,33.446833 42.22277,32.0937919 C42.1816493,31.6111785 42.3625805,31.119947 42.4201495,30.7579869 C42.8724776,30.7579869 43.283685,30.8441679 43.6290991,30.7493688 C45.8989637,30.0857754 47.264172,28.7758247 47.4944481,26.7333358 C47.5602413,26.130069 47.823414,25.8025813 48.5060182,25.5440384 C50.2988822,24.8718269 52.0506255,24.1048163 53.8270412,23.3808962 C54.5096454,23.0706447 54.9455252,22.7173027 54.5178696,21.9589102 Z M22.3285587,22.8207199 C22.3861278,22.8207199 22.4519209,22.829338 22.50949,22.8379561 C22.3943519,22.9413732 22.3285587,23.096499 22.3285587,23.2516247 C22.3285587,23.5532581 22.5835073,23.811801 22.9206973,23.8807458 C22.7644385,24.0358715 22.5506107,24.1220525 22.3285587,24.1134344 C21.9091272,24.1134344 21.5554889,23.8204191 21.5554889,23.4670771 C21.5554889,23.1051171 21.9009031,22.8207199 22.3285587,22.8207199 Z" id="Shape-8"></path>
                </g>
            </g>
        </g>
    </g>
</svg>