<?xml version="1.0" encoding="UTF-8"?>
<svg width="36px" height="34px" viewBox="0 0 36 34" version="1.1" xmlns="http://www.w3.org/2000/svg" xmlns:xlink="http://www.w3.org/1999/xlink">
    <!-- Generator: Sketch 51.3 (57544) - http://www.bohemiancoding.com/sketch -->
    <title>Path Copy 2</title>
    <desc>Created with Sketch.</desc>
    <defs></defs>
    <g id="mobile" stroke="none" stroke-width="1" fill="none" fill-rule="evenodd">
        <g id="dirección-mobile" transform="translate(-525.000000, -1385.000000)" stroke="#FFFFFF" stroke-width="2">
            <path d="M534.19985,1417.70231 L541.694481,1413.81544 C542.420159,1413.43908 543.584968,1413.44141 544.306164,1413.81544 L551.800795,1417.70231 C553.208539,1418.4324 554.163035,1417.77161 553.890576,1416.20453 L552.459229,1407.97199 C552.320637,1407.17486 552.682823,1406.08276 553.266283,1405.52172 L559.329567,1399.69141 C560.468456,1398.59628 560.126344,1397.49658 558.531342,1397.26794 L550.15209,1396.06683 C549.340757,1395.95053 548.399792,1395.27325 548.039193,1394.55248 L544.291878,1387.06227 C543.588006,1385.65536 542.422073,1385.6365 541.708767,1387.06227 L537.961452,1394.55248 C537.598612,1395.27773 536.654877,1395.95125 535.848555,1396.06683 L527.469303,1397.26794 C525.895398,1397.49355 525.516924,1398.5816 526.671078,1399.69141 L532.734362,1405.52172 C533.321447,1406.08625 533.679152,1407.17979 533.541416,1407.97199 L532.110069,1416.20453 C531.841214,1417.75088 532.773237,1418.44219 534.19985,1417.70231 Z" id="Path-Copy-2"></path>
        </g>
    </g>
</svg>