<?xml version="1.0" encoding="UTF-8"?>
<svg width="99px" height="99px" viewBox="0 0 99 99" version="1.1" xmlns="http://www.w3.org/2000/svg" xmlns:xlink="http://www.w3.org/1999/xlink">
    <!-- Generator: Sketch 51.3 (57544) - http://www.bohemiancoding.com/sketch -->
    <title>Group 21</title>
    <desc>Created with Sketch.</desc>
    <defs></defs>
    <g id="V2" stroke="none" stroke-width="1" fill="none" fill-rule="evenodd">
        <g id="New-home-desktop" transform="translate(-821.000000, -918.000000)" fill-rule="nonzero">
            <g id="Group-21" transform="translate(821.000000, 918.000000)">
                <g id="Group-20" fill="#5DB747">
                    <circle id="Oval" cx="49.5" cy="49.5" r="49.5"></circle>
                </g>
                <g id="Group" transform="translate(25.000000, 29.000000)" fill="#FFFFFF">
                    <path d="M0.00869558155,21.3430558 L12.4085949,21.3430558 L12.4085949,24.2496651 L3.35649448,24.2496651 L3.35649448,28.4043573 L12.1651186,28.4043573 L12.1651186,31.2272026 L3.35649448,31.2272026 L3.35649448,35.4321531 L12.4085949,35.4321531 L12.4085949,38.3387624 L0.00869558155,38.3387624 L0.00869558155,21.3430558 Z M46.651795,38.6570654 C50.4517641,38.6570654 52.5995728,36.9147751 52.5995728,34.5023732 C52.5995728,32.7852121 51.3300179,31.512 48.6778655,30.9591579 L45.8691927,30.4063158 C44.2431189,30.1131419 43.7300796,29.8283445 43.7300796,29.2419968 C43.7300796,28.4881212 44.5126819,28.0190431 45.9648441,28.0190431 C47.5300487,28.0190431 48.6778655,28.4294864 49.0082976,29.8199681 L52.2952274,29.8199681 C52.1126202,27.2065327 50.1561144,25.4642424 46.173538,25.4642424 C42.7300877,25.4642424 40.3214116,26.8295949 40.3214116,29.4765359 C40.3214116,31.3109665 41.6518356,32.5004147 44.5126819,33.078386 L47.6517869,33.7736268 C48.8865595,34.0081659 49.2169916,34.3264689 49.2169916,34.8206762 C49.2169916,35.6080574 48.2778687,36.1022648 46.7735331,36.1022648 C44.8692008,36.1022648 43.7822531,35.6918214 43.3648652,34.3013397 L40.043153,34.3013397 C40.5301056,36.9147751 42.5474805,38.6570654 46.651795,38.6570654 Z M39.0866391,38.3387624 L35.5301462,38.3387624 C33.2953817,38.3387624 32.0606092,36.9985391 32.0606092,35.3148836 L32.0606092,28.6305199 L29.5562817,28.6305199 L29.5562817,25.7825455 L32.0606092,25.7825455 L32.0606092,22.2058246 L35.3823213,22.2058246 L35.3823213,25.7825455 L39.0953346,25.7825455 L39.0953346,28.6305199 L35.3823213,28.6305199 L35.3823213,34.5023732 C35.3823213,35.1724848 35.8692739,35.4907879 36.6170939,35.4907879 L39.0953346,35.4907879 L39.0953346,38.3387624 L39.0866391,38.3387624 Z M24.8258853,25.7825455 L24.8258853,26.9133589 C23.6780686,25.9835789 22.234602,25.4642424 20.6607018,25.4642424 C16.7650812,25.4642424 13.7216277,28.3959809 13.7216277,32.0648421 C13.7216277,35.725327 16.7650812,38.6654418 20.6607018,38.6654418 C22.2259064,38.6654418 23.6780686,38.1461053 24.8258853,37.2163254 L24.8258853,38.3471388 L28.1128151,38.3471388 L28.1128151,25.7825455 L24.8258853,25.7825455 Z M20.9302648,35.9012313 C18.7563694,35.9012313 16.9737752,34.2175758 16.9737752,32.0648421 C16.9737752,29.9121085 18.7563694,28.228453 20.9302648,28.228453 C23.1302469,28.228453 24.8867544,29.9121085 24.8867544,32.0648421 C24.8867544,34.2175758 23.1302469,35.9012313 20.9302648,35.9012313 Z" id="Eats_1_"></path>
                    <path d="M51.5387118,6.81000957 C49.8778558,6.81000957 48.7039522,8.0580925 48.7039522,9.97628708 L48.7039522,17.0124593 L46.173538,17.0124593 L46.173538,4.62377033 L48.6778655,4.62377033 L48.6778655,6.13152153 C49.3126429,5.14310686 50.3387216,4.53162998 51.6952323,4.53162998 L52.5995728,4.53162998 L52.5995728,6.80163317 L51.5387118,6.80163317 L51.5387118,6.81000957 Z M44.4170305,10.8139266 C44.4170305,7.1199362 41.7040091,4.36410207 37.9909958,4.36410207 C34.2518957,4.36410207 31.4171361,7.32934609 31.4171361,10.8139266 C31.4171361,14.5079171 34.3736339,17.2972568 38.2344721,17.2972568 C40.5909747,17.2972568 42.4866114,16.3088421 43.7822531,14.6503158 L41.9387898,13.3435981 C40.9735802,14.5665518 39.7040253,15.1445231 38.2257765,15.1445231 C36.0518811,15.1445231 34.3301559,13.6367719 33.9736371,11.6013078 L44.4170305,11.6013078 L44.4170305,10.8139266 Z M34.0432018,9.68311324 C34.495372,7.79004785 36.0605767,6.51683573 37.964909,6.51683573 C39.8344591,6.51683573 41.4344461,7.79842424 41.8605296,9.68311324 L34.0432018,9.68311324 Z M23.3911144,4.36410207 C21.6085201,4.36410207 20.0085331,5.0593429 18.8346296,6.1985327 L18.8346296,0.00837639553 L16.3042154,0.00837639553 L16.3042154,17.0124593 L18.8085429,17.0124593 L18.8085429,15.4460734 C19.9824464,16.5768868 21.6172157,17.3056332 23.3911144,17.3056332 C27.1910835,17.3056332 30.1475812,14.3990239 30.1475812,10.8558086 C30.1475812,7.24558214 27.1910835,4.36410207 23.3911144,4.36410207 Z M23.2085071,15.1193939 C20.7650487,15.1193939 18.7998473,13.2011994 18.7998473,10.8474322 C18.7998473,8.4350303 20.7911355,6.54196491 23.2085071,6.54196491 C25.6519656,6.54196491 27.6432537,8.4350303 27.6432537,10.8474322 C27.6432537,13.2011994 25.6519656,15.1193939 23.2085071,15.1193939 Z M6.9738564,15.0021244 C9.41731481,15.0021244 11.3216472,13.2011994 11.3216472,10.4956236 L11.3216472,0.00837639553 L13.9477128,0.00837639553 L13.9477128,17.0124593 L11.3564295,17.0124593 L11.3564295,15.4125678 C10.1477437,16.6020159 8.52166992,17.3056332 6.67820663,17.3056332 C2.90432424,17.3056332 0.00869558155,14.6586922 0.00869558155,10.6463987 L0.00869558155,0.00837639553 L2.66084795,0.00837639553 L2.66084795,10.504 C2.66084795,13.2263285 4.50431124,15.0021244 6.9738564,15.0021244 Z" id="Uber_1_"></path>
                </g>
            </g>
        </g>
    </g>
</svg>