<?xml version="1.0" encoding="UTF-8"?>
<svg width="15px" height="14px" viewBox="0 0 15 14" version="1.1" xmlns="http://www.w3.org/2000/svg" xmlns:xlink="http://www.w3.org/1999/xlink">
    <!-- Generator: Sketch 51.3 (57544) - http://www.bohemiancoding.com/sketch -->
    <title>Calendar</title>
    <desc>Created with Sketch.</desc>
    <defs></defs>
    <g id="Desktop-con-platillos" stroke="none" stroke-width="1" fill="none" fill-rule="evenodd">
        <g id="form3" transform="translate(-953.000000, -548.000000)" fill="#B7B7B7">
            <g id="Calendar" transform="translate(953.000000, 548.000000)">
                <path d="M3.23049535,0.000168438 L11.1700252,0.000168438 C12.2933388,0.000168438 12.7006795,0.117128706 13.1113462,0.336755646 C13.5220128,0.55638258 13.8443064,0.878676186 14.0639333,1.28934285 C14.2835603,1.70000952 14.4005206,2.10735017 14.4005206,3.23066379 L14.4005206,9.96967308 C14.4005206,11.0929867 14.2835603,11.5003274 14.0639333,11.910994 C13.8443064,12.3216607 13.5220128,12.6439543 13.1113462,12.8635813 C12.7006795,13.0832081 12.2933388,13.2001684 11.1700252,13.2001684 L3.23049535,13.2001684 C2.10718174,13.2001684 1.69984108,13.0832081 1.28917441,12.8635813 C0.878507748,12.6439543 0.556214142,12.3216607 0.336587208,11.910994 C0.116960268,11.5003274 8.8817842e-16,11.0929867 8.8817842e-16,9.96967308 L8.8817842e-16,3.23066379 C8.8817842e-16,2.10735017 0.116960268,1.70000952 0.336587208,1.28934285 C0.556214142,0.878676186 0.878507748,0.55638258 1.28917441,0.336755646 C1.69984108,0.117128706 2.10718174,0.000168438 3.23049535,0.000168438 Z M2.58449801,3 C2.10307789,3 1.92850332,3.05012583 1.75250332,3.14425166 C1.57650332,3.23837749 1.43837749,3.37650332 1.34425166,3.55250332 C1.25012583,3.72850332 1.2,3.90307789 1.2,4.38449802 L1.2,9.84585426 C1.2,10.59473 1.27797351,10.8662905 1.42439147,11.1400682 C1.57080942,11.413846 1.78567182,11.6287084 2.05944959,11.7751264 C2.33322737,11.9215443 2.6047878,11.9995178 3.35366353,11.9995178 L11.0463365,11.9995178 C11.7952122,11.9995178 12.0667726,11.9215443 12.3405504,11.7751264 C12.6143282,11.6287084 12.8291906,11.413846 12.9756085,11.1400682 C13.1220265,10.8662905 13.2,10.59473 13.2,9.84585426 L13.2,4.38449802 C13.2,3.90307789 13.1498741,3.72850332 13.0557484,3.55250332 C12.9616225,3.37650332 12.8234967,3.23837749 12.6474967,3.14425166 C12.4714967,3.05012583 12.2969221,3 11.815502,3 L2.58449801,3 Z M4.2,7.2 C3.5372583,7.2 3,6.6627417 3,6 C3,5.3372583 3.5372583,4.8 4.2,4.8 C4.8627417,4.8 5.4,5.3372583 5.4,6 C5.4,6.6627417 4.8627417,7.2 4.2,7.2 Z M7.2,6.6 C6.86862918,6.6 6.6,6.33137082 6.6,6 C6.6,5.66862918 6.86862918,5.4 7.2,5.4 C7.53137082,5.4 7.8,5.66862918 7.8,6 C7.8,6.33137082 7.53137082,6.6 7.2,6.6 Z M10.2,6.6 C9.86862918,6.6 9.6,6.33137082 9.6,6 C9.6,5.66862918 9.86862918,5.4 10.2,5.4 C10.5313708,5.4 10.8,5.66862918 10.8,6 C10.8,6.33137082 10.5313708,6.6 10.2,6.6 Z M7.2,9.6 C6.86862918,9.6 6.6,9.33137082 6.6,9 C6.6,8.66862918 6.86862918,8.4 7.2,8.4 C7.53137082,8.4 7.8,8.66862918 7.8,9 C7.8,9.33137082 7.53137082,9.6 7.2,9.6 Z M4.2,9.6 C3.86862915,9.6 3.6,9.33137082 3.6,9 C3.6,8.66862918 3.86862915,8.4 4.2,8.4 C4.53137085,8.4 4.8,8.66862918 4.8,9 C4.8,9.33137082 4.53137085,9.6 4.2,9.6 Z M10.2,9.6 C9.86862918,9.6 9.6,9.33137082 9.6,9 C9.6,8.66862918 9.86862918,8.4 10.2,8.4 C10.5313708,8.4 10.8,8.66862918 10.8,9 C10.8,9.33137082 10.5313708,9.6 10.2,9.6 Z" id="Shape"></path>
            </g>
        </g>
    </g>
</svg>