<?xml version="1.0" encoding="UTF-8"?>
<svg width="15px" height="15px" viewBox="0 0 15 15" version="1.1" xmlns="http://www.w3.org/2000/svg" xmlns:xlink="http://www.w3.org/1999/xlink">
    <!-- Generator: Sketch 51.3 (57544) - http://www.bohemiancoding.com/sketch -->
    <title>Recent</title>
    <desc>Created with Sketch.</desc>
    <defs></defs>
    <g id="Desktop-con-platillos" stroke="none" stroke-width="1" fill="none" fill-rule="evenodd">
        <g id="form3" transform="translate(-1166.000000, -548.000000)" fill="#B7B7B7">
            <g id="Recent" transform="translate(1166.000000, 548.000000)">
                <path d="M7.5,15 C3.35786437,15 0,11.6421356 0,7.5 C0,3.35786437 3.35786437,0 7.5,0 C11.6421356,0 15,3.35786437 15,7.5 C15,11.6421356 11.6421356,15 7.5,15 Z M7.45398787,1.875 C7.30548831,1.875 7.21227006,1.89820641 7.13078856,1.94178318 C7.04930713,1.98535995 6.98535994,2.04930709 6.94178319,2.13078858 C6.89820638,2.21227006 6.875,2.30548831 6.875,2.45398786 L6.875,6.55451438 C6.875,6.66595419 6.86339681,6.706365 6.84160844,6.74710569 C6.81982,6.78784644 6.78784644,6.81982 6.74710569,6.84160844 C6.706365,6.86339681 6.66595419,6.875 6.55451438,6.875 L4.01648786,6.875 C3.86798831,6.875 3.77477006,6.89820638 3.69328858,6.94178319 C3.61180709,6.98535994 3.54785995,7.04930713 3.50428318,7.13078856 C3.46070641,7.21227006 3.4375,7.30548831 3.4375,7.45398788 L3.4375,7.54601213 C3.4375,7.69451169 3.46070641,7.78772994 3.50428318,7.86921144 C3.54785995,7.95069288 3.61180709,8.01464006 3.69328858,8.05821681 C3.77477006,8.10179362 3.86798831,8.125 4.01648786,8.125 L7.08342162,8.125 C7.44560112,8.125 7.57693619,8.08728963 7.70934356,8.01647731 C7.841751,7.94566506 7.94566506,7.841751 8.01647731,7.70934356 C8.08728963,7.57693619 8.125,7.44560113 8.125,7.08342162 L8.125,2.45398786 C8.125,2.30548831 8.10179362,2.21227006 8.05821681,2.13078857 C8.01464006,2.04930709 7.95069287,1.98535995 7.86921144,1.94178317 C7.78772994,1.89820641 7.69451169,1.875 7.54601212,1.875 L7.45398787,1.875 Z" id="Shape"></path>
            </g>
        </g>
    </g>
</svg>