<?xml version="1.0" encoding="utf-8"?>
<!-- Generator: Adobe Illustrator 23.1.0, SVG Export Plug-In . SVG Version: 6.00 Build 0)  -->
<svg version="1.1" id="Capa_1" xmlns="http://www.w3.org/2000/svg" xmlns:xlink="http://www.w3.org/1999/xlink" x="0px" y="0px"
	 viewBox="0 0 112 112" style="enable-background:new 0 0 112 112;" xml:space="preserve">
<style type="text/css">
	.st0{fill:#FFFFFF;}
</style>
<g>
	<path class="st0" d="M64.9,56l39.8-39.8c2.5-2.5,2.5-6.5,0-8.9c-2.5-2.5-6.5-2.5-8.9,0L56,47.1L16.2,7.3c-2.5-2.5-6.5-2.5-8.9,0
		c-2.5,2.5-2.5,6.5,0,8.9L47.1,56L7.3,95.8c-2.5,2.5-2.5,6.5,0,8.9c1.2,1.2,2.9,1.9,4.5,1.9s3.2-0.6,4.5-1.9L56,64.9l39.8,39.8
		c1.2,1.2,2.9,1.9,4.5,1.9s3.2-0.6,4.5-1.9c2.5-2.5,2.5-6.5,0-8.9L64.9,56z"/>
</g>
</svg>
