<?xml version="1.0" encoding="utf-8"?>
<!-- Generator: Adobe Illustrator 23.1.0, SVG Export Plug-In . SVG Version: 6.00 Build 0)  -->
<svg version="1.1" id="Layer_1" xmlns="http://www.w3.org/2000/svg" xmlns:xlink="http://www.w3.org/1999/xlink" x="0px" y="0px"
	 viewBox="0 0 130.7 100" style="enable-background:new 0 0 130.7 100;" xml:space="preserve">
<style type="text/css">
	.st0{clip-path:url(#SVGID_2_);fill:#CC202F;}
	.st1{fill:#FFFFFF;}
	.st2{fill:#F3D832;}
	.st3{fill:#FFFFFF;stroke:#FFFFFF;stroke-width:0.5181;stroke-miterlimit:10;}
	.st4{fill:none;}
</style>
<g>
	<g>
		<defs>
			<rect id="SVGID_1_" x="11.6" y="10.2" width="107.6" height="79.6"/>
		</defs>
		<clipPath id="SVGID_2_">
			<use xlink:href="#SVGID_1_"  style="overflow:visible;"/>
		</clipPath>
		<path class="st0" d="M118.2,35.9c5.5,20.5-13.8,43.5-43,51.3C46,95,17.9,84.6,12.5,64.1C7,43.5,26.3,20.6,55.5,12.8
			C84.7,5,112.8,15.4,118.2,35.9"/>
	</g>
	<polygon class="st1" points="41.3,51.1 45.8,41.3 53.4,41.3 43.4,60.4 39.1,60.4 29.1,41.3 36.7,41.3 	"/>
	<path class="st1" d="M58.4,42.5c-1.3,0-2.5-0.5-3.4-1.2v19.1h6.8V41.3C60.8,42,59.7,42.5,58.4,42.5"/>
	<path class="st2" d="M62.8,35.9c0,2.4-2,4.4-4.4,4.4c-2.4,0-4.4-2-4.4-4.4c0-2.4,2-4.4,4.4-4.4C60.8,31.5,62.8,33.5,62.8,35.9"/>
	<path class="st1" d="M97.2,48.3c-0.9-0.2-3.1-0.4-3.1-1.7c0-1,1.3-1.3,2.1-1.3c1.2,0,2.6,0.4,3.6,0.9l2.3-4.3
		c-2-0.9-4.1-1.2-6.3-1.2c-4.2,0-8.4,2.1-8.4,6.8c0,3.4,2.1,4.5,4.2,5c2.1,0.6,4.2,0.6,4.2,2.1c0,1-1.3,1.5-2.1,1.5
		c-1.9,0-4.4-1.3-5.8-2.3c-0.4,1.8-1.2,3.5-2.2,4.9c2.4,1.6,5.3,2.4,8,2.4c4.4,0,9-2.1,9-7.1C102.8,50.4,100.4,48.9,97.2,48.3"/>
	<path class="st1" d="M74.9,55.5c-2.4,0-4.4-2-4.4-4.4c0-2.4,2-4.4,4.4-4.4c2.4,0,4.4,2,4.4,4.4C79.3,53.5,77.3,55.5,74.9,55.5
		 M76.5,40.7c-2.2,0-4.5,0.9-5.8,2.8h-0.1v-2.2h-6.8v28.6h6.8V58.6c1.5,1.7,3.7,2.5,5.9,2.5c5.7,0,9.6-4.6,9.6-10.1
		C86.2,45.4,82.2,40.7,76.5,40.7"/>
	<path class="st3" d="M107,42c0.6,0,0.8-0.1,0.8-0.5c0-0.3-0.2-0.5-0.7-0.5h-0.5V42H107z M106,40.8c0-0.1,0-0.1,0.1-0.1h1
		c0.7,0,1.1,0.3,1.1,0.9c0,0.5-0.3,0.8-0.7,0.8l0.7,0.8c0,0.1,0,0.1-0.1,0.1h-0.4c-0.1,0-0.1,0-0.1-0.1l-0.6-0.8h-0.5v0.8
		c0,0.1,0,0.1-0.1,0.1h-0.3c-0.1,0-0.1,0-0.1-0.1V40.8z M108.8,42c0-1.1-0.5-2-1.9-2c-1.4,0-1.9,0.9-1.9,2c0,1.1,0.5,2,1.9,2
		C108.3,44,108.8,43.1,108.8,42 M109.2,42c0,1.2-0.6,2.4-2.3,2.4c-1.6,0-2.3-1.1-2.3-2.4c0-1.2,0.7-2.4,2.3-2.4
		C108.6,39.7,109.2,40.8,109.2,42"/>
	<rect x="11.6" y="10.2" class="st4" width="107.6" height="79.6"/>
</g>
</svg>
