<?xml version="1.0" encoding="UTF-8"?>
<svg width="203px" height="204px" viewBox="0 0 203 204" version="1.1" xmlns="http://www.w3.org/2000/svg" xmlns:xlink="http://www.w3.org/1999/xlink">
    <!-- Generator: Sketch 51.3 (57544) - http://www.bohemiancoding.com/sketch -->
    <title>Shape</title>
    <desc>Created with Sketch.</desc>
    <defs></defs>
    <g id="Desktop-" stroke="none" stroke-width="1" fill="none" fill-rule="evenodd" opacity="0.6">
        <g id="Tarjeta-de-lealtad_registro" transform="translate(-735.000000, -424.000000)" fill="#F8C3DA" fill-rule="nonzero">
            <path d="M891.669935,455.254331 C895.228469,449.070378 893.123988,441.173415 886.959978,437.580448 C884.001653,435.866603 880.482064,435.403084 877.180888,436.29257 C873.879711,437.182057 871.069461,439.351122 869.372675,442.319265 C865.814141,448.503217 867.918622,456.40018 874.082632,459.993148 C877.040958,461.706993 880.560546,462.170512 883.861722,461.281025 C887.162899,460.391539 889.973149,458.222474 891.669935,455.254331 M919.294757,492.483771 C925.458146,488.890698 927.564657,480.995791 924.010486,474.809888 C920.429384,468.666282 912.550607,466.581488 906.399621,470.149898 C900.248635,473.718309 898.14758,481.592765 901.703283,487.751105 C905.258987,493.909445 913.129089,496.026753 919.294757,492.483771 M924.691583,538.6021 C929.931364,538.627809 934.669515,535.491227 936.692531,530.657659 C938.715547,525.824092 937.624111,520.247625 933.928104,516.533395 C930.232097,512.819165 924.661066,511.700314 919.817607,513.699533 C914.974148,515.698752 911.8143,520.421418 911.814237,525.661263 C911.798277,532.79011 917.562743,538.582997 924.691583,538.6021 M906.417411,581.251454 C912.59402,584.816827 920.491277,582.70481 924.063596,576.532216 C927.635915,570.359621 925.532784,562.459994 919.364212,558.880733 C913.195641,555.301472 905.293652,557.395714 901.707454,563.560255 C899.965109,566.523112 899.48255,570.060552 900.367646,573.38183 C901.252742,576.703108 903.431688,579.531276 906.417411,581.234138 M869.372675,608.991716 C872.955686,615.129091 880.830414,617.208172 886.976051,613.639351 C893.121687,610.070529 895.218957,602.200626 891.664344,596.04676 C888.10973,589.892894 880.244694,587.777447 874.082632,591.317833 C867.918622,594.910801 865.814141,602.807763 869.372675,608.991716 M823.473682,614.417402 C823.508707,621.520993 829.289508,627.254507 836.393147,627.231186 C843.496786,627.207865 849.239817,621.436518 849.2282,614.33285 C849.216582,607.229182 843.454705,601.47665 836.351028,601.476564 C832.927084,601.484208 829.646499,602.852096 827.23136,605.279142 C824.816222,607.706189 823.464486,610.993462 823.473682,614.417402 M781.026348,596.050878 C778.416468,600.569674 778.787421,606.216009 781.966067,610.35451 C785.144714,614.493011 790.504338,616.307712 795.543385,614.951618 C800.582432,613.595524 804.30738,609.336009 804.979645,604.161161 C805.651909,598.986314 803.138944,593.916431 798.613651,591.317833 C792.443188,587.821577 784.60867,589.92998 781.026348,596.050878 M753.401526,558.82721 C747.237516,562.420178 745.133035,570.317141 748.691569,576.501093 C750.389326,579.468256 753.200005,581.636094 756.501097,582.524474 C759.80219,583.412855 763.321248,582.948458 766.278872,581.234138 C772.339425,577.620069 774.380711,569.812815 770.864696,563.694854 C767.348681,557.576894 759.575308,555.410162 753.401526,558.82721 M748.004701,512.708881 C742.764394,512.68317 738.025876,515.820376 736.003196,520.654654 C733.980516,525.488932 735.073011,531.065854 738.770217,534.779632 C742.467422,538.49341 748.039404,539.610835 752.882679,537.609795 C757.725955,535.608756 760.884321,530.884316 760.882046,525.643946 C760.889709,522.221005 759.537296,518.935216 757.122323,516.509418 C754.70735,514.083621 751.427642,512.716526 748.004701,512.708881 M766.278872,470.053755 C763.321612,468.337859 759.802022,467.872582 756.50047,468.761086 C753.198918,469.64959 750.38822,471.818456 748.691569,474.7868 C746.081689,479.305595 746.452642,484.95193 749.631289,489.090431 C752.809935,493.228932 758.169559,495.043633 763.208606,493.687539 C768.247653,492.331445 771.972601,488.07193 772.644866,482.897083 C773.317131,477.722235 770.804165,472.652353 766.278872,470.053755 M803.32938,442.348125 C799.747876,436.210188 791.87404,434.129234 785.72765,437.696211 C779.581261,441.263189 777.48169,449.132082 781.034121,455.28689 C784.586553,461.441699 792.450459,463.559873 798.613651,460.022008 C801.600353,458.320121 803.780527,455.492383 804.66673,452.17102 C805.552933,448.849657 805.071251,445.311685 803.32938,442.348125 M882.209617,509.164869 C887.966061,504.948064 889.237317,496.874423 885.055216,491.092717 C883.06119,488.314015 880.040331,486.446383 876.663394,485.904512 C873.286456,485.362642 869.832932,486.19138 867.069645,488.206714 C861.316113,492.425294 860.045261,500.496366 864.224046,506.278866 C866.22003,509.054988 869.240639,510.920575 872.616634,511.462294 C875.99263,512.004014 879.445277,511.177139 882.209617,509.164869 M878.746413,551.456358 C883.797981,552.827515 889.177985,551.019052 892.375629,546.874963 C895.573273,542.730874 895.95818,537.068116 893.350717,532.529445 C890.743255,527.990773 885.657453,525.470932 880.466806,526.145909 C875.276159,526.820885 871.003943,530.557614 869.643959,535.612201 C868.74111,538.916814 869.192837,542.445005 870.899119,545.415561 C872.605402,548.386118 875.425457,550.553945 878.734869,551.439042 M843.83732,575.34092 C846.757878,581.821049 854.37319,584.713652 860.859383,581.806587 C867.345576,578.899522 870.254022,571.290246 867.360462,564.798017 C864.466902,558.305787 856.863696,555.381511 850.365459,558.261554 C847.220082,559.643685 844.759261,562.227957 843.532624,565.43717 C842.305987,568.646383 842.415722,572.213182 843.83732,575.34092 M803.3871,563.133127 C801.022307,567.780834 801.691103,573.395552 805.081462,577.357735 C808.471821,581.319919 813.915623,582.848762 818.873065,581.230983 C823.830506,579.613205 827.32465,575.167612 827.725306,569.968294 C828.125962,564.768976 825.354174,559.840535 820.703119,557.482333 C814.357002,554.314018 806.64283,556.831409 803.3871,563.133127 M787.375555,523.883485 C782.245516,524.945505 778.262633,528.996983 777.288358,534.144407 C776.314082,539.291831 778.540826,544.518632 782.92789,547.381995 C787.314955,550.245359 792.995935,550.179797 797.31575,547.215951 C801.635565,544.252106 803.741092,538.975308 802.648283,533.851739 C801.164414,526.894703 794.341376,522.441421 787.375555,523.883485 M807.669929,486.665589 C805.025566,484.500412 801.626961,483.479117 798.227118,483.827986 C794.827275,484.176855 791.706908,485.867081 789.557373,488.524175 C785.085134,494.083793 785.935659,502.21018 791.462135,506.72331 C794.112069,508.882277 797.513894,509.894702 800.913106,509.536035 C804.312318,509.177368 807.427931,507.477257 809.568919,504.812776 C814.045782,499.255637 813.197584,491.126858 807.669929,486.613641 M849.228373,526.596328 C849.193344,519.491985 843.41137,513.758165 836.306983,513.782551 C829.202597,513.806936 823.460121,519.580314 823.473862,526.684729 C823.487604,533.789144 829.252372,539.540263 836.3568,539.537165 C839.780216,539.529524 843.06021,538.161451 845.474432,535.734238 C847.888654,533.307024 849.239104,530.019735 849.228373,526.596328 M849.228373,479.040768 C849.196525,471.935656 843.415944,466.198937 836.310795,466.221207 C829.205647,466.243477 823.46114,472.01632 823.473832,479.121492 C823.486523,486.226664 829.251617,491.978948 836.3568,491.975834 C843.482451,491.956731 849.244333,486.166428 849.228373,479.040768 M849.228373,436.870491 C849.193344,429.766149 843.41137,424.032329 836.306983,424.056714 C829.202597,424.0811 823.460121,429.854477 823.473862,436.958892 C823.487604,444.063308 829.252372,449.814427 836.3568,449.811329 C839.780216,449.803687 843.06021,448.435615 845.474432,446.008401 C847.888654,443.581187 849.239104,440.293899 849.228373,436.870491" id="Shape"></path>
        </g>
    </g>
</svg>