<svg xmlns="http://www.w3.org/2000/svg" width="224.857" height="44.182" viewBox="0 0 224.857 44.182"><defs><style>.a{fill:#e65222;stroke:#e65222;}</style></defs><path class="a" d="M118.295-499.553c-1.125-.625.215-.2-1.027-.515l-.219.558a1.854,1.854,0,0,1-1.587.876,10.909,10.909,0,0,1-1.238-.064,14.667,14.667,0,0,0-3.117.032c-.1-.212,0-.076.01-.2.006-.064.031-.064.048-.064s.028,0-.034-.129l-4.473-.113a3.178,3.178,0,0,0-1.594-.041,5.049,5.049,0,0,0,1.8.432c-.829.322-1.064.132-1.131.128l-9.087-.662c-4.55-.063-2.464.25-4.459.295-.432.009-.577,0-.7,0-.091,0-.172-.009-.344-.007a16.161,16.161,0,0,1-3.092-.283,11.7,11.7,0,0,0-2.528-.279,8.387,8.387,0,0,1-3.474-.781c-1.907.58-1.388.276-2.923.168a27.981,27.981,0,0,0-2.979.325c-.764,0-1.166.031-1.65-.01A9,9,0,0,1,73-500.212l-2.51-.061c-.948-.024-1.948.031-2.942.086a16.706,16.706,0,0,1-5.113-.2,4.4,4.4,0,0,0-1.705-.02,9.25,9.25,0,0,1-1.163.074,14.776,14.776,0,0,1-2.526-.222,27.4,27.4,0,0,1-5.9-1.179,5.511,5.511,0,0,1-1.494-.805,3.433,3.433,0,0,1-1.595-2.712l-.933-2.171c-.324-.921.218-.43.313-1.244.069-.593-.068-.491-.152-.389-.07.085-.1.169.052-.143.2-.407,1.448-.445,2.082-.615l-4.331-.06a1.517,1.517,0,0,0-.517,0l-3.875-.112c-1.524-.092-1.063-.263-2.108-.047a7.865,7.865,0,0,1-2.925.26,8.418,8.418,0,0,0-1.449-.026,18.731,18.731,0,0,1-3.858.018,17.936,17.936,0,0,0-2.474-.072c-4.771.08-3.426.282-8.1-.109-1.528-.128-.8.081-1.873.09-1.357.011-2.57-.738-3.885-.974.677-1.579-1.311-.649-1.807-1.748-.014-.032-.056-.1-.072-.142s-.044-.1-.062-.149-.032-.105-.048-.158a2.539,2.539,0,0,0-.818-1.58,5.848,5.848,0,0,0-3.144-.345c-3.081.171-13.85.407-15.846-.941l-.386-.331c-.04-.031-.091-.078-.131-.11a5.933,5.933,0,0,1-1.692-1.625l-1.5-3.816a2.611,2.611,0,0,0-1.262-1.856l-.517-.26c-.752-.423-.821-.912-1.16-1.554l-3.49-5.05c-.3-.528-2.991-3.96-1.107-4.24a20.806,20.806,0,0,1,3.591.153,2.726,2.726,0,0,0,1.378-.18,2.279,2.279,0,0,1,1.629-.107c2.154.363,4.623-.155,6.373-.155l6.894-.2c.985.127.219.253,1.308.259,1.131.007.778-.191,1-.208.585-.046-.133,0,.5.139l.364.046c.056,0,.253.014.309.015,1.053.026.7-.117,1.1-.415.127-.1-.158-.107.441-.232a8.424,8.424,0,0,1,1.9.137,16.976,16.976,0,0,0,3.814.089c.039-.215.025-.219.016-.207.008-.016.026-.058.063-.153l-1.433-1.473c-.442-.5-.842-.839-1.243-1.326a3.887,3.887,0,0,1-.885-1.62c-.029-.1-.044-.15-.052-.179.02.046.014.022.006,0s-.02-.048-.006,0c-.012-.026-.033-.075-.067-.161-.129-.32-.394-.8.025-1.014.948-.25.6-.1,1.692.1a47.89,47.89,0,0,0,8.423.587c.058,0,.15,0,.2,0l1.528-.08c.343.017.929.1,1.78.12l-1.326.3c.043.01-.152.026-.22.05,1.047.084,1.374.243,1.949-.1l.2-.232a13.689,13.689,0,0,0,3.864.1c.933-.243,1.277.112,2.234.217l2.7-.044c1.451-.251-1.322-.158.919-.224a30.92,30.92,0,0,0,3.665.116,14.439,14.439,0,0,1,4.9.265l1.024.307c.133.024.064.36.714-.1l.344-.524a2.118,2.118,0,0,0,2.29.048,6.866,6.866,0,0,1,2.583-.308l-1.85.343c.4.242-.3.034.688.255l.9.172c.027.01-.9.014.395.141,1.316.129.291.117.63-.121.43-.3.094-.11.159-.308.175-.539-.986-.22.28-.451a10.454,10.454,0,0,1,2.968.144c1.4.25.8.1.72-.04-.057-.1.146-.2,1.5-.167-.153.6-.106.58-.2.565s-.276-.026-.812.38a4.851,4.851,0,0,0,3.527-.31c1.161-.474,2.316.016,3.5.091l.023-.371c2.033.057,1.174.634,3.07.8a.579.579,0,0,1,.222.057c.672-.166.143,0,.55-.226.24-.135-.13-.161.274-.217.1-.014.074-.084.119-.122.769.156.865.443,1.511.243a.28.28,0,0,1,.059-.083c.129.071.162.036.146,0s-.079-.069-.146,0a1.12,1.12,0,0,1-.145-.1c-.028-.022-.643-.1-.309-.153.06-.01-.138-.051-.2-.083,3.546.092-.491.883,3.035.466l-.565-.274a.928.928,0,0,1-.117-.1.511.511,0,0,1-.063-.108c-.081-.275-.5-.346.474-.36,1.088-.014.267.068.76.323a1.431,1.431,0,0,1,.286.172c-.041.016.043.041,0,0a.589.589,0,0,1,.213,0c.351.028,2.774.349,3.586-.309l.2.489a2.111,2.111,0,0,1,.078.3h-.018c-.246-.385-.2-.237-.115-.089.065.117.152.234.133.088,1.33-.047.568-.06,1.352-.365.032-.012.1-.045.133-.057l.845-.219c.047,0,.146-.018.193-.019,2.237-.07-1.208.229,1.459.363,1.823.091,1.28-.5,1.28-.529.007-.281-.129-.2-.219-.119-.106.1-.15.191.176-.3,1.085.244.333.218,1.286.374l2.427.269c.288.059.465.1.574.131h-.02c-.685-.052-.6-.017-.362.018.275.042.749.083.382-.018a2.325,2.325,0,0,0,1.151-.238c.338.943.672.789,2.386.838a3.223,3.223,0,0,0,.332-.586c.605-.771.551.007,1.1.112.091.017.065.086.1.126a9.974,9.974,0,0,0,1.832-.146c.849.444.292.359,1.165.8,1.563-.482.451.07,1.278-.953,1.414.691,1.789.33,2.75-.309,1.281.324.154.15.484.265l2.789-.227a7.375,7.375,0,0,1,2.508-.082c-.366.513-.174.411-.468.31a2.631,2.631,0,0,0-.978-.073c-.757.043-.736.159-1.628.269a6.443,6.443,0,0,0,1.48.628c1.322-.308.082-.5,1.856-.547l-.025.391c1.635-.049.8-.384,2.224-.453.484-.024,1.232.15,2.35.179l-.527-.742c.026,0-.044-.036-.035-.054.339-.086-.344-.193.914.025.022.033.006.092.009.109s.009.087.015.107c.1.4.118.475.684.607l.692.056a1.523,1.523,0,0,1,.184-.023.479.479,0,0,0,.187-.03c-.456-.8-.711-.007-1.173-.809a4.812,4.812,0,0,0,2.144-.145c.635.469.6.268.863.8,1.422-.045.789-.2.36-.766l1.2.031c-.625.342-.505.14-.348.766.971-.181.72-.179.462-.178s-.534,0,.473-.188c1.614.786,2.5.064,3.663-.292,1.468.366-.248.04,1.171.407a1.4,1.4,0,0,0-.178.189c-.066.082-.127.1-.178.092.018.029.038.062.061.1.235.41.16.2.682.091,1.325-.274.473-.74.593-.758.039-.006-.043-.05-.027-.074,1.76-.484,1.631.068,1.848.131a6.406,6.406,0,0,0,2.1-.031c.035.537,0,.42.253.784a6.583,6.583,0,0,1,1.1-.356c.625-.144-.025-.191,1.352-.157l-.555.213c-.194.1-.237.1-.246.1s.009.052-.13.268l1.821-.178c-.237-.451-.383-.33-.275-.546.314-.62,4.522-.033,5.463.055a1.393,1.393,0,0,0,.159.022.52.52,0,0,1,.152.024,2.217,2.217,0,0,1-.219.051c-.046.012-.163.036-.218.053-.706.209-.715-.137-1.142.829,1.552-.044.544-.133,1.6-.249.055-.006.144-.011.2-.016a8.6,8.6,0,0,1,4.544.444l.322.183a5.9,5.9,0,0,1,1.784-.821c1.048-.314.816-.241,1.591.121.7-.843-.357-1.044,1.948-.706.053.008.144.016.2.023a4.37,4.37,0,0,1,.56.084c.163.044.243.063.28.07-.006.007.028.036.222.132.42.207-.161-.015.459.3l.035-.589a17.1,17.1,0,0,1,3.077.109l5.226-.01c.068-.009.194-.019.251-.026.8-.089.988.115,1.128.287.467.575-.259.281.26,1.064l1.243-.551c-.7-.142-.693-.265-.647-.411a.547.547,0,0,1,.053-.076c.38-.453,1.667-.269,2.464-.249l-.036.588c.464-.017.685-.011.784,0,.217.014-.152.028.169-.206s.242-.218.124-.2-.246.032-.132-.147c1.626.153.207.025.85.259l1.48.348c.9.228.683,1.286,1.579.131.542-.7-.116-.167.333-.829l.574.79a6.676,6.676,0,0,1,1.444-.061c.4.036.194.073,1.033-.657l8.016.1a12.071,12.071,0,0,1,4.313.1,19.6,19.6,0,0,1,2.2.743l.344-.559a8.436,8.436,0,0,1,2.106.235.463.463,0,0,0,.056-.074l.3-.487c.89.013,1.553-.021,2.177-.054a22.019,22.019,0,0,1,2.682-.028c1.31.071,1.023.1,1.915.091,1.973-.013,9.639-.106,10.622.157,1.539.411,1.491,1.169,1.976,2.016.334.581,1.214,1.046,1.739,2.177l.134.661a4.536,4.536,0,0,0,1.656,2.74l-1.245.561c1.028.322,1.9.053,1.2,1.943-.229.615-.328.591-.776.985-1.608-.026-4.22-.332-5.449-.02-.708.18.725.462-1.589.1-2.62-.407-4.8-.286-7.554-.781a8.343,8.343,0,0,0-2.136-.145c-.355.008-.8.016-1.426,0-.076.7.051,1.547-.068,1.856-.454,1.176-.756.071-.45,1.241-.433-.012-.834.009-1.171.03-.283.018-.521.036-.7.034-2.012-.022-4.975-.487-6.588-.3-1.123.134-2.925-.161-4.158-.161-.909,0-.814-.293-.575.483.439,1.427.828.224.7,2.693-.164,3.126-2.226,1.9-11.484,1.667-3.169-.079-7.309-.542-7.471-.542-.511,0-1.147.018-1.844.036a38.518,38.518,0,0,1-4.881-.083,25.457,25.457,0,0,0-5.842-.04c3.053.316,9.569,1.028,10.642,1.009l16.973.189c2.313.046,2.091.009,3.1.973,1.278,1.218,1.186,1.821,2.428,3.049.873.862.071,1,.038,1.883a6.889,6.889,0,0,1-.265,1.435c-2,.069-3.865.366-5.825-.292a13.96,13.96,0,0,0-3.694-.344l-.583.1a6.53,6.53,0,0,1-3.038-.067,15.54,15.54,0,0,0-2.529.027,13.085,13.085,0,0,1-2.924-.02c-.945-.217.758-.194-1.08-.249-1.375-.04.187-.051-1.152.178a15.213,15.213,0,0,1-3.516.033,18.26,18.26,0,0,0-2.977-.037,12.33,12.33,0,0,0-3.567.963c.618-.072,1.814-.2,1.814-.2.06,0,.213,0,.377-.009s.333-.01.437-.008a4.164,4.164,0,0,1-.672.342,2.434,2.434,0,0,1-.873-.014,2.414,2.414,0,0,0-.916-.006c.349.253,2.141.191,3.828.129a12.988,12.988,0,0,1,3.158.052c-.022.024-.048.066-.059.075l-.886.485c2.751.035.2-.368,2.263-.8a7.377,7.377,0,0,1,1.376.008c1.078.177.1.187,1.429.251.56.027,1.151.02,1.738.013,1.807-.021,3.565-.043,4.187.925l.2.707c.184.252.21.18.5.376.212.141.36.239.462.3a5.991,5.991,0,0,1,1.267,1.887c.785,1.237.388.567.081,1.921-.274,1.219-.054.277-1.182,1.528l-4.229.1c-1.9.094-5.6.26-7.145-.3-1.2-.436-3.65-.359-5.912-.282-1.17.04-2.288.08-3.153.049a8.9,8.9,0,0,0-1.7.174,6.669,6.669,0,0,1-1.973.146l-.9-.247c-1.1-.181-1.51.249-2.775.358a4.671,4.671,0,0,1-1.1,0,5.751,5.751,0,0,0-.979-.024c-.776.034-1.732.211-2.051.2l-4.533-.313c-.933-.051-1.938-.015-2.924.022a26.284,26.284,0,0,1-3.1,0,11.425,11.425,0,0,0-3.752-.089c-.65.08-.732.234-1.329-.03-.441-.195-.4-.171-.3-.146.072.017.175.035.147-.032a.58.58,0,0,1,0-.066l.044-.131c-1.445.2-.5.559-2.066.788a1.352,1.352,0,0,1-.943-.063,2.113,2.113,0,0,0-1.059-.09l-2.477.208c-2.638-.066-.34.169-2.192.233-.036,0-.292-.022-.558-.044s-.534-.044-.614-.044c-.355,0-.55,0-.65,0-.337-.008.389-.015-.343.176-1.736.454-1.126.091-2.442-.3L98.769-506a14,14,0,0,1-2.716.149l-.923.362a26.774,26.774,0,0,1-2.812.146,4.467,4.467,0,0,0-2.2.524c-1.769.682-2.094.626-2.448.569a2.4,2.4,0,0,0-1.135.094,4.332,4.332,0,0,0,2.147.446c.031,0,.112-.01.143-.011l.324-.044c1.67-.124.341.082,1.931.1,1.441.016.466-.014.715-.117l.153-.144c.052,0,.023-.055.046-.08l1.289.454c.017,0,.093,0,.112.006l2.139-.21c1.224-.071.839.37,2.064.579,1.542.264.747-.139.741-.16-.063-.248.009-.007-.287-.291-.113-.107-.195-.181-.265-.24.786-.129.441.01.9-.374l.154.277a2.046,2.046,0,0,0,.171.224c.348.3.526.168,1.383.355a2.757,2.757,0,0,1,.661.184c1.259-.531-.009-.294,1.248-.557.507.259.511.243.443.227s-.176-.028-.059.143l.137.318c.065.013.01.076.038.11a7.93,7.93,0,0,1,2.8.017c1.361.188,1.415.057,1.706.871,2.278-.068-.715-.66,2-.4a10.151,10.151,0,0,0,3.19-.064c-.242.621-.5.729-.993,1.154,1.541.042,1.236.042,2.112.443a3.937,3.937,0,0,1,2.7-.644c.372,0,.757,0,1.155-.031l1.151-.274c1.458-.628,1.807-.035,2.1.095.315.141.022.126.585.2a2.046,2.046,0,0,0,.725-.01,1.635,1.635,0,0,1,1.038.127l-1.861.42c-.264.011-.448,0-.633-.005a7.573,7.573,0,0,0-1.486.07.928.928,0,0,1-.093.135c.023-.018.094-.05.136.177l.381.928c.086.022.074.084.1.13.644-.279.057-.091.483-.27l2.2-.6c1.007-.289,1.167.093,1.365-.774.54.135,1.131.733,1.826.046.5.394.328.541,1.233.621,1.664.147.971-.071,1.175-.368l.226.248a10.225,10.225,0,0,0,3.177.289l1.385.178a1.048,1.048,0,0,0,.816-.04c.211-.124.184-.247.725.469a8.263,8.263,0,0,1-3.332-.283c.267.482.682.345,1.48.61l-5.137-.326,1.023-.292a.551.551,0,0,0,.2-.058l-1.82-.052c.184.334.267.412-.222.839-.546.477-.173.206-1.068.5a8.866,8.866,0,0,1-2.742.425A9.116,9.116,0,0,1,118.295-499.553Zm23.6-14.54c.012.071.139.039.362-.047C142.04-514.114,141.893-514.1,141.894-514.094Zm-3.156-9a7.925,7.925,0,0,0,1.484.125c-.867-.09-1.456-.147-1.562-.147C138.622-523.117,138.645-523.11,138.737-523.095Zm-23.015-17.014c-.079-.125-.122-.166-.139-.166S115.616-540.128,115.723-540.109Zm-18.049,36.34c-.134-.188-.218-.377.109-.1l-.023,0c.137.249.163.336.136.336S97.759-503.649,97.674-503.769Zm62.947-7.742,0,0c-.511-.408-.256-.239-.028-.07a1.118,1.118,0,0,1,.221.183A1.073,1.073,0,0,1,160.621-511.511ZM116.1-540.384l-.019,0c.237-.207.326-.063.323.08,0,.092-.04.184-.1.184S116.176-540.192,116.1-540.384Zm25.42.031s.018,0,.025,0,.006,0,0,0Z" transform="translate(20.179 542.146)"/></svg>