<?xml version="1.0" encoding="UTF-8"?>
<svg width="47px" height="44px" viewBox="0 0 47 44" version="1.1" xmlns="http://www.w3.org/2000/svg" xmlns:xlink="http://www.w3.org/1999/xlink">
    <!-- Generator: Sketch 51.3 (57544) - http://www.bohemiancoding.com/sketch -->
    <title>Group</title>
    <desc>Created with Sketch.</desc>
    <defs></defs>
    <g id="Page-1" stroke="none" stroke-width="1" fill="none" fill-rule="evenodd">
        <g id="Variables" transform="translate(-569.000000, -333.000000)" fill="#4A4A4A">
            <g id="Group" transform="translate(569.000000, 333.000000)">
                <path d="M6,42.3703704 C3.63685714,42.3703704 1.71428571,40.5427407 1.71428571,38.2962963 C1.71428571,36.0498519 3.63685714,34.2222222 6,34.2222222 C8.36314286,34.2222222 10.2857143,36.0498519 10.2857143,38.2962963 C10.2857143,40.5427407 8.36314286,42.3703704 6,42.3703704 M6.85714286,32.6577778 L6.85714286,0.814814815 C6.85714286,0.364222222 6.47314286,0 6,0 C5.52685714,0 5.14285714,0.364222222 5.14285714,0.814814815 L5.14285714,32.6577778 C2.23971429,33.0554074 0,35.428963 0,38.2962963 C0,41.4406667 2.69142857,44 6,44 C9.30857143,44 12,41.4406667 12,38.2962963 C12,35.428963 9.76028571,33.0554074 6.85714286,32.6577778" id="Fill-1"></path>
                <path d="M23,26.0740741 C20.6098238,26.0740741 18.6650479,24.1706667 18.6650479,21.8313333 C18.6650479,19.492 20.6089913,17.5885926 23,17.5885926 C25.3910087,17.5885926 27.3349521,19.492 27.3349521,21.8313333 C27.3349521,24.1706667 25.3901762,26.0740741 23,26.0740741 M24.0048564,16.0477778 L24.0048564,0.814814815 C24.0048564,0.364222222 23.6318857,0 23.1723325,0 C22.7127792,0 22.3398085,0.364222222 22.3398085,0.814814815 L22.3398085,15.9964444 C19.3410573,16.3191111 17,18.8124444 17,21.8313333 C17,24.8502222 19.3410573,27.3435556 22.3398085,27.6662222 L22.3398085,43.1851852 C22.3398085,43.6357778 22.7127792,44 23.1723325,44 C23.6318857,44 24.0048564,43.6357778 24.0048564,43.1851852 L24.0048564,27.6148889 C26.8354378,27.1447407 29,24.7337037 29,21.8313333 C29,18.928963 26.8354378,16.5179259 24.0048564,16.0477778" id="Fill-3"></path>
                <path d="M41,9.77777778 C38.6368571,9.77777778 36.7142857,7.95014815 36.7142857,5.7037037 C36.7142857,3.45725926 38.6368571,1.62962963 41,1.62962963 C43.3631429,1.62962963 45.2857143,3.45725926 45.2857143,5.7037037 C45.2857143,7.95014815 43.3631429,9.77777778 41,9.77777778 M47,5.7037037 C47,2.55933333 44.3085714,0 41,0 C37.6914286,0 35,2.55933333 35,5.7037037 C35,8.57103704 37.2397143,10.9445926 40.1428571,11.3422222 L40.1428571,43.1851852 C40.1428571,43.6357778 40.5268571,44 41,44 C41.4731429,44 41.8571429,43.6357778 41.8571429,43.1851852 L41.8571429,11.3422222 C44.7602857,10.9445926 47,8.57103704 47,5.7037037" id="Fill-5"></path>
            </g>
        </g>
    </g>
</svg>