<svg id="Jugos" xmlns="http://www.w3.org/2000/svg" viewBox="0 0 1500 1500"><defs><style>.cls-1{fill:none;stroke:#000;stroke-linecap:round;stroke-linejoin:round;stroke-width:22px;}</style></defs><title>02_Jugos</title><circle class="cls-1" cx="553" cy="1194" r="282"/><path class="cls-1" d="M599,852S575,703,716,711C716,711,772,857,599,852Z"/><line class="cls-1" x1="625.2" y1="921.33" x2="625.2" y2="852.13"/><polyline class="cls-1" points="1101 1414 1098 1466 699 1476 665.17 1452.81"/><line class="cls-1" x1="1170.11" y1="378.58" x2="1104" y2="1380"/><polyline class="cls-1" points="615 559 597 335 1170 335"/><line class="cls-1" x1="765.02" y1="1379.93" x2="1103.71" y2="1379.93"/><line class="cls-1" x1="614.81" y1="558.92" x2="1157.5" y2="558.92"/><polyline class="cls-1" points="1282.5 18.5 1061.5 132.5 1015.38 558.92"/><path class="cls-1" d="M447.5,761.5s89,33,105,151"/><path class="cls-1" d="M765,1194a211.71,211.71,0,0,1-87.42,171.55"/><line class="cls-1" x1="764.55" y1="1156.95" x2="764.55" y2="1156.95"/><line class="cls-1" x1="615" y1="598" x2="618.44" y2="750"/></svg>