<svg id="Capa_31" data-name="Capa 31" xmlns="http://www.w3.org/2000/svg" viewBox="0 0 1500 1500"><defs><style>.cls-1,.cls-2{fill:none;stroke-linecap:round;stroke-linejoin:round;stroke-width:22px;}.cls-1{stroke:#050000;}.cls-2{stroke:#000;}</style></defs><title>Refresco</title><path class="cls-1" d="M1094,128.27C986.08,133.79,504,138,504,138a12,12,0,0,1-12-12V38a12,12,0,0,1,12-12h578a12,12,0,0,1,12,12v62"/><path class="cls-1" d="M505,138s-92,80-95,204c-1.33,54.85-2.65,231.4-3.2,413.85-.69,230-.15,469.42,3.2,486.15,6,30,23,233,165,233h472s48,0,83-100,21.12-1101.56,23-1126c4-52-59-121-59-121"/><line class="cls-1" x1="978" y1="194" x2="407" y2="756"/><line class="cls-1" x1="1153.09" y1="882.02" x2="583" y2="1433"/><circle class="cls-1" cx="628" cy="342" r="78"/><circle class="cls-1" cx="522" cy="503" r="45"/><circle class="cls-1" cx="984" cy="1280" r="88"/><line class="cls-2" x1="1007" y1="165.82" x2="1007" y2="165.28"/><line class="cls-1" x1="695" y1="1192" x2="1041" y2="849"/><line class="cls-1" x1="460" y1="827" x2="925" y2="362"/></svg>