<svg id="Capa_23" data-name="Capa 23" xmlns="http://www.w3.org/2000/svg" viewBox="0 0 1500 1500"><defs><style>.cls-1,.cls-2{fill:none;stroke-linecap:round;stroke-linejoin:round;stroke-width:22px;}.cls-1{stroke:#020202;}.cls-2{stroke:#000;}</style></defs><title>Hamburguesas</title><path class="cls-1" d="M1303,618H168s42-462,573-462c427.29,0,535.84,311.14,562,428"/><path class="cls-1" d="M133.3,917.38c-15.2-9.22-30.82-25.69-36.27-55.06A126.89,126.89,0,0,1,95,839a121.81,121.81,0,0,1,3.12-28.45C112.06,752.3,168,750,168,750H1330s82-4,79,89-79,100-79,100L168,929"/><path class="cls-1" d="M1311,1065c.46,60.25,1.57,195,0,206-2,14-30,62-144,56s-912,1-912,1-86,5-87-89,0-208,0-208H1312"/><line class="cls-1" x1="233.81" y1="422.33" x2="407" y2="422.33"/><line class="cls-1" x1="341.74" y1="288.13" x2="577" y2="288.13"/><line class="cls-2" x1="445" y1="423" x2="445" y2="422"/></svg>