<svg id="Capa_38" data-name="Capa 38" xmlns="http://www.w3.org/2000/svg" viewBox="0 0 1500 1500"><defs><style>.cls-1{fill:none;stroke:#000;stroke-linecap:round;stroke-linejoin:round;stroke-width:22px;}</style></defs><title>Postres</title><path class="cls-1" d="M182,1225l7-262V695L978,187S1289.08,283,1285,743c-4,451-10,506-10,506L214,1229"/><path class="cls-1" d="M1275,911c-43.85,16.48-101,72-178,128s-155.5,7.5-253.5-65.5-179-84-179-84-82.5-10.5-139,50c-58.12,62.23-114,176-297.5,36.5"/><line class="cls-1" x1="196" y1="695" x2="1239" y2="695"/><path class="cls-1" d="M632.5,120.5S791,99,856,312"/><circle class="cls-1" cx="910.5" cy="475.5" r="136"/><line class="cls-1" x1="1001" y1="435" x2="1001" y2="434"/><path class="cls-1" d="M868,561s115,28,139-86"/><path class="cls-1" d="M1109,1144c-77,56-155.5,7.5-253.5-65.5s-179-84-179-84-82.5-10.5-139,50"/></svg>