<?xml version="1.0" standalone="no"?>
<!DOCTYPE svg PUBLIC "-//W3C//DTD SVG 1.1//EN" "http://www.w3.org/Graphics/SVG/1.1/DTD/svg11.dtd" >
<svg xmlns="http://www.w3.org/2000/svg" xmlns:xlink="http://www.w3.org/1999/xlink" version="1.1">
<metadata>
Created by FontForge 20170731 at Fri Jan 16 15:55:12 2015
 By Aleksey,,,
(c) 2012, 2013, 2014, 2015 by Stawix Ruecha &#38; Foundry. All rights reserved.
</metadata>
<defs>
<font id="AmsiProNarw-Bold" horiz-adv-x="371" >
  <font-face 
    font-family="AmsiProNarw-Bold"
    font-weight="400"
    font-stretch="semi-condensed"
    units-per-em="1000"
    panose-1="2 11 10 6 2 2 1 1 1 4"
    ascent="856"
    descent="-144"
    x-height="536"
    cap-height="704"
    bbox="-192.559 -286 1200 1038"
    underline-thickness="50"
    underline-position="-150"
    unicode-range="U+0020-FB4E"
  />
<missing-glyph horiz-adv-x="492" 
d="M0 690h492v-690h-492v690zM443 94v503l-168 -252zM49 597v-503l168 251zM246 389l168 252h-335zM246 301l-167 -252h334z" />
    <glyph glyph-name="f_f" unicode="ff" horiz-adv-x="599" 
d="M479 523h80q22 0 22 -22v-60q0 -22 -22 -22h-80v-398q0 -21 -22 -21h-78q-22 0 -22 21v398h-154v-398q0 -21 -22 -21h-77q-23 0 -23 21v398h-43q-21 0 -21 21v61q0 22 21 22h43v44q0 76 33.5 110.5t104.5 34.5q34 0 63 -9q18 -7 18 -22v-48q0 -11 -4.5 -16.5t-14.5 -4.5
q-30 3 -33 3q-23 0 -34 -13t-11 -44v-35h154v39q0 81 34 115.5t109 34.5q37 0 66 -9q17 -6 17 -22v-51q0 -11 -5 -16.5t-15 -4.5q-20 2 -34 2q-27 0 -38.5 -13t-11.5 -47v-28z" />
    <glyph glyph-name="fi" unicode="fi" horiz-adv-x="536" 
d="M480 501v-479q0 -22 -22 -22h-80q-22 0 -22 22v397h-153v-398q0 -21 -22 -21h-77q-23 0 -23 21v398h-43q-21 0 -21 21v61q0 12 4.5 17t16.5 5h43v42q0 77 33 112t103 35q40 0 67 -9q18 -5 18 -22v-48q0 -21 -21 -21q-4 0 -15.5 1.5t-17.5 1.5q-24 0 -35 -13t-11 -46v-33
h256q22 0 22 -22zM480 683v-72q0 -21 -23 -21h-79q-22 0 -22 21v72q0 21 22 21h79q23 0 23 -21z" />
    <glyph glyph-name="fl" unicode="fl" horiz-adv-x="536" 
d="M480 668v-646q0 -22 -21 -22h-80q-22 0 -22 22v588q-27 5 -66 5q-49 0 -69 -16t-20 -53v-23h59q22 0 22 -22v-60q0 -22 -22 -22h-58v-398q0 -21 -22 -21h-77q-23 0 -23 21v398h-43q-21 0 -21 21v61q0 22 21 22h43v24q0 90 46.5 128.5t164.5 38.5q99 0 166 -20
q22 -7 22 -26z" />
    <glyph glyph-name="f_f_i" unicode="ffi" horiz-adv-x="811" 
d="M755 501v-479q0 -22 -22 -22h-79q-22 0 -22 22v397h-153v-398q0 -21 -22 -21h-78q-22 0 -22 21v398h-154v-398q0 -21 -22 -21h-77q-23 0 -23 21v398h-43q-21 0 -21 21v61q0 22 21 22h43v44q0 76 33.5 110.5t104.5 34.5q36 0 63 -9q18 -7 18 -22v-48q0 -11 -4.5 -16.5
t-14.5 -4.5q-30 3 -33 3q-23 0 -34 -13t-11 -44v-35h154v44q0 76 33.5 110.5t104.5 34.5q36 0 65 -9q18 -7 18 -22v-48q0 -11 -5 -16.5t-15 -4.5q-30 3 -33 3q-24 0 -35 -13t-11 -44v-35h254q22 0 22 -22zM755 683v-72q0 -21 -21 -21h-80q-22 0 -22 21v72q0 21 22 21h80
q21 0 21 -21z" />
    <glyph glyph-name="f_f_l" unicode="ffl" horiz-adv-x="812" 
d="M479 419v-398q0 -21 -22 -21h-78q-22 0 -22 21v398h-154v-398q0 -21 -22 -21h-77q-23 0 -23 21v398h-43q-21 0 -21 21v61q0 22 21 22h43v44q0 76 33.5 110.5t104.5 34.5q34 0 63 -9q18 -7 18 -22v-48q0 -11 -4.5 -16.5t-14.5 -4.5q-30 3 -33 3q-23 0 -34 -13t-11 -44v-35
h154v24q0 90 47 128.5t165 38.5q98 0 165 -20q13 -4 17.5 -9t4.5 -17v-646q0 -22 -22 -22h-79q-22 0 -22 22v588q-28 5 -66 5q-49 0 -68.5 -16t-19.5 -53v-23h58q22 0 22 -22v-60q0 -22 -22 -22h-58z" />
    <glyph glyph-name="f_b" unicode="fb" horiz-adv-x="844" 
d="M479 268q0 -174 104 -174q51 0 75 40.5t24 133.5t-24 133.5t-75 40.5q-104 0 -104 -174zM480 668v-194q16 32 54 52t84 20q189 0 189 -278q0 -277 -190 -277q-47 0 -85.5 20.5t-54.5 54.5l-2 -47q-2 -19 -24 -19h-72q-22 0 -22 22v588q-27 5 -66 5q-49 0 -68.5 -16
t-19.5 -53v-23h58q22 0 22 -22v-60q0 -22 -22 -22h-58v-398q0 -21 -22 -21h-77q-23 0 -23 21v398h-43q-21 0 -21 21v61q0 22 21 22h43v24q0 90 47 128.5t165 38.5q98 0 165 -20q22 -7 22 -26z" />
    <glyph glyph-name="f_f_b" unicode="ffb" horiz-adv-x="1120" 
d="M755 268q0 -174 104 -174q51 0 75 40.5t24 133.5t-24 133.5t-75 40.5q-104 0 -104 -174zM756 668v-194q16 32 54 52t83 20q190 0 190 -278q0 -277 -190 -277q-47 0 -85.5 20.5t-54.5 54.5l-3 -47q-2 -19 -23 -19h-72q-22 0 -22 22v588q-28 5 -66 5q-49 0 -68.5 -16
t-19.5 -53v-23h58q22 0 22 -22v-60q0 -22 -22 -22h-58v-398q0 -21 -22 -21h-78q-22 0 -22 21v398h-154v-398q0 -21 -22 -21h-77q-23 0 -23 21v398h-43q-21 0 -21 21v61q0 22 21 22h43v44q0 76 33.5 110.5t104.5 34.5q34 0 63 -9q18 -5 18 -22v-48q0 -11 -4.5 -16.5
t-14.5 -4.5q-30 3 -33 3q-23 0 -34 -13t-11 -44v-35h154v24q0 90 46.5 128.5t164.5 38.5q99 0 166 -20q13 -4 17.5 -9t4.5 -17z" />
    <glyph glyph-name="f_h" unicode="fh" horiz-adv-x="824" 
d="M480 668v-192q42 70 139 70q78 0 116.5 -47.5t38.5 -133.5v-343q0 -22 -22 -22h-79q-23 0 -23 22v319q0 47 -17 70.5t-57 23.5q-47 0 -71.5 -31.5t-24.5 -85.5v-296q0 -22 -21 -22h-80q-22 0 -22 22v588q-27 5 -66 5q-49 0 -68.5 -16t-19.5 -53v-23h58q22 0 22 -22v-60
q0 -22 -22 -22h-58v-398q0 -21 -22 -21h-77q-23 0 -23 21v398h-43q-21 0 -21 21v61q0 22 21 22h43v24q0 90 47 128.5t165 38.5q98 0 165 -20q22 -7 22 -26z" />
    <glyph glyph-name="f_f_h" unicode="ffh" horiz-adv-x="1100" 
d="M756 668v-192q17 29 52 49.5t87 20.5q78 0 116.5 -47.5t38.5 -133.5v-343q0 -22 -23 -22h-79q-22 0 -22 22v319q0 47 -17 70.5t-57 23.5q-47 0 -71.5 -31.5t-24.5 -85.5v-296q0 -22 -22 -22h-79q-22 0 -22 22v588q-28 5 -66 5q-49 0 -68.5 -16t-19.5 -53v-23h58
q22 0 22 -22v-60q0 -22 -22 -22h-58v-398q0 -21 -22 -21h-78q-22 0 -22 21v398h-154v-398q0 -21 -22 -21h-77q-23 0 -23 21v398h-43q-21 0 -21 21v61q0 22 21 22h43v44q0 76 33 110.5t103 34.5q36 0 65 -9q18 -7 18 -22v-48q1 -11 -4 -16.5t-15 -4.5q-30 3 -33 3
q-23 0 -34 -13t-11 -44v-35h154v24q0 90 46.5 128.5t164.5 38.5q99 0 166 -20q13 -4 17.5 -9t4.5 -17z" />
    <glyph glyph-name="f_j" unicode="fj" horiz-adv-x="536" 
d="M482 501v-473q0 -78 -29.5 -110.5t-99.5 -32.5q-34 0 -60 7q-19 5 -19 22v60q0 22 20 19q16 -2 28 -2q19 0 27.5 11.5t8.5 42.5v374h-155v-398q0 -21 -22 -21h-77q-23 0 -23 21v398h-43q-21 0 -21 21v61q0 22 21 22h43v44q0 76 33.5 110.5t104.5 34.5q41 0 65 -9
q18 -5 18 -22v-48q0 -11 -5 -16.5t-15 -4.5q-30 3 -33 3q-24 0 -35 -13t-11 -44v-35h256q23 0 23 -22zM481 683v-72q0 -21 -22 -21h-79q-22 0 -22 21v72q0 21 22 21h79q22 0 22 -21z" />
    <glyph glyph-name="f_f_j" unicode="ffj" horiz-adv-x="812" 
d="M757 501v-473q0 -79 -29 -111t-100 -32q-38 0 -61 7q-18 4 -18 22v60q0 20 21 19q14 -2 27 -2q20 0 28.5 12t8.5 42v374h-155v-398q0 -21 -22 -21h-78q-22 0 -22 21v398h-154v-398q0 -21 -22 -21h-77q-23 0 -23 21v398h-43q-21 0 -21 21v61q0 22 21 22h43v44
q0 76 33.5 110.5t104.5 34.5q34 0 63 -9q18 -7 18 -22v-48q0 -11 -4.5 -16.5t-14.5 -4.5q-30 3 -33 3q-23 0 -34 -13t-11 -44v-35h154v44q0 76 33.5 110.5t104.5 34.5q36 0 65 -9q18 -7 18 -22v-48q0 -11 -5 -16.5t-15 -4.5q-30 3 -33 3q-24 0 -35 -13t-11 -44v-35h256
q22 0 22 -22zM757 683v-72q0 -21 -22 -21h-79q-22 0 -22 21v72q0 21 22 21h79q22 0 22 -21z" />
    <glyph glyph-name="f_k" unicode="fk" horiz-adv-x="773" 
d="M481 668v-311l136 164q13 15 31 15h93q13 0 16 -9.5t-6 -19.5l-180 -210l189 -270q7 -10 3 -18.5t-16 -8.5h-94q-21 0 -32 18l-140 209v-205q0 -22 -22 -22h-80q-22 0 -22 22v588q-27 5 -66 5q-49 0 -68.5 -16t-19.5 -53v-23h58q22 0 22 -22v-60q0 -22 -22 -22h-58v-398
q0 -21 -22 -21h-77q-23 0 -23 21v398h-43q-21 0 -21 21v61q0 22 21 22h43v24q0 90 47 128.5t165 38.5q99 0 166 -20q22 -7 22 -26z" />
    <glyph glyph-name="f_f_k" unicode="ffk" horiz-adv-x="1049" 
d="M633 22v588q-28 5 -66 5q-49 0 -68.5 -16t-19.5 -53v-23h58q22 0 22 -22v-60q0 -22 -22 -22h-58v-398q0 -21 -22 -21h-78q-22 0 -22 21v398h-154v-398q0 -21 -22 -21h-77q-23 0 -23 21v398h-43q-21 0 -21 21v61q0 22 21 22h43v44q0 76 33.5 110.5t104.5 34.5q34 0 63 -9
q18 -7 18 -22v-48q1 -11 -4 -16.5t-15 -4.5q-30 3 -33 3q-45 0 -45 -57v-35h154v24q0 90 46.5 128.5t164.5 38.5q98 0 167 -20q22 -7 22 -26v-311l135 164q12 15 32 15h92q13 0 16.5 -9.5t-5.5 -19.5l-180 -210l188 -270q7 -10 3.5 -18.5t-15.5 -8.5h-94q-21 0 -32 18
l-140 209v-205q0 -22 -22 -22h-80q-22 0 -22 22z" />
    <glyph glyph-name="f_t" unicode="ft" horiz-adv-x="607" 
d="M203 523h156v114q0 20 22 20h75q22 0 22 -20v-114h85q22 0 22 -22v-60q0 -22 -22 -22h-84v-249q0 -41 10.5 -55.5t43.5 -14.5q5 0 32 3q20 2 21 -20v-59q0 -18 -18 -22q-32 -8 -66 -8q-79 0 -112 35.5t-33 123.5v266h-154v-398q0 -21 -22 -21h-77q-23 0 -23 21v398h-43
q-21 0 -21 21v61q0 22 21 22h43v44q0 76 33.5 110.5t104.5 34.5q39 0 63 -9q18 -5 18 -22l1 -48q1 -11 -4 -16.5t-15 -4.5q-30 3 -34 3q-23 0 -34 -13t-11 -44v-35z" />
    <glyph glyph-name="f_f_t" unicode="fft" horiz-adv-x="885" 
d="M357 523v44q0 76 33.5 110.5t104.5 34.5q40 0 64 -9q18 -5 18 -22v-48q0 -11 -5 -16.5t-15 -4.5q-30 3 -32 3q-24 0 -35 -13t-11 -44v-35h156v114q0 20 21 20h75q22 0 22 -20v-114h86q21 0 21 -21v-61q0 -22 -21 -22h-85v-249q0 -41 11 -55.5t44 -14.5q6 0 15.5 1.5
t13.5 1.5q19 0 20 -20l5 -58q1 -17 -17 -23q-24 -8 -68 -8q-79 0 -112 35.5t-33 123.5v266h-154v-398q0 -21 -22 -21h-78q-22 0 -22 21v398h-154v-398q0 -21 -22 -21h-77q-23 0 -23 21v398h-43q-21 0 -21 21v61q0 22 21 22h43v44q0 76 33.5 110.5t104.5 34.5q34 0 63 -9
q18 -7 18 -22v-48q0 -11 -4.5 -16.5t-14.5 -4.5q-30 3 -33 3q-23 0 -34 -13t-11 -44v-35h154z" />
    <glyph glyph-name="t_t" unicode="tt" horiz-adv-x="608" 
d="M562 419h-85v-249q0 -41 11 -55.5t44 -14.5q6 0 15 1.5t14 1.5q19 0 20 -20l5 -58q1 -17 -17 -23q-26 -8 -68 -8q-79 0 -112 35.5t-33 123.5v266h-158v-249q0 -41 10.5 -55.5t40.5 -14.5q5 0 9.5 0.5t9.5 1.5t8 1q10 1 14.5 -4t5.5 -16l5 -58q1 -17 -17 -23
q-26 -8 -66 -8q-77 0 -109 35.5t-32 123.5v266h-44q-21 0 -21 21v61q0 22 21 22h46v117q0 20 21 20h75q22 0 22 -20v-117h160v117q0 20 22 20h75q22 0 22 -20v-117h86q21 0 21 -22v-60q0 -22 -21 -22z" />
    <glyph glyph-name="t_t_f" unicode="ttf" horiz-adv-x="881" 
d="M477 419v-249q0 -41 11 -55.5t43 -14.5q9 0 30 3q21 1 21 -20l1 -59q0 -18 -19 -22q-30 -8 -64 -8q-78 0 -111 35.5t-33 123.5v266h-158v-249q0 -41 10.5 -55.5t40.5 -14.5q6 0 14.5 1.5t12.5 1.5q19 0 20 -20l5 -58q1 -17 -17 -23q-26 -8 -66 -8q-77 0 -109 35.5
t-32 123.5v266h-44q-21 0 -21 21v61q0 22 21 22h46v117q0 20 21 20h75q22 0 22 -20v-117h160v117q0 20 22 20h75q22 0 22 -20v-117h162v39q0 81 34 115.5t108 34.5q41 0 67 -9q17 -5 17 -22v-51q0 -11 -5 -16.5t-16 -4.5q-18 2 -33 2q-28 0 -39 -13t-11 -46v-29h80
q22 0 22 -22v-60q0 -22 -22 -22h-80v-398q0 -21 -22 -21h-78q-22 0 -22 21v398h-161z" />
    <glyph glyph-name=".notdef" horiz-adv-x="492" 
d="M0 690h492v-690h-492v690zM443 94v503l-168 -252zM49 597v-503l168 251zM246 389l168 252h-335zM246 301l-167 -252h334z" />
    <glyph glyph-name=".null" horiz-adv-x="0" 
 />
    <glyph glyph-name="nonmarkingreturn" horiz-adv-x="333" 
 />
    <glyph glyph-name="space" unicode=" " horiz-adv-x="236" 
 />
    <glyph glyph-name="exclam" unicode="!" horiz-adv-x="268" 
d="M67 23v94q0 22 23 22h88q23 0 23 -22v-94q0 -23 -22 -23h-89q-23 0 -23 23zM163 212h-57q-21 0 -23 22l-21 447q-1 23 22 23h100q24 0 23 -23l-21 -447q-2 -22 -23 -22z" />
    <glyph glyph-name="quotedbl" unicode="&#x22;" horiz-adv-x="351" 
d="M144 622l-24 -167h-46l-25 167q-5 30 -5 60q0 24 12 34.5t41 10.5q28 0 40 -10.5t12 -34.5q0 -30 -5 -60zM302 622l-24 -167h-47l-24 167q-5 45 -5 60q0 24 12 34.5t41 10.5q28 0 40 -10.5t12 -34.5q0 -30 -5 -60z" />
    <glyph glyph-name="numbersign" unicode="#" horiz-adv-x="569" 
d="M516 674l-43 -164h59q22 0 22 -22v-33q0 -22 -22 -22h-80l-44 -163h60q22 0 22 -23v-32q0 -22 -22 -22h-80l-48 -184q-6 -22 -27 -16l-37 11q-22 6 -16 26l43 163h-122l-48 -184q-6 -22 -27 -16l-37 11q-22 6 -16 26l43 163h-59q-22 0 -22 22v32q0 23 22 23h80l43 163
h-60q-21 0 -21 22v33q0 22 21 22h81l49 186q6 21 26 15l38 -10q22 -6 16 -27l-44 -164h121l50 186q6 21 26 15l38 -10q21 -6 15 -27zM245 433l-44 -163h123l42 163h-121z" />
    <glyph glyph-name="dollar" unicode="$" horiz-adv-x="505" 
d="M298 779v-66q73 -3 126 -23q22 -9 17 -29l-15 -63q-6 -23 -30 -16q-52 18 -112 18q-111 0 -111 -77q0 -25 20 -48t39.5 -35t60.5 -34q46 -25 70.5 -40.5t53.5 -42t41.5 -59t12.5 -75.5q0 -163 -170 -192v-71q0 -21 -21 -21h-38q-22 0 -22 21v66q-99 1 -162 28
q-24 9 -19 29l15 64q5 23 30 15q66 -23 126 -23q129 0 129 85q0 35 -25.5 57t-81.5 52q-11 5 -16 8q-41 21 -66 36.5t-53.5 41.5t-42 61t-13.5 80q0 166 176 185v68q0 20 22 20h38q21 0 21 -20z" />
    <glyph glyph-name="percent" unicode="%" horiz-adv-x="835" 
d="M642 683l-352 -665q-10 -18 -28 -18h-58q-22 0 -11 22l351 664q9 18 29 18h58q22 0 11 -21zM30 505q0 100 40 153t115 53q76 0 116 -53t40 -153t-40 -153t-116 -53q-75 0 -115 53t-40 153zM245 505q0 123 -60 123q-59 0 -59 -123q0 -122 59 -122q31 0 45.5 28.5
t14.5 93.5zM493 199q0 100 40.5 153.5t115.5 53.5t115.5 -53.5t40.5 -153.5q0 -99 -40.5 -152t-115.5 -53t-115.5 53t-40.5 152zM709 199q0 123 -60 123q-59 0 -59 -123q0 -122 59 -122q60 0 60 122z" />
    <glyph glyph-name="ampersand" unicode="&#x26;" horiz-adv-x="639" 
d="M591 289q0 -93 -48 -165l79 -101q7 -9 4 -16t-13 -7h-91q-14 0 -23 10l-31 40q-69 -58 -180 -58q-114 0 -183 56t-69 162q0 78 39.5 132.5t108.5 77.5l-16 23q-47 66 -47 128q0 67 45 105.5t142 38.5q60 0 108 -18q24 -8 20 -28l-10 -50q-5 -24 -31 -16q-33 10 -70 10
q-87 0 -87 -55q0 -36 42 -89l192 -254q15 39 15 79q0 12 -4 30t-4 26q0 19 21 19h65q15 0 21 -19q5 -28 5 -61zM300 100q67 0 103 33l-157 206q-82 -33 -82 -121q0 -53 35.5 -85.5t100.5 -32.5z" />
    <glyph glyph-name="quotesingle" unicode="'" horiz-adv-x="193" 
d="M144 622l-24 -167h-46l-25 167q-5 30 -5 60q0 24 12 34.5t41 10.5q28 0 40 -10.5t12 -34.5q0 -30 -5 -60z" />
    <glyph glyph-name="parenleft" unicode="(" horiz-adv-x="321" 
d="M58 298q0 114 39.5 219t100.5 184q11 13 26 13h58q11 0 14 -8t-2 -15q-50 -78 -81 -182.5t-31 -210.5q0 -104 31.5 -206.5t80.5 -184.5q5 -8 2 -16t-14 -8h-58q-16 0 -26 12q-61 79 -100.5 184t-39.5 219z" />
    <glyph glyph-name="parenright" unicode=")" horiz-adv-x="321" 
d="M263 298q0 -114 -39 -219t-100 -184q-10 -12 -26 -12h-59q-11 0 -13.5 8t2.5 16q49 82 80.5 185t31.5 206q0 106 -31 210.5t-81 182.5q-5 7 -2.5 15t13.5 8h59q15 0 26 -13q61 -78 100 -183t39 -220z" />
    <glyph glyph-name="asterisk" unicode="*" horiz-adv-x="390" 
d="M196 367q-22 0 -30 8.5t-8 27.5q0 13 7.5 49t8.5 52q-10 -8 -38.5 -32.5t-40.5 -31.5q-31 -19 -51 14q-10 19 -7 30t21 21q11 6 45.5 17.5t50.5 18.5q-13 5 -48.5 17.5t-47.5 19.5q-32 19 -14 50q19 32 51 15q12 -7 39 -31.5t40 -34.5q-2 15 -9 51.5t-7 49.5q0 20 8 28.5
t29 8.5t29 -8.5t8 -28.5q0 -13 -7 -49.5t-9 -51.5q13 9 40.5 33.5t39.5 31.5q31 18 50 -14q10 -19 6.5 -30t-20.5 -21q-11 -7 -46.5 -18.5t-48.5 -17.5q15 -7 49.5 -19t45.5 -18q18 -10 21 -20.5t-7 -29.5q-19 -32 -50 -14q-12 7 -40 31.5t-39 32.5q1 -16 8.5 -52t7.5 -49
q0 -19 -8 -27.5t-29 -8.5z" />
    <glyph glyph-name="plus" unicode="+" horiz-adv-x="541" 
d="M472 298h-145v-162q0 -22 -21 -22h-71q-22 0 -22 22v162h-145q-21 0 -21 21v60q0 21 22 21h144v158q0 22 22 22h71q21 0 21 -22v-158h145q22 0 22 -21v-60q0 -21 -22 -21z" />
    <glyph glyph-name="comma" unicode="," horiz-adv-x="222" 
d="M170 3l-46 -103q-6 -13 -20 -13h-30q-18 0 -11 20l30 93h-24q-22 0 -22 23v91q0 22 23 22h82q23 0 23 -22v-83q0 -15 -5 -28z" />
    <glyph glyph-name="hyphen" unicode="-" horiz-adv-x="336" 
d="M279 226h-223q-21 0 -21 21v60q0 21 21 21h223q22 0 22 -21v-60q0 -21 -22 -21z" />
    <glyph glyph-name="period" unicode="." horiz-adv-x="222" 
d="M47 23v91q0 22 23 22h82q23 0 23 -22v-91q0 -23 -22 -23h-84q-22 0 -22 23z" />
    <glyph glyph-name="slash" unicode="/" horiz-adv-x="387" 
d="M9 26l248 658q8 20 29 20h74q28 0 18 -26l-248 -658q-8 -20 -28 -20h-75q-28 0 -18 26z" />
    <glyph glyph-name="zero" unicode="0" horiz-adv-x="584" 
d="M292 715q247 0 247 -362t-247 -362q-248 0 -248 361q0 363 248 363zM292 105q59 0 87.5 58t28.5 189q0 132 -28.5 190t-87.5 58t-87.5 -58t-28.5 -190q0 -131 28.5 -189t87.5 -58z" />
    <glyph glyph-name="one" unicode="1" horiz-adv-x="427" 
d="M203 24v537l-103 -79q-14 -10 -26 2l-45 51q-12 13 3 25l162 135q12 9 31 9h84q24 0 24 -23v-657q0 -24 -24 -24h-83q-23 0 -23 24z" />
    <glyph glyph-name="two" unicode="2" horiz-adv-x="537" 
d="M165 514q0 -11 2 -27t2 -22q0 -19 -21 -19h-76q-17 0 -22 25q-4 19 -4 48q0 88 55 142t161 54q116 0 169.5 -57.5t53.5 -149.5q0 -59 -24.5 -120t-65.5 -112.5t-81.5 -91t-84.5 -73.5h239q23 0 23 -23v-65q0 -23 -23 -23h-403q-23 0 -23 23v53q0 18 17 29q52 37 99 78.5
t94 93.5t74.5 110t27.5 112q0 105 -95 105q-49 0 -71.5 -25.5t-22.5 -64.5z" />
    <glyph glyph-name="three" unicode="3" horiz-adv-x="504" 
d="M162 417h58q99 0 99 96q0 91 -108 91q-63 0 -135 -24q-22 -7 -26 14l-15 62q-5 18 16 27q79 32 176 32q99 0 159 -44.5t60 -136.5q0 -120 -89 -156q105 -34 105 -170q0 -217 -242 -217q-106 0 -179 31q-20 8 -16 25l15 65q4 21 27 15q78 -25 139 -25q65 0 96 27t31 85
q0 98 -108 98h-63q-23 0 -23 22v61q0 22 23 22z" />
    <glyph glyph-name="four" unicode="4" horiz-adv-x="568" 
d="M438 0h-82q-23 0 -23 24v125h-281q-22 0 -22 23v63q0 16 9 29l284 425q10 15 28 15h87q23 0 23 -23v-425h69q22 0 22 -23v-61q0 -23 -22 -23h-69v-125q0 -24 -23 -24zM333 545l-191 -289h191v289z" />
    <glyph glyph-name="five" unicode="5" horiz-adv-x="516" 
d="M475 230q0 -239 -254 -239q-108 0 -176 31q-21 10 -16 28l15 63q4 21 27 15q81 -26 139 -26q70 0 103 31t33 96q0 58 -26.5 86.5t-88.5 28.5q-41 0 -79 -10.5t-44 -10.5t-16 3l-31 12q-11 5 -10 23q13 146 17 320q0 23 23 23h324q23 0 23 -22v-66q0 -22 -23 -22h-240
q-4 -101 -10 -164q42 15 98 15q212 0 212 -215z" />
    <glyph glyph-name="six" unicode="6" horiz-adv-x="557" 
d="M417 590q-55 16 -93 16q-81 0 -116 -50.5t-40 -157.5q43 71 150 71q101 0 151 -63.5t50 -165.5q0 -114 -59.5 -181.5t-164.5 -67.5q-251 0 -251 342q0 193 62.5 287.5t207.5 94.5q75 0 123 -21q22 -8 19 -24l-12 -64q-4 -21 -27 -16zM292 100q52 0 79 37t27 102
q0 58 -26 93.5t-81 35.5q-111 0 -111 -130q0 -54 28.5 -96t83.5 -42z" />
    <glyph glyph-name="seven" unicode="7" horiz-adv-x="495" 
d="M120 23q13 146 73 310t132 261h-271q-24 0 -24 23v64q0 23 24 23h385q23 0 23 -23v-58q0 -15 -15 -35q-77 -115 -134 -270t-59 -295q0 -23 -24 -23h-87q-25 0 -23 23z" />
    <glyph glyph-name="eight" unicode="8" horiz-adv-x="554" 
d="M277 -10q-116 0 -176.5 51.5t-60.5 140.5q0 138 134 183q-120 49 -120 169q0 86 58 133.5t165 47.5t165 -47t58 -134q0 -120 -119 -169q134 -46 134 -183q0 -89 -61 -140.5t-177 -51.5zM277 616q-98 0 -98 -85q0 -46 24.5 -74t73.5 -47q49 19 73.5 47t24.5 74
q0 85 -98 85zM277 319q-109 -36 -109 -127q0 -46 27.5 -72t81.5 -26t81.5 26t27.5 72q0 91 -109 127z" />
    <glyph glyph-name="nine" unicode="9" horiz-adv-x="557" 
d="M142 114q55 -16 93 -16q79 0 115 48t41 154q-42 -65 -152 -65q-101 0 -151 63.5t-50 165.5q0 115 59.5 182.5t164.5 67.5q250 0 250 -344q0 -192 -61 -286t-205 -94q-75 0 -125 20q-21 8 -17 26l12 63q3 20 26 15zM265 604q-52 0 -79 -37t-27 -101q0 -59 26 -94.5
t81 -35.5q111 0 111 130q0 58 -28 98t-84 40z" />
    <glyph glyph-name="colon" unicode=":" horiz-adv-x="253" 
d="M63 23v91q0 22 22 22h82q23 0 23 -22v-91q0 -23 -22 -23h-83q-22 0 -22 23zM63 422v91q0 23 22 23h82q23 0 23 -23v-91q0 -22 -22 -22h-83q-22 0 -22 22z" />
    <glyph glyph-name="semicolon" unicode=";" horiz-adv-x="253" 
d="M63 422v91q0 23 23 23h81q23 0 23 -23v-91q0 -22 -22 -22h-83q-22 0 -22 22zM185 3l-46 -103q-6 -13 -20 -13h-29q-17 0 -12 20l31 93h-24q-22 0 -22 23v91q0 22 22 22h82q23 0 23 -22v-83q0 -15 -5 -28z" />
    <glyph glyph-name="less" unicode="&#x3c;" horiz-adv-x="541" 
d="M58 348q0 11 10 20l316 275q17 15 32 -1l43 -48q15 -17 -2 -31l-251 -215l251 -215q15 -14 2 -30l-43 -50q-14 -16 -31 -1l-317 276q-10 9 -10 20z" />
    <glyph glyph-name="equal" unicode="=" horiz-adv-x="541" 
d="M458 403h-376q-21 0 -21 21v57q0 22 22 22h375q22 0 22 -22v-57q0 -21 -22 -21zM458 196h-376q-21 0 -21 21v57q0 21 22 21h375q22 0 22 -21v-57q0 -21 -22 -21z" />
    <glyph glyph-name="greater" unicode="&#x3e;" horiz-adv-x="541" 
d="M484 348q0 -10 -11 -20l-319 -276q-17 -14 -30 1l-41 50q-14 17 1 30l252 215l-252 215q-15 14 -1 31l41 48q15 16 30 2l319 -276q11 -10 11 -20z" />
    <glyph glyph-name="question" unicode="?" horiz-adv-x="454" 
d="M153 23v94q0 22 23 22h88q23 0 23 -22v-94q0 -23 -23 -23h-89q-22 0 -22 23zM280 258v-24q0 -22 -22 -22h-71q-23 0 -23 23v24q0 32 18.5 67t41 61t41 63.5t18.5 73.5q0 78 -96 78q-46 0 -115 -22q-22 -7 -27 13l-15 66q-3 16 16 25q73 31 161 31q101 0 153 -44t52 -126
q0 -43 -13.5 -81t-33 -64t-39 -49t-33 -47t-13.5 -46z" />
    <glyph glyph-name="at" unicode="@" horiz-adv-x="855" 
d="M497 230l20 141q-21 7 -49 7q-67 0 -99 -47t-32 -120q0 -93 67 -93q76 0 93 112zM621 -24q13 3 16 -12l6 -32q2 -12 -11 -15q-87 -29 -191 -29q-190 0 -287.5 77t-97.5 246q0 182 107 288.5t289 106.5q177 0 263 -80t86 -220q0 -125 -55 -199t-152 -74h-56q-23 0 -26 17
l-7 50q-40 -69 -122 -69q-70 0 -111 45.5t-41 125.5q0 113 59.5 187.5t183.5 74.5q78 0 136 -28q16 -7 14 -21l-44 -314h19q130 0 130 206q0 116 -65.5 175t-212.5 59q-150 0 -236 -87t-86 -243q0 -138 75.5 -198.5t236.5 -60.5q89 0 180 24z" />
    <glyph glyph-name="A" unicode="A" horiz-adv-x="583" 
d="M214 269h154l-75 304h-2zM234 704h115q25 0 31 -23l183 -655q3 -11 -2 -18.5t-17 -7.5h-88q-21 0 -27 22l-36 133h-203l-35 -133q-6 -22 -27 -22h-89q-11 0 -16.5 7.5t-2.5 18.5l183 655q6 23 31 23z" />
    <glyph glyph-name="B" unicode="B" horiz-adv-x="585" 
d="M189 414h101q59 0 84.5 22t25.5 71q0 48 -25 67.5t-85 19.5h-101v-180zM303 0h-220q-24 0 -24 24v657q0 23 24 23h211q119 0 176.5 -42t57.5 -139q0 -116 -87 -150q47 -14 76.5 -56t29.5 -113q0 -107 -62 -155.5t-182 -48.5zM189 111h105q67 0 95 22t28 78q0 54 -27 76.5
t-93 22.5h-108v-199z" />
    <glyph glyph-name="C" unicode="C" horiz-adv-x="515" 
d="M343 108q47 0 92 18q24 8 30 -16l18 -62q5 -18 -19 -29q-65 -29 -143 -29q-141 0 -210 85t-69 278q0 192 68 277t207 85q85 0 141 -28q23 -11 18 -29l-16 -62q-6 -23 -31 -15q-40 16 -90 16q-88 0 -126 -54.5t-38 -189.5q0 -136 38.5 -190.5t129.5 -54.5z" />
    <glyph glyph-name="D" unicode="D" horiz-adv-x="585" 
d="M252 0h-169q-24 0 -24 24v657q0 23 24 23h167q151 0 223.5 -78.5t72.5 -266.5q0 -197 -71.5 -278t-222.5 -81zM247 586h-56v-468h58q86 0 124.5 51t38.5 190q0 130 -39.5 178.5t-125.5 48.5z" />
    <glyph glyph-name="E" unicode="E" horiz-adv-x="483" 
d="M407 303h-218v-187h232q24 0 24 -23v-69q0 -24 -24 -24h-338q-24 0 -24 24v657q0 23 24 23h335q23 0 23 -23v-69q0 -24 -23 -24h-229v-173h218q23 0 23 -24v-64q0 -24 -23 -24z" />
    <glyph glyph-name="F" unicode="F" horiz-adv-x="469" 
d="M406 288h-216v-264q0 -24 -24 -24h-82q-25 0 -25 24v657q0 23 25 23h331q23 0 23 -22v-70q0 -24 -23 -24h-225v-186h216q24 0 24 -24v-67q0 -23 -24 -23z" />
    <glyph glyph-name="G" unicode="G" horiz-adv-x="587" 
d="M330 421h181q24 0 24 -23v-334q0 -24 -22 -36q-63 -38 -182 -38q-147 0 -218 83.5t-71 279.5q0 195 73 278.5t228 83.5q82 0 153 -31q24 -11 19 -29l-16 -62q-6 -24 -32 -15q-60 19 -108 19q-103 0 -143.5 -53t-40.5 -191t39 -192.5t130 -54.5q38 0 70 12v197h-84
q-24 0 -24 23v60q0 23 24 23z" />
    <glyph glyph-name="H" unicode="H" horiz-adv-x="595" 
d="M404 24v275h-213v-275q0 -24 -24 -24h-84q-24 0 -24 24v657q0 23 24 23h84q24 0 24 -23v-262h213v262q0 23 24 23h84q23 0 23 -23v-657q0 -24 -23 -24h-84q-24 0 -24 24z" />
    <glyph glyph-name="I" unicode="I" horiz-adv-x="261" 
d="M65 24v657q0 23 23 23h85q23 0 23 -23v-657q0 -24 -23 -24h-85q-23 0 -23 24z" />
    <glyph glyph-name="J" unicode="J" horiz-adv-x="401" 
d="M214 216v465q0 23 23 23h85q23 0 23 -23v-480q0 -110 -47 -159.5t-144 -49.5q-70 0 -116 21q-24 11 -19 32l15 65q5 23 26 16q41 -15 74 -15q41 0 60.5 24.5t19.5 80.5z" />
    <glyph glyph-name="K" unicode="K" horiz-adv-x="547" 
d="M191 437l184 248q14 19 33 19h98q13 0 17.5 -9t-3.5 -19l-224 -297l230 -350q8 -11 3.5 -20t-17.5 -9h-100q-20 0 -32 22l-189 290v-288q0 -24 -24 -24h-84q-24 0 -24 24v657q0 23 24 23h84q24 0 24 -23v-244z" />
    <glyph glyph-name="L" unicode="L" horiz-adv-x="458" 
d="M191 681v-561h210q24 0 24 -23v-73q0 -24 -24 -24h-318q-24 0 -24 24v657q0 23 24 23h84q24 0 24 -23z" />
    <glyph glyph-name="M" unicode="M" horiz-adv-x="696" 
d="M348 179q-16 0 -22 14l-138 275v-444q0 -24 -23 -24h-82q-24 0 -24 24v657q0 23 24 23h79q20 0 28 -15l158 -314l158 314q8 15 29 15h78q24 0 24 -23v-657q0 -24 -24 -24h-82q-23 0 -23 24v444l-138 -275q-6 -14 -22 -14z" />
    <glyph glyph-name="N" unicode="N" horiz-adv-x="603" 
d="M544 682v-658q0 -24 -24 -24h-80q-22 0 -30 18l-223 443v-437q0 -24 -23 -24h-81q-24 0 -24 24v657q0 23 24 23h80q22 0 30 -17l223 -444v438q0 23 23 23h81q24 0 24 -22z" />
    <glyph glyph-name="O" unicode="O" horiz-adv-x="608" 
d="M304 715q130 0 196.5 -85.5t66.5 -277.5q0 -191 -66 -276.5t-197 -85.5t-197 85.5t-66 276.5q0 192 66.5 277.5t196.5 85.5zM304 106q67 0 98 56t31 190t-31 190.5t-98 56.5t-98 -56.5t-31 -190.5t31 -190t98 -56z" />
    <glyph glyph-name="P" unicode="P" horiz-adv-x="561" 
d="M190 320h70q71 0 99 28.5t28 105.5q0 76 -28 105t-99 29h-70v-268zM167 0h-84q-24 0 -24 24v657q0 23 24 23h178q136 0 197.5 -56.5t61.5 -193.5t-61.5 -193.5t-197.5 -56.5h-71v-180q0 -24 -23 -24z" />
    <glyph glyph-name="Q" unicode="Q" horiz-adv-x="607" 
d="M409 24q34 -13 72 -13q8 0 19 1t15 1q21 1 21 -18v-59q0 -25 -31 -25q-132 0 -232 87q-116 9 -174 94t-58 263q0 190 66 275t197 85q130 0 197 -85.5t66 -274.5q-1 -136 -42 -219t-116 -112zM304 110q67 0 98 56t31 189q0 131 -31 187.5t-99 56.5q-67 0 -97.5 -56.5
t-30.5 -187.5q0 -133 31 -189t98 -56z" />
    <glyph glyph-name="R" unicode="R" horiz-adv-x="564" 
d="M190 345h78q70 0 97 27.5t27 93.5q0 69 -27.5 95.5t-97.5 26.5h-77v-243zM83 704h186q135 0 195.5 -54.5t60.5 -183.5q0 -177 -141 -214l135 -223q7 -11 3.5 -20t-17.5 -9h-90q-21 0 -33 19l-127 214h-65v-209q0 -24 -23 -24h-84q-24 0 -24 24v657q0 23 24 23z" />
    <glyph glyph-name="S" unicode="S" horiz-adv-x="489" 
d="M456 185q0 -98 -63.5 -146t-170.5 -48q-106 0 -167 26q-24 10 -20 29l15 64q5 26 30 16q57 -21 122 -21q121 0 121 82q0 37 -26 61.5t-88 58.5q-39 20 -64 36.5t-51 42.5t-39 61t-13 79q0 95 54.5 142t168.5 47q80 0 145 -24q24 -9 19 -28l-15 -63q-5 -24 -30 -16
q-48 16 -106 16q-54 0 -78.5 -18t-24.5 -58q0 -36 27 -61.5t82 -55.5q45 -25 68.5 -41t51.5 -42.5t40 -60.5t12 -78z" />
    <glyph glyph-name="T" unicode="T" horiz-adv-x="474" 
d="M23 609v72q0 23 24 23h380q24 0 24 -23v-72q0 -24 -24 -24h-124v-561q0 -24 -24 -24h-84q-24 0 -24 24v561h-124q-24 0 -24 24z" />
    <glyph glyph-name="U" unicode="U" horiz-adv-x="585" 
d="M293 -10q-121 0 -179 58.5t-58 180.5v452q0 23 23 23h84q24 0 24 -23v-438q0 -69 24.5 -101.5t81.5 -32.5t81 32t24 101v439q0 23 23 23h85q23 0 23 -23v-452q0 -122 -58 -180.5t-178 -58.5z" />
    <glyph glyph-name="V" unicode="V" horiz-adv-x="576" 
d="M346 0h-117q-23 0 -30 25l-176 653q-7 26 19 26h92q20 0 26 -22l95 -390l31 -155h3l31 155l95 390q6 22 27 22h92q24 0 18 -26l-175 -653q-7 -25 -31 -25z" />
    <glyph glyph-name="W" unicode="W" horiz-adv-x="895" 
d="M407 704h81q23 0 29 -22l74 -352l34 -172h3l32 171l72 353q4 22 27 22h90q24 0 19 -26l-150 -653q-6 -25 -30 -25h-107q-24 0 -30 25l-70 301l-33 164h-2l-33 -164l-68 -301q-6 -25 -31 -25h-106q-24 0 -31 25l-149 653q-6 26 18 26h91q20 0 26 -22l73 -353l31 -171h3
l34 172l75 352q3 22 28 22z" />
    <glyph glyph-name="X" unicode="X" horiz-adv-x="558" 
d="M279 245l-116 -224q-11 -21 -32 -21h-91q-12 0 -16.5 9t1.5 19l180 328l-176 321q-6 10 -2 18.5t16 8.5h93q22 0 32 -20l112 -217l110 217q11 20 32 20h93q12 0 16.5 -9t-1.5 -18l-177 -320l181 -329q6 -10 1.5 -19t-16.5 -9h-91q-22 0 -33 21z" />
    <glyph glyph-name="Y" unicode="Y" horiz-adv-x="564" 
d="M348 263v-239q0 -24 -24 -24h-85q-23 0 -23 24v239l-194 413q-5 10 -0.5 19t17.5 9h90q22 0 30 -21l87 -207l35 -100h1l36 100l87 207q8 21 30 21h90q13 0 17.5 -9t-0.5 -19z" />
    <glyph glyph-name="Z" unicode="Z" horiz-adv-x="514" 
d="M41 24v69q0 19 12 36l263 456h-242q-23 0 -23 24v72q0 23 23 23h368q23 0 23 -23v-69q0 -18 -12 -37l-261 -456h256q23 0 23 -23v-72q0 -24 -23 -24h-383q-24 0 -24 24z" />
    <glyph glyph-name="bracketleft" unicode="[" horiz-adv-x="321" 
d="M287 -35v-53q0 -22 -21 -22h-164q-22 0 -22 22v771q0 21 22 21h164q21 0 21 -21v-53q0 -22 -21 -22h-69v-622h69q21 0 21 -21z" />
    <glyph glyph-name="backslash" unicode="\" horiz-adv-x="387" 
d="M130 684l248 -658q9 -26 -18 -26h-74q-21 0 -29 20l-248 658q-10 26 18 26h75q20 0 28 -20z" />
    <glyph glyph-name="bracketright" unicode="]" horiz-adv-x="323" 
d="M35 -88v53q0 21 22 21h69v622h-69q-22 0 -22 22v53q0 21 22 21h163q22 0 22 -21v-771q0 -22 -22 -22h-163q-22 0 -22 22z" />
    <glyph glyph-name="asciicircum" unicode="^" horiz-adv-x="541" 
d="M236 704h69q20 0 29 -18l157 -313q6 -12 1.5 -19.5t-17.5 -7.5h-72q-19 0 -29 19l-104 214l-103 -214q-10 -19 -29 -19h-73q-12 0 -16.5 7.5t1.5 19.5l157 313q8 18 29 18z" />
    <glyph glyph-name="underscore" unicode="_" horiz-adv-x="457" 
d="M418 -110h-379q-22 0 -22 22v29q0 22 22 22h379q22 0 22 -22v-29q0 -22 -22 -22z" />
    <glyph glyph-name="grave" unicode="`" horiz-adv-x="309" 
d="M193 690l39 -82q7 -18 -13 -18h-49q-17 0 -29 12l-78 80q-7 8 -4.5 16t13.5 8h96q19 0 25 -16z" />
    <glyph glyph-name="a" unicode="a" horiz-adv-x="487" 
d="M437 372v-350q0 -22 -22 -22h-66q-21 0 -23 19l-3 46q-42 -72 -146 -72q-69 0 -108.5 40.5t-39.5 115.5q0 43 14 75t37.5 51.5t62 31.5t79 17t96.5 6v33q0 42 -21 61t-70 19q-56 0 -126 -25q-21 -7 -26 15l-11 58q-4 18 15 26q65 28 164 28q101 0 147.5 -42.5
t46.5 -130.5zM318 195v57q-89 -3 -130 -22t-41 -74q0 -73 68 -73q50 0 76.5 31.5t26.5 80.5z" />
    <glyph glyph-name="b" unicode="b" horiz-adv-x="542" 
d="M178 268q0 -174 104 -174q51 0 74.5 40.5t23.5 133.5t-23.5 133.5t-74.5 40.5q-104 0 -104 -174zM176 65l-3 -46q-2 -19 -23 -19h-73q-22 0 -22 22v661q0 21 22 21h80q22 0 22 -21v-208q16 32 53.5 51.5t83.5 19.5q190 0 190 -278q0 -277 -191 -277q-47 0 -85 20t-54 54z
" />
    <glyph glyph-name="c" unicode="c" horiz-adv-x="424" 
d="M36 269q0 139 57.5 208t165.5 69q74 0 118 -22q21 -10 16 -28l-16 -58q-5 -20 -29 -12q-36 12 -70 12q-60 0 -88 -39.5t-28 -129.5t28 -130.5t86 -40.5q37 0 78 15q22 8 27 -12l15 -59q4 -17 -16 -27q-46 -24 -115 -24q-229 0 -229 278z" />
    <glyph glyph-name="d" unicode="d" horiz-adv-x="542" 
d="M365 268q0 174 -104 174q-51 0 -75 -40.5t-24 -133.5t24 -133.5t75 -40.5q104 0 104 174zM369 19l-2 46q-16 -34 -54.5 -54t-86.5 -20q-189 0 -189 277q0 278 190 278q46 0 83.5 -19.5t52.5 -51.5v208q0 21 23 21h79q22 0 22 -21v-661q0 -22 -22 -22h-73q-21 0 -23 19z
" />
    <glyph glyph-name="e" unicode="e" horiz-adv-x="493" 
d="M293 88q56 0 104 20q23 9 29 -15l11 -49q4 -18 -17 -28q-63 -26 -137 -26q-247 0 -247 278q0 139 55.5 208.5t161.5 69.5q102 0 153 -65.5t51 -184.5v-54q0 -23 -23 -23h-276q11 -131 135 -131zM254 450q-47 0 -70.5 -35t-27.5 -112h187v8q0 139 -89 139z" />
    <glyph glyph-name="f" unicode="f" horiz-adv-x="321" 
d="M203 523h81q21 0 21 -22v-60q0 -22 -21 -22h-81v-398q0 -21 -22 -21h-77q-23 0 -23 21v398h-43q-21 0 -21 21v61q0 22 21 22h43v39q0 81 34 115.5t109 34.5q40 0 66 -9q16 -5 17 -22v-51q0 -11 -4.5 -16.5t-15.5 -4.5q-18 2 -34 2q-28 0 -39 -13t-11 -47v-28z" />
    <glyph glyph-name="g" unicode="g" horiz-adv-x="518" 
d="M344 301q0 147 -93 147q-90 0 -90 -149t90 -149q45 0 69 38.5t24 112.5zM464 514v-438q0 -196 -222 -196q-100 0 -152 24q-20 8 -16 26l11 54q5 22 27 15q60 -20 119 -20q115 0 115 103v43q-15 -33 -49 -51t-79 -18q-181 0 -181 243q0 246 179 246q45 0 80 -20.5
t51 -51.5l3 44q2 19 23 19h70q21 0 21 -22z" />
    <glyph glyph-name="h" unicode="h" horiz-adv-x="522" 
d="M472 365v-343q0 -22 -22 -22h-80q-21 0 -21 22v319q0 47 -17 70.5t-58 23.5q-47 0 -71 -31.5t-24 -85.5v-296q0 -22 -22 -22h-80q-22 0 -22 22v661q0 21 22 21h80q22 0 22 -21v-207q40 70 138 70q78 0 116.5 -47.5t38.5 -133.5z" />
    <glyph glyph-name="i" unicode="i" horiz-adv-x="235" 
d="M179 514v-492q0 -22 -22 -22h-79q-22 0 -22 22v492q0 22 22 22h79q22 0 22 -22zM180 680v-66q0 -23 -21 -23h-83q-21 0 -21 23v66q0 22 21 22h83q21 0 21 -22z" />
    <glyph glyph-name="j" unicode="j" horiz-adv-x="251" 
d="M72 45v469q0 22 22 22h80q21 0 21 -22v-486q0 -79 -29 -111t-100 -32q-38 0 -60 6q-18 5 -18 22v61q0 21 20 19q18 -2 28 -2q19 0 27.5 11.5t8.5 42.5zM197 680v-66q0 -23 -22 -23h-83q-21 0 -21 23v66q0 22 21 22h83q22 0 22 -22z" />
    <glyph glyph-name="k" unicode="k" horiz-adv-x="471" 
d="M445 0h-94q-21 0 -32 18l-140 209v-205q0 -22 -22 -22h-80q-22 0 -22 22v661q0 21 22 21h80q22 0 22 -21v-326l135 164q12 15 32 15h93q13 0 16 -9.5t-6 -19.5l-180 -210l189 -270q7 -10 3 -18.5t-16 -8.5z" />
    <glyph glyph-name="l" unicode="l" horiz-adv-x="235" 
d="M179 683v-661q0 -22 -22 -22h-79q-22 0 -22 22v661q0 21 22 21h79q22 0 22 -21z" />
    <glyph glyph-name="m" unicode="m" horiz-adv-x="779" 
d="M452 328v-306q0 -22 -22 -22h-78q-22 0 -22 22v322q0 46 -15 68.5t-51 22.5q-43 0 -66 -30.5t-23 -82.5v-300q0 -22 -22 -22h-78q-22 0 -22 22v492q0 22 22 22h73q22 0 24 -19l3 -44q16 30 49.5 51.5t82.5 21.5q95 0 127 -80q47 80 148 80q74 0 110 -46.5t36 -129.5v-348
q0 -22 -21 -22h-79q-22 0 -22 22v322q0 46 -15 68.5t-52 22.5q-41 0 -64 -30t-23 -77z" />
    <glyph glyph-name="n" unicode="n" horiz-adv-x="517" 
d="M467 365v-343q0 -22 -22 -22h-80q-22 0 -22 22v319q0 47 -17 70.5t-57 23.5q-46 0 -70 -31t-24 -86v-296q0 -22 -22 -22h-79q-22 0 -22 22v492q0 22 22 22h72q22 0 24 -19l3 -44q43 73 140 73q77 0 115.5 -47.5t38.5 -133.5z" />
    <glyph glyph-name="o" unicode="o" horiz-adv-x="518" 
d="M259 -9q-223 0 -223 277q0 278 223 278t223 -278q0 -277 -223 -277zM259 93q49 0 73 41.5t24 133.5t-23.5 133.5t-73.5 41.5t-73.5 -41t-23.5 -134q0 -92 23.5 -133.5t73.5 -41.5z" />
    <glyph glyph-name="p" unicode="p" horiz-adv-x="540" 
d="M175 268q0 -174 104 -174q51 0 74.5 40.5t23.5 133.5t-23.5 133.5t-74.5 40.5q-104 0 -104 -174zM171 517l2 -46q16 33 54.5 54t85.5 21q190 0 190 -278q0 -277 -190 -277q-47 0 -84 18.5t-53 51.5v-149q0 -22 -22 -22h-79q-22 0 -22 22v602q0 22 22 22h72q22 0 24 -19z
" />
    <glyph glyph-name="q" unicode="q" horiz-adv-x="540" 
d="M365 268q0 174 -104 174q-51 0 -75 -40.5t-24 -133.5t24 -133.5t75 -40.5q104 0 104 174zM367 471l2 46q2 19 23 19h73q22 0 22 -22v-602q0 -22 -22 -22h-79q-23 0 -23 22v148q-15 -33 -52 -51t-85 -18q-189 0 -189 277q0 278 190 278q46 0 85 -21t55 -54z" />
    <glyph glyph-name="r" unicode="r" horiz-adv-x="347" 
d="M75 536h74q21 0 23 -21l3 -65q13 36 47 63.5t82 27.5q22 0 22 -21v-93q0 -19 -19 -19q-4 0 -13.5 1t-17.5 1q-45 1 -72.5 -38.5t-27.5 -99.5v-250q0 -22 -22 -22h-79q-22 0 -22 22v492q0 22 22 22z" />
    <glyph glyph-name="s" unicode="s" horiz-adv-x="408" 
d="M379 145q0 -154 -193 -154q-82 0 -141 21q-20 6 -17 24l10 57q3 22 26 14q48 -16 105 -16q89 0 89 58q0 26 -21.5 43t-73.5 40q-70 33 -92 53q-42 39 -42 110q0 151 182 151q74 0 130 -20q20 -6 16 -24l-10 -55q-3 -22 -25 -15q-44 14 -91 14q-42 0 -61.5 -12.5
t-19.5 -41.5q0 -25 21.5 -41t74.5 -40q68 -31 100.5 -66.5t32.5 -99.5z" />
    <glyph glyph-name="t" unicode="t" horiz-adv-x="329" 
d="M282 419h-84v-249q0 -41 11 -55.5t44 -14.5q6 0 15.5 1.5t13.5 1.5q19 0 20 -20l5 -58q1 -17 -17 -23q-24 -8 -68 -8q-79 0 -112 35.5t-33 123.5v266h-44q-21 0 -21 21v61q0 22 21 22h46v117q0 20 21 20h75q22 0 22 -20v-117h85q22 0 22 -22v-60q0 -22 -22 -22z" />
    <glyph glyph-name="u" unicode="u" horiz-adv-x="513" 
d="M49 167v347q0 22 22 22h79q22 0 22 -22v-319q0 -47 16 -71t56 -24q44 0 68.5 30.5t24.5 84.5v299q0 22 22 22h79q22 0 22 -22v-492q0 -22 -22 -22h-73q-22 0 -24 19l-3 44q-40 -72 -134 -72q-155 0 -155 176z" />
    <glyph glyph-name="v" unicode="v" horiz-adv-x="467" 
d="M280 0h-94q-21 0 -27 20l-141 491q-7 25 16 25h84q20 0 25 -22l64 -260l25 -117h3l26 117l63 260q5 22 25 22h84q24 0 17 -25l-142 -491q-6 -20 -28 -20z" />
    <glyph glyph-name="w" unicode="w" horiz-adv-x="733" 
d="M333 536h67q19 0 24 -20l63 -265l21 -113h3l19 113l54 263q5 22 25 22h85q23 0 16 -25l-118 -489q-6 -22 -28 -22h-86q-22 0 -28 22l-56 227l-26 124h-3l-26 -124l-55 -227q-6 -22 -29 -22h-86q-22 0 -28 22l-119 489q-7 25 18 25h84q20 0 25 -22l55 -263l18 -113h2
l22 113l63 265q5 20 24 20z" />
    <glyph glyph-name="x" unicode="x" horiz-adv-x="469" 
d="M153 519l82 -153l82 153q8 17 30 17h85q10 0 13.5 -8t-2.5 -18l-142 -238l147 -247q6 -9 2.5 -17t-14.5 -8h-89q-20 0 -29 17l-84 159l-85 -159q-9 -17 -29 -17h-88q-11 0 -14 7.5t3 17.5l147 247l-143 238q-6 10 -3 18t14 8h87q20 0 30 -17z" />
    <glyph glyph-name="y" unicode="y" horiz-adv-x="466" 
d="M449 511l-126 -470q-23 -88 -58.5 -122.5t-118.5 -34.5q-59 0 -84 10q-20 6 -19 22l7 58q3 19 21 18q2 0 18 -2.5t30 -2.5q49 0 49 42q0 14 -6 32l-143 450q-8 25 16 25h84q20 0 26 -22l70 -263l26 -117h3l23 117l56 263q5 22 25 22h83q25 0 18 -25z" />
    <glyph glyph-name="z" unicode="z" horiz-adv-x="440" 
d="M398 514v-48q0 -12 -10 -30l-202 -329h193q22 0 22 -21v-64q0 -22 -22 -22h-320q-22 0 -22 22v48q0 15 9 28l204 330h-184q-22 0 -22 22v64q0 22 22 22h310q22 0 22 -22z" />
    <glyph glyph-name="braceleft" unicode="{" horiz-adv-x="321" 
d="M24 265v64q0 21 21 21h13q25 0 35.5 36t10.5 124q0 114 27.5 154t108.5 40h37q23 0 23 -21v-52q0 -23 -23 -23h-14q-27 0 -36 -25.5t-9 -92.5q0 -92 -18 -137t-58 -56q40 -11 58 -55.5t18 -136.5q0 -68 9 -93.5t36 -25.5h14q23 0 23 -22v-52q0 -22 -23 -22h-37
q-81 0 -108.5 40t-27.5 155q0 87 -10.5 123.5t-35.5 36.5h-13q-21 0 -21 20z" />
    <glyph glyph-name="bar" unicode="|" horiz-adv-x="286" 
d="M199 702v-790q0 -22 -21 -22h-70q-22 0 -22 22v790q0 22 22 22h70q21 0 21 -22z" />
    <glyph glyph-name="braceright" unicode="}" horiz-adv-x="321" 
d="M298 329v-64q0 -20 -22 -20h-12q-25 0 -35.5 -36.5t-10.5 -124.5q0 -114 -28 -154t-108 -40h-38q-22 0 -22 22v52q0 22 22 22h14q28 0 37 25.5t9 93.5q0 92 18 136.5t58 55.5q-40 11 -58 56t-18 137q0 68 -9 93t-37 25h-14q-22 0 -22 23v52q0 21 22 21h38q80 0 108 -40
t28 -154q0 -88 10.5 -124t35.5 -36h12q22 0 22 -21z" />
    <glyph glyph-name="asciitilde" unicode="~" horiz-adv-x="541" 
d="M155 443q44 0 96 -24l50 -23q37 -16 56 -16q28 0 43 31q1 2 8 19q5 17 25 7l47 -22q14 -7 13 -26q-5 -54 -33 -86.5t-74 -32.5q-44 0 -96 24l-49 22q-36 17 -57 17q-29 0 -43 -31q-1 -2 -8 -19q-5 -17 -25 -7l-47 22q-14 7 -13 25q5 55 33 87.5t74 32.5z" />
    <glyph glyph-name="uni00A0" unicode="&#xa0;" horiz-adv-x="0" 
 />
    <glyph glyph-name="exclamdown" unicode="&#xa1;" horiz-adv-x="266" 
d="M200 513v-94q0 -23 -23 -23h-88q-23 0 -23 23v94q0 23 22 23h90q22 0 22 -23zM104 323h58q20 0 22 -22l20 -399q1 -23 -22 -23h-98q-24 0 -23 23l20 399q2 22 23 22z" />
    <glyph glyph-name="cent" unicode="&#xa2;" horiz-adv-x="441" 
d="M37 268q0 251 192 276v65q0 22 21 22h38q22 0 22 -22v-66q46 -4 83 -21q20 -10 15 -26l-16 -58q-5 -20 -27 -13q-33 13 -78 13q-63 0 -93.5 -40t-30.5 -130t30.5 -130t94.5 -40q43 0 81 14q22 8 28 -13l15 -57q4 -18 -15 -27q-33 -18 -87 -22v-67q0 -21 -22 -21h-38
q-21 0 -21 21v68q-192 24 -192 274z" />
    <glyph glyph-name="sterling" unicode="&#xa3;" horiz-adv-x="574" 
d="M136 318h-83q-18 0 -18 18v35q0 18 18 18h53q-34 80 -34 128q0 89 57 143.5t173 54.5q105 0 159.5 -47t54.5 -133q0 -49 -20 -49h-73q-11 0 -16 4t-4 14q0 5 1 14t1 15q0 33 -25 53t-73 20q-55 0 -82 -25.5t-27 -70.5q0 -37 32 -121h143q19 0 19 -18v-35q0 -18 -19 -18
h-120q15 -42 15 -74q0 -88 -75 -135q27 10 62 10q26 0 64 -9t60 -9q33 0 45.5 20t14.5 56q2 20 24 20h59q24 0 24 -27q0 -86 -29 -131.5t-99 -45.5q-42 0 -101 14.5t-95 14.5q-64 0 -113 -25q-19 -9 -26 2l-45 65q-10 13 4 24q110 78 110 158q0 31 -16 72z" />
    <glyph glyph-name="currency" unicode="&#xa4;" horiz-adv-x="560" 
d="M67 119l47 47q-27 44 -27 117t27 117l-47 48q-12 12 0 26l22 23q12 14 26 0l45 -45q45 42 120 42q76 0 120 -43l45 46q12 12 26 0l23 -23q12 -13 0 -26l-49 -49q28 -48 28 -116t-28 -116l49 -48q13 -11 0 -26l-23 -23q-14 -14 -26 0l-45 46q-44 -43 -120 -43
q-77 0 -120 43l-45 -46q-13 -13 -26 0l-22 23q-12 14 0 26zM378 283q0 61 -26 92.5t-72 31.5q-47 0 -73 -31.5t-26 -92.5t26 -92.5t73 -31.5q46 0 72 31.5t26 92.5z" />
    <glyph glyph-name="yen" unicode="&#xa5;" horiz-adv-x="564" 
d="M348 169v-145q0 -24 -24 -24h-84q-24 0 -24 24v145h-141q-18 0 -18 19v33q0 18 18 18h141v18l-27 59h-114q-18 0 -18 19v33q0 18 18 18h82l-137 290q-5 10 -0.5 19t17.5 9h89q22 0 30 -21l125 -300h3l124 300q8 21 30 21h89q13 0 17.5 -9t-0.5 -19l-138 -290h83
q19 0 19 -18v-33q0 -19 -19 -19h-115l-26 -59v-18h141q19 0 19 -18v-33q0 -19 -19 -19h-141z" />
    <glyph glyph-name="brokenbar" unicode="&#xa6;" horiz-adv-x="286" 
d="M199 702v-290q0 -22 -21 -22h-70q-22 0 -22 22v290q0 22 22 22h70q21 0 21 -22zM199 202v-290q0 -22 -21 -22h-70q-22 0 -22 22v290q0 22 22 22h70q21 0 21 -22z" />
    <glyph glyph-name="section" unicode="&#xa7;" horiz-adv-x="588" 
d="M63 318q0 44 24 78t68 46q-66 52 -66 115q0 81 51 119.5t163 38.5q82 0 152 -20q22 -7 21 -28l-4 -58q-2 -24 -29 -16q-55 15 -121 15q-58 0 -82 -15t-24 -47q0 -7 2 -13.5t6.5 -12.5t9 -10.5t13 -10t15 -9t18.5 -9.5t19.5 -9t23 -9t23.5 -10q92 -40 135 -76t43 -98
q0 -87 -92 -121q72 -46 72 -115q0 -78 -61.5 -118.5t-178.5 -40.5q-102 0 -156 18q-22 7 -21 29l4 57q2 23 29 17q57 -15 132 -15q125 0 125 62q0 14 -7 25.5t-23 21.5t-29.5 16t-38 16t-36.5 16q-98 41 -139 74t-41 97zM247 387q-31 -4 -49 -22.5t-18 -42.5q0 -32 32 -52
t112 -51q10 -4 16 -6q30 4 48.5 21.5t19.5 39.5q0 33 -37.5 56.5t-123.5 56.5z" />
    <glyph glyph-name="dieresis" unicode="&#xa8;" horiz-adv-x="309" 
d="M123 671v-60q0 -21 -21 -21h-70q-22 0 -22 21v60q0 21 22 21h70q21 0 21 -21zM299 671v-60q0 -21 -21 -21h-70q-22 0 -22 21v60q0 21 22 21h70q21 0 21 -21z" />
    <glyph glyph-name="copyright" unicode="&#xa9;" horiz-adv-x="784" 
d="M423 229q31 0 62 11q17 7 20 -10l12 -45q3 -13 -11 -20q-42 -19 -96 -19q-185 0 -186 210q1 209 185 209q52 0 94 -19q16 -7 12 -20l-13 -46q-5 -16 -20 -9q-26 10 -60 10q-49 0 -73.5 -29t-24.5 -96t24.5 -97t74.5 -30zM119 352q0 -130 69 -212t204 -82t204 82t69 212
t-69 212.5t-204 82.5t-204 -82.5t-69 -212.5zM47 352q0 156 89.5 259.5t255.5 103.5t256 -103.5t90 -259.5q0 -75 -22 -139.5t-64 -114.5t-109 -79t-151 -29q-111 0 -191 50.5t-117 130.5t-37 181z" />
    <glyph glyph-name="ordfeminine" unicode="&#xaa;" horiz-adv-x="395" 
d="M256 643v44q-70 0 -103 -15t-33 -56q0 -57 53 -57q41 0 62 23t21 61zM260 508l-2 28q-32 -52 -115 -52q-56 0 -88.5 32t-32.5 92q0 45 17.5 74.5t52.5 44t72 19.5t92 6v31q0 32 -16.5 44.5t-55.5 12.5q-43 0 -101 -20q-20 -7 -24 13l-12 46q-3 14 14 21q60 25 133 25
q161 0 161 -134v-281q0 -21 -21 -21h-52q-20 0 -22 19z" />
    <glyph glyph-name="guillemotleft" unicode="&#xab;" horiz-adv-x="436" 
d="M29 283q0 6 3 11l68 138q8 16 26 16h69q10 0 14 -6.5t-1 -15.5l-72 -143l72 -142q10 -22 -13 -22h-69q-17 0 -26 16l-68 138q-3 4 -3 10zM213 283q0 3 3 11l68 138q8 16 26 16h69q11 0 14 -6t-2 -16l-70 -143l70 -142q5 -10 2 -16t-14 -6h-69q-17 0 -26 16l-68 138
q-3 6 -3 10z" />
    <glyph glyph-name="logicalnot" unicode="&#xac;" horiz-adv-x="550" 
d="M482 383v-235q0 -23 -22 -23h-75q-22 0 -22 22v152h-291q-22 0 -22 22v62q0 21 22 21h388q22 0 22 -21z" />
    <glyph glyph-name="uni00AD" unicode="&#xad;" horiz-adv-x="335" 
d="M279 226h-223q-21 0 -21 21v60q0 21 21 21h223q22 0 22 -21v-60q0 -21 -22 -21z" />
    <glyph glyph-name="registered" unicode="&#xae;" horiz-adv-x="425" 
d="M194 543h20q20 0 27.5 6t7.5 23q0 16 -7.5 22t-26.5 6h-21v-57zM213 715q80 0 123.5 -50.5t43.5 -125.5q0 -74 -43.5 -125t-123.5 -51t-124 51t-44 125q0 75 44 125.5t124 50.5zM213 399q65 0 97 38.5t32 101.5t-32 102t-97 39q-66 0 -98 -39t-32 -102t32 -101.5
t98 -38.5zM146 453v178q0 9 10 9h63q79 0 79 -68q0 -49 -40 -61l36 -57q2 -4 0.5 -7.5t-6.5 -3.5h-32q-6 0 -11 7l-33 55h-18v-52q0 -10 -9 -10h-29q-10 0 -10 10z" />
    <glyph glyph-name="macron" unicode="&#xaf;" horiz-adv-x="309" 
d="M285 595h-261q-21 0 -21 21v34q0 20 21 20h261q21 0 21 -20v-34q0 -21 -21 -21z" />
    <glyph glyph-name="degree" unicode="&#xb0;" horiz-adv-x="350" 
d="M175 493q33 0 53 21.5t20 56.5t-20 56.5t-53 21.5t-53 -21.5t-20 -56.5t19.5 -56.5t53.5 -21.5zM175 428q-63 0 -102.5 40t-39.5 103t39.5 102.5t102.5 39.5t102.5 -39.5t39.5 -101.5q0 -63 -39.5 -103.5t-102.5 -40.5z" />
    <glyph glyph-name="plusminus" unicode="&#xb1;" horiz-adv-x="541" 
d="M472 334h-145v-157q0 -21 -21 -21h-71q-22 0 -22 21v157h-145q-21 0 -21 21v60q0 21 22 21h144v152q0 22 22 22h71q21 0 21 -22v-152h145q22 0 22 -21v-60q0 -21 -22 -21zM472 0h-404q-21 0 -21 22v43q0 21 22 21h403q22 0 22 -21v-43q0 -22 -22 -22z" />
    <glyph glyph-name="two.superior" unicode="&#xb2;" 
d="M126 797q0 -5 1 -13.5t1 -13.5q0 -17 -20 -17h-50q-16 0 -19 19q-3 10 -3 27q0 58 37 92t109 34q73 0 108 -34.5t35 -91.5q0 -116 -152 -228h139q20 0 20 -20v-42q0 -20 -20 -20h-252q-20 0 -20 20v38q0 11 14 21q175 131 175 225q0 51 -52 51q-51 0 -51 -47z" />
    <glyph glyph-name="three.superior" unicode="&#xb3;" 
d="M165 670h-41q-20 0 -20 20v37q0 20 20 20h40q57 0 57 50q0 47 -72 47q-26 0 -77 -15q-19 -6 -24 11l-10 44q-3 13 12 20q44 21 115 21q151 0 151 -113q0 -72 -56 -93q63 -25 63 -103q0 -133 -157 -133q-72 0 -119 21q-10 5 -13 9t-1 12l10 43q5 20 25 12q41 -15 85 -15
q73 0 73 55q0 50 -61 50z" />
    <glyph glyph-name="acute" unicode="&#xb4;" horiz-adv-x="309" 
d="M78 608l38 82q8 16 25 16h97q10 0 12.5 -8t-4.5 -16l-78 -80q-11 -12 -29 -12h-48q-20 0 -13 18z" />
    <glyph glyph-name="mu" unicode="&#xb5;" horiz-adv-x="515" 
d="M464 514v-349q0 -175 -153 -175q-95 0 -136 73l1 -152q0 -21 -23 -21h-78q-22 0 -22 22v602q0 22 22 22h79q22 0 22 -22v-299q0 -53 25 -84t68 -31q41 0 56.5 23.5t15.5 70.5v320q0 22 22 22h79q22 0 22 -22z" />
    <glyph glyph-name="paragraph" unicode="&#xb6;" horiz-adv-x="504" 
d="M466 632h-33q-29 0 -40.5 -12t-11.5 -43v-571q0 -63 -25 -92t-81 -29q-39 0 -62 10q-13 4 -13 19v32q0 15 17 15q4 0 17 -2t20 -2q22 0 32 13.5t10 45.5v256h-29q-104 0 -165 55.5t-61 160.5q0 106 59.5 161t164.5 55h201q21 0 21 -20v-32q0 -20 -21 -20z" />
    <glyph glyph-name="periodcentered" unicode="&#xb7;" horiz-adv-x="222" 
d="M47 226v91q0 22 23 22h82q23 0 23 -22v-91q0 -23 -22 -23h-84q-22 0 -22 23z" />
    <glyph glyph-name="cedilla" unicode="&#xb8;" horiz-adv-x="309" 
d="M108 10h45q44 -11 75 -36.5t31 -59.5q0 -71 -96 -71q-30 0 -45 5q-12 4 -12 16v32q0 11 12 11h30q37 0 37 27q0 42 -77 76z" />
    <glyph glyph-name="one.superior" unicode="&#xb9;" 
d="M167 809l-59 -44q-16 -11 -28 3l-25 32q-10 14 3 26l105 85q10 8 26 8h53q21 0 21 -21v-388q0 -21 -21 -21h-54q-21 0 -21 21v299z" />
    <glyph glyph-name="ordmasculine" unicode="&#xba;" horiz-adv-x="414" 
d="M207 839q-39 0 -57.5 -32t-18.5 -103q0 -70 18.5 -102t57.5 -32t57.5 32t18.5 102q0 71 -18.5 103t-57.5 32zM207 484q-180 0 -180 220q0 222 180 222t180 -222q0 -220 -180 -220z" />
    <glyph glyph-name="guillemotright" unicode="&#xbb;" horiz-adv-x="436" 
d="M407 283q0 -4 -3 -10l-68 -138q-9 -16 -26 -16h-69q-10 0 -13.5 6t1.5 16l71 142l-71 143q-5 10 -1.5 16t13.5 6h69q18 0 26 -16l68 -138q3 -5 3 -11zM223 283q0 -4 -3 -10l-69 -138q-7 -16 -25 -16h-68q-11 0 -14.5 6t1.5 16l71 142l-71 143q-5 10 -1.5 16t14.5 6h68
q17 0 25 -16l69 -138q3 -7 3 -11z" />
    <glyph glyph-name="onequarter" unicode="&#xbc;" horiz-adv-x="868" 
d="M674 683l-352 -665q-9 -18 -28 -18h-58q-23 0 -12 22l352 664q9 18 28 18h58q23 0 12 -21zM167 594l-59 -44q-16 -11 -28 3l-25 32q-10 14 3 26l105 85q10 8 26 8h53q21 0 21 -21v-388q0 -21 -21 -21h-54q-21 0 -21 21v299zM704 317l-102 -148h102v148zM830 89h-31v-68
q0 -21 -21 -21h-54q-20 0 -20 21v68h-169q-19 0 -19 19v41q0 13 7 22l176 246q10 13 23 13h56q21 0 21 -21v-240h31q21 0 21 -20v-40q0 -20 -21 -20z" />
    <glyph glyph-name="onehalf" unicode="&#xbd;" horiz-adv-x="868" 
d="M640 683l-352 -665q-9 -18 -28 -18h-58q-23 0 -12 22l352 664q9 18 28 18h58q23 0 12 -21zM167 594l-59 -44q-16 -11 -28 3l-25 32q-10 14 3 26l105 85q10 8 26 8h53q21 0 21 -21v-388q0 -21 -21 -21h-54q-21 0 -21 21v299zM625 308q0 47 51 47q52 0 52 -51
q0 -94 -175 -225q-14 -10 -14 -21v-38q0 -20 20 -20h252q20 0 20 20v42q0 20 -20 20h-139q152 112 152 228q0 57 -35 91.5t-108 34.5q-72 0 -109 -34t-37 -92q0 -16 3 -27q3 -19 19 -19h50q20 0 20 17q0 5 -1 13.5t-1 13.5z" />
    <glyph glyph-name="threequarters" unicode="&#xbe;" horiz-adv-x="868" 
d="M686 683l-352 -665q-9 -18 -28 -18h-58q-23 0 -12 22l352 664q9 18 28 18h58q23 0 12 -21zM704 317l-102 -148h102v148zM830 89h-31v-68q0 -21 -21 -21h-54q-20 0 -20 21v68h-169q-19 0 -19 19v41q0 13 7 22l176 246q10 13 23 13h56q21 0 21 -21v-240h31q21 0 21 -20v-40
q0 -20 -21 -20zM165 455h-41q-20 0 -20 20v37q0 20 20 20h40q57 0 57 50q0 47 -72 47q-26 0 -77 -15q-19 -6 -24 11l-10 44q-3 13 12 20q44 21 115 21q151 0 151 -113q0 -72 -56 -93q63 -25 63 -103q0 -133 -157 -133q-72 0 -119 21q-10 5 -13 9t-1 12l10 43q5 20 25 12
q41 -15 85 -15q73 0 73 55q0 50 -61 50z" />
    <glyph glyph-name="questiondown" unicode="&#xbf;" horiz-adv-x="420" 
d="M289 513v-94q0 -23 -22 -23h-88q-23 0 -23 23v94q0 23 22 23h89q22 0 22 -23zM162 301v-8q0 -30 -20 -61t-43.5 -55.5t-43.5 -64.5t-20 -86q0 -155 193 -155q90 0 158 29q20 8 16 25l-15 66q-5 20 -27 13q-61 -21 -105 -21q-50 0 -70 15.5t-20 52.5q0 30 18 61.5t40 54.5
t40 57t18 69v8q0 23 -23 23h-73q-23 0 -23 -23z" />
    <glyph glyph-name="Agrave" unicode="&#xc0;" horiz-adv-x="583" 
d="M214 269h154l-75 304h-2zM234 704h115q25 0 31 -23l183 -655q3 -11 -2 -18.5t-17 -7.5h-88q-21 0 -27 22l-36 133h-203l-35 -133q-6 -22 -27 -22h-89q-11 0 -16.5 7.5t-2.5 18.5l183 655q6 23 31 23zM292 850l38 -82q3 -8 -0.5 -13.5t-12.5 -5.5h-48q-18 0 -30 13l-78 80
q-7 7 -4.5 15.5t13.5 8.5h97q18 0 25 -16z" />
    <glyph glyph-name="Aacute" unicode="&#xc1;" horiz-adv-x="583" 
d="M214 269h154l-75 304h-2zM234 704h115q25 0 31 -23l183 -655q3 -11 -2 -18.5t-17 -7.5h-88q-21 0 -27 22l-36 133h-203l-35 -133q-6 -22 -27 -22h-89q-11 0 -16.5 7.5t-2.5 18.5l183 655q6 23 31 23zM253 768l38 82q7 16 25 16h97q10 0 12.5 -8t-4.5 -16l-78 -80
q-12 -13 -29 -13h-49q-9 0 -12 5.5t0 13.5z" />
    <glyph glyph-name="Acircumflex" unicode="&#xc2;" horiz-adv-x="583" 
d="M214 269h154l-75 304h-2zM234 704h115q25 0 31 -23l183 -655q3 -11 -2 -18.5t-17 -7.5h-88q-21 0 -27 22l-36 133h-203l-35 -133q-6 -22 -27 -22h-89q-11 0 -16.5 7.5t-2.5 18.5l183 655q6 23 31 23zM345 763l-53 46l-53 -46q-16 -14 -28 -14h-48q-10 0 -12.5 7.5
t4.5 14.5l81 87q11 12 29 12h53q17 0 29 -12l81 -87q7 -7 4.5 -14.5t-12.5 -7.5h-48q-13 0 -27 14z" />
    <glyph glyph-name="Atilde" unicode="&#xc3;" horiz-adv-x="583" 
d="M214 269h154l-75 304h-2zM234 704h115q25 0 31 -23l183 -655q3 -11 -2 -18.5t-17 -7.5h-88q-21 0 -27 22l-36 133h-203l-35 -133q-6 -22 -27 -22h-89q-11 0 -16.5 7.5t-2.5 18.5l183 655q6 23 31 23zM448 823q0 -77 -71 -77q-37 0 -77 17l-30 13q-21 8 -39 8
q-23 0 -25 -15l-1 -6q-3 -14 -20 -14h-29q-20 0 -20 27q0 78 71 78q28 0 77 -17l31 -13q59 -26 62 6l1 8q3 14 21 14h28q21 0 21 -29z" />
    <glyph glyph-name="Adieresis" unicode="&#xc4;" horiz-adv-x="583" 
d="M214 269h154l-75 304h-2zM234 704h115q25 0 31 -23l183 -655q3 -11 -2 -18.5t-17 -7.5h-88q-21 0 -27 22l-36 133h-203l-35 -133q-6 -22 -27 -22h-89q-11 0 -16.5 7.5t-2.5 18.5l183 655q6 23 31 23zM259 829v-58q0 -22 -21 -22h-73q-21 0 -21 22v58q0 22 21 22h73
q21 0 21 -22zM439 829v-58q0 -22 -21 -22h-72q-22 0 -22 22v58q0 22 22 22h72q21 0 21 -22z" />
    <glyph glyph-name="Aring" unicode="&#xc5;" horiz-adv-x="583" 
d="M188 750q0 43 28.5 69.5t75.5 26.5t75.5 -26.5t28.5 -69.5q0 -35 -19 -60l3 -9l183 -655q3 -11 -2 -18.5t-17 -7.5h-88q-21 0 -27 22l-36 133h-203l-35 -133q-6 -22 -27 -22h-89q-11 0 -16.5 7.5t-2.5 18.5l183 655l3 9q-18 24 -18 60zM214 269h154l-75 304h-2zM245 750
q0 -45 47 -45q22 0 34.5 12t12.5 33q0 20 -12.5 32.5t-34.5 12.5t-34.5 -12t-12.5 -33z" />
    <glyph glyph-name="AE" unicode="&#xc6;" horiz-adv-x="760" 
d="M684 303h-198v-186h212q23 0 23 -23v-70q0 -24 -23 -24h-318q-24 0 -24 24v130h-165l-44 -132q-7 -22 -28 -22h-91q-12 0 -17 7.5t-1 18.5l233 655q4 12 10.5 17.5t21.5 5.5h419q23 0 23 -23v-70q0 -24 -23 -24h-208v-172h198q22 0 22 -24v-64q0 -24 -22 -24zM226 266
h130v322h-25z" />
    <glyph glyph-name="Ccedilla" unicode="&#xc7;" horiz-adv-x="515" 
d="M343 108q47 0 92 18q24 8 30 -16l18 -62q5 -18 -19 -29q-57 -26 -134 -29q55 -33 55 -81q0 -75 -100 -75q-31 0 -47 6q-12 4 -12 16v33q0 12 13 12h31q39 0 39 29q0 35 -48 65q-110 15 -164.5 100.5t-54.5 257.5q0 192 68 277t207 85q85 0 141 -28q23 -11 18 -29l-16 -62
q-6 -23 -31 -15q-40 16 -90 16q-88 0 -126 -54.5t-38 -189.5q0 -136 38.5 -190.5t129.5 -54.5z" />
    <glyph glyph-name="Egrave" unicode="&#xc8;" horiz-adv-x="483" 
d="M407 303h-218v-187h232q24 0 24 -23v-69q0 -24 -24 -24h-338q-24 0 -24 24v657q0 23 24 23h335q23 0 23 -23v-69q0 -24 -23 -24h-229v-173h218q23 0 23 -24v-64q0 -24 -23 -24zM277 850l38 -82q3 -8 -0.5 -13.5t-12.5 -5.5h-48q-18 0 -30 13l-78 80q-7 7 -4.5 15.5
t13.5 8.5h97q18 0 25 -16z" />
    <glyph glyph-name="Eacute" unicode="&#xc9;" horiz-adv-x="483" 
d="M407 303h-218v-187h232q24 0 24 -23v-69q0 -24 -24 -24h-338q-24 0 -24 24v657q0 23 24 23h335q23 0 23 -23v-69q0 -24 -23 -24h-229v-173h218q23 0 23 -24v-64q0 -24 -23 -24zM202 768l38 82q7 16 25 16h97q10 0 12.5 -8t-4.5 -16l-78 -80q-12 -13 -29 -13h-49
q-9 0 -12 5.5t0 13.5z" />
    <glyph glyph-name="Ecircumflex" unicode="&#xca;" horiz-adv-x="483" 
d="M407 303h-218v-187h232q24 0 24 -23v-69q0 -24 -24 -24h-338q-24 0 -24 24v657q0 23 24 23h335q23 0 23 -23v-69q0 -24 -23 -24h-229v-173h218q23 0 23 -24v-64q0 -24 -23 -24zM309 763l-53 46l-53 -46q-16 -14 -28 -14h-48q-10 0 -12.5 7.5t4.5 14.5l81 87q11 12 29 12
h53q17 0 29 -12l81 -87q7 -7 4.5 -14.5t-12.5 -7.5h-48q-13 0 -27 14z" />
    <glyph glyph-name="Edieresis" unicode="&#xcb;" horiz-adv-x="483" 
d="M407 303h-218v-187h232q24 0 24 -23v-69q0 -24 -24 -24h-338q-24 0 -24 24v657q0 23 24 23h335q23 0 23 -23v-69q0 -24 -23 -24h-229v-173h218q23 0 23 -24v-64q0 -24 -23 -24zM222 829v-58q0 -22 -21 -22h-73q-21 0 -21 22v58q0 22 21 22h73q21 0 21 -22zM402 829v-58
q0 -22 -21 -22h-72q-22 0 -22 22v58q0 22 22 22h72q21 0 21 -22z" />
    <glyph glyph-name="Igrave" unicode="&#xcc;" horiz-adv-x="261" 
d="M65 24v657q0 23 23 23h85q23 0 23 -23v-657q0 -24 -23 -24h-85q-23 0 -23 24zM135 850l38 -82q3 -8 -0.5 -13.5t-12.5 -5.5h-48q-18 0 -30 13l-78 80q-7 7 -4.5 15.5t13.5 8.5h97q18 0 25 -16z" />
    <glyph glyph-name="Iacute" unicode="&#xcd;" horiz-adv-x="261" 
d="M65 24v657q0 23 23 23h85q23 0 23 -23v-657q0 -24 -23 -24h-85q-23 0 -23 24zM90 768l38 82q7 16 25 16h97q10 0 12.5 -8t-4.5 -16l-78 -80q-12 -13 -29 -13h-49q-9 0 -12 5.5t0 13.5z" />
    <glyph glyph-name="Icircumflex" unicode="&#xce;" horiz-adv-x="261" 
d="M65 24v657q0 23 23 23h85q23 0 23 -23v-657q0 -24 -23 -24h-85q-23 0 -23 24zM183 763l-53 46l-53 -46q-16 -14 -28 -14h-48q-10 0 -12.5 7.5t4.5 14.5l81 87q11 12 29 12h53q17 0 29 -12l81 -87q7 -7 4.5 -14.5t-12.5 -7.5h-48q-13 0 -27 14z" />
    <glyph glyph-name="Idieresis" unicode="&#xcf;" horiz-adv-x="261" 
d="M65 24v657q0 23 23 23h85q23 0 23 -23v-657q0 -24 -23 -24h-85q-23 0 -23 24zM97 829v-58q0 -22 -21 -22h-73q-21 0 -21 22v58q0 22 21 22h73q21 0 21 -22zM277 829v-58q0 -22 -21 -22h-72q-22 0 -22 22v58q0 22 22 22h72q21 0 21 -22z" />
    <glyph glyph-name="Eth" unicode="&#xd0;" horiz-adv-x="587" 
d="M254 0h-169q-24 0 -24 24v291h-32q-19 0 -19 18v39q0 19 19 19h32v290q0 23 24 23h167q151 0 223.5 -80t72.5 -272t-71.5 -272t-222.5 -80zM284 315h-91v-197h58q85 0 124 50t39 184q0 135 -39.5 184.5t-125.5 49.5h-56v-195h91q19 0 19 -19v-39q0 -18 -19 -18z" />
    <glyph glyph-name="Ntilde" unicode="&#xd1;" horiz-adv-x="603" 
d="M544 682v-658q0 -24 -24 -24h-80q-22 0 -30 18l-223 443v-437q0 -24 -23 -24h-81q-24 0 -24 24v657q0 23 24 23h80q22 0 30 -17l223 -444v438q0 23 23 23h81q24 0 24 -22zM458 823q0 -77 -71 -77q-37 0 -77 17l-30 13q-21 8 -39 8q-23 0 -25 -15l-1 -6q-3 -14 -20 -14
h-29q-20 0 -20 27q0 78 71 78q28 0 77 -17l31 -13q59 -26 62 6l1 8q3 14 21 14h28q21 0 21 -29z" />
    <glyph glyph-name="Ograve" unicode="&#xd2;" horiz-adv-x="608" 
d="M304 715q130 0 196.5 -85.5t66.5 -277.5q0 -191 -66 -276.5t-197 -85.5t-197 85.5t-66 276.5q0 192 66.5 277.5t196.5 85.5zM304 106q67 0 98 56t31 190t-31 190.5t-98 56.5t-98 -56.5t-31 -190.5t31 -190t98 -56zM310 850l38 -82q3 -8 -0.5 -13.5t-12.5 -5.5h-48
q-18 0 -30 13l-78 80q-7 7 -4.5 15.5t13.5 8.5h97q18 0 25 -16z" />
    <glyph glyph-name="Oacute" unicode="&#xd3;" horiz-adv-x="608" 
d="M304 715q130 0 196.5 -85.5t66.5 -277.5q0 -191 -66 -276.5t-197 -85.5t-197 85.5t-66 276.5q0 192 66.5 277.5t196.5 85.5zM304 106q67 0 98 56t31 190t-31 190.5t-98 56.5t-98 -56.5t-31 -190.5t31 -190t98 -56zM263 768l38 82q7 16 25 16h97q10 0 12.5 -8t-4.5 -16
l-78 -80q-12 -13 -29 -13h-49q-9 0 -12 5.5t0 13.5z" />
    <glyph glyph-name="Ocircumflex" unicode="&#xd4;" horiz-adv-x="608" 
d="M304 715q130 0 196.5 -85.5t66.5 -277.5q0 -191 -66 -276.5t-197 -85.5t-197 85.5t-66 276.5q0 192 66.5 277.5t196.5 85.5zM304 106q67 0 98 56t31 190t-31 190.5t-98 56.5t-98 -56.5t-31 -190.5t31 -190t98 -56zM357 763l-53 46l-53 -46q-16 -14 -28 -14h-48
q-10 0 -12.5 7.5t4.5 14.5l81 87q11 12 29 12h53q17 0 29 -12l81 -87q7 -7 4.5 -14.5t-12.5 -7.5h-48q-13 0 -27 14z" />
    <glyph glyph-name="Otilde" unicode="&#xd5;" horiz-adv-x="608" 
d="M304 715q130 0 196.5 -85.5t66.5 -277.5q0 -191 -66 -276.5t-197 -85.5t-197 85.5t-66 276.5q0 192 66.5 277.5t196.5 85.5zM304 106q67 0 98 56t31 190t-31 190.5t-98 56.5t-98 -56.5t-31 -190.5t31 -190t98 -56zM460 823q0 -77 -71 -77q-37 0 -77 17l-30 13
q-21 8 -39 8q-23 0 -25 -15l-1 -6q-3 -14 -20 -14h-29q-20 0 -20 27q0 78 71 78q28 0 77 -17l31 -13q59 -26 62 6l1 8q3 14 21 14h28q21 0 21 -29z" />
    <glyph glyph-name="Odieresis" unicode="&#xd6;" horiz-adv-x="608" 
d="M304 715q130 0 196.5 -85.5t66.5 -277.5q0 -191 -66 -276.5t-197 -85.5t-197 85.5t-66 276.5q0 192 66.5 277.5t196.5 85.5zM304 106q67 0 98 56t31 190t-31 190.5t-98 56.5t-98 -56.5t-31 -190.5t31 -190t98 -56zM271 829v-58q0 -22 -21 -22h-73q-21 0 -21 22v58
q0 22 21 22h73q21 0 21 -22zM451 829v-58q0 -22 -21 -22h-72q-22 0 -22 22v58q0 22 22 22h72q21 0 21 -22z" />
    <glyph glyph-name="multiply" unicode="&#xd7;" horiz-adv-x="541" 
d="M403 139l-133 132l-132 -133q-16 -16 -31 0l-45 46q-15 16 -1 30l133 134l-133 132q-16 14 0 30l46 46q16 15 31 0l132 -133l133 133q16 14 30 0l46 -46q15 -14 -1 -30l-132 -132l132 -134q15 -15 0 -30l-45 -46q-15 -14 -30 1z" />
    <glyph glyph-name="Oslash" unicode="&#xd8;" horiz-adv-x="612" 
d="M306 715q105 0 168 -60l30 42q13 18 29 6l30 -22q18 -13 5 -30l-43 -62q45 -88 45 -237q0 -191 -66.5 -276.5t-197.5 -85.5q-110 0 -169 60l-32 -45q-12 -17 -29 -4l-30 23q-16 12 -4 28l43 62q-43 84 -43 238q0 191 66.5 277t197.5 86zM306 106q67 0 98.5 56.5
t31.5 188.5q0 67 -9 107l-212 -303q18 -27 38.5 -38t52.5 -11zM176 353q0 -73 9 -106l211 301q-30 51 -90 51q-68 0 -99 -56.5t-31 -189.5z" />
    <glyph glyph-name="Ugrave" unicode="&#xd9;" horiz-adv-x="585" 
d="M293 -10q-121 0 -179 58.5t-58 180.5v452q0 23 23 23h84q24 0 24 -23v-438q0 -69 24.5 -101.5t81.5 -32.5t81 32t24 101v439q0 23 23 23h85q23 0 23 -23v-452q0 -122 -58 -180.5t-178 -58.5zM304 850l38 -82q3 -8 -0.5 -13.5t-12.5 -5.5h-48q-18 0 -30 13l-78 80
q-7 7 -4.5 15.5t13.5 8.5h97q18 0 25 -16z" />
    <glyph glyph-name="Uacute" unicode="&#xda;" horiz-adv-x="585" 
d="M293 -10q-121 0 -179 58.5t-58 180.5v452q0 23 23 23h84q24 0 24 -23v-438q0 -69 24.5 -101.5t81.5 -32.5t81 32t24 101v439q0 23 23 23h85q23 0 23 -23v-452q0 -122 -58 -180.5t-178 -58.5zM244 768l38 82q7 16 25 16h97q10 0 12.5 -8t-4.5 -16l-78 -80q-12 -13 -29 -13
h-49q-9 0 -12 5.5t0 13.5z" />
    <glyph glyph-name="Ucircumflex" unicode="&#xdb;" horiz-adv-x="585" 
d="M293 -10q-121 0 -179 58.5t-58 180.5v452q0 23 23 23h84q24 0 24 -23v-438q0 -69 24.5 -101.5t81.5 -32.5t81 32t24 101v439q0 23 23 23h85q23 0 23 -23v-452q0 -122 -58 -180.5t-178 -58.5zM346 763l-53 46l-53 -46q-16 -14 -28 -14h-48q-10 0 -12.5 7.5t4.5 14.5l81 87
q11 12 29 12h53q17 0 29 -12l81 -87q7 -7 4.5 -14.5t-12.5 -7.5h-48q-13 0 -27 14z" />
    <glyph glyph-name="Udieresis" unicode="&#xdc;" horiz-adv-x="585" 
d="M293 -10q-121 0 -179 58.5t-58 180.5v452q0 23 23 23h84q24 0 24 -23v-438q0 -69 24.5 -101.5t81.5 -32.5t81 32t24 101v439q0 23 23 23h85q23 0 23 -23v-452q0 -122 -58 -180.5t-178 -58.5zM260 829v-58q0 -22 -21 -22h-73q-21 0 -21 22v58q0 22 21 22h73q21 0 21 -22z
M440 829v-58q0 -22 -21 -22h-72q-22 0 -22 22v58q0 22 22 22h72q21 0 21 -22z" />
    <glyph glyph-name="Yacute" unicode="&#xdd;" horiz-adv-x="564" 
d="M348 263v-239q0 -24 -24 -24h-85q-23 0 -23 24v239l-194 413q-5 10 -0.5 19t17.5 9h90q22 0 30 -21l87 -207l35 -100h1l36 100l87 207q8 21 30 21h90q13 0 17.5 -9t-0.5 -19zM239 768l38 82q7 16 25 16h97q10 0 12.5 -8t-4.5 -16l-78 -80q-12 -13 -29 -13h-49
q-9 0 -12 5.5t0 13.5z" />
    <glyph glyph-name="Thorn" unicode="&#xde;" horiz-adv-x="551" 
d="M167 0h-84q-24 0 -24 24v657q0 23 24 23h84q23 0 23 -23v-59h65q134 0 194.5 -54.5t60.5 -187.5t-60.5 -188t-194.5 -55h-65v-113q0 -24 -23 -24zM190 252h65q68 0 95.5 28t27.5 101q0 71 -28 98.5t-95 27.5h-65v-255z" />
    <glyph glyph-name="germandbls" unicode="&#xdf;" horiz-adv-x="556" 
d="M268 612q-94 0 -94 -92v-499q0 -21 -21 -21h-75q-22 0 -22 21v509q0 183 218 183q96 0 147.5 -40.5t51.5 -109.5q0 -36 -15.5 -64.5t-34.5 -43t-34.5 -29.5t-15.5 -27q0 -13 15.5 -27.5t37.5 -31t44.5 -38.5t38 -59.5t15.5 -83.5q0 -84 -45 -124t-136 -40q-53 0 -75 5
q-22 6 -22 23v60q0 21 22 21q7 0 19 -1t18 -1q98 0 98 79q0 35 -23.5 65.5t-51 49t-51 44.5t-23.5 53q0 20 15.5 39t34.5 32.5t34.5 35t15.5 45.5q0 29 -21 48t-65 19z" />
    <glyph glyph-name="agrave" unicode="&#xe0;" horiz-adv-x="487" 
d="M437 372v-350q0 -22 -22 -22h-66q-21 0 -23 19l-3 46q-42 -72 -146 -72q-69 0 -108.5 40.5t-39.5 115.5q0 43 14 75t37.5 51.5t62 31.5t79 17t96.5 6v33q0 42 -21 61t-70 19q-56 0 -126 -25q-21 -7 -26 15l-11 58q-4 18 15 26q65 28 164 28q101 0 147.5 -42.5
t46.5 -130.5zM318 195v57q-89 -3 -130 -22t-41 -74q0 -73 68 -73q50 0 76.5 31.5t26.5 80.5zM261 690l39 -82q7 -18 -13 -18h-49q-17 0 -29 12l-78 80q-7 8 -4.5 16t13.5 8h96q19 0 25 -16z" />
    <glyph glyph-name="aacute" unicode="&#xe1;" horiz-adv-x="487" 
d="M437 372v-350q0 -22 -22 -22h-66q-21 0 -23 19l-3 46q-42 -72 -146 -72q-69 0 -108.5 40.5t-39.5 115.5q0 43 14 75t37.5 51.5t62 31.5t79 17t96.5 6v33q0 42 -21 61t-70 19q-56 0 -126 -25q-21 -7 -26 15l-11 58q-4 18 15 26q65 28 164 28q101 0 147.5 -42.5
t46.5 -130.5zM318 195v57q-89 -3 -130 -22t-41 -74q0 -73 68 -73q50 0 76.5 31.5t26.5 80.5zM188 608l38 82q8 16 25 16h97q10 0 12.5 -8t-4.5 -16l-78 -80q-11 -12 -29 -12h-48q-20 0 -13 18z" />
    <glyph glyph-name="acircumflex" unicode="&#xe2;" horiz-adv-x="487" 
d="M437 372v-350q0 -22 -22 -22h-66q-21 0 -23 19l-3 46q-42 -72 -146 -72q-69 0 -108.5 40.5t-39.5 115.5q0 43 14 75t37.5 51.5t62 31.5t79 17t96.5 6v33q0 42 -21 61t-70 19q-56 0 -126 -25q-21 -7 -26 15l-11 58q-4 18 15 26q65 28 164 28q101 0 147.5 -42.5
t46.5 -130.5zM318 195v57q-89 -3 -130 -22t-41 -74q0 -73 68 -73q50 0 76.5 31.5t26.5 80.5zM298 602l-54 50l-55 -50q-12 -12 -27 -12h-47q-10 0 -13 7t4 14l82 89q12 13 29 13h53q16 0 29 -13l82 -89q7 -7 4.5 -14t-12.5 -7h-48q-15 0 -27 12z" />
    <glyph glyph-name="atilde" unicode="&#xe3;" horiz-adv-x="487" 
d="M437 372v-350q0 -22 -22 -22h-66q-21 0 -23 19l-3 46q-42 -72 -146 -72q-69 0 -108.5 40.5t-39.5 115.5q0 43 14 75t37.5 51.5t62 31.5t79 17t96.5 6v33q0 42 -21 61t-70 19q-56 0 -126 -25q-21 -7 -26 15l-11 58q-4 18 15 26q65 28 164 28q101 0 147.5 -42.5
t46.5 -130.5zM318 195v57q-89 -3 -130 -22t-41 -74q0 -73 68 -73q50 0 76.5 31.5t26.5 80.5zM394 663q0 -75 -66 -75q-37 0 -78 17l-29 13q-23 9 -36 9q-20 0 -23 -17l-1 -6q-3 -14 -20 -14h-29q-20 0 -20 27q0 76 66 76q34 0 77 -17l30 -13q24 -9 37 -9q20 0 22 18l1 5
q1 15 19 15h30q20 0 20 -29z" />
    <glyph glyph-name="adieresis" unicode="&#xe4;" horiz-adv-x="487" 
d="M437 372v-350q0 -22 -22 -22h-66q-21 0 -23 19l-3 46q-42 -72 -146 -72q-69 0 -108.5 40.5t-39.5 115.5q0 43 14 75t37.5 51.5t62 31.5t79 17t96.5 6v33q0 42 -21 61t-70 19q-56 0 -126 -25q-21 -7 -26 15l-11 58q-4 18 15 26q65 28 164 28q101 0 147.5 -42.5
t46.5 -130.5zM318 195v57q-89 -3 -130 -22t-41 -74q0 -73 68 -73q50 0 76.5 31.5t26.5 80.5zM210 671v-60q0 -21 -21 -21h-70q-22 0 -22 21v60q0 21 22 21h70q21 0 21 -21zM386 671v-60q0 -21 -21 -21h-70q-22 0 -22 21v60q0 21 22 21h70q21 0 21 -21z" />
    <glyph glyph-name="aring" unicode="&#xe5;" horiz-adv-x="487" 
d="M437 372v-350q0 -22 -22 -22h-66q-21 0 -23 19l-3 46q-42 -72 -146 -72q-69 0 -108.5 40.5t-39.5 115.5q0 43 14 75t37.5 51.5t62 31.5t79 17t96.5 6v33q0 42 -21 61t-70 19q-56 0 -126 -25q-21 -7 -26 15l-11 58q-4 18 15 26q65 28 164 28q101 0 147.5 -42.5
t46.5 -130.5zM318 195v57q-89 -3 -130 -22t-41 -74q0 -73 68 -73q50 0 76.5 31.5t26.5 80.5zM246 635q22 0 35 12t13 33q0 20 -13 32t-35 12t-35 -12t-13 -32q0 -21 13 -33t35 -12zM246 776q47 0 76 -26.5t29 -69.5q0 -44 -29 -70.5t-76 -26.5q-48 0 -76.5 26.5t-28.5 70.5
q0 43 28.5 69.5t76.5 26.5z" />
    <glyph glyph-name="ae" unicode="&#xe6;" horiz-adv-x="765" 
d="M568 88q52 0 103 21q23 8 28 -15l11 -51q4 -17 -16 -27q-54 -26 -136 -26q-70 0 -117.5 26t-66.5 70q-52 -93 -175 -93q-170 0 -170 153q0 42 14 72t37 48.5t61.5 29t79 14.5t97.5 4v53q0 76 -90 76q-48 0 -128 -25q-22 -7 -27 15l-12 58q-4 18 16 26q75 28 160 28
q119 0 152 -69q44 70 146 70q97 0 145.5 -63t48.5 -178v-57q0 -23 -24 -23h-268q10 -137 131 -137zM529 450q-88 0 -95 -140h180v8q0 66 -19.5 99t-65.5 33zM318 197v38q-88 -1 -129.5 -17.5t-41.5 -64.5q0 -69 73 -69q49 0 73.5 31.5t24.5 81.5z" />
    <glyph glyph-name="ccedilla" unicode="&#xe7;" horiz-adv-x="424" 
d="M36 269q0 139 57.5 208t165.5 69q74 0 118 -22q21 -10 16 -28l-16 -58q-5 -20 -29 -12q-36 12 -70 12q-60 0 -88 -39.5t-28 -129.5t28 -130.5t86 -40.5q37 0 78 15q22 8 27 -12l15 -59q4 -17 -16 -27q-43 -22 -112 -24q56 -30 56 -77q0 -71 -96 -71q-30 0 -45 5
q-12 4 -12 16v32q0 11 12 11h30q37 0 37 27q0 36 -54 65q-160 37 -160 270z" />
    <glyph glyph-name="egrave" unicode="&#xe8;" horiz-adv-x="493" 
d="M293 88q56 0 104 20q23 9 29 -15l11 -49q4 -18 -17 -28q-63 -26 -137 -26q-247 0 -247 278q0 139 55.5 208.5t161.5 69.5q102 0 153 -65.5t51 -184.5v-54q0 -23 -23 -23h-276q11 -131 135 -131zM254 450q-47 0 -70.5 -35t-27.5 -112h187v8q0 139 -89 139zM262 690l39 -82
q7 -18 -13 -18h-49q-17 0 -29 12l-78 80q-7 8 -4.5 16t13.5 8h96q19 0 25 -16z" />
    <glyph glyph-name="eacute" unicode="&#xe9;" horiz-adv-x="493" 
d="M293 88q56 0 104 20q23 9 29 -15l11 -49q4 -18 -17 -28q-63 -26 -137 -26q-247 0 -247 278q0 139 55.5 208.5t161.5 69.5q102 0 153 -65.5t51 -184.5v-54q0 -23 -23 -23h-276q11 -131 135 -131zM254 450q-47 0 -70.5 -35t-27.5 -112h187v8q0 139 -89 139zM198 608l38 82
q8 16 25 16h97q10 0 12.5 -8t-4.5 -16l-78 -80q-11 -12 -29 -12h-48q-20 0 -13 18z" />
    <glyph glyph-name="ecircumflex" unicode="&#xea;" horiz-adv-x="493" 
d="M293 88q56 0 104 20q23 9 29 -15l11 -49q4 -18 -17 -28q-63 -26 -137 -26q-247 0 -247 278q0 139 55.5 208.5t161.5 69.5q102 0 153 -65.5t51 -184.5v-54q0 -23 -23 -23h-276q11 -131 135 -131zM254 450q-47 0 -70.5 -35t-27.5 -112h187v8q0 139 -89 139zM306 602l-54 50
l-55 -50q-12 -12 -27 -12h-47q-10 0 -13 7t4 14l82 89q12 13 29 13h53q16 0 29 -13l82 -89q7 -7 4.5 -14t-12.5 -7h-48q-15 0 -27 12z" />
    <glyph glyph-name="edieresis" unicode="&#xeb;" horiz-adv-x="493" 
d="M293 88q56 0 104 20q23 9 29 -15l11 -49q4 -18 -17 -28q-63 -26 -137 -26q-247 0 -247 278q0 139 55.5 208.5t161.5 69.5q102 0 153 -65.5t51 -184.5v-54q0 -23 -23 -23h-276q11 -131 135 -131zM254 450q-47 0 -70.5 -35t-27.5 -112h187v8q0 139 -89 139zM220 671v-60
q0 -21 -21 -21h-70q-22 0 -22 21v60q0 21 22 21h70q21 0 21 -21zM396 671v-60q0 -21 -21 -21h-70q-22 0 -22 21v60q0 21 22 21h70q21 0 21 -21z" />
    <glyph glyph-name="igrave" unicode="&#xec;" horiz-adv-x="236" 
d="M179 514v-492q0 -22 -21 -22h-79q-23 0 -23 22v492q0 22 23 22h79q21 0 21 -22zM122 690l39 -82q7 -18 -13 -18h-49q-17 0 -29 12l-78 80q-7 8 -4.5 16t13.5 8h96q19 0 25 -16z" />
    <glyph glyph-name="iacute" unicode="&#xed;" horiz-adv-x="236" 
d="M179 514v-492q0 -22 -21 -22h-79q-23 0 -23 22v492q0 22 23 22h79q21 0 21 -22zM76 608l38 82q8 16 25 16h97q10 0 12.5 -8t-4.5 -16l-78 -80q-11 -12 -29 -12h-48q-20 0 -13 18z" />
    <glyph glyph-name="icircumflex" unicode="&#xee;" horiz-adv-x="236" 
d="M179 514v-492q0 -22 -21 -22h-79q-23 0 -23 22v492q0 22 23 22h79q21 0 21 -22zM173 602l-54 50l-55 -50q-12 -12 -27 -12h-47q-10 0 -13 7t4 14l82 89q12 13 29 13h53q16 0 29 -13l82 -89q7 -7 4.5 -14t-12.5 -7h-48q-15 0 -27 12z" />
    <glyph glyph-name="idieresis" unicode="&#xef;" horiz-adv-x="236" 
d="M179 514v-492q0 -22 -21 -22h-79q-23 0 -23 22v492q0 22 23 22h79q21 0 21 -22zM87 671v-60q0 -21 -21 -21h-70q-22 0 -22 21v60q0 21 22 21h70q21 0 21 -21zM263 671v-60q0 -21 -21 -21h-70q-22 0 -22 21v60q0 21 22 21h70q21 0 21 -21z" />
    <glyph glyph-name="eth" unicode="&#xf0;" horiz-adv-x="517" 
d="M441 583h-44q85 -139 85 -314q0 -278 -223 -278q-109 0 -166 68.5t-57 206.5q0 137 56 206t155 69q55 0 86 -24q-13 31 -39 66h-115q-19 0 -19 19v26q0 18 19 18h67q-5 6 -48 39q-7 5 -4.5 12t11.5 7h81q16 0 27 -11q26 -23 44 -47h84q18 0 18 -18v-26q0 -19 -18 -19z
M259 93q49 0 73 41.5t24 131.5q0 176 -97 176q-50 0 -73.5 -42t-23.5 -134q0 -91 23.5 -132t73.5 -41z" />
    <glyph glyph-name="ntilde" unicode="&#xf1;" horiz-adv-x="517" 
d="M467 365v-343q0 -22 -22 -22h-80q-22 0 -22 22v319q0 47 -17 70.5t-57 23.5q-46 0 -70 -31t-24 -86v-296q0 -22 -22 -22h-79q-22 0 -22 22v492q0 22 22 22h72q22 0 24 -19l3 -44q43 73 140 73q77 0 115.5 -47.5t38.5 -133.5zM410 663q0 -75 -66 -75q-37 0 -78 17l-29 13
q-23 9 -36 9q-20 0 -23 -17l-1 -6q-3 -14 -20 -14h-29q-20 0 -20 27q0 76 66 76q34 0 77 -17l30 -13q24 -9 37 -9q20 0 22 18l1 5q1 15 19 15h30q20 0 20 -29z" />
    <glyph glyph-name="ograve" unicode="&#xf2;" horiz-adv-x="518" 
d="M259 -9q223 0 223 277q0 278 -223 278t-223 -278q0 -277 223 -277zM259 93q-50 0 -73.5 41.5t-23.5 133.5q0 93 23.5 134t73.5 41t73.5 -41.5t23.5 -133.5t-24 -133.5t-73 -41.5zM269 690l39 -82q7 -18 -13 -18h-49q-17 0 -29 12l-78 80q-7 8 -4.5 16t13.5 8h96
q19 0 25 -16z" />
    <glyph glyph-name="oacute" unicode="&#xf3;" horiz-adv-x="518" 
d="M259 -9q223 0 223 277q0 278 -223 278t-223 -278q0 -277 223 -277zM259 93q-50 0 -73.5 41.5t-23.5 133.5q0 93 23.5 134t73.5 41t73.5 -41.5t23.5 -133.5t-24 -133.5t-73 -41.5zM210 608l38 82q8 16 25 16h97q10 0 12.5 -8t-4.5 -16l-78 -80q-11 -12 -29 -12h-48
q-20 0 -13 18z" />
    <glyph glyph-name="ocircumflex" unicode="&#xf4;" horiz-adv-x="518" 
d="M259 -9q223 0 223 277q0 278 -223 278t-223 -278q0 -277 223 -277zM259 93q-50 0 -73.5 41.5t-23.5 133.5q0 93 23.5 134t73.5 41t73.5 -41.5t23.5 -133.5t-24 -133.5t-73 -41.5zM313 602l-54 50l-55 -50q-12 -12 -27 -12h-47q-10 0 -13 7t4 14l82 89q12 13 29 13h53
q16 0 29 -13l82 -89q7 -7 4.5 -14t-12.5 -7h-48q-15 0 -27 12z" />
    <glyph glyph-name="otilde" unicode="&#xf5;" horiz-adv-x="518" 
d="M259 -9q-223 0 -223 277q0 278 223 278t223 -278q0 -277 -223 -277zM259 93q49 0 73 41.5t24 133.5t-23.5 133.5t-73.5 41.5t-73.5 -41t-23.5 -134q0 -92 23.5 -133.5t73.5 -41.5zM411 663q0 -75 -66 -75q-37 0 -78 17l-29 13q-22 9 -36 9q-20 0 -23 -17l-1 -6
q-3 -14 -20 -14h-29q-20 0 -20 27q0 76 66 76q35 0 77 -17l30 -13q24 -9 37 -9q20 0 22 18l1 5q1 15 19 15h30q20 0 20 -29z" />
    <glyph glyph-name="odieresis" unicode="&#xf6;" horiz-adv-x="518" 
d="M259 -9q223 0 223 277q0 278 -223 278t-223 -278q0 -277 223 -277zM259 93q-50 0 -73.5 41.5t-23.5 133.5q0 93 23.5 134t73.5 41t73.5 -41.5t23.5 -133.5t-24 -133.5t-73 -41.5zM227 671v-60q0 -21 -21 -21h-70q-22 0 -22 21v60q0 21 22 21h70q21 0 21 -21zM403 671v-60
q0 -21 -21 -21h-70q-22 0 -22 21v60q0 21 22 21h70q21 0 21 -21z" />
    <glyph glyph-name="divide" unicode="&#xf7;" horiz-adv-x="541" 
d="M464 301h-388q-21 0 -21 22v53q0 21 21 21h388q22 0 22 -21v-53q0 -22 -22 -22zM208 120v86q0 22 23 22h79q23 0 23 -22v-86q0 -22 -22 -22h-81q-22 0 -22 22zM208 492v85q0 23 23 23h79q23 0 23 -23v-85q0 -23 -23 -23h-80q-22 0 -22 23z" />
    <glyph glyph-name="oslash" unicode="&#xf8;" horiz-adv-x="522" 
d="M261 -9q-86 0 -137 42l-20 -29q-13 -17 -29 -4l-20 16q-14 13 -4 28l27 39q-40 67 -40 185q0 140 57.5 209t165.5 69q85 0 137 -43l19 28q13 19 30 4l20 -16q14 -12 4 -26l-27 -40q41 -67 41 -185q0 -139 -58 -208t-166 -69zM261 443q-50 0 -74 -41t-24 -132q0 -47 8 -76
l155 217q-21 32 -65 32zM261 93q50 0 74 41t24 132q0 48 -7 75l-156 -217q25 -31 65 -31z" />
    <glyph glyph-name="ugrave" unicode="&#xf9;" horiz-adv-x="513" 
d="M49 167v347q0 22 22 22h79q22 0 22 -22v-319q0 -47 16 -71t56 -24q44 0 68.5 30.5t24.5 84.5v299q0 22 22 22h79q22 0 22 -22v-492q0 -22 -22 -22h-73q-22 0 -24 19l-3 44q-40 -72 -134 -72q-155 0 -155 176zM269 690l39 -82q7 -18 -13 -18h-49q-17 0 -29 12l-78 80
q-7 8 -4.5 16t13.5 8h96q19 0 25 -16z" />
    <glyph glyph-name="uacute" unicode="&#xfa;" horiz-adv-x="513" 
d="M49 167v347q0 22 22 22h79q22 0 22 -22v-319q0 -47 16 -71t56 -24q44 0 68.5 30.5t24.5 84.5v299q0 22 22 22h79q22 0 22 -22v-492q0 -22 -22 -22h-73q-22 0 -24 19l-3 44q-40 -72 -134 -72q-155 0 -155 176zM204 608l38 82q8 16 25 16h97q10 0 12.5 -8t-4.5 -16l-78 -80
q-11 -12 -29 -12h-48q-20 0 -13 18z" />
    <glyph glyph-name="ucircumflex" unicode="&#xfb;" horiz-adv-x="513" 
d="M49 167v347q0 22 22 22h79q22 0 22 -22v-319q0 -47 16 -71t56 -24q44 0 68.5 30.5t24.5 84.5v299q0 22 22 22h79q22 0 22 -22v-492q0 -22 -22 -22h-73q-22 0 -24 19l-3 44q-40 -72 -134 -72q-155 0 -155 176zM311 602l-54 50l-55 -50q-12 -12 -27 -12h-47q-10 0 -13 7
t4 14l82 89q12 13 29 13h53q16 0 29 -13l82 -89q7 -7 4.5 -14t-12.5 -7h-48q-15 0 -27 12z" />
    <glyph glyph-name="udieresis" unicode="&#xfc;" horiz-adv-x="513" 
d="M49 167v347q0 22 22 22h79q22 0 22 -22v-319q0 -47 16 -71t56 -24q44 0 68.5 30.5t24.5 84.5v299q0 22 22 22h79q22 0 22 -22v-492q0 -22 -22 -22h-73q-22 0 -24 19l-3 44q-40 -72 -134 -72q-155 0 -155 176zM225 671v-60q0 -21 -21 -21h-70q-22 0 -22 21v60q0 21 22 21
h70q21 0 21 -21zM401 671v-60q0 -21 -21 -21h-70q-22 0 -22 21v60q0 21 22 21h70q21 0 21 -21z" />
    <glyph glyph-name="yacute" unicode="&#xfd;" horiz-adv-x="466" 
d="M449 511l-126 -470q-23 -88 -58.5 -122.5t-118.5 -34.5q-59 0 -84 10q-20 6 -19 22l7 58q3 19 21 18q2 0 18 -2.5t30 -2.5q49 0 49 42q0 14 -6 32l-143 450q-8 25 16 25h84q20 0 26 -22l70 -263l26 -117h3l23 117l56 263q5 22 25 22h83q25 0 18 -25zM186 608l38 82
q8 16 25 16h97q10 0 12.5 -8t-4.5 -16l-78 -80q-11 -12 -29 -12h-48q-20 0 -13 18z" />
    <glyph glyph-name="thorn" unicode="&#xfe;" horiz-adv-x="541" 
d="M76 704h79q22 0 22 -21v-210q16 32 53.5 52.5t83.5 20.5q190 0 190 -278q0 -277 -190 -277q-47 0 -84.5 18.5t-52.5 51.5v-149q0 -22 -22 -22h-79q-22 0 -22 22v771q0 21 22 21zM176 268q0 -174 104 -174q51 0 74.5 40.5t23.5 133.5t-23.5 133.5t-74.5 40.5
q-104 0 -104 -174z" />
    <glyph glyph-name="ydieresis" unicode="&#xff;" horiz-adv-x="466" 
d="M449 511l-126 -470q-23 -88 -58.5 -122.5t-118.5 -34.5q-59 0 -84 10q-20 6 -19 22l7 58q3 19 21 18q2 0 18 -2.5t30 -2.5q49 0 49 42q0 14 -6 32l-143 450q-8 25 16 25h84q20 0 26 -22l70 -263l26 -117h3l23 117l56 263q5 22 25 22h83q25 0 18 -25zM201 671v-60
q0 -21 -21 -21h-70q-22 0 -22 21v60q0 21 22 21h70q21 0 21 -21zM377 671v-60q0 -21 -21 -21h-70q-22 0 -22 21v60q0 21 22 21h70q21 0 21 -21z" />
    <glyph glyph-name="Amacron" unicode="&#x100;" horiz-adv-x="583" 
d="M214 269h154l-75 304h-2zM234 704h115q25 0 31 -23l183 -655q3 -11 -2 -18.5t-17 -7.5h-88q-21 0 -27 22l-36 133h-203l-35 -133q-6 -22 -27 -22h-89q-11 0 -16.5 7.5t-2.5 18.5l183 655q6 23 31 23zM423 755h-263q-20 0 -20 21v37q0 20 20 20h263q21 0 21 -20v-37
q0 -21 -21 -21z" />
    <glyph glyph-name="amacron" unicode="&#x101;" horiz-adv-x="487" 
d="M437 372v-350q0 -22 -22 -22h-66q-21 0 -23 19l-3 46q-42 -72 -146 -72q-69 0 -108.5 40.5t-39.5 115.5q0 43 14 75t37.5 51.5t62 31.5t79 17t96.5 6v33q0 42 -21 61t-70 19q-56 0 -126 -25q-21 -7 -26 15l-11 58q-4 18 15 26q65 28 164 28q101 0 147.5 -42.5
t46.5 -130.5zM318 195v57q-89 -3 -130 -22t-41 -74q0 -73 68 -73q50 0 76.5 31.5t26.5 80.5zM372 595h-261q-21 0 -21 21v34q0 20 21 20h261q21 0 21 -20v-34q0 -21 -21 -21z" />
    <glyph glyph-name="Abreve" unicode="&#x102;" horiz-adv-x="583" 
d="M214 269h154l-75 304h-2zM234 704h115q25 0 31 -23l183 -655q3 -11 -2 -18.5t-17 -7.5h-88q-21 0 -27 22l-36 133h-203l-35 -133q-6 -22 -27 -22h-89q-11 0 -16.5 7.5t-2.5 18.5l183 655q6 23 31 23zM292 747q-68 0 -103 30.5t-36 78.5q0 16 16 16h40q16 0 19 -15
q10 -46 64 -46t64 46q2 15 18 15h40q16 0 16 -16q0 -48 -35.5 -78.5t-102.5 -30.5z" />
    <glyph glyph-name="abreve" unicode="&#x103;" horiz-adv-x="487" 
d="M437 372v-350q0 -22 -22 -22h-66q-21 0 -23 19l-3 46q-42 -72 -146 -72q-69 0 -108.5 40.5t-39.5 115.5q0 43 14 75t37.5 51.5t62 31.5t79 17t96.5 6v33q0 42 -21 61t-70 19q-56 0 -126 -25q-21 -7 -26 15l-11 58q-4 18 15 26q65 28 164 28q101 0 147.5 -42.5
t46.5 -130.5zM318 195v57q-89 -3 -130 -22t-41 -74q0 -73 68 -73q50 0 76.5 31.5t26.5 80.5zM242 587q-68 0 -103 31t-36 78q0 17 17 17h39q15 0 18 -16q8 -46 65 -46q56 0 64 46q3 16 19 16h38q17 0 17 -17q-1 -48 -35.5 -78.5t-102.5 -30.5z" />
    <glyph glyph-name="Aogonek" unicode="&#x104;" horiz-adv-x="583" 
d="M234 704h115q25 0 31 -23l183 -655q3 -11 -2 -18.5t-17 -7.5h-9q-50 -30 -50 -69q0 -28 39 -28q8 0 18 2.5t12 2.5q10 0 11 -9l7 -33q2 -12 -9 -18q-26 -14 -64 -14q-93 0 -93 70q0 28 20.5 54t50.5 42h-21q-21 0 -27 22l-36 133h-203l-35 -133q-6 -22 -27 -22h-89
q-11 0 -16.5 7.5t-2.5 18.5l183 655q6 23 31 23zM214 269h154l-75 304h-2z" />
    <glyph glyph-name="aogonek" unicode="&#x105;" horiz-adv-x="487" 
d="M437 372v-350q0 -22 -22 -22h-7q-49 -29 -49 -65q0 -26 37 -26q8 0 16.5 2t11.5 2q9 0 12 -9l6 -31q2 -12 -9 -18q-22 -12 -61 -12q-88 0 -88 65q0 54 68 92h-3q-21 0 -23 19l-3 46q-42 -72 -146 -72q-69 0 -108.5 40.5t-39.5 115.5q0 43 14 75t37.5 51.5t62 31.5t79 17
t96.5 6v33q0 42 -21 61t-70 19q-56 0 -126 -25q-21 -7 -26 15l-11 58q-4 18 15 26q65 28 164 28q101 0 147.5 -42.5t46.5 -130.5zM318 195v57q-89 -3 -130 -22t-41 -74q0 -73 68 -73q50 0 76.5 31.5t26.5 80.5z" />
    <glyph glyph-name="Cacute" unicode="&#x106;" horiz-adv-x="515" 
d="M343 108q47 0 92 18q24 8 30 -16l18 -62q5 -18 -19 -29q-65 -29 -143 -29q-141 0 -210 85t-69 278q0 192 68 277t207 85q85 0 141 -28q23 -11 18 -29l-16 -62q-6 -23 -31 -15q-40 16 -90 16q-88 0 -126 -54.5t-38 -189.5q0 -136 38.5 -190.5t129.5 -54.5zM242 768l38 82
q7 16 25 16h97q10 0 12.5 -8t-4.5 -16l-78 -80q-12 -13 -29 -13h-49q-9 0 -12 5.5t0 13.5z" />
    <glyph glyph-name="cacute" unicode="&#x107;" horiz-adv-x="424" 
d="M36 269q0 139 57.5 208t165.5 69q74 0 118 -22q21 -10 16 -28l-16 -58q-5 -20 -29 -12q-36 12 -70 12q-60 0 -88 -39.5t-28 -129.5t28 -130.5t86 -40.5q37 0 78 15q22 8 27 -12l15 -59q4 -17 -16 -27q-46 -24 -115 -24q-229 0 -229 278zM192 608l38 82q8 16 25 16h97
q10 0 12.5 -8t-4.5 -16l-78 -80q-11 -12 -29 -12h-48q-20 0 -13 18z" />
    <glyph glyph-name="Ccircumflex" unicode="&#x108;" horiz-adv-x="515" 
d="M343 108q47 0 92 18q24 8 30 -16l18 -62q5 -18 -19 -29q-65 -29 -143 -29q-141 0 -210 85t-69 278q0 192 68 277t207 85q85 0 141 -28q23 -11 18 -29l-16 -62q-6 -23 -31 -15q-40 16 -90 16q-88 0 -126 -54.5t-38 -189.5q0 -136 38.5 -190.5t129.5 -54.5zM354 763l-53 46
l-53 -46q-16 -14 -28 -14h-48q-10 0 -12.5 7.5t4.5 14.5l81 87q11 12 29 12h53q17 0 29 -12l81 -87q7 -7 4.5 -14.5t-12.5 -7.5h-48q-13 0 -27 14z" />
    <glyph glyph-name="ccircumflex" unicode="&#x109;" horiz-adv-x="424" 
d="M36 269q0 139 57.5 208t165.5 69q74 0 118 -22q21 -10 16 -28l-16 -58q-5 -20 -29 -12q-36 12 -70 12q-60 0 -88 -39.5t-28 -129.5t28 -130.5t86 -40.5q37 0 78 15q22 8 27 -12l15 -59q4 -17 -16 -27q-46 -24 -115 -24q-229 0 -229 278zM289 602l-54 50l-55 -50
q-12 -12 -27 -12h-47q-10 0 -13 7t4 14l82 89q12 13 29 13h53q16 0 29 -13l82 -89q7 -7 4.5 -14t-12.5 -7h-48q-15 0 -27 12z" />
    <glyph glyph-name="Cdotaccent" unicode="&#x10a;" horiz-adv-x="515" 
d="M343 108q47 0 92 18q24 8 30 -16l18 -62q5 -18 -19 -29q-65 -29 -143 -29q-141 0 -210 85t-69 278q0 192 68 277t207 85q85 0 141 -28q23 -11 18 -29l-16 -62q-6 -23 -31 -15q-40 16 -90 16q-88 0 -126 -54.5t-38 -189.5q0 -136 38.5 -190.5t129.5 -54.5zM364 834v-63
q0 -22 -22 -22h-82q-23 0 -23 22v63q0 22 23 22h82q22 0 22 -22z" />
    <glyph glyph-name="cdotaccent" unicode="&#x10b;" horiz-adv-x="424" 
d="M36 269q0 139 57.5 208t165.5 69q74 0 118 -22q21 -10 16 -28l-16 -58q-5 -20 -29 -12q-36 12 -70 12q-60 0 -88 -39.5t-28 -129.5t28 -130.5t86 -40.5q37 0 78 15q22 8 27 -12l15 -59q4 -17 -16 -27q-46 -24 -115 -24q-229 0 -229 278zM310 673v-62q0 -22 -22 -22h-82
q-23 0 -23 22v62q0 22 23 22h82q22 0 22 -22z" />
    <glyph glyph-name="Ccaron" unicode="&#x10c;" horiz-adv-x="515" 
d="M343 108q47 0 92 18q24 8 30 -16l18 -62q5 -18 -19 -29q-65 -29 -143 -29q-141 0 -210 85t-69 278q0 192 68 277t207 85q85 0 141 -28q23 -11 18 -29l-16 -62q-6 -23 -31 -15q-40 16 -90 16q-88 0 -126 -54.5t-38 -189.5q0 -136 38.5 -190.5t129.5 -54.5zM301 810l52 47
q15 13 27 13h48q10 0 13 -7t-4 -14l-81 -87q-13 -13 -29 -13h-53q-16 0 -29 13l-81 87q-7 7 -4 14t13 7h48q15 0 27 -12z" />
    <glyph glyph-name="ccaron" unicode="&#x10d;" horiz-adv-x="424" 
d="M36 269q0 139 57.5 208t165.5 69q74 0 118 -22q21 -10 16 -28l-16 -58q-5 -20 -29 -12q-36 12 -70 12q-60 0 -88 -39.5t-28 -129.5t28 -130.5t86 -40.5q37 0 78 15q22 8 27 -12l15 -59q4 -17 -16 -27q-46 -24 -115 -24q-229 0 -229 278zM240 651l54 49q13 13 27 13h48
q10 0 12.5 -7.5t-4.5 -14.5l-82 -89q-12 -12 -29 -12h-53q-18 0 -29 12l-82 89q-7 7 -4 14.5t13 7.5h47q14 0 27 -13z" />
    <glyph glyph-name="Dcaron" unicode="&#x10e;" horiz-adv-x="585" 
d="M252 0h-169q-24 0 -24 24v657q0 23 24 23h167q151 0 223.5 -78.5t72.5 -266.5q0 -197 -71.5 -278t-222.5 -81zM247 586h-56v-468h58q86 0 124.5 51t38.5 190q0 130 -39.5 178.5t-125.5 48.5zM285 810l52 47q15 13 27 13h48q10 0 13 -7t-4 -14l-81 -87q-13 -13 -29 -13
h-53q-16 0 -29 13l-81 87q-7 7 -4 14t13 7h48q15 0 27 -12z" />
    <glyph glyph-name="dcaron" unicode="&#x10f;" horiz-adv-x="665" 
d="M365 268q0 174 -104 174q-51 0 -75 -40.5t-24 -133.5t24 -133.5t75 -40.5q104 0 104 174zM369 19l-2 46q-16 -34 -54.5 -54t-86.5 -20q-189 0 -189 277q0 278 190 278q46 0 83.5 -19.5t52.5 -51.5v208q0 21 23 21h79q22 0 22 -21v-661q0 -22 -22 -22h-73q-21 0 -23 19z
M660 582l-45 -100q-6 -14 -21 -14h-28q-17 0 -11 19l32 94h-27q-22 0 -22 22v88q0 23 23 23h81q24 0 24 -23v-81q0 -13 -6 -28z" />
    <glyph glyph-name="Dcroat" unicode="&#x110;" horiz-adv-x="587" 
d="M254 0h-169q-24 0 -24 24v291h-32q-19 0 -19 18v39q0 19 19 19h32v290q0 23 24 23h167q151 0 223.5 -80t72.5 -272t-71.5 -272t-222.5 -80zM284 315h-91v-197h58q85 0 124 50t39 184q0 135 -39.5 184.5t-125.5 49.5h-56v-195h91q19 0 19 -19v-39q0 -18 -19 -18z" />
    <glyph glyph-name="dcroat" unicode="&#x111;" horiz-adv-x="542" 
d="M369 19l-2 46q-16 -34 -54.5 -54t-86.5 -20q-189 0 -189 278q0 277 190 277q46 0 83.5 -19.5t52.5 -51.5v112h-109q-19 0 -19 18v26q0 19 19 19h109v33q0 21 23 21h79q22 0 22 -21v-33h30q18 0 18 -19v-26q0 -18 -18 -18h-30v-565q0 -22 -22 -22h-73q-21 0 -23 19z
M365 268q0 174 -104 174q-51 0 -75 -40.5t-24 -133.5t24 -133.5t75 -40.5q104 0 104 174z" />
    <glyph glyph-name="Emacron" unicode="&#x112;" horiz-adv-x="483" 
d="M407 303h-218v-187h232q24 0 24 -23v-69q0 -24 -24 -24h-338q-24 0 -24 24v657q0 23 24 23h335q23 0 23 -23v-69q0 -24 -23 -24h-229v-173h218q23 0 23 -24v-64q0 -24 -23 -24zM387 755h-263q-20 0 -20 21v37q0 20 20 20h263q21 0 21 -20v-37q0 -21 -21 -21z" />
    <glyph glyph-name="emacron" unicode="&#x113;" horiz-adv-x="493" 
d="M293 88q56 0 104 20q23 9 29 -15l11 -49q4 -18 -17 -28q-63 -26 -137 -26q-247 0 -247 278q0 139 55.5 208.5t161.5 69.5q102 0 153 -65.5t51 -184.5v-54q0 -23 -23 -23h-276q11 -131 135 -131zM254 450q-47 0 -70.5 -35t-27.5 -112h187v8q0 139 -89 139zM383 595h-261
q-21 0 -21 21v34q0 20 21 20h261q21 0 21 -20v-34q0 -21 -21 -21z" />
    <glyph glyph-name="Ebreve" unicode="&#x114;" horiz-adv-x="483" 
d="M407 303h-218v-187h232q24 0 24 -23v-69q0 -24 -24 -24h-338q-24 0 -24 24v657q0 23 24 23h335q23 0 23 -23v-69q0 -24 -23 -24h-229v-173h218q23 0 23 -24v-64q0 -24 -23 -24zM260 747q-68 0 -103 30.5t-36 78.5q0 16 16 16h40q16 0 19 -15q10 -46 64 -46t64 46
q2 15 18 15h40q16 0 16 -16q0 -48 -35.5 -78.5t-102.5 -30.5z" />
    <glyph glyph-name="ebreve" unicode="&#x115;" horiz-adv-x="493" 
d="M293 88q56 0 104 20q23 9 29 -15l11 -49q4 -18 -17 -28q-63 -26 -137 -26q-247 0 -247 278q0 139 55.5 208.5t161.5 69.5q102 0 153 -65.5t51 -184.5v-54q0 -23 -23 -23h-276q11 -131 135 -131zM254 450q-47 0 -70.5 -35t-27.5 -112h187v8q0 139 -89 139zM253 587
q-68 0 -103 31t-36 78q0 17 17 17h39q15 0 18 -16q8 -46 65 -46q56 0 64 46q3 16 19 16h38q17 0 17 -17q-1 -48 -35.5 -78.5t-102.5 -30.5z" />
    <glyph glyph-name="Edotaccent" unicode="&#x116;" horiz-adv-x="483" 
d="M407 303h-218v-187h232q24 0 24 -23v-69q0 -24 -24 -24h-338q-24 0 -24 24v657q0 23 24 23h335q23 0 23 -23v-69q0 -24 -23 -24h-229v-173h218q23 0 23 -24v-64q0 -24 -23 -24zM328 834v-63q0 -22 -22 -22h-82q-23 0 -23 22v63q0 22 23 22h82q22 0 22 -22z" />
    <glyph glyph-name="edotaccent" unicode="&#x117;" horiz-adv-x="493" 
d="M293 88q56 0 104 20q23 9 29 -15l11 -49q4 -18 -17 -28q-63 -26 -137 -26q-247 0 -247 278q0 139 55.5 208.5t161.5 69.5q102 0 153 -65.5t51 -184.5v-54q0 -23 -23 -23h-276q11 -131 135 -131zM254 450q-47 0 -70.5 -35t-27.5 -112h187v8q0 139 -89 139zM316 673v-62
q0 -22 -22 -22h-82q-23 0 -23 22v62q0 22 23 22h82q22 0 22 -22z" />
    <glyph glyph-name="Eogonek" unicode="&#x118;" horiz-adv-x="483" 
d="M407 303h-218v-187h232q24 0 24 -23v-69q0 -24 -24 -24h-13q-50 -30 -50 -69q0 -28 39 -28q8 0 18 2.5t12 2.5q10 0 11 -9l7 -33q2 -12 -9 -18q-26 -14 -64 -14q-93 0 -93 70q0 28 20.5 54t50.5 42h-267q-24 0 -24 24v657q0 23 24 23h335q23 0 23 -23v-69q0 -24 -23 -24
h-229v-173h218q23 0 23 -24v-64q0 -24 -23 -24z" />
    <glyph glyph-name="eogonek" unicode="&#x119;" horiz-adv-x="493" 
d="M293 88q56 0 104 20q23 9 29 -15l11 -49q4 -18 -17 -28q-25 -11 -65 -19q-45 -29 -45 -62q0 -26 37 -26q8 0 16.5 2t11.5 2q9 0 12 -9l6 -31q2 -12 -9 -18q-22 -12 -61 -12q-88 0 -88 65q0 46 52 82h-4q-247 0 -247 278q0 139 55.5 208.5t161.5 69.5q102 0 153 -65.5
t51 -184.5v-54q0 -23 -23 -23h-276q11 -131 135 -131zM254 450q-47 0 -70.5 -35t-27.5 -112h187v8q0 139 -89 139z" />
    <glyph glyph-name="Ecaron" unicode="&#x11a;" horiz-adv-x="483" 
d="M407 303h-218v-187h232q24 0 24 -23v-69q0 -24 -24 -24h-338q-24 0 -24 24v657q0 23 24 23h335q23 0 23 -23v-69q0 -24 -23 -24h-229v-173h218q23 0 23 -24v-64q0 -24 -23 -24zM258 810l52 47q15 13 27 13h48q10 0 13 -7t-4 -14l-81 -87q-13 -13 -29 -13h-53
q-16 0 -29 13l-81 87q-7 7 -4 14t13 7h48q15 0 27 -12z" />
    <glyph glyph-name="ecaron" unicode="&#x11b;" horiz-adv-x="493" 
d="M293 88q56 0 104 20q23 9 29 -15l11 -49q4 -18 -17 -28q-63 -26 -137 -26q-247 0 -247 278q0 139 55.5 208.5t161.5 69.5q102 0 153 -65.5t51 -184.5v-54q0 -23 -23 -23h-276q11 -131 135 -131zM254 450q-47 0 -70.5 -35t-27.5 -112h187v8q0 139 -89 139zM253 651l54 49
q13 13 27 13h48q10 0 12.5 -7.5t-4.5 -14.5l-82 -89q-12 -12 -29 -12h-53q-18 0 -29 12l-82 89q-7 7 -4 14.5t13 7.5h47q14 0 27 -13z" />
    <glyph glyph-name="Gcircumflex" unicode="&#x11c;" horiz-adv-x="587" 
d="M330 421h181q24 0 24 -23v-334q0 -24 -22 -36q-63 -38 -182 -38q-147 0 -218 83.5t-71 279.5q0 195 73 278.5t228 83.5q82 0 153 -31q24 -11 19 -29l-16 -62q-6 -24 -32 -15q-60 19 -108 19q-103 0 -143.5 -53t-40.5 -191t39 -192.5t130 -54.5q38 0 70 12v197h-84
q-24 0 -24 23v60q0 23 24 23zM370 763l-53 46l-53 -46q-16 -14 -28 -14h-48q-10 0 -12.5 7.5t4.5 14.5l81 87q11 12 29 12h53q17 0 29 -12l81 -87q7 -7 4.5 -14.5t-12.5 -7.5h-48q-13 0 -27 14z" />
    <glyph glyph-name="gcircumflex" unicode="&#x11d;" horiz-adv-x="518" 
d="M344 301q0 147 -93 147q-90 0 -90 -149t90 -149q45 0 69 38.5t24 112.5zM464 514v-438q0 -196 -222 -196q-100 0 -152 24q-20 8 -16 26l11 54q5 22 27 15q60 -20 119 -20q115 0 115 103v43q-15 -33 -49 -51t-79 -18q-181 0 -181 243q0 246 179 246q45 0 80 -20.5
t51 -51.5l3 44q2 19 23 19h70q21 0 21 -22zM313 602l-54 50l-55 -50q-12 -12 -27 -12h-47q-10 0 -13 7t4 14l82 89q12 13 29 13h53q16 0 29 -13l82 -89q7 -7 4.5 -14t-12.5 -7h-48q-15 0 -27 12z" />
    <glyph glyph-name="Gbreve" unicode="&#x11e;" horiz-adv-x="587" 
d="M330 421h181q24 0 24 -23v-334q0 -24 -22 -36q-63 -38 -182 -38q-147 0 -218 83.5t-71 279.5q0 195 73 278.5t228 83.5q82 0 153 -31q24 -11 19 -29l-16 -62q-6 -24 -32 -15q-60 19 -108 19q-103 0 -143.5 -53t-40.5 -191t39 -192.5t130 -54.5q38 0 70 12v197h-84
q-24 0 -24 23v60q0 23 24 23zM321 747q-68 0 -103 30.5t-36 78.5q0 16 16 16h40q16 0 19 -15q10 -46 64 -46t64 46q1 15 18 15h40q16 0 16 -16q0 -48 -35.5 -78.5t-102.5 -30.5z" />
    <glyph glyph-name="gbreve" unicode="&#x11f;" horiz-adv-x="518" 
d="M344 301q0 147 -93 147q-90 0 -90 -149t90 -149q45 0 69 38.5t24 112.5zM464 514v-438q0 -196 -222 -196q-100 0 -152 24q-20 8 -16 26l11 54q5 22 27 15q60 -20 119 -20q115 0 115 103v43q-15 -33 -49 -51t-79 -18q-181 0 -181 243q0 246 179 246q45 0 80 -20.5
t51 -51.5l3 44q2 19 23 19h70q21 0 21 -22zM259 587q-68 0 -103 31t-36 78q0 17 17 17h39q15 0 18 -16q8 -46 65 -46q56 0 64 46q3 16 19 16h38q17 0 17 -17q-1 -48 -35.5 -78.5t-102.5 -30.5z" />
    <glyph glyph-name="Gdotaccent" unicode="&#x120;" horiz-adv-x="587" 
d="M330 421h181q24 0 24 -23v-334q0 -24 -22 -36q-63 -38 -182 -38q-147 0 -218 83.5t-71 279.5q0 195 73 278.5t228 83.5q82 0 153 -31q24 -11 19 -29l-16 -62q-6 -24 -32 -15q-60 19 -108 19q-103 0 -143.5 -53t-40.5 -191t39 -192.5t130 -54.5q38 0 70 12v197h-84
q-24 0 -24 23v60q0 23 24 23zM390 834v-63q0 -22 -22 -22h-82q-23 0 -23 22v63q0 22 23 22h82q22 0 22 -22z" />
    <glyph glyph-name="gdotaccent" unicode="&#x121;" horiz-adv-x="518" 
d="M344 301q0 147 -93 147q-90 0 -90 -149t90 -149q45 0 69 38.5t24 112.5zM464 514v-438q0 -196 -222 -196q-100 0 -152 24q-20 8 -16 26l11 54q5 22 27 15q60 -20 119 -20q115 0 115 103v43q-15 -33 -49 -51t-79 -18q-181 0 -181 243q0 246 179 246q45 0 80 -20.5
t51 -51.5l3 44q2 19 23 19h70q21 0 21 -22zM324 673v-62q0 -22 -22 -22h-82q-23 0 -23 22v62q0 22 23 22h82q22 0 22 -22z" />
    <glyph glyph-name="Gcommaaccent" unicode="&#x122;" horiz-adv-x="587" 
d="M330 421h181q24 0 24 -23v-334q0 -24 -22 -36q-63 -38 -182 -38q-147 0 -218 83.5t-71 279.5q0 195 73 278.5t228 83.5q82 0 153 -31q24 -11 19 -29l-16 -62q-6 -24 -32 -15q-60 19 -108 19q-103 0 -143.5 -53t-40.5 -191t39 -192.5t130 -54.5q38 0 70 12v197h-84
q-24 0 -24 23v60q0 23 24 23zM397 -156l-40 -89q-6 -14 -20 -14h-15q-15 0 -12 18l20 83h-25q-21 0 -21 21v72q0 21 21 21h75q22 0 22 -21v-64q0 -15 -5 -27z" />
    <glyph glyph-name="gcommaaccent" unicode="&#x123;" horiz-adv-x="518" 
d="M344 301q0 147 -93 147q-90 0 -90 -149t90 -149q45 0 69 38.5t24 112.5zM464 514v-438q0 -196 -222 -196q-100 0 -152 24q-20 8 -16 26l11 54q5 22 27 15q60 -20 119 -20q115 0 115 103v43q-15 -33 -49 -51t-79 -18q-181 0 -181 243q0 246 179 246q45 0 80 -20.5
t51 -51.5l3 44q2 19 23 19h70q21 0 21 -22zM206 697l36 86q8 14 19 14h16q15 0 11 -18l-19 -79h24q21 0 21 -21v-67q0 -21 -21 -21h-71q-21 0 -21 21v59q0 15 5 26z" />
    <glyph glyph-name="Hcircumflex" unicode="&#x124;" horiz-adv-x="595" 
d="M404 24v275h-213v-275q0 -24 -24 -24h-84q-24 0 -24 24v657q0 23 24 23h84q24 0 24 -23v-262h213v262q0 23 24 23h84q23 0 23 -23v-657q0 -24 -23 -24h-84q-24 0 -24 24zM342 763l-53 46l-53 -46q-16 -14 -28 -14h-48q-10 0 -12.5 7.5t4.5 14.5l81 87q11 12 29 12h53
q17 0 29 -12l81 -87q7 -7 4.5 -14.5t-12.5 -7.5h-48q-13 0 -27 14z" />
    <glyph glyph-name="hcircumflex" unicode="&#x125;" horiz-adv-x="522" 
d="M472 365v-343q0 -22 -22 -22h-80q-21 0 -21 22v319q0 47 -17 70.5t-58 23.5q-47 0 -71 -31.5t-24 -85.5v-296q0 -22 -22 -22h-80q-22 0 -22 22v661q0 21 22 21h80q22 0 22 -21v-207q40 70 138 70q78 0 116.5 -47.5t38.5 -133.5zM312 763l-53 46l-53 -46q-16 -14 -28 -14
h-48q-10 0 -12.5 7.5t4.5 14.5l81 87q11 12 29 12h53q17 0 29 -12l81 -87q7 -7 4.5 -14.5t-12.5 -7.5h-48q-13 0 -27 14z" />
    <glyph glyph-name="Hbar" unicode="&#x126;" horiz-adv-x="590" 
d="M404 24v275h-213v-275q0 -24 -24 -24h-84q-24 0 -24 24v512h-31q-19 0 -19 18v27q0 18 19 18h31v82q0 23 24 23h84q24 0 24 -23v-82h213v82q0 23 24 23h84q23 0 23 -23v-82h32q19 0 19 -18v-27q0 -18 -19 -18h-32v-512q0 -24 -23 -24h-84q-24 0 -24 24zM191 419h213v117
h-213v-117z" />
    <glyph glyph-name="hbar" unicode="&#x127;" horiz-adv-x="528" 
d="M476 364v-342q0 -22 -21 -22h-75q-21 0 -21 22v320q0 48 -18.5 71.5t-62.5 23.5q-51 0 -76.5 -33t-25.5 -89v-293q0 -22 -22 -22h-74q-21 0 -21 22v563h-31q-19 0 -19 19v28q0 20 19 20h31v31q0 21 21 21h74q22 0 22 -21v-31h115q21 0 21 -20v-28q0 -19 -21 -19h-115
v-106q39 67 138 67q79 0 120.5 -48.5t41.5 -133.5z" />
    <glyph glyph-name="Itilde" unicode="&#x128;" horiz-adv-x="261" 
d="M65 24v657q0 23 23 23h85q23 0 23 -23v-657q0 -24 -23 -24h-85q-23 0 -23 24zM286 823q0 -77 -71 -77q-37 0 -77 17l-30 13q-21 8 -39 8q-23 0 -25 -15l-1 -6q-3 -14 -20 -14h-29q-20 0 -20 27q0 78 71 78q28 0 77 -17l31 -13q59 -26 62 6l1 8q3 14 21 14h28q21 0 21 -29
z" />
    <glyph glyph-name="itilde" unicode="&#x129;" horiz-adv-x="236" 
d="M179 514v-492q0 -22 -21 -22h-79q-23 0 -23 22v492q0 22 23 22h79q21 0 21 -22zM270 663q0 -75 -66 -75q-37 0 -78 17l-29 13q-23 9 -36 9q-20 0 -23 -17l-1 -6q-3 -14 -20 -14h-29q-20 0 -20 27q0 76 66 76q35 0 77 -17l30 -13q24 -9 37 -9q20 0 22 18l1 5q1 15 19 15
h30q20 0 20 -29z" />
    <glyph glyph-name="Imacron" unicode="&#x12a;" horiz-adv-x="261" 
d="M65 24v657q0 23 23 23h85q23 0 23 -23v-657q0 -24 -23 -24h-85q-23 0 -23 24zM261 755h-263q-20 0 -20 21v37q0 20 20 20h263q21 0 21 -20v-37q0 -21 -21 -21z" />
    <glyph glyph-name="imacron" unicode="&#x12b;" horiz-adv-x="236" 
d="M179 514v-492q0 -22 -21 -22h-79q-23 0 -23 22v492q0 22 23 22h79q21 0 21 -22zM249 595h-261q-21 0 -21 21v34q0 20 21 20h261q21 0 21 -20v-34q0 -21 -21 -21z" />
    <glyph glyph-name="Ibreve" unicode="&#x12c;" horiz-adv-x="261" 
d="M65 24v657q0 23 23 23h85q23 0 23 -23v-657q0 -24 -23 -24h-85q-23 0 -23 24zM130 747q-68 0 -103 30.5t-36 78.5q0 16 16 16h40q16 0 19 -15q10 -46 64 -46t64 46q2 15 18 15h40q16 0 16 -16q0 -48 -35.5 -78.5t-102.5 -30.5z" />
    <glyph glyph-name="ibreve" unicode="&#x12d;" horiz-adv-x="236" 
d="M179 514v-492q0 -22 -21 -22h-79q-23 0 -23 22v492q0 22 23 22h79q21 0 21 -22zM119 587q-68 0 -103 31t-36 78q0 17 17 17h39q15 0 18 -16q8 -46 65 -46q56 0 64 46q3 16 19 16h38q17 0 17 -17q-1 -48 -35.5 -78.5t-102.5 -30.5z" />
    <glyph glyph-name="Iogonek" unicode="&#x12e;" horiz-adv-x="261" 
d="M65 24v657q0 23 23 23h85q23 0 23 -23v-657q0 -24 -23 -24h-6q-50 -30 -50 -69q0 -28 39 -28q8 0 18 2.5t12 2.5q10 0 11 -9l7 -33q2 -12 -9 -18q-26 -14 -64 -14q-93 0 -93 70q0 28 20.5 54t50.5 42h-21q-23 0 -23 24z" />
    <glyph glyph-name="iogonek" unicode="&#x12f;" horiz-adv-x="235" 
d="M179 514v-492q0 -22 -22 -22h-8q-49 -29 -49 -65q0 -26 37 -26q8 0 16.5 2t11.5 2q9 0 12 -9l6 -31q2 -12 -9 -18q-22 -12 -61 -12q-88 0 -88 65q0 54 68 92h-15q-22 0 -22 22v492q0 22 22 22h79q22 0 22 -22zM180 680v-66q0 -23 -21 -23h-83q-21 0 -21 23v66q0 22 21 22
h83q21 0 21 -22z" />
    <glyph glyph-name="Idotaccent" unicode="&#x130;" horiz-adv-x="261" 
d="M65 24v657q0 23 23 23h85q23 0 23 -23v-657q0 -24 -23 -24h-85q-23 0 -23 24zM193 834v-63q0 -22 -22 -22h-82q-23 0 -23 22v63q0 22 23 22h82q22 0 22 -22z" />
    <glyph glyph-name="dotlessi" unicode="&#x131;" horiz-adv-x="236" 
d="M179 514v-492q0 -22 -21 -22h-79q-23 0 -23 22v492q0 22 23 22h79q21 0 21 -22z" />
    <glyph glyph-name="IJ" unicode="&#x132;" horiz-adv-x="650" 
d="M65 24v657q0 23 23 23h85q23 0 23 -23v-657q0 -24 -23 -24h-85q-23 0 -23 24zM462 216v465q0 23 23 23h85q23 0 23 -23v-480q0 -110 -47 -159.5t-144 -49.5q-70 0 -116 21q-24 11 -19 32l15 65q5 23 26 16q41 -15 74 -15q41 0 60.5 24.5t19.5 80.5z" />
    <glyph glyph-name="ij" unicode="&#x133;" horiz-adv-x="484" 
d="M179 514v-492q0 -22 -22 -22h-79q-22 0 -22 22v492q0 22 22 22h79q22 0 22 -22zM180 680v-66q0 -23 -21 -23h-83q-21 0 -21 23v66q0 22 21 22h83q21 0 21 -22zM305 153v361q0 22 22 22h79q22 0 22 -22v-377q0 -79 -29 -111.5t-99 -32.5q-36 0 -59 6q-19 4 -19 23v60
q0 21 21 19q18 -2 26 -2q19 0 27.5 12t8.5 42zM430 680v-66q0 -23 -23 -23h-82q-22 0 -22 23v66q0 22 22 22h82q23 0 23 -22z" />
    <glyph glyph-name="Jcircumflex" unicode="&#x134;" horiz-adv-x="401" 
d="M214 216v465q0 23 23 23h85q23 0 23 -23v-480q0 -110 -47 -159.5t-144 -49.5q-70 0 -116 21q-24 11 -19 32l15 65q5 23 26 16q41 -15 74 -15q41 0 60.5 24.5t19.5 80.5zM248 763l-53 46l-53 -46q-16 -14 -28 -14h-48q-10 0 -12.5 7.5t4.5 14.5l81 87q11 12 29 12h53
q17 0 29 -12l81 -87q7 -7 4.5 -14.5t-12.5 -7.5h-48q-13 0 -27 14z" />
    <glyph glyph-name="jcircumflex" unicode="&#x135;" horiz-adv-x="252" 
d="M72 45v469q0 22 22 22h80q21 0 21 -22v-486q0 -79 -29 -111t-100 -32q-38 0 -60 6q-18 5 -18 22v61q0 21 20 19q18 -2 28 -2q19 0 27.5 11.5t8.5 42.5zM186 602l-54 50l-55 -50q-12 -12 -27 -12h-47q-10 0 -13 7t4 14l82 89q12 13 29 13h53q16 0 29 -13l82 -89
q7 -7 4.5 -14t-12.5 -7h-48q-15 0 -27 12z" />
    <glyph glyph-name="Kcommaaccent" unicode="&#x136;" horiz-adv-x="547" 
d="M191 437l184 248q14 19 33 19h98q13 0 17.5 -9t-3.5 -19l-224 -297l230 -350q8 -11 3.5 -20t-17.5 -9h-100q-20 0 -32 22l-189 290v-288q0 -24 -24 -24h-84q-24 0 -24 24v657q0 23 24 23h84q24 0 24 -23v-244zM344 -156l-40 -89q-6 -14 -20 -14h-15q-15 0 -12 18l20 83
h-25q-21 0 -21 21v72q0 21 21 21h75q22 0 22 -21v-64q0 -15 -5 -27z" />
    <glyph glyph-name="kcommaaccent" unicode="&#x137;" horiz-adv-x="471" 
d="M445 0h-94q-21 0 -32 18l-140 209v-205q0 -22 -22 -22h-80q-22 0 -22 22v661q0 21 22 21h80q22 0 22 -21v-326l135 164q12 15 32 15h93q13 0 16 -9.5t-6 -19.5l-180 -210l189 -270q7 -10 3 -18.5t-16 -8.5zM303 -150l-36 -86q-8 -14 -19 -14h-16q-15 0 -11 18l19 79h-24
q-21 0 -21 21v67q0 21 21 21h71q21 0 21 -21v-59q0 -15 -5 -26z" />
    <glyph glyph-name="kgreenlandic" unicode="&#x138;" horiz-adv-x="467" 
d="M442 0h-95q-21 0 -32 18l-140 209v-206q0 -21 -21 -21h-80q-22 0 -22 22v492q0 22 22 22h79q22 0 22 -22v-157l137 164q12 15 30 15h93q13 0 16 -9.5t-5 -19.5l-180 -210l188 -270q7 -10 3.5 -18.5t-15.5 -8.5z" />
    <glyph glyph-name="Lacute" unicode="&#x139;" horiz-adv-x="458" 
d="M194 681v-561h210q24 0 24 -23v-73q0 -24 -24 -24h-318q-24 0 -24 24v657q0 23 24 23h84q24 0 24 -23zM94 768l38 82q7 16 25 16h97q10 0 12.5 -8t-4.5 -16l-78 -80q-12 -13 -29 -13h-49q-9 0 -12 5.5t0 13.5z" />
    <glyph glyph-name="lacute" unicode="&#x13a;" horiz-adv-x="235" 
d="M179 683v-661q0 -22 -22 -22h-79q-22 0 -22 22v661q0 21 22 21h79q22 0 22 -21zM77 768l38 82q7 16 25 16h97q10 0 12.5 -8t-4.5 -16l-78 -80q-12 -13 -29 -13h-49q-9 0 -12 5.5t0 13.5z" />
    <glyph glyph-name="Lcommaaccent" unicode="&#x13b;" horiz-adv-x="458" 
d="M191 681v-561h210q24 0 24 -23v-73q0 -24 -24 -24h-318q-24 0 -24 24v657q0 23 24 23h84q24 0 24 -23zM295 -156l-40 -89q-6 -14 -20 -14h-15q-15 0 -12 18l20 83h-25q-21 0 -21 21v72q0 21 21 21h75q22 0 22 -21v-64q0 -15 -5 -27z" />
    <glyph glyph-name="lcommaaccent" unicode="&#x13c;" horiz-adv-x="235" 
d="M180 683v-661q0 -22 -22 -22h-79q-22 0 -22 22v661q0 21 22 21h79q22 0 22 -21zM169 -150l-36 -86q-8 -14 -19 -14h-16q-15 0 -11 18l19 79h-24q-21 0 -21 21v67q0 21 21 21h71q21 0 21 -21v-59q0 -15 -5 -26z" />
    <glyph glyph-name="Lcaron" unicode="&#x13d;" horiz-adv-x="462" 
d="M191 681v-561h210q24 0 24 -23v-73q0 -24 -24 -24h-318q-24 0 -24 24v657q0 23 24 23h84q24 0 24 -23zM394 583l-45 -100q-6 -14 -21 -14h-28q-17 0 -11 19l32 94h-27q-22 0 -22 22v88q0 23 23 23h81q24 0 24 -23v-81q0 -13 -6 -28z" />
    <glyph glyph-name="lcaron" unicode="&#x13e;" horiz-adv-x="358" 
d="M180 683v-661q0 -22 -22 -22h-79q-22 0 -22 22v661q0 21 22 21h79q22 0 22 -21zM353 582l-45 -100q-6 -14 -21 -14h-28q-17 0 -11 19l32 94h-27q-22 0 -22 22v88q0 23 23 23h81q24 0 24 -23v-81q0 -13 -6 -28z" />
    <glyph glyph-name="Ldot" unicode="&#x13f;" horiz-adv-x="474" 
d="M191 681v-561h210q24 0 24 -23v-73q0 -24 -24 -24h-318q-24 0 -24 24v657q0 23 24 23h84q24 0 24 -23zM307 295v91q0 22 23 22h82q23 0 23 -22v-91q0 -23 -22 -23h-84q-22 0 -22 23z" />
    <glyph glyph-name="ldot" unicode="&#x140;" horiz-adv-x="355" 
d="M179 683v-661q0 -22 -22 -22h-79q-22 0 -22 22v661q0 21 22 21h79q22 0 22 -21zM229 234v91q0 22 23 22h82q23 0 23 -22v-91q0 -23 -22 -23h-84q-22 0 -22 23z" />
    <glyph glyph-name="Lslash" unicode="&#x141;" horiz-adv-x="461" 
d="M194 681v-254l89 52q17 10 26 -6l13 -24q10 -16 -7 -26l-121 -71v-232h210q24 0 24 -23v-73q0 -24 -24 -24h-318q-24 0 -24 24v251l-14 -7q-16 -10 -26 7l-13 23q-9 15 7 26l46 27v330q0 23 24 23h84q24 0 24 -23z" />
    <glyph glyph-name="lslash" unicode="&#x142;" horiz-adv-x="241" 
d="M182 683v-250l9 6q17 10 26 -7l13 -24q10 -15 -7 -25l-41 -25v-336q0 -22 -22 -22h-80q-21 0 -21 22v264l-9 -5q-17 -9 -27 8l-13 23q-9 16 7 25l42 24v322q0 21 21 21h80q22 0 22 -21z" />
    <glyph glyph-name="Nacute" unicode="&#x143;" horiz-adv-x="603" 
d="M544 682v-658q0 -24 -24 -24h-80q-22 0 -30 18l-223 443v-437q0 -24 -23 -24h-81q-24 0 -24 24v657q0 23 24 23h80q22 0 30 -17l223 -444v438q0 23 23 23h81q24 0 24 -22zM253 768l38 82q7 16 25 16h97q10 0 12.5 -8t-4.5 -16l-78 -80q-12 -13 -29 -13h-49q-9 0 -12 5.5
t0 13.5z" />
    <glyph glyph-name="nacute" unicode="&#x144;" horiz-adv-x="517" 
d="M467 365v-343q0 -22 -22 -22h-80q-22 0 -22 22v319q0 47 -17 70.5t-57 23.5q-46 0 -70 -31t-24 -86v-296q0 -22 -22 -22h-79q-22 0 -22 22v492q0 22 22 22h72q22 0 24 -19l3 -44q43 73 140 73q77 0 115.5 -47.5t38.5 -133.5zM203 608l38 82q8 16 25 16h97q10 0 12.5 -8
t-4.5 -16l-78 -80q-11 -12 -29 -12h-48q-20 0 -13 18z" />
    <glyph glyph-name="Ncommaaccent" unicode="&#x145;" horiz-adv-x="603" 
d="M544 682v-658q0 -24 -24 -24h-80q-22 0 -30 18l-223 443v-437q0 -24 -23 -24h-81q-24 0 -24 24v657q0 23 24 23h80q22 0 30 -17l223 -444v438q0 23 23 23h81q24 0 24 -22zM348 -156l-40 -89q-6 -14 -20 -14h-15q-15 0 -12 18l20 83h-25q-21 0 -21 21v72q0 21 21 21h75
q22 0 22 -21v-64q0 -15 -5 -27z" />
    <glyph glyph-name="ncommaaccent" unicode="&#x146;" horiz-adv-x="517" 
d="M467 365v-343q0 -22 -22 -22h-80q-22 0 -22 22v319q0 47 -17 70.5t-57 23.5q-46 0 -70 -31t-24 -86v-296q0 -22 -22 -22h-79q-22 0 -22 22v492q0 22 22 22h72q22 0 24 -19l3 -44q43 73 140 73q77 0 115.5 -47.5t38.5 -133.5zM312 -150l-36 -86q-8 -14 -19 -14h-16
q-15 0 -11 18l19 79h-24q-21 0 -21 21v67q0 21 21 21h71q21 0 21 -21v-59q0 -15 -5 -26z" />
    <glyph glyph-name="Ncaron" unicode="&#x147;" horiz-adv-x="603" 
d="M544 682v-658q0 -24 -24 -24h-80q-22 0 -30 18l-223 443v-437q0 -24 -23 -24h-81q-24 0 -24 24v657q0 23 24 23h80q22 0 30 -17l223 -444v438q0 23 23 23h81q24 0 24 -22zM294 810l52 47q15 13 27 13h48q10 0 13 -7t-4 -14l-81 -87q-13 -13 -29 -13h-53q-16 0 -29 13
l-81 87q-7 7 -4 14t13 7h48q15 0 27 -12z" />
    <glyph glyph-name="ncaron" unicode="&#x148;" horiz-adv-x="517" 
d="M467 365v-343q0 -22 -22 -22h-80q-22 0 -22 22v319q0 47 -17 70.5t-57 23.5q-46 0 -70 -31t-24 -86v-296q0 -22 -22 -22h-79q-22 0 -22 22v492q0 22 22 22h72q22 0 24 -19l3 -44q43 73 140 73q77 0 115.5 -47.5t38.5 -133.5zM257 651l54 49q13 13 27 13h48
q10 0 12.5 -7.5t-4.5 -14.5l-82 -89q-12 -12 -29 -12h-53q-18 0 -29 12l-82 89q-7 7 -4 14.5t13 7.5h47q14 0 27 -13z" />
    <glyph glyph-name="napostrophe" unicode="&#x149;" horiz-adv-x="639" 
d="M589 365v-343q0 -22 -22 -22h-80q-22 0 -22 22v319q0 47 -17 70.5t-57 23.5q-46 0 -70 -31t-24 -86v-296q0 -22 -22 -22h-79q-22 0 -22 22v492q0 22 22 22h72q22 0 24 -19l3 -44q43 73 140 73q77 0 115.5 -47.5t38.5 -133.5zM123 595l-45 -100q-6 -14 -21 -14h-28
q-17 0 -11 19l32 94h-27q-22 0 -22 22v88q0 23 23 23h81q24 0 24 -23v-81q0 -13 -6 -28z" />
    <glyph glyph-name="Eng" unicode="&#x14a;" horiz-adv-x="603" 
d="M544 681v-646q0 -81 -32.5 -116.5t-101.5 -35.5q-26 0 -74 9q-24 5 -21 25l7 55q3 21 23 18q25 -5 35 -5q18 0 26 8.5t9 30.5l-228 437v-437q0 -24 -23 -24h-81q-24 0 -24 24v657q0 23 24 23h80q22 0 30 -17l223 -442v436q0 23 23 23h81q24 0 24 -23z" />
    <glyph glyph-name="eng" unicode="&#x14b;" horiz-adv-x="517" 
d="M343 43v298q0 47 -17 70.5t-57 23.5q-46 0 -70 -31t-24 -86v-296q0 -22 -22 -22h-79q-22 0 -22 22v492q0 22 22 22h73q21 0 23 -19l3 -44q43 73 140 73q77 0 115.5 -47.5t38.5 -133.5v-342q0 -73 -29 -105.5t-96 -32.5q-33 0 -59 7q-18 4 -18 22v60q0 10 5 15t14 4
q22 -2 28 -2q31 0 31 52z" />
    <glyph glyph-name="Omacron" unicode="&#x14c;" horiz-adv-x="608" 
d="M304 715q130 0 196.5 -85.5t66.5 -277.5q0 -191 -66 -276.5t-197 -85.5t-197 85.5t-66 276.5q0 192 66.5 277.5t196.5 85.5zM304 106q67 0 98 56t31 190t-31 190.5t-98 56.5t-98 -56.5t-31 -190.5t31 -190t98 -56zM435 755h-263q-20 0 -20 21v37q0 20 20 20h263
q21 0 21 -20v-37q0 -21 -21 -21z" />
    <glyph glyph-name="omacron" unicode="&#x14d;" horiz-adv-x="518" 
d="M259 -9q223 0 223 277q0 278 -223 278t-223 -278q0 -277 223 -277zM259 93q-50 0 -73.5 41.5t-23.5 133.5q0 93 23.5 134t73.5 41t73.5 -41.5t23.5 -133.5t-24 -133.5t-73 -41.5zM389 595h-261q-21 0 -21 21v34q0 20 21 20h261q21 0 21 -20v-34q0 -21 -21 -21z" />
    <glyph glyph-name="Obreve" unicode="&#x14e;" horiz-adv-x="608" 
d="M304 715q130 0 196.5 -85.5t66.5 -277.5q0 -191 -66 -276.5t-197 -85.5t-197 85.5t-66 276.5q0 192 66.5 277.5t196.5 85.5zM304 106q67 0 98 56t31 190t-31 190.5t-98 56.5t-98 -56.5t-31 -190.5t31 -190t98 -56zM304 747q-68 0 -103 30.5t-36 78.5q0 16 16 16h40
q16 0 19 -15q10 -46 64 -46t64 46q2 15 18 15h40q16 0 16 -16q0 -48 -35.5 -78.5t-102.5 -30.5z" />
    <glyph glyph-name="obreve" unicode="&#x14f;" horiz-adv-x="518" 
d="M259 -9q-223 0 -223 277q0 278 223 278t223 -278q0 -277 -223 -277zM259 93q49 0 73 41.5t24 133.5t-23.5 133.5t-73.5 41.5t-73.5 -41t-23.5 -134q0 -92 23.5 -133.5t73.5 -41.5zM259 587q-68 0 -103 31t-36 78q0 17 17 17h39q15 0 18 -16q8 -46 65 -46q56 0 64 46
q3 16 19 16h38q17 0 17 -17q-1 -48 -35.5 -78.5t-102.5 -30.5z" />
    <glyph glyph-name="Ohungarumlaut" unicode="&#x150;" horiz-adv-x="608" 
d="M304 715q130 0 196.5 -85.5t66.5 -277.5q0 -191 -66 -276.5t-197 -85.5t-197 85.5t-66 276.5q0 192 66.5 277.5t196.5 85.5zM304 106q67 0 98 56t31 190t-31 190.5t-98 56.5t-98 -56.5t-31 -190.5t31 -190t98 -56zM181 769l35 84q7 16 25 16h83q10 0 12.5 -8.5
t-3.5 -15.5l-65 -81q-10 -14 -30 -14h-44q-9 0 -12.5 5.5t-0.5 13.5zM348 769l36 84q6 16 25 16h82q11 0 14 -8.5t-4 -15.5l-65 -81q-11 -14 -30 -14h-44q-9 0 -13 5.5t-1 13.5z" />
    <glyph glyph-name="ohungarumlaut" unicode="&#x151;" horiz-adv-x="518" 
d="M259 -9q223 0 223 277q0 278 -223 278t-223 -278q0 -277 223 -277zM259 93q-50 0 -73.5 41.5t-23.5 133.5q0 93 23.5 134t73.5 41t73.5 -41.5t23.5 -133.5t-24 -133.5t-73 -41.5zM134 608l36 82q5 16 24 16h80q10 0 12.5 -8t-3.5 -16l-64 -80q-11 -12 -29 -12h-43
q-20 0 -13 18zM298 608l35 82q6 16 24 16h79q11 0 13.5 -8t-3.5 -16l-64 -80q-10 -12 -30 -12h-41q-20 0 -13 18z" />
    <glyph glyph-name="OE" unicode="&#x152;" horiz-adv-x="797" 
d="M721 303h-204v-186h218q23 0 23 -23v-70q0 -24 -23 -24h-390q-150 0 -220.5 80t-70.5 272q0 193 71 272.5t222 79.5h384q24 0 24 -23v-70q0 -24 -24 -24h-214v-172h204q23 0 23 -24v-64q0 -24 -23 -24zM388 586h-39q-85 0 -123.5 -49.5t-38.5 -184.5q0 -134 38 -184
t122 -50h41v468z" />
    <glyph glyph-name="oe" unicode="&#x153;" horiz-adv-x="794" 
d="M597 88q52 0 102 20q23 10 28 -14l12 -51q4 -17 -15 -26q-63 -27 -136 -27q-121 0 -177 81q-49 -80 -158 -80q-105 0 -161 69t-56 208t55.5 208.5t159.5 69.5q108 0 157 -77q49 77 152 77q97 0 147.5 -65t50.5 -180v-54q0 -22 -24 -22h-268q10 -137 131 -137zM254 93
q47 0 70 41.5t23 133.5q0 91 -23 133t-70 42t-69.5 -42t-22.5 -133q0 -92 22.5 -133.5t69.5 -41.5zM559 450q-88 0 -94 -141h178v8q0 133 -84 133z" />
    <glyph glyph-name="Racute" unicode="&#x154;" horiz-adv-x="564" 
d="M190 345h78q70 0 97 27.5t27 93.5q0 69 -27.5 95.5t-97.5 26.5h-77v-243zM83 704h186q135 0 195.5 -54.5t60.5 -183.5q0 -177 -141 -214l135 -223q7 -11 3.5 -20t-17.5 -9h-90q-21 0 -33 19l-127 214h-65v-209q0 -24 -23 -24h-84q-24 0 -24 24v657q0 23 24 23zM232 768
l38 82q7 16 25 16h97q10 0 12.5 -8t-4.5 -16l-78 -80q-12 -13 -29 -13h-49q-9 0 -12 5.5t0 13.5z" />
    <glyph glyph-name="racute" unicode="&#x155;" horiz-adv-x="347" 
d="M75 536h74q21 0 23 -21l3 -65q13 36 47 63.5t82 27.5q22 0 22 -21v-93q0 -19 -19 -19q-4 0 -13.5 1t-17.5 1q-45 1 -72.5 -38.5t-27.5 -99.5v-250q0 -22 -22 -22h-79q-22 0 -22 22v492q0 22 22 22zM117 608l38 82q8 16 25 16h97q10 0 12.5 -8t-4.5 -16l-78 -80
q-11 -12 -29 -12h-48q-20 0 -13 18z" />
    <glyph glyph-name="Rcommaaccent" unicode="&#x156;" horiz-adv-x="564" 
d="M190 345h78q70 0 97 27.5t27 93.5q0 69 -27.5 95.5t-97.5 26.5h-77v-243zM83 704h186q135 0 195.5 -54.5t60.5 -183.5q0 -177 -141 -214l135 -223q7 -11 3.5 -20t-17.5 -9h-90q-21 0 -33 19l-127 214h-65v-209q0 -24 -23 -24h-84q-24 0 -24 24v657q0 23 24 23zM339 -156
l-40 -89q-6 -14 -20 -14h-15q-15 0 -12 18l20 83h-25q-21 0 -21 21v72q0 21 21 21h75q22 0 22 -21v-64q0 -15 -5 -27z" />
    <glyph glyph-name="rcommaaccent" unicode="&#x157;" horiz-adv-x="347" 
d="M75 536h74q21 0 23 -21l3 -65q13 36 47 63.5t82 27.5q22 0 22 -21v-93q0 -19 -19 -19q-4 0 -13.5 1t-17.5 1q-45 1 -72.5 -38.5t-27.5 -99.5v-250q0 -22 -22 -22h-79q-22 0 -22 22v492q0 22 22 22zM166 -150l-36 -86q-8 -14 -19 -14h-16q-15 0 -11 18l19 79h-24
q-21 0 -21 21v67q0 21 21 21h71q21 0 21 -21v-59q0 -15 -5 -26z" />
    <glyph glyph-name="Rcaron" unicode="&#x158;" horiz-adv-x="564" 
d="M190 345h78q70 0 97 27.5t27 93.5q0 69 -27.5 95.5t-97.5 26.5h-77v-243zM83 704h186q135 0 195.5 -54.5t60.5 -183.5q0 -177 -141 -214l135 -223q7 -11 3.5 -20t-17.5 -9h-90q-21 0 -33 19l-127 214h-65v-209q0 -24 -23 -24h-84q-24 0 -24 24v657q0 23 24 23zM281 810
l52 47q15 13 27 13h48q10 0 13 -7t-4 -14l-81 -87q-13 -13 -29 -13h-53q-16 0 -29 13l-81 87q-7 7 -4 14t13 7h48q15 0 27 -12z" />
    <glyph glyph-name="rcaron" unicode="&#x159;" horiz-adv-x="347" 
d="M75 536h74q21 0 23 -21l3 -65q13 36 47 63.5t82 27.5q22 0 22 -21v-93q0 -19 -19 -19q-4 0 -13.5 1t-17.5 1q-45 1 -72.5 -38.5t-27.5 -99.5v-250q0 -22 -22 -22h-79q-22 0 -22 22v492q0 22 22 22zM184 651l54 49q13 13 27 13h48q10 0 12.5 -7.5t-4.5 -14.5l-82 -89
q-12 -12 -29 -12h-53q-18 0 -29 12l-82 89q-7 7 -4 14.5t13 7.5h47q14 0 27 -13z" />
    <glyph glyph-name="Sacute" unicode="&#x15a;" horiz-adv-x="489" 
d="M456 185q0 -98 -63.5 -146t-170.5 -48q-106 0 -167 26q-24 10 -20 29l15 64q5 26 30 16q57 -21 122 -21q121 0 121 82q0 37 -26 61.5t-88 58.5q-39 20 -64 36.5t-51 42.5t-39 61t-13 79q0 95 54.5 142t168.5 47q80 0 145 -24q24 -9 19 -28l-15 -63q-5 -24 -30 -16
q-48 16 -106 16q-54 0 -78.5 -18t-24.5 -58q0 -36 27 -61.5t82 -55.5q45 -25 68.5 -41t51.5 -42.5t40 -60.5t12 -78zM197 768l38 82q7 16 25 16h97q10 0 12.5 -8t-4.5 -16l-78 -80q-12 -13 -29 -13h-49q-9 0 -12 5.5t0 13.5z" />
    <glyph glyph-name="sacute" unicode="&#x15b;" horiz-adv-x="408" 
d="M379 145q0 -154 -193 -154q-82 0 -141 21q-20 6 -17 24l10 57q3 22 26 14q48 -16 105 -16q89 0 89 58q0 26 -21.5 43t-73.5 40q-70 33 -92 53q-42 39 -42 110q0 151 182 151q74 0 130 -20q20 -6 16 -24l-10 -55q-3 -22 -25 -15q-44 14 -91 14q-42 0 -61.5 -12.5
t-19.5 -41.5q0 -25 21.5 -41t74.5 -40q68 -31 100.5 -66.5t32.5 -99.5zM148 608l38 82q8 16 25 16h97q10 0 12.5 -8t-4.5 -16l-78 -80q-11 -12 -29 -12h-48q-20 0 -13 18z" />
    <glyph glyph-name="Scircumflex" unicode="&#x15c;" horiz-adv-x="489" 
d="M456 185q0 -98 -63.5 -146t-170.5 -48q-106 0 -167 26q-24 10 -20 29l15 64q5 26 30 16q57 -21 122 -21q121 0 121 82q0 37 -26 61.5t-88 58.5q-39 20 -64 36.5t-51 42.5t-39 61t-13 79q0 95 54.5 142t168.5 47q80 0 145 -24q24 -9 19 -28l-15 -63q-5 -24 -30 -16
q-48 16 -106 16q-54 0 -78.5 -18t-24.5 -58q0 -36 27 -61.5t82 -55.5q45 -25 68.5 -41t51.5 -42.5t40 -60.5t12 -78zM296 763l-53 46l-53 -46q-16 -14 -28 -14h-48q-10 0 -12.5 7.5t4.5 14.5l81 87q11 12 29 12h53q17 0 29 -12l81 -87q7 -7 4.5 -14.5t-12.5 -7.5h-48
q-13 0 -27 14z" />
    <glyph glyph-name="scircumflex" unicode="&#x15d;" horiz-adv-x="408" 
d="M379 145q0 -154 -193 -154q-82 0 -141 21q-20 6 -17 24l10 57q3 22 26 14q48 -16 105 -16q89 0 89 58q0 26 -21.5 43t-73.5 40q-70 33 -92 53q-42 39 -42 110q0 151 182 151q74 0 130 -20q20 -6 16 -24l-10 -55q-3 -22 -25 -15q-44 14 -91 14q-42 0 -61.5 -12.5
t-19.5 -41.5q0 -25 21.5 -41t74.5 -40q68 -31 100.5 -66.5t32.5 -99.5zM258 602l-54 50l-55 -50q-12 -12 -27 -12h-47q-10 0 -13 7t4 14l82 89q12 13 29 13h53q16 0 29 -13l82 -89q7 -7 4.5 -14t-12.5 -7h-48q-15 0 -27 12z" />
    <glyph glyph-name="Scedilla" unicode="&#x15e;" horiz-adv-x="489" 
d="M456 185q0 -85 -49 -132.5t-134 -57.5q63 -33 63 -86q0 -75 -100 -75q-31 0 -47 6q-12 4 -12 16v33q0 12 13 12h31q39 0 39 29q0 32 -44 61q-105 2 -161 26q-24 10 -20 29l15 64q5 26 30 16q57 -21 122 -21q121 0 121 82q0 37 -26 61.5t-88 58.5q-39 20 -64 36.5
t-51 42.5t-39 61t-13 79q0 95 54.5 142t168.5 47q80 0 145 -24q24 -9 19 -28l-15 -63q-5 -24 -30 -16q-48 16 -106 16q-54 0 -78.5 -18t-24.5 -58q0 -36 27 -61.5t82 -55.5q45 -25 68.5 -41t51.5 -42.5t40 -60.5t12 -78z" />
    <glyph glyph-name="scedilla" unicode="&#x15f;" horiz-adv-x="408" 
d="M379 145q0 -138 -154 -152q59 -32 59 -79q0 -71 -96 -71q-30 0 -45 5q-12 4 -12 16v32q0 11 12 11h30q37 0 37 27q0 31 -41 57q-73 3 -124 21q-20 6 -17 24l10 57q3 22 26 14q48 -16 105 -16q89 0 89 58q0 26 -21.5 43t-73.5 40q-70 33 -92 53q-42 39 -42 110
q0 151 182 151q74 0 130 -20q20 -6 16 -24l-10 -55q-3 -22 -25 -15q-44 14 -91 14q-42 0 -61.5 -12.5t-19.5 -41.5q0 -25 21.5 -41t74.5 -40q68 -31 100.5 -66.5t32.5 -99.5z" />
    <glyph glyph-name="Scaron" unicode="&#x160;" horiz-adv-x="489" 
d="M456 185q0 -98 -63.5 -146t-170.5 -48q-106 0 -167 26q-24 10 -20 29l15 64q5 26 30 16q57 -21 122 -21q121 0 121 82q0 37 -26 61.5t-88 58.5q-39 20 -64 36.5t-51 42.5t-39 61t-13 79q0 95 54.5 142t168.5 47q80 0 145 -24q24 -9 19 -28l-15 -63q-5 -24 -30 -16
q-48 16 -106 16q-54 0 -78.5 -18t-24.5 -58q0 -36 27 -61.5t82 -55.5q45 -25 68.5 -41t51.5 -42.5t40 -60.5t12 -78zM244 810l52 47q15 13 27 13h48q10 0 13 -7t-4 -14l-81 -87q-13 -13 -29 -13h-53q-16 0 -29 13l-81 87q-7 7 -4 14t13 7h48q15 0 27 -12z" />
    <glyph glyph-name="scaron" unicode="&#x161;" horiz-adv-x="408" 
d="M379 145q0 -154 -193 -154q-82 0 -141 21q-20 6 -17 24l10 57q3 22 26 14q48 -16 105 -16q89 0 89 58q0 26 -21.5 43t-73.5 40q-70 33 -92 53q-42 39 -42 110q0 151 182 151q74 0 130 -20q20 -6 16 -24l-10 -55q-3 -22 -25 -15q-44 14 -91 14q-42 0 -61.5 -12.5
t-19.5 -41.5q0 -25 21.5 -41t74.5 -40q68 -31 100.5 -66.5t32.5 -99.5zM203 651l54 49q13 13 27 13h48q10 0 12.5 -7.5t-4.5 -14.5l-82 -89q-12 -12 -29 -12h-53q-18 0 -29 12l-82 89q-7 7 -4 14.5t13 7.5h47q14 0 27 -13z" />
    <glyph glyph-name="Tcommaaccent" unicode="&#x162;" horiz-adv-x="474" 
d="M23 609v72q0 23 24 23h380q24 0 24 -23v-72q0 -24 -24 -24h-124v-561q0 -24 -24 -24h-84q-24 0 -24 24v561h-124q-24 0 -24 24zM289 -156l-40 -89q-6 -14 -20 -14h-15q-15 0 -12 18l20 83h-25q-21 0 -21 21v72q0 21 21 21h75q22 0 22 -21v-64q0 -15 -5 -27z" />
    <glyph glyph-name="tcommaaccent" unicode="&#x163;" horiz-adv-x="329" 
d="M282 419h-84v-249q0 -41 11 -55.5t44 -14.5q6 0 15.5 1.5t13.5 1.5q19 0 20 -20l5 -58q1 -17 -17 -23q-24 -8 -68 -8q-79 0 -112 35.5t-33 123.5v266h-44q-21 0 -21 21v61q0 22 21 22h46v117q0 20 21 20h75q22 0 22 -20v-117h85q22 0 22 -22v-60q0 -22 -22 -22zM237 -150
l-36 -86q-8 -14 -19 -14h-16q-15 0 -11 18l19 79h-24q-21 0 -21 21v67q0 21 21 21h71q21 0 21 -21v-59q0 -15 -5 -26z" />
    <glyph glyph-name="Tcaron" unicode="&#x164;" horiz-adv-x="474" 
d="M23 609v72q0 23 24 23h380q24 0 24 -23v-72q0 -24 -24 -24h-124v-561q0 -24 -24 -24h-84q-24 0 -24 24v561h-124q-24 0 -24 24zM235 810l52 47q15 13 27 13h48q10 0 13 -7t-4 -14l-81 -87q-13 -13 -29 -13h-53q-16 0 -29 13l-81 87q-7 7 -4 14t13 7h48q15 0 27 -12z" />
    <glyph glyph-name="tcaron" unicode="&#x165;" horiz-adv-x="462" 
d="M281 419h-84v-249q0 -41 11 -55.5t44 -14.5q6 0 15.5 1.5t13.5 1.5q19 0 20 -20l5 -58q1 -17 -17 -23q-24 -8 -68 -8q-79 0 -112 35.5t-33 123.5v266h-44q-21 0 -21 21v61q0 22 21 22h46v117q0 20 21 20h75q22 0 22 -20v-117h85q22 0 22 -22v-60q0 -22 -22 -22zM457 592
l-45 -100q-6 -14 -21 -14h-28q-17 0 -11 19l32 94h-27q-22 0 -22 22v88q0 23 23 23h81q24 0 24 -23v-81q0 -13 -6 -28z" />
    <glyph glyph-name="Tbar" unicode="&#x166;" horiz-adv-x="474" 
d="M23 609v72q0 23 24 23h380q24 0 24 -23v-72q0 -24 -24 -24h-124v-219h74q19 0 19 -18v-33q0 -19 -19 -19h-74v-272q0 -24 -24 -24h-84q-24 0 -24 24v272h-74q-19 0 -19 19v33q0 18 19 18h74v219h-124q-24 0 -24 24z" />
    <glyph glyph-name="tbar" unicode="&#x167;" horiz-adv-x="329" 
d="M282 419h-84v-121h78q19 0 19 -19v-30q0 -19 -19 -19h-78v-60q0 -41 11 -55.5t44 -14.5q6 0 15.5 1.5t13.5 1.5q19 0 20 -20l5 -58q1 -17 -17 -23q-24 -8 -68 -8q-79 0 -112 35.5t-33 123.5v77h-46q-19 0 -19 19v30q0 19 19 19h46v121h-44q-21 0 -21 21v61q0 22 21 22h46
v117q0 20 21 20h75q22 0 22 -20v-117h85q22 0 22 -22v-60q0 -22 -22 -22z" />
    <glyph glyph-name="Utilde" unicode="&#x168;" horiz-adv-x="585" 
d="M293 -10q-121 0 -179 58.5t-58 180.5v452q0 23 23 23h84q24 0 24 -23v-438q0 -69 24.5 -101.5t81.5 -32.5t81 32t24 101v439q0 23 23 23h85q23 0 23 -23v-452q0 -122 -58 -180.5t-178 -58.5zM449 823q0 -77 -71 -77q-37 0 -77 17l-30 13q-21 8 -39 8q-24 0 -25 -15l-1 -6
q-3 -14 -20 -14h-29q-20 0 -20 27q0 78 71 78q28 0 77 -17l31 -13q59 -26 62 6l1 8q3 14 21 14h28q21 0 21 -29z" />
    <glyph glyph-name="utilde" unicode="&#x169;" horiz-adv-x="513" 
d="M49 167v347q0 22 22 22h79q22 0 22 -22v-319q0 -47 16 -71t56 -24q44 0 68.5 30.5t24.5 84.5v299q0 22 22 22h79q22 0 22 -22v-492q0 -22 -22 -22h-73q-22 0 -24 19l-3 44q-40 -72 -134 -72q-155 0 -155 176zM408 663q0 -75 -66 -75q-37 0 -78 17l-29 13q-23 9 -36 9
q-20 0 -23 -17l-1 -6q-3 -14 -20 -14h-29q-20 0 -20 27q0 76 66 76q34 0 77 -17l30 -13q24 -9 37 -9q20 0 22 18l1 5q1 15 19 15h30q20 0 20 -29z" />
    <glyph glyph-name="Umacron" unicode="&#x16a;" horiz-adv-x="585" 
d="M293 -10q-121 0 -179 58.5t-58 180.5v452q0 23 23 23h84q24 0 24 -23v-438q0 -69 24.5 -101.5t81.5 -32.5t81 32t24 101v439q0 23 23 23h85q23 0 23 -23v-452q0 -122 -58 -180.5t-178 -58.5zM424 755h-263q-20 0 -20 21v37q0 20 20 20h263q21 0 21 -20v-37q0 -21 -21 -21
z" />
    <glyph glyph-name="umacron" unicode="&#x16b;" horiz-adv-x="513" 
d="M49 167v347q0 22 22 22h79q22 0 22 -22v-319q0 -47 16 -71t56 -24q44 0 68.5 30.5t24.5 84.5v299q0 22 22 22h79q22 0 22 -22v-492q0 -22 -22 -22h-73q-22 0 -24 19l-3 44q-40 -72 -134 -72q-155 0 -155 176zM387 595h-261q-21 0 -21 21v34q0 20 21 20h261q21 0 21 -20
v-34q0 -21 -21 -21z" />
    <glyph glyph-name="Ubreve" unicode="&#x16c;" horiz-adv-x="585" 
d="M293 -10q-121 0 -179 58.5t-58 180.5v452q0 23 23 23h84q24 0 24 -23v-438q0 -69 24.5 -101.5t81.5 -32.5t81 32t24 101v439q0 23 23 23h85q23 0 23 -23v-452q0 -122 -58 -180.5t-178 -58.5zM293 747q-68 0 -103 30.5t-36 78.5q0 16 16 16h40q16 0 19 -15q10 -46 64 -46
t64 46q1 15 18 15h40q16 0 16 -16q0 -48 -35.5 -78.5t-102.5 -30.5z" />
    <glyph glyph-name="ubreve" unicode="&#x16d;" horiz-adv-x="513" 
d="M49 167v347q0 22 22 22h79q22 0 22 -22v-319q0 -47 16 -71t56 -24q44 0 68.5 30.5t24.5 84.5v299q0 22 22 22h79q22 0 22 -22v-492q0 -22 -22 -22h-73q-22 0 -24 19l-3 44q-40 -72 -134 -72q-155 0 -155 176zM257 587q-68 0 -103 31t-36 78q0 17 17 17h39q15 0 18 -16
q8 -46 65 -46q56 0 64 46q3 16 19 16h38q17 0 17 -17q-1 -48 -35.5 -78.5t-102.5 -30.5z" />
    <glyph glyph-name="Uring" unicode="&#x16e;" horiz-adv-x="585" 
d="M293 -10q-121 0 -179 58.5t-58 180.5v452q0 23 23 23h84q24 0 24 -23v-438q0 -69 24.5 -101.5t81.5 -32.5t81 32t24 101v439q0 23 23 23h85q23 0 23 -23v-452q0 -122 -58 -180.5t-178 -58.5zM246 834q0 -45 47 -45q22 0 34.5 12t12.5 33q0 20 -12.5 32.5t-34.5 12.5
t-34.5 -12t-12.5 -33zM189 834q0 43 28.5 69.5t75.5 26.5t75.5 -26.5t28.5 -69.5q0 -44 -28.5 -71t-75.5 -27t-75.5 27t-28.5 71z" />
    <glyph glyph-name="uring" unicode="&#x16f;" horiz-adv-x="513" 
d="M49 167v347q0 22 22 22h79q22 0 22 -22v-319q0 -47 16 -71t56 -24q44 0 68.5 30.5t24.5 84.5v299q0 22 22 22h79q22 0 22 -22v-492q0 -22 -22 -22h-73q-22 0 -24 19l-3 44q-40 -72 -134 -72q-155 0 -155 176zM257 635q22 0 35 12t13 33q0 20 -13 32t-35 12t-35 -12
t-13 -32q0 -21 13 -33t35 -12zM257 776q47 0 76 -26.5t29 -69.5q0 -44 -29 -70.5t-76 -26.5q-48 0 -76.5 26.5t-28.5 70.5q0 43 28.5 69.5t76.5 26.5z" />
    <glyph glyph-name="Uhungarumlaut" unicode="&#x170;" horiz-adv-x="585" 
d="M293 -10q-121 0 -179 58.5t-58 180.5v452q0 23 23 23h84q24 0 24 -23v-438q0 -69 24.5 -101.5t81.5 -32.5t81 32t24 101v439q0 23 23 23h85q23 0 23 -23v-452q0 -122 -58 -180.5t-178 -58.5zM162 769l35 84q7 16 25 16h83q10 0 12.5 -8.5t-3.5 -15.5l-65 -81
q-10 -14 -30 -14h-44q-9 0 -12.5 5.5t-0.5 13.5zM329 769l36 84q6 16 25 16h82q11 0 13.5 -8.5t-3.5 -15.5l-65 -81q-11 -14 -30 -14h-44q-9 0 -13 5.5t-1 13.5z" />
    <glyph glyph-name="uhungarumlaut" unicode="&#x171;" horiz-adv-x="513" 
d="M49 167v347q0 22 22 22h79q22 0 22 -22v-319q0 -47 16 -71t56 -24q44 0 68.5 30.5t24.5 84.5v299q0 22 22 22h79q22 0 22 -22v-492q0 -22 -22 -22h-73q-22 0 -24 19l-3 44q-40 -72 -134 -72q-155 0 -155 176zM126 608l36 82q5 16 24 16h80q10 0 12.5 -8t-3.5 -16l-64 -80
q-11 -12 -29 -12h-43q-20 0 -13 18zM290 608l35 82q6 16 24 16h79q11 0 13.5 -8t-3.5 -16l-64 -80q-10 -12 -30 -12h-41q-20 0 -13 18z" />
    <glyph glyph-name="Uogonek" unicode="&#x172;" horiz-adv-x="585" 
d="M529 229q0 -206 -171 -234q-42 -28 -42 -64q0 -28 39 -28q8 0 18 2.5t12 2.5q10 0 11 -9l7 -33q2 -12 -9 -18q-26 -14 -64 -14q-93 0 -93 70q0 49 55 86q-121 1 -178.5 59t-57.5 180v452q0 23 23 23h84q24 0 24 -23v-438q0 -69 24.5 -101.5t81.5 -32.5t81 32t24 101v439
q0 23 23 23h85q23 0 23 -23v-452z" />
    <glyph glyph-name="uogonek" unicode="&#x173;" horiz-adv-x="513" 
d="M49 167v347q0 22 22 22h79q22 0 22 -22v-319q0 -47 16 -71t56 -24q44 0 68.5 30.5t24.5 84.5v299q0 22 22 22h79q22 0 22 -22v-492q0 -22 -22 -22h-7q-49 -29 -49 -65q0 -26 37 -26q8 0 16.5 2t11.5 2q9 0 12 -9l6 -31q2 -12 -9 -18q-22 -12 -61 -12q-88 0 -88 65
q0 54 68 92h-10q-22 0 -24 19l-3 44q-40 -72 -134 -72q-155 0 -155 176z" />
    <glyph glyph-name="Wcircumflex" unicode="&#x174;" horiz-adv-x="895" 
d="M407 704h81q23 0 29 -22l74 -352l34 -172h3l32 171l72 353q4 22 27 22h90q24 0 19 -26l-150 -653q-6 -25 -30 -25h-107q-24 0 -30 25l-70 301l-33 164h-2l-33 -164l-68 -301q-6 -25 -31 -25h-106q-24 0 -31 25l-149 653q-6 26 18 26h91q20 0 26 -22l73 -353l31 -171h3
l34 172l75 352q3 22 28 22zM500 763l-53 46l-53 -46q-16 -14 -28 -14h-48q-10 0 -12.5 7.5t4.5 14.5l81 87q11 12 29 12h53q17 0 29 -12l81 -87q7 -7 4.5 -14.5t-12.5 -7.5h-48q-13 0 -27 14z" />
    <glyph glyph-name="wcircumflex" unicode="&#x175;" horiz-adv-x="733" 
d="M333 536h67q19 0 24 -20l63 -265l21 -113h3l19 113l54 263q5 22 25 22h85q23 0 16 -25l-118 -489q-6 -22 -28 -22h-86q-22 0 -28 22l-56 227l-26 124h-3l-26 -124l-55 -227q-6 -22 -29 -22h-86q-22 0 -28 22l-119 489q-7 25 18 25h84q20 0 25 -22l55 -263l18 -113h2
l22 113l63 265q5 20 24 20zM419 602l-54 50l-55 -50q-12 -12 -27 -12h-47q-10 0 -13 7t4 14l82 89q12 13 29 13h53q16 0 29 -13l82 -89q7 -7 4.5 -14t-12.5 -7h-48q-15 0 -27 12z" />
    <glyph glyph-name="Ycircumflex" unicode="&#x176;" horiz-adv-x="564" 
d="M348 263v-239q0 -24 -24 -24h-85q-23 0 -23 24v239l-194 413q-5 10 -0.5 19t17.5 9h90q22 0 30 -21l87 -207l35 -100h1l36 100l87 207q8 21 30 21h90q13 0 17.5 -9t-0.5 -19zM335 763l-53 46l-53 -46q-16 -14 -28 -14h-48q-10 0 -12.5 7.5t4.5 14.5l81 87q11 12 29 12h53
q17 0 29 -12l81 -87q7 -7 4.5 -14.5t-12.5 -7.5h-48q-13 0 -27 14z" />
    <glyph glyph-name="ycircumflex" unicode="&#x177;" horiz-adv-x="466" 
d="M449 511l-126 -470q-23 -88 -58.5 -122.5t-118.5 -34.5q-59 0 -84 10q-20 6 -19 22l7 58q3 19 21 18q2 0 18 -2.5t30 -2.5q49 0 49 42q0 14 -6 32l-143 450q-8 25 16 25h84q20 0 26 -22l70 -263l26 -117h3l23 117l56 263q5 22 25 22h83q25 0 18 -25zM287 602l-54 50
l-55 -50q-12 -12 -27 -12h-47q-10 0 -13 7t4 14l82 89q12 13 29 13h53q16 0 29 -13l82 -89q7 -7 4.5 -14t-12.5 -7h-48q-15 0 -27 12z" />
    <glyph glyph-name="Ydieresis" unicode="&#x178;" horiz-adv-x="564" 
d="M348 263v-239q0 -24 -24 -24h-85q-23 0 -23 24v239l-194 413q-5 10 -0.5 19t17.5 9h90q22 0 30 -21l87 -207l35 -100h1l36 100l87 207q8 21 30 21h90q13 0 17.5 -9t-0.5 -19zM249 829v-58q0 -22 -21 -22h-73q-21 0 -21 22v58q0 22 21 22h73q21 0 21 -22zM429 829v-58
q0 -22 -21 -22h-72q-22 0 -22 22v58q0 22 22 22h72q21 0 21 -22z" />
    <glyph glyph-name="Zacute" unicode="&#x179;" horiz-adv-x="514" 
d="M41 24v69q0 19 12 36l263 456h-242q-23 0 -23 24v72q0 23 23 23h368q23 0 23 -23v-69q0 -18 -12 -37l-261 -456h256q23 0 23 -23v-72q0 -24 -23 -24h-383q-24 0 -24 24zM212 768l38 82q7 16 25 16h97q10 0 12.5 -8t-4.5 -16l-78 -80q-12 -13 -29 -13h-49q-9 0 -12 5.5
t0 13.5z" />
    <glyph glyph-name="zacute" unicode="&#x17a;" horiz-adv-x="440" 
d="M398 514v-48q0 -12 -10 -30l-202 -329h193q22 0 22 -21v-64q0 -22 -22 -22h-320q-22 0 -22 22v48q0 15 9 28l204 330h-184q-22 0 -22 22v64q0 22 22 22h310q22 0 22 -22zM169 608l38 82q8 16 25 16h97q10 0 12.5 -8t-4.5 -16l-78 -80q-11 -12 -29 -12h-48q-20 0 -13 18z
" />
    <glyph glyph-name="Zdotaccent" unicode="&#x17b;" horiz-adv-x="514" 
d="M41 24v69q0 19 12 36l263 456h-242q-23 0 -23 24v72q0 23 23 23h368q23 0 23 -23v-69q0 -18 -12 -37l-261 -456h256q23 0 23 -23v-72q0 -24 -23 -24h-383q-24 0 -24 24zM323 834v-63q0 -22 -22 -22h-82q-23 0 -23 22v63q0 22 23 22h82q22 0 22 -22z" />
    <glyph glyph-name="zdotaccent" unicode="&#x17c;" horiz-adv-x="440" 
d="M398 514v-48q0 -12 -10 -30l-202 -329h193q22 0 22 -21v-64q0 -22 -22 -22h-320q-22 0 -22 22v48q0 15 9 28l204 330h-184q-22 0 -22 22v64q0 22 22 22h310q22 0 22 -22zM283 673v-62q0 -22 -22 -22h-82q-23 0 -23 22v62q0 22 23 22h82q22 0 22 -22z" />
    <glyph glyph-name="Zcaron" unicode="&#x17d;" horiz-adv-x="514" 
d="M41 24v69q0 19 12 36l263 456h-242q-23 0 -23 24v72q0 23 23 23h368q23 0 23 -23v-69q0 -18 -12 -37l-261 -456h256q23 0 23 -23v-72q0 -24 -23 -24h-383q-24 0 -24 24zM260 810l52 47q15 13 27 13h48q10 0 13 -7t-4 -14l-81 -87q-13 -13 -29 -13h-53q-16 0 -29 13
l-81 87q-7 7 -4 14t13 7h48q15 0 27 -12z" />
    <glyph glyph-name="zcaron" unicode="&#x17e;" horiz-adv-x="440" 
d="M398 514v-48q0 -12 -10 -30l-202 -329h193q22 0 22 -21v-64q0 -22 -22 -22h-320q-22 0 -22 22v48q0 15 9 28l204 330h-184q-22 0 -22 22v64q0 22 22 22h310q22 0 22 -22zM220 651l54 49q13 13 27 13h48q10 0 12.5 -7.5t-4.5 -14.5l-82 -89q-12 -12 -29 -12h-53
q-18 0 -29 12l-82 89q-7 7 -4 14.5t13 7.5h47q14 0 27 -13z" />
    <glyph glyph-name="longs" unicode="&#x17f;" horiz-adv-x="291" 
d="M201 551v-530q0 -21 -22 -21h-75q-23 0 -23 21v398h-43q-21 0 -21 21v61q0 22 21 22h43v39q0 81 33 115.5t107 34.5q34 0 63 -9q17 -6 17 -22v-51q1 -11 -4.5 -16.5t-15.5 -4.5q-18 2 -31 2q-28 0 -38.5 -13t-10.5 -47z" />
    <glyph glyph-name="florin" unicode="&#x192;" horiz-adv-x="569" 
d="M370 545l-20 -149h103q19 0 16 -19l-4 -34q-3 -19 -20 -19h-104l-38 -293q-10 -80 -44.5 -114t-108.5 -34q-37 0 -61 8q-19 5 -16 22l8 60q3 22 24 20q21 -3 25 -3q45 0 52 59l35 275h-72q-19 0 -16 19l4 35q3 18 21 18h73l21 165q10 82 48.5 117t113.5 35q50 0 72 -8
q19 -6 16 -22l-8 -50q-3 -24 -24 -21q-27 3 -30 3q-32 0 -46.5 -16.5t-19.5 -53.5z" />
    <glyph glyph-name="Aringacute" unicode="&#x1fa;" horiz-adv-x="583" 
d="M188 750q0 66 59 88l31 66q7 16 25 16h97q10 0 12.5 -8t-4.5 -16l-61 -62q49 -25 49 -84q0 -35 -19 -60l3 -9l183 -655q3 -11 -2 -18.5t-17 -7.5h-88q-21 0 -27 22l-36 133h-203l-35 -133q-6 -22 -27 -22h-89q-11 0 -16.5 7.5t-2.5 18.5l183 655l3 9q-18 24 -18 60z
M214 269h154l-75 304h-2zM245 750q0 -45 47 -45q22 0 34.5 12t12.5 33q0 20 -12.5 32.5t-34.5 12.5t-34.5 -12t-12.5 -33z" />
    <glyph glyph-name="aringacute" unicode="&#x1fb;" horiz-adv-x="487" 
d="M437 372v-350q0 -22 -22 -22h-66q-21 0 -23 19l-3 46q-42 -72 -146 -72q-69 0 -108.5 40.5t-39.5 115.5q0 43 14 75t37.5 51.5t62 31.5t79 17t96.5 6v33q0 42 -21 61t-70 19q-56 0 -126 -25q-21 -7 -26 15l-11 58q-4 18 15 26q65 28 164 28q101 0 147.5 -42.5
t46.5 -130.5zM139 680q0 66 59 88l31 66q8 16 25 16h97q10 0 12.5 -8t-4.5 -16l-61 -62q51 -26 51 -84q0 -44 -29 -70.5t-76 -26.5q-48 0 -76.5 26.5t-28.5 70.5zM318 195v57q-89 -3 -130 -22t-41 -74q0 -73 68 -73q50 0 76.5 31.5t26.5 80.5zM244 635q22 0 35 12t13 33
q0 20 -13 32t-35 12t-35 -12t-13 -32q0 -21 13 -33t35 -12z" />
    <glyph glyph-name="AEacute" unicode="&#x1fc;" horiz-adv-x="760" 
d="M684 303h-198v-186h212q23 0 23 -23v-70q0 -24 -23 -24h-318q-24 0 -24 24v130h-165l-44 -132q-7 -22 -28 -22h-91q-12 0 -17 7.5t-1 18.5l233 655q4 12 10.5 17.5t21.5 5.5h419q23 0 23 -23v-70q0 -24 -23 -24h-208v-172h198q22 0 22 -24v-64q0 -24 -22 -24zM226 266
h130v322h-25zM338 768l38 82q7 16 25 16h97q10 0 12.5 -8t-4.5 -16l-78 -80q-12 -13 -29 -13h-49q-9 0 -12 5.5t0 13.5z" />
    <glyph glyph-name="aeacute" unicode="&#x1fd;" horiz-adv-x="765" 
d="M568 88q52 0 103 21q23 8 28 -15l11 -51q4 -17 -16 -27q-54 -26 -136 -26q-70 0 -117.5 26t-66.5 70q-52 -93 -175 -93q-170 0 -170 153q0 42 14 72t37 48.5t61.5 29t79 14.5t97.5 4v53q0 76 -90 76q-48 0 -128 -25q-22 -7 -27 15l-12 58q-4 18 16 26q75 28 160 28
q119 0 152 -69q44 70 146 70q97 0 145.5 -63t48.5 -178v-57q0 -23 -24 -23h-268q10 -137 131 -137zM529 450q-88 0 -95 -140h180v8q0 66 -19.5 99t-65.5 33zM318 197v38q-88 -1 -129.5 -17.5t-41.5 -64.5q0 -69 73 -69q49 0 73.5 31.5t24.5 81.5zM320 608l38 82q8 16 25 16
h97q10 0 12.5 -8t-4.5 -16l-78 -80q-11 -12 -29 -12h-48q-20 0 -13 18z" />
    <glyph glyph-name="Oslashacute" unicode="&#x1fe;" horiz-adv-x="612" 
d="M306 715q105 0 168 -60l30 42q13 18 29 6l30 -22q18 -13 5 -30l-43 -62q45 -88 45 -237q0 -191 -66.5 -276.5t-197.5 -85.5q-110 0 -169 60l-32 -45q-12 -17 -29 -4l-30 23q-16 12 -4 28l43 62q-43 84 -43 238q0 191 66.5 277t197.5 86zM306 106q67 0 98.5 56.5
t31.5 188.5q0 67 -9 107l-212 -303q18 -27 38.5 -38t52.5 -11zM176 353q0 -73 9 -106l211 301q-30 51 -90 51q-68 0 -99 -56.5t-31 -189.5zM259 768l38 82q7 16 25 16h97q10 0 12.5 -8t-4.5 -16l-78 -80q-12 -13 -29 -13h-49q-9 0 -12 5.5t0 13.5z" />
    <glyph glyph-name="oslashacute" unicode="&#x1ff;" horiz-adv-x="522" 
d="M261 -9q108 0 166 69t58 208q0 118 -41 185l27 40q10 14 -4 26l-20 16q-17 15 -30 -4l-19 -28q-52 43 -137 43q-108 0 -165.5 -69t-57.5 -209q0 -118 40 -185l-27 -39q-10 -15 4 -28l20 -16q16 -13 29 4l20 29q51 -42 137 -42zM261 443q44 0 65 -32l-155 -217
q-8 29 -8 76q0 91 24 132t74 41zM261 93q-40 0 -65 31l156 217q7 -27 7 -75q0 -91 -24 -132t-74 -41zM207 608l38 82q8 16 25 16h97q10 0 12.5 -8t-4.5 -16l-78 -80q-11 -12 -29 -12h-48q-20 0 -13 18z" />
    <glyph glyph-name="Scommaaccent" unicode="&#x218;" horiz-adv-x="489" 
d="M456 185q0 -98 -63.5 -146t-170.5 -48q-106 0 -167 26q-24 10 -20 29l15 64q5 26 30 16q57 -21 122 -21q121 0 121 82q0 37 -26 61.5t-88 58.5q-39 20 -64 36.5t-51 42.5t-39 61t-13 79q0 95 54.5 142t168.5 47q80 0 145 -24q24 -9 19 -28l-15 -63q-5 -24 -30 -16
q-48 16 -106 16q-54 0 -78.5 -18t-24.5 -58q0 -36 27 -61.5t82 -55.5q45 -25 68.5 -41t51.5 -42.5t40 -60.5t12 -78zM297 -156l-40 -89q-6 -14 -20 -14h-15q-15 0 -12 18l20 83h-25q-21 0 -21 21v72q0 21 21 21h75q22 0 22 -21v-64q0 -15 -5 -27z" />
    <glyph glyph-name="scommaaccent" unicode="&#x219;" horiz-adv-x="408" 
d="M379 145q0 -154 -193 -154q-82 0 -141 21q-20 6 -17 24l10 57q3 22 26 14q48 -16 105 -16q89 0 89 58q0 26 -21.5 43t-73.5 40q-70 33 -92 53q-42 39 -42 110q0 151 182 151q74 0 130 -20q20 -6 16 -24l-10 -55q-3 -22 -25 -15q-44 14 -91 14q-42 0 -61.5 -12.5
t-19.5 -41.5q0 -25 21.5 -41t74.5 -40q68 -31 100.5 -66.5t32.5 -99.5zM256 -150l-36 -86q-8 -14 -19 -14h-16q-15 0 -11 18l19 79h-24q-21 0 -21 21v67q0 21 21 21h71q21 0 21 -21v-59q0 -15 -5 -26z" />
    <glyph glyph-name="uni021A" unicode="&#x21a;" horiz-adv-x="474" 
d="M23 609v72q0 23 24 23h380q24 0 24 -23v-72q0 -24 -24 -24h-124v-561q0 -24 -24 -24h-84q-24 0 -24 24v561h-124q-24 0 -24 24zM289 -156l-40 -89q-6 -14 -20 -14h-15q-15 0 -12 18l20 83h-25q-21 0 -21 21v72q0 21 21 21h75q22 0 22 -21v-64q0 -15 -5 -27z" />
    <glyph glyph-name="uni021B" unicode="&#x21b;" horiz-adv-x="329" 
d="M282 419h-84v-249q0 -41 11 -55.5t44 -14.5q6 0 15.5 1.5t13.5 1.5q19 0 20 -20l5 -58q1 -17 -17 -23q-24 -8 -68 -8q-79 0 -112 35.5t-33 123.5v266h-44q-21 0 -21 21v61q0 22 21 22h46v117q0 20 21 20h75q22 0 22 -20v-117h85q22 0 22 -22v-60q0 -22 -22 -22zM237 -150
l-36 -86q-8 -14 -19 -14h-16q-15 0 -11 18l19 79h-24q-21 0 -21 21v67q0 21 21 21h71q21 0 21 -21v-59q0 -15 -5 -26z" />
    <glyph glyph-name="dotlessj" unicode="&#x237;" horiz-adv-x="251" 
d="M72 45v469q0 22 22 22h80q21 0 21 -22v-486q0 -79 -29 -111t-100 -32q-38 0 -60 6q-18 5 -18 22v61q0 21 20 19q18 -2 28 -2q19 0 27.5 11.5t8.5 42.5z" />
    <glyph glyph-name="circumflex" unicode="&#x2c6;" horiz-adv-x="309" 
d="M209 602l-54 50l-55 -50q-12 -12 -27 -12h-47q-10 0 -13 7t4 14l82 89q12 13 29 13h53q16 0 29 -13l82 -89q7 -7 4.5 -14t-12.5 -7h-48q-15 0 -27 12z" />
    <glyph glyph-name="caron" unicode="&#x2c7;" horiz-adv-x="309" 
d="M155 651l54 49q13 13 27 13h48q10 0 12.5 -7.5t-4.5 -14.5l-82 -89q-12 -12 -29 -12h-53q-18 0 -29 12l-82 89q-7 7 -4 14.5t13 7.5h47q14 0 27 -13z" />
    <glyph glyph-name="uni02C9" unicode="&#x2c9;" horiz-adv-x="309" 
d="M285 595h-261q-21 0 -21 21v34q0 20 21 20h261q21 0 21 -20v-34q0 -21 -21 -21z" />
    <glyph glyph-name="breve" unicode="&#x2d8;" horiz-adv-x="309" 
d="M155 587q-68 0 -103 31t-36 78q0 17 17 17h39q15 0 18 -16q8 -46 65 -46q56 0 64 46q3 16 19 16h38q17 0 17 -17q-1 -48 -35.5 -78.5t-102.5 -30.5z" />
    <glyph glyph-name="dotaccent" unicode="&#x2d9;" horiz-adv-x="309" 
d="M218 673v-62q0 -22 -22 -22h-82q-23 0 -23 22v62q0 22 23 22h82q22 0 22 -22z" />
    <glyph glyph-name="ring" unicode="&#x2da;" horiz-adv-x="309" 
d="M155 635q22 0 35 12t13 33q0 20 -13 32t-35 12t-35 -12t-13 -32q0 -21 13 -33t35 -12zM155 776q47 0 76 -26.5t29 -69.5q0 -44 -29 -70.5t-76 -26.5q-48 0 -76.5 26.5t-28.5 70.5q0 43 28.5 69.5t76.5 26.5z" />
    <glyph glyph-name="ogonek" unicode="&#x2db;" horiz-adv-x="309" 
d="M157 12l49 -2q-68 -34 -68 -75q0 -26 37 -26q8 0 16.5 2t11.5 2q9 0 12 -9l6 -31q2 -12 -9 -18q-22 -12 -61 -12q-88 0 -88 65q0 33 28.5 62t65.5 42z" />
    <glyph glyph-name="tilde" unicode="&#x2dc;" horiz-adv-x="309" 
d="M306 663q0 -75 -66 -75q-37 0 -78 17l-29 13q-23 9 -36 9q-20 0 -23 -17l-1 -6q-3 -14 -20 -14h-29q-20 0 -20 27q0 76 66 76q34 0 77 -17l30 -13q24 -9 37 -9q20 0 22 18l1 5q1 15 19 15h30q20 0 20 -29z" />
    <glyph glyph-name="hungarumlaut" unicode="&#x2dd;" horiz-adv-x="309" 
d="M35 608l36 82q5 16 24 16h80q10 0 12.5 -8t-3.5 -16l-64 -80q-11 -12 -29 -12h-43q-20 0 -13 18zM199 608l35 82q6 16 24 16h79q11 0 13.5 -8t-3.5 -16l-64 -80q-10 -12 -30 -12h-41q-20 0 -13 18z" />
    <glyph glyph-name="uni037E" unicode="&#x37e;" horiz-adv-x="222" 
d="M47 218v91q0 22 23 22h82q23 0 23 -22v-91q0 -23 -22 -23h-84q-22 0 -22 23z" />
    <glyph glyph-name="uni0394" unicode="&#x394;" horiz-adv-x="601" 
d="M238 704h125q22 0 28 -23l167 -652q4 -13 -2 -21t-21 -8h-470q-29 0 -22 29l167 652q6 23 28 23zM299 591l-112 -481h227l-111 481h-4z" />
    <glyph glyph-name="uni03A9" unicode="&#x3a9;" horiz-adv-x="688" 
d="M344 715q143 0 220 -82t77 -221q0 -101 -42 -169.5t-105 -105.5v-38l95 10q25 3 25 -20v-67q0 -22 -22 -22h-207v137q0 13 14 24q112 74 112 237q0 95 -43.5 148.5t-123.5 53.5t-123.5 -53.5t-43.5 -148.5q0 -163 112 -237q14 -11 14 -24v-137h-207q-23 0 -23 22v67
q0 23 26 20l96 -10v38q-64 37 -106 105.5t-42 169.5q0 139 77 221t220 82z" />
    <glyph glyph-name="uni03BC" unicode="&#x3bc;" horiz-adv-x="515" 
d="M464 514v-349q0 -175 -153 -175q-95 0 -136 73l1 -152q0 -21 -23 -21h-78q-22 0 -22 22v602q0 22 22 22h79q22 0 22 -22v-299q0 -53 25 -84t68 -31q41 0 56.5 23.5t15.5 70.5v320q0 22 22 22h79q22 0 22 -22z" />
    <glyph glyph-name="pi" unicode="&#x3c0;" horiz-adv-x="627" 
d="M491 427v-270q0 -37 10.5 -50t41.5 -13q7 0 17.5 1t13.5 1q22 0 22 -20l1 -53q0 -16 -19 -22q-30 -8 -68 -8q-73 0 -105.5 34.5t-32.5 113.5v286h-113l-70 -406q-5 -21 -25 -21h-78q-25 0 -20 21l72 406h-79q-22 0 -22 22v65q0 22 22 22h514q22 0 22 -22v-65
q0 -22 -22 -22h-82z" />
    <glyph glyph-name="Wgrave" unicode="&#x1e80;" horiz-adv-x="895" 
d="M407 704h81q23 0 29 -22l74 -352l34 -172h3l32 171l72 353q4 22 27 22h90q24 0 19 -26l-150 -653q-6 -25 -30 -25h-107q-24 0 -30 25l-70 301l-33 164h-2l-33 -164l-68 -301q-6 -25 -31 -25h-106q-24 0 -31 25l-149 653q-6 26 18 26h91q20 0 26 -22l73 -353l31 -171h3
l34 172l75 352q3 22 28 22zM440 850l38 -82q3 -8 -0.5 -13.5t-12.5 -5.5h-48q-18 0 -30 13l-78 80q-7 7 -4.5 15.5t13.5 8.5h97q18 0 25 -16z" />
    <glyph glyph-name="wgrave" unicode="&#x1e81;" horiz-adv-x="733" 
d="M333 536h67q19 0 24 -20l63 -265l21 -113h3l19 113l54 263q5 22 25 22h85q23 0 16 -25l-118 -489q-6 -22 -28 -22h-86q-22 0 -28 22l-56 227l-26 124h-3l-26 -124l-55 -227q-6 -22 -29 -22h-86q-22 0 -28 22l-119 489q-7 25 18 25h84q20 0 25 -22l55 -263l18 -113h2
l22 113l63 265q5 20 24 20zM365 690l39 -82q7 -18 -13 -18h-49q-17 0 -29 12l-78 80q-7 8 -4.5 16t13.5 8h96q19 0 25 -16z" />
    <glyph glyph-name="Wacute" unicode="&#x1e82;" horiz-adv-x="895" 
d="M407 704h81q23 0 29 -22l74 -352l34 -172h3l32 171l72 353q4 22 27 22h90q24 0 19 -26l-150 -653q-6 -25 -30 -25h-107q-24 0 -30 25l-70 301l-33 164h-2l-33 -164l-68 -301q-6 -25 -31 -25h-106q-24 0 -31 25l-149 653q-6 26 18 26h91q20 0 26 -22l73 -353l31 -171h3
l34 172l75 352q3 22 28 22zM406 768l38 82q7 16 25 16h97q10 0 12.5 -8t-4.5 -16l-78 -80q-12 -13 -29 -13h-49q-9 0 -12 5.5t0 13.5z" />
    <glyph glyph-name="wacute" unicode="&#x1e83;" horiz-adv-x="733" 
d="M333 536h67q19 0 24 -20l63 -265l21 -113h3l19 113l54 263q5 22 25 22h85q23 0 16 -25l-118 -489q-6 -22 -28 -22h-86q-22 0 -28 22l-56 227l-26 124h-3l-26 -124l-55 -227q-6 -22 -29 -22h-86q-22 0 -28 22l-119 489q-7 25 18 25h84q20 0 25 -22l55 -263l18 -113h2
l22 113l63 265q5 20 24 20zM323 608l38 82q8 16 25 16h97q10 0 12.5 -8t-4.5 -16l-78 -80q-11 -12 -29 -12h-48q-20 0 -13 18z" />
    <glyph glyph-name="Wdieresis" unicode="&#x1e84;" horiz-adv-x="895" 
d="M407 704h81q23 0 29 -22l74 -352l34 -172h3l32 171l72 353q4 22 27 22h90q24 0 19 -26l-150 -653q-6 -25 -30 -25h-107q-24 0 -30 25l-70 301l-33 164h-2l-33 -164l-68 -301q-6 -25 -31 -25h-106q-24 0 -31 25l-149 653q-6 26 18 26h91q20 0 26 -22l73 -353l31 -171h3
l34 172l75 352q3 22 28 22zM414 829v-58q0 -22 -21 -22h-73q-21 0 -21 22v58q0 22 21 22h73q21 0 21 -22zM594 829v-58q0 -22 -21 -22h-72q-22 0 -22 22v58q0 22 22 22h72q21 0 21 -22z" />
    <glyph glyph-name="wdieresis" unicode="&#x1e85;" horiz-adv-x="733" 
d="M333 536h67q19 0 24 -20l63 -265l21 -113h3l19 113l54 263q5 22 25 22h85q23 0 16 -25l-118 -489q-6 -22 -28 -22h-86q-22 0 -28 22l-56 227l-26 124h-3l-26 -124l-55 -227q-6 -22 -29 -22h-86q-22 0 -28 22l-119 489q-7 25 18 25h84q20 0 25 -22l55 -263l18 -113h2
l22 113l63 265q5 20 24 20zM333 671v-60q0 -21 -21 -21h-70q-22 0 -22 21v60q0 21 22 21h70q21 0 21 -21zM509 671v-60q0 -21 -21 -21h-70q-22 0 -22 21v60q0 21 22 21h70q21 0 21 -21z" />
    <glyph glyph-name="Ygrave" unicode="&#x1ef2;" horiz-adv-x="564" 
d="M348 263v-239q0 -24 -24 -24h-85q-23 0 -23 24v239l-194 413q-5 10 -0.5 19t17.5 9h90q22 0 30 -21l87 -207l35 -100h1l36 100l87 207q8 21 30 21h90q13 0 17.5 -9t-0.5 -19zM282 850l38 -82q3 -8 -0.5 -13.5t-12.5 -5.5h-48q-18 0 -30 13l-78 80q-7 7 -4.5 15.5
t13.5 8.5h97q18 0 25 -16z" />
    <glyph glyph-name="ygrave" unicode="&#x1ef3;" horiz-adv-x="466" 
d="M449 511l-126 -470q-23 -88 -58.5 -122.5t-118.5 -34.5q-59 0 -84 10q-20 6 -19 22l7 58q3 19 21 18q2 0 18 -2.5t30 -2.5q49 0 49 42q0 14 -6 32l-143 450q-8 25 16 25h84q20 0 26 -22l70 -263l26 -117h3l23 117l56 263q5 22 25 22h83q25 0 18 -25zM229 690l39 -82
q7 -18 -13 -18h-49q-17 0 -29 12l-78 80q-7 8 -4.5 16t13.5 8h96q19 0 25 -16z" />
    <glyph glyph-name="figuredash" unicode="&#x2012;" horiz-adv-x="512" 
d="M438 238h-365q-20 0 -20 20v50q0 20 20 20h365q21 0 21 -20v-50q0 -20 -21 -20z" />
    <glyph glyph-name="endash" unicode="&#x2013;" horiz-adv-x="455" 
d="M399 226h-343q-21 0 -21 21v60q0 21 22 21h342q21 0 21 -21v-60q0 -21 -21 -21z" />
    <glyph glyph-name="emdash" unicode="&#x2014;" horiz-adv-x="663" 
d="M606 226h-550q-21 0 -21 21v60q0 21 22 21h549q23 0 23 -21v-60q0 -21 -23 -21z" />
    <glyph glyph-name="quoteleft" unicode="&#x2018;" horiz-adv-x="216" 
d="M52 593l44 100q8 14 21 14h29q17 0 11 -19l-33 -94h28q22 0 22 -22v-89q0 -22 -23 -22h-81q-23 0 -23 22v82q0 18 5 28z" />
    <glyph glyph-name="quoteright" unicode="&#x2019;" horiz-adv-x="216" 
d="M165 572l-45 -100q-6 -14 -21 -14h-28q-17 0 -11 19l32 94h-27q-22 0 -22 22v88q0 23 23 23h81q24 0 24 -23v-81q0 -13 -6 -28z" />
    <glyph glyph-name="quotesinglbase" unicode="&#x201a;" horiz-adv-x="216" 
d="M165 1l-45 -100q-6 -14 -21 -14h-28q-17 0 -11 19l32 94h-27q-22 0 -22 22v88q0 23 23 23h81q24 0 24 -23v-81q0 -13 -6 -28z" />
    <glyph glyph-name="quotedblleft" unicode="&#x201c;" horiz-adv-x="399" 
d="M234 594l45 100q6 13 20 13h29q16 0 11 -18l-32 -94h26q23 0 23 -23v-88q0 -22 -23 -22h-82q-23 0 -23 22v82q0 13 6 28zM52 594l44 100q6 13 21 13h29q16 0 11 -18l-32 -94h27q22 0 22 -23v-88q0 -22 -23 -22h-81q-23 0 -23 22v82q0 18 5 28z" />
    <glyph glyph-name="quotedblright" unicode="&#x201d;" horiz-adv-x="399" 
d="M165 573l-45 -100q-6 -14 -21 -14h-28q-17 0 -11 18l32 95h-27q-22 0 -22 22v88q0 22 23 22h81q24 0 24 -22v-81q0 -15 -6 -28zM347 573l-45 -100q-6 -14 -20 -14h-29q-17 0 -11 18l32 95h-27q-22 0 -22 22v88q0 22 23 22h81q23 0 23 -22v-81q0 -17 -5 -28z" />
    <glyph glyph-name="quotedblbase" unicode="&#x201e;" horiz-adv-x="399" 
d="M165 1l-45 -100q-6 -14 -21 -14h-28q-17 0 -11 18l32 95h-27q-22 0 -22 22v88q0 22 23 22h81q24 0 24 -22v-81q0 -14 -6 -28zM347 1l-45 -100q-6 -14 -20 -14h-29q-17 0 -11 18l32 95h-27q-22 0 -22 22v88q0 22 23 22h81q23 0 23 -22v-81q0 -17 -5 -28z" />
    <glyph glyph-name="dagger" unicode="&#x2020;" horiz-adv-x="464" 
d="M432 516v-61q0 -22 -21 -22h-118v-521q0 -22 -22 -22h-79q-21 0 -21 22v521h-118q-22 0 -22 22v61q0 22 22 22h118v145q0 21 21 21h78q23 0 23 -21v-145h118q21 0 21 -22z" />
    <glyph glyph-name="daggerdbl" unicode="&#x2021;" horiz-adv-x="466" 
d="M434 140v-62q0 -21 -22 -21h-118v-145q0 -22 -23 -22h-77q-22 0 -22 22v145h-119q-21 0 -21 21v62q0 21 21 21h119v272h-119q-21 0 -21 22v61q0 22 21 22h119v145q0 21 22 21h77q23 0 23 -21v-145h118q22 0 22 -22v-61q0 -22 -22 -22h-118v-272h118q22 0 22 -21z" />
    <glyph glyph-name="bullet" unicode="&#x2022;" 
d="M185 134q-59 0 -98.5 39t-39.5 100t39.5 100t99.5 39t99 -39t39 -100t-39.5 -100t-99.5 -39z" />
    <glyph glyph-name="onedotenleader" unicode="&#x2024;" horiz-adv-x="222" 
d="M47 23v91q0 22 23 22h82q23 0 23 -22v-91q0 -23 -22 -23h-84q-22 0 -22 23z" />
    <glyph glyph-name="twodotenleader" unicode="&#x2025;" horiz-adv-x="443" 
d="M268 23v91q0 22 23 22h82q23 0 23 -22v-91q0 -23 -22 -23h-84q-22 0 -22 23zM47 23v91q0 22 23 22h82q23 0 23 -22v-91q0 -23 -22 -23h-84q-22 0 -22 23z" />
    <glyph glyph-name="ellipsis" unicode="&#x2026;" horiz-adv-x="666" 
d="M47 23v91q0 22 23 22h82q23 0 23 -22v-91q0 -23 -22 -23h-84q-22 0 -22 23zM269 23v91q0 22 23 22h82q23 0 23 -22v-91q0 -23 -22 -23h-84q-22 0 -22 23zM491 23v91q0 22 24 22h81q23 0 23 -22v-91q0 -23 -22 -23h-83q-23 0 -23 23z" />
    <glyph glyph-name="perthousand" unicode="&#x2030;" horiz-adv-x="1200" 
d="M642 683l-352 -665q-10 -18 -28 -18h-58q-22 0 -11 22l351 664q9 18 29 18h58q22 0 11 -21zM30 505q0 100 40 153t115 53q76 0 116 -53t40 -153t-40 -153t-116 -53q-75 0 -115 53t-40 153zM245 505q0 123 -60 123q-59 0 -59 -123q0 -122 59 -122q31 0 45.5 28.5
t14.5 93.5zM493 199q0 100 40.5 153.5t115.5 53.5t115.5 -53.5t40.5 -153.5q0 -99 -40.5 -152t-115.5 -53t-115.5 53t-40.5 152zM709 199q0 123 -60 123q-59 0 -59 -123q0 -122 59 -122q60 0 60 122zM856 199q0 101 40 154t116 53q75 0 115 -53.5t40 -153.5t-40 -152.5
t-115 -52.5q-76 0 -116 52.5t-40 152.5zM1071 199q0 123 -59 123q-31 0 -45.5 -29t-14.5 -94q0 -122 60 -122q59 0 59 122z" />
    <glyph glyph-name="guilsinglleft" unicode="&#x2039;" horiz-adv-x="252" 
d="M29 283q0 6 3 11l68 138q8 16 26 16h69q10 0 14 -6.5t-1 -15.5l-72 -143l72 -142q10 -22 -13 -22h-69q-17 0 -26 16l-68 138q-3 6 -3 10z" />
    <glyph glyph-name="guilsinglright" unicode="&#x203a;" horiz-adv-x="252" 
d="M223 283q0 -4 -3 -10l-69 -138q-7 -16 -25 -16h-68q-11 0 -14.5 6t1.5 16l71 142l-71 143q-5 10 -1.5 16t14.5 6h68q17 0 25 -16l69 -138q3 -7 3 -11z" />
    <glyph glyph-name="exclamdbl" unicode="&#x203c;" horiz-adv-x="524" 
d="M67 23v94q0 22 23 22h88q23 0 23 -22v-94q0 -23 -22 -23h-89q-23 0 -23 23zM163 212h-57q-21 0 -23 22l-21 447q-1 23 22 23h100q24 0 23 -23l-21 -447q-2 -22 -23 -22zM322 23v94q0 22 23 22h88q23 0 23 -22v-94q0 -23 -22 -23h-89q-23 0 -23 23zM418 212h-57
q-21 0 -23 22l-21 447q-1 23 22 23h100q24 0 23 -23l-21 -447q-2 -22 -23 -22z" />
    <glyph glyph-name="fraction" unicode="&#x2044;" horiz-adv-x="72" 
d="M261 683l-352 -665q-9 -18 -28 -18h-58q-23 0 -12 22l352 664q9 18 28 18h58q23 0 12 -21z" />
    <glyph glyph-name="zero.superior" unicode="&#x2070;" 
d="M186 483q-81 0 -122.5 57t-41.5 164t41.5 164t122.5 57t121.5 -57t40.5 -164t-40.5 -164t-121.5 -57zM186 569q33 0 48.5 32t15.5 103t-15.5 103t-48.5 32q-35 0 -50 -31.5t-15 -103.5t15 -103.5t50 -31.5z" />
    <glyph glyph-name="four.superior" unicode="&#x2074;" 
d="M207 806l-102 -148h102v148zM333 578h-31v-68q0 -21 -21 -21h-54q-20 0 -20 21v68h-169q-19 0 -19 19v41q0 13 7 22l176 246q10 13 23 13h56q21 0 21 -21v-240h31q21 0 21 -20v-40q0 -20 -21 -20z" />
    <glyph glyph-name="five.superior" unicode="&#x2075;" 
d="M329 629q0 -73 -43 -109.5t-120 -36.5q-79 0 -115 19q-17 9 -14 22l11 43q5 17 24 11q41 -13 84 -13q77 0 77 65q0 32 -15.5 47t-50.5 15q-22 0 -45 -5t-29 -5q-12 -2 -20 3l-17 8q-11 5 -10 19q10 115 10 186q0 21 23 21h207q20 0 20 -20v-42q0 -20 -20 -20h-148
q0 -41 -5 -83q26 8 60 8q136 0 136 -133z" />
    <glyph glyph-name="six.superior" unicode="&#x2076;" 
d="M278 836q-38 9 -59 9q-88 0 -92 -100q29 35 88 35q65 0 98 -39t33 -103q0 -71 -40 -113t-110 -42q-165 0 -165 212q0 111 44 170.5t134 59.5q52 0 86 -14q15 -8 13 -21l-8 -41q-4 -17 -22 -13zM196 563q28 0 44 19t16 54q0 72 -60 72q-31 0 -47 -20t-16 -52q0 -73 63 -73
z" />
    <glyph glyph-name="seven.superior" unicode="&#x2077;" 
d="M328 899v-35q0 -12 -11 -27q-49 -74 -85 -165t-39 -162q-1 -21 -21 -21h-59q-19 0 -19 20q0 72 37.5 160.5t93.5 167.5h-166q-20 0 -20 20v42q0 20 20 20h248q21 0 21 -20z" />
    <glyph glyph-name="eight.superior" unicode="&#x2078;" 
d="M186 483q-76 0 -116 32.5t-40 87.5q0 79 75 108q-67 29 -67 100q0 54 39.5 84t108.5 30q68 0 107.5 -30t39.5 -84q0 -70 -67 -100q76 -29 76 -108q0 -55 -41 -87.5t-115 -32.5zM186 680q-62 -22 -62 -70q0 -24 16.5 -38t45.5 -14q28 0 44 14t16 38q0 48 -60 70zM186 741
q53 22 53 66q0 45 -53 45q-54 0 -54 -45q0 -44 54 -66z" />
    <glyph glyph-name="nine.superior" unicode="&#x2079;" 
d="M92 572q32 -10 60 -10q88 0 92 101q-31 -35 -88 -35q-66 0 -98.5 38.5t-32.5 103.5q0 72 40 113.5t109 41.5q85 0 125.5 -56t40.5 -156q0 -230 -179 -230q-53 0 -85 14q-15 8 -13 21l8 41q4 18 21 13zM175 845q-29 0 -45 -19.5t-16 -53.5q0 -72 61 -72q31 0 47 20t16 52
q0 33 -15.5 53t-47.5 20z" />
    <glyph glyph-name="parenleft.superior" unicode="&#x207d;" horiz-adv-x="214" 
d="M39 704q0 61 22 120t54 96q7 9 18 9h48q8 0 11 -5.5t-1 -10.5q-58 -89 -58 -209t58 -209q4 -5 1 -10.5t-11 -5.5h-48q-11 0 -18 9q-32 37 -54 96t-22 120z" />
    <glyph glyph-name="parenright.superior" unicode="&#x207e;" horiz-adv-x="214" 
d="M175 704q0 -61 -21.5 -120.5t-53.5 -95.5q-9 -9 -20 -9h-47q-8 0 -11 5.5t1 10.5q58 101 58 209q0 118 -58 209q-4 5 -1.5 10.5t11.5 5.5h47q12 0 20 -9q31 -38 53 -97.5t22 -118.5z" />
    <glyph glyph-name="n.superior" unicode="&#x207f;" horiz-adv-x="417" 
d="M62 920h54q21 0 23 -18l2 -33q29 57 112 57q122 0 122 -144v-272q0 -21 -20 -21h-60q-21 0 -21 21v252q0 72 -58 72q-35 0 -54.5 -25t-19.5 -66v-233q0 -21 -20 -21h-60q-21 0 -21 21v389q0 21 21 21z" />
    <glyph glyph-name="zero.inferior" unicode="&#x2080;" 
d="M186 -221q-81 0 -122.5 57t-41.5 164t41.5 164t122.5 57t121.5 -57t40.5 -164t-40.5 -164t-121.5 -57zM186 -135q33 0 48.5 32t15.5 103t-15.5 103t-48.5 32q-35 0 -50 -31.5t-15 -103.5t15 -103.5t50 -31.5z" />
    <glyph glyph-name="one.inferior" unicode="&#x2081;" 
d="M167 105l-59 -44q-16 -11 -28 3l-25 32q-10 14 3 26l105 85q10 8 26 8h53q21 0 21 -21v-388q0 -21 -21 -21h-54q-21 0 -21 21v299z" />
    <glyph glyph-name="two.inferior" unicode="&#x2082;" 
d="M126 93q0 -5 1 -13.5t1 -13.5q0 -17 -20 -17h-50q-16 0 -19 19q-3 11 -3 27q0 58 37 92t109 34q73 0 108 -34.5t35 -91.5q0 -116 -152 -228h139q20 0 20 -20v-42q0 -20 -20 -20h-252q-20 0 -20 20v38q0 11 14 21q175 131 175 225q0 51 -52 51q-51 0 -51 -47z" />
    <glyph glyph-name="three.inferior" unicode="&#x2083;" 
d="M165 -34h-41q-20 0 -20 20v37q0 20 20 20h40q57 0 57 50q0 47 -72 47q-26 0 -77 -15q-19 -6 -24 11l-10 44q-3 13 12 20q44 21 115 21q151 0 151 -113q0 -72 -56 -93q63 -25 63 -103q0 -133 -157 -133q-72 0 -119 21q-10 5 -13 9t-1 12l10 43q5 20 25 12q41 -15 85 -15
q73 0 73 55q0 50 -61 50z" />
    <glyph glyph-name="four.inferior" unicode="&#x2084;" 
d="M207 102l-102 -148h102v148zM333 -126h-31v-68q0 -21 -21 -21h-54q-20 0 -20 21v68h-169q-19 0 -19 19v41q0 13 7 22l176 246q10 13 23 13h56q21 0 21 -21v-240h31q21 0 21 -20v-40q0 -20 -21 -20z" />
    <glyph glyph-name="five.inferior" unicode="&#x2085;" 
d="M329 -75q0 -73 -43 -109.5t-120 -36.5q-79 0 -115 19q-17 9 -14 22l11 43q5 17 24 11q41 -13 84 -13q77 0 77 65q0 32 -15.5 47t-50.5 15q-22 0 -45 -5t-29 -5q-12 -2 -20 3l-17 8q-11 5 -10 19q10 115 10 186q0 21 23 21h207q20 0 20 -20v-42q0 -20 -20 -20h-148
q0 -41 -5 -83q26 8 60 8q136 0 136 -133z" />
    <glyph glyph-name="six.inferior" unicode="&#x2086;" 
d="M278 132q-38 9 -59 9q-88 0 -92 -100q29 35 88 35q65 0 98 -39t33 -103q0 -71 -40 -113t-110 -42q-165 0 -165 212q0 111 44 170.5t134 59.5q52 0 86 -14q15 -8 13 -21l-8 -41q-4 -17 -22 -13zM196 -141q28 0 44 19t16 54q0 72 -60 72q-31 0 -47 -20t-16 -52
q0 -73 63 -73z" />
    <glyph glyph-name="seven.inferior" unicode="&#x2087;" 
d="M328 195v-35q0 -12 -11 -27q-49 -74 -85 -165t-39 -162q-1 -21 -21 -21h-59q-19 0 -19 20q0 72 37.5 160.5t93.5 167.5h-166q-20 0 -20 20v42q0 20 20 20h248q21 0 21 -20z" />
    <glyph glyph-name="eight.inferior" unicode="&#x2088;" 
d="M186 -221q-76 0 -116 32.5t-40 87.5q0 79 75 108q-67 29 -67 100q0 54 39.5 84t108.5 30q68 0 107.5 -30t39.5 -84q0 -70 -67 -100q76 -29 76 -108q0 -55 -41 -87.5t-115 -32.5zM186 -24q-62 -22 -62 -70q0 -24 16.5 -38t45.5 -14q28 0 44 14t16 38q0 48 -60 70zM186 37
q53 22 53 66q0 45 -53 45q-54 0 -54 -45q0 -44 54 -66z" />
    <glyph glyph-name="nine.inferior" unicode="&#x2089;" 
d="M92 -132q32 -10 60 -10q88 0 92 101q-31 -35 -88 -35q-66 0 -98.5 38.5t-32.5 103.5q0 72 40 113.5t109 41.5q85 0 125.5 -56t40.5 -156q0 -230 -179 -230q-53 0 -85 14q-15 8 -13 21l8 41q4 18 21 13zM175 141q-29 0 -45 -19.5t-16 -53.5q0 -72 61 -72q31 0 47 20t16 52
q0 33 -15.5 53t-47.5 20z" />
    <glyph glyph-name="parenleft.inferior" unicode="&#x208d;" horiz-adv-x="214" 
d="M39 0q0 61 22 120t54 96q7 9 18 9h48q8 0 11 -5.5t-1 -10.5q-58 -89 -58 -209t58 -209q4 -5 1 -10.5t-11 -5.5h-48q-11 0 -18 9q-32 37 -54 96t-22 120z" />
    <glyph glyph-name="parenright.inferior" unicode="&#x208e;" horiz-adv-x="214" 
d="M175 0q0 -61 -21.5 -120.5t-53.5 -95.5q-9 -9 -20 -9h-47q-8 0 -11 5.5t1 10.5q58 101 58 209q0 118 -58 209q-4 5 -1.5 10.5t11.5 5.5h47q12 0 20 -9q31 -38 53 -97.5t22 -118.5z" />
    <glyph glyph-name="Euro" unicode="&#x20ac;" horiz-adv-x="564" 
d="M39 316h51q-1 12 -1 37q0 26 1 36h-51q-19 0 -19 19v35q0 18 19 18h57q19 120 89.5 187t193.5 67q82 0 144 -30q21 -10 14 -28l-22 -62q-8 -23 -30 -15q-51 17 -89 17q-136 0 -164 -136h209q19 0 14 -20l-10 -34q-6 -18 -24 -18h-198q-1 -11 -1 -36q0 -26 1 -37h172
q19 0 13 -20l-9 -33q-6 -18 -24 -18h-143q30 -136 165 -136q38 0 90 18q21 7 29 -16l23 -63q6 -18 -14 -27q-56 -30 -145 -30q-124 0 -194.5 67t-89.5 187h-57q-19 0 -19 18v35q0 18 19 18z" />
    <glyph glyph-name="afii61289" unicode="&#x2113;" horiz-adv-x="488" 
d="M315 96q17 0 50 7q18 3 20 -15l7 -60q1 -11 -3 -15.5t-15 -8.5q-33 -11 -84 -11q-84 0 -125.5 40t-41.5 131v39q-34 -11 -68 -18q-12 -3 -15 7l-15 56q-3 12 8 15q50 12 90 28v173q0 127 36.5 189t129.5 62q76 0 112 -46t36 -121q0 -183 -196 -293v-73q0 -48 16.5 -67
t57.5 -19zM241 484v-132q112 81 112 198q0 78 -50 78q-36 0 -49 -33t-13 -111z" />
    <glyph glyph-name="trademark" unicode="&#x2122;" horiz-adv-x="641" 
d="M234 635h-56v-243q0 -15 -15 -15h-49q-16 0 -16 15v243h-55q-15 0 -15 16v39q0 14 15 14h191q15 0 15 -14v-39q0 -16 -15 -16zM446 457q-8 0 -14 10l-64 116v-191q0 -15 -15 -15h-48q-15 0 -15 15v297q0 15 15 15h51q12 0 18 -10l72 -135l72 135q6 10 18 10h51
q15 0 15 -15v-297q0 -15 -16 -15h-47q-15 0 -15 15v191l-64 -116q-8 -10 -14 -10z" />
    <glyph glyph-name="Omega" unicode="&#x2126;" horiz-adv-x="688" 
d="M344 715q143 0 220 -82t77 -221q0 -101 -42 -169.5t-105 -105.5v-38l95 10q25 3 25 -20v-67q0 -22 -22 -22h-207v137q0 13 14 24q112 74 112 237q0 95 -43.5 148.5t-123.5 53.5t-123.5 -53.5t-43.5 -148.5q0 -163 112 -237q14 -11 14 -24v-137h-207q-23 0 -23 22v67
q0 23 26 20l96 -10v38q-64 37 -106 105.5t-42 169.5q0 139 77 221t220 82z" />
    <glyph glyph-name="estimated" unicode="&#x212e;" horiz-adv-x="856" 
d="M820 335h-628q-5 0 -5 -4v-185q0 -19 8 -29q83 -96 240 -96q158 0 252 109h58q-55 -65 -136 -102t-175 -37q-165 0 -279.5 105t-114.5 253q0 150 112.5 254.5t277.5 104.5t277.5 -104.5t112.5 -254.5v-14zM673 365v186q0 24 -11 36q-93 91 -231 91q-141 0 -235 -97
q-9 -9 -9 -29v-187q0 -6 5 -6h476q5 0 5 6z" />
    <glyph glyph-name="onethird" unicode="&#x2153;" horiz-adv-x="863" 
d="M627 683l-352 -665q-9 -18 -28 -18h-58q-23 0 -12 22l352 664q9 18 28 18h58q23 0 12 -21zM616 181h41q61 0 61 -50q0 -55 -73 -55q-44 0 -85 15q-20 8 -25 -12l-10 -43q-2 -8 1 -12t13 -9q47 -21 119 -21q157 0 157 133q0 78 -63 103q56 21 56 93q0 113 -151 113
q-71 0 -115 -21q-15 -7 -12 -20l10 -44q5 -17 24 -11q51 15 77 15q72 0 72 -47q0 -50 -57 -50h-40q-20 0 -20 -20v-37q0 -20 20 -20zM167 594l-59 -44q-16 -11 -28 3l-25 32q-10 14 3 26l105 85q10 8 26 8h53q21 0 21 -21v-388q0 -21 -21 -21h-54q-21 0 -21 21v299z" />
    <glyph glyph-name="twothirds" unicode="&#x2154;" horiz-adv-x="863" 
d="M126 582q0 -5 1 -13.5t1 -13.5q0 -17 -20 -17h-50q-16 0 -19 19q-3 11 -3 27q0 58 37 92t109 34q73 0 108 -34.5t35 -91.5q0 -116 -152 -228h139q20 0 20 -20v-42q0 -20 -20 -20h-252q-20 0 -20 20v38q0 11 14 21q175 131 175 225q0 51 -52 51q-51 0 -51 -47zM661 683
l-352 -665q-9 -18 -28 -18h-58q-23 0 -12 22l352 664q9 18 28 18h58q23 0 12 -21zM659 181h-41q-20 0 -20 20v37q0 20 20 20h40q57 0 57 50q0 47 -72 47q-26 0 -77 -15q-19 -6 -24 11l-10 44q-3 13 12 20q44 21 115 21q151 0 151 -113q0 -72 -56 -93q63 -25 63 -103
q0 -133 -157 -133q-72 0 -119 21q-10 5 -13 9t-1 12l10 43q5 20 25 12q41 -15 85 -15q73 0 73 55q0 50 -61 50z" />
    <glyph glyph-name="oneeighth" unicode="&#x215b;" horiz-adv-x="863" 
d="M639 683l-352 -665q-9 -18 -28 -18h-58q-23 0 -12 22l352 664q9 18 28 18h58q23 0 12 -21zM678 -6q74 0 115 32.5t41 87.5q0 79 -76 108q67 30 67 100q0 54 -39.5 84t-107.5 30q-69 0 -108.5 -30t-39.5 -84q0 -71 67 -100q-75 -29 -75 -108q0 -55 40 -87.5t116 -32.5z
M678 191q60 -22 60 -70q0 -24 -16 -38t-44 -14q-29 0 -45.5 14t-16.5 38q0 48 62 70zM678 252q-54 22 -54 66q0 45 54 45q53 0 53 -45q0 -44 -53 -66zM167 594l-59 -44q-16 -11 -28 3l-25 32q-10 14 3 26l105 85q10 8 26 8h53q21 0 21 -21v-388q0 -21 -21 -21h-54
q-21 0 -21 21v299z" />
    <glyph glyph-name="threeeighths" unicode="&#x215c;" horiz-adv-x="863" 
d="M165 455h-41q-20 0 -20 20v37q0 20 20 20h40q57 0 57 50q0 47 -72 47q-26 0 -77 -15q-19 -6 -24 11l-10 44q-3 13 12 20q44 21 115 21q151 0 151 -113q0 -72 -56 -93q63 -25 63 -103q0 -133 -157 -133q-72 0 -119 21q-10 5 -13 9t-1 12l10 43q5 20 25 12q41 -15 85 -15
q73 0 73 55q0 50 -61 50zM648 683l-352 -665q-9 -18 -28 -18h-58q-23 0 -12 22l352 664q9 18 28 18h58q23 0 12 -21zM678 -6q-76 0 -116 32.5t-40 87.5q0 79 75 108q-67 29 -67 100q0 54 39.5 84t108.5 30q68 0 107.5 -30t39.5 -84q0 -70 -67 -100q76 -29 76 -108
q0 -55 -41 -87.5t-115 -32.5zM678 191q-62 -22 -62 -70q0 -24 16.5 -38t45.5 -14q28 0 44 14t16 38q0 48 -60 70zM678 252q53 22 53 66q0 45 -53 45q-54 0 -54 -45q0 -44 54 -66z" />
    <glyph glyph-name="fiveeighths" unicode="&#x215d;" horiz-adv-x="863" 
d="M329 414q0 -73 -43 -109.5t-120 -36.5q-79 0 -115 19q-17 9 -14 22l11 43q5 17 24 11q41 -13 84 -13q77 0 77 65q0 32 -15.5 47t-50.5 15q-22 0 -45 -5t-29 -5q-12 -2 -20 3l-17 8q-11 5 -10 19q10 115 10 186q0 21 23 21h207q20 0 20 -20v-42q0 -20 -20 -20h-148
q0 -41 -5 -83q26 8 60 8q136 0 136 -133zM649 683l-352 -665q-9 -18 -28 -18h-58q-23 0 -12 22l352 664q9 18 28 18h58q23 0 12 -21zM678 -6q-76 0 -116 32.5t-40 87.5q0 79 75 108q-67 29 -67 100q0 54 39.5 84t108.5 30q68 0 107.5 -30t39.5 -84q0 -70 -67 -100
q76 -29 76 -108q0 -55 -41 -87.5t-115 -32.5zM678 191q-62 -22 -62 -70q0 -24 16.5 -38t45.5 -14q28 0 44 14t16 38q0 48 -60 70zM678 252q53 22 53 66q0 45 -53 45q-54 0 -54 -45q0 -44 54 -66z" />
    <glyph glyph-name="seveneighths" unicode="&#x215e;" horiz-adv-x="863" 
d="M328 684v-35q0 -12 -11 -27q-49 -74 -85 -165t-39 -162q-1 -21 -21 -21h-59q-19 0 -19 20q0 72 37.5 160.5t93.5 167.5h-166q-20 0 -20 20v42q0 20 20 20h248q21 0 21 -20zM607 683l-352 -665q-9 -18 -28 -18h-58q-23 0 -12 22l352 664q9 18 28 18h58q23 0 12 -21z
M678 -6q-76 0 -116 32.5t-40 87.5q0 79 75 108q-67 29 -67 100q0 54 39.5 84t108.5 30q68 0 107.5 -30t39.5 -84q0 -70 -67 -100q76 -29 76 -108q0 -55 -41 -87.5t-115 -32.5zM678 191q-62 -22 -62 -70q0 -24 16.5 -38t45.5 -14q28 0 44 14t16 38q0 48 -60 70zM678 252
q53 22 53 66q0 45 -53 45q-54 0 -54 -45q0 -44 54 -66z" />
    <glyph glyph-name="arrowleft" unicode="&#x2190;" horiz-adv-x="580" 
d="M351 482l-143 -163l295 3q23 0 23 -21v-65q0 -20 -23 -20l-295 2l143 -163q6 -7 3.5 -15t-12.5 -8h-90q-15 0 -24 12l-176 209q-6 7 -6 16q0 7 6 14l176 210q9 12 24 12h90q10 0 12.5 -8t-3.5 -15z" />
    <glyph glyph-name="arrowup" unicode="&#x2191;" horiz-adv-x="580" 
d="M505 226l-163 143l2 -295q0 -22 -21 -22h-64q-21 0 -21 22l2 295l-163 -143q-7 -6 -14.5 -3.5t-7.5 12.5v91q0 15 11 24l210 175q7 6 15 6t15 -6l210 -175q11 -9 11 -24v-91q0 -10 -7.5 -12.5t-14.5 3.5z" />
    <glyph glyph-name="arrowright" unicode="&#x2192;" horiz-adv-x="580" 
d="M371 319l-143 163q-6 7 -3.5 15t12.5 8h90q16 0 25 -12l175 -210q6 -7 6 -14q0 -9 -6 -16l-175 -209q-9 -12 -25 -12h-90q-10 0 -12.5 8t3.5 15l143 163l-295 -2q-22 0 -22 20v65q0 21 22 21z" />
    <glyph glyph-name="arrowdown" unicode="&#x2193;" horiz-adv-x="580" 
d="M77 311l163 -143l-2 295q0 22 21 22h64q21 0 21 -22l-2 -295l163 143q7 6 14.5 3t7.5 -12v-91q0 -15 -11 -24l-210 -175q-8 -7 -15 -7t-15 7l-210 175q-11 9 -11 24v91q0 9 8 12t14 -3z" />
    <glyph glyph-name="arrowboth" unicode="&#x2194;" horiz-adv-x="893" 
d="M685 319l-143 163q-6 7 -3.5 15t12.5 8h90q15 0 25 -12l175 -210q6 -7 6 -14q0 -9 -6 -16l-175 -209q-10 -12 -25 -12h-90q-10 0 -12.5 8t3.5 15l143 163l-239 -4l-238 4l143 -163q6 -7 3.5 -15t-12.5 -8h-90q-15 0 -24 12l-176 209q-6 7 -6 16q0 8 6 14l176 210
q10 12 24 12h90q10 0 12.5 -8t-3.5 -15l-143 -163l238 3z" />
    <glyph glyph-name="arrowupdn" unicode="&#x2195;" horiz-adv-x="580" 
d="M340 55l163 143q7 6 15.5 3.5t8.5 -12.5v-90q0 -14 -13 -25l-209 -174q-10 -7 -15 -7q-7 0 -15 7l-210 174q-12 12 -12 25v90q0 10 8 12.5t15 -3.5l164 -143l-4 214l4 213l-164 -143q-7 -6 -15 -3.5t-8 12.5v90q0 14 12 25l210 175q6 6 15 6q8 0 15 -6l209 -175
q13 -11 13 -25v-90q0 -10 -8.5 -12.5t-15.5 3.5l-163 143l4 -213z" />
    <glyph glyph-name="arrowupleft" unicode="&#x2196;" horiz-adv-x="580" 
d="M480 382l-217 -15l211 -207q16 -15 0 -30l-45 -45q-15 -15 -30 1l-207 210l-14 -217q-1 -9 -8 -12.5t-15 3.5l-63 64q-12 10 -10 25l25 273q1 9 6 14q5 4 15 6l272 25q15 2 26 -9l64 -64q6 -8 2.5 -14.5t-12.5 -7.5z" />
    <glyph glyph-name="arrowupright" unicode="&#x2197;" horiz-adv-x="580" 
d="M316 367l-217 15q-9 1 -12.5 7.5t3.5 14.5l64 64q10 11 25 9l273 -25q9 -1 14 -6q6 -6 6 -14l25 -273q2 -15 -9 -25l-64 -64q-8 -7 -15 -3.5t-7 12.5l-15 217l-207 -210q-15 -16 -30 -1l-45 45q-15 15 1 30z" />
    <glyph glyph-name="arrowdownright" unicode="&#x2198;" horiz-adv-x="580" 
d="M99 132l217 15l-210 206q-16 15 -1 31l45 45q15 15 30 -1l207 -210l15 216q1 10 7.5 13.5t14.5 -3.5l64 -64q11 -10 9 -25l-25 -273q-1 -9 -6 -14q-6 -6 -14 -7l-273 -24q-15 -2 -26 9l-63 64q-7 8 -3 14.5t12 7.5z" />
    <glyph glyph-name="arrowdownleft" unicode="&#x2199;" horiz-adv-x="580" 
d="M263 147l217 -15q9 -1 12.5 -8t-2.5 -14l-64 -64q-11 -11 -26 -9l-272 24q-9 1 -15 7q-5 5 -6 14l-25 273q-2 13 10 25l63 64q8 7 15 3t8 -13l14 -216l207 210q15 16 30 1l45 -45q16 -15 0 -31z" />
    <glyph glyph-name="partialdiff" unicode="&#x2202;" horiz-adv-x="568" 
d="M172 594q-24 -6 -25 15l-5 62q-1 17 20 26q52 18 121 18q246 0 246 -289q0 -64 -7.5 -123t-27 -117t-50 -100.5t-79.5 -69t-111 -26.5q-105 0 -163 59t-58 159q0 112 58 190t169 78q57 0 94 -25t51 -63q2 29 1 59q-1 160 -140 160q-32 0 -94 -13zM253 98q65 0 97 52
t30 127q-4 97 -99 97q-61 0 -94 -47.5t-33 -114.5q0 -53 26 -83.5t73 -30.5z" />
    <glyph glyph-name="Delta" unicode="&#x2206;" horiz-adv-x="601" 
d="M238 704h125q22 0 28 -23l167 -652q4 -13 -2 -21t-21 -8h-470q-29 0 -22 29l167 652q6 23 28 23zM299 591l-112 -481h227l-111 481h-4z" />
    <glyph glyph-name="product" unicode="&#x220f;" horiz-adv-x="673" 
d="M28 614v68q0 22 24 22h570q23 0 23 -22v-68q0 -23 -23 -23h-75v-568q0 -23 -24 -23h-80q-23 0 -23 23v568h-166v-568q0 -23 -23 -23h-81q-23 0 -23 23v568h-75q-24 0 -24 23z" />
    <glyph glyph-name="summation" unicode="&#x2211;" horiz-adv-x="517" 
d="M358 265l-174 -264h272q22 0 22 -22v-66q0 -23 -22 -23h-392q-24 0 -24 23v67q0 16 13 36l186 284l-184 279q-11 16 -11 35v68q0 22 23 22h384q23 0 23 -22v-66q0 -23 -23 -23h-265l173 -259q6 -9 6 -20v-28q0 -13 -7 -21z" />
    <glyph glyph-name="minus" unicode="&#x2212;" horiz-adv-x="541" 
d="M462 298h-384q-22 0 -22 21v60q0 21 23 21h383q22 0 22 -21v-60q0 -21 -22 -21z" />
    <glyph glyph-name="uni2215" unicode="&#x2215;" horiz-adv-x="72" 
d="M261 683l-352 -665q-9 -18 -28 -18h-58q-23 0 -12 22l352 664q9 18 28 18h58q23 0 12 -21z" />
    <glyph glyph-name="uni2219" unicode="&#x2219;" horiz-adv-x="222" 
d="M47 225v91q0 22 23 22h82q23 0 23 -22v-91q0 -23 -22 -23h-84q-22 0 -22 23z" />
    <glyph glyph-name="radical" unicode="&#x221a;" horiz-adv-x="648" 
d="M382 -70h-105q-22 0 -29 22l-126 417h-65q-22 0 -22 21v60q0 21 22 21h145q21 0 27 -21l95 -364h4l144 658q5 21 25 21h89q23 0 17 -24l-193 -789q-6 -22 -28 -22z" />
    <glyph glyph-name="infinity" unicode="&#x221e;" horiz-adv-x="640" 
d="M324 471q36 51 118 51q156 0 156 -172q0 -171 -157 -171q-83 0 -125 51q-39 -51 -119 -51q-161 0 -161 173q0 75 38 122.5t124 47.5q84 0 126 -51zM273 337l17 75q-21 42 -78 42q-42 0 -61 -26t-19 -81q0 -95 67 -95q34 0 48.5 18t25.5 67zM366 364l-17 -74
q21 -43 78 -43q42 0 61 26t19 81q0 95 -67 95q-33 0 -47.5 -18t-26.5 -67z" />
    <glyph glyph-name="integral" unicode="&#x222b;" horiz-adv-x="390" 
d="M133 51v511q0 79 29.5 115t100.5 36q38 0 64 -7q20 -6 19 -23l-4 -60q-1 -20 -20 -20q-3 0 -11.5 1t-13.5 1q-23 0 -31.5 -13.5t-8.5 -45.5v-511q0 -80 -29.5 -115t-101.5 -35q-39 0 -63 6q-20 5 -19 22l4 61q1 19 20 19q4 0 13 -1t13 -1q21 0 30 14t9 46z" />
    <glyph glyph-name="approxequal" unicode="&#x2248;" horiz-adv-x="541" 
d="M486 267q-6 -101 -99 -101q-43 0 -91 19l-56 22q-42 17 -62 17q-25 0 -33 -26l-3 -9q-5 -16 -24 -16h-37q-29 0 -26 38q6 102 99 102q36 0 91 -20l54 -20q40 -16 64 -16q26 0 33 23l3 10q5 16 24 16h37q29 0 26 -39zM486 492q-6 -101 -99 -101q-42 0 -91 19l-56 22
q-42 17 -62 17q-25 0 -33 -26l-3 -9q-5 -16 -24 -16h-37q-29 0 -26 39q6 101 99 101q40 0 91 -19l54 -21q42 -16 64 -16q25 0 33 24l3 9q5 16 24 16h37q29 0 26 -39z" />
    <glyph glyph-name="notequal" unicode="&#x2260;" horiz-adv-x="541" 
d="M459 199h-195l-67 -177q-7 -22 -27 -22h-54q-26 0 -18 24l66 175h-83q-22 0 -22 21v57q0 22 23 22h121l36 107h-158q-22 0 -22 22v57q0 21 23 21h196l69 180q7 18 25 18h56q26 0 16 -24l-66 -174h81q22 0 22 -21v-57q0 -22 -22 -22h-119l-37 -107h156q22 0 22 -22v-57
q0 -21 -22 -21z" />
    <glyph glyph-name="lessequal" unicode="&#x2264;" horiz-adv-x="541" 
d="M62 395q0 11 10 20l308 253q16 14 31 -1l45 -49q7 -7 6.5 -15.5t-8.5 -14.5l-241 -193l241 -194q18 -15 2 -31l-45 -48q-15 -15 -31 -2l-308 254q-10 9 -10 21zM439 0h-353q-21 0 -21 22v43q0 21 22 21h352q21 0 21 -21v-43q0 -22 -21 -22z" />
    <glyph glyph-name="greaterequal" unicode="&#x2265;" horiz-adv-x="541" 
d="M479 395q0 -13 -10 -21l-308 -254q-15 -14 -31 2l-44 48q-16 17 1 31l242 194l-242 193q-17 12 -1 30l44 49q15 15 31 1l308 -253q10 -9 10 -20zM455 0h-353q-21 0 -21 22v43q0 21 21 21h352q22 0 22 -21v-43q0 -22 -21 -22z" />
    <glyph glyph-name="lozenge" unicode="&#x25ca;" horiz-adv-x="601" 
d="M301 156l124 196l-124 197l-125 -197zM301 -10q-11 0 -18 10l-230 340q-4 5 -4 12q0 6 4 13l230 339q6 10 18 10q9 0 17 -10l229 -339q5 -6 5 -13q0 -6 -5 -12l-229 -340q-7 -10 -17 -10z" />
    <glyph glyph-name="uniE000" unicode="&#xe000;" horiz-adv-x="500" 
 />
    <glyph glyph-name="Q.alt" unicode="&#xe001;" horiz-adv-x="609" 
d="M238 -86l8 84q-205 32 -205 354q0 192 66.5 277.5t196.5 85.5t196.5 -85.5t66.5 -277.5q0 -322 -205 -354l8 -84q3 -24 -22 -24h-87q-25 0 -23 24zM304 106q67 0 98 56t31 190t-31 190.5t-98 56.5t-98 -56.5t-31 -189.5q0 -134 30.5 -190.5t98.5 -56.5z" />
    <glyph glyph-name="a.alt" unicode="&#xe002;" horiz-adv-x="535" 
d="M361 268q0 174 -102 174q-50 0 -73.5 -40.5t-23.5 -132.5q0 -93 23.5 -134t73.5 -41q102 0 102 174zM483 514v-492q0 -22 -22 -22h-73q-21 0 -23 19l-3 46q-16 -34 -54 -54t-84 -20q-187 0 -187 277q0 278 188 278q45 0 83 -21t54 -54l3 46q2 19 23 19h73q22 0 22 -22z
" />
    <glyph glyph-name="u.alt" unicode="&#xe003;" horiz-adv-x="505" 
d="M253 -9q-204 0 -204 199v324q0 22 21 22h80q22 0 22 -22v-318q0 -48 19 -71.5t62 -23.5t62 23.5t19 71.5v318q0 22 21 22h79q23 0 23 -22v-324q0 -199 -204 -199z" />
    <glyph glyph-name="y.alt" unicode="&#xe004;" horiz-adv-x="506" 
d="M336 85v40q-40 -69 -135 -69q-152 0 -152 178v280q0 22 21 22h80q22 0 22 -22v-256q0 -47 15 -70.5t54 -23.5q42 0 66 31.5t24 84.5v234q0 22 22 22h80q21 0 21 -22v-437q0 -97 -56 -147t-163 -50q-92 0 -148 24q-20 8 -17 26l6 55q2 23 27 15q63 -21 117 -21
q116 0 116 106z" />
    <glyph glyph-name="j.alt" unicode="&#xe005;" horiz-adv-x="235" 
d="M179 514v-602q0 -22 -22 -22h-79q-22 0 -22 22v602q0 22 22 22h79q22 0 22 -22zM180 680v-66q0 -23 -21 -23h-83q-21 0 -21 23v66q0 22 21 22h83q21 0 21 -22z" />
    <glyph glyph-name="agrave.alt" unicode="&#xe006;" horiz-adv-x="535" 
d="M361 268q0 174 -102 174q-50 0 -73.5 -40.5t-23.5 -132.5q0 -93 23.5 -134t73.5 -41q102 0 102 174zM483 514v-492q0 -22 -22 -22h-73q-21 0 -23 19l-3 46q-16 -34 -54 -54t-84 -20q-187 0 -187 277q0 278 188 278q45 0 83 -21t54 -54l3 46q2 19 23 19h73q22 0 22 -22z
M296 690l39 -82q7 -18 -13 -18h-49q-17 0 -29 12l-78 80q-7 8 -4.5 16t13.5 8h96q19 0 25 -16z" />
    <glyph glyph-name="aacute.alt" unicode="&#xe007;" horiz-adv-x="535" 
d="M361 268q0 174 -102 174q-50 0 -73.5 -40.5t-23.5 -132.5q0 -93 23.5 -134t73.5 -41q102 0 102 174zM483 514v-492q0 -22 -22 -22h-73q-21 0 -23 19l-3 46q-16 -34 -54 -54t-84 -20q-187 0 -187 277q0 278 188 278q45 0 83 -21t54 -54l3 46q2 19 23 19h73q22 0 22 -22z
M207 608l38 82q8 16 25 16h97q10 0 12.5 -8t-4.5 -16l-78 -80q-11 -12 -29 -12h-48q-20 0 -13 18z" />
    <glyph glyph-name="acircumflex.alt" unicode="&#xe008;" horiz-adv-x="535" 
d="M361 268q0 174 -102 174q-50 0 -73.5 -40.5t-23.5 -132.5q0 -93 23.5 -134t73.5 -41q102 0 102 174zM483 514v-492q0 -22 -22 -22h-73q-21 0 -23 19l-3 46q-16 -34 -54 -54t-84 -20q-187 0 -187 277q0 278 188 278q45 0 83 -21t54 -54l3 46q2 19 23 19h73q22 0 22 -22z
M325 602l-54 50l-55 -50q-12 -12 -27 -12h-47q-10 0 -13 7t4 14l82 89q12 13 29 13h53q16 0 29 -13l82 -89q7 -7 4.5 -14t-12.5 -7h-48q-15 0 -27 12z" />
    <glyph glyph-name="atilde.alt" unicode="&#xe009;" horiz-adv-x="535" 
d="M361 268q0 174 -102 174q-50 0 -73.5 -40.5t-23.5 -132.5q0 -93 23.5 -134t73.5 -41q102 0 102 174zM483 514v-492q0 -22 -22 -22h-73q-21 0 -23 19l-3 46q-16 -34 -54 -54t-84 -20q-187 0 -187 277q0 278 188 278q45 0 83 -21t54 -54l3 46q2 19 23 19h73q22 0 22 -22z
M422 663q0 -75 -66 -75q-37 0 -78 17l-29 13q-23 9 -36 9q-20 0 -23 -17l-1 -6q-3 -14 -20 -14h-29q-20 0 -20 27q0 76 66 76q34 0 77 -17l30 -13q24 -9 37 -9q20 0 22 18l1 5q1 15 19 15h30q20 0 20 -29z" />
    <glyph glyph-name="adieresis.alt" unicode="&#xe00a;" horiz-adv-x="535" 
d="M361 268q0 174 -102 174q-50 0 -73.5 -40.5t-23.5 -132.5q0 -93 23.5 -134t73.5 -41q102 0 102 174zM483 514v-492q0 -22 -22 -22h-73q-21 0 -23 19l-3 46q-16 -34 -54 -54t-84 -20q-187 0 -187 277q0 278 188 278q45 0 83 -21t54 -54l3 46q2 19 23 19h73q22 0 22 -22z
M239 671v-60q0 -21 -21 -21h-70q-22 0 -22 21v60q0 21 22 21h70q21 0 21 -21zM415 671v-60q0 -21 -21 -21h-70q-22 0 -22 21v60q0 21 22 21h70q21 0 21 -21z" />
    <glyph glyph-name="amacron.alt" unicode="&#xe00b;" horiz-adv-x="535" 
d="M361 268q0 174 -102 174q-50 0 -73.5 -40.5t-23.5 -132.5q0 -93 23.5 -134t73.5 -41q102 0 102 174zM483 514v-492q0 -22 -22 -22h-73q-21 0 -23 19l-3 46q-16 -34 -54 -54t-84 -20q-187 0 -187 277q0 278 188 278q45 0 83 -21t54 -54l3 46q2 19 23 19h73q22 0 22 -22z
M401 595h-261q-21 0 -21 21v34q0 20 21 20h261q21 0 21 -20v-34q0 -21 -21 -21z" />
    <glyph glyph-name="abreve.alt" unicode="&#xe00c;" horiz-adv-x="535" 
d="M361 268q0 174 -102 174q-50 0 -73.5 -40.5t-23.5 -132.5q0 -93 23.5 -134t73.5 -41q102 0 102 174zM483 514v-492q0 -22 -22 -22h-73q-21 0 -23 19l-3 46q-16 -34 -54 -54t-84 -20q-187 0 -187 277q0 278 188 278q45 0 83 -21t54 -54l3 46q2 19 23 19h73q22 0 22 -22z
M271 587q-68 0 -103 31t-36 78q0 17 17 17h39q15 0 18 -16q8 -46 65 -46q56 0 64 46q3 16 19 16h38q17 0 17 -17q-1 -48 -35.5 -78.5t-102.5 -30.5z" />
    <glyph glyph-name="aring.alt" unicode="&#xe00d;" horiz-adv-x="535" 
d="M361 268q0 174 -102 174q-50 0 -73.5 -40.5t-23.5 -132.5q0 -93 23.5 -134t73.5 -41q102 0 102 174zM483 514v-492q0 -22 -22 -22h-73q-21 0 -23 19l-3 46q-16 -34 -54 -54t-84 -20q-187 0 -187 277q0 278 188 278q45 0 83 -21t54 -54l3 46q2 19 23 19h73q22 0 22 -22z
M271 635q22 0 35 12t13 33q0 20 -13 32t-35 12t-35 -12t-13 -32q0 -21 13 -33t35 -12zM271 776q47 0 76 -26.5t29 -69.5q0 -44 -29 -70.5t-76 -26.5q-48 0 -76.5 26.5t-28.5 70.5q0 43 28.5 69.5t76.5 26.5z" />
    <glyph glyph-name="aringacute.alt" unicode="&#xe00e;" horiz-adv-x="535" 
d="M483 514v-492q0 -22 -22 -22h-73q-21 0 -23 19l-3 46q-16 -34 -54 -54t-84 -20q-187 0 -187 277q0 278 188 278q45 0 83 -21t54 -54l3 46q2 19 23 19h73q22 0 22 -22zM361 268q0 174 -102 174q-50 0 -73.5 -40.5t-23.5 -132.5q0 -93 23.5 -134t73.5 -41q102 0 102 174z
M166 680q0 62 54 86l31 66q8 16 25 16h97q10 0 12.5 -8t-4.5 -16l-58 -59q53 -26 53 -85q0 -44 -29 -70.5t-76 -26.5q-48 0 -76.5 26.5t-28.5 70.5zM271 635q22 0 35 12t13 33q0 20 -13 32t-35 12t-35 -12t-13 -32q0 -21 13 -33t35 -12z" />
    <glyph glyph-name="aogonek.alt" unicode="&#xe00f;" horiz-adv-x="535" 
d="M483 514v-492q0 -22 -22 -22h-9q-49 -29 -49 -65q0 -26 37 -26q8 0 16.5 2t11.5 2q9 0 12 -9l6 -31q2 -12 -9 -18q-22 -12 -61 -12q-88 0 -88 65q0 54 68 92h-8q-21 0 -23 19l-3 46q-16 -34 -54 -54t-84 -20q-187 0 -187 277q0 278 188 278q45 0 83 -21t54 -54l3 46
q2 19 23 19h73q22 0 22 -22zM361 268q0 174 -102 174q-50 0 -73.5 -40.5t-23.5 -132.5q0 -93 23.5 -134t73.5 -41q102 0 102 174z" />
    <glyph glyph-name="ij.alt" unicode="&#xe010;" horiz-adv-x="463" 
d="M179 514v-492q0 -22 -22 -22h-79q-22 0 -22 22v492q0 22 22 22h79q22 0 22 -22zM180 680v-66q0 -23 -21 -23h-83q-21 0 -21 23v66q0 22 21 22h83q21 0 21 -22zM407 514v-602q0 -22 -22 -22h-79q-22 0 -22 22v602q0 22 22 22h79q22 0 22 -22zM408 680v-66q0 -23 -21 -23
h-83q-21 0 -21 23v66q0 22 21 22h83q21 0 21 -22z" />
    <glyph glyph-name="jcircumflex.alt" unicode="&#xe011;" horiz-adv-x="236" 
d="M179 514v-602q0 -22 -22 -22h-79q-22 0 -22 22v602q0 22 22 22h79q22 0 22 -22zM172 602l-54 50l-55 -50q-12 -12 -27 -12h-47q-10 0 -13 7t4 14l82 89q12 13 29 13h53q16 0 29 -13l82 -89q7 -7 4.5 -14t-12.5 -7h-48q-15 0 -27 12z" />
    <glyph glyph-name="dotlessj.alt" unicode="&#xe012;" horiz-adv-x="235" 
d="M179 514v-602q0 -22 -22 -22h-79q-22 0 -22 22v602q0 22 22 22h79q22 0 22 -22z" />
    <glyph glyph-name="ugrave.alt" unicode="&#xe013;" horiz-adv-x="505" 
d="M253 -9q-204 0 -204 199v324q0 22 21 22h80q22 0 22 -22v-318q0 -48 19 -71.5t62 -23.5t62 23.5t19 71.5v318q0 22 21 22h79q23 0 23 -22v-324q0 -199 -204 -199zM262 690l39 -82q7 -18 -13 -18h-49q-17 0 -29 12l-78 80q-7 8 -4.5 16t13.5 8h96q19 0 25 -16z" />
    <glyph glyph-name="uacute.alt" unicode="&#xe014;" horiz-adv-x="505" 
d="M253 -9q-204 0 -204 199v324q0 22 21 22h80q22 0 22 -22v-318q0 -48 19 -71.5t62 -23.5t62 23.5t19 71.5v318q0 22 21 22h79q23 0 23 -22v-324q0 -199 -204 -199zM204 608l38 82q8 16 25 16h97q10 0 12.5 -8t-4.5 -16l-78 -80q-11 -12 -29 -12h-48q-20 0 -13 18z" />
    <glyph glyph-name="ucircumflex.alt" unicode="&#xe015;" horiz-adv-x="505" 
d="M253 -9q-204 0 -204 199v324q0 22 21 22h80q22 0 22 -22v-318q0 -48 19 -71.5t62 -23.5t62 23.5t19 71.5v318q0 22 21 22h79q23 0 23 -22v-324q0 -199 -204 -199zM307 602l-54 50l-55 -50q-12 -12 -27 -12h-47q-10 0 -13 7t4 14l82 89q12 13 29 13h53q16 0 29 -13l82 -89
q7 -7 4.5 -14t-12.5 -7h-48q-15 0 -27 12z" />
    <glyph glyph-name="utilde.alt" unicode="&#xe016;" horiz-adv-x="505" 
d="M253 -9q-204 0 -204 199v324q0 22 21 22h80q22 0 22 -22v-318q0 -48 19 -71.5t62 -23.5t62 23.5t19 71.5v318q0 22 21 22h79q23 0 23 -22v-324q0 -199 -204 -199zM404 663q0 -75 -66 -75q-37 0 -78 17l-29 13q-23 9 -36 9q-20 0 -23 -17l-1 -6q-3 -14 -20 -14h-29
q-20 0 -20 27q0 76 66 76q34 0 77 -17l30 -13q24 -9 37 -9q20 0 22 18l1 5q1 15 19 15h30q20 0 20 -29z" />
    <glyph glyph-name="udieresis.alt" unicode="&#xe017;" horiz-adv-x="505" 
d="M253 -9q-204 0 -204 199v324q0 22 21 22h80q22 0 22 -22v-318q0 -48 19 -71.5t62 -23.5t62 23.5t19 71.5v318q0 22 21 22h79q23 0 23 -22v-324q0 -199 -204 -199zM221 671v-60q0 -21 -21 -21h-70q-22 0 -22 21v60q0 21 22 21h70q21 0 21 -21zM397 671v-60q0 -21 -21 -21
h-70q-22 0 -22 21v60q0 21 22 21h70q21 0 21 -21z" />
    <glyph glyph-name="umacron.alt" unicode="&#xe018;" horiz-adv-x="505" 
d="M253 -9q-204 0 -204 199v324q0 22 21 22h80q22 0 22 -22v-318q0 -48 19 -71.5t62 -23.5t62 23.5t19 71.5v318q0 22 21 22h79q23 0 23 -22v-324q0 -199 -204 -199zM383 595h-261q-21 0 -21 21v34q0 20 21 20h261q21 0 21 -20v-34q0 -21 -21 -21z" />
    <glyph glyph-name="ubreve.alt" unicode="&#xe019;" horiz-adv-x="505" 
d="M253 -9q-204 0 -204 199v324q0 22 21 22h80q22 0 22 -22v-318q0 -48 19 -71.5t62 -23.5t62 23.5t19 71.5v318q0 22 21 22h79q23 0 23 -22v-324q0 -199 -204 -199zM253 587q-68 0 -103 31t-36 78q0 17 17 17h39q15 0 18 -16q8 -46 65 -46q56 0 64 46q3 16 19 16h38
q17 0 17 -17q-1 -48 -35.5 -78.5t-102.5 -30.5z" />
    <glyph glyph-name="uring.alt" unicode="&#xe01a;" horiz-adv-x="505" 
d="M253 -9q-204 0 -204 199v324q0 22 21 22h80q22 0 22 -22v-318q0 -48 19 -71.5t62 -23.5t62 23.5t19 71.5v318q0 22 21 22h79q23 0 23 -22v-324q0 -199 -204 -199zM253 635q22 0 35 12t13 33q0 20 -13 32t-35 12t-35 -12t-13 -32q0 -21 13 -33t35 -12zM253 776
q47 0 76 -26.5t29 -69.5q0 -44 -29 -70.5t-76 -26.5q-48 0 -76.5 26.5t-28.5 70.5q0 43 28.5 69.5t76.5 26.5z" />
    <glyph glyph-name="uhungarumlaut.alt" unicode="&#xe01b;" horiz-adv-x="505" 
d="M253 -9q-204 0 -204 199v324q0 22 21 22h80q22 0 22 -22v-318q0 -48 19 -71.5t62 -23.5t62 23.5t19 71.5v318q0 22 21 22h79q23 0 23 -22v-324q0 -199 -204 -199zM122 608l36 82q5 16 24 16h80q10 0 12.5 -8t-3.5 -16l-64 -80q-11 -12 -29 -12h-43q-20 0 -13 18zM286 608
l35 82q6 16 24 16h79q11 0 13.5 -8t-3.5 -16l-64 -80q-10 -12 -30 -12h-41q-20 0 -13 18z" />
    <glyph glyph-name="ydieresis.alt" unicode="&#xe01c;" horiz-adv-x="506" 
d="M336 85v40q-40 -69 -135 -69q-152 0 -152 178v280q0 22 21 22h80q22 0 22 -22v-256q0 -47 15 -70.5t54 -23.5q42 0 66 31.5t24 84.5v234q0 22 22 22h80q21 0 21 -22v-437q0 -97 -56 -147t-163 -50q-92 0 -148 24q-20 8 -17 26l6 55q2 23 27 15q63 -21 117 -21
q116 0 116 106zM221 671v-60q0 -21 -21 -21h-70q-22 0 -22 21v60q0 21 22 21h70q21 0 21 -21zM397 671v-60q0 -21 -21 -21h-70q-22 0 -22 21v60q0 21 22 21h70q21 0 21 -21z" />
    <glyph glyph-name="yacute.alt" unicode="&#xe01d;" horiz-adv-x="506" 
d="M336 85v40q-40 -69 -135 -69q-152 0 -152 178v280q0 22 21 22h80q22 0 22 -22v-256q0 -47 15 -70.5t54 -23.5q42 0 66 31.5t24 84.5v234q0 22 22 22h80q21 0 21 -22v-437q0 -97 -56 -147t-163 -50q-92 0 -148 24q-20 8 -17 26l6 55q2 23 27 15q63 -21 117 -21
q116 0 116 106zM200 608l38 82q8 16 25 16h97q10 0 12.5 -8t-4.5 -16l-78 -80q-11 -12 -29 -12h-48q-20 0 -13 18z" />
    <glyph glyph-name="ycircumflex.alt" unicode="&#xe01e;" horiz-adv-x="506" 
d="M336 85v40q-40 -69 -135 -69q-152 0 -152 178v280q0 22 21 22h80q22 0 22 -22v-256q0 -47 15 -70.5t54 -23.5q42 0 66 31.5t24 84.5v234q0 22 22 22h80q21 0 21 -22v-437q0 -97 -56 -147t-163 -50q-92 0 -148 24q-20 8 -17 26l6 55q2 23 27 15q63 -21 117 -21
q116 0 116 106zM305 602l-54 50l-55 -50q-12 -12 -27 -12h-47q-10 0 -13 7t4 14l82 89q12 13 29 13h53q16 0 29 -13l82 -89q7 -7 4.5 -14t-12.5 -7h-48q-15 0 -27 12z" />
    <glyph glyph-name="ygrave.alt" unicode="&#xe01f;" horiz-adv-x="506" 
d="M336 85v40q-40 -69 -135 -69q-152 0 -152 178v280q0 22 21 22h80q22 0 22 -22v-256q0 -47 15 -70.5t54 -23.5q42 0 66 31.5t24 84.5v234q0 22 22 22h80q21 0 21 -22v-437q0 -97 -56 -147t-163 -50q-92 0 -148 24q-20 8 -17 26l6 55q2 23 27 15q63 -21 117 -21
q116 0 116 106zM259 690l39 -82q7 -18 -13 -18h-49q-17 0 -29 12l-78 80q-7 8 -4.5 16t13.5 8h96q19 0 25 -16z" />
    <glyph glyph-name="i.dot" unicode="&#xe020;" horiz-adv-x="235" 
d="M179 514v-492q0 -22 -22 -22h-79q-22 0 -22 22v492q0 22 22 22h79q22 0 22 -22zM180 680v-66q0 -23 -21 -23h-83q-21 0 -21 23v66q0 22 21 22h83q21 0 21 -22z" />
    <glyph glyph-name="dollar.old" unicode="&#xe021;" horiz-adv-x="475" 
d="M279 652v-59q73 -6 116 -22q23 -10 18 -27l-14 -58q-5 -22 -29 -15q-56 16 -106 16q-95 0 -95 -58q0 -19 17.5 -36.5t34.5 -26.5t58 -28q31 -15 48 -24t41.5 -26.5t37 -34.5t22.5 -43.5t10 -57.5q0 -64 -41 -105t-118 -51v-62q0 -19 -19 -19h-37q-20 0 -20 19v58
q-93 3 -149 24q-24 9 -19 27l15 61q5 23 28 14q51 -20 125 -20q106 0 106 60q0 9 -2.5 16.5t-5.5 13.5t-11 12.5t-13 10.5t-17 10.5t-18 9.5t-21.5 10t-21.5 10q-33 14 -51.5 23.5t-42.5 26t-36 34t-21 43.5t-9 59q0 65 41 106.5t123 48.5v60q0 19 20 19h37q19 0 19 -19z
" />
    <glyph glyph-name="cent.old" unicode="&#xe022;" horiz-adv-x="455" 
d="M37 292q0 273 207 298v62q0 20 19 20h38q19 0 19 -20v-60q55 -6 91 -23q21 -10 16 -26l-17 -62q-5 -20 -27 -12q-37 13 -80 13q-69 0 -103 -45t-34 -145q0 -99 34.5 -144t103.5 -45q42 0 84 14q21 7 26 -13l16 -61q3 -16 -16 -26q-33 -18 -94 -23v-60q0 -19 -19 -19h-38
q-19 0 -19 19v60q-207 24 -207 298z" />
    <glyph glyph-name="sterling.old" unicode="&#xe023;" horiz-adv-x="531" 
d="M117 259h-61q-18 0 -18 18v31q0 17 18 17h33q-25 52 -25 99q0 74 54.5 121.5t157.5 47.5q102 0 152.5 -42t50.5 -119q0 -43 -18 -43h-72q-18 0 -18 16q0 3 0.5 9.5t0.5 13.5q0 61 -88 61q-95 0 -95 -83q0 -31 21 -81h122q19 0 19 -17v-31q0 -18 -19 -18h-101q7 -21 7 -48
q0 -71 -52 -111q25 10 58 10q20 0 53.5 -7t52.5 -7q51 0 53 60q1 18 21 18h58q23 0 23 -24q0 -77 -25.5 -118t-87.5 -41q-36 0 -92.5 12t-85.5 12q-54 0 -107 -21q-17 -7 -24 3l-40 59q-9 14 4 23q81 52 81 129q0 26 -11 51z" />
    <glyph glyph-name="yen.old" unicode="&#xe024;" horiz-adv-x="513" 
d="M437 128h-118v-106q0 -22 -21 -22h-82q-23 0 -23 22v106h-117q-18 0 -18 17v30q0 18 18 18h118v18l-23 46h-95q-18 0 -18 18v29q0 18 18 18h64l-122 237q-5 7 -1.5 16.5t17.5 9.5h84q19 0 28 -19l109 -246h3l109 246q9 19 28 19h84q14 0 17.5 -9.5t-1.5 -16.5l-123 -237
h65q18 0 18 -18v-29q0 -18 -18 -18h-96l-22 -46v-18h118q18 0 18 -18v-30q0 -17 -18 -17z" />
    <glyph glyph-name="Euro.old" unicode="&#xe025;" horiz-adv-x="496" 
d="M27 269h42q-1 8 -1 25q0 16 1 26h-42q-18 0 -18 16v29q0 17 18 17h48q18 100 80.5 155.5t167.5 55.5q86 0 135 -28q20 -12 13 -27l-23 -54q-8 -22 -28 -15q-45 15 -80 15q-105 0 -132 -102h172q20 0 12 -18l-8 -29q-4 -15 -23 -15h-164q-2 -18 -2 -25q0 -8 2 -26h142
q19 0 13 -19l-9 -29q-4 -15 -22 -15h-113q25 -105 133 -105q34 0 79 15q21 6 29 -14l23 -55q7 -16 -13 -27q-47 -28 -135 -28q-106 0 -168.5 56.5t-80.5 157.5h-48q-18 0 -18 17v29q0 17 18 17z" />
    <glyph glyph-name="zero.old" unicode="&#xe026;" horiz-adv-x="540" 
d="M270 592q111 0 171.5 -76.5t60.5 -224.5q0 -147 -60.5 -223.5t-170.5 -76.5t-171 76.5t-61 224.5t60.5 224t170.5 76zM270 101q52 0 77 45.5t25 144.5q0 100 -25 146t-77 46t-77 -46t-25 -145t25 -145t77 -46z" />
    <glyph glyph-name="one.old" unicode="&#xe027;" horiz-adv-x="495" 
d="M440 0h-357q-22 0 -22 23v64q0 22 22 22h121v341l-85 -62q-15 -11 -26 2l-40 49q-10 13 2 24l142 114q12 10 28 10h83q23 0 23 -23v-455h109q23 0 23 -22v-64q0 -23 -23 -23z" />
    <glyph glyph-name="two.old" unicode="&#xe028;" horiz-adv-x="496" 
d="M37 21v56q0 16 16 27q128 88 174 132q95 89 95 169q0 35 -20 57t-63 22q-84 0 -84 -76q0 -10 1.5 -22.5t1.5 -17.5q0 -18 -20 -18h-77q-16 0 -20 20q-3 18 -3 42q0 82 51 131t155 49q103 0 154 -48t51 -125q0 -52 -21 -100.5t-59 -88.5t-69.5 -65.5t-75.5 -55.5h214
q23 0 23 -23v-63q0 -23 -23 -23h-380q-21 0 -21 21z" />
    <glyph glyph-name="three.old" unicode="&#xe029;" horiz-adv-x="477" 
d="M141 310h52q47 0 74.5 22.5t27.5 68.5q0 43 -27 63.5t-84 20.5q-54 0 -120 -23q-21 -8 -26 15l-15 61q-3 16 16 25q69 30 166 30q98 0 156.5 -42.5t58.5 -130.5q0 -114 -89 -148q47 -16 78 -57.5t31 -108.5q0 -223 -248 -223q-97 0 -168 31q-20 9 -16 25l15 67
q6 22 27 14q81 -27 131 -27q70 0 101.5 28t31.5 90q0 95 -116 95h-57q-23 0 -23 22v61q0 21 23 21z" />
    <glyph glyph-name="four.old" unicode="&#xe02a;" horiz-adv-x="548" 
d="M318 430l-183 -278h183v278zM335 585h86q23 0 23 -23v-410h69q23 0 23 -23v-59q0 -24 -23 -24h-69v-132q0 -24 -23 -24h-80q-24 0 -24 24v132h-270q-23 0 -23 24v61q0 17 8 29l276 409q11 16 27 16z" />
    <glyph glyph-name="five.old" unicode="&#xe02b;" horiz-adv-x="504" 
d="M406 477h-232q-2 -77 -9 -159q44 16 95 16q206 0 206 -215q0 -236 -248 -236q-110 0 -172 31q-19 10 -16 25l16 65q5 23 26 14q67 -26 135 -26q131 0 131 126q0 58 -25 87t-84 29q-41 0 -78.5 -11t-43.5 -11q-3 0 -15 4l-31 11q-13 7 -11 23q17 197 17 311q0 24 24 24
h315q23 0 23 -23v-62q0 -23 -23 -23z" />
    <glyph glyph-name="six.old" unicode="&#xe02c;" horiz-adv-x="528" 
d="M232 691q11 13 29 13h92q10 0 13.5 -7t-4.5 -15q-108 -100 -156 -224q31 27 85 27q95 0 148.5 -65t53.5 -180q0 -118 -58.5 -183.5t-164.5 -65.5q-111 0 -170.5 67t-59.5 194q0 124 54 237.5t138 201.5zM166 240q0 -68 26.5 -105t75.5 -37t74.5 36.5t25.5 105.5
q0 141 -100 141q-49 0 -75.5 -37t-26.5 -104z" />
    <glyph glyph-name="seven.old" unicode="&#xe02d;" horiz-adv-x="472" 
d="M49 585h372q24 0 24 -23v-54q0 -14 -15 -36q-70 -104 -128.5 -266.5t-63.5 -291.5q-2 -23 -24 -23h-82q-24 0 -24 23q4 132 65 295t137 267h-261q-23 0 -23 23v63q0 23 23 23z" />
    <glyph glyph-name="eight.old" unicode="&#xe02e;" horiz-adv-x="544" 
d="M272 -9q-114 0 -175 52t-61 140q0 136 134 182q-120 48 -120 168q0 86 58 133t164 47q105 0 163.5 -47t58.5 -133q0 -60 -32 -103t-89 -65q135 -46 135 -182q0 -88 -61 -140t-175 -52zM272 617q-49 0 -74 -22.5t-25 -62.5q0 -47 24 -75t75 -47q50 19 74 47.5t24 74.5
q0 40 -25 62.5t-73 22.5zM272 318q-110 -36 -110 -127q0 -45 28.5 -71.5t81.5 -26.5q52 0 80.5 26.5t28.5 71.5q0 91 -109 127z" />
    <glyph glyph-name="nine.old" unicode="&#xe02f;" horiz-adv-x="529" 
d="M299 -94q-15 -13 -29 -13h-91q-11 0 -14 7.5t5 15.5q106 100 151 209q-29 -26 -84 -26q-95 0 -148 65t-53 180q0 118 58.5 183.5t164.5 65.5q110 0 170 -67t60 -193q0 -239 -190 -427zM363 344q0 68 -26.5 105t-75.5 37q-100 0 -100 -142q0 -141 100 -141q49 0 75.5 37
t26.5 104z" />
    <glyph glyph-name="dollar.tab" unicode="&#xe030;" horiz-adv-x="569" 
d="M330 779v-66q73 -3 126 -23q22 -9 17 -29l-15 -63q-6 -23 -30 -16q-52 18 -112 18q-111 0 -111 -77q0 -25 20 -48t39.5 -35t60.5 -34q46 -25 70.5 -40.5t53.5 -42t41.5 -59t12.5 -75.5q0 -163 -170 -192v-71q0 -21 -21 -21h-38q-22 0 -22 21v66q-99 1 -162 28
q-24 9 -19 29l15 64q5 23 30 15q66 -23 126 -23q129 0 129 85q0 35 -25.5 57t-81.5 52q-11 5 -16 8q-41 21 -66 36.5t-53.5 41.5t-42 61t-13.5 80q0 166 176 185v68q0 20 22 20h38q21 0 21 -20z" />
    <glyph glyph-name="cent.tab" unicode="&#xe031;" horiz-adv-x="569" 
d="M100 268q0 251 192 276v65q0 22 21 22h38q22 0 22 -22v-66q46 -4 83 -21q20 -10 15 -26l-16 -58q-5 -20 -27 -13q-33 13 -78 13q-63 0 -93.5 -40t-30.5 -130t30.5 -130t94.5 -40q43 0 81 14q22 8 28 -13l15 -57q4 -18 -15 -27q-33 -18 -87 -22v-67q0 -21 -22 -21h-38
q-21 0 -21 21v68q-192 24 -192 274z" />
    <glyph glyph-name="sterling.tab" unicode="&#xe032;" horiz-adv-x="569" 
d="M136 318h-83q-18 0 -18 18v35q0 18 18 18h53q-34 80 -34 128q0 89 57 143.5t173 54.5q105 0 159.5 -47t54.5 -133q0 -49 -20 -49h-73q-11 0 -16 4t-4 14q0 5 1 14t1 15q0 33 -25 53t-73 20q-55 0 -82 -25.5t-27 -70.5q0 -37 32 -121h143q19 0 19 -18v-35q0 -18 -19 -18
h-120q15 -42 15 -74q0 -88 -75 -135q27 10 62 10q26 0 64 -9t60 -9q33 0 45.5 20t14.5 56q2 20 24 20h59q24 0 24 -27q0 -86 -29 -131.5t-99 -45.5q-42 0 -101 14.5t-95 14.5q-64 0 -113 -25q-19 -9 -26 2l-45 65q-10 13 4 24q110 78 110 158q0 31 -16 72z" />
    <glyph glyph-name="yen.tab" unicode="&#xe033;" horiz-adv-x="569" 
d="M350 169v-145q0 -24 -24 -24h-84q-24 0 -24 24v145h-141q-18 0 -18 19v33q0 18 18 18h141v18l-27 59h-114q-18 0 -18 19v33q0 18 18 18h82l-137 290q-5 10 -0.5 19t17.5 9h89q22 0 30 -21l125 -300h3l124 300q8 21 30 21h89q13 0 17.5 -9t-0.5 -19l-138 -290h83
q19 0 19 -18v-33q0 -19 -19 -19h-115l-26 -59v-18h141q19 0 19 -18v-33q0 -19 -19 -19h-141z" />
    <glyph glyph-name="Euro.tab" unicode="&#xe034;" horiz-adv-x="569" 
d="M45 316h51q-1 12 -1 37q0 26 1 36h-51q-19 0 -19 19v35q0 18 19 18h57q19 120 89.5 187t193.5 67q82 0 144 -30q21 -10 14 -28l-22 -62q-8 -23 -30 -15q-51 17 -89 17q-136 0 -164 -136h209q19 0 14 -20l-10 -34q-6 -18 -24 -18h-198q-1 -11 -1 -36q0 -26 1 -37h172
q19 0 13 -20l-9 -33q-6 -18 -24 -18h-143q30 -136 165 -136q38 0 90 18q21 7 29 -16l23 -63q6 -18 -14 -27q-56 -30 -145 -30q-124 0 -194.5 67t-89.5 187h-57q-19 0 -19 18v35q0 18 19 18z" />
    <glyph glyph-name="zero.tab" unicode="&#xe035;" horiz-adv-x="569" 
d="M285 715q247 0 247 -362t-247 -362q-248 0 -248 361q0 363 248 363zM285 105q59 0 87.5 58t28.5 189q0 132 -28.5 190t-87.5 58t-87.5 -58t-28.5 -190q0 -131 28.5 -189t87.5 -58z" />
    <glyph glyph-name="one.tab" unicode="&#xe036;" horiz-adv-x="569" 
d="M266 24v537l-103 -79q-14 -10 -26 2l-45 51q-12 13 3 25l162 135q12 9 31 9h84q24 0 24 -23v-657q0 -24 -24 -24h-83q-23 0 -23 24z" />
    <glyph glyph-name="two.tab" unicode="&#xe037;" horiz-adv-x="569" 
d="M184 514q0 -11 2 -27t2 -22q0 -19 -21 -19h-76q-17 0 -22 25q-4 19 -4 48q0 88 55 142t161 54q116 0 169.5 -57.5t53.5 -149.5q0 -59 -24.5 -120t-65.5 -112.5t-81.5 -91t-84.5 -73.5h239q23 0 23 -23v-65q0 -23 -23 -23h-403q-23 0 -23 23v53q0 18 17 29q52 37 99 78.5
t94 93.5t74.5 110t27.5 112q0 105 -95 105q-49 0 -71.5 -25.5t-22.5 -64.5z" />
    <glyph glyph-name="three.tab" unicode="&#xe038;" horiz-adv-x="569" 
d="M200 417h58q99 0 99 96q0 91 -108 91q-63 0 -135 -24q-22 -7 -26 14l-15 62q-5 18 16 27q79 32 176 32q99 0 159 -44.5t60 -136.5q0 -120 -89 -156q105 -34 105 -170q0 -217 -242 -217q-106 0 -179 31q-20 8 -16 25l15 65q4 21 27 15q78 -25 139 -25q65 0 96 27t31 85
q0 98 -108 98h-63q-23 0 -23 22v61q0 22 23 22z" />
    <glyph glyph-name="four.tab" unicode="&#xe039;" horiz-adv-x="569" 
d="M440 0h-82q-23 0 -23 24v125h-281q-22 0 -22 23v63q0 16 9 29l284 425q10 15 28 15h87q23 0 23 -23v-425h69q22 0 22 -23v-61q0 -23 -22 -23h-69v-125q0 -24 -23 -24zM335 545l-191 -289h191v289z" />
    <glyph glyph-name="five.tab" unicode="&#xe03a;" horiz-adv-x="569" 
d="M507 230q0 -239 -254 -239q-108 0 -176 31q-21 10 -16 28l15 63q4 21 27 15q81 -26 139 -26q70 0 103 31t33 96q0 58 -26.5 86.5t-88.5 28.5q-41 0 -79 -10.5t-44 -10.5t-16 3l-31 12q-11 5 -10 23q13 146 17 320q0 23 23 23h324q23 0 23 -22v-66q0 -22 -23 -22h-240
q-4 -101 -10 -164q42 15 98 15q212 0 212 -215z" />
    <glyph glyph-name="six.tab" unicode="&#xe03b;" horiz-adv-x="569" 
d="M424 590q-55 16 -93 16q-81 0 -116 -50.5t-40 -157.5q43 71 150 71q101 0 151 -63.5t50 -165.5q0 -114 -59.5 -181.5t-164.5 -67.5q-251 0 -251 342q0 193 62.5 287.5t207.5 94.5q75 0 123 -21q22 -8 19 -24l-12 -64q-4 -21 -27 -16zM299 100q52 0 79 37t27 102
q0 58 -26 93.5t-81 35.5q-111 0 -111 -130q0 -54 28.5 -96t83.5 -42z" />
    <glyph glyph-name="seven.tab" unicode="&#xe03c;" horiz-adv-x="569" 
d="M154 23q13 146 73 310t132 261h-271q-24 0 -24 23v64q0 23 24 23h385q23 0 23 -23v-58q0 -15 -15 -35q-77 -115 -134 -270t-59 -295q0 -23 -24 -23h-87q-25 0 -23 23z" />
    <glyph glyph-name="eight.tab" unicode="&#xe03d;" horiz-adv-x="569" 
d="M284 -10q-116 0 -176.5 51.5t-60.5 140.5q0 138 134 183q-120 49 -120 169q0 86 58 133.5t165 47.5t165 -47t58 -134q0 -120 -119 -169q134 -46 134 -183q0 -89 -61 -140.5t-177 -51.5zM284 616q-98 0 -98 -85q0 -46 24.5 -74t73.5 -47q49 19 73.5 47t24.5 74
q0 85 -98 85zM284 319q-109 -36 -109 -127q0 -46 27.5 -72t81.5 -26t81.5 26t27.5 72q0 91 -109 127z" />
    <glyph glyph-name="nine.tab" unicode="&#xe03e;" horiz-adv-x="569" 
d="M147 114q55 -16 93 -16q79 0 115 48t41 154q-42 -65 -152 -65q-101 0 -151 63.5t-50 165.5q0 115 59.5 182.5t164.5 67.5q250 0 250 -344q0 -192 -61 -286t-205 -94q-75 0 -125 20q-21 8 -17 26l12 63q3 20 26 15zM270 604q-52 0 -79 -37t-27 -101q0 -59 26 -94.5
t81 -35.5q111 0 111 130q0 58 -28 98t-84 40z" />
    <glyph glyph-name="dollar.tabold" unicode="&#xe03f;" horiz-adv-x="569" 
d="M326 652v-59q73 -6 116 -22q23 -10 18 -27l-14 -58q-5 -22 -29 -15q-56 16 -106 16q-95 0 -95 -58q0 -19 17.5 -36.5t34.5 -26.5t58 -28q31 -15 48 -24t41.5 -26.5t37 -34.5t22.5 -43.5t10 -57.5q0 -64 -41 -105t-118 -51v-62q0 -19 -19 -19h-37q-20 0 -20 19v58
q-93 3 -149 24q-24 9 -19 27l15 61q5 23 28 14q51 -20 125 -20q106 0 106 60q0 9 -2.5 16.5t-5.5 13.5t-11 12.5t-13 10.5t-17 10.5t-18 9.5t-21.5 10t-21.5 10q-33 14 -51.5 23.5t-42.5 26t-36 34t-21 43.5t-9 59q0 65 41 106.5t123 48.5v60q0 19 20 19h37q19 0 19 -19z
" />
    <glyph glyph-name="cent.tabold" unicode="&#xe040;" horiz-adv-x="569" 
d="M96 292q0 273 207 298v62q0 20 19 20h38q19 0 19 -20v-60q55 -6 91 -23q20 -10 16 -26l-17 -62q-5 -20 -27 -12q-37 13 -80 13q-69 0 -103 -45t-34 -145q0 -99 34.5 -144t103.5 -45q42 0 84 14q21 7 26 -13l16 -61q3 -16 -16 -26q-33 -18 -94 -23v-60q0 -19 -19 -19h-38
q-19 0 -19 19v60q-207 24 -207 298z" />
    <glyph glyph-name="sterling.tabold" unicode="&#xe041;" horiz-adv-x="569" 
d="M139 259h-61q-18 0 -18 18v31q0 17 18 17h33q-25 52 -25 99q0 74 54.5 121.5t157.5 47.5q102 0 152.5 -42t50.5 -119q0 -43 -18 -43h-72q-18 0 -18 16q0 3 0.5 9.5t0.5 13.5q0 61 -88 61q-95 0 -95 -83q0 -31 21 -81h122q19 0 19 -17v-31q0 -18 -19 -18h-101q7 -21 7 -48
q0 -71 -52 -111q25 10 58 10q20 0 53.5 -7t52.5 -7q51 0 53 60q1 18 21 18h58q23 0 23 -24q0 -77 -25.5 -118t-87.5 -41q-36 0 -92.5 12t-85.5 12q-55 0 -107 -21q-17 -7 -24 3l-40 59q-9 14 4 23q81 52 81 129q0 26 -11 51z" />
    <glyph glyph-name="yen.tabold" unicode="&#xe042;" horiz-adv-x="569" 
d="M465 128h-118v-106q0 -22 -21 -22h-82q-23 0 -23 22v106h-117q-18 0 -18 17v30q0 18 18 18h118v18l-23 46h-95q-18 0 -18 18v29q0 18 18 18h64l-122 237q-5 7 -1.5 16.5t17.5 9.5h84q19 0 28 -19l109 -246h3l109 246q9 19 28 19h84q14 0 17.5 -9.5t-1.5 -16.5l-123 -237
h65q18 0 18 -18v-29q0 -18 -18 -18h-96l-22 -46v-18h118q18 0 18 -18v-30q0 -17 -18 -17z" />
    <glyph glyph-name="Euro.tabold" unicode="&#xe043;" horiz-adv-x="569" 
d="M62 269h42q-1 8 -1 25q0 16 1 26h-42q-18 0 -18 16v29q0 17 18 17h48q18 100 80.5 155.5t167.5 55.5q86 0 135 -28q20 -12 13 -27l-23 -54q-8 -22 -28 -15q-45 15 -80 15q-105 0 -132 -102h172q19 0 12 -18l-8 -29q-4 -15 -23 -15h-164q-2 -18 -2 -25q0 -8 2 -26h142
q19 0 13 -19l-9 -29q-4 -15 -22 -15h-113q25 -105 133 -105q34 0 79 15q21 6 29 -14l23 -55q7 -16 -13 -27q-47 -28 -135 -28q-106 0 -168.5 56.5t-80.5 157.5h-48q-18 0 -18 17v29q0 17 18 17z" />
    <glyph glyph-name="zero.tabold" unicode="&#xe044;" horiz-adv-x="569" 
d="M284 592q111 0 171.5 -76.5t60.5 -224.5q0 -147 -60.5 -223.5t-170.5 -76.5t-171 76.5t-61 224.5t60.5 224t170.5 76zM284 101q52 0 77 45.5t25 144.5q0 100 -25 146t-77 46t-77 -46t-25 -145t25 -145t77 -46z" />
    <glyph glyph-name="one.tabold" unicode="&#xe045;" horiz-adv-x="569" 
d="M479 0h-357q-22 0 -22 23v64q0 22 22 22h121v341l-85 -62q-15 -11 -26 2l-40 49q-10 13 2 24l142 114q12 10 28 10h83q23 0 23 -23v-455h109q23 0 23 -22v-64q0 -23 -23 -23z" />
    <glyph glyph-name="two.tabold" unicode="&#xe046;" horiz-adv-x="569" 
d="M72 21v56q0 16 16 27q128 88 174 132q95 89 95 169q0 35 -20 57t-63 22q-84 0 -84 -76q0 -10 1.5 -22.5t1.5 -17.5q0 -18 -20 -18h-77q-16 0 -20 20q-3 18 -3 42q0 82 51 131t155 49q103 0 154 -48t51 -125q0 -52 -21 -100.5t-59 -88.5t-69.5 -65.5t-75.5 -55.5h214
q23 0 23 -23v-63q0 -23 -23 -23h-380q-21 0 -21 21z" />
    <glyph glyph-name="three.tabold" unicode="&#xe047;" horiz-adv-x="569" 
d="M188 310h52q47 0 74.5 22.5t27.5 68.5q0 43 -27 63.5t-84 20.5q-54 0 -120 -23q-21 -8 -26 15l-15 61q-3 16 16 25q69 30 166 30q98 0 156.5 -42.5t58.5 -130.5q0 -114 -89 -148q47 -16 78 -57.5t31 -108.5q0 -223 -248 -223q-97 0 -168 31q-20 9 -16 25l15 67
q6 22 27 14q81 -27 131 -27q70 0 101.5 28t31.5 90q0 95 -116 95h-57q-23 0 -23 22v61q0 21 23 21z" />
    <glyph glyph-name="four.tabold" unicode="&#xe048;" horiz-adv-x="569" 
d="M332 430l-183 -278h183v278zM349 585h86q23 0 23 -23v-410h69q23 0 23 -23v-59q0 -24 -23 -24h-69v-132q0 -24 -23 -24h-80q-24 0 -24 24v132h-270q-23 0 -23 24v61q0 17 8 29l276 409q11 16 27 16z" />
    <glyph glyph-name="five.tabold" unicode="&#xe049;" horiz-adv-x="569" 
d="M439 477h-232q-2 -77 -9 -159q44 16 95 16q206 0 206 -215q0 -236 -248 -236q-110 0 -172 31q-19 10 -16 25l16 65q5 23 26 14q67 -26 135 -26q131 0 131 126q0 58 -25 87t-84 29q-41 0 -78.5 -11t-43.5 -11q-3 0 -15 4l-31 11q-14 7 -11 23q17 197 17 311q0 24 24 24
h315q23 0 23 -23v-62q0 -23 -23 -23z" />
    <glyph glyph-name="six.tabold" unicode="&#xe04a;" horiz-adv-x="569" 
d="M254 691q11 13 29 13h92q10 0 13.5 -7t-4.5 -15q-108 -100 -156 -224q31 27 85 27q95 0 148.5 -65t53.5 -180q0 -118 -58.5 -183.5t-164.5 -65.5q-111 0 -170.5 67t-59.5 194q0 124 54 237.5t138 201.5zM188 240q0 -68 26.5 -105t75.5 -37t74.5 36.5t25.5 105.5
q0 141 -100 141q-49 0 -75.5 -37t-26.5 -104z" />
    <glyph glyph-name="seven.tabold" unicode="&#xe04b;" horiz-adv-x="569" 
d="M97 585h372q24 0 24 -23v-54q0 -14 -15 -36q-70 -104 -128.5 -266.5t-63.5 -291.5q-2 -23 -24 -23h-82q-24 0 -24 23q4 132 65 295t137 267h-261q-23 0 -23 23v63q0 23 23 23z" />
    <glyph glyph-name="eight.tabold" unicode="&#xe04c;" horiz-adv-x="569" 
d="M288 -9q-114 0 -175 52t-61 140q0 136 134 182q-120 48 -120 168q0 86 58 133t164 47q105 0 163.5 -47t58.5 -133q0 -60 -32 -103t-89 -65q135 -46 135 -182q0 -88 -61 -140t-175 -52zM288 617q-49 0 -74 -22.5t-25 -62.5q0 -47 24 -75t75 -47q50 19 74 47.5t24 74.5
q0 40 -25 62.5t-73 22.5zM288 318q-110 -36 -110 -127q0 -45 28.5 -71.5t81.5 -26.5q52 0 80.5 26.5t28.5 71.5q0 91 -109 127z" />
    <glyph glyph-name="nine.tabold" unicode="&#xe04d;" horiz-adv-x="569" 
d="M317 -94q-15 -13 -29 -13h-91q-11 0 -14 7.5t5 15.5q106 100 151 209q-29 -26 -84 -26q-95 0 -148 65t-53 180q0 118 58.5 183.5t164.5 65.5q110 0 170 -67t60 -193q0 -239 -190 -427zM381 344q0 68 -26.5 105t-75.5 37q-100 0 -100 -142q0 -141 100 -141q49 0 75.5 37
t26.5 104z" />
    <glyph glyph-name="ampersand.alt" unicode="&#xe04e;" horiz-adv-x="638" 
d="M566 200h-53q-40 -209 -226 -209q-112 0 -179.5 71.5t-67.5 216.5q0 150 63 229t171 79q72 0 110.5 -35.5t38.5 -88.5q0 -34 -13 -57q79 80 99 187q3 16 19 13l76 -16q17 -3 13 -19q-77 -294 -450 -349q13 -128 120 -128q123 0 140 184q3 20 23 20h116q21 0 21 -21v-56
q0 -21 -21 -21zM276 488q-54 0 -82.5 -49t-27.5 -140q75 15 121.5 48.5t46.5 81.5q0 59 -58 59z" />
    <glyph glyph-name="at.cap" unicode="&#xe04f;" horiz-adv-x="855" 
d="M497 334l20 141q-21 7 -49 7q-67 0 -99 -47t-32 -120q0 -93 67 -93q76 0 93 112zM621 80q13 3 16 -12l6 -32q2 -12 -11 -15q-87 -29 -191 -29q-190 0 -287.5 77t-97.5 246q0 182 107 288.5t289 106.5q177 0 263 -80t86 -220q0 -125 -55 -199t-152 -74h-56q-23 0 -26 17
l-7 50q-40 -69 -122 -69q-70 0 -111 45.5t-41 125.5q0 113 59.5 187.5t183.5 74.5q78 0 136 -28q16 -7 14 -21l-44 -314h19q130 0 130 206q0 116 -65.5 175t-212.5 59q-150 0 -236 -87t-86 -243q0 -138 75.5 -198.5t236.5 -60.5q89 0 180 24z" />
    <glyph glyph-name="paragraph.cap" unicode="&#xe050;" horiz-adv-x="504" 
d="M466 632h-33q-29 0 -40.5 -12t-11.5 -43v-462q0 -63 -25 -92t-82 -29q-38 0 -60 8q-14 6 -14 21v32q0 15 17 15q4 0 17 -2t20 -2q22 0 32 13.5t10 45.5v147h-29q-104 0 -165 55.5t-61 160.5q0 106 60 161t165 55h200q21 0 21 -20v-32q0 -20 -21 -20z" />
    <glyph glyph-name="registered.cap" unicode="&#xe051;" horiz-adv-x="784" 
d="M119 352q0 -130 69 -212t204 -82t204 82t69 212t-69 212.5t-204 82.5t-204 -82.5t-69 -212.5zM353 358h41q39 0 54 13t15 48t-15 48t-53 13h-42v-122zM278 559h120q79 0 118 -33.5t39 -106.5q0 -98 -80 -124l75 -121q5 -8 2.5 -14t-11.5 -6h-62q-14 0 -22 13l-67 115h-37
v-111q0 -17 -17 -17h-58q-17 0 -17 17v371q0 17 17 17zM47 352q0 156 89.5 259.5t255.5 103.5t256 -103.5t90 -259.5q0 -75 -22 -139.5t-64 -114.5t-109 -79t-151 -29q-111 0 -191 50.5t-117 130.5t-37 181z" />
    <glyph glyph-name="questiondown.cap" unicode="&#xe052;" horiz-adv-x="454" 
d="M301 681v-94q0 -22 -23 -22h-88q-23 0 -23 22v94q0 23 23 23h89q22 0 22 -23zM174 470v-24q0 -22 -13.5 -46t-33 -47t-39 -49t-33 -64t-13.5 -81q0 -82 52 -126t153 -44q88 0 161 31q19 9 16 25l-15 66q-5 20 -27 13q-69 -22 -115 -22q-96 0 -96 78q0 36 18.5 73.5
t41 63.5t41 61t18.5 67v24q0 23 -23 23h-71q-22 0 -22 -22z" />
    <glyph glyph-name="exclamdown.cap" unicode="&#xe053;" horiz-adv-x="267" 
d="M66 587v94q0 23 23 23h89q22 0 22 -23v-94q0 -22 -23 -22h-88q-23 0 -23 22zM105 492h57q21 0 23 -22l21 -447q1 -23 -23 -23h-100q-23 0 -22 23l21 447q2 22 23 22z" />
    <glyph glyph-name="parenleft.cap" unicode="&#xe054;" horiz-adv-x="324" 
d="M60 352q0 191 125 349q11 13 26 13h58q11 0 14 -8t-2 -15q-98 -161 -98 -339q0 -177 98 -338q5 -8 2 -15.5t-14 -7.5h-58q-16 0 -26 12q-125 158 -125 349z" />
    <glyph glyph-name="parenright.cap" unicode="&#xe055;" horiz-adv-x="324" 
d="M265 352q0 -185 -125 -349q-10 -12 -26 -12h-59q-11 0 -13.5 7.5t2.5 15.5q98 173 98 338q0 164 -98 339q-5 7 -2.5 15t13.5 8h59q15 0 26 -13q125 -162 125 -349z" />
    <glyph glyph-name="bracketleft.cap" unicode="&#xe056;" horiz-adv-x="324" 
d="M288 74v-52q0 -22 -22 -22h-164q-22 0 -22 22v661q0 21 22 21h164q22 0 22 -21v-52q0 -22 -22 -22h-71v-514h71q22 0 22 -21z" />
    <glyph glyph-name="bracketright.cap" unicode="&#xe057;" horiz-adv-x="324" 
d="M36 22v52q0 21 22 21h72v514h-71q-23 0 -23 22v52q0 21 23 21h163q23 0 23 -21v-661q0 -22 -23 -22h-163q-23 0 -23 22z" />
    <glyph glyph-name="braceleft.cap" unicode="&#xe058;" horiz-adv-x="324" 
d="M24 321v62q0 22 22 22h12q46 0 46 133q0 91 29 128.5t108 37.5h38q21 0 21 -21v-52q0 -23 -21 -23h-17q-28 0 -36.5 -22t-8.5 -68q0 -143 -75 -166q75 -23 75 -165q0 -47 8.5 -69t36.5 -22h17q21 0 21 -22v-52q0 -22 -21 -22h-38q-80 0 -108.5 37.5t-28.5 129.5
q0 133 -46 133h-12q-22 0 -22 21z" />
    <glyph glyph-name="braceright.cap" unicode="&#xe059;" horiz-adv-x="324" 
d="M300 383v-62q0 -21 -21 -21h-13q-45 0 -45 -133q0 -92 -28.5 -129.5t-109.5 -37.5h-37q-22 0 -22 22v52q0 22 22 22h16q28 0 37 22.5t9 68.5q0 143 75 165q-75 22 -75 166q0 45 -9 67.5t-37 22.5h-16q-22 0 -22 23v52q0 21 22 21h37q80 0 109 -37.5t29 -128.5
q0 -133 45 -133h13q21 0 21 -22z" />
    <glyph glyph-name="guillemotleft.cap" unicode="&#xe05a;" horiz-adv-x="436" 
d="M29 352q0 6 3 11l68 138q8 16 26 16h69q10 0 14 -6.5t-1 -15.5l-72 -143l72 -142q10 -22 -13 -22h-69q-17 0 -26 16l-68 138q-3 4 -3 10zM213 352q0 4 3 11l68 138q8 16 26 16h69q11 0 14 -6t-2 -16l-70 -143l70 -142q5 -10 2 -16t-14 -6h-69q-17 0 -26 16l-68 138
q-3 6 -3 10z" />
    <glyph glyph-name="guillemotright.cap" unicode="&#xe05b;" horiz-adv-x="436" 
d="M407 352q0 -4 -3 -10l-68 -138q-9 -16 -26 -16h-69q-10 0 -13.5 6t1.5 16l71 142l-71 143q-5 10 -1.5 16t13.5 6h69q18 0 26 -16l68 -138q3 -5 3 -11zM223 352q0 -4 -3 -10l-69 -138q-7 -16 -25 -16h-68q-11 0 -14.5 6t1.5 16l71 142l-71 143q-5 10 -1.5 16t14.5 6h68
q17 0 25 -16l69 -138q3 -7 3 -11z" />
    <glyph glyph-name="guilsinglleft.cap" unicode="&#xe05c;" horiz-adv-x="252" 
d="M29 352q0 6 3 11l68 138q8 16 26 16h69q10 0 14 -6.5t-1 -15.5l-72 -143l72 -142q10 -22 -13 -22h-69q-17 0 -26 16l-68 138q-3 6 -3 10z" />
    <glyph glyph-name="guilsinglright.cap" unicode="&#xe05d;" horiz-adv-x="252" 
d="M223 352q0 -4 -3 -10l-69 -138q-7 -16 -25 -16h-68q-11 0 -14.5 6t1.5 16l71 142l-71 143q-5 10 -1.5 16t14.5 6h68q17 0 25 -16l69 -138q3 -7 3 -11z" />
    <glyph glyph-name="hyphen.cap" unicode="&#xe05e;" horiz-adv-x="336" 
d="M279 301h-223q-21 0 -21 21v60q0 21 21 21h223q22 0 22 -21v-60q0 -21 -22 -21z" />
    <glyph glyph-name="endash.cap" unicode="&#xe05f;" horiz-adv-x="455" 
d="M399 301h-343q-21 0 -21 21v60q0 21 22 21h342q21 0 21 -21v-60q0 -21 -21 -21z" />
    <glyph glyph-name="emdash.cap" unicode="&#xe060;" horiz-adv-x="663" 
d="M606 301h-550q-21 0 -21 21v60q0 21 22 21h549q23 0 23 -21v-60q0 -21 -23 -21z" />
    <glyph glyph-name="periodcentered.cap" unicode="&#xe061;" horiz-adv-x="222" 
d="M47 308v91q0 22 23 22h82q23 0 23 -22v-91q0 -23 -22 -23h-84q-22 0 -22 23z" />
    <glyph glyph-name="bullet.cap" unicode="&#xe062;" 
d="M185 213q-59 0 -98.5 39.5t-39.5 99.5q0 61 39.5 100t99.5 39t99 -39.5t39 -99.5q0 -61 -39.5 -100t-99.5 -39z" />
    <glyph glyph-name="bar.cap" unicode="&#xe063;" horiz-adv-x="286" 
d="M199 747v-790q0 -22 -21 -22h-70q-22 0 -22 22v790q0 22 22 22h70q21 0 21 -22z" />
    <glyph glyph-name="brokenbar.cap" unicode="&#xe064;" horiz-adv-x="286" 
d="M199 747v-290q0 -22 -21 -22h-70q-22 0 -22 22v290q0 22 22 22h70q21 0 21 -22zM199 247v-290q0 -22 -21 -22h-70q-22 0 -22 22v290q0 22 22 22h70q21 0 21 -22z" />
    <glyph glyph-name="arrowleft.cap" unicode="&#xe065;" horiz-adv-x="580" 
d="M351 566l-143 -163l295 3q23 0 23 -21v-65q0 -20 -23 -20l-295 2l143 -163q6 -7 3.5 -15t-12.5 -8h-90q-15 0 -24 12l-176 209q-6 7 -6 16q0 7 6 14l176 210q9 12 24 12h90q10 0 12.5 -8t-3.5 -15z" />
    <glyph glyph-name="arrowup.cap" unicode="&#xe066;" horiz-adv-x="580" 
d="M505 310l-163 143l2 -295q0 -22 -21 -22h-64q-21 0 -21 22l2 295l-163 -143q-7 -6 -14.5 -3.5t-7.5 12.5v91q0 15 11 24l210 175q7 6 15 6t15 -6l210 -175q11 -9 11 -24v-91q0 -10 -7.5 -12.5t-14.5 3.5z" />
    <glyph glyph-name="arrowright.cap" unicode="&#xe067;" horiz-adv-x="580" 
d="M371 403l-143 163q-6 7 -3.5 15t12.5 8h90q16 0 25 -12l175 -210q6 -7 6 -14q0 -9 -6 -16l-175 -209q-9 -12 -25 -12h-90q-10 0 -12.5 8t3.5 15l143 163l-295 -2q-22 0 -22 20v65q0 21 22 21z" />
    <glyph glyph-name="arrowdown.cap" unicode="&#xe068;" horiz-adv-x="580" 
d="M77 395l163 -143l-2 295q0 22 21 22h64q21 0 21 -22l-2 -295l163 143q7 6 14.5 3t7.5 -12v-91q0 -15 -11 -24l-210 -175q-8 -7 -15 -7t-15 7l-210 175q-11 9 -11 24v91q0 9 8 12t14 -3z" />
    <glyph glyph-name="arrowboth.cap" unicode="&#xe069;" horiz-adv-x="893" 
d="M685 403l-143 163q-6 7 -3.5 15t12.5 8h90q15 0 25 -12l175 -210q6 -7 6 -14q0 -9 -6 -16l-175 -209q-10 -12 -25 -12h-90q-10 0 -12.5 8t3.5 15l143 163l-239 -4l-238 4l143 -163q6 -7 3.5 -15t-12.5 -8h-90q-15 0 -24 12l-176 209q-6 7 -6 16q0 8 6 14l176 210
q10 12 24 12h90q10 0 12.5 -8t-3.5 -15l-143 -163l238 3z" />
    <glyph glyph-name="arrowupdn.cap" unicode="&#xe06a;" horiz-adv-x="580" 
d="M340 139l163 143q7 6 15.5 3.5t8.5 -12.5v-90q0 -14 -13 -25l-209 -174q-10 -7 -15 -7q-7 0 -15 7l-210 174q-12 12 -12 25v90q0 10 8 12.5t15 -3.5l164 -143l-4 214l4 213l-164 -143q-7 -6 -15 -3.5t-8 12.5v90q0 14 12 25l210 175q6 6 15 6q8 0 15 -6l209 -175
q13 -11 13 -25v-90q0 -10 -8.5 -12.5t-15.5 3.5l-163 143l4 -213z" />
    <glyph glyph-name="arrowupleft.cap" unicode="&#xe06b;" horiz-adv-x="580" 
d="M480 466l-217 -15l211 -207q16 -15 0 -30l-45 -45q-15 -15 -30 1l-207 210l-14 -217q-1 -9 -8 -12.5t-15 3.5l-63 64q-12 10 -10 25l25 273q1 9 6 14q5 4 15 6l272 25q15 2 26 -9l64 -64q6 -8 2.5 -14.5t-12.5 -7.5z" />
    <glyph glyph-name="arrowupright.cap" unicode="&#xe06c;" horiz-adv-x="580" 
d="M316 451l-217 15q-9 1 -12.5 7.5t3.5 14.5l64 64q10 11 25 9l273 -25q9 -1 14 -6q6 -6 6 -14l25 -273q2 -15 -9 -25l-64 -64q-8 -7 -15 -3.5t-7 12.5l-15 217l-207 -210q-15 -16 -30 -1l-45 45q-15 15 1 30z" />
    <glyph glyph-name="arrowdownright.cap" unicode="&#xe06d;" horiz-adv-x="580" 
d="M99 216l217 15l-210 206q-16 15 -1 31l45 45q15 15 30 -1l207 -210l15 216q1 10 7.5 13.5t14.5 -3.5l64 -64q11 -10 9 -25l-25 -273q-1 -9 -6 -14q-6 -6 -14 -7l-273 -24q-15 -2 -26 9l-63 64q-7 8 -3 14.5t12 7.5z" />
    <glyph glyph-name="arrowdownleft.cap" unicode="&#xe06e;" horiz-adv-x="580" 
d="M263 231l217 -15q9 -1 12.5 -8t-2.5 -14l-64 -64q-11 -11 -26 -9l-272 24q-9 1 -15 7q-5 5 -6 14l-25 273q-2 13 10 25l63 64q8 7 15 3t8 -13l14 -216l207 210q15 16 30 1l45 -45q16 -15 0 -31z" />
    <glyph glyph-name="grave.cap" unicode="&#xe06f;" horiz-adv-x="309" 
d="M194 850l38 -82q3 -8 -0.5 -13.5t-12.5 -5.5h-48q-18 0 -30 13l-78 80q-7 7 -4.5 15.5t13.5 8.5h97q18 0 25 -16z" />
    <glyph glyph-name="acute.cap" unicode="&#xe070;" horiz-adv-x="309" 
d="M78 768l38 82q7 16 25 16h97q10 0 12.5 -8t-4.5 -16l-78 -80q-12 -13 -29 -13h-49q-9 0 -12 5.5t0 13.5z" />
    <glyph glyph-name="dieresis.cap" unicode="&#xe071;" horiz-adv-x="309" 
d="M122 829v-58q0 -22 -21 -22h-73q-21 0 -21 22v58q0 22 21 22h73q21 0 21 -22zM302 829v-58q0 -22 -21 -22h-72q-22 0 -22 22v58q0 22 22 22h72q21 0 21 -22z" />
    <glyph glyph-name="circumflex.cap" unicode="&#xe072;" horiz-adv-x="309" 
d="M208 763l-53 46l-53 -46q-16 -14 -28 -14h-48q-10 0 -12.5 7.5t4.5 14.5l81 87q11 12 29 12h53q17 0 29 -12l81 -87q7 -7 4.5 -14.5t-12.5 -7.5h-48q-13 0 -27 14z" />
    <glyph glyph-name="tilde.cap" unicode="&#xe073;" horiz-adv-x="309" 
d="M311 823q0 -77 -71 -77q-37 0 -77 17l-30 13q-21 8 -39 8q-24 0 -25 -15l-1 -6q-3 -14 -20 -14h-29q-20 0 -20 27q0 78 71 78q28 0 77 -17l31 -13q59 -26 62 6l1 8q3 14 21 14h28q21 0 21 -29z" />
    <glyph glyph-name="macron.cap" unicode="&#xe074;" horiz-adv-x="309" 
d="M286 755h-263q-20 0 -20 21v37q0 20 20 20h263q21 0 21 -20v-37q0 -21 -21 -21z" />
    <glyph glyph-name="breve.cap" unicode="&#xe075;" horiz-adv-x="309" 
d="M155 747q-68 0 -103 30.5t-36 78.5q0 16 16 16h40q16 0 19 -15q10 -46 64 -46t64 46q1 15 18 15h40q16 0 16 -16q0 -48 -35.5 -78.5t-102.5 -30.5z" />
    <glyph glyph-name="dotaccent.cap" unicode="&#xe076;" horiz-adv-x="309" 
d="M218 834v-63q0 -22 -22 -22h-82q-23 0 -23 22v63q0 22 23 22h82q22 0 22 -22z" />
    <glyph glyph-name="ring.cap" unicode="&#xe077;" horiz-adv-x="309" 
d="M108 834q0 -45 47 -45q22 0 34.5 12t12.5 33q0 20 -12.5 32.5t-34.5 12.5t-34.5 -12t-12.5 -33zM51 834q0 43 28.5 69.5t75.5 26.5t75.5 -26.5t28.5 -69.5q0 -44 -28.5 -71t-75.5 -27t-75.5 27t-28.5 71z" />
    <glyph glyph-name="cedilla.cap" unicode="&#xe078;" horiz-adv-x="309" 
d="M105 11h50q44 -11 75 -38.5t31 -63.5q0 -75 -100 -75q-31 0 -47 6q-12 4 -12 16v33q0 12 13 12h31q39 0 39 29q0 44 -80 81z" />
    </font>
</defs>
</svg>
