<?xml version="1.0" encoding="UTF-8"?>
<svg width="95px" height="128px" viewBox="0 0 95 128" version="1.1" xmlns="http://www.w3.org/2000/svg" xmlns:xlink="http://www.w3.org/1999/xlink">
    <!-- Generator: Sketch 55.2 (78181) - https://sketchapp.com -->
    <title>wowinsignia 2 copy</title>
    <desc>Created with Sketch.</desc>
    <g id="Mobile" stroke="none" stroke-width="1" fill="none" fill-rule="evenodd">
        <g id="wowinsignia-2-copy" fill-rule="nonzero">
            <g id="wowinsignia">
                <path d="M47.1437736,15.6955877 C64.3796484,15.6955877 78.4033288,29.5526512 78.4033288,46.5886881 C78.4033288,63.624725 64.3814813,77.4808829 47.1437736,77.4808829 C29.9060659,77.4808829 15.8823855,63.6238194 15.8823855,46.5886881 C15.8823855,29.5535569 29.9042329,15.6955877 47.1437736,15.6955877 L47.1437736,15.6955877 Z M47.1437736,11.5294118 C27.5095213,11.5294118 11.6666667,27.3192186 11.6666667,46.5886881 C11.6666667,65.8581576 27.5095213,81.6470588 47.1437736,81.6470588 C66.7780259,81.6470588 82.6190476,65.8590633 82.6190476,46.5886881 C82.6190476,27.318313 66.7725271,11.5294118 47.1437736,11.5294118 Z" id="Shape" fill="#404040"></path>
                <path d="M56.1249309,4.16374732 L61.2086767,11.021301 C61.6905964,11.6028194 62.4052827,11.9485568 63.1664323,11.9683869 C63.27272,11.968642 63.3788449,11.9601701 63.4837079,11.943059 L72.0464818,10.6260034 L74.0528375,18.93268 C74.3196791,19.8562471 74.9890757,20.5156795 75.7951025,20.6513651 L84.2184952,22.6269485 L82.881536,31.066597 C82.7476567,31.988355 83.1492946,32.7807593 83.8186912,33.3072197 L90.7785813,38.3167345 L86.0946394,45.5695858 C85.6953306,46.3583634 85.6953306,47.2864702 86.0946394,48.0752478 L90.644702,55.3290036 L83.6875628,60.3403276 C83.0181663,60.866788 82.6165284,61.7876414 82.7504077,62.5809503 L84.0846158,71.0215034 L75.6557213,73.0016096 C74.7185661,73.2648398 74.0500865,73.9251767 73.9134563,74.7148673 L71.9061836,83.0242576 L63.3434098,81.7044883 C63.2255759,81.6877014 63.1066772,81.6792372 62.9876209,81.6791603 C62.2036017,81.6791603 61.5351221,82.0545574 61.0683785,82.6262463 L55.9855497,89.4856091 L48.6341084,84.9989364 C47.919968,84.4720208 46.9393383,84.4720208 46.2251979,84.9989364 L38.8691717,89.4828954 L33.7854259,82.6235326 C33.3025248,82.0427419 32.5879284,81.6972099 31.8267533,81.6764466 C31.7207697,81.6761915 31.6149495,81.6846636 31.5103946,81.7017746 L22.9476208,83.0215439 L20.9412651,74.7121536 C20.6725895,73.7903956 20.0050269,73.1291541 19.1990001,72.9988959 L10.7737735,71.0215034 L12.1125666,62.583664 C12.2446119,61.6610015 11.8448079,60.8649789 11.1744944,60.3430413 L4.21552129,55.3290036 L8.76558383,48.0752478 C9.16489269,47.2864702 9.16489269,46.3583634 8.76558383,45.5695858 L4.21552129,38.3167345 L11.1717435,33.3063151 C11.842057,32.7798547 12.241861,31.8544785 12.1098156,31.0656924 L10.7737735,22.6269485 L19.2017511,20.6486514 C20.1389062,20.3836121 20.8073858,19.7250843 20.944016,18.9299663 L22.9503717,10.6232897 L31.5131456,11.9403452 C31.6312834,11.957166 31.7504894,11.9656303 31.8698514,11.9656732 C32.6520367,11.9656732 33.3214332,11.5920854 33.7881769,11.0185873 L38.8719227,4.1610336 L46.2279488,8.64318351 C47.0275409,9.0411514 47.9711466,9.0411514 48.7707387,8.64318351 L56.1276818,4.1610336 L56.1249309,4.16374732 Z M38.8746736,3.2185714e-06 C37.5278304,-0.00164794491 36.2613791,0.63208497 35.4671701,1.70512301 L31.0528208,7.65810556 L23.6005116,6.51201395 C23.3842669,6.47817996 23.1656516,6.46124199 22.9467038,6.46135796 C20.9952906,6.46335798 19.3000142,7.78551082 18.8477962,9.6581123 L17.1055312,16.8603076 L9.79810508,18.5744698 C7.65602555,19.0771507 6.26625574,21.1205911 6.60700922,23.2664802 L7.77157581,30.6034566 L1.73141823,34.9562528 C-0.0489463887,36.238325 -0.52842424,38.6564792 0.631040345,40.5057967 L4.5933177,46.8224168 L0.631040345,53.1390369 C-0.52842424,54.9883544 -0.0489463887,57.4065086 1.73141823,58.6885807 L7.77065883,63.0404724 L6.60700922,70.3756396 C6.26671035,72.5209338 7.6558836,74.5636904 9.7971881,75.0667455 L17.1055312,76.7854306 L18.8477962,83.9876258 C19.3000142,85.8602273 20.9952906,87.1823802 22.9467038,87.1843802 C23.1659559,87.1844986 23.3848761,87.1675608 23.6014286,87.1337242 L31.0528208,85.9858235 L35.4662531,91.9406151 C36.7656185,93.6947941 39.214366,94.1675926 41.0882671,93.0261005 L47.4328626,89.1599635 L53.777458,93.0261005 C55.6513592,94.1675926 58.1001067,93.6947941 59.399472,91.9406151 L63.8129043,85.9858235 L71.2642965,87.1337242 C71.480849,87.1675608 71.6997692,87.1844986 71.9190214,87.1843802 C73.8704346,87.1823802 75.565711,85.8602273 76.017929,83.9876258 L77.760194,76.7854306 L85.0685371,75.0667455 C87.2098416,74.5636904 88.5990148,72.5209338 88.2587159,70.3756396 L87.0950663,63.0395678 L93.1343069,58.6885807 C94.9146715,57.4065086 95.3941494,54.9883544 94.2346848,53.1390369 L90.2806603,46.8368899 L94.3392207,40.5519298 C95.535127,38.6998619 95.0662615,36.2498531 93.2681862,34.9553483 L87.2289456,30.6061703 L88.3916783,23.2682894 C88.7319087,21.1227176 87.3422569,19.0798446 85.2005824,18.5771836 L77.8949903,16.8630213 L76.1527253,9.66082602 C75.7005073,7.78822453 74.0052309,6.46607169 72.0538177,6.46407168 C71.8348699,6.46395571 71.6162546,6.48089367 71.4000098,6.51472766 L63.9477006,7.66081927 L59.5296834,1.70783673 C58.2303924,-0.0458201173 55.7822902,-0.518571093 53.9085864,0.622351381 L47.4970513,4.53009862 L41.0855162,0.624160523 C40.4206664,0.217812991 39.6540386,0.00259122221 38.8719227,0.0027201631 L38.8746736,3.2185714e-06 Z" id="Shape" fill="#404040"></path>
                <path d="M63.7733907,86.515162 L66.9779083,87.0434678 L66.9779083,123.730871 L48.6782813,109.197033 C48.2355843,108.88121 47.7044404,108.709228 47.1584243,108.704912 C46.6413828,108.699779 46.1388845,108.873919 45.7383652,109.197033 L27.305064,123.836713 L27.305064,87.1755443 L30.5095817,86.6472384 L35.984729,94.1638365 C36.3866671,94.8242188 37.1887121,95.0874671 37.8552518,95.0874671 C38.2869855,95.0775599 38.7057711,94.9398433 39.0574037,94.6921423 L47.0732757,89.9446268 L55.0873166,94.6921423 C55.4590196,94.9260198 55.8900035,95.0514492 56.3306695,95.0539957 C57.0631307,95.0539957 57.7846049,94.7039026 58.2927499,94.0362832 L63.7706439,86.5178759 L63.7733907,86.515162 Z M63.7706439,82.3565627 C62.4159796,82.3567475 61.1440976,83.0007414 60.3527969,84.0871262 L55.8362582,90.2865782 L49.2404452,86.3749438 C47.907453,85.5854706 46.2427607,85.5854706 44.9097685,86.3749438 L38.3377606,90.264867 L33.9301754,84.2137748 C32.9938027,82.9284723 31.4002188,82.279721 29.819237,82.5402032 L26.6147193,83.0685091 C24.5839666,83.4028156 23.0952407,85.1386903 23.0952407,87.1728304 L23.0952407,123.833999 C23.0934328,125.435808 24.0223047,126.89645 25.48372,127.589854 C26.9451353,128.283258 28.6796306,128.086316 29.9437554,127.083442 L47.208781,113.371915 L64.3401325,126.9776 C65.6033268,127.980879 67.3371127,128.178974 68.798712,127.48702 C70.2603114,126.795065 71.1904759,125.335837 71.1904759,123.73449 L71.1904759,87.0434678 C71.1911691,85.0086436 69.7024356,83.2717561 67.6709997,82.9373373 L64.4664821,82.4099361 C64.2374826,82.3717318 64.0056314,82.3529412 63.7733907,82.3529412 L63.7706439,82.3565627 Z" id="Shape" fill="#404040"></path>
                <path d="M59.3536915,65.8811954 C58.9411153,65.8808153 58.53485,65.7811036 58.1700678,65.5906927 L47.8619141,60.2385655 C47.5615924,60.0829507 47.2030607,60.0829507 46.9027391,60.2385655 L36.5936692,65.5925027 C35.7381771,66.038445 34.7004871,65.9653606 33.9176917,65.4040338 C33.1348963,64.842707 32.7430529,63.8907018 32.9072125,62.9490188 L34.875949,51.6094595 C34.9348598,51.2778493 34.8237037,50.938941 34.5791269,50.7044667 L26.242458,42.674466 C25.5507703,42.0081149 25.3019436,41.0116667 25.6005748,40.103989 C25.899206,39.1963113 26.6935185,38.5347774 27.6496144,38.3974702 L39.1743721,36.7431434 C39.5102122,36.6949826 39.8004675,36.4864512 39.9503236,36.1856679 L45.1044005,25.8687504 C45.5319902,25.0126259 46.4145608,24.4705882 47.3809524,24.4705882 C48.3473439,24.4705882 49.2299145,25.0126259 49.6575043,25.8687504 L49.6575043,25.8687504 L54.8115811,36.1856679 C54.9611861,36.4866599 55.2515689,36.6952829 55.5875326,36.7431434 L67.1122903,38.3974702 C68.0683863,38.5347774 68.8626987,39.1963113 69.16133,40.103989 C69.4599612,41.0116667 69.2111345,42.0081149 68.5194468,42.674466 L60.1827778,50.7044667 C59.938201,50.938941 59.827045,51.2778493 59.8859558,51.6094595 L61.8565245,62.9490188 C61.9815532,63.67755 61.7755688,64.4235111 61.2933793,64.9884168 C60.8111899,65.5533225 60.1017003,65.8798787 59.3536915,65.8811954 L59.3536915,65.8811954 Z M47.3818685,55.9588547 C48.2322593,55.958645 49.0699077,56.1630292 49.8224054,56.55434 L57.1256939,60.3462596 L55.730447,52.3135439 C55.4387225,50.6325811 56.0029596,48.9174451 57.2392924,47.7270406 L63.147334,42.0382561 L54.981979,40.8617655 C53.273738,40.6166575 51.7970824,39.5566288 51.0335127,38.0273281 L47.3818685,30.7231316 L43.7302243,38.0318531 C42.965692,39.5619034 41.4875724,40.6219992 39.7780935,40.8662904 L31.6136547,42.042781 L37.5244446,47.7270406 C38.7607774,48.9174451 39.3250145,50.6325811 39.03329,52.3135439 L37.6380431,60.3462596 L44.9413316,56.55434 C45.6938293,56.1630292 46.5314777,55.958645 47.3818685,55.9588547 Z" id="Shape" fill="#EA0029"></path>
            </g>
        </g>
    </g>
</svg>