<?xml version="1.0" encoding="UTF-8"?>
<svg width="111px" height="120px" viewBox="0 0 111 120" version="1.1" xmlns="http://www.w3.org/2000/svg" xmlns:xlink="http://www.w3.org/1999/xlink">
    <!-- Generator: Sketch 55.2 (78181) - https://sketchapp.com -->
    <title>Group 19 Copy</title>
    <desc>Created with Sketch.</desc>
    <g id="Mobile" stroke="none" stroke-width="1" fill="none" fill-rule="evenodd">
        <g id="Group-19-Copy" fill-rule="nonzero">
            <path d="M55.4366651,120 C49.0930464,120 41.3043798,119.689235 36.6338145,117.359 C33.914976,119.079851 30.5790027,119.983804 26.9055814,119.983804 C25.9789731,119.982719 25.0532177,119.927626 24.1330349,119.818805 C18.5717283,119.16893 13.039809,116.641304 8.55671493,112.70258 C3.16362568,107.965178 0.0445109205,101.86628 0.000461424994,95.9708468 C-0.031490901,91.7385656 1.59697479,87.9172642 4.58536642,85.2104668 C7.02249149,83.0037285 10.186194,81.6422317 13.77652,81.2099944 C13.2262668,79.2117828 13.3073355,76.7560272 14.0410064,74.0229109 C15.054364,70.2299529 17.2361229,66.1950635 20.1738467,62.6622577 C21.3532342,61.2354956 22.6552939,59.9145167 24.0651399,58.7144231 C21.9323676,56.2467134 20.1490767,53.4980241 18.7652796,50.5454423 C15.9205586,44.49051 14.9586743,37.722618 16.0038801,31.1160225 C8.69351821,30.2474989 3.00655524,24.0210551 3.00655524,16.4928382 C3.00655524,8.37447067 9.61871371,1.76943971 17.7458418,1.76943971 C22.6868611,1.77078578 27.2990738,4.24313072 30.0317896,8.35523763 C37.182041,2.9477165 46.113775,0 55.49848,0 C64.8831849,0 73.8169457,2.9477165 80.9661837,8.35422536 C83.6995113,4.24291967 88.3114421,1.77110587 93.2521315,1.76943971 C101.378246,1.76943971 107.990405,8.37447067 107.990405,16.4928382 C107.990405,24.0210551 102.304455,30.2474989 94.9971333,31.1119734 C96.042339,37.7185689 95.0804547,44.4864609 92.2357338,50.5413932 C90.8519117,53.4934184 89.0689885,56.2417258 86.9368868,58.7093618 C88.3466622,59.9095311 89.6487156,61.2305036 90.82818,62.6571964 C93.7669171,66.1889899 95.9436093,70.2238793 96.9610203,74.0178496 C97.6946913,76.7509659 97.7717064,79.2077337 97.2244933,81.2049331 C100.815833,81.6371704 103.977509,82.9986672 106.414634,85.2064178 C109.403025,87.9122029 111.031491,91.7335043 110.999539,95.9657854 C110.954476,101.861218 107.836374,107.960117 102.443285,112.697518 C97.960191,116.636242 92.4282717,119.163869 86.8669651,119.813743 C82.0960774,120.371501 77.7467465,119.501965 74.3631454,117.353939 C69.6854866,119.682149 61.8735128,119.992914 55.5400276,119.994939 L55.4366651,120 Z M40.4268121,113.872758 C45.0882571,115.349653 52.4969147,115.345604 55.5380009,115.343738 C58.2740665,115.343738 65.8661418,115.343738 70.5660944,113.867697 C68.7248236,111.403843 67.7459202,108.361986 67.7712541,105.072124 C67.8158418,99.1756786 70.9339432,93.0767803 76.3270325,88.3393788 C77.4219017,87.3777784 78.584141,86.495537 79.8048758,85.699391 C79.3164375,83.79532 78.5594593,80.9174498 78.3314539,80.2139254 C77.6798603,78.2103038 76.8843342,76.2562784 75.9510768,74.3670811 C75.0454307,72.5245708 74.0010347,70.753414 72.8268953,69.0688847 C67.490554,71.4102542 61.5999062,72.6472424 55.49848,72.6472424 C49.3970537,72.6472424 43.512486,71.4102542 38.1761448,69.0688847 C36.9998863,70.7526548 35.9537754,72.5235088 35.0468965,74.3660689 C34.112807,76.2544175 33.3175838,78.2081923 32.6675328,80.2119009 C32.441554,80.9083394 31.6815358,83.8003813 31.1930974,85.7004032 C32.4140314,86.4969277 33.5759778,87.3802188 34.6699274,88.3434279 C40.0630167,93.0808294 43.1821314,99.1746664 43.2257058,105.076173 C43.2510398,108.364011 42.2711229,111.407892 40.4268121,113.872758 Z M16.3230877,85.7115381 C12.8462577,85.7115381 9.83759896,86.7238034 7.70954796,88.6562178 L7.70954796,88.6562178 C5.68891286,90.4863935 4.63299422,93.0018727 4.65528809,95.9313684 C4.68872889,100.434937 7.29609805,105.396049 11.6282019,109.202166 C15.4070124,112.522396 20.0390701,114.649166 24.6680877,115.189715 C25.4079866,115.277486 26.1523779,115.322101 26.8974745,115.323334 C30.3743045,115.323334 33.3778965,114.311069 35.5059475,112.379667 C37.5265826,110.548479 38.5825012,108.033 38.5602073,105.103504 C38.5257532,100.598924 35.9193974,95.6378115 31.5872936,91.831694 C27.808483,88.5124762 23.1764253,86.3857068 18.5474077,85.8451572 C17.8091921,85.7575329 17.0664954,85.7129177 16.3230877,85.7115381 L16.3230877,85.7115381 Z M94.6738722,85.7115381 C93.928774,85.7127211 93.1843798,85.7573366 92.4444854,85.8451572 C87.8144545,86.3857068 83.1834101,88.5124762 79.4045996,91.831694 C75.0724958,95.6378115 72.46614,100.598924 72.4316858,105.103504 C72.4093919,108.033 73.4653106,110.548479 75.4859457,112.379667 C78.0568339,114.707877 81.9055662,115.706983 86.3288722,115.189715 C90.9589032,114.649166 95.5899475,112.522396 99.3687581,109.202166 C103.700862,105.396049 106.308231,100.434937 106.341672,95.9313684 C106.363966,93.0018727 105.308047,90.4863935 103.287412,88.6562178 L103.287412,88.6562178 C101.155308,86.7319015 98.1507022,85.7115381 94.6738722,85.7115381 Z M18.9274168,81.2049331 L19.0925941,81.2241661 C21.8139512,81.5532219 24.4702857,82.2892735 26.972463,83.4076224 C27.4355674,81.6219864 28.0020343,79.4891435 28.2320665,78.7785332 C28.9518165,76.5580468 29.8323856,74.3928287 30.8667963,72.3000354 C31.7833957,70.4428513 32.8258625,68.6503478 33.9869244,66.9350294 C31.6176198,65.5517342 29.398023,63.927164 27.363619,62.087291 L27.3251114,62.0538863 C26.0253999,63.1329886 24.8304306,64.3320925 23.7560659,65.6352808 C21.2398989,68.661954 19.3874812,72.0682267 18.5413276,75.2264944 C17.8319772,77.8583841 17.9282462,80.0296931 18.7916269,81.0318357 C18.8392547,81.0875103 18.8848558,81.1462217 18.9274168,81.2049331 Z M77.0110489,66.9319926 C78.1719081,68.6495467 79.2143611,70.4440558 80.131177,72.3030722 C81.1642873,74.3940135 82.0448225,76.5567804 82.7659068,78.7744842 C82.9989791,79.4931925 83.5644326,81.6209741 84.027537,83.4035733 C86.5291734,82.2858835 89.1847905,81.5501826 91.9053792,81.2211294 L92.0725832,81.2018963 C92.1151442,81.1421727 92.1607453,81.0844735 92.2083731,81.0287989 C93.0717538,80.0266563 93.1659961,77.8563596 92.4596858,75.2234576 C91.6125188,72.0651899 89.7601011,68.6589172 87.2439341,65.6332563 C86.1692348,64.3294182 84.9739318,63.129642 83.6738752,62.0498372 L83.6353676,62.0842542 C81.6007891,63.925242 79.3808451,65.5508354 77.0110489,66.9350294 L77.0110489,66.9319926 Z M18.8382413,26.5102154 C19.5554279,26.510226 20.2326756,26.8400617 20.6743953,27.4044661 C21.1161151,27.9688704 21.2731158,28.7049898 21.1000556,29.4002328 C20.5371626,31.6649318 20.2523411,33.989657 20.2518752,36.3231151 C20.2518752,44.7380764 23.8888157,52.662089 30.491854,58.6364787 C37.156707,64.6685675 46.0408133,67.9908221 55.49848,67.9908221 C64.9561466,67.9908221 73.8402529,64.6685675 80.5061193,58.6364787 C87.1091576,52.6641135 90.7410313,44.7380764 90.7410313,36.3231151 C90.7400059,33.9893575 90.4551932,31.6643648 89.8928509,29.3992206 C89.7115946,28.6701438 89.8936419,27.8985002 90.3817332,27.3269967 C90.8698245,26.7554932 91.6039798,26.4543601 92.3532832,26.5183136 C92.6653974,26.5456447 92.9612978,26.5588042 93.2470647,26.5588042 C98.3269166,26.560106 102.613316,22.7837839 103.246809,17.74902 C103.880301,12.7142562 100.662747,7.99579329 95.7405746,6.74131501 C90.8184019,5.48683672 85.731138,8.08871113 83.8724933,12.8112294 C83.594212,13.5174412 82.9888064,14.0438355 82.2502144,14.2217852 C81.5116224,14.3997349 80.7325586,14.2069021 80.1625911,13.7050596 C73.5362456,7.86833803 64.7737423,4.65642029 55.49848,4.65642029 C46.2232177,4.65642029 37.4678078,7.86833803 30.8384223,13.7060719 C30.2684121,14.2096974 29.4881692,14.4036375 28.7483533,14.2255875 C28.0085373,14.0475375 27.4023248,13.5199219 27.1244666,12.8122417 C25.2677589,8.08700471 20.1799468,5.48156071 15.2554102,6.73415524 C10.3308736,7.98674976 7.11006504,12.7055566 7.74177612,17.7423811 C8.3734872,22.7792055 12.6601113,26.5584701 17.7417884,26.5588042 C18.0366755,26.5588042 18.3346026,26.5456447 18.6284763,26.5193258 C18.7014381,26.5132522 18.7703464,26.5102154 18.8382413,26.5102154 Z M55.49848,64.2940293 C49.8054369,64.2940293 44.4224812,62.7270427 40.3427034,59.881565 C36.0085729,56.8579286 33.6211023,52.7572419 33.6211023,48.3326304 C33.6211023,43.9080188 36.0085729,39.8073322 40.3427034,36.7836958 C44.4224812,33.9382181 49.8054369,32.3712314 55.49848,32.3712314 C61.1915231,32.3712314 66.5754921,33.9382181 70.6552699,36.7836958 C74.9894004,39.8063199 77.376871,43.904982 77.376871,48.3326304 C77.376871,52.7602787 74.9894004,56.8619776 70.6552699,59.881565 C66.5754921,62.7270427 61.1925364,64.2940293 55.49848,64.2940293 Z M55.49848,47.365917 C56.7857025,47.365917 57.8292025,48.4082922 57.8292025,49.6941272 L57.8292025,59.5333457 C61.6860416,59.1881632 65.2267131,57.9866044 67.9870993,56.0633003 C71.0362924,53.9375432 72.7154259,51.1912675 72.7154259,48.3326304 C72.7154259,45.4739932 71.0362924,42.7287298 67.9860859,40.6009482 C64.6825401,38.2970324 60.2470738,37.0276517 55.49848,37.0276517 C50.7498862,37.0276517 46.3154332,38.2970324 43.0118874,40.6009482 C39.9616809,42.7267052 38.2825474,45.4739932 38.2825474,48.3326304 C38.2825474,51.1912675 39.9616809,53.936531 43.010874,56.0633003 C45.7702468,57.9866044 49.3169985,59.1901878 53.1677574,59.5333457 L53.1677574,49.6941272 C53.1677574,48.4082922 54.2112575,47.365917 55.49848,47.365917 L55.49848,47.365917 Z" id="Shape" fill="#404040"></path>
            <path d="M68.001151,40 C65.9786733,40.0004353 64.1551195,38.7824022 63.3809493,36.9139598 C62.606779,35.0455175 63.034483,32.8946985 64.4645907,31.4645907 C65.8946985,30.034483 68.0455175,29.606779 69.9139598,30.3809493 C71.7824022,31.1551195 73.0004353,32.9786733 73,35.001151 C72.9964341,37.7604606 70.7604606,39.9964341 68.001151,40 L68.001151,40 Z M68.0029766,34.9627979 C67.9873047,34.9601583 67.9715567,34.9670471 67.9628575,34.9803475 C67.9541583,34.993648 67.9541583,35.0108367 67.9628575,35.0241372 C67.9715567,35.0374376 67.9873047,35.0443264 68.0029766,35.0416868 C68.022233,35.0384435 68.0363331,35.02177 68.0363331,35.0022423 C68.0363331,34.9827147 68.022233,34.9660412 68.0029766,34.9627979 L68.0029766,34.9627979 Z" id="Shape" fill="#404040"></path>
            <path d="M43.0000726,40 C40.977693,40 39.1544702,38.7816901 38.3806398,36.9132131 C37.6068094,35.044736 38.0347796,32.8940936 39.4649722,31.4642094 C40.8951648,30.0343252 43.0458991,29.6068189 44.914209,30.3810524 C46.7825189,31.1552859 48.0004353,32.9787717 48,35.0011515 C47.9964328,37.7608817 45.7598033,39.9970291 43.0000726,40 L43.0000726,40 Z M43.0016057,34.9627984 C42.9823492,34.9660417 42.9682491,34.9827151 42.9682491,35.0022428 C42.9682491,35.0217705 42.9823492,35.038444 43.0016057,35.0416873 C43.0232703,35.0416956 43.0410039,35.0244547 43.0416057,35.0027984 C43.0416057,34.980707 43.0236971,34.9627984 43.0016057,34.9627984 L43.0016057,34.9627984 Z" id="Shape" fill="#404040"></path>
            <path d="M55.4994654,44.6046046 C58.0301615,44.6046046 60.081875,45.2292292 60.081875,46 C60.081875,46.7707708 58.0301615,47.3953954 55.4994654,47.3953954 C52.9687693,47.3953954 50.918125,46.7707708 50.918125,46 C50.918125,45.2292292 52.9698385,44.6046046 55.4994654,44.6046046 L55.4994654,44.6046046 Z M55.4994654,40 C53.7481852,40 52.1016825,40.2192192 50.7385066,40.6346346 C49.8538517,40.8922011 49.0223422,41.2885604 48.279444,41.8068068 C46.8307355,42.8498498 46,44.3783784 46,46 C46,47.6216216 46.8307355,49.1491491 48.279444,50.1931932 C49.0220892,50.7118209 49.8536711,51.1082148 50.7385066,51.3653654 C52.1016825,51.7807808 53.7481852,52 55.4994654,52 C57.2507456,52 58.8983175,51.7807808 60.2614934,51.3653654 C61.1463289,51.1082148 61.9779108,50.7118209 62.720556,50.1931932 C64.1692645,49.1491491 65,47.6216216 65,46 C65,44.3783784 64.1692645,42.8498498 62.720556,41.8068068 C61.9776578,41.2885604 61.1461483,40.8922011 60.2614934,40.6346346 C58.8983175,40.2192192 57.2518148,40 55.4994654,40 L55.4994654,40 Z" id="Shape" fill="#EA0029"></path>
        </g>
    </g>
</svg>