<?xml version="1.0" encoding="UTF-8"?>
<svg width="129px" height="122px" viewBox="0 0 129 122" version="1.1" xmlns="http://www.w3.org/2000/svg" xmlns:xlink="http://www.w3.org/1999/xlink">
    <!-- Generator: Sketch 55.2 (78181) - https://sketchapp.com -->
    <title>wowregalo 2</title>
    <desc>Created with Sketch.</desc>
    <g id="Mobile" stroke="none" stroke-width="1" fill="none" fill-rule="evenodd">
        <g id="wowregalo-2" fill-rule="nonzero">
            <g id="wowregalo">
                <path d="M67.3348257,35.6336634 C65.5997794,35.6336634 64.3719165,35.2721474 63.6897704,34.5594742 L63.6897704,34.5594742 C62.4921094,33.3164394 62.2400799,31.3265479 62.873278,28.1101954 C63.3210991,25.8312984 64.2063268,23.0344701 65.4310654,20.0190749 C68.1606911,13.3035796 71.8130365,7.26035891 75.1998137,3.85237192 L75.1998137,3.85237192 C77.6420007,1.40462929 81.1131348,0 84.722781,0 L84.722781,0 C88.3334687,0 91.8046028,1.40462929 94.2467898,3.85237192 C99.4977523,9.14355659 99.4977523,17.7453572 94.2467898,23.0313625 C91.8223073,25.4739259 87.1347662,28.57219 82.0150256,31.1183396 C78.6251242,32.8026517 72.2098269,35.6336634 67.3348257,35.6336634 Z M67.3348257,30.8686968 L67.3348257,30.8686968 C70.1727617,30.8686968 74.743661,29.4050233 79.8758989,26.8526586 C84.4874146,24.5592594 88.7917042,21.7427498 90.8412667,19.6793121 C94.2551214,16.2392134 94.2551214,10.6414135 90.8412667,7.2002789 C89.2957633,5.64648544 87.063948,4.76082316 84.7217396,4.76082316 L84.7217396,4.76082316 C82.3816141,4.76082316 80.1518817,5.65062889 78.6022124,7.20131476 L78.6022124,7.20131476 C75.8413434,9.98053333 72.7295076,15.0738683 70.278989,20.8197965 C69.1760994,23.4094523 68.3241979,25.8665177 67.8138902,27.933063 C67.4577162,29.3843061 67.3504474,30.3072594 67.33066,30.8686968 L67.3348257,30.8686968 Z" id="Shape" fill="#EA0029"></path>
                <path d="M61.671868,35.6336634 C56.8035117,35.6336634 50.382156,32.8132667 46.9855556,31.132215 C41.8640948,28.5956188 37.1759323,25.5090298 34.7511284,23.0760104 C29.5025945,17.8060221 29.5025945,9.22882608 34.7532115,3.957802 L34.7532115,3.957802 C37.2687993,1.42534625 40.6993782,0 44.2790037,0 C47.8586292,0 51.2892081,1.42534625 53.8047959,3.957802 C57.1951467,7.35097844 60.8542258,13.3729344 63.5790054,20.0629609 C64.804948,23.0666885 65.6892514,25.8570479 66.1360903,28.1274516 C66.7610398,31.2948306 66.4964778,33.3415085 65.3028244,34.5668222 L65.1861671,34.6869713 L65.0549277,34.7905481 C64.5643424,35.1748181 63.5748391,35.6336634 61.671868,35.6336634 Z M38.1550198,7.31369078 C34.7444199,10.7546078 34.7444199,16.2812761 38.1550198,19.7221931 C40.2038124,21.7781929 44.5086726,24.5820173 49.1228828,26.8689933 C54.2578842,29.4128399 58.8314727,30.8712014 61.6708264,30.8712014 L61.6708264,30.8712014 C61.6510363,30.3118866 61.5447949,29.3879815 61.1875322,27.947228 C60.6781983,25.8901924 59.8261839,23.4416365 58.7241897,20.8667169 C56.2754294,15.1461695 53.1642227,10.0802275 50.4040292,7.31576232 C48.7878747,5.68489905 46.5815272,4.76666817 44.2790037,4.76666817 C41.9764801,4.76666817 39.7701326,5.68489905 38.1539782,7.31576232 L38.1550198,7.31369078 Z" id="Shape" fill="#EA0029"></path>
                <path d="M111.080677,122 L17.9182838,122 C12.31908,122 7.76465895,117.44122 7.76465895,111.838001 L7.76465895,67.5811884 L6.27285475,67.5811884 C2.80765285,67.5743203 0.0017125976,64.7679113 0,61.3072858 L0,41.8709578 C0,36.2646242 4.55546064,31.7079208 10.155704,31.7079208 L118.844296,31.7079208 C124.444539,31.7079208 129,36.2677388 129,41.8709578 L129,61.3072858 C128.998287,64.7679113 126.192347,67.5743203 122.727145,67.5811884 L121.235341,67.5811884 L121.235341,111.838001 C121.235341,117.44122 116.67988,122 111.080677,122 Z M10.155704,36.48161 C7.18362681,36.4907684 4.77978314,38.9007216 4.78208847,41.8688814 L4.78208847,61.3072858 C4.78208847,62.1315174 5.44754062,62.8014197 6.27285475,62.8054228 L12.5467491,62.8054228 L12.5467491,111.838001 C12.5438685,114.805419 14.9469487,117.215075 17.9182838,117.224234 L111.080677,117.224234 C114.052418,117.215647 116.45613,114.805823 116.453251,111.838001 L116.453251,62.8054228 L122.727145,62.8054228 C123.552459,62.8014197 124.217914,62.1315174 124.217914,61.3072858 L124.217914,41.8709578 C124.221364,38.9019878 121.817186,36.4907698 118.844296,36.48161 L10.155704,36.48161 Z" id="Shape" fill="#404040"></path>
                <rect id="Rectangle" fill="#404040" x="10.2716628" y="62.8118812" width="108.456674" height="4.83168317"></rect>
                <rect id="Rectangle" fill="#404040" x="62.234192" y="35.9356436" width="4.83372365" height="83.6485149"></rect>
            </g>
        </g>
    </g>
</svg>