<?xml version="1.0" encoding="UTF-8"?>
<svg width="68px" height="120px" viewBox="0 0 68 120" version="1.1" xmlns="http://www.w3.org/2000/svg" xmlns:xlink="http://www.w3.org/1999/xlink">
    <!-- Generator: Sketch 55.2 (78181) - https://sketchapp.com -->
    <title>Iconos finales_tarjeta vips cel Copy</title>
    <desc>Created with Sketch.</desc>
    <g id="Mobile" stroke="none" stroke-width="1" fill="none" fill-rule="evenodd">
        <g id="Iconos-finales_tarjeta-vips-cel-Copy" fill-rule="nonzero">
            <path d="M63.8491269,120 L3.09605133,120 C1.39104786,119.992957 0.00981151423,118.603567 0,116.885673 L0,3.11776504 C0.00790025041,1.40219205 1.38400569,0.0122223066 3.08666677,0 L63.8397424,0 C65.5459899,0.00470071497 66.9290712,1.39517968 66.9375,3.11432665 L66.9375,116.882235 C66.9295903,118.598473 65.5524547,119.988715 63.8491269,120 Z M3.92018624,3.95415473 L3.92018624,116.045845 L63.0156075,116.045845 L63.0156075,3.95415473 L3.92018624,3.95415473 Z" id="Shape" fill="#404040"></path>
            <path d="M64.9755241,19.1150442 L1.96197591,19.1150442 C0.878406537,19.1150442 0,17.6886948 0,15.9292035 C0,14.1697123 0.878406537,12.7433628 1.96197591,12.7433628 L64.9755241,12.7433628 C66.0590935,12.7433628 66.9375,14.1697123 66.9375,15.9292035 C66.9375,17.6886948 66.0590935,19.1150442 64.9755241,19.1150442 Z" id="Shape" fill="#404040"></path>
            <path d="M28.5353805,11 C27.6874133,11 27,9.88071187 27,8.5 C27,7.11928813 27.6874133,6 28.5353805,6 L38.4646195,6 C39.3125867,6 40,7.11928813 40,8.5 C40,9.88071187 39.3125867,11 38.4646195,11 L28.5353805,11 Z" id="Shape" fill="#EA0029"></path>
            <path d="M65.1640871,98.3893805 L4.08591291,98.3893805 C3.00293061,98.3893805 2.125,97.0462348 2.125,95.3893805 C2.125,93.7325263 3.00293061,92.3893805 4.08591291,92.3893805 L65.1640871,92.3893805 C66.2470694,92.3893805 67.125,93.7325263 67.125,95.3893805 C67.125,97.0462348 66.2470694,98.3893805 65.1640871,98.3893805 Z" id="Shape" fill="#404040"></path>
            <ellipse id="Oval" fill="#EA0029" cx="34.53125" cy="109.380531" rx="3.71875" ry="4.24778761"></ellipse>
        </g>
    </g>
</svg>