<?xml version="1.0" encoding="UTF-8"?>
<svg width="152px" height="101px" viewBox="0 0 152 101" version="1.1" xmlns="http://www.w3.org/2000/svg" xmlns:xlink="http://www.w3.org/1999/xlink">
    <!-- Generator: Sketch 55.2 (78181) - https://sketchapp.com -->
    <title>tiendam 2 copy</title>
    <desc>Created with Sketch.</desc>
    <g id="Mobile" stroke="none" stroke-width="1" fill="none" fill-rule="evenodd">
        <g id="tiendam-2-copy" fill-rule="nonzero">
            <g id="tiendam">
                <path d="M143.473182,101 L7.45890243,101 C6.09183427,101 4.98360656,99.8978218 4.98360656,98.5382162 L4.98360656,44.6337136 C4.98360656,43.274108 6.09183427,42.1719298 7.45890243,42.1719298 C8.82597059,42.1719298 9.9341983,43.274108 9.9341983,44.6337136 L9.9341983,96.0764324 L140.997886,96.0764324 L140.997886,46.5860152 C140.997886,45.2264096 142.106114,44.1242314 143.473182,44.1242314 C144.84025,44.1242314 145.948478,45.2264096 145.948478,46.5860152 L145.948478,98.5382162 C145.948478,99.8978218 144.84025,101 143.473182,101 L143.473182,101 Z" id="Path" fill="#404040"></path>
                <g id="Shape" fill="#404040">
                    <path d="M130.387972,51.3514921 C122.992794,51.3514921 116.265986,48.0464158 112.219121,42.6654327 C108.053674,48.1078204 101.451915,51.3514921 94.1375887,51.3514921 C89.5571064,51.3514921 85.1900709,50.1524863 81.5075745,47.8826702 C79.2683633,46.5143798 77.3058613,44.7384882 75.7218723,42.6471191 C74.0980963,44.7289836 72.1131972,46.5023437 69.8617872,47.8826702 C66.1803688,50.1524863 61.8747801,51.3514921 57.4107234,51.3514921 C50.0716028,51.3514921 43.4493617,48.0851977 39.2860709,42.6094145 C35.1227801,48.0851977 28.500539,51.3514921 21.1603404,51.3514921 C12.0263262,51.3514921 3.64153191,46.3540185 0.296453901,38.9154423 C0.153585318,38.59584 0.0808454246,38.2496136 0.0808454246,37.899573 L0.0808454246,3.22212623 C0.0808454246,1.85790975 1.18436251,0.750327639 2.54950355,0.744396263 L148.98156,0.0861577086 C150.32574,0.0803037666 151.429798,1.14585473 151.470695,2.4885027 C151.470695,2.57253007 151.726184,10.9935801 151.852312,19.5255894 C152.105645,36.6865626 151.66366,38.1861278 151.205504,39.0242469 C149.559376,42.6266509 146.766241,45.6936496 143.120397,47.8988293 C139.379688,50.1557181 134.977078,51.3514921 130.387972,51.3514921 Z M112.262241,35.421843 L112.30105,35.421843 C113.263469,35.436445 114.130467,36.0063472 114.524993,36.8837037 C117.123007,42.6611236 123.349617,46.3949549 130.387972,46.3949549 C134.071546,46.3949549 137.585872,45.4469539 140.551489,43.6532929 C143.336,41.9684365 145.455376,39.6598385 146.687546,36.9741947 C147.13061,34.6957604 146.987234,19.4921939 146.579745,5.05241458 L5.03648227,5.68908345 L5.03648227,37.3436997 C6.27404255,39.8214296 8.40204255,42.0460002 11.0733617,43.6489838 C14.1234014,45.459967 17.6082499,46.409423 21.1560284,46.3961719 C28.0822695,46.3961719 34.1730496,42.7246828 37.0524255,36.8158354 C37.4676276,35.9634688 38.3331174,35.4225603 39.2817589,35.4225603 C40.2304003,35.4225603 41.0958901,35.9634688 41.5110922,36.8158354 C44.3893901,42.7246828 50.4801702,46.3961719 57.4064113,46.3961719 C60.949844,46.3961719 64.3552908,45.4523403 67.2540709,43.6651429 C70.0127092,41.9652047 72.1859858,39.5962794 73.5410496,36.8158354 C73.9622597,35.9510749 74.8461896,35.4080182 75.8084984,35.4227915 C76.7708072,35.4375648 77.6376272,36.0074988 78.0320567,36.884781 C79.266383,39.6318294 81.3674326,41.9759774 84.1066667,43.6651429 C87.0054468,45.4523403 90.4669504,46.3961719 94.1321986,46.3961719 C101.05844,46.3961719 107.14922,42.7246828 110.028596,36.8158354 C110.444274,35.9617902 111.311882,35.4203257 112.262241,35.421843 L112.262241,35.421843 Z"></path>
                </g>
                <g id="Shape-2" transform="translate(36.665105, 0.708772)" fill="#404040">
                    <path d="M2.51619114,40.7210512 C1.16928672,40.7210512 0.0774049529,39.6137523 0.0774049529,38.2478299 L0.0774049529,2.57107485 C0.0774049529,1.20515244 1.16928672,0.0978535389 2.51619114,0.0978535389 C3.86309556,0.0978535389 4.95497733,1.20515244 4.95497733,2.57107485 L4.95497733,38.2478299 C4.95497733,39.6137523 3.86309556,40.7210512 2.51619114,40.7210512 Z" id="Path"></path>
                </g>
                <g id="Shape-3" transform="translate(72.974239, 0.708772)" fill="#404040">
                    <path d="M2.47377747,40.7210512 C1.12687305,40.7210512 0.0349912801,39.6137523 0.0349912801,38.2478299 L0.0349912801,2.57107485 C0.0349912801,1.20515244 1.12687305,0.0978535389 2.47377747,0.0978535389 C3.82068189,0.0978535389 4.91256366,1.20515244 4.91256366,2.57107485 L4.91256366,38.2478299 C4.91256366,39.6137523 3.82068189,40.7210512 2.47377747,40.7210512 Z" id="Path"></path>
                </g>
                <g id="Shape-4" transform="translate(109.639344, 0.708772)" fill="#404040">
                    <path d="M2.46529473,40.7210512 C1.11839031,40.7210512 0.0265085455,39.6137523 0.0265085455,38.2478299 L0.0265085455,2.57107485 C0.0265085455,1.20515244 1.11839031,0.0978535389 2.46529473,0.0978535389 C3.81219915,0.0978535389 4.90408092,1.20515244 4.90408092,2.57107485 L4.90408092,38.2478299 C4.90408092,39.6137523 3.81219915,40.7210512 2.46529473,40.7210512 Z" id="Path"></path>
                </g>
                <path d="M120.344713,100.645614 C118.983005,100.645614 117.879122,99.5398726 117.879122,98.1758714 L117.879122,57.3886081 L94.6361005,57.3886081 L94.6361005,98.1758714 C94.6361005,99.5398726 93.5322177,100.645614 92.1705093,100.645614 C90.8088008,100.645614 89.704918,99.5398726 89.704918,98.1758714 L89.704918,54.9188655 C89.704918,53.5548643 90.8088008,52.4491228 92.1705093,52.4491228 L120.344713,52.4491228 C121.706422,52.4491228 122.810304,53.5548643 122.810304,54.9188655 L122.810304,98.1758714 C122.810304,99.5398726 121.706422,100.645614 120.344713,100.645614 Z" id="Path" fill="#404040"></path>
                <path d="M81.5296883,86.1157895 L28.4656279,86.1157895 C27.0961387,86.1157895 25.9859485,85.0118664 25.9859485,83.6501083 L25.9859485,57.0411198 C25.9859485,55.6793617 27.0961387,54.5754386 28.4656279,54.5754386 L81.5296883,54.5754386 C82.8991774,54.5754386 84.0093677,55.6793617 84.0093677,57.0411198 L84.0093677,83.6501083 C84.0093677,85.0118664 82.8991774,86.1157895 81.5296883,86.1157895 Z M30.9453072,81.184427 L79.0500089,81.184427 L79.0500089,59.506801 L30.9453072,59.506801 L30.9453072,81.184427 Z" id="Shape" fill="#EA0029"></path>
            </g>
        </g>
    </g>
</svg>