<?xml version="1.0" encoding="utf-8"?>
<!-- Generator: Adobe Illustrator 22.0.0, SVG Export Plug-In . SVG Version: 6.00 Build 0)  -->
<svg version="1.1" id="Layer_1" xmlns="http://www.w3.org/2000/svg" xmlns:xlink="http://www.w3.org/1999/xlink" x="0px" y="0px"
	 viewBox="0 0 1200 256.2" style="enable-background:new 0 0 1200 256.2;" xml:space="preserve">
<style type="text/css">
	.st0{fill:#EB6640;}
	.st1{fill:#1361A5;}
	.st2{opacity:0.68;}
	.st3{fill:#FFFFFF;}
	.st4{fill:#004981;}
	.st5{fill-rule:evenodd;clip-rule:evenodd;fill:#FFFFFF;}
	.st6{clip-path:url(#SVGID_2_);fill-rule:evenodd;clip-rule:evenodd;fill:#FFFFFF;}
	.st7{fill:#236092;}
</style>
<g>
	<g>
		<path class="st0" d="M62.6,103.8V78.1L58,77.9c-0.4-1.9-0.4-3.9,0-5.8c3.9-0.3,7.6-0.2,11.6,0l0.6,0.6v31.7
			c-2.1,0.3-4.6,0.4-6.9,0L62.6,103.8z"/>
		<path class="st0" d="M95.5,99v-9.7c0-2.8-1.6-4-3.6-4c-3.7,0-5.4,3.8-5.4,8.8v10.2c-2.2,0.4-4.1,0.4-6.3,0l-0.6-0.6V85.7l-3.7-0.2
			c-0.5-1.7-0.5-3.3,0-5c3.6-0.4,5.6-0.4,9.2,0l0.6,0.6v4.6l0.1,0c2.2-4.8,6.2-5.7,8.8-5.7c3.7,0,7.8,1.5,7.8,8.7v9
			c0,1.3,0.8,1.7,1.8,1.7c0.8,0,1.6-0.3,2.4-0.6c0.4,1.8,0.4,3.6,0,5.4c-1.3,0.2-3.5,0.5-5.1,0.5C97.4,104.7,95.5,102.8,95.5,99z"/>
		<path class="st0" d="M109.2,92.4c0-8.3,5.4-12.4,13.5-12.4c3.6,0,6.6,0.8,9.4,2.4c-0.1,1.9-0.5,3.8-1.6,5.5
			c-2.1-1.5-4.4-2.8-7.3-2.8c-4,0-6.8,2.4-6.8,7.2c0,4.9,3.1,7.4,7.3,7.4c2.3,0,4.9-0.8,7.2-2c0.9,1.7,1.1,3.5,1,5.4
			c-2.9,1.3-6.4,1.7-9,1.7C115.6,104.8,109.2,101.2,109.2,92.4z"/>
		<path class="st0" d="M137.6,99.1V75l-3.7-0.2c-0.4-1.7-0.4-3.3,0-5c3.6-0.4,6.2-0.4,9.9,0l0.6,0.6v26.9c0,1.8,1.1,2,2.1,2
			c0.6,0,1.4-0.2,2.2-0.5c0.4,1.8,0.4,3.6,0,5.4c-1.6,0.3-2.8,0.5-4.7,0.5C139.4,104.8,137.6,102.8,137.6,99.1z"/>
		<path class="st0" d="M154.7,96.2V85.7l-3.7-0.2c-0.4-1.7-0.4-3.4,0-5c3.6-0.4,6.3-0.4,10,0l0.6,0.6v14.5c0,2.8,1.5,3.9,3.5,3.9
			c3.7,0,5.2-3.8,5.2-8.2V80.4c2.1-0.4,4.4-0.5,6.6,0l0.6,0.6l-0.4,6.4v9.9c0,1.4,1,2,2.1,2c0.7,0,1.4-0.3,2.2-0.6
			c0.5,1.8,0.5,3.6,0,5.5c-1.1,0.2-2.4,0.5-4.2,0.5c-4,0-6-1.4-6.4-4.2l0-1.1c-2,4.3-5.2,5.4-8.4,5.4
			C158.6,104.9,154.7,103.4,154.7,96.2z"/>
		<path class="st0" d="M190.1,113.9l4.4-9.9l-8.2-18.4l-3.5-0.2c-0.3-1.8-0.3-3.2,0-5c2.5-0.4,5.6-0.4,8.6,0l3.4,7.7l3.3,8.2h0.1
			L201,88l2.7-7.5c1.9-0.3,4.3-0.3,6.2,0l0.5,0.6l-13.2,33.2c-2.3,0.7-4.3,0.9-6.6,0.3L190.1,113.9z"/>
		<path class="st0" d="M212.5,92.7c0-7.8,4.7-12.7,13-12.7c10.8,0,12.6,7.9,10.6,14.6h-16.4c0.4,3.3,2.2,5.4,6.8,5.4
			c3.4,0,7-1.2,8.9-2.2c0.8,1.6,1.1,3.7,0.5,5.5c-3.2,1.2-6.9,1.5-9.6,1.5C217,104.8,212.5,100.3,212.5,92.7z M229.6,90.2
			c0.6-3.2-1-5.3-4.4-5.3c-2.7,0-4.8,1.3-5.4,5.3H229.6z"/>
		<path class="st0" d="M259.8,99v-9.7c0-2.8-1.6-4-3.6-4c-3.7,0-5.4,3.8-5.4,8.8v10.2c-2.2,0.4-4.1,0.4-6.3,0l-0.6-0.6V85.7
			l-3.7-0.2c-0.5-1.7-0.5-3.3,0-5c3.6-0.4,5.6-0.4,9.2,0L250,81v4.6l0.1,0c2.2-4.8,6.2-5.7,8.8-5.7c3.7,0,7.8,1.5,7.8,8.7v9
			c0,1.3,0.8,1.7,1.8,1.7c0.8,0,1.6-0.3,2.4-0.6c0.4,1.8,0.4,3.6,0,5.4c-1.3,0.2-3.5,0.5-5.1,0.5C261.7,104.7,259.8,102.8,259.8,99z
			"/>
		<path class="st0" d="M274.4,85.5c0-2.5,1.8-4.2,4.3-4.2c2.6,0,4.5,1.7,4.5,4.2c0,2.7-1.9,4.1-4.5,4.1
			C276.3,89.6,274.4,88.2,274.4,85.5z M274.4,100.9c0-2.5,1.8-4.2,4.3-4.2c2.6,0,4.5,1.6,4.5,4.2c0,2.7-1.9,4.1-4.5,4.1
			C276.3,105,274.4,103.6,274.4,100.9z"/>
		<path class="st0" d="M302.5,92.1v-14l-4.6-0.2c-0.4-1.9-0.4-3.9,0-5.8c3.9-0.4,7.6-0.4,11.6,0l0.6,0.6v19.6c0,4.4,2.8,6.6,6.5,6.6
			c3.5,0,6.7-2.3,6.7-6.6V72.1c2.2-0.3,4.7-0.4,6.9,0l0.6,0.6l-0.4,6.4v13c0,8.4-5.5,12.9-13.9,12.9
			C307.4,105,302.5,99.9,302.5,92.1z"/>
		<path class="st0" d="M355.2,99v-9.7c0-2.8-1.6-4-3.6-4c-3.7,0-5.4,3.8-5.4,8.8v10.2c-2.2,0.4-4.1,0.4-6.3,0l-0.6-0.6V85.7
			l-3.7-0.2c-0.5-1.7-0.5-3.3,0-5c3.6-0.4,5.6-0.4,9.2,0l0.6,0.6v4.6l0.1,0c2.2-4.8,6.2-5.7,8.8-5.7c3.7,0,7.8,1.5,7.8,8.7v9
			c0,1.3,0.8,1.7,1.8,1.7c0.8,0,1.6-0.3,2.4-0.6c0.4,1.8,0.4,3.6,0,5.4c-1.3,0.2-3.5,0.5-5.1,0.5C357,104.7,355.2,102.8,355.2,99z"
			/>
		<path class="st0" d="M369.2,97.5c0-5.4,4.5-7.6,10.7-7.6c1.7,0,3.5,0.2,5.7,0.8v-1.4c0-2.5-1.4-4.1-5.2-4.1
			c-2.8,0-6.1,1.2-8.4,2.9c-1.7-1.4-2.2-4-1.8-6c3.5-1.6,7.5-2,11.2-2c6.7,0,11,2.1,11,9.6v7.9c0,1.4,0.9,1.6,1.8,1.6
			c0.6,0,1.8-0.1,2.5-0.3c0.3,1.7,0.4,3.4,0,5.2c-1,0.3-3.6,0.6-5.3,0.6c-3,0-4.7-1.2-5.2-3l-0.1-0.9c-1.1,2-3.7,4.1-8.5,4.1
			C372.4,104.8,369.2,102.1,369.2,97.5z M385.7,94.8v-0.2c-1.4-0.4-3-0.7-4.7-0.7c-3.7,0-4.8,1.6-4.8,3.2c0,2.1,1.7,2.9,4,2.9
			C382.8,100,385.7,98.5,385.7,94.8z"/>
		<path class="st0" d="M410.7,103.2c-0.2-2.1,0.1-4.1,0.9-5.7c2.8,1.5,5.6,2.6,8.8,2.6c3.4,0,3.9-1.3,3.9-2.2c0-2.1-2.6-2.3-6.1-3
			c-3.6-0.8-7.7-1.9-7.7-7.3c0-5.6,4.4-7.6,10.7-7.6c3.8,0,7.1,0.7,9.5,1.9c-0.1,2.2-0.5,3.8-1.1,5.1c-1.6-0.9-5.1-2.3-8.2-2.3
			c-3.1,0-4.1,0.9-4.1,2.3c0,1.9,1.7,2.4,5.5,3.1c3.9,0.8,9,1.7,9,7.4c0,5.8-5.3,7.3-11.6,7.3C416.5,104.8,413.5,104.2,410.7,103.2z
			"/>
		<path class="st0" d="M435.6,92.4c0-7.9,5-12.4,12.8-12.4s12.8,4.5,12.8,12.4s-5,12.5-12.8,12.5S435.6,100.3,435.6,92.4z
			 M454.1,92.5c0-4.6-1.9-7.1-5.6-7.1s-5.6,2.5-5.6,7.1c0,4.5,1.9,7,5.6,7S454.1,97,454.1,92.5z"/>
		<path class="st0" d="M468.3,114.3V85.7l-3.7-0.2c-0.5-1.7-0.5-3.3,0-5c3.4-0.4,5.6-0.4,9.2,0l0.6,0.6v3.7c1.5-3.4,4.9-4.8,8.4-4.8
			c7.5,0,10.8,6,10.8,12.4c0,6.7-3.5,12.4-11,12.4c-3.9,0-6.2-1.2-7.4-2.5v12.6c-2.1,0.3-4.1,0.3-6.3,0L468.3,114.3z M486.5,92
			c0-4.5-2-6.6-5.5-6.6c-5.4,0-6,5.3-5.9,9.4v2.9c0.8,0.5,2.5,1.9,5.3,1.9C484.5,99.5,486.5,96.6,486.5,92z"/>
		<path class="st0" d="M497.9,97.5c0-5.4,4.5-7.6,10.7-7.6c1.7,0,3.5,0.2,5.7,0.8v-1.4c0-2.5-1.4-4.1-5.2-4.1
			c-2.8,0-6.1,1.2-8.4,2.9c-1.7-1.4-2.2-4-1.8-6c3.5-1.6,7.5-2,11.2-2c6.7,0,11,2.1,11,9.6v7.9c0,1.4,0.9,1.6,1.8,1.6
			c0.6,0,1.8-0.1,2.5-0.3c0.3,1.7,0.4,3.4,0,5.2c-1,0.3-3.6,0.6-5.3,0.6c-3,0-4.7-1.2-5.2-3l-0.1-0.9c-1.1,2-3.7,4.1-8.5,4.1
			C501.1,104.8,497.9,102.1,497.9,97.5z M514.3,94.8v-0.2c-1.4-0.4-3-0.7-4.7-0.7c-3.7,0-4.8,1.6-4.8,3.2c0,2.1,1.7,2.9,4,2.9
			C511.4,100,514.3,98.5,514.3,94.8z"/>
		<path class="st0" d="M539,92.6c0-7.3,4-12.6,11.5-12.6c3.1,0,5.5,0.9,7,2.2l-0.1-7.2l-3.7-0.2c-0.4-1.7-0.4-3.3,0-5
			c3.6-0.4,6.6-0.4,10.1,0l0.6,0.6v26.9c0,1.2,0.7,2,1.9,2c0.6,0,1.5-0.2,2.2-0.6c0.5,1.8,0.5,3.6,0,5.5c-1.6,0.3-2.9,0.5-4.3,0.5
			c-3.4,0-5.1-1.1-5.8-3.5l-0.2-1.4c-1.6,3.5-4.6,4.9-8.4,4.9C542.6,104.8,539,99.7,539,92.6z M557.5,90v-3.1
			c-1.1-0.7-2.7-1.6-5.3-1.6c-3.8,0-6.1,2.7-6.1,7.3c0,4.5,2.1,6.8,5.5,6.8C556.9,99.5,557.5,93.5,557.5,90z"/>
		<path class="st0" d="M571.5,92.7c0-7.8,4.7-12.7,13-12.7c10.8,0,12.6,7.9,10.6,14.6h-16.4c0.4,3.3,2.2,5.4,6.8,5.4
			c3.4,0,7-1.2,8.9-2.2c0.8,1.6,1.1,3.7,0.5,5.5c-3.2,1.2-6.9,1.5-9.6,1.5C575.9,104.8,571.5,100.3,571.5,92.7z M588.6,90.2
			c0.6-3.2-1-5.3-4.4-5.3c-2.7,0-4.8,1.3-5.4,5.3H588.6z"/>
		<path class="st0" d="M601.8,99.1V75l-3.7-0.2c-0.4-1.7-0.4-3.3,0-5c3.6-0.4,6.2-0.4,9.9,0l0.6,0.6v26.9c0,1.8,1.1,2,2.1,2
			c0.6,0,1.4-0.2,2.2-0.5c0.4,1.8,0.4,3.6,0,5.4c-1.6,0.3-2.8,0.5-4.7,0.5C603.7,104.8,601.8,102.8,601.8,99.1z"/>
		<path class="st0" d="M627.4,92.6c0-7.3,4-12.6,11.5-12.6c3.1,0,5.5,0.9,7,2.2l-0.1-7.2l-3.7-0.2c-0.4-1.7-0.4-3.3,0-5
			c3.6-0.4,6.6-0.4,10.1,0l0.6,0.6v26.9c0,1.2,0.7,2,1.9,2c0.6,0,1.5-0.2,2.2-0.6c0.5,1.8,0.5,3.6,0,5.5c-1.6,0.3-2.9,0.5-4.3,0.5
			c-3.4,0-5.1-1.1-5.8-3.5l-0.2-1.4c-1.6,3.5-4.6,4.9-8.4,4.9C631.1,104.8,627.4,99.7,627.4,92.6z M645.9,90v-3.1
			c-1.1-0.7-2.7-1.6-5.3-1.6c-3.8,0-6.1,2.7-6.1,7.3c0,4.5,2.1,6.8,5.5,6.8C645.4,99.5,645.9,93.5,645.9,90z"/>
		<path class="st0" d="M662.4,99l0-13.4l-3.5-0.2c-0.4-1.7-0.4-3.4,0-5c3.5-0.4,6.3-0.4,9.8,0l0.6,0.6v16.4c0,1.5,0.8,1.9,1.8,1.9
			c0.7,0,1.4-0.2,2.3-0.6c0.4,1.8,0.4,3.6,0,5.5c-1.6,0.3-2.8,0.5-4.8,0.5C664.2,104.8,662.4,102.7,662.4,99z M666.7,76.7
			c-2-0.1-3.5-0.7-4.5-1.6l3.6-7.8c2-0.3,3.9,0.1,5.9,1.3L666.7,76.7z"/>
		<path class="st0" d="M677.1,97.5c0-5.4,4.5-7.6,10.7-7.6c1.7,0,3.5,0.2,5.7,0.8v-1.4c0-2.5-1.4-4.1-5.2-4.1
			c-2.8,0-6.1,1.2-8.4,2.9c-1.7-1.4-2.2-4-1.8-6c3.5-1.6,7.5-2,11.2-2c6.7,0,11,2.1,11,9.6v7.9c0,1.4,0.9,1.6,1.8,1.6
			c0.6,0,1.8-0.1,2.5-0.3c0.3,1.7,0.4,3.4,0,5.2c-1,0.3-3.6,0.6-5.3,0.6c-3,0-4.7-1.2-5.2-3l-0.1-0.9c-1.1,2-3.7,4.1-8.5,4.1
			C680.3,104.8,677.1,102.1,677.1,97.5z M693.6,94.8v-0.2c-1.4-0.4-3-0.7-4.7-0.7c-3.7,0-4.8,1.6-4.8,3.2c0,2.1,1.7,2.9,4,2.9
			C690.7,100,693.6,98.5,693.6,94.8z"/>
		<path class="st0" d="M716.5,96.5c0-6.6,2.9-10.9,4.3-12.8c1.4-0.3,2.9-0.3,4.3,0c-1.6,2.4-4.5,6.3-4.5,12.8s2.9,10.5,4.5,12.8
			c-1.4,0.3-2.9,0.3-4.3,0C719.4,107.3,716.5,103.1,716.5,96.5z"/>
		<path class="st0" d="M727.3,104.4c-0.2-1.1-0.2-2.2,0-3.4c2.1-1.3,4.4-2.9,6.3-4.5c2.5-2.2,3.5-3.9,3.5-5.7c0-2.3-1.6-3.3-3.6-3.3
			c-2.3,0-3.7,1.2-4.6,2.3c-1.4-0.6-2.1-1.5-2.5-3.1c1.5-1.3,3.9-2.6,7.8-2.6c5.5,0,7.7,2.6,7.7,6.4c0,2.9-1.2,5-4.7,7.7
			c-1.6,1.2-3.3,2.3-4.6,3l9.2-0.2c0.3,1.1,0.3,2.2,0,3.3H727.3z"/>
		<path class="st0" d="M754.6,88.2h-10.4c-0.4-1.2-0.4-2.4,0-3.7H759v4.3c-4.8,4.6-7,10.4-6.9,15.6c-1.7,0.3-3.4,0.3-5,0
			C747.4,99.1,749.9,93.2,754.6,88.2z"/>
		<path class="st0" d="M761,94.5c0-6.8,3.6-10.3,8.7-10.3c5.1,0,8.6,3.5,8.6,10.3c0,6.8-3.6,10.3-8.6,10.3
			C764.6,104.8,761,101.3,761,94.5z M773.7,94.5c0-4.5-1.4-6.7-4-6.7c-2.5,0-4,2.2-4,6.7c0,4.5,1.4,6.7,4,6.7
			C772.2,101.2,773.7,99,773.7,94.5z"/>
		<path class="st0" d="M808,101.1v-5.5c0-1.5-0.5-2.8-2.1-2.8c-2.2,0-2.6,2.8-2.6,4.9v6.8c-1.3,0.2-2.6,0.2-3.9,0l-0.4-0.3l0-8.9
			c0-1.2-0.6-2.5-2-2.5c-1.9,0-2.7,2.3-2.7,4.9v6.8c-1.3,0.2-2.6,0.2-3.9,0l-0.4-0.4l0-11.2l-2.3-0.1c-0.2-1-0.2-2,0-3.1
			c2.2-0.3,3.4-0.3,5.6,0l0.4,0.4v2.7l0.1,0c1-2.2,2.6-3.4,4.7-3.4c1.8,0,3.7,0.9,4.2,3.5c0.9-2.1,2.3-3.5,4.9-3.5
			c2.3,0,4.7,1.1,4.7,5.1v6c0,0.9,0.5,1.1,1.1,1.1c0.5,0,0.9-0.1,1.4-0.3c0.3,1,0.3,2.1,0,3.1c-0.8,0.1-1.7,0.3-2.7,0.3
			C809.2,104.6,808,103.4,808,101.1z"/>
		<path class="st0" d="M818.7,104.1V88.2l-2.8-0.1c-0.3-1.2-0.3-2.4,0-3.6c2.4-0.2,4.7-0.2,7.1,0l0.4,0.4v15.8h9.4
			c0.3,1.2,0.3,2.5,0,3.7h-13.6L818.7,104.1z"/>
		<path class="st0" d="M842.1,96.5c0,6.6-2.9,10.9-4.3,12.8c-1.4,0.3-2.9,0.3-4.3,0c1.6-2.4,4.5-6.3,4.5-12.8s-2.9-10.5-4.5-12.8
			c1.4-0.3,2.9-0.3,4.3,0C839.3,85.6,842.1,89.8,842.1,96.5z"/>
		<path class="st0" d="M861.7,113.9l4.4-9.9l-8.2-18.4l-3.5-0.2c-0.3-1.8-0.3-3.2,0-5c2.5-0.4,5.6-0.4,8.6,0l3.4,7.7l3.3,8.2h0.1
			l2.8-8.4l2.7-7.5c1.9-0.3,4.3-0.3,6.2,0l0.5,0.6l-13.2,33.2c-2.3,0.7-4.3,0.9-6.6,0.3L861.7,113.9z"/>
		<path class="st0" d="M898.4,96.2V85.7l-3.7-0.2c-0.4-1.7-0.4-3.4,0-5c3.6-0.4,6.3-0.4,10,0l0.6,0.6v14.5c0,2.8,1.5,3.9,3.5,3.9
			c3.7,0,5.2-3.8,5.2-8.2V80.4c2.1-0.4,4.4-0.5,6.6,0l0.6,0.6l-0.4,6.4v9.9c0,1.4,1,2,2.1,2c0.7,0,1.4-0.3,2.2-0.6
			c0.5,1.8,0.5,3.6,0,5.5c-1.1,0.2-2.4,0.5-4.2,0.5c-4,0-6-1.4-6.4-4.2l0-1.1c-2,4.3-5.2,5.4-8.4,5.4
			C902.4,104.9,898.4,103.4,898.4,96.2z"/>
		<path class="st0" d="M947.6,99v-9.7c0-2.8-1.6-4-3.6-4c-3.7,0-5.4,3.8-5.4,8.8v10.2c-2.2,0.4-4.1,0.4-6.3,0l-0.6-0.6V85.7
			l-3.7-0.2c-0.5-1.7-0.5-3.3,0-5c3.6-0.4,5.6-0.4,9.2,0l0.6,0.6v4.6l0.1,0c2.2-4.8,6.2-5.7,8.8-5.7c3.7,0,7.8,1.5,7.8,8.7v9
			c0,1.3,0.8,1.7,1.8,1.7c0.8,0,1.6-0.3,2.4-0.6c0.4,1.8,0.4,3.6,0,5.4c-1.3,0.2-3.5,0.5-5.1,0.5C949.5,104.7,947.6,102.8,947.6,99z
			"/>
		<path class="st0" d="M961.7,97.5c0-5.4,4.5-7.6,10.7-7.6c1.7,0,3.5,0.2,5.7,0.8v-1.4c0-2.5-1.4-4.1-5.2-4.1
			c-2.8,0-6.1,1.2-8.4,2.9c-1.7-1.4-2.2-4-1.8-6c3.5-1.6,7.5-2,11.2-2c6.7,0,11,2.1,11,9.6v7.9c0,1.4,0.9,1.6,1.8,1.6
			c0.6,0,1.8-0.1,2.5-0.3c0.3,1.7,0.4,3.4,0,5.2c-1,0.3-3.6,0.6-5.3,0.6c-3,0-4.7-1.2-5.2-3l-0.1-0.9c-1.1,2-3.7,4.1-8.5,4.1
			C964.9,104.8,961.7,102.1,961.7,97.5z M978.2,94.8v-0.2c-1.4-0.4-3-0.7-4.7-0.7c-3.7,0-4.8,1.6-4.8,3.2c0,2.1,1.7,2.9,4,2.9
			C975.3,100,978.2,98.5,978.2,94.8z"/>
		<path class="st0" d="M1011,102.1l-0.3,2.4c-1.6,0.2-3.9,0.2-5.4,0l-0.6-0.6V75l-3.7-0.2c-0.4-1.7-0.4-3.4,0-5
			c3.6-0.5,6.5-0.4,10.1,0l0.6,0.6V77l-0.2,7.6c1.6-3.3,4.9-4.7,8.3-4.7c7.1,0,10.2,5.8,10.2,12c0,7-3.9,12.8-11.8,12.8
			C1014.6,104.8,1012.4,103.5,1011,102.1z M1022.8,91.9c0-4.1-1.9-6.6-5.3-6.6c-5.3,0-6,6.4-6,9.6v2.6c0.5,0.4,2.3,1.9,5.2,1.9
			C1020.9,99.5,1022.8,96.1,1022.8,91.9z"/>
		<path class="st0" d="M1033.9,92.7c0-7.8,4.7-12.7,13-12.7c10.8,0,12.6,7.9,10.6,14.6h-16.4c0.4,3.3,2.2,5.4,6.8,5.4
			c3.4,0,7-1.2,8.9-2.2c0.8,1.6,1.1,3.7,0.5,5.5c-3.2,1.2-6.9,1.5-9.6,1.5C1038.3,104.8,1033.9,100.3,1033.9,92.7z M1051,90.2
			c0.6-3.2-1-5.3-4.4-5.3c-2.7,0-4.8,1.3-5.4,5.3H1051z"/>
		<path class="st0" d="M1070.5,102.1l-0.3,2.4c-1.6,0.2-3.9,0.2-5.4,0l-0.6-0.6V75l-3.7-0.2c-0.4-1.7-0.4-3.4,0-5
			c3.6-0.5,6.5-0.4,10.1,0l0.6,0.6V77l-0.2,7.6c1.6-3.3,4.9-4.7,8.3-4.7c7.1,0,10.2,5.8,10.2,12c0,7-3.9,12.8-11.8,12.8
			C1074.1,104.8,1071.9,103.5,1070.5,102.1z M1082.4,91.9c0-4.1-1.9-6.6-5.3-6.6c-5.3,0-6,6.4-6,9.6v2.6c0.5,0.4,2.3,1.9,5.2,1.9
			C1080.4,99.5,1082.4,96.1,1082.4,91.9z"/>
		<path class="st0" d="M1096.7,99l0-13.4l-3.5-0.2c-0.5-1.7-0.5-3.4,0-5c3.5-0.3,6.2-0.3,9.7,0l0.6,0.6v16.4c0,1.5,0.8,1.9,1.8,1.9
			c0.7,0,1.4-0.2,2.3-0.6c0.4,1.8,0.4,3.6,0,5.5c-1.6,0.3-2.7,0.5-4.8,0.5C1098.5,104.8,1096.6,102.7,1096.7,99z M1095.9,73.1
			c0-2.4,1.6-3.6,4.2-3.6c2.7,0,4.3,1.2,4.3,3.6c0,2.5-1.6,3.7-4.3,3.7C1097.5,76.8,1095.9,75.7,1095.9,73.1z"/>
		<path class="st0" d="M1111.1,92.6c0-7.3,4-12.6,11.5-12.6c3.1,0,5.5,0.9,7,2.2l-0.1-7.2l-3.7-0.2c-0.4-1.7-0.4-3.3,0-5
			c3.6-0.4,6.6-0.4,10.1,0l0.6,0.6v26.9c0,1.2,0.7,2,1.9,2c0.6,0,1.5-0.2,2.2-0.6c0.5,1.8,0.5,3.6,0,5.5c-1.6,0.3-2.9,0.5-4.3,0.5
			c-3.4,0-5.1-1.1-5.8-3.5l-0.2-1.4c-1.6,3.5-4.6,4.9-8.4,4.9C1114.8,104.8,1111.1,99.7,1111.1,92.6z M1129.7,90v-3.1
			c-1.1-0.7-2.7-1.6-5.3-1.6c-3.8,0-6.1,2.7-6.1,7.3c0,4.5,2.1,6.8,5.5,6.8C1129.1,99.5,1129.6,93.5,1129.7,90z"/>
		<path class="st0" d="M1144,97.5c0-5.4,4.5-7.6,10.7-7.6c1.7,0,3.5,0.2,5.7,0.8v-1.4c0-2.5-1.4-4.1-5.2-4.1c-2.8,0-6.1,1.2-8.4,2.9
			c-1.7-1.4-2.2-4-1.8-6c3.5-1.6,7.5-2,11.2-2c6.7,0,11,2.1,11,9.6v7.9c0,1.4,0.9,1.6,1.8,1.6c0.6,0,1.8-0.1,2.5-0.3
			c0.3,1.7,0.4,3.4,0,5.2c-1,0.3-3.6,0.6-5.3,0.6c-3,0-4.7-1.2-5.2-3l-0.1-0.9c-1.1,2-3.7,4.1-8.5,4.1
			C1147.2,104.8,1144,102.1,1144,97.5z M1160.5,94.8v-0.2c-1.4-0.4-3-0.7-4.7-0.7c-3.7,0-4.8,1.6-4.8,3.2c0,2.1,1.7,2.9,4,2.9
			C1157.6,100,1160.5,98.5,1160.5,94.8z"/>
		<path class="st0" d="M57.8,133.7c0-6.6,2.9-10.9,4.3-12.8c1.4-0.3,2.9-0.3,4.3,0c-1.6,2.4-4.5,6.3-4.5,12.8
			c0,6.5,2.9,10.5,4.5,12.8c-1.4,0.3-2.9,0.3-4.3,0C60.6,144.5,57.8,140.3,57.8,133.7z"/>
		<path class="st0" d="M69.1,141.3v-11.2l-2.2-0.1c-0.3-1-0.3-2,0-3.1c2.2-0.3,3.1-0.3,5.3,0l0.4,0.4v3.5l0.1,0
			c0.4-1.8,1.5-4.1,4.3-4.1c1,0,1.8,0.1,2.2,0.3c0.2,1.5,0.2,2.9-0.1,4.4c-0.6-0.3-1.4-0.3-2.1-0.3c-3,0-3.6,2.5-3.6,5.1v5.6
			c-1.3,0.2-2.5,0.2-3.9,0L69.1,141.3z"/>
		<path class="st0" d="M80.9,134.4c0-4.8,2.9-7.8,8-7.8c6.7,0,7.8,4.9,6.5,9H85.3c0.2,2,1.4,3.3,4.2,3.3c2.1,0,4.3-0.7,5.5-1.3
			c0.5,1,0.6,2.3,0.3,3.4c-2,0.7-4.2,0.9-5.9,0.9C83.6,141.9,80.9,139.1,80.9,134.4z M91.4,132.9c0.3-2-0.6-3.2-2.7-3.2
			c-1.6,0-2.9,0.8-3.3,3.2H91.4z"/>
		<path class="st0" d="M100.4,141.3v-11.2l-2.3-0.1c-0.3-1-0.3-2.1,0-3.1h2.3v-1c0-4.1,2.5-5.7,6-5.7c1.2,0,2.4,0.1,3.7,0.4
			c0.2,1.2,0.2,2.4-0.2,3.6c-0.8-0.5-1.6-0.8-2.6-0.8c-1.6,0-2.7,0.8-2.7,2.6v0.9l3.6-0.1c0.3,1,0.3,2,0,3.1h-3.6v11.7
			c-1.3,0.2-2.6,0.2-3.9,0L100.4,141.3z"/>
		<path class="st0" d="M112,141.3v-11.2l-2.2-0.1c-0.3-1-0.3-2,0-3.1c2.2-0.3,3.1-0.3,5.3,0l0.4,0.4v3.5l0.1,0
			c0.4-1.8,1.5-4.1,4.3-4.1c1,0,1.8,0.1,2.2,0.3c0.2,1.5,0.2,2.9-0.1,4.4c-0.6-0.3-1.4-0.3-2.1-0.3c-3,0-3.6,2.5-3.6,5.1v5.6
			c-1.3,0.2-2.5,0.2-3.9,0L112,141.3z"/>
		<path class="st0" d="M123.7,134.4c0-4.8,2.9-7.8,8-7.8c6.7,0,7.8,4.9,6.5,9h-10.1c0.2,2,1.4,3.3,4.2,3.3c2.1,0,4.3-0.7,5.5-1.3
			c0.5,1,0.6,2.3,0.3,3.4c-2,0.7-4.2,0.9-5.9,0.9C126.5,141.9,123.7,139.1,123.7,134.4z M134.3,132.9c0.3-2-0.6-3.2-2.7-3.2
			c-1.6,0-2.9,0.8-3.3,3.2H134.3z"/>
		<path class="st0" d="M141.5,140.9c-0.1-1.3,0.1-2.5,0.5-3.5c1.8,0.9,3.4,1.6,5.4,1.6c2.1,0,2.4-0.8,2.4-1.4c0-1.3-1.6-1.4-3.8-1.8
			c-2.2-0.5-4.7-1.2-4.7-4.5c0-3.5,2.7-4.7,6.6-4.7c2.3,0,4.4,0.5,5.8,1.2c-0.1,1.4-0.3,2.3-0.7,3.1c-1-0.6-3.1-1.4-5.1-1.4
			c-1.9,0-2.5,0.5-2.5,1.4c0,1.2,1,1.4,3.4,1.9c2.4,0.5,5.6,1.1,5.6,4.5c0,3.6-3.3,4.5-7.1,4.5C145,141.9,143.2,141.5,141.5,140.9z"
			/>
		<path class="st0" d="M156.7,134.3c0-5.1,3.3-7.6,8.3-7.6c2.2,0,4.1,0.5,5.8,1.4c-0.1,1.2-0.3,2.3-1,3.4c-1.3-0.9-2.7-1.7-4.5-1.7
			c-2.5,0-4.2,1.5-4.2,4.4c0,3,1.9,4.6,4.5,4.6c1.4,0,3-0.5,4.4-1.2c0.6,1.1,0.7,2.2,0.6,3.3c-1.8,0.8-4,1.1-5.5,1.1
			C160.6,141.9,156.7,139.6,156.7,134.3z"/>
		<path class="st0" d="M172.9,134.2c0-4.9,3.1-7.6,7.9-7.6c4.8,0,7.9,2.8,7.9,7.6c0,4.9-3.1,7.7-7.9,7.7S172.9,139.1,172.9,134.2z
			 M184.2,134.3c0-2.8-1.2-4.4-3.5-4.4s-3.5,1.5-3.5,4.4c0,2.8,1.2,4.3,3.5,4.3S184.2,137.1,184.2,134.3z"/>
		<path class="st0" d="M191.7,144.2c1.1-0.5,1.8-1,2.1-1.8c0.1-0.3,0.2-0.6,0.2-1c-0.2,0.2-0.5,0.3-0.9,0.3c-1.4,0-2.1-0.9-2.1-2.3
			c0-1.6,0.9-2.5,2.6-2.5c1.6,0,2.9,1.2,2.9,3.5c0,2.8-2.1,4.5-3.7,5.4C192.2,145.5,191.9,145,191.7,144.2z"/>
		<path class="st0" d="M217.9,138.3v-6c0-1.7-1-2.4-2.2-2.4c-2.3,0-3.3,2.4-3.3,5.4v6.3c-1.3,0.2-2.5,0.2-3.9,0l-0.4-0.4v-11.2
			l-2.3-0.1c-0.3-1-0.3-2,0-3.1c2.2-0.3,3.4-0.3,5.7,0l0.4,0.4v2.8l0.1,0c1.4-3,3.8-3.5,5.4-3.5c2.3,0,4.8,0.9,4.8,5.3v5.5
			c0,0.8,0.5,1,1.1,1c0.5,0,1-0.2,1.5-0.3c0.3,1.1,0.3,2.2,0,3.3c-0.8,0.1-2.1,0.3-3.1,0.3C219.1,141.8,217.9,140.6,217.9,138.3z"/>
		<path class="st0" d="M226.6,137.4c0-3.4,2.8-4.7,6.6-4.7c1,0,2.2,0.1,3.5,0.5v-0.9c0-1.5-0.9-2.5-3.2-2.5c-1.7,0-3.7,0.7-5.2,1.8
			c-1.1-0.9-1.4-2.5-1.1-3.7c2.2-1,4.6-1.2,6.9-1.2c4.2,0,6.8,1.3,6.8,5.9v4.9c0,0.9,0.5,1,1.1,1c0.4,0,1.1-0.1,1.6-0.2
			c0.2,1.1,0.2,2.1,0,3.2c-0.6,0.2-2.2,0.3-3.2,0.3c-1.9,0-2.9-0.7-3.2-1.8l-0.1-0.5c-0.7,1.2-2.3,2.5-5.3,2.5
			C228.6,141.9,226.6,140.2,226.6,137.4z M236.7,135.7v-0.1c-0.8-0.3-1.9-0.5-2.9-0.5c-2.3,0-2.9,1-2.9,2c0,1.3,1,1.8,2.5,1.8
			C234.9,138.9,236.7,138,236.7,135.7z"/>
		<path class="st0" d="M246.8,141.3v-11.2l-2.2-0.1c-0.3-1-0.3-2,0-3.1c2.2-0.3,3.1-0.3,5.3,0l0.4,0.4v3.5l0.1,0
			c0.4-1.8,1.5-4.1,4.3-4.1c1,0,1.8,0.1,2.2,0.3c0.2,1.5,0.2,2.9-0.1,4.4c-0.6-0.3-1.4-0.3-2.1-0.3c-3,0-3.6,2.5-3.6,5.1v5.6
			c-1.3,0.2-2.5,0.2-3.9,0L246.8,141.3z"/>
		<path class="st0" d="M258.7,137.4c0-3.4,2.8-4.7,6.6-4.7c1,0,2.2,0.1,3.5,0.5v-0.9c0-1.5-0.9-2.5-3.2-2.5c-1.7,0-3.7,0.7-5.2,1.8
			c-1.1-0.9-1.4-2.5-1.1-3.7c2.2-1,4.6-1.2,6.9-1.2c4.2,0,6.8,1.3,6.8,5.9v4.9c0,0.9,0.5,1,1.1,1c0.4,0,1.1-0.1,1.6-0.2
			c0.2,1.1,0.2,2.1,0,3.2c-0.6,0.2-2.2,0.3-3.2,0.3c-1.9,0-2.9-0.7-3.2-1.8l-0.1-0.5c-0.7,1.2-2.3,2.5-5.3,2.5
			C260.7,141.9,258.7,140.2,258.7,137.4z M268.9,135.7v-0.1c-0.8-0.3-1.9-0.5-2.9-0.5c-2.3,0-2.9,1-2.9,2c0,1.3,1,1.8,2.5,1.8
			C267.1,138.9,268.9,138,268.9,135.7z"/>
		<path class="st0" d="M288.7,138.3v-6c0-1.7-1-2.4-2.2-2.4c-2.3,0-3.3,2.4-3.3,5.4v6.3c-1.3,0.2-2.5,0.2-3.9,0l-0.4-0.4v-11.2
			l-2.3-0.1c-0.3-1-0.3-2,0-3.1c2.2-0.3,3.4-0.3,5.7,0l0.4,0.4v2.8l0.1,0c1.4-3,3.8-3.5,5.4-3.5c2.3,0,4.8,0.9,4.8,5.3v5.5
			c0,0.8,0.5,1,1.1,1c0.5,0,1-0.2,1.5-0.3c0.3,1.1,0.3,2.2,0,3.3c-0.8,0.1-2.1,0.3-3.1,0.3C289.8,141.8,288.7,140.6,288.7,138.3z"/>
		<path class="st0" d="M295,147.7c-0.2-1-0.2-2,0.1-3.1c0.8,0.3,1.4,0.4,2,0.4c1.6,0,2.1-1.2,2.1-4.2v-10.7l-2.5-0.1
			c-0.3-1-0.3-2.1,0-3.1c2.2-0.2,4.3-0.2,6.4,0l0.4,0.4v13.9c0,4.8-1.9,7-5.6,7C297.1,148.1,296.1,147.9,295,147.7z M298.5,122.4
			c0-1.5,1-2.2,2.6-2.2c1.7,0,2.7,0.7,2.7,2.2c0,1.6-1,2.3-2.7,2.3C299.5,124.7,298.5,123.9,298.5,122.4z"/>
		<path class="st0" d="M307.1,137.4c0-3.4,2.8-4.7,6.6-4.7c1,0,2.2,0.1,3.5,0.5v-0.9c0-1.5-0.9-2.5-3.2-2.5c-1.7,0-3.7,0.7-5.2,1.8
			c-1.1-0.9-1.4-2.5-1.1-3.7c2.2-1,4.6-1.2,6.9-1.2c4.2,0,6.8,1.3,6.8,5.9v4.9c0,0.9,0.5,1,1.1,1c0.4,0,1.1-0.1,1.6-0.2
			c0.2,1.1,0.2,2.1,0,3.2c-0.6,0.2-2.2,0.3-3.2,0.3c-1.9,0-2.9-0.7-3.2-1.8l-0.1-0.5c-0.7,1.2-2.3,2.5-5.3,2.5
			C309.1,141.9,307.1,140.2,307.1,137.4z M317.3,135.7v-0.1c-0.8-0.3-1.9-0.5-2.9-0.5c-2.3,0-2.9,1-2.9,2c0,1.3,1,1.8,2.5,1.8
			C315.5,138.9,317.3,138,317.3,135.7z"/>
		<path class="st0" d="M325.3,134.4c0-4.5,2.5-7.8,7.1-7.8c1.9,0,3.4,0.5,4.3,1.4l-0.1-4.4l-2.3-0.1c-0.3-1.1-0.3-2,0-3.1
			c2.2-0.3,4-0.2,6.2,0l0.4,0.4v16.5c0,0.7,0.4,1.2,1.2,1.2c0.4,0,0.9-0.1,1.4-0.3c0.3,1.1,0.3,2.2,0,3.4c-1,0.2-1.8,0.3-2.6,0.3
			c-2.1,0-3.2-0.7-3.6-2.1l-0.1-0.9c-1,2.2-2.9,3-5.2,3C327.6,141.9,325.3,138.7,325.3,134.4z M336.8,132.8v-1.9
			c-0.7-0.4-1.6-1-3.3-1c-2.3,0-3.7,1.6-3.7,4.5c0,2.8,1.3,4.2,3.4,4.2C336.4,138.6,336.7,134.9,336.8,132.8z"/>
		<path class="st0" d="M345.6,137.4c0-3.4,2.8-4.7,6.6-4.7c1,0,2.2,0.1,3.5,0.5v-0.9c0-1.5-0.9-2.5-3.2-2.5c-1.7,0-3.7,0.7-5.2,1.8
			c-1.1-0.9-1.4-2.5-1.1-3.7c2.2-1,4.6-1.2,6.9-1.2c4.2,0,6.8,1.3,6.8,5.9v4.9c0,0.9,0.5,1,1.1,1c0.4,0,1.1-0.1,1.6-0.2
			c0.2,1.1,0.2,2.1,0,3.2c-0.6,0.2-2.2,0.3-3.2,0.3c-1.9,0-2.9-0.7-3.2-1.8l-0.1-0.5c-0.7,1.2-2.3,2.5-5.3,2.5
			C347.5,141.9,345.6,140.2,345.6,137.4z M355.7,135.7v-0.1c-0.8-0.3-1.9-0.5-2.9-0.5c-2.3,0-2.9,1-2.9,2c0,1.3,1,1.8,2.5,1.8
			C353.9,138.9,355.7,138,355.7,135.7z"/>
		<path class="st0" d="M364.6,144.2c1.1-0.5,1.8-1,2.1-1.8c0.1-0.3,0.2-0.6,0.2-1c-0.2,0.2-0.5,0.3-0.9,0.3c-1.4,0-2.1-0.9-2.1-2.3
			c0-1.6,0.9-2.5,2.6-2.5c1.6,0,2.9,1.2,2.9,3.5c0,2.8-2.1,4.5-3.7,5.4C365.2,145.5,364.8,145,364.6,144.2z"/>
		<path class="st0" d="M380.2,138.4v-14.8l-2.3-0.1c-0.3-1.1-0.3-2,0-3.1c2.2-0.3,3.8-0.3,6.1,0l0.4,0.4v16.6c0,1.1,0.6,1.2,1.3,1.2
			c0.4,0,0.9-0.1,1.4-0.3c0.3,1.1,0.3,2.2,0,3.4c-1,0.2-1.7,0.3-2.9,0.3C381.4,141.9,380.2,140.6,380.2,138.4z"/>
		<path class="st0" d="M390.6,138.3l0-8.2l-2.1-0.1c-0.3-1-0.3-2.1,0-3.1c2.2-0.2,3.8-0.2,6,0l0.4,0.4v10.1c0,0.9,0.5,1.2,1.1,1.2
			c0.4,0,0.9-0.1,1.4-0.3c0.3,1.1,0.3,2.2,0,3.4c-1,0.2-1.7,0.3-2.9,0.3C391.7,141.8,390.6,140.6,390.6,138.3z M390.1,122.4
			c0-1.5,1-2.2,2.6-2.2c1.7,0,2.7,0.7,2.7,2.2c0,1.6-1,2.3-2.7,2.3C391.1,124.7,390.1,123.9,390.1,122.4z"/>
		<path class="st0" d="M419.4,138.3v-5.5c0-1.5-0.5-2.8-2.1-2.8c-2.2,0-2.6,2.8-2.6,4.9v6.8c-1.3,0.2-2.6,0.2-3.9,0l-0.4-0.3l0-8.9
			c0-1.2-0.6-2.5-2-2.5c-1.9,0-2.7,2.3-2.7,4.9v6.8c-1.3,0.2-2.6,0.2-3.9,0l-0.4-0.4l0-11.2l-2.3-0.1c-0.2-1-0.2-2,0-3.1
			c2.2-0.3,3.4-0.3,5.6,0l0.4,0.4v2.7l0.1,0c1-2.2,2.6-3.4,4.7-3.4c1.8,0,3.7,0.9,4.2,3.5c0.9-2.1,2.3-3.5,4.9-3.5
			c2.3,0,4.7,1.1,4.7,5.1v6c0,0.9,0.5,1.1,1.1,1.1c0.5,0,0.9-0.1,1.4-0.3c0.3,1,0.3,2.1,0,3.1c-0.8,0.1-1.7,0.3-2.7,0.3
			C420.5,141.8,419.4,140.6,419.4,138.3z"/>
		<path class="st0" d="M427.9,134.2c0-4.9,3.1-7.6,7.9-7.6s7.9,2.8,7.9,7.6c0,4.9-3.1,7.7-7.9,7.7S427.9,139.1,427.9,134.2z
			 M439.2,134.3c0-2.8-1.2-4.4-3.5-4.4s-3.5,1.5-3.5,4.4c0,2.8,1.2,4.3,3.5,4.3S439.2,137.1,439.2,134.3z"/>
		<path class="st0" d="M457.8,138.3v-6c0-1.7-1-2.4-2.2-2.4c-2.3,0-3.3,2.4-3.3,5.4v6.3c-1.3,0.2-2.5,0.2-3.9,0l-0.4-0.4v-11.2
			l-2.3-0.1c-0.3-1-0.3-2,0-3.1c2.2-0.3,3.4-0.3,5.7,0l0.4,0.4v2.8l0.1,0c1.4-3,3.8-3.5,5.4-3.5c2.3,0,4.8,0.9,4.8,5.3v5.5
			c0,0.8,0.5,1,1.1,1c0.5,0,1-0.2,1.5-0.3c0.3,1.1,0.3,2.2,0,3.3c-0.8,0.1-2.1,0.3-3.1,0.3C458.9,141.8,457.8,140.6,457.8,138.3z"/>
		<path class="st0" d="M466.4,137.4c0-3.4,2.8-4.7,6.6-4.7c1,0,2.2,0.1,3.5,0.5v-0.9c0-1.5-0.9-2.5-3.2-2.5c-1.7,0-3.7,0.7-5.2,1.8
			c-1.1-0.9-1.4-2.5-1.1-3.7c2.2-1,4.6-1.2,6.9-1.2c4.2,0,6.8,1.3,6.8,5.9v4.9c0,0.9,0.5,1,1.1,1c0.4,0,1.1-0.1,1.6-0.2
			c0.2,1.1,0.2,2.1,0,3.2c-0.6,0.2-2.2,0.3-3.2,0.3c-1.9,0-2.9-0.7-3.2-1.8l-0.1-0.5c-0.7,1.2-2.3,2.5-5.3,2.5
			C468.4,141.9,466.4,140.2,466.4,137.4z M476.6,135.7v-0.1c-0.8-0.3-1.9-0.5-2.9-0.5c-2.3,0-2.9,1-2.9,2c0,1.3,1,1.8,2.5,1.8
			C474.8,138.9,476.6,138,476.6,135.7z"/>
		<path class="st0" d="M484.7,134.4c0-4.5,2.5-7.8,7.1-7.8c1.9,0,3.4,0.5,4.3,1.4l-0.1-4.4l-2.3-0.1c-0.3-1.1-0.3-2,0-3.1
			c2.2-0.3,4-0.2,6.2,0l0.4,0.4v16.5c0,0.7,0.4,1.2,1.2,1.2c0.4,0,0.9-0.1,1.4-0.3c0.3,1.1,0.3,2.2,0,3.4c-1,0.2-1.8,0.3-2.6,0.3
			c-2.1,0-3.2-0.7-3.6-2.1l-0.1-0.9c-1,2.2-2.9,3-5.2,3C486.9,141.9,484.7,138.7,484.7,134.4z M496.1,132.8v-1.9
			c-0.7-0.4-1.6-1-3.3-1c-2.3,0-3.7,1.6-3.7,4.5c0,2.8,1.3,4.2,3.4,4.2C495.7,138.6,496,134.9,496.1,132.8z"/>
		<path class="st0" d="M504.9,137.4c0-3.4,2.8-4.7,6.6-4.7c1,0,2.2,0.1,3.5,0.5v-0.9c0-1.5-0.9-2.5-3.2-2.5c-1.7,0-3.7,0.7-5.2,1.8
			c-1.1-0.9-1.4-2.5-1.1-3.7c2.2-1,4.6-1.2,6.9-1.2c4.2,0,6.8,1.3,6.8,5.9v4.9c0,0.9,0.5,1,1.1,1c0.4,0,1.1-0.1,1.6-0.2
			c0.2,1.1,0.2,2.1,0,3.2c-0.6,0.2-2.2,0.3-3.2,0.3c-1.9,0-2.9-0.7-3.2-1.8l-0.1-0.5c-0.7,1.2-2.3,2.5-5.3,2.5
			C506.9,141.9,504.9,140.2,504.9,137.4z M515,135.7v-0.1c-0.8-0.3-1.9-0.5-2.9-0.5c-2.3,0-2.9,1-2.9,2c0,1.3,1,1.8,2.5,1.8
			C513.3,138.9,515,138,515,135.7z"/>
		<path class="st0" d="M530.2,134.2c0-4.9,3.1-7.6,7.9-7.6c4.8,0,7.9,2.8,7.9,7.6c0,4.9-3.1,7.7-7.9,7.7S530.2,139.1,530.2,134.2z
			 M541.5,134.3c0-2.8-1.2-4.4-3.5-4.4s-3.5,1.5-3.5,4.4c0,2.8,1.2,4.3,3.5,4.3S541.5,137.1,541.5,134.3z"/>
		<path class="st0" d="M555.5,137.4c0-3.4,2.8-4.7,6.6-4.7c1,0,2.2,0.1,3.5,0.5v-0.9c0-1.5-0.9-2.5-3.2-2.5c-1.7,0-3.7,0.7-5.2,1.8
			c-1.1-0.9-1.4-2.5-1.1-3.7c2.2-1,4.6-1.2,6.9-1.2c4.2,0,6.8,1.3,6.8,5.9v4.9c0,0.9,0.5,1,1.1,1c0.4,0,1.1-0.1,1.6-0.2
			c0.2,1.1,0.2,2.1,0,3.2c-0.6,0.2-2.2,0.3-3.2,0.3c-1.9,0-2.9-0.7-3.2-1.8l-0.1-0.5c-0.7,1.2-2.3,2.5-5.3,2.5
			C557.5,141.9,555.5,140.2,555.5,137.4z M565.7,135.7v-0.1c-0.8-0.3-1.9-0.5-2.9-0.5c-2.3,0-2.9,1-2.9,2c0,1.3,1,1.8,2.5,1.8
			C563.9,138.9,565.7,138,565.7,135.7z"/>
		<path class="st0" d="M573.2,144.6c0-1.6,1.2-2.7,2.9-3.3c-0.6-0.5-0.9-1.2-0.9-2.2c0-1.2,0.5-1.9,1.2-2.5
			c-1.7-0.9-2.7-2.4-2.7-4.5c0-3.5,3-5.5,7.1-5.5c1.7,0,3.2,0.3,4.4,1l3.5-1.3c0.8,0.5,1.4,2.4,1.1,3.6l-2.5,0.1
			c0.4,0.6,0.6,1.2,0.6,2.1c0,3.1-2.5,5.5-7.1,5.5c-0.7,0-1.4-0.1-2-0.2c-0.1,0.2-0.3,0.4-0.3,0.7c0,1.1,1.4,1.3,3.6,1.3h0.8
			c3.6,0,5.7,0.4,5.7,3.3c0,4-4,5.4-8.7,5.4C576.2,148.1,573.2,147.2,573.2,144.6z M584.6,143.5c0-0.9-0.7-1-2.1-1h-0.9
			c-1.4,0-2.6-0.1-3.6-0.3c-0.6,0.3-1,0.7-1,1.4c0,1,0.5,1.9,3.5,1.9C583.3,145.5,584.6,144.8,584.6,143.5z M583.8,132.1
			c0-1.9-1.3-2.8-3-2.8c-1.7,0-2.9,0.9-2.9,2.8c0,1.9,1.3,2.8,3,2.8C582.6,134.8,583.8,133.9,583.8,132.1z"/>
		<path class="st0" d="M593.4,136.6v-6.5l-2.3-0.1c-0.3-1-0.3-2.1,0-3.1c2.2-0.3,3.9-0.2,6.1,0l0.4,0.4v8.9c0,1.7,0.9,2.4,2.1,2.4
			c2.3,0,3.2-2.3,3.2-5.1v-6.6c1.3-0.2,2.7-0.3,4.1,0l0.4,0.4l-0.2,3.9v6.1c0,0.9,0.6,1.2,1.3,1.2c0.5,0,0.8-0.2,1.4-0.3
			c0.3,1.1,0.3,2.2,0,3.4c-0.7,0.1-1.5,0.3-2.6,0.3c-2.5,0-3.7-0.9-4-2.6l0-0.7c-1.2,2.6-3.2,3.3-5.2,3.3
			C595.8,141.9,593.4,141,593.4,136.6z"/>
		<path class="st0" d="M612.1,137.4c0-3.4,2.8-4.7,6.6-4.7c1,0,2.2,0.1,3.5,0.5v-0.9c0-1.5-0.9-2.5-3.2-2.5c-1.7,0-3.7,0.7-5.2,1.8
			c-1.1-0.9-1.4-2.5-1.1-3.7c2.2-1,4.6-1.2,6.9-1.2c4.2,0,6.8,1.3,6.8,5.9v4.9c0,0.9,0.5,1,1.1,1c0.4,0,1.1-0.1,1.6-0.2
			c0.2,1.1,0.2,2.1,0,3.2c-0.6,0.2-2.2,0.3-3.2,0.3c-1.9,0-2.9-0.7-3.2-1.8l-0.1-0.5c-0.7,1.2-2.3,2.5-5.3,2.5
			C614.1,141.9,612.1,140.2,612.1,137.4z M622.2,135.7v-0.1c-0.8-0.3-1.9-0.5-2.9-0.5c-2.3,0-2.9,1-2.9,2c0,1.3,1,1.8,2.5,1.8
			C620.4,138.9,622.2,138,622.2,135.7z"/>
		<path class="st0" d="M637.4,134.4c0-4.5,2.5-7.8,7.1-7.8c1.9,0,3.4,0.5,4.3,1.4l-0.1-4.4l-2.3-0.1c-0.3-1.1-0.3-2,0-3.1
			c2.2-0.3,4-0.2,6.2,0l0.4,0.4v16.5c0,0.7,0.4,1.2,1.2,1.2c0.4,0,0.9-0.1,1.4-0.3c0.3,1.1,0.3,2.2,0,3.4c-1,0.2-1.8,0.3-2.6,0.3
			c-2.1,0-3.2-0.7-3.6-2.1l-0.1-0.9c-1,2.2-2.9,3-5.2,3C639.6,141.9,637.4,138.7,637.4,134.4z M648.8,132.8v-1.9
			c-0.7-0.4-1.6-1-3.3-1c-2.3,0-3.7,1.6-3.7,4.5c0,2.8,1.3,4.2,3.4,4.2C648.4,138.6,648.8,134.9,648.8,132.8z"/>
		<path class="st0" d="M657.4,134.4c0-4.8,2.9-7.8,8-7.8c6.7,0,7.8,4.9,6.5,9h-10.1c0.2,2,1.4,3.3,4.2,3.3c2.1,0,4.3-0.7,5.5-1.3
			c0.5,1,0.7,2.3,0.3,3.4c-2,0.7-4.2,0.9-5.9,0.9C660.1,141.9,657.4,139.1,657.4,134.4z M667.9,132.9c0.3-2-0.6-3.2-2.7-3.2
			c-1.6,0-2.9,0.8-3.3,3.2H667.9z"/>
		<path class="st0" d="M682.2,140.9c-0.1-1.3,0.1-2.5,0.5-3.5c1.8,0.9,3.4,1.6,5.4,1.6c2.1,0,2.4-0.8,2.4-1.4c0-1.3-1.6-1.4-3.8-1.8
			c-2.2-0.5-4.7-1.2-4.7-4.5c0-3.5,2.7-4.7,6.6-4.7c2.3,0,4.4,0.5,5.8,1.2c-0.1,1.4-0.3,2.3-0.7,3.1c-1-0.6-3.1-1.4-5.1-1.4
			c-1.9,0-2.5,0.5-2.5,1.4c0,1.2,1,1.4,3.4,1.9c2.4,0.5,5.6,1.1,5.6,4.5c0,3.6-3.3,4.5-7.1,4.5C685.7,141.9,683.9,141.5,682.2,140.9
			z"/>
		<path class="st0" d="M697.7,137.4c0-3.4,2.8-4.7,6.6-4.7c1,0,2.2,0.1,3.5,0.5v-0.9c0-1.5-0.9-2.5-3.2-2.5c-1.7,0-3.7,0.7-5.2,1.8
			c-1.1-0.9-1.4-2.5-1.1-3.7c2.2-1,4.6-1.2,6.9-1.2c4.2,0,6.8,1.3,6.8,5.9v4.9c0,0.9,0.5,1,1.1,1c0.4,0,1.1-0.1,1.6-0.2
			c0.2,1.1,0.2,2.1,0,3.2c-0.6,0.2-2.2,0.3-3.2,0.3c-1.9,0-2.9-0.7-3.2-1.8l-0.1-0.5c-0.7,1.2-2.3,2.5-5.3,2.5
			C699.7,141.9,697.7,140.2,697.7,137.4z M707.8,135.7v-0.1c-0.8-0.3-1.9-0.5-2.9-0.5c-2.3,0-2.9,1-2.9,2c0,1.3,1,1.8,2.5,1.8
			C706.1,138.9,707.8,138,707.8,135.7z"/>
		<path class="st0" d="M721,140.2l-0.2,1.4c-1,0.1-2.4,0.1-3.3,0l-0.4-0.4v-17.7l-2.3-0.1c-0.3-1.1-0.3-2.1,0-3.1
			c2.2-0.3,4-0.2,6.2,0l0.4,0.4v4.1l-0.1,4.7c1-2,3-2.9,5.1-2.9c4.4,0,6.3,3.6,6.3,7.4c0,4.3-2.4,7.9-7.2,7.9
			C723.2,141.9,721.8,141.1,721,140.2z M728.3,133.9c0-2.5-1.2-4-3.3-4c-3.2,0-3.7,3.9-3.7,5.9v1.6c0.3,0.2,1.4,1.2,3.2,1.2
			C727.1,138.6,728.3,136.5,728.3,133.9z"/>
		<path class="st0" d="M735.1,134.2c0-4.9,3.1-7.6,7.9-7.6s7.9,2.8,7.9,7.6c0,4.9-3.1,7.7-7.9,7.7S735.1,139.1,735.1,134.2z
			 M746.4,134.3c0-2.8-1.2-4.4-3.5-4.4s-3.5,1.5-3.5,4.4c0,2.8,1.2,4.3,3.5,4.3S746.4,137.1,746.4,134.3z"/>
		<path class="st0" d="M755.2,141.3v-11.2L753,130c-0.3-1-0.3-2,0-3.1c2.2-0.3,3.1-0.3,5.3,0l0.4,0.4v3.5l0.1,0
			c0.4-1.8,1.5-4.1,4.3-4.1c1,0,1.8,0.1,2.2,0.3c0.2,1.5,0.2,2.9-0.1,4.4c-0.6-0.3-1.4-0.3-2.1-0.3c-3,0-3.6,2.5-3.6,5.1v5.6
			c-1.3,0.2-2.5,0.2-3.9,0L755.2,141.3z"/>
		<path class="st0" d="M773.5,134.4c0-4.5,2.5-7.8,7.1-7.8c1.9,0,3.4,0.5,4.3,1.4l-0.1-4.4l-2.3-0.1c-0.3-1.1-0.3-2,0-3.1
			c2.2-0.3,4-0.2,6.2,0l0.4,0.4v16.5c0,0.7,0.4,1.2,1.2,1.2c0.4,0,0.9-0.1,1.4-0.3c0.3,1.1,0.3,2.2,0,3.4c-1,0.2-1.8,0.3-2.6,0.3
			c-2.1,0-3.2-0.7-3.6-2.1l-0.1-0.9c-1,2.2-2.9,3-5.2,3C775.8,141.9,773.5,138.7,773.5,134.4z M784.9,132.8v-1.9
			c-0.7-0.4-1.6-1-3.3-1c-2.3,0-3.7,1.6-3.7,4.5c0,2.8,1.3,4.2,3.4,4.2C784.6,138.6,784.9,134.9,784.9,132.8z"/>
		<path class="st0" d="M793.6,134.4c0-4.8,2.9-7.8,8-7.8c6.7,0,7.8,4.9,6.5,9H798c0.2,2,1.4,3.3,4.2,3.3c2.1,0,4.3-0.7,5.5-1.3
			c0.5,1,0.7,2.3,0.3,3.4c-2,0.7-4.2,0.9-5.9,0.9C796.3,141.9,793.6,139.1,793.6,134.4z M804.1,132.9c0.3-2-0.6-3.2-2.7-3.2
			c-1.6,0-2.9,0.8-3.3,3.2H804.1z"/>
		<path class="st0" d="M818.5,140.8c-0.4-1.4-0.2-2.6,0.3-3.7c1.4,0.7,3.2,1.5,5.5,1.5c2.3,0,3.7-0.9,3.7-2.7s-1.5-2.6-3.5-2.6
			l-2.5,0.1c-0.4-1.1-0.4-2.2,0-3.3l2.2,0.1c2.1,0.1,3.8-0.9,3.8-2.8c0-1.9-1.4-2.7-3.2-2.7c-2.2,0-3.6,1-4.6,2
			c-1-0.4-1.8-1.2-2.2-3c1-0.9,3.3-2.4,7.3-2.4c5.3,0,7.2,2.6,7.2,5.5c0,1.9-0.9,3.9-4,4.8c3.1,0.5,4.6,2.4,4.6,4.9
			c0,3.8-3.6,5.5-8.2,5.5C821.9,141.9,819.7,141.3,818.5,140.8z"/>
		<path class="st0" d="M837.4,138.4c-1-1.6-1.5-4.1-1.5-6.3c0-6.3,3.3-10.7,9.3-10.7c2,0,4,0.3,5.6,0.8c0.5,1.4,0.3,2.7-0.4,3.9
			c-1.2-0.6-2.8-1.2-4.6-1.2c-3.6,0-5.2,2-5.5,5.5v0.6c1-1.4,2.7-2.4,5.1-2.4c3.8,0,6.5,2.2,6.5,6.5c0,4.4-3.2,6.8-7.7,6.8
			C840.9,141.9,838.8,140.7,837.4,138.4z M847.2,135.1c0-1.8-1-3.4-3.2-3.4c-2.3,0-3.3,1.7-3.3,3.4c0,0.5,0.1,1.1,0.3,1.4
			c0.5,1.2,1.6,1.9,3,1.9C846,138.5,847.2,137.1,847.2,135.1z"/>
		<path class="st0" d="M854.6,131.7c0-6.8,3.6-10.3,8.7-10.3c5.1,0,8.6,3.5,8.6,10.3c0,6.8-3.6,10.3-8.6,10.3
			C858.2,142,854.6,138.5,854.6,131.7z M867.2,131.7c0-4.5-1.4-6.7-4-6.7c-2.5,0-4,2.2-4,6.7c0,4.5,1.4,6.7,4,6.7
			C865.8,138.4,867.2,136.2,867.2,131.7z"/>
		<path class="st0" d="M901.6,138.3v-5.5c0-1.5-0.5-2.8-2.1-2.8c-2.2,0-2.6,2.8-2.6,4.9v6.8c-1.3,0.2-2.6,0.2-3.9,0l-0.4-0.3l0-8.9
			c0-1.2-0.6-2.5-2-2.5c-1.9,0-2.7,2.3-2.7,4.9v6.8c-1.3,0.2-2.6,0.2-3.9,0l-0.4-0.4l0-11.2l-2.3-0.1c-0.2-1-0.2-2,0-3.1
			c2.2-0.3,3.4-0.3,5.6,0l0.4,0.4v2.7l0.1,0c1-2.2,2.6-3.4,4.7-3.4c1.8,0,3.7,0.9,4.2,3.5c0.9-2.1,2.3-3.5,4.9-3.5
			c2.3,0,4.7,1.1,4.7,5.1v6c0,0.9,0.5,1.1,1.1,1.1c0.5,0,0.9-0.1,1.4-0.3c0.3,1,0.3,2.1,0,3.1c-0.8,0.1-1.7,0.3-2.7,0.3
			C902.7,141.8,901.6,140.6,901.6,138.3z"/>
		<path class="st0" d="M912.3,141.3v-15.8l-2.8-0.1c-0.3-1.2-0.3-2.4,0-3.6c2.4-0.2,4.7-0.2,7.1,0l0.4,0.4v15.8h9.4
			c0.3,1.2,0.3,2.5,0,3.7h-13.6L912.3,141.3z"/>
		<path class="st0" d="M935.7,133.7c0,6.6-2.9,10.9-4.3,12.8c-1.4,0.3-2.9,0.3-4.3,0c1.6-2.4,4.5-6.3,4.5-12.8
			c0-6.5-2.9-10.5-4.5-12.8c1.4-0.3,2.9-0.3,4.3,0C932.8,122.8,935.7,127,935.7,133.7z"/>
		<path class="st0" d="M60.3,182.6l0-15.8l-2.8-0.1c-0.3-1.2-0.3-2.4,0-3.6c2.6-0.3,5.1-0.3,7.7,0l8.4,13.1h0.1l-0.3-5.3v-7.8
			c1.3-0.2,2.8-0.2,4.2,0l0.4,0.4l-0.2,3.9V183c-1.6,0.3-3.2,0.3-4.8,0l-8.4-13.4h-0.2l0.2,5.3v8.1c-1.3,0.2-2.6,0.2-3.9,0
			L60.3,182.6z"/>
		<path class="st0" d="M81.5,175.6c0-4.9,3.1-7.6,7.9-7.6c4.8,0,7.9,2.8,7.9,7.6c0,4.9-3.1,7.7-7.9,7.7S81.5,180.4,81.5,175.6z
			 M92.9,175.6c0-2.8-1.2-4.4-3.5-4.4s-3.5,1.5-3.5,4.4c0,2.8,1.2,4.3,3.5,4.3S92.9,178.4,92.9,175.6z"/>
		<path class="st0" d="M108.7,179.6l0-8.2l-2.1-0.1c-0.3-1-0.3-2.1,0-3.1c2.2-0.2,3.8-0.2,6,0l0.4,0.4v10.1c0,0.9,0.5,1.2,1.1,1.2
			c0.4,0,0.9-0.1,1.4-0.3c0.3,1.1,0.3,2.2,0,3.4c-1,0.2-1.7,0.3-2.9,0.3C109.8,183.2,108.6,181.9,108.7,179.6z M108.2,163.7
			c0-1.5,1-2.2,2.6-2.2c1.7,0,2.7,0.7,2.7,2.2c0,1.6-1,2.3-2.7,2.3C109.2,166,108.2,165.3,108.2,163.7z"/>
		<path class="st0" d="M129.3,179.6v-6c0-1.7-1-2.4-2.2-2.4c-2.3,0-3.3,2.4-3.3,5.4v6.3c-1.3,0.2-2.5,0.2-3.9,0l-0.4-0.4v-11.2
			l-2.3-0.1c-0.3-1-0.3-2,0-3.1c2.2-0.3,3.4-0.3,5.7,0l0.4,0.4v2.8l0.1,0c1.4-3,3.8-3.5,5.4-3.5c2.3,0,4.8,0.9,4.8,5.3v5.5
			c0,0.8,0.5,1,1.1,1c0.5,0,1-0.2,1.5-0.3c0.3,1.1,0.3,2.2,0,3.3c-0.8,0.1-2.1,0.3-3.1,0.3C130.4,183.1,129.3,181.9,129.3,179.6z"/>
		<path class="st0" d="M137.7,175.6c0-5.1,3.3-7.6,8.3-7.6c2.2,0,4.1,0.5,5.8,1.4c-0.1,1.2-0.3,2.3-1,3.4c-1.3-0.9-2.7-1.7-4.5-1.7
			c-2.5,0-4.2,1.5-4.2,4.4c0,3,1.9,4.6,4.5,4.6c1.4,0,3-0.5,4.4-1.2c0.6,1.1,0.7,2.2,0.6,3.3c-1.8,0.8-4,1.1-5.5,1.1
			C141.6,183.2,137.7,181,137.7,175.6z"/>
		<path class="st0" d="M155.2,179.7v-14.8l-2.3-0.1c-0.3-1.1-0.3-2,0-3.1c2.2-0.3,3.8-0.3,6.1,0l0.4,0.4v16.6c0,1.1,0.6,1.2,1.3,1.2
			c0.4,0,0.9-0.1,1.4-0.3c0.3,1.1,0.3,2.2,0,3.4c-1,0.2-1.7,0.3-2.9,0.3C156.3,183.2,155.2,182,155.2,179.7z"/>
		<path class="st0" d="M165.7,177.9v-6.5l-2.3-0.1c-0.3-1-0.3-2.1,0-3.1c2.2-0.3,3.9-0.2,6.1,0l0.4,0.4v8.9c0,1.7,0.9,2.4,2.1,2.4
			c2.3,0,3.2-2.3,3.2-5.1v-6.6c1.3-0.2,2.7-0.3,4.1,0l0.4,0.4l-0.2,3.9v6.1c0,0.9,0.6,1.2,1.3,1.2c0.5,0,0.8-0.2,1.4-0.3
			c0.3,1.1,0.3,2.2,0,3.4c-0.7,0.1-1.5,0.3-2.6,0.3c-2.5,0-3.7-0.9-4-2.6l0-0.7c-1.2,2.6-3.2,3.3-5.2,3.3
			C168.1,183.3,165.7,182.3,165.7,177.9z"/>
		<path class="st0" d="M187.5,188.8l2.7-6.1l-5.1-11.3l-2.2-0.1c-0.2-1.1-0.2-2,0-3.1c1.5-0.3,3.5-0.2,5.3,0l2.1,4.7l2,5.1h0.1
			l1.8-5.2l1.7-4.6c1.2-0.2,2.6-0.2,3.8,0l0.3,0.4l-8.1,20.4c-1.4,0.5-2.7,0.5-4.1,0.2L187.5,188.8z"/>
		<path class="st0" d="M201.3,175.8c0-4.8,2.9-7.8,8-7.8c6.7,0,7.8,4.9,6.5,9h-10.1c0.2,2,1.4,3.3,4.2,3.3c2.1,0,4.3-0.7,5.5-1.3
			c0.5,1,0.7,2.3,0.3,3.4c-2,0.7-4.2,0.9-5.9,0.9C204,183.2,201.3,180.4,201.3,175.8z M211.8,174.2c0.3-2-0.6-3.2-2.7-3.2
			c-1.6,0-2.9,0.8-3.3,3.2H211.8z"/>
		<path class="st0" d="M227.8,182.6v-11.2l-2.2-0.1c-0.3-1-0.3-2,0-3.1c2.2-0.3,3.1-0.3,5.3,0l0.4,0.4v3.5l0.1,0
			c0.4-1.8,1.5-4.1,4.3-4.1c1,0,1.8,0.1,2.2,0.3c0.2,1.5,0.2,2.9-0.1,4.4c-0.6-0.3-1.4-0.3-2.1-0.3c-3,0-3.6,2.5-3.6,5.1v5.6
			c-1.3,0.2-2.5,0.2-3.9,0L227.8,182.6z"/>
		<path class="st0" d="M239.6,175.8c0-4.8,2.9-7.8,8-7.8c6.7,0,7.8,4.9,6.5,9H244c0.2,2,1.4,3.3,4.2,3.3c2.1,0,4.3-0.7,5.5-1.3
			c0.5,1,0.7,2.3,0.3,3.4c-2,0.7-4.2,0.9-5.9,0.9C242.3,183.2,239.6,180.4,239.6,175.8z M250.1,174.2c0.3-2-0.6-3.2-2.7-3.2
			c-1.6,0-2.9,0.8-3.3,3.2H250.1z"/>
		<path class="st0" d="M259.1,182.6v-11.2l-2.3-0.1c-0.3-1-0.3-2.1,0-3.1h2.3v-1c0-4.1,2.5-5.7,6-5.7c1.2,0,2.4,0.1,3.7,0.4
			c0.2,1.2,0.2,2.4-0.2,3.6c-0.8-0.5-1.6-0.8-2.6-0.8c-1.6,0-2.7,0.8-2.7,2.6v0.9l3.6-0.1c0.3,1,0.3,2,0,3.1h-3.6V183
			c-1.3,0.2-2.6,0.2-3.9,0L259.1,182.6z"/>
		<path class="st0" d="M270.7,182.6v-11.2l-2.2-0.1c-0.3-1-0.3-2,0-3.1c2.2-0.3,3.1-0.3,5.3,0l0.4,0.4v3.5l0.1,0
			c0.4-1.8,1.5-4.1,4.3-4.1c1,0,1.8,0.1,2.2,0.3c0.2,1.5,0.2,2.9-0.1,4.4c-0.6-0.3-1.4-0.3-2.1-0.3c-3,0-3.6,2.5-3.6,5.1v5.6
			c-1.3,0.2-2.5,0.2-3.9,0L270.7,182.6z"/>
		<path class="st0" d="M282.5,175.8c0-4.8,2.9-7.8,8-7.8c6.7,0,7.8,4.9,6.5,9h-10.1c0.2,2,1.4,3.3,4.2,3.3c2.1,0,4.3-0.7,5.5-1.3
			c0.5,1,0.6,2.3,0.3,3.4c-2,0.7-4.2,0.9-5.9,0.9C285.2,183.2,282.5,180.4,282.5,175.8z M293,174.2c0.3-2-0.6-3.2-2.7-3.2
			c-1.6,0-2.9,0.8-3.3,3.2H293z"/>
		<path class="st0" d="M300.2,182.2c-0.1-1.3,0.1-2.5,0.5-3.5c1.8,0.9,3.4,1.6,5.4,1.6c2.1,0,2.4-0.8,2.4-1.4c0-1.3-1.6-1.4-3.8-1.8
			c-2.2-0.5-4.7-1.2-4.7-4.5c0-3.5,2.7-4.7,6.6-4.7c2.3,0,4.4,0.5,5.8,1.2c-0.1,1.4-0.3,2.3-0.7,3.1c-1-0.6-3.1-1.4-5.1-1.4
			c-1.9,0-2.5,0.5-2.5,1.4c0,1.2,1,1.4,3.4,1.9c2.4,0.5,5.6,1.1,5.6,4.5c0,3.6-3.3,4.5-7.1,4.5C303.7,183.2,301.9,182.9,300.2,182.2
			z"/>
		<path class="st0" d="M315.5,175.6c0-5.1,3.3-7.6,8.3-7.6c2.2,0,4.1,0.5,5.8,1.4c-0.1,1.2-0.3,2.3-1,3.4c-1.3-0.9-2.7-1.7-4.5-1.7
			c-2.5,0-4.2,1.5-4.2,4.4c0,3,1.9,4.6,4.5,4.6c1.4,0,3-0.5,4.4-1.2c0.6,1.1,0.7,2.2,0.6,3.3c-1.8,0.8-4,1.1-5.5,1.1
			C319.4,183.2,315.5,181,315.5,175.6z"/>
		<path class="st0" d="M331.6,175.6c0-4.9,3.1-7.6,7.9-7.6c4.8,0,7.9,2.8,7.9,7.6c0,4.9-3.1,7.7-7.9,7.7S331.6,180.4,331.6,175.6z
			 M342.9,175.6c0-2.8-1.2-4.4-3.5-4.4s-3.5,1.5-3.5,4.4c0,2.8,1.2,4.3,3.5,4.3S342.9,178.4,342.9,175.6z"/>
		<path class="st0" d="M350,182.2c-0.1-1.3,0.1-2.5,0.5-3.5c1.8,0.9,3.4,1.6,5.4,1.6c2.1,0,2.4-0.8,2.4-1.4c0-1.3-1.6-1.4-3.8-1.8
			c-2.2-0.5-4.7-1.2-4.7-4.5c0-3.5,2.7-4.7,6.6-4.7c2.3,0,4.4,0.5,5.8,1.2c-0.1,1.4-0.3,2.3-0.7,3.1c-1-0.6-3.1-1.4-5.1-1.4
			c-1.9,0-2.5,0.5-2.5,1.4c0,1.2,1,1.4,3.4,1.9c2.4,0.5,5.6,1.1,5.6,4.5c0,3.6-3.3,4.5-7.1,4.5C353.5,183.2,351.7,182.9,350,182.2z"
			/>
		<path class="st0" d="M372.4,175.8c0-4.8,2.9-7.8,8-7.8c6.7,0,7.8,4.9,6.5,9h-10.1c0.2,2,1.4,3.3,4.2,3.3c2.1,0,4.3-0.7,5.5-1.3
			c0.5,1,0.6,2.3,0.3,3.4c-2,0.7-4.2,0.9-5.9,0.9C375.1,183.2,372.4,180.4,372.4,175.8z M382.9,174.2c0.3-2-0.6-3.2-2.7-3.2
			c-1.6,0-2.9,0.8-3.3,3.2H382.9z"/>
		<path class="st0" d="M401.5,179.6v-6c0-1.7-1-2.4-2.2-2.4c-2.3,0-3.3,2.4-3.3,5.4v6.3c-1.3,0.2-2.5,0.2-3.9,0l-0.4-0.4v-11.2
			l-2.3-0.1c-0.3-1-0.3-2,0-3.1c2.2-0.3,3.4-0.3,5.7,0l0.4,0.4v2.8l0.1,0c1.4-3,3.8-3.5,5.4-3.5c2.3,0,4.8,0.9,4.8,5.3v5.5
			c0,0.8,0.5,1,1.1,1c0.5,0,1-0.2,1.5-0.3c0.3,1.1,0.3,2.2,0,3.3c-0.8,0.1-2.1,0.3-3.1,0.3C402.6,183.1,401.5,181.9,401.5,179.6z"/>
		<path class="st0" d="M418.2,179.7v-14.8l-2.3-0.1c-0.3-1.1-0.3-2,0-3.1c2.2-0.3,3.8-0.3,6.1,0l0.4,0.4v16.6c0,1.1,0.6,1.2,1.3,1.2
			c0.4,0,0.9-0.1,1.4-0.3c0.3,1.1,0.3,2.2,0,3.4c-1,0.2-1.7,0.3-2.9,0.3C419.3,183.2,418.2,182,418.2,179.7z"/>
		<path class="st0" d="M427,178.7c0-3.4,2.8-4.7,6.6-4.7c1,0,2.2,0.1,3.5,0.5v-0.9c0-1.5-0.9-2.5-3.2-2.5c-1.7,0-3.7,0.7-5.2,1.8
			c-1.1-0.9-1.4-2.5-1.1-3.7c2.2-1,4.6-1.2,6.9-1.2c4.2,0,6.8,1.3,6.8,5.9v4.9c0,0.9,0.5,1,1.1,1c0.4,0,1.1-0.1,1.6-0.2
			c0.2,1.1,0.2,2.1,0,3.2c-0.6,0.2-2.2,0.3-3.2,0.3c-1.9,0-2.9-0.7-3.2-1.8l-0.1-0.5c-0.7,1.2-2.3,2.5-5.3,2.5
			C429,183.2,427,181.5,427,178.7z M437.2,177.1v-0.1c-0.8-0.3-1.9-0.5-2.9-0.5c-2.3,0-2.9,1-2.9,2c0,1.3,1,1.8,2.5,1.8
			C435.4,180.2,437.2,179.3,437.2,177.1z"/>
		<path class="st0" d="M447,177.9v-6.5l-2.3-0.1c-0.2-1-0.2-2.1,0-3.1h2.3v-4.3c1.4-0.3,2.8-0.3,4.2,0v4.3l4.9,0c0.3,1,0.3,2,0,3.1
			l-4.9-0.1v6.5c0,1.7,1,2.1,2.1,2.1c0.9,0,1.7-0.3,2.9-0.7c0.3,1.2,0.3,2.4,0.1,3.6c-1,0.4-3.1,0.6-4.3,0.6
			C449.3,183.2,447,182.2,447,177.9z"/>
		<path class="st0" d="M458.7,178.7c0-3.4,2.8-4.7,6.6-4.7c1,0,2.2,0.1,3.5,0.5v-0.9c0-1.5-0.9-2.5-3.2-2.5c-1.7,0-3.7,0.7-5.2,1.8
			c-1.1-0.9-1.4-2.5-1.1-3.7c2.2-1,4.6-1.2,6.9-1.2c4.2,0,6.8,1.3,6.8,5.9v4.9c0,0.9,0.5,1,1.1,1c0.4,0,1.1-0.1,1.6-0.2
			c0.2,1.1,0.2,2.1,0,3.2c-0.6,0.2-2.2,0.3-3.2,0.3c-1.9,0-2.9-0.7-3.2-1.8l-0.1-0.5c-0.7,1.2-2.3,2.5-5.3,2.5
			C460.6,183.2,458.7,181.5,458.7,178.7z M468.8,177.1v-0.1c-0.8-0.3-1.9-0.5-2.9-0.5c-2.3,0-2.9,1-2.9,2c0,1.3,1,1.8,2.5,1.8
			C467,180.2,468.8,179.3,468.8,177.1z"/>
	</g>
</g>
</svg>
