<?xml version="1.0" encoding="utf-8"?>
<!-- Generator: Adobe Illustrator 22.0.0, SVG Export Plug-In . SVG Version: 6.00 Build 0)  -->
<svg version="1.1" id="Layer_1" xmlns="http://www.w3.org/2000/svg" xmlns:xlink="http://www.w3.org/1999/xlink" x="0px" y="0px"
	 viewBox="0 0 1200 647.1" style="enable-background:new 0 0 1200 647.1;" xml:space="preserve">
<style type="text/css">
	.st0{fill:#EB6640;}
	.st1{fill:#1361A5;}
	.st2{opacity:0.68;}
	.st3{fill:#FFFFFF;}
</style>
<g>
	<g>
		<path class="st0" d="M55.1,569l-0.1-43.3l-7.8-0.3c-0.7-3.3-0.7-6.5,0-9.8c7.1-0.7,14-0.7,21.1,0l23.2,35.9H92l-0.8-14.4v-21.4
			c3.6-0.5,7.8-0.5,11.6,0l1,1l-0.6,10.8V570c-4.4,0.7-8.8,0.7-13.2,0l-23.1-36.7h-0.5l0.6,14.6V570c-3.6,0.5-7.1,0.6-10.8,0
			L55.1,569z"/>
		<path class="st0" d="M114.5,549.8c0-13.3,8.4-20.8,21.7-20.8s21.6,7.5,21.6,20.8c0,13.3-8.4,21-21.6,21S114.5,563,114.5,549.8z
			 M145.7,549.9c0-7.8-3.2-12-9.6-12s-9.6,4.2-9.6,12c0,7.6,3.2,11.8,9.6,11.8S145.7,557.5,145.7,549.9z"/>
		<path class="st0" d="M188.7,556.1v-17.7l-6.2-0.3c-0.6-2.8-0.6-5.7,0-8.5h6.2V518c3.9-0.7,7.8-0.7,11.7,0v11.7l13.5-0.1
			c0.7,2.8,0.7,5.6,0,8.4l-13.5-0.2v17.8c0,4.6,2.9,5.7,5.7,5.7c2.6,0,4.6-0.7,7.9-1.9c0.8,3.3,0.9,6.5,0.3,9.8
			c-2.9,1-8.5,1.6-11.7,1.6C194.9,570.7,188.7,567.9,188.7,556.1z"/>
		<path class="st0" d="M220,550.3c0-13.1,8-21.4,22.1-21.4c18.3,0,21.4,13.4,17.9,24.5h-27.7c0.6,5.5,3.8,9.1,11.6,9.1
			c5.7,0,11.8-1.9,15-3.7c1.4,2.7,1.8,6.3,0.9,9.2c-5.4,1.9-11.7,2.6-16.3,2.6C227.5,570.7,220,563.1,220,550.3z M248.9,546
			c0.9-5.4-1.6-8.9-7.5-8.9c-4.5,0-8.1,2.3-9.1,8.9H248.9z"/>
		<path class="st0" d="M318.7,586.7v-21.9c-3,4-7.5,6-12.8,6c-12.6,0-18.4-8.8-18.4-20.6c0-12.2,6.7-21.2,19.6-21.2
			c6.4,0,9.9,2.5,12.2,5.4l0.2-0.1v-4.7c3.6-0.6,6.8-0.9,10.5,0l1,1l-0.6,10.8v46.2c-3.5,0.5-6.9,0.5-10.6,0L318.7,586.7z
			 M318.9,546.3v-5.7c-1.4-0.9-4-2.7-9.1-2.7c-6.2,0-10.2,4.6-10.2,12.3c0,7.5,3.5,11.5,9.4,11.5
			C317.9,561.7,318.9,551.9,318.9,546.3z"/>
		<path class="st0" d="M345.6,556.1v-17.7l-6.2-0.3c-0.7-2.8-0.7-5.7,0-8.5c6.1-0.7,10.6-0.6,16.9,0l1,1V555c0,4.7,2.5,6.6,5.9,6.6
			c6.2,0,8.9-6.4,8.9-13.8v-18.2c3.6-0.6,7.5-0.9,11.2,0l1.1,1l-0.6,10.8v16.6c0,2.3,1.7,3.4,3.6,3.4c1.2,0,2.3-0.5,3.7-0.9
			c0.8,3.1,0.8,6.1,0,9.2c-1.9,0.3-4,0.8-7.1,0.8c-6.8,0-10.1-2.3-10.9-7l-0.1-1.8c-3.4,7.2-8.9,9-14.2,9
			C352.2,570.8,345.6,568.2,345.6,556.1z"/>
		<path class="st0" d="M396.4,550.3c0-13.1,8-21.4,22.1-21.4c18.3,0,21.4,13.4,17.9,24.5h-27.7c0.6,5.5,3.8,9.1,11.6,9.1
			c5.7,0,11.8-1.9,15-3.7c1.4,2.7,1.8,6.3,0.9,9.2c-5.4,1.9-11.7,2.6-16.3,2.6C403.8,570.7,396.4,563.1,396.4,550.3z M425.3,546
			c0.9-5.4-1.6-8.9-7.5-8.9c-4.5,0-8.1,2.3-9.1,8.9H425.3z"/>
		<path class="st0" d="M444.4,550.1c0-12.3,6.8-21.2,19.4-21.2c5.2,0,9.2,1.5,11.8,3.7l-0.2-12.1l-6.3-0.3c-0.7-2.9-0.7-5.6,0-8.4
			c6.1-0.7,11.1-0.6,17.1,0l1,1v45.2c0,2,1.2,3.4,3.2,3.4c1.1,0,2.5-0.4,3.8-0.9c0.8,3.1,0.8,6.1,0,9.2c-2.6,0.5-5,0.8-7.2,0.8
			c-5.7,0-8.7-1.9-9.9-5.8l-0.3-2.3c-2.7,5.9-7.8,8.3-14.2,8.3C450.6,570.7,444.4,562,444.4,550.1z M475.8,545.8v-5.2
			c-1.9-1.2-4.5-2.6-9-2.6c-6.4,0-10.3,4.5-10.3,12.4c0,7.5,3.5,11.4,9.2,11.4C474.8,561.7,475.7,551.6,475.8,545.8z"/>
		<path class="st0" d="M499.4,550.3c0-13.1,8-21.4,22.1-21.4c18.3,0,21.4,13.4,17.9,24.5h-27.7c0.6,5.5,3.8,9.1,11.6,9.1
			c5.7,0,11.8-1.9,15-3.7c1.4,2.7,1.8,6.3,0.9,9.2c-5.4,1.9-11.7,2.6-16.3,2.6C506.9,570.7,499.4,563.1,499.4,550.3z M528.3,546
			c0.9-5.4-1.6-8.9-7.5-8.9c-4.5,0-8.1,2.3-9.1,8.9H528.3z"/>
		<path class="st0" d="M548.1,568c-0.4-3.6,0.2-6.9,1.5-9.6c4.8,2.6,9.5,4.4,14.9,4.4c5.7,0,6.6-2.2,6.6-3.7c0-3.6-4.4-3.8-10.3-5
			c-6.1-1.3-13-3.3-13-12.3c0-9.5,7.5-12.8,18.2-12.8c6.4,0,12,1.2,16.1,3.2c-0.2,3.7-0.8,6.4-1.9,8.5c-2.6-1.6-8.5-3.9-13.9-3.9
			c-5.3,0-6.9,1.5-6.9,3.8c0,3.2,2.8,4,9.2,5.3c6.7,1.3,15.3,2.9,15.3,12.4c0,9.8-9,12.4-19.7,12.4
			C557.9,570.7,552.8,569.7,548.1,568z"/>
		<path class="st0" d="M610.4,568c-0.4-3.6,0.2-6.9,1.5-9.6c4.8,2.6,9.5,4.4,14.9,4.4c5.7,0,6.6-2.2,6.6-3.7c0-3.6-4.3-3.8-10.3-5
			c-6.1-1.3-13-3.3-13-12.3c0-9.5,7.5-12.8,18.2-12.8c6.4,0,12,1.2,16.1,3.2c-0.2,3.7-0.8,6.4-1.9,8.5c-2.6-1.6-8.5-3.9-13.9-3.9
			c-5.3,0-6.9,1.5-6.9,3.8c0,3.2,2.8,4,9.2,5.3c6.7,1.3,15.3,2.9,15.3,12.4c0,9.8-9,12.4-19.7,12.4
			C620.2,570.7,615.1,569.7,610.4,568z"/>
		<path class="st0" d="M658.1,560.9l0.1-22.5l-5.9-0.3c-0.8-2.8-0.8-5.7,0-8.5c6-0.5,10.5-0.5,16.5,0l1.1,1v27.7
			c0,2.6,1.4,3.2,3.1,3.2c1.2,0,2.4-0.3,3.9-0.9c0.7,3.1,0.7,6.1,0,9.2c-2.6,0.5-4.6,0.8-8.1,0.8C661.1,570.6,658,567.2,658.1,560.9
			z M656.7,517.4c0-4.1,2.7-6.1,7.1-6.1c4.6,0,7.3,1.9,7.3,6.1c0,4.3-2.7,6.2-7.3,6.2C659.4,523.6,656.7,521.6,656.7,517.4z"/>
		<path class="st0" d="M714.8,560.9v-16.3c0-4.7-2.6-6.7-6.1-6.7c-6.2,0-9.1,6.4-9.1,14.8V570c-3.7,0.6-7,0.6-10.7,0l-1-1v-30.6
			l-6.3-0.3c-0.8-2.8-0.8-5.6,0-8.4c6.1-0.7,9.4-0.7,15.5-0.1l1,1v7.8l0.2,0.1c3.7-8.1,10.4-9.6,14.9-9.6c6.3,0,13.1,2.6,13.1,14.6
			v15.1c0,2.2,1.3,2.8,3,2.8c1.3,0,2.6-0.5,4-0.9c0.7,3.1,0.7,6,0,9.1c-2.2,0.4-5.9,0.9-8.5,0.9
			C717.9,570.5,714.8,567.2,714.8,560.9z"/>
		<path class="st0" d="M762.9,586.6v-48.2l-6.3-0.3c-0.8-2.8-0.8-5.6,0-8.4c5.8-0.7,9.4-0.7,15.5-0.1l1,1v6.3c2.6-5.7,8.3-8,14.3-8
			c12.7,0,18.3,10,18.3,20.9c0,11.3-5.9,20.9-18.6,20.9c-6.6,0-10.5-2.1-12.6-4.2v21.1c-3.5,0.5-6.9,0.5-10.6,0L762.9,586.6z
			 M793.7,549.1c0-7.6-3.3-11.2-9.3-11.2c-9.2,0-10.1,8.9-9.9,15.8v4.8c1.3,0.9,4.2,3.2,8.9,3.2
			C790.3,561.7,793.7,556.9,793.7,549.1z"/>
		<path class="st0" d="M817.8,569v-30.6l-6.1-0.3c-0.7-2.8-0.7-5.6,0-8.4c6.1-0.7,8.5-0.7,14.5-0.1l1.1,1v9.5l0.2,0.1
			c1.2-5,4.2-11.3,11.9-11.3c2.9,0,5,0.3,6.1,0.7c0.6,4,0.5,8-0.4,12c-1.6-0.7-3.9-0.9-5.7-0.9c-8.2,0-9.8,6.8-9.8,14.1V570
			c-3.7,0.5-6.9,0.6-10.6,0L817.8,569z"/>
		<path class="st0" d="M850.6,549.8c0-13.3,8.4-20.8,21.7-20.8c13.3,0,21.6,7.5,21.6,20.8c0,13.3-8.4,21-21.6,21
			S850.6,563,850.6,549.8z M881.8,549.9c0-7.8-3.2-12-9.6-12c-6.4,0-9.6,4.2-9.6,12c0,7.6,3.2,11.8,9.6,11.8
			C878.7,561.7,881.8,557.5,881.8,549.9z"/>
		<path class="st0" d="M914.4,566.1l-0.5,4c-2.7,0.4-6.6,0.4-9.1,0l-1.1-1v-48.5l-6.3-0.3c-0.7-2.9-0.7-5.7,0-8.5
			c6.1-0.8,11-0.6,17.2,0l1,1v11.1l-0.3,12.8c2.7-5.6,8.2-7.8,14.1-7.8c12,0,17.2,9.8,17.2,20.2c0,11.7-6.5,21.6-19.9,21.6
			C920.5,570.7,916.7,568.5,914.4,566.1z M934.4,549c0-6.9-3.3-11-9-11c-8.9,0-10.2,10.7-10.2,16.1v4.4c0.8,0.6,4,3.2,8.8,3.2
			C931.1,561.6,934.4,556,934.4,549z"/>
		<path class="st0" d="M953.7,558.4c0-9.2,7.6-12.8,18.2-12.8c2.8,0,6,0.3,9.7,1.3v-2.3c0-4.2-2.4-6.9-8.8-6.9
			c-4.7,0-10.3,2-14.2,4.8c-3-2.4-3.8-6.8-3.1-10.1c6-2.7,12.7-3.4,19-3.4c11.4,0,18.6,3.5,18.6,16.2v13.4c0,2.3,1.5,2.7,3.1,2.7
			c1.1,0,3-0.2,4.3-0.5c0.5,2.9,0.6,5.7,0,8.7c-1.7,0.5-6.1,0.9-8.9,0.9c-5.1,0-7.9-1.9-8.9-5l-0.2-1.5c-1.9,3.3-6.3,6.8-14.4,6.8
			C959.1,570.7,953.7,566.1,953.7,558.4z M981.6,553.9v-0.3c-2.3-0.7-5.1-1.2-7.9-1.2c-6.3,0-8.1,2.7-8.1,5.4c0,3.6,2.8,4.8,6.8,4.8
			C976.7,562.6,981.6,560,981.6,553.9z"/>
		<path class="st0" d="M1009.2,569v-30.6l-6.1-0.3c-0.7-2.8-0.7-5.6,0-8.4c6.1-0.7,8.5-0.7,14.5-0.1l1.1,1v9.5l0.2,0.1
			c1.2-5,4.2-11.3,11.9-11.3c2.9,0,5,0.3,6.1,0.7c0.6,4,0.5,8-0.4,12c-1.6-0.7-3.9-0.9-5.7-0.9c-8.2,0-9.8,6.8-9.8,14.1V570
			c-3.7,0.5-6.9,0.6-10.6,0L1009.2,569z"/>
		<path class="st0" d="M1045.3,561.1v-40.5l-6.3-0.3c-0.7-2.9-0.7-5.6,0-8.4c6.1-0.7,10.6-0.7,16.8,0l1,1v45.4c0,3,1.8,3.4,3.6,3.4
			c1.1,0,2.4-0.4,3.8-0.9c0.7,3.1,0.7,6.1,0,9.2c-2.7,0.5-4.7,0.8-8,0.8C1048.5,570.7,1045.3,567.3,1045.3,561.1z"/>
		<path class="st0" d="M1069.1,549.8c0-13.3,8.4-20.8,21.7-20.8c13.3,0,21.6,7.5,21.6,20.8c0,13.3-8.4,21-21.6,21
			S1069.1,563,1069.1,549.8z M1100.4,549.9c0-7.8-3.2-12-9.6-12c-6.4,0-9.6,4.2-9.6,12c0,7.6,3.2,11.8,9.6,11.8
			C1097.2,561.7,1100.4,557.5,1100.4,549.9z"/>
		<path class="st0" d="M1119.7,568c-0.4-3.6,0.2-6.9,1.5-9.6c4.8,2.6,9.5,4.4,14.9,4.4c5.7,0,6.6-2.2,6.6-3.7c0-3.6-4.3-3.8-10.3-5
			c-6.1-1.3-13-3.3-13-12.3c0-9.5,7.5-12.8,18.2-12.8c6.4,0,12,1.2,16.1,3.2c-0.2,3.7-0.8,6.4-1.9,8.5c-2.6-1.6-8.5-3.9-13.9-3.9
			c-5.3,0-6.9,1.5-6.9,3.8c0,3.2,2.8,4,9.2,5.3c6.7,1.3,15.3,2.9,15.3,12.4c0,9.8-9,12.4-19.7,12.4
			C1129.5,570.7,1124.4,569.7,1119.7,568z"/>
	</g>
</g>
<g>
	<g>
		<path class="st1" d="M154.6,335c0-36.2,22.6-60.3,66.2-60.3c21.3,0,37.2,7.3,44.4,10.9c0,10.6-3,22.6-7.3,29.1
			c-10.6-7.1-22.5-13.9-35.8-13.9c-16.9-0.2-32.4,8.6-32.4,32.7c0,22.3,11.9,36,34.7,36c10.6,0,26.3-4,36.3-10.4
			c4.3,7.8,5.5,19,4.5,27.8c-6.6,4-21.6,8.4-43.1,8.4C181.7,395.3,154.6,374.1,154.6,335z"/>
		<path class="st1" d="M287.8,364.2v-34.9l-12.7-0.7c-1.7-7.1-1.7-14.4,0-21.6c14.7-1.7,25.3-1.5,40.1,0l2.5,2.6v51.5
			c0,7.9,4.1,10.1,8.9,10.1c10.1,0,14.7-9.7,14.7-24.1v-40.1c9.3-1.5,19-2.3,28.7,0l2.5,2.6l-1.3,21v33.2c0,4.5,4,6.9,7.6,6.9
			c2.6,0,4.8-1,7.6-2c1.8,7.9,1.8,15.7,0,23.6c-4,0.7-9.1,1.8-16.4,1.8c-16.4,0-24-5.8-25.9-15.7l-0.3-0.3
			c-7.9,14.5-19.3,16.5-28.9,16.5C302.8,394.8,287.8,391.3,287.8,364.2z"/>
		<path class="st1" d="M397.6,368.2c0-19.5,15.9-27.9,39.3-27.9c4.1,0,9.9,0.2,17.3,2v-3.1c0-5.9-3.1-11.4-15.9-11.4
			c-9.4,0-21.1,4.8-28.9,10.7c-7.6-5.9-9.6-17.3-7.9-25.8c12.9-5.8,27.6-7.3,41.5-7.3c24.6,0,41,6.9,41,35.4v24.3
			c0,4.5,3.1,5.3,6.1,5.3c2.1,0,6.3-0.3,8.6-1c1.5,7.4,1.7,14.9,0,22.5c-3.6,0.8-14.5,2-21,2c-11.6,0-17.8-4.3-20.3-10.2l-0.7-1.7
			c-4,5.8-12.4,12.7-29.2,12.7C408.5,394.6,397.6,384.2,397.6,368.2z M454.3,359.1v-0.2c-4.3-1-8.6-1.5-12.6-1.5
			c-12.7,0-13.5,6.1-13.5,8.9c0,5.5,3.6,7.3,11.1,7.3C445.5,373.6,454.3,370.5,454.3,359.1z"/>
		<path class="st1" d="M515.7,390.3v-61l-12.9-0.7c-2-7.1-2-14.2,0-21.5c14.5-1.7,19.8-1.7,34.4-0.2l2.6,2.6v21.5l0.5,0.2
			c2.5-11.4,8.4-25.9,25.8-25.9c6.9,0,11.7,0.8,14,1.7c1.7,10.6,1.2,20.7-1,31.2c-3.5-1.7-8.9-2.1-13.1-2.1
			c-17.3,0-20.5,14-20.5,29.2V393c-9.4,1.3-17.8,1.5-27.4,0L515.7,390.3z"/>
		<path class="st1" d="M589.2,351.2c0-28.4,17-45.8,48.1-45.8c41.1,0,46.3,30.9,38.2,53.9h-54.8c1.5,8.8,5.9,14.5,20.5,14.5
			c12.7,0,25.9-4.3,32.4-7.8c3.5,6.9,4.5,15.9,2.1,23.5c-13.1,4.3-26.9,5.1-35.7,5.1C604.9,394.6,589.2,378.9,589.2,351.2z
			 M647.1,340.3c1.7-8.6-2.6-13.9-11.6-13.9c-6.1,0-12.2,2.1-14.5,13.9H647.1z"/>
		<path class="st1" d="M692.8,389.2c-0.8-9.4,0.3-17.7,3.8-24.5c11.1,5.9,20.7,9.6,31.2,9.6c10.7,0,10.6-4,10.6-5.1
			c0-5.8-8.3-5.8-20.2-8.3c-12.1-2.6-26.8-6.9-26.8-26.8c0-21.3,16.7-28.7,40.6-28.7c12.9,0,25.4,2.3,34.4,6.8
			c-0.5,9.4-2,15.9-5,21.5c-5-3.1-17.5-8.3-28.4-8.3c-10.4,0-12.1,2.6-12.1,5.8c0,5.5,5,6.3,17.3,8.9c14.7,2.8,32.9,6.1,32.9,27.1
			c0,22.5-21,27.1-44.3,27.1C714.1,394.3,703.9,393,692.8,389.2z"/>
		<path class="st1" d="M896,371.3v-29.4c0-5.8-1.3-13.2-8.9-13.2c-11.2,0-11.9,14.9-11.9,24.8V393c-9.3,1.2-18.3,1.3-27.9,0
			l-2.5-2.1l0.2-51c0-4.3-1.3-11.1-8.6-11.1c-9.6,0-12.2,12.4-12.2,24.8V393c-9.3,1.2-18.3,1.3-27.8,0l-2.6-2.6l0.2-61l-12.6-0.7
			c-1.5-7.1-1.5-14.2,0-21.5c14.7-1.7,21.5-1.7,35.8-0.2l2.5,2.6v14.2l0.3,0.2c5.8-11.2,14.4-18.7,26.8-18.7c9.9,0,20.8,5,23.5,19
			c5.5-10.7,12.7-19,28.7-19c11.9,0,27.3,4.6,27.3,28.3v32.9c0,4.8,3.1,5.9,6.1,5.9c2.6,0,5.1-0.8,8.1-1.8c1.8,7.1,1.8,14.4,0,21.6
			c-5.1,0.8-10.4,1.7-17,1.7C903.1,394,896,385.9,896,371.3z"/>
		<path class="st1" d="M950,368.2c0-19.5,15.9-27.9,39.3-27.9c4.1,0,9.9,0.2,17.3,2v-3.1c0-5.9-3.1-11.4-15.9-11.4
			c-9.4,0-21.1,4.8-28.9,10.7c-7.6-5.9-9.6-17.3-7.9-25.8c12.9-5.8,27.6-7.3,41.5-7.3c24.6,0,41,6.9,41,35.4v24.3
			c0,4.5,3.1,5.3,6.1,5.3c2.1,0,6.3-0.3,8.6-1c1.5,7.4,1.7,14.9,0,22.5c-3.6,0.8-14.5,2-21,2c-11.6,0-17.8-4.3-20.3-10.2l-0.7-1.7
			c-4,5.8-12.4,12.7-29.2,12.7C960.9,394.6,950,384.2,950,368.2z M1006.7,359.1v-0.2c-4.3-1-8.6-1.5-12.6-1.5
			c-12.7,0-13.5,6.1-13.5,8.9c0,5.5,3.6,7.3,11.1,7.3C997.9,373.6,1006.7,370.5,1006.7,359.1z"/>
	</g>
	<g>
		<path class="st1" d="M270.4,262.9V197l-11.3-0.5c-0.9-3.8-0.9-7.5,0-11.3h49.1c17.4,0,27.3,11.4,27.3,26
			c0,15.5-10.5,26.3-27.5,26.3h-22.9v26.6c-4.2,0.6-9.2,0.8-13.5,0L270.4,262.9z M305.3,226.1c9,0,15.2-6,15.2-14.8
			c0-8.7-6.2-14.5-15.2-14.5h-20.1v29.3H305.3z"/>
		<path class="st1" d="M355.2,262.9V197l-11.4-0.5c-0.9-3.8-0.9-7.5,0-11.3c8.5-0.7,16.3-0.7,24.9,0l1.2,1.2v65.9h39.2
			c0.8,3.8,0.8,7.9,0,11.7h-52.7L355.2,262.9z"/>
		<path class="st1" d="M414.1,262.9l30.5-78.1h17.5l1.9,1.5l29.7,76.6l-0.6,1.2c-4.8,0.8-9.8,0.8-14.8,0l-6.9-18.6h-36.7l-7.1,18.6
			c-4.5,0.7-7.8,0.7-12.4,0L414.1,262.9z M467.5,234.1l-14.1-37.4h-0.6l-14,37.4H467.5z"/>
		<path class="st1" d="M525,262.9v-66.1h-25.9c-0.8-3.8-0.8-7.7,0-11.5h66.6c0.9,3.8,0.9,7.7,0,11.5h-26v67.4
			c-4.1,0.6-9.1,0.7-13.4,0L525,262.9z"/>
		<path class="st1" d="M583.5,262.9V197l-11.4-0.5c-0.9-3.8-0.9-7.5,0-11.3c8.3-0.6,16.3-0.6,24.9,0l1.2,1.2v77.6
			c-4.2,0.6-9,0.7-13.5,0L583.5,262.9z"/>
		<path class="st1" d="M626,262.9V197l-11.4-0.5c-0.9-3.8-0.9-7.5,0-11.3c8.5-0.7,16.3-0.7,24.9,0l1.2,1.2v65.9H680
			c0.8,3.8,0.8,7.9,0,11.7h-52.7L626,262.9z"/>
		<path class="st1" d="M697.6,262.9V197l-11.4-0.5c-0.9-3.8-0.9-7.5,0-11.3c8.5-0.7,16.3-0.7,24.9,0l1.2,1.2v65.9h39.2
			c0.8,3.8,0.8,7.9,0,11.7h-52.7L697.6,262.9z"/>
		<path class="st1" d="M759.9,224.9c0-24.2,15.4-40.8,41.7-40.8c26.4,0,41.8,16.6,41.8,40.8c0,24.1-15.3,40.6-41.8,40.6
			C775.3,265.4,759.9,249,759.9,224.9z M827.8,224.9c0-18.4-9.7-29.1-26.3-29.1c-15.9,0-26.1,10.6-26.1,29.1s9.8,28.8,26.1,28.8
			C818.2,253.7,827.8,243.3,827.8,224.9z"/>
		<path class="st1" d="M856.5,259.3c-0.7-4.5-0.1-9,1.6-13.4c6.9,3.6,17,8.2,29,8.2c14.1,0,17.4-5.5,17.4-10.8
			c0-8.3-8.7-10.3-18.9-12.4c-14.8-3.3-28.8-6.4-28.8-24c0-16.1,11.9-22.9,31.7-22.9c14,0,23.3,3.4,28.1,5.9c0,5.7-1,8.9-2.3,12.1
			c-7.7-4.3-16-7.7-25.7-7.7c-9.2,0-16.7,2.9-16.7,10.9c0,9.4,9.8,10.6,18.8,12.6c15.8,3.7,28.8,7.3,28.8,23.8
			c0,16.2-12.5,23.4-32.7,23.4C875.5,265.1,863.6,262.8,856.5,259.3z"/>
	</g>
	<g>
		<path class="st1" d="M905.6,131.2c1.6-4.9,7-7.6,11.9-6c4.9,1.6,7.6,7,6,11.9c-1.6,4.9-7,7.6-11.9,6
			C906.6,141.4,904,136.1,905.6,131.2z"/>
		<path class="st1" d="M729.3,113.3c0,0-54.6-12.4-83.3-62c-36,56.8-27.1,93.4-22.8,104.5c1,6.2,6.4,11,12.8,11c7.2,0,13-5.8,13-13
			c0-7.2-5.8-13-13-13c-2.3,0-4.5,0.6-6.4,1.7c0.1-11.3,3-34.3,23.6-50.4c0,0,26.2,19.1,77.9,29.3c0,0,147.4-89.2,237.1,30.6
			c-6.3,17.7-42.2,45.6-42.2,45.6l1.7,2.8c0,0,42.6-13.1,63.1-49C990.9,151.3,922.2,11.8,729.3,113.3z"/>
	</g>
	<g>
		<g>
			<path class="st1" d="M422.2,417.9c3.5-0.5,6,0.8,7.4,3.2c1.2,2,1.3,4,0.4,5.9c-0.9,2-1.9,4-3,6.2c-1.1,2.1-2,4.4-2.6,6.8
				c-0.6,2.4-0.1,5,1.6,7.8c3.7,6.4,10.1,10.5,19.1,12.4c9,1.9,19.9,2.3,32.6,1.2c12.8-1.2,27.2-3.5,43.1-6.9
				c16-3.5,32.8-7.4,50.4-11.7c17.6-4.4,35.8-8.8,54.6-13.2c18.8-4.5,37.3-8.3,55.6-11.5c18.3-3.2,36.1-5.4,53.4-6.6
				c17.3-1.2,33.4-0.6,48.2,1.7c14.8,2.3,28.1,6.8,39.8,13.3c10.9,6.1,19.9,14.7,26.9,25.8c-51.3-67.9-200.6-18-307.8,11
				c-91.1,24.6-119.9,2.8-119.9,2.8s-17.9-8.1-16-31.4C406.2,434.8,406.9,420.2,422.2,417.9z"/>
		</g>
		<g>
			<path class="st1" d="M790.2,492.5c-3.5,0.5-6-0.8-7.4-3.2c-1.2-2-1.3-4-0.4-5.9c0.9-2,1.9-4,3-6.2c1.1-2.1,2-4.4,2.6-6.8
				c0.6-2.4,0.1-5-1.6-7.8c-3.7-6.4-10.1-10.5-19.1-12.4c-9-1.9-19.9-2.3-32.6-1.2c-12.8,1.2-27.2,3.5-43.1,6.9
				c-16,3.5-32.8,7.4-50.4,11.7c-17.6,4.4-35.8,8.8-54.6,13.2c-18.8,4.5-37.3,8.3-55.6,11.5c-18.3,3.2-36.1,5.4-53.4,6.6
				c-17.3,1.2-33.4,0.6-48.2-1.7c-14.8-2.3-28.1-6.8-39.8-13.3c-10.9-6.1-19.9-14.7-26.9-25.8c51.3,67.9,200.6,18,307.8-11
				c91.1-24.6,119.9-2.8,119.9-2.8s17.9,8.1,16,31.4C806.2,475.6,805.5,490.2,790.2,492.5z"/>
		</g>
	</g>
	<g class="st2">
		<path class="st3" d="M916.5,128c-0.7-0.2-1.3-0.3-2-0.3c-2.4,0-4.6,1.4-5.7,3.5c1-1,2.5-1.6,4-1.6c0.6,0,1.2,0.1,1.8,0.3
			c3,1,4.6,4.2,3.6,7.2c-0.5,1.7-1.8,2.9-3.4,3.5c2.6-0.1,4.9-1.9,5.8-4.4C921.8,132.8,919.9,129.1,916.5,128z"/>
		<g>
			<path class="st3" d="M725.2,116.7c0.7,0.2,1.4,0.1,2-0.3c0.2-0.1,0.5-0.3,0.8-0.4c-6.3-1.6-53.9-14.6-82-59.1c-0.6,1-1.2,2-1.8,3
				C673.9,104.5,723,116.2,725.2,116.7z"/>
			<path class="st3" d="M651.1,89.9c-1-0.5-2.2-0.5-3.2,0.3c-21.4,16.7-24.7,40.2-24.8,52.7c0,1.1,0.5,2,1.5,2.6c0.9,0.5,2,0.5,3,0
				c0.3-0.1,0.5-0.3,0.8-0.4c-0.1,0-0.2-0.1-0.3-0.1c-0.9-0.5-1.5-1.5-1.5-2.6C626.7,129.9,630,106.6,651.1,89.9z"/>
			<path class="st3" d="M958.3,115.9c-18.9-16.7-51.7-36.6-100.1-36.6c-9.9,0-20.1,0.8-30.6,2.5c9.3-1.3,18.3-2,27.1-2
				c48.4,0,81.1,19.9,100.1,36.6c17.3,15.3,26.6,30.8,29.2,35.4c-12.6,21.1-33.3,33.9-47,40.5c-1,0.8-1.9,1.6-2.8,2.3
				c12.6-5.4,38.4-18.7,53.2-43.4C984.9,146.6,975.6,131.2,958.3,115.9z"/>
			<path class="st3" d="M728.8,117.8c0.6,0.1,1.2,0.3,1.9,0.4c6.3-3.6,41.7-22.9,86-29.6C773.6,94.4,738.3,112.5,728.8,117.8z"/>
			<path class="st3" d="M636,143.6c-1.1,0-2.1,0.2-3.1,0.5c5.4,0.2,9.7,4.6,9.7,10c0,4.4-2.9,8.2-6.9,9.5c0.1,0,0.2,0,0.3,0
				c5.5,0,10.1-4.5,10.1-10.1C646.1,148.2,641.5,143.6,636,143.6z"/>
		</g>
		<path class="st3" d="M417.6,426.1c0.3-0.1,0.6-0.1,0.9-0.1c1.5,0,2.5,0.5,3.2,1.7c0.6,1.1,0.7,2,0.3,3c-0.8,1.9-1.8,3.9-2.8,6
			c-1.2,2.4-2.2,4.9-2.8,7.5c-0.8,3.3-0.1,6.7,2,10.2c4.3,7.1,11.4,11.7,21.3,13.7c9.3,1.9,20.6,2.2,33.6,0.9
			c12.8-1.3,27.5-3.8,43.5-7.4c16.2-3.7,33.1-7.8,50.4-12.2c17.5-4.5,35.8-9.1,54.4-13.8c18.5-4.6,37.1-8.7,55.3-12
			c18-3.4,35.9-5.7,53-7.1c2.1-0.2,4.1-0.3,6.1-0.4c8.3-0.7,16.5-1.1,24.4-1.1c6.1,0,11.8,0.2,17.4,0.7c-13.2-1.7-27.5-2-42.7-1
			c-17.1,1.2-35,3.4-53.1,6.5c-18.2,3.2-36.8,7.1-55.4,11.5c-18.7,4.4-37,8.9-54.5,13.2c-17.3,4.3-34.3,8.2-50.5,11.7
			c-16,3.5-30.7,5.8-43.5,7c-13,1.2-24.3,0.8-33.6-1.2c-9.9-2.1-17-6.8-21.2-13.9c-2.1-3.6-2.7-7-1.9-10.3c0.7-2.6,1.6-5.1,2.9-7.5
			c1.1-2,2-4,2.9-6c0.4-1,0.4-1.9-0.3-3c-0.7-1.2-1.7-1.7-3.1-1.7c-0.3,0-0.6,0-0.9,0.1c-6,0.9-9.3,4-11.1,7
			C413.2,427.2,415.2,426.5,417.6,426.1z"/>
		<path class="st3" d="M788.9,447.2c-0.2-0.1-0.4-0.2-0.6-0.4c-0.1-0.1-11.6-8.3-42.1-8.3c-21.2,0-46.4,3.9-74.9,11.6
			c-9.8,2.7-19.9,5.5-30.5,8.4c-61.8,17.2-131.9,36.7-188.7,36.7c-6,0-11.8-0.2-17.4-0.7c13.2,1.7,27.5,2,42.7,1
			c3.6-0.2,7.3-0.5,10.9-0.9c47.6-5.7,100-19.9,147.6-32.8c10.7-2.9,20.7-5.6,30.6-8.2c28.5-7.5,53.7-11.2,75-11.1
			c30.5,0.2,42,8.5,42.1,8.6c0.2,0.1,0.4,0.3,0.6,0.4c0.6,0.3,15.7,7.7,13.9,28.3c0,0.3-0.3,3.9-2.7,7.4c7-3.8,7.6-11.6,7.6-12
			C804.7,454.8,789.5,447.5,788.9,447.2z"/>
	</g>
</g>
</svg>
