<?xml version="1.0" encoding="utf-8"?>
<!-- Generator: Adobe Illustrator 22.0.0, SVG Export Plug-In . SVG Version: 6.00 Build 0)  -->
<svg version="1.1" id="Layer_1" xmlns="http://www.w3.org/2000/svg" xmlns:xlink="http://www.w3.org/1999/xlink" x="0px" y="0px"
	 viewBox="0 0 671.6 638.2" style="enable-background:new 0 0 671.6 638.2;" xml:space="preserve">
<style type="text/css">
	.st0{fill:#EB6640;}
	.st1{fill:#1361A5;}
	.st2{opacity:0.68;}
	.st3{fill:#FFFFFF;}
	.st4{fill:#004981;}
	.st5{fill-rule:evenodd;clip-rule:evenodd;fill:#FFFFFF;}
	.st6{clip-path:url(#SVGID_2_);fill-rule:evenodd;clip-rule:evenodd;fill:#FFFFFF;}
	.st7{fill:#236092;}
</style>
<g>
	<path class="st7" d="M171.8,245.4l4.6-8.1l18.1-3.7l3.7-6.6l-12.1-6.9l3.9-6.8l36.2,20.6c-3.3,5.7-6.6,11.5-9.8,17.2
		c-4.9,8.5-13.2,9.8-19.4,6.3c-5-2.8-8.7-8-6.2-15.6l-18.6,4L171.8,245.4z M216,237.1l-11.6-6.6l-5.9,10.4c-2.5,4.3-0.6,7.8,2.3,9.5
		c2.9,1.6,6.8,1.4,9.3-2.9L216,237.1z"/>
	<path class="st7" d="M159.9,300.2l4.5-30.9c13.7,2,27.5,4,41.2,6l-4.4,30.8l-7.5-1.1l3.3-23.1l-9.5-1.4l-3.2,22.4l-7.2-1.1
		l3.2-22.3l-9.3-1.3l-3.3,23.2L159.9,300.2z"/>
	<path class="st7" d="M198.6,351c1.9-3.3,2.4-7.7,1.5-11.3c-2.1-8.6-10-12.3-18.3-10.3c-6.7,1.6-12.6,7.2-10.1,17.3
		c0.7,3.2,2.2,5.7,5.5,8.3l7.2-1.7l-2.5-10.4l6.8-1.7l4.3,17.4l-17.1,4.2c-5.5-2.8-9.5-7.2-11.2-14.3c-3.7-15.2,4.7-23.9,15.4-26.5
		c11.4-2.8,23.6,1.7,27.1,16c1.4,5.5,0.6,11.4-2.5,16.6L198.6,351z"/>
	<path class="st7" d="M206.3,409.7L193,392.4l-8.4,1.9l-5.2-6.8l44.5-10.5l5.2,6.8L207.4,424l-5.3-6.8L206.3,409.7z M219.6,385.8
		l-18.8,4.7l9.4,12.3L219.6,385.8z"/>
	<polygon class="st7" points="256.1,408.5 238.5,438.1 257,449.1 253.2,455.3 228,440.3 249.3,404.5 	"/>
	<path class="st7" d="M332.2,439.5c-1.4-2.4-5.3-4.7-9.8-4.8c-5.8-0.1-8.6,2.3-8.7,5.4c-0.1,3.6,4.2,4.7,9.2,5.4
		c8.6,1.2,16.7,3.6,16.6,13.5c-0.2,9.3-8.4,13.1-17.7,13c-8.5-0.1-15-2.8-18-10.5l6.6-3.3c1.8,4.6,6.6,6.7,11.6,6.7
		c5,0.1,9.6-1.6,9.6-6.1c0.1-3.9-4-5.6-9.5-6.3c-8.5-1.1-16.3-3.5-16.2-12.9c0.1-8.6,8.6-12,16.3-11.9c6.5,0.1,13.2,2.1,16.2,8.5
		L332.2,439.5z"/>
	<path class="st7" d="M380.9,448.5l-11.1,4.1L374,464l-7.4,2.7l-14.2-39.1c6.1-2.3,12.3-4.6,18.4-6.8
		C389.9,413.8,400.1,441.5,380.9,448.5 M367.4,445.7l11.1-4c9.5-3.5,4.4-17.3-5-13.9l-11.1,4L367.4,445.7z"/>
	<path class="st7" d="M450.5,416.3l-7,6.2l-18.3-2.4l-5.6,5l9.2,10.5l-5.9,5.2l-27.6-31.3c5-4.4,9.9-8.7,14.9-13.1
		c7.4-6.5,15.6-5,20.4,0.4c3.8,4.3,5.6,10.4,0.7,16.8l18.9,2.3L450.5,416.3z M406,409.8l8.8,10l9-7.9c3.7-3.3,3.2-7.2,0.9-9.7
		c-2.2-2.5-6.1-3.6-9.8-0.3L406,409.8z"/>
	<polygon class="st7" points="463.6,397.6 428.4,375.4 432.5,368.8 467.7,391 	"/>
	<polygon class="st7" points="447.6,329.8 449.7,322.2 489.9,333.1 488.7,337.8 488.7,337.8 455.8,351.6 483,358.9 480.9,366.5 
		440.7,355.6 442.4,349.5 472.6,336.5 	"/>
	<path class="st7" d="M456.6,277c-2.3,3.1-3.2,7.5-2.7,11.1c1.3,8.8,8.7,13.2,17.2,12.1c6.7-1,13.2-5.9,11.8-16.2
		c-0.5-3.2-1.6-6-4.6-8.8l-7.3,1.1l1.4,10.5l-6.9,1l-2.5-17.7l17.4-2.4c5.3,3.4,8.7,8.1,9.7,15.4c2.2,15.5-7.1,23.2-18,24.8
		c-11.6,1.6-23.3-4.1-25.4-18.6c-0.8-5.5,0.5-11.4,4.2-16.2L456.6,277z"/>
	<path class="st7" d="M436.8,233.4c-1.3,2.4-1.3,7,1.1,10.8c3,5,6.5,6.2,9.2,4.6c3.1-1.8,1.8-6-0.2-10.6c-3.5-8-5.7-16.1,2.8-21.2
		c8-4.7,15.6,0.3,20.3,8.3c4.4,7.3,5.4,14.3,0.4,20.8l-6.2-3.9c3-3.9,2.3-9.1-0.3-13.4c-2.5-4.3-6.4-7.4-10.3-5.1
		c-3.4,2-2.6,6.3-0.3,11.4c3.5,7.8,5.5,15.8-2.5,20.5c-7.4,4.4-14.7-1.1-18.6-7.7c-3.3-5.6-5.2-12.3-1.3-18.3L436.8,233.4z"/>
	<path class="st7" d="M407.6,210.1c3.4-3.6,8.6-4.5,12.8-0.5c4.2,4,3.8,9.2,0.4,12.9c-3.4,3.6-8.6,4.4-12.8,0.5
		C403.7,219,404.2,213.7,407.6,210.1 M418.8,211.3c-3-2.8-6.7-2.2-9.3,0.6c-2.6,2.8-2.9,6.5,0.1,9.3c3,2.8,6.6,2.1,9.3-0.6
		C421.4,217.9,421.7,214.1,418.8,211.3 M413.4,213.9c-3-1.7-6,2.5-3,5.2c1,1,2.1,2,3.2,3l6.3-6.7l-1.8-1.7l-1.9,2.1l-0.6-0.6
		l0.3-3.6l-1.8-1.7l-0.4,0.4L413.4,213.9z M412,217.5c-1.1-1,0.4-2.5,1.4-1.6l1.4,1.3l-1.4,1.5L412,217.5z"/>
	<path class="st7" d="M324.9,494.7c-104.2,0-189-83.8-189-186.7c0-78.6,50.3-149.2,125-175.7l3,8.4C192.7,166,144.9,233.2,144.9,308
		c0,98,80.7,177.8,180,177.8c99.3,0,180.1-79.7,180.1-177.8c0-74.8-47.9-142-119.1-167.3l3-8.4c74.8,26.5,125,97.2,125,175.7
		C513.9,411,429.1,494.7,324.9,494.7"/>
	<path class="st7" d="M416.4,114.4c-2.1-0.6-4.5-1.1-12.5-1.5c-8.4-0.4-18.7,0.1-28.2,1.9c-9.5,1.9-17.4,8.5-17.4,8.5l-3.1-4.1
		c-0.9-1.4-3.4-4.3-5.7-4.3c-2.1,0-3.8,2.3-3.8,2.3l-3.4,3.3c-1.6-2-3.3-4.3-5.3-6.6c-2-2.5-2.8-3.1-5.8-6.6c-3-3.4-5.7-3.6-6.2-3.5
		c-0.5,0-3.5,0.1-6.4,3.5c-3.1,3.6-3.8,4.1-5.9,6.6c-1.9,2.3-3.7,4.6-5.2,6.6l-3.4-3.3c0,0-1.8-2.3-3.9-2.3c-2.3,0-4.7,2.9-5.7,4.3
		l-3.1,4.1c0,0-7.8-6.6-17.4-8.5c-9.5-1.9-19.9-2.4-28.2-1.9c-7.9,0.4-10.4,0.9-12.4,1.5c-2.4,0.7-5.2,1.3-3,2.7
		c2.2,1.4,8.8,5.7,14.2,10.9c5.4,5.2,10.7,11.6,14.7,17.2c1.5,2.2,3.2,5.2,4.7,8.3c0.5,0.9,0.9,1.8,1.3,2.7c1.3,2.9,2.4,5.6,3.1,7.3
		c0.2,0.5,0.3,0.8,0.4,1.2c0.1,0.2,0.2,0.4,0.2,0.6c0.7,2.5,1.3,5.5,1.3,5.5s1.2,4-1.4,3.1c-2.5-0.9-3.7-2-5.9-2.1
		c-1.8,0-2.3,0.6-3.2,1.6c-0.6,0.6-0.3,2.5,0.9,3.3c1.3,0.8,2.3,1.5,0.4,3.1c-1.4,1.2-5.3,4-7.7,7.6c-0.7,1-1.3,2-1.7,3.1
		c-0.8,2.2,0.1,5.5,2,8.4c3.2,4.6,9.3,8.2,16.4,4.6c2.2-1.1,15.3-6.3,21.2-7.6c5.9-1.3,14.4-3,20.2-3.5c5.4-0.5,13.2-0.7,13.8-0.8
		c0.6,0,8.1,0.2,13.5,0.8c5.7,0.5,14.2,2.2,20.2,3.5c5.9,1.3,18.9,6.5,21.1,7.6c6.6,3.4,12.9-0.1,16.2-4.5c2.2-2.9,3.2-6.3,2.2-8.5
		c-0.4-1-0.9-1.9-1.5-2.8c-2.4-3.7-6.5-6.6-8-7.9c-1.9-1.6-0.9-2.3,0.4-3.1c1.2-0.8,1.5-2.7,1-3.3c-1-1.1-1.4-1.7-3.3-1.6
		c-2.2,0-3.3,1.1-5.8,2.1c-2.5,0.9-1.4-3.1-1.4-3.1s0.5-2.9,1.2-5.4c0-0.2,0.1-0.4,0.2-0.7c0.1-0.3,0.2-0.6,0.3-1.1
		c0.7-1.7,1.7-4.4,3.1-7.3c0.4-0.9,0.8-1.8,1.3-2.7c1.5-3.1,3.2-6.1,4.8-8.3c3.9-5.5,9.3-12,14.6-17.2c5.4-5.2,12-9.5,14.2-10.9
		C421.6,115.6,418.8,115,416.4,114.4 M349.9,117.4c1.3,0,2.3,1,2.3,2.3c0,1.3-1,2.3-2.3,2.3c-1.3,0-2.3-1-2.3-2.3
		C347.7,118.4,348.7,117.4,349.9,117.4 M337.8,147l2-2.8l5.2-7.3l6,8.5l1.4,2l-0.7,1l-5.1,7.3l-1.2,1.7l-0.4,0.6l-0.4-0.7l-1.4-2
		l-5.6-7.9L337.8,147z M325.1,109.8c2.3,0,4.1,1.9,4.1,4.2c0,2.3-1.8,4.1-4.1,4.1c-2.3,0-4.2-1.8-4.2-4.1
		C320.9,111.7,322.7,109.8,325.1,109.8 M325.3,127.9l9.9,14.2l-1.2,1.7l-2,2.9l-5.4,7.7l-1.3,1.8l-0.1,0.2l-0.1-0.2l-1.3-1.8
		l-5.5-7.8l-2-2.9l-1.2-1.7L325.3,127.9z M300.1,117.4c1.2,0,2.2,1,2.2,2.3c0,1.3-1,2.3-2.2,2.3c-1.3,0-2.3-1-2.3-2.3
		C297.9,118.4,298.8,117.4,300.1,117.4 M298.4,145.4l6-8.5l5.1,7.3l2,2.8l0.2,0.4l-5.5,8l-1.3,2l-0.5,0.7l-0.4-0.6l-1.2-1.7
		l-5.2-7.3l-0.7-1.1L298.4,145.4z M283.4,159.1l-4.6-6.5l0.5-0.7l2.5-3.6l4.4-6.2l3.2,4.6l1.9,2.7l2.3,3.2l-3.5,5l-1.5,2.2l-2.4,3.4
		l-1.8-2.5L283.4,159.1z M366.6,176.4c-1.1,2.2-2.4,4.3-3.5,5.8c-1.2,1.5-2.2,2.5-3.3,3.1c-2.9,1.7-5.3,0.3-6.8-1.4
		c-0.4-0.4-0.7-0.8-0.9-1.2c-1.4-2.2-2-4.7-2-4.7c-0.3,0.8-1.1,1.5-1.9,2.2c-0.3,0.3-1.6,1.7-3.4,2.3c-1.5,0.5-3.3,0.6-5.2-0.6
		c-0.8-0.5-1.6-1.3-2.5-2.3c-1.8-2.5-2.5-5.4-2.6-5.5c-1.4,3.4-3.2,5.9-5.2,7.2c-1.2,0.8-2.5,1.2-3.8,1.1c-1.3,0.1-2.4-0.4-3.5-1.1
		c-3.3-2.3-5.6-7.4-5.6-7.4c-1.2,3.2-2.9,6.2-5,7.9c-1.8,1.5-3.8,1.9-6.1,0.6c-1.5-0.8-3.1-2.4-4.7-5.1c0,0-1.6,4.1-3.2,6.3
		c-0.2,0.2-0.4,0.5-0.5,0.7c-2.1,2.2-4.8,2.6-7.3,1.2c-0.1,0-0.2-0.1-0.4-0.2c-1.1-0.6-4.1-2.4-6.6-9c-0.5-1.4-1.1-3.1-1.5-5
		c0.5,1.2,1.4,3,2.4,4.8c2.2,3.8,5.2,7.8,8.8,7.3c4.4-0.5,5.6-5.8,6.4-10.5c0.3-1.9,0.4-3.7,0.6-5.1c0.6,1.7,1.1,3.3,1.7,4.7
		c1.9,4.7,3.9,7.9,7,7.8c2.3-0.1,5-4,6.7-9.2c0.5-1.7,0.9-3.6,1.2-5.5c0.3,1.3,0.9,3.3,1.8,5.4c1.7,4,4.4,8.3,7.5,8.4
		c3.3,0.1,5.7-4.3,7.3-8.3c0.8-2.1,1.4-4.1,1.7-5.4c0.4,1.7,0.7,3.7,1.3,5.6c1,3.6,2.5,7.2,5.7,8.4c3.9,1.5,6.5-2.9,8-7
		c0.7-1.9,1.2-3.8,1.5-4.9c0.3,1.6,0.4,3.4,0.6,5.2c0.4,3.2,1.1,6.5,3.5,8.6c3.1,2.8,7-1.1,10.2-5.8c1-1.6,1.9-3.2,2.8-4.7
		C367.9,173,367.4,174.7,366.6,176.4 M366.7,159.3l-1.1,1.6l-1.7,2.4l-2.3-3.3l-1.6-2.2l-3.6-5.1l2.2-3.1l1.9-2.7l3.4-4.7l4.5,6.4
		l2.5,3.6l0.3,0.5L366.7,159.3z"/>
	<path class="st7" d="M300.9,238c-3.2,0-5.7,2.4-5.7,5.5c0,3,2.5,5.5,5.7,5.5c3.1,0,5.7-2.5,5.7-5.5C306.6,240.5,304,238,300.9,238
		 M300.8,244.8c-0.8,0-1.4-0.6-1.4-1.4c0-0.8,0.6-1.4,1.4-1.4c0.8,0,1.5,0.6,1.5,1.4C302.3,244.2,301.7,244.8,300.8,244.8"/>
	<path class="st7" d="M377.6,403.3c-0.2,0.2-2,0.9-2,0.9c-3.5,1.2-7.3,1.9-11.4,2c-11,0.2-25-3.6-33.4-20.2
		c-4.1-8.1-4.2-12.3-4.2-12.3h-1.4l0,0h-1.4c0,0,0,4.2-4.2,12.3c-8.5,16.6-22.5,20.4-33.4,20.2c-4.1-0.1-7.9-0.8-11.4-2
		c0,0-1.8-0.8-2-0.9c-0.2-0.2,0.1,1.4,0.4,2.1c0,0,1.6,5.5,7,7.1c5.4,1.6,12.7,1.2,17.6,0.1c5.4-1.2,14-4.8,18.9-10.1
		c0,0,4.4-4.7,6.3-7.7c1.9-2.9,2.2-3.8,2.3-3.9c0,0.1,0.4,1,2.3,3.9c1.9,3,6.3,7.7,6.3,7.7c4.9,5.3,13.4,8.9,18.9,10.1
		c4.8,1.1,12.2,1.4,17.6-0.1c5.4-1.6,7.1-7.1,7.1-7.1C377.5,404.6,377.8,403.1,377.6,403.3"/>
	<path class="st7" d="M348.9,238c-3.2,0-5.7,2.4-5.7,5.5c0,3,2.6,5.5,5.7,5.5c3.2,0,5.7-2.5,5.7-5.5
		C354.7,240.5,352.1,238,348.9,238 M349,244.8c-0.8,0-1.5-0.6-1.5-1.4c0-0.8,0.7-1.4,1.5-1.4c0.8,0,1.5,0.6,1.5,1.4
		C350.4,244.2,349.8,244.8,349,244.8"/>
	<path class="st7" d="M291,246.8c0,0,2.1,12.3,13.9,8.2c0,0-15.4,36.7,0.7,67.4C305.6,322.4,280.8,294.4,291,246.8"/>
	<path class="st7" d="M359.7,246.8c0,0-2.1,12.3-13.8,8.2c0,0,15.3,36.7-0.7,67.4C345.1,322.4,369.9,294.4,359.7,246.8"/>
	<path class="st7" d="M377.2,210.7c-15.6-8.5-33.4-13.3-52.4-13.3c-20.2,0-39.1,5.5-55.4,14.9c-34.1,18.6-57.1,53.9-57.1,94.3
		c0,34.2,16.5,64.8,42.3,84.6l1.1,0.8c6.1,3.9,13,6.5,21.5,6.7c12.8,0.2,28.9-4.5,39.3-22.9c3.4-6,3.8-15.6,3.8-15.6V253.5
		c0,0-0.5-8.3-0.9-11.9c-0.3-3.5-0.8-9.5-6.4-15.7c-5.6-6.2-14.1-2.9-19.4,1.7c-5.4,4.6-10,12.9-12.4,18.3
		c-2.5,5.5-6.7,20.7-14,36.7c-7.2,15.9-17.2,22.4-17.2,22.4s8.1,0.9,14.5,3.9c6.4,3,11.6,6.1,15,10c3.3,4,6.8,9.3,7.3,13.2
		c0.5,3.8,0.4,6.2,0.1,7.7l-0.2,1.5c0,0,2.1-2.5,3.3-3.3c1.3-0.8,4.6-3,8.4-1.2c3.8,1.7,6.7,4.9,8.7,9.5c2,4.6,2.5,8.7,2.7,12.2
		c0.3,3.6-0.2,6.7-1.5,9.9c0,0-1.5,3.8-4.2,4.8c-2.7,1-8.1,3-11.6-1.5c-3.6-4.6-4-8.6-6.4-12.5c-2.4-3.9-6.8-11.7-13.5-17.2
		c0,0-6.6-5.2-11.3-7.1c-4.7-1.9-8.9-2-11.2-1.7c-2.3,0.4-3.2,0.6-3.2,0.6s3.6,0.7,6.8,3.8c0,0,4.8,4.4,6.1,10.6
		c1.3,6.2,1.6,12.5-3.7,16c-5.4,3.6-13,4.8-20-6.3l-0.8-1.5c-9.2-14.9-14.4-32.3-14.4-50.9c0-35.7,19.4-67,48.6-84.7l0.1,0.1
		c1.1-0.7,2.2-1.4,3.3-2c0.6-0.3,1.2-0.7,1.8-1v-0.1c1.4-0.7,2.7-1.5,4.1-2.2c13.9-7,29.4-10.8,45.9-10.8c17.8,0,34.6,4.6,49.2,12.6
		l1.8,0.9c31.6,17.1,52.9,49.7,52.9,87.1c0,18.6-5.3,35.9-14.5,50.9l-0.8,1.5c-6.9,11.2-14.6,9.9-20,6.3c-5.2-3.5-4.9-9.8-3.7-16
		c1.3-6.2,6.1-10.6,6.1-10.6c3.2-3.1,6.8-3.8,6.8-3.8s-0.9-0.2-3.3-0.6c-2.3-0.3-6.4-0.2-11.2,1.7c-4.7,1.9-11.3,7.1-11.3,7.1
		c-6.7,5.4-11.1,13.3-13.5,17.2c-2.4,3.9-2.7,8-6.3,12.5c-3.6,4.5-9,2.5-11.7,1.5c-2.7-1-4.2-4.8-4.2-4.8c-1.2-3.2-1.7-6.3-1.5-9.9
		c0.3-3.5,0.7-7.7,2.7-12.2c2-4.6,4.8-7.7,8.7-9.5c3.8-1.8,7.2,0.5,8.4,1.2c1.3,0.8,3.4,3.3,3.4,3.3l-0.3-1.5
		c-0.2-1.5-0.4-3.9,0.1-7.7c0.5-3.8,4-9.2,7.3-13.2c3.4-3.9,8.6-6.9,15-10c6.5-3,14.5-3.9,14.5-3.9s-10.1-6.5-17.2-22.4
		c-7.2-15.9-11.4-31.2-14-36.7c-2.5-5.4-7.1-13.7-12.4-18.3c-5.4-4.6-13.9-7.8-19.5-1.7c-5.5,6.2-6.1,12.1-6.4,15.7
		c-0.4,3.6-0.9,11.9-0.9,11.9v106.9c0,0,0.5,9.5,3.8,15.6c10.5,18.4,26.6,23,39.3,22.9c8.5-0.2,15.5-2.8,21.5-6.7l1.1-0.8
		c25.8-19.9,42.2-50.4,42.2-84.6C437.5,265,413,228.8,377.2,210.7 M304.9,331.6c-3.4-3.2-13.5-13.8-17-25.4
		c-3.5-11.6-6.6-21.4-4.9-40.2c1.8-18.8,11.5-29.4,12.4-30.6c1.6-1.9,8.2-7.8,13-2.4c4.7,5.4,4.9,15.9,4.9,15.9v88.3
		C313.3,337.2,308.3,334.7,304.9,331.6 M336.5,248.9c0,0,0.2-10.5,5-15.9c4.7-5.4,11.3,0.5,12.9,2.4c1,1.2,10.6,11.7,12.4,30.6
		c1.7,18.8-1.3,28.6-4.8,40.2c-3.5,11.6-13.6,22.2-17,25.4c-3.4,3.2-8.4,5.7-8.4,5.7V248.9z"/>
	<polygon class="st7" points="245,527.1 234.5,510.7 228,510.7 228,545.5 234,545.5 234,520.6 244.8,536.9 245,536.9 256.1,520.5 
		256.1,545.5 262.1,545.5 262.1,510.7 255.6,510.7 	"/>
	<polygon class="st7" points="276.2,530.7 293.7,530.7 293.7,525.2 276.2,525.2 276.2,516.1 295.9,516.1 295.9,510.7 270.1,510.7 
		270.1,545.5 296.1,545.5 296.1,540 276.2,540 	"/>
	<polygon class="st7" points="331.7,510.7 324.8,510.7 316.1,523.2 307.4,510.7 300.2,510.7 312.4,527.8 299.7,545.5 306.7,545.5 
		315.9,532.3 325.1,545.5 332.3,545.5 319.6,527.7 	"/>
	<rect x="338" y="510.7" class="st7" width="6.1" height="34.8"/>
	<path class="st7" d="M368.7,540.4c-6.6,0-11.4-5.6-11.4-12.4c0-6.9,4.8-12.3,11.4-12.3c4,0,7,1.7,9.7,4.3l4-4.5
		c-3.3-3.2-7.2-5.4-13.6-5.4c-10.5,0-17.9,8.1-17.9,18c0,10,7.5,17.9,17.6,17.9c6.5,0,10.5-2.4,14.1-6.2l-3.9-4
		C375.7,538.7,372.9,540.4,368.7,540.4"/>
	<path class="st7" d="M403.7,510.1c-10.6,0-18.2,8.2-18.2,18c0,9.8,7.5,17.9,18.1,17.9c10.7,0,18.2-8.2,18.2-18
		C421.8,518.2,414.4,510.1,403.7,510.1 M403.7,540.4c-6.9,0-11.8-5.6-11.8-12.4c0-6.8,4.8-12.3,11.7-12.3c6.9,0,11.8,5.6,11.8,12.4
		C415.4,534.9,410.6,540.4,403.7,540.4"/>
</g>
</svg>
