<svg id="Capa_2" data-name="Capa 2" xmlns="http://www.w3.org/2000/svg" viewBox="0 0 1500 1500"><defs><style>.cls-1{fill:none;stroke:#114a82;stroke-linecap:round;stroke-linejoin:round;stroke-width:46px;}</style></defs><title>Iconos_Ubicaciones</title><path class="cls-1" d="M1443.09,929a12.18,12.18,0,0,0,12.14-12.15V163.35a12.18,12.18,0,0,0-12.14-12.15H77.41a12.18,12.18,0,0,0-12.14,12.15V916.84A12.18,12.18,0,0,0,77.41,929l51.13.27"/><path class="cls-1" d="M128.81,1336.41V838.62s-7.4-121.48,127.41-121.48H549.56L819.2,509.72s48.89-13.33,81.48,31.12,0,78.52,0,78.52L493.26,921.58l5.93,414.83Z"/><circle class="cls-1" cx="321.41" cy="543.8" r="154.08"/><line class="cls-1" x1="879.02" y1="520.1" x2="971.79" y2="349.72"/><circle class="cls-1" cx="1081.42" cy="918.62" r="154.08"/><path class="cls-1" d="M891.79,1336.41s-29.63-251.86,189.63-241.49,176.3,241.49,176.3,241.49Z"/><line class="cls-1" x1="492.99" y1="922.18" x2="938.43" y2="922.18"/><line class="cls-1" x1="1455.23" y1="929.26" x2="1235.13" y2="929.26"/></svg>