<svg xmlns="http://www.w3.org/2000/svg" viewBox="0 0 1500 1500"><defs><style>.cls-1{fill:none;stroke:#f8aa1b;stroke-linecap:round;stroke-linejoin:round;stroke-width:46px;}</style></defs><title>Iconos_Ubicaciones</title><g id="Capa_3" data-name="Capa 3"><polygon class="cls-1" points="520.07 408.92 480.84 390 443.02 411.59 448.89 368.43 416.67 339.13 459.53 331.38 477.44 291.68 498.05 330.05 541.34 334.81 511.23 366.27 520.07 408.92"/><polygon class="cls-1" points="1076.62 395.04 1006.3 361.12 938.5 399.82 949.02 322.46 891.27 269.94 968.09 256.05 1000.2 184.88 1037.15 253.65 1114.75 262.2 1060.77 318.6 1076.62 395.04"/><polygon class="cls-1" points="809.39 503.5 770.16 484.58 732.33 506.17 738.21 463.02 705.99 433.71 748.84 425.96 766.75 386.27 787.37 424.63 830.66 429.4 800.54 460.86 809.39 503.5"/><polygon class="cls-1" points="808.54 317.08 710.97 270.01 616.88 323.71 631.49 216.37 551.35 143.48 657.95 124.2 702.5 25.46 753.78 120.89 861.46 132.75 786.55 211 808.54 317.08"/><path class="cls-1" d="M110,1357.67l266.83,76.81M273.22,1394l58-201.43C510.06,1197.83,605.41,987.15,652,826.9l.52-1.81.81-2.82c26-90.44,36.31-163.77,37.3-171.09a28.05,28.05,0,0,0-20-30.74L293.88,512a28,28,0,0,0-33.3,15.38c-3.05,6.73-33.29,74.32-59.36,164.75L200.4,695l-.51,1.8c-45.73,160.5-76.94,389.65,77.27,480.28l-58,201.43"/><line class="cls-1" x1="206.71" y1="673.68" x2="646.78" y2="800.35"/><path class="cls-1" d="M1125.46,1421.94l267.83-73.27M1283.77,1368l-55.31-202.18c155.46-88.6,127.25-318.13,83.62-479.21l-.5-1.81-.77-2.83c-24.83-90.78-54.22-158.75-57.18-165.51a28.05,28.05,0,0,0-33.1-15.83L842.43,604.11A28,28,0,0,0,822,634.58c.9,7.33,10.24,80.78,35,171.57l.77,2.83.49,1.81c44.48,160.85,137.08,372.77,315.92,369.91l55.31,202.18"/><line class="cls-1" x1="852.12" y1="787.53" x2="1293.83" y2="666.69"/></g></svg>