<?xml version="1.0" encoding="utf-8"?>
<!-- Generator: Adobe Illustrator 22.0.0, SVG Export Plug-In . SVG Version: 6.00 Build 0)  -->
<svg version="1.1" id="Layer_1" xmlns="http://www.w3.org/2000/svg" xmlns:xlink="http://www.w3.org/1999/xlink" x="0px" y="0px"
	 viewBox="0 0 1200 1200" style="enable-background:new 0 0 1200 1200;" xml:space="preserve">
<style type="text/css">
	.st0{fill:#D6312C;}
	.st1{fill:#EB624E;}
	.st2{fill:#5DB747;}
	.st3{fill:none;}
	.st4{fill:#FFFFFF;}
</style>
<circle class="st0" cx="594.5" cy="596.8" r="577.9"/>
<circle class="st1" cx="-1082.4" cy="596.8" r="577.9"/>
<circle class="st2" cx="-2698" cy="597.8" r="577.9"/>
<g id="OnBlack-White-V">
	<g id="Uber_Eats_2_">
		<rect x="-4165.2" y="840.9" class="st3" width="1036.1" height="885.3"/>
	</g>
</g>
<g>
	<path id="Eats_1_" class="st4" d="M-3000.3,621.8h142.6v34.7h-104.1v49.6h101.3v33.7h-101.3V790h104.1v34.7h-142.6V621.8z
		 M-2463.9,828.5c43.7,0,68.4-20.8,68.4-49.6c0-20.5-14.6-35.7-45.1-42.3l-32.3-6.6c-18.7-3.5-24.6-6.9-24.6-13.9
		c0-9,9-14.6,25.7-14.6c18,0,31.2,4.9,35,21.5h37.8c-2.1-31.2-24.6-52-70.4-52c-39.6,0-67.3,16.3-67.3,47.9
		c0,21.9,15.3,36.1,48.2,43l36.1,8.3c14.2,2.8,18,6.6,18,12.5c0,9.4-10.8,15.3-28.1,15.3c-21.9,0-34.4-4.9-39.2-21.5h-38.2
		C-2534.4,807.7-2511.1,828.5-2463.9,828.5z M-2550.9,824.7h-40.9c-25.7,0-39.9-16-39.9-36.1v-79.8h-28.8v-34h28.8v-42.7h38.2v42.7
		h42.7v34h-42.7v70.1c0,8,5.6,11.8,14.2,11.8h28.5V824.7z M-2715,674.8v13.5c-13.2-11.1-29.8-17.3-47.9-17.3
		c-44.8,0-79.8,35-79.8,78.8c0,43.7,35,78.8,79.8,78.8c18,0,34.7-6.2,47.9-17.3v13.5h37.8V674.8H-2715z M-2759.7,795.6
		c-25,0-45.5-20.1-45.5-45.8c0-25.7,20.5-45.8,45.5-45.8c25.3,0,45.5,20.1,45.5,45.8C-2714.3,775.5-2734.4,795.6-2759.7,795.6z"/>
	<path id="Uber_1_" class="st4" d="M-2407.7,448.3c-19.1,0-32.6,14.9-32.6,37.8v84h-29.1V422.2h28.8v18
		c7.3-11.8,19.1-19.1,34.7-19.1h10.4v27.1H-2407.7z M-2489.6,496.1c0-44.1-31.2-77-73.9-77c-43,0-75.6,35.4-75.6,77
		c0,44.1,34,77.4,78.4,77.4c27.1,0,48.9-11.8,63.8-31.6l-21.2-15.6c-11.1,14.6-25.7,21.5-42.7,21.5c-25,0-44.8-18-48.9-42.3h120.1
		V496.1z M-2609,482.6c5.2-22.6,23.2-37.8,45.1-37.8c21.5,0,39.9,15.3,44.8,37.8H-2609z M-2731.4,419.1c-20.5,0-38.9,8.3-52.4,21.9
		v-73.9h-29.1v203h28.8v-18.7c13.5,13.5,32.3,22.2,52.7,22.2c43.7,0,77.7-34.7,77.7-77C-2653.7,453.5-2687.7,419.1-2731.4,419.1z
		 M-2733.5,547.5c-28.1,0-50.7-22.9-50.7-51c0-28.8,22.9-51.4,50.7-51.4c28.1,0,51,22.6,51,51.4
		C-2682.5,524.6-2705.4,547.5-2733.5,547.5z M-2920.2,546.1c28.1,0,50-21.5,50-53.8V367.1h30.2v203h-29.8V551
		c-13.9,14.2-32.6,22.6-53.8,22.6c-43.4,0-76.7-31.6-76.7-79.5v-127h30.5v125.3C-2969.8,524.9-2948.6,546.1-2920.2,546.1z"/>
</g>
<g id="rappi">
	<path id="Shape" class="st4" d="M-917.6,854.9c4.7-0.5,9.5-0.9,14.2-1.5c10.4-1.3,20.7-3.8,30.6-7.4c19.5-7.1,37.2-18.3,51.9-32.9
		c14-13.8,24.9-29.8,33.6-47.4c6.7-13.5,11.7-27.8,14.8-42.6c0.4-1.9,0.7-3.7,1.1-5.6c-2.7,2-5,4.1-7.3,6.2
		c-5.6,5.2-11.8,9.8-18.4,13.7c-7.6,4.4-15.7,7.4-24.5,8.2c-7.1,0.6-14.2-0.3-21-2.5c-7.6-2.6-14.8-6.2-21.4-10.9
		c-10.1-7-19.1-15.1-28.3-23.3c-10-8.9-20.1-17.5-30.9-25.3c-8.5-6.1-17.3-11.8-27-16c-11.7-5.2-24.6-7.1-37.3-5.5
		c-8,1.1-15.7,3.5-22.9,7.1c-7.8,3.8-14.9,8.7-21.7,13.9c-8,6.1-15.7,12.5-23.5,18.8c-1.8,1.4-3.5,2.9-5.3,4.3
		c-3.1,2.4-5.4,2.4-8.5,0.1c-0.6-0.4-1.2-1-1.9-1.5c-3-2.5-5.9-4.9-8.9-7.3c-10-8.3-20.1-16.5-31.1-23.5
		c-10.4-6.6-21.5-11.1-33.8-12.3c-8.9-0.9-17.9,0-26.4,2.5c-9.2,2.9-17.6,7.2-25.7,12.4c-13.8,8.9-26.4,19.2-38.7,30.1
		c-8.3,7.3-16.8,14.7-25.4,21.6c-7.9,6.5-17,11.5-26.8,14.7c-7.9,2.6-16.3,3.3-24.5,2c-8.4-1.4-16.1-4.8-23.3-9.3
		c-6.5-4.1-12.5-8.9-18-14.2c-1.5-1.5-3.1-2.8-4.7-4.2c0.4,3.4,1,6.8,1.8,10.2c1.1,4.5,2.3,9,3.8,13.4c5.5,17.1,13.4,33.3,23.6,48
		c7.1,10.5,15.5,20.2,24.9,28.8c24.1,21.8,54.9,34.7,87.3,36.8h21.2c29-1.9,57-11.2,81.2-27.2c21.1-14.1,37.9-32.2,48.3-55.7
		c0.3-0.6,0.6-1.1,0.9-1.7c0-0.1,0.3-0.2,0.7-0.4c0.5,0.7,0.9,1.5,1.3,2.3c5.5,12.3,12.9,23.6,22.1,33.4
		c9.8,10.6,21.2,19.6,33.7,26.8c15.1,8.8,31.4,15.2,48.5,18.9c6.3,1.4,12.7,2.1,19.1,3c3.7,0.5,7.4,0.7,11.2,1.1L-917.6,854.9z"/>
	<path id="Shape-2" class="st4" d="M-1413.4,419.2c0.5-0.6,0.8-1.3,1-2.1c1.4-8.7,5.2-16.5,10-23.7c8-12.3,18.5-22,30.9-29.8
		c9.3-5.9,19.4-10.6,29.9-13.9c14.4-4.2,29.5-5.8,44.4-4.8c16.8,1.1,33,4.9,47.6,13.9c8.3,5.1,15.3,11.7,20.2,20.3
		c2.6,4.5,4.2,9.5,4.8,14.7c2,17.7-3.5,33-14.3,46.7c-7.9,10-17.7,17.6-28.7,24c-9.2,5.2-18.9,9.5-28.9,12.7
		c-2.4,0.8-2.7,1.2-2.5,3.7c0.5,8.9,1.5,17.7,3.1,26.5c2.3,12.3,5.9,24.3,11.9,35.4c5.3,9.9,12,18.5,21.5,24.8
		c5.8,3.9,12.4,6.3,19.3,7.2c7.9,0.9,15.8,0.1,23.3-2.5c4.8-1.6,9.5-3.7,13.9-6.2c2-1.2,4-1.9,6.4-1.1c4.4,1.4,7.5,7.7,2.9,12.2
		c-3.4,3.2-6.9,6.1-10.7,8.9c-10.9,8.2-22.5,15-35.6,18.9c-8.2,2.5-16.6,3.7-25.2,3c-12.2-0.9-23.8-5.6-33.2-13.3
		c-8.7-7-15.3-15.7-20.5-25.5c-6.9-13.1-11.2-27.1-13.7-41.7c-0.8-4.3-1.2-8.7-1.9-13c0-0.4-0.1-0.8-0.2-1.2
		c-0.4-0.5-0.9-1.2-1.4-1.3c-0.4-0.1-1,0.5-1.4,1c-0.2,0.4-0.4,0.9-0.5,1.3c-3,12.2-6.1,24.4-9.1,36.6c-0.3,1.1-0.4,2.1-0.6,3.3
		c-0.9,4.4-3.7,7-7.9,8.1c-4.1,1-8.4,0.8-12.5-0.4c-6-1.7-11.4-5.2-15.5-10c-2.8-3.3-4.3-7.4-4.3-11.7c-0.2-4.9,0.7-9.7,1.6-14.5
		c2.8-14.4,6.7-28.5,11-42.4c6.9-22.3,14.6-44.3,23.4-65.9c3.3-8.1,6.9-16,10.4-24c1.9-4.2,5.3-6.7,9.8-7.7c1.9-0.3,3.8-0.6,5.8-0.7
		c2.1-0.2,4.2-0.4,6.3-0.4c2.3,0,4.5,0.1,6.8,0.4c3.4,0.4,6.8,0.7,10.2,1.4c5.4,1.2,7.7,5.9,5.5,11c-6.9,15.5-13,31.2-18.8,47
		c-1.6,4.5-3.2,9-4.8,13.5c-0.2,0.4-0.3,0.9-0.4,1.3c-0.3,1.6,0.6,2.5,2.1,1.9c2.1-0.9,4.2-2,6.3-3.2c13-7.3,24-16.7,32.1-29.3
		c4.2-6.5,7.4-13.5,8.9-21.2c1.3-6.5,1.4-13.1,0.4-19.6c-1.9-11.1-8.6-17.6-19.1-20.6c-6.7-1.9-13.5-1.8-20.4-1.2
		c-12.6,1.1-23.1,6.7-32.8,14.3c-14.4,11.3-25,26.6-30.6,44c-1.5,4.5-2.4,9.1-2.5,13.9c0,5.5-3.7,8.5-8.6,9.1
		c-5.1,0.6-10.3-0.9-14.2-4.2c-5.4-4.2-9-10.3-9.8-17.1c-0.2-1-0.6-2-1.1-3C-1413.4,421.7-1413.4,420.5-1413.4,419.2z"/>
	<path id="Shape-3" class="st4" d="M-751.5,371.1c-0.3,0.5-0.5,1.1-0.7,1.7c-1.9,12.2-11.4,21.9-23.7,24
		c-16.1,2.7-30.7-8.4-33.2-24.2c-2.6-16,8.7-31.4,24.9-33.4c0.6-0.1,1.2-0.4,1.7-0.6h3.8c0.5,0.3,1.1,0.5,1.7,0.6
		c12.7,1.7,22.8,11.5,24.9,24.1c0.2,0.6,0.4,1.2,0.7,1.7C-751.5,367-751.5,369-751.5,371.1z"/>
	<path id="Shape-4" class="st4" d="M-1146.9,424.3c1.8-0.8,2.1-2.1,2.8-3.1c2.4-4.1,5.5-7.3,10-9c2.8-1,5.7-1.5,8.7-1.4
		c4.4-0.2,8.7,0.8,12.6,2.8c2.4,1.3,4.4,3,6.1,5.1c2.5,2.9,3.1,7,1.5,10.4c-2.1,5.2-4.4,10.2-6.6,15.4
		c-6.2,14.7-12.4,29.4-17.3,44.6c-1.9,6.1-3.6,12.2-4.2,18.6c-0.2,2.5-0.2,5,0.1,7.5c0.4,2.7,1.8,3.5,4.4,2.4c1.4-0.6,2.8-1.4,4-2.3
		c9.4-7.4,16.4-17.3,20.1-28.7c6.3-18.9,13.3-37.6,21.1-55.9c1.4-3.2,2.8-6.5,4.3-9.7c2.8-5.9,7.7-9,13.9-9.9c7.2-1,14,0.4,19.8,5.1
		c1.1,0.9,2.1,1.9,3,3c1.4,1.6,1.5,1.6,3.2,0.2c3.9-3.1,7.8-6.3,12-9c7.4-4.9,15.8-6.7,24.6-5.9c7.6,0.7,13.6,4.4,18,10.6
		c4,5.6,5.9,11.9,6.7,18.6c1.5,12.8-0.1,25.3-3.5,37.5c-3.3,12-7.7,23.6-13.3,34.7c-3.6,7.1-7.8,14-12.6,20.4
		c-0.5,0.6-0.9,1.3-1.3,2c-0.1,0.3-0.2,0.9,0,1.1c0.4,0.2,0.8,0.3,1.2,0.2c0.3-0.1,0.6-0.2,0.8-0.4c9.4-5.6,17.9-12.1,23.9-21.4
		c2.9-4.5,5.2-9.3,6.8-14.4c7-21.2,14.6-42.2,23.4-62.7c1.3-3.1,2.7-6.2,4.1-9.3c3.1-6.7,8.4-9.8,15.5-10.5
		c4.8-0.5,9.6,0.2,13.9,2.3c2.8,1.3,5.4,3.3,7.4,5.7c1.6,2,1.7,1.8,3.7,0.2c3.4-2.7,6.7-5.4,10.2-7.9c7.5-5.3,16.8-7.7,26-6.8
		c7.4,0.7,13.4,4.3,17.9,10.4c3.5,4.7,5.4,10.1,6.4,15.8c1.2,6.7,1.4,13.5,0.7,20.2c-1.5,17.1-7,33-13.8,48.5
		c-4.3,9.8-9.7,19-16.1,27.6c-0.5,0.7-1.8,1.6-0.8,2.6c0.8,0.8,1.8-0.2,2.5-0.6c6.9-4.2,13.3-8.8,18.8-14.7
		c6.7-7.1,11-15.5,13.7-24.9c4.7-16.8,10.7-33.2,18-49.1c3-6.5,6.2-12.9,9.6-19.1c3.6-6.7,9.4-9.8,16.8-10.2
		c4.3-0.2,8.6,0.1,12.6,1.9c2.9,1.2,5.4,3.1,7.5,5.5c2.7,3.2,3.5,6.8,1.9,10.8c-1.7,4.1-3.5,8.2-5.3,12.3
		c-6.9,15.9-13.6,31.8-18.7,48.3c-1.6,5.3-2.9,10.8-3.8,16.2c-0.5,2.8-0.4,5.8-0.2,8.7c0.1,2.9,1.9,4.1,4.6,2.9
		c1.8-0.8,3.4-1.9,4.9-3.2c6.6-5.7,12.5-12.1,17.5-19.2c1.9-2.7,3.8-5.3,5.7-8.1c1.5-2.4,4.2-3.7,7-3.5c5.7,0.2,8.7,5.7,5.7,10.5
		c-4.5,6.9-9,13.8-13.7,20.5c-5.8,8.2-12.3,15.9-19.4,23c-6.1,6-12.5,11.6-19.9,16c-5.6,3.4-11.9,5.3-18.4,5.5
		c-9,0.3-16.2-5-18.6-13.9c-0.8-3.2-1.1-6.5-1.5-9.8c-0.1-0.8,0-1.7-0.1-2.6c-0.2-1.8-1.3-2.3-2.8-1.3c-1,0.7-2,1.5-3,2.3
		c-11.1,8.6-23.5,15.4-36.7,20.1c-7.8,2.9-15.9,4.5-24.2,4.8c-3.5,0.1-7,0.4-10.5,0.4c-2.9,0-5.8-0.4-8.6-0.9c-5.2-1-9.7-4-12.4-8.5
		c-0.6-0.9-1-2.4-2.5-2.1c-1.5,0.3-1.4,1.7-1.7,2.9c-3.5,12.2-7,24.4-10.3,36.8c-2.4,9.3-4.5,18.6-6.6,28c-1.1,4.6-4,7.3-8.5,8.3
		c-3.6,0.8-7,0.2-10.4-0.8c-5-1.5-9.4-4.4-12.7-8.5c-4.4-5.2-6-11.2-4.5-17.8c2.2-9.6,4.6-19.1,7-28.6c2.2-8.4,4.7-16.6,7.1-24.9
		c0.3-1.1,0.6-2.1,0.8-3.2c0.2-1.5-0.8-2.2-2.2-1.6c-0.4,0.2-0.8,0.5-1.2,0.8c-9,6.1-18.8,11-29,14.8c-6.4,2.3-13,3.9-19.7,4.6
		c-5.3,0.7-10.7,1-16.1,0.8c-2.9-0.1-5.7-0.4-8.6-1c-5.2-1-9.7-4.1-12.4-8.6c-0.6-0.9-1-2.2-2.3-2s-1.5,1.5-1.8,2.5
		c-4.6,17-9.3,33.9-13.9,50.9c-1.1,4.2-1.9,8.6-2.8,12.9c-1.4,7.3-5.6,10.2-13.3,9.8c-7.7-0.4-14.1-4.1-19.1-10.2
		c-4-4.8-5.4-11.3-3.9-17.3c2.2-9.7,4.6-19.2,7.1-28.8c2-7.7,4.3-15.3,6.5-22.9c0.1-0.4,0.2-0.9,0.4-1.4c0.4-0.7,0.1-1.7-0.6-2.1
		c-0.8-0.5-1.5,0-2.1,0.4c-3.8,3.1-7.4,6.3-11.3,9.2c-5,3.9-10.9,6.6-17.2,7.8c-3.4,0.7-7,0.7-10.4,0c-6.6-1.3-10.7-5.5-13-11.6
		c-0.3-0.7-0.5-1.5-0.8-2.2c-1.1-2.6-3.8-3.3-5.9-1.4c-2.2,1.9-4.1,3.9-6.3,5.6c-6.3,4.9-13.4,8.4-21.4,9.6
		c-7.8,1.2-15.2,0.3-21.9-4.5c-5-3.5-8.3-8.3-10.7-13.8c-2.2-5.2-3.5-10.8-3.8-16.4c-1.3-14.1,1.1-27.7,4.8-41.2
		c3.8-13.8,9.3-27.1,16.3-39.5c7.4-12.9,17.2-23.6,29.9-31.3c6.4-3.9,13.3-6.6,20.8-7.5c4-0.5,8.1-0.4,12.1,0.6
		c8.2,2.2,13.5,7.5,16.1,15.6C-1147.9,421.7-1147.4,423-1146.9,424.3z M-888.8,439.4c-0.1-0.8-0.2-2.2-0.4-3.5
		c-0.1-0.6-0.2-1.2-0.4-1.8c-0.9-2.9-2.3-3.5-4.9-1.9c-1.7,1.1-3.3,2.4-4.7,3.8c-5.2,5.2-9.3,11.2-13.1,17.5
		c-8.5,14.2-15.1,29.5-19.6,45.5c-2.3,7.7-4.2,15.5-4.6,23.5c-0.1,2.7,0.2,5.3,0.8,7.9c0.5,2.4,2.2,3,4.3,1.7c1.4-0.8,2.7-1.8,3.9-3
		c3.5-3.2,6.5-6.8,9.1-10.8c12.9-19.3,22.2-40.8,27.5-63.4C-889.8,449.8-889,444.6-888.8,439.4z M-1019.8,439.9
		c-0.4-2.2-0.6-4.5-1.2-6.7c-0.5-1.9-1.9-2.4-3.7-1.6c-1.1,0.5-2.1,1.1-3,1.9c-2.7,2.5-5.2,5.2-7.6,8c-5.8,7.2-10.4,15.1-14.5,23.3
		c-6.2,12.4-11.2,25.5-14.7,39c-1.6,6.3-3.1,12.7-3.3,19.2c-0.1,2.4,0.2,4.7,0.7,7c0.6,2.8,2.3,3.5,4.7,1.9c2-1.3,3.9-2.9,5.6-4.6
		c5.4-5.6,9.5-12.1,13.3-18.7c9.1-15.9,16.2-32.6,20.6-50.4C-1021.3,452.1-1020.3,446-1019.8,439.9L-1019.8,439.9z M-1205.4,520.1
		c-0.1,1.3-0.1,2.5,0,3.8c0.2,1.9,0.5,3.7,0.9,5.6c0.8,2.9,2.4,3.5,4.9,1.7c1.2-0.8,2.4-1.8,3.5-2.8c4.4-4.4,8.1-9.4,11-14.9
		c9.2-16.8,16.4-34.4,20.3-53.3c1.3-6.5,2.5-13,2.3-19.6c-0.1-2.4-0.5-4.8-1.2-7.2c-0.9-3-2.6-3.5-5.1-1.7c-1.4,1-2.7,2.1-3.9,3.3
		c-3.5,3.7-6.5,7.9-9,12.3c-8.6,14.8-15.2,30.7-19.7,47.2C-1203.8,502.8-1205.3,511.3-1205.4,520.1z"/>
</g>
<g id="sindelantal">
	<path id="Shape_1_" class="st4" d="M762.7,233.9c21.6,6.8,38.8,17.1,46.8,36.1c5.9,14.1,4,27-5.2,39.4c-4.8,6.4-9.8,12.7-15.9,18.2
		c-29.2,26.6-7.6,65,30.1,70.1c-16.5,8.7-63.5,7.9-78.7-1.4c-14.3-8.8-16.7-20.5-4.4-33.8c11.7-12.5,25.7-23.4,38.2-35.3
		c13-12.4,25.2-25.2,23.2-43.1c-1.7-15.5-20.3-26.2-36.5-21.3c-11.9,3.6-14,10-5.7,21c1-3.7,1.7-6.5,2.4-9.1
		c9.7,0.6,16.4,15.6,8.6,22.6c-5.9,5.2-15.7,9.6-24.3,10.3c-16.7,1.2-42.2-16.4-45.3-28.9c-4.7-19.2,5.2-33.8,28.2-41.7
		c2.7-0.9,5.4-2,8-3.1C742.4,233.9,752.5,233.9,762.7,233.9z"/>
	<path id="Shape-2_1_" class="st4" d="M308.3,371.9c-6.8-23.2-2.2-43.1,22.1-56.4c22.8-12.5,45.8-9.7,66.1,2.3
		c10.3-6.5,19.2-14.2,29.9-18.4c22.5-8.8,49.1-1.4,62.4,15.8c12.6,16.2,10.1,41.6-7.6,54.8c-7.9,5.9-8.3,10.8-4.7,17.7
		c16.2,31.5,32.4,63.1,48.6,94.8c-10.5,3.2-23.8,7.3-38,11.5c-8.9-9.9-17.8-19.8-26.6-29.6l-2.5,1.2c7.2,10.5,14.3,21,21.8,32.1
		c-6.8,3.7-12.7,6.9-19.6,10.7c-8.4-9.2-16.5-18.1-24.6-27l-3,1.6c6.7,9.8,13.4,19.5,20.2,29.4c-11.2,10.1-21.9,19.8-33.7,30.4
		c-15.6-16.5-30.9-33-46.6-49.2c-10.6-11-21.5-22-32.9-32.5c-2.7-2.4-8.5-4-12.4-3.5c-32.2,4-57.5-8.9-63.5-32.9
		C257.6,399.7,273.7,380,308.3,371.9z"/>
	<path id="Shape-3_1_" class="st4" d="M648.5,473.2c26.3-10.6,51.3-21.5,77.1-30.7c38-13.6,76.6-25.9,114.6-38.7
		c23.8,36-1.1,92.5-48.1,113.3C737.9,541,671.9,521.6,648.5,473.2z"/>
	<path id="Shape-4_1_" class="st4" d="M741.2,953.6c-87.3,8.2-175.2,8.3-262.6,0.1C504,941.3,715.1,941.1,741.2,953.6z"/>
	<path id="Shape-5" class="st4" d="M682.4,360.1c-4.3,3.1-8.7,8.7-12,8.2c-5.9-0.9-12.9-4.3-16.2-8.7c-8.9-11.8-7-28.9,2.5-38.8
		s27-12.5,40.6-6.5c13.8,6.1,24.7,22.8,21.3,36.7c-2.3,9.3-8.1,18-13.1,26.6c-3.7,6.3-9.1,11.7-13,17.8c-10.3,16-6.1,25.4,13.6,31.2
		c5.5,1.6,11.2,2.6,19.7,4.5c-17.4,6-31.7,4.9-43.7-3.8c-10.7-7.7-11.1-19.3-7.8-30.7c2.8-9.5,6.6-18.7,8.9-28.3
		c1.4-5.6,1.5-11.4,0.2-17c-0.6-2.2-6.6-3.7-10.4-4.3c-1-0.2-2.8,4.6-4.3,7.1C672,355.5,675.1,356.9,682.4,360.1z"/>
	<path id="Shape-6" class="st4" d="M665.7,465.5c3.2-18.8-1.9-30.2-15.9-33.8c-4.4-1.1-9.9,1.1-16.9,2.1c8.1,3.8,11.8,5.5,15.5,7.2
		c-4,4.7-6.8,11.8-12.3,13.6c-12.4,4.1-27.5-5.1-32.3-17.7c-5-13.1,1.7-25.9,16.2-30.7c24.9-8.3,54.9,6,58.7,28.5
		C680.7,446.2,679.1,457.1,665.7,465.5z"/>
	<path id="Shape-7" class="st4" d="M456,649.5c-4.6-7.2-9.5-14.3-14.6-21.7c6.8-3.7,12.6-6.8,18.6-10c-4.9-7.1-9.1-13.5-13.7-20.1
		c-6.8,2.4-12.5,4.5-20.3,7.3c-6.3-9.1-11.7-17.9-18.3-26.1c-12.2-15.1-29.8-22.7-53.1-20.1c-22.3,2.5-37.7,12.3-43.6,29.3
		c-6,17.2-1.3,33.4,18.2,43.4c12.1,6.2,27.8,8.1,41.6,11.9c0.7-0.9,0,0.1-0.9,1.1c-17.8,19.6-16.7,41.8,3,56.7
		c18.1,13.7,47.5,15.4,68.1,4.1C463.6,692.7,469.5,670.7,456,649.5z M369.2,608.9c-6.2,2.4-13.8,0.5-17-4.3s-0.7-10.7,5.6-13.2
		c6.2-2.5,13.7-0.5,17,4.3C378,600.5,375.4,606.4,369.2,608.9z M416.5,679.8c-6.2,2.4-13.7,0.5-17-4.3c-3.2-4.8-0.7-10.7,5.6-13.2
		c6.2-2.5,13.8-0.5,17,4.3S422.7,677.4,416.5,679.8L416.5,679.8z"/>
	<path id="Shape-8" class="st4" d="M924.5,487.8c-5.7,2.2-11.3,4.1-16.8,6.4c-74.1,30.7-150.8,56.6-231.5,74
		c-8.9,1.7-18,1.4-26.8-0.9c-27.3-7.7-54.3-10.5-82.6-4.2c-9.5,2.1-19.4,4.1-29.1,4.3c-11.8,0.1-23.6-1.7-38.7-3
		c11.1-8.7,17.3-11.6,26.8-3.6c7.7,6.5,16,2.4,16.8-4.5c-6.2-3.2-10.5-6.4-15.7-7.9c-6.7-1.9-13.9-2.5-20.9-3.5
		c-7-1-16.3,0.2-20.3-3c-4.4-3.5-3.8-11-5.3-16.7c35,19.6,70.5,22.1,104.3,18.9c3-7.1,4-12,6.9-16.1c8-11.3,2.6-25.3-12.1-24.9
		c-16.1,0.4-23.8-6.9-30.7-15.4c-6.3-7.6-12.6-8.8-21.8-4c-28.4,14.6-56.7,29.1-85.3,43.4c-13.1,6.5-13.6,12.6-4,22.7
		c47.9,51.1,73.8,109.8,88,172.1c4.6,20.1,6.7,40.6-2.8,60.5c-11,22.8-40.7,28.6-62.9,11.9c-8.1-6.1-14.6-13.7-21.8-20.7
		c-5.6,3.5-10.8,6.9-16.9,10.9c-13.5-11.1-26.8-22.1-40.5-33.4c-2.6,1.3-4.9,2.2-6.8,3.5c-7.1,4.8-14,9.8-21.2,14.8
		c3.1,4.2,5.9,7.9,8.7,11.8c-51.1,11.8-62.4,27.3-45.1,60.4c2.7,5.1,4,11.6,14.8,9c8.6-2.1,17-2.5,15.9-12.9
		c-0.6-5.5,2.1-11.6,5-16.8c5.3-9.8,12.2-11.3,26.7-6.7L360.8,826c25.5,11.6,47,23.7,70.6,31.7c59.1,20,112,1.1,135.1-46.9
		c8.3-17.3,14.7-35.3,21-50.4c4,1.9,8.6,5.3,13.9,6.1c28.4,4.7,53.4,14.4,72.9,31.5c13.9,12.2,26.1,25.7,39.5,39.1
		c3.6-1.7,8.3-3.9,13.5-6.4c12.7,12.4,24.7,24.2,37.1,36.3c10.5-6.1,19.7-11.5,29.3-17.1c-2.9-4.6-5.5-8.5-8.2-12.8
		c2.2-0.5,3.6-1.1,5-1.1c46-3,63.1-25.7,44.4-59.6c-1.4-2.6-7-5-11-5.5c-12.9-1.5-17.8,3.4-18.9,14.1c-1.9,17.6-13.6,24.3-30.6,19
		c5.3-3.5,10.3-6.9,15.9-10.6c-20-31.8-48.9-53.9-93.4-61.6c22.2-26.4,31.5-54.3,27.7-85c-0.8-6.3-2-10.7-12.8-10.2
		c-22.8,0.9-45.6,0.3-68.4,0.3c35.1-5.3,70.1-8.4,105.2-10.9c16.2-1.2,27.9-4.9,26.3-20.6c-0.5-5.6,1.7-11.3,2.4-15.5
		c5.5,0,10.5,1,14.7-0.1c27.6-7.7,44.2-22.9,47-46.6c0.8-7,4-10.8,12.3-13.8c21.8-7.8,43.1-16.7,64.7-25.1
		C924.3,500.7,929.7,496.6,924.5,487.8z M533,497.8c0.7,0,1.5,0.1,2.2,0.2c-1.4,1.2-2.2,3-2.2,4.8c0,3.5,3.1,6.5,7.2,7.3
		c-1.9,1.8-4.5,2.8-7.2,2.7c-5.2,0-9.4-3.4-9.4-7.5C523.6,501.1,527.9,497.8,533,497.8z"/>
</g>
</svg>
