<svg xmlns="http://www.w3.org/2000/svg" viewBox="0 0 1500 1500"><defs><style>.cls-1{fill:none;stroke:#bf4e23;stroke-linecap:round;stroke-linejoin:round;stroke-width:46px;}</style></defs><title>Iconos_Ubicaciones</title><g id="Capa_3" data-name="Capa 3"><g id="cerveza"><path class="cls-1" d="M873.42,572.63c-39.67,30.2-39.67,72.3-39.52,86.47.18,14.62,3.75,29.38,7.7,43.39,3.65,13,7.66,25.78,9.82,39.08,10.4,45.69-34.49,54.09-46.19,24.82-17.29-43.22-3.68-88.8-24-111.54-8.54-9.55-21.28-19.65-48.22-16.32-71.78,8.82-74.49,45-79.11,73.77l-.87,5.39c-1.12,6.79-1.8,14.51-2.57,23.45-4.77,54.78-13,84.92-42.91,87.33-14.61,1.29-21.81-3.76-26.41-8.23-11.93-11.57-31.11-47-25.68-154,1.57-30.63-28.88-114.49-85.13-122"/><polyline class="cls-1" points="381.27 1145.42 381.27 1039.76 381.27 558.43"/><line class="cls-1" x1="941.21" y1="566.52" x2="941.21" y2="1145.42"/><path class="cls-1" d="M957.77,629h101.67a18.15,18.15,0,0,0,2.21-.09c10.2-.82,45.69-1.3,75.85,24,27.17,22.78,42,59,43.94,107.76,2.54,62.11-.71,216.25-85.44,305.66-36.16,38.13-82.56,59.76-138.23,64.59"/><path class="cls-1" d="M957.77,712.48h64.67a13.29,13.29,0,0,0,1.41-.05c6.48-.52,29-.82,48.22,15.61,17.27,14.81,26.67,38.4,27.93,70.09,1.64,40.42-.45,140.69-54.32,198.84-23,24.82-52.48,38.87-87.88,42"/><rect class="cls-1" x="333.27" y="1160.92" width="655.95" height="113.74" rx="50.91" ry="50.91"/><path class="cls-1" d="M638.67,485.26a81.26,81.26,0,1,0-64.51-130.65,81.27,81.27,0,1,0-156.9,42.46q1,3.6,2.27,7.09c-1.63-.1-3.31-.15-5-.15a81.18,81.18,0,1,0,76.2,53.16"/><path class="cls-1" d="M841.81,538.58c1.59,0,3.17,0,4.75-.1A81.25,81.25,0,1,0,963.35,425.82c.22-3,.35-6.05.35-9.12a121.89,121.89,0,0,0-243.77,0"/><path class="cls-1" d="M581.75,319a104.68,104.68,0,0,1,208.46-19.26"/></g><circle class="cls-1" cx="750" cy="750" r="727.68"/><line class="cls-1" x1="247.41" y1="1276.84" x2="1274.42" y2="249.84"/></g></svg>