<svg xmlns="http://www.w3.org/2000/svg" viewBox="0 0 1500 1500"><defs><style>.cls-1{fill:none;stroke:#f07122;stroke-linecap:round;stroke-linejoin:round;stroke-width:46px;}</style></defs><title>Iconos_Ubicaciones</title><g id="Capa_3" data-name="Capa 3"><g id="cerveza"><path class="cls-1" d="M941,375.7c-33.24,25.3-33.24,60.58-33.12,72.46.16,12.25,3.14,24.61,6.46,36.35,3.06,10.86,6.42,21.6,8.23,32.75,8.71,38.28-28.9,45.33-38.71,20.8-14.49-36.22-3.08-74.42-20.12-93.47-7.15-8-17.83-16.46-40.4-13.67-60.15,7.39-62.42,37.68-66.29,61.82l-.73,4.51c-.94,5.69-1.51,12.15-2.16,19.65-4,45.91-10.91,71.16-36,73.18-12.24,1.08-18.28-3.16-22.13-6.9-10-9.69-26.07-39.34-21.52-129.06,1.31-25.66-24.2-95.93-71.34-102.2"/><line class="cls-1" x1="528.21" y1="654.27" x2="528.56" y2="363.8"/><line class="cls-1" x1="997.75" y1="370.57" x2="997.75" y2="628.39"/><path class="cls-1" d="M1011.63,422.93h85.2a16.43,16.43,0,0,0,1.85-.07c8.55-.69,38.28-1.09,63.56,20.11,22.77,19.08,35.15,49.46,36.81,90.29V635.8"/><path class="cls-1" d="M1018,493c5.43-.43,83-3,102,6,14.47,12.42,9.94,100.44,11,127"/><path class="cls-1" d="M899.72,963.37,739,964"/><path class="cls-1" d="M750,869l126.88,0"/><path class="cls-1" d="M744.25,302.49A68.09,68.09,0,1,0,690.19,193a68.1,68.1,0,1,0-131.48,35.58c.55,2,1.18,4,1.91,5.94-1.37-.08-2.78-.13-4.18-.13A68,68,0,1,0,620.3,279"/><path class="cls-1" d="M914.47,347.16c1.33,0,2.65,0,4-.08a68.08,68.08,0,1,0,102.82-89.26,66.74,66.74,0,0,0-5-5.14c.18-2.52.29-5.08.29-7.65a102.14,102.14,0,0,0-204.27,0"/><path class="cls-1" d="M696.55,163.2a87.71,87.71,0,0,1,174.67-16.14"/></g><path class="cls-1" d="M411.22,1429.31l249.21-3.24m-99.51-7.87-2.45-188.13c155-41.91,182.32-247.67,180.76-397.46l0-1.69,0-2.63c-1.09-84.47-11.29-150.15-12.33-156.69a25.2,25.2,0,0,0-25.19-21.22L349.83,655a25.17,25.17,0,0,0-24.62,21.86c-.88,6.57-9.32,72.49-8.27,157l0,2.63,0,1.69c2.35,149.77,35,354.77,191,392.64l2.44,188.12"/><line class="cls-1" x1="316.87" y1="816.48" x2="727.88" y2="811.15"/><path class="cls-1" d="M884.48,1415.37,1137,1412.1M982.55,1214.17,985,1404.78M1033.75,1214c-1.11-85.59,171.58-559.68,170.52-566.31a25.52,25.52,0,0,0-25.52-21.5l-356.47,4.63a25.52,25.52,0,0,0-24.95,22.15c-.88,6.66,184.47,475.44,185.54,561m53.29,190.16-2.48-190.61"/><line class="cls-1" x1="862.46" y1="793.36" x2="1164.34" y2="789.97"/></g></svg>