<svg id="Capa_1" data-name="Capa 1" xmlns="http://www.w3.org/2000/svg" viewBox="0 0 1500 1500"><defs><style>.cls-1{fill:#fff;}</style></defs><title>ADomicilio-02</title><path class="cls-1" d="M1053,1207.49H591.55a11,11,0,0,1,0-22H1053a11,11,0,0,1,0,22Z"/><path class="cls-1" d="M352.28,1207.49H237.48a11,11,0,0,1-11-11V1148.4H152.69a11,11,0,0,1-11-11V1104a11,11,0,0,1,10.75-11l105.64-2.46,35.05-40L96,1048.19a11,11,0,0,1,.13-22h.13l221,2.57a11,11,0,0,1,8.15,18.24l-54,61.66a11,11,0,0,1-8,3.75l-99.74,2.32v11.66h73.79a11,11,0,0,1,11,11v48.09h103.8a11,11,0,0,1,0,22Z"/><path class="cls-1" d="M337.87,1015.76h-.08L91.26,1014a11,11,0,0,1,.08-22h.08l239.09,1.75,7.07-17.29a11,11,0,0,1,20.36,8.33l-9.89,24.18A11,11,0,0,1,337.87,1015.76Z"/><path class="cls-1" d="M34.5,968.55a11,11,0,0,1-11-11v-9a11,11,0,0,1,21.8-2.13L358.15,944a11,11,0,1,1,.17,22L34.59,968.55Z"/><path class="cls-1" d="M34.5,931.85a11,11,0,0,1-.11-22l318-3.27v-74c-49.09.95-239.86,4.29-285.56-.28C44.7,830.11,29,822.73,20.16,810.4a39.29,39.29,0,0,1-6.94-28.48c-.18-17.3-2.45-244.28,0-320.6C16,374.59,67.89,359.19,70.1,358.58a10.86,10.86,0,0,1,2.94-.4H450.73c23.73,0,42.49,7,55.77,20.85,19.84,20.7,19.55,49.14,19.46,52.06L521.9,721.87a11,11,0,0,1,19.48,7h0c0,.5.57,50.59,32.79,58.68a11,11,0,0,1-2.53,21.67l-61.66.87a11,11,0,0,1-11.15-11.15L504,430.69c0-.1,0-.21,0-.31s.54-21.77-13.48-36.25c-9-9.26-22.34-13.95-39.76-13.95H74.92c-2.85,1.16-10.37,4.83-18.14,13.87-13.16,15.3-20.62,38.8-21.56,68-2.53,78.5,0,318.27,0,320.69a8.34,8.34,0,0,1-.26,2.5,17.3,17.3,0,0,0,3.26,12.62c5,6.72,15.65,11.08,30.77,12.59,50.14,5,291.71,0,294.14,0a11,11,0,0,1,11.23,11v96.09a11,11,0,0,1-10.88,11L34.62,931.85ZM521.52,749l-.54,38.9,16.41-.23A82.69,82.69,0,0,1,525,763,118.63,118.63,0,0,1,521.52,749Zm19.86-20.14h0Z"/><path class="cls-1" d="M931.23,1035.14A76.19,76.19,0,0,1,910.4,1032a105.24,105.24,0,0,1-20.56-8.29,11,11,0,0,1-5.05-6.09L814.7,809.21H777.22l-2.05,41a11,11,0,0,1-12.08,10.39c-.11,0-11.19-1.12-22.71-1.09a98.45,98.45,0,0,0-15.5,1c-1.4.23-2.72.45-3.87,7.6a11,11,0,1,1-21.72-3.5c.9-5.63,3.66-22.75,22-25.8a120.35,120.35,0,0,1,19.09-1.3c4.79,0,9.44.16,13.4.37l2-40.2a11,11,0,0,1,11-10.45h55.86A11,11,0,0,1,833,794.7l71.18,211.59c9.26,4.3,27.1,10.25,38.57,4.38,6.88-3.52,11.3-11.55,13.15-23.9-3.93-12.52-23.25-73.7-44.53-136.31-41.26-121.38-54.94-145.56-58.79-150.33-14.3-4.08-83.67-6.5-145-6.5a11,11,0,0,1-9.49-16.56l43.68-74.51a11,11,0,0,1,9.66-5.44l156.63,2.49c4.78-6.31,11.29-17.45,9.25-26.54-1.39-6.22-7.1-11.51-17-15.74l-124.06-7.6a11,11,0,0,1-9.11-16c.23-.46,23.51-46.76,11.57-83.05C774,436,764.25,425.18,749,417.56a42.42,42.42,0,0,0-35.11-2c-45.06,16.37-79.79,94.23-80.89,96.73L552,705.71a11,11,0,1,1-20.29-8.5l81-193.54s0-.09,0-.13c1.57-3.62,39.1-88.87,93.56-108.68,17.84-6.49,35.5-5.48,52.49,3,20.52,10.26,34.29,25.74,40.93,46,10.15,31,.76,65.55-6.47,84.83l110.31,6.75a10.83,10.83,0,0,1,3.41.77c18,7.21,28.76,18,31.87,32.11,5.41,24.48-15.29,47.34-17.66,49.87a11,11,0,0,1-8,3.46H913l-155.45-2.47-30.77,52.49c39.73.31,118.59,1.76,135.24,8.42,6,2.41,12.55,8.25,31.33,55.57,9.92,25,22.31,59.21,36.82,101.71,24.65,72.21,47.23,144.4,47.46,145.12a11,11,0,0,1,.42,4.59c-2.57,21.4-11.1,35.93-25.36,43.18A46.87,46.87,0,0,1,931.23,1035.14ZM852,699.44Z"/><path class="cls-1" d="M833.56,1066.18a11,11,0,0,1-4.29-.87,289.34,289.34,0,0,1-64.38-40.16c-43-35.47-65.66-77.45-65.66-121.41a11,11,0,0,1,22,0c0,84.21,99.12,133.26,114.6,140.41l166.65-2.46c41-59,66-115,74.44-166.42,6.87-41.89,2.79-81-12.11-116.29a196.59,196.59,0,0,0-12.32-24.25,205.48,205.48,0,0,0-15.29-22.07,214.57,214.57,0,0,0-16.37-18.36c-1.5-1.51-6.7-5.37-10.14-7.93s-6.38-4.74-8.13-6.28a11,11,0,0,1,14.56-16.49c1,.92,4,3.15,6.69,5.11,6,4.46,10.12,7.57,12.59,10a239.13,239.13,0,0,1,18,20.24,226.64,226.64,0,0,1,16.92,24.44,218.6,218.6,0,0,1,13.71,27c16.55,39.16,21.11,82.36,13.56,128.42-9.21,56.11-36.58,116.71-81.38,180.12a11,11,0,0,1-8.82,4.65l-174.71,2.57Zm174.71-13.57h0Z"/><path class="cls-1" d="M1478.45,1207.49H1362.83a11,11,0,0,1,0-22h100.74c-9.69-28.53-37-94.38-90.88-126-58-34-89.18-64.9-92.63-91.83-1.49-11.6,2.23-22.25,10.76-30.78,9.12-9.12,15.89-34.25,11.43-60.52-3.63-21.44-15.63-50.7-52.11-68.28-37-17.85-65.31-33.53-83.11-52-18.7-19.42-26.09-42.27-23.26-71.93a11,11,0,0,1,11-10h78.92V623.54a11,11,0,0,1,11-11h25V531.77h-40.39a11,11,0,0,1-11-10.65l-2.22-69h-27.89a11,11,0,0,1-11-11v-22.4H1021l-1.73,20.74a11,11,0,0,1-11,10.09H989l9.73,204.3a11,11,0,1,1-22,1L966.45,439.07a11,11,0,0,1,11-11.52h20.71l1.73-20.75a11,11,0,0,1,11-10.08h177.28a11,11,0,0,1,11,11v22.4h27.54a11,11,0,0,1,11,10.64l2.23,69h40.74a11,11,0,0,1,11,11V623.54a11,11,0,0,1-11,11h-25V685.2a11,11,0,0,1-11,11h-79.48c0,39.48,25.66,58.89,94.54,92.1,35.06,16.9,57.88,46.89,64.24,84.42,5.32,31.31-1.91,64.1-17.56,79.76-3.74,3.73-5.13,7.57-4.5,12.42,1.15,9,11.44,34.33,81.93,75.65,77.61,45.49,104.22,148.89,105.31,153.27a11,11,0,0,1-10.67,13.67Z"/><path class="cls-1" d="M822.61,401a123.64,123.64,0,1,1,39-241,11,11,0,1,1-6.94,20.87,102,102,0,1,0,48,33.85A11,11,0,1,1,920,201.21,123.64,123.64,0,0,1,822.61,401Z"/><path class="cls-1" d="M471.17,1346.83c-72.44,0-131.38-58.94-131.38-131.38s58.94-131.38,131.38-131.38S602.55,1143,602.55,1215.45,543.61,1346.83,471.17,1346.83Zm0-240.76a109.38,109.38,0,1,0,109.38,109.38A109.51,109.51,0,0,0,471.17,1106.07Z"/><path class="cls-1" d="M1213.89,1346.83c-72.44,0-131.38-58.94-131.38-131.38s58.94-131.38,131.38-131.38,131.38,58.94,131.38,131.38S1286.33,1346.83,1213.89,1346.83Zm0-240.76a109.38,109.38,0,1,0,109.38,109.38A109.51,109.51,0,0,0,1213.89,1106.07Z"/><path class="cls-1" d="M455.93,773.3H78.63a11,11,0,0,1,0-22h377.3a11,11,0,1,1,0,22Z"/><path class="cls-1" d="M977.44,1149.67H629a11,11,0,0,1,0-22H977.44a11,11,0,0,1,0,22Z"/><path class="cls-1" d="M1250.42,968.75a11,11,0,0,1-7.78-18.78c9.12-9.12,15.89-34.25,11.43-60.52-3.64-21.44-15.63-50.7-52.11-68.29-37-17.84-65.31-33.52-83.12-52-18.69-19.42-26.08-42.27-23.25-71.93a11,11,0,0,1,21.9,2.08c-4.42,46.39,19.6,66.17,94,102.06,35.06,16.9,57.87,46.89,64.24,84.42,5.31,31.31-1.91,64.1-17.56,79.76A11,11,0,0,1,1250.42,968.75Z"/><path class="cls-1" d="M1213.89,1311.57a11,11,0,0,1,0-22,74.2,74.2,0,0,0,74.12-74.12,11,11,0,0,1,22,0A96.23,96.23,0,0,1,1213.89,1311.57Z"/><path class="cls-1" d="M465.17,1311.57a11,11,0,0,1,0-22,74.2,74.2,0,0,0,74.12-74.12,11,11,0,0,1,22,0A96.23,96.23,0,0,1,465.17,1311.57Z"/><path class="cls-1" d="M1035.79,644.2a11,11,0,0,1-11-10.46l-8-164a11,11,0,1,1,22-1.06l8,164a11,11,0,0,1-10.45,11.52Z"/><path class="cls-1" d="M1019.93,1150.17a11,11,0,0,1-10.76-8.77l-.2-1a11,11,0,1,1,21.54-4.47l.21,1a11,11,0,0,1-8.54,13A10.83,10.83,0,0,1,1019.93,1150.17Z"/><path class="cls-1" d="M887.79,197.15A11,11,0,0,1,877,188.37l-.2-1A11,11,0,0,1,898.37,183l.21,1a11,11,0,0,1-8.55,13A10.72,10.72,0,0,1,887.79,197.15Z"/></svg>