<svg xmlns="http://www.w3.org/2000/svg" viewBox="0 0 1500 1500"><defs><style>.cls-1,.cls-3{fill:none;stroke:#fff;stroke-linecap:round;stroke-linejoin:round;}.cls-1{stroke-width:22px;}.cls-2{fill:#fff;}.cls-3{stroke-width:17px;}</style></defs><title>AlCineVips</title><g id="Capa_1" data-name="Capa 1"><path class="cls-1" d="M464.19,713.54l15.51-12a44.17,44.17,0,0,1,61.8,7.8l19.61,25.28a44.18,44.18,0,0,1-7.8,61.8l-287.48,223a43.63,43.63,0,0,1-15.56,7.71A44.21,44.21,0,0,1,204,1011.57l-19.61-25.28a44.19,44.19,0,0,1,7.81-61.8L412.41,753.7"/><polyline class="cls-1" points="737.12 1132.98 722.51 1104.81 558.64 791.49"/><path class="cls-1" d="M250.24,1029.18l268.69,282a16.19,16.19,0,0,0,21.52,1.72l194-147.43,14.16-10.76"/><path class="cls-1" d="M384.56,544.63s-87.87,87.87-84.11,104.19,48.58,154,48.58,154"/><path class="cls-1" d="M707.55,1076.22l-.23-151.51-.14-93.87S700.9,803.22,731,803.22s569.91-5,569.91-5,23.85-5,23.85,23.85V927.5L712.2,925"/><path class="cls-1" d="M1324.92,1140.88c.24-73.5-.13-213.38-.13-213.38"/><path class="cls-1" d="M715.85,1179.6l.11,29.09s-.89,6.1,32.64,6.27c42.08.23,402.3,0,502.64,0h25.85s18.66-2,32.65-13.4a39.53,39.53,0,0,0,15-30.53"/><line class="cls-1" x1="965.03" y1="802.42" x2="903.48" y2="925.18"/><line class="cls-1" x1="1099.2" y1="800.06" x2="1052.26" y2="892.92"/><line class="cls-1" x1="1230.91" y1="798.85" x2="1164.44" y2="925.18"/><path class="cls-1" d="M713.45,802s-50.21-90.39-13.81-101.68S1247,547.14,1247,547.14s41.43-16.32,51.47,20.08,26.36,95.41,26.36,95.41,3.77,27.61-37.66,35.15S896.73,802,896.73,802"/><line class="cls-1" x1="1152.98" y1="573.25" x2="1231.07" y2="681.51"/><line class="cls-1" x1="995.81" y1="617.01" x2="1099.2" y2="746.51"/><line class="cls-1" x1="873.45" y1="650.88" x2="965.03" y2="783.14"/><line class="cls-1" x1="816.15" y1="832.65" x2="758.22" y2="925.18"/><line class="cls-1" x1="727.12" y1="692.31" x2="834.54" y2="802.42"/><line class="cls-1" x1="526.7" y1="1265.36" x2="660.06" y2="1161.63"/><line class="cls-1" x1="688.26" y1="1139.42" x2="688.03" y2="1138.3"/><line class="cls-1" x1="238.23" y1="982.82" x2="503.97" y2="783.26"/><line class="cls-1" x1="849.74" y1="1158.66" x2="1226.13" y2="1158.66"/><line class="cls-1" x1="1263.22" y1="1159.17" x2="1262.99" y2="1158.06"/></g><g id="Capa_2" data-name="Capa 2"><path class="cls-2" d="M919.74,294.1H383.46a10,10,0,1,1,0-20.07H919.74a10,10,0,1,1,0,20.07Z"/><path class="cls-2" d="M885.36,636.05,910,283.36a10,10,0,0,1,20,1.4L906,631"/><path class="cls-2" d="M458.2,705.77,427.67,283.34a10,10,0,1,0-20,1.45L438.89,717S453.39,728.55,458.2,705.77Z"/><path class="cls-2" d="M775.16,667H495.69a10,10,0,1,1,0-20.07H848.62"/><path class="cls-2" d="M529.77,686.82l-1.65-29.27a10,10,0,1,1,20-1.12l2.66,47.29"/><path class="cls-2" d="M618.46,881.6a10,10,0,0,1-10-9.86l-3.81-214.57a10,10,0,1,1,20.06-.36l3.82,214.58a10,10,0,0,1-9.85,10.21Z"/><path class="cls-2" d="M709.93,686.83V657A10,10,0,1,1,730,657v24.52"/><path class="cls-2" d="M907.25,477H430.88a10,10,0,1,1,0-20.07H907.25a10,10,0,1,1,0,20.07Z"/><path class="cls-2" d="M526.9,477a10,10,0,0,1-10-9.69L510.5,284.41a10,10,0,1,1,20.06-.7l6.38,182.93A10,10,0,0,1,527.26,477Z"/><path class="cls-2" d="M614.64,477a10,10,0,0,1-10-9.6L596.69,284.5a10,10,0,0,1,20-.87l7.94,182.93a10,10,0,0,1-9.6,10.46Z"/><path class="cls-2" d="M729.77,441h-.17a10,10,0,0,1-9.86-10.2l2.53-146.88a10,10,0,0,1,10-9.86h.18a10,10,0,0,1,9.86,10.21L739.8,431.11A10,10,0,0,1,729.77,441Z"/><path class="cls-2" d="M804.37,476.55q-.37,0-.75,0a10,10,0,0,1-9.27-10.74l13.32-181.85c-.15-4.35-.06-23.52,12.62-37.56,8.49-9.4,20.41-14.38,35.42-14.79,26.37-.74,40,13.7,46.85,25.94a68.07,68.07,0,0,1,8.07,25.78,10,10,0,0,1-20,1.53,49.09,49.09,0,0,0-5.86-18c-6.08-10.56-15.41-15.52-28.48-15.16-9.45.26-16.35,2.94-21.09,8.18-8.25,9.14-7.45,23.37-7.44,23.51a12,12,0,0,1,0,1.47L814.36,467.24A10,10,0,0,1,804.37,476.55Z"/><path class="cls-2" d="M430.87,294.09a10,10,0,0,1-9.2-14c.89-2,22.09-49.86,60.61-48.49,31.17,1.11,46.73,27,50.6,40.55a10,10,0,0,1-19.3,5.51c-.29-1-7.77-25.14-32-26-9.92-.37-19.72,5.29-29.15,16.77a95.33,95.33,0,0,0-12.33,19.66A10.05,10.05,0,0,1,430.87,294.09Z"/><path class="cls-2" d="M588.63,251.65a10,10,0,0,1-9.42-6.59c-9.66-26.35-38.68-23.46-39.91-23.32l-.16,0c-.23,0-26.91,3.1-30.12,21.57a10,10,0,0,1-19.78-3.44C495,207,534,202.12,537,201.8c15.86-1.89,48.91,3.28,61,36.35a10,10,0,0,1-9.42,13.5Z"/><path class="cls-2" d="M651.48,294.1h-.07a10,10,0,0,1-10-10.1,42.37,42.37,0,0,0-4.28-16.87c-5.11-10.06-13.95-15.13-27-15.49l-1.27,0c-31.75,0-41.57,33.67-42,35.12a10,10,0,0,1-19.35-5.32,81.34,81.34,0,0,1,12.78-25.07C573,239.58,590.43,231,610.71,231.58c26.37.73,38.89,15.25,44.76,27.29a61.54,61.54,0,0,1,6,25.26A10,10,0,0,1,651.48,294.1Z"/><path class="cls-2" d="M651.74,221.81a10,10,0,0,1-9.68-7.42c-3.77-13.93-11.33-23.07-22.48-27.18A39.69,39.69,0,0,0,602.65,185a2.37,2.37,0,0,1-.42,0c-.75.1-10,1.46-19.6,9.16a10,10,0,1,1-12.52-15.69c14-11.2,27.44-13.14,29.94-13.42A58.75,58.75,0,0,1,625.48,168c12.5,4.33,28.88,15,35.95,41.15a10,10,0,0,1-9.69,12.65Z"/><path class="cls-2" d="M712.57,251.64a10,10,0,0,1-8.93-5.42c-13.81-26.72-33.19-24.52-33.39-24.5a7.67,7.67,0,0,1-2.53,0c-1.59-.12-20.25-1-33.46,24.49A10,10,0,0,1,616.44,237c18.18-35.16,46.1-35.68,52.52-35.29,6.4-.39,34.33.13,52.51,35.29a10,10,0,0,1-8.9,14.64Z"/><path class="cls-2" d="M779.12,284.92a10,10,0,0,1-8.92-5.43c-.14-.25-14.89-27.85-38.13-27.85-9,0-13.25,2.18-19.8,10.12A10,10,0,1,1,696.78,249c8.63-10.45,17.93-17.42,35.29-17.42,35.53,0,55.14,37.12,55.95,38.7a10,10,0,0,1-8.9,14.65Z"/><path class="cls-2" d="M750.43,251.65a9.84,9.84,0,0,1-2.44-.31,10,10,0,0,1-7.3-12.17c8.28-33.12,47.12-37.06,51.25-37.39a60.21,60.21,0,0,1,23.17,2.43c16.6,5.22,27.69,17.8,31.21,35.43a10,10,0,0,1-19.68,3.94c-2.11-10.56-7.85-17.18-17.55-20.22a41.06,41.06,0,0,0-15-1.63l-.6.06c-.25,0-28.37,2.26-33.37,22.25A10,10,0,0,1,750.43,251.65Z"/><path class="cls-2" d="M779.11,223.69a10.06,10.06,0,0,1-9.38-6.47c-5.89-15.47-14.83-25.58-26.55-30a35.51,35.51,0,0,0-16.28-2.24,5.21,5.21,0,0,1-1.41.15c-1,.08-9.72,1-18,10.17a10,10,0,1,1-14.88-13.48c13.12-14.48,27.67-16.45,31.51-16.72A54.89,54.89,0,0,1,749,168c12.34,4.36,29.2,15.2,39.46,42.12a10,10,0,0,1-9.38,13.62Z"/><path class="cls-2" d="M625.33,188.74a10.43,10.43,0,0,1-1.75-.15A10,10,0,0,1,615.44,177c6.47-36.64,37.14-48.56,52.61-49.77a59.85,59.85,0,0,1,25.53,3.62c12.48,4.7,28.41,15.87,33.43,42.38a10,10,0,1,1-19.72,3.73c-6.23-32.91-35.94-29.9-37.2-29.76l-.4,0c-1.12.09-29.12,2.88-34.49,33.25A10,10,0,0,1,625.33,188.74Z"/><circle class="cls-2" cx="954.67" cy="284.06" r="10.33"/><line class="cls-1" x1="608" y1="877" x2="701" y2="877"/><circle class="cls-2" cx="852.67" cy="617.06" r="10.33"/><line class="cls-3" x1="816" y1="617" x2="498" y2="617"/></g></svg>