<svg xmlns="http://www.w3.org/2000/svg" viewBox="0 0 1500 1500"><defs><style>.cls-1{fill:#fff;}</style></defs><title>Iconos finales</title><g id="wow"><path class="cls-1" d="M354.14,1133.42a23,23,0,0,1-16.4-39.12c1.83-1.87,45.62-46.3,113.54-106.34C514,932.48,609.75,853,709.47,789.52,801.42,731,936.51,662.06,1111,584.75c129.64-57.46,233.83-98.34,234.87-98.75a23,23,0,0,1,16.77,42.83c-4.11,1.61-413.49,162.59-628.45,299.49-186.09,118.51-361.89,296.44-363.64,298.23A22.92,22.92,0,0,1,354.14,1133.42Z"/><path class="cls-1" d="M668.2,205.23c76.85,0,196,20,306.1,115.89,4.91,4.91,120.11,98.05,73.54,247.58C949.79,355.44,724.28,250,714.47,245.13a26.46,26.46,0,0,0-9.78-1.87c-9.42,0-18.45,5-22.08,14.13-4.91,12.26,0,27,12.25,31.87,2.45,0,242.67,115.21,323.56,333.37-19.43,9.71-52.73,22.51-93.79,22.51a196.38,196.38,0,0,1-33.67-2.9C832.13,630,778.2,590.76,734.08,524.58c-39.22-63.74-129.91-232.87-132.37-313.76,14.18-2.7,37.28-5.59,66.49-5.59m0-46v0c-36.11,0-62.55,4-75.09,6.4a46,46,0,0,0-37.37,46.58c.71,23.69,6.79,52.28,18.56,87.41,9.26,27.63,22.06,59.19,38.05,93.8,28.86,62.49,62.51,122.69,82.55,155.26.3.48.6,1,.91,1.41,24.69,37,52.86,67.47,83.73,90.44,31.55,23.48,65.88,39.21,102,46.74l1.5.29a244.11,244.11,0,0,0,41.55,3.58c49.28,0,89.39-14.88,114.37-27.37a46,46,0,0,0,24.2-51.71,46,46,0,0,0,28.56-29.68c12.12-38.91,15.88-77.93,11.18-115.95A268.84,268.84,0,0,0,1074.7,376a309.4,309.4,0,0,0-68.22-87.83l-.53-.47c-.47-.45-1-.88-1.44-1.3-54.11-47.14-115.25-81.8-181.73-103A507.32,507.32,0,0,0,668.2,159.23Z"/><path class="cls-1" d="M986.56,708.42c22.06,7.35,53.93,22.06,76,56.38,31.86,51.47,46.57,161.78-53.93,387.29-49-31.86-156.88-127.46-144.62-294.15,0-4.9,2.45-78.44,68.63-127.46-14.71,73.54-31.86,210.81,2.45,299q7.36,14.71,22.06,14.71c2.45,0,4.91,0,9.81-2.45,12.26-4.91,19.61-19.61,14.71-31.87-34.32-88.24-7.36-242.67,4.9-301.5m-53.93,22.06h0m53.92-68.06a46,46,0,0,0-40.44,24.07,45.91,45.91,0,0,0-13.08-2h-.75a45.81,45.81,0,0,0-27.47,9.36,215.75,215.75,0,0,0-74.69,101.58c-10.3,29.11-11.86,52.84-12.09,60.33-3.09,43.69,1,86.19,12.17,126.32a357.24,357.24,0,0,0,44.51,98.51c38.3,59.13,84.62,94.35,108.83,110.08a46,46,0,0,0,67.09-19.84c47.43-106.44,74.5-198.64,80.44-274,5-64-4.86-116.54-29.42-156.22l-.42-.66c-22.67-35.27-56.36-60.55-100.14-75.14a45.92,45.92,0,0,0-14.54-2.36Z"/><path class="cls-1" d="M611.52,1268.24a132.85,132.85,0,1,1,94.4-38.91A132.54,132.54,0,0,1,611.52,1268.24Zm0-220.61a86.84,86.84,0,1,0,61.87,25.43A86.82,86.82,0,0,0,611.52,1047.63Z"/><path class="cls-1" d="M256.06,1340.77a133.49,133.49,0,1,1,133.31-133.31c0,35.58-14.19,69.15-40,94.52C324.39,1326.63,290.36,1340.77,256.06,1340.77Zm0-220.61a87.31,87.31,0,1,0,0,174.61c47.33,0,87.31-40,87.31-87.31a86.84,86.84,0,0,0-87.31-87.3Z"/><path class="cls-1" d="M464.45,871.14a132.85,132.85,0,1,1,94.39-38.91A132.53,132.53,0,0,1,464.45,871.14Zm0-220.61A86.84,86.84,0,1,0,526.31,676,86.82,86.82,0,0,0,464.45,650.53Z"/><path class="cls-1" d="M601.73,1033.38a23,23,0,0,1-19-10c-5.85-8.5-10.45-21.27-2.65-83.42,3.71-29.54,8.55-56.84,8.76-58a23,23,0,1,1,45.28,8.07c0,.24-4.27,24.07-7.72,50.39-5.63,42.88-4.57,56.47-4.06,59.8a23,23,0,0,1-20.65,33.11Zm20.8-32.29h0Zm-1.87-3.75,0,0Z"/><path class="cls-1" d="M541.9,839.61a23,23,0,0,1-1-46l179.9-7.69a23,23,0,0,1,2,46L542.9,839.59Z"/></g></svg>