<svg xmlns="http://www.w3.org/2000/svg" viewBox="0 0 1500 1500"><defs><style>.cls-1{fill:#fff;}</style></defs><title>Iconos finales</title><g id="cine"><path class="cls-1" d="M536.12,1193.37a49.57,49.57,0,0,1-34-13.36c-31.77-29.83-195.23-183.59-293.37-281.51a23,23,0,1,1,32.49-32.56c97.67,97.45,260.68,250.79,292.36,280.54a3.64,3.64,0,0,0,4.78.19L731,994.21a3.68,3.68,0,0,0,.87-4.77c-11.62-19.29-31.78-53.25-55.12-92.56-45.41-76.49-107.6-181.23-153.68-256.81a23,23,0,1,1,39.28-23.94c46.22,75.8,108.49,180.68,153.95,257.26,23.3,39.25,43.43,73.15,55,92.32a49.76,49.76,0,0,1-11.72,64.56L566.9,1182.74A49.46,49.46,0,0,1,536.12,1193.37Z"/><path class="cls-1" d="M228.29,900.17a23,23,0,0,1-14.3-41L523.92,613.63a23,23,0,0,1,28.56,36.06L242.55,895.2A22.92,22.92,0,0,1,228.29,900.17Z"/><path class="cls-1" d="M387.35,632.22a23,23,0,0,1-20.14-11.86L262.94,432a23,23,0,0,1,5.84-29.16L384.1,311.5a23,23,0,0,1,28.56,36.06l-100,79.24,94.83,171.28a23,23,0,0,1-20.1,34.14Z"/><path class="cls-1" d="M196.55,919a45.13,45.13,0,0,1-35.29-17L126.4,858a44.94,44.94,0,0,1,7.31-63.05L479.78,520.79a44.93,44.93,0,0,1,63,7.31l34.86,44a44.92,44.92,0,0,1-7.31,63h0L224.31,909.29A44.56,44.56,0,0,1,196.55,919Zm-33.39-88.69,33.46,42.25L540.93,599.79l-33.47-42.25ZM556.09,617.12h0Z"/><path class="cls-1" d="M1364.29,619.44H705.46a15,15,0,0,0-15,15V890.76c2.09,1.89,4.16,3.81,6.18,5.77,8.51,8.24,17.47,17.4,23.77,27.77V649.39h628.89V993.78a45,45,0,0,1-44.92,44.92H765.35a44.73,44.73,0,0,1-29.49-11.08,151.81,151.81,0,0,1-22.3,20.15,74.61,74.61,0,0,0,51.79,20.88H1304.4a75,75,0,0,0,74.86-74.87V634.42A15,15,0,0,0,1364.29,619.44Z"/><path class="cls-1" d="M1304.4,1072.65H765.35a78.43,78.43,0,0,1-54.56-22l-3.43-3.29,3.83-2.81a147.45,147.45,0,0,0,21.71-19.62l2.64-2.9,3,2.58a40.85,40.85,0,0,0,26.86,10.09H1304.4a41,41,0,0,0,40.92-40.92V653.39H724.43V938.6L717,926.38c-6.22-10.24-15.2-19.29-23.13-27-1.79-1.73-3.78-3.59-6.08-5.67l-1.32-1.19V634.42a19,19,0,0,1,19-19h658.83a19,19,0,0,1,19,19V993.78A79,79,0,0,1,1304.4,1072.65ZM719.82,1048a70.44,70.44,0,0,0,45.53,16.62H1304.4a71,71,0,0,0,70.86-70.87V634.42a11,11,0,0,0-11-11H705.46a11,11,0,0,0-11,11V889c1.83,1.67,3.46,3.21,5,4.67a201.38,201.38,0,0,1,17,18.09V645.39h636.89V993.78a49,49,0,0,1-48.92,48.92H765.35a48.77,48.77,0,0,1-29.09-9.63A155.85,155.85,0,0,1,719.82,1048Z"/><path class="cls-1" d="M705.46,672A14.93,14.93,0,0,1,691,660.68L662.75,549.16a44.86,44.86,0,0,1,33.54-54.71L1299.6,351.3a45.23,45.23,0,0,1,53.7,32.88l25.48,96.7a15,15,0,0,1-11.17,18.45L718.33,646.85l1.65,6.49A14.92,14.92,0,0,1,705.46,672Zm604.21-291.89a13.53,13.53,0,0,0-3.27.39L703.09,523.58a15,15,0,0,0-11.32,18.3L711,617.8l634.87-144.29-21.59-81.9A15.14,15.14,0,0,0,1309.67,380.08Z"/><path class="cls-1" d="M705.46,676a18.87,18.87,0,0,1-18.38-14.33l-28.21-111.5a48.89,48.89,0,0,1,36.54-59.6l603.27-143.13c25.88-5.86,52.11,10.2,58.5,35.8l25.47,96.65a19,19,0,0,1-14.12,23.36L723.22,649.84l.64,2.52A18.92,18.92,0,0,1,705.46,676Zm604-321.78a40.76,40.76,0,0,0-9,1L697.22,498.34a40.87,40.87,0,0,0-30.59,49.84L694.84,659.7A10.89,10.89,0,0,0,705.46,668a11.33,11.33,0,0,0,2.72-.32,10.94,10.94,0,0,0,7.92-13.32l-2.65-10.48,653.28-148.42a11,11,0,0,0,8.18-13.55l-25.48-96.68A41.28,41.28,0,0,0,1309.48,354.19ZM708.08,622.56l-20.19-79.7a19,19,0,0,1,2.22-14.54,19.23,19.23,0,0,1,12.06-8.63l603.31-143.12a17.69,17.69,0,0,1,4.19-.49,19,19,0,0,1,18.49,14.57l22.63,85.85Zm601.59-238.48a9.48,9.48,0,0,0-2.3.27L704,527.48a11,11,0,0,0-8.36,13.43L713.91,613l627-142.5-20.54-77.9A11.09,11.09,0,0,0,1309.67,384.08Z"/><path class="cls-1" d="M765.35,769.18a15,15,0,0,1-13.42-21.68l59.9-119.79a15,15,0,0,1,26.83,13.39L778.77,760.88A15,15,0,0,1,765.35,769.18Z"/><path class="cls-1" d="M765.35,773.18a19,19,0,0,1-17-27.47l59.9-119.79a19,19,0,0,1,34,17l-59.9,119.79A18.9,18.9,0,0,1,765.35,773.18Zm59.9-149.75a11.05,11.05,0,0,0-9.86,6.1L755.51,749.29a11,11,0,0,0,19.68,9.8l59.89-119.78a11,11,0,0,0-9.83-15.88Z"/><path class="cls-1" d="M915.08,769.18a15,15,0,0,1-13.41-21.68l59.89-119.79a15,15,0,1,1,26.8,13.39L928.47,760.88A14.92,14.92,0,0,1,915.08,769.18Z"/><path class="cls-1" d="M915.08,773.18a19,19,0,0,1-17-27.47L958,625.92a19,19,0,0,1,34,17l-59.9,119.79A18.8,18.8,0,0,1,915.08,773.18ZM975,623.45a11,11,0,0,0-9.88,6L905.25,749.29A11,11,0,0,0,910.17,764a11.17,11.17,0,0,0,4.91,1.16,10.85,10.85,0,0,0,9.8-6.07l59.91-119.8A10.94,10.94,0,0,0,975,623.45Z"/><path class="cls-1" d="M1064.82,769.18a15,15,0,0,1-13.42-21.68l59.9-119.79a15,15,0,1,1,26.8,13.39l-59.89,119.78A14.93,14.93,0,0,1,1064.82,769.18Z"/><path class="cls-1" d="M1064.82,773.18a19,19,0,0,1-17-27.47l59.9-119.79a19,19,0,1,1,34,17l-59.9,119.79A18.79,18.79,0,0,1,1064.82,773.18Zm60-149.72a11.1,11.1,0,0,0-9.91,6.06L1055,749.29a11,11,0,0,0,9.84,15.89,10.87,10.87,0,0,0,9.8-6.07l59.9-119.8a10.92,10.92,0,0,0-9.74-15.85Z"/><path class="cls-1" d="M1214.55,769.18a15,15,0,0,1-13.41-21.68L1261,627.71a15,15,0,1,1,26.8,13.39l-59.89,119.78A14.92,14.92,0,0,1,1214.55,769.18Z"/><path class="cls-1" d="M1214.55,773.18a19,19,0,0,1-17-27.47l59.89-119.79a19,19,0,0,1,34,17l-59.9,119.79A18.79,18.79,0,0,1,1214.55,773.18Zm59.87-149.75a11,11,0,0,0-9.82,6.09l-59.88,119.77a11,11,0,0,0,4.92,14.73,11.17,11.17,0,0,0,4.91,1.16,10.87,10.87,0,0,0,9.81-6.07l59.9-119.8a11,11,0,0,0-9.84-15.88Z"/><path class="cls-1" d="M1364.29,769.18H705.46a15,15,0,1,1,0-29.95h658.83a15,15,0,0,1,0,29.95Z"/><path class="cls-1" d="M1364.29,773.18H705.46a19,19,0,1,1,0-37.95h658.83a19,19,0,0,1,0,37.95ZM705.46,743.23a11,11,0,1,0,0,21.95h658.83a11,11,0,0,0,0-21.95Z"/><path class="cls-1" d="M839.68,618.87a15,15,0,0,1-10.6-4.37L725.94,511.34a15,15,0,0,1,21.17-21.18L850.25,593.3a15,15,0,0,1,0,21.17A14.81,14.81,0,0,1,839.68,618.87Z"/><path class="cls-1" d="M839.68,622.88a19,19,0,0,1-13.42-5.53L723.11,514.16a19,19,0,0,1,26.83-26.83L853.08,590.47a19,19,0,0,1-13.4,32.41ZM736.53,489.78a11,11,0,0,0-7.76,18.73L831.91,611.67a11,11,0,0,0,7.77,3.21,11,11,0,0,0,7.74-18.75L744.28,493A10.88,10.88,0,0,0,736.53,489.78Z"/><path class="cls-1" d="M986.15,585.57a15,15,0,0,1-10.6-4.37L872.35,478.06a15,15,0,1,1,21.17-21.17L996.75,560a15,15,0,0,1-10.6,25.54Z"/><path class="cls-1" d="M986.15,589.57A19,19,0,0,1,972.73,584L869.52,480.89a19,19,0,1,1,26.83-26.83L999.58,557.2a19,19,0,0,1-13.43,32.37ZM882.94,456.51a11,11,0,0,0-7.76,18.73l103.2,103.13a11,11,0,1,0,15.54-15.51L890.7,459.72A10.94,10.94,0,0,0,882.94,456.51Z"/><path class="cls-1" d="M1132.56,552.3a15,15,0,0,1-10.6-4.37L1018.91,444.76a15,15,0,1,1,21.17-21.17l103.05,103.17a15,15,0,0,1,0,21.17A14.77,14.77,0,0,1,1132.56,552.3Z"/><path class="cls-1" d="M1132.56,556.3a19,19,0,0,1-13.42-5.53L1016.08,447.59a19,19,0,0,1,26.83-26.83l103,103.17a19,19,0,0,1-13.4,32.37ZM1029.5,423.21a11,11,0,0,0-7.76,18.72l103,103.17a11,11,0,0,0,7.77,3.2,10.81,10.81,0,0,0,7.73-3.18,11,11,0,0,0,0-15.53l-103-103.17A10.87,10.87,0,0,0,1029.5,423.21Z"/><path class="cls-1" d="M1278.88,519.06a15.05,15.05,0,0,1-10.6-4.37L1165.2,411.52a15,15,0,1,1,21.17-21.17l103.08,103.17a15,15,0,0,1-10.57,25.54Z"/><path class="cls-1" d="M1278.88,523.06a18.92,18.92,0,0,1-13.41-5.53l-103.1-103.18a19,19,0,1,1,26.83-26.83l103.08,103.17a19,19,0,0,1-13.4,32.37ZM1175.79,390a11,11,0,0,0-7.76,18.72l103.08,103.17a11,11,0,0,0,18.72-7.76,10.87,10.87,0,0,0-3.21-7.75L1183.54,393.18A10.9,10.9,0,0,0,1175.79,390Z"/></g></svg>