<svg xmlns="http://www.w3.org/2000/svg" viewBox="0 0 1500 1500"><defs><style>.cls-1{fill:#fff;}</style></defs><title>Iconos finales</title><g id="cupones"><path class="cls-1" d="M791.24,707.75a76,76,0,1,1,74.13-93h0a76.07,76.07,0,0,1-74.13,93Zm0-106.09A30,30,0,1,0,820.53,625h0A30.09,30.09,0,0,0,791.25,601.66Z"/><path class="cls-1" d="M798.81,925.06a23,23,0,0,1-19.47-35.22L1018.41,508.5a23,23,0,1,1,39,24.43L818.32,914.28A23,23,0,0,1,798.81,925.06Z"/><path class="cls-1" d="M1045.33,867.15a76.06,76.06,0,1,1,74.26-93.07h0a76,76,0,0,1-57.12,91.11A76.4,76.4,0,0,1,1045.33,867.15Zm.21-106.13a30.65,30.65,0,0,0-6.78.77,30,30,0,1,0,36,22.57h0A30.08,30.08,0,0,0,1045.54,761Z"/><path class="cls-1" d="M310.05,1307.19a102.73,102.73,0,0,1-100-79.64l-34.89-152.14a23,23,0,0,1,17.27-27.56c77-17.66,123.07-104.48,102.64-193.53-10-43.67-34.27-81.18-68.3-105.63-33.14-23.81-71.65-32.27-108.41-23.84a23,23,0,0,1-27.56-17.28L56,555.44a102.68,102.68,0,0,1,77-122.89L1167,195.41a102.68,102.68,0,0,1,122.89,77L1444,944.56a102.56,102.56,0,0,1-77,122.89L333,1304.59A102.63,102.63,0,0,1,310.05,1307.19Zm-85.21-221.13,30.09,131.2a56.63,56.63,0,0,0,67.78,42.49l1034-237.13a56.56,56.56,0,0,0,42.48-67.78l-154.13-672.1a56.63,56.63,0,0,0-67.78-42.49l-1034,237.13a56.63,56.63,0,0,0-42.49,67.78l30.1,131.2c42.56-3.93,85.42,8.14,122.77,35,43.13,31,73.78,78.12,86.3,132.71s5.47,110.36-19.85,157C298.18,1041.51,264.87,1071.05,224.84,1086.06Z"/><path class="cls-1" d="M556.17,1252.81a23,23,0,0,1-22.4-17.87l-189.7-827.2a23,23,0,1,1,44.83-10.28l189.71,827.2a23,23,0,0,1-22.44,28.15Z"/></g></svg>