<svg xmlns="http://www.w3.org/2000/svg" viewBox="0 0 1500 1500"><defs><style>.cls-1{fill:#fff;}</style></defs><title>Iconos finales</title><g id="estrella"><path class="cls-1" d="M382.46,1351.8a36.31,36.31,0,0,1-35.69-42.41L407.22,957A73.34,73.34,0,0,0,386.13,892L130.07,642.44a36.25,36.25,0,0,1,20.09-61.83L504,529.19a73.35,73.35,0,0,0,55.23-40.12L717.5,168.42a36.24,36.24,0,0,1,65,0L940.76,489.07A73.32,73.32,0,0,0,996,529.19l353.86,51.42a36.25,36.25,0,0,1,20.09,61.83L1113.87,892A73.33,73.33,0,0,0,1092.78,957l60.45,352.44a36.25,36.25,0,0,1-52.59,38.21L784.13,1181.2a73.3,73.3,0,0,0-68.26,0L399.36,1347.6A36.29,36.29,0,0,1,382.46,1351.8ZM176.33,623.29l241.9,235.8a119.33,119.33,0,0,1,34.33,105.64l-57.11,333,299-157.2a119.35,119.35,0,0,1,111.08,0l299,157.2-57.11-333a119.31,119.31,0,0,1,34.33-105.64l241.9-235.8-334.3-48.57a119.32,119.32,0,0,1-89.86-65.29L750,206.5,600.5,509.43a119.35,119.35,0,0,1-89.87,65.29Zm1166.9,2.85h0Zm-602-437.37h0Z"/></g></svg>