<svg id="Capa_55" data-name="Capa 55" xmlns="http://www.w3.org/2000/svg" viewBox="0 0 1500 1500"><defs><style>.cls-1{fill:none;stroke:#000;stroke-linecap:round;stroke-linejoin:round;stroke-width:22px;}</style></defs><title>Favoritos</title><path class="cls-1" d="M337.85,965.88a76.3,76.3,0,0,0-21.48-67.7L57.12,642c-45-44.46-19.47-121.22,43.19-129.88l361.05-49.94a76.29,76.29,0,0,0,57.74-41.35L682.65,95.07C711,38.54,791.92,39.1,819.53,96L978.59,424a76.3,76.3,0,0,0,57.17,42.14l51.37,7.83"/><path class="cls-1" d="M1215.05,493.41l181,27.58c62.54,9.52,87,86.62,41.41,130.46l-130.21,125.2L1260,822.13l-43.2,41.54-42,40.4a76.33,76.33,0,0,0-22.41,67.4l59.15,359.66c10.26,62.41-55.5,109.51-111.29,79.69L778.76,1239a76.35,76.35,0,0,0-71-.49L384,1405.9c-56.19,29-121.3-18.94-110.18-81.21L298,1189.33,306.4,1142l20.27-109.15"/><line class="cls-1" x1="1152.57" y1="485.2" x2="1152.22" y2="483.51"/></svg>