<?xml version="1.0" encoding="utf-8"?>
<!-- Generator: Adobe Illustrator 22.0.0, SVG Export Plug-In . SVG Version: 6.00 Build 0)  -->
<svg version="1.1" id="Layer_1" xmlns="http://www.w3.org/2000/svg" xmlns:xlink="http://www.w3.org/1999/xlink" x="0px" y="0px"
	 viewBox="0 0 1500 1500" style="enable-background:new 0 0 1500 1500;" xml:space="preserve">
<g>
	<g>
		<path d="M1095.4,599.4c-0.2,0-0.4,0-0.6,0c-4.8-0.3-8.5-4.5-8.2-9.3c3.6-54.9-13.5-108.1-48.2-149.6
			c-34.6-41.4-82.4-66.1-134.5-69.5c-4.8-0.3-8.5-4.5-8.2-9.3s4.5-8.5,9.3-8.2c56.9,3.7,109.1,30.7,146.8,75.8
			c37.6,45,56.2,102.6,52.3,162C1103.8,595.8,1100,599.4,1095.4,599.4z"/>
	</g>
	<g>
		<path d="M850.1,375.3c-0.4,0-0.7,0-1.1,0c-4.5-0.3-8.5-2.3-11.5-5.7c-2.9-3.4-4.4-7.7-4.1-12.1c0.3-4.5,2.3-8.5,5.7-11.5
			c3.4-2.9,7.7-4.4,12.1-4.1c9.2,0.6,16.2,8.6,15.6,17.8l0,0c-0.3,4.5-2.3,8.5-5.7,11.5C858,373.8,854.1,375.3,850.1,375.3z
			 M849.2,358.5c0,0.5,0.3,0.9,0.8,0.9c0.2,0,0.4,0,0.6-0.2c0.2-0.2,0.3-0.4,0.3-0.6L849.2,358.5z M858,359.1L858,359.1L858,359.1z
			 M850.1,357.8c-0.2,0-0.4,0.1-0.6,0.2c-0.2,0.2-0.3,0.4-0.3,0.6l1.7,0.1c0-0.2,0-0.4-0.2-0.6C850.5,357.8,850.3,357.8,850.1,357.8
			L850.1,357.8z"/>
	</g>
	<g>
		<g>
			<path d="M1216.9,1274.7c-41.1,0-74.6-33.4-74.6-74.6V748c0-41.1,33.4-74.6,74.6-74.6c41.1,0,74.6,33.4,74.6,74.6v452.1
				C1291.4,1241.2,1258,1274.7,1216.9,1274.7z M1216.9,691c-31.4,0-57,25.6-57,57v452.1c0,31.4,25.6,57,57,57s57-25.6,57-57V748
				C1273.9,716.5,1248.3,691,1216.9,691z"/>
		</g>
		<g>
			<path d="M1282.3,1208.1c-4.8,0-8.8-3.9-8.8-8.8V744.8c0-2.8,1.3-5.4,3.6-7.1c2.2-1.7,5.1-2.1,7.8-1.3
				c86.8,27.1,143.5,64.6,173.2,114.5c26,43.6,26,88.4,26,121.1c0,53.4-10.5,99-31.3,135.7c-16.8,29.6-40.2,53.4-69.5,70.7
				C1333.5,1207.7,1284.3,1208.1,1282.3,1208.1z M1291,756.8V1190c15.7-1.5,50-6.9,83.9-27c26.5-15.8,47.6-37.4,62.8-64.3
				c19.1-33.9,28.8-76.6,28.8-126.6c0-32.4,0-72.7-23.5-112.1c-12.7-21.3-30.6-39.9-54.8-56.7C1362.6,785.5,1330,769.9,1291,756.8z"
				/>
		</g>
	</g>
	<g>
		<g>
			<path d="M281.1,1274.7c-41.1,0-74.6-33.4-74.6-74.6V748c0-41.1,33.4-74.6,74.6-74.6s74.6,33.4,74.6,74.6v452.1
				C355.7,1241.2,322.2,1274.7,281.1,1274.7z M281.1,691c-31.4,0-57,25.6-57,57v452.1c0,31.4,25.6,57,57,57s57-25.6,57-57V748
				C338.1,716.5,312.6,691,281.1,691z"/>
		</g>
		<g>
			<path d="M215.7,1208.1c-2.1,0-51.2-0.3-100.9-29.6c-29.4-17.3-52.7-41.1-69.5-70.7C24.5,1071.1,14,1025.4,14,972
				c0-32.7,0-77.5,26-121.1c29.7-49.9,86.4-87.4,173.2-114.5c2.7-0.8,5.6-0.3,7.8,1.3c2.2,1.7,3.6,4.3,3.6,7.1v454.5
				C224.5,1204.1,220.6,1208.1,215.7,1208.1z M207,756.8c-39,13-71.6,28.6-97.1,46.4C85.7,820,67.7,838.6,55,859.9
				C31.5,899.4,31.5,939.7,31.5,972c0,50.3,9.8,93.1,29,127.1c15.2,26.9,36.5,48.5,63.2,64.2c33.8,19.9,67.7,25.2,83.3,26.7V756.8z"
				/>
		</g>
	</g>
	<g>
		<path d="M1217.3,688.2c-4.8,0-8.8-3.9-8.8-8.8c0-63.8-12.5-125.8-37.2-184.1C1147.5,439,1113.4,388.5,1070,345
			c-43.4-43.4-94-77.5-150.3-101.3c-58.3-24.7-120.2-37.2-184.1-37.2s-125.7,12.5-184,37.2c-56.3,23.8-106.9,57.9-150.3,101.3
			S323.8,439,300,495.3c-24.7,58.3-37.2,120.2-37.2,184.1c0,4.8-3.9,8.8-8.8,8.8c-4.8,0-8.8-3.9-8.8-8.8c0-66.2,13-130.4,38.5-190.9
			c24.7-58.4,60.1-110.8,105.1-155.9c45-45,97.5-80.4,155.9-105.1C605.2,202,669.4,189,735.6,189s130.4,13,190.9,38.5
			c58.4,24.7,110.8,60.1,155.9,105.1c45,45,80.4,97.5,105.1,155.9c25.6,60.5,38.5,124.7,38.5,190.9
			C1226,684.2,1222.1,688.2,1217.3,688.2z"/>
	</g>
</g>
</svg>
