<svg xmlns="http://www.w3.org/2000/svg" viewBox="0 0 1500 1500"><defs><style>.cls-1{fill:#fff;}</style></defs><title>Iconos finales</title><g id="wow"><path class="cls-1" d="M1370,854.76h-48.7a23,23,0,0,1,0-46h46.36c-.48-167.87-64.74-325.62-181.07-444.36-116.65-119-271.7-184.61-436.59-184.61S430.06,245.36,313.41,364.4C197.08,483.14,132.82,640.88,132.34,808.76h36.82a23,23,0,0,1,0,46H130c-24.08,0-43.66-19.78-43.66-44.09,0-180.7,69-350.62,194.21-478.46S572.65,133.79,750,133.79s344.08,70.47,469.45,198.42S1413.67,630,1413.67,810.67C1413.67,835,1394.08,854.76,1370,854.76Z"/><path class="cls-1" d="M1298.56,1109.59H1198.23a23,23,0,0,1,0-46h77.33V941.1a23.17,23.17,0,0,1,.6-5.25,543.19,543.19,0,0,0,14.24-123.73c0-298-242.42-540.4-540.4-540.4S209.6,514.14,209.6,812.12a543.19,543.19,0,0,0,14.24,123.73,23.17,23.17,0,0,1,.6,5.25v122.49h77.33a23,23,0,0,1,0,46H201.44a23,23,0,0,1-23-23V943.73A589.62,589.62,0,0,1,163.6,812.12c0-323.34,263.06-586.4,586.4-586.4s586.4,263.06,586.4,586.4a589.62,589.62,0,0,1-14.84,131.61v142.86A23,23,0,0,1,1298.56,1109.59Z"/><path class="cls-1" d="M459.32,1366.21a110.07,110.07,0,0,1-109.94-109.94V916.89a109.94,109.94,0,0,1,219.88,0v339.38A110.07,110.07,0,0,1,459.32,1366.21Zm0-513.25a64,64,0,0,0-63.94,63.93v339.38a63.94,63.94,0,0,0,127.88,0V916.89A64,64,0,0,0,459.32,853Z"/><path class="cls-1" d="M372.38,1254.52H326.73l-4.47-2a73.33,73.33,0,0,1-43.49-66.88V987.51a73.35,73.35,0,0,1,43.48-66.87l4.47-2h36.4a23,23,0,0,1,0,46H337.31a27.27,27.27,0,0,0-12.54,22.87v198.14a27.26,27.26,0,0,0,12.53,22.87h35.08a23,23,0,1,1,0,46Z"/><path class="cls-1" d="M1173.27,1254.52h-45.65a23,23,0,0,1,0-46h35.08a27.26,27.26,0,0,0,12.53-22.87V987.51a27.27,27.27,0,0,0-12.54-22.87h-28.91a23,23,0,0,1,0-46h39.5l4.47,2a73.35,73.35,0,0,1,43.48,66.87v198.14a73.33,73.33,0,0,1-43.49,66.88Z"/><path class="cls-1" d="M1040.68,1366.21a110.07,110.07,0,0,1-109.94-109.94V916.89a109.94,109.94,0,0,1,219.88,0v339.38A110.07,110.07,0,0,1,1040.68,1366.21Zm0-513.25a64,64,0,0,0-63.94,63.93v339.38a63.94,63.94,0,1,0,127.88,0V916.89A64,64,0,0,0,1040.68,853Z"/></g></svg>