<svg xmlns="http://www.w3.org/2000/svg" viewBox="0 0 1500 1500"><defs><style>.cls-1{fill:#fff;}</style></defs><title>Iconos finales</title><g id="restaurant"><path class="cls-1" d="M969.14,1181.89H530.86a23,23,0,0,1-23-23V802.05h-6.07C400.45,802.05,318,719.61,318,618.26s82.45-183.79,183.79-183.79a183.13,183.13,0,0,1,66.12,12.26l5.91,2.28,2-6a183.87,183.87,0,0,1,348.32,0l2,6,5.91-2.28a183.21,183.21,0,0,1,66.12-12.26c101.34,0,183.79,82.45,183.79,183.79s-82.45,183.79-183.79,183.79h-6.07v356.84A23,23,0,0,1,969.14,1181.89Zm-116.19-46h93.19V779.05a23,23,0,0,1,23-23h29.07c76,0,137.79-61.81,137.79-137.79s-61.81-137.79-137.79-137.79a137.3,137.3,0,0,0-49.57,9.18l-28.29,10.91a23,23,0,0,1-30.06-14.09l-9.71-28.72a137.87,137.87,0,0,0-261.16,0l-9.71,28.73a23,23,0,0,1-30.06,14.09l-28.29-10.91a137.26,137.26,0,0,0-49.57-9.18c-76,0-137.79,61.81-137.79,137.79s61.81,137.79,137.79,137.79h29.07a23,23,0,0,1,23,23v356.84h87.62V808.12a23,23,0,1,1,46,0v327.77H807V808.12a23,23,0,0,1,46,0Z"/><path class="cls-1" d="M752.64,1455.86a86.26,86.26,0,0,1-71.16-37.42l-.16-.24-77-114.91-.12-.19c-9.4-14.32-28.53-20.86-45.47-15.53l-148.31,46.58a86.46,86.46,0,0,1-112.2-88l9-142.54a40.58,40.58,0,0,0-29.38-41.43l-134-37.61a86.25,86.25,0,0,1-50-128.45L178.28,760a40.47,40.47,0,0,0-.86-43.89L95.92,595.31a86.36,86.36,0,0,1,42.75-129.7l141.25-50a40.47,40.47,0,0,0,26.91-38.08V234a86.39,86.39,0,0,1,115.87-81.2l133.38,48.41a40.61,40.61,0,0,0,47.09-14.88l75.49-107.2c.15-.21.3-.42.46-.62a86.69,86.69,0,0,1,140.19,2.6L896.83,192a40.63,40.63,0,0,0,47.09,14.89L1077.3,158.5a86.39,86.39,0,0,1,115.87,81.2V383.17a40.46,40.46,0,0,0,26.91,38.08l141.25,50A86.35,86.35,0,0,1,1404.08,601l-81.5,120.78a40.48,40.48,0,0,0-.86,43.9l84.36,136.19a86.24,86.24,0,0,1-50,128.44l-134,37.62a40.58,40.58,0,0,0-29.38,41.43l9,142.54a86.46,86.46,0,0,1-112.2,87.94l-148.31-46.58a40.72,40.72,0,0,0-46.07,16.45l-70.31,107.18a86.22,86.22,0,0,1-71.27,39Zm-33.19-63.39a39.79,39.79,0,0,0,33.17,17.39h.47a39.8,39.8,0,0,0,33.32-18.23l70.31-107.18A86.91,86.91,0,0,1,955,1249.34l148.31,46.59a40.45,40.45,0,0,0,52.5-41.16l-9-142.54a86.37,86.37,0,0,1,62.86-88.62l134-37.62A40.24,40.24,0,0,0,1367,926.06l-84.36-136.19a86.54,86.54,0,0,1,1.84-93.85L1366,575.24a40.34,40.34,0,0,0-20-60.6l-141.26-50a86.53,86.53,0,0,1-57.55-81.44V239.7a40.39,40.39,0,0,0-54.17-38L959.62,250.16a86.65,86.65,0,0,1-100.49-31.77L781.61,107.51A40.26,40.26,0,0,0,749,90.15h-.79A40.25,40.25,0,0,0,716,106l-75.2,106.78a86.66,86.66,0,0,1-100.44,31.7L407,196.07a40.4,40.4,0,0,0-54.17,38V377.51A86.54,86.54,0,0,1,295.28,459L154,509a40.34,40.34,0,0,0-20,60.6l81.5,120.78a86.54,86.54,0,0,1,1.84,93.85L133,920.4a40.24,40.24,0,0,0,23.33,59.93l134,37.62a86.37,86.37,0,0,1,62.86,88.62l-9,142.54a40.44,40.44,0,0,0,52.5,41.15L545,1243.68c36.72-11.53,76.86,2.48,97.66,34.09Z"/></g></svg>