<?xml version="1.0" encoding="utf-8"?>
<!-- Generator: Adobe Illustrator 22.0.0, SVG Export Plug-In . SVG Version: 6.00 Build 0)  -->
<svg version="1.1" id="Layer_1" xmlns="http://www.w3.org/2000/svg" xmlns:xlink="http://www.w3.org/1999/xlink" x="0px" y="0px"
	 viewBox="0 0 1500 1500" style="enable-background:new 0 0 1500 1500;" xml:space="preserve">
<g>
	<g>
		<path d="M1271,658.4c54.8,0,99.3-44.5,99.3-99.2c0-54.7-44.5-99.2-99.3-99.2c-54.7,0-99.2,44.5-99.2,99.2
			C1171.8,613.9,1216.3,658.4,1271,658.4z M1188.3,559.2c0-45.6,37.1-82.8,82.7-82.8c45.7,0,82.8,37.1,82.8,82.8
			c0,45.6-37.2,82.8-82.8,82.8C1225.4,641.9,1188.3,604.8,1188.3,559.2z"/>
	</g>
	<g>
		<path d="M1476,992.8l-1.3-6.7H957c74.4-83.9,129.8-185.7,164.9-303c17.6,21.1,39.7,38.5,64.3,50.5c26.3,12.8,55.6,19.6,84.8,19.6
			c107,0,194-87,194-194c0-106.9-87-193.9-194-193.9c-38.8,0-76.1,11.4-108,32.9c-0.1-31.1-1.8-51.1-2.1-54
			c0-25-10.1-37.5-18.6-43.6c-9.6-6.9-19.4-7.3-19.5-7.3H361l-0.1,0c-0.4,0-37.7,2.1-37.7,50.4c-0.9,9.2-33.3,374.7,203.9,642.4
			H19.3l-1.2,6.8c-3.2,17.2,3.5,33,19.4,45.7c11.8,9.5,24.6,14,25.9,14.5l198.7,82.1l43.9,71.7H1188l43.9-71.8l198.4-81.9
			C1433.5,1052,1483.6,1034,1476,992.8z M315.2,1190.3l-41.8-68.4l-204.1-84.3l-0.2-0.1c-0.3-0.1-33.5-12-35.2-35h508.2H942h518.2
			c-1.7,22.6-34.2,34.7-35.6,35.2l-203,83.8l-0.8,0.3l-41.9,68.4H315.2z M1122.5,309.7c1.5,0.1,22,1.8,22,35.2l0,0.3
			c0,0.3,2.6,26.6,1.9,69.2l-0.3,17.5l13.7-11c31.9-25.7,70.3-39.2,111.2-39.2c97.9,0,177.6,79.6,177.6,177.5
			c0,97.9-79.7,177.5-177.6,177.5c-58,0-112.5-28.5-145.7-76.4l-10-14.3l-4.7,16.8C1075,789.5,1015.9,898.3,934.8,986H549.3
			c-55.7-60.3-101.4-131.2-135.8-210.7c-27.7-64.1-48.2-133.9-61-207.4c-21.7-125.6-13.3-219.4-12.9-223.3l0-0.3
			c0-31.5,19.1-34.4,21.8-34.6L1122.5,309.7z"/>
	</g>
	<g>
		<path d="M436.1,517.4c0,0-0.1,0-0.1,0c-4.1,0.1-7.5,3.5-7.4,7.6c0,2.7,1.2,67.4,24.7,151.3c13.8,49.2,32.5,95.3,55.6,136.9
			c28.9,52.1,64.8,97.5,106.8,134.9c1.4,1.3,3.2,1.9,5,1.9c2.1,0,4.1-0.8,5.6-2.5c2.8-3.1,2.5-7.8-0.6-10.6
			c-40.7-36.3-75.6-80.3-103.6-131c-22.6-40.7-40.8-85.7-54.3-133.7c-23-82.1-24.1-144.8-24.1-147.5
			C443.5,520.7,440.2,517.4,436.1,517.4z"/>
	</g>
	<g>
		<path d="M437.1,492.3c0.4,0,0.7,0,1.1,0c4,0,7.8-1.4,10.9-4.1c3.3-2.9,5.3-6.9,5.6-11.4c0.6-9.1-6.3-17-15.4-17.6
			c-4.4-0.3-8.7,1.2-12,4.1c-3.3,2.9-5.3,6.9-5.6,11.4c-0.3,4.4,1.2,8.7,4.1,12C428.7,490.1,432.7,492.1,437.1,492.3z M437.6,475.2
			c0.2-0.2,0.4-0.2,0.6-0.2c0.2,0,0.4,0.1,0.6,0.3c0.2,0.2,0.2,0.4,0.2,0.6c0,0.2-0.1,0.4-0.3,0.6c-0.2,0.2-0.4,0.2-0.6,0.2
			c-0.5,0-0.8-0.4-0.8-0.9C437.4,475.6,437.5,475.4,437.6,475.2z"/>
	</g>
</g>
</svg>
