<svg id="Capa_1" data-name="Capa 1" xmlns="http://www.w3.org/2000/svg" viewBox="0 0 1500 1500"><defs><style>.cls-1{fill:none;stroke-width:12px;}.cls-1,.cls-3{stroke:#fff;stroke-linecap:round;stroke-linejoin:round;}.cls-2,.cls-3{fill:#fff;}.cls-3{stroke-width:5px;}</style></defs><title>Todos</title><g id="Capa_1-2" data-name="Capa 1-2"><polyline class="cls-1" points="1173.27 406.31 1148.47 94.57 727.13 95.66 698.1 673.81 936.25 673.19"/><path class="cls-1" d="M823.92,137.14S787.81,340.78,936.38,334.29s107.37-197.72,107.37-197.72"/><polygon class="cls-1" points="1483 762.35 988.38 763.64 987.72 506.46 987.52 429.82 1482.13 428.54 1483 762.35"/><line class="cls-1" x1="1482.33" y1="505.89" x2="987.72" y2="507.17"/><polyline class="cls-1" points="1248.66 429.46 1267.93 245.9 1292.36 245.84 1408.38 245.54 1427.35 428.99"/><path class="cls-1" d="M1292.36,245.84c8-65.16,44.63-59.14,44.63-59.14s45.69-8.24,41.14,58.92"/></g><g id="Capa_2" data-name="Capa 2"><path class="cls-1" d="M225,937.27a31.18,31.18,0,0,1,43.62,5.51l13.84,17.84a31.18,31.18,0,0,1-5.51,43.62L74,1161.63a30.67,30.67,0,0,1-11,5.45,31.2,31.2,0,0,1-32.64-11l-13.84-17.84A31.19,31.19,0,0,1,22,1094.66L177.41,974.11"/><polyline class="cls-1" points="406.59 1241.81 396.28 1221.93 280.62 1000.78"/><path class="cls-1" d="M63,1168.55l189.64,199a11.41,11.41,0,0,0,15.19,1.22l136.87-104,10-7.6"/><path class="cls-1" d="M157.75,826.54s-62,62-59.36,73.54,34.28,108.74,34.28,108.74"/><path class="cls-1" d="M385.73,1201.75l-.17-106.94-.1-66.25s-4.43-19.5,16.83-19.5,402.26-3.54,402.26-3.54,16.83-3.54,16.83,16.83v74.43L389,1095"/><path class="cls-1" d="M821.48,1247.39c.16-51.88-.1-150.61-.1-150.61"/><path class="cls-1" d="M391.58,1274.72l.08,20.53s-.63,4.31,23,4.43c29.7.16,284,0,354.77,0h18.24s13.18-1.42,23-9.46a27.87,27.87,0,0,0,10.62-21.55"/><line class="cls-1" x1="567.46" y1="1008.5" x2="524.02" y2="1095.14"/><line class="cls-1" x1="662.16" y1="1006.83" x2="629.03" y2="1072.37"/><line class="cls-1" x1="755.12" y1="1005.98" x2="708.21" y2="1095.14"/><path class="cls-1" d="M389.89,1008.18s-35.44-63.8-9.75-71.77,386.31-108.1,386.31-108.1,29.24-11.51,36.33,14.18,18.6,67.34,18.6,67.34,2.66,19.49-26.58,24.81-275.55,73.54-275.55,73.54"/><line class="cls-1" x1="700.12" y1="846.75" x2="755.23" y2="923.15"/><line class="cls-1" x1="589.18" y1="877.63" x2="662.16" y2="969.04"/><line class="cls-1" x1="502.82" y1="901.54" x2="567.46" y2="994.89"/><line class="cls-1" x1="462.38" y1="1029.84" x2="421.49" y2="1095.14"/><line class="cls-1" x1="399.53" y1="930.78" x2="475.35" y2="1008.5"/><line class="cls-1" x1="258.07" y1="1335.25" x2="352.2" y2="1262.03"/><line class="cls-1" x1="372.11" y1="1246.36" x2="371.95" y2="1245.57"/><line class="cls-1" x1="54.47" y1="1135.83" x2="242.03" y2="994.97"/><line class="cls-1" x1="486.08" y1="1259.94" x2="751.75" y2="1259.94"/><line class="cls-1" x1="777.93" y1="1260.3" x2="777.76" y2="1259.52"/><path class="cls-2" d="M535.49,649.71H157a7.08,7.08,0,0,1,0-14.16H535.49a7.08,7.08,0,0,1,0,14.16Z"/><path class="cls-2" d="M511.23,894.86l17.42-252.72a7.08,7.08,0,0,1,14.13,1L527,891.8"/><path class="cls-2" d="M209.72,944.41,188.18,642.12a7.08,7.08,0,1,0-14.13,1h0l21.89,303.51S203.72,960,209.72,944.41Z"/><path class="cls-2" d="M441.71,912.93H236.19a7.08,7.08,0,0,1,0-14.16h255.9"/><path class="cls-2" d="M259.07,929.37V906.25a7.08,7.08,0,0,1,14.14-.8l1.88,35.06"/><path class="cls-2" d="M322.84,1064.38a7.08,7.08,0,0,1-7.08-7L313.07,906a7.08,7.08,0,1,1,14.16-.26l2.7,151.46a7.08,7.08,0,0,1-7,7.2h0Z"/><path class="cls-2" d="M387.4,928.82v-23a7.09,7.09,0,0,1,14.17,0V925.2"/><path class="cls-2" d="M526.68,778.83H190.44a7.09,7.09,0,0,1,0-14.17H526.68a7.09,7.09,0,0,1,0,14.17Z"/><path class="cls-2" d="M258.22,778.83a7.09,7.09,0,0,1-7.08-6.84l-4.5-129.11a7.08,7.08,0,0,1,14.16-.5l4.5,129.12a7.07,7.07,0,0,1-6.81,7.32h-.27Z"/><path class="cls-2" d="M320.15,778.83a7.09,7.09,0,0,1-7.08-6.78l-5.59-129.11a7.08,7.08,0,1,1,14.15-.62l5.6,129.12a7.08,7.08,0,0,1-6.77,7.38h-.31Z"/><path class="cls-2" d="M401.41,753.38h-.13a7.09,7.09,0,0,1-7-7.18h0l1.79-103.67a7.09,7.09,0,0,1,7.08-7h.13a7.09,7.09,0,0,1,7,7.18h0l-1.79,103.67A7.09,7.09,0,0,1,401.41,753.38Z"/><path class="cls-2" d="M454.06,778.49h-.53a7.08,7.08,0,0,1-6.54-7.58l9.4-128.35c-.11-3.07,0-16.61,8.91-26.51,6-6.64,14.4-10.15,25-10.45,18.61-.51,28.25,9.68,33.07,18.32a48.21,48.21,0,0,1,5.69,18.19,7.09,7.09,0,0,1-14.13,1.08,34.67,34.67,0,0,0-4.13-12.72c-4.3-7.46-10.88-11-20.11-10.7-6.67.18-11.54,2.07-14.88,5.77C470,632,470.54,642,470.55,642.11a5.57,5.57,0,0,1,0,1l-9.44,128.77A7.09,7.09,0,0,1,454.06,778.49Z"/><path class="cls-2" d="M190.44,649.71a7.09,7.09,0,0,1-6.5-9.9c.63-1.43,15.6-35.19,42.78-34.22,22,.78,33,19.06,35.71,28.62a7.08,7.08,0,0,1-13.62,3.89h0c-.2-.69-5.48-17.74-22.6-18.36-7-.25-13.91,3.74-20.57,11.84a67.54,67.54,0,0,0-8.7,13.88A7.1,7.1,0,0,1,190.44,649.71Z"/><path class="cls-2" d="M301.79,619.75a7.09,7.09,0,0,1-6.65-4.65c-6.82-18.6-27.3-16.55-28.17-16.46h-.11c-.17,0-19,2.18-21.27,15.22a7.1,7.1,0,0,1-14-2.43c4-23.24,31.61-26.65,33.72-26.88,11.19-1.34,34.52,2.31,43.08,25.66a7.09,7.09,0,0,1-4.21,9.09A7.23,7.23,0,0,1,301.79,619.75Z"/><path class="cls-2" d="M346.15,649.71h0a7.08,7.08,0,0,1-7-7.12,30.06,30.06,0,0,0-3-11.91c-3.61-7.1-9.84-10.68-19.06-10.93h-.89c-22.41,0-29.35,23.77-29.63,24.79a7.08,7.08,0,1,1-13.66-3.75,57.49,57.49,0,0,1,9-17.7c8.95-11.84,21.24-17.87,35.55-17.49,18.61.52,27.45,10.77,31.59,19.27a43.23,43.23,0,0,1,4.27,17.83,7.07,7.07,0,0,1-7.15,7Z"/><path class="cls-2" d="M346.33,598.69a7.1,7.1,0,0,1-6.84-5.23c-2.65-9.83-8-16.29-15.86-19.19a27.76,27.76,0,0,0-11.95-1.56h-.3a30.48,30.48,0,0,0-13.83,6.47,7.09,7.09,0,0,1-9.34-10.67l.19-.16.31-.25c9.91-7.9,19.37-9.28,21.14-9.47a41.41,41.41,0,0,1,17.94,2.06c8.83,3,20.39,10.57,25.38,29a7.09,7.09,0,0,1-5,8.69A7.7,7.7,0,0,1,346.33,598.69Z"/><path class="cls-2" d="M389.26,619.75a7.09,7.09,0,0,1-6.29-3.83c-9.76-18.86-23.44-17.31-23.57-17.29a6,6,0,0,1-1.79,0c-1.13-.09-14.29-.74-23.61,17.28a7.09,7.09,0,0,1-12.79-6.13h0c.06-.13.13-.25.2-.38,12.84-24.82,32.54-25.18,37.07-24.91,4.52-.27,24.23.1,37.07,24.91a7.08,7.08,0,0,1-6.29,10.34Z"/><path class="cls-2" d="M436.24,643.24a7.1,7.1,0,0,1-6.3-3.83c-.09-.18-10.5-19.66-26.91-19.66-6.35,0-9.35,1.53-14,7.14a7.08,7.08,0,0,1-10.93-9c6.09-7.38,12.66-12.3,24.91-12.3,25.08,0,38.92,26.2,39.49,27.32a7.09,7.09,0,0,1-3.05,9.55,7,7,0,0,1-3.23.79Z"/><path class="cls-2" d="M416,619.75a7.07,7.07,0,0,1-7.09-7.07,7.25,7.25,0,0,1,.21-1.73c5.85-23.38,33.26-26.17,36.17-26.4a42.72,42.72,0,0,1,16.36,1.72c11.72,3.68,19.54,12.56,22,25a7.08,7.08,0,1,1-13.82,3.07c0-.11-.05-.23-.07-.34-1.49-7.45-5.54-12.12-12.39-14.27a28.79,28.79,0,0,0-10.56-1.14h-.42c-.18,0-20,1.59-23.55,15.7A7.11,7.11,0,0,1,416,619.75Z"/><path class="cls-2" d="M436.23,600a7.09,7.09,0,0,1-6.62-4.57c-4.16-10.92-10.46-18-18.74-21.2a25.15,25.15,0,0,0-11.49-1.58,3.74,3.74,0,0,1-1,.1c-.73.06-6.85.74-12.69,7.18a7.08,7.08,0,0,1-10.5-9.51c9.26-10.22,19.53-11.61,22.24-11.8a38.59,38.59,0,0,1,17.57,2c8.71,3.07,20.61,10.73,27.85,29.73a7.09,7.09,0,0,1-4.09,9.14h0A6.84,6.84,0,0,1,436.23,600Z"/><path class="cls-2" d="M327.69,575.35a6.43,6.43,0,0,1-1.24-.11,7.08,7.08,0,0,1-5.74-8.2,40.94,40.94,0,0,1,55.15-32.58c8.81,3.32,20.06,11.2,23.6,29.91A7.08,7.08,0,0,1,385.54,567c-4.4-23.23-25.37-21.11-26.25-21H359c-.79.07-20.56,2-24.34,23.47A7.1,7.1,0,0,1,327.69,575.35Z"/><circle class="cls-2" cx="560.15" cy="642.63" r="7.29"/><line class="cls-1" x1="315.46" y1="1061.14" x2="381.1" y2="1061.14"/><circle class="cls-2" cx="488.15" cy="877.67" r="7.29"/><line class="cls-1" x1="462.27" y1="877.62" x2="237.82" y2="877.62"/><path class="cls-3" d="M407.68,477.88a21.22,21.22,0,0,1-17.52-9.21l-22-32a15.25,15.25,0,0,0-16.85-6L312,442.13a21.3,21.3,0,0,1-27.19-22l2.44-34.56a15.29,15.29,0,0,0-9.61-15.31l-47.82-19.07a21.21,21.21,0,0,1-11.94-27.52,21.5,21.5,0,0,1,2.82-5l25.09-33.27a15.32,15.32,0,0,0-.23-18.74l-22.95-28.94a21.32,21.32,0,0,1,3.42-30l.05,0a21.11,21.11,0,0,1,6.53-3.53l28-9.33a3,3,0,0,1,1.89,5.67l-28,9.33a15.35,15.35,0,0,0-9.75,19.39h0a15.64,15.64,0,0,0,2.54,4.7l23,28.94a21.3,21.3,0,0,1,.32,26.06l-25.14,33.3a15.25,15.25,0,0,0,3,21.37h0a15,15,0,0,0,3.52,2l47.82,19.07A21.24,21.24,0,0,1,293.22,386l-2.45,34.57A15.33,15.33,0,0,0,305,436.93h0a15.47,15.47,0,0,0,5.33-.57L349.66,425a21.21,21.21,0,0,1,23.44,8.37l22,32A15.08,15.08,0,0,0,407.68,472h.18a15.09,15.09,0,0,0,12.62-6.9l20.27-30.91A21.41,21.41,0,0,1,465,425.44l42.77,13.44A15.31,15.31,0,0,0,527.6,423.3L525,382.2a21.26,21.26,0,0,1,15.47-21.82l38.63-10.85a15.26,15.26,0,0,0,10.56-18.81,15.45,15.45,0,0,0-1.72-3.9l-24.33-39.27a21.32,21.32,0,0,1,.45-23.1l23.5-34.84a15.26,15.26,0,0,0-4.09-21.19h0a15.07,15.07,0,0,0-3.47-1.75l-40.74-14.43a21.31,21.31,0,0,1-14.16-20.05V130.82a15.29,15.29,0,0,0-20.51-14.37l-38.46,14a21.35,21.35,0,0,1-24.75-7.82L419,90.6a15.39,15.39,0,0,0-24.87-.45l-26,34.39a21.26,21.26,0,0,1-22.18,7.8l-38.68-9.74a14.75,14.75,0,0,0-3.31-.46A15.28,15.28,0,0,0,288.29,137l-1.11,40.45a21.43,21.43,0,0,1-5.71,14,3,3,0,0,1-4.39-4.06,15.46,15.46,0,0,0,4.12-10.11l1.11-40.45a21.27,21.27,0,0,1,21.83-20.69h0a21.7,21.7,0,0,1,4.61.64l38.68,9.74a15.24,15.24,0,0,0,15.95-5.61l26-34.39a21.38,21.38,0,0,1,29.94-4.14,21.73,21.73,0,0,1,4.6,4.78l22.35,32a15.36,15.36,0,0,0,17.81,5.63l38.46-14a21.26,21.26,0,0,1,28.53,20v41.37a15.32,15.32,0,0,0,10.18,14.41L582,201a21.29,21.29,0,0,1,13,27.17h0a21.84,21.84,0,0,1-2.44,4.82L569,267.79a15.33,15.33,0,0,0-.33,16.61L593,323.68a21.22,21.22,0,0,1-12.3,31.61l-38.63,10.85A15.36,15.36,0,0,0,531,381.82l2.6,41.1A21.28,21.28,0,0,1,506,444.58l-42.77-13.43a15.4,15.4,0,0,0-17.43,6.22l-20.27,30.91a21.29,21.29,0,0,1-17.55,9.6Z"/><path class="cls-3" d="M328.24,364.5a3,3,0,0,1-2.18-5L465.41,210.21a3,3,0,0,1,4.72,3.71,3.06,3.06,0,0,1-.35.37L330.43,363.55A3,3,0,0,1,328.24,364.5Z"/><path class="cls-3" d="M366.3,236.12a35.35,35.35,0,1,1,35.35-35.35,35.35,35.35,0,0,1-35.35,35.35Zm0-64.72a29.37,29.37,0,1,0,29.37,29.37h0A29.41,29.41,0,0,0,366.3,171.4Z"/><path class="cls-3" d="M445.61,377a36.92,36.92,0,0,1,0-73.84h0a36.86,36.86,0,0,1,28.08,12.95,3,3,0,0,1-4.55,3.88,30.87,30.87,0,0,0-23.53-10.85h0a30.94,30.94,0,1,0,0,61.88h0A32.38,32.38,0,0,0,470,359.62c4.15-4.92,8.66-13.39,6.54-25.82a3,3,0,0,1,5.9-1c1.95,11.46-.85,22.35-7.87,30.68A38.42,38.42,0,0,1,445.61,377Z"/><path class="cls-3" d="M481.17,202.55a3,3,0,0,1-2.92-2.38l-.09-.41a3,3,0,0,1,5.86-1.22l.08.41a3,3,0,0,1-2.32,3.53A2.48,2.48,0,0,1,481.17,202.55Z"/><path class="cls-3" d="M1109.33,1167.51a5.55,5.55,0,0,1-1-.09,5.79,5.79,0,0,1-4.68-6.72h0a19.15,19.15,0,0,0-5.4-17l-84.92-83.91a30.79,30.79,0,0,1,17.43-52.39L1149,991a19.2,19.2,0,0,0,14.53-10.41l53.57-106.7a30.57,30.57,0,0,1,27.5-17h.21a30.59,30.59,0,0,1,27.5,17.35l52.1,107.43a19.19,19.19,0,0,0,14.39,10.6l16.82,2.57a5.79,5.79,0,0,1-1.3,11.51h0l-.44-.07-16.83-2.57a30.75,30.75,0,0,1-23.06-17L1261.9,879.28a19.22,19.22,0,0,0-34.46-.24l-53.56,106.7a30.81,30.81,0,0,1-23.29,16.68l-118.26,16.36a19.2,19.2,0,0,0-10.87,32.69l84.91,83.9a30.78,30.78,0,0,1,8.67,27.31A5.79,5.79,0,0,1,1109.33,1167.51Z"/><path class="cls-3" d="M1370.84,1316.23a30.88,30.88,0,0,1-14.54-3.67L1251,1256.28a19.21,19.21,0,0,0-17.87-.12l-106,54.82a30.79,30.79,0,0,1-44.44-32.75l10.67-59.83,6.13-33c.69-3.13,3.11-5.56,6.24-4.88s5.57,4.14,5.11,7.16l-6.09,32.8L1094,1280.26a19.21,19.21,0,0,0,27.74,20.44l106-54.82a30.79,30.79,0,0,1,28.64.19l105.3,56.28a19.21,19.21,0,0,0,28-20.06l-19.38-117.8a30.78,30.78,0,0,1,9-27.18l86-82.74a19.21,19.21,0,0,0-10.42-32.84l-55-8.36c-4.47-.48-7.9-4.14-7.13-7.32.36-3.18,3.5-5.44,7.75-4.29l1.3.2,54.86,8.33a30.78,30.78,0,0,1,16.7,52.62l-86,82.74a19.2,19.2,0,0,0-5.64,17l19.37,117.79a30.86,30.86,0,0,1-25.5,35.42h0a31.52,31.52,0,0,1-4.85.4Z"/><path class="cls-3" d="M1377.16,1010.08a5.78,5.78,0,0,1-5.66-4.62l-.12-.56a5.79,5.79,0,0,1,11.34-2.34l.11.56a5.77,5.77,0,0,1-4.47,6.83h0A5.2,5.2,0,0,1,1377.16,1010.08Z"/></g><line class="cls-1" x1="1020.8" y1="723.07" x2="1416.26" y2="723.07"/><line class="cls-1" x1="1442.44" y1="721.28" x2="1442.27" y2="720.5"/><line class="cls-1" x1="765.6" y1="284.05" x2="754.22" y2="630.33"/></svg>