<svg xmlns="http://www.w3.org/2000/svg" viewBox="0 0 1500 1500"><defs><style>.cls-1{fill:#fff;}.cls-2{fill:none;}</style></defs><title>Iconos finales</title><g id="wow"><path class="cls-1" d="M224.65,612.52a29,29,0,0,1-28.54-33.91l27.33-159.34a20.56,20.56,0,0,0-5.92-18.2L101.76,288.22a29,29,0,0,1,16.06-49.44l160-23.25a20.55,20.55,0,0,0,15.48-11.25l71.55-145a29,29,0,0,1,52,0l71.54,145a20.57,20.57,0,0,0,15.48,11.24l160,23.25a29,29,0,0,1,16.06,49.45L564.14,401.07a20.56,20.56,0,0,0-5.92,18.2l27.33,159.34a29,29,0,0,1-42.06,30.55L400.4,533.93a20.59,20.59,0,0,0-19.14,0L238.17,609.16A29,29,0,0,1,224.65,612.52Zm-66.1-333.18,91.08,88.79A66.52,66.52,0,0,1,268.77,427l-21.5,125.37,112.59-59.19a66.51,66.51,0,0,1,61.94,0l112.59,59.19L512.89,427A66.52,66.52,0,0,1,532,368.13l91.08-88.79L497.24,261.05a66.54,66.54,0,0,1-50.12-36.41L390.83,110.58,334.54,224.64a66.54,66.54,0,0,1-50.12,36.41Zm498.67,5h0ZM375.57,79.67l0,0Z"/><path class="cls-1" d="M714.23,1153.51H689.42a23,23,0,1,1,0-46H701.5c-3.13-75.28-34.28-145.63-88.5-199.26-57.32-56.66-133.53-87.87-214.61-87.87s-157.3,31.21-214.61,87.87c-54.23,53.63-85.37,124-88.5,199.26h7.21a23,23,0,1,1,0,46H82.55A33.51,33.51,0,0,1,49,1120.1c0-92.39,36.37-179.24,102.42-244.55s153.68-101.17,247-101.17,181,35.93,247,101.16,102.42,152.17,102.42,244.56A33.51,33.51,0,0,1,714.23,1153.51Z"/><path class="cls-1" d="M668.76,1285H619.25a23,23,0,0,1,0-46h26.51v-48.81a22.62,22.62,0,0,1,.61-5.25,256.43,256.43,0,0,0,6.72-58.41c0-140.64-114.42-255.06-255.07-255.06S143,985.91,143,1126.55a256.43,256.43,0,0,0,6.72,58.41,22.62,22.62,0,0,1,.61,5.25V1239H176.8a23,23,0,0,1,0,46H127.28a23,23,0,0,1-23-23v-69.21A302.78,302.78,0,0,1,97,1126.55C97,960.54,232,825.49,398,825.49s301.07,135,301.07,301.06a302.78,302.78,0,0,1-7.33,66.26V1262A23,23,0,0,1,668.76,1285Z"/><path class="cls-1" d="M254.56,1411.67a66,66,0,0,1-65.91-65.91v-167.5a65.91,65.91,0,0,1,131.81,0v167.5A66,66,0,0,1,254.56,1411.67Zm0-253.31a19.93,19.93,0,0,0-19.91,19.9v167.5a19.91,19.91,0,1,0,39.81,0v-167.5A19.93,19.93,0,0,0,254.56,1158.36Z"/><path class="cls-1" d="M211.65,1356.55h-25l-4.47-2a47.85,47.85,0,0,1-28.37-43.65v-97.79a47.87,47.87,0,0,1,28.35-43.64l4.48-2h20.45a23,23,0,0,1,0,46H199.8v97.07h11.85a23,23,0,1,1,0,46Z"/><path class="cls-1" d="M609.4,1356.55h-25a23,23,0,0,1,0-46h11.86v-97.07h-8.82a23,23,0,1,1,0-46h22l4.48,2a47.88,47.88,0,0,1,28.36,43.64v97.79a47.86,47.86,0,0,1-28.38,43.65Z"/><path class="cls-1" d="M541.48,1411.67a66,66,0,0,1-65.9-65.91v-167.5a65.91,65.91,0,0,1,131.81,0v167.5A66,66,0,0,1,541.48,1411.67Zm0-253.31a19.93,19.93,0,0,0-19.9,19.9v167.5a19.91,19.91,0,1,0,39.81,0v-167.5A19.93,19.93,0,0,0,541.48,1158.36Z"/><path class="cls-1" d="M904.49,1317.33a23,23,0,0,1-16.4-39.12c4-4.08,99.38-100.62,204.07-167.29,119.85-76.33,338.73-162.4,348-166a23,23,0,0,1,16.78,42.83c-2.23.88-224,88.08-340.06,162-100.31,63.89-195,159.78-196,160.74A22.94,22.94,0,0,1,904.49,1317.33Z"/><path class="cls-1" d="M1075.34,801.92c41.81,0,106.61,10.87,166.52,63.05,2.66,2.66,65.33,53.33,40,134.67-53.34-116-176-173.34-181.35-176a14.29,14.29,0,0,0-5.32-1,12.65,12.65,0,0,0-12,7.69c-2.67,6.66,0,14.66,6.66,17.33,1.34,0,132,62.67,176,181.35a115.39,115.39,0,0,1-51,12.25,107.26,107.26,0,0,1-18.32-1.58c-32-6.67-61.34-28-85.34-64C1089.84,941,1040.51,849,1039.17,805a199.08,199.08,0,0,1,36.17-3m0-46h0a245.15,245.15,0,0,0-44.77,3.85,46,46,0,0,0-37.38,46.58c.79,25.86,11.49,60.77,32.73,106.74A904.23,904.23,0,0,0,1072,999.75c.29.48.59.94.9,1.41,30.25,45.37,69.75,74.25,114.24,83.52l1.5.29a153.3,153.3,0,0,0,26.2,2.26,161.26,161.26,0,0,0,71.59-17.11,46,46,0,0,0,25.06-35.29,46,46,0,0,0,14.29-21.51c13.64-43.81,10-88.1-10.66-128.09a189.58,189.58,0,0,0-41.77-53.8l-.1-.09-1.18-1.06a300.32,300.32,0,0,0-106.26-60.22,296.85,296.85,0,0,0-90.46-14.14Z"/><path class="cls-1" d="M1248.52,1075.65c12,4,29.34,12,41.34,30.67,17.33,28,25.33,88-29.34,210.68-26.67-17.33-85.34-69.34-78.67-160,0-2.67,1.33-42.67,37.34-69.34-8,40-17.34,114.68,1.33,162.68q4,8,12,8a10.13,10.13,0,0,0,5.34-1.33c6.66-2.67,10.66-10.67,8-17.34-18.67-48-4-132,2.66-164m-29.33,12h0m29.33-58a46,46,0,0,0-22.93,6.12,46.52,46.52,0,0,0-8.09,5.91,45.76,45.76,0,0,0-26.16,9.35,138.34,138.34,0,0,0-47.69,65,134.6,134.6,0,0,0-7.75,38.71,223.46,223.46,0,0,0,7.36,75.45,215.39,215.39,0,0,0,26.82,59.37,227.72,227.72,0,0,0,65.37,66.06,46,46,0,0,0,67.09-19.84c26.78-60.09,42.09-112.56,45.51-156,3.1-39.34-3.32-72.2-19.08-97.66l-.42-.67c-15-23.31-37-39.94-65.48-49.43a46,46,0,0,0-14.55-2.36Z"/><path class="cls-1" d="M1044.51,1390.67a82.76,82.76,0,1,1,58.76-24.24A82.52,82.52,0,0,1,1044.51,1390.67Zm0-120a37,37,0,1,0,37,37A36.62,36.62,0,0,0,1044.51,1270.66Z"/><path class="cls-1" d="M851.14,1430.13A83.64,83.64,0,1,1,909.28,1406,83.63,83.63,0,0,1,851.14,1430.13Zm0-120a37,37,0,0,0,0,74c20.06,0,37-17,37-37A36.61,36.61,0,0,0,851.14,1310.12Z"/><path class="cls-1" d="M964.5,1174.66a82.74,82.74,0,1,1,58.77-24.24A82.52,82.52,0,0,1,964.5,1174.66Zm0-120a37,37,0,1,0,37,37A36.6,36.6,0,0,0,964.5,1054.65Z"/><path class="cls-1" d="M1039.19,1262.91a23,23,0,0,1-19-10c-5.51-8-7.51-18.33-3.21-52.63,2.05-16.34,4.73-31.44,4.84-32.08a23,23,0,0,1,45.29,8.07h0c-4,22.72-6.92,47.65-6.46,55.47a23,23,0,0,1-21.5,31.13Zm18.93-36,0,0Z"/><path class="cls-1" d="M1006.63,1157.5a23,23,0,0,1-1-46l97.87-4.18a23,23,0,1,1,2,46l-97.86,4.18C1007.29,1157.5,1007,1157.5,1006.63,1157.5Z"/><path class="cls-1" d="M1045.78,688c-36.2,0-76.5-1.88-101.91-15.57A23,23,0,1,1,965.69,632C984.44,642.06,1031,642,1046.32,642c40.87,0,67.87-3.4,80.25-10.07a23,23,0,1,1,21.82,40.5c-13.45,7.24-37.19,15.55-102.05,15.57Z"/><path class="cls-1" d="M1046.13,448.74c-56.38,0-109.5-20-149.57-56.27-40.7-36.86-63.11-86.05-63.11-138.52q0-8.64.83-17.25A85.62,85.62,0,1,1,919.86,97.17c36.39-24.65,80.33-38,126.27-38s89.89,13.35,126.27,38a86,86,0,0,1,15.52-13.81A85.64,85.64,0,1,1,1258,236.7q.82,8.6.83,17.25c0,52.47-22.42,101.66-63.12,138.52C1155.63,428.76,1102.51,448.74,1046.13,448.74Zm-155-258.37-7.77,31.31A133.54,133.54,0,0,0,879.45,254c0,82.05,74.77,148.79,166.68,148.79S1212.81,336,1212.81,254a134.3,134.3,0,0,0-4-32.28l-7.73-31.19,32,2.73c1.26.11,2.42.16,3.55.16a39.63,39.63,0,1,0-36.9-54.12l-12,30.52-24.6-21.68c-31.4-27.68-73-42.92-117-42.92s-85.65,15.24-117.05,42.92l-24.61,21.69-12-30.52a39.63,39.63,0,1,0-36.9,54.11c1.16,0,2.33-.05,3.48-.15Z"/><path class="cls-1" d="M1190.45,687.94c-26.22,0-49.54-8.26-66.78-23.89-17.49-15.86-27-38.15-26.83-62.78.25-33,17.38-66.85,47-92.91,24.33-21.39,54.43-35.13,84.75-38.67,32.42-3.8,61.57,4.37,82.09,23,17.49,15.85,27,38.15,26.83,62.78-.24,33-17.38,66.85-47,92.9-24.33,21.39-54.42,35.13-84.74,38.68A131.46,131.46,0,0,1,1190.45,687.94Zm53.46-173.24c-22.57,0-48.84,9.87-69.69,28.21-19.5,17.15-31.23,39.09-31.38,58.71-.09,11.67,3.86,21.22,11.73,28.36,9,8.14,21.69,12,35.87,12,22.57,0,48.84-9.86,69.69-28.2,19.51-17.16,31.24-39.1,31.39-58.71.08-11.68-3.86-21.22-11.73-28.35h0C1270.8,518.6,1258.09,514.7,1243.91,514.7Z"/><path class="cls-1" d="M901.8,687.94a131.46,131.46,0,0,1-15.32-.91c-30.32-3.55-60.41-17.29-84.74-38.68-29.62-26.05-46.75-59.91-47-92.9-.19-24.63,9.34-46.93,26.83-62.78h0c20.52-18.61,49.68-26.77,82.1-23,30.31,3.54,60.41,17.28,84.74,38.67,29.62,26.06,46.75,59.92,47,92.91.19,24.63-9.34,46.92-26.83,62.78C951.35,679.68,928,687.94,901.8,687.94ZM848.34,514.7c-14.18,0-26.89,3.9-35.87,12h0c-7.88,7.13-11.82,16.67-11.73,28.35.14,19.61,11.88,41.55,31.38,58.71,34,29.86,82.29,37.27,105.56,16.17,7.87-7.14,11.82-16.69,11.73-28.36C949.26,582,937.53,560.06,918,542.9,897.18,524.57,870.91,514.7,848.34,514.7Zm-51.32-5h0Z"/><path class="cls-1" d="M1182,530.82a23,23,0,0,1-22.32-17.51c-1.69-6.87-7.7-30-9-34.1a209.53,209.53,0,0,0-11.4-28,193.26,193.26,0,0,0-15-25.36A23,23,0,1,1,1162,399.42a240.14,240.14,0,0,1,18.54,31.39A256.69,256.69,0,0,1,1194.45,465c2.18,6.73,9.12,34,9.94,37.3a23,23,0,0,1-22.35,28.5Z"/><path class="cls-1" d="M910.22,530.83a22.71,22.71,0,0,1-5.51-.68,23,23,0,0,1-16.84-27.82c.81-3.32,7.74-30.52,9.94-37.31a253.19,253.19,0,0,1,13.91-34.22,239,239,0,0,1,18.54-31.39,23,23,0,0,1,37.67,26.4,192.88,192.88,0,0,0-15,25.35,207.64,207.64,0,0,0-11.4,28c-1.34,4.14-7.35,27.27-9,34.12A23,23,0,0,1,910.22,530.83Z"/><path class="cls-1" d="M851.93,510.55a23,23,0,0,1-17.44-8c-12.22-14.2-15.24-35.86-8.5-61,5.55-20.7,17.32-42.61,33.17-61.68a167.5,167.5,0,0,1,25.69-25.15A23,23,0,1,1,913.14,391a121.9,121.9,0,0,0-18.6,18.27c-11.52,13.87-20.31,30-24.11,44.19-3.24,12.07-1.66,18.12-1,19.17a23,23,0,0,1-17.48,37.94Z"/><path class="cls-1" d="M1240.33,510.55a23,23,0,0,1-17.48-37.94c.64-1.05,2.22-7.1-1-19.16-3.81-14.22-12.6-30.33-24.12-44.2a121.45,121.45,0,0,0-18.6-18.27,23,23,0,1,1,28.29-36.27,167.63,167.63,0,0,1,25.7,25.16c15.84,19.06,27.61,41,33.16,61.67,6.74,25.15,3.72,46.81-8.5,61A22.94,22.94,0,0,1,1240.33,510.55Zm-17.5-37.91Z"/><path class="cls-2" d="M977.54,239.92a.19.19,0,1,0-.19-.19A.2.2,0,0,0,977.54,239.92Z"/><path class="cls-2" d="M1114.71,239.92a.19.19,0,0,0,.19-.19.2.2,0,0,0-.19-.19.19.19,0,0,0-.19.19A.18.18,0,0,0,1114.71,239.92Z"/><path class="cls-1" d="M1133.64,255.64A24.73,24.73,0,0,1,1090.9,233a156.81,156.81,0,0,0-89.56,0,24.73,24.73,0,0,1-42.73,22.64c-18,15.19-27.73,34.44-27.73,55,0,23.33,12.57,45,35.41,60.9,21.49,15,49.84,23.27,79.84,23.27s58.34-8.26,79.84-23.27c22.83-15.94,35.41-37.57,35.41-60.9C1161.38,290.07,1151.6,270.83,1133.64,255.64Zm-21.73,95.77c-14.52,10.14-33.19,16.48-53.51,18.3V327a92.29,92.29,0,0,1-24.55,0v42.7c-20.32-1.82-39-8.16-53.51-18.3-16.06-11.22-24.91-25.69-24.91-40.77s8.85-29.55,24.91-40.77c17.41-12.15,40.77-18.85,65.79-18.85s48.37,6.7,65.78,18.85c16.06,11.22,24.91,25.7,24.91,40.77S1128,340.19,1111.91,351.41Z"/><path class="cls-1" d="M1046.13,288.39c-12.64,0-22.88,3.33-22.88,7.44s10.24,7.45,22.88,7.45S1069,300,1069,295.83,1058.76,288.39,1046.13,288.39Z"/><path class="cls-1" d="M1114.71,264.47A24.72,24.72,0,1,0,1090,239.73,24.67,24.67,0,0,0,1114.71,264.47ZM1102,239.54s0,.09,0,.19,0,.19,0,.19,0-.08,0-.19S1102,239.54,1102,239.54Z"/><path class="cls-1" d="M977.54,264.47a24.77,24.77,0,1,0-18.93-8.83A24.76,24.76,0,0,0,977.54,264.47Zm0-24.93a.19.19,0,1,1-.19.19A.2.2,0,0,1,977.54,239.54Z"/><path class="cls-1" d="M1082.18,318.19a27.66,27.66,0,0,0,0-44.72,40.86,40.86,0,0,0-12.28-6.25,85.07,85.07,0,0,0-47.55,0,40.46,40.46,0,0,0-12.27,6.25,27.65,27.65,0,0,0,0,44.72,40.65,40.65,0,0,0,12.28,6.26,67.75,67.75,0,0,0,11.5,2.56,92.29,92.29,0,0,0,24.55,0,66.8,66.8,0,0,0,11.5-2.56A40.65,40.65,0,0,0,1082.18,318.19Zm-36-14.91c-12.64,0-22.88-3.33-22.88-7.45s10.24-7.44,22.88-7.44,22.87,3.33,22.87,7.44S1058.76,303.28,1046.13,303.28Z"/></g></svg>