<svg xmlns="http://www.w3.org/2000/svg" viewBox="0 0 1500 1500"><defs><style>.cls-1{fill:#fff;}.cls-2{fill:none;}</style></defs><title>Iconos finales</title><g id="souveniers"><path class="cls-1" d="M1045.78,688c-36.2,0-76.5-1.88-101.91-15.57A23,23,0,0,1,965.69,632C984.44,642.06,1031,642,1046.32,642c40.87,0,67.87-3.4,80.25-10.07a23,23,0,1,1,21.82,40.5c-13.45,7.24-37.19,15.55-102.05,15.57Z"/><path class="cls-1" d="M1046.13,448.74c-56.38,0-109.5-20-149.57-56.27-40.7-36.86-63.11-86.05-63.11-138.52q0-8.64.83-17.25A85.63,85.63,0,1,1,919.86,97.17c36.39-24.65,80.33-38,126.27-38s89.89,13.35,126.27,38a86,86,0,0,1,15.52-13.81A85.64,85.64,0,1,1,1258,236.7q.82,8.6.83,17.25c0,52.47-22.42,101.66-63.12,138.52C1155.63,428.76,1102.51,448.74,1046.13,448.74Zm-155-258.36-7.77,31.3A133.54,133.54,0,0,0,879.45,254c0,82,74.77,148.79,166.68,148.79S1212.81,336,1212.81,254a134.3,134.3,0,0,0-4-32.28l-7.73-31.19,32,2.73c1.26.11,2.42.16,3.55.16a39.63,39.63,0,1,0-36.9-54.12l-12,30.52-24.6-21.68c-31.4-27.68-73-42.92-117-42.92s-85.65,15.24-117.05,42.92l-24.61,21.69-12-30.52a39.63,39.63,0,1,0-36.9,54.11c1.16,0,2.33-.05,3.49-.15Z"/><path class="cls-1" d="M1190.45,687.94c-26.22,0-49.54-8.26-66.78-23.89-17.49-15.86-27-38.15-26.83-62.78.25-33,17.38-66.85,47-92.91,24.33-21.39,54.43-35.13,84.75-38.67,32.42-3.8,61.57,4.37,82.09,23,17.49,15.85,27,38.15,26.83,62.78-.24,33-17.38,66.85-47,92.9-24.33,21.39-54.42,35.13-84.74,38.68A131.46,131.46,0,0,1,1190.45,687.94Zm53.46-173.24c-22.57,0-48.84,9.87-69.69,28.2-19.5,17.16-31.23,39.11-31.38,58.72-.09,11.67,3.86,21.22,11.73,28.36,9,8.14,21.69,12,35.87,12,22.57,0,48.84-9.87,69.69-28.21,19.51-17.16,31.24-39.1,31.39-58.71.08-11.68-3.86-21.22-11.73-28.35h0C1270.8,518.6,1258.09,514.7,1243.91,514.7Z"/><path class="cls-1" d="M901.8,687.94a131.46,131.46,0,0,1-15.32-.91c-30.32-3.55-60.41-17.29-84.74-38.68-29.62-26.05-46.75-59.91-47-92.9-.19-24.63,9.34-46.92,26.83-62.78h0c20.52-18.61,49.68-26.78,82.1-23,30.31,3.54,60.41,17.28,84.74,38.67,29.62,26.06,46.75,59.92,47,92.91.19,24.63-9.34,46.92-26.83,62.78C951.35,679.68,928,687.94,901.8,687.94ZM848.34,514.7c-14.18,0-26.89,3.9-35.87,12h0c-7.88,7.13-11.82,16.67-11.73,28.35.14,19.61,11.88,41.55,31.38,58.71,34,29.86,82.29,37.26,105.56,16.17,7.87-7.14,11.82-16.69,11.73-28.36C949.26,582,937.53,560.06,918,542.9,897.18,524.57,870.91,514.7,848.34,514.7Zm-51.32-5h0Z"/><path class="cls-1" d="M1182,530.82a23,23,0,0,1-22.32-17.51c-1.69-6.87-7.7-30-9-34.1a209.53,209.53,0,0,0-11.4-28,193.91,193.91,0,0,0-15-25.36A23,23,0,1,1,1162,399.42a240.14,240.14,0,0,1,18.54,31.39A256.15,256.15,0,0,1,1194.45,465c2.18,6.73,9.12,34,9.94,37.3a23,23,0,0,1-22.35,28.5Z"/><path class="cls-1" d="M910.22,530.82a22.69,22.69,0,0,1-5.51-.67,23,23,0,0,1-16.84-27.82c.81-3.32,7.74-30.52,9.94-37.31a252.67,252.67,0,0,1,13.91-34.22,239,239,0,0,1,18.54-31.39,23,23,0,0,1,37.67,26.4,192.88,192.88,0,0,0-15,25.35,207.11,207.11,0,0,0-11.4,28c-1.34,4.14-7.35,27.27-9,34.12A23,23,0,0,1,910.22,530.82Z"/><path class="cls-1" d="M851.93,510.55a22.92,22.92,0,0,1-17.44-8c-12.22-14.2-15.24-35.86-8.5-61,5.55-20.7,17.32-42.61,33.17-61.68a167.5,167.5,0,0,1,25.69-25.15A23,23,0,1,1,913.14,391a121.9,121.9,0,0,0-18.6,18.27c-11.52,13.87-20.31,30-24.11,44.19-3.24,12.07-1.66,18.12-1,19.17a23,23,0,0,1-17.48,37.94Zm17.5-37.91Z"/><path class="cls-1" d="M1240.33,510.55a23,23,0,0,1-17.48-37.94c.64-1.05,2.22-7.1-1-19.16-3.81-14.22-12.6-30.33-24.12-44.2a121.45,121.45,0,0,0-18.6-18.27,23,23,0,1,1,28.29-36.27,167.63,167.63,0,0,1,25.7,25.16c15.84,19.06,27.61,41,33.16,61.67,6.74,25.15,3.72,46.81-8.5,61A22.94,22.94,0,0,1,1240.33,510.55Z"/><path class="cls-2" d="M977.54,239.92a.19.19,0,1,0-.19-.19A.2.2,0,0,0,977.54,239.92Z"/><path class="cls-2" d="M1114.71,239.92a.19.19,0,0,0,.19-.19.2.2,0,0,0-.19-.19.19.19,0,0,0-.19.19A.18.18,0,0,0,1114.71,239.92Z"/><path class="cls-1" d="M1133.64,255.64A24.73,24.73,0,0,1,1090.9,233a156.81,156.81,0,0,0-89.56,0,24.73,24.73,0,0,1-42.73,22.64c-18,15.19-27.73,34.44-27.73,55,0,23.33,12.57,45,35.41,60.9,21.49,15,49.84,23.27,79.84,23.27s58.34-8.26,79.84-23.27c22.83-15.94,35.41-37.57,35.41-60.9C1161.38,290.07,1151.6,270.83,1133.64,255.64Zm-21.73,95.77c-14.52,10.14-33.19,16.48-53.51,18.3V327a92.29,92.29,0,0,1-24.55,0v42.7c-20.32-1.82-39-8.16-53.51-18.3-16.06-11.22-24.91-25.69-24.91-40.77s8.85-29.55,24.91-40.77c17.41-12.15,40.77-18.85,65.79-18.85s48.37,6.7,65.78,18.85c16.06,11.22,24.91,25.7,24.91,40.77S1128,340.19,1111.91,351.41Z"/><path class="cls-1" d="M1046.13,288.39c-12.64,0-22.88,3.33-22.88,7.44s10.24,7.45,22.88,7.45S1069,300,1069,295.83,1058.76,288.39,1046.13,288.39Z"/><path class="cls-1" d="M1114.71,264.47A24.72,24.72,0,1,0,1090,239.73,24.67,24.67,0,0,0,1114.71,264.47ZM1102,239.54s0,.09,0,.19,0,.19,0,.19,0-.08,0-.19S1102,239.54,1102,239.54Z"/><path class="cls-1" d="M977.54,264.47a24.77,24.77,0,1,0-18.93-8.83A24.76,24.76,0,0,0,977.54,264.47Zm0-24.93a.19.19,0,1,1-.19.19A.2.2,0,0,1,977.54,239.54Z"/><path class="cls-1" d="M1082.18,318.19a27.66,27.66,0,0,0,0-44.72,40.86,40.86,0,0,0-12.28-6.25,85.07,85.07,0,0,0-47.55,0,40.46,40.46,0,0,0-12.27,6.25,27.65,27.65,0,0,0,0,44.72,40.65,40.65,0,0,0,12.28,6.26,67.75,67.75,0,0,0,11.5,2.56,92.29,92.29,0,0,0,24.55,0,66.8,66.8,0,0,0,11.5-2.56A40.65,40.65,0,0,0,1082.18,318.19Zm-36-14.91c-12.64,0-22.88-3.33-22.88-7.45s10.24-7.44,22.88-7.44,22.87,3.33,22.87,7.44S1058.76,303.28,1046.13,303.28Z"/><path class="cls-1" d="M559.56,1476.69a46.8,46.8,0,0,1-32.08-12.59c-28.37-26.65-174.36-164-262-251.43A23,23,0,1,1,298,1180.11c87.18,87,232.72,223.89,261,250.45a.79.79,0,0,0,1,0l172-136.15a.82.82,0,0,0,.2-1c-10.39-17.24-28.4-47.58-49.26-82.72-40.54-68.27-96.05-161.78-137.18-229.23a23,23,0,1,1,39.27-24c41.27,67.68,96.87,161.33,137.46,229.7,20.82,35.07,38.8,65.35,49.11,82.47a46.91,46.91,0,0,1-11,60.85l-172,136.15A46.68,46.68,0,0,1,559.56,1476.69Z"/><path class="cls-1" d="M284.68,1214.88a23,23,0,0,1-14.29-41L547.13,954.62a23,23,0,0,1,28.56,36.06L299,1209.9A22.92,22.92,0,0,1,284.68,1214.88Z"/><path class="cls-1" d="M426.72,975.61a23,23,0,0,1-20.15-11.86L313.46,795.58a23,23,0,0,1,5.85-29.17l103-81.57a23,23,0,1,1,28.57,36l-87.7,69.47,83.67,151.11a23,23,0,0,1-20.1,34.14Z"/><path class="cls-1" d="M256.74,1230.71a46.86,46.86,0,0,1-5.28-.3,44.56,44.56,0,0,1-30-16.69l-28.23-35.63a44.93,44.93,0,0,1,7.32-63L505.88,873.17a44.94,44.94,0,0,1,63,7.31l28.22,35.63a45,45,0,0,1-7.31,63h0L284.49,1221A44.47,44.47,0,0,1,256.74,1230.71ZM230,1150.41l26.83,33.87L560.39,943.79l-26.83-33.87ZM575.55,961.12h0Z"/><path class="cls-1" d="M1299.07,961.74H710.77a13.38,13.38,0,0,0-13.37,13.37V1204c1.86,1.69,3.71,3.4,5.51,5.15,7.6,7.36,15.6,15.54,21.23,24.8V988.48H1285.7V1296a40.16,40.16,0,0,1-40.11,40.11H764.25a39.94,39.94,0,0,1-26.33-9.89,136,136,0,0,1-19.92,18,66.58,66.58,0,0,0,46.25,18.65h481.34a66.93,66.93,0,0,0,66.85-66.85V975.11A13.38,13.38,0,0,0,1299.07,961.74Z"/><path class="cls-1" d="M1245.59,1366.86H764.25a70.52,70.52,0,0,1-49-19.76l-3.43-3.29,3.83-2.82A131.76,131.76,0,0,0,735,1323.54l2.63-2.91,3,2.58a36.07,36.07,0,0,0,23.7,8.91h481.34A36.15,36.15,0,0,0,1281.7,1296V992.48H728.14v255.78L720.72,1236c-5.53-9.1-13.53-17.16-20.59-24-1.59-1.54-3.36-3.2-5.42-5.06l-1.31-1.19V975.11a17.39,17.39,0,0,1,17.37-17.37h588.3a17.39,17.39,0,0,1,17.37,17.37V1296A70.93,70.93,0,0,1,1245.59,1366.86Zm-521.31-22.41a62.44,62.44,0,0,0,40,14.41h481.34a62.92,62.92,0,0,0,62.85-62.85V975.11a9.38,9.38,0,0,0-9.37-9.37H710.77a9.38,9.38,0,0,0-9.37,9.37v227.14c1.58,1.45,3,2.78,4.3,4a187.23,187.23,0,0,1,14.44,15.26V984.48H1289.7V1296a44.16,44.16,0,0,1-44.11,44.11H764.25a44,44,0,0,1-25.93-8.46A141.24,141.24,0,0,1,724.28,1344.45Z"/><path class="cls-1" d="M710.77,1008.65a13.34,13.34,0,0,1-12.95-10.09L672.63,899a40.08,40.08,0,0,1,30-48.86L1241.31,722.3a40.4,40.4,0,0,1,48,29.36L1312,838a13.38,13.38,0,0,1-10,16.47L722.26,986.21l1.48,5.8a13.35,13.35,0,0,1-9.66,16.23A12.93,12.93,0,0,1,710.77,1008.65ZM1250.29,748a12.06,12.06,0,0,0-2.91.35L708.65,876.14a13.4,13.4,0,0,0-10.11,16.34l17.17,67.79,566.91-128.84-19.28-73.13A13.52,13.52,0,0,0,1250.29,748Z"/><path class="cls-1" d="M710.77,1012.65a17.28,17.28,0,0,1-16.83-13.12L668.75,900a44.07,44.07,0,0,1,33-53.74l538.69-127.81c23.33-5.29,47,9.2,52.75,32.28l22.74,86.3A17.4,17.4,0,0,1,1303,858.38L727.15,989.2l.46,1.83a17.34,17.34,0,0,1-16.84,21.62Zm539.36-287.34a36.06,36.06,0,0,0-7.94.89L703.51,854a36.06,36.06,0,0,0-27,44l25.19,99.58a9.3,9.3,0,0,0,9.07,7.07,9.11,9.11,0,0,0,2.32-.28A9.35,9.35,0,0,0,719.86,993l-2.48-9.78,583.77-132.64a9.48,9.48,0,0,0,5.94-4.29,9.38,9.38,0,0,0,1.05-7.27l-22.75-86.34A36.45,36.45,0,0,0,1250.13,725.31ZM712.79,965l-18.12-71.58a17.36,17.36,0,0,1,2-13.31,17.54,17.54,0,0,1,11-7.9l538.72-127.79a15.82,15.82,0,0,1,3.83-.46,17.44,17.44,0,0,1,16.94,13.34l20.32,77.08Zm537.5-213a8.12,8.12,0,0,0-1.94.23L709.58,880a9.39,9.39,0,0,0-7.15,11.47l16.2,64L1277.7,828.45l-18.22-69.14A9.48,9.48,0,0,0,1250.29,752Z"/><path class="cls-1" d="M764.25,1095.45a13.39,13.39,0,0,1-12-19.36l53.48-107a13.39,13.39,0,0,1,24,12l-53.48,107A13.39,13.39,0,0,1,764.25,1095.45Z"/><path class="cls-1" d="M764.25,1099.45a17.39,17.39,0,0,1-15.56-25.15l53.48-107a17.39,17.39,0,0,1,31.12,15.53l-53.48,107A17.31,17.31,0,0,1,764.25,1099.45Zm53.49-133.72a9.46,9.46,0,0,0-8.43,5.21l-53.46,106.94a9.41,9.41,0,0,0,4.2,12.58,9.52,9.52,0,0,0,4.2,1,9.33,9.33,0,0,0,8.4-5.2l53.48-107a9.42,9.42,0,0,0-4.2-12.58A9.56,9.56,0,0,0,817.74,965.73Z"/><path class="cls-1" d="M898,1095.45a13.56,13.56,0,0,1-6-1.42,13.4,13.4,0,0,1-6-17.94l53.49-107a13.38,13.38,0,1,1,23.93,12l-53.48,107A13.32,13.32,0,0,1,898,1095.45Z"/><path class="cls-1" d="M898,1099.45a17.39,17.39,0,0,1-15.56-25.15l53.49-107A17.38,17.38,0,0,1,967,982.86l-53.49,107A17.2,17.2,0,0,1,898,1099.45Zm53.53-133.7a9.45,9.45,0,0,0-8.45,5.17l-53.48,107a9.39,9.39,0,0,0,8.4,13.57,9.27,9.27,0,0,0,8.37-5.18l53.49-107a9.41,9.41,0,0,0-4.21-12.58A9.31,9.31,0,0,0,951.48,965.75Z"/><path class="cls-1" d="M1031.66,1095.45a13.39,13.39,0,0,1-12-19.36l53.48-107a13.38,13.38,0,1,1,23.93,12l-53.48,107A13.3,13.3,0,0,1,1031.66,1095.45Z"/><path class="cls-1" d="M1031.66,1099.45a17.39,17.39,0,0,1-15.56-25.15l53.48-107a17.38,17.38,0,1,1,31.09,15.53l-53.48,107A17.2,17.2,0,0,1,1031.66,1099.45Zm53.54-133.7a9.49,9.49,0,0,0-8.47,5.18l-53.47,107a9.41,9.41,0,0,0,4.2,12.58,9.52,9.52,0,0,0,4.2,1,9.28,9.28,0,0,0,8.37-5.18l53.49-107a9.42,9.42,0,0,0-4.21-12.58A9.27,9.27,0,0,0,1085.2,965.75Z"/><path class="cls-1" d="M1165.36,1095.45a13.56,13.56,0,0,1-6-1.42,13.41,13.41,0,0,1-6-17.94l53.49-107a13.38,13.38,0,1,1,23.93,12l-53.48,107A13.32,13.32,0,0,1,1165.36,1095.45Z"/><path class="cls-1" d="M1165.36,1099.45a17.4,17.4,0,0,1-15.56-25.15l53.49-107a17.38,17.38,0,0,1,31.09,15.53l-53.48,107A17.22,17.22,0,0,1,1165.36,1099.45Zm53.47-133.72a9.37,9.37,0,0,0-8.39,5.2l-53.48,107a9.41,9.41,0,0,0,4.21,12.58,9.51,9.51,0,0,0,4.19,1,9.27,9.27,0,0,0,8.37-5.18l53.49-107a9.42,9.42,0,0,0-4.2-12.58A9.59,9.59,0,0,0,1218.83,965.73Z"/><path class="cls-1" d="M1299.07,1095.45H710.77a13.37,13.37,0,0,1,0-26.74h588.3a13.37,13.37,0,1,1,0,26.74Z"/><path class="cls-1" d="M1299.07,1099.45H710.77a17.37,17.37,0,0,1,0-34.74h588.3a17.37,17.37,0,1,1,0,34.74Zm-588.3-26.74a9.37,9.37,0,0,0,0,18.74h588.3a9.37,9.37,0,1,0,0-18.74Z"/><path class="cls-1" d="M830.62,961.23a13.45,13.45,0,0,1-9.47-3.9l-92.09-92.12A13.37,13.37,0,1,1,748,846.3l92.1,92.1a13.38,13.38,0,0,1-9.44,22.83Z"/><path class="cls-1" d="M830.62,965.23a17.34,17.34,0,0,1-12.28-5.06L726.23,868a17.37,17.37,0,0,1,24.56-24.56l92.1,92.1a17.39,17.39,0,0,1,0,24.56A17.13,17.13,0,0,1,830.62,965.23ZM738.51,846.39a9.38,9.38,0,0,0-6.63,16L824,954.5a9.39,9.39,0,0,0,6.64,2.73,9.23,9.23,0,0,0,6.6-2.74,9.39,9.39,0,0,0,0-13.26l-92.1-92.1A9.26,9.26,0,0,0,738.51,846.39Z"/><path class="cls-1" d="M961.41,931.5a13.42,13.42,0,0,1-9.47-3.91L859.79,835.5a13.37,13.37,0,0,1,18.91-18.91l92.18,92.1a13.36,13.36,0,0,1-9.47,22.81Z"/><path class="cls-1" d="M961.41,935.5a17.38,17.38,0,0,1-12.28-5.06L857,838.33a17.37,17.37,0,0,1,24.56-24.57l92.17,92.1a17.36,17.36,0,0,1-12.29,29.64ZM869.25,816.68a9.37,9.37,0,0,0-6.63,16l92.15,92.09a9.38,9.38,0,1,0,13.28-13.24l-92.18-92.1A9.3,9.3,0,0,0,869.25,816.68Z"/><path class="cls-1" d="M1092.15,901.79a13.4,13.4,0,0,1-9.47-3.91l-92-92.12a13.37,13.37,0,0,1,18.91-18.91l92,92.13a13.38,13.38,0,0,1,0,18.9A13.24,13.24,0,0,1,1092.15,901.79Z"/><path class="cls-1" d="M1092.15,905.79a17.36,17.36,0,0,1-12.28-5.06l-92-92.14A17.37,17.37,0,0,1,1012.4,784l92,92.12a17.39,17.39,0,0,1,0,24.56A17.14,17.14,0,0,1,1092.15,905.79Zm-92-118.85a9.37,9.37,0,0,0-6.63,16l92,92.13a9.42,9.42,0,0,0,6.64,2.73,9.19,9.19,0,0,0,6.59-2.72,9.38,9.38,0,0,0,0-13.26l-92-92.13A9.32,9.32,0,0,0,1000.12,786.94Z"/><path class="cls-1" d="M1222.8,872.11a13.4,13.4,0,0,1-9.46-3.91l-92-92.12a13.37,13.37,0,1,1,18.9-18.91l92,92.13a13.36,13.36,0,0,1-9.44,22.81Z"/><path class="cls-1" d="M1222.8,876.11a17.35,17.35,0,0,1-12.28-5.07l-92-92.13A17.37,17.37,0,0,1,1143,754.34l92,92.13a17.36,17.36,0,0,1-12.27,29.64Zm-92-118.85a9.37,9.37,0,0,0-6.63,16l92.05,92.12a9.37,9.37,0,0,0,13.25-13.25L1137.37,760A9.28,9.28,0,0,0,1130.75,757.26Z"/><path class="cls-1" d="M564.42,642.65H266.53a23,23,0,0,1-23-23V384.44c-71.45-1.73-129-60.39-129-132.25,0-72.94,59.34-132.29,132.28-132.29a131.72,131.72,0,0,1,44.46,7.67,132.34,132.34,0,0,1,248.49,0,131.71,131.71,0,0,1,44.46-7.66c72.94,0,132.29,59.34,132.29,132.28,0,71.86-57.59,130.53-129.05,132.25V619.65A23,23,0,0,1,564.42,642.65Zm-71.6-46h48.6V361.48a23,23,0,0,1,23-23h19.76a86.29,86.29,0,1,0-31-166.83l-19.23,7.42A23,23,0,0,1,503.85,165l-6.6-19.52a86.34,86.34,0,0,0-163.55,0L327.11,165A23,23,0,0,1,297,179.07l-19.23-7.42a86.3,86.3,0,1,0-31,166.83h19.76a23,23,0,0,1,23,23V596.65h44.82V381.24a23,23,0,0,1,46,0V596.65h66.47V381.24a23,23,0,0,1,46,0Z"/></g></svg>