<?xml version="1.0" encoding="utf-8"?>
<!-- Generator: Adobe Illustrator 23.1.0, SVG Export Plug-In . SVG Version: 6.00 Build 0)  -->
<svg version="1.1" id="Layer_1" xmlns="http://www.w3.org/2000/svg" xmlns:xlink="http://www.w3.org/1999/xlink" x="0px" y="0px"
	 viewBox="0 0 651.2 142" style="enable-background:new 0 0 651.2 142;" xml:space="preserve">
<style type="text/css">
	.st0{fill:#F99300;}
</style>
<g>
	<g>
		<g>
			<path class="st0" d="M49.6,45.3l8.9,25l9.6-26.1c0.8-2.1,1.5-3.6,2.2-4.5s1.8-1.3,3.3-1.3c1.4,0,2.6,0.5,3.6,1.4
				c1,0.9,1.5,2,1.5,3.3c0,0.5-0.1,1-0.3,1.7c-0.2,0.6-0.4,1.3-0.6,1.8c-0.2,0.6-0.5,1.2-0.8,1.9L66.5,74.8
				c-0.3,0.8-0.7,1.7-1.2,2.9c-0.5,1.2-1,2.1-1.6,3c-0.6,0.8-1.3,1.5-2.1,1.9c-0.8,0.5-1.9,0.7-3.1,0.7c-1.6,0-2.8-0.4-3.7-1.1
				c-0.9-0.7-1.6-1.5-2.1-2.3c-0.4-0.8-1.2-2.5-2.2-5L40,48.9c-0.2-0.6-0.5-1.3-0.7-1.9c-0.3-0.6-0.5-1.3-0.6-2
				c-0.2-0.7-0.3-1.3-0.3-1.7c0-0.8,0.2-1.5,0.7-2.2c0.5-0.7,1.1-1.3,1.9-1.8c0.8-0.5,1.7-0.7,2.6-0.7c1.8,0,3.1,0.5,3.8,1.6
				C48,41.1,48.8,42.8,49.6,45.3z"/>
			<path class="st0" d="M111.3,77c-2.7,2.1-5.2,3.6-7.7,4.7c-2.5,1-5.3,1.6-8.4,1.6c-2.8,0-5.3-0.6-7.4-1.7
				c-2.1-1.1-3.8-2.6-4.9-4.5c-1.2-1.9-1.7-4-1.7-6.2c0-3,1-5.6,2.9-7.7c1.9-2.1,4.5-3.6,7.9-4.3c0.7-0.2,2.4-0.5,5.2-1.1
				s5.1-1.1,7.1-1.6c2-0.5,4.1-1,6.4-1.7c-0.1-2.9-0.7-5-1.8-6.4c-1-1.4-3.2-2-6.4-2c-2.8,0-4.9,0.4-6.3,1.2c-1.4,0.8-2.6,2-3.6,3.5
				s-1.7,2.6-2.1,3.1c-0.4,0.5-1.3,0.7-2.7,0.7c-1.2,0-2.3-0.4-3.2-1.2c-0.9-0.8-1.4-1.8-1.4-3c0-1.9,0.7-3.8,2.1-5.6
				c1.4-1.8,3.5-3.3,6.4-4.5c2.9-1.2,6.5-1.8,10.9-1.8c4.8,0,8.6,0.6,11.4,1.7c2.8,1.1,4.7,3,5.9,5.4c1.1,2.5,1.7,5.8,1.7,9.8
				c0,2.6,0,4.8,0,6.6c0,1.8,0,3.8-0.1,6c0,2.1,0.3,4.2,1,6.5c0.7,2.2,1,3.7,1,4.3c0,1.1-0.5,2.2-1.6,3.1c-1.1,0.9-2.3,1.4-3.6,1.4
				c-1.1,0-2.2-0.5-3.3-1.6C113.7,80.6,112.6,79,111.3,77z M110.6,61.1c-1.6,0.6-4,1.2-7,1.9c-3.1,0.7-5.2,1.1-6.4,1.5
				c-1.2,0.3-2.3,0.9-3.4,1.8c-1.1,0.9-1.6,2.2-1.6,3.8c0,1.7,0.6,3.1,1.9,4.3c1.3,1.2,2.9,1.8,5,1.8c2.2,0,4.2-0.5,6-1.4
				c1.8-1,3.2-2.2,4.1-3.7c1-1.7,1.5-4.4,1.5-8.2V61.1z"/>
			<path class="st0" d="M278.7,61.6v14.6c0,2.3-0.5,4-1.6,5.2c-1,1.2-2.4,1.7-4.2,1.7c-1.7,0-3-0.6-4.1-1.7c-1-1.2-1.6-2.9-1.6-5.2
				V58.7c0-2.8-0.1-4.9-0.3-6.5c-0.2-1.5-0.7-2.8-1.5-3.8s-2.2-1.5-4-1.5c-3.6,0-6,1.2-7.1,3.7c-1.1,2.5-1.7,6-1.7,10.7v14.9
				c0,2.3-0.5,4-1.6,5.2c-1,1.2-2.4,1.8-4.1,1.8c-1.7,0-3-0.6-4.1-1.8c-1.1-1.2-1.6-2.9-1.6-5.2V44.8c0-2.1,0.5-3.6,1.4-4.7
				c1-1.1,2.2-1.6,3.8-1.6c1.5,0,2.8,0.5,3.8,1.5s1.5,2.4,1.5,4.2v1c1.9-2.3,4-4,6.1-5c2.2-1.1,4.6-1.6,7.3-1.6
				c2.8,0,5.2,0.6,7.1,1.7c2,1.1,3.6,2.8,4.9,5c1.9-2.3,3.8-3.9,6-5c2.1-1.1,4.5-1.6,7.1-1.6c3,0,5.6,0.6,7.8,1.8
				c2.2,1.2,3.8,2.9,4.9,5.1c0.9,2,1.4,5.1,1.4,9.4v21.5c0,2.3-0.5,4-1.6,5.2c-1,1.2-2.4,1.7-4.2,1.7c-1.7,0-3-0.6-4.1-1.8
				c-1.1-1.2-1.6-2.9-1.6-5.2V57.8c0-2.4-0.1-4.3-0.3-5.7c-0.2-1.4-0.7-2.6-1.6-3.6c-0.9-1-2.2-1.5-4-1.5c-1.5,0-2.8,0.4-4.1,1.3
				c-1.3,0.9-2.3,2-3,3.5C279.1,53.7,278.7,56.9,278.7,61.6z"/>
			<path class="st0" d="M318.7,33.3c-1.5,0-2.8-0.5-3.9-1.4c-1.1-0.9-1.6-2.3-1.6-4c0-1.6,0.6-2.8,1.7-3.9c1.1-1,2.4-1.5,3.9-1.5
				c1.4,0,2.7,0.5,3.8,1.4c1.1,0.9,1.7,2.2,1.7,4c0,1.7-0.5,3-1.6,4C321.5,32.8,320.2,33.3,318.7,33.3z M324.2,44.7v31.8
				c0,2.2-0.5,3.9-1.6,5c-1,1.1-2.4,1.7-4,1.7s-2.9-0.6-3.9-1.7c-1-1.2-1.5-2.8-1.5-5V45c0-2.2,0.5-3.8,1.5-4.9
				c1-1.1,2.3-1.7,3.9-1.7s2.9,0.6,4,1.7C323.6,41.2,324.2,42.7,324.2,44.7z"/>
			<path class="st0" d="M391.6,69.6c0,1.4-0.4,2.8-1.2,4.4c-0.8,1.6-2.1,3-3.8,4.5c-1.7,1.4-3.8,2.5-6.4,3.4
				c-2.6,0.9-5.4,1.3-8.6,1.3c-6.8,0-12.1-2-15.9-6c-3.8-4-5.7-9.3-5.7-16c0-4.5,0.9-8.5,2.6-12c1.7-3.5,4.3-6.2,7.6-8
				c3.3-1.9,7.3-2.8,11.9-2.8c2.9,0,5.5,0.4,7.8,1.3c2.4,0.8,4.4,1.9,6.1,3.2c1.7,1.3,2.9,2.7,3.8,4.2c0.9,1.5,1.3,2.9,1.3,4.2
				c0,1.3-0.5,2.4-1.5,3.3c-1,0.9-2.2,1.4-3.6,1.4c-0.9,0-1.7-0.2-2.3-0.7c-0.6-0.5-1.3-1.2-2-2.3c-1.3-2-2.8-3.6-4.2-4.6
				c-1.5-1-3.3-1.5-5.6-1.5c-3.3,0-5.9,1.3-7.9,3.8c-2,2.5-3,6-3,10.4c0,2.1,0.3,4,0.8,5.7c0.5,1.7,1.3,3.2,2.2,4.4
				c1,1.2,2.1,2.2,3.5,2.8c1.4,0.6,2.9,0.9,4.5,0.9c2.2,0,4.1-0.5,5.7-1.5c1.6-1,3-2.6,4.2-4.7c0.7-1.2,1.4-2.2,2.2-2.9
				c0.8-0.7,1.7-1,2.9-1c1.3,0,2.5,0.5,3.3,1.5C391.1,67.3,391.6,68.4,391.6,69.6z"/>
			<path class="st0" d="M427.7,77v-1.4c-1.3,1.7-2.7,3.1-4.2,4.2c-1.5,1.1-3,2-4.8,2.5c-1.7,0.6-3.7,0.8-5.9,0.8
				c-2.7,0-5.1-0.6-7.2-1.7c-2.1-1.1-3.7-2.6-4.9-4.6c-1.4-2.3-2.1-5.7-2.1-10.1V45c0-2.2,0.5-3.9,1.5-4.9c1-1.1,2.3-1.6,4-1.6
				c1.7,0,3,0.6,4,1.7c1,1.1,1.5,2.7,1.5,4.9v17.6c0,2.6,0.2,4.7,0.6,6.4c0.4,1.7,1.2,3.1,2.3,4.1c1.1,1,2.6,1.5,4.5,1.5
				c1.9,0,3.6-0.6,5.2-1.7c1.6-1.1,2.8-2.5,3.6-4.3c0.6-1.6,0.9-5,0.9-10.2V45c0-2.2,0.5-3.8,1.5-4.9c1-1.1,2.4-1.7,4-1.7
				s3,0.5,4,1.6c1,1.1,1.5,2.7,1.5,4.9v31.9c0,2.1-0.5,3.7-1.4,4.7c-1,1-2.2,1.6-3.7,1.6c-1.5,0-2.8-0.5-3.7-1.6
				C428.2,80.5,427.7,79,427.7,77z"/>
			<path class="st0" d="M477.7,63.5h-21.5c0,2.5,0.5,4.7,1.5,6.6c1,1.9,2.3,3.3,3.9,4.3c1.6,1,3.4,1.5,5.4,1.5
				c1.3,0,2.5-0.2,3.6-0.5c1.1-0.3,2.1-0.8,3.2-1.5c1-0.7,2-1.4,2.8-2.1c0.9-0.8,2-1.8,3.3-3.1c0.6-0.5,1.4-0.7,2.4-0.7
				c1.1,0,2,0.3,2.7,0.9c0.7,0.6,1,1.5,1,2.6c0,1-0.4,2.2-1.2,3.5s-2,2.6-3.5,3.8c-1.6,1.2-3.6,2.2-5.9,3s-5.1,1.2-8.2,1.2
				c-7.1,0-12.6-2-16.5-6.1c-3.9-4-5.9-9.5-5.9-16.4c0-3.3,0.5-6.3,1.5-9.1s2.4-5.2,4.2-7.2c1.9-2,4.1-3.5,6.9-4.6
				c2.7-1.1,5.7-1.6,9-1.6c4.3,0,8,0.9,11.1,2.7c3.1,1.8,5.4,4.2,6.9,7s2.3,5.8,2.3,8.8c0,2.8-0.8,4.6-2.4,5.4
				C482.8,63.1,480.6,63.5,477.7,63.5z M456.1,57.3h20c-0.3-3.8-1.3-6.6-3-8.5c-1.8-1.9-4.1-2.8-7-2.8c-2.7,0-5,0.9-6.8,2.8
				C457.6,50.8,456.5,53.6,456.1,57.3z"/>
			<path class="st0" d="M504,44.5v1.3c1.9-2.6,4.1-4.4,6.4-5.6c2.3-1.2,4.9-1.8,7.9-1.8c2.9,0,5.5,0.6,7.8,1.9
				c2.3,1.3,4,3.1,5.1,5.4c0.7,1.3,1.2,2.8,1.4,4.4c0.2,1.6,0.3,3.6,0.3,6v20.5c0,2.2-0.5,3.9-1.5,5s-2.3,1.7-3.9,1.7
				c-1.6,0-3-0.6-4-1.7c-1-1.2-1.5-2.8-1.5-5V58.2c0-3.6-0.5-6.4-1.5-8.3c-1-1.9-3-2.9-6-2.9c-2,0-3.8,0.6-5.4,1.8
				c-1.6,1.2-2.8,2.8-3.6,4.8c-0.5,1.6-0.8,4.7-0.8,9.2v13.8c0,2.2-0.5,3.9-1.6,5c-1,1.1-2.4,1.7-4,1.7c-1.6,0-2.9-0.6-3.9-1.7
				c-1-1.2-1.5-2.8-1.5-5V44.7c0-2.1,0.5-3.7,1.4-4.7c0.9-1,2.2-1.6,3.8-1.6c1,0,1.8,0.2,2.6,0.7c0.8,0.5,1.4,1.1,1.9,2.1
				C503.8,42.1,504,43.2,504,44.5z"/>
			<path class="st0" d="M542.4,39.4h1.2v-6.6c0-1.8,0-3.2,0.1-4.2c0.1-1,0.4-1.9,0.8-2.6c0.4-0.8,1-1.4,1.9-1.8
				c0.8-0.5,1.7-0.7,2.7-0.7c1.4,0,2.7,0.5,3.8,1.6c0.8,0.7,1.2,1.6,1.4,2.6c0.2,1,0.3,2.4,0.3,4.3v7.5h4c1.6,0,2.8,0.4,3.6,1.1
				c0.8,0.7,1.2,1.7,1.2,2.8c0,1.5-0.6,2.5-1.8,3.1c-1.2,0.6-2.8,0.9-5,0.9h-2.1v20.3c0,1.7,0.1,3,0.2,4c0.1,0.9,0.4,1.7,1,2.3
				c0.5,0.6,1.4,0.9,2.6,0.9c0.6,0,1.5-0.1,2.6-0.3c1.1-0.2,2-0.3,2.6-0.3c0.9,0,1.7,0.4,2.4,1.1c0.7,0.7,1.1,1.6,1.1,2.6
				c0,1.8-1,3.1-2.9,4.1c-1.9,0.9-4.7,1.4-8.4,1.4c-3.4,0-6.1-0.6-7.8-1.7c-1.8-1.2-2.9-2.8-3.5-4.8c-0.6-2-0.8-4.8-0.8-8.2V47.4
				h-1.5c-1.6,0-2.8-0.4-3.6-1.1c-0.8-0.8-1.3-1.7-1.3-2.9c0-1.2,0.4-2.1,1.3-2.8C539.5,39.8,540.8,39.4,542.4,39.4z"/>
			<path class="st0" d="M600.2,77c-2.7,2.1-5.2,3.6-7.7,4.7c-2.5,1-5.3,1.6-8.4,1.6c-2.8,0-5.3-0.6-7.4-1.7
				c-2.1-1.1-3.8-2.6-4.9-4.5c-1.2-1.9-1.7-4-1.7-6.2c0-3,1-5.6,2.9-7.7c1.9-2.1,4.5-3.6,7.9-4.3c0.7-0.2,2.4-0.5,5.2-1.1
				s5.1-1.1,7.1-1.6c2-0.5,4.1-1,6.4-1.7c-0.1-2.9-0.7-5-1.8-6.4c-1-1.4-3.2-2-6.4-2c-2.8,0-4.9,0.4-6.3,1.2c-1.4,0.8-2.6,2-3.6,3.5
				s-1.7,2.6-2.1,3.1c-0.4,0.5-1.3,0.7-2.7,0.7c-1.2,0-2.3-0.4-3.2-1.2c-0.9-0.8-1.4-1.8-1.4-3c0-1.9,0.7-3.8,2.1-5.6
				c1.4-1.8,3.5-3.3,6.4-4.5c2.9-1.2,6.5-1.8,10.9-1.8c4.8,0,8.6,0.6,11.4,1.7c2.8,1.1,4.7,3,5.9,5.4c1.1,2.5,1.7,5.8,1.7,9.8
				c0,2.6,0,4.8,0,6.6c0,1.8,0,3.8-0.1,6c0,2.1,0.3,4.2,1,6.5c0.7,2.2,1,3.7,1,4.3c0,1.1-0.5,2.2-1.6,3.1c-1.1,0.9-2.3,1.4-3.6,1.4
				c-1.1,0-2.2-0.5-3.3-1.6C602.6,80.6,601.4,79,600.2,77z M599.4,61.1c-1.6,0.6-4,1.2-7,1.9c-3.1,0.7-5.2,1.1-6.4,1.5
				c-1.2,0.3-2.3,0.9-3.4,1.8c-1.1,0.9-1.6,2.2-1.6,3.8c0,1.7,0.6,3.1,1.9,4.3c1.3,1.2,2.9,1.8,5,1.8c2.2,0,4.2-0.5,6-1.4
				c1.8-1,3.2-2.2,4.1-3.7c1-1.7,1.5-4.4,1.5-8.2V61.1z"/>
		</g>
	</g>
	<g>
		<g>
			<path class="st0" d="M192.1,61.6l2.2-2.2c1-1,1-2.7,0-3.8l-25.8-26.1c-10.7-10.8-23.5-14.7-29.3-8.9c-0.8,0.8-0.8,2.1,0,2.9
				l8.3,8.4l62.4,64.5l3.4,3.6c8.6,9.2,17.8-0.2,8.7-8.8l-29.8-28.7C191.9,62.3,191.9,61.9,192.1,61.6z"/>
			<path class="st0" d="M172,64c-0.2-0.2-0.6-0.2-0.9,0l-28.7,27.2c-9.1,8.7,0.1,18,8.8,8.8l27.3-28.8c0.2-0.2,0.2-0.6,0-0.9L172,64
				z"/>
			<path class="st0" d="M225.2,30.3c-0.4-0.8-1.5-0.9-2.1-0.3L210.7,42c-0.3,0.3-0.7,0.5-1.2,0.5c-0.4,0-0.7-0.1-1-0.4l-0.4-0.4
				c-0.3-0.3-0.4-0.6-0.4-1c0-0.4,0.2-0.9,0.5-1.2L219.8,26c0.5-0.5,0.4-1.3-0.1-1.8c0,0,0,0,0,0c-0.2-0.2-0.4-0.4-0.6-0.6
				c-0.5-0.5-1.3-0.5-1.8-0.1L203.7,35c-0.3,0.3-0.7,0.5-1.1,0.5c-0.4,0-0.7-0.1-1-0.4l-0.4-0.4c-0.3-0.3-0.4-0.6-0.4-1
				c0-0.4,0.2-0.9,0.5-1.2l11.8-12.3c0.7-0.7,0.4-1.9-0.5-2.2c-3.4-1.2-6.6,2-16.1,11.5c-3.7,3.7-5.5,8.4-4.6,12.7
				c0.2,1.1,0.6,2.1,1.1,3.2c0.2,0.3,0.1,0.7-0.1,0.9l0,0c-0.3,0.3-0.3,0.8,0,1.1l4.2,4.2c0.3,0.3,0.8,0.3,1.1,0l0.2-0.3
				c0.2-0.2,0.6-0.3,0.9-0.2c1.1,0.5,2.3,0.8,3.5,0.9c4.1,0.4,8.3-1.4,11.7-4.8C224.5,37.2,227.2,34,225.2,30.3z"/>
		</g>
	</g>
	<g>
		<path class="st0" d="M246.8,105.5l8,12.1v-12.2c0-0.8,0.2-1.4,0.5-1.8s0.8-0.6,1.4-0.6c0.6,0,1.1,0.2,1.4,0.6
			c0.3,0.4,0.5,1,0.5,1.8v16.1c0,1.8-0.7,2.7-2.2,2.7c-0.4,0-0.7-0.1-1-0.2c-0.3-0.1-0.6-0.3-0.8-0.5c-0.3-0.2-0.5-0.5-0.7-0.8
			c-0.2-0.3-0.4-0.6-0.7-1l-7.8-11.9v12c0,0.8-0.2,1.4-0.5,1.8c-0.4,0.4-0.8,0.6-1.4,0.6c-0.6,0-1.1-0.2-1.4-0.6
			c-0.4-0.4-0.5-1-0.5-1.8V106c0-0.7,0.1-1.2,0.2-1.6c0.2-0.4,0.5-0.8,0.9-1c0.4-0.3,0.9-0.4,1.3-0.4c0.4,0,0.7,0.1,1,0.2
			c0.3,0.1,0.5,0.3,0.7,0.5c0.2,0.2,0.4,0.5,0.6,0.8C246.4,104.8,246.6,105.1,246.8,105.5z"/>
		<path class="st0" d="M264.8,106.9c-0.5,0-1-0.2-1.4-0.5c-0.4-0.3-0.6-0.8-0.6-1.4c0-0.5,0.2-1,0.6-1.3c0.4-0.3,0.8-0.5,1.3-0.5
			c0.5,0,0.9,0.2,1.3,0.5c0.4,0.3,0.6,0.8,0.6,1.4c0,0.6-0.2,1-0.6,1.4C265.8,106.7,265.3,106.9,264.8,106.9z M266.7,110.8v11
			c0,0.8-0.2,1.3-0.5,1.7s-0.8,0.6-1.4,0.6s-1-0.2-1.4-0.6c-0.3-0.4-0.5-1-0.5-1.7v-10.9c0-0.8,0.2-1.3,0.5-1.7
			c0.3-0.4,0.8-0.6,1.4-0.6s1,0.2,1.4,0.6C266.5,109.6,266.7,110.2,266.7,110.8z"/>
		<path class="st0" d="M287.7,122v-0.5c-0.5,0.6-0.9,1.1-1.4,1.5c-0.5,0.4-1.1,0.7-1.6,0.9s-1.3,0.3-2,0.3c-0.9,0-1.7-0.2-2.5-0.6
			c-0.7-0.4-1.3-0.9-1.7-1.6c-0.5-0.8-0.7-2-0.7-3.5v-7.6c0-0.8,0.2-1.3,0.5-1.7c0.3-0.4,0.8-0.6,1.4-0.6c0.6,0,1,0.2,1.4,0.6
			c0.4,0.4,0.5,0.9,0.5,1.7v6.1c0,0.9,0.1,1.6,0.2,2.2c0.1,0.6,0.4,1.1,0.8,1.4c0.4,0.3,0.9,0.5,1.6,0.5c0.6,0,1.2-0.2,1.8-0.6
			s1-0.9,1.2-1.5c0.2-0.5,0.3-1.7,0.3-3.5v-4.6c0-0.8,0.2-1.3,0.5-1.7c0.4-0.4,0.8-0.6,1.4-0.6c0.6,0,1,0.2,1.4,0.6
			c0.3,0.4,0.5,0.9,0.5,1.7v11c0,0.7-0.2,1.3-0.5,1.6s-0.8,0.5-1.3,0.5s-1-0.2-1.3-0.6S287.7,122.7,287.7,122z"/>
		<path class="st0" d="M298.5,110.8v0.5c0.7-0.9,1.4-1.5,2.2-1.9s1.7-0.6,2.7-0.6c1,0,1.9,0.2,2.7,0.7s1.4,1.1,1.8,1.9
			c0.3,0.5,0.4,1,0.5,1.5c0.1,0.5,0.1,1.2,0.1,2.1v7.1c0,0.8-0.2,1.3-0.5,1.7c-0.3,0.4-0.8,0.6-1.4,0.6c-0.6,0-1-0.2-1.4-0.6
			c-0.4-0.4-0.5-1-0.5-1.7v-6.4c0-1.3-0.2-2.2-0.5-2.9c-0.3-0.7-1-1-2.1-1c-0.7,0-1.3,0.2-1.9,0.6c-0.6,0.4-1,1-1.2,1.7
			c-0.2,0.6-0.3,1.6-0.3,3.2v4.8c0,0.8-0.2,1.4-0.5,1.7s-0.8,0.6-1.4,0.6c-0.5,0-1-0.2-1.4-0.6c-0.4-0.4-0.5-1-0.5-1.7v-11
			c0-0.7,0.2-1.3,0.5-1.6s0.8-0.5,1.3-0.5c0.3,0,0.6,0.1,0.9,0.2c0.3,0.2,0.5,0.4,0.6,0.7S298.5,110.3,298.5,110.8z"/>
		<path class="st0" d="M322.9,110.8v0.5c0.7-0.9,1.4-1.5,2.2-1.9s1.7-0.6,2.7-0.6c1,0,1.9,0.2,2.7,0.7s1.4,1.1,1.8,1.9
			c0.3,0.5,0.4,1,0.5,1.5c0.1,0.5,0.1,1.2,0.1,2.1v7.1c0,0.8-0.2,1.3-0.5,1.7c-0.3,0.4-0.8,0.6-1.4,0.6c-0.6,0-1-0.2-1.4-0.6
			c-0.4-0.4-0.5-1-0.5-1.7v-6.4c0-1.3-0.2-2.2-0.5-2.9c-0.3-0.7-1-1-2.1-1c-0.7,0-1.3,0.2-1.9,0.6c-0.6,0.4-1,1-1.2,1.7
			c-0.2,0.6-0.3,1.6-0.3,3.2v4.8c0,0.8-0.2,1.4-0.5,1.7s-0.8,0.6-1.4,0.6c-0.5,0-1-0.2-1.4-0.6c-0.4-0.4-0.5-1-0.5-1.7v-11
			c0-0.7,0.2-1.3,0.5-1.6s0.8-0.5,1.3-0.5c0.3,0,0.6,0.1,0.9,0.2c0.3,0.2,0.5,0.4,0.6,0.7S322.9,110.3,322.9,110.8z"/>
		<path class="st0" d="M338.7,106.9c-0.5,0-1-0.2-1.4-0.5c-0.4-0.3-0.6-0.8-0.6-1.4c0-0.5,0.2-1,0.6-1.3c0.4-0.3,0.8-0.5,1.3-0.5
			c0.5,0,0.9,0.2,1.3,0.5c0.4,0.3,0.6,0.8,0.6,1.4c0,0.6-0.2,1-0.6,1.4C339.6,106.7,339.2,106.9,338.7,106.9z M340.6,110.8v11
			c0,0.8-0.2,1.3-0.5,1.7s-0.8,0.6-1.4,0.6s-1-0.2-1.4-0.6c-0.3-0.4-0.5-1-0.5-1.7v-10.9c0-0.8,0.2-1.3,0.5-1.7
			c0.3-0.4,0.8-0.6,1.4-0.6s1,0.2,1.4,0.6C340.4,109.6,340.6,110.2,340.6,110.8z"/>
		<path class="st0" d="M348,110.8v0.5c0.7-0.9,1.4-1.5,2.2-1.9s1.7-0.6,2.7-0.6c1,0,1.9,0.2,2.7,0.7s1.4,1.1,1.8,1.9
			c0.3,0.5,0.4,1,0.5,1.5c0.1,0.5,0.1,1.2,0.1,2.1v7.1c0,0.8-0.2,1.3-0.5,1.7c-0.3,0.4-0.8,0.6-1.4,0.6c-0.6,0-1-0.2-1.4-0.6
			c-0.4-0.4-0.5-1-0.5-1.7v-6.4c0-1.3-0.2-2.2-0.5-2.9c-0.3-0.7-1-1-2.1-1c-0.7,0-1.3,0.2-1.9,0.6c-0.6,0.4-1,1-1.2,1.7
			c-0.2,0.6-0.3,1.6-0.3,3.2v4.8c0,0.8-0.2,1.4-0.5,1.7s-0.8,0.6-1.4,0.6c-0.5,0-1-0.2-1.4-0.6c-0.4-0.4-0.5-1-0.5-1.7v-11
			c0-0.7,0.2-1.3,0.5-1.6s0.8-0.5,1.3-0.5c0.3,0,0.6,0.1,0.9,0.2c0.3,0.2,0.5,0.4,0.6,0.7S348,110.3,348,110.8z M348.2,105.5
			c-0.5,0-0.8,0.3-1,1c-0.2,0.5-0.4,0.8-0.8,0.8c-0.2,0-0.4-0.1-0.6-0.3s-0.2-0.5-0.2-0.8c0-0.5,0.1-0.9,0.3-1.3
			c0.2-0.4,0.5-0.8,0.9-1c0.4-0.3,0.8-0.4,1.2-0.4s0.8,0.1,1.2,0.2s0.8,0.3,1.4,0.6s1,0.5,1.2,0.5s0.5,0.1,0.7,0.1
			c0.3,0,0.5-0.1,0.6-0.2c0.2-0.1,0.3-0.4,0.4-0.7c0.1-0.5,0.4-0.8,0.8-0.8c0.2,0,0.4,0.1,0.6,0.3s0.2,0.5,0.2,0.8
			c0,0.5-0.2,1.1-0.6,1.8s-1,1-1.8,1c-0.3,0-0.6-0.1-1-0.2c-0.3-0.1-0.8-0.3-1.4-0.6c-0.6-0.3-1-0.4-1.3-0.6
			C348.8,105.6,348.5,105.5,348.2,105.5z"/>
		<path class="st0" d="M376,116.4c0,1.1-0.2,2.2-0.5,3.1c-0.4,1-0.9,1.8-1.5,2.5c-0.7,0.7-1.5,1.2-2.4,1.6c-0.9,0.4-2,0.6-3.1,0.6
			c-1.2,0-2.2-0.2-3.1-0.6c-0.9-0.4-1.7-0.9-2.4-1.6s-1.2-1.5-1.5-2.5c-0.3-0.9-0.5-2-0.5-3.1c0-1.2,0.2-2.2,0.5-3.2
			c0.4-1,0.9-1.8,1.5-2.5c0.7-0.7,1.5-1.2,2.4-1.6c0.9-0.4,2-0.6,3.1-0.6c1.2,0,2.2,0.2,3.1,0.6c0.9,0.4,1.7,0.9,2.4,1.6
			c0.7,0.7,1.2,1.5,1.5,2.5C375.9,114.2,376,115.3,376,116.4z M372.2,116.4c0-1.6-0.3-2.8-1-3.6c-0.7-0.9-1.6-1.3-2.8-1.3
			c-0.7,0-1.4,0.2-2,0.6c-0.6,0.4-1,1-1.3,1.7c-0.3,0.8-0.5,1.6-0.5,2.6c0,1,0.2,1.9,0.5,2.6c0.3,0.7,0.7,1.3,1.3,1.7
			c0.6,0.4,1.2,0.6,2,0.6c1.2,0,2.1-0.4,2.8-1.3C371.9,119.2,372.2,118,372.2,116.4z"/>
		<path class="st0" d="M398.9,116.7v5.1c0,0.8-0.2,1.4-0.5,1.8c-0.4,0.4-0.8,0.6-1.4,0.6c-0.6,0-1-0.2-1.4-0.6
			c-0.4-0.4-0.5-1-0.5-1.8v-6.1c0-1,0-1.7-0.1-2.2c-0.1-0.5-0.2-1-0.5-1.3c-0.3-0.3-0.7-0.5-1.4-0.5c-1.2,0-2.1,0.4-2.5,1.3
			s-0.6,2.1-0.6,3.7v5.2c0,0.8-0.2,1.4-0.5,1.8c-0.4,0.4-0.8,0.6-1.4,0.6c-0.6,0-1-0.2-1.4-0.6c-0.4-0.4-0.6-1-0.6-1.8v-10.9
			c0-0.7,0.2-1.3,0.5-1.6c0.3-0.4,0.8-0.6,1.3-0.6c0.5,0,1,0.2,1.3,0.5c0.3,0.3,0.5,0.8,0.5,1.4v0.4c0.7-0.8,1.4-1.4,2.1-1.7
			s1.6-0.6,2.5-0.6c1,0,1.8,0.2,2.5,0.6s1.3,1,1.7,1.7c0.6-0.8,1.3-1.4,2.1-1.7s1.5-0.6,2.4-0.6c1,0,1.9,0.2,2.7,0.6
			c0.8,0.4,1.3,1,1.7,1.8c0.3,0.7,0.5,1.8,0.5,3.3v7.4c0,0.8-0.2,1.4-0.5,1.8c-0.4,0.4-0.8,0.6-1.4,0.6c-0.6,0-1-0.2-1.4-0.6
			c-0.4-0.4-0.6-1-0.6-1.8v-6.4c0-0.8,0-1.5-0.1-2c-0.1-0.5-0.3-0.9-0.6-1.2c-0.3-0.3-0.8-0.5-1.4-0.5c-0.5,0-1,0.1-1.4,0.4
			s-0.8,0.7-1.1,1.2C399,113.9,398.9,115.1,398.9,116.7z"/>
		<path class="st0" d="M421.1,122c-0.9,0.7-1.8,1.3-2.7,1.6c-0.9,0.4-1.8,0.5-2.9,0.5c-1,0-1.8-0.2-2.6-0.6
			c-0.7-0.4-1.3-0.9-1.7-1.6s-0.6-1.4-0.6-2.2c0-1,0.3-1.9,1-2.7c0.7-0.7,1.6-1.2,2.7-1.5c0.2-0.1,0.8-0.2,1.8-0.4
			c1-0.2,1.8-0.4,2.5-0.5c0.7-0.2,1.4-0.4,2.2-0.6c0-1-0.2-1.7-0.6-2.2s-1.1-0.7-2.2-0.7c-1,0-1.7,0.1-2.2,0.4
			c-0.5,0.3-0.9,0.7-1.3,1.2c-0.3,0.5-0.6,0.9-0.7,1.1c-0.1,0.2-0.5,0.3-0.9,0.3c-0.4,0-0.8-0.1-1.1-0.4c-0.3-0.3-0.5-0.6-0.5-1.1
			c0-0.7,0.2-1.3,0.7-2s1.2-1.2,2.2-1.6s2.3-0.6,3.8-0.6c1.7,0,3,0.2,4,0.6c1,0.4,1.6,1,2,1.9c0.4,0.9,0.6,2,0.6,3.4
			c0,0.9,0,1.7,0,2.3s0,1.3,0,2.1c0,0.7,0.1,1.5,0.4,2.2s0.4,1.3,0.4,1.5c0,0.4-0.2,0.7-0.6,1.1c-0.4,0.3-0.8,0.5-1.2,0.5
			c-0.4,0-0.8-0.2-1.2-0.6C422,123.3,421.6,122.7,421.1,122z M420.9,116.5c-0.6,0.2-1.4,0.4-2.4,0.6c-1.1,0.2-1.8,0.4-2.2,0.5
			c-0.4,0.1-0.8,0.3-1.2,0.6c-0.4,0.3-0.6,0.7-0.6,1.3c0,0.6,0.2,1.1,0.7,1.5c0.4,0.4,1,0.6,1.7,0.6c0.8,0,1.4-0.2,2.1-0.5
			s1.1-0.8,1.4-1.3c0.3-0.6,0.5-1.5,0.5-2.8V116.5z M418.6,103.2h1.9c0.5,0,0.7,0.1,0.7,0.2c0,0.1-0.3,0.4-0.8,0.9s-1,1-1.6,1.5
			c-0.5,0.5-0.9,0.8-1.1,0.9c-0.5,0.3-1.1,0.4-1.7,0.4c-0.4,0-0.6-0.1-0.6-0.3c0-0.2,0.1-0.4,0.4-0.8l0.6-1.2
			c0.4-0.7,0.7-1.1,0.9-1.3C417.6,103.3,418,103.2,418.6,103.2z"/>
		<path class="st0" d="M440.8,119.2c0,1.1-0.3,2-0.8,2.7s-1.3,1.3-2.3,1.7c-1,0.4-2.2,0.6-3.7,0.6c-1.4,0-2.5-0.2-3.5-0.6
			c-1-0.4-1.7-0.9-2.2-1.6c-0.5-0.6-0.7-1.3-0.7-1.9c0-0.4,0.1-0.8,0.4-1.1s0.7-0.4,1.1-0.4c0.4,0,0.7,0.1,0.9,0.3
			c0.2,0.2,0.4,0.5,0.6,0.8c0.4,0.7,0.9,1.2,1.4,1.5c0.5,0.3,1.3,0.5,2.2,0.5c0.8,0,1.4-0.2,1.9-0.5s0.7-0.7,0.7-1.2
			c0-0.7-0.3-1.2-0.8-1.5c-0.5-0.3-1.3-0.6-2.5-0.9c-1.3-0.3-2.4-0.7-3.2-1c-0.8-0.4-1.5-0.8-2-1.4c-0.5-0.6-0.7-1.3-0.7-2.2
			c0-0.8,0.2-1.5,0.7-2.2s1.1-1.2,2-1.6c0.9-0.4,2-0.6,3.2-0.6c1,0,1.9,0.1,2.7,0.3c0.8,0.2,1.4,0.5,2,0.8c0.5,0.3,0.9,0.7,1.2,1.1
			s0.4,0.8,0.4,1.2c0,0.4-0.1,0.8-0.4,1.1s-0.7,0.4-1.2,0.4c-0.4,0-0.7-0.1-1-0.3c-0.3-0.2-0.6-0.6-0.9-1c-0.3-0.4-0.6-0.7-1-0.9
			s-0.9-0.3-1.6-0.3c-0.7,0-1.3,0.1-1.7,0.4c-0.5,0.3-0.7,0.7-0.7,1.1c0,0.4,0.2,0.7,0.5,1c0.3,0.3,0.8,0.5,1.4,0.6
			c0.6,0.2,1.3,0.4,2.3,0.6c1.2,0.3,2.1,0.6,2.9,1s1.3,0.9,1.7,1.4C440.6,117.9,440.8,118.5,440.8,119.2z"/>
		<path class="st0" d="M464.8,119.5c0,0.5-0.1,1-0.4,1.5c-0.3,0.5-0.7,1.1-1.3,1.5c-0.6,0.5-1.3,0.9-2.2,1.2c-0.9,0.3-1.9,0.4-3,0.4
			c-2.4,0-4.2-0.7-5.5-2.1s-2-3.2-2-5.5c0-1.6,0.3-2.9,0.9-4.1c0.6-1.2,1.5-2.1,2.6-2.8s2.5-1,4.1-1c1,0,1.9,0.1,2.7,0.4
			c0.8,0.3,1.5,0.7,2.1,1.1s1,0.9,1.3,1.5s0.5,1,0.5,1.4c0,0.5-0.2,0.8-0.5,1.2s-0.8,0.5-1.2,0.5c-0.3,0-0.6-0.1-0.8-0.2
			s-0.4-0.4-0.7-0.8c-0.5-0.7-1-1.2-1.5-1.6c-0.5-0.4-1.2-0.5-1.9-0.5c-1.1,0-2,0.4-2.7,1.3s-1,2.1-1,3.6c0,0.7,0.1,1.4,0.3,2
			c0.2,0.6,0.4,1.1,0.8,1.5c0.3,0.4,0.7,0.7,1.2,1s1,0.3,1.6,0.3c0.8,0,1.4-0.2,2-0.5c0.5-0.4,1-0.9,1.4-1.6c0.2-0.4,0.5-0.8,0.8-1
			c0.3-0.2,0.6-0.4,1-0.4c0.5,0,0.9,0.2,1.2,0.5C464.6,118.7,464.8,119.1,464.8,119.5z"/>
		<path class="st0" d="M482.4,116.4c0,1.1-0.2,2.2-0.5,3.1c-0.4,1-0.9,1.8-1.5,2.5c-0.7,0.7-1.5,1.2-2.4,1.6c-0.9,0.4-2,0.6-3.1,0.6
			c-1.2,0-2.2-0.2-3.1-0.6c-0.9-0.4-1.7-0.9-2.4-1.6s-1.2-1.5-1.5-2.5c-0.3-0.9-0.5-2-0.5-3.1c0-1.2,0.2-2.2,0.5-3.2
			c0.4-1,0.9-1.8,1.5-2.5c0.7-0.7,1.5-1.2,2.4-1.6c0.9-0.4,2-0.6,3.1-0.6c1.2,0,2.2,0.2,3.1,0.6c0.9,0.4,1.7,0.9,2.4,1.6
			c0.7,0.7,1.2,1.5,1.5,2.5C482.2,114.2,482.4,115.3,482.4,116.4z M478.6,116.4c0-1.6-0.3-2.8-1-3.6c-0.7-0.9-1.6-1.3-2.8-1.3
			c-0.7,0-1.4,0.2-2,0.6c-0.6,0.4-1,1-1.3,1.7c-0.3,0.8-0.5,1.6-0.5,2.6c0,1,0.2,1.9,0.5,2.6c0.3,0.7,0.7,1.3,1.3,1.7
			c0.6,0.4,1.2,0.6,2,0.6c1.2,0,2.1-0.4,2.8-1.3C478.2,119.2,478.6,118,478.6,116.4z"/>
		<path class="st0" d="M488.8,110.8v0.5c0.7-0.9,1.4-1.5,2.2-1.9s1.7-0.6,2.7-0.6c1,0,1.9,0.2,2.7,0.7s1.4,1.1,1.8,1.9
			c0.3,0.5,0.4,1,0.5,1.5c0.1,0.5,0.1,1.2,0.1,2.1v7.1c0,0.8-0.2,1.3-0.5,1.7c-0.3,0.4-0.8,0.6-1.4,0.6c-0.6,0-1-0.2-1.4-0.6
			c-0.4-0.4-0.5-1-0.5-1.7v-6.4c0-1.3-0.2-2.2-0.5-2.9c-0.3-0.7-1-1-2.1-1c-0.7,0-1.3,0.2-1.9,0.6c-0.6,0.4-1,1-1.2,1.7
			c-0.2,0.6-0.3,1.6-0.3,3.2v4.8c0,0.8-0.2,1.4-0.5,1.7s-0.8,0.6-1.4,0.6c-0.5,0-1-0.2-1.4-0.6c-0.4-0.4-0.5-1-0.5-1.7v-11
			c0-0.7,0.2-1.3,0.5-1.6s0.8-0.5,1.3-0.5c0.3,0,0.6,0.1,0.9,0.2c0.3,0.2,0.5,0.4,0.6,0.7S488.8,110.3,488.8,110.8z"/>
		<path class="st0" d="M513.5,105.3v5.7c0.5-0.6,1-1,1.4-1.3c0.5-0.3,1-0.6,1.5-0.7c0.6-0.2,1.2-0.2,1.8-0.2c1,0,1.8,0.2,2.6,0.6
			c0.7,0.4,1.3,1,1.8,1.8c0.3,0.5,0.5,1,0.5,1.5c0.1,0.6,0.1,1.2,0.1,1.9v7.3c0,0.8-0.2,1.3-0.5,1.7c-0.3,0.4-0.8,0.6-1.4,0.6
			c-1.3,0-1.9-0.8-1.9-2.3v-6.4c0-1.2-0.2-2.2-0.5-2.8c-0.4-0.7-1.1-1-2.1-1c-0.7,0-1.3,0.2-1.8,0.6c-0.5,0.4-1,0.9-1.2,1.6
			c-0.2,0.6-0.3,1.6-0.3,3v5c0,0.8-0.2,1.3-0.5,1.7s-0.8,0.6-1.4,0.6c-1.3,0-1.9-0.8-1.9-2.3v-16.5c0-0.8,0.2-1.4,0.5-1.7
			c0.3-0.4,0.8-0.6,1.4-0.6c0.6,0,1.1,0.2,1.4,0.6C513.4,104,513.5,104.6,513.5,105.3z"/>
		<path class="st0" d="M536.7,122c-0.9,0.7-1.8,1.3-2.7,1.6c-0.9,0.4-1.8,0.5-2.9,0.5c-1,0-1.8-0.2-2.6-0.6
			c-0.7-0.4-1.3-0.9-1.7-1.6s-0.6-1.4-0.6-2.2c0-1,0.3-1.9,1-2.7c0.7-0.7,1.6-1.2,2.7-1.5c0.2-0.1,0.8-0.2,1.8-0.4
			c1-0.2,1.8-0.4,2.5-0.5c0.7-0.2,1.4-0.4,2.2-0.6c0-1-0.2-1.7-0.6-2.2s-1.1-0.7-2.2-0.7c-1,0-1.7,0.1-2.2,0.4
			c-0.5,0.3-0.9,0.7-1.3,1.2c-0.3,0.5-0.6,0.9-0.7,1.1c-0.1,0.2-0.5,0.3-0.9,0.3c-0.4,0-0.8-0.1-1.1-0.4c-0.3-0.3-0.5-0.6-0.5-1.1
			c0-0.7,0.2-1.3,0.7-2s1.2-1.2,2.2-1.6s2.3-0.6,3.8-0.6c1.7,0,3,0.2,4,0.6c1,0.4,1.6,1,2,1.9c0.4,0.9,0.6,2,0.6,3.4
			c0,0.9,0,1.7,0,2.3s0,1.3,0,2.1c0,0.7,0.1,1.5,0.4,2.2s0.4,1.3,0.4,1.5c0,0.4-0.2,0.7-0.6,1.1c-0.4,0.3-0.8,0.5-1.2,0.5
			c-0.4,0-0.8-0.2-1.2-0.6C537.5,123.3,537.1,122.7,536.7,122z M536.5,116.5c-0.6,0.2-1.4,0.4-2.4,0.6c-1.1,0.2-1.8,0.4-2.2,0.5
			c-0.4,0.1-0.8,0.3-1.2,0.6c-0.4,0.3-0.6,0.7-0.6,1.3c0,0.6,0.2,1.1,0.7,1.5c0.4,0.4,1,0.6,1.7,0.6c0.8,0,1.4-0.2,2.1-0.5
			s1.1-0.8,1.4-1.3c0.3-0.6,0.5-1.5,0.5-2.8V116.5z"/>
		<path class="st0" d="M556.7,116.7v5.1c0,0.8-0.2,1.4-0.5,1.8c-0.4,0.4-0.8,0.6-1.4,0.6c-0.6,0-1-0.2-1.4-0.6
			c-0.4-0.4-0.5-1-0.5-1.8v-6.1c0-1,0-1.7-0.1-2.2c-0.1-0.5-0.2-1-0.5-1.3c-0.3-0.3-0.7-0.5-1.4-0.5c-1.2,0-2.1,0.4-2.5,1.3
			s-0.6,2.1-0.6,3.7v5.2c0,0.8-0.2,1.4-0.5,1.8c-0.4,0.4-0.8,0.6-1.4,0.6c-0.6,0-1-0.2-1.4-0.6c-0.4-0.4-0.6-1-0.6-1.8v-10.9
			c0-0.7,0.2-1.3,0.5-1.6c0.3-0.4,0.8-0.6,1.3-0.6c0.5,0,1,0.2,1.3,0.5c0.3,0.3,0.5,0.8,0.5,1.4v0.4c0.7-0.8,1.4-1.4,2.1-1.7
			s1.6-0.6,2.5-0.6c1,0,1.8,0.2,2.5,0.6s1.3,1,1.7,1.7c0.6-0.8,1.3-1.4,2.1-1.7s1.5-0.6,2.4-0.6c1,0,1.9,0.2,2.7,0.6
			c0.8,0.4,1.3,1,1.7,1.8c0.3,0.7,0.5,1.8,0.5,3.3v7.4c0,0.8-0.2,1.4-0.5,1.8c-0.4,0.4-0.8,0.6-1.4,0.6c-0.6,0-1-0.2-1.4-0.6
			c-0.4-0.4-0.6-1-0.6-1.8v-6.4c0-0.8,0-1.5-0.1-2c-0.1-0.5-0.3-0.9-0.6-1.2c-0.3-0.3-0.8-0.5-1.4-0.5c-0.5,0-1,0.1-1.4,0.4
			s-0.8,0.7-1.1,1.2C556.9,113.9,556.7,115.1,556.7,116.7z"/>
		<path class="st0" d="M572.9,105.2v5.8c0.7-0.7,1.4-1.3,2.2-1.7c0.7-0.4,1.7-0.6,2.8-0.6c1.3,0,2.4,0.3,3.3,0.9s1.7,1.5,2.2,2.6
			c0.5,1.1,0.8,2.5,0.8,4.1c0,1.2-0.1,2.2-0.4,3.2c-0.3,1-0.7,1.8-1.3,2.5c-0.6,0.7-1.2,1.3-2,1.6s-1.7,0.6-2.6,0.6
			c-0.6,0-1.1-0.1-1.7-0.2s-1-0.3-1.3-0.6c-0.4-0.2-0.7-0.5-0.9-0.7c-0.3-0.2-0.6-0.6-1-1.1v0.4c0,0.7-0.2,1.3-0.5,1.6
			c-0.3,0.4-0.8,0.6-1.3,0.6c-0.5,0-1-0.2-1.3-0.6c-0.3-0.4-0.5-0.9-0.5-1.6v-16.6c0-0.8,0.2-1.4,0.5-1.8s0.7-0.6,1.3-0.6
			c0.6,0,1,0.2,1.4,0.6S572.9,104.5,572.9,105.2z M573.1,116.5c0,1.5,0.3,2.7,1,3.5s1.6,1.2,2.7,1.2c1,0,1.8-0.4,2.5-1.3s1-2,1-3.6
			c0-1-0.1-1.9-0.4-2.6c-0.3-0.7-0.7-1.3-1.2-1.7c-0.5-0.4-1.1-0.6-1.9-0.6c-0.7,0-1.4,0.2-1.9,0.6c-0.6,0.4-1,1-1.3,1.7
			C573.2,114.6,573.1,115.5,573.1,116.5z"/>
		<path class="st0" d="M591,118.7v3.2c0,0.8-0.2,1.4-0.5,1.7c-0.4,0.4-0.8,0.6-1.4,0.6c-0.5,0-1-0.2-1.4-0.6c-0.4-0.4-0.5-1-0.5-1.7
			v-10.6c0-1.7,0.6-2.6,1.9-2.6c0.6,0,1.1,0.2,1.4,0.6s0.4,1,0.5,1.8c0.5-0.8,0.9-1.4,1.4-1.8s1.1-0.6,1.9-0.6s1.6,0.2,2.3,0.6
			s1.1,0.9,1.1,1.6c0,0.5-0.2,0.8-0.5,1.2c-0.3,0.3-0.7,0.5-1,0.5c-0.1,0-0.5-0.1-1-0.3c-0.5-0.2-1-0.3-1.4-0.3
			c-0.6,0-1,0.1-1.4,0.4c-0.4,0.3-0.6,0.7-0.8,1.3s-0.3,1.3-0.4,2.1C591.1,116.6,591,117.5,591,118.7z"/>
		<path class="st0" d="M609.7,117.4h-7.5c0,0.9,0.2,1.6,0.5,2.3c0.3,0.7,0.8,1.2,1.4,1.5s1.2,0.5,1.9,0.5c0.5,0,0.9-0.1,1.2-0.2
			c0.4-0.1,0.7-0.3,1.1-0.5c0.4-0.2,0.7-0.5,1-0.7s0.7-0.6,1.2-1.1c0.2-0.2,0.5-0.3,0.8-0.3c0.4,0,0.7,0.1,0.9,0.3s0.4,0.5,0.4,0.9
			c0,0.3-0.1,0.7-0.4,1.2c-0.3,0.5-0.7,0.9-1.2,1.3c-0.5,0.4-1.2,0.8-2.1,1.1c-0.8,0.3-1.8,0.4-2.8,0.4c-2.4,0-4.4-0.7-5.7-2.1
			c-1.4-1.4-2-3.3-2-5.7c0-1.1,0.2-2.2,0.5-3.1c0.3-1,0.8-1.8,1.5-2.5c0.6-0.7,1.4-1.2,2.4-1.6c0.9-0.4,2-0.6,3.1-0.6
			c1.5,0,2.8,0.3,3.8,0.9c1.1,0.6,1.9,1.4,2.4,2.4c0.5,1,0.8,2,0.8,3c0,1-0.3,1.6-0.8,1.9C611.5,117.2,610.7,117.4,609.7,117.4z
			 M602.2,115.2h6.9c-0.1-1.3-0.4-2.3-1.1-2.9c-0.6-0.6-1.4-1-2.4-1c-1,0-1.7,0.3-2.3,1S602.4,113.9,602.2,115.2z"/>
	</g>
</g>
</svg>
