<svg id="Cafecito" xmlns="http://www.w3.org/2000/svg" viewBox="0 0 1500 1500"><defs><style>.cls-1{fill:none;stroke:#fff;stroke-linecap:round;stroke-linejoin:round;stroke-width:22px;}</style></defs><title>13_Cafe</title><path class="cls-1" d="M1220.36,577.06C1221.8,715,1204.05,1139,942,1302"/><path class="cls-1" d="M231,1238S-31,1041,35,533H1220"/><path class="cls-1" d="M1198,1313H38s30,159,119,159h996s99-19,99-148"/><line class="cls-1" x1="1467" y1="639" x2="1225" y2="639"/><path class="cls-1" d="M1133.11,1091.7s186.18,20.11,252.89-43.7c22-21,88.66-53,79.76-363.55"/><path class="cls-1" d="M1219,750h139s85.78,255.25-173,231"/><path class="cls-1" d="M1071,788s-4,209-129,321"/><path class="cls-1" d="M458,79s-65,83,0,159,0,185,0,185"/><path class="cls-1" d="M622,23s-65,83,0,159,0,185,0,185"/><path class="cls-1" d="M785,89s-65,83,0,159,0,185,0,185"/><line class="cls-1" x1="1070.55" y1="749.95" x2="1070.55" y2="749.95"/></svg>