<svg id="svg" version="1.1" width="400" height="400" viewBox="0 0 400 400" xmlns="http://www.w3.org/2000/svg" xmlns:xlink="http://www.w3.org/1999/xlink" ><g id="svgg"><path id="path0" d="M235.600 3.190 C 235.600 3.415,234.790 3.600,233.800 3.600 C 232.810 3.600,232.000 3.780,232.000 4.000 C 232.000 4.220,231.809 4.400,231.576 4.400 C 231.343 4.400,231.288 4.175,231.453 3.900 C 231.646 3.579,231.504 3.602,231.056 3.966 C 230.673 4.277,229.603 4.562,228.679 4.598 C 227.756 4.634,226.730 4.780,226.400 4.921 C 226.070 5.062,224.810 5.228,223.600 5.289 C 221.709 5.384,221.383 5.519,221.280 6.244 C 221.172 6.999,220.929 7.078,218.974 6.991 C 217.773 6.937,216.691 7.052,216.571 7.247 C 216.451 7.441,215.395 7.600,214.225 7.600 C 212.861 7.600,211.926 7.807,211.620 8.176 C 211.357 8.493,210.899 8.659,210.602 8.545 C 210.305 8.432,209.688 8.539,209.231 8.783 C 208.678 9.079,208.400 9.090,208.400 8.814 C 208.400 8.154,207.523 8.333,206.625 9.176 C 206.096 9.674,205.124 9.988,203.921 10.050 C 202.889 10.103,202.135 10.294,202.245 10.474 C 202.429 10.771,200.366 10.970,198.100 10.875 C 197.605 10.855,197.200 11.009,197.200 11.219 C 197.200 11.428,196.828 11.600,196.374 11.600 C 195.919 11.600,195.199 11.786,194.774 12.014 C 194.240 12.300,194.000 12.300,194.000 12.014 C 194.000 11.786,193.719 11.600,193.376 11.600 C 193.007 11.600,192.869 11.788,193.038 12.062 C 193.227 12.367,193.146 12.414,192.801 12.201 C 192.480 12.002,192.098 12.124,191.810 12.519 C 191.526 12.907,190.644 13.196,189.571 13.254 C 188.597 13.306,187.685 13.518,187.544 13.726 C 187.404 13.933,186.459 14.087,185.444 14.066 C 184.430 14.046,183.600 14.203,183.600 14.415 C 183.600 14.627,183.276 14.800,182.880 14.800 C 182.484 14.800,181.918 15.025,181.621 15.300 C 181.190 15.700,181.139 15.700,181.365 15.300 C 181.708 14.692,181.400 14.665,180.374 15.214 C 179.840 15.500,179.600 15.500,179.600 15.214 C 179.600 14.986,179.262 14.800,178.849 14.800 C 178.014 14.800,177.059 15.726,177.470 16.137 C 177.615 16.282,176.893 16.400,175.867 16.400 C 174.753 16.400,174.000 16.581,174.000 16.849 C 174.000 17.176,173.856 17.179,173.470 16.858 C 173.146 16.590,172.797 16.562,172.570 16.789 C 172.367 16.992,171.362 17.221,170.339 17.298 C 169.315 17.375,168.218 17.653,167.902 17.916 C 167.585 18.178,167.223 18.290,167.097 18.164 C 166.972 18.038,166.493 18.136,166.034 18.382 C 165.480 18.678,165.200 18.689,165.200 18.414 C 165.200 17.694,163.669 17.966,163.093 18.788 C 162.755 19.272,162.011 19.608,161.171 19.659 C 160.417 19.704,159.575 19.912,159.300 20.120 C 158.965 20.373,158.800 20.333,158.800 20.000 C 158.800 19.615,158.656 19.622,158.165 20.029 C 157.810 20.324,156.795 20.513,155.865 20.459 C 154.841 20.399,153.584 20.664,152.600 21.149 C 151.720 21.582,150.940 21.771,150.867 21.568 C 150.630 20.914,148.852 21.177,148.107 21.977 C 147.626 22.493,146.756 22.786,145.514 22.850 C 144.485 22.904,143.735 23.094,143.845 23.274 C 144.023 23.561,141.453 23.806,140.100 23.630 C 139.825 23.594,139.600 23.753,139.600 23.982 C 139.600 24.212,139.409 24.400,139.176 24.400 C 138.943 24.400,138.888 24.175,139.053 23.900 C 139.248 23.575,139.110 23.598,138.660 23.963 C 138.247 24.299,137.197 24.498,136.059 24.458 C 134.520 24.404,133.999 24.567,133.357 25.306 C 132.699 26.062,132.200 26.209,130.483 26.153 C 129.340 26.115,128.505 26.246,128.626 26.442 C 128.819 26.754,126.318 27.014,124.900 26.830 C 124.625 26.794,124.400 26.953,124.400 27.182 C 124.400 27.412,124.209 27.600,123.976 27.600 C 123.743 27.600,123.659 27.428,123.790 27.217 C 123.920 27.006,123.557 27.077,122.983 27.375 C 122.373 27.691,121.312 27.832,120.425 27.713 C 119.189 27.547,118.797 27.669,118.304 28.373 C 117.818 29.066,117.261 29.248,115.473 29.294 C 114.249 29.326,113.337 29.498,113.447 29.676 C 113.658 30.017,112.670 30.129,110.500 30.010 C 109.785 29.971,109.200 30.132,109.200 30.369 C 109.200 30.606,109.009 30.800,108.776 30.800 C 108.543 30.800,108.467 30.616,108.606 30.390 C 108.745 30.165,108.216 30.342,107.430 30.783 C 106.643 31.225,106.000 31.409,106.000 31.193 C 106.000 30.751,104.669 30.685,103.277 31.058 C 102.713 31.209,102.436 31.518,102.565 31.853 C 102.749 32.333,99.902 32.721,98.270 32.437 C 98.089 32.406,98.055 32.565,98.194 32.790 C 98.355 33.051,97.640 33.200,96.224 33.200 C 95.001 33.200,93.911 33.202,93.803 33.205 C 93.695 33.208,92.975 33.565,92.203 33.998 C 91.431 34.432,90.800 34.609,90.800 34.393 C 90.800 34.177,90.395 34.002,89.900 34.005 C 88.373 34.015,87.200 34.467,87.200 35.047 C 87.200 35.392,86.759 35.600,86.024 35.600 C 85.377 35.600,84.736 35.780,84.600 36.000 C 84.464 36.220,83.823 36.400,83.176 36.400 C 82.529 36.400,82.000 36.580,82.000 36.800 C 82.000 37.020,81.533 37.200,80.963 37.200 C 80.262 37.200,79.857 37.459,79.716 38.000 C 79.570 38.558,79.170 38.800,78.396 38.800 C 77.746 38.800,77.184 39.066,77.039 39.442 C 76.894 39.819,76.540 39.986,76.176 39.846 C 75.836 39.716,75.660 39.774,75.785 39.976 C 75.910 40.178,75.604 40.401,75.106 40.471 C 74.608 40.542,74.200 40.793,74.200 41.029 C 74.200 41.578,72.985 42.800,72.439 42.800 C 72.209 42.800,71.741 43.340,71.400 44.000 C 71.059 44.660,70.604 45.200,70.390 45.200 C 70.175 45.200,70.000 45.639,70.000 46.176 C 70.000 46.713,69.792 47.281,69.538 47.438 C 69.252 47.615,69.185 47.548,69.362 47.262 C 69.795 46.561,69.371 46.710,68.749 47.477 C 68.376 47.937,68.360 48.057,68.700 47.853 C 68.975 47.688,69.200 47.743,69.200 47.976 C 69.200 48.209,69.037 48.400,68.837 48.400 C 68.638 48.400,68.569 48.760,68.684 49.200 C 68.830 49.756,68.696 50.000,68.247 50.000 C 67.442 50.000,67.392 63.145,68.195 63.454 C 68.442 63.548,68.608 64.153,68.563 64.798 C 68.518 65.442,68.747 66.190,69.070 66.458 C 69.394 66.727,70.009 67.634,70.437 68.473 C 70.866 69.313,71.382 70.000,71.585 70.000 C 71.788 70.000,71.885 70.356,71.802 70.792 C 71.713 71.252,71.848 71.545,72.125 71.492 C 72.386 71.441,72.557 71.619,72.505 71.886 C 72.452 72.153,72.632 72.287,72.905 72.185 C 73.177 72.083,73.711 72.547,74.092 73.218 C 74.473 73.889,74.608 74.328,74.392 74.195 C 74.176 74.062,74.000 74.058,74.000 74.186 C 74.000 74.315,74.454 74.593,75.010 74.804 C 75.565 75.015,76.382 75.801,76.824 76.551 C 77.266 77.301,77.977 78.005,78.404 78.117 C 78.831 78.229,79.551 78.949,80.004 79.717 C 80.457 80.485,81.177 81.205,81.604 81.317 C 82.031 81.429,82.751 82.149,83.204 82.917 C 83.657 83.685,84.377 84.405,84.804 84.517 C 85.231 84.629,85.937 85.323,86.373 86.060 C 86.809 86.797,87.673 87.622,88.293 87.894 C 88.926 88.171,89.619 88.916,89.875 89.594 C 90.171 90.378,90.609 90.800,91.126 90.800 C 91.633 90.800,92.190 91.317,92.661 92.224 C 93.067 93.008,93.490 93.607,93.600 93.557 C 94.016 93.366,95.600 94.449,95.600 94.925 C 95.600 95.470,96.667 96.486,97.968 97.183 C 98.426 97.428,98.800 97.838,98.800 98.095 C 98.800 98.657,102.470 102.221,102.911 102.087 C 103.082 102.035,103.343 102.309,103.490 102.696 C 103.899 103.774,107.866 107.600,108.574 107.600 C 108.918 107.600,109.200 107.791,109.200 108.024 C 109.200 108.257,108.975 108.324,108.700 108.173 C 108.425 108.022,108.650 108.336,109.200 108.870 C 109.750 109.404,110.515 109.961,110.900 110.108 C 111.285 110.255,111.600 110.602,111.600 110.879 C 111.600 111.517,114.786 114.456,115.200 114.200 C 115.371 114.095,115.485 114.322,115.455 114.704 C 115.425 115.087,115.625 115.355,115.900 115.300 C 116.175 115.245,116.400 115.451,116.400 115.757 C 116.400 116.356,117.484 116.977,118.300 116.846 C 118.575 116.801,118.800 116.966,118.800 117.211 C 118.800 117.456,119.072 117.929,119.404 118.261 C 119.736 118.593,119.888 119.058,119.742 119.294 C 119.596 119.530,119.661 119.610,119.887 119.470 C 120.409 119.147,122.233 120.714,122.098 121.369 C 122.042 121.641,122.492 122.119,123.098 122.431 C 124.433 123.120,125.200 123.811,125.200 124.325 C 125.200 124.536,125.695 125.032,126.300 125.427 C 127.711 126.350,128.182 126.835,128.510 127.700 C 128.656 128.085,129.006 128.406,129.287 128.413 C 130.040 128.431,132.085 130.339,131.817 130.773 C 131.690 130.977,131.757 131.250,131.966 131.379 C 132.174 131.508,132.458 131.429,132.597 131.205 C 132.849 130.797,134.800 132.795,134.800 133.461 C 134.800 133.903,137.510 136.400,137.990 136.400 C 138.189 136.400,138.481 136.608,138.638 136.862 C 138.832 137.175,138.743 137.215,138.362 136.985 C 137.884 136.697,137.882 136.748,138.345 137.319 C 138.645 137.689,139.050 137.893,139.245 137.772 C 139.440 137.651,139.600 137.756,139.600 138.005 C 139.600 138.662,140.641 139.600,141.371 139.600 C 141.717 139.600,142.000 139.791,142.000 140.024 C 142.000 140.257,141.775 140.312,141.500 140.147 C 141.156 139.940,141.170 140.056,141.545 140.519 C 141.845 140.889,142.250 141.093,142.445 140.972 C 142.640 140.851,142.800 141.033,142.800 141.376 C 142.800 141.719,143.081 142.000,143.424 142.000 C 143.767 142.000,143.933 142.184,143.794 142.410 C 143.655 142.635,143.689 142.794,143.870 142.763 C 144.715 142.616,145.200 142.852,145.200 143.410 C 145.200 143.745,145.632 144.184,146.161 144.385 C 146.689 144.586,147.617 145.400,148.223 146.194 C 148.828 146.988,149.557 147.549,149.842 147.439 C 150.167 147.315,150.277 147.456,150.137 147.820 C 149.997 148.184,150.163 148.400,150.581 148.400 C 151.001 148.400,151.141 148.585,150.959 148.900 C 150.801 149.175,150.814 149.271,150.988 149.114 C 151.490 148.661,152.886 149.598,152.645 150.226 C 152.525 150.540,152.644 150.748,152.914 150.695 C 153.181 150.643,153.355 150.825,153.300 151.100 C 153.245 151.375,153.335 151.562,153.500 151.515 C 154.058 151.358,155.600 152.588,155.607 153.196 C 155.611 153.528,156.376 154.160,157.307 154.600 C 158.238 155.040,159.000 155.615,159.000 155.877 C 159.000 156.447,160.594 158.000,161.179 158.000 C 161.914 158.000,163.136 159.303,162.922 159.859 C 162.798 160.183,162.987 160.400,163.395 160.400 C 164.282 160.400,166.471 161.961,166.200 162.400 C 166.000 162.724,168.017 164.400,168.609 164.400 C 168.765 164.400,169.592 165.120,170.446 166.000 C 171.300 166.880,172.269 167.600,172.600 167.600 C 172.930 167.600,173.200 167.780,173.200 168.000 C 173.200 168.220,173.560 168.400,174.000 168.400 C 174.440 168.400,174.800 168.659,174.800 168.976 C 174.800 169.293,175.008 169.681,175.262 169.838 C 175.573 170.030,175.617 169.940,175.397 169.562 C 175.218 169.253,175.517 169.405,176.061 169.900 C 176.606 170.395,177.434 170.800,177.902 170.800 C 178.370 170.800,178.864 170.980,179.000 171.200 C 179.136 171.420,179.613 171.600,180.061 171.600 C 180.550 171.600,180.962 171.934,181.093 172.436 C 181.263 173.085,181.542 173.228,182.341 173.075 C 183.002 172.949,183.564 173.115,183.914 173.539 C 184.214 173.903,184.345 173.975,184.206 173.700 C 184.067 173.425,184.143 173.200,184.376 173.200 C 184.609 173.200,184.800 173.380,184.800 173.600 C 184.800 173.820,185.711 174.000,186.824 174.000 C 187.937 174.000,188.758 174.144,188.650 174.320 C 188.541 174.496,190.244 174.664,192.434 174.694 C 194.819 174.727,196.323 174.599,196.184 174.374 C 195.956 174.006,197.284 173.835,199.154 173.991 C 199.679 174.035,200.229 173.876,200.377 173.637 C 200.525 173.398,201.265 173.149,202.023 173.083 C 203.064 172.992,203.371 172.796,203.282 172.281 C 203.204 171.829,203.432 171.600,203.959 171.600 C 204.396 171.600,204.864 171.420,205.000 171.200 C 205.136 170.980,205.597 170.800,206.024 170.800 C 206.451 170.800,206.800 170.620,206.800 170.400 C 206.800 170.180,207.076 170.000,207.413 170.000 C 207.749 170.000,208.142 169.685,208.285 169.300 C 208.638 168.348,210.021 167.166,210.462 167.438 C 210.659 167.560,210.770 167.421,210.710 167.130 C 210.649 166.838,210.838 166.649,211.130 166.710 C 211.421 166.770,211.555 166.651,211.428 166.446 C 211.171 166.029,213.570 163.389,214.200 163.396 C 214.420 163.398,214.657 162.806,214.727 162.080 C 214.821 161.097,215.112 160.661,215.868 160.374 C 216.547 160.116,216.803 159.786,216.645 159.374 C 216.491 158.973,216.571 158.858,216.873 159.045 C 217.176 159.233,217.253 159.115,217.095 158.704 C 216.963 158.360,217.098 157.746,217.394 157.340 C 217.774 156.821,217.811 156.454,217.518 156.101 C 217.223 155.746,217.245 155.600,217.594 155.600 C 217.872 155.600,217.983 155.333,217.850 154.985 C 217.715 154.635,217.869 154.272,218.207 154.142 C 218.533 154.017,218.800 153.437,218.800 152.853 C 218.800 152.208,219.130 151.587,219.641 151.267 C 220.245 150.890,220.428 150.459,220.291 149.739 C 220.171 149.112,220.305 148.658,220.649 148.526 C 220.952 148.409,221.200 147.934,221.200 147.469 C 221.200 145.480,222.184 142.407,222.790 142.503 C 223.190 142.567,223.417 142.255,223.449 141.600 C 223.562 139.321,223.608 139.158,224.062 139.438 C 224.354 139.619,224.415 139.548,224.227 139.244 C 224.064 138.981,224.217 138.329,224.566 137.796 C 224.914 137.264,225.200 136.415,225.200 135.910 C 225.200 135.405,225.560 134.768,226.000 134.493 C 226.505 134.178,226.800 133.560,226.800 132.820 C 226.800 132.175,226.997 131.525,227.238 131.376 C 227.480 131.227,227.598 130.570,227.502 129.916 C 227.391 129.157,227.522 128.651,227.864 128.520 C 228.159 128.407,228.400 127.837,228.400 127.253 C 228.400 126.607,228.730 125.986,229.244 125.665 C 229.901 125.255,230.036 124.880,229.854 123.969 C 229.680 123.100,229.771 122.800,230.210 122.800 C 230.641 122.800,230.800 122.323,230.800 121.024 C 230.800 120.047,230.980 119.136,231.200 119.000 C 231.420 118.864,231.600 118.424,231.600 118.023 C 231.600 117.622,231.953 117.201,232.386 117.088 C 232.904 116.952,233.157 116.562,233.129 115.941 C 233.045 114.068,233.188 113.546,233.700 113.853 C 234.040 114.057,234.024 113.937,233.651 113.477 C 233.349 113.105,233.259 112.799,233.451 112.797 C 233.882 112.793,234.800 110.877,234.800 109.982 C 234.800 109.620,235.160 108.998,235.600 108.600 C 236.040 108.202,236.400 107.375,236.400 106.762 C 236.400 106.149,236.580 105.536,236.800 105.400 C 237.020 105.264,237.200 104.523,237.200 103.753 C 237.200 102.983,237.363 102.454,237.563 102.577 C 237.762 102.700,237.835 102.455,237.724 102.031 C 237.593 101.529,237.887 100.945,238.573 100.349 C 239.150 99.847,239.542 99.225,239.443 98.968 C 239.344 98.710,239.519 98.007,239.832 97.404 C 240.144 96.802,240.400 95.710,240.400 94.978 C 240.400 94.246,240.580 93.536,240.800 93.400 C 241.020 93.264,241.200 92.868,241.200 92.520 C 241.200 92.173,241.515 91.658,241.900 91.376 C 242.285 91.095,242.626 90.355,242.657 89.732 C 242.744 88.020,242.771 87.935,243.165 88.178 C 243.366 88.302,243.479 88.088,243.418 87.702 C 243.271 86.776,244.376 84.002,245.281 83.025 C 245.677 82.598,246.000 81.754,246.000 81.148 C 246.000 80.543,246.197 79.925,246.438 79.777 C 246.678 79.628,246.792 79.073,246.691 78.543 C 246.585 77.985,246.732 77.454,247.042 77.280 C 247.337 77.116,247.627 76.535,247.689 75.990 C 247.750 75.446,248.127 74.756,248.527 74.458 C 248.927 74.161,249.175 73.711,249.079 73.458 C 248.984 73.206,249.085 72.550,249.304 72.000 C 249.524 71.450,249.773 70.466,249.858 69.812 C 249.943 69.159,250.280 68.475,250.606 68.293 C 250.933 68.110,251.200 67.555,251.200 67.060 C 251.200 66.565,251.420 65.940,251.689 65.671 C 251.958 65.402,252.215 64.530,252.259 63.733 C 252.304 62.936,252.489 62.175,252.671 62.042 C 252.852 61.909,253.061 61.350,253.135 60.800 C 253.209 60.250,253.460 59.620,253.693 59.400 C 253.983 59.127,254.028 59.159,253.835 59.500 C 253.680 59.775,253.743 60.000,253.976 60.000 C 254.209 60.000,254.401 59.685,254.402 59.300 C 254.404 58.915,254.674 58.084,255.002 57.454 C 255.331 56.824,255.600 55.789,255.600 55.154 C 255.600 54.519,255.784 54.000,256.008 54.000 C 256.232 54.000,256.334 53.550,256.234 53.000 C 256.107 52.297,256.283 51.877,256.826 51.586 C 257.253 51.357,257.600 50.752,257.600 50.235 C 257.600 49.720,257.870 49.074,258.200 48.800 C 258.530 48.526,258.800 47.820,258.800 47.231 C 258.800 46.642,258.996 45.964,259.235 45.725 C 259.542 45.418,259.544 45.213,259.243 45.027 C 258.731 44.710,259.435 43.285,260.500 42.482 C 261.227 41.934,261.507 40.163,260.797 40.602 C 260.564 40.746,260.591 40.419,260.861 39.825 C 261.118 39.261,261.501 38.800,261.711 38.800 C 261.921 38.800,261.999 38.440,261.884 38.000 C 261.745 37.466,261.872 37.200,262.266 37.200 C 262.634 37.200,262.830 36.860,262.784 36.300 C 262.644 34.570,262.806 34.092,263.600 33.884 C 264.178 33.733,264.400 33.338,264.400 32.461 C 264.400 31.793,264.580 31.136,264.800 31.000 C 265.020 30.864,265.200 30.123,265.200 29.353 C 265.200 28.583,265.335 28.036,265.500 28.137 C 265.665 28.239,265.847 27.680,265.905 26.895 C 265.970 26.013,266.313 25.256,266.805 24.912 C 268.115 23.994,267.998 15.313,266.658 14.055 C 266.053 13.487,265.777 12.854,265.884 12.285 C 266.068 11.316,264.607 9.425,263.976 9.815 C 263.769 9.943,263.600 9.756,263.600 9.400 C 263.600 9.020,263.806 8.853,264.100 8.995 C 264.375 9.128,264.205 8.943,263.721 8.584 C 262.098 7.377,261.346 6.605,261.069 5.858 C 260.911 5.435,260.552 5.210,260.230 5.333 C 259.920 5.452,259.559 5.270,259.428 4.929 C 259.280 4.543,258.891 4.388,258.394 4.517 C 257.915 4.643,257.459 4.477,257.249 4.101 C 257.052 3.750,256.629 3.580,256.283 3.713 C 255.943 3.843,255.571 3.703,255.455 3.400 C 255.190 2.708,235.600 2.501,235.600 3.190 M245.807 16.388 C 245.434 16.992,247.624 17.377,248.460 16.855 C 248.910 16.575,249.200 16.550,249.200 16.792 C 249.200 17.011,249.605 17.148,250.100 17.095 C 250.620 17.040,250.961 17.201,250.908 17.475 C 250.855 17.752,251.148 17.887,251.608 17.798 C 252.130 17.698,252.421 17.876,252.462 18.323 C 252.577 19.577,252.343 20.987,251.937 21.476 C 251.715 21.743,251.643 22.305,251.776 22.724 C 251.919 23.175,251.769 23.694,251.409 23.993 C 251.074 24.271,250.800 24.973,250.800 25.553 C 250.800 26.133,250.481 26.807,250.092 27.050 C 249.702 27.293,249.341 28.001,249.290 28.624 C 249.238 29.246,248.991 29.882,248.741 30.037 C 248.490 30.191,248.386 30.704,248.510 31.177 C 248.633 31.649,248.480 32.522,248.170 33.118 C 247.859 33.713,247.604 34.613,247.602 35.118 C 247.601 35.769,247.397 36.001,246.900 35.918 C 246.335 35.823,246.193 36.109,246.164 37.400 C 246.140 38.448,245.957 38.962,245.634 38.890 C 245.363 38.830,245.259 38.973,245.405 39.208 C 245.550 39.443,245.383 40.071,245.034 40.604 C 244.686 41.136,244.400 42.187,244.400 42.939 C 244.400 43.984,244.205 44.358,243.576 44.522 C 242.867 44.708,242.790 44.939,243.024 46.185 C 243.233 47.299,243.169 47.605,242.747 47.516 C 242.431 47.449,242.194 47.738,242.185 48.200 C 242.177 48.641,242.001 49.271,241.795 49.600 C 241.589 49.930,241.361 50.629,241.289 51.153 C 241.217 51.677,240.763 52.455,240.279 52.883 C 239.796 53.311,239.625 53.547,239.900 53.407 C 240.175 53.267,240.400 53.343,240.400 53.576 C 240.400 53.809,240.220 54.000,240.000 54.000 C 239.780 54.000,239.600 54.349,239.600 54.776 C 239.600 55.203,239.420 55.664,239.200 55.800 C 238.980 55.936,238.800 56.647,238.800 57.381 C 238.800 58.197,238.567 58.804,238.200 58.945 C 237.870 59.071,237.600 59.611,237.600 60.145 C 237.600 60.678,237.322 61.221,236.981 61.352 C 236.641 61.482,236.392 61.817,236.429 62.095 C 236.581 63.255,236.378 64.834,236.100 64.662 C 235.935 64.560,235.772 64.945,235.737 65.516 C 235.703 66.088,235.417 66.746,235.102 66.978 C 234.495 67.425,233.874 69.725,234.458 69.364 C 235.091 68.973,234.807 69.896,234.123 70.451 C 233.547 70.919,233.497 70.917,233.785 70.438 C 234.007 70.070,233.974 69.969,233.689 70.145 C 233.450 70.293,233.270 70.968,233.289 71.645 C 233.308 72.322,233.090 73.021,232.804 73.198 C 232.518 73.375,232.392 73.802,232.524 74.147 C 232.657 74.492,232.590 74.883,232.376 75.015 C 232.162 75.147,232.083 75.410,232.200 75.600 C 232.317 75.790,232.202 76.075,231.945 76.234 C 231.633 76.427,231.584 76.349,231.800 76.000 C 232.014 75.654,231.967 75.573,231.662 75.762 C 231.408 75.919,231.200 76.427,231.200 76.892 C 231.200 77.357,230.938 78.026,230.619 78.380 C 230.299 78.733,229.995 79.654,229.943 80.425 C 229.873 81.455,229.663 81.829,229.153 81.829 C 228.771 81.829,228.535 81.705,228.629 81.553 C 228.722 81.402,227.460 81.292,225.823 81.308 C 224.186 81.324,222.612 81.160,222.324 80.944 C 222.036 80.728,220.450 80.500,218.800 80.438 C 217.151 80.376,215.711 80.189,215.600 80.022 C 215.295 79.560,199.200 79.548,199.200 80.011 C 199.200 80.225,199.009 80.400,198.776 80.400 C 198.543 80.400,198.480 80.175,198.635 79.900 C 198.861 79.500,198.810 79.500,198.379 79.900 C 198.082 80.175,197.156 80.400,196.320 80.400 C 195.484 80.400,194.799 80.535,194.797 80.700 C 194.794 81.013,192.895 82.000,192.297 82.000 C 192.108 82.000,192.064 81.820,192.200 81.600 C 192.336 81.380,192.342 81.200,192.214 81.200 C 192.085 81.200,191.805 81.661,191.591 82.224 C 191.377 82.787,191.034 83.144,190.828 83.018 C 190.623 82.891,190.342 82.970,190.204 83.193 C 190.066 83.417,189.603 83.600,189.176 83.600 C 188.749 83.600,188.400 83.851,188.400 84.157 C 188.400 84.464,188.121 84.822,187.779 84.953 C 187.360 85.114,187.252 85.030,187.448 84.695 C 187.607 84.423,187.347 84.543,186.869 84.962 C 186.391 85.381,186.000 86.073,186.000 86.499 C 186.000 86.938,185.653 87.366,185.200 87.484 C 184.760 87.599,184.400 88.011,184.400 88.400 C 184.400 88.789,184.040 89.201,183.600 89.316 C 183.113 89.443,182.800 89.862,182.800 90.386 C 182.800 90.860,182.651 91.155,182.468 91.042 C 182.286 90.929,182.172 91.234,182.215 91.719 C 182.258 92.203,182.038 92.895,181.725 93.255 C 181.413 93.616,181.129 94.278,181.095 94.728 C 181.062 95.177,180.904 95.464,180.745 95.366 C 180.259 95.066,179.820 96.116,179.730 97.793 C 179.683 98.669,179.454 99.449,179.222 99.526 C 178.990 99.603,178.800 100.372,178.800 101.233 C 178.800 102.095,178.620 102.800,178.400 102.800 C 178.180 102.800,178.021 102.935,178.047 103.100 C 178.217 104.177,177.913 105.200,177.424 105.200 C 176.589 105.200,176.203 106.030,176.849 106.439 C 177.281 106.713,177.287 106.789,176.876 106.794 C 176.588 106.797,176.455 106.965,176.580 107.168 C 176.705 107.370,176.536 107.807,176.204 108.139 C 175.872 108.471,175.600 109.094,175.600 109.523 C 175.600 109.952,174.880 111.045,174.000 111.952 C 173.120 112.859,172.400 113.805,172.400 114.054 C 172.400 114.629,170.363 116.399,169.700 116.400 C 169.425 116.400,169.200 116.694,169.200 117.053 C 169.200 117.953,167.196 119.599,166.100 119.600 C 165.467 119.600,165.200 119.837,165.200 120.400 C 165.200 120.852,164.933 121.200,164.587 121.200 C 164.251 121.200,163.879 121.450,163.762 121.756 C 163.638 122.077,163.222 122.226,162.774 122.109 C 162.348 121.998,162.000 122.108,162.000 122.353 C 162.000 122.599,161.533 122.800,160.963 122.800 C 160.302 122.800,159.857 123.060,159.738 123.516 C 159.534 124.294,156.587 125.763,155.981 125.388 C 155.776 125.262,155.703 125.404,155.818 125.703 C 155.969 126.097,155.699 126.225,154.844 126.166 C 154.060 126.112,153.377 126.386,152.821 126.977 C 151.782 128.084,148.960 127.867,149.055 126.688 C 149.085 126.314,148.950 126.107,148.755 126.228 C 148.560 126.349,148.400 126.210,148.400 125.920 C 148.400 125.630,148.021 125.156,147.558 124.867 C 147.027 124.535,146.821 124.510,147.000 124.800 C 147.184 125.098,146.995 125.079,146.460 124.745 C 146.007 124.462,145.710 124.157,145.800 124.066 C 145.890 123.976,145.252 123.219,144.382 122.383 C 143.512 121.547,142.800 120.609,142.800 120.299 C 142.800 119.989,142.305 119.480,141.700 119.168 C 140.443 118.519,139.982 118.089,139.358 116.983 C 139.115 116.552,138.254 115.850,137.445 115.423 C 136.547 114.948,136.054 114.436,136.180 114.108 C 136.294 113.812,136.075 113.456,135.693 113.317 C 135.312 113.178,133.991 112.015,132.758 110.732 C 131.525 109.449,130.310 108.400,130.058 108.400 C 129.806 108.400,129.645 108.253,129.700 108.073 C 129.814 107.701,125.155 103.051,123.737 102.122 C 123.222 101.784,122.800 101.259,122.800 100.954 C 122.800 100.649,122.519 100.400,122.176 100.400 C 121.807 100.400,121.669 100.212,121.838 99.938 C 122.014 99.653,121.948 99.585,121.665 99.760 C 121.066 100.130,119.070 98.134,119.440 97.535 C 119.607 97.264,119.548 97.185,119.294 97.342 C 119.058 97.488,118.601 97.344,118.280 97.023 C 117.958 96.701,117.584 96.550,117.448 96.686 C 117.311 96.822,117.200 96.710,117.200 96.438 C 117.200 96.166,116.928 95.671,116.596 95.339 C 116.264 95.007,116.112 94.542,116.258 94.306 C 116.406 94.067,116.338 93.991,116.104 94.136 C 115.873 94.279,115.580 94.125,115.453 93.794 C 115.326 93.463,115.082 93.237,114.911 93.290 C 114.429 93.441,112.400 91.522,112.400 90.915 C 112.400 90.618,112.085 90.256,111.700 90.110 C 110.699 89.731,110.000 88.957,110.000 88.229 C 110.000 87.883,109.775 87.600,109.500 87.600 C 108.725 87.599,106.800 85.784,106.800 85.053 C 106.800 84.667,106.474 84.400,106.000 84.400 C 105.560 84.400,105.200 84.241,105.200 84.047 C 105.200 83.852,104.840 83.599,104.400 83.484 C 103.859 83.343,103.600 82.938,103.600 82.237 C 103.600 81.568,103.380 81.200,102.982 81.200 C 102.182 81.200,100.400 79.418,100.400 78.618 C 100.400 78.278,100.122 78.000,99.782 78.000 C 99.079 78.000,97.200 76.258,97.200 75.606 C 97.200 75.369,96.885 75.054,96.501 74.907 C 95.598 74.560,94.000 72.962,94.000 72.406 C 94.000 72.169,93.685 71.854,93.301 71.707 C 92.272 71.312,90.800 69.729,90.800 69.018 C 90.800 68.678,90.506 68.400,90.147 68.400 C 89.416 68.400,87.601 66.475,87.600 65.700 C 87.600 65.425,87.283 65.200,86.895 65.200 C 86.507 65.200,85.854 64.753,85.445 64.208 C 85.035 63.662,84.514 63.330,84.287 63.470 C 84.030 63.628,83.958 63.403,84.096 62.876 C 84.232 62.355,84.141 62.061,83.859 62.114 C 83.607 62.161,83.445 61.975,83.500 61.700 C 83.555 61.425,83.465 61.221,83.300 61.247 C 82.533 61.368,82.253 61.154,82.760 60.833 C 83.225 60.539,83.185 60.307,82.525 59.468 C 81.708 58.429,81.567 54.541,82.327 54.025 C 82.509 53.901,82.775 53.485,82.917 53.100 C 83.082 52.653,83.595 52.400,84.338 52.400 C 85.555 52.400,86.607 51.562,86.097 50.999 C 85.933 50.819,86.025 50.801,86.300 50.959 C 86.575 51.118,86.800 51.067,86.800 50.847 C 86.800 50.626,87.165 50.516,87.611 50.602 C 88.057 50.688,88.316 50.588,88.187 50.379 C 87.951 49.997,88.261 49.909,89.889 49.896 C 90.379 49.892,90.683 49.734,90.566 49.545 C 90.357 49.207,91.563 49.080,94.444 49.135 C 95.355 49.153,96.199 48.874,96.728 48.382 C 97.213 47.929,98.130 47.600,98.903 47.600 C 99.638 47.600,100.411 47.430,100.620 47.222 C 100.829 47.015,102.109 46.792,103.465 46.727 C 104.820 46.662,105.845 46.472,105.741 46.305 C 105.521 45.948,105.841 45.909,108.860 45.924 C 110.526 45.932,111.330 45.738,111.923 45.186 C 112.404 44.738,113.425 44.400,114.464 44.344 C 115.419 44.293,116.309 44.092,116.441 43.897 C 116.574 43.702,117.654 43.507,118.841 43.463 C 120.029 43.418,121.209 43.251,121.464 43.090 C 121.718 42.929,122.925 42.775,124.144 42.747 C 125.683 42.711,126.601 42.473,127.144 41.966 C 127.604 41.538,128.644 41.199,129.664 41.144 C 130.619 41.093,131.494 40.916,131.609 40.750 C 131.723 40.584,132.838 40.407,134.086 40.357 C 135.334 40.306,136.320 40.091,136.277 39.878 C 136.233 39.653,137.295 39.523,138.800 39.569 C 140.937 39.633,141.557 39.501,142.279 38.828 C 142.866 38.280,143.768 37.985,144.997 37.939 C 146.132 37.896,146.772 37.703,146.669 37.434 C 146.559 37.148,147.364 37.012,149.034 37.034 C 150.427 37.053,151.473 36.918,151.359 36.734 C 151.131 36.365,151.716 36.286,154.400 36.320 C 155.677 36.336,156.451 36.108,157.064 35.535 C 157.570 35.062,158.565 34.695,159.465 34.649 C 160.310 34.605,161.255 34.414,161.564 34.222 C 161.873 34.031,162.886 33.904,163.814 33.939 C 164.743 33.974,165.988 33.751,166.580 33.444 C 167.173 33.136,168.320 32.949,169.129 33.027 C 170.267 33.136,170.766 32.968,171.335 32.284 C 171.739 31.798,171.937 31.670,171.776 32.000 C 171.538 32.487,171.584 32.506,172.021 32.100 C 172.318 31.825,173.229 31.600,174.047 31.600 C 174.864 31.600,175.593 31.422,175.667 31.204 C 175.740 30.986,176.922 30.782,178.294 30.752 C 179.702 30.720,180.965 30.483,181.193 30.208 C 181.449 29.899,182.271 29.787,183.428 29.903 C 184.922 30.052,185.431 29.923,186.201 29.199 C 186.861 28.579,187.685 28.297,188.938 28.263 C 189.925 28.236,190.647 28.075,190.542 27.907 C 190.337 27.574,191.252 27.488,193.900 27.593 C 195.151 27.643,195.600 27.507,195.600 27.079 C 195.600 26.620,196.108 26.525,198.009 26.629 C 200.049 26.740,200.493 26.641,200.905 25.980 C 201.275 25.387,201.842 25.200,203.263 25.200 C 204.292 25.200,205.193 25.024,205.267 24.810 C 205.340 24.595,206.210 24.370,207.200 24.310 C 208.190 24.250,209.111 24.050,209.246 23.865 C 209.381 23.680,210.699 23.521,212.175 23.512 C 214.351 23.498,214.947 23.354,215.326 22.747 C 215.647 22.233,216.261 22.000,217.296 22.000 C 218.141 22.000,218.800 21.803,218.800 21.551 C 218.800 21.228,218.959 21.234,219.364 21.570 C 219.750 21.891,220.011 21.906,220.188 21.619 C 220.331 21.389,221.121 21.200,221.944 21.200 C 222.767 21.200,223.624 21.016,223.850 20.790 C 224.075 20.565,224.966 20.360,225.830 20.335 C 226.693 20.309,227.625 20.112,227.900 19.895 C 228.237 19.631,228.400 19.649,228.400 19.951 C 228.400 20.682,229.458 20.463,230.051 19.611 C 230.442 19.049,231.119 18.799,232.400 18.745 C 233.390 18.703,234.437 18.487,234.726 18.264 C 235.015 18.042,236.156 17.901,237.263 17.951 C 238.369 18.002,239.179 17.889,239.063 17.701 C 238.947 17.514,239.515 17.316,240.326 17.263 C 241.137 17.209,241.863 16.985,241.939 16.766 C 242.026 16.516,242.289 16.541,242.640 16.833 C 243.073 17.193,243.499 17.153,244.501 16.659 C 246.041 15.899,246.119 15.883,245.807 16.388 M211.602 94.402 C 211.768 94.671,212.708 94.830,213.844 94.781 C 217.601 94.621,218.789 94.762,218.566 95.344 C 218.352 95.902,220.166 96.386,222.500 96.396 C 223.105 96.398,223.613 96.535,223.630 96.700 C 223.646 96.865,223.735 97.405,223.827 97.900 C 223.940 98.507,223.800 98.800,223.397 98.800 C 223.063 98.800,222.800 99.159,222.800 99.616 C 222.800 100.065,222.416 100.952,221.946 101.587 C 221.476 102.223,221.195 103.010,221.321 103.338 C 221.447 103.666,221.298 104.030,220.990 104.148 C 220.622 104.290,220.470 104.855,220.544 105.802 C 220.607 106.593,220.482 107.349,220.267 107.482 C 220.031 107.628,220.006 107.501,220.202 107.162 C 220.392 106.834,220.378 106.737,220.169 106.928 C 219.814 107.253,219.779 107.397,219.661 109.053 C 219.626 109.538,219.254 109.997,218.800 110.116 C 218.230 110.265,218.000 110.662,218.000 111.496 C 218.000 112.140,217.873 112.793,217.718 112.948 C 217.563 113.103,217.372 113.718,217.294 114.315 C 217.215 114.912,216.982 115.460,216.775 115.533 C 216.569 115.607,216.400 116.366,216.400 117.221 C 216.400 118.394,216.262 118.722,215.836 118.559 C 215.488 118.425,215.162 118.691,214.983 119.253 C 214.798 119.836,214.868 120.223,215.176 120.325 C 215.498 120.433,215.376 120.787,214.811 121.388 C 214.345 121.884,213.993 122.450,214.029 122.645 C 214.232 123.741,213.955 124.820,213.538 124.562 C 213.240 124.377,213.186 124.453,213.385 124.776 C 213.566 125.069,213.336 125.761,212.829 126.447 C 212.353 127.090,212.089 127.821,212.243 128.070 C 212.427 128.368,212.343 128.412,211.999 128.199 C 211.610 127.959,211.531 128.092,211.693 128.712 C 211.824 129.215,211.696 129.631,211.371 129.756 C 211.028 129.887,210.871 130.472,210.941 131.357 C 211.005 132.175,210.875 132.719,210.625 132.675 C 210.391 132.634,210.145 133.257,210.078 134.059 C 209.991 135.107,209.737 135.575,209.178 135.722 C 208.633 135.864,208.400 136.272,208.400 137.083 C 208.400 137.719,208.175 138.482,207.900 138.779 C 207.500 139.210,207.500 139.261,207.900 139.035 C 208.175 138.880,208.400 138.943,208.400 139.176 C 208.400 139.409,208.220 139.600,208.000 139.600 C 207.780 139.600,207.600 139.949,207.600 140.376 C 207.600 140.803,207.411 141.269,207.181 141.412 C 206.950 141.554,206.791 141.970,206.827 142.335 C 206.969 143.782,206.766 144.316,206.000 144.516 C 205.430 144.665,205.200 145.062,205.200 145.896 C 205.200 146.540,205.065 147.202,204.900 147.368 C 204.735 147.534,204.578 148.059,204.551 148.535 C 204.453 150.245,204.395 150.444,204.056 150.235 C 203.867 150.118,203.760 150.455,203.818 150.983 C 203.877 151.520,203.676 152.039,203.362 152.159 C 203.053 152.278,202.800 152.741,202.800 153.187 C 202.800 153.634,202.536 154.000,202.214 154.000 C 201.656 154.000,200.665 155.348,200.596 156.200 C 200.578 156.420,200.302 156.540,199.982 156.467 C 199.662 156.393,199.533 156.467,199.697 156.630 C 200.169 157.102,199.188 158.000,198.200 158.000 C 197.353 158.000,195.897 159.160,196.651 159.234 C 198.165 159.384,194.367 159.810,192.000 159.756 C 187.055 159.645,187.154 159.663,187.282 158.900 C 187.376 158.345,187.126 158.208,186.081 158.238 C 185.107 158.266,184.818 158.130,184.976 157.717 C 185.094 157.410,185.027 157.259,184.828 157.383 C 184.628 157.506,184.181 157.324,183.835 156.978 C 183.489 156.632,183.024 156.461,182.802 156.599 C 182.580 156.736,182.223 156.387,182.009 155.824 C 181.750 155.143,181.315 154.798,180.710 154.794 C 179.563 154.786,179.180 154.513,178.053 152.900 C 177.554 152.185,176.877 151.600,176.549 151.600 C 176.200 151.600,176.071 151.408,176.238 151.138 C 176.421 150.842,176.347 150.785,176.031 150.981 C 175.739 151.161,175.219 150.942,174.754 150.443 C 174.322 149.979,173.796 149.600,173.584 149.600 C 173.373 149.600,173.200 149.409,173.200 149.176 C 173.200 148.943,173.408 148.881,173.662 149.038 C 173.941 149.211,174.015 149.148,173.849 148.879 C 173.698 148.635,173.310 148.536,172.987 148.660 C 172.621 148.801,172.400 148.644,172.400 148.243 C 172.400 147.889,172.175 147.598,171.900 147.596 C 171.625 147.594,170.770 146.876,170.000 146.000 C 169.230 145.124,168.375 144.406,168.100 144.404 C 167.825 144.402,167.600 144.232,167.600 144.027 C 167.600 143.822,167.240 143.540,166.800 143.400 C 166.360 143.260,166.000 142.968,166.000 142.749 C 166.000 142.531,166.208 142.481,166.462 142.638 C 166.759 142.822,166.815 142.747,166.617 142.427 C 166.396 142.069,166.188 142.052,165.875 142.365 C 165.375 142.865,164.779 142.942,164.843 142.500 C 164.970 141.621,164.215 140.513,163.176 140.054 C 162.529 139.767,162.000 139.357,162.000 139.143 C 162.000 138.928,162.180 138.864,162.400 139.000 C 162.620 139.136,162.800 139.046,162.800 138.800 C 162.800 138.554,162.965 138.455,163.166 138.579 C 163.367 138.703,163.592 138.625,163.666 138.406 C 163.740 138.186,164.319 137.964,164.954 137.912 C 165.589 137.859,166.307 137.498,166.550 137.108 C 166.793 136.719,167.290 136.400,167.653 136.400 C 168.017 136.400,168.422 136.119,168.554 135.775 C 168.686 135.431,168.985 135.267,169.218 135.411 C 169.452 135.556,169.969 135.297,170.368 134.837 C 171.158 133.926,171.831 133.694,171.347 134.500 C 171.143 134.840,171.263 134.824,171.723 134.451 C 172.456 133.857,172.651 133.398,172.000 133.800 C 171.780 133.936,171.600 133.857,171.600 133.624 C 171.600 133.391,171.960 133.200,172.400 133.200 C 172.840 133.200,173.200 133.020,173.200 132.800 C 173.200 132.580,173.560 132.400,174.000 132.400 C 174.440 132.400,174.800 132.220,174.800 132.000 C 174.800 131.780,175.076 131.600,175.413 131.600 C 175.749 131.600,176.142 131.285,176.285 130.900 C 176.546 130.195,178.342 128.444,178.900 128.350 C 179.065 128.323,179.380 128.278,179.600 128.250 C 179.820 128.222,179.955 128.084,179.900 127.942 C 179.747 127.547,181.261 126.000,181.800 126.000 C 182.062 126.000,182.619 125.609,183.038 125.131 C 183.457 124.653,183.592 124.384,183.337 124.532 C 183.027 124.713,182.945 124.531,183.090 123.978 C 183.217 123.493,183.528 123.240,183.848 123.363 C 184.146 123.478,184.371 123.443,184.348 123.286 C 184.225 122.463,184.465 122.000,185.013 122.000 C 185.349 122.000,185.741 121.685,185.883 121.300 C 186.025 120.915,186.245 120.510,186.371 120.400 C 186.497 120.290,186.780 119.904,187.000 119.541 C 187.220 119.179,187.840 118.291,188.379 117.569 C 188.917 116.847,189.123 116.400,188.837 116.577 C 188.551 116.754,188.649 116.392,189.056 115.771 C 189.462 115.151,189.741 114.329,189.676 113.945 C 189.609 113.547,189.997 112.958,190.579 112.577 C 191.628 111.889,191.966 110.800,191.130 110.800 C 190.872 110.800,191.029 110.395,191.480 109.900 C 191.960 109.374,192.311 108.422,192.326 107.608 C 192.340 106.842,192.543 106.152,192.776 106.075 C 193.009 105.997,193.200 105.128,193.200 104.143 C 193.200 103.158,193.360 102.451,193.555 102.572 C 194.117 102.919,194.915 101.684,194.689 100.817 C 194.575 100.384,194.742 99.814,195.059 99.551 C 195.377 99.287,195.546 98.836,195.435 98.547 C 195.325 98.259,195.496 97.761,195.817 97.440 C 196.138 97.119,196.400 96.652,196.400 96.402 C 196.400 96.132,196.718 96.047,197.178 96.193 C 197.728 96.368,198.141 96.157,198.589 95.474 C 199.077 94.729,199.501 94.540,200.443 94.650 C 201.115 94.728,201.888 94.569,202.161 94.296 C 202.817 93.639,211.188 93.733,211.602 94.402 M34.145 191.000 C 33.993 191.395,33.368 191.600,32.314 191.600 C 31.033 191.600,30.762 191.724,30.953 192.221 C 31.096 192.594,31.025 192.739,30.774 192.584 C 30.544 192.442,29.910 192.838,29.364 193.463 L 28.372 194.600 28.437 207.000 C 28.474 213.820,28.667 219.607,28.868 219.861 C 29.069 220.114,29.271 221.419,29.317 222.761 C 29.362 224.102,29.535 225.200,29.700 225.200 C 29.865 225.200,30.000 225.391,30.000 225.624 C 30.000 225.857,29.775 225.912,29.500 225.747 C 29.161 225.543,29.177 225.664,29.549 226.124 C 29.912 226.570,30.101 227.890,30.104 229.997 C 30.108 232.073,30.286 233.340,30.614 233.611 C 30.891 233.841,31.030 234.364,30.923 234.774 C 30.816 235.183,30.931 235.897,31.178 236.359 C 31.476 236.916,31.488 237.200,31.214 237.200 C 30.601 237.200,30.712 238.138,31.430 239.024 C 31.776 239.451,31.928 239.547,31.768 239.238 C 31.600 238.914,31.640 238.777,31.862 238.915 C 32.074 239.046,32.293 240.013,32.347 241.063 C 32.401 242.114,32.661 243.239,32.923 243.563 C 33.312 244.045,33.290 244.089,32.800 243.800 C 32.272 243.489,32.270 243.532,32.782 244.163 C 33.114 244.572,33.319 245.510,33.258 246.348 C 33.200 247.156,33.422 248.337,33.753 248.974 C 34.087 249.619,34.258 250.612,34.137 251.215 C 33.977 252.016,34.135 252.449,34.743 252.875 C 35.270 253.244,35.600 253.970,35.662 254.900 C 35.716 255.696,35.904 256.259,36.080 256.151 C 36.400 255.953,36.478 256.400,36.496 258.533 C 36.502 259.156,36.751 259.760,37.051 259.875 C 37.350 259.990,37.496 260.245,37.374 260.442 C 37.252 260.639,37.345 260.800,37.580 260.800 C 37.864 260.800,37.847 261.056,37.527 261.568 C 37.009 262.398,37.729 263.815,38.445 263.372 C 38.640 263.251,38.800 263.778,38.800 264.543 C 38.800 265.308,39.017 266.006,39.281 266.094 C 39.549 266.183,39.745 266.895,39.722 267.700 C 39.698 268.536,39.896 269.228,40.191 269.341 C 40.487 269.455,40.624 269.939,40.518 270.493 C 40.403 271.097,40.596 271.660,41.045 272.024 C 41.633 272.502,41.696 272.504,41.415 272.038 C 41.185 271.657,41.225 271.568,41.538 271.762 C 41.792 271.919,42.000 272.520,42.000 273.098 C 42.000 273.676,42.400 274.575,42.890 275.095 C 43.598 275.849,43.669 276.110,43.238 276.376 C 42.600 276.771,42.997 277.600,43.824 277.600 C 44.141 277.600,44.400 277.791,44.400 278.024 C 44.400 278.257,44.197 278.322,43.948 278.168 C 43.671 277.997,43.574 278.104,43.698 278.444 C 43.809 278.750,44.106 278.954,44.359 278.897 C 44.917 278.772,45.716 280.722,45.421 281.490 C 45.304 281.793,45.387 281.932,45.605 281.797 C 45.822 281.663,46.000 281.923,46.000 282.376 C 46.000 282.829,46.180 283.200,46.400 283.200 C 46.620 283.200,46.800 283.391,46.800 283.624 C 46.800 283.857,46.645 283.952,46.456 283.835 C 46.267 283.718,46.402 284.242,46.756 285.000 C 47.113 285.764,47.623 286.299,47.900 286.202 C 48.339 286.047,48.623 287.063,48.437 288.130 C 48.406 288.311,48.565 288.345,48.790 288.206 C 49.201 287.952,49.367 288.495,49.212 289.579 C 49.166 289.898,49.381 290.348,49.689 290.579 C 49.997 290.811,50.368 291.315,50.512 291.700 C 50.657 292.085,51.045 292.400,51.375 292.400 C 51.752 292.400,51.887 292.630,51.737 293.019 C 51.602 293.373,51.805 293.862,52.211 294.159 C 52.656 294.484,52.801 294.874,52.599 295.201 C 52.386 295.546,52.433 295.627,52.738 295.438 C 53.469 294.987,54.120 295.573,53.594 296.208 C 53.252 296.619,53.341 296.847,53.974 297.186 C 54.428 297.429,54.800 297.815,54.800 298.043 C 54.800 298.271,55.080 298.737,55.423 299.080 C 55.766 299.423,55.952 299.947,55.838 300.245 C 55.723 300.544,55.983 300.977,56.415 301.208 C 56.847 301.439,57.197 301.847,57.194 302.114 C 57.190 302.419,57.044 302.377,56.800 302.000 C 56.548 301.610,56.410 313.451,56.406 335.824 C 56.401 366.553,56.468 370.330,57.030 371.024 C 57.376 371.451,57.545 371.575,57.406 371.300 C 57.267 371.025,57.343 370.800,57.576 370.800 C 57.809 370.800,58.000 371.256,58.000 371.813 C 58.000 372.369,58.269 372.928,58.598 373.054 C 58.926 373.181,59.078 373.490,58.934 373.742 C 58.790 373.994,58.816 374.070,58.992 373.911 C 59.348 373.589,61.352 374.618,62.474 375.700 C 63.675 376.858,93.295 376.765,94.293 375.600 C 94.670 375.160,95.186 374.800,95.440 374.800 C 95.694 374.800,96.133 374.522,96.415 374.182 C 96.697 373.842,97.179 373.660,97.485 373.777 C 97.791 373.895,97.932 373.813,97.797 373.595 C 97.663 373.378,97.749 373.200,97.989 373.200 C 98.229 373.200,98.543 372.894,98.686 372.519 C 98.830 372.145,99.461 371.301,100.088 370.645 C 100.715 369.988,101.138 369.215,101.027 368.926 C 100.916 368.637,100.954 368.400,101.113 368.400 C 101.676 368.399,103.600 366.497,103.600 365.942 C 103.600 365.631,103.960 365.117,104.400 364.800 C 104.840 364.483,105.200 363.963,105.200 363.645 C 105.200 363.327,105.318 363.185,105.463 363.330 C 105.862 363.729,106.800 362.796,106.800 362.000 C 106.800 361.614,107.089 361.058,107.442 360.765 C 107.795 360.473,108.244 359.810,108.441 359.292 C 108.638 358.775,108.959 358.451,109.155 358.572 C 109.579 358.834,110.921 356.920,110.637 356.460 C 110.420 356.109,111.488 355.082,112.455 354.711 C 112.795 354.580,113.381 353.827,113.756 353.037 C 114.131 352.247,114.620 351.600,114.842 351.600 C 115.065 351.600,115.118 351.375,114.959 351.100 C 114.801 350.825,114.819 350.733,114.999 350.897 C 115.179 351.060,115.568 350.993,115.863 350.748 C 116.277 350.404,116.400 350.461,116.400 350.998 C 116.400 351.498,116.626 351.634,117.207 351.482 C 117.651 351.366,118.268 351.525,118.578 351.836 C 118.889 352.146,119.780 352.400,120.559 352.400 C 121.597 352.400,121.918 352.547,121.764 352.951 C 121.544 353.522,123.325 354.217,123.976 353.815 C 124.163 353.699,124.415 353.862,124.536 354.176 C 124.663 354.509,125.259 354.733,125.964 354.713 C 126.628 354.695,127.404 354.857,127.686 355.075 C 127.969 355.293,128.894 355.483,129.742 355.497 C 130.589 355.512,131.489 355.747,131.742 356.020 C 132.099 356.408,132.023 356.460,131.400 356.258 C 130.612 356.002,130.612 356.007,131.376 356.599 C 131.804 356.930,132.738 357.200,133.453 357.200 C 134.168 357.200,134.862 357.376,134.995 357.591 C 135.128 357.807,136.038 357.936,137.018 357.879 C 138.255 357.806,138.800 357.931,138.800 358.287 C 138.800 358.628,139.403 358.800,140.600 358.800 C 141.867 358.800,142.637 359.037,143.200 359.600 C 144.065 360.465,146.800 360.731,146.800 359.951 C 146.800 359.641,146.985 359.656,147.400 360.000 C 147.730 360.274,148.005 360.341,148.012 360.149 C 148.019 359.957,148.206 360.112,148.429 360.494 C 148.745 361.037,149.193 361.143,150.485 360.981 C 152.176 360.768,152.811 361.163,152.766 362.400 C 152.751 362.796,152.627 362.727,152.400 362.200 C 152.135 361.583,152.050 361.794,152.028 363.124 C 152.008 364.330,152.139 364.762,152.462 364.562 C 152.754 364.381,152.815 364.452,152.627 364.756 C 152.464 365.019,152.521 365.463,152.752 365.742 C 152.984 366.022,153.199 368.085,153.231 370.328 C 153.262 372.572,153.448 374.506,153.644 374.627 C 153.840 374.748,154.000 375.557,154.000 376.424 C 154.000 377.291,154.180 378.000,154.400 378.000 C 154.620 378.000,154.800 378.191,154.800 378.424 C 154.800 378.657,154.637 378.746,154.437 378.623 C 154.238 378.500,154.283 378.848,154.537 379.396 C 154.792 379.945,155.146 380.395,155.324 380.397 C 155.502 380.399,155.546 380.564,155.422 380.764 C 155.066 381.340,155.635 382.423,156.142 382.134 C 156.394 381.990,156.477 382.008,156.327 382.175 C 156.177 382.343,156.417 383.175,156.860 384.025 C 157.303 384.875,157.543 385.769,157.392 386.012 C 157.236 386.265,157.478 386.548,157.960 386.674 C 158.422 386.794,158.800 387.145,158.800 387.452 C 158.800 388.804,160.610 390.915,161.500 390.601 C 161.788 390.500,162.000 390.752,162.000 391.194 C 162.000 391.691,162.529 392.209,163.500 392.660 C 164.325 393.044,165.108 393.515,165.240 393.706 C 165.372 393.897,165.732 394.097,166.040 394.151 C 167.336 394.378,168.400 394.882,168.400 395.270 C 168.400 395.498,168.690 395.574,169.045 395.438 C 169.504 395.262,169.623 395.363,169.459 395.791 C 169.332 396.121,169.357 396.371,169.514 396.348 C 170.568 396.191,172.812 396.457,172.649 396.720 C 172.541 396.896,173.106 397.084,173.907 397.138 C 174.707 397.192,175.558 397.399,175.798 397.598 C 176.398 398.096,219.191 398.105,219.791 397.607 C 220.045 397.397,220.814 397.181,221.499 397.129 C 222.184 397.077,222.656 396.891,222.549 396.717 C 222.441 396.543,223.154 396.400,224.134 396.400 C 225.304 396.400,225.989 396.205,226.133 395.831 C 226.256 395.509,226.673 395.346,227.091 395.456 C 227.524 395.569,228.141 395.307,228.578 394.825 C 228.988 394.371,229.538 394.000,229.800 394.000 C 230.062 394.000,230.602 393.640,231.000 393.200 C 231.398 392.760,232.056 392.400,232.462 392.400 C 232.868 392.400,233.200 392.122,233.200 391.782 C 233.200 391.099,234.935 389.200,235.558 389.200 C 235.775 389.200,236.081 388.992,236.238 388.738 C 236.426 388.434,236.331 388.376,235.962 388.569 C 235.653 388.729,235.805 388.503,236.300 388.066 C 236.795 387.629,237.200 387.013,237.200 386.697 C 237.200 385.686,238.438 383.600,239.039 383.600 C 239.462 383.600,239.578 383.230,239.468 382.235 C 239.356 381.212,239.453 380.922,239.859 381.078 C 240.259 381.231,240.400 380.863,240.400 379.666 C 240.400 378.776,240.589 377.931,240.819 377.788 C 241.110 377.609,241.104 377.366,240.800 377.000 C 240.496 376.634,240.490 376.391,240.781 376.212 C 241.011 376.069,241.200 375.459,241.200 374.856 C 241.200 374.253,241.425 373.518,241.700 373.221 C 242.100 372.790,242.100 372.739,241.700 372.965 C 240.967 373.379,241.090 372.884,241.950 371.961 C 242.607 371.256,242.698 370.506,242.678 365.925 C 242.659 361.216,242.733 360.638,243.424 360.133 C 243.901 359.784,244.243 359.728,244.329 359.986 C 244.588 360.764,247.509 360.465,248.116 359.599 C 248.528 359.010,249.221 358.765,250.729 358.675 C 251.857 358.608,252.905 358.428,253.057 358.276 C 253.209 358.124,254.126 358.000,255.095 358.000 C 256.133 358.000,257.105 357.752,257.461 357.396 C 257.793 357.064,258.242 356.902,258.458 357.036 C 259.152 357.465,261.600 356.799,261.600 356.182 C 261.600 355.775,262.057 355.600,263.120 355.600 C 263.956 355.600,264.848 355.392,265.101 355.139 C 265.355 354.885,266.108 354.693,266.774 354.712 C 267.441 354.731,268.090 354.578,268.217 354.373 C 268.343 354.168,268.887 354.000,269.424 354.000 C 269.961 354.000,270.760 353.640,271.200 353.200 C 271.640 352.760,272.259 352.400,272.576 352.400 C 272.893 352.400,273.264 352.220,273.400 352.000 C 273.536 351.780,274.362 351.600,275.236 351.600 C 276.223 351.600,276.906 351.390,277.038 351.044 C 277.164 350.716,277.578 350.574,278.049 350.697 C 278.626 350.848,278.909 350.669,279.070 350.053 C 279.241 349.400,279.602 349.200,280.613 349.200 C 281.339 349.200,281.993 349.022,282.067 348.803 C 282.140 348.585,282.682 348.367,283.271 348.319 C 283.860 348.270,284.279 348.128,284.202 348.003 C 284.125 347.879,284.678 347.584,285.431 347.348 C 286.536 347.002,286.800 347.026,286.800 347.472 C 286.800 347.776,287.070 348.129,287.400 348.255 C 287.730 348.382,288.000 348.708,288.000 348.981 C 288.000 349.253,288.356 349.798,288.791 350.191 C 289.225 350.585,289.486 351.061,289.370 351.249 C 289.254 351.437,289.425 351.489,289.750 351.364 C 290.189 351.195,290.286 351.350,290.125 351.964 C 289.985 352.500,290.135 352.877,290.552 353.037 C 290.906 353.173,291.101 353.436,290.986 353.622 C 290.872 353.808,291.136 354.152,291.575 354.386 C 292.013 354.621,292.587 355.530,292.849 356.407 C 293.112 357.283,293.478 358.000,293.663 358.000 C 293.848 358.000,294.000 358.257,294.000 358.571 C 294.000 358.885,294.421 359.473,294.936 359.879 C 295.927 360.658,296.875 362.154,296.715 362.684 C 296.663 362.858,297.110 363.521,297.710 364.158 C 298.309 364.796,298.800 365.580,298.800 365.901 C 298.800 366.222,299.251 367.021,299.803 367.676 C 300.354 368.332,300.703 369.034,300.577 369.237 C 300.452 369.440,300.636 369.716,300.986 369.850 C 301.336 369.984,301.965 370.838,302.384 371.747 C 303.358 373.865,304.487 374.800,306.071 374.800 C 306.765 374.800,307.215 374.918,307.070 375.063 C 305.920 376.213,307.873 376.400,321.049 376.400 C 333.867 376.400,334.432 376.368,335.200 375.600 C 335.640 375.160,336.144 374.800,336.320 374.800 C 337.182 374.800,338.826 373.691,339.285 372.800 C 339.568 372.250,340.117 371.449,340.504 371.020 C 341.165 370.288,341.208 368.110,341.196 335.423 C 341.187 312.063,341.317 300.561,341.591 300.470 C 341.816 300.395,342.000 300.061,342.000 299.727 C 342.000 299.394,342.540 298.617,343.200 298.000 C 343.860 297.383,344.400 296.559,344.400 296.169 C 344.400 295.778,344.985 294.955,345.700 294.341 C 346.735 293.451,346.886 293.148,346.441 292.852 C 345.987 292.550,346.043 292.380,346.741 291.944 C 347.214 291.649,347.600 291.170,347.600 290.880 C 347.600 290.583,347.802 290.478,348.062 290.638 C 348.324 290.800,348.416 290.749,348.274 290.520 C 348.137 290.299,348.649 289.416,349.412 288.559 C 350.175 287.701,350.800 286.595,350.800 286.100 C 350.800 285.605,350.995 285.200,351.233 285.200 C 351.472 285.200,351.593 284.979,351.503 284.708 C 351.412 284.437,351.712 283.901,352.169 283.516 C 352.885 282.913,352.917 282.761,352.400 282.414 C 351.955 282.116,351.937 282.011,352.329 282.006 C 353.161 281.996,354.000 280.946,354.000 279.913 C 354.000 279.394,354.533 278.347,355.184 277.585 C 355.835 276.823,356.375 275.896,356.384 275.524 C 356.393 275.152,356.572 274.741,356.783 274.611 C 356.993 274.481,357.073 274.133,356.960 273.839 C 356.846 273.544,357.034 273.023,357.377 272.680 C 357.720 272.337,358.000 271.615,358.000 271.075 C 358.000 270.430,358.274 270.022,358.800 269.884 C 359.319 269.748,359.600 269.338,359.600 268.717 C 359.600 268.191,359.825 267.518,360.100 267.221 C 360.500 266.790,360.500 266.739,360.100 266.965 C 359.825 267.120,359.600 267.057,359.600 266.824 C 359.600 266.591,359.759 266.400,359.953 266.400 C 360.381 266.400,360.886 264.945,360.898 263.674 C 360.903 263.149,361.317 262.480,361.854 262.128 C 362.842 261.480,363.140 260.400,362.330 260.400 C 362.072 260.400,362.297 259.921,362.830 259.335 C 363.364 258.750,363.575 258.401,363.300 258.559 C 363.025 258.718,362.800 258.657,362.800 258.424 C 362.800 258.191,362.955 258.000,363.145 258.000 C 363.334 258.000,363.402 257.543,363.295 256.983 C 363.157 256.263,363.260 256.001,363.650 256.083 C 364.010 256.160,364.222 255.786,364.263 255.000 C 364.298 254.340,364.364 253.620,364.411 253.400 C 364.457 253.180,364.476 252.871,364.452 252.714 C 364.429 252.557,364.709 252.544,365.074 252.684 C 365.582 252.879,365.676 252.776,365.474 252.249 C 365.316 251.838,365.369 251.657,365.605 251.803 C 365.839 251.948,366.000 251.419,366.000 250.504 C 366.000 249.655,366.225 248.718,366.500 248.421 C 366.904 247.986,366.893 247.944,366.438 248.203 C 366.029 248.436,365.968 248.376,366.212 247.980 C 366.397 247.681,366.607 246.905,366.678 246.255 C 366.749 245.605,366.975 244.872,367.179 244.625 C 367.384 244.378,367.536 243.623,367.517 242.947 C 367.495 242.188,367.810 241.390,368.341 240.859 C 369.229 239.971,369.495 238.800,368.810 238.800 C 368.559 238.800,368.563 238.423,368.821 237.745 C 369.042 237.164,369.127 236.594,369.010 236.477 C 368.894 236.360,369.093 235.939,369.454 235.540 C 369.970 234.971,370.008 234.692,369.636 234.243 C 369.312 233.853,369.295 233.589,369.581 233.412 C 369.811 233.269,370.000 232.389,370.000 231.456 C 370.000 230.523,370.225 229.518,370.500 229.221 C 370.900 228.790,370.900 228.739,370.500 228.965 C 370.225 229.120,370.000 229.057,370.000 228.824 C 370.000 228.591,370.148 228.400,370.329 228.400 C 370.509 228.400,370.700 227.461,370.752 226.312 C 370.805 225.164,371.012 224.026,371.213 223.784 C 371.799 223.078,371.683 195.338,371.089 194.293 C 370.289 192.883,369.614 192.309,369.023 192.536 C 368.717 192.653,368.367 192.491,368.246 192.175 C 368.124 191.859,367.599 191.600,367.079 191.600 C 366.559 191.600,365.998 191.465,365.833 191.300 C 365.668 191.135,354.502 191.066,341.019 191.147 C 323.244 191.254,316.429 191.171,316.229 190.847 C 315.749 190.070,34.443 190.223,34.145 191.000 M357.271 209.200 C 357.311 211.070,357.327 212.960,357.308 213.400 C 357.158 216.818,357.019 217.935,356.762 217.777 C 356.599 217.676,356.452 219.321,356.435 221.431 C 356.418 223.542,356.272 225.479,356.111 225.735 C 355.949 225.991,355.769 227.100,355.711 228.200 C 355.556 231.152,355.385 231.800,354.762 231.800 C 354.359 231.800,354.172 232.424,354.102 234.000 C 354.048 235.210,353.889 236.470,353.748 236.800 C 353.607 237.130,353.438 238.088,353.372 238.928 C 353.306 239.768,353.098 240.668,352.911 240.928 C 352.723 241.188,352.513 241.938,352.444 242.596 C 352.374 243.254,351.997 244.244,351.606 244.796 C 351.215 245.348,350.929 246.250,350.971 246.800 C 351.014 247.350,350.767 248.146,350.424 248.569 C 350.081 248.992,350.025 249.206,350.300 249.045 C 350.575 248.884,350.800 248.943,350.800 249.176 C 350.800 249.409,350.620 249.600,350.400 249.600 C 350.180 249.600,350.000 250.039,350.000 250.576 C 350.000 251.113,349.820 251.664,349.600 251.800 C 349.380 251.936,349.200 252.646,349.200 253.377 C 349.200 254.362,348.996 254.760,348.414 254.912 C 347.896 255.048,347.643 255.438,347.671 256.059 C 347.755 257.932,347.612 258.454,347.100 258.147 C 346.700 257.907,346.700 257.970,347.099 258.462 C 347.508 258.968,347.454 259.208,346.799 259.801 C 346.359 260.199,346.000 260.993,346.000 261.566 C 346.000 262.190,345.664 262.817,345.161 263.131 C 344.700 263.420,344.430 263.764,344.562 263.896 C 344.695 264.028,344.522 264.564,344.180 265.087 C 343.837 265.611,343.607 266.345,343.669 266.719 C 343.732 267.094,343.174 268.283,342.430 269.362 C 341.685 270.441,341.284 271.195,341.538 271.038 C 342.259 270.593,342.081 271.146,341.200 272.092 C 340.760 272.564,340.400 273.337,340.400 273.809 C 340.400 274.281,340.265 274.802,340.100 274.967 C 339.935 275.132,339.800 275.432,339.800 275.633 C 339.800 275.835,339.693 275.955,339.561 275.900 C 339.093 275.703,337.967 276.938,338.159 277.438 C 338.267 277.719,338.159 278.014,337.920 278.093 C 337.681 278.173,337.431 278.770,337.364 279.419 C 337.289 280.150,336.769 280.999,336.001 281.647 C 335.317 282.222,334.730 283.069,334.695 283.529 C 334.661 283.989,334.553 284.286,334.456 284.189 C 334.167 283.901,333.184 286.051,333.426 286.442 C 333.548 286.639,333.367 286.800,333.024 286.800 C 332.681 286.800,332.400 287.064,332.400 287.386 C 332.400 287.708,332.035 288.167,331.589 288.406 C 331.143 288.645,330.871 288.991,330.984 289.175 C 331.098 289.359,330.923 289.732,330.596 290.004 C 330.268 290.276,330.000 290.703,330.000 290.953 C 330.000 291.203,329.640 291.632,329.200 291.907 C 328.760 292.182,328.400 292.707,328.400 293.073 C 328.400 293.440,327.538 294.563,326.485 295.570 C 325.432 296.576,324.253 298.075,323.866 298.900 C 323.479 299.725,322.931 300.400,322.649 300.400 C 322.366 300.400,321.880 300.895,321.568 301.500 C 320.889 302.815,320.190 303.600,319.696 303.600 C 319.497 303.600,318.743 304.514,318.019 305.631 C 317.295 306.748,316.320 307.816,315.851 308.006 C 315.383 308.195,315.161 308.361,315.358 308.375 C 315.719 308.400,313.738 310.400,313.353 310.400 C 313.239 310.400,312.552 311.030,311.826 311.800 C 311.100 312.570,310.231 313.200,309.896 313.200 C 309.327 313.200,308.714 314.075,308.635 315.000 C 308.616 315.220,308.195 315.458,307.700 315.528 C 307.205 315.598,306.800 315.823,306.800 316.028 C 306.800 316.233,306.540 316.400,306.223 316.400 C 305.905 316.400,305.326 316.940,304.936 317.600 C 304.546 318.260,303.906 318.800,303.514 318.800 C 303.121 318.800,302.800 318.980,302.800 319.200 C 302.800 319.420,302.575 319.601,302.300 319.602 C 302.025 319.603,301.260 320.066,300.600 320.631 C 299.940 321.196,299.653 321.527,299.962 321.367 C 300.331 321.176,300.426 321.235,300.238 321.538 C 300.081 321.792,299.713 322.000,299.419 322.000 C 299.126 322.000,298.778 322.281,298.646 322.625 C 298.514 322.969,298.218 323.135,297.988 322.993 C 297.758 322.851,296.857 323.469,295.986 324.367 C 295.076 325.304,294.017 326.005,293.500 326.013 C 292.438 326.028,291.084 326.951,291.506 327.373 C 291.668 327.534,291.620 327.630,291.400 327.586 C 290.527 327.410,290.000 327.627,290.000 328.163 C 290.000 328.528,289.720 328.652,289.200 328.516 C 288.760 328.401,288.400 328.495,288.400 328.726 C 288.400 328.956,287.995 329.206,287.500 329.282 C 287.005 329.357,286.643 329.634,286.696 329.898 C 286.848 330.656,281.190 333.021,280.563 332.460 C 280.403 332.317,280.401 332.425,280.559 332.700 C 280.737 333.009,280.609 333.200,280.224 333.200 C 279.881 333.200,279.599 333.335,279.597 333.500 C 279.592 333.947,277.574 334.800,276.520 334.800 C 275.941 334.800,275.600 335.039,275.600 335.443 C 275.600 335.931,275.356 336.026,274.593 335.834 C 273.882 335.656,273.331 335.819,272.718 336.391 C 272.240 336.836,271.641 337.200,271.386 337.200 C 271.131 337.200,270.358 337.482,269.667 337.827 C 268.976 338.171,268.223 338.338,267.995 338.197 C 267.767 338.056,267.630 338.179,267.690 338.470 C 267.768 338.846,267.392 338.967,266.400 338.888 C 265.377 338.806,264.695 339.041,263.867 339.763 C 263.244 340.306,262.484 340.653,262.177 340.536 C 261.871 340.418,261.342 340.601,261.002 340.941 C 260.628 341.315,259.909 341.500,259.185 341.408 C 258.513 341.323,258.089 341.420,258.218 341.628 C 258.435 341.981,257.161 342.161,255.393 342.028 C 254.949 341.994,254.199 342.328,253.726 342.769 C 253.228 343.232,252.218 343.606,251.333 343.653 C 250.490 343.699,249.580 343.904,249.311 344.108 C 249.042 344.313,248.186 344.480,247.410 344.480 C 246.633 344.480,245.898 344.642,245.775 344.840 C 245.653 345.038,244.933 345.200,244.176 345.200 L 242.800 345.200 242.774 340.100 C 242.759 337.295,242.740 333.403,242.731 331.451 C 242.717 328.313,242.627 327.880,241.958 327.705 C 241.541 327.596,241.200 327.337,241.200 327.130 C 241.200 326.922,241.425 326.880,241.700 327.035 C 242.100 327.261,242.100 327.210,241.700 326.779 C 241.425 326.482,241.200 325.837,241.200 325.344 C 241.200 324.851,241.020 324.336,240.800 324.200 C 240.580 324.064,240.400 323.513,240.400 322.976 C 240.400 322.439,240.232 322.000,240.027 322.000 C 239.821 322.000,239.596 321.505,239.527 320.900 C 239.434 320.094,239.147 319.764,238.454 319.666 C 237.932 319.592,237.418 319.189,237.307 318.766 C 237.197 318.345,236.948 318.000,236.753 318.000 C 236.559 318.000,236.400 317.670,236.400 317.268 C 236.400 316.865,235.905 316.280,235.300 315.968 C 234.695 315.655,234.000 315.144,233.755 314.832 C 233.511 314.519,232.974 314.214,232.563 314.153 C 232.151 314.093,231.751 313.854,231.674 313.622 C 231.597 313.390,231.299 313.200,231.012 313.200 C 230.726 313.200,229.989 312.939,229.374 312.620 C 228.760 312.302,228.112 312.131,227.933 312.241 C 227.755 312.351,227.710 312.179,227.833 311.859 C 228.068 311.246,225.975 310.521,225.255 310.966 C 225.055 311.090,224.689 310.949,224.443 310.652 C 224.162 310.313,223.090 310.106,221.544 310.093 C 220.196 310.082,218.982 309.909,218.846 309.709 C 218.711 309.509,216.170 309.307,213.200 309.260 C 208.997 309.193,207.702 309.044,207.356 308.587 C 206.684 307.698,188.000 307.711,188.000 308.600 C 188.000 308.930,187.685 309.208,187.300 309.219 C 186.915 309.229,184.350 309.247,181.600 309.258 C 178.524 309.271,176.499 309.443,176.337 309.704 C 176.192 309.938,174.988 310.113,173.661 310.094 C 172.033 310.070,171.097 310.242,170.780 310.625 C 170.521 310.936,170.145 311.090,169.945 310.966 C 169.320 310.580,167.130 311.241,167.328 311.756 C 167.429 312.020,167.158 312.263,166.724 312.296 C 166.291 312.328,165.653 312.590,165.307 312.878 C 164.960 313.165,164.333 313.342,163.912 313.270 C 163.010 313.118,161.058 315.047,161.459 315.696 C 161.634 315.979,161.494 316.045,161.066 315.881 C 160.700 315.740,160.400 315.799,160.400 316.013 C 160.400 316.226,160.040 316.400,159.600 316.400 C 159.135 316.400,158.800 316.667,158.800 317.037 C 158.800 317.388,158.485 317.763,158.100 317.872 C 157.422 318.062,155.317 321.863,155.520 322.530 C 155.575 322.711,155.456 322.758,155.255 322.634 C 155.055 322.510,154.645 322.711,154.345 323.081 C 153.970 323.544,153.956 323.660,154.300 323.453 C 154.575 323.288,154.800 323.308,154.800 323.497 C 154.800 324.080,153.817 325.994,153.515 325.997 C 153.358 325.999,153.242 326.968,153.256 328.152 C 153.272 329.524,153.040 330.672,152.615 331.321 C 152.042 332.195,151.966 333.339,152.074 339.378 C 152.159 344.135,152.070 346.244,151.800 345.881 C 151.569 345.571,150.475 345.303,149.209 345.248 C 148.004 345.195,146.924 345.011,146.809 344.839 C 146.694 344.667,145.729 344.518,144.664 344.507 C 143.599 344.497,142.528 344.288,142.284 344.044 C 142.040 343.800,141.372 343.600,140.800 343.600 C 140.228 343.600,139.518 343.375,139.221 343.100 C 138.784 342.694,138.737 342.713,138.971 343.200 C 139.130 343.530,138.968 343.440,138.613 343.000 C 138.162 342.443,137.455 342.190,136.283 342.166 C 135.357 342.148,134.633 341.959,134.673 341.746 C 134.714 341.534,134.084 341.316,133.273 341.262 C 132.463 341.209,131.740 340.993,131.667 340.782 C 131.593 340.572,130.901 340.400,130.129 340.400 C 129.069 340.400,128.675 340.207,128.519 339.613 C 128.359 339.001,128.040 338.858,127.084 338.969 C 126.389 339.050,125.613 338.870,125.299 338.556 C 124.993 338.250,124.351 337.996,123.871 337.991 C 123.392 337.986,122.561 337.645,122.025 337.233 C 121.488 336.820,120.815 336.573,120.528 336.683 C 120.241 336.793,119.896 336.595,119.761 336.244 C 119.627 335.892,119.370 335.695,119.190 335.806 C 119.011 335.917,118.581 335.724,118.235 335.378 C 117.889 335.032,117.445 334.848,117.248 334.970 C 117.052 335.092,116.668 334.923,116.396 334.596 C 116.124 334.268,115.495 334.000,114.998 334.000 C 114.407 334.000,114.015 333.700,113.867 333.134 C 113.679 332.417,113.538 332.354,113.043 332.765 C 112.552 333.172,112.351 333.111,111.926 332.430 C 111.641 331.974,111.173 331.600,110.887 331.600 C 110.601 331.600,109.980 331.240,109.508 330.800 C 109.036 330.360,108.413 330.000,108.125 330.000 C 107.836 330.000,107.600 329.799,107.600 329.553 C 107.600 329.307,107.249 329.198,106.818 329.311 C 106.285 329.451,105.557 329.051,104.533 328.058 C 103.707 327.256,103.181 326.843,103.364 327.140 C 103.910 328.026,102.303 327.010,101.612 326.032 C 101.288 325.575,100.777 325.200,100.476 325.200 C 100.175 325.200,99.571 324.795,99.134 324.300 C 98.697 323.805,98.453 323.625,98.593 323.900 C 98.733 324.175,98.657 324.400,98.424 324.400 C 98.191 324.400,98.000 324.040,98.000 323.600 C 98.000 323.067,97.733 322.800,97.200 322.800 C 96.760 322.800,96.400 322.620,96.400 322.400 C 96.400 322.180,96.130 322.000,95.800 322.000 C 95.470 322.000,95.245 321.775,95.300 321.500 C 95.355 321.225,95.087 321.025,94.704 321.055 C 94.322 321.085,94.107 320.950,94.228 320.755 C 94.349 320.560,94.077 320.400,93.624 320.400 C 93.171 320.400,92.800 320.258,92.800 320.084 C 92.800 319.713,90.147 316.835,89.023 315.986 C 88.337 315.469,88.286 315.470,88.582 316.000 C 88.844 316.469,88.807 316.498,88.412 316.134 C 88.135 315.877,87.703 315.265,87.454 314.773 C 87.204 314.281,86.648 313.681,86.217 313.439 C 85.236 312.889,84.717 312.374,84.173 311.410 C 83.939 310.994,83.406 310.461,82.990 310.227 C 81.864 309.592,81.200 308.914,81.200 308.400 C 81.200 307.758,80.285 306.917,79.372 306.719 C 78.947 306.628,78.648 306.328,78.707 306.054 C 78.830 305.487,77.749 303.800,77.264 303.800 C 76.728 303.800,75.600 302.495,75.600 301.875 C 75.600 301.555,75.222 301.194,74.760 301.074 C 74.297 300.953,74.038 300.662,74.183 300.427 C 74.328 300.192,74.167 300.000,73.824 300.000 C 73.481 300.000,73.200 299.674,73.200 299.275 C 73.200 298.877,72.858 298.184,72.441 297.736 C 72.024 297.288,71.616 296.581,71.536 296.164 C 71.456 295.747,70.897 295.170,70.295 294.881 C 69.693 294.593,69.177 294.096,69.150 293.778 C 69.123 293.460,69.078 293.035,69.050 292.834 C 68.952 292.112,67.153 289.982,66.817 290.189 C 66.629 290.306,66.564 290.061,66.672 289.646 C 66.781 289.230,66.646 288.752,66.373 288.583 C 66.032 288.373,65.968 288.453,66.168 288.838 C 66.328 289.147,66.176 289.051,65.830 288.624 C 65.483 288.196,65.200 287.465,65.200 286.998 C 65.200 286.532,64.660 285.632,64.000 285.000 C 63.249 284.280,62.800 283.448,62.800 282.774 C 62.800 282.182,62.532 281.476,62.204 281.204 C 61.877 280.932,61.715 280.538,61.844 280.328 C 61.974 280.118,61.597 279.463,61.005 278.872 C 59.922 277.788,58.468 274.948,59.242 275.426 C 59.471 275.568,59.422 275.305,59.133 274.842 C 58.844 274.379,58.471 274.000,58.304 274.000 C 58.137 274.000,58.000 273.809,58.000 273.576 C 58.000 273.343,58.225 273.267,58.500 273.407 C 58.775 273.547,58.640 273.332,58.200 272.930 C 57.430 272.227,57.020 271.494,56.047 269.075 C 55.689 268.185,55.700 268.009,56.097 268.233 C 56.500 268.461,56.500 268.410,56.100 267.979 C 55.825 267.682,55.600 267.048,55.600 266.569 C 55.600 265.728,54.717 264.617,54.344 264.989 C 54.244 265.090,54.118 264.517,54.064 263.717 C 54.010 262.918,53.675 262.051,53.321 261.791 C 52.922 261.500,52.760 260.997,52.896 260.475 C 53.018 260.010,52.890 259.441,52.612 259.210 C 52.334 258.979,52.167 258.270,52.241 257.634 C 52.325 256.908,52.128 256.277,51.711 255.939 C 51.244 255.560,51.136 255.549,51.347 255.900 C 51.512 256.175,51.457 256.400,51.224 256.400 C 50.991 256.400,50.800 255.626,50.800 254.680 C 50.800 253.734,50.583 252.743,50.318 252.478 C 50.053 252.213,49.881 251.345,49.934 250.549 C 50.007 249.463,49.895 249.155,49.484 249.313 C 49.058 249.476,48.956 249.083,49.028 247.560 C 49.079 246.481,48.931 245.481,48.698 245.337 C 48.453 245.185,48.394 245.267,48.559 245.534 C 48.743 245.831,48.621 245.906,48.211 245.749 C 47.745 245.570,47.692 245.371,48.009 244.989 C 48.308 244.629,48.311 244.392,48.019 244.212 C 47.789 244.069,47.600 243.168,47.600 242.210 C 47.600 241.251,47.402 240.401,47.159 240.320 C 46.916 240.239,46.710 239.279,46.701 238.186 C 46.691 237.094,46.501 235.967,46.278 235.682 C 46.055 235.397,45.888 234.090,45.908 232.776 C 45.931 231.157,45.803 230.474,45.510 230.656 C 45.243 230.820,45.192 230.736,45.377 230.437 C 45.543 230.169,45.405 229.646,45.071 229.275 C 44.700 228.862,44.427 227.668,44.370 226.200 C 44.319 224.880,44.080 223.540,43.839 223.223 C 43.489 222.764,43.522 222.718,44.000 223.000 C 44.519 223.306,44.525 223.261,44.047 222.673 C 43.665 222.201,43.506 220.920,43.529 218.508 C 43.552 216.213,43.399 214.908,43.082 214.682 C 42.709 214.416,42.713 214.293,43.100 214.136 C 43.375 214.025,43.600 213.668,43.600 213.343 C 43.600 212.999,43.408 212.872,43.138 213.038 C 42.852 213.215,42.785 213.148,42.962 212.862 C 43.119 212.608,43.129 212.209,42.984 211.974 C 42.754 211.602,42.607 208.097,42.750 206.400 C 42.794 205.868,60.556 205.800,200.000 205.800 L 357.200 205.800 357.271 209.200 M326.086 339.900 L 325.973 360.800 320.012 360.800 C 313.862 360.800,311.749 360.430,312.136 359.421 C 312.263 359.092,311.862 358.465,311.181 357.927 C 310.395 357.306,310.006 356.637,310.004 355.900 C 310.001 355.047,309.810 354.800,309.151 354.800 C 308.429 354.800,308.379 354.707,308.817 354.180 C 309.249 353.659,309.208 353.527,308.566 353.359 C 307.822 353.165,306.800 351.540,306.800 350.554 C 306.800 350.286,306.610 350.003,306.378 349.926 C 306.146 349.849,305.907 349.449,305.847 349.037 C 305.722 348.185,304.454 347.120,303.941 347.436 C 303.753 347.552,303.600 347.356,303.600 347.000 C 303.600 346.595,303.787 346.461,304.100 346.641 C 304.375 346.799,304.195 346.483,303.700 345.939 C 303.205 345.394,302.800 344.574,302.800 344.116 C 302.800 343.658,302.215 342.769,301.500 342.141 C 300.583 341.337,300.239 340.721,300.334 340.056 C 300.432 339.362,300.325 339.192,299.934 339.414 C 299.536 339.640,299.512 339.596,299.840 339.238 C 300.083 338.975,300.655 338.731,301.113 338.697 C 301.570 338.662,301.936 338.536,301.925 338.417 C 301.858 337.682,302.056 337.200,302.424 337.200 C 302.657 337.200,302.733 337.425,302.593 337.700 C 302.453 337.975,302.697 337.795,303.134 337.300 C 303.571 336.805,304.195 336.400,304.521 336.400 C 304.848 336.400,305.225 336.111,305.361 335.758 C 305.518 335.348,305.853 335.212,306.291 335.380 C 306.668 335.524,306.865 335.532,306.730 335.396 C 306.416 335.082,308.143 333.200,308.746 333.200 C 308.996 333.200,309.200 333.033,309.200 332.828 C 309.200 332.623,309.605 332.394,310.100 332.318 C 310.595 332.243,310.961 331.977,310.913 331.728 C 310.865 331.480,311.099 331.171,311.433 331.043 C 311.827 330.891,311.957 330.984,311.802 331.305 C 311.671 331.577,311.863 331.395,312.230 330.900 C 312.597 330.405,313.146 330.000,313.449 330.000 C 313.752 330.000,314.000 329.722,314.000 329.382 C 314.000 329.016,314.285 328.813,314.700 328.882 C 315.168 328.961,315.443 328.701,315.528 328.097 C 315.617 327.472,316.208 326.943,317.448 326.378 C 318.433 325.929,319.347 325.255,319.478 324.881 C 319.796 323.971,321.238 322.820,322.073 322.809 C 322.508 322.803,322.792 322.410,322.873 321.700 C 322.965 320.904,323.254 320.564,323.922 320.469 C 324.475 320.391,325.000 319.925,325.236 319.304 C 326.086 317.070,326.196 319.740,326.086 339.900 M73.200 321.627 C 73.200 322.066,73.515 322.522,73.900 322.641 C 75.266 323.063,75.806 323.487,76.322 324.537 C 76.609 325.122,77.100 325.600,77.413 325.600 C 77.726 325.600,78.276 326.050,78.637 326.600 C 78.997 327.150,79.541 327.600,79.846 327.600 C 80.355 327.600,80.580 328.106,80.437 328.930 C 80.406 329.111,80.537 329.163,80.728 329.044 C 80.919 328.926,81.754 329.451,82.583 330.210 C 83.412 330.970,84.248 331.494,84.441 331.375 C 84.633 331.256,84.697 331.404,84.581 331.704 C 84.457 332.028,84.824 332.477,85.486 332.811 C 87.584 333.866,88.809 334.861,88.543 335.292 C 88.378 335.559,88.465 335.607,88.771 335.418 C 89.070 335.233,89.758 335.563,90.517 336.256 C 91.206 336.885,91.596 337.122,91.385 336.782 C 91.173 336.442,91.512 336.757,92.139 337.482 C 92.765 338.207,93.457 338.800,93.677 338.800 C 93.897 338.800,94.632 339.195,95.310 339.679 C 96.020 340.184,96.404 340.311,96.213 339.979 C 96.031 339.660,96.419 339.985,97.077 340.700 C 97.734 341.415,98.570 342.000,98.936 342.000 C 99.301 342.000,99.600 342.180,99.600 342.400 C 99.600 342.620,99.917 342.800,100.304 342.800 C 101.425 342.800,102.021 344.083,101.336 345.020 C 101.022 345.449,100.565 345.800,100.321 345.800 C 100.076 345.800,99.831 346.106,99.777 346.479 C 99.722 346.853,98.940 347.860,98.038 348.718 C 97.137 349.575,96.400 350.543,96.400 350.868 C 96.400 351.194,95.956 351.878,95.412 352.388 C 94.869 352.899,94.537 353.498,94.674 353.720 C 94.811 353.942,94.727 354.002,94.486 353.853 C 93.915 353.500,92.338 355.197,92.501 355.989 C 92.570 356.325,92.120 356.916,91.500 357.302 C 90.880 357.689,90.257 358.319,90.114 358.702 C 89.368 360.713,88.815 360.823,80.030 360.708 L 71.800 360.600 71.696 340.284 C 71.593 320.045,71.596 319.970,72.396 320.398 C 72.838 320.635,73.200 321.187,73.200 321.627 M214.969 323.952 C 215.206 324.137,216.285 324.316,217.366 324.350 C 218.447 324.384,219.607 324.634,219.943 324.906 C 220.430 325.300,220.492 325.298,220.251 324.897 C 220.012 324.498,220.161 324.491,220.975 324.861 C 221.539 325.118,222.000 325.495,222.000 325.698 C 222.000 325.901,222.225 325.985,222.500 325.886 C 222.775 325.786,223.295 325.961,223.655 326.274 C 224.016 326.587,224.678 326.871,225.128 326.905 C 225.577 326.938,225.860 327.102,225.758 327.268 C 225.655 327.435,225.923 327.923,226.355 328.355 C 226.786 328.786,227.085 329.467,227.021 329.869 C 226.956 330.271,227.062 330.802,227.258 331.049 C 227.861 331.811,227.725 367.010,227.115 367.994 C 226.685 368.687,226.699 368.893,227.200 369.243 C 227.651 369.557,227.676 369.711,227.300 369.864 C 227.025 369.975,226.800 370.692,226.800 371.457 C 226.800 372.222,226.963 372.746,227.163 372.623 C 227.362 372.500,227.320 372.834,227.069 373.365 C 226.818 373.897,226.488 374.254,226.335 374.160 C 226.182 374.065,226.123 374.509,226.203 375.145 C 226.298 375.896,226.077 376.596,225.575 377.135 C 225.149 377.592,224.800 378.216,224.800 378.521 C 224.800 379.149,223.746 380.156,222.700 380.527 C 222.315 380.663,222.000 381.051,222.000 381.387 C 222.000 381.989,221.548 382.172,220.443 382.017 C 220.136 381.974,219.751 382.156,219.587 382.421 C 219.387 382.745,217.995 382.903,215.344 382.901 C 213.175 382.899,211.087 383.061,210.705 383.260 C 209.589 383.842,185.795 383.722,184.147 383.126 C 183.057 382.732,182.603 382.730,181.984 383.117 C 181.553 383.386,181.200 383.448,181.200 383.254 C 181.200 383.060,179.917 382.875,178.349 382.843 C 176.781 382.810,175.296 382.655,175.049 382.498 C 174.606 382.216,174.387 382.148,173.600 382.050 C 173.380 382.023,173.200 381.619,173.200 381.153 C 173.200 380.528,173.008 380.357,172.463 380.500 C 171.699 380.699,170.800 379.693,170.800 378.639 C 170.800 378.324,170.625 378.007,170.412 377.933 C 170.198 377.860,169.955 377.440,169.872 377.000 C 169.788 376.560,169.618 375.930,169.493 375.600 C 169.368 375.270,169.173 374.196,169.059 373.214 C 168.945 372.224,168.561 371.215,168.199 370.950 C 167.637 370.539,167.518 369.202,167.354 361.536 C 167.250 356.621,167.075 348.847,166.966 344.260 C 166.818 338.017,166.891 335.772,167.258 335.330 C 167.650 334.858,167.633 334.666,167.174 334.376 C 166.821 334.152,166.782 334.010,167.072 334.006 C 167.332 334.003,167.534 333.505,167.522 332.900 C 167.469 330.328,167.605 329.556,168.062 329.838 C 168.367 330.027,168.414 329.946,168.201 329.601 C 167.999 329.274,168.144 328.884,168.589 328.559 C 168.980 328.272,169.208 327.797,169.095 327.503 C 168.960 327.151,169.245 326.938,169.927 326.881 C 170.498 326.834,171.144 326.616,171.362 326.398 C 171.581 326.179,172.190 326.000,172.716 326.000 C 173.242 326.000,174.029 325.595,174.466 325.100 C 174.903 324.605,175.123 324.470,174.954 324.800 C 174.694 325.307,174.747 325.319,175.292 324.877 C 175.646 324.590,176.851 324.348,177.968 324.339 C 179.086 324.330,179.910 324.178,179.801 324.001 C 179.691 323.824,182.159 323.653,185.285 323.622 C 188.411 323.590,191.006 323.527,191.051 323.482 C 191.314 323.218,214.614 323.676,214.969 323.952 M228.282 336.900 C 228.187 337.395,228.109 336.990,228.109 336.000 C 228.109 335.010,228.187 334.605,228.282 335.100 C 228.378 335.595,228.378 336.405,228.282 336.900 M228.294 351.900 C 228.212 352.945,228.144 352.090,228.144 350.000 C 228.144 347.910,228.212 347.055,228.294 348.100 C 228.376 349.145,228.376 350.855,228.294 351.900 M85.700 375.899 C 81.685 375.965,75.115 375.965,71.100 375.899 C 67.085 375.834,70.370 375.781,78.400 375.781 C 86.430 375.781,89.715 375.834,85.700 375.899 M327.500 375.899 C 324.035 375.966,318.365 375.966,314.900 375.899 C 311.435 375.833,314.270 375.778,321.200 375.778 C 328.130 375.778,330.965 375.833,327.500 375.899 " stroke="none" fill="#444444" fill-rule="evenodd"></path><path id="path1" d="M260.873 39.800 C 260.622 40.350,260.483 40.800,260.563 40.800 C 260.643 40.800,261.003 40.350,261.363 39.800 C 261.724 39.250,261.863 38.800,261.673 38.800 C 261.484 38.800,261.123 39.250,260.873 39.800 M83.049 61.600 C 83.516 62.150,83.997 62.870,84.118 63.200 C 84.305 63.714,84.341 63.709,84.368 63.170 C 84.386 62.823,83.905 62.103,83.300 61.570 L 82.200 60.600 83.049 61.600 M72.400 71.888 C 73.417 73.178,74.141 73.607,73.770 72.700 C 73.658 72.425,73.079 71.844,72.483 71.410 L 71.400 70.620 72.400 71.888 M144.400 122.167 C 144.400 122.588,145.605 123.728,145.821 123.512 C 145.922 123.411,145.644 123.002,145.202 122.602 C 144.761 122.203,144.400 122.007,144.400 122.167 M183.969 122.764 C 183.623 123.147,183.207 123.807,183.046 124.231 C 182.885 124.654,182.901 124.820,183.082 124.600 C 183.264 124.380,183.846 123.705,184.376 123.100 C 184.906 122.495,185.173 122.015,184.970 122.033 C 184.766 122.052,184.316 122.380,183.969 122.764 M177.829 129.029 C 177.405 129.338,177.136 129.669,177.230 129.763 C 177.324 129.857,177.748 129.681,178.171 129.371 C 178.595 129.062,178.864 128.731,178.770 128.637 C 178.676 128.543,178.252 128.719,177.829 129.029 M131.600 130.226 C 131.600 130.635,134.400 133.334,134.607 133.125 C 134.676 133.056,134.297 132.495,133.766 131.878 C 133.235 131.260,132.794 130.900,132.787 131.078 C 132.780 131.255,132.510 131.051,132.187 130.624 C 131.864 130.196,131.600 130.018,131.600 130.226 M171.260 133.842 C 170.962 134.178,170.799 134.532,170.895 134.629 C 170.992 134.726,171.398 134.444,171.798 134.002 C 172.197 133.561,172.361 133.207,172.162 133.215 C 171.963 133.224,171.557 133.505,171.260 133.842 M164.748 141.737 C 164.993 142.032,165.060 142.421,164.897 142.601 C 164.733 142.780,164.915 142.814,165.300 142.676 C 165.685 142.538,166.000 142.599,166.000 142.813 C 166.000 143.026,166.223 143.200,166.496 143.200 C 166.769 143.200,166.507 142.750,165.913 142.200 C 164.770 141.140,163.998 140.833,164.748 141.737 M199.643 156.823 C 199.117 157.261,198.771 157.705,198.875 157.808 C 198.979 157.912,199.486 157.548,200.001 156.998 C 201.124 155.804,200.962 155.725,199.643 156.823 M326.728 191.100 C 332.518 191.162,341.878 191.162,347.528 191.100 C 353.178 191.037,348.440 190.986,337.000 190.986 C 325.560 190.986,320.938 191.037,326.728 191.100 M243.728 205.900 C 249.629 205.962,259.169 205.962,264.928 205.900 C 270.688 205.837,265.860 205.786,254.200 205.786 C 242.540 205.786,237.828 205.837,243.728 205.900 M346.400 292.200 C 346.122 292.535,346.079 292.800,346.302 292.800 C 346.522 292.800,346.926 292.530,347.200 292.200 C 347.478 291.865,347.521 291.600,347.298 291.600 C 347.078 291.600,346.674 291.870,346.400 292.200 M52.400 294.784 C 52.400 295.027,52.669 295.328,52.998 295.454 C 53.326 295.581,53.504 295.833,53.391 296.014 C 53.279 296.196,53.354 296.448,53.558 296.574 C 53.763 296.701,53.894 296.558,53.850 296.258 C 53.748 295.564,52.400 294.193,52.400 294.784 M325.456 318.678 C 325.061 319.073,325.154 319.676,325.570 319.419 C 325.773 319.293,326.022 319.507,326.123 319.895 C 326.267 320.445,326.317 320.408,326.354 319.724 C 326.402 318.814,325.902 318.232,325.456 318.678 M74.800 322.967 C 74.800 323.388,76.005 324.528,76.221 324.312 C 76.322 324.211,76.044 323.802,75.602 323.402 C 75.161 323.003,74.800 322.807,74.800 322.967 M220.000 324.563 C 220.000 324.643,220.450 325.003,221.000 325.363 C 221.550 325.724,222.000 325.863,222.000 325.673 C 222.000 325.484,221.550 325.123,221.000 324.873 C 220.450 324.622,220.000 324.483,220.000 324.563 M102.000 326.386 C 102.000 326.598,102.405 326.984,102.900 327.244 C 103.795 327.714,103.796 327.712,103.038 326.858 C 102.191 325.905,102.000 325.818,102.000 326.386 M228.109 336.000 C 228.109 336.990,228.187 337.395,228.282 336.900 C 228.378 336.405,228.378 335.595,228.282 335.100 C 228.187 334.605,228.109 335.010,228.109 336.000 M228.144 350.000 C 228.144 352.090,228.212 352.945,228.294 351.900 C 228.376 350.855,228.376 349.145,228.294 348.100 C 228.212 347.055,228.144 347.910,228.144 350.000 M76.122 360.699 C 78.499 360.770,82.279 360.769,84.522 360.698 C 86.765 360.627,84.820 360.569,80.200 360.569 C 75.580 360.570,73.745 360.628,76.122 360.699 M295.609 360.833 C 295.614 361.145,295.985 361.850,296.433 362.400 L 297.248 363.400 296.573 362.000 C 295.748 360.288,295.597 360.106,295.609 360.833 M316.719 360.698 C 318.544 360.772,321.424 360.772,323.119 360.697 C 324.814 360.622,323.320 360.561,319.800 360.562 C 316.280 360.562,314.894 360.624,316.719 360.698 M71.100 375.899 C 75.115 375.965,81.685 375.965,85.700 375.899 C 89.715 375.834,86.430 375.781,78.400 375.781 C 70.370 375.781,67.085 375.834,71.100 375.899 M314.900 375.899 C 318.365 375.966,324.035 375.966,327.500 375.899 C 330.965 375.833,328.130 375.778,321.200 375.778 C 314.270 375.778,311.435 375.833,314.900 375.899 M167.083 394.769 C 168.031 395.660,168.400 395.799,168.400 395.264 C 168.400 395.080,167.905 394.705,167.300 394.433 L 166.200 393.937 167.083 394.769 " stroke="none" fill="#484444" fill-rule="evenodd"></path><path id="path2" d="M260.873 39.800 C 260.622 40.350,260.483 40.800,260.563 40.800 C 260.643 40.800,261.003 40.350,261.363 39.800 C 261.724 39.250,261.863 38.800,261.673 38.800 C 261.484 38.800,261.123 39.250,260.873 39.800 M83.049 61.600 C 83.516 62.150,83.997 62.870,84.118 63.200 C 84.305 63.714,84.341 63.709,84.368 63.170 C 84.386 62.823,83.905 62.103,83.300 61.570 L 82.200 60.600 83.049 61.600 M72.400 71.888 C 73.417 73.178,74.141 73.607,73.770 72.700 C 73.658 72.425,73.079 71.844,72.483 71.410 L 71.400 70.620 72.400 71.888 M144.400 122.167 C 144.400 122.588,145.605 123.728,145.821 123.512 C 145.922 123.411,145.644 123.002,145.202 122.602 C 144.761 122.203,144.400 122.007,144.400 122.167 M183.969 122.764 C 183.623 123.147,183.207 123.807,183.046 124.231 C 182.885 124.654,182.901 124.820,183.082 124.600 C 183.264 124.380,183.846 123.705,184.376 123.100 C 184.906 122.495,185.173 122.015,184.970 122.033 C 184.766 122.052,184.316 122.380,183.969 122.764 M177.829 129.029 C 177.405 129.338,177.136 129.669,177.230 129.763 C 177.324 129.857,177.748 129.681,178.171 129.371 C 178.595 129.062,178.864 128.731,178.770 128.637 C 178.676 128.543,178.252 128.719,177.829 129.029 M131.600 130.226 C 131.600 130.635,134.400 133.334,134.607 133.125 C 134.676 133.056,134.297 132.495,133.766 131.878 C 133.235 131.260,132.794 130.900,132.787 131.078 C 132.780 131.255,132.510 131.051,132.187 130.624 C 131.864 130.196,131.600 130.018,131.600 130.226 M171.260 133.842 C 170.962 134.178,170.799 134.532,170.895 134.629 C 170.992 134.726,171.398 134.444,171.798 134.002 C 172.197 133.561,172.361 133.207,172.162 133.215 C 171.963 133.224,171.557 133.505,171.260 133.842 M164.748 141.737 C 164.993 142.032,165.060 142.421,164.897 142.601 C 164.733 142.780,164.915 142.814,165.300 142.676 C 165.685 142.538,166.000 142.599,166.000 142.813 C 166.000 143.026,166.223 143.200,166.496 143.200 C 166.769 143.200,166.507 142.750,165.913 142.200 C 164.770 141.140,163.998 140.833,164.748 141.737 M199.643 156.823 C 199.117 157.261,198.771 157.705,198.875 157.808 C 198.979 157.912,199.486 157.548,200.001 156.998 C 201.124 155.804,200.962 155.725,199.643 156.823 M326.728 191.100 C 332.518 191.162,341.878 191.162,347.528 191.100 C 353.178 191.037,348.440 190.986,337.000 190.986 C 325.560 190.986,320.938 191.037,326.728 191.100 M243.728 205.900 C 249.629 205.962,259.169 205.962,264.928 205.900 C 270.688 205.837,265.860 205.786,254.200 205.786 C 242.540 205.786,237.828 205.837,243.728 205.900 M346.400 292.200 C 346.122 292.535,346.079 292.800,346.302 292.800 C 346.522 292.800,346.926 292.530,347.200 292.200 C 347.478 291.865,347.521 291.600,347.298 291.600 C 347.078 291.600,346.674 291.870,346.400 292.200 M52.400 294.784 C 52.400 295.027,52.669 295.328,52.998 295.454 C 53.326 295.581,53.504 295.833,53.391 296.014 C 53.279 296.196,53.354 296.448,53.558 296.574 C 53.763 296.701,53.894 296.558,53.850 296.258 C 53.748 295.564,52.400 294.193,52.400 294.784 M325.456 318.678 C 325.061 319.073,325.154 319.676,325.570 319.419 C 325.773 319.293,326.022 319.507,326.123 319.895 C 326.267 320.445,326.317 320.408,326.354 319.724 C 326.402 318.814,325.902 318.232,325.456 318.678 M74.800 322.967 C 74.800 323.388,76.005 324.528,76.221 324.312 C 76.322 324.211,76.044 323.802,75.602 323.402 C 75.161 323.003,74.800 322.807,74.800 322.967 M220.000 324.563 C 220.000 324.643,220.450 325.003,221.000 325.363 C 221.550 325.724,222.000 325.863,222.000 325.673 C 222.000 325.484,221.550 325.123,221.000 324.873 C 220.450 324.622,220.000 324.483,220.000 324.563 M102.000 326.386 C 102.000 326.598,102.405 326.984,102.900 327.244 C 103.795 327.714,103.796 327.712,103.038 326.858 C 102.191 325.905,102.000 325.818,102.000 326.386 M228.109 336.000 C 228.109 336.990,228.187 337.395,228.282 336.900 C 228.378 336.405,228.378 335.595,228.282 335.100 C 228.187 334.605,228.109 335.010,228.109 336.000 M228.144 350.000 C 228.144 352.090,228.212 352.945,228.294 351.900 C 228.376 350.855,228.376 349.145,228.294 348.100 C 228.212 347.055,228.144 347.910,228.144 350.000 M76.122 360.699 C 78.499 360.770,82.279 360.769,84.522 360.698 C 86.765 360.627,84.820 360.569,80.200 360.569 C 75.580 360.570,73.745 360.628,76.122 360.699 M295.609 360.833 C 295.614 361.145,295.985 361.850,296.433 362.400 L 297.248 363.400 296.573 362.000 C 295.748 360.288,295.597 360.106,295.609 360.833 M316.719 360.698 C 318.544 360.772,321.424 360.772,323.119 360.697 C 324.814 360.622,323.320 360.561,319.800 360.562 C 316.280 360.562,314.894 360.624,316.719 360.698 M71.100 375.899 C 75.115 375.965,81.685 375.965,85.700 375.899 C 89.715 375.834,86.430 375.781,78.400 375.781 C 70.370 375.781,67.085 375.834,71.100 375.899 M314.900 375.899 C 318.365 375.966,324.035 375.966,327.500 375.899 C 330.965 375.833,328.130 375.778,321.200 375.778 C 314.270 375.778,311.435 375.833,314.900 375.899 M167.083 394.769 C 168.031 395.660,168.400 395.799,168.400 395.264 C 168.400 395.080,167.905 394.705,167.300 394.433 L 166.200 393.937 167.083 394.769 " stroke="none" fill="#484444" fill-rule="evenodd"></path><path id="path3" d="M260.873 39.800 C 260.622 40.350,260.483 40.800,260.563 40.800 C 260.643 40.800,261.003 40.350,261.363 39.800 C 261.724 39.250,261.863 38.800,261.673 38.800 C 261.484 38.800,261.123 39.250,260.873 39.800 M83.049 61.600 C 83.516 62.150,83.997 62.870,84.118 63.200 C 84.305 63.714,84.341 63.709,84.368 63.170 C 84.386 62.823,83.905 62.103,83.300 61.570 L 82.200 60.600 83.049 61.600 M72.400 71.888 C 73.417 73.178,74.141 73.607,73.770 72.700 C 73.658 72.425,73.079 71.844,72.483 71.410 L 71.400 70.620 72.400 71.888 M144.400 122.167 C 144.400 122.588,145.605 123.728,145.821 123.512 C 145.922 123.411,145.644 123.002,145.202 122.602 C 144.761 122.203,144.400 122.007,144.400 122.167 M183.969 122.764 C 183.623 123.147,183.207 123.807,183.046 124.231 C 182.885 124.654,182.901 124.820,183.082 124.600 C 183.264 124.380,183.846 123.705,184.376 123.100 C 184.906 122.495,185.173 122.015,184.970 122.033 C 184.766 122.052,184.316 122.380,183.969 122.764 M177.829 129.029 C 177.405 129.338,177.136 129.669,177.230 129.763 C 177.324 129.857,177.748 129.681,178.171 129.371 C 178.595 129.062,178.864 128.731,178.770 128.637 C 178.676 128.543,178.252 128.719,177.829 129.029 M131.600 130.226 C 131.600 130.635,134.400 133.334,134.607 133.125 C 134.676 133.056,134.297 132.495,133.766 131.878 C 133.235 131.260,132.794 130.900,132.787 131.078 C 132.780 131.255,132.510 131.051,132.187 130.624 C 131.864 130.196,131.600 130.018,131.600 130.226 M171.260 133.842 C 170.962 134.178,170.799 134.532,170.895 134.629 C 170.992 134.726,171.398 134.444,171.798 134.002 C 172.197 133.561,172.361 133.207,172.162 133.215 C 171.963 133.224,171.557 133.505,171.260 133.842 M164.748 141.737 C 164.993 142.032,165.060 142.421,164.897 142.601 C 164.733 142.780,164.915 142.814,165.300 142.676 C 165.685 142.538,166.000 142.599,166.000 142.813 C 166.000 143.026,166.223 143.200,166.496 143.200 C 166.769 143.200,166.507 142.750,165.913 142.200 C 164.770 141.140,163.998 140.833,164.748 141.737 M199.643 156.823 C 199.117 157.261,198.771 157.705,198.875 157.808 C 198.979 157.912,199.486 157.548,200.001 156.998 C 201.124 155.804,200.962 155.725,199.643 156.823 M326.728 191.100 C 332.518 191.162,341.878 191.162,347.528 191.100 C 353.178 191.037,348.440 190.986,337.000 190.986 C 325.560 190.986,320.938 191.037,326.728 191.100 M243.728 205.900 C 249.629 205.962,259.169 205.962,264.928 205.900 C 270.688 205.837,265.860 205.786,254.200 205.786 C 242.540 205.786,237.828 205.837,243.728 205.900 M346.400 292.200 C 346.122 292.535,346.079 292.800,346.302 292.800 C 346.522 292.800,346.926 292.530,347.200 292.200 C 347.478 291.865,347.521 291.600,347.298 291.600 C 347.078 291.600,346.674 291.870,346.400 292.200 M52.400 294.784 C 52.400 295.027,52.669 295.328,52.998 295.454 C 53.326 295.581,53.504 295.833,53.391 296.014 C 53.279 296.196,53.354 296.448,53.558 296.574 C 53.763 296.701,53.894 296.558,53.850 296.258 C 53.748 295.564,52.400 294.193,52.400 294.784 M325.456 318.678 C 325.061 319.073,325.154 319.676,325.570 319.419 C 325.773 319.293,326.022 319.507,326.123 319.895 C 326.267 320.445,326.317 320.408,326.354 319.724 C 326.402 318.814,325.902 318.232,325.456 318.678 M74.800 322.967 C 74.800 323.388,76.005 324.528,76.221 324.312 C 76.322 324.211,76.044 323.802,75.602 323.402 C 75.161 323.003,74.800 322.807,74.800 322.967 M220.000 324.563 C 220.000 324.643,220.450 325.003,221.000 325.363 C 221.550 325.724,222.000 325.863,222.000 325.673 C 222.000 325.484,221.550 325.123,221.000 324.873 C 220.450 324.622,220.000 324.483,220.000 324.563 M102.000 326.386 C 102.000 326.598,102.405 326.984,102.900 327.244 C 103.795 327.714,103.796 327.712,103.038 326.858 C 102.191 325.905,102.000 325.818,102.000 326.386 M228.109 336.000 C 228.109 336.990,228.187 337.395,228.282 336.900 C 228.378 336.405,228.378 335.595,228.282 335.100 C 228.187 334.605,228.109 335.010,228.109 336.000 M228.144 350.000 C 228.144 352.090,228.212 352.945,228.294 351.900 C 228.376 350.855,228.376 349.145,228.294 348.100 C 228.212 347.055,228.144 347.910,228.144 350.000 M76.122 360.699 C 78.499 360.770,82.279 360.769,84.522 360.698 C 86.765 360.627,84.820 360.569,80.200 360.569 C 75.580 360.570,73.745 360.628,76.122 360.699 M295.609 360.833 C 295.614 361.145,295.985 361.850,296.433 362.400 L 297.248 363.400 296.573 362.000 C 295.748 360.288,295.597 360.106,295.609 360.833 M316.719 360.698 C 318.544 360.772,321.424 360.772,323.119 360.697 C 324.814 360.622,323.320 360.561,319.800 360.562 C 316.280 360.562,314.894 360.624,316.719 360.698 M71.100 375.899 C 75.115 375.965,81.685 375.965,85.700 375.899 C 89.715 375.834,86.430 375.781,78.400 375.781 C 70.370 375.781,67.085 375.834,71.100 375.899 M314.900 375.899 C 318.365 375.966,324.035 375.966,327.500 375.899 C 330.965 375.833,328.130 375.778,321.200 375.778 C 314.270 375.778,311.435 375.833,314.900 375.899 M167.083 394.769 C 168.031 395.660,168.400 395.799,168.400 395.264 C 168.400 395.080,167.905 394.705,167.300 394.433 L 166.200 393.937 167.083 394.769 " stroke="none" fill="#484444" fill-rule="evenodd"></path><path id="path4" d="M260.873 39.800 C 260.622 40.350,260.483 40.800,260.563 40.800 C 260.643 40.800,261.003 40.350,261.363 39.800 C 261.724 39.250,261.863 38.800,261.673 38.800 C 261.484 38.800,261.123 39.250,260.873 39.800 M83.049 61.600 C 83.516 62.150,83.997 62.870,84.118 63.200 C 84.305 63.714,84.341 63.709,84.368 63.170 C 84.386 62.823,83.905 62.103,83.300 61.570 L 82.200 60.600 83.049 61.600 M72.400 71.888 C 73.417 73.178,74.141 73.607,73.770 72.700 C 73.658 72.425,73.079 71.844,72.483 71.410 L 71.400 70.620 72.400 71.888 M144.400 122.167 C 144.400 122.588,145.605 123.728,145.821 123.512 C 145.922 123.411,145.644 123.002,145.202 122.602 C 144.761 122.203,144.400 122.007,144.400 122.167 M183.969 122.764 C 183.623 123.147,183.207 123.807,183.046 124.231 C 182.885 124.654,182.901 124.820,183.082 124.600 C 183.264 124.380,183.846 123.705,184.376 123.100 C 184.906 122.495,185.173 122.015,184.970 122.033 C 184.766 122.052,184.316 122.380,183.969 122.764 M177.829 129.029 C 177.405 129.338,177.136 129.669,177.230 129.763 C 177.324 129.857,177.748 129.681,178.171 129.371 C 178.595 129.062,178.864 128.731,178.770 128.637 C 178.676 128.543,178.252 128.719,177.829 129.029 M131.600 130.226 C 131.600 130.635,134.400 133.334,134.607 133.125 C 134.676 133.056,134.297 132.495,133.766 131.878 C 133.235 131.260,132.794 130.900,132.787 131.078 C 132.780 131.255,132.510 131.051,132.187 130.624 C 131.864 130.196,131.600 130.018,131.600 130.226 M171.260 133.842 C 170.962 134.178,170.799 134.532,170.895 134.629 C 170.992 134.726,171.398 134.444,171.798 134.002 C 172.197 133.561,172.361 133.207,172.162 133.215 C 171.963 133.224,171.557 133.505,171.260 133.842 M164.748 141.737 C 164.993 142.032,165.060 142.421,164.897 142.601 C 164.733 142.780,164.915 142.814,165.300 142.676 C 165.685 142.538,166.000 142.599,166.000 142.813 C 166.000 143.026,166.223 143.200,166.496 143.200 C 166.769 143.200,166.507 142.750,165.913 142.200 C 164.770 141.140,163.998 140.833,164.748 141.737 M199.643 156.823 C 199.117 157.261,198.771 157.705,198.875 157.808 C 198.979 157.912,199.486 157.548,200.001 156.998 C 201.124 155.804,200.962 155.725,199.643 156.823 M326.728 191.100 C 332.518 191.162,341.878 191.162,347.528 191.100 C 353.178 191.037,348.440 190.986,337.000 190.986 C 325.560 190.986,320.938 191.037,326.728 191.100 M243.728 205.900 C 249.629 205.962,259.169 205.962,264.928 205.900 C 270.688 205.837,265.860 205.786,254.200 205.786 C 242.540 205.786,237.828 205.837,243.728 205.900 M346.400 292.200 C 346.122 292.535,346.079 292.800,346.302 292.800 C 346.522 292.800,346.926 292.530,347.200 292.200 C 347.478 291.865,347.521 291.600,347.298 291.600 C 347.078 291.600,346.674 291.870,346.400 292.200 M52.400 294.784 C 52.400 295.027,52.669 295.328,52.998 295.454 C 53.326 295.581,53.504 295.833,53.391 296.014 C 53.279 296.196,53.354 296.448,53.558 296.574 C 53.763 296.701,53.894 296.558,53.850 296.258 C 53.748 295.564,52.400 294.193,52.400 294.784 M325.456 318.678 C 325.061 319.073,325.154 319.676,325.570 319.419 C 325.773 319.293,326.022 319.507,326.123 319.895 C 326.267 320.445,326.317 320.408,326.354 319.724 C 326.402 318.814,325.902 318.232,325.456 318.678 M74.800 322.967 C 74.800 323.388,76.005 324.528,76.221 324.312 C 76.322 324.211,76.044 323.802,75.602 323.402 C 75.161 323.003,74.800 322.807,74.800 322.967 M220.000 324.563 C 220.000 324.643,220.450 325.003,221.000 325.363 C 221.550 325.724,222.000 325.863,222.000 325.673 C 222.000 325.484,221.550 325.123,221.000 324.873 C 220.450 324.622,220.000 324.483,220.000 324.563 M102.000 326.386 C 102.000 326.598,102.405 326.984,102.900 327.244 C 103.795 327.714,103.796 327.712,103.038 326.858 C 102.191 325.905,102.000 325.818,102.000 326.386 M228.109 336.000 C 228.109 336.990,228.187 337.395,228.282 336.900 C 228.378 336.405,228.378 335.595,228.282 335.100 C 228.187 334.605,228.109 335.010,228.109 336.000 M228.144 350.000 C 228.144 352.090,228.212 352.945,228.294 351.900 C 228.376 350.855,228.376 349.145,228.294 348.100 C 228.212 347.055,228.144 347.910,228.144 350.000 M76.122 360.699 C 78.499 360.770,82.279 360.769,84.522 360.698 C 86.765 360.627,84.820 360.569,80.200 360.569 C 75.580 360.570,73.745 360.628,76.122 360.699 M295.609 360.833 C 295.614 361.145,295.985 361.850,296.433 362.400 L 297.248 363.400 296.573 362.000 C 295.748 360.288,295.597 360.106,295.609 360.833 M316.719 360.698 C 318.544 360.772,321.424 360.772,323.119 360.697 C 324.814 360.622,323.320 360.561,319.800 360.562 C 316.280 360.562,314.894 360.624,316.719 360.698 M71.100 375.899 C 75.115 375.965,81.685 375.965,85.700 375.899 C 89.715 375.834,86.430 375.781,78.400 375.781 C 70.370 375.781,67.085 375.834,71.100 375.899 M314.900 375.899 C 318.365 375.966,324.035 375.966,327.500 375.899 C 330.965 375.833,328.130 375.778,321.200 375.778 C 314.270 375.778,311.435 375.833,314.900 375.899 M167.083 394.769 C 168.031 395.660,168.400 395.799,168.400 395.264 C 168.400 395.080,167.905 394.705,167.300 394.433 L 166.200 393.937 167.083 394.769 " stroke="none" fill="#484444" fill-rule="evenodd"></path></g></svg>