<?xml version="1.0" encoding="UTF-8"?>
<svg width="1500px" height="1500px" viewBox="0 0 1500 1500" version="1.1" xmlns="http://www.w3.org/2000/svg" xmlns:xlink="http://www.w3.org/1999/xlink">
    <!-- Generator: Sketch 51.2 (57519) - http://www.bohemiancoding.com/sketch -->
    <title>Group 6 Copy</title>
    <desc>Created with Sketch.</desc>
    <defs></defs>
    <g id="Page-1" stroke="none" stroke-width="1" fill="none" fill-rule="evenodd">
        <g id="Group-6-Copy" fill="#9B9B9B" fill-rule="nonzero">
            <g id="noun_Neutral_33189-Copy">
                <path d="M535.06813,499.854906 C499.451173,499.854906 470.590462,528.715982 470.590462,564.333388 C470.590462,599.950794 499.451173,628.81187 535.06813,628.81187 C570.666162,628.81187 599.545799,599.950794 599.545799,564.333388 C599.526874,528.715982 570.666162,499.854906 535.06813,499.854906 Z M975.018925,499.854906 C939.401968,499.854906 910.541257,528.715982 910.541257,564.333388 C910.541257,599.950794 939.401968,628.81187 975.018925,628.81187 C1010.63588,628.81187 1039.49659,599.950794 1039.49659,564.333388 C1039.49659,528.715982 1010.61696,499.854906 975.018925,499.854906 Z M749.981075,0 C336.411809,0 0,336.47283 0,750.028388 C0,1163.58395 336.411809,1500 749.981075,1500 C1163.55034,1500 1500,1163.58395 1500,750.028388 C1500,336.453904 1163.55034,0 749.981075,0 Z M749.981075,1449.48839 C364.288418,1449.48839 50.5299016,1135.70699 50.5299016,750.028388 C50.5299016,364.330865 364.307343,50.5116138 749.981075,50.5116138 C1135.67373,50.5116138 1449.48902,364.330865 1449.48902,750.028388 C1449.48902,1135.72591 1135.67373,1449.48839 749.981075,1449.48839 Z" id="Shape"></path>
            </g>
            <path d="M989.864356,959.217668 C984.783708,955.44709 978.533771,954.036021 972.495999,955.296356 C966.458227,956.55669 961.129817,960.384643 957.688534,965.934103 C950.078085,978.31753 879.464678,1085.99038 750.087045,1085.99038 C620.709413,1085.99038 550.096006,978.31753 542.485557,965.724215 C537.856456,958.225618 529.906729,953.986933 521.63096,954.604833 C513.355192,955.222733 506.010668,960.603344 502.364001,968.719841 C498.717333,976.836338 499.322537,986.455633 503.951638,993.95423 C513.199779,1008.85632 596.914718,1136.36364 750.087045,1136.36364 C903.259373,1136.36364 986.974312,1008.85632 996.029783,994.269062 C1003.17313,982.761351 1000.41464,967.125834 989.864356,959.322613 L989.864356,959.217668 Z" id="Shape"></path>
        </g>
    </g>
</svg>