<?xml version="1.0" encoding="UTF-8"?>
<svg width="1496px" height="1497px" viewBox="0 0 1496 1497" version="1.1" xmlns="http://www.w3.org/2000/svg" xmlns:xlink="http://www.w3.org/1999/xlink">
    <!-- Generator: Sketch 51.2 (57519) - http://www.bohemiancoding.com/sketch -->
    <title>noun_Neutral_33189 Copy 3</title>
    <desc>Created with Sketch.</desc>
    <defs></defs>
    <g id="Page-1" stroke="none" stroke-width="1" fill="none" fill-rule="evenodd">
        <g id="noun_Neutral_33189-Copy-3" transform="translate(-4.000000, -11.000000)" fill="#F5A623" fill-rule="nonzero">
            <path d="M537.66854,510.323584 C502.147568,510.323584 473.364633,539.106518 473.364633,574.62749 C473.364633,610.148463 502.147568,638.931397 537.66854,638.931397 C573.170638,638.931397 601.972446,610.148463 601.972446,574.62749 C601.953572,539.106518 573.170638,510.323584 537.66854,510.323584 Z M976.433705,510.323584 C940.912732,510.323584 912.129798,539.106518 912.129798,574.62749 C912.129798,610.148463 940.912732,638.931397 976.433705,638.931397 C1011.95468,638.931397 1040.73761,610.148463 1040.73761,574.62749 C1040.73761,539.106518 1011.9358,510.323584 976.433705,510.323584 Z M752.002312,11.8220339 C339.547581,11.8220339 4.04237288,347.383864 4.04237288,759.819722 C4.04237288,1172.25558 339.547581,1507.76079 752.002312,1507.76079 C1164.45704,1507.76079 1500,1172.25558 1500,759.819722 C1500,347.36499 1164.45704,11.8220339 752.002312,11.8220339 Z M752.002312,1457.38593 C367.349064,1457.38593 54.4361007,1144.4541 54.4361007,759.819722 C54.4361007,375.166473 367.367938,62.1968876 752.002312,62.1968876 C1136.65556,62.1968876 1449.62515,375.166473 1449.62515,759.819722 C1449.62515,1144.47297 1136.65556,1457.38593 752.002312,1457.38593 Z M907.654579,1003.34746 L622.284267,1003.34746 C608.823747,1003.34746 597.953192,1014.23625 597.953192,1027.67853 C597.953192,1041.13905 608.841987,1052.02785 622.284267,1052.02785 L907.672819,1052.02785 C921.133338,1052.02785 932.022133,1041.13905 932.022133,1027.67853 C932.003893,1014.23625 921.115099,1003.34746 907.654579,1003.34746 Z" id="Shape"></path>
        </g>
    </g>
</svg>