<svg id="Capa_2" data-name="Capa 2" xmlns="http://www.w3.org/2000/svg" viewBox="0 0 1500 1500"><title>Iconos_Bancomer_Expandidos</title><path d="M421.62,1237.05,378.67,1235c.19-3.85,5.06-95.24,53.27-187.53,28.71-55,66.85-98.76,113.36-130.17,58.06-39.22,128.89-58.8,210.49-58.27S908,879.82,965.72,919.25c46.3,31.6,84.15,75.32,112.51,129.94,47.66,91.77,52,182.1,52.11,185.9l-43,1.81c0-.83-4.26-85.75-48-169.13-25.12-47.93-58.3-86.11-98.62-113.46C890.36,920.09,828,902.49,755.5,902S620.64,918.49,570,952.46c-40.48,27.17-73.9,65.42-99.33,113.67C426.44,1150.11,421.67,1236.19,421.62,1237.05Z"/><path d="M882.61,1372.19c-208.49,0-478.45-.74-482.52-.75l-4.14,0-3.84-1.54c-2.23-.9-22.35-9.37-42.55-29.73C330.6,1321,308,1287.46,308,1236v-21.5h897.08l-1.88,23.23c-.1,1.27-2.64,31.42-13.74,62.12-21.12,58.36-55.28,71.14-80.23,71.58C1077.44,1372,987.86,1372.19,882.61,1372.19Zm-477.67-43.74c57.39.15,613.59,1.6,703.54,0,27.47-.49,42.06-41,48.32-70.94H352.91C361.23,1302.6,394.38,1323,404.94,1328.45Z"/><rect x="733.57" y="808.71" width="43" height="71.79" transform="translate(-13.31 12.09) rotate(-0.91)"/><rect x="713.49" y="787.22" width="85.46" height="43"/><path d="M749.18,602.45c-38.9,0-73.78-6.56-103.83-19.54A188.08,188.08,0,0,1,577.67,534c-31.39-35.86-38.81-72.9-39.11-74.46a21.34,21.34,0,0,1-.39-4.07V92.19a72,72,0,0,1,16.66-53.12c18.24-21.46,48.62-32.35,90.29-32.35H881c.42,0,.84,0,1.26,0A129.8,129.8,0,0,1,929,19.7c32.5,16.37,49.39,45.28,47.55,81.4-3.34,65.78,0,342.24,0,345a21.44,21.44,0,0,1-.35,4.16c-.29,1.55-7.37,38.46-38.27,75.41-28,33.55-81.95,74.07-179.43,76.64C755.36,602.41,752.25,602.45,749.18,602.45ZM581.17,453c1.71,6.55,9.15,30.86,30.21,54.24,32.67,36.26,81.79,53.79,146,52.1,64.45-1.69,113.65-21.76,146.23-59.65,21-24.38,28.25-48.94,29.92-55.58-.35-29.87-3.22-280.72.06-345.2.95-18.79-6.37-31.61-23-40.34C897.27,51.63,883,50,880.12,49.72h-235c-28.07,0-48,6-57.52,17.2a29.22,29.22,0,0,0-6.72,20.5,21.2,21.2,0,0,1,.29,3.47Z"/><path d="M963,302.67H547.13a21.49,21.49,0,0,1-21.38-23.75c.37-3.56,4.58-35.66,36.54-67,18.17-17.8,41.78-31.76,70.15-41.5,33.82-11.61,74.73-17.25,121.59-16.77,6.94-.36,52.22-2.11,100.79,9.57,73,17.57,117.69,56.85,129.26,113.61A21.49,21.49,0,0,1,963,302.67Zm-384.53-43H932.24c-14.88-25.71-43.89-43.94-86.62-54.38-45.5-11.11-89.37-8.65-89.81-8.62s-1,0-1.56,0c-72.44-.84-127.64,14.32-159.62,43.84A97.14,97.14,0,0,0,578.49,259.67Z"/><path d="M758.67,434.73c-6.71,0-13.48-.41-18.49-1.67-5.48-1.37-15.15-6-18.44-21.39a96.81,96.81,0,0,1-1.67-15.32c-.41-9.15-.27-21.49.42-36.68,1.15-25.27,3.4-49.81,3.49-50.84a21.5,21.5,0,0,1,42.82,3.93c-2.57,27.93-4.33,61.05-3.93,78.87,4.31-.13,9.12-.41,13.53-.83a21.5,21.5,0,0,1,4.07,42.81C775.81,434.05,767.28,434.73,758.67,434.73Zm5.16-31.87h0Z"/><path d="M378.25,1496.27c-34.79,0-72.38-2.89-110.77-5.84-18.15-1.4-36.92-2.84-55.13-3.93l-.76,0c-52.46-3.21-92.84-21.33-120-53.87C48.44,1381,56,1312.68,56.35,1309.79a21.3,21.3,0,0,1,.5-2.72c.37-1.47,37.52-148.55,77.12-297.36,81.22-305.23,92.82-319.59,99.05-327.3,8.75-10.83,27.16-22.38,145.08-34,66.52-6.55,144-11.1,195.3-14.11,15.13-.88,29.79-1.74,40.35-2.45.21-18.41-.39-50.32-1.33-78.08a21.5,21.5,0,0,1,43-1.47c0,.24.82,24.24,1.21,48.34.22,14.29.25,25.87.09,34.43-.3,16-.78,24.64-7.76,31.62-6.28,6.28-11.9,6.67-30.53,7.94-10.41.72-25.27,1.59-42.49,2.6-48.53,2.85-121.86,7.15-185.69,13.21-93.44,8.88-118.07,17.12-124.14,20-3,6.25-11.88,28.53-34.64,107.09-15.26,52.65-34.58,122.94-57.43,208.94C137.28,1164.67,103,1299.82,99,1316c-.61,7.84-2.9,55.19,25.81,89.27,15.18,18,37,29.84,65.08,35.26-1-17.19-1.94-41-1.37-66.46,1.57-70.38,13.36-115.15,36-136.86A52.57,52.57,0,0,1,270,1222.7c23.74,3.49,42.68,15.2,54.76,33.86,12.42,19.18,17.51,45.07,15.13,77-.34,4.63-.83,9-1.38,13.16H534.6a21.51,21.51,0,0,1,21.5,21.67c-.32,38.13-12.17,68.21-35.23,89.39C487.91,1488,437.11,1496.27,378.25,1496.27Zm-145-51.51c12.6.88,25.23,1.85,37.57,2.8,89.64,6.89,182.33,14,221-21.5,9.87-9.07,16.25-21.08,19.28-36.39H312.41a21.5,21.5,0,0,1-20.68-27.35c4.2-15.09,11.87-59.37-3.13-82.45-5.38-8.27-13.29-12.92-24.89-14.63a10,10,0,0,0-9.47,3c-6.27,6-21,28.42-22.78,106.77C230.85,1402.49,232.1,1428.32,233.21,1444.76Zm31.41-733.51Zm2.43-2.61Z"/><path d="M425,1117.5h0l-291.47-.34a21.5,21.5,0,0,1,0-43h0l291.48.34a21.5,21.5,0,0,1,0,43Z"/><path d="M1135.17,1495.13c-58.86,0-109.66-8.27-142.61-38.54-23.07-21.18-34.92-51.26-35.24-89.39a21.51,21.51,0,0,1,21.5-21.67h196.12c-.55-4.11-1-8.53-1.38-13.16-2.38-31.88,2.71-57.77,15.13-76.95,12.08-18.66,31-30.37,54.77-33.86a52.55,52.55,0,0,1,45.46,14.5c22.68,21.71,34.46,66.48,36,136.86.57,25.44-.34,49.27-1.37,66.46,28.08-5.42,49.91-17.23,65.09-35.26,28.64-34,26.42-81.24,25.8-89.28-4.1-16.23-38.35-151.38-75.06-289.54-22.85-86-42.18-156.27-57.43-208.91-22.76-78.55-31.6-100.83-34.64-107.08-6.06-2.9-30.7-11.14-124.13-20-63.83-6.06-137.17-10.36-185.69-13.21-17.22-1-32.09-1.88-42.5-2.6-18.62-1.27-24.25-1.66-30.53-7.94-7-7-7.46-15.64-7.76-31.62-.16-8.56-.13-20.14.1-34.43.38-24.1,1.19-48.1,1.2-48.34a21.5,21.5,0,0,1,43,1.47c-.94,27.76-1.54,59.67-1.33,78.08,10.57.71,25.23,1.57,40.36,2.45,51.28,3,128.78,7.56,195.29,14.12,117.93,11.62,136.33,23.17,145.08,34,6.23,7.71,17.83,22.07,99,327.3,39.6,148.81,76.75,295.9,77.12,297.36a21.33,21.33,0,0,1,.51,2.72c.34,2.89,7.91,71.22-35.21,122.79-27.2,32.54-67.58,50.66-120,53.87l-.75,0c-18.22,1.09-37,2.53-55.14,3.93C1207.56,1492.24,1170,1495.13,1135.17,1495.13Zm-132.8-106.6c3,15.31,9.4,27.32,19.27,36.39,38.67,35.51,131.36,28.39,221,21.5,12.34-1,25-1.92,37.56-2.8,1.12-16.54,2.38-42.59,1.74-70.15-1.79-78-16.52-100.37-22.77-106.36a10,10,0,0,0-9.47-3c-11.62,1.71-19.54,6.38-24.92,14.69-15,23.15-7.06,68.37-3.09,82.39a21.5,21.5,0,0,1-20.69,27.35ZM1248.8,710.11h0Zm-2.42-2.61ZM900.29,644.84h0Z"/><path d="M1077,1116.5a21.5,21.5,0,0,1,0-43l302.9-.48h0a21.5,21.5,0,0,1,0,43l-302.91.48Z"/></svg>