<?xml version="1.0" encoding="UTF-8"?>
<svg width="1496px" height="1497px" viewBox="0 0 1496 1497" version="1.1" xmlns="http://www.w3.org/2000/svg" xmlns:xlink="http://www.w3.org/1999/xlink">
    <!-- Generator: Sketch 51.2 (57519) - http://www.bohemiancoding.com/sketch -->
    <title>noun_Neutral_33189 Copy 3</title>
    <desc>Created with Sketch.</desc>
    <defs></defs>
    <g id="Page-1" stroke="none" stroke-width="1" fill="none" fill-rule="evenodd">
        <g id="noun_Neutral_33189-Copy-3" transform="translate(-4.000000, -11.000000)" fill="#9B9B9B" fill-rule="nonzero">
            <path d="M537.66854,510.323584 C502.147568,510.323584 473.364633,539.106518 473.364633,574.62749 C473.364633,610.148463 502.147568,638.931397 537.66854,638.931397 C573.170638,638.931397 601.972446,610.148463 601.972446,574.62749 C601.953572,539.106518 573.170638,510.323584 537.66854,510.323584 Z M976.433705,510.323584 C940.912732,510.323584 912.129798,539.106518 912.129798,574.62749 C912.129798,610.148463 940.912732,638.931397 976.433705,638.931397 C1011.95468,638.931397 1040.73761,610.148463 1040.73761,574.62749 C1040.73761,539.106518 1011.9358,510.323584 976.433705,510.323584 Z M752.002312,11.8220339 C339.547581,11.8220339 4.04237288,347.383864 4.04237288,759.819722 C4.04237288,1172.25558 339.547581,1507.76079 752.002312,1507.76079 C1164.45704,1507.76079 1500,1172.25558 1500,759.819722 C1500,347.36499 1164.45704,11.8220339 752.002312,11.8220339 Z M752.002312,1457.38593 C367.349064,1457.38593 54.4361007,1144.4541 54.4361007,759.819722 C54.4361007,375.166473 367.367938,62.1968876 752.002312,62.1968876 C1136.65556,62.1968876 1449.62515,375.166473 1449.62515,759.819722 C1449.62515,1144.47297 1136.65556,1457.38593 752.002312,1457.38593 Z M483.500277,1071.70405 C488.580926,1075.16529 494.830862,1076.4606 500.868634,1075.30366 C506.906407,1074.14672 512.234816,1070.63281 515.6761,1065.53862 C523.286549,1054.17111 593.899955,955.331612 723.277588,955.331612 C852.655221,955.331612 923.268627,1054.17111 930.879076,1065.73129 C935.508177,1072.61471 943.457904,1076.50566 951.733673,1075.93845 C960.009441,1075.37124 967.353965,1070.43205 971.000632,1062.98142 C974.6473,1055.53079 974.042096,1046.70065 969.412995,1039.81723 C960.164854,1026.13769 876.449915,909.090909 723.277588,909.090909 C570.10526,909.090909 486.390321,1026.13769 477.33485,1039.52822 C470.191498,1050.09186 472.949994,1064.44466 483.500277,1071.60771 L483.500277,1071.70405 Z" id="Shape"></path>
        </g>
    </g>
</svg>