<?xml version="1.0" standalone="no"?>
<!DOCTYPE svg PUBLIC "-//W3C//DTD SVG 1.1//EN" "http://www.w3.org/Graphics/SVG/1.1/DTD/svg11.dtd" >
<svg xmlns="http://www.w3.org/2000/svg" xmlns:xlink="http://www.w3.org/1999/xlink" version="1.1">
<metadata>
Created by FontForge 20170731 at Mon May  7 12:31:06 2007
 By Aleksey,,,
Copyright (c) 1991, 1993, 1996, 1997, 1998, 1999 Adobe Systems Incorporated.  All Rights Reserved.Arial is a trademark of The Monotype Corporation. registered in the US Patent and Trademark Office and elsewhere.
</metadata>
<defs>
<font id="Arial-BoldMT" horiz-adv-x="556" >
  <font-face 
    font-family="Arial MT"
    font-weight="700"
    font-stretch="normal"
    units-per-em="1000"
    panose-1="0 0 0 0 0 0 0 0 0 0"
    ascent="800"
    descent="-200"
    x-height="518"
    cap-height="716"
    bbox="-167 -250 1006 939"
    underline-thickness="50"
    underline-position="-200"
    unicode-range="U+0020-FB02"
  />
<missing-glyph horiz-adv-x="278" 
 />
    <glyph glyph-name=".notdef" horiz-adv-x="278" 
 />
    <glyph glyph-name=".null" horiz-adv-x="0" 
 />
    <glyph glyph-name="nonmarkingreturn" horiz-adv-x="333" 
 />
    <glyph glyph-name="space" unicode=" " horiz-adv-x="278" 
d="M182 0z" />
    <glyph glyph-name="exclam" unicode="!" horiz-adv-x="333" 
d="M95 0v137h137v-137h-137zM238 716v-168l-35 -363h-78l-36 363v168h149z" />
    <glyph glyph-name="quotedbl" unicode="&#x22;" horiz-adv-x="474" 
d="M304 461l-26 134v121h150v-121l-23 -134h-101zM73 461l-26 134v121h150v-121l-23 -134h-101z" />
    <glyph glyph-name="numbersign" unicode="#" 
d="M186 177l-38 -189h-110l38 189h-66v109h88l29 144h-117v109h139l39 189h109l-38 -189h107l38 189h113l-39 -189h68v-109h-90l-29 -144h119v-109h-141l-39 -189h-109l38 189h-109zM345 430h-108l-29 -144h108z" />
    <glyph glyph-name="dollar" unicode="$" 
d="M244 106v204q-185 52 -185 218q0 85 53 137t132 60v49h71v-49q156 -19 182 -170l-124 -16q-10 57 -58 78v-191q32 -9 50.5 -15t51.5 -23t52 -37t34 -55.5t15 -80.5q0 -23 -4.5 -47t-18 -53.5t-35 -53.5t-59 -43.5t-86.5 -26.5v-91h-71v89q-175 21 -205 212l128 14
q15 -78 77 -109zM315 290v-191q39 7 60.5 35.5t21.5 62.5q0 70 -82 93zM244 450v168q-31 -10 -47.5 -33.5t-16.5 -50.5q0 -57 64 -84z" />
    <glyph glyph-name="percent" unicode="%" horiz-adv-x="889" 
d="M152 540q0 -57 11 -84t39 -27t39 26.5t11 84.5q0 57 -11 84t-39 27q-27 0 -38.5 -27t-11.5 -84zM45 537q0 23 2.5 44t12 49.5t25.5 48.5t46.5 34.5t70.5 14.5q157 0 157 -189q0 -30 -5 -56.5t-19 -59t-47.5 -52t-83.5 -19.5q-86 0 -122.5 51.5t-36.5 133.5zM307 -27h-102
l382 755h98zM528 158q0 31 5 58t19.5 60t49 53t84.5 20q156 0 156 -189q0 -187 -155 -187q-86 0 -122.5 51.5t-36.5 133.5zM635 161q0 -57 11 -84t39 -27t39 26.5t11 84.5q0 57 -11 84t-39 27t-39 -26.5t-11 -84.5z" />
    <glyph glyph-name="ampersand" unicode="&#x26;" horiz-adv-x="722" 
d="M707 88l-83 -107q-58 28 -117 83q-84 -77 -208 -77q-62 0 -110.5 16.5t-74.5 40.5t-42.5 54.5t-21.5 54t-5 43.5q0 138 164 220q-74 84 -74 157q0 67 54 111t146 44q90 0 144 -46.5t54 -116.5q0 -52 -32 -90.5t-99 -80.5l100 -132q19 36 30 82l124 -28q-30 -108 -62 -147
q23 -22 59 -47.5t54 -33.5zM420 155l-140 173q-94 -49 -94 -127q0 -41 27.5 -70.5t79.5 -29.5q60 0 127 54zM300 515l31 -36q40 25 49 33q32 26 32 56q0 24 -18.5 43.5t-55.5 19.5q-32 0 -50.5 -16.5t-18.5 -37.5q0 -6 2 -13t5.5 -13.5t7.5 -13t7 -10.5l6 -8z" />
    <glyph glyph-name="quotesingle" unicode="'" horiz-adv-x="238" 
d="M70 461l-26 134v121h150v-121l-23 -134h-101z" />
    <glyph glyph-name="parenleft" unicode="(" horiz-adv-x="333" 
d="M299 -210h-94q-153 231 -153 470q0 245 155 468h93q-59 -131 -87.5 -236t-28.5 -236q0 -217 112 -460q3 -3 3 -6z" />
    <glyph glyph-name="parenright" unicode=")" horiz-adv-x="333" 
d="M34 728h94q153 -231 153 -470q0 -245 -155 -468h-93q59 131 87.5 236t28.5 236q0 217 -112 460q-3 3 -3 6z" />
    <glyph glyph-name="asterisk" unicode="*" horiz-adv-x="389" 
d="M123 387l-74 57q11 13 47 51l45 43q-23 5 -42 9q-16 5 -39 10q-32 8 -43 12l28 86q64 -26 115 -57q-12 73 -12 130h87q0 -37 -13 -131l42 19q7 5 81 35l26 -89q-63 -14 -126 -24l2 -2q3 -4 4 -4q9 -12 22 -25l20 -23l7 -7q20 -23 31 -37l-74 -50l-6 10q-13 20 -36 59
q-12 19 -24 40q-1 -1 -5.5 -8.5t-10.5 -18.5q-3 -6 -5 -8l-21 -35l-21 -34q-5 -5 -5 -8z" />
    <glyph glyph-name="plus" unicode="+" horiz-adv-x="584" 
d="M228 103v187h-187v126h187v187h126v-187h188v-126h-188v-187h-126z" />
    <glyph glyph-name="comma" unicode="," horiz-adv-x="278" 
d="M68 137h137v-98q0 -33 -2.5 -53t-12.5 -51.5t-37 -55t-70 -39.5l-27 57q15 5 23.5 9.5t23.5 15.5t22.5 31t8.5 47h-66v137z" />
    <glyph glyph-name="hyphen" unicode="-" horiz-adv-x="333" 
d="M32 191v137h269v-137h-269z" />
    <glyph glyph-name="period" unicode="." horiz-adv-x="278" 
d="M71 0v137h137v-137h-137z" />
    <glyph glyph-name="slash" unicode="/" horiz-adv-x="278" 
d="M0 -24l175 740h103l-177 -740h-101z" />
    <glyph glyph-name="zero" unicode="0" 
d="M277 719q147 0 202 -145q31 -86 31 -221q0 -134 -31 -217q-54 -148 -201 -148q-149 0 -203 146q-30 80 -30 221q0 136 30 218q55 146 202 146zM277 605q-49 0 -68.5 -55t-19.5 -197t19.5 -196.5t68.5 -54.5q50 0 69.5 55t19.5 196q0 142 -19.5 197t-69.5 55z" />
    <glyph glyph-name="one" unicode="1" 
d="M396 0h-138v517q-76 -71 -177 -104v124q13 5 33 14.5t56 31.5t67.5 58t46.5 78h112v-719z" />
    <glyph glyph-name="two" unicode="2" 
d="M508 128v-128h-481q8 78 52 144.5t149 164.5q83 77 112.5 115t30.5 86q0 30 -10.5 51t-27.5 29.5t-29.5 11.5t-25.5 3q-90 0 -98 -112l-137 14q13 108 71 158q65 54 167 54q59 0 105 -18.5t71.5 -48.5t38 -63.5t12.5 -69.5t-11 -71t-25 -60t-39 -55t-41.5 -45.5
t-44.5 -41.5q-43 -40 -58 -54.5t-30 -31t-24 -32.5h273z" />
    <glyph glyph-name="three" unicode="3" 
d="M39 190l133 16q5 -43 30.5 -73.5t71.5 -30.5q49 0 74.5 36t25.5 83q0 46 -25.5 79t-69.5 33q-31 0 -63 -10l15 111q46 -1 80 21.5t34 71.5q0 35 -21.5 56.5t-57.5 21.5q-32 0 -58 -22t-32 -73l-127 22q5 23 9 38t20.5 46.5t38 51t61.5 35.5t92 16q97 0 154.5 -57
t57.5 -127q0 -33 -11.5 -60.5t-30.5 -45.5t-32.5 -27t-27.5 -16v-2q62 -13 98.5 -58.5t36.5 -110.5q0 -97 -69.5 -162t-170.5 -65q-103 0 -164.5 59t-71.5 143z" />
    <glyph glyph-name="four" unicode="4" 
d="M314 0v144h-294v120l311 454h115v-453h89v-121h-89v-144h-132zM149 265h165v244h-2z" />
    <glyph glyph-name="five" unicode="5" 
d="M46 186l137 14q7 -50 35 -74t66 -24q42 0 72.5 34.5t30.5 105.5q0 57 -25.5 92.5t-81.5 35.5q-58 0 -106 -53l-111 16l70 373h363v-128h-259l-21 -122q41 23 93 23q93 0 156 -67t63 -172q0 -96 -64.5 -174t-180.5 -78q-96 0 -160 52.5t-77 145.5z" />
    <glyph glyph-name="six" unicode="6" 
d="M509 541l-132 -15q-9 79 -80 79q-20 0 -36 -7.5t-27 -18.5t-19 -29.5t-12.5 -33t-8 -38t-5 -36.5t-2.5 -35l2 -2q48 59 125 59q87 0 148 -65t61 -169q0 -107 -63.5 -174.5t-166.5 -67.5q-28 0 -55 6.5t-59.5 22.5t-60.5 51t-46 85q-27 77 -27 196q0 23 0.5 41.5t5.5 59.5
t14 72.5t28.5 70.5t46.5 64.5t69.5 43.5t96.5 18q109 0 165 -78q30 -42 38 -100zM199 242q0 -57 27 -98.5t74 -41.5q30 0 50 16t27 42t9 40t2 30q0 11 -0.5 21t-5.5 32.5t-14 38.5t-28.5 29t-46.5 13q-11 0 -23 -3.5t-30 -14t-29.5 -37.5t-11.5 -67z" />
    <glyph glyph-name="seven" unicode="7" 
d="M44 578v128h470v-99q-97 -96 -169.5 -271t-71.5 -336h-133q4 158 65.5 312t151.5 266h-313z" />
    <glyph glyph-name="eight" unicode="8" 
d="M162 386q-100 43 -100 148q0 77 53.5 131t160.5 54q106 0 160 -54t54 -131q0 -104 -98 -148q122 -50 122 -175q0 -103 -65.5 -163t-166.5 -60t-170.5 57t-69.5 159q0 64 31 110.5t89 71.5zM190 524q0 -28 10 -47t26 -27t28 -10.5t22 -2.5q11 0 23 3t27.5 11t25.5 27
t10 47q0 40 -24 62t-61 22q-43 0 -65 -25t-22 -60zM179 218q0 -59 30 -89.5t70 -30.5q37 0 67.5 27t30.5 91q0 44 -25.5 77.5t-74.5 33.5q-29 0 -49.5 -12.5t-30.5 -31.5t-14 -35t-4 -30z" />
    <glyph glyph-name="nine" unicode="9" 
d="M47 166l132 15q9 -79 80 -79q20 0 36 7.5t27 18.5t19 29.5t12.5 33t8 38t5 36.5t2.5 35l-2 2q-48 -59 -125 -59q-87 0 -148 65t-61 169q0 107 63.5 174.5t166.5 67.5q28 0 55 -6.5t59.5 -22.5t60.5 -51t46 -85q27 -77 27 -196q0 -23 -0.5 -41.5t-5.5 -59.5t-14 -72.5
t-28.5 -70.5t-46.5 -64.5t-69.5 -43.5t-96.5 -18q-109 0 -165 78q-30 42 -38 100zM357 465q0 57 -27 98.5t-74 41.5q-30 0 -50 -16t-27 -42t-9 -40.5t-2 -29.5q0 -11 0.5 -21t5.5 -32.5t14 -38.5t28.5 -29t46.5 -13q11 0 23 3.5t30 14t29.5 37.5t11.5 67z" />
    <glyph glyph-name="colon" unicode=":" horiz-adv-x="333" 
d="M98 0v137h137v-137h-137zM98 381v137h137v-137h-137z" />
    <glyph glyph-name="semicolon" unicode=";" horiz-adv-x="333" 
d="M98 137h137v-98q0 -33 -2.5 -53t-12.5 -51.5t-37 -55t-70 -39.5l-27 57q15 5 23.5 9.5t23.5 15.5t22.5 31t8.5 47h-66v137zM98 381v137h137v-137h-137z" />
    <glyph glyph-name="less" unicode="&#x3c;" horiz-adv-x="584" 
d="M538 624v-138l-343 -135l343 -133v-137l-492 212v117z" />
    <glyph glyph-name="equal" unicode="=" horiz-adv-x="584" 
d="M41 182v126h501v-126h-501zM41 399v126h501v-126h-501z" />
    <glyph glyph-name="greater" unicode="&#x3e;" horiz-adv-x="584" 
d="M46 81v138l343 135l-343 133v137l492 -212v-117z" />
    <glyph glyph-name="question" unicode="?" horiz-adv-x="611" 
d="M176 498l-126 16q5 83 71.5 146t184.5 63q112 0 185 -59.5t73 -145.5q0 -51 -30 -92.5t-106 -104.5q-42 -34 -53 -55t-11 -62q0 -12 1 -19h-125q-2 80 14.5 122t84.5 97q57 46 74 66.5t17 50.5q0 46 -35.5 71.5t-83.5 25.5q-110 0 -135 -120zM240 0v137h137v-137h-137z
" />
    <glyph glyph-name="at" unicode="@" horiz-adv-x="975" 
d="M866 9h103q-30 -62 -80 -106.5t-109.5 -68t-118 -34t-120.5 -10.5q-60 0 -117 8t-123 29.5t-123 67t-93 111.5q-57 105 -57 230q0 70 17.5 137.5t56.5 132.5t95.5 113.5t142 78.5t188.5 30q193 0 304.5 -107.5t111.5 -268.5q0 -63 -23 -125.5t-63.5 -113t-102.5 -82
t-134 -31.5q-34 0 -54.5 11t-25.5 20.5t-9 24.5q-56 -56 -133 -56q-86 0 -136.5 59t-50.5 146q0 73 28.5 145t91 125.5t144.5 53.5q87 0 129 -66l12 54h128l-73 -350q-7 -33 -7 -43q0 -24 19 -24q46 0 108.5 76.5t62.5 180.5q0 36 -9 72t-33 75t-60 68t-94.5 48t-132.5 19
q-97 0 -172.5 -30t-118.5 -74t-71 -102t-37.5 -107.5t-9.5 -96.5q0 -49 12 -96t42 -94t75 -81.5t118.5 -56.5t165.5 -22q232 0 336 130zM338 210q0 -50 20.5 -85.5t66.5 -35.5q40 0 72 27.5t48.5 67.5t24.5 77.5t8 65.5q0 15 -3.5 31t-12 36t-28 33t-47.5 13
q-40 0 -70.5 -25.5t-46.5 -64t-24 -74.5t-8 -66z" />
    <glyph glyph-name="A" unicode="A" horiz-adv-x="722" 
d="M720 0h-158l-62 162h-286l-59 -162h-154l279 716h153zM258 283h196l-99 266z" />
    <glyph glyph-name="B" unicode="B" horiz-adv-x="722" 
d="M75 716h286q82 0 126 -7t76 -30q77 -55 77 -143q0 -49 -26.5 -91.5t-74.5 -63.5q43 -13 72.5 -36t42 -50t17 -47t4.5 -40q0 -57 -30.5 -110t-85.5 -77q-31 -13 -77 -17t-163 -4h-244v716zM303 595h-84v-164h157q123 0 123 82q0 26 -14 47.5t-40 28.5q-21 6 -142 6z
M336 310h-117v-189h134q92 0 114 8q59 21 59 83q0 21 -6 36.5t-13.5 26t-24 17.5t-29 10.5t-36.5 5t-38 2t-43 0.5z" />
    <glyph glyph-name="C" unicode="C" horiz-adv-x="722" 
d="M532 263l140 -44q-5 -18 -9 -31t-15.5 -39t-25 -45t-37 -42.5t-51.5 -38t-69.5 -25t-89.5 -10.5q-147 0 -236.5 99t-89.5 265q0 77 20 143t59.5 119t104.5 83.5t150 30.5q136 0 219 -82q45 -45 68 -128l-143 -34q-13 57 -53.5 88.5t-97.5 31.5q-42 0 -74.5 -14t-51 -39.5
t-30 -49.5t-16 -56.5t-5.5 -47.5t-1 -35q0 -122 38 -180q46 -70 138 -70q123 0 158 151z" />
    <glyph glyph-name="D" unicode="D" horiz-adv-x="722" 
d="M75 716h264q34 0 53.5 -1t55.5 -7t61 -18t54.5 -36t51.5 -59q60 -95 60 -244q0 -172 -91 -271q-73 -80 -238 -80h-271v716zM284 595h-65v-474h108q34 0 54 1.5t46.5 8.5t41.5 22t29.5 40.5t21 66.5t6.5 97q0 50 -7 88t-16 63.5t-29 42.5t-35 25.5t-46.5 13t-50.5 5
t-58 0.5z" />
    <glyph glyph-name="E" unicode="E" horiz-adv-x="667" 
d="M75 0v716h531v-121h-387v-159h360v-121h-360v-194h400v-121h-544z" />
    <glyph glyph-name="F" unicode="F" horiz-adv-x="611" 
d="M75 0v716h491v-121h-347v-170h300v-121h-300v-304h-144z" />
    <glyph glyph-name="G" unicode="G" horiz-adv-x="778" 
d="M400 263v121h311v-285q-40 -39 -124.5 -75t-181.5 -36q-93 0 -165 31.5t-114 84.5t-63 118t-21 138q0 69 19.5 132t60 117t111.5 86.5t164 32.5q258 0 305 -210l-144 -27q-10 35 -30 59t-45 35t-45 15t-40 4q-113 0 -168 -80q-39 -58 -39 -158q0 -45 9 -85.5t30 -80.5
t63.5 -64t102.5 -24q91 0 169 61v90h-165z" />
    <glyph glyph-name="H" unicode="H" horiz-adv-x="722" 
d="M75 0v716h144v-282h283v282h144v-716h-144v313h-283v-313h-144z" />
    <glyph glyph-name="I" unicode="I" horiz-adv-x="278" 
d="M67 0v716h144v-716h-144z" />
    <glyph glyph-name="J" unicode="J" 
d="M333 716h144v-452q0 -128 -39 -186q-60 -90 -198 -90q-216 0 -222 234l137 18q6 -66 19 -89q21 -39 71 -39q25 0 42.5 9t26.5 20t13.5 33.5t5 37t0.5 42.5v462z" />
    <glyph glyph-name="K" unicode="K" horiz-adv-x="722" 
d="M75 0v716h144v-318l293 318h194l-269 -279l284 -437h-187l-197 336l-118 -120v-216h-144z" />
    <glyph glyph-name="L" unicode="L" horiz-adv-x="611" 
d="M75 0v716h144v-595h360v-121h-504z" />
    <glyph glyph-name="M" unicode="M" horiz-adv-x="833" 
d="M71 0v716h216l129 -488h2l127 488h217v-716h-134v564h-2l-139 -564h-139l-141 564h-2v-564h-134z" />
    <glyph glyph-name="N" unicode="N" horiz-adv-x="722" 
d="M78 0v716h140l291 -478h2v478h134v-716h-145l-286 467h-2v-467h-134z" />
    <glyph glyph-name="O" unicode="O" horiz-adv-x="778" 
d="M43 354q0 174 90.5 274t255.5 100q169 0 258 -103t89 -268q0 -73 -19 -137t-58.5 -117t-108 -84t-159.5 -31q-78 0 -139.5 22.5t-99.5 58.5t-63.5 85t-35.5 98t-10 102zM192 358q0 -95 36 -156q21 -37 62 -63.5t100 -26.5q26 0 50 5.5t51.5 22.5t48 43t34 72t13.5 105
q0 29 -3.5 57t-15.5 63.5t-32.5 61.5t-58 44t-87.5 18q-58 0 -99.5 -23t-61.5 -61.5t-28.5 -78t-8.5 -83.5z" />
    <glyph glyph-name="P" unicode="P" horiz-adv-x="667" 
d="M75 0v716h232q95 0 135 -4.5t68 -17.5q45 -22 79 -69.5t34 -128.5q0 -146 -117 -201q-53 -25 -192 -25h-95v-270h-144zM289 595h-70v-204h80q25 0 39 0.5t38.5 3t38.5 9.5t29.5 17.5t22.5 29t7 43.5q0 47 -33 73q-22 19 -50.5 23.5t-101.5 4.5z" />
    <glyph glyph-name="Q" unicode="Q" horiz-adv-x="778" 
d="M763 30l-53 -102q-35 11 -60.5 25.5t-72.5 46.5q-3 2 -9.5 6.5t-11 7.5t-6.5 4q-72 -30 -156 -30q-93 0 -163 30t-110 83t-59 117t-19 140q0 172 91 271t256 99q168 0 257 -101.5t89 -268.5q0 -74 -18 -135t-33 -83.5t-37 -48.5q58 -40 115 -61zM355 163l40 83
q69 -24 137 -74q55 66 55 186q0 34 -4.5 65t-18 65t-34.5 59t-57.5 41t-83.5 16q-53 0 -92.5 -21.5t-59 -49.5t-30.5 -67t-13 -62t-2 -46q0 -60 14 -106t35 -71.5t49 -42t52 -21.5t49 -5q23 0 53 6q-39 27 -89 45z" />
    <glyph glyph-name="R" unicode="R" horiz-adv-x="722" 
d="M75 0v716h304q107 0 164 -18q58 -22 87.5 -73.5t29.5 -109.5q0 -60 -28.5 -107.5t-80.5 -68.5q-40 -18 -80 -22v-2q47 -27 77.5 -59.5t82.5 -115.5l87 -140h-173l-104 156q-50 74 -70 97.5t-46 34.5t-77 11h-29v-299h-144zM219 595v-182h107q105 0 130 9q55 19 55 84
q0 51 -37 73q-19 11 -42 13.5t-100 2.5h-113z" />
    <glyph glyph-name="S" unicode="S" horiz-adv-x="667" 
d="M43 233l140 13q3 -17 6 -29t14.5 -34.5t26.5 -36.5t43.5 -25.5t65.5 -11.5q70 0 105.5 30t35.5 69q0 42 -35.5 60t-146.5 45q-23 6 -36 9.5t-40 13.5t-44.5 19.5t-40 27t-36 37t-23 47.5t-9.5 61q0 26 6.5 51t25 53t46.5 48.5t75.5 34t107.5 13.5q55 0 101.5 -11.5
t85.5 -36t62 -67.5t25 -102l-145 -6q-3 20 -7.5 33t-17 32t-39.5 29t-67 10q-26 0 -51 -5t-47.5 -22t-22.5 -44q0 -33 35 -52.5t125 -40.5q32 -8 49 -12.5t48.5 -15t50 -21t42 -29t36.5 -40t22 -52t9 -67.5q0 -63 -34 -114.5t-83 -73.5q-68 -32 -169 -32q-266 0 -295 245z
" />
    <glyph glyph-name="T" unicode="T" horiz-adv-x="611" 
d="M234 0v595h-212v121h568v-121h-212v-595h-144z" />
    <glyph glyph-name="U" unicode="U" horiz-adv-x="722" 
d="M75 716h144v-387q0 -73 3 -101.5t15 -52.5q33 -63 127 -63q29 0 51 6t36.5 13.5t24.5 25t15 30.5t7.5 40t3 43.5t0.5 50.5v395h144v-376q0 -105 -7.5 -160t-32.5 -93q-64 -99 -238 -99q-84 0 -142.5 22t-87.5 50t-44 83t-17 89.5t-2 101.5v382z" />
    <glyph glyph-name="V" unicode="V" horiz-adv-x="667" 
d="M255 0l-255 716h157l179 -530h2l175 530h153l-256 -716h-155z" />
    <glyph glyph-name="W" unicode="W" horiz-adv-x="944" 
d="M173 0l-171 716h148l107 -492h2l130 492h172l125 -500h2l108 500h146l-174 -716h-154l-141 535h-2l-141 -535h-157z" />
    <glyph glyph-name="X" unicode="X" horiz-adv-x="667" 
d="M0 0l245 374l-222 342h169l144 -230l140 230h168l-223 -348l245 -368h-174l-159 247l-159 -247h-174z" />
    <glyph glyph-name="Y" unicode="Y" horiz-adv-x="667" 
d="M261 0v301l-262 415h169l168 -283l166 283h166l-263 -416v-300h-144z" />
    <glyph glyph-name="Z" unicode="Z" horiz-adv-x="611" 
d="M15 0v130l376 465h-334v121h524v-113l-392 -482h407v-121h-581z" />
    <glyph glyph-name="bracketleft" unicode="[" horiz-adv-x="333" 
d="M71 -202v918h243v-108h-112v-702h112v-108h-243z" />
    <glyph glyph-name="backslash" unicode="\" horiz-adv-x="278" 
d="M103 716l175 -740h-101l-177 740h103z" />
    <glyph glyph-name="bracketright" unicode="]" horiz-adv-x="333" 
d="M262 716v-918h-243v108h112v702h-112v108h243z" />
    <glyph glyph-name="asciicircum" unicode="^" horiz-adv-x="584" 
d="M56 326l184 390h109l179 -390h-139l-97 239l-96 -239h-140z" />
    <glyph glyph-name="underscore" unicode="_" 
d="M-6 -125v50h512v-50h-512z" />
    <glyph glyph-name="grave" unicode="`" horiz-adv-x="333" 
d="M173 728l68 -146h-87l-134 146h153z" />
    <glyph glyph-name="a" unicode="a" 
d="M176 360l-124 23q20 71 68.5 109t155.5 38q63 0 106.5 -12.5t65 -28.5t33 -46.5t13 -50.5t1.5 -57q0 -11 -0.5 -60t-0.5 -83v-58q3 -77 30 -134h-135q-6 14 -10 29l-8 28q-69 -69 -161 -69q-78 0 -125 42.5t-47 110.5q0 36 14 64.5t31 44t47.5 28t48.5 17t48 10.5
q94 17 133 33v14q0 17 -2 26.5t-9.5 22t-28.5 18.5t-54 6q-24 0 -41 -6t-26.5 -17.5t-13.5 -19.5t-9 -22zM360 222v27q-24 -9 -58 -16q-30 -4 -47 -10q-80 -16 -80 -67q0 -26 20 -48.5t56 -22.5q43 0 80 32q14 12 20.5 29.5t7.5 31.5t1 44z" />
    <glyph glyph-name="b" unicode="b" horiz-adv-x="611" 
d="M68 0v716h137v-258q63 72 151 72q93 0 155.5 -68t62.5 -198q0 -132 -63.5 -204t-153.5 -72q-35 0 -79.5 19t-79.5 69h-2v-76h-128zM204 271q0 -56 10.5 -88.5t35.5 -56.5q30 -29 74 -29q43 0 76 37t33 124q0 21 -2 40t-9 43.5t-19 42t-33.5 29.5t-50.5 12
q-51 0 -83 -39.5t-32 -114.5z" />
    <glyph glyph-name="c" unicode="c" 
d="M526 365l-135 -24q-16 82 -94 82q-113 0 -113 -154q0 -169 115 -169q23 0 40.5 8t27 17.5t17 26t9.5 25t5 22.5l135 -23q-43 -188 -241 -188q-61 0 -108 20t-72.5 49.5t-42 69t-21.5 70.5t-5 62q0 49 12.5 93.5t39.5 86t78.5 66.5t121.5 25q58 0 102 -15t69 -42.5t38 -52
t22 -55.5z" />
    <glyph glyph-name="d" unicode="d" horiz-adv-x="611" 
d="M548 0h-128v76h-2q-35 -50 -79.5 -69t-79.5 -19q-90 0 -153.5 72t-63.5 204q0 130 62.5 198t155.5 68q88 0 151 -72v258h137v-716zM412 271q0 75 -32 114.5t-83 39.5q-29 0 -50.5 -12t-33.5 -29.5t-19 -42t-9 -43.5t-2 -40q0 -87 33 -124t76 -37q44 0 74 29
q25 24 35.5 56.5t10.5 88.5z" />
    <glyph glyph-name="e" unicode="e" 
d="M374 165l137 -23q-53 -154 -226 -154q-162 0 -220 124q-31 67 -31 144q0 114 61 194t177 80q70 0 120.5 -26.5t77 -72t38 -98t10.5 -113.5h-344q2 -52 30.5 -89.5t82.5 -37.5q66 0 87 72zM177 304h205q-1 39 -13.5 66t-31.5 37.5t-32 14t-25 3.5q-48 0 -76 -34.5
t-27 -86.5z" />
    <glyph glyph-name="f" unicode="f" horiz-adv-x="333" 
d="M12 518h76v40q0 26 1 42t9.5 43.5t24 43.5t47.5 28.5t78 12.5q58 0 114 -17l-18 -96q-33 8 -63 8q-16 0 -27 -4.5t-16.5 -10.5t-8.5 -16.5t-3.5 -17.5t-0.5 -19v-37h103v-109h-103v-409h-137v409h-76v109z" />
    <glyph glyph-name="g" unicode="g" horiz-adv-x="611" 
d="M57 -34l157 -19q6 -29 22 -41q15 -11 58 -11q41 0 65.5 8t34.5 27t12 33.5t2 44.5v76h-2q-59 -84 -153 -84q-97 0 -155.5 74.5t-58.5 187.5q0 61 15 109.5t37.5 77.5t53 48t58 26t55.5 7q102 0 157 -84h2v72h128v-465q0 -50 -3.5 -83.5t-18 -70.5t-40 -58.5t-72 -36
t-112.5 -14.5q-39 0 -72 4t-66.5 15.5t-56 30.5t-36 51t-11.5 75zM180 270q0 -64 25.5 -111t85.5 -47q17 0 34.5 6t38.5 20.5t34 48t13 80.5q0 62 -27.5 110t-90.5 48q-29 0 -51.5 -13t-33.5 -30t-18 -41t-8.5 -39.5t-1.5 -31.5z" />
    <glyph glyph-name="h" unicode="h" horiz-adv-x="611" 
d="M207 716v-264q66 78 158 78q72 0 121 -38q26 -20 39 -58.5t14 -60t2 -69.5v-304h-137v274q0 34 -0.5 50.5t-5 40t-13 34t-25 18.5t-41.5 8q-32 0 -54.5 -12.5t-33.5 -28t-17 -42.5t-6.5 -42t-0.5 -40v-260h-137v716h137z" />
    <glyph glyph-name="i" unicode="i" horiz-adv-x="278" 
d="M71 0v518h137v-518h-137zM71 589v127h137v-127h-137z" />
    <glyph glyph-name="j" unicode="j" horiz-adv-x="278" 
d="M205 518v-502q0 -32 -0.5 -48t-3.5 -44.5t-8.5 -43.5t-16.5 -35t-27.5 -30t-41.5 -17.5t-58 -7.5q-26 0 -96 15l24 117q28 -4 34 -4q17 0 28 5t17 11t8.5 22.5t3 28.5t0.5 39v494h137zM68 589v127h137v-127h-137z" />
    <glyph glyph-name="k" unicode="k" 
d="M68 0v716h137v-380l161 182h169l-177 -189l189 -329h-148l-130 233l-64 -67v-166h-137z" />
    <glyph glyph-name="l" unicode="l" horiz-adv-x="278" 
d="M71 0v716h137v-716h-137z" />
    <glyph glyph-name="m" unicode="m" horiz-adv-x="889" 
d="M63 518h127v-70h2q65 82 159 82q99 0 147 -82q67 82 158 82q35 0 63 -8.5t45.5 -20.5t30 -31.5t18.5 -35t9 -38.5t3.5 -34.5t0.5 -29.5v-332h-137v296q0 25 -0.5 38t-4 33t-11 30.5t-22 19t-35.5 8.5q-27 0 -51.5 -16t-34.5 -41q-17 -41 -17 -119v-249h-137v284
q0 30 -0.5 42t-2 33t-6 29.5t-12 19t-20 14t-30.5 3.5q-27 0 -52 -14t-35 -36q-18 -38 -18 -123v-252h-137v518z" />
    <glyph glyph-name="n" unicode="n" horiz-adv-x="611" 
d="M404 0v265q0 34 -0.5 50.5t-5 41.5t-12.5 37t-25 21.5t-41 9.5q-33 0 -59.5 -16.5t-39.5 -44.5q-15 -32 -15 -129v-235h-137v518h128v-76h2q64 88 169 88q71 0 119 -38q16 -12 26.5 -30.5t16 -31t8 -40.5t2.5 -33.5t1 -34.5v-322h-137z" />
    <glyph glyph-name="o" unicode="o" horiz-adv-x="611" 
d="M38 266q0 103 69.5 183.5t197.5 80.5q86 0 148.5 -40.5t91 -100.5t28.5 -128q0 -112 -73 -192.5t-194 -80.5q-29 0 -59.5 5.5t-69.5 23.5t-68.5 47t-50 81.5t-20.5 120.5zM179 259q0 -78 36.5 -118.5t89.5 -40.5q52 0 89.5 40t37.5 120q0 75 -36 116.5t-91 41.5
q-53 0 -89.5 -41t-36.5 -118z" />
    <glyph glyph-name="p" unicode="p" horiz-adv-x="611" 
d="M68 518h128v-76h2q35 50 79.5 69t79.5 19q90 0 153.5 -72t63.5 -204q0 -130 -62.5 -198t-155.5 -68q-88 0 -151 72v-257h-137v715zM204 247q0 -75 32 -114.5t83 -39.5q29 0 50.5 12t33.5 29.5t19 42t9 43.5t2 40q0 87 -33 124t-76 37q-44 0 -74 -29q-25 -24 -35.5 -56.5
t-10.5 -88.5z" />
    <glyph glyph-name="q" unicode="q" horiz-adv-x="611" 
d="M546 518v-715h-137v257q-63 -72 -151 -72q-93 0 -155.5 68t-62.5 198q0 132 63.5 204t153.5 72q35 0 79.5 -19t79.5 -69h2v76h128zM410 247q0 56 -10.5 88.5t-35.5 56.5q-30 29 -74 29q-43 0 -76 -37t-33 -124q0 -21 2 -40t9 -43.5t19 -42t33.5 -29.5t50.5 -12
q51 0 83 39.5t32 114.5z" />
    <glyph glyph-name="r" unicode="r" horiz-adv-x="389" 
d="M205 0h-137v518h127v-73h2q25 43 50.5 64t66.5 21q47 0 90 -25l-43 -120q-35 22 -64 22q-22 0 -38 -7.5t-25.5 -25.5t-15.5 -36t-9 -51t-3.5 -58t-0.5 -69v-160z" />
    <glyph glyph-name="s" unicode="s" 
d="M36 148l137 21q19 -83 111 -83q10 0 21.5 1.5t31.5 6t33 17.5t13 32q0 20 -13.5 29t-42.5 15q-59 13 -90 20.5t-72 23t-61 32.5t-34.5 44.5t-14.5 63.5q0 56 33 93.5t79.5 51.5t105.5 14q96 0 152 -31t78 -106l-130 -24q-18 63 -97 63q-94 0 -94 -43q0 -22 26 -32
q32 -12 116 -32q36 -9 57 -15t51 -19t46.5 -28.5t29 -41.5t12.5 -59q0 -70 -59 -122t-177 -52q-123 0 -193 63q-40 36 -55 97z" />
    <glyph glyph-name="t" unicode="t" horiz-adv-x="333" 
d="M309 518v-109h-93v-209q0 -62 5.5 -80t32.5 -18q22 0 51 12l4 1l12 -106q-50 -21 -108 -21q-36 0 -69 13t-47 40q-12 23 -15.5 51t-3.5 91v226h-63v109h63v103l138 81v-184h93z" />
    <glyph glyph-name="u" unicode="u" horiz-adv-x="611" 
d="M414 0v78h-2q-27 -42 -73 -66t-97 -24q-43 0 -83 18t-60 50q-29 47 -29 135v327h137v-238q0 -83 3 -110t13 -43q22 -34 70 -34q67 0 97 57q14 27 14 150v218h137v-518h-127z" />
    <glyph glyph-name="v" unicode="v" 
d="M217 0l-209 518h144l98 -264l27 -88h2q2 7 7 23.5t6 20.5l15 44l99 264h141l-206 -518h-124z" />
    <glyph glyph-name="w" unicode="w" horiz-adv-x="778" 
d="M168 0l-165 518h134l96 -339h2l88 339h133l85 -339h2l98 339h135l-166 -518h-132l-88 334h-2l-87 -334h-133z" />
    <glyph glyph-name="x" unicode="x" 
d="M8 0l187 267l-179 251h168l91 -142l97 142h161l-176 -245l192 -273h-168l-106 161l-107 -161h-160z" />
    <glyph glyph-name="y" unicode="y" 
d="M9 518h146l123 -368h2l120 368h142l-183 -499q-1 -2 -3 -7t-5 -13t-5 -14q-13 -37 -20 -55.5t-20.5 -46t-27 -40.5t-34.5 -27.5t-48.5 -20t-63.5 -5.5q-40 0 -78 8l-12 107q29 -6 58 -6q15 0 26.5 2.5t27.5 11t29 30.5t23 56z" />
    <glyph glyph-name="z" unicode="z" horiz-adv-x="500" 
d="M18 0v107l194 222q53 61 71 79q-50 -4 -63 -4h-183v114h428v-97l-198 -228q-3 -4 -36 -39l-34 -37q66 4 71 4h213v-121h-463z" />
    <glyph glyph-name="braceleft" unicode="{" horiz-adv-x="389" 
d="M31 200v118q65 3 86 41t21 132q0 41 0.5 60t4 50t11 45.5t22 33.5t36 27.5t53.5 14.5t74 6h26v-117q-63 0 -81.5 -12t-18.5 -59q0 -101 -9.5 -155.5t-27 -78t-54.5 -47.5q54 -31 72.5 -86t18.5 -196q0 -46 20.5 -58t79.5 -12v-117h-26q-37 0 -59 1.5t-55 14t-54 37.5
t-27 63t-6 102q0 43 -1 64.5t-6.5 50t-16 41.5t-31.5 24t-52 12z" />
    <glyph glyph-name="bar" unicode="|" horiz-adv-x="280" 
d="M85 -250v1000h109v-1000h-109z" />
    <glyph glyph-name="braceright" unicode="}" horiz-adv-x="389" 
d="M358 318v-118q-65 -3 -86 -41t-21 -132q0 -41 -0.5 -60t-4 -50t-11 -45.5t-22 -33.5t-36 -27.5t-53.5 -14.5t-74 -6h-26v117q63 0 81.5 12t18.5 59q0 101 9.5 155.5t27 78t54.5 47.5q-54 31 -72.5 86t-18.5 196q0 46 -20.5 58t-79.5 12v117h26q37 0 59 -1.5t55 -14
t54 -37.5t27 -63t6 -102q0 -43 1 -64.5t6.5 -50t16 -41.5t31.5 -24t52 -12z" />
    <glyph glyph-name="asciitilde" unicode="~" horiz-adv-x="584" 
d="M33 254v126q61 67 144 67q37 0 64.5 -8t98.5 -36q53 -22 78 -22q68 0 133 70v-131q-9 -10 -25 -22.5t-51 -27.5t-70 -15q-45 0 -121 34q-75 32 -118 32q-68 0 -133 -67z" />
    <glyph glyph-name="exclamdown" unicode="&#xa1;" horiz-adv-x="333" 
d="M238 518v-137h-137v137h137zM95 -198v168l35 363h78l36 -363v-168h-149z" />
    <glyph glyph-name="cent" unicode="&#xa2;" 
d="M365 396l-89 -294q8 -2 22 -2q82 0 99 99l135 -23q-42 -188 -240 -188q-31 0 -49 4l-57 -189l-59 17l56 188q-70 29 -107 102q-33 65 -33 151q0 45 11 87.5t37 85.5t78 69.5t125 26.5q16 0 46 -3l55 184l60 -17l-55 -181q93 -36 125 -148l-135 -24q-5 34 -25 55zM221 131
l87 291q-35 3 -60.5 -9.5t-37 -29.5t-18 -44t-7.5 -40.5t-1 -30.5q0 -95 37 -137z" />
    <glyph glyph-name="sterling" unicode="&#xa3;" 
d="M490 139l53 -116q-66 -35 -135 -35q-41 0 -116 21q-77 21 -110 21q-58 0 -121 -42l-52 118q103 74 103 169q0 13 -2 27h-101v109h76q-20 58 -20 117q0 83 62 141.5t165 58.5q23 0 44.5 -2.5t53 -14t55 -30.5t44 -55.5t27.5 -85.5l-132 -19q-20 98 -95 98
q-44 0 -67.5 -28.5t-23.5 -63.5q0 -47 24 -116h153v-109h-130q5 -37 -6 -71.5t-24 -53t-36 -44.5q-7 -7 -8 -7l2 -2q25 14 66 14q25 0 97 -18q32 -8 54 -8q35 0 100 27z" />
    <glyph glyph-name="currency" unicode="&#xa4;" 
d="M88 460l-64 63l81 87l66 -66q50 28 107 28q53 0 106 -28l66 66l82 -83l-65 -65q28 -52 28 -106t-28 -107l65 -65l-81 -83l-67 66q-46 -28 -106 -28q-54 0 -105 27l-64 -64l-83 83l64 64q-28 50 -28 106q0 58 26 105zM278 454q-40 0 -69 -29t-29 -69q0 -41 29 -70t69 -29
t69.5 29.5t29.5 69.5t-29 69t-70 29z" />
    <glyph glyph-name="yen" unicode="&#xa5;" 
d="M208 153h-181v108h181v71h-181v108h112l-136 276h150l98 -208q20 -43 25 -69h2q8 32 26 69l99 208h150l-137 -276h113v-108h-184v-71h184v-108h-184v-153h-137v153z" />
    <glyph glyph-name="brokenbar" unicode="&#xa6;" horiz-adv-x="280" 
d="M86 -175v350h109v-350h-109zM86 325v350h109v-350h-109z" />
    <glyph glyph-name="section" unicode="&#xa7;" 
d="M484 564l-135 -15q-3 74 -74 74q-33 0 -49 -13.5t-16 -31.5q0 -22 17.5 -40.5t62.5 -47.5q7 -4 46.5 -30t46.5 -30q77 -50 109 -94.5t32 -98.5q0 -94 -89 -153q59 -55 59 -125q0 -68 -52 -118.5t-158 -50.5q-92 0 -153 45.5t-73 131.5l134 16q17 -88 96 -88q28 0 49 15
t21 42q0 23 -18 41q-15 15 -126 87q-105 66 -144 113.5t-39 111.5q0 49 24 91q22 39 66 65q-49 56 -49 110q0 68 53 112.5t143 44.5q58 0 101 -16.5t66 -43.5t34 -52.5t15 -51.5zM221 238l140 -95q43 40 43 72q0 23 -16 40t-57 47l-133 97q-13 -7 -27.5 -25t-14.5 -42
q0 -49 65 -94z" />
    <glyph glyph-name="dieresis" unicode="&#xa8;" horiz-adv-x="333" 
d="M2 598v118h118v-118h-118zM213 598v118h118v-118h-118z" />
    <glyph glyph-name="copyright" unicode="&#xa9;" horiz-adv-x="737" 
d="M369 654q-125 0 -213 -88t-88 -212t88 -212t213 -88t212.5 88t87.5 212t-87.5 212t-212.5 88zM460 299l78 -27q-20 -67 -64.5 -97t-99.5 -30q-75 0 -132 50.5t-57 155.5q0 95 50 153t140 58q120 0 163 -119l-79 -19q-24 68 -87 68q-31 0 -52.5 -14t-31 -37t-13.5 -44
t-4 -43q0 -72 28 -105.5t67 -33.5q24 0 42 9t29 26.5t14.5 25.5t8.5 23zM369 728q155 0 264.5 -109.5t109.5 -264.5t-109.5 -264.5t-264.5 -109.5t-265 109.5t-110 264.5t110 264.5t265 109.5z" />
    <glyph glyph-name="ordfeminine" unicode="&#xaa;" horiz-adv-x="370" 
d="M122 611l-92 19q12 53 48.5 75.5t99.5 22.5q37 0 63.5 -4t43 -14.5t26 -20t13 -29t4.5 -32t1 -38.5v-116q0 -47 2 -64.5t13 -37.5h-93q-6 12 -11 34q-43 -43 -106 -43q-55 0 -86.5 29.5t-31.5 75.5q0 25 8.5 43.5t19 29t35 19.5t40 13t49.5 11q44 9 62 15q-1 18 -2 25.5
t-6 15t-14.5 10t-27.5 2.5q-27 0 -37.5 -8t-17.5 -27zM230 515v20q-13 -7 -31 -11q-31 -6 -45.5 -10t-25.5 -13.5t-11 -24.5q0 -14 12.5 -27t35.5 -13q8 0 17 2.5t21 9.5t19.5 24.5t7.5 42.5z" />
    <glyph glyph-name="guillemotleft" unicode="&#xab;" 
d="M509 480l-127 -220l127 -226h-108l-154 226l154 220h108zM304 480l-127 -220l127 -226h-108l-154 226l154 220h108z" />
    <glyph glyph-name="logicalnot" unicode="&#xac;" horiz-adv-x="584" 
d="M416 182v217h-375v126h501v-343h-126z" />
    <glyph glyph-name="registered" unicode="&#xae;" horiz-adv-x="737" 
d="M199 154v397h80q115 0 146.5 -3t53.5 -20q42 -32 42 -88q0 -39 -25.5 -71t-81.5 -40v-2q26 -10 40.5 -27t43.5 -66l47 -80h-100l-33 65q-33 64 -55.5 81t-56.5 17h-21v-163h-80zM279 488v-108h33q35 0 51 1t36 6t28 16.5t8 31.5q0 13 -3.5 22.5t-13 15t-18 9t-26 4.5
t-28.5 1.5t-34 0.5h-33zM369 654q-125 0 -213 -88t-88 -212t88 -212t213 -88t212.5 88t87.5 212t-87.5 212t-212.5 88zM369 728q155 0 264.5 -109.5t109.5 -264.5t-109.5 -264.5t-264.5 -109.5t-265 109.5t-110 264.5t110 264.5t265 109.5z" />
    <glyph glyph-name="macron" unicode="&#xaf;" horiz-adv-x="333" 
d="M9 610v91h315v-91h-315z" />
    <glyph glyph-name="degree" unicode="&#xb0;" horiz-adv-x="400" 
d="M199 719q65 0 111 -45.5t46 -109.5t-46 -110t-111 -46q-64 0 -109.5 45.5t-45.5 110.5q0 64 45 109.5t110 45.5zM125 563q0 -31 22 -52.5t53 -21.5t53 21.5t22 52.5t-22 53t-53 22t-53 -22t-22 -53z" />
    <glyph glyph-name="plusminus" unicode="&#xb1;" horiz-adv-x="584" 
d="M41 0v126h501v-126h-501zM228 184v187h-187v126h187v187h126v-187h188v-126h-188v-187h-126z" />
    <glyph glyph-name="twosuperior" unicode="&#xb2;" horiz-adv-x="333" 
d="M308 432v-77h-296q5 45 29 78t92 87q37 29 50 40t23 25.5t10 29.5q0 40 -50 40q-21 0 -33 -9.5t-15 -20t-4 -26.5l-92 8q2 19 6.5 32.5t18 36.5t45 36t77.5 13q71 0 105 -32.5t34 -72.5q0 -39 -27 -76t-102 -91q-9 -6 -24 -21h153z" />
    <glyph glyph-name="threesuperior" unicode="&#xb3;" horiz-adv-x="333" 
d="M19 462l90 9q2 -11 3.5 -15.5t7 -15.5t16.5 -16t28 -5q26 0 40 16t14 36q0 21 -13.5 35t-37.5 14q-17 0 -44 -7l11 71q67 0 67 39q0 32 -41 32q-43 0 -48 -48l-87 12q5 19 10 32t19 33t41.5 30.5t66.5 10.5q59 0 95 -29.5t36 -70.5q0 -42 -47 -70q67 -24 67 -88
q0 -49 -42.5 -83.5t-106.5 -34.5q-16 0 -34 3.5t-43.5 13.5t-44 34.5t-23.5 61.5z" />
    <glyph glyph-name="acute" unicode="&#xb4;" horiz-adv-x="333" 
d="M92 582l68 146h153l-134 -146h-87z" />
    <glyph glyph-name="mu" unicode="&#xb5;" horiz-adv-x="611" 
d="M70 518h137v-234q0 -29 1 -49t6.5 -48.5t15 -46t28.5 -30.5t46 -13q51 0 81 52q19 34 19 133v236h137v-518h-126v63h-2q-37 -75 -103 -75q-29 0 -50.5 13t-31 26.5t-19.5 35.5h-2v-260h-137v715z" />
    <glyph glyph-name="paragraph" unicode="&#xb6;" 
d="M309 -197h-116v511q-50 4 -88 21.5t-57 39.5t-30.5 51t-14 48.5t-2.5 39.5q0 49 20.5 94.5t59.5 70.5t75 31t106 6h291v-128h-55v-785h-116v785h-73v-785z" />
    <glyph glyph-name="periodcentered" unicode="&#xb7;" horiz-adv-x="278" 
d="M71 280v137h137v-137h-137z" />
    <glyph glyph-name="cedilla" unicode="&#xb8;" horiz-adv-x="333" 
d="M19 -197v58q46 -6 92 -6q37 0 59 12t22 34q0 15 -14 28t-49 13q-30 0 -64 -9l13 48q38 13 82 13q53 0 89 -24t36 -68q0 -54 -50.5 -80.5t-120.5 -26.5q-63 0 -95 8z" />
    <glyph glyph-name="onesuperior" unicode="&#xb9;" horiz-adv-x="333" 
d="M242 355h-93v250q-46 -31 -93 -44l-12 -3v75q13 3 32 10.5t49 30.5t42 51h75v-370z" />
    <glyph glyph-name="ordmasculine" unicode="&#xba;" horiz-adv-x="365" 
d="M13 545q0 82 44.5 132.5t124.5 50.5q82 0 126 -52t44 -131q0 -83 -44.5 -133.5t-125.5 -50.5t-125 51t-44 133zM116 544q0 -100 65 -100q68 0 68 100q0 103 -68 103q-65 0 -65 -103z" />
    <glyph glyph-name="guillemotright" unicode="&#xbb;" 
d="M47 34l127 220l-127 226h108l154 -226l-154 -220h-108zM252 34l127 220l-127 226h108l154 -226l-154 -220h-108z" />
    <glyph glyph-name="onequarter" unicode="&#xbc;" horiz-adv-x="834" 
d="M655 -18v71h-176v69l186 229h77v-228h52v-70h-52v-71h-87zM566 123h89v111h-2zM243 -25h-77l425 753h77zM242 357h-93v250q-46 -31 -93 -44l-12 -3v75q13 3 32 10.5t49 30.5t42 51h75v-370z" />
    <glyph glyph-name="onehalf" unicode="&#xbd;" horiz-adv-x="834" 
d="M243 -25h-77l425 753h77zM242 355h-93v250q-46 -31 -93 -44l-12 -3v75q13 3 32 10.5t49 30.5t42 51h75v-370zM808 57v-77h-296q5 45 29 78t92 87q37 29 50 40t23 25.5t10 29.5q0 40 -50 40q-21 0 -33 -9.5t-15 -20t-4 -26.5l-92 8q2 19 6.5 32.5t18 36.5t45 36t77.5 13
q71 0 105 -32.5t34 -72.5q0 -39 -27 -76t-102 -91q-9 -6 -24 -21h153z" />
    <glyph glyph-name="threequarters" unicode="&#xbe;" horiz-adv-x="834" 
d="M655 -20v71h-176v69l186 229h77v-228h52v-70h-52v-71h-87zM566 121h89v111h-2zM255 -25h-78l426 753h77zM19 462l90 9q2 -11 3.5 -15.5t7 -15.5t16.5 -16t28 -5q26 0 40 16t14 36q0 21 -13.5 35t-37.5 14q-17 0 -44 -7l11 71q67 0 67 39q0 32 -41 32q-43 0 -48 -48
l-87 12q5 19 10 32t19 33t41.5 30.5t66.5 10.5q59 0 95 -29.5t36 -70.5q0 -42 -47 -70q67 -24 67 -88q0 -49 -42.5 -83.5t-106.5 -34.5q-16 0 -34 3.5t-43.5 13.5t-44 34.5t-23.5 61.5z" />
    <glyph glyph-name="questiondown" unicode="&#xbf;" horiz-adv-x="611" 
d="M435 20l126 -16q-5 -83 -71.5 -146t-184.5 -63q-112 0 -185 59.5t-73 145.5q0 51 30 92.5t106 104.5q42 34 53 55t11 62q0 12 -1 19h125q2 -80 -14.5 -122t-84.5 -97q-57 -46 -74 -66.5t-17 -50.5q0 -46 35.5 -71.5t83.5 -25.5q110 0 135 120zM371 518v-137h-137v137h137
z" />
    <glyph glyph-name="Agrave" unicode="&#xc0;" horiz-adv-x="722" 
d="M720 0h-158l-62 162h-286l-59 -162h-154l279 716h153zM258 283h196l-99 266zM368 909l68 -146h-87l-134 146h153z" />
    <glyph glyph-name="Aacute" unicode="&#xc1;" horiz-adv-x="722" 
d="M720 0h-158l-62 162h-286l-59 -162h-154l279 716h153zM258 283h196l-99 266zM287 763l68 146h153l-134 -146h-87z" />
    <glyph glyph-name="Acircumflex" unicode="&#xc2;" horiz-adv-x="722" 
d="M720 0h-158l-62 162h-286l-59 -162h-154l279 716h153zM258 283h196l-99 266zM196 765l103 144h127l101 -144h-110l-57 73l-53 -73h-111z" />
    <glyph glyph-name="Atilde" unicode="&#xc3;" horiz-adv-x="722" 
d="M720 0h-158l-62 162h-286l-59 -162h-154l279 716h153zM258 283h196l-99 266zM255 773h-62q-3 70 28 101q23 23 61 23q30 0 80 -22q45 -20 65 -20q34 0 40 43h63q0 -123 -86 -123q-27 0 -85 22q-49 19 -70 19q-31 0 -34 -41v-2z" />
    <glyph glyph-name="Adieresis" unicode="&#xc4;" horiz-adv-x="722" 
d="M720 0h-158l-62 162h-286l-59 -162h-154l279 716h153zM258 283h196l-99 266zM197 779v118h118v-118h-118zM408 779v118h118v-118h-118z" />
    <glyph glyph-name="Aring" unicode="&#xc5;" horiz-adv-x="722" 
d="M720 0h-158l-62 162h-286l-59 -162h-154l279 716h153zM258 283h196l-99 266zM457 843q0 -40 -28 -67.5t-67 -27.5q-40 0 -68 28t-28 67q0 40 28 68t68 28q39 0 67 -28t28 -68zM405 843q0 19 -12.5 31.5t-30.5 12.5q-19 0 -31.5 -13t-12.5 -31t13 -30.5t31 -12.5
q17 0 30 12.5t13 30.5z" />
    <glyph glyph-name="AE" unicode="&#xc6;" horiz-adv-x="1000" 
d="M-42 0l334 716h647v-121h-355v-160h327v-121h-327v-193h368v-121h-512v168h-248l-74 -168h-160zM385 607l-140 -314h196v314h-56z" />
    <glyph glyph-name="Ccedilla" unicode="&#xc7;" horiz-adv-x="722" 
d="M390 -12v-2q107 -10 107 -90q0 -51 -47.5 -78.5t-127.5 -27.5q-58 0 -90 7v58q46 -5 80 -5q92 0 92 46q0 15 -14 28t-48 13q-26 0 -64 -10l13 48q33 10 67 12v-1v2q-133 0 -221 100t-88 264q0 77 20 143t59.5 119t104.5 83.5t150 30.5q136 0 219 -82q45 -45 68 -128
l-143 -34q-13 57 -53.5 88.5t-97.5 31.5q-42 0 -74.5 -14t-51 -39.5t-30 -49.5t-16 -56.5t-5.5 -47.5t-1 -35q0 -122 38 -180q46 -70 138 -70q123 0 158 151l140 -44q-7 -26 -16.5 -49.5t-32 -59t-51.5 -60.5t-76.5 -43.5t-105.5 -18.5z" />
    <glyph glyph-name="Egrave" unicode="&#xc8;" horiz-adv-x="667" 
d="M75 0v716h531v-121h-387v-159h360v-121h-360v-194h400v-121h-544zM340 909l68 -146h-87l-134 146h153z" />
    <glyph glyph-name="Eacute" unicode="&#xc9;" horiz-adv-x="667" 
d="M75 0v716h531v-121h-387v-159h360v-121h-360v-194h400v-121h-544zM259 763l68 146h153l-134 -146h-87z" />
    <glyph glyph-name="Ecircumflex" unicode="&#xca;" horiz-adv-x="667" 
d="M75 0v716h531v-121h-387v-159h360v-121h-360v-194h400v-121h-544zM168 765l103 144h127l101 -144h-110l-57 73l-53 -73h-111z" />
    <glyph glyph-name="Edieresis" unicode="&#xcb;" horiz-adv-x="667" 
d="M75 0v716h531v-121h-387v-159h360v-121h-360v-194h400v-121h-544zM169 779v118h118v-118h-118zM380 779v118h118v-118h-118z" />
    <glyph glyph-name="Igrave" unicode="&#xcc;" horiz-adv-x="278" 
d="M67 0v716h144v-716h-144zM146 909l68 -146h-87l-134 146h153z" />
    <glyph glyph-name="Iacute" unicode="&#xcd;" horiz-adv-x="278" 
d="M67 0v716h144v-716h-144zM65 763l68 146h153l-134 -146h-87z" />
    <glyph glyph-name="Icircumflex" unicode="&#xce;" horiz-adv-x="278" 
d="M67 0v716h144v-716h-144zM-26 765l103 144h127l101 -144h-110l-57 73l-53 -73h-111z" />
    <glyph glyph-name="Idieresis" unicode="&#xcf;" horiz-adv-x="278" 
d="M67 0v716h144v-716h-144zM-25 779v118h118v-118h-118zM186 779v118h118v-118h-118z" />
    <glyph glyph-name="Eth" unicode="&#xd0;" horiz-adv-x="722" 
d="M284 595h-65v-188h153v-100h-153v-186h108q33 0 52 1.5t45.5 8t41.5 21.5t30 39.5t21.5 65.5t6.5 97q0 40 -4 72t-9.5 55.5t-18 42t-22 30.5t-29 20t-32 12t-38.5 6t-41 2.5t-46 0.5zM75 716h264q34 0 53.5 -1t55.5 -7t61 -18t54.5 -36t51.5 -59q60 -95 60 -244
q0 -172 -91 -271q-73 -80 -238 -80h-271v307h-74v100h74v309z" />
    <glyph glyph-name="Ntilde" unicode="&#xd1;" horiz-adv-x="722" 
d="M78 0v716h140l291 -478h2v478h134v-716h-145l-286 467h-2v-467h-134zM255 773h-62q-3 70 28 101q23 23 61 23q30 0 80 -22q45 -20 65 -20q34 0 40 43h63q0 -123 -86 -123q-27 0 -85 22q-49 19 -70 19q-31 0 -34 -41v-2z" />
    <glyph glyph-name="Ograve" unicode="&#xd2;" horiz-adv-x="778" 
d="M43 354q0 174 90.5 274t255.5 100q169 0 258 -103t89 -268q0 -73 -19 -137t-58.5 -117t-108 -84t-159.5 -31q-78 0 -139.5 22.5t-99.5 58.5t-63.5 85t-35.5 98t-10 102zM192 358q0 -95 36 -156q21 -37 62 -63.5t100 -26.5q26 0 50 5.5t51.5 22.5t48 43t34 72t13.5 105
q0 29 -3.5 57t-15.5 63.5t-32.5 61.5t-58 44t-87.5 18q-58 0 -99.5 -23t-61.5 -61.5t-28.5 -78t-8.5 -83.5zM396 909l68 -146h-87l-134 146h153z" />
    <glyph glyph-name="Oacute" unicode="&#xd3;" horiz-adv-x="778" 
d="M43 354q0 174 90.5 274t255.5 100q169 0 258 -103t89 -268q0 -73 -19 -137t-58.5 -117t-108 -84t-159.5 -31q-78 0 -139.5 22.5t-99.5 58.5t-63.5 85t-35.5 98t-10 102zM192 358q0 -95 36 -156q21 -37 62 -63.5t100 -26.5q26 0 50 5.5t51.5 22.5t48 43t34 72t13.5 105
q0 29 -3.5 57t-15.5 63.5t-32.5 61.5t-58 44t-87.5 18q-58 0 -99.5 -23t-61.5 -61.5t-28.5 -78t-8.5 -83.5zM315 763l68 146h153l-134 -146h-87z" />
    <glyph glyph-name="Ocircumflex" unicode="&#xd4;" horiz-adv-x="778" 
d="M43 354q0 174 90.5 274t255.5 100q169 0 258 -103t89 -268q0 -73 -19 -137t-58.5 -117t-108 -84t-159.5 -31q-78 0 -139.5 22.5t-99.5 58.5t-63.5 85t-35.5 98t-10 102zM192 358q0 -95 36 -156q21 -37 62 -63.5t100 -26.5q26 0 50 5.5t51.5 22.5t48 43t34 72t13.5 105
q0 29 -3.5 57t-15.5 63.5t-32.5 61.5t-58 44t-87.5 18q-58 0 -99.5 -23t-61.5 -61.5t-28.5 -78t-8.5 -83.5zM224 765l103 144h127l101 -144h-110l-57 73l-53 -73h-111z" />
    <glyph glyph-name="Otilde" unicode="&#xd5;" horiz-adv-x="778" 
d="M43 354q0 174 90.5 274t255.5 100q169 0 258 -103t89 -268q0 -73 -19 -137t-58.5 -117t-108 -84t-159.5 -31q-78 0 -139.5 22.5t-99.5 58.5t-63.5 85t-35.5 98t-10 102zM192 358q0 -95 36 -156q21 -37 62 -63.5t100 -26.5q26 0 50 5.5t51.5 22.5t48 43t34 72t13.5 105
q0 29 -3.5 57t-15.5 63.5t-32.5 61.5t-58 44t-87.5 18q-58 0 -99.5 -23t-61.5 -61.5t-28.5 -78t-8.5 -83.5zM283 773h-62q-3 70 28 101q23 23 61 23q30 0 80 -22q45 -20 65 -20q34 0 40 43h63q0 -123 -86 -123q-27 0 -85 22q-49 19 -70 19q-31 0 -34 -41v-2z" />
    <glyph glyph-name="Odieresis" unicode="&#xd6;" horiz-adv-x="778" 
d="M43 354q0 174 90.5 274t255.5 100q169 0 258 -103t89 -268q0 -73 -19 -137t-58.5 -117t-108 -84t-159.5 -31q-78 0 -139.5 22.5t-99.5 58.5t-63.5 85t-35.5 98t-10 102zM192 358q0 -95 36 -156q21 -37 62 -63.5t100 -26.5q26 0 50 5.5t51.5 22.5t48 43t34 72t13.5 105
q0 29 -3.5 57t-15.5 63.5t-32.5 61.5t-58 44t-87.5 18q-58 0 -99.5 -23t-61.5 -61.5t-28.5 -78t-8.5 -83.5zM225 779v118h118v-118h-118zM436 779v118h118v-118h-118z" />
    <glyph glyph-name="multiply" unicode="&#xd7;" horiz-adv-x="584" 
d="M54 205l148 147l-149 149l91 90l148 -148l148 148l88 -89l-147 -148l149 -148l-91 -91l-149 149l-147 -148z" />
    <glyph glyph-name="Oslash" unicode="&#xd8;" horiz-adv-x="778" 
d="M605 663l77 87l68 -60l-82 -91q68 -91 68 -245q0 -70 -19 -133t-58 -116.5t-107 -85t-158 -31.5q-133 0 -215 61l-79 -89l-69 60l83 94q-71 95 -71 248q0 73 20 136.5t60 116t108.5 83t157.5 30.5q131 0 216 -65zM214 226l301 337q-48 41 -124 41q-106 0 -158 -78
q-41 -62 -41 -167q0 -78 22 -133zM568 486l-298 -334q53 -40 118 -40q85 0 142 58.5t57 185.5q0 81 -19 130z" />
    <glyph glyph-name="Ugrave" unicode="&#xd9;" horiz-adv-x="722" 
d="M75 716h144v-387q0 -73 3 -101.5t15 -52.5q33 -63 127 -63q29 0 51 6t36.5 13.5t24.5 25t15 30.5t7.5 40t3 43.5t0.5 50.5v395h144v-376q0 -105 -7.5 -160t-32.5 -93q-64 -99 -238 -99q-84 0 -142.5 22t-87.5 50t-44 83t-17 89.5t-2 101.5v382zM368 909l68 -146h-87
l-134 146h153z" />
    <glyph glyph-name="Uacute" unicode="&#xda;" horiz-adv-x="722" 
d="M75 716h144v-387q0 -73 3 -101.5t15 -52.5q33 -63 127 -63q29 0 51 6t36.5 13.5t24.5 25t15 30.5t7.5 40t3 43.5t0.5 50.5v395h144v-376q0 -105 -7.5 -160t-32.5 -93q-64 -99 -238 -99q-84 0 -142.5 22t-87.5 50t-44 83t-17 89.5t-2 101.5v382zM287 763l68 146h153
l-134 -146h-87z" />
    <glyph glyph-name="Ucircumflex" unicode="&#xdb;" horiz-adv-x="722" 
d="M75 716h144v-387q0 -73 3 -101.5t15 -52.5q33 -63 127 -63q29 0 51 6t36.5 13.5t24.5 25t15 30.5t7.5 40t3 43.5t0.5 50.5v395h144v-376q0 -105 -7.5 -160t-32.5 -93q-64 -99 -238 -99q-84 0 -142.5 22t-87.5 50t-44 83t-17 89.5t-2 101.5v382zM196 765l103 144h127
l101 -144h-110l-57 73l-53 -73h-111z" />
    <glyph glyph-name="Udieresis" unicode="&#xdc;" horiz-adv-x="722" 
d="M75 716h144v-387q0 -73 3 -101.5t15 -52.5q33 -63 127 -63q29 0 51 6t36.5 13.5t24.5 25t15 30.5t7.5 40t3 43.5t0.5 50.5v395h144v-376q0 -105 -7.5 -160t-32.5 -93q-64 -99 -238 -99q-84 0 -142.5 22t-87.5 50t-44 83t-17 89.5t-2 101.5v382zM197 779v118h118v-118
h-118zM408 779v118h118v-118h-118z" />
    <glyph glyph-name="Yacute" unicode="&#xdd;" horiz-adv-x="667" 
d="M261 0v301l-262 415h169l168 -283l166 283h166l-263 -416v-300h-144zM259 763l68 146h153l-134 -146h-87z" />
    <glyph glyph-name="Thorn" unicode="&#xde;" horiz-adv-x="667" 
d="M75 0v716h144v-135h88q95 0 135 -4.5t68 -17.5q45 -20 79 -68.5t34 -129.5q0 -146 -117 -201q-53 -25 -192 -25h-95v-135h-144zM289 460h-70v-204h80q25 0 39 0.5t38.5 3t38.5 9.5t29.5 17.5t22.5 29t7 43.5q0 47 -33 73q-23 19 -52 23.5t-100 4.5z" />
    <glyph glyph-name="germandbls" unicode="&#xdf;" horiz-adv-x="611" 
d="M66 0v465q0 29 0.5 45.5t4.5 48t11.5 51t23.5 44.5t38 39.5t57 24.5t79 10q106 0 152 -45.5t46 -102.5q0 -42 -30 -97q-31 -57 -31 -72q0 -18 12 -33.5t59 -63.5q48 -49 67 -84.5t19 -75.5q0 -73 -50 -119.5t-124 -46.5q-57 0 -98 29.5t-60 63.5l96 55q20 -39 51 -39
q20 0 34 15t14 37q0 21 -13.5 38.5t-68.5 69.5q-83 80 -83 124q0 30 32 95q33 67 33 93q0 22 -16.5 37t-42.5 15q-18 0 -31.5 -5t-21.5 -17t-12.5 -23t-6.5 -33t-2.5 -36t-0.5 -42v-465h-137z" />
    <glyph glyph-name="agrave" unicode="&#xe0;" 
d="M176 360l-124 23q20 71 68.5 109t155.5 38q63 0 106.5 -12.5t65 -28.5t33 -46.5t13 -50.5t1.5 -57q0 -11 -0.5 -60t-0.5 -83v-58q3 -77 30 -134h-135q-6 14 -10 29l-8 28q-69 -69 -161 -69q-78 0 -125 42.5t-47 110.5q0 36 14 64.5t31 44t47.5 28t48.5 17t48 10.5
q94 17 133 33v14q0 17 -2 26.5t-9.5 22t-28.5 18.5t-54 6q-24 0 -41 -6t-26.5 -17.5t-13.5 -19.5t-9 -22zM360 222v27q-24 -9 -58 -16q-30 -4 -47 -10q-80 -16 -80 -67q0 -26 20 -48.5t56 -22.5q43 0 80 32q14 12 20.5 29.5t7.5 31.5t1 44zM285 728l68 -146h-87l-134 146
h153z" />
    <glyph glyph-name="aacute" unicode="&#xe1;" 
d="M176 360l-124 23q20 71 68.5 109t155.5 38q63 0 106.5 -12.5t65 -28.5t33 -46.5t13 -50.5t1.5 -57q0 -11 -0.5 -60t-0.5 -83v-58q3 -77 30 -134h-135q-6 14 -10 29l-8 28q-69 -69 -161 -69q-78 0 -125 42.5t-47 110.5q0 36 14 64.5t31 44t47.5 28t48.5 17t48 10.5
q94 17 133 33v14q0 17 -2 26.5t-9.5 22t-28.5 18.5t-54 6q-24 0 -41 -6t-26.5 -17.5t-13.5 -19.5t-9 -22zM360 222v27q-24 -9 -58 -16q-30 -4 -47 -10q-80 -16 -80 -67q0 -26 20 -48.5t56 -22.5q43 0 80 32q14 12 20.5 29.5t7.5 31.5t1 44zM204 582l68 146h153l-134 -146
h-87z" />
    <glyph glyph-name="acircumflex" unicode="&#xe2;" 
d="M176 360l-124 23q20 71 68.5 109t155.5 38q63 0 106.5 -12.5t65 -28.5t33 -46.5t13 -50.5t1.5 -57q0 -11 -0.5 -60t-0.5 -83v-58q3 -77 30 -134h-135q-6 14 -10 29l-8 28q-69 -69 -161 -69q-78 0 -125 42.5t-47 110.5q0 36 14 64.5t31 44t47.5 28t48.5 17t48 10.5
q94 17 133 33v14q0 17 -2 26.5t-9.5 22t-28.5 18.5t-54 6q-24 0 -41 -6t-26.5 -17.5t-13.5 -19.5t-9 -22zM360 222v27q-24 -9 -58 -16q-30 -4 -47 -10q-80 -16 -80 -67q0 -26 20 -48.5t56 -22.5q43 0 80 32q14 12 20.5 29.5t7.5 31.5t1 44zM113 584l103 144h127l101 -144
h-110l-57 73l-53 -73h-111z" />
    <glyph glyph-name="atilde" unicode="&#xe3;" 
d="M176 360l-124 23q20 71 68.5 109t155.5 38q63 0 106.5 -12.5t65 -28.5t33 -46.5t13 -50.5t1.5 -57q0 -11 -0.5 -60t-0.5 -83v-58q3 -77 30 -134h-135q-6 14 -10 29l-8 28q-69 -69 -161 -69q-78 0 -125 42.5t-47 110.5q0 36 14 64.5t31 44t47.5 28t48.5 17t48 10.5
q94 17 133 33v14q0 17 -2 26.5t-9.5 22t-28.5 18.5t-54 6q-24 0 -41 -6t-26.5 -17.5t-13.5 -19.5t-9 -22zM360 222v27q-24 -9 -58 -16q-30 -4 -47 -10q-80 -16 -80 -67q0 -26 20 -48.5t56 -22.5q43 0 80 32q14 12 20.5 29.5t7.5 31.5t1 44zM172 592h-62q-3 70 28 101
q23 23 61 23q30 0 80 -22q45 -20 65 -20q34 0 40 43h63q0 -123 -86 -123q-27 0 -85 22q-49 19 -70 19q-31 0 -34 -41v-2z" />
    <glyph glyph-name="adieresis" unicode="&#xe4;" 
d="M176 360l-124 23q20 71 68.5 109t155.5 38q63 0 106.5 -12.5t65 -28.5t33 -46.5t13 -50.5t1.5 -57q0 -11 -0.5 -60t-0.5 -83v-58q3 -77 30 -134h-135q-6 14 -10 29l-8 28q-69 -69 -161 -69q-78 0 -125 42.5t-47 110.5q0 36 14 64.5t31 44t47.5 28t48.5 17t48 10.5
q94 17 133 33v14q0 17 -2 26.5t-9.5 22t-28.5 18.5t-54 6q-24 0 -41 -6t-26.5 -17.5t-13.5 -19.5t-9 -22zM360 222v27q-24 -9 -58 -16q-30 -4 -47 -10q-80 -16 -80 -67q0 -26 20 -48.5t56 -22.5q43 0 80 32q14 12 20.5 29.5t7.5 31.5t1 44zM114 598v118h118v-118h-118z
M325 598v118h118v-118h-118z" />
    <glyph glyph-name="aring" unicode="&#xe5;" 
d="M176 360l-124 23q20 71 68.5 109t155.5 38q63 0 106.5 -12.5t65 -28.5t33 -46.5t13 -50.5t1.5 -57q0 -11 -0.5 -60t-0.5 -83v-58q3 -77 30 -134h-135q-6 14 -10 29l-8 28q-69 -69 -161 -69q-78 0 -125 42.5t-47 110.5q0 36 14 64.5t31 44t47.5 28t48.5 17t48 10.5
q94 17 133 33v14q0 17 -2 26.5t-9.5 22t-28.5 18.5t-54 6q-24 0 -41 -6t-26.5 -17.5t-13.5 -19.5t-9 -22zM360 222v27q-24 -9 -58 -16q-30 -4 -47 -10q-80 -16 -80 -67q0 -26 20 -48.5t56 -22.5q43 0 80 32q14 12 20.5 29.5t7.5 31.5t1 44zM384 662q0 -40 -28 -67.5
t-67 -27.5q-40 0 -68 28t-28 67q0 40 28 68t68 28q39 0 67 -28t28 -68zM332 662q0 18 -13 31t-30 13q-19 0 -31.5 -13t-12.5 -31t13 -30.5t31 -12.5q17 0 30 12.5t13 30.5z" />
    <glyph glyph-name="ae" unicode="&#xe6;" horiz-adv-x="889" 
d="M703 165l134 -23q-53 -154 -229 -154q-109 0 -185 72q-30 -27 -83.5 -49.5t-119.5 -22.5q-89 0 -132 46t-43 107q0 42 18 74t43 48q24 16 48.5 23.5t99.5 23.5q6 1 9 2t8.5 2t9.5 2q56 13 83 21v13q0 13 -1.5 21.5t-8.5 23t-26 22.5t-49 8q-76 0 -95 -64l-125 23
q25 77 77.5 111.5t159.5 34.5q104 0 159 -48q20 18 46 29q44 19 95 19t91.5 -14.5t66 -35t44 -52.5t27 -58t13.5 -61t5.5 -51t0.5 -39h-345q14 -126 108 -126q69 0 96 72zM363 248l-37 -10q-52 -13 -60 -16q-41 -10 -62.5 -24.5t-21.5 -44.5q0 -26 20 -47t56 -21q41 0 75 29
q21 17 25.5 44.5t4.5 89.5zM501 305h206q-8 120 -105 120q-33 0 -55.5 -16t-31 -38.5t-12 -39t-2.5 -26.5z" />
    <glyph glyph-name="ccedilla" unicode="&#xe7;" 
d="M525 365l-135 -24q-14 82 -94 82q-112 0 -112 -154q0 -169 113 -169q28 0 48 10t30.5 28.5t14.5 30.5t7 30l135 -23q-4 -19 -9 -35t-21.5 -45.5t-38 -50t-60.5 -37.5t-87 -18v-2q37 -4 64.5 -26.5t27.5 -58.5q0 -39 -37 -69t-121 -30q-44 0 -83 6v49q24 -3 59 -3
q100 0 100 43q0 6 -2.5 11.5t-8.5 12.5t-19.5 11.5t-33.5 4.5q-19 0 -55 -7l15 48q23 6 50 8v2q-58 3 -101.5 25.5t-67 52t-38 68.5t-18.5 67.5t-4 56.5q0 47 11.5 90.5t38 86t78.5 68t123 25.5q59 0 102.5 -15.5t68.5 -42.5t38 -51.5t22 -55.5z" />
    <glyph glyph-name="egrave" unicode="&#xe8;" 
d="M374 165l137 -23q-53 -154 -226 -154q-162 0 -220 124q-31 67 -31 144q0 114 61 194t177 80q70 0 120.5 -26.5t77 -72t38 -98t10.5 -113.5h-344q2 -52 30.5 -89.5t82.5 -37.5q66 0 87 72zM177 304h205q-1 39 -13.5 66t-31.5 37.5t-32 14t-25 3.5q-48 0 -76 -34.5
t-27 -86.5zM285 728l68 -146h-87l-134 146h153z" />
    <glyph glyph-name="eacute" unicode="&#xe9;" 
d="M374 165l137 -23q-53 -154 -226 -154q-162 0 -220 124q-31 67 -31 144q0 114 61 194t177 80q70 0 120.5 -26.5t77 -72t38 -98t10.5 -113.5h-344q2 -52 30.5 -89.5t82.5 -37.5q66 0 87 72zM177 304h205q-1 39 -13.5 66t-31.5 37.5t-32 14t-25 3.5q-48 0 -76 -34.5
t-27 -86.5zM204 582l68 146h153l-134 -146h-87z" />
    <glyph glyph-name="ecircumflex" unicode="&#xea;" 
d="M374 165l137 -23q-53 -154 -226 -154q-162 0 -220 124q-31 67 -31 144q0 114 61 194t177 80q70 0 120.5 -26.5t77 -72t38 -98t10.5 -113.5h-344q2 -52 30.5 -89.5t82.5 -37.5q66 0 87 72zM177 304h205q-1 39 -13.5 66t-31.5 37.5t-32 14t-25 3.5q-48 0 -76 -34.5
t-27 -86.5zM113 584l103 144h127l101 -144h-110l-57 73l-53 -73h-111z" />
    <glyph glyph-name="edieresis" unicode="&#xeb;" 
d="M374 165l137 -23q-53 -154 -226 -154q-162 0 -220 124q-31 67 -31 144q0 114 61 194t177 80q70 0 120.5 -26.5t77 -72t38 -98t10.5 -113.5h-344q2 -52 30.5 -89.5t82.5 -37.5q66 0 87 72zM177 304h205q-1 39 -13.5 66t-31.5 37.5t-32 14t-25 3.5q-48 0 -76 -34.5
t-27 -86.5zM114 598v118h118v-118h-118zM325 598v118h118v-118h-118z" />
    <glyph glyph-name="igrave" unicode="&#xec;" horiz-adv-x="278" 
d="M71 0v518h137v-518h-137zM146 728l68 -146h-87l-134 146h153z" />
    <glyph glyph-name="iacute" unicode="&#xed;" horiz-adv-x="278" 
d="M71 0v518h137v-518h-137zM65 582l68 146h153l-134 -146h-87z" />
    <glyph glyph-name="icircumflex" unicode="&#xee;" horiz-adv-x="278" 
d="M71 0v518h137v-518h-137zM-26 584l103 144h127l101 -144h-110l-57 73l-53 -73h-111z" />
    <glyph glyph-name="idieresis" unicode="&#xef;" horiz-adv-x="278" 
d="M71 0v518h137v-518h-137zM-25 598v118h118v-118h-118zM186 598v118h118v-118h-118z" />
    <glyph glyph-name="eth" unicode="&#xf0;" horiz-adv-x="611" 
d="M160 716h144q13 -11 28 -23t24 -19l89 42l22 -48l-70 -33q175 -177 175 -368q0 -128 -76 -203.5t-194 -75.5q-122 0 -193.5 80t-71.5 192q0 114 71 186t158 72q52 0 106 -33l2 2q-28 50 -70 104l-95 -44l-23 48l80 37q-37 34 -106 84zM181 259q0 -81 36.5 -120t85.5 -39
q54 0 89.5 41.5t35.5 112.5q0 73 -37 115t-89 42q-48 0 -84.5 -38.5t-36.5 -113.5z" />
    <glyph glyph-name="ntilde" unicode="&#xf1;" horiz-adv-x="611" 
d="M404 0v265q0 34 -0.5 50.5t-5 41.5t-12.5 37t-25 21.5t-41 9.5q-33 0 -59.5 -16.5t-39.5 -44.5q-15 -32 -15 -129v-235h-137v518h128v-76h2q64 88 169 88q71 0 119 -38q16 -12 26.5 -30.5t16 -31t8 -40.5t2.5 -33.5t1 -34.5v-322h-137zM199 592h-62q-3 70 28 101
q23 23 61 23q30 0 80 -22q45 -20 65 -20q34 0 40 43h63q0 -123 -86 -123q-27 0 -85 22q-49 19 -70 19q-31 0 -34 -41v-2z" />
    <glyph glyph-name="ograve" unicode="&#xf2;" horiz-adv-x="611" 
d="M38 266q0 103 69.5 183.5t197.5 80.5q86 0 148.5 -40.5t91 -100.5t28.5 -128q0 -112 -73 -192.5t-194 -80.5q-29 0 -59.5 5.5t-69.5 23.5t-68.5 47t-50 81.5t-20.5 120.5zM179 259q0 -78 36.5 -118.5t89.5 -40.5q52 0 89.5 40t37.5 120q0 75 -36 116.5t-91 41.5
q-53 0 -89.5 -41t-36.5 -118zM312 728l68 -146h-87l-134 146h153z" />
    <glyph glyph-name="oacute" unicode="&#xf3;" horiz-adv-x="611" 
d="M38 266q0 103 69.5 183.5t197.5 80.5q86 0 148.5 -40.5t91 -100.5t28.5 -128q0 -112 -73 -192.5t-194 -80.5q-29 0 -59.5 5.5t-69.5 23.5t-68.5 47t-50 81.5t-20.5 120.5zM179 259q0 -78 36.5 -118.5t89.5 -40.5q52 0 89.5 40t37.5 120q0 75 -36 116.5t-91 41.5
q-53 0 -89.5 -41t-36.5 -118zM231 582l68 146h153l-134 -146h-87z" />
    <glyph glyph-name="ocircumflex" unicode="&#xf4;" horiz-adv-x="611" 
d="M38 266q0 103 69.5 183.5t197.5 80.5q86 0 148.5 -40.5t91 -100.5t28.5 -128q0 -112 -73 -192.5t-194 -80.5q-29 0 -59.5 5.5t-69.5 23.5t-68.5 47t-50 81.5t-20.5 120.5zM179 259q0 -78 36.5 -118.5t89.5 -40.5q52 0 89.5 40t37.5 120q0 75 -36 116.5t-91 41.5
q-53 0 -89.5 -41t-36.5 -118zM140 584l103 144h127l101 -144h-110l-57 73l-53 -73h-111z" />
    <glyph glyph-name="otilde" unicode="&#xf5;" horiz-adv-x="611" 
d="M38 266q0 103 69.5 183.5t197.5 80.5q86 0 148.5 -40.5t91 -100.5t28.5 -128q0 -112 -73 -192.5t-194 -80.5q-29 0 -59.5 5.5t-69.5 23.5t-68.5 47t-50 81.5t-20.5 120.5zM179 259q0 -78 36.5 -118.5t89.5 -40.5q52 0 89.5 40t37.5 120q0 75 -36 116.5t-91 41.5
q-53 0 -89.5 -41t-36.5 -118zM199 592h-62q-3 70 28 101q23 23 61 23q30 0 80 -22q45 -20 65 -20q34 0 40 43h63q0 -123 -86 -123q-27 0 -85 22q-49 19 -70 19q-31 0 -34 -41v-2z" />
    <glyph glyph-name="odieresis" unicode="&#xf6;" horiz-adv-x="611" 
d="M38 266q0 103 69.5 183.5t197.5 80.5q86 0 148.5 -40.5t91 -100.5t28.5 -128q0 -112 -73 -192.5t-194 -80.5q-29 0 -59.5 5.5t-69.5 23.5t-68.5 47t-50 81.5t-20.5 120.5zM179 259q0 -78 36.5 -118.5t89.5 -40.5q52 0 89.5 40t37.5 120q0 75 -36 116.5t-91 41.5
q-53 0 -89.5 -41t-36.5 -118zM141 598v118h118v-118h-118zM352 598v118h118v-118h-118z" />
    <glyph glyph-name="divide" unicode="&#xf7;" horiz-adv-x="584" 
d="M41 290v126h501v-126h-501zM223 489v137h137v-137h-137zM223 80v137h137v-137h-137z" />
    <glyph glyph-name="oslash" unicode="&#xf8;" horiz-adv-x="611" 
d="M459 487l52 59l55 -44l-54 -62q61 -74 61 -181q0 -113 -73.5 -192t-192.5 -79q-82 0 -152 39l-54 -63l-54 47l55 63q-64 72 -64 192q0 112 73.5 188t196.5 76q82 0 151 -43zM193 180l185 214q-29 24 -73 24q-52 0 -89 -39.5t-37 -119.5q0 -44 14 -79zM420 333l-183 -211
q33 -22 68 -22q63 0 95 46t32 114q0 41 -12 73z" />
    <glyph glyph-name="ugrave" unicode="&#xf9;" horiz-adv-x="611" 
d="M414 0v78h-2q-27 -42 -73 -66t-97 -24q-43 0 -83 18t-60 50q-29 47 -29 135v327h137v-238q0 -83 3 -110t13 -43q22 -34 70 -34q67 0 97 57q14 27 14 150v218h137v-518h-127zM312 728l68 -146h-87l-134 146h153z" />
    <glyph glyph-name="uacute" unicode="&#xfa;" horiz-adv-x="611" 
d="M414 0v78h-2q-27 -42 -73 -66t-97 -24q-43 0 -83 18t-60 50q-29 47 -29 135v327h137v-238q0 -83 3 -110t13 -43q22 -34 70 -34q67 0 97 57q14 27 14 150v218h137v-518h-127zM231 582l68 146h153l-134 -146h-87z" />
    <glyph glyph-name="ucircumflex" unicode="&#xfb;" horiz-adv-x="611" 
d="M414 0v78h-2q-27 -42 -73 -66t-97 -24q-43 0 -83 18t-60 50q-29 47 -29 135v327h137v-238q0 -83 3 -110t13 -43q22 -34 70 -34q67 0 97 57q14 27 14 150v218h137v-518h-127zM140 584l103 144h127l101 -144h-110l-57 73l-53 -73h-111z" />
    <glyph glyph-name="udieresis" unicode="&#xfc;" horiz-adv-x="611" 
d="M414 0v78h-2q-27 -42 -73 -66t-97 -24q-43 0 -83 18t-60 50q-29 47 -29 135v327h137v-238q0 -83 3 -110t13 -43q22 -34 70 -34q67 0 97 57q14 27 14 150v218h137v-518h-127zM141 598v118h118v-118h-118zM352 598v118h118v-118h-118z" />
    <glyph glyph-name="yacute" unicode="&#xfd;" 
d="M9 518h146l123 -368h2l120 368h142l-183 -499q-1 -2 -3 -7t-5 -13t-5 -14q-13 -37 -20 -55.5t-20.5 -46t-27 -40.5t-34.5 -27.5t-48.5 -20t-63.5 -5.5q-40 0 -78 8l-12 107q29 -6 58 -6q15 0 26.5 2.5t27.5 11t29 30.5t23 56zM204 582l68 146h153l-134 -146h-87z" />
    <glyph glyph-name="thorn" unicode="&#xfe;" horiz-adv-x="611" 
d="M68 716h137v-258q23 23 37.5 35t46 24.5t68.5 12.5q91 0 154 -70t63 -197q0 -126 -61.5 -200.5t-155.5 -74.5q-37 0 -69.5 14.5t-47.5 27.5t-35 34v-261h-137v913zM204 271q0 -56 10.5 -88.5t35.5 -56.5q30 -29 74 -29q43 0 76 37t33 124q0 21 -2 40t-9 43.5t-19 42
t-33.5 29.5t-50.5 12q-51 0 -83 -39.5t-32 -114.5z" />
    <glyph glyph-name="ydieresis" unicode="&#xff;" 
d="M9 518h146l123 -368h2l120 368h142l-183 -499q-1 -2 -3 -7t-5 -13t-5 -14q-13 -37 -20 -55.5t-20.5 -46t-27 -40.5t-34.5 -27.5t-48.5 -20t-63.5 -5.5q-40 0 -78 8l-12 107q29 -6 58 -6q15 0 26.5 2.5t27.5 11t29 30.5t23 56zM114 598v118h118v-118h-118zM325 598v118
h118v-118h-118z" />
    <glyph glyph-name="dotlessi" unicode="&#x131;" horiz-adv-x="278" 
d="M71 0v518h137v-518h-137z" />
    <glyph glyph-name="Lslash" unicode="&#x141;" horiz-adv-x="611" 
d="M75 358v358h144v-237l161 135v-119l-161 -134v-240h360v-121h-504v241l-76 -63v116z" />
    <glyph glyph-name="lslash" unicode="&#x142;" horiz-adv-x="278" 
d="M71 352v364h137v-248l67 57v-93l-67 -57v-375h-137v259l-67 -57v93z" />
    <glyph glyph-name="OE" unicode="&#x152;" horiz-adv-x="1000" 
d="M969 121v-121h-460v84h-2q-54 -96 -186 -96q-157 0 -229 126q-57 101 -57 245q0 167 73 268t206 101q62 0 112.5 -24.5t80.5 -66.5h2v79h446v-121h-321v-160h294v-121h-294v-193h335zM342 604q-158 0 -158 -234q0 -137 40 -197.5t118 -60.5q76 0 117 58t41 197
q0 237 -158 237z" />
    <glyph glyph-name="oe" unicode="&#x153;" horiz-adv-x="944" 
d="M761 167l133 -22q-26 -83 -88 -120t-137 -37q-112 0 -183 72q-78 -72 -182 -72q-123 0 -193 80t-70 190q0 72 28 132.5t89.5 100t147.5 39.5q108 0 181 -72q68 72 173 72q24 0 49 -5t56 -17t58.5 -39t45.5 -65q32 -69 32 -185h-341q4 -60 33 -93t76 -33q23 0 40 7
t27.5 20.5t14.5 22.5t10 24zM182 251q0 -30 10.5 -62t40 -60.5t72.5 -28.5q15 0 31.5 5.5t38 20.5t35.5 50.5t14 86.5q0 73 -33.5 114t-85.5 41q-55 0 -89 -42t-34 -125zM561 305h208q-1 15 -4 29.5t-12.5 39.5t-33 40.5t-57.5 15.5q-92 0 -101 -125z" />
    <glyph glyph-name="Scaron" unicode="&#x160;" horiz-adv-x="667" 
d="M43 233l140 13q3 -17 6 -29t14.5 -34.5t26.5 -36.5t43.5 -25.5t65.5 -11.5q70 0 105.5 30t35.5 69q0 42 -35.5 60t-146.5 45q-23 6 -36 9.5t-40 13.5t-44.5 19.5t-40 27t-36 37t-23 47.5t-9.5 61q0 26 6.5 51t25 53t46.5 48.5t75.5 34t107.5 13.5q55 0 101.5 -11.5
t85.5 -36t62 -67.5t25 -102l-145 -6q-3 20 -7.5 33t-17 32t-39.5 29t-67 10q-26 0 -51 -5t-47.5 -22t-22.5 -44q0 -33 35 -52.5t125 -40.5q32 -8 49 -12.5t48.5 -15t50 -21t42 -29t36.5 -40t22 -52t9 -67.5q0 -63 -34 -114.5t-83 -73.5q-68 -32 -169 -32q-266 0 -295 245z
M499 909l-103 -144h-127l-101 144h110l57 -73l53 73h111z" />
    <glyph glyph-name="scaron" unicode="&#x161;" 
d="M36 148l137 21q19 -83 111 -83q10 0 21.5 1.5t31.5 6t33 17.5t13 32q0 20 -13.5 29t-42.5 15q-59 13 -90 20.5t-72 23t-61 32.5t-34.5 44.5t-14.5 63.5q0 56 33 93.5t79.5 51.5t105.5 14q96 0 152 -31t78 -106l-130 -24q-18 63 -97 63q-94 0 -94 -43q0 -22 26 -32
q32 -12 116 -32q36 -9 57 -15t51 -19t46.5 -28.5t29 -41.5t12.5 -59q0 -70 -59 -122t-177 -52q-123 0 -193 63q-40 36 -55 97zM444 728l-103 -144h-127l-101 144h110l57 -73l53 73h111z" />
    <glyph glyph-name="Ydieresis" unicode="&#x178;" horiz-adv-x="667" 
d="M261 0v301l-262 415h169l168 -283l166 283h166l-263 -416v-300h-144zM169 779v118h118v-118h-118zM380 779v118h118v-118h-118z" />
    <glyph glyph-name="Zcaron" unicode="&#x17d;" horiz-adv-x="611" 
d="M15 0v130l376 465h-334v121h524v-113l-392 -482h407v-121h-581zM471 909l-103 -144h-127l-101 144h110l57 -73l53 73h111z" />
    <glyph glyph-name="zcaron" unicode="&#x17e;" horiz-adv-x="500" 
d="M18 0v107l194 222q53 61 71 79q-50 -4 -63 -4h-183v114h428v-97l-198 -228q-3 -4 -36 -39l-34 -37q66 4 71 4h213v-121h-463zM416 728l-103 -144h-127l-101 144h110l57 -73l53 73h111z" />
    <glyph glyph-name="florin" unicode="&#x192;" 
d="M137 404l18 103h98l8 44q5 28 8 41.5t9 35t13 32t19.5 24t28 19.5t38.5 10.5t52 4.5q62 0 131 -21l-27 -110q-46 13 -77 13q-22 0 -35 -9.5t-17 -21t-8 -34.5l-5 -28h101l-18 -103h-100l-84 -466q-5 -28 -9.5 -45t-16 -39t-27 -34.5t-43.5 -21t-65 -8.5q-76 0 -137 19
l28 108q51 -11 82 -11q17 0 27 4t16.5 16.5t9 24t7.5 38.5l73 415h-98z" />
    <glyph glyph-name="circumflex" unicode="&#x2c6;" horiz-adv-x="333" 
d="M1 584l103 144h127l101 -144h-110l-57 73l-53 -73h-111z" />
    <glyph glyph-name="caron" unicode="&#x2c7;" horiz-adv-x="333" 
d="M332 728l-103 -144h-127l-101 144h110l57 -73l53 73h111z" />
    <glyph glyph-name="breve" unicode="&#x2d8;" horiz-adv-x="333" 
d="M251 731h67q-6 -72 -49.5 -107t-102.5 -35q-60 0 -103 35t-49 107h67q3 -27 14 -42q21 -28 71 -28q81 0 85 70z" />
    <glyph glyph-name="dotaccent" unicode="&#x2d9;" horiz-adv-x="333" 
d="M225 716v-118h-118v118h118z" />
    <glyph glyph-name="ring" unicode="&#x2da;" horiz-adv-x="333" 
d="M262 662q0 -40 -28 -67.5t-67 -27.5q-40 0 -68 28t-28 67q0 40 28 68t68 28q39 0 67 -28t28 -68zM210 662q0 18 -13 31t-30 13q-19 0 -31.5 -13t-12.5 -31t13 -30.5t31 -12.5q17 0 30 12.5t13 30.5z" />
    <glyph glyph-name="ogonek" unicode="&#x2db;" horiz-adv-x="333" 
d="M96 13h73q-10 -30 -10 -71q0 -77 70 -77q36 0 66 12v-67q-47 -20 -94 -20q-52 0 -87.5 28t-35.5 86q0 42 18 109z" />
    <glyph glyph-name="tilde" unicode="&#x2dc;" horiz-adv-x="333" 
d="M60 592h-62q-3 70 28 101q23 23 61 23q30 0 80 -22q45 -20 65 -20q34 0 40 43h63q0 -123 -86 -123q-27 0 -85 22q-49 19 -70 19q-31 -2 -34 -43z" />
    <glyph glyph-name="hungarumlaut" unicode="&#x2dd;" horiz-adv-x="333" 
d="M36 582l68 146h153l-134 -146h-87zM227 582l68 146h153l-134 -146h-87z" />
    <glyph glyph-name="endash" unicode="&#x2013;" 
d="M-6 208v102h568v-102h-568z" />
    <glyph glyph-name="emdash" unicode="&#x2014;" horiz-adv-x="1000" 
d="M-6 208v102h1012v-102h-1012z" />
    <glyph glyph-name="quoteleft" unicode="&#x2018;" horiz-adv-x="278" 
d="M210 426h-137v98q0 33 2.5 53t12.5 51.5t37 55t70 39.5l27 -57q-15 -5 -23.5 -9.5t-23.5 -15.5t-22.5 -31t-8.5 -47h66v-137z" />
    <glyph glyph-name="quoteright" unicode="&#x2019;" horiz-adv-x="278" 
d="M68 716h137v-98q0 -33 -2.5 -53t-12.5 -51.5t-37 -55t-70 -39.5l-27 57q15 5 23.5 9.5t23.5 15.5t22.5 31t8.5 47h-66v137z" />
    <glyph glyph-name="quotesinglbase" unicode="&#x201a;" horiz-adv-x="278" 
d="M68 137h137v-98q0 -33 -2.5 -53t-12.5 -51.5t-37 -55t-70 -39.5l-27 57q15 5 23.5 9.5t23.5 15.5t22.5 31t8.5 47h-66v137z" />
    <glyph glyph-name="quotedblleft" unicode="&#x201c;" horiz-adv-x="500" 
d="M201 426h-137v98q0 33 2.5 53t12.5 51.5t37 55t70 39.5l27 -57q-15 -5 -23.5 -9.5t-23.5 -15.5t-22.5 -31t-8.5 -47h66v-137zM431 426h-137v98q0 33 2.5 53t12.5 51.5t37 55t70 39.5l27 -57q-15 -5 -23.5 -9.5t-23.5 -15.5t-22.5 -31t-8.5 -47h66v-137z" />
    <glyph glyph-name="quotedblright" unicode="&#x201d;" horiz-adv-x="500" 
d="M299 716h137v-98q0 -33 -2.5 -53t-12.5 -51.5t-37 -55t-70 -39.5l-27 57q15 5 23.5 9.5t23.5 15.5t22.5 31t8.5 47h-66v137zM69 716h137v-98q0 -33 -2.5 -53t-12.5 -51.5t-37 -55t-70 -39.5l-27 57q15 5 23.5 9.5t23.5 15.5t22.5 31t8.5 47h-66v137z" />
    <glyph glyph-name="quotedblbase" unicode="&#x201e;" horiz-adv-x="500" 
d="M297 137h137v-98q0 -33 -2.5 -53t-12.5 -51.5t-37 -55t-70 -39.5l-27 57q15 5 23.5 9.5t23.5 15.5t22.5 31t8.5 47h-66v137zM67 137h137v-98q0 -33 -2.5 -53t-12.5 -51.5t-37 -55t-70 -39.5l-27 57q15 5 23.5 9.5t23.5 15.5t22.5 31t8.5 47h-66v137z" />
    <glyph glyph-name="dagger" unicode="&#x2020;" 
d="M215 -171v575h-179v114h179v189h129v-189h176v-114h-176v-575h-129z" />
    <glyph glyph-name="daggerdbl" unicode="&#x2021;" 
d="M215 -171v163h-179v114h179v320h-179v114h179v167h129v-167h176v-114h-176v-320h176v-114h-176v-163h-129z" />
    <glyph glyph-name="bullet" unicode="&#x2022;" horiz-adv-x="350" 
d="M320 353q0 -60 -42.5 -102t-102.5 -42q-59 0 -101.5 42.5t-42.5 101.5q0 60 42 102.5t102 42.5t102.5 -42.5t42.5 -102.5z" />
    <glyph glyph-name="ellipsis" unicode="&#x2026;" horiz-adv-x="1000" 
d="M764 0v137h137v-137h-137zM98 0v137h137v-137h-137zM431 0v137h137v-137h-137z" />
    <glyph glyph-name="perthousand" unicode="&#x2030;" horiz-adv-x="1000" 
d="M96 540q0 -55 9.5 -82.5t35.5 -27.5q25 0 35 27.5t11 82.5q2 112 -46 112q-26 0 -35.5 -28t-9.5 -84zM1 546q0 21 2.5 42t11.5 47.5t24 46t41.5 33t61.5 13.5q41 0 70.5 -17.5t43.5 -46.5t20 -58t6 -60q0 -192 -141 -192q-140 0 -140 192zM137 -26l299 754h96l-299 -754
h-96zM390 165q0 27 5.5 54t19 58t44 50t73.5 19q41 0 70 -17.5t43 -46.5t20 -57.5t6 -59.5q0 -21 -1.5 -40t-9.5 -49.5t-21.5 -51.5t-41.5 -37t-66 -16q-141 0 -141 194zM485 159q0 -55 10 -83t35 -28q26 0 36 28t10 83t-10 83t-36 28q-25 0 -35 -28t-10 -83zM717 165
q0 27 5.5 54t19 58t44 50t73.5 19q41 0 70.5 -17.5t43.5 -46.5t19.5 -57.5t5.5 -59.5q-4 -194 -140 -194q-141 0 -141 194zM812 159q0 -27 1 -41t4.5 -33.5t13.5 -28.5t26 -9q27 0 36.5 29t9.5 83q0 55 -10 83t-35 28q-26 0 -36 -28t-10 -83z" />
    <glyph glyph-name="guilsinglleft" unicode="&#x2039;" horiz-adv-x="333" 
d="M299 480l-127 -220l127 -226h-108l-154 226l154 220h108z" />
    <glyph glyph-name="guilsinglright" unicode="&#x203a;" horiz-adv-x="333" 
d="M34 34l127 220l-127 226h108l154 -226l-154 -220h-108z" />
    <glyph glyph-name="fraction" unicode="&#x2044;" horiz-adv-x="167" 
d="M-90 -25h-77l425 753h77z" />
    <glyph glyph-name="Euro" unicode="&#x20ac;" 
d="M525 698l-29 -135q-41 41 -121 41q-79 0 -129 -57q-29 -34 -39 -80h268l-16 -76h-262q-1 -7 -1 -29q0 -5 0.5 -17t0.5 -18h249l-16 -76h-222q12 -53 37 -82q50 -58 127 -58q93 0 149 58v-149q-61 -32 -147 -32q-144 0 -235 97q-63 69 -82 166h-73l16 76h48q0 3 -0.5 11.5
t-0.5 13.5q0 8 0.5 21t0.5 18h-64l16 76h58q21 98 82 162q92 99 242 99q83 0 143 -30z" />
    <glyph glyph-name="trademark" unicode="&#x2122;" horiz-adv-x="1000" 
d="M209 316v330h-123v70h324v-70h-120v-330h-81zM458 316v400h127l72 -276h2l72 276h127v-400h-77v319h-2l-85 -319h-73l-84 319h-2v-319h-77z" />
    <glyph glyph-name="minus" unicode="&#x2212;" horiz-adv-x="584" 
d="M41 289v126h501v-126h-501z" />
    <glyph glyph-name="fi" unicode="&#xfb01;" horiz-adv-x="611" 
d="M15 518h76v40q0 26 1 42t9.5 43.5t24 43.5t47.5 28.5t78 12.5q59 0 115 -17l-19 -96q-33 8 -63 8q-16 0 -27 -4.5t-16.5 -10.5t-8.5 -16.5t-3.5 -17.5t-0.5 -19v-37h103v-109h-103v-409h-137v409h-76v109zM400 0v518h137v-518h-137zM400 589v127h137v-127h-137z" />
    <glyph glyph-name="fl" unicode="&#xfb02;" horiz-adv-x="611" 
d="M15 518h76v40q0 26 1 42t9.5 43.5t24 43.5t47.5 28.5t78 12.5q59 0 115 -17l-19 -96q-33 8 -63 8q-16 0 -27 -4.5t-16.5 -10.5t-8.5 -16.5t-3.5 -17.5t-0.5 -19v-37h103v-109h-103v-409h-137v409h-76v109zM401 0v716h137v-716h-137z" />
    </font>
</defs>
</svg>
