<svg id="Frutas" xmlns="http://www.w3.org/2000/svg" viewBox="0 0 1500 1500"><defs><style>.cls-1{fill:none;stroke:#000;stroke-linecap:round;stroke-linejoin:round;stroke-width:22px;}</style></defs><title>03_Frutas</title><path class="cls-1" d="M409,1130.13s369.24,78.91,550.45-102.3,205.56-249.4,262.06-359.49c0,0,42.38-17.05,49.2-61.87s0-85.73,0-85.73,86.71-33.12,86.71-20.46,31.18,116.91,53.58,129.58,36,53.58,25.33,152.95-53.09,308.35-160.75,410.15c-122.27,115.64-252.81,252.82-574.31,191.44,0,0-52.61-8.77-147.47-47.66-55.89-22.92-121.57-68.34-196-137.93C357.89,1198.81,358.87,1146.2,409,1130.13Z"/><path class="cls-1" d="M496.67,1364.62a324.27,324.27,0,0,1-138.78,31c-179.71,0-325.39-145.68-325.39-325.39S178.18,744.82,357.89,744.82s325.4,145.68,325.4,325.39a326.87,326.87,0,0,1-5.48,59.76"/><path class="cls-1" d="M342.53,745.89s.33-54.53,35.32-103.47C396,617,423.47,593.17,465.06,579.2"/><path class="cls-1" d="M377.38,627.91C198.12,681.49,209.81,464.24,209.81,464.24s112-8.77,132.5,18.51,48.93,56.48,61.49,131"/><path class="cls-1" d="M509.77,782.36s1.08-29.75,46.87-83.33S641.4,637.65,663.8,550,699.85,223.6,898.6,249.9s157.82,295.2,157.82,295.2S1040.83,653.24,1074,699s51,66,51,66"/><path class="cls-1" d="M1018.43,95S917.11,120.33,898.6,248"/><path class="cls-1" d="M534.59,879.07a324.39,324.39,0,0,1,85.18,234"/><path class="cls-1" d="M953.38,339a324.34,324.34,0,0,1,36.73,246.32"/><path class="cls-1" d="M1335.84,937.84c-24.86,68.08-60.48,137.76-110.88,195.7C1166.3,1201,1098.63,1268.11,999.88,1307"/><line class="cls-1" x1="918.55" y1="307.95" x2="918.55" y2="307.95"/><line class="cls-1" x1="1349.55" y1="887.95" x2="1349.55" y2="887.95"/><line class="cls-1" x1="500.55" y1="849.95" x2="500.55" y2="849.95"/></svg>