<svg id="Capa_44" data-name="Capa 44" xmlns="http://www.w3.org/2000/svg" viewBox="0 0 1500 1500"><defs><style>.cls-1,.cls-2{fill:none;stroke-linecap:round;stroke-linejoin:round;stroke-width:22px;}.cls-1{stroke:#050000;}.cls-2{stroke:#000;}</style></defs><title>06_Molletes_Sandwiches</title><path class="cls-1" d="M1455,1379C1303.54,1196.34,127,60,127,60S55,8,42,96V1406s0,64,85,67,1287,0,1287,0,38-6.91,48.13-38.08c2.29-7,5.16-15.83,1.83-25.06"/><line class="cls-1" x1="179" y1="478" x2="264" y2="396"/><line class="cls-1" x1="198" y1="670" x2="367" y2="504"/><line class="cls-1" x1="179" y1="898" x2="475" y2="615"/><line class="cls-1" x1="179" y1="1115" x2="581" y2="718"/><line class="cls-1" x1="656" y1="847" x2="179" y2="1321"/><line class="cls-1" x1="396" y1="1321" x2="785" y2="929"/><line class="cls-1" x1="896" y1="1032" x2="610" y2="1321"/><line class="cls-1" x1="816" y1="1321" x2="999" y2="1136"/><line class="cls-1" x1="1022" y1="1321" x2="1105" y2="1241"/><path class="cls-1" d="M355,241s138-50,226,90c57.84,92,150,231,204,265S911,720.56,907.5,818.78"/><path class="cls-1" d="M1019.24,929S1149,927,1195,999s101.45,207.89,101.45,207.89"/><line class="cls-2" x1="997.64" y1="1347.83" x2="997.44" y2="1346.85"/><line class="cls-2" x1="691.64" y1="818.83" x2="691.44" y2="817.85"/><line class="cls-2" x1="159.64" y1="698.83" x2="159.44" y2="697.85"/></svg>