<svg id="Capa_43" data-name="Capa 43" xmlns="http://www.w3.org/2000/svg" viewBox="0 0 1500 1500"><defs><style>.cls-1{fill:none;stroke:#000;stroke-linecap:round;stroke-linejoin:round;stroke-width:22px;}</style></defs><title>Huevos</title><path class="cls-1" d="M740,555c-17-5.79-53.33-16.36-70.17-20.7C477,484.63,304.5,523.5,304.5,523.5s-287,54-286,363c0,0-64.39,724.09,996.55,269.8,134.65-57.66,315.74-264,40.45-444.8C958.72,647.93,862.16,608.48,774,570"/><path class="cls-1" d="M903,1208s136.5,150.5,352.5,56.5C1504.07,1156.32,1483,955,1484.08,914.7a21.06,21.06,0,0,0-.86-5.55"/><path class="cls-1" d="M774,566c116-430,312.5-439.5,312.5-439.5s149-51,270,244C1464.63,634.12,1480.84,827.82,1483,872"/><path class="cls-1" d="M115.5,944.5s-6-189,118-280"/><line class="cls-1" x1="1131.96" y1="211.33" x2="1131.97" y2="210.81"/><line class="cls-1" x1="115.88" y1="996.27" x2="115.9" y2="995.27"/><path class="cls-1" d="M1171.54,235.59s73.11,39.83,129.92,223.82"/></svg>