<svg id="Capa_36" data-name="Capa 36" xmlns="http://www.w3.org/2000/svg" viewBox="0 0 1500 1500"><defs><style>.cls-1,.cls-2{fill:none;stroke-linecap:round;stroke-linejoin:round;stroke-width:22px;}.cls-1{stroke:#050505;}.cls-2{stroke:#000;}</style></defs><title>Chilaquiles</title><path class="cls-1" d="M866,113,347.5,633.5S317,663,370,690"/><path class="cls-1" d="M711,799s280.5,77.5,354.5,95.5,65-69,65-69-142-584-166-682c-14.21-58-46.65-57.5-70.75-47.43"/><path class="cls-1" d="M31.5,1061.5l523-519s54-50,91,17L754.64,998.56,819.5,1259.5s-3,88-69,71-706-180-706-180S-14.5,1106.5,31.5,1061.5Z"/><line class="cls-1" x1="914.78" y1="854.76" x2="759.34" y2="1017.48"/><path class="cls-1" d="M1479,1300,1306.5,595.5s-25-71-89-28L1099.71,698.88"/><path class="cls-1" d="M804.42,1198.85,1408,1359s40.12,8.06,64.75-31.12"/><line class="cls-1" x1="296.5" y1="957.5" x2="597.5" y2="878.5"/><line class="cls-1" x1="322.5" y1="1087.5" x2="622.5" y2="998.5"/><line class="cls-1" x1="980.5" y1="1043.5" x2="1225" y2="971"/><line class="cls-1" x1="1005.5" y1="1173.5" x2="1306.5" y2="1087.5"/><line class="cls-2" x1="1282" y1="956" x2="1282" y2="955"/></svg>