<svg id="Capa_25" data-name="Capa 25" xmlns="http://www.w3.org/2000/svg" viewBox="0 0 1500 1500"><defs><style>.cls-1,.cls-2{fill:none;stroke-linecap:round;stroke-linejoin:round;stroke-width:22px;}.cls-1{stroke:#020202;}.cls-2{stroke:#000;}</style></defs><title>Sopas</title><path class="cls-1" d="M974,406c253.93,0,513,134.39,513,230.5C1487,768.77,1157.48,876,751,876,369.92,876,56.49,781.76,18.8,661A81.9,81.9,0,0,1,15,636.5C15,536.56,203.1,450.92,470.38,415"/><path class="cls-1" d="M763,397c23.13.31,80.47,3,103,4"/><path class="cls-1" d="M555,406c28.57-2.32,94.22-5.81,124-7"/><path class="cls-1" d="M15.5,660.5c61.5,714.5,761,668,761,668S1384,1379,1468,745"/><path class="cls-1" d="M329,771s531.88-175.68,956.44,30.16"/><path class="cls-1" d="M556,68s76,87,30,191S481,396,556,540"/><path class="cls-1" d="M750,68s90,63,1,236-4,250-4,250"/><path class="cls-1" d="M936,68s68,80,34,165S851,382,936,540"/><line class="cls-2" x1="298" y1="790" x2="298" y2="789"/><path class="cls-1" d="M807,1252s253,0,454-182"/></svg>