<svg id="Capa_41" data-name="Capa 41" xmlns="http://www.w3.org/2000/svg" viewBox="0 0 1500 1500"><defs><style>.cls-1{fill:none;stroke:#000;stroke-linecap:round;stroke-linejoin:round;stroke-width:22px;}</style></defs><title>Entradas</title><path class="cls-1" d="M565.76,730.3S647,644,758.07,645.13c149.42,1.52,195.07,85.17,195.07,85.17s-87.92,85.17-178.58,76.93S601.47,771.51,565.76,730.3Z"/><path class="cls-1" d="M349.8,646.1c57,4.23,125.29,12.77,125.29,12.77"/><path class="cls-1" d="M357,892.4S296.11,733.64,282,672"/><path class="cls-1" d="M759.45,540.73s-43.69-47.66-82.54-86.45c-29.7-29.65-56.57-54.12-58.95-48.17-5.5,13.73-71.43,195-71.43,195s-38.47,2.77-57.7,0S475,887,475,887"/><line class="cls-1" x1="983.36" y1="502.27" x2="676.91" y2="454.28"/><path class="cls-1" d="M902,565s270.93-194.61,279.17-180.87S1248,589,1248,589"/><path class="cls-1" d="M1165,780s17-173,29.91-181.57C1209.57,588.69,1437,756,1436.68,768.09,1436,795,1361,887,1361,887"/><path class="cls-1" d="M1245,849s164.21,46.14,153.22,59.88-209.41,148.36-209.41,148.36"/><path class="cls-1" d="M1092,768s158.6,21.41,169,40c16.67,29.8-126,166-126,166"/><path class="cls-1" d="M275,945S68.48,911.63,85,892.4c6.65-7.76,40.06-40.21,77.55-76.16,55.46-53.19,119.86-114,119.86-114"/><path class="cls-1" d="M396,581s-264.33-98-261.59-78.73,28.1,314,28.1,314"/><path class="cls-1" d="M573,528.38s-136.4-47.68-147.39-28.66S375,648,375,648"/><path class="cls-1" d="M585.13,495.24S519,428,455.83,366.24C397.57,309.2,341.9,256.76,343.22,266c2.74,19.23-16.69,294.5-16.69,294.5"/><path class="cls-1" d="M455.83,366.24s250-116.11,261-101.31c4.8,6.46,16.92,46.39,29,89.31C761.54,409.62,777.2,470,777.2,470"/><path class="cls-1" d="M1032.67,470s-54.8-198.5-79.53-193S805,331,805,331"/><line class="cls-1" x1="455.83" y1="1018.77" x2="887" y2="1030"/><path class="cls-1" d="M983.36,664.36S1129.25,672.52,1132,689s-130,225-130,225c-11-19.23-49.35,12.27-90.07-40.83C898,855,844.4,877.78,830.14,892.4,811,912,738.84,889.65,719.6,873.17s-82.41,5.49-103.08,23.35-81-26.1-97.47-23.35-47.79,23.64-63.22,19.23C409,879,379,893,370,911c0,0-62.81-4.06-62.5,39.09.5,68.91-30.12,57.52-25.5,92.91,6,46,117.7-.32,103,57-10,39,74.44,56.2,132,49,32-4,43,36,68.13,48.36,49.8,24.5,49.42-31.85,94.87-26.36s75.33,53.83,111,45.59,7.2-59.8,52-36.59c54,28,61-31,126.62-1.87,57.82,25.66,40.38-52.13,104.41-27.48,46.78,18,138-33.92,92.1-120.88C1152,1003,1113.24,1022.23,1105,1003s-1.59-52.87-31-52.91c-73-.09-71.44-30.22-71.44-30.22"/><path class="cls-1" d="M1395,1024a381.63,381.63,0,0,0,26-37.07c130.3-208.66-3.54-369.27-3.54-369.27s-65.31-87.73-212.61-163.38"/><path class="cls-1" d="M140.88,569.52s-248.24,221.22-22.95,460.25,601.67,239,601.67,239,316.82,22.06,542.75-122.26c13.17-8.41,72.65-49.53,92.65-71.53"/><line class="cls-1" x1="1122.43" y1="412.71" x2="1004.91" y2="379.51"/><line class="cls-1" x1="335.4" y1="428.29" x2="188.1" y2="511.32"/><path class="cls-1" d="M616.91,878.71,554.77,726.2S494.32,562.71,759.45,540.73c-1.7,3.44,260.58-2,207.43,185.47-26.88,94.8-55,147-55,147"/><line class="cls-1" x1="942.88" y1="1030.27" x2="942.9" y2="1029.27"/><line class="cls-1" x1="774.88" y1="342.27" x2="774.9" y2="341.27"/><line class="cls-1" x1="311.88" y1="644.27" x2="311.9" y2="643.27"/><line class="cls-1" x1="274.88" y1="640.27" x2="274.9" y2="639.27"/><line class="cls-1" x1="1375.88" y1="1051.27" x2="1375.9" y2="1050.27"/></svg>