<svg id="Faltan" xmlns="http://www.w3.org/2000/svg" viewBox="0 0 1500 1500"><defs><style>.cls-1,.cls-2{fill:none;stroke-linecap:round;stroke-linejoin:round;stroke-width:22px;}.cls-1{stroke:#050000;}.cls-2{stroke:#000;}</style></defs><title>Carnes</title><path class="cls-1" d="M199.5,172C298.08,172,378,364.07,378,601s-79.92,429-178.5,429S21,837.93,21,601c0-126.47,22.77-240.16,59-318.68a324.17,324.17,0,0,1,29.24-51.51c15.25-21.53,32-37.77,49.67-47.67"/><ellipse class="cls-1" cx="191" cy="592.5" rx="111" ry="319.5"/><polyline class="cls-1" points="130 1183 38 1183 38 1057.24"/><line class="cls-1" x1="1476" y1="1183" x2="172" y2="1183"/><polyline class="cls-1" points="38 1030 1476 1030 1476 1183"/><polyline class="cls-1" points="1380 1217 1284 1346 236 1346 130 1183"/><circle class="cls-1" cx="475" cy="962" r="68"/><path class="cls-1" d="M478,881c-12-72,70.64-141,141-141a143,143,0,1,1-85.89,257.34"/><path class="cls-1" d="M642,841s124,22,241-91"/><path class="cls-1" d="M762,883s22.11-4.5,51.5-.9c49,6,118.22,34.52,139.1,143.9,0,0,3.4-163,166.4-138"/><path class="cls-1" d="M1106,1026c-4.36,20.27,68.5-23.52,39-375,0,0-234-194-374-309S569,147,200,172"/><path class="cls-1" d="M1278,699c27.76-30.24,78.85-77.11,127-68,74,14,107,92,0,188,0,0,104,75,68,143s-127,87-216-48l-105-2"/><polyline class="cls-1" points="1151.59 723 1244.48 723 1257 723"/><line class="cls-2" x1="493" y1="934" x2="493" y2="933"/><line class="cls-2" x1="1089" y1="672" x2="1089" y2="671"/><path class="cls-2" d="M361,232s172-20,316,104,383,311,383,311"/><path class="cls-2" d="M588,981s74,29,123-48"/><path class="cls-1" d="M860,863s42.48-53.84,112-47c61,6,80,47,80,47"/></svg>