<svg id="Capa_24" data-name="Capa 24" xmlns="http://www.w3.org/2000/svg" viewBox="0 0 1500 1500"><defs><style>.cls-1,.cls-2{fill:none;stroke-linecap:round;stroke-linejoin:round;stroke-width:22px;}.cls-1{stroke:#050000;}.cls-2{stroke:#000;}</style></defs><title>Aves</title><path class="cls-1" d="M1346,859c-18.24,31.26-52,87-52,87s-144,247-470,247-414-143-414-143S279.5,916.5,314.5,696.5s48-255,3.5-325.5c0,0-76,38-99,16s-16-57,0-67,59-28,42-61,49-28,57-55-27-79-19-93,56-7,69-21,56-73,69-54,48,56,64,56,87,4,50,96c0,0,74,137,82,177s79,209,163,252,219,53,312,0,233-177,248-164c9.54,8.27,20.29,28.67,26.86,42.43"/><path class="cls-1" d="M1380,522.84c-22.35,34.65-78,122.94-70,130.16,10,9,79,5,79,31s-69,87-69,87,8.58,19.14,24.14,34.91"/><polyline class="cls-1" points="662 1464 812 1464 962 1464"/><line class="cls-1" x1="824" y1="1226" x2="824" y2="1464"/><circle class="cls-1" cx="437" cy="271" r="27"/><line class="cls-2" x1="1358" y1="833" x2="1358" y2="832"/><path class="cls-1" d="M410,880s55,234,369,241"/><line class="cls-2" x1="818" y1="1122" x2="818" y2="1121"/></svg>