<svg id="Falta" xmlns="http://www.w3.org/2000/svg" viewBox="0 0 1500 1500"><defs><style>.cls-1{fill:none;stroke:#000;stroke-linecap:round;stroke-linejoin:round;stroke-width:22px;}</style></defs><title>Pescados</title><path class="cls-1" d="M1130,1140c-20.2,37.47-66.9,112.55-143.5,148.5-88.9,41.73-197.55,54.66-217,56.7a1.55,1.55,0,0,1-1.5-2.32c10.48-17.91,70.93-122.5,73.39-155.12a1.54,1.54,0,0,0-1.09-1.61S438,1195,348.5,851.5c-3.64-14-57,69-107,117s-179,94-196,95S-26.2,889.44,169.91,726.81a1.54,1.54,0,0,0-.09-2.46c-17-11.89-157.62-116.47-141.43-319.51a1.55,1.55,0,0,1,1.46-1.43c17.51-1,200.7-7.25,270.82,180.85a1.54,1.54,0,0,0,2.52.58C317.71,570.73,391.56,481.39,507,437"/><path class="cls-1" d="M1013.31,306.22a1.38,1.38,0,0,0,.48.45c8.87,5.31,216.4,137,249.71,159.83,69.11,47.3,165.53,121.43,217.87,289.64a1.74,1.74,0,0,1,.08.75c-1.11,8.1-23.72,142.59-317.22,339.83q-8.52,5.74-17.36,11.54"/><path class="cls-1" d="M563.57,402.49c.15-4-.17-19.67-12-47.13-14.43-33.57-46-84.76-114.93-153.69a1.71,1.71,0,0,1-.29-.4c-2.29-4.59-36-76.16,80.12-87.77,0,0,194.5-53.5,496.5,192.5"/><circle class="cls-1" cx="1227" cy="702" r="85"/><line class="cls-1" x1="538" y1="426" x2="538" y2="425"/></svg>