<?xml version="1.0" encoding="UTF-8"?>
<svg width="48px" height="65px" viewBox="0 0 48 65" version="1.1" xmlns="http://www.w3.org/2000/svg" xmlns:xlink="http://www.w3.org/1999/xlink">
    <!-- Generator: Sketch 51.3 (57544) - http://www.bohemiancoding.com/sketch -->
    <title>2</title>
    <desc>Created with Sketch.</desc>
    <defs>
        <linearGradient x1="7.69970939%" y1="0.09615899%" x2="94.3821427%" y2="102.360509%" id="linearGradient-1">
            <stop stop-color="#C37F2A" offset="0%"></stop>
            <stop stop-color="#FFE391" offset="39%"></stop>
            <stop stop-color="#9E5202" offset="78%"></stop>
            <stop stop-color="#EEA14D" offset="95%"></stop>
            <stop stop-color="#B16514" offset="100%"></stop>
        </linearGradient>
    </defs>
    <g id="Page-1" stroke="none" stroke-width="1" fill="none" fill-rule="evenodd">
        <g id="Artboard-Copy-2" transform="translate(-491.000000, -2056.000000)" fill="url(#linearGradient-1)">
            <path d="M505.138837,2075.55432 C505.138837,2076.39926 505.213883,2077.28946 505.363977,2078.22493 C505.514072,2079.1604 505.589118,2079.74884 505.589118,2079.99025 C505.589118,2081.43872 504.83865,2082.16295 503.337711,2082.16295 L494.15197,2082.16295 C492.831144,2082.16295 491.990619,2081.37837 491.630394,2079.80919 C491.330207,2078.66249 491.180113,2077.09331 491.180113,2075.10167 C491.180113,2069.4285 493.086304,2064.8266 496.898687,2061.29596 C500.711069,2057.76532 506.459663,2056 514.144465,2056 C522.429644,2056 528.523453,2057.85585 532.425891,2061.56755 C536.32833,2065.27925 538.27955,2070.06221 538.27955,2075.91643 C538.27955,2079.29619 537.469043,2082.67595 535.84803,2086.05571 C534.227017,2089.43547 532.050656,2092.52855 529.318949,2095.33496 C526.587242,2098.14136 523.840526,2100.61583 521.078799,2102.75836 C518.317073,2104.90088 515.435272,2106.84726 512.433396,2108.59749 L536.298311,2108.59749 C538.099437,2108.59749 539,2109.47261 539,2111.22284 L539,2118.37465 C539,2120.12488 538.099437,2121 536.298311,2121 L493.611632,2121 C491.870545,2121 491,2120.12488 491,2118.37465 L491,2112.49025 C491,2111.22284 491.660412,2110.16667 492.981238,2109.32173 C496.58349,2107.26973 499.97561,2105.15738 503.157598,2102.98468 C506.339587,2100.81198 509.521576,2098.30733 512.703565,2095.47075 C515.885553,2092.63417 518.422139,2089.63162 520.313321,2086.46309 C522.204503,2083.29457 523.150094,2080.20149 523.150094,2077.18384 C523.150094,2071.32962 520.08818,2068.40251 513.964353,2068.40251 C510.842401,2068.40251 508.590994,2069.09656 507.210131,2070.48468 C505.829269,2071.87279 505.138837,2073.56267 505.138837,2075.55432 Z" id="2"></path>
        </g>
    </g>
</svg>