<?xml version="1.0" encoding="UTF-8"?>
<svg width="48px" height="67px" viewBox="0 0 48 67" version="1.1" xmlns="http://www.w3.org/2000/svg" xmlns:xlink="http://www.w3.org/1999/xlink">
    <!-- Generator: Sketch 51.3 (57544) - http://www.bohemiancoding.com/sketch -->
    <title>3</title>
    <desc>Created with Sketch.</desc>
    <defs>
        <linearGradient x1="7.69970939%" y1="0.09615899%" x2="94.3821427%" y2="102.360509%" id="linearGradient-1">
            <stop stop-color="#C37F2A" offset="0%"></stop>
            <stop stop-color="#FFE391" offset="39%"></stop>
            <stop stop-color="#9E5202" offset="78%"></stop>
            <stop stop-color="#EEA14D" offset="95%"></stop>
            <stop stop-color="#B16514" offset="100%"></stop>
        </linearGradient>
    </defs>
    <g id="Page-1" stroke="none" stroke-width="1" fill="none" fill-rule="evenodd">
        <g id="Artboard-Copy-2" transform="translate(-1005.000000, -2055.000000)" fill="url(#linearGradient-1)">
            <path d="M1020.16791,2081.81843 L1027.09913,2081.81843 C1030.32153,2081.81843 1032.67754,2081.25011 1034.16715,2080.11348 C1035.65675,2078.97685 1036.40155,2077.14901 1036.40155,2074.62999 C1036.40155,2069.83769 1033.08794,2067.44154 1026.46072,2067.44154 C1021.59671,2067.44154 1016.7023,2068.42458 1011.77748,2070.39065 C1010.19668,2071.06648 1009.07187,2070.57497 1008.40307,2068.91609 L1005.94067,2062.64924 C1005.33266,2061.05181 1005.84947,2059.91518 1007.49107,2059.23934 C1013.57109,2056.41311 1020.53271,2055 1028.37593,2055 C1032.51034,2055 1036.23435,2055.52224 1039.54796,2056.56671 C1042.86157,2057.61119 1045.67358,2059.43902 1047.98399,2062.05021 C1050.29439,2064.66139 1051.4496,2067.96378 1051.4496,2071.95736 C1051.4496,2079.1458 1048.34879,2083.96882 1042.14717,2086.42641 C1045.30878,2087.34801 1047.90799,2089.08368 1049.94479,2091.63343 C1051.9816,2094.18317 1053,2097.51628 1053,2101.63274 C1053,2108.32967 1050.88719,2113.39844 1046.66158,2116.83906 C1042.43597,2120.27969 1036.18875,2122 1027.91993,2122 C1019.77271,2122 1012.71988,2120.55617 1006.76147,2117.6685 C1005.18066,2116.93122 1004.66386,2115.79459 1005.21106,2114.2586 L1007.67347,2107.71527 C1008.34227,2106.0564 1009.49748,2105.56488 1011.13908,2106.24072 C1015.75989,2108.32967 1020.77591,2109.37414 1026.18712,2109.37414 C1030.26074,2109.37414 1033.20954,2108.6983 1035.03355,2107.34663 C1036.85755,2105.99496 1037.76956,2103.90601 1037.76956,2101.07978 C1037.76956,2096.04172 1034.36475,2093.5227 1027.55513,2093.5227 L1020.16791,2093.5227 C1018.3439,2093.5227 1017.4319,2092.63182 1017.4319,2090.85007 L1017.4319,2084.49106 C1017.4319,2082.70931 1018.3439,2081.81843 1020.16791,2081.81843 Z" id="3"></path>
        </g>
    </g>
</svg>