<?xml version="1.0" encoding="UTF-8"?>
<svg width="235px" height="191px" viewBox="0 0 235 191" version="1.1" xmlns="http://www.w3.org/2000/svg" xmlns:xlink="http://www.w3.org/1999/xlink">
    <!-- Generator: Sketch 51.3 (57544) - http://www.bohemiancoding.com/sketch -->
    <title>Shape Copy</title>
    <desc>Created with Sketch.</desc>
    <defs>
        <linearGradient x1="-236.395738%" y1="-209.647323%" x2="-32.6527256%" y2="187.824458%" id="linearGradient-1">
            <stop stop-color="#C37F2A" offset="0%"></stop>
            <stop stop-color="#FFE391" offset="39%"></stop>
            <stop stop-color="#9E5202" offset="78%"></stop>
            <stop stop-color="#EEA14D" offset="95%"></stop>
            <stop stop-color="#B16514" offset="100%"></stop>
        </linearGradient>
        <path d="M1083.4951,1857.01744 C1082.83497,1858.59624 1082.83497,1860.37371 1083.4951,1861.95251 C1084.18873,1863.53854 1085.39416,1864.84617 1086.91862,1865.66632 C1089.40695,1866.94913 1092.27075,1867.304 1094.99693,1866.66735 C1092.29415,1868.5693 1091.73358,1871.09189 1091.99384,1870.67145 C1092.91604,1869.78921 1094.10001,1869.23061 1095.36732,1869.07982 C1096.65826,1869.09206 1097.94781,1868.99157 1099.22128,1868.77951 C1099.60591,1868.73665 1099.97567,1868.60654 1100.30239,1868.39912 C1100.75921,1868.14106 1101.07044,1867.68566 1101.14491,1867.1663 C1101.21938,1866.64695 1101.04867,1866.12243 1100.68279,1865.7464 C1100.18374,1865.24106 1099.48945,1864.97796 1098.78083,1865.02566 C1099.76011,1864.39056 1100.60666,1863.57121 1101.27339,1862.61319 C1101.57135,1862.1732 1101.82295,1861.70355 1102.02417,1861.21175 C1102.13696,1861.82503 1102.30103,1862.42777 1102.51467,1863.0136 C1103.77463,1866.225 1106.14821,1868.87572 1109.20155,1870.48126 C1110.73689,1871.31233 1112.38627,1871.91271 1114.09659,1872.26309 C1115.54598,1872.55923 1117.02179,1872.70681 1118.50112,1872.70354 L1119.12176,1872.70354 C1122.1593,1872.63249 1125.15157,1871.95166 1127.92081,1870.70149 C1130.12878,1869.70586 1132.13171,1868.30721 1133.82689,1866.57725 C1134.63402,1865.74217 1135.34888,1864.8226 1135.95909,1863.83444 C1136.7414,1865.12148 1137.69436,1866.29668 1138.792,1867.32802 C1143.05731,1871.13748 1148.71306,1873.0046 1154.40807,1872.48331 C1157.25586,1872.23315 1159.99546,1871.27291 1162.37627,1869.69045 C1164.52672,1868.23331 1166.20117,1866.17593 1167.19123,1863.77438 C1167.41042,1863.21095 1167.58775,1862.63212 1167.72177,1862.0426 L1167.88194,1861.17171 C1167.88194,1860.85138 1167.95201,1860.56108 1167.95201,1860.26077 C1167.98083,1859.34561 1167.87286,1858.43127 1167.63168,1857.54799 C1168.47328,1857.84814 1169.39276,1857.84814 1170.23436,1857.54799 C1170.989,1857.33561 1171.61106,1856.80031 1171.93357,1856.08576 C1172.25609,1855.37122 1172.24602,1854.55061 1171.90608,1853.84419 C1171.6464,1853.38095 1171.26581,1852.99691 1170.80495,1852.73305 C1169.29683,1851.69464 1167.68687,1850.81252 1166,1850.10035 C1164.48097,1849.19562 1163.36404,1847.74577 1162.87679,1846.04619 C1162.81673,1845.4756 1161.81569,1848.14834 1162.87679,1851.5118 L1162.45635,1851.25153 C1161.31149,1850.61485 1160.08096,1850.14623 1158.80259,1849.8601 L1157.80156,1849.67992 L1156.80053,1849.5698 C1156.13434,1849.51409 1155.46466,1849.51409 1154.79847,1849.5698 C1152.29933,1849.76073 1149.94672,1850.82366 1148.15163,1852.57288 C1146.61412,1854.0396 1145.77945,1856.09528 1145.85927,1858.21868 C1146.06523,1860.25316 1147.21421,1862.07299 1148.96247,1863.13372 C1150.69691,1864.24209 1152.76946,1864.69634 1154.80848,1864.41504 C1156.58808,1864.17849 1158.18636,1863.20499 1159.21302,1861.73228 C1159.61266,1861.13091 1159.86946,1860.4461 1159.96379,1859.73023 C1160.05317,1859.04792 1159.94911,1858.35423 1159.66348,1857.72817 C1159.37248,1857.10677 1158.93648,1856.56435 1158.39217,1856.14655 C1157.40471,1855.30507 1156.1458,1854.84987 1154.84853,1854.86524 C1152.12572,1854.86524 1149.92346,1856.71714 1149.92346,1859.00949 C1149.92346,1861.30184 1152.12572,1863.16375 1154.84853,1863.16375 L1154.55823,1863.23382 C1152.9271,1863.39638 1151.29061,1862.98194 1149.93347,1862.06262 C1148.59266,1861.18239 1147.73793,1859.72824 1147.62109,1858.12858 C1147.63226,1856.4167 1148.35805,1854.78732 1149.62315,1853.63397 C1151.09418,1852.30954 1152.9725,1851.52573 1154.94863,1851.41169 C1155.47174,1851.37171 1155.99714,1851.37171 1156.52025,1851.41169 L1157.33108,1851.52181 L1158.09186,1851.68197 C1159.12211,1851.93476 1160.11013,1852.33603 1161.02488,1852.87319 C1162.78251,1853.87758 1164.13482,1855.46352 1164.84882,1857.35779 C1165.48111,1859.22236 1165.36996,1861.25895 1164.5385,1863.04363 C1163.68253,1864.99748 1162.26869,1866.65508 1160.47431,1867.80852 C1158.53866,1869.07711 1156.31475,1869.83792 1154.00766,1870.02079 C1151.62763,1870.18044 1149.24057,1869.83943 1147.00045,1869.01976 C1144.85287,1868.27312 1142.89018,1867.07503 1141.24453,1865.50615 C1139.72312,1864.07479 1138.57818,1862.29033 1137.9111,1860.31082 C1137.28689,1858.44322 1137.16604,1856.44407 1137.56074,1854.51488 C1138.3759,1850.60322 1140.60311,1847.12877 1143.81717,1844.75486 C1146.98504,1842.38018 1150.73974,1840.91291 1154.67835,1840.51051 C1161.01825,1839.94422 1167.35666,1841.61203 1172.59679,1845.22534 L1173.0973,1845.60573 C1172.17125,1845.05585 1171.21172,1844.56439 1170.22435,1844.13422 C1166.93997,1842.73221 1163.42299,1841.95481 1159.85368,1841.84187 C1156.65482,1841.75705 1153.4707,1842.30475 1150.48403,1843.45353 C1148.39964,1844.26493 1146.44917,1845.38527 1144.69808,1846.77694 C1143.98408,1847.36355 1143.31487,1848.00265 1142.69602,1848.6889 C1142.291,1849.10857 1142.00134,1849.62582 1141.85515,1850.19044 C1141.77507,1850.63089 1141.85515,1850.96123 1142.12543,1851.09136 C1142.50172,1851.2021 1142.90834,1851.12376 1143.21656,1850.88115 C1143.69355,1850.62126 1144.12333,1850.28284 1144.48786,1849.88012 C1145.04375,1849.26808 1145.63896,1848.69294 1146.2697,1848.15835 C1147.81434,1846.86974 1149.54587,1845.82339 1151.40498,1845.05517 C1154.08632,1843.96141 1156.95793,1843.41023 1159.85368,1843.43351 C1163.18364,1843.45873 1166.4798,1844.10371 1169.57368,1845.33546 C1172.54583,1846.49866 1175.26513,1848.22541 1177.58192,1850.42068 C1178.07242,1850.87114 1179.07345,1851.89219 1179.49389,1852.42273 C1180.40597,1853.77191 1181.22215,1855.1835 1181.9364,1856.64706 C1181.23471,1856.89109 1180.75148,1857.53672 1180.71514,1858.27874 C1180.75578,1858.81416 1181.0098,1859.31082 1181.42014,1859.65716 C1181.83048,1860.0035 1182.36274,1860.1705 1182.89739,1860.12063 L1183.11762,1860.12063 C1183.29126,1861.14391 1183.40158,1862.17693 1183.44796,1863.2138 C1183.38836,1863.82086 1183.27104,1864.42085 1183.0976,1865.00564 C1182.74286,1866.16083 1182.21281,1867.2547 1181.52598,1868.24897 C1180.87459,1869.31157 1179.91411,1870.1498 1178.77315,1870.65143 C1176.41071,1871.79261 1173.19741,1871.73254 1171.29545,1870.33111 C1170.39784,1869.71472 1169.77364,1868.77483 1169.55366,1867.70841 C1169.4178,1866.95076 1169.51194,1866.16979 1169.82394,1865.46611 C1169.68674,1867.07112 1170.72031,1868.54343 1172.27646,1868.9597 C1174.21232,1869.65901 1176.37066,1868.86495 1177.39172,1867.07777 C1178.18254,1865.36601 1177.18151,1863.43403 1175.15943,1862.77335 C1174.90237,1862.6853 1174.6376,1862.62163 1174.36861,1862.58316 L1174.2585,1862.58316 C1173.41348,1862.45349 1172.54989,1862.52203 1171.7359,1862.78336 C1170.71221,1863.09135 1169.8208,1863.7326 1169.2033,1864.60523 C1168.50751,1865.54246 1168.19274,1866.70853 1168.32239,1867.86858 C1168.51476,1869.22272 1169.23434,1870.44601 1170.32445,1871.27207 C1172.7069,1873.19404 1176.65096,1873.38424 1179.66406,1872.09291 C1181.15108,1871.49921 1182.4317,1870.48306 1183.34785,1869.16991 C1184.20318,1868.08397 1184.86364,1866.85789 1185.29986,1865.5462 C1186.18212,1862.85018 1186.36807,1859.97481 1185.84042,1857.18762 C1186.89926,1856.01165 1188.29928,1855.19615 1189.84454,1854.85523 L1189.55424,1871.21201 C1189.71407,1872.24102 1190.60003,1873 1191.64139,1873 C1192.68274,1873 1193.56871,1872.24102 1193.72854,1871.21201 L1193.44825,1854.78515 C1194.95787,1855.06654 1196.3508,1855.78738 1197.45237,1856.85728 C1196.83218,1859.74377 1196.99461,1862.74355 1197.92285,1865.5462 C1198.35908,1866.85789 1199.01954,1868.08397 1199.87486,1869.16991 C1200.79101,1870.48306 1202.07163,1871.49921 1203.55865,1872.09291 C1206.56174,1873.38424 1210.51581,1873.19404 1212.90827,1871.27207 C1213.99921,1870.44675 1214.71902,1869.22308 1214.91033,1867.86858 C1215.03999,1866.70853 1214.72522,1865.54246 1214.02943,1864.60523 C1213.41192,1863.7326 1212.52051,1863.09135 1211.49682,1862.78336 C1210.68618,1862.52251 1209.82595,1862.45396 1208.98423,1862.58316 L1208.86411,1862.58316 C1208.59513,1862.62163 1208.33036,1862.6853 1208.0733,1862.77335 C1206.07124,1863.43403 1205.07021,1865.36601 1205.841,1867.07777 C1206.8584,1868.86342 1209.01328,1869.65776 1210.94625,1868.9597 C1212.50889,1868.55103 1213.54918,1867.07519 1213.40879,1865.46611 C1213.72078,1866.16979 1213.81492,1866.95076 1213.67907,1867.70841 C1213.45909,1868.77483 1212.83489,1869.71472 1211.93727,1870.33111 C1210.02531,1871.73254 1206.82201,1871.79261 1204.45958,1870.65143 C1203.31861,1870.1498 1202.35814,1869.31157 1201.70675,1868.24897 C1201.0238,1867.25244 1200.49405,1866.15919 1200.13513,1865.00564 C1199.95531,1864.4229 1199.84115,1863.82189 1199.79478,1863.2138 C1199.83242,1862.17675 1199.93943,1861.14338 1200.11511,1860.12063 L1200.33533,1860.12063 C1200.86998,1860.1705 1201.40225,1860.0035 1201.81259,1859.65716 C1202.22293,1859.31082 1202.47694,1858.81416 1202.51758,1858.27874 C1202.48016,1857.54023 1202.0024,1856.89664 1201.30633,1856.64706 C1202.01283,1855.17939 1202.82933,1853.76725 1203.74885,1852.42273 C1204.15927,1851.94224 1205.1603,1850.92119 1205.66081,1850.42068 C1207.97526,1848.2224 1210.69517,1846.49526 1213.66906,1845.33546 C1216.76613,1844.10271 1220.06576,1843.45773 1223.39907,1843.43351 C1226.29452,1843.41339 1229.16552,1843.96446 1231.84776,1845.05517 C1234.48209,1846.13183 1236.84461,1847.77978 1238.76488,1849.88012 C1239.12178,1850.28684 1239.54903,1850.62594 1240.02618,1850.88115 C1240.33439,1851.12376 1240.74101,1851.2021 1241.1173,1851.09136 C1241.37757,1850.96123 1241.47767,1850.63089 1241.38758,1850.19044 C1241.24139,1849.62582 1240.95173,1849.10857 1240.54671,1848.6889 C1239.92786,1848.00265 1239.25865,1847.36355 1238.54465,1846.77694 C1236.79503,1845.38311 1234.84422,1844.26257 1232.7587,1843.45353 C1229.76898,1842.30319 1226.58127,1841.75547 1223.37905,1841.84187 C1219.81632,1841.95589 1216.3061,1842.73329 1213.0284,1844.13422 C1212.03583,1844.56023 1211.07271,1845.05182 1210.14543,1845.60573 L1210.64594,1845.22534 C1215.88607,1841.61203 1222.22448,1839.94422 1228.56438,1840.51051 C1232.506,1840.91312 1236.26387,1842.38027 1239.43557,1844.75486 C1242.64963,1847.12877 1244.87685,1850.60322 1245.69201,1854.51488 C1246.0783,1856.4453 1245.95409,1858.44312 1245.33164,1860.31082 C1244.66446,1862.28789 1243.52344,1864.07157 1242.00822,1865.50615 C1240.35776,1867.07378 1238.39211,1868.2716 1236.24228,1869.01976 C1234.00253,1869.84088 1231.61516,1870.18194 1229.23507,1870.02079 C1226.92453,1869.83957 1224.69698,1869.0787 1222.75841,1867.80852 C1220.96977,1866.63312 1219.56947,1864.95415 1218.73427,1862.98357 C1217.90787,1861.19762 1217.79683,1859.163 1218.42395,1857.29773 C1219.13827,1855.40057 1220.49487,1853.81374 1222.25789,1852.81313 C1223.16825,1852.27428 1224.15322,1851.87287 1225.1809,1851.62191 L1225.95169,1851.46174 L1226.76253,1851.35163 C1227.28229,1851.31149 1227.80437,1851.31149 1228.32414,1851.35163 C1230.30026,1851.46567 1232.17858,1852.24948 1233.64962,1853.57391 C1234.91879,1854.72431 1235.64542,1856.35558 1235.65168,1858.06852 C1235.53939,1859.6696 1234.68356,1861.12562 1233.3393,1862.00256 C1231.98215,1862.92188 1230.34566,1863.33631 1228.71454,1863.17376 L1228.43425,1863.10369 C1231.15705,1863.10369 1233.35932,1861.25179 1233.35932,1858.94943 C1233.35932,1856.64706 1231.15705,1854.80517 1228.43425,1854.80517 C1227.13856,1854.78883 1225.88041,1855.2402 1224.8906,1856.07648 C1224.34249,1856.49705 1223.90312,1857.04283 1223.60928,1857.66811 C1223.3335,1858.29705 1223.22985,1858.98799 1223.30898,1859.67017 C1223.4033,1860.38603 1223.66011,1861.07084 1224.05975,1861.67222 C1225.08899,1863.14218 1226.68594,1864.11487 1228.46428,1864.35497 C1230.50334,1864.63717 1232.5762,1864.18285 1234.3103,1863.07366 C1236.05855,1862.01293 1237.20753,1860.1931 1237.41349,1858.15862 C1237.4972,1856.03652 1236.66607,1853.98057 1235.13114,1852.51282 C1233.33201,1850.76361 1230.97631,1849.70089 1228.47429,1849.50974 C1227.8081,1849.45403 1227.13842,1849.45403 1226.47223,1849.50974 L1225.4712,1849.61985 L1224.47017,1849.80004 C1223.19181,1850.08617 1221.96128,1850.55479 1220.81641,1851.19147 L1220.40599,1851.45173 C1221.40702,1848.08828 1220.40599,1845.44557 1220.40599,1845.98613 C1219.91576,1847.68131 1218.80399,1849.12911 1217.29278,1850.04029 C1215.60432,1850.75571 1213.99136,1851.63763 1212.47783,1852.67299 C1212.01696,1852.93685 1211.63638,1853.32089 1211.3767,1853.78413 C1211.03675,1854.49055 1211.02669,1855.31116 1211.3492,1856.0257 C1211.67171,1856.74025 1212.29377,1857.27555 1213.04842,1857.48793 C1213.89002,1857.78808 1214.8095,1857.78808 1215.65109,1857.48793 C1215.40503,1858.37025 1215.29697,1859.28534 1215.33077,1860.20071 L1215.41085,1861.11165 L1215.561,1861.98254 C1215.69039,1862.57329 1215.86783,1863.15247 1216.09155,1863.71432 C1217.07699,1866.14344 1218.76371,1868.22396 1220.93653,1869.69045 C1223.30219,1871.30122 1226.03589,1872.28934 1228.88471,1872.5634 C1234.57651,1873.08306 1240.22854,1871.21598 1244.49077,1867.40811 C1245.58841,1866.37676 1246.54137,1865.20156 1247.32369,1863.91452 C1247.9339,1864.90268 1248.64875,1865.82225 1249.45588,1866.65734 C1251.15106,1868.38729 1253.15399,1869.78595 1255.36196,1870.78157 C1258.13155,1872.0307 1261.12361,1872.71149 1264.16101,1872.78362 L1264.78165,1872.78362 C1266.26098,1872.78689 1267.73679,1872.63931 1269.18619,1872.34317 C1270.89603,1871.99112 1272.54517,1871.39082 1274.08122,1870.56134 C1277.13178,1868.95223 1279.50429,1866.3027 1280.7681,1863.09368 C1280.99095,1862.51081 1281.15526,1861.90723 1281.25861,1861.29183 C1281.46003,1861.78547 1281.71516,1862.25544 1282.01939,1862.69327 C1282.67768,1863.65154 1283.51776,1864.47121 1284.49194,1865.10574 C1283.78652,1865.05966 1283.09595,1865.32274 1282.59999,1865.82648 C1282.23796,1866.20425 1282.06984,1866.72756 1282.14411,1867.24549 C1282.21838,1867.76342 1282.52678,1868.2184 1282.98038,1868.47921 C1283.30859,1868.68356 1283.67764,1868.81341 1284.06149,1868.8596 C1285.33496,1869.07165 1286.62451,1869.17214 1287.91546,1869.1599 C1289.18277,1869.31069 1290.36673,1869.8693 1291.28893,1870.75154 C1291.58924,1871.13193 1291.01865,1868.60934 1288.28584,1866.74743 C1288.9947,1866.89591 1289.71449,1866.9863 1290.43806,1867.01771 C1291.11607,1868.57229 1292.40538,1869.7783 1294.00172,1870.35113 C1295.60155,1870.89646 1297.33697,1870.89646 1298.9368,1870.35113 C1300.44996,1869.8307 1301.75324,1868.83305 1302.65062,1867.50821 C1303.92268,1865.50915 1304.28652,1863.06413 1303.65165,1860.78131 C1305.55361,1863.02361 1308.07621,1863.49409 1307.65577,1863.26385 C1306.8049,1862.54757 1306.23998,1861.5492 1306.06414,1860.45097 C1306.07492,1859.37239 1305.97428,1858.29557 1305.76383,1857.23767 C1305.71832,1856.91221 1305.58703,1856.60472 1305.38344,1856.34676 C1304.73275,1855.53545 1303.55107,1855.39722 1302.73071,1856.03644 C1302.23688,1856.40208 1301.96485,1856.99525 1302.00996,1857.60805 C1301.02177,1856.3648 1299.69833,1855.4304 1298.19604,1854.91529 C1298.8063,1854.82495 1299.4087,1854.68774 1299.99789,1854.50487 C1303.05118,1853.57608 1305.6872,1851.61587 1307.45557,1848.95918 C1308.2754,1847.71028 1308.881,1846.3333 1309.24741,1844.885 C1309.54759,1843.6837 1309.69557,1842.44943 1309.68786,1841.21123 L1309.68786,1840.66066 C1309.60966,1838.09415 1308.92351,1835.58284 1307.6858,1833.33314 C1306.64237,1831.44892 1305.24547,1829.78352 1303.57157,1828.42811 C1302.71568,1827.74671 1301.79343,1827.15312 1300.81874,1826.65629 C1302.08102,1826.03337 1303.25291,1825.24201 1304.30232,1824.30388 C1308.01375,1821.04711 1309.93529,1816.20606 1309.46764,1811.29052 C1309.16708,1808.85731 1308.16936,1806.56291 1306.59468,1804.68374 C1305.03478,1802.8233 1302.98553,1801.43633 1300.67859,1800.67964 C1300.11085,1800.49766 1299.53251,1800.35057 1298.94681,1800.23918 L1298.07592,1800.10905 L1297.16498,1800.04899 C1296.25271,1800.01778 1295.34036,1800.10867 1294.45219,1800.31927 C1294.75674,1799.6307 1294.75674,1798.84562 1294.45219,1798.15705 C1293.80726,1796.75704 1292.15854,1796.1332 1290.74837,1796.75561 C1290.305,1796.96634 1289.92005,1797.28255 1289.62722,1797.67655 C1288.62122,1798.92015 1287.74259,1800.26157 1287.00452,1801.68066 C1286.01575,1802.99031 1284.59869,1803.91139 1283.0004,1804.28333 C1282.40979,1804.33339 1285.08254,1805.16424 1288.45602,1804.28333 L1288.20576,1804.62368 C1287.57369,1805.53914 1287.09995,1806.5543 1286.80432,1807.62676 L1286.62413,1808.44761 L1286.50401,1809.24843 C1286.44397,1809.8007 1286.44397,1810.35786 1286.50401,1810.91013 C1286.96005,1815.27331 1290.7297,1818.5301 1295.11287,1818.34777 C1297.04544,1818.22208 1298.83299,1817.27916 1300.02792,1815.75511 C1301.12558,1814.39241 1301.59151,1812.627 1301.30924,1810.90012 C1301.0062,1809.34274 1300.02698,1808.00045 1298.63649,1807.23636 C1298.01934,1806.89134 1297.33791,1806.67669 1296.63443,1806.60572 C1295.95588,1806.53253 1295.26965,1806.62174 1294.63237,1806.86598 C1294.03024,1807.08788 1293.48853,1807.44787 1293.05074,1807.91706 C1292.23191,1808.67646 1291.76743,1809.74332 1291.76943,1810.86008 C1291.87813,1813.0725 1293.7036,1814.81048 1295.9187,1814.81048 C1298.13379,1814.81048 1299.95926,1813.0725 1300.06797,1810.86008 L1300.12803,1811.10033 C1300.29444,1812.48755 1299.87345,1813.88119 1298.96683,1814.94427 C1297.98189,1816.11093 1296.54877,1816.80566 1295.02277,1816.85623 C1293.3781,1816.86885 1291.78595,1816.27758 1290.54817,1815.19453 C1289.257,1814.06305 1288.45946,1812.47156 1288.32588,1810.75998 C1288.28072,1810.32738 1288.28072,1809.89125 1288.32588,1809.45864 C1288.34952,1809.22982 1288.38629,1809.00255 1288.436,1808.77795 L1288.59616,1808.1473 C1289.41719,1805.4363 1291.55241,1803.32368 1294.272,1802.53154 C1296.14529,1802.00484 1298.13808,1802.09256 1299.95785,1802.78179 C1301.82941,1803.44014 1303.47742,1804.61282 1304.71274,1806.16526 C1305.95931,1807.70742 1306.73132,1809.57832 1306.93503,1811.55079 C1307.09017,1813.54253 1306.74611,1815.54151 1305.934,1817.36676 C1305.14466,1819.2126 1303.94267,1820.85292 1302.42039,1822.16168 C1300.91519,1823.45911 1299.14071,1824.40618 1297.22504,1824.93452 C1295.33284,1825.446 1293.35284,1825.545 1291.41906,1825.22482 C1287.67643,1824.63472 1284.24171,1822.801 1281.66903,1820.01948 C1279.35353,1817.5285 1277.86718,1814.38095 1277.41465,1811.01024 C1277.08681,1808.06676 1277.46779,1805.08757 1278.5258,1802.32132 C1279.35504,1800.05566 1280.57845,1797.95451 1282.13952,1796.11495 L1282.51991,1795.68451 C1281.98048,1796.45285 1281.48582,1797.25166 1281.03838,1798.07697 C1279.66044,1800.74943 1278.88481,1803.69137 1278.76604,1806.69581 C1278.67747,1809.38186 1279.22633,1812.05069 1280.36769,1814.4838 C1281.19896,1816.26551 1282.32605,1817.89352 1283.70112,1819.29874 C1284.29108,1819.90657 1284.92331,1820.47189 1285.59307,1820.99048 C1286.0415,1821.33692 1286.56115,1821.57965 1287.11464,1821.70121 C1287.54508,1821.76127 1287.87542,1821.70121 1288.01556,1821.46096 C1288.15571,1821.22071 1288.01556,1820.91039 1287.80535,1820.56004 C1287.52639,1820.17579 1287.18856,1819.83797 1286.80432,1819.55901 C1286.19142,1819.10477 1285.61261,1818.60626 1285.07253,1818.06748 C1283.81783,1816.82248 1282.77323,1815.38235 1281.97935,1813.8031 C1280.89146,1811.62837 1280.33241,1809.22752 1280.34767,1806.79591 C1280.39007,1803.99409 1281.03894,1801.23471 1282.24963,1798.70761 C1283.47276,1796.17054 1285.19956,1793.90902 1287.32485,1792.06079 C1287.79534,1791.66038 1288.80638,1790.81952 1289.32691,1790.47917 C1290.6879,1789.7166 1292.09928,1789.04769 1293.55126,1788.47712 C1293.92692,1789.23616 1294.77394,1789.63875 1295.59973,1789.45074 C1296.42552,1789.26274 1297.01478,1788.53317 1297.02483,1787.6863 L1297.02483,1787.4861 C1298.05079,1787.34676 1299.0832,1787.25989 1300.11802,1787.22583 C1300.72571,1787.26607 1301.32867,1787.35986 1301.91987,1787.50612 C1303.0502,1787.80542 1304.13947,1788.24248 1305.16321,1788.80745 C1306.17429,1789.32016 1307.01043,1790.12146 1307.56568,1791.10982 C1308.73864,1793.05416 1308.60776,1795.51712 1307.23534,1797.3262 C1306.5577,1798.10178 1305.62969,1798.61537 1304.61264,1798.77768 C1303.85358,1798.88681 1303.07928,1798.80422 1302.36032,1798.53744 C1303.8433,1798.73536 1305.27495,1797.91494 1305.85392,1796.53538 C1306.17604,1795.72488 1306.15925,1794.81898 1305.8073,1794.02098 C1305.45534,1793.22297 1304.79772,1792.5997 1303.98199,1792.29103 C1302.28215,1791.62561 1300.36327,1792.45117 1299.67756,1794.14293 C1299.59122,1794.35589 1299.52747,1794.57733 1299.48737,1794.80361 L1299.48737,1794.8937 C1299.36981,1795.59736 1299.44238,1796.31964 1299.69758,1796.98585 C1300.04217,1797.87642 1300.68168,1798.62192 1301.50945,1799.09801 C1303.67821,1800.38215 1306.44617,1800.00036 1308.18632,1798.17707 C1310.05494,1796.01309 1310.38223,1792.91584 1309.00716,1790.4091 C1308.36199,1789.11808 1307.34357,1788.05084 1306.08416,1787.34595 C1304.96893,1786.6118 1303.74164,1786.06408 1302.45042,1785.72429 C1299.73027,1784.98826 1296.88538,1784.83476 1294.10183,1785.27383 C1292.97737,1784.46396 1292.1563,1783.30108 1291.76943,1781.97044 L1308.12626,1782.21069 C1308.77823,1782.26022 1309.40302,1781.94045 1309.74415,1781.38264 C1310.08528,1780.82484 1310.08528,1780.12297 1309.74415,1779.56516 C1309.40302,1779.00736 1308.77823,1778.68759 1308.12626,1778.73712 L1291.69935,1778.97737 C1291.99577,1777.6569 1292.72946,1776.47524 1293.7815,1775.62393 C1296.66541,1776.12981 1299.62542,1775.99309 1302.45042,1775.22352 C1303.73813,1774.8786 1304.96412,1774.33484 1306.08416,1773.61186 C1307.3439,1772.90284 1308.36209,1771.83236 1309.00716,1770.53871 C1310.38223,1768.03197 1310.05494,1764.93472 1308.18632,1762.77074 C1307.28413,1761.83481 1306.0769,1761.2525 1304.78282,1761.12905 C1303.64125,1761.01007 1302.49203,1761.26662 1301.50945,1761.8598 C1300.68079,1762.33018 1300.04057,1763.07298 1299.69758,1763.96196 C1299.44474,1764.62872 1299.37222,1765.35037 1299.48737,1766.05411 L1299.48737,1766.15421 C1299.526,1766.37758 1299.58981,1766.59586 1299.67756,1766.80488 C1300.36327,1768.49664 1302.28215,1769.3222 1303.98199,1768.65678 C1304.82708,1768.34693 1305.5054,1767.69983 1305.85469,1766.87027 C1306.20398,1766.04071 1306.19282,1765.1033 1305.82389,1764.28229 C1305.24766,1762.9003 1303.81398,1762.07871 1302.33029,1762.28023 C1303.05011,1762.01682 1303.82439,1761.93768 1304.58261,1762.05 C1305.60026,1762.20387 1306.52994,1762.71485 1307.20531,1763.49148 C1308.57772,1765.30056 1308.70861,1767.76352 1307.53565,1769.70786 C1306.9798,1770.69326 1306.14356,1771.49117 1305.13318,1772.00021 C1304.11549,1772.57784 1303.02454,1773.01556 1301.88984,1773.30154 C1301.29792,1773.44618 1300.69538,1773.54325 1300.08799,1773.59184 C1299.08696,1773.54179 1297.90574,1773.47172 1296.9948,1773.33157 L1296.9948,1773.13137 C1296.98475,1772.28451 1296.39549,1771.55493 1295.5697,1771.36693 C1294.7439,1771.17893 1293.89689,1771.58151 1293.52123,1772.34056 C1292.07078,1771.76646 1290.65962,1771.09767 1289.29688,1770.3385 C1288.81639,1769.98814 1287.80535,1769.15729 1287.29482,1768.74687 C1285.17177,1766.89654 1283.44535,1764.63551 1282.2196,1762.10005 C1281.00801,1759.57327 1280.35909,1756.81369 1280.31764,1754.01175 C1280.30501,1751.58044 1280.86392,1749.18019 1281.94932,1747.00456 C1282.74291,1745.42812 1283.7876,1743.99124 1285.0425,1742.75019 C1285.58258,1742.21141 1286.16139,1741.7129 1286.77429,1741.25866 C1287.16304,1740.96131 1287.50109,1740.60298 1287.77532,1740.19758 C1288.01556,1739.84722 1288.11567,1739.52689 1287.98553,1739.30666 C1287.8554,1739.08644 1287.51505,1739.00635 1287.0846,1739.06641 C1286.53112,1739.18797 1286.01147,1739.4307 1285.56304,1739.77714 C1283.33492,1741.50199 1281.54473,1743.72772 1280.33766,1746.27381 C1279.1963,1748.70692 1278.64744,1751.37575 1278.73601,1754.0618 C1278.89492,1757.03934 1279.70112,1759.94644 1281.09844,1762.58054 C1281.54354,1763.41042 1282.03828,1764.21269 1282.57997,1764.98301 L1282.19958,1764.55257 C1280.64056,1762.71529 1279.4173,1760.6178 1278.58586,1758.35621 C1277.52853,1755.5863 1277.14759,1752.60403 1277.47472,1749.65728 C1277.93106,1746.28769 1279.41688,1743.14125 1281.72909,1740.64804 C1284.30616,1737.87578 1287.73985,1736.04965 1291.47913,1735.46272 C1293.41157,1735.12902 1295.39378,1735.22471 1297.2851,1735.743 C1299.19855,1736.27178 1300.97225,1737.21501 1302.48045,1738.50584 C1304.00528,1739.81624 1305.2076,1741.46043 1305.99406,1743.31077 C1306.80863,1745.13528 1307.1528,1747.13489 1306.99509,1749.12674 C1306.79138,1751.09921 1306.01937,1752.97011 1304.77281,1754.51226 C1303.5369,1756.06182 1301.88877,1757.23112 1300.01791,1757.88573 C1298.19822,1758.57341 1296.20697,1758.66456 1294.33206,1758.14599 C1291.61629,1757.34737 1289.4837,1755.23734 1288.65622,1752.53023 L1288.49606,1751.88957 C1288.44635,1751.66834 1288.40959,1751.4444 1288.38594,1751.21888 C1288.341,1750.78627 1288.341,1750.35016 1288.38594,1749.91755 C1288.51362,1748.20718 1289.31247,1746.61669 1290.60823,1745.49301 C1291.8416,1744.40025 1293.43504,1743.80138 1295.08284,1743.81128 C1296.61231,1743.86562 1298.04644,1744.56812 1299.02689,1745.74327 C1299.93081,1746.80387 1300.35163,1748.1933 1300.18809,1749.5772 L1300.12803,1749.81745 C1300.01932,1747.60503 1298.19385,1745.86705 1295.97876,1745.86705 C1293.76366,1745.86705 1291.93819,1747.60503 1291.82949,1749.81745 C1291.82469,1750.93769 1292.28941,1752.00871 1293.11081,1752.77048 C1293.5506,1753.23969 1294.09149,1753.60256 1294.69243,1753.83157 C1295.33413,1754.05755 1296.01692,1754.1429 1296.69449,1754.08182 C1297.39601,1754.00145 1298.07562,1753.78738 1298.69655,1753.45118 C1300.08704,1752.68709 1301.06626,1751.3448 1301.3693,1749.78742 C1301.65287,1748.06047 1301.18681,1746.29454 1300.08799,1744.93243 C1298.89198,1743.41113 1297.10423,1742.47174 1295.17293,1742.34978 C1290.78623,1742.15732 1287.01061,1745.41928 1286.56407,1749.78742 C1286.50397,1750.33634 1286.50397,1750.89019 1286.56407,1751.43911 L1286.68419,1752.23993 L1286.86438,1753.05076 C1287.1571,1754.12429 1287.63107,1755.13993 1288.26582,1756.05385 L1288.51608,1756.40421 C1285.14261,1755.53331 1282.5099,1756.40421 1283.06046,1756.40421 C1284.65875,1756.77614 1286.07581,1757.69723 1287.06458,1759.00688 C1287.80533,1760.42439 1288.6838,1761.76556 1289.68728,1763.01098 C1289.98131,1763.40133 1290.36617,1763.71402 1290.80844,1763.92192 C1292.21574,1764.55148 1293.86757,1763.93092 1294.51225,1762.53049 C1294.8168,1761.84192 1294.8168,1761.05684 1294.51225,1760.36827 C1295.40042,1760.57887 1296.31277,1760.66976 1297.22504,1760.63855 L1298.13598,1760.57849 L1299.00687,1760.44835 C1299.59488,1760.34305 1300.17386,1760.19244 1300.73866,1759.99789 C1303.0504,1759.25103 1305.10218,1757.86235 1306.65474,1755.99378 C1308.23259,1754.12045 1309.23087,1751.82824 1309.5277,1749.39702 C1309.99368,1744.48172 1308.07244,1739.6414 1304.36238,1736.38366 C1303.31297,1735.44553 1302.14108,1734.65417 1300.8788,1734.03125 C1301.85585,1733.5346 1302.77845,1732.93743 1303.63163,1732.24942 C1305.31238,1730.901 1306.7105,1729.23414 1307.74587,1727.34439 C1308.98347,1725.09825 1309.66967,1722.59021 1309.74793,1720.02688 L1309.74793,1719.53638 C1309.7563,1718.30473 1309.60829,1717.077 1309.30747,1715.88263 C1308.94671,1714.43239 1308.3407,1713.05448 1307.51563,1711.80845 C1305.75391,1709.14332 1303.1158,1707.17803 1300.05795,1706.25274 C1299.46738,1706.07258 1298.86542,1705.93212 1298.2561,1705.83231 C1298.74192,1705.67462 1299.21127,1705.47012 1299.65754,1705.22169 C1300.58409,1704.68776 1301.40238,1703.98492 1302.07003,1703.14956 C1302.02491,1703.76236 1302.29694,1704.35553 1302.79077,1704.72117 C1303.60954,1705.36606 1304.79567,1705.22731 1305.4435,1704.41085 C1305.6471,1704.15289 1305.77839,1703.8454 1305.82389,1703.51994 C1306.03458,1702.46545 1306.13522,1701.39193 1306.1242,1700.31665 C1306.30236,1699.2197 1306.87122,1698.22418 1307.72585,1697.51378 C1308.10624,1697.26352 1305.58364,1697.734 1303.72173,1699.99632 C1304.35189,1697.70993 1303.98842,1695.2638 1302.72069,1693.25941 C1301.82331,1691.93458 1300.52003,1690.93692 1299.00687,1690.4165 C1297.40871,1689.86117 1295.66995,1689.86117 1294.07179,1690.4165 C1292.41096,1690.98741 1291.08321,1692.25663 1290.43806,1693.89006 C1289.77835,1695.48584 1289.85525,1697.29122 1290.64827,1698.82512 C1291.45705,1700.32665 1292.95609,1701.331 1294.65239,1701.50788 C1295.44437,1701.60011 1296.24694,1701.50408 1296.9948,1701.22759 C1297.74353,1700.9604 1298.40242,1700.48878 1298.89676,1699.86619 C1299.79587,1698.73824 1300.07022,1697.23492 1299.62751,1695.86208 C1299.24702,1694.70074 1298.31815,1693.80183 1297.14496,1693.45962 C1296.31137,1693.22235 1295.42191,1693.27529 1294.62236,1693.60977 C1294.16557,1693.80751 1293.76365,1694.11325 1293.45116,1694.50069 C1292.86378,1695.21931 1292.65543,1696.17547 1292.89058,1697.07333 L1292.99068,1697.35361 L1292.99068,1697.46373 L1293.05074,1697.56383 C1293.14124,1697.74761 1293.2594,1697.91641 1293.4011,1698.06434 C1293.85795,1698.81985 1294.77077,1699.16694 1295.61418,1698.90584 C1296.45758,1698.64473 1297.01462,1697.8426 1296.96468,1696.96112 C1296.91474,1696.07964 1296.27067,1695.34556 1295.40316,1695.18138 C1295.79346,1695.01935 1296.22644,1694.99119 1296.63443,1695.1013 C1297.24614,1695.28531 1297.73331,1695.75017 1297.94578,1696.35259 C1298.23302,1697.17563 1298.08218,1698.08824 1297.54537,1698.77507 C1297.25604,1699.1578 1296.86867,1699.45524 1296.42422,1699.63596 C1295.90438,1699.83472 1295.34805,1699.92005 1294.79254,1699.88621 C1293.59052,1699.78128 1292.51666,1699.09282 1291.91958,1698.04432 C1291.30454,1696.8819 1291.21707,1695.51165 1291.67933,1694.28046 C1292.16435,1692.98951 1293.17652,1691.96642 1294.4622,1691.46757 C1297.15879,1690.4438 1300.20692,1691.35454 1301.89985,1693.68985 C1302.64371,1694.75377 1303.0864,1695.99885 1303.18117,1697.29355 C1303.27782,1698.45709 1303.12422,1699.62784 1302.73071,1700.72707 C1302.11631,1702.40369 1300.98826,1703.84352 1299.50739,1704.8413 C1299.02838,1705.16696 1298.52273,1705.45159 1297.99583,1705.69217 C1297.06453,1705.55879 1296.12257,1705.51521 1295.18294,1705.56204 C1293.48914,1705.64497 1291.83315,1706.09225 1290.32794,1706.87338 C1288.9523,1707.61524 1287.7483,1708.63846 1286.79431,1709.87646 C1286.64415,1707.46399 1285.45293,1705.87235 1285.54302,1706.29279 C1285.71229,1707.42539 1285.44773,1708.58016 1284.80226,1709.5261 C1284.04821,1710.30163 1283.37722,1711.15379 1282.8002,1712.06871 C1282.61287,1712.33853 1282.49903,1712.65247 1282.46986,1712.97965 C1282.43125,1713.47378 1282.59126,1713.96291 1282.91444,1714.33869 C1283.23762,1714.71448 1283.69728,1714.9459 1284.19163,1714.9817 C1284.31799,1714.99653 1284.44566,1714.99653 1284.57202,1714.9817 C1284.43036,1715.80449 1284.38334,1716.64078 1284.43187,1717.47426 L1284.43187,1718.0949 L1284.43187,1718.21502 L1284.43187,1718.43525 L1284.43187,1718.70552 C1284.5022,1719.13342 1284.60596,1719.55514 1284.74219,1719.96682 C1285.55471,1722.35376 1287.29782,1724.31076 1289.57524,1725.39291 C1291.85267,1726.47506 1294.47088,1726.5904 1296.83464,1725.71271 C1298.30959,1725.09966 1299.56303,1724.05223 1300.42834,1722.70963 C1301.18725,1721.51096 1301.59635,1720.12418 1301.60955,1718.70552 L1301.60955,1718.50532 C1301.60389,1718.14955 1301.57042,1717.79478 1301.50945,1717.44423 C1301.44537,1717.08441 1301.35504,1716.72977 1301.23917,1716.38314 C1301.00506,1715.71699 1300.66722,1715.092 1300.23814,1714.53124 C1299.38588,1713.48083 1298.22788,1712.72166 1296.92473,1712.35901 C1295.73887,1712.00831 1294.47685,1712.00831 1293.29099,1712.35901 C1292.22472,1712.7066 1291.28918,1713.36986 1290.60823,1714.26096 C1290.05385,1715.01917 1289.70863,1715.90984 1289.6072,1716.84361 C1289.50935,1717.6054 1289.58813,1718.37948 1289.83744,1719.10593 C1290.15105,1720.00755 1290.74358,1720.7859 1291.52918,1721.32821 C1293.08345,1722.44849 1295.18661,1722.42413 1296.71451,1721.26815 C1297.34367,1720.75766 1297.78699,1720.05399 1297.97581,1719.2661 C1298.04804,1718.91057 1298.07161,1718.54687 1298.04588,1718.18499 C1298.04588,1718.0048 1298.04588,1717.87467 1297.95579,1717.66445 L1297.80564,1717.21399 C1297.40598,1716.24816 1296.48698,1715.59785 1295.44321,1715.54228 C1295.08585,1715.50287 1294.72711,1715.60332 1294.44218,1715.82256 C1294.36685,1715.88822 1294.32315,1715.98292 1294.32205,1716.08283 C1294.32205,1716.27303 1294.53227,1716.36312 1294.76251,1716.48324 L1295.11287,1716.65342 C1295.54756,1716.87393 1295.86002,1717.27828 1295.96374,1717.75455 C1295.96896,1717.83788 1295.96896,1717.92147 1295.96374,1718.0048 C1295.96693,1718.57708 1295.68557,1719.11354 1295.21297,1719.43627 C1294.49303,1719.8465 1293.59927,1719.79554 1292.93062,1719.30614 C1292.5683,1719.06393 1292.29158,1718.71365 1292.13981,1718.30511 C1292.04736,1718.03465 1292.00331,1717.75001 1292.00967,1717.46425 C1292.0024,1716.83351 1292.20291,1716.21791 1292.58026,1715.71245 C1292.95569,1715.23941 1293.46502,1714.89056 1294.04176,1714.71142 C1294.76409,1714.50037 1295.53172,1714.50037 1296.25404,1714.71142 C1298.03794,1715.19104 1299.28534,1716.79835 1299.30718,1718.64546 L1299.30718,1718.91574 C1299.25503,1721.05256 1297.95983,1722.96209 1295.99377,1723.80075 C1294.85793,1724.25874 1293.61676,1724.39049 1292.41008,1724.18114 C1291.134,1723.97864 1289.93497,1723.43959 1288.93651,1722.61954 C1287.91333,1721.78439 1287.1408,1720.68277 1286.70421,1719.43627 C1286.59784,1719.10801 1286.51093,1718.77375 1286.44395,1718.43525 L1286.36386,1717.92472 L1286.36386,1717.4142 C1286.30994,1716.71939 1286.33681,1716.02067 1286.44395,1715.33206 C1286.91643,1712.50697 1288.65257,1710.05204 1291.1588,1708.66522 C1292.42427,1707.97667 1293.82513,1707.5735 1295.26302,1707.48401 C1298.42816,1707.24491 1301.56217,1708.2465 1304.00201,1710.27687 C1301.17911,1709.27585 1298.70656,1710.06666 1299.16704,1710.09669 C1300.26771,1710.29727 1301.26119,1710.88271 1301.96992,1711.74838 C1302.50855,1712.68855 1303.14254,1713.57077 1303.86187,1714.38109 C1304.06925,1714.63954 1304.33754,1714.84247 1304.64267,1714.97169 C1305.55292,1715.32446 1306.58243,1714.93082 1307.02512,1714.06076 C1307.93845,1715.88417 1308.40833,1717.89746 1308.39654,1719.93679 L1308.39654,1720.13699 C1308.37392,1722.37649 1307.85061,1724.58256 1306.86496,1726.59362 C1307.37548,1723.35029 1305.67373,1720.95783 1305.77384,1721.41831 C1305.88424,1722.52564 1305.58901,1723.63541 1304.94298,1724.54151 C1304.19225,1725.30544 1303.52142,1726.14397 1302.94092,1727.04408 C1302.51111,1727.58242 1302.41563,1728.31484 1302.69307,1728.94537 C1302.9705,1729.57591 1303.575,1730.00034 1304.26228,1730.04716 C1304.40869,1730.06273 1304.55633,1730.06273 1304.70273,1730.04716 C1304.19444,1730.65742 1303.63518,1731.22337 1303.03101,1731.7389 C1302.11403,1732.54129 1301.10612,1733.23339 1300.02792,1733.80101 C1299.41781,1733.53196 1298.79281,1733.29801 1298.156,1733.10029 C1295.88168,1732.44056 1293.49284,1732.27334 1291.14879,1732.60979 C1285.38117,1733.4097 1280.25658,1736.70407 1277.13436,1741.61903 C1276.96419,1737.94526 1275.1323,1735.52278 1275.27245,1736.10337 C1275.46451,1737.72912 1275.05892,1739.36925 1274.13127,1740.71811 C1272.99759,1741.86454 1271.99075,1743.12981 1271.12818,1744.49198 C1270.8366,1744.88294 1270.6598,1745.34746 1270.61766,1745.83336 C1270.55406,1746.57093 1270.78805,1747.30331 1271.26752,1747.86739 C1271.74698,1748.43146 1272.4321,1748.78038 1273.17029,1748.83644 C1273.53909,1748.86999 1273.91084,1748.82566 1274.26141,1748.70631 L1274.12126,1749.4771 C1273.86609,1751.29674 1273.86609,1753.14309 1274.12126,1754.96273 C1274.32616,1756.53236 1274.68492,1758.07805 1275.19237,1759.57746 C1276.13851,1762.24273 1277.53707,1764.72493 1279.32662,1766.91499 C1280.6173,1768.47548 1282.08916,1769.87676 1283.71113,1771.08927 C1284.57179,1771.72507 1285.47111,1772.30679 1286.4039,1772.83106 C1288.15182,1773.81157 1290.01461,1774.57148 1291.94961,1775.09338 C1291.01243,1776.11579 1290.36607,1777.37047 1290.07768,1778.72711 C1287.94734,1778.13106 1286.03293,1776.93586 1284.56201,1775.28358 C1283.49091,1773.87213 1282.73012,1772.11032 1280.75809,1771.27947 C1279.75706,1770.84903 1278.67595,1770.98917 1279.02631,1771.53974 C1279.15645,1771.73994 1279.31661,1772.54076 1278.67595,1772.30052 C1277.71203,1771.96806 1276.68674,1771.85186 1275.67286,1771.96017 C1273.26038,1772.42064 1272.13922,1773.73199 1272.43953,1774.42269 C1272.67978,1774.94323 1273.70083,1775.03332 1274.44159,1775.42372 C1275.18236,1775.81412 1275.01218,1776.21453 1274.71187,1776.22454 C1274.01075,1776.25046 1273.31198,1776.32067 1272.61972,1776.43476 C1271.75593,1776.58843 1270.91506,1776.85078 1270.11714,1777.21556 C1268.6749,1777.88954 1267.46827,1778.98108 1266.65358,1780.34877 C1267.46623,1781.72058 1268.67315,1782.81588 1270.11714,1783.492 C1270.91623,1783.85598 1271.75658,1784.12153 1272.61972,1784.28281 C1273.31043,1784.38291 1274.03117,1784.45299 1274.71187,1784.48302 C1275.01218,1784.48302 1275.17235,1784.91346 1274.44159,1785.28384 C1273.71084,1785.65422 1272.65976,1785.77434 1272.43953,1786.28487 C1272.21931,1786.79539 1273.26038,1788.28692 1275.67286,1788.72737 C1276.68528,1788.84015 1277.71011,1788.73084 1278.67595,1788.40704 C1279.31661,1788.1668 1279.15645,1788.9476 1279.02631,1789.15781 C1278.67595,1789.70838 1279.74705,1789.84852 1280.75809,1789.41808 C1282.76015,1788.58723 1283.49091,1786.82542 1284.56201,1785.41397 C1286.03769,1783.7396 1287.98457,1782.54984 1290.14776,1782.00047 C1290.48675,1783.33633 1291.17817,1784.55668 1292.14982,1785.5341 C1289.09787,1786.35304 1286.22572,1787.73479 1283.6811,1789.60828 C1282.05913,1790.82079 1280.58727,1792.22207 1279.29659,1793.78256 C1277.50704,1795.97262 1276.10848,1798.45482 1275.16234,1801.12009 C1274.61181,1802.69084 1274.22601,1804.31455 1274.01115,1805.96506 C1273.75595,1807.78805 1273.75595,1809.63771 1274.01115,1811.4607 L1274.1513,1812.22148 C1273.8003,1812.10366 1273.42955,1812.05604 1273.06017,1812.08134 C1272.32302,1812.14001 1271.63953,1812.48966 1271.1606,1813.05311 C1270.68167,1813.61655 1270.44669,1814.34744 1270.50755,1815.08442 C1270.54761,1815.57691 1270.72442,1816.04842 1271.01807,1816.44581 C1271.88437,1817.80225 1272.89094,1819.06381 1274.02116,1820.20968 C1274.94966,1821.55815 1275.35533,1823.1986 1275.16234,1824.82441 C1275.02219,1825.40501 1276.85408,1822.98252 1277.02425,1819.30875 C1280.15612,1824.20383 1285.28028,1827.47596 1291.03867,1828.25793 C1293.38235,1828.60446 1295.77334,1828.43709 1298.04588,1827.76743 C1298.68548,1827.58196 1299.31104,1827.35114 1299.91781,1827.07672 C1300.9915,1827.64784 1301.99867,1828.33606 1302.9209,1829.12883 C1303.5251,1829.64796 1304.08433,1830.21723 1304.59262,1830.83057 C1304.44651,1830.81016 1304.29828,1830.81016 1304.15217,1830.83057 C1303.65658,1830.87862 1303.20056,1831.12213 1302.88496,1831.50723 C1302.56936,1831.89234 1302.42019,1832.38732 1302.47044,1832.88268 C1302.50797,1833.20369 1302.63259,1833.50831 1302.83081,1833.76358 C1303.40915,1834.67141 1304.08009,1835.51679 1304.83287,1836.28617 C1305.47837,1837.18493 1305.77379,1838.28831 1305.66372,1839.38936 C1305.56362,1839.85984 1307.26537,1837.46738 1306.75485,1834.23407 C1307.78858,1836.22318 1308.36002,1838.41996 1308.42657,1840.66066 L1308.42657,1840.84085 C1308.43855,1842.88224 1307.9723,1844.89807 1307.06517,1846.72689 C1306.6152,1845.85919 1305.58324,1845.47059 1304.6727,1845.82596 C1304.36441,1845.94965 1304.09482,1846.15357 1303.8919,1846.41657 C1303.16922,1847.22058 1302.53494,1848.09985 1301.99995,1849.03926 C1301.29122,1849.90494 1300.29774,1850.49038 1299.19707,1850.69095 C1298.73659,1850.69095 1301.19913,1851.56185 1304.03204,1850.51077 C1301.5922,1852.54114 1298.45819,1853.54273 1295.29305,1853.30363 C1294.73115,1853.14385 1294.15409,1853.0432 1293.57128,1853.00333 C1289.8789,1852.17892 1287.06496,1849.18241 1286.47398,1845.44557 C1286.36681,1844.76032 1286.33993,1844.06492 1286.39389,1843.37344 L1286.39389,1842.87293 L1286.47398,1842.3524 C1286.54096,1842.01389 1286.62787,1841.67963 1286.73424,1841.35137 C1287.17084,1840.10487 1287.94336,1839.00325 1288.96654,1838.1681 C1289.965,1837.34805 1291.16403,1836.809 1292.44012,1836.6065 C1293.64786,1836.40508 1294.88776,1836.54015 1296.0238,1836.9969 C1297.9883,1837.83203 1299.28369,1839.73794 1299.33721,1841.8719 L1299.33721,1842.14218 C1299.31877,1843.99048 1298.06996,1845.5996 1296.28407,1846.07622 C1295.56175,1846.28727 1294.79412,1846.28727 1294.07179,1846.07622 C1293.4841,1845.88177 1292.97269,1845.50697 1292.61029,1845.00512 C1292.23166,1844.50415 1292.03087,1843.89123 1292.0397,1843.26333 C1292.03326,1842.98084 1292.07733,1842.69947 1292.16984,1842.43248 C1292.32677,1842.02686 1292.60237,1841.678 1292.96065,1841.43145 C1293.63219,1840.94771 1294.52439,1840.90076 1295.243,1841.31133 C1295.71697,1841.63284 1295.99875,1842.17009 1295.99377,1842.7428 C1295.99872,1842.82948 1295.99872,1842.91638 1295.99377,1843.00306 C1295.8835,1843.47377 1295.57254,1843.87253 1295.1429,1844.09418 L1294.79254,1844.27437 C1294.5623,1844.37447 1294.3721,1844.46456 1294.35208,1844.65476 C1294.35767,1844.75361 1294.40061,1844.84664 1294.47221,1844.91503 C1294.75941,1845.12971 1295.11631,1845.22964 1295.47324,1845.19531 C1296.5194,1845.13798 1297.43902,1844.48333 1297.83567,1843.51359 L1297.98582,1843.07314 C1298.03587,1842.86292 1298.04588,1842.73279 1298.07592,1842.5526 C1298.10164,1842.19072 1298.07807,1841.82702 1298.00584,1841.47149 C1297.81702,1840.6836 1297.3737,1839.97993 1296.74455,1839.46944 C1295.21887,1838.30695 1293.1114,1838.28254 1291.55921,1839.40938 C1290.77577,1839.94959 1290.18355,1840.72404 1289.86747,1841.62165 C1289.61662,1842.35122 1289.53782,1843.12891 1289.63723,1843.89398 C1289.89116,1845.98777 1291.34821,1847.73858 1293.36106,1848.36857 C1294.54546,1848.72927 1295.81041,1848.72927 1296.9948,1848.36857 C1298.2953,1848.0056 1299.4523,1847.25059 1300.30821,1846.20635 C1300.73729,1845.64559 1301.07513,1845.0206 1301.30924,1844.35445 C1301.4263,1844.00818 1301.51665,1843.65344 1301.57952,1843.29336 C1301.64097,1842.93951 1301.67444,1842.58137 1301.67962,1842.22226 L1301.67962,1842.03207 C1301.66642,1840.61341 1301.25732,1839.22663 1300.49841,1838.02796 C1299.63699,1836.68194 1298.38235,1835.63349 1296.90471,1835.02488 C1294.54005,1834.13816 1291.91677,1834.24906 1289.63539,1835.33219 C1287.354,1836.41533 1285.60987,1838.37795 1284.80226,1840.77077 C1284.66588,1841.17559 1284.5621,1841.59068 1284.49194,1842.01205 L1284.49194,1842.30235 L1284.49194,1842.51256 L1284.49194,1842.62267 L1284.49194,1843.25332 C1284.44394,1844.09013 1284.49096,1844.92967 1284.63208,1845.75589 C1284.50605,1845.73618 1284.37772,1845.73618 1284.25169,1845.75589 C1283.75735,1845.79169 1283.29768,1846.02311 1282.9745,1846.3989 C1282.65132,1846.77468 1282.49132,1847.26381 1282.52992,1847.75794 C1282.56086,1848.08472 1282.67455,1848.39822 1282.86026,1848.66888 C1283.43622,1849.58763 1284.10727,1850.44321 1284.86232,1851.2215 C1285.49335,1852.12913 1285.76777,1853.23748 1285.63311,1854.33469 C1285.54302,1854.7351 1286.73424,1853.16349 1286.8844,1850.76102 C1287.76747,1851.87773 1288.85871,1852.8126 1290.09771,1853.51385 C1289.9976,1853.51385 1289.87748,1853.57391 1289.78739,1853.61395 C1288.0839,1854.29186 1286.85799,1855.81001 1286.55406,1857.61806 C1286.33724,1859.29663 1287.1196,1860.9474 1288.55612,1861.8424 C1289.12976,1862.21255 1289.76833,1862.4707 1290.43806,1862.60318 C1290.04158,1863.73876 1290.00314,1864.96867 1290.32794,1866.12679 C1289.34261,1866.10751 1288.36374,1865.96286 1287.41494,1865.69635 C1285.45953,1865.15709 1283.71408,1864.03651 1282.40979,1862.48305 C1282.0373,1862.00601 1281.70261,1861.50063 1281.40876,1860.9715 C1281.57231,1860.0434 1281.62606,1859.09928 1281.56893,1858.15862 C1281.45581,1856.43205 1280.90832,1854.76205 1279.97729,1853.30363 C1279.05358,1851.88285 1277.83472,1850.67765 1276.40361,1849.77001 C1279.29659,1849.61985 1281.17853,1848.42863 1280.70804,1848.51872 C1279.40398,1848.65552 1278.08948,1848.38632 1276.94417,1847.74793 C1276.01075,1846.98434 1275.00494,1846.3138 1273.94108,1845.74588 C1273.61054,1845.5452 1273.23597,1845.42836 1272.84996,1845.40553 C1271.70992,1845.2398 1270.64014,1845.99701 1270.41745,1847.1273 C1270.40752,1847.2539 1270.40752,1847.38108 1270.41745,1847.50769 C1269.42321,1847.36505 1268.41757,1847.31812 1267.41436,1847.36754 L1266.66359,1847.36754 L1266.52345,1847.36754 L1266.26318,1847.36754 L1265.92283,1847.41759 C1265.41702,1847.49356 1264.91576,1847.59715 1264.42128,1847.72791 C1262.54244,1848.22858 1260.82069,1849.1962 1259.41613,1850.5408 C1256.83277,1852.8947 1256.05351,1856.64162 1257.48414,1859.83033 C1258.28488,1861.36706 1259.54447,1862.61615 1261.08785,1863.404 C1262.55994,1864.21031 1264.20472,1864.64983 1265.88279,1864.68531 L1266.12303,1864.68531 C1266.54881,1864.67745 1266.97356,1864.64066 1267.39434,1864.5752 C1267.82774,1864.51804 1268.2561,1864.42768 1268.67566,1864.30492 C1269.46735,1864.08952 1270.22052,1863.75178 1270.90796,1863.30389 C1272.11934,1862.5235 1273.03536,1861.36086 1273.51064,1860.00051 C1273.93665,1858.82672 1273.93665,1857.54056 1273.51064,1856.36678 C1273.05178,1855.23939 1272.236,1854.29351 1271.18825,1853.67401 C1269.44492,1852.60205 1267.33389,1852.30462 1265.36225,1852.85317 C1264.32183,1853.13627 1263.39059,1853.7257 1262.6895,1854.54491 C1261.34503,1856.02799 1261.38004,1858.2993 1262.76958,1859.74024 C1263.44489,1860.39323 1264.29814,1860.83204 1265.22211,1861.00153 C1265.65223,1861.07056 1266.08879,1861.09071 1266.52345,1861.06159 C1266.73196,1861.04419 1266.93922,1861.0141 1267.14408,1860.9715 L1267.68464,1860.81134 C1268.77842,1860.51696 1269.57571,1859.57616 1269.6867,1858.44891 C1269.72663,1858.08316 1269.60614,1857.71804 1269.35636,1857.44789 C1269.2725,1857.36774 1269.16199,1857.32139 1269.04604,1857.31775 L1268.98598,1857.31775 C1268.75574,1857.31775 1268.64563,1857.53798 1268.5155,1857.76821 L1268.30528,1858.11857 C1268.00845,1858.57518 1267.53185,1858.88442 1266.99393,1858.96945 C1266.88738,1858.97934 1266.78015,1858.97934 1266.6736,1858.96945 C1266.0212,1858.97894 1265.39675,1858.70506 1264.96184,1858.21868 C1264.46703,1857.5142 1264.52952,1856.56024 1265.11199,1855.92632 C1265.43238,1855.54357 1265.86193,1855.26768 1266.34326,1855.13551 C1266.66781,1855.03788 1267.00541,1854.99061 1267.34429,1854.99537 C1268.08342,1854.99423 1268.80934,1855.19127 1269.44645,1855.56596 C1270.01533,1855.9123 1270.46295,1856.42637 1270.72777,1857.03746 C1270.97877,1857.75696 1270.97877,1858.54025 1270.72777,1859.25975 C1269.95761,1861.16399 1268.06422,1862.36997 1266.01292,1862.26283 L1265.68258,1862.26283 C1263.26841,1862.3039 1261.0207,1861.03646 1259.80653,1858.94943 C1259.26051,1857.83892 1259.09518,1856.57957 1259.33605,1855.36575 C1259.60677,1854.0497 1260.25762,1852.84198 1261.20798,1851.89219 C1262.2793,1850.83421 1263.60207,1850.06604 1265.05193,1849.65989 C1265.42993,1849.54949 1265.81439,1849.46257 1266.20312,1849.39963 L1266.82375,1849.31955 L1267.42437,1849.31955 C1268.25594,1849.27071 1269.09022,1849.29751 1269.91694,1849.39963 C1273.13645,1849.76513 1276.0484,1851.48317 1277.92518,1854.12448 C1278.73568,1855.3517 1279.22449,1856.76306 1279.34664,1858.22869 C1279.47529,1859.67423 1279.29793,1861.13066 1278.82611,1862.50307 C1278.23277,1864.18637 1277.26003,1865.71056 1275.98318,1866.95764 C1277.25449,1864.13475 1276.22343,1861.66221 1276.1934,1862.12268 C1275.9167,1863.28213 1275.19837,1864.28778 1274.19134,1864.92556 C1273.07856,1865.44913 1272.01918,1866.07939 1271.02808,1866.80749 C1270.72642,1867.00479 1270.48145,1867.27737 1270.31735,1867.5983 C1270.12204,1868.05987 1270.13015,1868.58236 1270.33969,1869.03764 C1270.54924,1869.49293 1270.94084,1869.83891 1271.41848,1869.99076 C1269.16834,1870.90544 1266.76009,1871.36804 1264.33119,1871.35215 L1264.10095,1871.35215 C1261.44182,1871.33243 1258.8101,1870.81288 1256.34297,1869.82058 C1260.22697,1870.33111 1263.10993,1868.62936 1262.54936,1868.73947 C1261.24845,1868.84173 1259.947,1868.54864 1258.81551,1867.89861 C1257.88318,1867.13356 1256.87722,1866.46292 1255.81242,1865.89656 C1255.48367,1865.69681 1255.11416,1865.57364 1254.73131,1865.53619 C1253.59026,1865.36115 1252.50898,1866.10097 1252.25877,1867.22792 C1252.24847,1867.37122 1252.24847,1867.51507 1252.25877,1867.65836 C1251.55299,1867.14882 1250.88398,1866.5902 1250.25671,1865.98665 C1249.31531,1865.09086 1248.4882,1864.08219 1247.79417,1862.98357 C1248.11577,1862.38383 1248.39345,1861.76156 1248.62503,1861.12166 C1249.42395,1858.87617 1249.62743,1856.462 1249.21563,1854.11447 C1248.34876,1849.44102 1245.77656,1845.25629 1241.99821,1842.37242 C1240.88632,1841.49039 1239.69305,1840.71611 1238.43454,1840.06004 C1242.8691,1839.88987 1245.7821,1838.05799 1245.08138,1838.19813 C1243.15534,1838.39124 1241.21639,1837.98948 1239.52566,1837.04695 C1238.11411,1835.90255 1236.59553,1834.89688 1234.991,1834.04387 C1234.5005,1833.75287 1233.94839,1833.58141 1233.37934,1833.54336 C1231.69564,1833.30424 1230.11994,1834.4266 1229.79565,1836.09598 C1229.76144,1836.46725 1229.81635,1836.84132 1229.95582,1837.1871 L1229.03487,1837.05696 C1226.84393,1836.79186 1224.62902,1836.79186 1222.43808,1837.05696 C1220.46528,1837.26381 1218.5153,1837.64911 1216.61208,1838.20814 C1213.47026,1839.11416 1210.49073,1840.50934 1207.783,1842.34239 C1205.94371,1843.59644 1204.26309,1845.06867 1202.77785,1846.72689 C1202.00956,1847.57062 1201.30994,1848.47442 1200.68569,1849.42966 C1199.52054,1851.13599 1198.59749,1852.99557 1197.94287,1854.95533 C1196.66181,1853.99616 1195.16791,1853.36083 1193.58839,1853.10343 C1194.36141,1850.87807 1195.80591,1848.94741 1197.72265,1847.57776 C1199.41439,1846.50666 1201.52656,1845.74588 1202.5376,1843.76384 C1203.04813,1842.76282 1202.87795,1841.68171 1202.21727,1842.04208 C1201.96701,1842.1622 1201.02604,1842.33238 1201.31634,1841.68171 C1201.697,1840.72945 1201.83127,1839.69656 1201.70675,1838.67863 C1201.15618,1836.26615 1199.58456,1835.145 1198.70365,1835.44531 C1198.063,1835.68556 1197.96289,1836.7066 1197.4824,1837.44736 C1197.0019,1838.18812 1196.53142,1838.00794 1196.48137,1837.69762 C1196.44622,1836.99862 1196.3626,1836.3029 1196.23111,1835.61548 C1196.04197,1834.73964 1195.72491,1833.89641 1195.29014,1833.11292 C1194.39895,1831.60974 1193.08219,1830.40446 1191.50625,1829.64936 C1189.93392,1830.40214 1188.623,1831.60846 1187.74238,1833.11292 C1187.30413,1833.89584 1186.98369,1834.7391 1186.7914,1835.61548 C1186.72478,1836.29408 1186.69471,1836.97576 1186.7013,1837.65758 C1186.7013,1837.9679 1186.19078,1838.11805 1185.70027,1837.40732 C1185.20977,1836.69659 1185.10967,1835.61548 1184.46901,1835.40527 C1183.64816,1835.10496 1182.06653,1836.22611 1181.51597,1838.63859 C1181.3878,1839.65828 1181.52932,1840.69376 1181.92639,1841.64167 C1182.20668,1842.29233 1181.26571,1842.12216 1181.00544,1842.00204 C1180.34476,1841.64167 1180.1846,1842.72278 1180.69512,1843.7238 C1181.69615,1845.72586 1183.80833,1846.46662 1185.50007,1847.53772 C1187.4375,1848.9077 1188.88056,1850.86688 1189.6143,1853.12345 C1188.05535,1853.43759 1186.59564,1854.12451 1185.35992,1855.1255 C1184.70877,1853.07653 1183.76108,1851.13395 1182.54703,1849.35959 C1181.91236,1848.41182 1181.21333,1847.50877 1180.45488,1846.65681 C1178.9665,1845.00176 1177.28628,1843.52989 1175.44973,1842.27231 C1172.74458,1840.44108 1169.76863,1839.046 1166.63065,1838.13807 C1164.72697,1837.58095 1162.77716,1837.19567 1160.80465,1836.98689 C1158.61037,1836.72176 1156.39214,1836.72176 1154.19786,1836.98689 L1153.28692,1837.11702 C1153.42177,1836.77001 1153.47652,1836.39703 1153.44708,1836.0259 C1153.11812,1834.35507 1151.53936,1833.23367 1149.85338,1833.47329 C1149.28461,1833.5128 1148.73283,1833.68416 1148.24173,1833.9738 C1146.63719,1834.82681 1145.11862,1835.83248 1143.70706,1836.97688 C1142.01633,1837.9194 1140.07738,1838.32117 1138.15134,1838.12806 C1137.45062,1837.97791 1140.36362,1839.8198 1144.79818,1839.98997 C1143.53967,1840.64604 1142.34641,1841.42032 1141.23452,1842.30235 C1137.45617,1845.18622 1134.88396,1849.37095 1134.01709,1854.04439 C1133.6103,1856.39215 1133.81368,1858.80504 1134.6077,1861.05158 C1134.84031,1861.6959 1135.12141,1862.32166 1135.44856,1862.9235 C1134.74889,1864.02086 1133.91864,1865.02926 1132.97602,1865.92659 C1132.35081,1866.53244 1131.68163,1867.09121 1130.97396,1867.5983 C1130.99422,1867.45554 1130.99422,1867.31062 1130.97396,1867.16786 C1130.72374,1866.04091 1129.64246,1865.30109 1128.50141,1865.47612 C1128.12135,1865.51195 1127.75474,1865.63529 1127.43031,1865.83649 C1126.36531,1866.40252 1125.35932,1867.07318 1124.42722,1867.83855 C1123.29573,1868.48858 1121.99428,1868.78167 1120.69338,1868.67941 C1120.1328,1868.5693 1123.01577,1870.27104 1126.89976,1869.76052 C1124.43318,1870.75466 1121.80111,1871.27428 1119.14178,1871.29209 L1118.91154,1871.29209 C1116.48591,1871.30771 1114.08099,1870.84509 1111.83426,1869.93069 C1112.31008,1869.7767 1112.69928,1869.42983 1112.90681,1868.97481 C1113.11433,1868.51978 1113.12107,1867.99848 1112.92538,1867.53824 C1112.75834,1867.21934 1112.51397,1866.94744 1112.21465,1866.74743 C1111.22757,1866.01861 1110.17145,1865.38829 1109.06141,1864.8655 C1108.05732,1864.22461 1107.33994,1863.22029 1107.05935,1862.06262 C1107.05935,1861.60215 1106.00827,1864.06468 1107.26956,1866.89758 C1106.00191,1865.64686 1105.03642,1864.12332 1104.44666,1862.44301 C1103.96513,1861.07285 1103.78751,1859.61431 1103.92612,1858.16863 C1104.04012,1856.70283 1104.5259,1855.29028 1105.33758,1854.06441 C1107.2126,1851.42119 1110.12548,1849.7026 1113.34582,1849.33957 C1114.17253,1849.23745 1115.00682,1849.21064 1115.83838,1849.25948 L1116.44901,1849.25948 L1117.06965,1849.33957 C1117.45506,1849.40261 1117.83619,1849.48953 1118.21082,1849.59983 C1119.66069,1850.00598 1120.98346,1850.77415 1122.05478,1851.83212 C1123.00928,1852.77739 1123.65793,1853.9875 1123.91669,1855.30569 C1124.16523,1856.51824 1124.00323,1857.77903 1123.45622,1858.88937 C1122.24536,1860.9748 1120.00134,1862.24233 1117.59018,1862.20277 L1117.25984,1862.20277 C1115.20577,1862.3112 1113.30881,1861.1055 1112.53498,1859.19968 C1112.28399,1858.48018 1112.28399,1857.6969 1112.53498,1856.9774 C1112.79694,1856.3645 1113.24525,1855.84966 1113.8163,1855.50589 C1114.45342,1855.1312 1115.17934,1854.93417 1115.91846,1854.93531 C1116.25724,1854.93224 1116.59459,1854.97946 1116.91949,1855.07545 C1117.3972,1855.20946 1117.82303,1855.4852 1118.14075,1855.86626 C1118.72323,1856.50017 1118.78571,1857.45414 1118.29091,1858.15862 C1117.8545,1858.64878 1117.22527,1858.92315 1116.56913,1858.90939 L1116.26882,1858.90939 C1115.72815,1858.82462 1115.24835,1858.51565 1114.94746,1858.05851 L1114.73725,1857.70815 C1114.5971,1857.47792 1114.497,1857.28772 1114.26676,1857.25769 L1114.2067,1857.25769 C1114.0936,1857.26089 1113.98607,1857.30748 1113.90639,1857.38782 C1113.6443,1857.65095 1113.51865,1858.0205 1113.56604,1858.38885 C1113.68253,1859.51377 1114.47753,1860.45186 1115.5681,1860.75128 L1116.10866,1860.91144 C1116.31352,1860.95404 1116.52078,1860.98412 1116.7293,1861.00153 C1117.16395,1861.03082 1117.60053,1861.01067 1118.03064,1860.94147 C1118.95539,1860.77429 1119.80928,1860.33515 1120.48316,1859.68018 C1121.87271,1858.23924 1121.90772,1855.96793 1120.56324,1854.48485 C1119.86216,1853.66564 1118.93092,1853.0762 1117.89049,1852.79311 C1115.92219,1852.24376 1113.8139,1852.54132 1112.07451,1853.61395 C1111.03849,1854.23277 1110.23073,1855.17047 1109.77214,1856.28669 C1109.35117,1857.46136 1109.35117,1858.74576 1109.77214,1859.92042 C1110.25933,1861.28 1111.18113,1862.44105 1112.39484,1863.22381 C1113.07766,1863.67354 1113.82785,1864.01146 1114.61712,1864.22484 C1115.03668,1864.3476 1115.46505,1864.43796 1115.89844,1864.49512 C1116.31934,1864.55969 1116.74402,1864.59647 1117.16975,1864.60523 L1117.41,1864.60523 C1119.1043,1864.60878 1120.77401,1864.19994 1122.27501,1863.41401 C1123.82037,1862.62891 1125.08071,1861.37907 1125.87871,1859.84034 C1127.30935,1856.65163 1126.53008,1852.90471 1123.94673,1850.55081 C1122.54217,1849.20621 1120.82042,1848.23859 1118.94157,1847.73792 C1118.44394,1847.60624 1117.93929,1847.50263 1117.43002,1847.4276 L1117.09968,1847.37755 L1116.83941,1847.37755 L1116.69927,1847.37755 L1115.94849,1847.37755 C1114.94529,1847.32813 1113.93965,1847.37506 1112.9454,1847.5177 C1112.95533,1847.39109 1112.95533,1847.26391 1112.9454,1847.13731 C1112.7274,1846.00847 1111.66067,1845.2503 1110.52291,1845.41554 C1110.13638,1845.43547 1109.76111,1845.55253 1109.43179,1845.75589 C1108.34691,1846.32008 1107.32082,1846.99073 1106.36864,1847.75794 C1105.22355,1848.39696 1103.90886,1848.66619 1102.60476,1848.52873 C1102.14429,1848.43864 1104.02623,1849.62986 1106.90919,1849.78002 C1105.48042,1850.69059 1104.26213,1851.89522 1103.33552,1853.31364 C1102.40322,1854.77076 1101.85879,1856.44197 1101.75389,1858.16863 C1101.6887,1859.10887 1101.73913,1860.05355 1101.90404,1860.98151 C1101.61389,1861.51287 1101.279,1862.01855 1100.90301,1862.49306 C1099.61472,1864.03643 1097.89156,1865.15613 1095.95792,1865.70636 C1094.61688,1866.11488 1093.21167,1866.27101 1091.81366,1866.16683 C1090.29254,1866.07958 1088.81233,1865.641 1087.48921,1864.88552 C1086.20682,1864.143 1085.21227,1862.98975 1084.6663,1861.61216 C1084.1195,1860.22709 1084.19206,1858.67415 1084.86566,1857.34611 C1085.53925,1856.01807 1086.74936,1855.0421 1088.18993,1854.66503 C1089.68133,1854.20452 1091.28751,1854.28607 1092.7246,1854.89527 C1093.91634,1855.39985 1094.75348,1856.49573 1094.92686,1857.77823 C1094.98083,1858.33842 1094.88044,1858.9027 1094.63656,1859.4099 C1094.4129,1859.86894 1094.0664,1860.25702 1093.63553,1860.53105 C1092.76184,1861.07165 1091.70131,1861.22056 1090.71253,1860.94147 C1090.02853,1860.76645 1089.47226,1860.26992 1089.22099,1859.6101 C1089.0835,1859.20773 1089.11603,1858.76669 1089.31108,1858.38885 C1089.59882,1859.37972 1090.53332,1860.04009 1091.5634,1859.98048 C1092.72415,1860.07327 1093.74466,1859.21765 1093.85576,1858.05851 C1093.8334,1857.35379 1093.41489,1856.72216 1092.77465,1856.42684 C1092.58605,1856.28302 1092.38108,1856.16206 1092.16402,1856.06647 L1092.05391,1856.06647 L1091.99384,1856.06647 L1091.86371,1856.06647 L1091.52336,1855.98639 C1090.46351,1855.74369 1089.35054,1855.94244 1088.44019,1856.53695 C1087.98828,1856.83167 1087.61676,1857.23415 1087.35907,1857.70815 C1086.95176,1858.48813 1086.89003,1859.40313 1087.1889,1860.23074 C1087.68273,1861.48619 1088.766,1862.41578 1090.08188,1862.71329 C1091.70081,1863.13986 1093.42432,1862.87136 1094.83677,1861.97253 C1096.26747,1861.07235 1097.04795,1859.42553 1096.83883,1857.74819 C1096.52755,1855.94346 1095.3042,1854.42848 1093.6055,1853.74409 C1091.71232,1852.96312 1089.60081,1852.89202 1087.65938,1853.54388 C1085.84659,1854.0684 1084.33632,1855.32816 1083.4951,1857.01744 Z M1291.80947,1862.76334 C1292.27202,1862.75629 1292.73221,1862.69583 1293.18088,1862.58316 C1293.28331,1862.54919 1293.38359,1862.50908 1293.48119,1862.46303 C1293.48119,1862.46303 1293.48119,1862.46303 1293.41111,1862.52309 C1293.27272,1862.67525 1293.15799,1862.84735 1293.07076,1863.03362 L1293.0107,1863.12371 L1293.0107,1863.23382 L1292.9106,1863.52412 C1292.72693,1864.30381 1292.8795,1865.1248 1293.33103,1865.78644 C1292.78455,1865.91952 1292.22922,1866.01319 1291.66932,1866.06673 C1291.30061,1864.98692 1291.35062,1863.80804 1291.80947,1862.76334 Z M1296.40419,1860.95148 C1296.84865,1861.13219 1297.23602,1861.42964 1297.52535,1861.81236 C1297.70902,1862.08535 1297.83819,1862.39127 1297.90574,1862.71329 C1297.61732,1863.14629 1297.28157,1863.54583 1296.90471,1863.90451 C1296.93861,1863.78328 1296.96205,1863.65937 1296.97478,1863.53413 C1296.96378,1862.47657 1296.1004,1861.62661 1295.04279,1861.63218 C1295.04279,1861.63218 1294.97272,1861.63218 1294.94269,1861.63218 C1295.22922,1861.3979 1295.48188,1861.12502 1295.69346,1860.82135 C1295.93713,1860.843 1296.17835,1860.88655 1296.41421,1860.95148 L1296.40419,1860.95148 Z M1297.40522,1864.95559 C1297.26565,1865.09042 1297.10287,1865.19894 1296.92473,1865.27592 C1297.12494,1865.18583 1297.29511,1865.09573 1297.44527,1864.97561 L1297.40522,1864.95559 Z M1290.4781,1854.86524 C1291.04151,1854.641 1291.6354,1854.50265 1292.23991,1854.45481 C1293.17683,1854.7609 1294.14904,1854.94592 1295.13289,1855.00538 C1295.36312,1855.00538 1295.58335,1855.00538 1295.81359,1855.00538 C1296.93185,1855.49644 1297.8423,1856.36438 1298.38623,1857.4579 C1298.82877,1858.48307 1298.93393,1859.62238 1298.68654,1860.71123 C1298.21773,1860.15074 1297.61031,1859.72279 1296.92473,1859.46996 C1296.69236,1859.39571 1296.4548,1859.33883 1296.214,1859.29979 C1296.25622,1858.71222 1296.13862,1858.12417 1295.87365,1857.59804 C1295.61879,1857.12202 1295.24668,1856.7189 1294.79254,1856.42684 C1293.88219,1855.83233 1292.76921,1855.63358 1291.70936,1855.87627 L1291.36901,1855.95636 L1291.23888,1855.95636 L1291.17882,1855.95636 L1291.05869,1855.95636 C1290.84576,1856.05387 1290.64432,1856.17474 1290.45808,1856.31673 C1289.81783,1856.61205 1289.39932,1857.24368 1289.37696,1857.9484 C1289.49316,1859.10904 1290.5166,1859.96338 1291.67933,1859.87037 C1292.70686,1859.92896 1293.63794,1859.26806 1293.92164,1858.27874 C1294.04365,1858.56233 1294.08854,1858.87313 1294.05177,1859.17966 C1292.9121,1859.42117 1291.88639,1860.03801 1291.13878,1860.93146 C1290.59462,1860.88697 1290.06922,1860.71184 1289.6072,1860.42094 C1289.17734,1860.14571 1288.83113,1859.75795 1288.60617,1859.29979 C1288.3623,1858.79258 1288.2619,1858.2283 1288.31587,1857.66811 C1288.52532,1856.42472 1289.35616,1855.37484 1290.51814,1854.88526 L1290.4781,1854.86524 Z M1291.92959,1866.87756 C1292.57779,1866.82797 1293.2207,1866.72416 1293.85157,1866.56724 C1294.76114,1867.28861 1295.97296,1867.50312 1297.07488,1867.13783 C1298.25172,1866.80191 1299.18312,1865.90056 1299.55744,1864.73536 C1299.79311,1863.94847 1299.79311,1863.10978 1299.55744,1862.32289 C1299.62751,1862.18274 1299.7176,1862.05261 1299.77767,1861.92248 C1300.4378,1860.34368 1300.4378,1858.56621 1299.77767,1856.98741 C1299.46832,1856.28051 1299.0188,1855.6437 1298.45631,1855.11549 C1298.80049,1855.29764 1299.13465,1855.49814 1299.45734,1855.71611 C1300.9382,1856.71388 1302.06626,1858.15372 1302.68065,1859.83033 C1303.07409,1860.93306 1303.22766,1862.10704 1303.13112,1863.27386 C1303.03312,1864.5648 1302.59064,1865.80582 1301.8498,1866.86755 C1301.03711,1867.98469 1299.88558,1868.80972 1298.56642,1869.21997 C1297.20477,1869.63266 1295.74529,1869.58694 1294.41214,1869.08983 C1293.37066,1868.66588 1292.50776,1867.89493 1291.96963,1866.90759 L1291.92959,1866.87756 Z" id="path-2"></path>
        <filter x="-3.1%" y="-2.7%" width="106.2%" height="107.7%" filterUnits="objectBoundingBox" id="filter-3">
            <feOffset dx="0" dy="2" in="SourceAlpha" result="shadowOffsetOuter1"></feOffset>
            <feGaussianBlur stdDeviation="2" in="shadowOffsetOuter1" result="shadowBlurOuter1"></feGaussianBlur>
            <feColorMatrix values="0 0 0 0 0   0 0 0 0 0   0 0 0 0 0  0 0 0 0.5 0" type="matrix" in="shadowBlurOuter1"></feColorMatrix>
        </filter>
    </defs>
    <g id="Page-1" stroke="none" stroke-width="1" fill="none" fill-rule="evenodd">
        <g id="Artboard-Copy-2" transform="translate(-1079.000000, -1688.000000)" fill-rule="nonzero">
            <g id="Shape-Copy" transform="translate(1196.500000, 1781.500000) rotate(-360.000000) translate(-1196.500000, -1781.500000) ">
                <use fill="black" fill-opacity="1" filter="url(#filter-3)" xlink:href="#path-2"></use>
                <use fill="url(#linearGradient-1)" xlink:href="#path-2"></use>
            </g>
        </g>
    </g>
</svg>