<?xml version="1.0" encoding="UTF-8"?>
<svg width="31px" height="30px" viewBox="0 0 31 30" version="1.1" xmlns="http://www.w3.org/2000/svg" xmlns:xlink="http://www.w3.org/1999/xlink">
    <!-- Generator: Sketch 51.3 (57544) - http://www.bohemiancoding.com/sketch -->
    <title>noun_Taco_449257</title>
    <desc>Created with Sketch.</desc>
    <defs></defs>
    <g id="Mobile" stroke="none" stroke-width="1" fill="none" fill-rule="evenodd">
        <g id="HomeRegistrado-Copy-9" transform="translate(-256.000000, -650.000000)" fill="#404040" fill-rule="nonzero">
            <g id="noun_Taco_449257" transform="translate(256.000000, 650.000000)">
                <path d="M29.6864407,3.52424988 C25.2641243,-0.555917089 18.7838983,-1.14527454 13.529661,2.02818866 C12.1723164,1.66550715 10.6836158,2.11885904 9.72033898,3.11623318 C9.06355932,3.79626101 8.66949153,4.61229441 8.5819209,5.56433337 C8.31920904,5.70033893 8.10028249,5.8363445 7.92514124,6.01768525 C7.13700565,6.06302044 6.30508475,6.42570195 5.73587571,7.0150594 C5.16666667,7.60441685 4.81638418,8.37511506 4.77259887,9.19114845 C4.42231638,9.37248921 4.0720339,9.64450034 3.76553672,9.96184666 C3.41525424,10.3245282 3.15254237,10.7325449 2.88983051,11.2765671 C2.53954802,11.4125727 2.14548023,11.5939134 1.79519774,11.956595 C1.05084746,12.7272932 0.831920904,13.8153377 1.18220339,14.7673766 C0.437853107,15.5380748 0,16.5807842 0,17.7141639 C0,18.8475436 0.437853107,19.890253 1.18220339,20.6609512 C1.44491525,20.9329623 1.79519774,21.2049734 2.10169492,21.3863142 C2.49576271,24.1517607 3.59039548,26.6905312 5.34180791,28.7306147 C5.95480226,29.5013129 6.9180791,29.9546648 7.92514124,30 L8.01271186,30 C8.9759887,30 9.89548023,29.5919833 10.5522599,28.9119555 L29.9491525,8.91913732 C30.6497175,8.1937743 31,7.24173534 31,6.15369082 C30.9562147,5.24698705 30.5183616,4.34028328 29.6864407,3.52424988 Z M6.08615819,9.0098077 C6.17372881,8.601791 6.34887006,8.28444468 6.65536723,7.96709836 C6.96186441,7.64975204 7.39971751,7.4230761 7.92514124,7.37774091 C7.31214689,7.83109279 6.69915254,8.37511506 6.17372881,8.91913732 C6.1299435,8.96447251 6.08615819,9.0098077 6.08615819,9.0098077 Z M7.18079096,9.91651147 C9.54519774,7.46841129 12.7415254,5.97235006 15.9816384,5.79100931 C16.200565,5.79100931 16.4194915,5.79100931 16.6384181,5.79100931 C19.7033898,5.79100931 22.5056497,6.92438902 24.5635593,9.05514289 C25.220339,9.73517071 26.0522599,10.1431874 26.9279661,10.1885226 L9.63276836,27.9599165 C9.19491525,28.4132684 8.5819209,28.6852795 7.96892655,28.6852795 C7.3559322,28.6852795 6.78672316,28.4132684 6.34887006,27.9145813 C2.01412429,22.791705 2.36440678,14.858047 7.18079096,9.91651147 Z M16.5070621,4.43095365 C16.2881356,4.43095365 16.0254237,4.43095365 15.8064972,4.43095365 C13.7485876,4.56695922 11.690678,5.15631667 9.85169492,6.15369082 C9.85169492,6.10835563 9.85169492,6.10835563 9.85169492,6.06302044 C9.85169492,5.29232224 10.1144068,4.6576296 10.6836158,4.11360733 C11.7344633,3.02556281 13.4420904,3.02556281 14.4929379,4.06827214 C14.6242938,4.20427771 14.8432203,4.29494809 15.0183616,4.20427771 C15.1935028,4.20427771 15.3686441,4.06827214 15.4562147,3.93226658 L15.5875706,3.79626101 C16.069209,3.29757394 16.9449153,3.25223875 17.470339,3.75092582 C17.5141243,3.79626101 17.5141243,3.8415962 17.5579096,3.88693139 C17.7768362,4.11360733 18.1271186,4.11360733 18.3898305,3.93226658 C19.2655367,3.29757394 20.4915254,3.29757394 21.279661,3.97760177 C21.3234463,4.02293696 21.3672316,4.06827214 21.3672316,4.06827214 C21.4548023,4.15894252 21.5423729,4.2496129 21.6299435,4.38561846 C21.8050847,4.6576296 22.1553672,4.74829997 22.4180791,4.56695922 C23.1186441,4.20427771 23.9943503,4.34028328 24.519774,4.92964073 C24.6073446,5.0203111 24.6949153,5.11098148 24.7387006,5.24698705 C24.8262712,5.4283278 25.0451977,5.56433337 25.1765537,5.56433337 C25.2641243,5.56433337 25.4392655,5.56433337 25.6144068,5.51899818 L25.6581921,5.47366299 C26.4463277,4.92964073 27.4533898,5.06564629 28.1539548,5.74567412 C28.8107345,6.42570195 28.8983051,7.51374647 28.4166667,8.32977987 C28.0225989,8.601791 27.5409605,8.78313175 27.1031073,8.78313175 C26.4463277,8.78313175 25.789548,8.51112062 25.3954802,8.01243355 C23.0748588,5.70033893 19.9661017,4.43095365 16.5070621,4.43095365 Z M25.5706215,4.06827214 C25.5268362,4.02293696 25.5268362,4.02293696 25.4830508,3.97760177 C24.6949153,3.16156837 23.4689266,2.84422205 22.3742938,3.16156837 C22.2867232,3.070898 22.1553672,2.98022762 22.0677966,2.93489243 C20.8855932,1.93751828 19.2655367,1.80151272 17.9957627,2.52687573 C17.5579096,2.2548646 17.0762712,2.07352385 16.5946328,2.07352385 C20.7980226,0.668133002 25.2641243,1.4841664 28.5918079,4.34028328 C28.0663842,4.02293696 27.4533898,3.8415962 26.8403955,3.8415962 C26.4025424,3.8415962 26.0084746,3.88693139 25.5706215,4.06827214 Z M2.53954802,15.3113989 C2.14548023,16.7167898 1.97033898,18.1675158 2.01412429,19.6182418 C1.57627119,19.1195547 1.35734463,18.4395269 1.35734463,17.7594991 C1.35734463,16.9888009 1.6200565,16.3087731 2.14548023,15.7647508 L2.36440678,15.4927397 C2.4519774,15.4927397 2.49576271,15.4020693 2.53954802,15.3113989 Z M2.75847458,12.9539691 C2.97740113,12.7272932 3.24011299,12.5912876 3.54661017,12.5459524 C3.59039548,12.5459524 3.63418079,12.5006172 3.6779661,12.5006172 C3.28389831,13.3166506 2.93361582,14.1780192 2.67090395,15.0393878 C2.67090395,14.9033822 2.67090395,14.7673766 2.58333333,14.6313711 C2.23305085,14.0873488 2.32062147,13.407321 2.75847458,12.9539691 Z M1.97033898,19.9355881 C2.01412429,19.9355881 2.01412429,19.9355881 1.97033898,19.9355881 Z" id="Shape"></path>
            </g>
        </g>
    </g>
</svg>