<?xml version="1.0" encoding="UTF-8"?>
<svg width="52px" height="49px" viewBox="0 0 52 49" version="1.1" xmlns="http://www.w3.org/2000/svg" xmlns:xlink="http://www.w3.org/1999/xlink">
    <!-- Generator: Sketch 51.3 (57544) - http://www.bohemiancoding.com/sketch -->
    <title>cafecito</title>
    <desc>Created with Sketch.</desc>
    <defs></defs>
    <g id="Mobile" stroke="none" stroke-width="1" fill="none" fill-rule="evenodd">
        <g id="HomeRegistrado-Copy-9" transform="translate(-77.000000, -543.000000)" fill-rule="nonzero">
            <g id="cafecito" transform="translate(77.000000, 543.000000)">
                <path d="M33.2103974,49 L11.0107508,49 C10.4549938,49 10.0042618,48.5485096 10.0042618,47.9918177 L10.0042618,45.4319112 C7.91689109,44.0423729 6.12271504,42.1487434 4.66111796,39.7948568 C3.35705829,37.6952075 2.3068089,35.2098188 1.53662601,32.4044418 C0.16692575,27.4117475 -0.0124918558,22.5067212 0.00063626168,20.025716 C0.00501230084,19.469024 0.455744334,19.021917 1.00712527,19.021917 C1.00712527,19.021917 1.01150131,19.021917 1.01150131,19.021917 C1.56725828,19.0263004 2.01361427,19.4777908 2.01361427,20.0344828 C2.00048616,22.4102864 2.17115168,27.1092928 3.47958739,31.8652835 C5.05496149,37.5987726 7.76810576,41.6884863 11.5446276,44.0160725 C11.8421982,44.2001753 12.0216158,44.524547 12.0216158,44.8752192 L12.0216158,46.9748685 L32.2082844,46.9748685 L32.2082844,44.8971362 C32.2082844,44.5508475 32.3877021,44.2264757 32.6852727,44.0423729 C36.4442903,41.7016365 39.1180503,37.603156 40.6321598,31.8609001 C41.8049383,27.4117475 42.0149882,22.962595 41.9843559,20.0169492 C41.9799799,19.4602572 42.4263359,19.0043834 42.9820928,19 C42.9864689,19 42.9908449,19 42.9908449,19 C43.5422259,19 43.9929579,19.4427236 43.9973339,19.9994155 C44.0279662,23.07218 43.8091642,27.7142022 42.5794972,32.3781414 C40.990995,38.3965517 38.1815779,42.78872 34.2256385,45.4494448 L34.2256385,47.9874342 C34.2168864,48.5485096 33.7661544,49 33.2103974,49 Z" id="Shape" fill="#404040"></path>
                <path d="M42.9979115,21 L1.00646445,21 C0.450721034,21 0,20.5521739 0,20 C0,19.4478261 0.450721034,19 1.00646445,19 L42.9935356,19 C43.549279,19 44,19.4478261 44,20 C44,20.5521739 43.5536549,21 42.9979115,21 Z" id="Shape" fill="#404040"></path>
                <path d="M43.5896631,37 C43.0509431,37 42.4863646,36.9726206 41.9002373,36.9132986 C41.3572075,36.8585398 40.9563999,36.3474576 41.0038072,35.7724902 C41.0555243,35.1975228 41.5382174,34.7731421 42.0812472,34.8233377 C45.3351159,35.1473272 47.6106691,34.4765319 48.8432604,32.8292047 C49.9853467,31.3050847 50.0930907,29.1375489 49.981037,27.5860495 C49.9077711,26.5730117 49.7353807,25.6831812 49.5974683,25.0990874 L43.6327607,25.0990874 C43.0854212,25.0990874 42.641516,24.6290743 42.641516,24.0495437 C42.641516,23.470013 43.0854212,23 43.6327607,23 L50.3516763,23 C50.7783425,23 51.1576014,23.2874837 51.291204,23.7164276 C51.3730894,23.9810952 53.3124813,30.2418514 50.4033934,34.1297262 C48.9768629,36.0371578 46.6883804,37 43.5896631,37 Z" id="Shape" fill="#EA2229"></path>
                <path d="M13.0034823,18 C12.8309564,18 12.6541173,17.9556401 12.4945308,17.8580482 C12.0243976,17.5697085 11.8691243,16.9442332 12.1494789,16.4607098 C12.1537921,16.4562738 12.6541173,15.5690748 12.8956536,14.4157161 C13.1846346,13.0139417 12.9689772,11.869455 12.2486813,11.004436 C11.0970707,9.62040558 10.7347662,7.95690748 11.1919599,6.19581749 C11.5197592,4.94486692 12.1494789,4.09315589 12.2184893,4 L13.7798491,5.25982256 L13.7841622,5.25538657 C13.7798491,5.25982256 13.3097159,5.89860583 13.0940585,6.78580482 C12.8266433,7.87705957 13.0423007,8.82192649 13.7539702,9.67807351 C14.8926414,11.0487959 15.2592591,12.8542459 14.8193179,14.9081115 C14.5044581,16.3719899 13.8790515,17.4632446 13.8531726,17.5076046 C13.6677072,17.8181242 13.3399079,18 13.0034823,18 Z" id="Shape" fill="#EA2229"></path>
                <path d="M20.0034823,14 C19.8309564,14 19.6541173,13.9556401 19.4945308,13.8580482 C19.0243976,13.5697085 18.8691243,12.9442332 19.1494789,12.4607098 C19.1537921,12.4562738 19.6541173,11.5690748 19.8956536,10.4157161 C20.1846346,9.0139417 19.9689772,7.86945501 19.2486813,7.00443599 C18.0970707,5.62040558 17.7347662,3.95690748 18.1919599,2.19581749 C18.5197592,0.94486692 19.1494789,0.0931558935 19.2184893,0 L20.7798491,1.25982256 L20.7841622,1.25538657 C20.7798491,1.25982256 20.3097159,1.89860583 20.0940585,2.78580482 C19.8266433,3.87705957 20.0423007,4.82192649 20.7539702,5.67807351 C21.8926414,7.04879594 22.2592591,8.85424588 21.8193179,10.9081115 C21.5044581,12.3719899 20.8790515,13.4632446 20.8531726,13.5076046 C20.6720204,13.8225602 20.3442211,14 20.0034823,14 Z" id="Shape" fill="#EA2229"></path>
                <path d="M30.0034823,18 C29.8309564,18 29.6541173,17.9556401 29.4945308,17.8580482 C29.0243976,17.5697085 28.8691243,16.9442332 29.1494789,16.4607098 C29.1537921,16.4562738 29.6541173,15.5690748 29.8956536,14.4157161 C30.1846346,13.0139417 29.9689772,11.869455 29.2486813,11.004436 C28.0970707,9.62040558 27.7347662,7.95690748 28.1919599,6.19581749 C28.5197592,4.94486692 29.1494789,4.09315589 29.2184893,4 L30.7798491,5.25982256 L30.7841622,5.25538657 C30.7798491,5.25982256 30.3097159,5.89860583 30.0940585,6.78580482 C29.8266433,7.87705957 30.0423007,8.82192649 30.7539702,9.67807351 C31.8926414,11.0487959 32.2592591,12.8542459 31.8193179,14.9081115 C31.5044581,16.3719899 30.8790515,17.4632446 30.8531726,17.5076046 C30.6720204,17.8181242 30.3399079,18 30.0034823,18 Z" id="Shape" fill="#EA2229"></path>
                <path d="M42.9967141,48 L1.00766703,48 C0.451259584,48 0,47.5521739 0,47 C0,46.4478261 0.451259584,46 1.00766703,46 L42.992333,46 C43.5487404,46 44,46.4478261 44,47 C44,47.5521739 43.5531216,48 42.9967141,48 Z" id="Shape" fill="#404040"></path>
            </g>
        </g>
    </g>
</svg>