<?xml version="1.0" encoding="UTF-8"?>
<svg width="87px" height="68px" viewBox="0 0 87 68" version="1.1" xmlns="http://www.w3.org/2000/svg" xmlns:xlink="http://www.w3.org/1999/xlink">
    <!-- Generator: Sketch 51.3 (57544) - http://www.bohemiancoding.com/sketch -->
    <title>noun_week_887150</title>
    <desc>Created with Sketch.</desc>
    <defs></defs>
    <g id="Mobile" stroke="none" stroke-width="1" fill="none" fill-rule="evenodd">
        <g id="noun_week_887150" fill="#404040" fill-rule="nonzero">
            <g id="Group">
                <path d="M21.4856771,0.0145650039 C20.2406198,0.151576283 19.3063944,1.21841263 19.3333333,2.47242841 L19.3333333,6.1025036 L7.25,6.1025036 C3.2753035,6.1025036 0,9.38239754 0,13.362654 L0,60.5536314 C0,64.5338879 3.2753035,67.8137818 7.25,67.8137818 L79.75,67.8137818 C83.7246965,67.8137818 87,64.5338879 87,60.5536314 L87,13.362654 C87,9.38239754 83.7246965,6.1025036 79.75,6.1025036 L67.6666667,6.1025036 L67.6666667,2.47242841 C67.6816591,1.77546323 67.3958177,1.10587056 66.8823461,0.635132805 C66.3688745,0.164395054 65.6776435,-0.0617676025 64.9856771,0.0145650039 C63.7406198,0.151576283 62.8063944,1.21841263 62.8333333,2.47242841 L62.8333333,6.1025036 L24.1666667,6.1025036 L24.1666667,2.47242841 C24.1816591,1.77546323 23.8958177,1.10587056 23.3823461,0.635132805 C22.8688745,0.164395054 22.1776435,-0.0617676025 21.4856771,0.0145650039 Z M7.25,10.9426039 L19.3333333,10.9426039 L19.3333333,14.572679 C19.3210076,15.445436 19.778907,16.2572308 20.5316927,16.6972113 C21.2844785,17.1371918 22.2155215,17.1371918 22.9683073,16.6972113 C23.721093,16.2572308 24.1789924,15.445436 24.1666667,14.572679 L24.1666667,10.9426039 L62.8333333,10.9426039 L62.8333333,14.572679 C62.8210076,15.445436 63.278907,16.2572308 64.0316927,16.6972113 C64.7844785,17.1371918 65.7155215,17.1371918 66.4683073,16.6972113 C67.221093,16.2572308 67.6789924,15.445436 67.6666667,14.572679 L67.6666667,10.9426039 L79.75,10.9426039 C81.1306332,10.9426039 82.1666667,11.9800914 82.1666667,13.362654 L82.1666667,20.6228044 L4.83333333,20.6228044 L4.83333333,13.362654 C4.83333333,11.9800914 5.86936679,10.9426039 7.25,10.9426039 Z M4.83333333,25.4629046 L82.1666667,25.4629046 L82.1666667,60.5536314 C82.1666667,61.9362061 81.1306332,62.9736815 79.75,62.9736815 L7.25,62.9736815 C5.86936679,62.9736815 4.83333333,61.9362061 4.83333333,60.5536314 L4.83333333,25.4629046 Z M29,32.723055 C26.99175,32.723055 25.375,34.3420685 25.375,36.3531302 C25.375,38.3641918 26.99175,39.9832054 29,39.9832054 C31.00825,39.9832054 32.625,38.3641918 32.625,36.3531302 C32.625,34.3420685 31.00825,32.723055 29,32.723055 Z M43.5,32.723055 C41.49175,32.723055 39.875,34.3420685 39.875,36.3531302 C39.875,38.3641918 41.49175,39.9832054 43.5,39.9832054 C45.50825,39.9832054 47.125,38.3641918 47.125,36.3531302 C47.125,34.3420685 45.50825,32.723055 43.5,32.723055 Z M58,32.723055 C55.99175,32.723055 54.375,34.3420685 54.375,36.3531302 C54.375,38.3641918 55.99175,39.9832054 58,39.9832054 C60.00825,39.9832054 61.625,38.3641918 61.625,36.3531302 C61.625,34.3420685 60.00825,32.723055 58,32.723055 Z M72.5,32.723055 C70.49175,32.723055 68.875,34.3420685 68.875,36.3531302 C68.875,38.3641918 70.49175,39.9832054 72.5,39.9832054 C74.50825,39.9832054 76.125,38.3641918 76.125,36.3531302 C76.125,34.3420685 74.50825,32.723055 72.5,32.723055 Z M14.5,48.4533808 C12.49175,48.4533808 10.875,50.0723943 10.875,52.083456 C10.875,54.0945176 12.49175,55.7135312 14.5,55.7135312 C16.50825,55.7135312 18.125,54.0945176 18.125,52.083456 C18.125,50.0723943 16.50825,48.4533808 14.5,48.4533808 Z M29,48.4533808 C26.99175,48.4533808 25.375,50.0723943 25.375,52.083456 C25.375,54.0945176 26.99175,55.7135312 29,55.7135312 C31.00825,55.7135312 32.625,54.0945176 32.625,52.083456 C32.625,50.0723943 31.00825,48.4533808 29,48.4533808 Z M43.5,48.4533808 C41.49175,48.4533808 39.875,50.0723943 39.875,52.083456 C39.875,54.0945176 41.49175,55.7135312 43.5,55.7135312 C45.50825,55.7135312 47.125,54.0945176 47.125,52.083456 C47.125,50.0723943 45.50825,48.4533808 43.5,48.4533808 Z M58,48.4533808 C55.99175,48.4533808 54.375,50.0723943 54.375,52.083456 C54.375,54.0945176 55.99175,55.7135312 58,55.7135312 C60.00825,55.7135312 61.625,54.0945176 61.625,52.083456 C61.625,50.0723943 60.00825,48.4533808 58,48.4533808 Z" id="Shape"></path>
            </g>
        </g>
    </g>
</svg>