<?xml version="1.0" encoding="UTF-8"?>
<svg width="32px" height="33px" viewBox="0 0 32 33" version="1.1" xmlns="http://www.w3.org/2000/svg" xmlns:xlink="http://www.w3.org/1999/xlink">
    <!-- Generator: Sketch 51.3 (57544) - http://www.bohemiancoding.com/sketch -->
    <title>Huevos al gusto</title>
    <desc>Created with Sketch.</desc>
    <defs></defs>
    <g id="Mobile" stroke="none" stroke-width="1" fill="none" fill-rule="evenodd">
        <g id="HomeRegistrado-Copy-9" transform="translate(-174.000000, -648.000000)" fill="#404040" fill-rule="nonzero">
            <g id="Huevos-al-gusto" transform="translate(174.000000, 648.000000)">
                <path d="M14.6117273,33 C14.2750704,33 13.9447655,32.9648995 13.6112845,32.8915077 C10.0382746,32.1033429 8.39945403,28.4943779 8.32958184,28.3412123 C8.3168778,28.3124937 8.30417377,28.2805842 8.29464574,28.2486747 C8.29146973,28.2391018 8.04691705,27.4062638 7.7070841,26.5159886 C7.12269848,25.0002871 6.78286553,24.6875739 6.73204939,24.6460916 C6.6653532,24.617373 6.56689693,24.5758907 6.45573662,24.5312174 C5.02018062,23.9504644 0.649992453,22.1794868 0.116422967,18.4620295 C-0.134481732,16.7165796 0.0211427015,15.1913052 0.57376824,13.9213069 C0.983473381,12.9895494 1.61232313,12.1918117 2.44761346,11.5536216 C2.59370987,11.4419384 2.75568632,11.3270642 2.92401479,11.2026171 C4.07055398,10.3761609 5.63632634,9.24337348 5.92534314,7.146919 C6.28105613,4.57820384 7.07505834,1.98396108 10.4575078,0.410822477 C10.4860918,0.398058675 10.5178519,0.385294873 10.549612,0.375722021 C10.6925324,0.331048714 14.0718058,-0.686864498 16.1965557,0.828836993 C16.5617968,1.09049493 16.8730456,1.32024337 17.1493584,1.5244642 C18.2577855,2.34453848 18.6706666,2.65406068 19.6996935,2.81041726 C20.2110309,2.88700007 21.0399692,2.80403536 21.9165477,2.71149779 C23.3648077,2.56471407 25.0036283,2.39559369 26.1882796,2.85828152 C27.0426259,3.19014037 28.0335407,3.63049154 28.9037671,4.3676011 C29.8819779,5.19724824 30.5584677,6.26302571 30.9713489,7.62556157 C31.6224307,9.78264411 30.9427648,11.6716868 30.4949476,12.9225394 C30.3456751,13.337363 30.2027547,13.7298499 30.1836987,13.9500255 C30.0757144,15.1370591 30.7077402,16.4517307 31.2159016,17.5079353 C31.4286942,17.9514774 31.6319587,18.3726829 31.7621751,18.7460241 C32.0257838,19.5022794 32.073424,20.6478306 31.8892154,21.8125275 C31.736767,22.7666217 31.36835,24.1387304 30.4631875,25.2523722 C29.4818007,26.4617424 28.6433344,27.195661 27.7445239,27.6296303 C26.8393614,28.0667905 25.8357426,28.2167652 24.4922908,28.1178457 C22.2055645,27.9487253 21.7799793,28.1593281 21.0558493,28.8485734 C20.9256329,28.9730205 20.7414244,29.1772413 20.5286318,29.4165626 C19.9156621,30.096235 18.9914435,31.1205302 17.8607844,31.8927402 C16.7714133,32.6298497 15.6820423,33 14.6117273,33 Z M9.68256161,27.779605 C9.85089007,28.1306095 11.25151,30.8684451 13.9257094,31.45558 C14.9229762,31.6757555 15.942475,31.4172885 17.0413741,30.6706061 C18.0291128,30.0005065 18.8485231,29.0910856 19.4456128,28.4273679 C19.6774614,28.1689009 19.880726,27.9455344 20.0522305,27.7827959 C20.6715522,27.1924701 21.1987697,26.8861388 21.8752596,26.7265913 C22.5136373,26.5766166 23.2758795,26.55428 24.6002751,26.6531994 C25.6896462,26.7329732 26.4423603,26.6276718 27.1124981,26.3053858 C27.8080441,25.970336 28.490886,25.3608645 29.3293523,24.3269965 C29.8756258,23.653706 30.2694509,22.6804661 30.4441314,21.5827791 C30.6188119,20.4819012 30.5203556,19.6299174 30.3806112,19.2342395 C30.278979,18.9406721 30.0947704,18.557758 29.8978579,18.1525073 C29.3102963,16.9335642 28.5798142,15.4146718 28.7259106,13.8191965 C28.7640227,13.4139458 28.9259992,12.9576399 29.1165597,12.4279421 C29.5230889,11.2951547 30.0820664,9.74435271 29.570729,8.05633989 C28.840247,5.64717226 27.2395385,4.84305273 25.6578861,4.23039023 C24.8003637,3.89534043 23.3457517,4.0453151 22.0626441,4.17614407 C21.0907854,4.27506354 20.1729188,4.37079206 19.4805489,4.26549069 C18.095809,4.05488796 17.4510792,3.57624538 16.282308,2.71149779 C16.0123472,2.51046791 15.7074504,2.28391042 15.3517374,2.03182533 C14.5704392,1.473409 13.4397801,1.43192664 12.6298978,1.4925547 C11.8327196,1.55318276 11.1943418,1.72230313 11.0228373,1.77016739 C8.4597982,2.97953763 7.72614016,4.80476132 7.37360318,7.35113983 C7.20845072,8.54455532 6.70346531,9.63586039 5.874527,10.5899546 C5.18533308,11.3813103 4.40403491,11.9461086 3.77518516,12.3992235 C3.6132087,12.5172887 3.46076028,12.625781 3.33054392,12.7247005 C2.68899013,13.2161069 2.22529284,13.8000508 1.91086796,14.5180147 C1.46940273,15.529546 1.35189041,16.7899714 1.56150699,18.2578087 C1.97438814,21.139237 5.75701467,22.6708932 7.00201014,23.1750634 C7.13857852,23.2325005 7.24973883,23.2739829 7.33549107,23.3122743 C7.72296415,23.4813946 8.26288565,23.9281277 9.03147979,25.8905623 C9.36813673,26.7521189 9.61586542,27.5626203 9.68256161,27.779605 Z" id="Shape"></path>
                <path d="M16,23 C14.1296296,23 12.3734568,22.2716049 11.0493827,20.9506173 C9.72530864,19.6296296 9,17.8703704 9,16 C9,14.1296296 9.72839506,12.3734568 11.0493827,11.0493827 C12.3703704,9.72530864 14.1296296,9 16,9 C17.8703704,9 19.6265432,9.72839506 20.9506173,11.0493827 C22.2746914,12.3703704 23,14.1296296 23,16 C23,17.8703704 22.2716049,19.6296296 20.9506173,20.9506173 C19.6296296,22.2716049 17.8703704,23 16,23 Z M16,10.4228395 C12.9228395,10.4228395 10.4197531,12.9259259 10.4197531,16.0030864 C10.4197531,19.0802469 12.9228395,21.5833333 16,21.5833333 C19.0771605,21.5833333 21.5802469,19.0771605 21.5802469,16.0030864 C21.5802469,12.9290123 19.0771605,10.4228395 16,10.4228395 Z" id="Shape"></path>
            </g>
        </g>
    </g>
</svg>