<?xml version="1.0" encoding="UTF-8"?>
<svg width="36px" height="29px" viewBox="0 0 36 29" version="1.1" xmlns="http://www.w3.org/2000/svg" xmlns:xlink="http://www.w3.org/1999/xlink">
    <!-- Generator: Sketch 51.3 (57544) - http://www.bohemiancoding.com/sketch -->
    <title>homeIcono</title>
    <desc>Created with Sketch.</desc>
    <defs></defs>
    <g id="Mobile" stroke="none" stroke-width="1" fill="none" fill-rule="evenodd">
        <g id="HomeRegistrado-Copy-9" transform="translate(-29.000000, -649.000000)" fill="#4A4A4A" fill-rule="nonzero">
            <g id="Group-3" transform="translate(0.000000, 639.000000)">
                <g id="Navbar-Copy">
                    <g id="homeIcono" transform="translate(29.000000, 10.000000)">
                        <path d="M1.56558372,14.8888393 C1.28866994,15.1172886 0.878992273,15.0780003 0.650543038,14.8010865 C0.422093804,14.5241727 0.461382079,14.1144951 0.738295856,13.8860458 L17.3587533,0.174446433 C17.5989251,-0.023691236 17.9458695,-0.023691236 18.1860412,0.174446433 L34.8064987,13.8860458 C35.0834125,14.1144951 35.1227008,14.5241727 34.8942515,14.8010865 C34.6658023,15.0780003 34.2561246,15.1172886 33.9792108,14.8888393 L17.7723973,1.51848925 L1.56558372,14.8888393 Z" id="Path-6"></path>
                        <path d="M15.2403754,27.3756166 C15.2403754,27.7346017 14.9493605,28.0256166 14.5903754,28.0256166 L4.99301976,28.0256166 C4.63403467,28.0256166 4.34301976,27.7346017 4.34301976,27.3756166 L4.34301976,11.2332521 C4.34301976,10.874267 4.63403467,10.5832521 4.99301976,10.5832521 C5.35200485,10.5832521 5.64301976,10.874267 5.64301976,11.2332521 L5.64301976,26.7256166 L13.9403754,26.7256166 L13.9403754,19.3044344 C13.9403754,18.9454493 14.2313903,18.6544344 14.5903754,18.6544344 L20.4828531,18.6544344 C20.8418382,18.6544344 21.1328531,18.9454493 21.1328531,19.3044344 L21.1328531,26.7256166 L29.3323608,26.7256166 L29.3323608,11.2332521 C29.3323608,10.874267 29.6233757,10.5832521 29.9823608,10.5832521 C30.3413459,10.5832521 30.6323608,10.874267 30.6323608,11.2332521 L30.6323608,27.3756166 C30.6323608,27.7346017 30.3413459,28.0256166 29.9823608,28.0256166 L20.4828531,28.0256166 C20.123868,28.0256166 19.8328531,27.7346017 19.8328531,27.3756166 L19.8328531,19.9544344 L15.2403754,19.9544344 L15.2403754,27.3756166 Z" id="Path-7"></path>
                    </g>
                </g>
            </g>
        </g>
    </g>
</svg>