<?xml version="1.0" encoding="UTF-8"?>
<svg width="56px" height="36px" viewBox="0 0 56 36" version="1.1" xmlns="http://www.w3.org/2000/svg" xmlns:xlink="http://www.w3.org/1999/xlink">
    <!-- Generator: Sketch 51.3 (57544) - http://www.bohemiancoding.com/sketch -->
    <title>MenúIcono</title>
    <desc>Created with Sketch.</desc>
    <defs></defs>
    <g id="Mobile" stroke="none" stroke-width="1" fill="none" fill-rule="evenodd">
        <g id="HomeRegistrado-Copy-9" transform="translate(-70.000000, -355.000000)">
            <g id="MenúIcono" transform="translate(70.000000, 355.000000)">
                <path d="M49.46758,34.250338 L6.53386208,34.250338 C4.27996086,34.250338 2.39377865,32.7440603 1.96116805,30.749662 L54.038832,30.749662 C53.6062214,32.7440603 51.7200391,34.250338 49.46758,34.250338 M55.0670031,29 L0.934438894,29 C0.418190246,29 0,29.3907669 0,29.874831 C0,33.2524628 2.93165783,36 6.53386208,36 L49.4661379,36 C53.0683422,36 56,33.2524628 56,29.874831 C56,29.3907669 55.5832518,29 55.0670031,29" id="Fill-2205" fill="#404040"></path>
                <path d="M5.88539933,29.1218631 C5.88539933,16.6919058 16.031614,6.57696269 28.5,6.57696269 C40.9698419,6.57696269 51.1146007,16.6919058 51.1146007,29.1218631 L5.88539933,29.1218631 Z M29.4432886,4.71523337 C42.5172637,5.21107471 53,15.9690096 53,29.1218631 L53,30.0609315 C53,30.5805397 52.577787,31 52.0580283,31 L4.94342762,31 C4.42221298,31 4,30.5805397 4,30.0609315 L4,29.1218631 C4,15.970067 14.4846991,5.21055179 27.5578827,4.71519499 L27.5578827,1.87813694 L25.6739393,1.87813694 L25.6739393,0 L31.3272255,0 L31.3272255,1.87813694 L29.443282,1.87813694 L29.443282,4.71523313 Z" id="Fill-2207" fill="#EA2229"></path>
            </g>
        </g>
    </g>
</svg>