<?xml version="1.0" encoding="UTF-8"?>
<svg width="45px" height="49px" viewBox="0 0 45 49" version="1.1" xmlns="http://www.w3.org/2000/svg" xmlns:xlink="http://www.w3.org/1999/xlink">
    <!-- Generator: Sketch 51.3 (57544) - http://www.bohemiancoding.com/sketch -->
    <title>Icono_Para_Llevar-02</title>
    <desc>Created with Sketch.</desc>
    <defs></defs>
    <g id="Mobile" stroke="none" stroke-width="1" fill="none" fill-rule="evenodd">
        <g id="HomeRegistrado-Copy-9" transform="translate(-252.000000, -546.000000)" fill-rule="nonzero">
            <g id="Icono_Para_Llevar-02" transform="translate(252.000000, 546.000000)">
                <g id="Capa_2">
                    <g id="Group">
                        <path d="M26.5445474,44.6449272 C19.8570919,44.6449272 11.1970777,44.6220525 11.0687812,44.6187846 L10.9372773,44.6187846 L10.8153956,44.5697674 C10.7448325,44.540357 10.1001426,44.2625925 9.45224519,43.5992255 C8.84283678,42.9750723 8.11796151,41.8770855 8.11796151,40.1941593 L8.11796151,39.4915785 L36.8916607,39.4915785 L36.8307199,40.2497122 C36.8275125,40.2921938 36.7473272,41.275807 36.3913043,42.2790271 C35.7145403,44.1874327 34.6176051,44.6024456 33.8189594,44.6187846 C32.7925873,44.6383916 29.921953,44.6449272 26.5445474,44.6449272 Z M11.222737,43.213623 C13.0637919,43.2201586 30.9034212,43.2659081 33.7868852,43.213623 C34.6689237,43.1972839 35.137206,41.8738177 35.3360656,40.8967401 L9.55488239,40.8967401 C9.82109765,42.370526 10.8859587,43.0371608 11.222737,43.213623 Z" id="Shape" fill="#EA2229"></path>
                        <rect id="Rectangle-path" fill="#EA2229" transform="translate(22.455721, 27.404627) rotate(-0.909548) translate(-22.455721, -27.404627) " x="21.7661092" y="26.2314494" width="1.37922332" height="2.34635421"></rect>
                        <rect id="Rectangle-path" fill="#EA2229" x="21.1208125" y="25.5281929" width="2.74233785" height="1.40516167"></rect>
                        <path d="M22.2658589,19.4925334 C21.0181753,19.4925334 19.8987883,19.2768574 18.9365645,18.8553089 C18.0833927,18.476242 17.3521026,17.9403199 16.7651461,17.2540781 C15.7580185,16.0809315 15.52067,14.8718389 15.5110478,14.8195539 C15.5014255,14.7770722 15.4982181,14.7313228 15.4982181,14.6855733 L15.4982181,2.81685897 C15.4725588,2.56850481 15.4501069,1.78096072 16.033856,1.0816477 C16.6176051,0.379066868 17.5926586,0.0228747248 18.9301497,0.0228747248 L26.4932288,0.0228747248 C26.5060584,0.0228747248 26.5188881,0.0228747248 26.5349252,0.0228747248 C26.6119031,0.0261425426 27.3207413,0.0784276279 28.0327869,0.444423225 C29.075196,0.980345349 29.6172488,1.9247447 29.5563079,3.10442694 C29.4504633,5.25465107 29.5563079,14.2868996 29.5563079,14.3783985 C29.5563079,14.4241479 29.5531005,14.4698974 29.5434783,14.5156468 C29.533856,14.5679319 29.3061297,15.7737567 28.3150392,16.9795814 C27.4137562,18.0743004 25.6881682,19.4010345 22.5609408,19.4827299 C22.4647185,19.4892655 22.3652887,19.4925334 22.2658589,19.4925334 Z M16.8774056,14.6071457 C16.9319316,14.8195539 17.1724875,15.6169014 17.8460442,16.378303 C18.8948681,17.5645208 20.4697078,18.136389 22.5288667,18.0808361 C24.5976479,18.0252831 26.1756949,17.3684518 27.2181041,16.1299488 C27.8916607,15.3326013 28.1225944,14.5319859 28.1771205,14.3130421 C28.1642908,13.3359646 28.0744833,5.14027745 28.1803279,3.03253495 C28.212402,2.41818519 27.9750535,1.99990451 27.442623,1.71560436 C27.0160371,1.49012493 26.557377,1.43457203 26.4675695,1.42476857 L18.9301497,1.42476857 C18.0288667,1.42476857 17.3905916,1.61756983 17.0858874,1.98683324 C16.8325018,2.29400812 16.8709907,2.65346808 16.8709907,2.6567359 C16.8774056,2.69268189 16.880613,2.73189571 16.880613,2.77110952 L16.880613,14.6071457 L16.8774056,14.6071457 Z" id="Shape" fill="#404040"></path>
                        <path d="M29.1233072,9.6956155 L15.7836778,9.6956155 C15.5880257,9.6956155 15.4019957,9.61065224 15.2704918,9.46360044 C15.1389879,9.31654863 15.078047,9.11721175 15.0972915,8.92114268 C15.1101212,8.80350123 15.2448325,7.75453171 16.2679971,6.73497255 C16.8517463,6.15330097 17.6086957,5.69580648 18.5196009,5.37882815 C19.6037063,4.99976128 20.9155381,4.81676348 22.4198147,4.82983475 C22.6411262,4.81676348 24.0940841,4.76121058 25.6528867,5.14354526 C27.9942979,5.7186812 29.4280114,6.99966579 29.8000713,8.85578632 C29.8417676,9.06165884 29.790449,9.27733482 29.6589451,9.44072571 C29.5274412,9.60084878 29.331789,9.6956155 29.1233072,9.6956155 Z M16.7908054,8.29045383 L28.1386315,8.29045383 C27.660727,7.45062465 26.7305773,6.85588181 25.3610121,6.51276093 C23.9016393,6.15003316 22.4935852,6.2317286 22.4807555,6.2317286 C22.4647185,6.2317286 22.4486814,6.2317286 22.4294369,6.2317286 C20.1072701,6.20558606 18.3367783,6.69902655 17.3104063,7.66303281 C17.0794726,7.87870879 16.9126871,8.09438476 16.7908054,8.29045383 Z" id="Shape" fill="#404040"></path>
                        <path d="M22.5705631,14.009135 C22.3556664,14.009135 22.1375624,13.9960638 21.9771917,13.9535821 C21.800784,13.9078327 21.4928724,13.7575131 21.3870278,13.2542691 C21.3613685,13.1235564 21.342124,12.9601655 21.3325018,12.754293 C21.3196721,12.4569216 21.3228795,12.0517122 21.3453314,11.5550038 C21.380613,10.7282459 21.4543835,9.92763057 21.4575909,9.89495239 C21.4928724,9.50934988 21.8296507,9.22504973 22.2081254,9.26099573 C22.5866001,9.29694173 22.865645,9.6400626 22.8303635,10.0256651 C22.7469708,10.9373863 22.6924448,12.019034 22.7052744,12.6039734 C22.8431932,12.6007056 22.997149,12.5909021 23.1382751,12.5778308 C23.5167498,12.5418848 23.8535282,12.826185 23.8888097,13.2117875 C23.9240912,13.59739 23.6482537,13.9405109 23.2665716,13.9764569 C23.1190306,13.9862603 22.8464006,14.009135 22.5705631,14.009135 Z" id="Shape" fill="#404040"></path>
                        <path d="M10.3663578,48.7002891 C9.25017819,48.7002891 8.04419102,48.6055224 6.81254455,48.5107557 C6.22879544,48.4650062 5.62900927,48.4192568 5.04526016,48.3833108 C5.03563792,48.3833108 5.02922309,48.3833108 5.01960086,48.3833108 C3.33570919,48.2787406 2.04312188,47.6872656 1.17070563,46.621957 C-0.211689237,44.9324952 0.0320741269,42.7005756 0.0416963649,42.6058089 C0.0449037776,42.5763985 0.051318603,42.5469881 0.0577334284,42.5175778 C0.0705630791,42.4685605 1.26051319,37.6616005 2.53064861,32.7990876 C5.13506771,22.8257075 5.50712758,22.3551418 5.70598717,22.1035198 C5.98503207,21.7505955 6.57840342,21.3715286 10.359943,20.9924617 C12.4928724,20.7767858 14.9786172,20.629734 16.62402,20.5316994 C17.1083393,20.5022891 17.5798289,20.4761465 17.9198147,20.450004 C17.9262295,19.8487255 17.906985,18.8062916 17.8781183,17.8978383 C17.8652887,17.5089679 18.163578,17.185454 18.5452602,17.1723827 C18.9269423,17.1593114 19.2444761,17.4632185 19.2573058,17.8520888 C19.2573058,17.8586244 19.2829651,18.6429007 19.2957947,19.4304448 C19.3022096,19.8977428 19.305417,20.2768096 19.2990021,20.5545741 C19.2893799,21.077425 19.2733428,21.3584573 19.0488239,21.5872046 C18.8467569,21.7930771 18.6671418,21.8061484 18.0705631,21.8453622 C17.7369922,21.8682369 17.2590877,21.8976473 16.7074127,21.9303255 C15.1518175,22.0218244 12.7975766,22.1623405 10.7512473,22.3616774 C7.75552388,22.6525132 6.96329294,22.9204743 6.77084818,23.015241 C6.6746258,23.2178457 6.38916607,23.9465691 5.66108339,26.5150739 C5.17034925,28.233946 4.5513186,30.531222 3.82002851,33.3415453 C2.64290805,37.8576696 1.5427655,42.2724914 1.41126158,42.8018779 C1.39201711,43.0567677 1.31824661,44.6057134 2.23877406,45.7200393 C2.72630078,46.3082465 3.42551675,46.693849 4.32679971,46.873579 C4.29472559,46.3115143 4.26585887,45.5337736 4.28189594,44.7004801 C4.33321454,42.3999363 4.71168924,40.935954 5.4365645,40.2268375 C5.83749109,39.8346993 6.3442623,39.6713085 6.89593728,39.7530039 C7.65609408,39.8673775 8.26550249,40.2497122 8.65359943,40.8607941 C9.0513186,41.4882152 9.21489665,42.33458 9.13791875,43.3770139 C9.12829651,43.5273335 9.11225944,43.6743853 9.09301497,43.8083658 L15.3827512,43.8083658 C15.5655738,43.8083658 15.7419815,43.8835256 15.8734854,44.0175062 C16.0017819,44.1514867 16.0755524,44.3312167 16.072345,44.5174823 C16.0627227,45.7625209 15.6810406,46.7461341 14.9433357,47.4389114 C13.8848895,48.4290602 12.2555239,48.7002891 10.3663578,48.7002891 Z M5.71560941,47.0173629 C6.11974341,47.0467733 6.52387741,47.0761837 6.92159658,47.1088618 C9.79543835,47.3343413 12.7687099,47.5663563 14.0099786,46.406281 C14.3275125,46.1089096 14.5327869,45.7167714 14.6290093,45.2167953 L8.25588026,45.2167953 C8.04098361,45.2167953 7.83570919,45.1122251 7.70741269,44.9390308 C7.57590877,44.7625686 7.5342124,44.5370892 7.59515324,44.324681 C7.72986458,43.8312406 7.97683535,42.3835973 7.49572345,41.6319992 C7.32252316,41.3607703 7.06913756,41.2104507 6.69707769,41.1548977 C6.56878118,41.1352908 6.48538845,41.1614334 6.39237349,41.2529323 C6.19030649,41.4490014 5.71881682,42.1809925 5.66108339,44.7429617 C5.6386315,45.635076 5.68032787,46.478173 5.71560941,47.0173629 Z" id="Shape" fill="#404040"></path>
                        <path d="M11.8674269,36.3217952 C11.8674269,36.3217952 11.8674269,36.3217952 11.8674269,36.3217952 L2.51781896,36.3119917 C2.13613685,36.3119917 1.82822523,35.9950134 1.82822523,35.6094109 C1.82822523,35.2205406 2.13613685,34.9068301 2.51781896,34.9068301 C2.51781896,34.9068301 2.51781896,34.9068301 2.51781896,34.9068301 L11.8674269,34.9166335 C12.2491091,34.9166335 12.5570207,35.2336118 12.5570207,35.6192143 C12.5570207,36.0080847 12.2491091,36.3217952 11.8674269,36.3217952 Z" id="Shape" fill="#404040"></path>
                        <path d="M34.6464718,48.6610753 C32.7573058,48.6610753 31.1279401,48.3898464 30.0727014,47.4029654 C29.331789,46.7101881 28.9533143,45.7265749 28.9436921,44.4815363 C28.9436921,44.2952707 29.0142552,44.1155407 29.1425517,43.9815602 C29.2708482,43.8475796 29.4472559,43.7724198 29.6332858,43.7724198 L35.9230221,43.7724198 C35.9037776,43.6384393 35.890948,43.4946553 35.8781183,43.3410679 C35.8011404,42.298634 35.9647185,41.4522692 36.3624376,40.8248481 C36.7505346,40.2137662 37.3567356,39.8314315 38.1200998,39.7170579 C38.6717748,39.6353625 39.1753386,39.7987533 39.5794726,40.1908915 C40.3075552,40.900008 40.6860299,42.3639903 40.7341411,44.6645341 C40.7533856,45.4945598 40.7245189,46.2755683 40.6892373,46.837633 C41.5905203,46.6611708 42.2897363,46.2755683 42.777263,45.6840933 C43.694583,44.5730352 43.62402,43.0306252 43.6047755,42.7659319 C43.4732716,42.2365454 42.3763364,37.8184557 41.1960086,33.3055993 C40.461511,30.495276 39.8424804,28.1980001 39.3549537,26.4791279 C38.6236636,23.9138909 38.3414113,23.1851675 38.2451889,22.979295 C38.0495367,22.8845283 37.2605132,22.6165672 34.2647897,22.3257314 C32.2184604,22.1263945 29.8642195,21.9858784 28.3086244,21.8943795 C27.7569494,21.8617013 27.2790449,21.8322909 26.945474,21.8094162 C26.3488952,21.7669346 26.1692801,21.7538633 25.9672131,21.5512586 C25.7426942,21.3225113 25.7266572,21.041479 25.7170349,20.5186282 C25.7106201,20.2375958 25.7138275,19.8617968 25.7202423,19.3944988 C25.733072,18.6069547 25.7587313,17.8226784 25.7587313,17.8161428 C25.7715609,17.4272725 26.0923022,17.1233654 26.4707769,17.1364367 C26.852459,17.149508 27.1507484,17.4762898 27.1379187,17.8618923 C27.109052,18.7703456 27.0898076,19.8127795 27.0962224,20.414058 C27.4362081,20.4369327 27.9044904,20.4663431 28.3920171,20.4957534 C30.0374198,20.593788 32.5231646,20.7441076 34.6560941,20.9565157 C38.4376336,21.3355826 39.0277976,21.7146495 39.3100499,22.0675738 C39.5089095,22.3191958 39.8809694,22.7897615 42.4853885,32.7631416 C43.7555239,37.6256545 44.9486814,42.4326145 44.9583036,42.4816318 C44.9647185,42.5110421 44.9711333,42.5404525 44.9743407,42.5698629 C44.9839629,42.6646296 45.2277263,44.8965492 43.8453314,46.5827432 C42.9729152,47.644784 41.6771205,48.2395268 39.9964362,48.344097 C39.986814,48.344097 39.9803991,48.344097 39.9707769,48.344097 C39.3870278,48.380043 38.7840342,48.4257924 38.2034925,48.4715419 C36.9686386,48.5663086 35.7626515,48.6610753 34.6464718,48.6610753 Z M30.3870278,45.1775815 C30.4832502,45.6775576 30.6885246,46.0696958 31.0060584,46.3670672 C32.2473272,47.5271425 35.2205987,47.2951275 38.0944405,47.069648 C38.4889522,47.0402377 38.8962937,47.0075595 39.3004277,46.9781491 C39.3357092,46.4389592 39.3774056,45.5860587 39.3549537,44.684141 C39.2972202,42.1352431 38.8257306,41.4032519 38.6236636,41.2071828 C38.5306486,41.1156839 38.4472559,41.0895414 38.3189594,41.1091483 C37.9468995,41.1647012 37.6935139,41.3182886 37.5203136,41.5895175 C37.0392017,42.3476513 37.2925873,43.8247049 37.4208838,44.2821994 C37.4786172,44.4946076 37.4369209,44.720087 37.3086244,44.8965492 C37.1771205,45.0730113 36.9750535,45.1743137 36.7601568,45.1743137 L30.3870278,45.1743137 L30.3870278,45.1775815 Z" id="Shape" fill="#404040"></path>
                        <path d="M32.7797577,36.289117 C32.3980756,36.289117 32.0901639,35.9754065 32.0901639,35.5865362 C32.0901639,35.1976658 32.3980756,34.8839553 32.7797577,34.8839553 L42.4950107,34.8676162 C42.4950107,34.8676162 42.4950107,34.8676162 42.4950107,34.8676162 C42.8766928,34.8676162 43.1846044,35.1813268 43.1846044,35.5701971 C43.1846044,35.9590674 42.8766928,36.2727779 42.4950107,36.2727779 L32.7797577,36.289117 C32.7797577,36.289117 32.7797577,36.289117 32.7797577,36.289117 Z" id="Shape" fill="#404040"></path>
                        <path d="M11.7583749,40.2268375 L10.3791875,40.1582133 C10.3856023,40.0340362 10.5427655,37.0472507 12.0887384,34.0310549 C13.0092659,32.2337551 14.2344975,30.8024509 15.7259444,29.7763561 C17.5894512,28.4953715 19.8602994,27.8548792 22.4775481,27.8712183 C25.0915895,27.8875574 27.3592302,28.5509244 29.2099073,29.8384446 C30.6949394,30.871075 31.9105488,32.2991114 32.8182466,34.08334 C34.3481825,37.0831967 34.4828938,40.0340362 34.4893086,40.1582133 L33.1101212,40.217034 C33.1101212,40.1908915 32.9722024,37.4165142 31.5705631,34.6911541 C30.7655025,33.1258693 29.7006415,31.8775629 28.4080542,30.9821808 C26.7947256,29.8711228 24.7933001,29.2959868 22.4679259,29.2796478 C20.1457591,29.2633087 18.1411262,29.8188377 16.5181753,30.9298958 C15.2191732,31.8187422 14.1478974,33.0670486 13.3332145,34.6454046 C11.9123307,37.3871038 11.7615823,40.2006949 11.7583749,40.2268375 Z" id="Shape" fill="#EA2229"></path>
                    </g>
                </g>
            </g>
        </g>
    </g>
</svg>