<?xml version="1.0" encoding="UTF-8"?>
<svg width="119px" height="94px" viewBox="0 0 119 94" version="1.1" xmlns="http://www.w3.org/2000/svg" xmlns:xlink="http://www.w3.org/1999/xlink">
    <!-- Generator: Sketch 51.3 (57544) - http://www.bohemiancoding.com/sketch -->
    <title>Iconos correcciones_cheesecake</title>
    <desc>Created with Sketch.</desc>
    <defs></defs>
    <g id="Mobile" stroke="none" stroke-width="1" fill="none" fill-rule="evenodd">
        <g id="Iconos-correcciones_cheesecake" fill="#404040" fill-rule="nonzero">
            <path d="M99.4358519,28.8602821 C102.049203,28.8602821 104.17151,31.0048833 104.179833,33.6456864 C104.179833,36.2864894 102.057526,38.4310906 99.4441747,38.4395008 C99.4441747,38.4395008 99.4441747,38.4395008 99.4358519,38.4395008 C97.3135445,38.4395008 96.3231344,37.6489419 95.0747183,36.6565383 C93.6931378,35.554802 91.9786463,34.1839392 88.7577327,34.1839392 C85.5368192,34.1839392 83.8223277,35.554802 82.4407472,36.6565383 C81.8248619,37.1443299 81.2422677,37.6153011 80.568123,37.9348888 C80.0188199,38.195605 79.6609406,38.7590884 79.6609406,39.3814433 L79.6609406,65.5792187 C79.6609406,66.4622897 78.9535048,67.1771568 78.0796135,67.1771568 C77.2057223,67.1771568 76.4982865,66.4622897 76.4982865,65.5792187 L76.4982865,39.3730331 C76.4982865,38.7590884 76.14873,38.195605 75.5911041,37.9264786 C74.9169594,37.6068909 74.3343652,37.1443299 73.7184799,36.6481281 C72.3368994,35.5463918 70.6140852,34.175529 67.4014944,34.175529 C64.1889036,34.175529 62.4660893,35.5463918 61.0845088,36.6481281 C59.8360927,37.6489419 58.8456826,38.4310906 56.7233752,38.4310906 C54.6010678,38.4310906 53.6106577,37.6405317 52.3539188,36.6481281 C50.9723383,35.5463918 49.2578468,34.175529 46.0369332,34.175529 C42.8160196,34.175529 41.1015282,35.5463918 39.7199477,36.6481281 C38.4715315,37.6489419 37.4811214,38.4310906 35.358814,38.4310906 L28.8920185,38.4310906 C28.0181273,38.4310906 27.3106915,39.1459577 27.3106915,40.0290288 L27.3106915,83.1228974 L22.575033,83.1228974 C19.9616819,83.1228974 17.8393745,80.9782963 17.8393745,78.329083 C17.8393745,75.68828 19.9616819,73.5436788 22.575033,73.5436788 C23.4489243,73.5436788 24.1563601,72.8288117 24.1563601,71.9457406 L24.1563601,33.6540966 C24.1563601,31.0132935 26.2786675,28.8686923 28.8920185,28.8686923 L99.4358519,28.8602821 Z M99.4358519,25 L28.8836958,25 C24.1563601,25 20.3195612,28.8771026 20.3195612,33.6540966 L20.3195612,69.9861639 C15.7503582,71.2392838 13.0621022,75.9994574 14.3021955,80.6166576 C15.317574,84.3844276 18.704943,87 22.5667102,87 L31.1391675,87 L31.1391675,42.3081932 L35.358814,42.3081932 C38.8127653,42.3081932 40.62713,40.8616386 42.0919383,39.6926207 C43.282095,38.742268 44.1476635,38.0526316 46.0369332,38.0526316 C47.9262029,38.0526316 48.7917714,38.742268 49.9819281,39.6926207 C51.4467364,40.8616386 53.2694239,42.3081932 56.7150524,42.3081932 C60.1606809,42.3081932 61.9833684,40.8616386 63.4481767,39.6926207 C64.6383334,38.742268 65.5039019,38.0526316 67.3931716,38.0526316 C69.2824413,38.0526316 70.1480098,38.742268 71.3381665,39.6926207 C71.7376597,40.0122084 72.1704439,40.3570266 72.6614876,40.6850244 L72.6614876,65.5708085 C72.6614876,68.5900705 75.0834149,71.037439 78.0712908,71.037439 C81.0591667,71.037439 83.4810939,68.5900705 83.4810939,65.5708085 L83.4810939,40.6934346 C83.9721376,40.3654368 84.4049219,40.0206186 84.804415,39.6926207 C85.9945717,38.742268 86.8601402,38.0526316 88.74941,38.0526316 C90.6386797,38.0526316 91.5042482,38.742268 92.6944049,39.6926207 C94.1592131,40.8616386 95.9735779,42.3081932 99.4275291,42.3081932 C104.154865,42.3081932 107.991664,38.4395008 107.999986,33.6540966 C108.008309,28.8686923 104.17151,25 99.4358519,25 C99.4358519,25 99.4358519,25 99.4358519,25 Z" id="Shape"></path>
            <path d="M101,87 C99.8956522,87 99,86.13657 99,85.0719525 L99,40.9280475 C99,39.86343 99.8956522,39 101,39 C102.104348,39 103,39.86343 103,40.9280475 L103,85.0719525 C103,86.13657 102.104348,87 101,87 Z" id="Shape"></path>
            <path d="M55.3715029,5.94514487 C52.7664281,2.10903184 49.4424203,0 46,0 C42.5575797,0 39.2335719,2.10903184 36.6284971,5.94514487 C34.3617437,9.29136468 33,13.4762153 33,17.1296562 C33,23.3155961 37.0344828,27.2264386 43.9024073,27.8823973 C43.9446975,27.874094 43.9869876,27.8657908 44.0292778,27.8657908 C45.2387768,27.874094 46.4567339,28.0152497 47.6662329,27.9986432 C47.6577749,27.9737333 47.6493169,27.9488235 47.6408588,27.9156104 C54.7878985,27.4008074 59,23.4567518 59,17.1296562 C59,13.467912 57.6467144,9.29136468 55.3715029,5.94514487 Z M49.6707872,24.7686692 L51.548471,22.7841865 C52.0897853,22.194654 52.0390371,21.2979003 51.4385166,20.7664907 C50.8549122,20.2516876 49.9583604,20.2849007 49.4170462,20.8412202 L47.454782,22.9170389 L47.454782,21.1899577 C47.454782,20.4011466 46.8035133,19.7617944 46,19.7617944 C45.1964867,19.7617944 44.545218,20.4011466 44.545218,21.1899577 L44.545218,22.9419487 L42.5322056,20.8329169 C41.9824333,20.2599909 41.0605075,20.2267778 40.4769031,20.7664907 C39.8932986,21.3062035 39.8594665,22.2112605 40.4092388,22.7841865 L42.2953806,24.7603659 C38.8867925,24.0296777 35.9095641,21.9953754 35.9095641,17.1296562 C35.9095641,14.0574445 37.1106051,10.3790937 39.0474951,7.52276711 C41.0605075,4.55019468 43.597918,2.84802331 46,2.84802331 C48.402082,2.84802331 50.9394925,4.55019468 52.9525049,7.52276711 C54.8893949,10.3707904 56.0904359,14.0574445 56.0904359,17.1296562 C56.0904359,22.0119819 53.0962915,24.037981 49.6707872,24.7686692 Z" id="Shape"></path>
            <path d="M113.579485,94 L5.42051535,94 C2.43797522,94 0,91.5328693 0,88.5042537 C0,85.4671307 2.4295973,83 5.42051535,83 L113.579485,83 C116.570403,83 119,85.4671307 119,88.5042537 C118.991622,91.5328693 116.562025,94 113.579485,94 Z M5.42051535,86.9133797 C4.55758941,86.9133797 3.85384399,87.6279969 3.85384399,88.5042537 C3.85384399,89.3805104 4.55758941,90.0866203 5.42051535,90.0866203 L113.579485,90.0866203 C114.442411,90.0866203 115.146156,89.3720031 115.146156,88.4957463 C115.146156,87.6194896 114.442411,86.9048724 113.579485,86.9048724 L5.42051535,86.9048724 L5.42051535,86.9133797 Z" id="Shape"></path>
        </g>
    </g>
</svg>