<?xml version="1.0" encoding="UTF-8"?>
<svg width="36px" height="49px" viewBox="0 0 36 49" version="1.1" xmlns="http://www.w3.org/2000/svg" xmlns:xlink="http://www.w3.org/1999/xlink">
    <!-- Generator: Sketch 51.3 (57544) - http://www.bohemiancoding.com/sketch -->
    <title>Group 2 Copy 2</title>
    <desc>Created with Sketch.</desc>
    <defs></defs>
    <g id="Mobile" stroke="none" stroke-width="1" fill="none" fill-rule="evenodd">
        <g id="HomeRegistrado-Copy-9" transform="translate(-259.000000, -444.000000)" fill-rule="nonzero">
            <g id="Group-2-Copy-2" transform="translate(259.000000, 444.000000)">
                <path d="M35.1721004,5.64636698 L25.9292996,5.64636698 L25.9292996,4.6281117 C25.9292996,4.17555379 25.5565771,3.80785049 25.0978418,3.80785049 L21.7791781,3.80785049 L21.7791781,3.7265315 C21.7791781,1.67234288 20.0840076,0 18.0017791,0 C15.9195506,0 14.2243801,1.67234288 14.2243801,3.72299589 L14.2243801,3.80431489 L10.9057165,3.80431489 C10.4469811,3.80431489 10.0742586,4.17201818 10.0742586,4.62457609 L10.0742586,5.64283137 L0.831457845,5.64283137 C0.372722482,5.64283137 0,6.01053467 0,6.46309258 L0,48.1797388 C0,48.6322967 0.372722482,49 0.831457845,49 L35.1685165,49 C35.6272519,49 35.9999744,48.6322967 35.9999744,48.1797388 L35.9999744,6.46662818 C36.0035582,6.01407028 35.6308358,5.64636698 35.1721004,5.64636698 Z M20.9477203,5.4483729 L24.2663839,5.4483729 L24.2663839,8.01876037 L11.7371743,8.01876037 L11.7371743,5.4483729 L15.055838,5.4483729 C15.5145733,5.4483729 15.8872958,5.0806696 15.8872958,4.6281117 L15.8872958,3.7265315 C15.8872958,2.57745869 16.8370214,1.6405224 18.0017791,1.6405224 C19.1665369,1.6405224 20.1162624,2.57745869 20.1162624,3.7265315 L20.1162624,4.6281117 C20.1162624,5.0806696 20.4889849,5.4483729 20.9477203,5.4483729 Z M10.9057165,9.65574717 L25.0978418,9.65574717 C25.5565771,9.65574717 25.9292996,9.28804387 25.9292996,8.83548597 L25.9292996,7.28688939 L29.5776793,7.28688939 L29.5776793,42.1126344 L6.42587895,42.1126344 L6.42587895,7.28688939 L10.0742586,7.28688939 L10.0742586,8.83548597 C10.0742586,9.28804387 10.4469811,9.65574717 10.9057165,9.65574717 Z M5.5944211,43.7496212 L30.4091371,43.7496212 C30.8678725,43.7496212 31.240595,43.3819179 31.240595,42.92936 L31.240595,7.28688939 L34.3406425,7.28688939 L34.3406425,47.3665488 L1.66291569,47.3665488 L1.66291569,7.28688939 L4.76296326,7.28688939 L4.76296326,42.9328956 C4.76296326,43.3819179 5.13568574,43.7496212 5.5944211,43.7496212 Z" id="Shape" fill="#404040"></path>
                <path d="M9,26.7909782 L9,38.2090218 C9,38.6454236 9.37328016,39 9.83270189,39 L26.1672981,39 C26.6267198,39 27,38.6454236 27,38.2090218 L27,26.7909782 C27,26.3545764 26.6267198,26 26.1672981,26 L9.83270189,26 C9.37328016,26 9,26.3545764 9,26.7909782 Z M25.3345962,35.2292158 L25.3345962,37.4180435 L15.3385842,37.4180435 L15.3385842,35.2292158 L25.3345962,35.2292158 Z M25.3345962,31.4447941 L25.3345962,33.6472594 L15.3385842,33.6472594 L15.3385842,31.4447941 L25.3345962,31.4447941 Z M25.3345962,27.5785471 L25.3345962,29.8628377 L15.3385842,29.8628377 L15.3385842,27.5785471 L25.3345962,27.5785471 Z M13.6731805,35.2292158 L13.6731805,37.4180435 L10.6618146,37.4180435 L10.6618146,35.2292158 L13.6731805,35.2292158 Z M13.6731805,31.4447941 L13.6731805,33.6472594 L10.6618146,33.6472594 L10.6618146,31.4447941 L13.6731805,31.4447941 Z M13.6731805,27.5785471 L13.6731805,29.8628377 L10.6618146,29.8628377 L10.6618146,27.5785471 L13.6731805,27.5785471 Z" id="Shape" fill="#EA2229"></path>
                <g id="Group" transform="translate(11.000000, 11.000000)">
                    <path d="M8.61633554,6.68708609 L7.71699779,6.68708609 L7.71699779,5.56291391 C7.71699779,5.06843267 7.39558499,4.66666667 7,4.66666667 C6.60441501,4.66666667 6.28300221,5.06843267 6.28300221,5.56291391 L6.28300221,6.68708609 L5.38366446,6.68708609 C4.98807947,6.68708609 4.66666667,7.0888521 4.66666667,7.58333333 C4.66666667,8.07781457 4.98807947,8.47958057 5.38366446,8.47958057 L6.28300221,8.47958057 L6.28300221,9.60375276 C6.28300221,10.098234 6.60441501,10.5 7,10.5 C7.39558499,10.5 7.71699779,10.098234 7.71699779,9.60375276 L7.71699779,8.47958057 L8.61633554,8.47958057 C9.01192053,8.47958057 9.33333333,8.07781457 9.33333333,7.58333333 C9.33333333,7.0888521 9.00883002,6.68708609 8.61633554,6.68708609 Z" id="Shape" fill="#404040"></path>
                    <path d="M11.2579308,0.309644511 C10.4766901,-0.0359008129 9.65486549,-0.0922397243 8.88038881,0.140627776 C8.18369799,0.350959713 7.53773709,0.797915077 7,1.43266681 C6.46226291,0.797915077 5.81630201,0.350959713 5.11961119,0.140627776 C4.34513451,-0.0922397243 3.5233099,-0.0359008129 2.74206923,0.309644511 C1.05445409,1.05331814 -0.480971304,3.26931533 0.14131564,6.36419953 C0.367909255,7.49848962 0.844770446,8.59522043 1.56175323,9.62810047 C2.13331026,10.4544045 2.85705703,11.2393933 3.71608357,11.9680433 C5.18386908,13.2112552 6.55019476,13.8647866 6.69900251,13.9323933 C6.79369835,13.9774644 6.89515818,14 7,14 C7.10484182,14 7.20630165,13.9774644 7.30099749,13.9323933 C7.45318723,13.8610307 8.81951291,13.2112552 10.2839164,11.9680433 C11.139561,11.2431493 11.8666897,10.4544045 12.4382468,9.62810047 C13.1518476,8.59522043 13.6287088,7.49848962 13.8586844,6.36419953 C14.4809713,3.26931533 12.9455459,1.05331814 11.2579308,0.309644511 Z M12.330023,5.98860679 C12.0290255,7.49097776 11.153089,8.91823018 9.72588737,10.2328048 C8.63350323,11.2393933 7.51068113,11.8966806 7,12.1746193 C6.48931887,11.9004366 5.36649677,11.2431493 4.27749462,10.2365607 C2.85029304,8.92198611 1.97435653,7.49473369 1.67335904,5.98860679 C1.25399175,3.88528743 2.23477009,2.40920795 3.32377224,1.92844923 C3.59433178,1.80825956 3.8750373,1.74816472 4.15912482,1.74816472 C4.76450179,1.74816472 5.63029232,2.02234742 6.33036514,3.32189831 C6.46564491,3.57354545 6.71591248,3.72378255 7.00338199,3.72378255 C7.00338199,3.72378255 7.00338199,3.72378255 7.00338199,3.72378255 C7.29085151,3.72378255 7.54111908,3.57354545 7.67639885,3.32189831 C8.24795588,2.25521492 9.33695803,1.33125677 10.6829917,1.92844923 C11.7686119,2.40920795 12.7493902,3.88528743 12.330023,5.98860679 Z" id="Shape" fill="#EA2229"></path>
                </g>
            </g>
        </g>
    </g>
</svg>