<?xml version="1.0" standalone="no"?>
<!DOCTYPE svg PUBLIC "-//W3C//DTD SVG 1.1//EN" "http://www.w3.org/Graphics/SVG/1.1/DTD/svg11.dtd" >
<svg xmlns="http://www.w3.org/2000/svg" xmlns:xlink="http://www.w3.org/1999/xlink" version="1.1">
<metadata>
Created by FontForge 20170731 at Sun Jul 22 11:50:20 2018
 By Aleksey,,,
Copyright (c) 2018 by Dastan Miraj. All rights reserved.
</metadata>
<defs>
<font id="Borsok" horiz-adv-x="993" >
  <font-face 
    font-family="Borsok"
    font-weight="400"
    font-stretch="normal"
    units-per-em="1500"
    panose-1="2 0 5 3 0 0 0 2 0 2"
    ascent="1200"
    descent="-300"
    x-height="1003"
    cap-height="1011"
    bbox="-121.923 -340 1771.7 1556.5"
    underline-thickness="50"
    underline-position="-150"
    unicode-range="U+0020-2248"
  />
<missing-glyph horiz-adv-x="504" 
 />
    <glyph glyph-name=".notdef" horiz-adv-x="504" 
 />
    <glyph glyph-name=".null" horiz-adv-x="0" 
 />
    <glyph glyph-name="nonmarkingreturn" horiz-adv-x="500" 
 />
    <glyph glyph-name="space" unicode=" " horiz-adv-x="504" 
 />
    <glyph glyph-name="exclam" unicode="!" horiz-adv-x="397" 
d="M199 -11q-14 2 -27 3.5t-27 4.5q-51 12 -81 44.5t-35 85.5q-2 22 -1 44t3 44q8 42 33 68t64 39q58 18 117 6q30 -7 54 -22.5t40.5 -38t24.5 -51t5 -59.5q-2 -17 -5 -35.5t-10 -35.5q-18 -47 -58.5 -71.5t-96.5 -25.5zM379 818q0 -29 -5.5 -84t-15 -115.5t-21 -117
t-23.5 -89.5q-29 -33 -69 -47.5t-77.5 -8t-67 36t-36.5 84.5q-23 148 -24.5 271.5t11.5 214.5q22 19 54.5 32t69 16.5t73 -4.5t65.5 -31t47.5 -61.5t18.5 -96.5z" />
    <glyph glyph-name="quotedbl" unicode="&#x22;" horiz-adv-x="864" 
d="M155 652q-50 15 -79.5 47t-42 70.5t-10 78.5t17.5 72q21 48 62 78t114 32q48 1 83.5 -15t59 -44t35.5 -64t13 -74q1 -49 -13.5 -99t-36.5 -96t-48 -86t-50 -69q-31 -39 -66.5 -52.5t-66 -9.5t-51 21.5t-20.5 41.5q24 48 51 87.5t48 80.5zM585 652q-50 15 -79.5 47
t-42 70.5t-9.5 78.5t17 72q21 48 62 78t114 32q48 1 83.5 -15t59 -44t35.5 -64t13 -74q1 -49 -13.5 -99t-36 -96t-48 -86t-49.5 -69q-31 -39 -67 -52.5t-66.5 -9.5t-51 21.5t-20.5 41.5q25 48 51.5 87.5t47.5 80.5z" />
    <glyph glyph-name="numbersign" unicode="#" horiz-adv-x="1125" 
d="M1064 425q17 -19 27.5 -45t12.5 -54.5t-5 -58.5t-26 -55.5t-50.5 -45t-77.5 -28.5q-2 -47 -4.5 -81t-8.5 -50q-19 -16 -45 -27t-55 -13t-58.5 5t-55 26t-45 51t-27.5 79h-73.5t-74.5 1q-2 -42 -4.5 -74.5t-7.5 -47.5q-29 -25 -73 -35.5t-88.5 1.5t-80 50t-46.5 111v4
q-35 3 -63.5 5t-46.5 5q-26 23 -35 61.5t2.5 78.5t44.5 76t90 55v62t1 62q-86 5 -128 9q-18 17 -27.5 42t-10 53t9.5 57t30.5 55t53 45.5t77.5 29.5q3 48 5 86.5t4 61.5q26 27 68.5 35t86 -7t79.5 -54.5t49 -108.5q39 1 78 1h79q2 45 3.5 79t5.5 55q17 18 42 28t53.5 10
t58 -10t55 -31t45 -54.5t28.5 -79.5v-2q38 -2 64 -5t39 -6q24 -27 35.5 -67.5t3 -82t-39 -77.5t-89.5 -53v-115q85 -3 115 -12zM503 441q32 1 66 1h66v46t1 45h-133v-92z" />
    <glyph glyph-name="dollar" unicode="$" horiz-adv-x="876" 
d="M700 560q63 -39 98 -88.5t46.5 -103t3 -107.5t-33.5 -101t-63.5 -84t-85.5 -56q-20 -8 -45 -15t-55 -12q1 -39 0 -74.5t-5 -66.5q-38 -32 -79 -38.5t-74.5 6.5t-56 41.5t-24.5 66.5v21t-1 35q-75 9 -146 33.5t-128 71.5q-24 30 -31 65.5t-1 69t24.5 62.5t46 45.5
t62.5 18.5t75 -18q52 -26 101.5 -39.5t88.5 -14.5t65 10t32 34q8 29 -13 49t-77 24q-60 4 -120.5 19.5t-112.5 46.5t-88.5 79.5t-48.5 117.5q-3 21 -1.5 50t10 62t26.5 67t48 65t73 56.5t103 41.5q6 2 10 3q0 45 0.5 85.5t5.5 75.5q39 32 79.5 38t74.5 -7t56 -41.5t24 -65.5
q1 -8 1 -28v-49q44 -7 81 -19t64 -29q65 -43 84 -93t7.5 -95t-46 -79t-77.5 -44q-18 22 -48.5 39.5t-65 29t-70.5 16t-65 1t-47.5 -15.5t-18.5 -34q-1 -17 12.5 -27t51.5 -14q54 -7 98.5 -18.5t79 -23.5t58.5 -24t38 -21z" />
    <glyph glyph-name="percent" unicode="%" horiz-adv-x="1222" 
d="M308 110q7 15 11 24t8 16.5t8 15.5l11 22q35 66 72.5 142t76 154.5t77 156.5t76 150t73 134.5t67.5 109.5q41 9 73 -1t50.5 -32t23 -51t-8.5 -58q-5 -12 -25.5 -54t-51 -103.5t-68 -137.5t-77.5 -155.5t-79 -157t-72.5 -142t-58.5 -111.5t-37 -65q-41 -18 -76 -12t-57 28
t-27.5 55.5t11.5 71.5zM282 460q-187 10 -236 158q-14 45 -16 91t4 92q10 64 39 105.5t70 64.5t89.5 29t96.5 0q94 -13 149 -75t58 -158q1 -35 -3 -71.5t-14 -71.5q-26 -83 -88.5 -125t-148.5 -39zM229 743q0 -32 13 -54.5t40 -22.5q30 0 42 19.5t12 59.5q0 9 -2 20.5
t-7.5 21.5t-15.5 17t-25 7q-26 0 -42 -18.5t-15 -49.5zM940 -20q-187 7 -235 156q-15 46 -17 92t5 92q10 64 39 105.5t69.5 64.5t89 29t96.5 0q94 -13 149.5 -75t57.5 -159q0 -35 -3.5 -71t-13.5 -71q-25 -83 -87.5 -125.5t-149.5 -37.5zM887 262q0 -33 13.5 -54.5
t39.5 -21.5q31 0 42.5 19t11.5 58q0 9 -2 20.5t-7.5 21.5t-15 17t-24.5 7q-27 0 -43 -18.5t-15 -48.5z" />
    <glyph glyph-name="ampersand" unicode="&#x26;" horiz-adv-x="1001" 
d="M809 588q37 5 74.5 -11t63 -44t33.5 -64.5t-14 -73.5q-16 -26 -45 -70.5t-71 -95.5q16 -22 32.5 -46.5t33.5 -50.5q-2 -27 -15 -54.5t-34.5 -50.5t-48.5 -39t-57.5 -20.5t-61.5 5.5t-60 39q-9 12 -20 23q-50 -24 -104 -39.5t-113 -15.5q-96 1 -166 25.5t-116.5 66.5
t-70.5 99.5t-28 125.5q-2 39 10 76.5t33 70t47.5 58.5t52.5 43q-42 25 -66 59.5t-38 81.5q-12 38 -11 76.5t14.5 73.5t38 65.5t58.5 52.5q47 31 111 46.5t131 15t131 -16.5t112 -47q49 -33 73.5 -82.5t25 -103t-22.5 -105t-68 -87.5q-3 -2 -13 -9.5t-22 -16t-22.5 -16.5
t-13.5 -10q18 -23 39.5 -45t44.5 -44q37 36 73 75.5t70 79.5zM409 791q-32 0 -51 -15t-20 -44q0 -14 9.5 -28t21.5 -25q14 -13 32 -24q20 12 37 25q14 11 25.5 24.5t11.5 27.5q-1 27 -18.5 43t-47.5 16zM394 248q25 2 53 14q-28 37 -54 69t-49 55q-35 -30 -43 -55.5t2.5 -44
t35 -28.5t55.5 -10z" />
    <glyph glyph-name="quotesingle" unicode="'" horiz-adv-x="420" 
d="M148 -8q-50 15 -79.5 47t-42 70.5t-10 79t17.5 72.5q21 46 62 77t114 33q48 1 83.5 -15.5t59 -44.5t35.5 -64t13 -74q1 -49 -13.5 -99t-36.5 -96t-48 -85.5t-50 -68.5q-31 -39 -67 -52.5t-66.5 -10t-50.5 21.5t-20 42q24 48 51 87t48 80z" />
    <glyph glyph-name="parenleft" unicode="(" horiz-adv-x="572" 
d="M114 -5q-32 85 -51.5 189.5t-25 217.5t5 229t37.5 224.5t72 204t110 168.5q70 22 125 7.5t90 -48.5t48 -77.5t-1 -79.5q-48 -121 -75.5 -243t-32 -250.5t15 -265t65.5 -285.5q-4 -29 -28.5 -55t-60.5 -43t-78.5 -23t-84 5t-76.5 41t-55 84z" />
    <glyph glyph-name="parenright" unicode=")" horiz-adv-x="577" 
d="M450 1105q32 -85 51 -189t24.5 -217t-4.5 -229t-37 -224.5t-72 -204.5t-110 -168q-47 -15 -87 -13t-72.5 16t-56 37t-37 50t-16.5 55t7 52q48 121 75.5 243t32 250.5t-15 265t-65.5 285.5q4 29 28 55t60 43t79 23t84 -5t76.5 -40.5t55.5 -84.5z" />
    <glyph glyph-name="asterisk" unicode="*" horiz-adv-x="682" 
d="M640 652q13 -45 6.5 -81t-28 -56.5t-54 -22.5t-70.5 20q-2 1 -10.5 7t-18 14t-18.5 15.5t-12 12.5q3 -15 5.5 -33t4.5 -36t2.5 -33.5t-0.5 -24.5q-31 -36 -66.5 -46t-66.5 1t-52 41t-23 74q0 2 1 9.5t2.5 16t2.5 16t1 10.5q-24 -23 -47.5 -45.5t-39.5 -30.5
q-43 12 -67 37.5t-30 55t5 59t38 49.5q8 7 30.5 19t51.5 20q-16 12 -37 21.5t-41 18t-37.5 16t-27.5 15.5q-5 45 10 76.5t40.5 48.5t56.5 18t60 -17q3 -2 9.5 -7t14.5 -11.5t15.5 -12.5t12.5 -9q-7 37 -8.5 75t1.5 58q35 28 70 34.5t63 -3t45 -34t16 -57.5q0 -7 -1.5 -19.5
t-3.5 -25t-3.5 -22.5t-1.5 -11q32 28 55.5 54.5t37.5 33.5q47 -5 73 -29.5t31.5 -56.5t-8.5 -64.5t-48 -51.5q-10 -5 -25.5 -14.5t-38.5 -17.5q15 -11 33 -21t35 -19t31.5 -18t23.5 -16z" />
    <glyph glyph-name="plus" unicode="+" horiz-adv-x="975" 
d="M870 664q23 -22 35.5 -53.5t13 -67t-12.5 -72.5t-39.5 -69.5t-68.5 -57.5t-100 -36q-4 -1 -9 -1.5t-10 -1.5q-2 -63 -6.5 -116t-13.5 -85q-24 -21 -57.5 -34.5t-70.5 -16t-75 7.5t-70.5 35t-56.5 66.5t-33 103.5q-2 12 -3 27q-61 2 -112 6.5t-83 12.5q-21 24 -34.5 57.5
t-16 70.5t7 75t34.5 70.5t67 56t104 33.5q7 2 14.5 2.5t15.5 1.5q3 55 7.5 105t10.5 92q32 35 85 45t107.5 -9t100 -69.5t62.5 -137.5q1 -5 1.5 -10.5t1.5 -12.5q57 -3 109 -7.5t95 -10.5z" />
    <glyph glyph-name="comma" unicode="," horiz-adv-x="416" 
d="M148 -8q-50 15 -79.5 47t-42 70.5t-10 79t17.5 72.5q21 46 62 77t114 33q48 1 83.5 -15.5t59 -44.5t35.5 -64t13 -74q1 -49 -13.5 -99t-36.5 -96t-48 -85.5t-50 -68.5q-31 -39 -67 -52.5t-66.5 -10t-50.5 21.5t-20 42q24 48 51 87t48 80z" />
    <glyph glyph-name="hyphen" unicode="-" horiz-adv-x="914" 
d="M236 627q31 5 76 7.5t98.5 3.5t112 0t116 -4t111 -7.5t96.5 -10.5q23 -22 35.5 -53.5t13 -67t-12.5 -72.5t-39.5 -69.5t-68.5 -57.5t-100 -36q-23 -5 -67.5 -8.5t-101 -6t-119 -3t-122 1.5t-109.5 7t-81 13q-21 24 -34.5 57.5t-16 70.5t7.5 75t35 70.5t66.5 56
t103.5 33.5z" />
    <glyph glyph-name="period" unicode="." horiz-adv-x="431" 
d="M218 -29q-15 2 -30.5 4t-30.5 5q-59 14 -93 51t-40 97q-2 25 -2 50t5 50q8 47 36.5 77.5t73.5 44.5q67 22 133 7q34 -8 61.5 -25.5t46.5 -43t27.5 -57.5t5.5 -68q-2 -21 -5.5 -41.5t-11.5 -39.5q-21 -54 -66.5 -82t-109.5 -29z" />
    <glyph glyph-name="slash" unicode="/" horiz-adv-x="768" 
d="M62 96q4 18 7.5 29.5t7.5 21t8.5 20t10.5 28.5q47 129 94 269.5t93.5 276t92.5 258t92 214.5q50 8 88.5 0t65.5 -27t43.5 -46t24.5 -57.5t7.5 -60.5t-7.5 -55q-5 -15 -22 -67t-43 -128t-58.5 -170t-67 -192t-68.5 -194t-63 -176.5t-51.5 -139.5t-33.5 -83
q-57 -12 -106.5 -2t-82 44.5t-43 93.5t10.5 143z" />
    <glyph glyph-name="zero" unicode="0" horiz-adv-x="877" 
d="M837 448q0 -42 -7.5 -102t-28.5 -123q-38 -109 -112.5 -171t-190.5 -75q-53 -6 -105.5 -3t-103.5 17q-89 23 -144.5 79.5t-81.5 141.5q-29 89 -34.5 179t0.5 181q4 62 16.5 121.5t38.5 116.5q80 174 274 200q60 8 119 3t116 -27q76 -31 124.5 -87.5t77.5 -131.5
q24 -69 33 -145t9 -174zM490 478q-4 38 -6.5 76t-7.5 73q-9 62 -53 64q-21 0 -35.5 -13.5t-21.5 -44.5q-14 -58 -14 -115.5t4 -115.5q3 -47 20 -90q5 -14 15 -21t21.5 -8t23.5 4t21 16q15 16 18 38q5 35 8 70t7 67z" />
    <glyph glyph-name="one" unicode="1" horiz-adv-x="679" 
d="M294 639q-18 -5 -31.5 -11t-28 -12t-32 -13t-42.5 -14q-34 5 -62 25t-47 48.5t-26.5 62.5t-0.5 67.5t32 63.5t71 51q38 16 80.5 33t81.5 32t71 25.5t48 15.5q34 10 74 9t75 -17t58.5 -47.5t23.5 -81.5q0 -211 -5 -420t-3 -420q-59 -44 -119.5 -53.5t-110.5 8t-82.5 57.5
t-35.5 95t-2 123.5t4 136.5t6 129t4 101q0 3 -1 6z" />
    <glyph glyph-name="two" unicode="2" horiz-adv-x="784" 
d="M202 632q-46 -6 -81.5 7t-59 38t-34 59.5t-5.5 71.5t26.5 72.5t61.5 64.5q51 35 113.5 53t126.5 21.5t122.5 -7t101.5 -32.5q76 -39 115.5 -102t44.5 -148q5 -93 -31 -168t-96 -140q-10 -11 -25.5 -25.5t-31 -28t-28 -24t-15.5 -13.5q-8 -6 -5 -10t8 -4h21q43 2 85.5 3.5
t86.5 4.5q30 -25 45 -57.5t16.5 -67.5t-9.5 -69.5t-32.5 -62t-52.5 -46t-70 -21.5q-42 -3 -102 -5.5t-127.5 -4t-136.5 -1.5t-130 2q-25 25 -48 61.5t-32 79t1 88t51 88.5q25 26 58.5 57.5t70 66.5t73 71.5t66.5 71.5q18 21 20.5 41.5t-3.5 36.5t-18 26t-24 11
q-26 4 -47.5 -4.5t-39.5 -23.5q-6 -7 -13 -14z" />
    <glyph glyph-name="three" unicode="3" horiz-adv-x="797" 
d="M248 304q42 -20 87 -23q17 -2 28 1q50 6 50 49q0 19 -12 32t-35 15q-29 3 -58.5 3.5t-58.5 0.5q-24 17 -40 42.5t-22.5 54.5t-5 57t12.5 51t30.5 36.5t48.5 12.5q10 0 15.5 -0.5t10.5 -0.5t11 -0.5t17 -0.5q9 0 18.5 1t20.5 3q22 4 34 15.5t12 28.5q-1 16 -14.5 27
t-36.5 13q-42 6 -89 -17q-32 -3 -59.5 12t-47.5 40t-30.5 57t-6.5 63.5t23.5 59.5t58.5 45q50 22 100.5 31.5t99 8t94.5 -13.5t87 -31q71 -33 110.5 -88t42.5 -134q5 -72 -21 -131.5t-86 -103.5q-3 -2 -5.5 -4t-4.5 -4v-7q47 -16 78.5 -48t48.5 -79q15 -39 16 -81.5t-10 -83
t-33 -77t-54 -63.5q-44 -38 -94.5 -58t-106.5 -28q-91 -11 -177.5 2t-167.5 60q-23 13 -42 28.5t-39 32.5q-11 22 -11.5 51.5t8 58t26.5 53t44 39t60 14t75 -21.5z" />
    <glyph glyph-name="four" unicode="4" horiz-adv-x="883" 
d="M716 176v-156q-16 -12 -45.5 -22t-64 -12.5t-69.5 4.5t-63.5 28t-46 58.5t-15.5 95.5h-315q-26 18 -46 52.5t-29 78t-5.5 91.5t24.5 93q8 19 27 52.5t44 76t55.5 90t62 96t62 94.5t57.5 84q59 32 124 34t120.5 -19.5t93.5 -63.5t41 -97q2 -55 0.5 -152t-2.5 -217v-26
q22 -2 51.5 -2.5t50.5 -1.5q25 -43 31 -88.5t-8 -83t-47.5 -62t-87.5 -25.5zM417 435q5 47 8.5 91.5t6.5 90.5q-2 1 -3.5 1.5t-3.5 1.5q-31 -42 -55 -88t-42 -97h89z" />
    <glyph glyph-name="five" unicode="5" horiz-adv-x="803" 
d="M260 301q23 -10 47 -14.5t50 -1.5t41 17.5t13 37.5q-1 25 -17.5 40.5t-43.5 12.5q-41 -5 -86 3.5t-82.5 29.5t-61.5 53t-22 76q3 83 10.5 186.5t30.5 225.5q2 5 3 10.5t3 11.5q134 8 267.5 12.5t267.5 1.5q18 -13 31 -39.5t17.5 -58t0 -65.5t-20 -62t-43.5 -47t-71 -21
q-50 -3 -99 -4t-99 -2q-1 -16 -1.5 -30.5t-1.5 -30.5q22 1 43 3t44 2q60 1 109.5 -16t86 -50t59 -80.5t28.5 -107.5q6 -65 -3 -126t-42 -118q-20 -35 -50 -66t-69 -54t-87.5 -36.5t-105.5 -13.5q-115 0 -208.5 26.5t-153.5 77.5q-15 32 -18 67t5 67t27.5 57.5t48.5 39
t67.5 11.5t85.5 -25z" />
    <glyph glyph-name="six" unicode="6" horiz-adv-x="828" 
d="M555 758q-19 -16 -34.5 -30t-30 -28.5t-30 -31.5t-33.5 -40q8 1 12 1t7 1q66 20 125 9.5t105 -43.5t76 -85.5t38 -116.5q8 -56 3 -109.5t-27 -105.5q-27 -64 -74 -105.5t-112 -63.5q-90 -30 -177.5 -28t-173.5 47q-85 44 -132 114.5t-61 164.5q-11 73 -5 142t27 133
t54.5 124.5t77.5 117.5q38 48 87.5 96t100.5 83q39 11 76.5 5t68 -24t52 -45t28 -58t-4 -63.5t-43.5 -60.5zM498 332q0 37 -20 59.5t-52 22.5q-33 0 -54.5 -22.5t-21.5 -57.5q0 -38 19.5 -59.5t54.5 -21.5q35 1 54.5 21.5t19.5 57.5z" />
    <glyph glyph-name="seven" unicode="7" horiz-adv-x="769" 
d="M366 683h-140.5t-140.5 -1q-25 19 -40.5 49.5t-21 66t0 71t23 64t48 47t74.5 18.5h112.5h103h101h106.5q40 0 72 -21t50 -58t21 -88t-15 -110q-23 -76 -52 -162t-63 -177t-74 -185.5t-86 -188.5q-32 -17 -72 -22t-79.5 2.5t-73.5 28.5t-54 55t-21.5 82t25.5 110
q15 36 38 87.5t49.5 109t54.5 115.5t54 107z" />
    <glyph glyph-name="eight" unicode="8" horiz-adv-x="851" 
d="M191 523q-43 27 -74.5 62t-46.5 83q-12 40 -10.5 80t15.5 76.5t38.5 68t59.5 54.5q49 32 114.5 47.5t134.5 15t135 -17t115 -48.5q50 -33 77.5 -85t31.5 -108.5t-16.5 -111t-66.5 -91.5q-8 -5 -13.5 -9.5t-13.5 -10.5q10 -8 20.5 -15t20.5 -14q40 -31 65.5 -70.5t36 -83
t7 -88t-21 -85.5t-49 -76t-76.5 -59q-56 -30 -115.5 -42.5t-122.5 -12.5q-64 0 -125 9.5t-120 36.5q-151 69 -160 238q-4 82 33 141t104 101q5 5 10 8t13 7zM431 215q45 0 68 22t23 62t-23.5 63.5t-64.5 23.5q-40 0 -67 -24.5t-27 -62.5t24 -61t67 -23zM429 779
q-35 0 -53.5 -16.5t-19.5 -45.5t18.5 -46t54.5 -17q31 0 49.5 17.5t17.5 44.5q0 29 -18 46t-49 17z" />
    <glyph glyph-name="nine" unicode="9" horiz-adv-x="832" 
d="M390 366q-15 -3 -30 -6.5t-29 -5.5q-52 -6 -99 6t-85 39t-64.5 68t-38.5 92q-12 49 -13 98.5t11 100.5q17 76 62 130t118 83q80 35 161.5 39t164.5 -28q109 -40 167 -119.5t73 -192.5q16 -126 -19.5 -239t-105.5 -216q-40 -59 -95.5 -118t-114.5 -101q-46 -15 -86 -11.5
t-71 21t-50 45.5t-22.5 61.5t11 70t50.5 70.5q21 19 35 32t25 24t21 24t24 33zM472 659q0 38 -18.5 59.5t-52.5 21.5t-54.5 -21.5t-20.5 -55.5q0 -37 19.5 -60t51.5 -23q33 -1 54 21.5t21 57.5z" />
    <glyph glyph-name="colon" unicode=":" horiz-adv-x="448" 
d="M213 -13q-15 2 -30.5 4t-30.5 5q-59 14 -93.5 51t-39.5 96q-6 51 3 101q8 47 36.5 77t73.5 44q66 23 133 8q34 -8 61.5 -26t46.5 -43.5t27.5 -57.5t5.5 -68q-2 -20 -5.5 -41t-11.5 -40q-21 -54 -66.5 -81.5t-109.5 -28.5zM235 544q-15 2 -30.5 4t-30.5 6q-59 13 -93 50
t-40 97q-6 51 3 100q8 48 36.5 78t73.5 44q67 22 133 7q34 -8 61.5 -25.5t46.5 -43t27.5 -57.5t5.5 -68q-2 -21 -5.5 -41.5t-11.5 -39.5q-21 -54 -66.5 -81.5t-109.5 -29.5z" />
    <glyph glyph-name="semicolon" unicode=";" horiz-adv-x="455" 
d="M237 541q-16 2 -31 4t-30 5q-59 14 -93.5 51t-40.5 97q-5 50 3 100q8 47 37 77.5t74 44.5q67 22 133 7q34 -8 61.5 -25.5t46.5 -43t27.5 -57.5t5.5 -68q-2 -21 -5.5 -41.5t-11.5 -40.5q-21 -54 -67 -81.5t-109 -28.5zM157 -15q-50 15 -79.5 47t-42 70.5t-10 78.5t17.5 72
q21 48 62 78t114 32q48 1 83.5 -15t59 -44t35.5 -64t13 -74q1 -49 -13.5 -99t-36.5 -96t-48 -86t-50 -69q-31 -39 -67 -52.5t-66.5 -9.5t-51 22t-20.5 42q25 48 51.5 87t48.5 80z" />
    <glyph glyph-name="less" unicode="&#x3c;" horiz-adv-x="748" 
d="M482 469q35 -37 71.5 -77.5t68.5 -80t57 -75t37 -62.5q-5 -31 -22.5 -63t-44.5 -57.5t-62.5 -42t-76.5 -18t-86 15.5t-92 59q-31 27 -64 59t-64.5 65t-61 66.5t-52.5 65.5t-38 68.5t-16 77t14.5 84.5t52.5 90q29 36 76.5 82.5t103.5 94.5t115.5 94.5t113.5 83.5
q32 0 62.5 -15t54.5 -41t40 -62t18 -78t-12 -88.5t-49 -93.5q-18 -24 -57 -65t-87 -87z" />
    <glyph glyph-name="equal" unicode="=" horiz-adv-x="975" 
d="M262 924q31 5 76 8t98.5 3.5t112 -0.5t116 -3.5t111 -7.5t96.5 -11q23 -22 35.5 -53.5t13 -67t-12.5 -72.5t-39.5 -69.5t-68.5 -57t-100 -35.5q-23 -5 -67.5 -8.5t-101 -6t-119 -3t-122 1.5t-109.5 6.5t-81 13.5q-21 23 -34.5 56.5t-16 70.5t7 75t34.5 70.5t67 56
t104 33.5zM262 469q31 5 76 7.5t98.5 3.5t112 0t116 -4t111 -7.5t96.5 -10.5q23 -22 35.5 -53.5t13 -67t-12.5 -72.5t-39.5 -69.5t-68.5 -57.5t-100 -36q-23 -4 -67.5 -8t-101 -6t-119 -2.5t-122 1t-109.5 6.5t-81 13q-21 24 -34.5 57.5t-16 70.5t7 75t34.5 70.5t67 56.5
t104 33z" />
    <glyph glyph-name="greater" unicode="&#x3e;" horiz-adv-x="766" 
d="M270 523q-35 37 -71.5 78t-68.5 80.5t-57 75t-37 62.5q5 31 22.5 62.5t44.5 57.5t62.5 42.5t76.5 17.5t86 -16t92 -58q31 -28 64 -59.5t64.5 -65t60.5 -67t52 -65.5q24 -32 39 -68.5t16 -77t-14.5 -84.5t-52.5 -90q-29 -36 -76.5 -82.5t-103.5 -94.5t-115.5 -94.5
t-113.5 -83.5q-32 0 -62.5 15t-54.5 41.5t-40 62t-18 77.5t12 88.5t49 93.5q18 24 56.5 65t87.5 87z" />
    <glyph glyph-name="question" unicode="?" horiz-adv-x="748" 
d="M338 -47q-14 2 -28.5 4t-28.5 5q-56 13 -88 48t-38 92q-5 47 3 94q8 45 34.5 73t69.5 42q63 20 126 7q66 -15 102 -65t31 -119q-2 -20 -5.5 -39t-10.5 -37q-20 -51 -63.5 -77t-103.5 -28zM616 584q-11 -11 -30 -27t-38 -38t-34 -50t-17 -62q-20 -28 -51.5 -44t-67 -21.5
t-71.5 0.5t-64 22.5t-44.5 44t-12.5 65.5q4 46 21 75.5t42 54.5t56.5 53t64.5 73q12 16 15 33.5t-3 32t-20 23t-36 7.5q-23 -2 -42.5 -17t-46.5 -44q-18 -18 -42.5 -24.5t-50 -1t-49 22.5t-39 45t-20 67t7.5 88q26 35 62.5 61.5t78 44.5t83.5 27t78 9q86 0 152.5 -25
t112 -66.5t70 -96t25.5 -112t-21 -115t-69 -105.5z" />
    <glyph glyph-name="at" unicode="@" horiz-adv-x="1192" 
d="M1095 723q37 -98 40.5 -204t-28.5 -207q-4 -12 -12.5 -33t-22 -45t-32 -48.5t-43 -44t-54.5 -32t-66 -11.5q-45 0 -79.5 12.5t-61 33.5t-44.5 50t-30 63q-35 -8 -75.5 -5.5t-71.5 10.5q-60 15 -98 53t-55 97q-23 82 1 163q13 44 42 75t68 50t86 27.5t96 7.5
q28 -1 51.5 -6t41 -18.5t27.5 -37.5t11 -62q2 -50 0 -100.5t0 -85.5q4 -65 18 -96t56 -29q21 0 39 23.5t30.5 58t18.5 74.5t3 74q-7 91 -40 156t-82 105.5t-109 59.5t-120 19q-63 0 -125.5 -23t-111 -71t-76 -121.5t-21.5 -175.5q6 -98 48 -163.5t99 -103.5t118 -53t106 -12
q39 -19 56 -48t15 -56.5t-21 -47.5t-52 -22q-85 -5 -157 11t-130.5 45t-104.5 68t-78.5 81.5t-53 84.5t-28.5 77q-23 100 -20 197t45 193q24 54 61 106t92 92.5t131 67t178 29.5q76 3 130.5 -1t96.5 -15.5t77 -31.5t73 -50q103 -82 148 -204zM626 410q2 0 4.5 0.5t4.5 0.5
q-2 46 -3 86.5t-2 90.5q-49 2 -76.5 -23t-27.5 -91q6 -41 35.5 -55t64.5 -9z" />
    <glyph glyph-name="A" unicode="A" 
d="M15 302q10 50 25.5 111t34.5 125t40 128.5t42.5 122.5t41 106t35.5 79q34 11 80 22t97.5 15.5t105.5 -1.5t103.5 -28.5t91.5 -65.5t71 -112q13 -33 30.5 -82.5t36 -109.5t37.5 -126t36.5 -132t32 -128.5t23.5 -115.5q-4 -27 -29 -53.5t-62.5 -45t-83 -24.5t-88.5 7.5
t-79 51t-56 105.5q-48 2 -98.5 0.5t-98.5 0.5q-13 -32 -24.5 -68.5t-22.5 -75.5q-92 -34 -160 -24t-109.5 52t-55 111.5t2.5 154.5zM423 438h123q-14 61 -29 120.5t-29 119.5q-3 -1 -9 -1q-14 -60 -28 -118.5t-28 -120.5z" />
    <glyph glyph-name="B" unicode="B" horiz-adv-x="858" 
d="M697 527q67 -23 104 -81.5t35 -140.5q-1 -75 -30 -135.5t-82.5 -103t-131 -65.5t-175.5 -23q-177 0 -273 80t-113 236q-7 59 -9 140.5t0 170.5t6.5 178t11.5 164q40 24 94 39.5t114.5 23t123.5 8t120 -6.5t104.5 -20.5t77.5 -33.5q60 -40 89.5 -95t33.5 -113t-17 -112.5
t-63 -91.5q-4 -4 -8.5 -8t-11.5 -10zM377 281q18 -10 40.5 -10.5t42.5 8.5q22 9 30.5 27.5t6.5 42.5q-2 20 -14.5 33t-31.5 18q-15 3 -37 2.5t-36 -14.5q-2 -26 -1.5 -53t0.5 -54zM370 634q12 -7 27 -8.5t28 4t22 19t9 37.5q-1 21 -12.5 31.5t-26 14t-28 0t-19.5 -10.5
q-6 -14 -7 -39t7 -48z" />
    <glyph glyph-name="C" unicode="C" 
d="M663 684q-23 6 -43 8t-38.5 0t-37.5 -9t-39 -20q-27 -17 -43.5 -39t-25 -47.5t-9.5 -54t3 -57.5q6 -44 26 -74t49.5 -46.5t66 -21.5t74.5 1q25 3 53 14t52.5 24t44 25t28.5 18q35 -7 65 -30t48.5 -56t24 -73.5t-9 -81.5t-50.5 -79.5t-100 -68.5q-40 -19 -91 -27.5
t-104.5 -9t-106.5 5.5t-96 17q-131 34 -213 116.5t-119 210.5q-25 89 -26 177.5t29 177.5q34 100 101 167.5t161 114.5q63 30 132 44.5t143 10.5t152 -28t159 -70q19 -72 -1 -125.5t-61 -85.5t-95 -40t-103 12z" />
    <glyph glyph-name="D" unicode="D" horiz-adv-x="999" 
d="M965 524q0 -46 -8.5 -104t-31 -118.5t-60.5 -118.5t-96 -103.5t-139 -73t-190 -27.5q-90 0 -157 13t-112.5 43.5t-71 79.5t-31.5 121q-11 123 -10.5 305.5t13.5 409.5q41 24 97 39.5t118 22.5t126.5 6t123.5 -8t109 -20t83 -30q121 -64 179 -169.5t58 -267.5zM464 259
q29 1 57.5 15t51.5 45.5t37 83t14 127.5q0 73 -21 118.5t-52.5 69t-67.5 29t-66 -0.5v-47.5t-0.5 -72.5t-0.5 -87v-91v-85t1 -68q0 -12 5.5 -19t13 -10.5t15 -5t13.5 -1.5z" />
    <glyph glyph-name="E" unicode="E" horiz-adv-x="842" 
d="M55 231q-2 34 -3 92t-1 128.5t1.5 148t4 150.5t6 136.5t8.5 105.5q42 4 99 6.5t122.5 3.5t135.5 1t136 -1.5t125 -4.5t104 -6q9 -13 16.5 -40.5t7.5 -61t-9 -69t-31.5 -64.5t-62 -47.5t-99.5 -18.5h-206v-52q22 0 61 1.5t83 1t88 -4.5t76 -14q22 -50 25 -95t-14 -80
t-53 -56.5t-91 -24.5q-19 -1 -35.5 -1h-35.5t-43.5 0.5t-59.5 0.5v-61h23h321q28 -40 36.5 -89t-7 -94t-57 -79t-112.5 -43q-21 -3 -55 -5t-74 -3t-83 -0.5t-82.5 1.5t-71.5 4t-50 7q-71 18 -104 71.5t-39 155.5z" />
    <glyph glyph-name="F" unicode="F" horiz-adv-x="852" 
d="M58 186q-4 35 -6 96.5t-2.5 136.5t1 157.5t4.5 160t7 144t9 108.5q41 4 98.5 6.5t123 3.5t135 0.5t136 -2t126 -4.5t103.5 -6q9 -13 16.5 -40.5t7.5 -61t-9 -68.5t-31.5 -64t-62 -47.5t-99.5 -18.5h-206v-119q22 0 61 1.5t83 1t88 -4.5t76 -14q22 -50 25 -100.5t-14 -92
t-53 -68.5t-91 -29q-19 -1 -35.5 -1h-35.5t-43.5 0.5t-59.5 0.5v-22.5v-40t-0.5 -50t-1 -51t-1 -45t-1.5 -30.5q-22 -16 -54 -24.5t-68.5 -8t-74 11.5t-69 34t-54 60t-28.5 90z" />
    <glyph glyph-name="G" unicode="G" horiz-adv-x="1040" 
d="M651 676q-45 11 -80.5 7.5t-75.5 -29.5q-26 -16 -42.5 -38t-25 -47.5t-9.5 -53.5t3 -56q8 -69 50 -105t96 -35q41 0 63.5 17t33 43.5t13 58t3.5 60.5q12 16 40 25.5t63.5 10.5t73.5 -7t70.5 -26.5t54 -49t24.5 -73.5q2 -32 -4.5 -73.5t-25.5 -85.5t-51.5 -85.5
t-83.5 -74.5t-121.5 -53t-164.5 -20q-122 0 -207 31t-141.5 78t-89 104t-50.5 108q-30 86 -28.5 183.5t30.5 185.5q33 99 99.5 166t160.5 112q62 30 130.5 44.5t142 11t150.5 -27.5t157 -70q18 -71 -1.5 -124.5t-60.5 -85t-94 -39t-102 12.5z" />
    <glyph glyph-name="H" unicode="H" horiz-adv-x="1034" 
d="M419 654h192q1 42 1.5 87.5t1 87t2.5 76t5 54.5q31 24 70 35.5t80 10.5t80 -15t69.5 -39.5t49 -62t18.5 -84.5v-67v-95.5v-116v-129t-0.5 -134.5t-0.5 -131q0 -26 -0.5 -57.5t-2.5 -48.5q-11 -13 -41 -23t-69 -14.5t-81.5 -1.5t-79.5 18t-63 43.5t-32 73.5
q-3 19 -4.5 48.5t-2.5 60t-1.5 58t-0.5 43.5h-187v-307q-14 -13 -45.5 -24t-71.5 -16t-83 -0.5t-79.5 24.5t-62 58t-29.5 99q-2 27 -4 83t-4 127.5t-3.5 152t-1.5 158t1 145.5t4 113q33 27 72.5 41.5t80 16t78.5 -8t68.5 -29.5t50 -49.5t23.5 -67.5q3 -33 4 -66t1 -60
t-1 -45t-1 -22z" />
    <glyph glyph-name="I" unicode="I" horiz-adv-x="478" 
d="M411 804q4 -30 7 -87t3.5 -129t-0.5 -152t-4 -156t-7 -141t-10 -107q-21 -23 -52 -35t-65.5 -12t-71 12t-68 38.5t-55.5 67t-35 96.5q-4 22 -7.5 79t-6 131.5t-3 158.5t1.5 161.5t6.5 139.5t12.5 93q23 20 56 33t69 15.5t73 -7t68.5 -34t55 -65t32.5 -100.5z" />
    <glyph glyph-name="J" unicode="J" horiz-adv-x="776" 
d="M706 832q7 -44 12.5 -110t6.5 -143.5t-5 -159.5t-22 -157q-19 -89 -73.5 -150t-128.5 -93.5t-159.5 -35.5t-166.5 26q-50 18 -81.5 48.5t-46.5 67t-14 75t16 72.5t42 60t64 38q20 -12 52 -16.5t62 4.5t51 36t20 78q-2 66 -4 139t-4 140.5t-2.5 123t0.5 86.5
q23 20 57 34.5t73.5 19.5t80 -1t75.5 -27t60.5 -59t34.5 -96z" />
    <glyph glyph-name="K" unicode="K" horiz-adv-x="976" 
d="M416 634q12 19 22.5 35t20.5 33t21 36.5t25 46.5q12 22 29 53.5t35 64t36 63t32 51.5q35 7 73 2t72.5 -20t62.5 -40t43.5 -57t16 -70t-20.5 -81q-20 -41 -34.5 -65t-29.5 -44.5t-32 -44t-41 -61.5q-11 -16 -1 -34q27 -51 57.5 -103t58.5 -101.5t51.5 -95t37.5 -82.5
q-10 -32 -34.5 -61t-58 -49.5t-73.5 -29t-79 -1t-75.5 34.5t-62.5 79q-16 31 -37.5 72.5t-56.5 110.5q-9 -14 -18 -28.5t-16.5 -28.5t-13.5 -26t-7 -20q-3 -16 -2.5 -55t4.5 -81q-22 -18 -54.5 -29.5t-70 -14.5t-76 4t-71 25t-55 48.5t-28.5 74.5q-6 41 -10.5 104.5
t-7.5 137.5t-4.5 154.5t-1 156.5t3 142.5t7.5 113.5q20 25 54 41.5t74 22.5t81 0.5t74.5 -24.5t55.5 -51.5t24 -81.5q2 -44 2.5 -69.5t0.5 -44.5t-1 -38.5t-2 -51.5q-1 -4 -0.5 -9t0.5 -14z" />
    <glyph glyph-name="L" unicode="L" horiz-adv-x="905" 
d="M667 3q-54 -4 -108.5 -4t-99.5 1q-53 1 -102 3q-39 0 -86 6.5t-90 28.5t-76 65t-44 117q-5 35 -9.5 86t-7.5 112t-3.5 129t1.5 137.5t7.5 138t15.5 130.5q23 21 56.5 34t70.5 15.5t74.5 -6.5t69 -34t54 -66.5t29.5 -102.5q4 -44 6.5 -102t3.5 -119t0 -120t-2 -106
q34 3 83 3.5t105 -0.5t114.5 -5t111.5 -10q20 -38 25 -76.5t-3 -74.5t-26.5 -68t-44.5 -56t-58 -39t-67 -17z" />
    <glyph glyph-name="M" unicode="M" horiz-adv-x="1273" 
d="M639 481q2 5 3.5 9.5t2.5 9.5q23 100 46.5 199t46.5 199q4 14 9 28.5t10 29.5q60 39 126 45t122.5 -17t96.5 -73t50 -124q4 -29 9.5 -76.5t12.5 -102.5t13.5 -111t11.5 -100q10 -85 19 -162t19 -162q-41 -53 -96.5 -72.5t-107.5 -10t-90.5 46t-45.5 96.5q-5 45 -6.5 78
t-2 66.5t-1 73t-2.5 96.5q-2 1 -7 1q-3 -16 -6 -31t-7 -31q-20 -88 -40.5 -174.5t-42.5 -174.5q-17 -10 -44 -18.5t-58.5 -12t-65.5 0t-63.5 17.5t-52.5 39.5t-33 66.5q-9 36 -21 87t-23.5 100.5t-21.5 88.5t-14 52q-4 -57 -7.5 -109.5t-7 -104t-7 -104.5t-7.5 -111
q-61 -33 -124 -39.5t-111.5 20.5t-73 90.5t-9.5 170.5q12 89 31.5 180t33.5 180q14 84 29 166t29 165q19 18 51 30.5t70 17t79 -1.5t77.5 -25t65.5 -53t43 -86q7 -26 15.5 -59.5t17 -70t17.5 -74.5t17 -73q1 -2 4 -15t6 -28t6 -28t4 -15h5z" />
    <glyph glyph-name="N" unicode="N" horiz-adv-x="1079" 
d="M652 562v374q30 37 69 55.5t79 21t78.5 -9.5t68.5 -35.5t48.5 -58t18.5 -76.5q0 -31 0.5 -86.5t1 -126t1 -149.5t0 -156t-2.5 -146.5t-6 -119.5q-32 -32 -85.5 -50t-113.5 -14t-120 33.5t-106 92.5q-21 29 -43.5 66t-43 73t-36.5 65t-25 43q-2 5 -5.5 8.5t-6.5 8.5
q-2 0 -3.5 -0.5t-3.5 -0.5q1 -45 3 -82t3.5 -74.5t2.5 -78.5t0 -95q-41 -34 -83.5 -48t-82.5 -13.5t-75.5 14t-62 35.5t-42.5 50t-17 58q-2 62 -3.5 137t-2.5 154.5t-1 158.5t0.5 147.5t2.5 122t5 83.5q36 30 89 48.5t109.5 16t109.5 -30t89 -87.5q26 -44 46.5 -79.5
t40 -70.5t40.5 -72.5t48 -85.5q3 -6 6.5 -11.5t6.5 -10.5q1 1 2 1t2 1z" />
    <glyph glyph-name="O" unicode="O" horiz-adv-x="1120" 
d="M553 1020q85 0 152 -17t118.5 -45t88.5 -62.5t62 -69.5t40 -65.5t23 -50.5q35 -97 41.5 -193.5t-23.5 -196.5q-82 -263 -349 -326q-109 -26 -213.5 -16.5t-204.5 61.5q-96 49 -152 127.5t-79 181.5q-11 48 -15 99t-1 100.5t13 95.5t28 85q24 53 61.5 105t94.5 93.5
t134.5 67.5t180.5 26zM558 662q-28 0 -53 -11.5t-43.5 -34.5t-28.5 -57t-7 -79q3 -44 17 -73.5t34 -48t42.5 -26t42.5 -5.5q20 1 41 10t38.5 27.5t30 48t14.5 71.5q3 42 -7 75.5t-28 56t-42 34.5t-51 12z" />
    <glyph glyph-name="P" unicode="P" horiz-adv-x="970" 
d="M789 354q-57 -42 -116 -58t-108.5 -17t-82.5 6t-39 11h-2l-4 -2l-1 -2v-35.5t-1 -70.5t-3 -87.5t-6 -86.5q-21 -23 -52 -36t-67 -14t-73 10t-69.5 36t-57.5 64.5t-36 96.5q-4 22 -7 79.5t-4.5 133t-1 160.5t3 163.5t7.5 141t13 92.5q22 21 69 39.5t109 31t134 17.5
t143.5 -1t137.5 -24t116 -52q40 -27 69 -71t45.5 -97.5t19 -113t-11 -117t-44 -109t-80.5 -88.5zM590 638q0 15 -11 30t-29.5 24t-42 8.5t-48.5 -15.5v-55.5t1 -49.5q0 -3 4 -7.5t7 -4.5h37.5t37.5 4q44 7 44 66z" />
    <glyph glyph-name="Q" unicode="Q" horiz-adv-x="1188" 
d="M1126 152q14 -19 15.5 -47t-7.5 -59.5t-27 -62.5t-43 -55.5t-56 -38.5t-65 -12q-63 5 -114 35.5t-98 83.5q-3 -1 -5.5 -1t-4.5 -1q-109 -26 -214 -16.5t-205 61.5q-96 49 -152 127.5t-79 181.5q-23 97 -19.5 192.5t44.5 187.5q24 53 61.5 104.5t94 92.5t134 67t181.5 28
q56 1 102 -5.5t86.5 -20.5t77 -35.5t73.5 -50.5q100 -78 145 -198q35 -97 42 -193.5t-24 -196.5q-25 -79 -64 -137q26 -9 56 -17t65 -14zM440 480q3 -44 17 -73.5t34 -48t42.5 -26t42.5 -5.5q20 1 41 10t38.5 27.5t30 48t14.5 71.5q3 42 -7 75.5t-28 56t-42 34.5t-51 12
q-28 0 -53 -11.5t-43.5 -34.5t-28.5 -57t-7 -79z" />
    <glyph glyph-name="R" unicode="R" horiz-adv-x="997" 
d="M781 372q18 -17 43.5 -50.5t51 -72t46.5 -75.5t29 -59q-8 -43 -31.5 -74t-56.5 -48t-73 -19.5t-80.5 11t-78.5 43.5t-67 78q-9 15 -20 31.5t-24.5 37.5t-30.5 48t-40 63l-8 12t-8 11q-4 -2 -7 -2q0 -14 -0.5 -29t-1.5 -31q-2 -31 -3.5 -62t-4 -60t-4.5 -54.5t-5 -43.5
q-31 -34 -83 -44t-105 8.5t-97.5 68t-60.5 134.5q-4 22 -8 77t-6 127t-2.5 153t1 155.5t6.5 135t13 90.5q22 21 69 39.5t109 31t134 17.5t143.5 -0.5t137.5 -24t116 -51.5q40 -27 73 -67t55 -88.5t30.5 -101.5t-1.5 -106.5t-41 -103.5t-88 -92q-8 -6 -21 -13zM573 628
q0 18 -10 33t-27 23t-41.5 7t-52.5 -14v-27.5v-21.5v-20.5v-23.5q0 -3 4.5 -7.5t7.5 -4.5h37.5t36.5 4q23 4 34 17.5t11 34.5z" />
    <glyph glyph-name="S" unicode="S" horiz-adv-x="942" 
d="M730 563q63 -39 98.5 -89.5t47.5 -105t3 -109t-34 -102.5t-63.5 -85t-85.5 -56q-33 -13 -79.5 -23.5t-100.5 -15t-113 -2t-117 14.5t-112.5 35.5t-99.5 60.5q-24 30 -31.5 66t-1.5 70t24.5 63t46.5 46.5t63.5 19t76.5 -18.5q53 -26 102.5 -39.5t89 -15t65.5 9.5t32 34
q8 30 -12.5 50t-77.5 24q-61 4 -122.5 20t-113.5 47.5t-89 80t-49 119.5q-3 21 -1.5 50.5t10.5 62.5t27 67t48 65.5t73.5 57.5t103.5 42q49 13 106 17t111.5 -1t103 -19t80.5 -35q44 -29 66.5 -61.5t28.5 -65t-2.5 -63.5t-26.5 -56t-43.5 -42.5t-54.5 -24.5q-18 22 -49 39.5
t-66 29t-71.5 16t-66 0.5t-48.5 -16t-19 -34q0 -17 14 -27t52 -15q55 -7 100 -18.5t80 -23.5t59 -24t38 -20z" />
    <glyph glyph-name="T" unicode="T" horiz-adv-x="983" 
d="M899 998q13 -18 23 -48.5t12.5 -66.5t-5 -74t-28 -69.5t-57 -53t-92.5 -24.5q-26 -2 -43.5 -3t-21.5 -1q2 -46 2.5 -101t0 -113t-2 -116.5t-4.5 -112.5t-6.5 -101t-8.5 -81q-21 -23 -52 -35.5t-65.5 -13t-71 12.5t-68 39.5t-55.5 68.5t-35 100q-4 21 -7.5 67.5
t-5.5 108.5t-3 134t0 144q-51 -4 -103.5 -3.5t-101.5 10.5q-16 21 -25 52.5t-9.5 67t9 71.5t30.5 65.5t54 49.5t81 23q31 2 84.5 3t117 1h132.5t131.5 -0.5t113.5 -0.5h80z" />
    <glyph glyph-name="U" unicode="U" horiz-adv-x="1093" 
d="M1021 340q-11 -96 -56.5 -165t-111 -114t-144.5 -66.5t-157 -21.5q-52 0 -105.5 4.5t-104 18t-96.5 38t-82.5 65t-62.5 98.5t-37 139q-10 68 -12 146t1.5 160t11.5 164.5t19 160.5q11 12 40.5 22.5t68.5 14.5t81.5 1t79.5 -18t63.5 -43.5t32.5 -73.5q2 -13 2 -48
t0.5 -82.5t1 -103t2 -111t5 -105.5t9.5 -86q6 -33 28 -52t48 -20.5t49.5 17t31.5 59.5q6 30 11 76t8 100.5t4 114t-0.5 116.5t-5.5 108t-11 89q19 20 54.5 34.5t77.5 20t86.5 -1t82 -28.5t63 -61.5t31.5 -100.5q3 -34 6 -62.5t5 -57t2.5 -60t-1.5 -71.5t-6.5 -92t-12.5 -122
z" />
    <glyph glyph-name="V" unicode="V" horiz-adv-x="1052" 
d="M571 570h-3h3zM216 193q-13 33 -28 83t-30 110t-30 127t-28.5 133.5t-26 129.5t-21.5 116q9 32 36 58.5t63.5 42.5t78 20t79 -9t66.5 -45.5t41 -88.5q16 -76 30.5 -154t26 -149t20.5 -132.5t14 -104.5h9q14 60 27.5 119t27.5 121q12 53 25 118.5t24.5 127t21 110
t14.5 68.5q91 34 157 24.5t105.5 -52t52 -112t-3.5 -154.5q-9 -51 -24 -112t-33 -125.5t-38 -130t-40 -124t-39 -107t-35 -79.5q-34 -11 -79.5 -22t-96.5 -15.5t-104 1.5t-101.5 28.5t-90.5 65.5t-70 113z" />
    <glyph glyph-name="W" unicode="W" horiz-adv-x="1526" 
d="M1151 971q41 20 84.5 29.5t85 7.5t77 -16t61 -41.5t37.5 -68.5t5 -97q-5 -43 -16.5 -105t-27 -133.5t-33.5 -147.5t-36.5 -146.5t-35.5 -130t-31 -98.5q-34 -11 -81 -24.5t-99.5 -21.5t-106.5 -6t-102 23.5t-86 67t-59 123.5q-9 34 -14.5 63.5t-10 61t-8 68.5t-8.5 85
h-12q-11 -91 -25 -203.5t-29 -226.5q-34 -11 -80 -24t-97.5 -21t-105 -7t-102.5 19.5t-91 58t-69 107.5q-13 32 -23.5 82t-19.5 111t-17 130t-15 140t-14 140.5t-14 132.5q9 31 38.5 55.5t68.5 38.5t82.5 15.5t81.5 -13.5t65 -48.5t33 -89.5q9 -86 13.5 -162t7 -141
t4.5 -119.5t7 -96.5h10l28 116t28 118q13 52 29.5 115t32.5 121.5t29 105t18 65.5q19 7 46.5 14t58 10.5t62.5 1.5t60 -13.5t50 -34.5t34 -61q38 -122 74.5 -265.5t78.5 -298.5q3 1 9 1q7 38 14 90.5t14 111.5t13 120.5t11.5 119.5t10 107.5t7.5 84.5z" />
    <glyph glyph-name="X" unicode="X" horiz-adv-x="940" 
d="M752 472q12 -27 32 -68t42 -86t43 -91t35 -84q-3 -35 -23 -67.5t-51 -56t-70 -34.5t-79 -3t-78 37t-67 86q-13 26 -31.5 69.5t-38.5 92.5q-18 -41 -36.5 -82t-34.5 -77l-28 -63t-18 -40q-69 -16 -119 -11.5t-84 22.5t-54 45t-29 57t-8.5 59.5t7.5 50.5q12 38 28 71.5
t33 64t34 58.5t31 55q3 6 2.5 14.5t-3.5 14.5q-41 89 -82 177l-82 176q6 35 29.5 63.5t57 47.5t72.5 27.5t76 4.5t68 -22t48 -51q27 -53 52.5 -112t48.5 -116q35 72 76 150t85 146q47 16 101 6.5t95.5 -41.5t59.5 -84.5t-7 -122.5q-12 -32 -26.5 -61t-31 -59t-35 -62.5
t-37.5 -70.5q-4 -7 -4.5 -15.5t1.5 -14.5z" />
    <glyph glyph-name="Y" unicode="Y" horiz-adv-x="949" 
d="M501 616q4 9 15 35t26 62t33 78.5t35.5 83t33.5 76t28 58.5q54 15 108 3t92 -45.5t51 -86.5t-15 -120q-25 -58 -50 -107t-52 -99t-56.5 -106t-62.5 -127q-15 -27 -15 -55v-72.5t-1 -75t-1.5 -61t-0.5 -31.5q-11 -15 -41.5 -26t-70 -15t-83 1t-80 24t-61.5 54t-27 89v27
v37.5t0.5 35.5t0.5 21q-1 13 -3.5 20.5t-7.5 18.5q-30 58 -66.5 130t-73.5 148.5t-71 152t-61 140.5q25 60 72 92.5t97 39.5t93.5 -9t63.5 -53q16 -30 33.5 -70.5t34.5 -83t33 -83t30 -71.5q3 -8 6 -14.5t6 -14.5q6 0 8 -1z" />
    <glyph glyph-name="Z" unicode="Z" horiz-adv-x="949" 
d="M467 337q40 0 90 1t105.5 1t114.5 -2t117 -9q30 -56 26 -113t-30.5 -103.5t-71 -77t-96.5 -34.5t-112.5 -4.5t-113.5 -0.5q-62 0 -122 2q-25 0 -57 1.5t-66 8t-66.5 19.5t-59 36t-44 56.5t-20.5 82.5q-4 67 19 126.5t66 117.5t102 115.5t126 120.5q-53 0 -102.5 -2
t-90.5 -3.5t-70.5 -1.5t-40.5 2q-16 20 -25 51t-9 66t9 70.5t29.5 65t53 48.5t79.5 22q31 2 81 3t110 1h124.5t123.5 -0.5t107.5 -1t76.5 -0.5q16 -19 29 -49.5t16 -68t-6 -79.5t-36 -84q-16 -25 -42 -57t-58.5 -67t-68.5 -71.5t-71.5 -71t-68 -64.5t-57.5 -52z" />
    <glyph glyph-name="bracketleft" unicode="[" horiz-adv-x="658" 
d="M338 -13q82 -1 142 -2t85 -3q31 -50 38 -100t-14.5 -92t-73 -72t-138.5 -38q-15 -2 -36 -3.5t-44.5 -2t-48 0.5t-47.5 5q-32 5 -61 17.5t-52.5 38.5t-39.5 68.5t-20 107.5q-1 9 -1 62.5t0.5 136.5t2 189t4 221t6 231.5t8.5 220.5t11 188.5t14 135.5q26 14 65.5 22.5
t86 13t96.5 4.5t96 -2.5t85 -7t63 -10.5q31 -49 38 -99t-14.5 -92.5t-73 -72t-138.5 -38.5q-5 0 -9.5 -0.5t-9.5 -0.5q0 -48 -1 -124.5t-2.5 -168.5t-3.5 -193.5t-4 -199.5t-4.5 -186.5t-4.5 -154.5z" />
    <glyph glyph-name="backslash" unicode="\" horiz-adv-x="864" 
d="M459 -2q-9 17 -13.5 27.5t-8 20t-7 20.5t-10.5 29q-33 85 -69.5 174.5t-74 180t-74 179.5t-68.5 173t-58.5 161t-43.5 144q49 59 100.5 73.5t97 1t80.5 -46.5t51 -68q6 -14 27 -64.5t51.5 -125t68 -166.5t76 -188.5t75.5 -191t68 -174.5t53 -139.5t29 -84.5
q-35 -47 -79 -71.5t-91 -20t-93.5 41.5t-86.5 115z" />
    <glyph glyph-name="bracketright" unicode="]" horiz-adv-x="672" 
d="M307 1010q-82 0 -141.5 1.5t-85.5 4.5q-31 49 -38 99t14.5 92t73.5 72t139 38q15 1 36 3t44 2.5t48 -0.5t48 -5q31 -5 60.5 -17.5t52.5 -38.5t39 -68.5t20 -107.5q1 -9 1 -62.5t-0.5 -136.5t-2 -189.5t-4 -221t-6 -231t-8.5 -220.5t-11 -188.5t-14 -135.5
q-26 -14 -65.5 -22.5t-86 -13t-96.5 -4.5t-96 2.5t-85 7t-63 10.5q-31 49 -38 99t14.5 92t73.5 72t139 38q5 1 9 1.5t9 0.5q1 48 2 124.5t2.5 168.5t3.5 193.5t3.5 199.5t4 186.5t4.5 154.5z" />
    <glyph glyph-name="underscore" unicode="_" horiz-adv-x="1370" 
d="M236 370q23 4 74 6t120 3.5t151.5 1.5t168.5 -0.5t171 -2.5t158.5 -4.5t131.5 -6.5t90 -8q23 -22 36 -53.5t13 -67t-12.5 -72.5t-39.5 -69.5t-68.5 -57.5t-99.5 -36q-17 -3 -66.5 -6t-119.5 -5.5t-155.5 -4t-174.5 -1.5t-175.5 0.5t-160 3t-127.5 7t-77 10.5
q-21 24 -34.5 57.5t-16 70.5t7 75t34.5 70.5t67 56.5t104 33z" />
    <glyph glyph-name="grave" unicode="`" horiz-adv-x="421" 
d="M46 1321q3 31 22.5 61t48.5 47.5t64 18t68 -25.5t57 -64t40.5 -77.5t26 -76.5t12.5 -61q3 -31 -6.5 -52.5t-26.5 -32.5t-38.5 -11.5t-42.5 11.5q-29 29 -64 68.5t-67.5 78t-58 70.5t-35.5 46z" />
    <glyph glyph-name="a" unicode="a" 
d="M24 299q10 50 25 111t33 125.5t38 129.5t40 123t39 106.5t35 79.5q34 11 80 22t97.5 15.5t105.5 -1.5t103.5 -28.5t91.5 -65.5t71 -112q13 -33 30.5 -83t36.5 -110t38.5 -126.5t37 -133t32.5 -129t24 -115.5q-4 -27 -29 -53.5t-62.5 -45t-83 -24.5t-88.5 7.5t-79 51
t-56 105.5q-48 2 -98.5 0.5t-98.5 0.5q-13 -32 -24.5 -68.5t-22.5 -75.5q-92 -34 -159 -24t-107.5 52t-53 111.5t3.5 154.5zM423 438h123q-14 61 -29 120.5t-29 119.5q-3 -1 -9 -1q-14 -60 -28 -118.5t-28 -120.5z" />
    <glyph glyph-name="b" unicode="b" horiz-adv-x="858" 
d="M697 527q67 -23 104 -81.5t35 -140.5q-1 -75 -30 -135.5t-82.5 -103t-131 -65.5t-175.5 -23q-177 0 -273 80t-113 236q-7 59 -9 140.5t0 170.5t6.5 178t11.5 164q40 24 94 39.5t114.5 23t123.5 8t120 -6.5t104.5 -20.5t77.5 -33.5q60 -40 89.5 -95t33.5 -113t-17 -112.5
t-63 -91.5q-4 -4 -8.5 -8t-11.5 -10zM377 281q18 -10 40.5 -10.5t42.5 8.5q22 9 30.5 27.5t6.5 42.5q-2 20 -14.5 33t-31.5 18q-15 3 -37 2.5t-36 -14.5q-2 -26 -1.5 -53t0.5 -54zM370 634q12 -7 27 -8.5t28 4t22 19t9 37.5q-1 21 -12.5 31.5t-26 14t-28 0t-19.5 -10.5
q-6 -14 -7 -39t7 -48z" />
    <glyph glyph-name="c" unicode="c" 
d="M663 684q-23 6 -43 8t-38.5 0t-37.5 -9t-39 -20q-27 -17 -43.5 -39t-25 -47.5t-9.5 -54t3 -57.5q6 -44 26 -74t49.5 -46.5t66 -21.5t74.5 1q25 3 53 14t52.5 24t44 25t28.5 18q35 -7 65 -30t48.5 -56t24 -73.5t-9 -81.5t-50.5 -79.5t-100 -68.5q-40 -19 -91 -27.5
t-104.5 -9t-106.5 5.5t-96 17q-131 34 -213 116.5t-119 210.5q-25 89 -26 177.5t29 177.5q34 100 101 167.5t161 114.5q63 30 132 44.5t143 10.5t152 -28t159 -70q19 -72 -1 -125.5t-61 -85.5t-95 -40t-103 12z" />
    <glyph glyph-name="d" unicode="d" horiz-adv-x="999" 
d="M965 524q0 -46 -8.5 -104t-31 -118.5t-60.5 -118.5t-96 -103.5t-139 -73t-190 -27.5q-90 0 -157 13t-112.5 43.5t-71 79.5t-31.5 121q-11 123 -10.5 305.5t13.5 409.5q41 24 97 39.5t118 22.5t126.5 6t123.5 -8t109 -20t83 -30q121 -64 179 -169.5t58 -267.5zM461 296
q29 1 58 6t52 26.5t37.5 64.5t14.5 119q0 73 -21 110.5t-53 52t-68.5 12.5t-66.5 -8q0 -24 -0.5 -65t-0.5 -89.5v-99.5t1 -93q0 -12 5.5 -19t13 -10.5t15 -5t13.5 -1.5z" />
    <glyph glyph-name="e" unicode="e" horiz-adv-x="842" 
d="M55 231q-2 34 -3 92t-1 128.5t1.5 148t4 150.5t6 136.5t8.5 105.5q42 4 99 6.5t122.5 3.5t135.5 1t136 -1.5t125 -4.5t104 -6q9 -13 16.5 -40.5t7.5 -61t-9 -69t-31.5 -64.5t-62 -47.5t-99.5 -18.5h-206v-52q22 0 61 1.5t83 1t88 -4.5t76 -14q22 -50 25 -95t-14 -80
t-53 -56.5t-91 -24.5q-19 -1 -35.5 -1h-35.5t-43.5 0.5t-59.5 0.5v-61h23h321q28 -40 36.5 -89t-7 -94t-57 -79t-112.5 -43q-21 -3 -55 -5t-74 -3t-83 -0.5t-82.5 1.5t-71.5 4t-50 7q-71 18 -104 71.5t-39 155.5z" />
    <glyph glyph-name="f" unicode="f" horiz-adv-x="852" 
d="M58 186q-4 35 -6 96.5t-2.5 136.5t1 157.5t4.5 160t7 144t9 108.5q41 4 98.5 6.5t123 3.5t135 0.5t136 -2t126 -4.5t103.5 -6q9 -13 16.5 -40.5t7.5 -61t-9 -68.5t-31.5 -64t-62 -47.5t-99.5 -18.5h-206v-119q22 0 61 1.5t83 1t88 -4.5t76 -14q22 -50 25 -100.5t-14 -92
t-53 -68.5t-91 -29q-19 -1 -35.5 -1h-35.5t-43.5 0.5t-59.5 0.5v-22.5v-40t-0.5 -50t-1 -51t-1 -45t-1.5 -30.5q-22 -16 -54 -24.5t-68.5 -8t-74 11.5t-69 34t-54 60t-28.5 90z" />
    <glyph glyph-name="g" unicode="g" horiz-adv-x="1040" 
d="M651 676q-45 11 -80.5 7.5t-75.5 -29.5q-26 -16 -42.5 -38t-25 -47.5t-9.5 -53.5t3 -56q8 -69 50 -105t96 -35q41 0 63.5 17t33 43.5t13 58t3.5 60.5q12 16 40 25.5t63.5 10.5t73.5 -7t70.5 -26.5t54 -49t24.5 -73.5q2 -32 -4.5 -73.5t-25.5 -85.5t-51.5 -85.5
t-83.5 -74.5t-121.5 -53t-164.5 -20q-122 0 -207 31t-141.5 78t-89 104t-50.5 108q-30 86 -28.5 183.5t30.5 185.5q33 99 99.5 166t160.5 112q62 30 130.5 44.5t142 11t150.5 -27.5t157 -70q18 -71 -1.5 -124.5t-60.5 -85t-94 -39t-102 12.5z" />
    <glyph glyph-name="h" unicode="h" horiz-adv-x="1034" 
d="M419 654h192q1 42 1.5 87.5t1 87t2.5 76t5 54.5q31 24 70 35.5t80 10.5t80 -15t69.5 -39.5t49 -62t18.5 -84.5v-67v-95.5v-116v-129t-0.5 -134.5t-0.5 -131q0 -26 -0.5 -57.5t-2.5 -48.5q-11 -13 -41 -23t-69 -14.5t-81.5 -1.5t-79.5 18t-63 43.5t-32 73.5
q-3 19 -4.5 48.5t-2.5 60t-1.5 58t-0.5 43.5h-187v-307q-14 -13 -45.5 -24t-71.5 -16t-83 -0.5t-79.5 24.5t-62 58t-29.5 99q-2 27 -4 83t-4 127.5t-3.5 152t-1.5 158t1 145.5t4 113q33 27 72.5 41.5t80 16t78.5 -8t68.5 -29.5t50 -49.5t23.5 -67.5q3 -33 4 -66t1 -60
t-1 -45t-1 -22z" />
    <glyph glyph-name="i" unicode="i" horiz-adv-x="478" 
d="M411 804q4 -30 7 -87t3.5 -129t-0.5 -152t-4 -156t-7 -141t-10 -107q-21 -23 -52 -35t-65.5 -12t-71 12t-68 38.5t-55.5 67t-35 96.5q-4 22 -7.5 79t-6 131.5t-3 158.5t1.5 161.5t6.5 139.5t12.5 93q23 20 56 33t69 15.5t73 -7t68.5 -34t55 -65t32.5 -100.5z" />
    <glyph glyph-name="j" unicode="j" horiz-adv-x="776" 
d="M706 832q7 -44 12.5 -110t6.5 -143.5t-5 -159.5t-22 -157q-19 -89 -73.5 -150t-128.5 -93.5t-159.5 -35.5t-166.5 26q-50 18 -81.5 48.5t-46.5 67t-14 75t16 72.5t42 60t64 38q20 -12 52 -16.5t62 4.5t51 36t20 78q-2 66 -4 139t-4 140.5t-2.5 123t0.5 86.5
q23 20 57 34.5t73.5 19.5t80 -1t75.5 -27t60.5 -59t34.5 -96z" />
    <glyph glyph-name="k" unicode="k" horiz-adv-x="976" 
d="M416 634q25 39 47.5 74.5t45.5 69.5q14 21 35 52t43.5 63.5t43.5 63t35 51.5q53 11 104 -3.5t84.5 -48.5t42 -86t-22.5 -116q-20 -41 -33 -65.5t-26 -45.5t-28.5 -45t-39.5 -62q-11 -16 -1 -34q27 -51 57.5 -103t58.5 -101.5t51.5 -95t37.5 -82.5q-10 -32 -34.5 -61
t-58 -49.5t-73.5 -29t-79 -1t-75.5 34.5t-62.5 79q-16 31 -37.5 72.5t-56.5 110.5q-9 -14 -18 -28.5t-16.5 -28.5t-13.5 -26t-7 -20q-3 -16 -2.5 -55t4.5 -81q-22 -18 -54.5 -29.5t-70 -14.5t-76 4t-71 25t-55 48.5t-28.5 74.5q-6 41 -10.5 103.5t-7.5 135t-4.5 151
t-1 153.5t3 140.5t7.5 112.5q20 25 54 41.5t74 22.5t81 0.5t74.5 -24.5t55.5 -51.5t24 -81.5q2 -44 2.5 -67.5t0.5 -40t-1 -34t-2 -49.5q-1 -4 -0.5 -9t0.5 -14z" />
    <glyph glyph-name="l" unicode="l" horiz-adv-x="905" 
d="M667 -1q-54 -4 -108.5 -4t-99.5 1q-53 1 -102 3q-39 0 -86 6.5t-90 28.5t-76 65t-44 117q-8 53 -14 140t-6.5 189t4.5 208.5t20 199.5q23 21 56.5 34t70.5 15.5t74.5 -6.5t69 -34t54 -66.5t29.5 -102.5q4 -44 6.5 -102.5t3.5 -120.5t0 -121.5t-2 -106.5q34 3 83 3.5
t105 -0.5t114.5 -5t111.5 -10q20 -38 25 -76.5t-3 -74.5t-26.5 -68t-44.5 -56t-58 -39t-67 -17z" />
    <glyph glyph-name="m" unicode="m" horiz-adv-x="1273" 
d="M639 469q2 5 3.5 9.5t2.5 9.5q23 100 46.5 199t46.5 199q4 14 9 28.5t10 29.5q60 39 126 45t122.5 -17t96.5 -73t50 -124q4 -29 9.5 -76.5t12.5 -102.5t13.5 -111t11.5 -100q10 -85 19 -162t19 -162q-41 -53 -96.5 -72.5t-107.5 -10t-90.5 46t-45.5 96.5q-5 45 -6.5 78
t-2 66.5t-1 73t-2.5 96.5q-2 1 -7 1q-3 -16 -6 -31t-7 -31q-20 -88 -40.5 -174.5t-42.5 -174.5q-17 -10 -44 -18.5t-58.5 -12t-65.5 0t-63.5 17.5t-52.5 39.5t-33 66.5q-9 36 -21 87t-23.5 100.5t-21.5 88.5t-14 52q-4 -57 -7.5 -109.5t-7 -104t-7 -104.5t-7.5 -111
q-61 -33 -124 -39.5t-111.5 20.5t-73 90.5t-9.5 170.5q12 89 31.5 180t33.5 180q14 84 29 166t29 165q19 18 51 30.5t70 17t79 -1.5t77.5 -25t65.5 -53t43 -86q7 -26 15.5 -59.5t17 -70t17.5 -74.5t17 -73q1 -2 4 -15t6 -28t6 -28t4 -15h5z" />
    <glyph glyph-name="n" unicode="n" horiz-adv-x="1079" 
d="M652 562v374q30 37 69 55.5t79 21t78.5 -9.5t68.5 -35.5t48.5 -58t18.5 -76.5q0 -31 0.5 -86.5t1 -126t1 -149.5t0 -156t-2.5 -146.5t-6 -119.5q-32 -32 -85.5 -50t-113.5 -14t-120 33.5t-106 92.5q-21 29 -43.5 66t-43 73t-36.5 65t-25 43q-2 5 -5.5 8.5t-6.5 8.5
q-2 0 -3.5 -0.5t-3.5 -0.5q1 -45 3 -82t3.5 -74.5t2.5 -78.5t0 -95q-41 -34 -83.5 -48t-82.5 -13.5t-75.5 14t-62 35.5t-42.5 50t-17 58q-2 62 -3.5 137t-2.5 154.5t-1 158.5t0.5 147.5t2.5 122t5 83.5q36 30 89 48.5t109.5 16t109.5 -30t89 -87.5q26 -44 46.5 -79.5
t40 -70.5t40.5 -72.5t48 -85.5q3 -6 6.5 -11.5t6.5 -10.5q1 1 2 1t2 1z" />
    <glyph glyph-name="o" unicode="o" horiz-adv-x="1120" 
d="M553 1020q85 0 152 -17t118.5 -45t88.5 -62.5t62 -69.5t40 -65.5t23 -50.5q35 -97 41.5 -193.5t-23.5 -196.5q-82 -263 -349 -326q-109 -26 -213.5 -16.5t-204.5 61.5q-96 49 -152 127.5t-79 181.5q-11 48 -15 99t-1 100.5t13 95.5t28 85q24 53 61.5 105t94.5 93.5
t134.5 67.5t180.5 26zM558 662q-28 0 -53 -11.5t-43.5 -34.5t-28.5 -57t-7 -79q3 -44 17 -73.5t34 -48t42.5 -26t42.5 -5.5q20 1 41 10t38.5 27.5t30 48t14.5 71.5q3 42 -7 75.5t-28 56t-42 34.5t-51 12z" />
    <glyph glyph-name="p" unicode="p" horiz-adv-x="970" 
d="M789 354q-57 -42 -116 -58t-108.5 -17t-82.5 6t-39 11h-2l-4 -2l-1 -2v-31.5t-1 -61t-3 -78t-6 -82.5q-21 -23 -52 -36t-67 -14t-73 10t-69.5 36t-57.5 64.5t-36 96.5q-4 22 -7 76.5t-4.5 126t-1 151.5t3 154t7.5 134t13 90q22 21 69 39.5t109 31t134 17.5t143.5 -1
t137.5 -24t116 -52q40 -27 69 -70t45.5 -95.5t19 -110.5t-11 -114t-44 -107t-80.5 -88zM590 638q0 15 -11 30t-29.5 24t-42 8.5t-48.5 -15.5v-55.5t1 -49.5q0 -3 4 -7.5t7 -4.5h37.5t37.5 4q44 7 44 66z" />
    <glyph glyph-name="q" unicode="q" horiz-adv-x="1188" 
d="M1126 152q14 -19 15.5 -47t-7.5 -59.5t-27 -62.5t-43 -55.5t-56 -38.5t-65 -12q-63 5 -114 35.5t-98 83.5q-3 -1 -5.5 -1t-4.5 -1q-109 -26 -214 -16.5t-205 61.5q-96 49 -152 127.5t-79 181.5q-23 97 -19.5 192.5t44.5 187.5q24 53 61.5 104.5t94 92.5t134 67t181.5 28
q56 1 102 -5.5t86.5 -20.5t77 -35.5t73.5 -50.5q100 -78 145 -198q35 -97 42 -193.5t-24 -196.5q-25 -79 -64 -137q26 -9 56 -17t65 -14zM440 480q3 -44 17 -73.5t34 -48t42.5 -26t42.5 -5.5q20 1 41 10t38.5 27.5t30 48t14.5 71.5q3 42 -7 75.5t-28 56t-42 34.5t-51 12
q-28 0 -53 -11.5t-43.5 -34.5t-28.5 -57t-7 -79z" />
    <glyph glyph-name="r" unicode="r" horiz-adv-x="997" 
d="M781 372q18 -17 43.5 -50.5t51 -72t46.5 -75.5t29 -59q-8 -43 -31.5 -74t-56.5 -48t-73 -19.5t-80.5 11t-78.5 43.5t-67 78q-9 15 -20 31.5t-24.5 37.5t-30.5 48t-40 63l-8 12t-8 11q-4 -2 -7 -2q0 -14 -0.5 -29t-1.5 -31q-3 -62 -7.5 -115t-9.5 -90q-31 -34 -83 -44
t-105 8.5t-97.5 68t-60.5 134.5q-4 22 -8 76t-6 124t-2.5 149.5t1 152t6.5 132t13 89.5q22 21 69 39.5t109 31t134 17.5t143.5 -0.5t137.5 -24t116 -51.5q40 -27 73 -67t55 -88.5t30.5 -101.5t-1.5 -106.5t-41 -103.5t-88 -92q-8 -6 -21 -13zM573 628q0 18 -10 33t-27 23
t-41.5 7t-52.5 -14v-27.5v-21.5v-20.5v-23.5q0 -3 4.5 -7.5t7.5 -4.5h37.5t36.5 4q23 4 34 17.5t11 34.5z" />
    <glyph glyph-name="s" unicode="s" horiz-adv-x="942" 
d="M730 563q63 -39 98.5 -89.5t47.5 -105t3 -109t-34 -102.5t-63.5 -85t-85.5 -56q-33 -13 -79.5 -23.5t-100.5 -15t-113 -2t-117 14.5t-112.5 35.5t-99.5 60.5q-24 30 -31.5 66t-1.5 70t24.5 63t46.5 46.5t63.5 19t76.5 -18.5q53 -26 97.5 -41t78.5 -17.5t55 7t27 32.5
q4 15 5 25t-5 16.5t-21.5 10t-43.5 5.5q-61 4 -121.5 24t-111.5 56t-87 88.5t-48 123.5q-3 21 -1.5 50.5t10.5 62.5t27 67t48 65.5t73.5 57.5t103.5 42q49 13 106 17t111.5 -1t103 -19t80.5 -35q44 -29 66.5 -61.5t28.5 -65t-2.5 -63.5t-26.5 -56t-43.5 -42.5t-54.5 -24.5
q-18 22 -47.5 38t-63 25t-67.5 10.5t-61.5 -4.5t-45 -20t-17.5 -36q0 -17 14 -27t52 -15q110 -14 171 -30.5t88 -33.5z" />
    <glyph glyph-name="t" unicode="t" horiz-adv-x="983" 
d="M899 998q13 -18 23 -48.5t12.5 -66.5t-5 -74t-28 -69.5t-57 -53t-92.5 -24.5q-26 -2 -43.5 -3t-21.5 -1q2 -46 2.5 -101t0 -113t-2 -116.5t-4.5 -112.5t-6.5 -101t-8.5 -81q-21 -23 -52 -35.5t-65.5 -13t-71 12.5t-68 39.5t-55.5 68.5t-35 100q-4 21 -7.5 67.5
t-5.5 108.5t-3 134t0 144q-51 -4 -103.5 -3.5t-101.5 10.5q-16 21 -25 52.5t-9.5 67t9 71.5t30.5 65.5t54 49.5t81 23q31 2 84.5 3t117 1h132.5t131.5 -0.5t113.5 -0.5h80z" />
    <glyph glyph-name="u" unicode="u" horiz-adv-x="1093" 
d="M1021 340q-11 -96 -56.5 -165t-111 -114t-144.5 -66.5t-157 -21.5q-52 0 -105.5 4.5t-104 18t-96.5 38t-82.5 65t-62.5 98.5t-37 139q-10 68 -12 146t1.5 160t11.5 164.5t19 160.5q11 12 40.5 22.5t68.5 14.5t81.5 1t79.5 -18t63.5 -43.5t32.5 -73.5q2 -13 2 -48
t0.5 -82.5t1 -103t2 -111t5 -105.5t9.5 -86q6 -33 28 -52t48 -20.5t49.5 17t31.5 59.5q6 30 11 76t8 100.5t4 114t-0.5 116.5t-5.5 108t-11 89q19 20 54.5 34.5t77.5 20t86.5 -1t82 -28.5t63 -61.5t31.5 -100.5q3 -34 6 -62.5t5 -57t2.5 -60t-1.5 -71.5t-6.5 -92t-12.5 -122
z" />
    <glyph glyph-name="v" unicode="v" horiz-adv-x="1052" 
d="M571 570h-3h3zM207 185q-13 33 -27 83t-28 109.5t-28 126t-27 133t-24.5 129t-20.5 115.5q9 32 36 58.5t63.5 42.5t78 20t79 -9t66.5 -45.5t41 -88.5q16 -76 30.5 -152t26 -145.5t20.5 -129t14 -102.5h9q14 60 27.5 119t27.5 121q8 35 16.5 76t16.5 82.5t16 81.5t15 74
t12 60t9 39q91 34 157 24.5t105.5 -52t52 -112t-3.5 -154.5q-9 -50 -24 -111t-33 -125.5t-38 -129.5t-40 -123t-39 -106.5t-35 -79.5q-34 -11 -80 -22t-98 -15.5t-106 1.5t-104 28.5t-92.5 65.5t-70.5 113z" />
    <glyph glyph-name="w" unicode="w" horiz-adv-x="1526" 
d="M1151 971q41 20 84.5 29.5t85 7.5t77 -16t61 -41.5t37.5 -68.5t5 -97q-5 -43 -16.5 -105t-27 -133.5t-33.5 -147.5t-36.5 -146.5t-35.5 -130t-31 -98.5q-34 -11 -81 -24.5t-99.5 -21.5t-106.5 -6t-102 23.5t-86 67t-59 123.5q-9 34 -14.5 63.5t-10 61t-8 68.5t-8.5 85
h-12q-11 -91 -25 -203.5t-29 -226.5q-34 -11 -80 -24t-97.5 -21t-105 -7t-102.5 19.5t-91 58t-69 107.5q-13 32 -23.5 82t-19.5 111t-17 130t-15 140t-14 140.5t-14 132.5q9 31 38.5 55.5t68.5 38.5t82.5 15.5t81.5 -13.5t65 -48.5t33 -89.5q9 -86 13.5 -162t7 -141
t4.5 -119.5t7 -96.5h10l28 116t28 118q13 52 29.5 115t32.5 121.5t29 105t18 65.5q19 7 46.5 14t58 10.5t62.5 1.5t60 -13.5t50 -34.5t34 -61q38 -122 74.5 -265.5t78.5 -298.5q3 1 9 1q7 38 14 90.5t14 111.5t13 120.5t11.5 119.5t10 107.5t7.5 84.5z" />
    <glyph glyph-name="x" unicode="x" horiz-adv-x="940" 
d="M752 472q12 -27 32 -68t42 -86t43 -91t35 -84q-3 -35 -23 -67.5t-51 -56t-70 -34.5t-79 -3t-78 37t-67 86q-13 26 -31.5 69.5t-38.5 92.5q-18 -41 -36.5 -82t-34.5 -77l-28 -63t-18 -40q-69 -16 -119 -11.5t-84 22.5t-54 45t-29 57t-8.5 59.5t7.5 50.5q12 38 28 71.5
t33 64t34 58.5t31 55q3 6 2.5 14.5t-3.5 14.5q-41 89 -82 177l-82 176q6 35 29.5 63.5t57 47.5t72.5 27.5t76 4.5t68 -22t48 -51q27 -53 52.5 -112t48.5 -116q35 72 76 150t85 146q47 16 101 6.5t95.5 -41.5t59.5 -84.5t-7 -122.5q-12 -32 -26.5 -61t-31 -59t-35 -62.5
t-37.5 -70.5q-4 -7 -4.5 -15.5t1.5 -14.5z" />
    <glyph glyph-name="y" unicode="y" horiz-adv-x="949" 
d="M501 616q4 9 15 35t26 61.5t32.5 77.5t35 82t33.5 75.5t28 58.5q54 15 108 3t92 -45.5t51 -86.5t-15 -120q-25 -58 -50 -106.5t-52 -98t-56 -105t-62 -126.5q-15 -27 -15 -55v-72.5t-1 -75t-1.5 -61t-0.5 -31.5q-11 -15 -41.5 -26t-70 -15t-83 1t-80 24t-61.5 54t-27 89
v27v37.5t0.5 35.5t0.5 21q-1 13 -3.5 20.5t-7.5 18.5q-30 58 -68 131.5t-76 151.5t-73.5 154.5t-62.5 141.5q25 60 72 92.5t97 39.5t93.5 -9t63.5 -53q16 -30 34.5 -71.5t37 -85.5t36 -86t31.5 -73q3 -8 6 -14.5t6 -14.5q6 0 8 -1z" />
    <glyph glyph-name="z" unicode="z" horiz-adv-x="949" 
d="M467 333q40 0 90 1t105.5 1t114.5 -2t117 -9q30 -56 26 -112.5t-30.5 -102.5t-71 -76t-96.5 -34t-112.5 -4.5t-113.5 -0.5q-62 0 -122 2q-25 0 -57 1.5t-66 8t-66.5 19.5t-59 36t-44 56.5t-20.5 82.5q-4 67 19 127.5t66 119t102 116.5t126 121q-53 0 -102.5 -2
t-90.5 -3.5t-70.5 -1.5t-40.5 2q-16 20 -25 51t-9 65.5t9 69.5t29.5 64t53 48t79.5 22q31 2 81 3t110 1h124.5t123.5 -0.5t107.5 -1t76.5 -0.5q16 -19 29 -49t16 -67t-6 -78.5t-36 -83.5q-16 -25 -42 -57.5t-58.5 -68.5t-68.5 -73.5t-71.5 -72.5t-68 -65.5t-57.5 -52.5z" />
    <glyph glyph-name="braceleft" unicode="{" horiz-adv-x="791" 
d="M484 210q8 -56 26 -94.5t41.5 -64t49.5 -39t50 -20t42.5 -8t26.5 -2.5q31 -50 34.5 -98.5t-22 -88t-80.5 -66t-142 -31.5q-97 -6 -160 23.5t-100.5 80t-54 115t-19.5 129.5q-3 54 -5.5 98.5t-7.5 83.5t-14.5 75.5t-26 76.5t-41.5 86t-61 104q53 67 89.5 130.5t61 126.5
t39.5 126.5t26 130.5q7 45 26 91t51.5 82.5t79.5 60t111 24.5q40 1 71.5 -1.5t57 -6t46.5 -8.5t41 -9q31 -49 39.5 -94.5t-2.5 -82t-42 -63t-79 -38.5q-29 -7 -53.5 -18.5t-44 -31t-34 -49.5t-24.5 -75q-15 -69 -27 -119t-23.5 -86t-25.5 -61t-34 -44q45 -63 66 -107.5
t29.5 -82.5t10.5 -74t8 -81z" />
    <glyph glyph-name="bar" unicode="|" horiz-adv-x="397" 
d="M31 36q-2 19 -2 30.5t0.5 21.5t1 21.5t1.5 30.5q3 137 2.5 285t0.5 291.5t6 274t19 232.5q68 36 121 30t90 -36t56.5 -73.5t21.5 -82.5v-70.5t-0.5 -135t-1 -179.5t-2 -203t-3 -206t-3.5 -187.5t-4.5 -149t-5.5 -89.5q-50 -30 -100 -35.5t-92 16.5t-70.5 74.5
t-35.5 139.5z" />
    <glyph glyph-name="braceright" unicode="}" horiz-adv-x="825" 
d="M317 829q-8 56 -26 95t-41.5 64t-50 39t-50 20.5t-42.5 8t-27 2.5q-31 49 -34.5 97.5t22 88.5t80.5 66.5t142 31.5q97 6 160.5 -24t101 -80.5t53.5 -115.5t19 -129q3 -54 5.5 -98t8 -83t15 -76t25.5 -77t41 -86t61 -104q-53 -66 -89 -130t-60.5 -127t-40 -126.5
t-26.5 -130.5q-8 -45 -26.5 -91t-51 -82.5t-79.5 -60t-111 -24.5q-40 -1 -71.5 1t-57 6t-46.5 8.5t-41 9.5q-31 49 -39.5 94.5t3 82.5t42.5 63t79 38q28 7 52.5 18.5t44 31t34.5 50t25 75.5q15 68 26.5 118t23.5 86t25.5 61t33.5 44q-45 63 -66 107.5t-29.5 82.5t-10 74
t-7.5 81z" />
    <glyph glyph-name="asciitilde" unicode="~" horiz-adv-x="816" 
d="M147 330q-46 21 -71 57.5t-28 78.5t15 83t59 71q37 27 84 32.5t98 -1t104.5 -19.5t104 -23.5t96.5 -13.5t82 12q28 -7 47 -26t29 -44.5t10 -54.5t-9.5 -55.5t-29.5 -47t-51 -28.5q-49 -14 -89 -13.5t-78 7t-76 14.5t-82 10t-96.5 -5.5t-118.5 -33.5z" />
    <glyph glyph-name="exclamdown" unicode="&#xa1;" horiz-adv-x="490" 
d="M252 1048q15 -2 29.5 -4t28.5 -5q56 -12 88 -47.5t38 -91.5q5 -48 -3 -95q-8 -45 -35 -73t-69 -42q-64 -20 -126 -6q-33 7 -58.5 24t-43 41t-26 54t-5.5 64q2 20 5.5 39.5t11.5 37.5q20 51 62.5 76.5t102.5 27.5zM49 157q0 21 3 55t7.5 74.5t11.5 85t14.5 86t16 77
t16.5 59.5q32 35 75.5 50.5t84 8.5t72 -38.5t40.5 -90.5q24 -161 25 -293.5t-12 -230.5q-24 -21 -59.5 -35t-74.5 -17.5t-78.5 5.5t-71 33.5t-51 66.5t-19.5 104z" />
    <glyph glyph-name="cent" unicode="&#xa2;" horiz-adv-x="823" 
d="M677 429q29 -6 54 -25t40.5 -47t20 -61.5t-7.5 -67.5t-42.5 -66t-83.5 -57q-18 -9 -40 -15t-45 -10q0 -36 -1 -68.5t-5 -61.5q-39 -33 -80 -39t-75.5 7t-57 42t-24.5 67q0 8 -0.5 24.5t-0.5 41.5h-3q-109 28 -177.5 96.5t-99.5 175.5q-21 75 -22 148.5t24 148.5
q29 84 85 140t134 94q32 17 70 28q-1 41 0 77.5t5 68.5q39 33 80.5 39t76 -7.5t57 -42.5t24.5 -67q0 -6 0.5 -21.5t0.5 -38.5q84 -20 175 -71q15 -60 -1.5 -105t-51 -71t-79.5 -33t-86 10q-38 10 -67.5 7t-63.5 -24q-44 -29 -56.5 -73t-6.5 -93q5 -37 22 -61.5t41.5 -38.5
t55 -18t62.5 0q21 3 44 12t44 20t37 21z" />
    <glyph glyph-name="sterling" unicode="&#xa3;" horiz-adv-x="927" 
d="M856 279q28 -39 36 -86t-7.5 -90.5t-56 -76.5t-109.5 -45q-35 -6 -83 -9.5t-101.5 -4.5t-108.5 -0.5t-105 3.5t-91 8.5t-65 12.5q-34 10 -58.5 39t-37 66.5t-12.5 78.5t14 74q32 20 56 46.5t41 58.5q-28 1 -53.5 2t-48.5 5q-32 42 -38 86t7 80.5t41.5 60.5t65.5 26
q8 0 30.5 0.5t57.5 1.5q6 48 14.5 95.5t24.5 92t40.5 83.5t62 68.5t90.5 47.5t126 21q53 2 94.5 -3.5t74 -16t57 -25t42.5 -29.5q9 -13 16.5 -36.5t10 -51.5t-2.5 -56t-20.5 -51t-44 -36.5t-72.5 -11.5q-13 0 -34 2t-45 1.5t-48.5 -4.5t-45 -15.5t-34.5 -32t-17 -53.5
q21 0 59 1.5t81.5 1t86.5 -4t74 -13.5q22 -49 25 -93.5t-13.5 -78.5t-52 -55t-89.5 -23q-19 -1 -38.5 -1.5t-42 -1t-50 -0.5h-61.5q-5 -18 -10 -31t-13 -27q3 0 37.5 -2t88 -3t120.5 -0.5t135 5.5z" />
    <glyph glyph-name="yen" unicode="&#xa5;" horiz-adv-x="976" 
d="M684 1014q36 10 73 7.5t70 -15.5t59 -36.5t40.5 -55.5t14.5 -72.5t-19 -86.5q-21 -52 -43 -94.5t-45 -83.5t-48 -85t-52 -99q33 -1 63.5 -2t56.5 -6q33 -43 39.5 -88t-7 -82.5t-42.5 -62.5t-67 -27q-9 -1 -33.5 -1.5t-59.5 -0.5q-1 -42 -2 -72.5t0 -37.5
q-11 -14 -40.5 -26t-67.5 -16t-80.5 0t-79.5 22t-63 50t-32 84q-45 0 -84 1t-73 6q-33 43 -39 88.5t7 83t42 62.5t67 27q4 0 10 0.5t15 0.5q-29 57 -60 119t-61.5 125.5t-59 125.5t-50.5 119q25 62 72 95t97.5 40.5t95 -9.5t64.5 -55q16 -31 33 -70t34 -79.5t33.5 -80
t30.5 -71.5l6 -14t6 -15q6 0 8 -1q4 9 15.5 34.5t26.5 61t32.5 77t35 81.5t33.5 75.5t28 59.5z" />
    <glyph glyph-name="dieresis" unicode="&#xa8;" horiz-adv-x="778" 
d="M180 1080q-12 2 -25 3.5t-25 4.5q-48 11 -76 41.5t-33 79.5q-5 41 3 81q6 39 29.5 63.5t60.5 36.5q53 18 109 6q57 -13 88.5 -56.5t26.5 -102.5q-2 -17 -5 -34t-9 -33q-17 -43 -54.5 -66t-89.5 -24zM579 1080q-12 2 -24.5 3.5t-24.5 4.5q-48 11 -76.5 41.5t-33.5 79.5
q-3 42 3 81q7 39 30 63.5t60 36.5q54 18 109 6q57 -13 89 -56.5t27 -102.5q-2 -17 -5 -34t-10 -33q-17 -43 -54 -66t-90 -24z" />
    <glyph glyph-name="copyright" unicode="&#xa9;" horiz-adv-x="1168" 
d="M638 580q-21 5 -37.5 3.5t-35.5 -13.5q-24 -15 -31 -39.5t-3 -51.5q3 -20 12 -33.5t22.5 -21.5t30 -10t34.5 0q12 2 24.5 7t24 11t20.5 11.5t13 8.5q24 -5 42 -26t21 -48t-13.5 -55.5t-60.5 -49.5q-18 -9 -41 -13t-48 -4t-49 3t-44 8q-60 15 -98 53t-55 97
q-11 41 -11.5 81.5t13.5 81.5q15 46 46 77t74 52q58 29 126 26.5t143 -46.5q9 -33 -0.5 -57.5t-28 -39t-43.5 -18t-47 5.5zM550 1024q76 3 129.5 -3t94 -20t74.5 -35.5t72 -51.5q103 -82 148 -204q37 -99 44 -198.5t-25 -200.5q-83 -271 -357 -336q-112 -26 -219.5 -16.5
t-210.5 62.5q-98 51 -155 131.5t-82 186.5q-23 100 -20 197t46 193q24 54 60.5 105.5t91.5 92.5t131 67t178 30zM580 869q-63 0 -125 -23t-111 -71t-76.5 -122t-21.5 -176q6 -98 40 -163.5t82.5 -105t105.5 -55.5t110 -14q72 5 131.5 23.5t103.5 57.5t70.5 103t31.5 160
q6 96 -24 168.5t-80.5 121t-113.5 72.5t-123 24z" />
    <glyph glyph-name="guillemotleft" unicode="&#xab;" horiz-adv-x="1300" 
d="M486 481q35 -37 71.5 -77.5t68.5 -80t57 -75t37 -62.5q-8 -47 -42.5 -92.5t-87 -69.5t-118 -15t-135.5 71q-31 28 -64 59.5t-65 65t-61 67t-52 65.5q-24 32 -39 68.5t-16 77t14.5 84.5t52.5 90q29 36 76.5 82.5t103.5 94.5t116 94.5t114 83.5q31 0 61.5 -15t55 -41.5
t40 -62t17.5 -77.5t-12 -88.5t-49 -93.5q-18 -24 -56.5 -65t-87.5 -88zM1086 481q35 -37 62.5 -67t49 -56.5t38 -51.5t28.5 -52q-5 -31 -22 -62.5t-44 -57.5t-62.5 -42.5t-76.5 -17.5t-86 15.5t-92 58.5q-31 28 -55 49t-45.5 41.5t-42 43.5t-44.5 55q-23 32 -38 68.5t-16 77
t14.5 84.5t52.5 90q29 36 69.5 76t88.5 81t100.5 81t106.5 77q32 0 62.5 -15t55 -41t40 -62t17.5 -78t-12 -88.5t-49 -93.5q-9 -12 -17 -22.5t-18.5 -23t-25.5 -28.5t-39 -39z" />
    <glyph glyph-name="uni00AD" unicode="&#xad;" horiz-adv-x="729" 
d="M205 470q23 3 57 5.5t73.5 3t83.5 -0.5t87 -3t83.5 -5.5t72.5 -8.5q26 -24 33.5 -64t-7 -80.5t-52.5 -74.5t-103 -47q-17 -3 -50.5 -6t-75.5 -4.5t-89.5 -2t-91.5 1t-82 5t-61 9.5q-24 27 -33.5 68.5t1.5 83t48 75.5t106 45z" />
    <glyph glyph-name="registered" unicode="&#xae;" horiz-adv-x="642" 
d="M409 717q2 2 6 4q22 16 29.5 37.5t4.5 42.5t-14.5 39t-27.5 29q-20 13 -48.5 17.5t-56.5 2.5t-51 -8.5t-32 -14.5q-3 -12 -4 -40t-1 -59t1 -57.5t3 -35.5q4 -22 16 -35t26 -18t28 -2.5t22 11.5q2 11 3 24.5t1 29.5q1 5 1 9v7q1 1 2 1q1 -2 2 -3t2 -3q12 -20 19 -30
t12 -18q12 -19 28 -27.5t31.5 -7.5t27.5 10.5t15 27.5q-2 6 -7.5 15.5t-12.5 19.5t-13.5 19t-11.5 13zM360 795q0 -17 -16 -20q-7 -1 -13.5 -1h-13.5q-5 0 -5 5v33q22 10 35 3t13 -20zM312 1029q40 1 68 -1.5t49.5 -10t39.5 -19t38 -27.5q55 -43 78 -107q20 -53 23.5 -105.5
t-12.5 -105.5q-45 -144 -189 -178q-60 -14 -116.5 -9t-111.5 34q-51 26 -81.5 68.5t-43.5 98.5q-12 53 -10.5 104.5t24.5 101.5q13 29 32 56.5t48 49t69.5 35t94.5 15.5zM327 948q-33 0 -66 -12.5t-58.5 -38t-40 -64t-11.5 -92.5q3 -52 20 -87t41.5 -56t55.5 -30t63 -10
q37 0 68 9.5t54.5 32t37.5 58t17 86.5t-13 89t-42.5 63.5t-60 38.5t-65.5 13z" />
    <glyph glyph-name="degree" unicode="&#xb0;" horiz-adv-x="612" 
d="M317 459q-196 9 -247 166q-16 48 -18.5 96t5.5 97q10 68 41 111.5t73.5 67t93.5 30t102 -0.5q49 -6 89 -26.5t68.5 -52t44 -73.5t16.5 -92q1 -38 -3 -76.5t-15 -73.5q-26 -88 -92.5 -132.5t-157.5 -40.5zM261 756q1 -34 14.5 -57.5t41.5 -23.5q32 0 45 20.5t13 62.5
q0 9 -2 21.5t-8 23t-16.5 18t-26.5 7.5q-28 0 -44.5 -20t-16.5 -52z" />
    <glyph glyph-name="acute" unicode="&#xb4;" horiz-adv-x="370" 
d="M155 1452q28 13 63.5 10t65 -20t47 -47t10.5 -71q-7 -42 -28.5 -81.5t-48.5 -73t-54.5 -59.5t-47.5 -41q-26 -18 -49 -20.5t-41 7.5t-28.5 29t-10.5 43q12 39 29.5 89t35.5 97.5t33.5 85t23.5 52.5z" />
    <glyph glyph-name="cedilla" unicode="&#xb8;" horiz-adv-x="476" 
d="M367 -77q25 1 45 -17.5t29.5 -44.5t6.5 -54.5t-24 -47.5q-33 -30 -73.5 -46t-82.5 -20t-81.5 4.5t-72.5 29t-55.5 51.5t-28.5 73q-11 77 12 126t66.5 78t100.5 41.5t114 16.5q17 1 19.5 -15.5t-3 -37t-15.5 -37.5t-17 -17q-27 -1 -51.5 -9t-42 -22.5t-24.5 -34.5t2 -45
q8 -22 31 -30t50 -4t53.5 20t41.5 42z" />
    <glyph glyph-name="guillemotright" unicode="&#xbb;" horiz-adv-x="1336" 
d="M815 536q-36 37 -72.5 77.5t-68.5 80t-56.5 75t-36.5 62.5q5 31 22 63t44 57.5t62.5 42t76.5 18t86 -15.5t92 -59q31 -27 64 -59t64.5 -65t61 -67t52.5 -65q23 -32 38 -68.5t16 -77t-14.5 -84.5t-52.5 -90q-29 -36 -76.5 -82.5t-103.5 -94.5t-115.5 -94.5t-113.5 -83.5
q-32 0 -62.5 15t-54.5 41t-40 62t-18 78t12 88.5t49 93.5q18 24 57 65t88 87zM215 536q-36 37 -63.5 67t-49 57t-38 51.5t-28.5 51.5q5 31 22.5 63t44.5 57.5t62.5 42.5t76 18t85.5 -16t92 -58q31 -28 55.5 -49t46 -41.5t42 -44t43.5 -54.5q23 -32 38 -68.5t16 -77
t-14.5 -84.5t-52.5 -90q-29 -36 -69.5 -76t-88 -81t-100.5 -81.5t-107 -77.5q-32 0 -62.5 15t-54.5 41.5t-40 62t-18 77.5t12 88.5t49 93.5q9 12 17 23t18.5 23t26 28t39.5 39z" />
    <glyph glyph-name="questiondown" unicode="&#xbf;" horiz-adv-x="748" 
d="M400 1041q15 -2 29.5 -4t28.5 -5q56 -12 88 -47.5t38 -91.5q5 -48 -3 -95q-8 -45 -34.5 -73t-69.5 -42q-64 -20 -126 -6q-33 7 -58.5 24t-43 41t-26 54t-5.5 64q2 20 5.5 39.5t11.5 37.5q20 51 62.5 76.5t102.5 27.5zM123 410q10 10 29.5 26.5t38.5 39t33.5 50.5t16.5 62
q20 27 51.5 43.5t67.5 21.5t72 -1t64 -22.5t44.5 -44t12.5 -65.5q-5 -46 -21.5 -75t-41.5 -54.5t-56.5 -53.5t-64.5 -73q-12 -16 -15 -33.5t3 -31.5t20 -23t36 -8q23 2 42.5 17.5t46.5 43.5q17 18 42 24.5t50.5 1t49 -22.5t39 -45t20 -66.5t-7.5 -87.5q-26 -36 -63 -62.5
t-78 -44t-83 -26.5t-78 -9q-86 0 -152.5 25t-112 66.5t-69.5 95.5t-25.5 112t21 115t68.5 105z" />
    <glyph glyph-name="Agrave" unicode="&#xc0;" 
d="M15 302q10 50 25.5 111t34.5 125t40 128.5t42.5 122.5t41 106t35.5 79q34 11 80 22t97.5 15.5t105.5 -1.5t103.5 -28.5t91.5 -65.5t71 -112q13 -33 30.5 -82.5t36 -109.5t37.5 -126t36.5 -132t32 -128.5t23.5 -115.5q-4 -27 -29 -53.5t-62.5 -45t-83 -24.5t-88.5 7.5
t-79 51t-56 105.5q-48 2 -98.5 0.5t-98.5 0.5q-13 -32 -24.5 -68.5t-22.5 -75.5q-92 -34 -160 -24t-109.5 52t-55 111.5t2.5 154.5zM423 438h123q-14 61 -29 120.5t-29 119.5q-3 -1 -9 -1q-14 -60 -28 -118.5t-28 -120.5zM322 1339q3 31 22.5 61t48.5 47.5t64 18t68 -25.5
t57 -64t40.5 -77.5t26 -76.5t12.5 -61q3 -31 -6.5 -52.5t-26.5 -32.5t-38.5 -11.5t-42.5 11.5q-29 29 -64 68.5t-67.5 78t-58 70.5t-35.5 46z" />
    <glyph glyph-name="Aacute" unicode="&#xc1;" 
d="M15 302q10 50 25.5 111t34.5 125t40 128.5t42.5 122.5t41 106t35.5 79q34 11 80 22t97.5 15.5t105.5 -1.5t103.5 -28.5t91.5 -65.5t71 -112q13 -33 30.5 -82.5t36 -109.5t37.5 -126t36.5 -132t32 -128.5t23.5 -115.5q-4 -27 -29 -53.5t-62.5 -45t-83 -24.5t-88.5 7.5
t-79 51t-56 105.5q-48 2 -98.5 0.5t-98.5 0.5q-13 -32 -24.5 -68.5t-22.5 -75.5q-92 -34 -160 -24t-109.5 52t-55 111.5t2.5 154.5zM423 438h123q-14 61 -29 120.5t-29 119.5q-3 -1 -9 -1q-14 -60 -28 -118.5t-28 -120.5zM455 1458q28 13 63.5 10t65 -20t47 -47t10.5 -71
q-7 -42 -28.5 -81.5t-48.5 -73t-54.5 -59.5t-47.5 -41q-26 -18 -49 -20.5t-41 7.5t-28.5 29t-10.5 43q12 39 29.5 89t35.5 97.5t33.5 85t23.5 52.5z" />
    <glyph glyph-name="Acircumflex" unicode="&#xc2;" 
d="M15 302q10 50 25.5 111t34.5 125t40 128.5t42.5 122.5t41 106t35.5 79q34 11 80 22t97.5 15.5t105.5 -1.5t103.5 -28.5t91.5 -65.5t71 -112q13 -33 30.5 -82.5t36 -109.5t37.5 -126t36.5 -132t32 -128.5t23.5 -115.5q-4 -27 -29 -53.5t-62.5 -45t-83 -24.5t-88.5 7.5
t-79 51t-56 105.5q-48 2 -98.5 0.5t-98.5 0.5q-13 -32 -24.5 -68.5t-22.5 -75.5q-92 -34 -160 -24t-109.5 52t-55 111.5t2.5 154.5zM423 438h123q-14 61 -29 120.5t-29 119.5q-3 -1 -9 -1q-14 -60 -28 -118.5t-28 -120.5zM707 1115q3 -32 -8 -51.5t-28.5 -28t-38 -6
t-35.5 16.5q-19 18 -36.5 38t-32.5 40.5t-28 40t-22 35.5q-17 -27 -35.5 -52.5t-36 -46.5t-34 -36.5t-29.5 -22.5q-28 -15 -51 -14t-39.5 13t-24.5 32t-5 44q16 38 40.5 84.5t48.5 90.5t45 78.5t30 48.5q18 11 40 17t44.5 5t44.5 -10t39 -28q36 -39 63.5 -79.5t46.5 -79
t29.5 -72t12.5 -57.5z" />
    <glyph glyph-name="Atilde" unicode="&#xc3;" 
d="M15 302q10 50 25.5 111t34.5 125t40 128.5t42.5 122.5t41 106t35.5 79q34 11 80 22t97.5 15.5t105.5 -1.5t103.5 -28.5t91.5 -65.5t71 -112q13 -33 30.5 -82.5t36 -109.5t37.5 -126t36.5 -132t32 -128.5t23.5 -115.5q-4 -27 -29 -53.5t-62.5 -45t-83 -24.5t-88.5 7.5
t-79 51t-56 105.5q-48 2 -98.5 0.5t-98.5 0.5q-13 -32 -24.5 -68.5t-22.5 -75.5q-92 -34 -160 -24t-109.5 52t-55 111.5t2.5 154.5zM423 438h123q-14 61 -29 120.5t-29 119.5q-3 -1 -9 -1q-14 -60 -28 -118.5t-28 -120.5zM298 1067q-35 16 -54 43.5t-21.5 59t11.5 62.5
t45 54q28 20 63 24t73.5 -0.5t78.5 -14.5t78.5 -18t73 -10t61.5 9q31 -8 47.5 -35t17 -59t-16.5 -60.5t-51 -38.5q-37 -10 -67.5 -9.5t-59 5t-57 10.5t-61.5 7.5t-72 -4.5t-89 -25z" />
    <glyph glyph-name="Adieresis" unicode="&#xc4;" 
d="M15 302q10 50 25.5 111t34.5 125t40 128.5t42.5 122.5t41 106t35.5 79q34 11 80 22t97.5 15.5t105.5 -1.5t103.5 -28.5t91.5 -65.5t71 -112q13 -33 30.5 -82.5t36 -109.5t37.5 -126t36.5 -132t32 -128.5t23.5 -115.5q-4 -27 -29 -53.5t-62.5 -45t-83 -24.5t-88.5 7.5
t-79 51t-56 105.5q-48 2 -98.5 0.5t-98.5 0.5q-13 -32 -24.5 -68.5t-22.5 -75.5q-92 -34 -160 -24t-109.5 52t-55 111.5t2.5 154.5zM423 438h123q-14 61 -29 120.5t-29 119.5q-3 -1 -9 -1q-14 -60 -28 -118.5t-28 -120.5zM295 1071q-12 2 -25 3.5t-25 4.5q-48 11 -76 41.5
t-33 79.5q-5 41 3 81q6 39 29.5 63.5t60.5 36.5q53 18 109 6q57 -13 88.5 -56.5t26.5 -102.5q-2 -17 -5 -34t-9 -33q-17 -43 -54.5 -66t-89.5 -24zM694 1071q-12 2 -24.5 3.5t-24.5 4.5q-48 11 -76.5 41.5t-33.5 79.5q-3 42 3 81q7 39 30 63.5t60 36.5q54 18 109 6
q57 -13 89 -56.5t27 -102.5q-2 -17 -5 -34t-10 -33q-17 -43 -54 -66t-90 -24z" />
    <glyph glyph-name="Aring" unicode="&#xc5;" 
d="M15 302q10 50 25.5 111t34.5 125t40 128.5t42.5 122.5t41 106t35.5 79q34 11 80 22t97.5 15.5t105.5 -1.5t103.5 -28.5t91.5 -65.5t71 -112q13 -33 30.5 -82.5t36 -109.5t37.5 -126t36.5 -132t32 -128.5t23.5 -115.5q-4 -27 -29 -53.5t-62.5 -45t-83 -24.5t-88.5 7.5
t-79 51t-56 105.5q-48 2 -98.5 0.5t-98.5 0.5q-13 -32 -24.5 -68.5t-22.5 -75.5q-92 -34 -160 -24t-109.5 52t-55 111.5t2.5 154.5zM423 438h123q-14 61 -29 120.5t-29 119.5q-3 -1 -9 -1q-14 -60 -28 -118.5t-28 -120.5zM498 1103q-157 7 -196 132q-13 38 -14.5 76.5
t3.5 76.5q8 54 32.5 88.5t58.5 53.5t74.5 24t81.5 0q79 -11 125 -63t48 -132q0 -29 -3 -59.5t-12 -59.5q-20 -69 -73 -104.5t-125 -32.5zM433 1341q1 -40 17 -67t48 -27q37 0 51.5 24t14.5 72q0 11 -2.5 25t-9.5 26.5t-19 21t-30 8.5q-32 0 -51 -23t-19 -60z" />
    <glyph glyph-name="Ccedilla" unicode="&#xc7;" 
d="M824 410q35 -7 65 -29.5t48.5 -56t23.5 -73.5t-9 -81t-50.5 -80t-100.5 -69q-45 -21 -103 -30t-120 -7q-24 -2 -46.5 -10t-37.5 -22t-20.5 -32.5t2.5 -41.5q7 -21 29 -28.5t48 -3.5t51.5 19t39.5 41q24 1 43 -17t28.5 -43t6.5 -52t-23 -45q-48 -43 -109.5 -57t-117.5 -2
t-98 49.5t-51 97.5q-10 63 5.5 106t47.5 72q-120 36 -195.5 116.5t-110.5 202.5q-26 90 -27 179t29 178q17 50 45 93.5t63 79.5t75 63.5t80 45.5q49 23 116.5 37t145.5 12t161 -23.5t164 -68.5q12 -48 7 -88t-23 -71t-46 -52.5t-61.5 -32t-69 -9.5t-68.5 14q-45 12 -83 8.5
t-75 -22.5q-27 -14 -44.5 -35.5t-27 -48.5t-11.5 -56.5t2 -59.5q6 -44 27 -74.5t52 -48.5t68.5 -24t75.5 0q25 3 53 14t52.5 24t44.5 25t29 17z" />
    <glyph glyph-name="Egrave" unicode="&#xc8;" horiz-adv-x="842" 
d="M55 231q-2 34 -3 92t-1 128.5t1.5 148t4 150.5t6 136.5t8.5 105.5q42 4 99 6.5t122.5 3.5t135.5 1t136 -1.5t125 -4.5t104 -6q9 -13 16.5 -40.5t7.5 -61t-9 -69t-31.5 -64.5t-62 -47.5t-99.5 -18.5h-206v-52q22 0 61 1.5t83 1t88 -4.5t76 -14q22 -50 25 -95t-14 -80
t-53 -56.5t-91 -24.5q-19 -1 -35.5 -1h-35.5t-43.5 0.5t-59.5 0.5v-61h23h321q28 -40 36.5 -89t-7 -94t-57 -79t-112.5 -43q-21 -3 -55 -5t-74 -3t-83 -0.5t-82.5 1.5t-71.5 4t-50 7q-71 18 -104 71.5t-39 155.5zM247 1320q3 31 22.5 61t48.5 47.5t64 18t68 -25.5t57 -64
t40.5 -77.5t26 -76.5t12.5 -61q3 -31 -6.5 -52.5t-26.5 -32.5t-38.5 -11.5t-42.5 11.5q-29 29 -64 68.5t-67.5 78t-58 70.5t-35.5 46z" />
    <glyph glyph-name="Eacute" unicode="&#xc9;" horiz-adv-x="842" 
d="M55 231q-2 34 -3 92t-1 128.5t1.5 148t4 150.5t6 136.5t8.5 105.5q42 4 99 6.5t122.5 3.5t135.5 1t136 -1.5t125 -4.5t104 -6q9 -13 16.5 -40.5t7.5 -61t-9 -69t-31.5 -64.5t-62 -47.5t-99.5 -18.5h-206v-52q22 0 61 1.5t83 1t88 -4.5t76 -14q22 -50 25 -95t-14 -80
t-53 -56.5t-91 -24.5q-19 -1 -35.5 -1h-35.5t-43.5 0.5t-59.5 0.5v-61h23h321q28 -40 36.5 -89t-7 -94t-57 -79t-112.5 -43q-21 -3 -55 -5t-74 -3t-83 -0.5t-82.5 1.5t-71.5 4t-50 7q-71 18 -104 71.5t-39 155.5zM380 1445q28 13 63.5 10t65 -20t47 -47t10.5 -71
q-7 -42 -28.5 -81.5t-48.5 -73t-54.5 -59.5t-47.5 -41q-26 -18 -49 -20.5t-41 7.5t-28.5 29t-10.5 43q12 39 29.5 89t35.5 97.5t33.5 85t23.5 52.5z" />
    <glyph glyph-name="Ecircumflex" unicode="&#xca;" horiz-adv-x="842" 
d="M55 231q-2 34 -3 92t-1 128.5t1.5 148t4 150.5t6 136.5t8.5 105.5q42 4 99 6.5t122.5 3.5t135.5 1t136 -1.5t125 -4.5t104 -6q9 -13 16.5 -40.5t7.5 -61t-9 -69t-31.5 -64.5t-62 -47.5t-99.5 -18.5h-206v-52q22 0 61 1.5t83 1t88 -4.5t76 -14q22 -50 25 -95t-14 -80
t-53 -56.5t-91 -24.5q-19 -1 -35.5 -1h-35.5t-43.5 0.5t-59.5 0.5v-61h23h321q28 -40 36.5 -89t-7 -94t-57 -79t-112.5 -43q-21 -3 -55 -5t-74 -3t-83 -0.5t-82.5 1.5t-71.5 4t-50 7q-71 18 -104 71.5t-39 155.5zM663 1137q3 -32 -8 -51.5t-28.5 -28t-38 -6t-35.5 16.5
q-19 18 -36.5 38t-32.5 40.5t-28 40t-22 35.5q-17 -27 -35.5 -52.5t-36 -46.5t-34 -36.5t-29.5 -22.5q-28 -15 -51 -14t-39.5 13t-24.5 32t-5 44q16 38 40.5 84.5t48.5 90.5t45 78.5t30 48.5q18 11 40 17t44.5 5t44.5 -10t39 -28q36 -39 63.5 -79.5t46.5 -79t29.5 -72
t12.5 -57.5z" />
    <glyph glyph-name="Edieresis" unicode="&#xcb;" horiz-adv-x="842" 
d="M55 231q-2 34 -3 92t-1 128.5t1.5 148t4 150.5t6 136.5t8.5 105.5q42 4 99 6.5t122.5 3.5t135.5 1t136 -1.5t125 -4.5t104 -6q9 -13 16.5 -40.5t7.5 -61t-9 -69t-31.5 -64.5t-62 -47.5t-99.5 -18.5h-206v-52q22 0 61 1.5t83 1t88 -4.5t76 -14q22 -50 25 -95t-14 -80
t-53 -56.5t-91 -24.5q-19 -1 -35.5 -1h-35.5t-43.5 0.5t-59.5 0.5v-61h23h321q28 -40 36.5 -89t-7 -94t-57 -79t-112.5 -43q-21 -3 -55 -5t-74 -3t-83 -0.5t-82.5 1.5t-71.5 4t-50 7q-71 18 -104 71.5t-39 155.5zM220 1080q-12 2 -25 3.5t-25 4.5q-48 11 -76 41.5t-33 79.5
q-5 41 3 81q6 39 29.5 63.5t60.5 36.5q53 18 109 6q57 -13 88.5 -56.5t26.5 -102.5q-2 -17 -5 -34t-9 -33q-17 -43 -54.5 -66t-89.5 -24zM619 1080q-12 2 -24.5 3.5t-24.5 4.5q-48 11 -76.5 41.5t-33.5 79.5q-3 42 3 81q7 39 30 63.5t60 36.5q54 18 109 6q57 -13 89 -56.5
t27 -102.5q-2 -17 -5 -34t-10 -33q-17 -43 -54 -66t-90 -24z" />
    <glyph glyph-name="Igrave" unicode="&#xcc;" horiz-adv-x="478" 
d="M411 804q4 -30 7 -87t3.5 -129t-0.5 -152t-4 -156t-7 -141t-10 -107q-21 -23 -52 -35t-65.5 -12t-71 12t-68 38.5t-55.5 67t-35 96.5q-4 22 -7.5 79t-6 131.5t-3 158.5t1.5 161.5t6.5 139.5t12.5 93q23 20 56 33t69 15.5t73 -7t68.5 -34t55 -65t32.5 -100.5zM65 1317
q3 31 22.5 61t48.5 47.5t64 18t68 -25.5t57 -64t40.5 -77.5t26 -76.5t12.5 -61q3 -31 -6.5 -52.5t-26.5 -32.5t-38.5 -11.5t-42.5 11.5q-29 29 -64 68.5t-67.5 78t-58 70.5t-35.5 46z" />
    <glyph glyph-name="Iacute" unicode="&#xcd;" horiz-adv-x="478" 
d="M411 804q4 -30 7 -87t3.5 -129t-0.5 -152t-4 -156t-7 -141t-10 -107q-21 -23 -52 -35t-65.5 -12t-71 12t-68 38.5t-55.5 67t-35 96.5q-4 22 -7.5 79t-6 131.5t-3 158.5t1.5 161.5t6.5 139.5t12.5 93q23 20 56 33t69 15.5t73 -7t68.5 -34t55 -65t32.5 -100.5zM198 1450
q28 13 63.5 10t65 -20t47 -47t10.5 -71q-7 -42 -28.5 -81.5t-48.5 -73t-54.5 -59.5t-47.5 -41q-26 -18 -49 -20.5t-41 7.5t-28.5 29t-10.5 43q12 39 29.5 89t35.5 97.5t33.5 85t23.5 52.5z" />
    <glyph glyph-name="Icircumflex" unicode="&#xce;" horiz-adv-x="478" 
d="M411 804q4 -30 7 -87t3.5 -129t-0.5 -152t-4 -156t-7 -141t-10 -107q-21 -23 -52 -35t-65.5 -12t-71 12t-68 38.5t-55.5 67t-35 96.5q-4 22 -7.5 79t-6 131.5t-3 158.5t1.5 161.5t6.5 139.5t12.5 93q23 20 56 33t69 15.5t73 -7t68.5 -34t55 -65t32.5 -100.5zM482 1128
q3 -32 -8 -51.5t-28.5 -28t-38 -6t-35.5 16.5q-19 18 -36.5 38t-32.5 40.5t-28 40t-22 35.5q-17 -27 -35.5 -52.5t-36 -46.5t-34 -36.5t-29.5 -22.5q-28 -15 -51 -14t-39.5 13t-24.5 32t-5 44q16 38 40.5 84.5t48.5 90.5t45 78.5t30 48.5q18 11 40 17t44.5 5t44.5 -10
t39 -28q36 -39 63.5 -79.5t46.5 -79t29.5 -72t12.5 -57.5z" />
    <glyph glyph-name="Idieresis" unicode="&#xcf;" horiz-adv-x="478" 
d="M411 804q4 -30 7 -87t3.5 -129t-0.5 -152t-4 -156t-7 -141t-10 -107q-21 -23 -52 -35t-65.5 -12t-71 12t-68 38.5t-55.5 67t-35 96.5q-4 22 -7.5 79t-6 131.5t-3 158.5t1.5 161.5t6.5 139.5t12.5 93q23 20 56 33t69 15.5t73 -7t68.5 -34t55 -65t32.5 -100.5zM39 1087
q-12 2 -25 3.5t-25 4.5q-48 11 -76 41.5t-33 79.5q-5 41 3 81q6 39 29.5 63.5t60.5 36.5q53 18 109 6q57 -13 88.5 -56.5t26.5 -102.5q-2 -17 -5 -34t-9 -33q-17 -43 -54.5 -66t-89.5 -24zM438 1087q-12 2 -24.5 3.5t-24.5 4.5q-48 11 -76.5 41.5t-33.5 79.5q-3 42 3 81
q7 39 30 63.5t60 36.5q54 18 109 6q57 -13 89 -56.5t27 -102.5q-2 -17 -5 -34t-10 -33q-17 -43 -54 -66t-90 -24z" />
    <glyph glyph-name="Eth" unicode="&#xd0;" horiz-adv-x="1135" 
d="M860 961q121 -64 179 -169.5t58 -267.5q0 -46 -8.5 -104t-31 -118.5t-60.5 -118.5t-96 -103.5t-139.5 -73t-189.5 -27.5q-90 0 -157 13t-112.5 43.5t-71 79.5t-31.5 121q-3 27 -4.5 57.5t-3.5 64.5q-42 2 -76.5 5.5t-56.5 9.5q-24 27 -34 69t1.5 84t48 76t106.5 45
q2 0 4.5 0.5t5.5 0.5q3 142 12 303q41 25 97 40t118 22t126.5 6t123.5 -8t109 -20t83 -30zM596 259q29 1 57.5 15t51.5 45.5t37 83t14 127.5q0 73 -21 118.5t-52.5 69t-67.5 29t-66 -0.5v-39.5t-1 -58.5q53 -3 95 -9q24 -23 32.5 -59.5t-2 -75t-41 -73t-84.5 -52.5v-46
t1 -38q0 -12 5.5 -19t13 -10.5t15 -5t13.5 -1.5z" />
    <glyph glyph-name="Ntilde" unicode="&#xd1;" horiz-adv-x="1079" 
d="M652 562v374q30 37 69 55.5t79 21t78.5 -9.5t68.5 -35.5t48.5 -58t18.5 -76.5q0 -31 0.5 -86.5t1 -126t1 -149.5t0 -156t-2.5 -146.5t-6 -119.5q-32 -32 -85.5 -50t-113.5 -14t-120 33.5t-106 92.5q-21 29 -43.5 66t-43 73t-36.5 65t-25 43q-2 5 -5.5 8.5t-6.5 8.5
q-2 0 -3.5 -0.5t-3.5 -0.5q1 -45 3 -82t3.5 -74.5t2.5 -78.5t0 -95q-41 -34 -83.5 -48t-82.5 -13.5t-75.5 14t-62 35.5t-42.5 50t-17 58q-2 62 -3.5 137t-2.5 154.5t-1 158.5t0.5 147.5t2.5 122t5 83.5q36 30 89 48.5t109.5 16t109.5 -30t89 -87.5q26 -44 46.5 -79.5
t40 -70.5t40.5 -72.5t48 -85.5q3 -6 6.5 -11.5t6.5 -10.5q1 1 2 1t2 1zM341 1091q-35 16 -54 43.5t-21.5 59t11.5 62.5t45 54q28 20 63 24t73.5 -0.5t78.5 -14.5t78.5 -18t73 -10t61.5 9q31 -8 47.5 -35t17 -59t-16.5 -60.5t-51 -38.5q-37 -10 -67.5 -9.5t-59 5t-57 10.5
t-61.5 7.5t-72 -4.5t-89 -25z" />
    <glyph glyph-name="Ograve" unicode="&#xd2;" horiz-adv-x="1120" 
d="M553 1020q85 0 152 -17t118.5 -45t88.5 -62.5t62 -69.5t40 -65.5t23 -50.5q35 -97 41.5 -193.5t-23.5 -196.5q-82 -263 -349 -326q-109 -26 -213.5 -16.5t-204.5 61.5q-96 49 -152 127.5t-79 181.5q-11 48 -15 99t-1 100.5t13 95.5t28 85q24 53 61.5 105t94.5 93.5
t134.5 67.5t180.5 26zM558 662q-28 0 -53 -11.5t-43.5 -34.5t-28.5 -57t-7 -79q3 -44 17 -73.5t34 -48t42.5 -26t42.5 -5.5q20 1 41 10t38.5 27.5t30 48t14.5 71.5q3 42 -7 75.5t-28 56t-42 34.5t-51 12zM386 1329q3 31 22.5 61t48.5 47.5t64 18t68 -25.5t57 -64t40.5 -77.5
t26 -76.5t12.5 -61q3 -31 -6.5 -52.5t-26.5 -32.5t-38.5 -11.5t-42.5 11.5q-29 29 -64 68.5t-67.5 78t-58 70.5t-35.5 46z" />
    <glyph glyph-name="Oacute" unicode="&#xd3;" horiz-adv-x="1120" 
d="M553 1020q85 0 152 -17t118.5 -45t88.5 -62.5t62 -69.5t40 -65.5t23 -50.5q35 -97 41.5 -193.5t-23.5 -196.5q-82 -263 -349 -326q-109 -26 -213.5 -16.5t-204.5 61.5q-96 49 -152 127.5t-79 181.5q-11 48 -15 99t-1 100.5t13 95.5t28 85q24 53 61.5 105t94.5 93.5
t134.5 67.5t180.5 26zM558 662q-28 0 -53 -11.5t-43.5 -34.5t-28.5 -57t-7 -79q3 -44 17 -73.5t34 -48t42.5 -26t42.5 -5.5q20 1 41 10t38.5 27.5t30 48t14.5 71.5q3 42 -7 75.5t-28 56t-42 34.5t-51 12zM519 1446q28 13 63.5 10t65 -20t47 -47t10.5 -71q-7 -42 -28.5 -81.5
t-48.5 -73t-54.5 -59.5t-47.5 -41q-26 -18 -49 -20.5t-41 7.5t-28.5 29t-10.5 43q12 39 29.5 89t35.5 97.5t33.5 85t23.5 52.5z" />
    <glyph glyph-name="Ocircumflex" unicode="&#xd4;" horiz-adv-x="1120" 
d="M553 1020q85 0 152 -17t118.5 -45t88.5 -62.5t62 -69.5t40 -65.5t23 -50.5q35 -97 41.5 -193.5t-23.5 -196.5q-82 -263 -349 -326q-109 -26 -213.5 -16.5t-204.5 61.5q-96 49 -152 127.5t-79 181.5q-11 48 -15 99t-1 100.5t13 95.5t28 85q24 53 61.5 105t94.5 93.5
t134.5 67.5t180.5 26zM558 662q-28 0 -53 -11.5t-43.5 -34.5t-28.5 -57t-7 -79q3 -44 17 -73.5t34 -48t42.5 -26t42.5 -5.5q20 1 41 10t38.5 27.5t30 48t14.5 71.5q3 42 -7 75.5t-28 56t-42 34.5t-51 12zM802 1135q3 -32 -8 -51.5t-28.5 -28t-38 -6t-35.5 16.5
q-19 18 -36.5 38t-32.5 40.5t-28 40t-22 35.5q-17 -27 -35.5 -52.5t-36 -46.5t-34 -36.5t-29.5 -22.5q-28 -15 -51 -14t-39.5 13t-24.5 32t-5 44q16 38 40.5 84.5t48.5 90.5t45 78.5t30 48.5q18 11 40 17t44.5 5t44.5 -10t39 -28q36 -39 63.5 -79.5t46.5 -79t29.5 -72
t12.5 -57.5z" />
    <glyph glyph-name="Otilde" unicode="&#xd5;" horiz-adv-x="1120" 
d="M553 1020q85 0 152 -17t118.5 -45t88.5 -62.5t62 -69.5t40 -65.5t23 -50.5q35 -97 41.5 -193.5t-23.5 -196.5q-82 -263 -349 -326q-109 -26 -213.5 -16.5t-204.5 61.5q-96 49 -152 127.5t-79 181.5q-11 48 -15 99t-1 100.5t13 95.5t28 85q24 53 61.5 105t94.5 93.5
t134.5 67.5t180.5 26zM558 662q-28 0 -53 -11.5t-43.5 -34.5t-28.5 -57t-7 -79q3 -44 17 -73.5t34 -48t42.5 -26t42.5 -5.5q20 1 41 10t38.5 27.5t30 48t14.5 71.5q3 42 -7 75.5t-28 56t-42 34.5t-51 12zM361 1111q-35 16 -54 43.5t-21.5 59t11.5 62.5t45 54q28 20 63 24
t73.5 -0.5t78.5 -14.5t78.5 -18t73 -10t61.5 9q31 -8 47.5 -35t17 -59t-16.5 -60.5t-51 -38.5q-37 -10 -67.5 -9.5t-59 5t-57 10.5t-61.5 7.5t-72 -4.5t-89 -25z" />
    <glyph glyph-name="Odieresis" unicode="&#xd6;" horiz-adv-x="1120" 
d="M553 1020q85 0 152 -17t118.5 -45t88.5 -62.5t62 -69.5t40 -65.5t23 -50.5q35 -97 41.5 -193.5t-23.5 -196.5q-82 -263 -349 -326q-109 -26 -213.5 -16.5t-204.5 61.5q-96 49 -152 127.5t-79 181.5q-11 48 -15 99t-1 100.5t13 95.5t28 85q24 53 61.5 105t94.5 93.5
t134.5 67.5t180.5 26zM558 662q-28 0 -53 -11.5t-43.5 -34.5t-28.5 -57t-7 -79q3 -44 17 -73.5t34 -48t42.5 -26t42.5 -5.5q20 1 41 10t38.5 27.5t30 48t14.5 71.5q3 42 -7 75.5t-28 56t-42 34.5t-51 12zM359 1086q-12 2 -25 3.5t-25 4.5q-48 11 -76 41.5t-33 79.5
q-5 41 3 81q6 39 29.5 63.5t60.5 36.5q53 18 109 6q57 -13 88.5 -56.5t26.5 -102.5q-2 -17 -5 -34t-9 -33q-17 -43 -54.5 -66t-89.5 -24zM758 1086q-12 2 -24.5 3.5t-24.5 4.5q-48 11 -76.5 41.5t-33.5 79.5q-3 42 3 81q7 39 30 63.5t60 36.5q54 18 109 6q57 -13 89 -56.5
t27 -102.5q-2 -17 -5 -34t-10 -33q-17 -43 -54 -66t-90 -24z" />
    <glyph glyph-name="multiply" unicode="&#xd7;" horiz-adv-x="867" 
d="M626 870q47 -3 88.5 -37.5t61.5 -89t9.5 -122t-66.5 -135.5q-3 -3 -6 -6.5t-8 -8.5q38 -49 68 -93t44 -75q-5 -31 -22 -62.5t-44 -57t-62.5 -42t-76.5 -18t-86.5 15.5t-91.5 59l-19 19q-48 -37 -91 -65.5t-73 -42.5q-31 5 -62.5 22t-57 44t-42 62.5t-17.5 76.5t16 86
t59 92q5 5 10 10.5t11 11.5q-32 45 -61 86.5t-51 77.5q2 32 18.5 61.5t44 52t64 36.5t79 13.5t88 -17t90.5 -54.5q4 -3 8 -6.5t9 -8.5q46 33 89 62.5t80 52.5z" />
    <glyph glyph-name="Ugrave" unicode="&#xd9;" horiz-adv-x="1099" 
d="M1021 340q-11 -96 -56.5 -165t-111 -114t-144.5 -66.5t-157 -21.5q-52 0 -105.5 4.5t-104 18t-96.5 38t-82.5 65t-62.5 98.5t-37 139q-10 68 -12 146t1.5 160t11.5 164.5t19 160.5q11 12 40.5 22.5t68.5 14.5t81.5 1t79.5 -18t63.5 -43.5t32.5 -73.5q2 -13 2 -48
t0.5 -82.5t1 -103t2 -111t5 -105.5t9.5 -86q6 -33 28 -52t48 -20.5t49.5 17t31.5 59.5q6 30 11 76t8 100.5t4 114t-0.5 116.5t-5.5 108t-11 89q19 20 54.5 34.5t77.5 20t86.5 -1t82 -28.5t63 -61.5t31.5 -100.5q3 -34 6 -62.5t5 -57t2.5 -60t-1.5 -71.5t-6.5 -92t-12.5 -122
zM327 1313q3 31 22.5 61t48.5 47.5t64 18t68 -25.5t57 -64t40.5 -77.5t26 -76.5t12.5 -61q3 -31 -6.5 -52.5t-26.5 -32.5t-38.5 -11.5t-42.5 11.5q-29 29 -64 68.5t-67.5 78t-58 70.5t-35.5 46z" />
    <glyph glyph-name="Uacute" unicode="&#xda;" horiz-adv-x="1093" 
d="M1021 340q-11 -96 -56.5 -165t-111 -114t-144.5 -66.5t-157 -21.5q-52 0 -105.5 4.5t-104 18t-96.5 38t-82.5 65t-62.5 98.5t-37 139q-10 68 -12 146t1.5 160t11.5 164.5t19 160.5q11 12 40.5 22.5t68.5 14.5t81.5 1t79.5 -18t63.5 -43.5t32.5 -73.5q2 -13 2 -48
t0.5 -82.5t1 -103t2 -111t5 -105.5t9.5 -86q6 -33 28 -52t48 -20.5t49.5 17t31.5 59.5q6 30 11 76t8 100.5t4 114t-0.5 116.5t-5.5 108t-11 89q19 20 54.5 34.5t77.5 20t86.5 -1t82 -28.5t63 -61.5t31.5 -100.5q3 -34 6 -62.5t5 -57t2.5 -60t-1.5 -71.5t-6.5 -92t-12.5 -122
zM505 1440q28 13 63.5 10t65 -20t47 -47t10.5 -71q-7 -42 -28.5 -81.5t-48.5 -73t-54.5 -59.5t-47.5 -41q-26 -18 -49 -20.5t-41 7.5t-28.5 29t-10.5 43q12 39 29.5 89t35.5 97.5t33.5 85t23.5 52.5z" />
    <glyph glyph-name="Ucircumflex" unicode="&#xdb;" horiz-adv-x="1093" 
d="M1021 340q-11 -96 -56.5 -165t-111 -114t-144.5 -66.5t-157 -21.5q-52 0 -105.5 4.5t-104 18t-96.5 38t-82.5 65t-62.5 98.5t-37 139q-10 68 -12 146t1.5 160t11.5 164.5t19 160.5q11 12 40.5 22.5t68.5 14.5t81.5 1t79.5 -18t63.5 -43.5t32.5 -73.5q2 -13 2 -48
t0.5 -82.5t1 -103t2 -111t5 -105.5t9.5 -86q6 -33 28 -52t48 -20.5t49.5 17t31.5 59.5q6 30 11 76t8 100.5t4 114t-0.5 116.5t-5.5 108t-11 89q19 20 54.5 34.5t77.5 20t86.5 -1t82 -28.5t63 -61.5t31.5 -100.5q3 -34 6 -62.5t5 -57t2.5 -60t-1.5 -71.5t-6.5 -92t-12.5 -122
zM788 1130q3 -32 -8 -51.5t-28.5 -28t-38 -6t-35.5 16.5q-19 18 -36.5 38t-32.5 40.5t-28 40t-22 35.5q-17 -27 -35.5 -52.5t-36 -46.5t-34 -36.5t-29.5 -22.5q-28 -15 -51 -14t-39.5 13t-24.5 32t-5 44q16 38 40.5 84.5t48.5 90.5t45 78.5t30 48.5q18 11 40 17t44.5 5
t44.5 -10t39 -28q36 -39 63.5 -79.5t46.5 -79t29.5 -72t12.5 -57.5z" />
    <glyph glyph-name="Udieresis" unicode="&#xdc;" horiz-adv-x="1093" 
d="M1021 340q-11 -96 -56.5 -165t-111 -114t-144.5 -66.5t-157 -21.5q-52 0 -105.5 4.5t-104 18t-96.5 38t-82.5 65t-62.5 98.5t-37 139q-10 68 -12 146t1.5 160t11.5 164.5t19 160.5q11 12 40.5 22.5t68.5 14.5t81.5 1t79.5 -18t63.5 -43.5t32.5 -73.5q2 -13 2 -48
t0.5 -82.5t1 -103t2 -111t5 -105.5t9.5 -86q6 -33 28 -52t48 -20.5t49.5 17t31.5 59.5q6 30 11 76t8 100.5t4 114t-0.5 116.5t-5.5 108t-11 89q19 20 54.5 34.5t77.5 20t86.5 -1t82 -28.5t63 -61.5t31.5 -100.5q3 -34 6 -62.5t5 -57t2.5 -60t-1.5 -71.5t-6.5 -92t-12.5 -122
zM345 1083q-12 2 -25 3.5t-25 4.5q-48 11 -76 41.5t-33 79.5q-5 41 3 81q6 39 29.5 63.5t60.5 36.5q53 18 109 6q57 -13 88.5 -56.5t26.5 -102.5q-2 -17 -5 -34t-9 -33q-17 -43 -54.5 -66t-89.5 -24zM744 1083q-12 2 -24.5 3.5t-24.5 4.5q-48 11 -76.5 41.5t-33.5 79.5
q-3 42 3 81q7 39 30 63.5t60 36.5q54 18 109 6q57 -13 89 -56.5t27 -102.5q-2 -17 -5 -34t-10 -33q-17 -43 -54 -66t-90 -24z" />
    <glyph glyph-name="Yacute" unicode="&#xdd;" horiz-adv-x="949" 
d="M501 616q4 9 15 35t26 62t33 78.5t35.5 83t33.5 76t28 58.5q54 15 108 3t92 -45.5t51 -86.5t-15 -120q-25 -58 -50 -107t-52 -99t-56.5 -106t-62.5 -127q-15 -27 -15 -55v-72.5t-1 -75t-1.5 -61t-0.5 -31.5q-11 -15 -41.5 -26t-70 -15t-83 1t-80 24t-61.5 54t-27 89v27
v37.5t0.5 35.5t0.5 21q-1 13 -3.5 20.5t-7.5 18.5q-30 58 -66.5 130t-73.5 148.5t-71 152t-61 140.5q25 60 72 92.5t97 39.5t93.5 -9t63.5 -53q16 -30 33.5 -70.5t34.5 -83t33 -83t30 -71.5q3 -8 6 -14.5t6 -14.5q6 0 8 -1zM433 1452q28 13 63.5 10t65 -20t47 -47t10.5 -71
q-7 -42 -28.5 -81.5t-48.5 -73t-54.5 -59.5t-47.5 -41q-26 -18 -49 -20.5t-41 7.5t-28.5 29t-10.5 43q12 39 29.5 89t35.5 97.5t33.5 85t23.5 52.5z" />
    <glyph glyph-name="agrave" unicode="&#xe0;" 
d="M24 299q10 50 25 111t33 125.5t38 129.5t40 123t39 106.5t35 79.5q34 11 80 22t97.5 15.5t105.5 -1.5t103.5 -28.5t91.5 -65.5t71 -112q13 -33 30.5 -83t36.5 -110t38.5 -126.5t37 -133t32.5 -129t24 -115.5q-4 -27 -29 -53.5t-62.5 -45t-83 -24.5t-88.5 7.5t-79 51
t-56 105.5q-48 2 -98.5 0.5t-98.5 0.5q-13 -32 -24.5 -68.5t-22.5 -75.5q-92 -34 -159 -24t-107.5 52t-53 111.5t3.5 154.5zM423 438h123q-14 61 -29 120.5t-29 119.5q-3 -1 -9 -1q-14 -60 -28 -118.5t-28 -120.5zM322 1321q3 31 22.5 61t48.5 47.5t64 18t68 -25.5t57 -64
t40.5 -77.5t26 -76.5t12.5 -61q3 -31 -6.5 -52.5t-26.5 -32.5t-38.5 -11.5t-42.5 11.5q-29 29 -64 68.5t-67.5 78t-58 70.5t-35.5 46z" />
    <glyph glyph-name="aacute" unicode="&#xe1;" 
d="M24 299q10 50 25 111t33 125.5t38 129.5t40 123t39 106.5t35 79.5q34 11 80 22t97.5 15.5t105.5 -1.5t103.5 -28.5t91.5 -65.5t71 -112q13 -33 30.5 -83t36.5 -110t38.5 -126.5t37 -133t32.5 -129t24 -115.5q-4 -27 -29 -53.5t-62.5 -45t-83 -24.5t-88.5 7.5t-79 51
t-56 105.5q-48 2 -98.5 0.5t-98.5 0.5q-13 -32 -24.5 -68.5t-22.5 -75.5q-92 -34 -159 -24t-107.5 52t-53 111.5t3.5 154.5zM423 438h123q-14 61 -29 120.5t-29 119.5q-3 -1 -9 -1q-14 -60 -28 -118.5t-28 -120.5zM455 1452q28 13 63.5 10t65 -20t47 -47t10.5 -71
q-7 -42 -28.5 -81.5t-48.5 -73t-54.5 -59.5t-47.5 -41q-26 -18 -49 -20.5t-41 7.5t-28.5 29t-10.5 43q12 39 29.5 89t35.5 97.5t33.5 85t23.5 52.5z" />
    <glyph glyph-name="acircumflex" unicode="&#xe2;" 
d="M24 299q10 50 25 111t33 125.5t38 129.5t40 123t39 106.5t35 79.5q34 11 80 22t97.5 15.5t105.5 -1.5t103.5 -28.5t91.5 -65.5t71 -112q13 -33 30.5 -83t36.5 -110t38.5 -126.5t37 -133t32.5 -129t24 -115.5q-4 -27 -29 -53.5t-62.5 -45t-83 -24.5t-88.5 7.5t-79 51
t-56 105.5q-48 2 -98.5 0.5t-98.5 0.5q-13 -32 -24.5 -68.5t-22.5 -75.5q-92 -34 -159 -24t-107.5 52t-53 111.5t3.5 154.5zM423 438h123q-14 61 -29 120.5t-29 119.5q-3 -1 -9 -1q-14 -60 -28 -118.5t-28 -120.5zM738 1147q3 -32 -8 -51.5t-28.5 -28t-38 -6t-35.5 16.5
q-19 18 -36.5 38t-32.5 40.5t-28 40t-22 35.5q-17 -27 -35.5 -52.5t-36 -46.5t-34 -36.5t-29.5 -22.5q-28 -15 -51 -14t-39.5 13t-24.5 32t-5 44q16 38 40.5 84.5t48.5 90.5t45 78.5t30 48.5q18 11 40 17t44.5 5t44.5 -10t39 -28q36 -39 63.5 -79.5t46.5 -79t29.5 -72
t12.5 -57.5z" />
    <glyph glyph-name="atilde" unicode="&#xe3;" 
d="M24 299q10 50 25 111t33 125.5t38 129.5t40 123t39 106.5t35 79.5q34 11 80 22t97.5 15.5t105.5 -1.5t103.5 -28.5t91.5 -65.5t71 -112q13 -33 30.5 -83t36.5 -110t38.5 -126.5t37 -133t32.5 -129t24 -115.5q-4 -27 -29 -53.5t-62.5 -45t-83 -24.5t-88.5 7.5t-79 51
t-56 105.5q-48 2 -98.5 0.5t-98.5 0.5q-13 -32 -24.5 -68.5t-22.5 -75.5q-92 -34 -159 -24t-107.5 52t-53 111.5t3.5 154.5zM423 438h123q-14 61 -29 120.5t-29 119.5q-3 -1 -9 -1q-14 -60 -28 -118.5t-28 -120.5zM298 1140q-35 16 -54 43.5t-21.5 59t11.5 62.5t45 54
q28 20 63 24t73.5 -0.5t78.5 -14.5t78.5 -18t73 -10t61.5 9q31 -8 47.5 -35t17 -59t-16.5 -60.5t-51 -38.5q-37 -10 -67.5 -9.5t-59 5t-57 10.5t-61.5 7.5t-72 -4.5t-89 -25z" />
    <glyph glyph-name="adieresis" unicode="&#xe4;" 
d="M24 299q10 50 25 111t33 125.5t38 129.5t40 123t39 106.5t35 79.5q34 11 80 22t97.5 15.5t105.5 -1.5t103.5 -28.5t91.5 -65.5t71 -112q13 -33 30.5 -83t36.5 -110t38.5 -126.5t37 -133t32.5 -129t24 -115.5q-4 -27 -29 -53.5t-62.5 -45t-83 -24.5t-88.5 7.5t-79 51
t-56 105.5q-48 2 -98.5 0.5t-98.5 0.5q-13 -32 -24.5 -68.5t-22.5 -75.5q-92 -34 -159 -24t-107.5 52t-53 111.5t3.5 154.5zM423 438h123q-14 61 -29 120.5t-29 119.5q-3 -1 -9 -1q-14 -60 -28 -118.5t-28 -120.5zM295 1080q-12 2 -25 3.5t-25 4.5q-48 11 -76 41.5t-33 79.5
q-5 41 3 81q6 39 29.5 63.5t60.5 36.5q53 18 109 6q57 -13 88.5 -56.5t26.5 -102.5q-2 -17 -5 -34t-9 -33q-17 -43 -54.5 -66t-89.5 -24zM694 1080q-12 2 -24.5 3.5t-24.5 4.5q-48 11 -76.5 41.5t-33.5 79.5q-3 42 3 81q7 39 30 63.5t60 36.5q54 18 109 6q57 -13 89 -56.5
t27 -102.5q-2 -17 -5 -34t-10 -33q-17 -43 -54 -66t-90 -24z" />
    <glyph glyph-name="aring" unicode="&#xe5;" 
d="M21 320q10 50 25 109.5t33.5 121.5t39 124.5t40.5 118t39.5 102.5t35.5 78q34 11 80 22t97.5 15.5t105.5 -1.5t103.5 -28.5t91.5 -65.5t71 -112q13 -33 30.5 -81.5t36 -106t37.5 -121.5t36.5 -128t32 -125.5t23.5 -113.5q-4 -27 -29 -53.5t-62.5 -45t-83 -24.5t-88.5 7.5
t-79 51t-56 105.5q-48 2 -98.5 0.5t-98.5 0.5q-13 -32 -24.5 -68.5t-22.5 -75.5q-92 -34 -159 -24t-107.5 52t-53 111.5t3.5 154.5zM423 438h123q-14 61 -29 120.5t-29 119.5q-3 -1 -9 -1q-14 -60 -28 -118.5t-28 -120.5zM458 1051q-157 7 -196 132q-13 38 -14.5 76.5
t3.5 76.5q8 54 32.5 88.5t58.5 53.5t74.5 24t81.5 0q79 -11 125 -63t48 -132q0 -29 -3 -59.5t-12 -59.5q-20 -69 -73 -104.5t-125 -32.5zM393 1289q1 -40 17 -67t48 -27q37 0 51.5 24t14.5 72q0 11 -2.5 25t-9.5 26.5t-19 21t-30 8.5q-32 0 -51 -23t-19 -60z" />
    <glyph glyph-name="ccedilla" unicode="&#xe7;" 
d="M824 410q35 -7 65 -29.5t48.5 -56t23.5 -73.5t-9 -81t-50.5 -80t-100.5 -69q-45 -21 -103 -30t-120 -7q-24 -2 -46.5 -10t-37.5 -22t-20.5 -32.5t2.5 -41.5q7 -21 29 -28.5t48 -3.5t51.5 19t39.5 41q24 1 43 -17t28.5 -43t6.5 -52t-23 -45q-48 -43 -109.5 -57t-117.5 -2
t-98 49.5t-51 97.5q-10 63 5.5 106t47.5 72q-120 36 -195.5 116.5t-110.5 202.5q-26 90 -27 179t29 178q17 50 45 93.5t63 79.5t75 63.5t80 45.5q49 23 116.5 37t145.5 12t161 -23.5t164 -68.5q12 -48 7 -88t-23 -71t-46 -52.5t-61.5 -32t-69 -9.5t-68.5 14q-45 12 -83 8.5
t-75 -22.5q-27 -14 -44.5 -35.5t-27 -48.5t-11.5 -56.5t2 -59.5q6 -44 27 -74.5t52 -48.5t68.5 -24t75.5 0q25 3 53 14t52.5 24t44.5 25t29 17z" />
    <glyph glyph-name="egrave" unicode="&#xe8;" horiz-adv-x="842" 
d="M55 231q-2 34 -3 92t-1 128.5t1.5 148t4 150.5t6 136.5t8.5 105.5q42 4 99 6.5t122.5 3.5t135.5 1t136 -1.5t125 -4.5t104 -6q9 -13 16.5 -40.5t7.5 -61t-9 -69t-31.5 -64.5t-62 -47.5t-99.5 -18.5h-206v-52q22 0 61 1.5t83 1t88 -4.5t76 -14q22 -50 25 -95t-14 -80
t-53 -56.5t-91 -24.5q-19 -1 -35.5 -1h-35.5t-43.5 0.5t-59.5 0.5v-61h23h321q28 -40 36.5 -89t-7 -94t-57 -79t-112.5 -43q-21 -3 -55 -5t-74 -3t-83 -0.5t-82.5 1.5t-71.5 4t-50 7q-71 18 -104 71.5t-39 155.5zM247 1321q3 31 22.5 61t48.5 47.5t64 18t68 -25.5t57 -64
t40.5 -77.5t26 -76.5t12.5 -61q3 -31 -6.5 -52.5t-26.5 -32.5t-38.5 -11.5t-42.5 11.5q-29 29 -64 68.5t-67.5 78t-58 70.5t-35.5 46z" />
    <glyph glyph-name="eacute" unicode="&#xe9;" horiz-adv-x="842" 
d="M55 231q-2 34 -3 92t-1 128.5t1.5 148t4 150.5t6 136.5t8.5 105.5q42 4 99 6.5t122.5 3.5t135.5 1t136 -1.5t125 -4.5t104 -6q9 -13 16.5 -40.5t7.5 -61t-9 -69t-31.5 -64.5t-62 -47.5t-99.5 -18.5h-206v-52q22 0 61 1.5t83 1t88 -4.5t76 -14q22 -50 25 -95t-14 -80
t-53 -56.5t-91 -24.5q-19 -1 -35.5 -1h-35.5t-43.5 0.5t-59.5 0.5v-61h23h321q28 -40 36.5 -89t-7 -94t-57 -79t-112.5 -43q-21 -3 -55 -5t-74 -3t-83 -0.5t-82.5 1.5t-71.5 4t-50 7q-71 18 -104 71.5t-39 155.5zM380 1452q28 13 63.5 10t65 -20t47 -47t10.5 -71
q-7 -42 -28.5 -81.5t-48.5 -73t-54.5 -59.5t-47.5 -41q-26 -18 -49 -20.5t-41 7.5t-28.5 29t-10.5 43q12 39 29.5 89t35.5 97.5t33.5 85t23.5 52.5z" />
    <glyph glyph-name="ecircumflex" unicode="&#xea;" horiz-adv-x="842" 
d="M55 231q-2 34 -3 92t-1 128.5t1.5 148t4 150.5t6 136.5t8.5 105.5q42 4 99 6.5t122.5 3.5t135.5 1t136 -1.5t125 -4.5t104 -6q9 -13 16.5 -40.5t7.5 -61t-9 -69t-31.5 -64.5t-62 -47.5t-99.5 -18.5h-206v-52q22 0 61 1.5t83 1t88 -4.5t76 -14q22 -50 25 -95t-14 -80
t-53 -56.5t-91 -24.5q-19 -1 -35.5 -1h-35.5t-43.5 0.5t-59.5 0.5v-61h23h321q28 -40 36.5 -89t-7 -94t-57 -79t-112.5 -43q-21 -3 -55 -5t-74 -3t-83 -0.5t-82.5 1.5t-71.5 4t-50 7q-71 18 -104 71.5t-39 155.5zM663 1147q3 -32 -8 -51.5t-28.5 -28t-38 -6t-35.5 16.5
q-19 18 -36.5 38t-32.5 40.5t-28 40t-22 35.5q-17 -27 -35.5 -52.5t-36 -46.5t-34 -36.5t-29.5 -22.5q-28 -15 -51 -14t-39.5 13t-24.5 32t-5 44q16 38 40.5 84.5t48.5 90.5t45 78.5t30 48.5q18 11 40 17t44.5 5t44.5 -10t39 -28q36 -39 63.5 -79.5t46.5 -79t29.5 -72
t12.5 -57.5z" />
    <glyph glyph-name="edieresis" unicode="&#xeb;" horiz-adv-x="842" 
d="M55 231q-2 34 -3 92t-1 128.5t1.5 148t4 150.5t6 136.5t8.5 105.5q42 4 99 6.5t122.5 3.5t135.5 1t136 -1.5t125 -4.5t104 -6q9 -13 16.5 -40.5t7.5 -61t-9 -69t-31.5 -64.5t-62 -47.5t-99.5 -18.5h-206v-52q22 0 61 1.5t83 1t88 -4.5t76 -14q22 -50 25 -95t-14 -80
t-53 -56.5t-91 -24.5q-19 -1 -35.5 -1h-35.5t-43.5 0.5t-59.5 0.5v-61h23h321q28 -40 36.5 -89t-7 -94t-57 -79t-112.5 -43q-21 -3 -55 -5t-74 -3t-83 -0.5t-82.5 1.5t-71.5 4t-50 7q-71 18 -104 71.5t-39 155.5zM220 1080q-12 2 -25 3.5t-25 4.5q-48 11 -76 41.5t-33 79.5
q-5 41 3 81q6 39 29.5 63.5t60.5 36.5q53 18 109 6q57 -13 88.5 -56.5t26.5 -102.5q-2 -17 -5 -34t-9 -33q-17 -43 -54.5 -66t-89.5 -24zM619 1080q-12 2 -24.5 3.5t-24.5 4.5q-48 11 -76.5 41.5t-33.5 79.5q-3 42 3 81q7 39 30 63.5t60 36.5q54 18 109 6q57 -13 89 -56.5
t27 -102.5q-2 -17 -5 -34t-10 -33q-17 -43 -54 -66t-90 -24z" />
    <glyph glyph-name="igrave" unicode="&#xec;" horiz-adv-x="478" 
d="M411 804q4 -30 7 -87t3.5 -129t-0.5 -152t-4 -156t-7 -141t-10 -107q-21 -23 -52 -35t-65.5 -12t-71 12t-68 38.5t-55.5 67t-35 96.5q-4 22 -7.5 79t-6 131.5t-3 158.5t1.5 161.5t6.5 139.5t12.5 93q23 20 56 33t69 15.5t73 -7t68.5 -34t55 -65t32.5 -100.5zM65 1321
q3 31 22.5 61t48.5 47.5t64 18t68 -25.5t57 -64t40.5 -77.5t26 -76.5t12.5 -61q3 -31 -6.5 -52.5t-26.5 -32.5t-38.5 -11.5t-42.5 11.5q-29 29 -64 68.5t-67.5 78t-58 70.5t-35.5 46z" />
    <glyph glyph-name="iacute" unicode="&#xed;" horiz-adv-x="478" 
d="M411 804q4 -30 7 -87t3.5 -129t-0.5 -152t-4 -156t-7 -141t-10 -107q-21 -23 -52 -35t-65.5 -12t-71 12t-68 38.5t-55.5 67t-35 96.5q-4 22 -7.5 79t-6 131.5t-3 158.5t1.5 161.5t6.5 139.5t12.5 93q23 20 56 33t69 15.5t73 -7t68.5 -34t55 -65t32.5 -100.5zM198 1452
q28 13 63.5 10t65 -20t47 -47t10.5 -71q-7 -42 -28.5 -81.5t-48.5 -73t-54.5 -59.5t-47.5 -41q-26 -18 -49 -20.5t-41 7.5t-28.5 29t-10.5 43q12 39 29.5 89t35.5 97.5t33.5 85t23.5 52.5z" />
    <glyph glyph-name="icircumflex" unicode="&#xee;" horiz-adv-x="478" 
d="M411 804q4 -30 7 -87t3.5 -129t-0.5 -152t-4 -156t-7 -141t-10 -107q-21 -23 -52 -35t-65.5 -12t-71 12t-68 38.5t-55.5 67t-35 96.5q-4 22 -7.5 79t-6 131.5t-3 158.5t1.5 161.5t6.5 139.5t12.5 93q23 20 56 33t69 15.5t73 -7t68.5 -34t55 -65t32.5 -100.5zM482 1147
q3 -32 -8 -51.5t-28.5 -28t-38 -6t-35.5 16.5q-19 18 -36.5 38t-32.5 40.5t-28 40t-22 35.5q-17 -27 -35.5 -52.5t-36 -46.5t-34 -36.5t-29.5 -22.5q-28 -15 -51 -14t-39.5 13t-24.5 32t-5 44q16 38 40.5 84.5t48.5 90.5t45 78.5t30 48.5q18 11 40 17t44.5 5t44.5 -10
t39 -28q36 -39 63.5 -79.5t46.5 -79t29.5 -72t12.5 -57.5z" />
    <glyph glyph-name="idieresis" unicode="&#xef;" horiz-adv-x="478" 
d="M411 804q4 -30 7 -87t3.5 -129t-0.5 -152t-4 -156t-7 -141t-10 -107q-21 -23 -52 -35t-65.5 -12t-71 12t-68 38.5t-55.5 67t-35 96.5q-4 22 -7.5 79t-6 131.5t-3 158.5t1.5 161.5t6.5 139.5t12.5 93q23 20 56 33t69 15.5t73 -7t68.5 -34t55 -65t32.5 -100.5zM39 1080
q-12 2 -25 3.5t-25 4.5q-48 11 -76 41.5t-33 79.5q-5 41 3 81q6 39 29.5 63.5t60.5 36.5q53 18 109 6q57 -13 88.5 -56.5t26.5 -102.5q-2 -17 -5 -34t-9 -33q-17 -43 -54.5 -66t-89.5 -24zM438 1080q-12 2 -24.5 3.5t-24.5 4.5q-48 11 -76.5 41.5t-33.5 79.5q-3 42 3 81
q7 39 30 63.5t60 36.5q54 18 109 6q57 -13 89 -56.5t27 -102.5q-2 -17 -5 -34t-10 -33q-17 -43 -54 -66t-90 -24z" />
    <glyph glyph-name="ntilde" unicode="&#xf1;" horiz-adv-x="1079" 
d="M652 562v374q30 37 69 55.5t79 21t78.5 -9.5t68.5 -35.5t48.5 -58t18.5 -76.5q0 -31 0.5 -86.5t1 -126t1 -149.5t0 -156t-2.5 -146.5t-6 -119.5q-32 -32 -85.5 -50t-113.5 -14t-120 33.5t-106 92.5q-21 29 -43.5 66t-43 73t-36.5 65t-25 43q-2 5 -5.5 8.5t-6.5 8.5
q-2 0 -3.5 -0.5t-3.5 -0.5q1 -45 3 -82t3.5 -74.5t2.5 -78.5t0 -95q-41 -34 -83.5 -48t-82.5 -13.5t-75.5 14t-62 35.5t-42.5 50t-17 58q-2 62 -3.5 137t-2.5 154.5t-1 158.5t0.5 147.5t2.5 122t5 83.5q36 30 89 48.5t109.5 16t109.5 -30t89 -87.5q26 -44 46.5 -79.5
t40 -70.5t40.5 -72.5t48 -85.5q3 -6 6.5 -11.5t6.5 -10.5q1 1 2 1t2 1zM341 1140q-35 16 -54 43.5t-21.5 59t11.5 62.5t45 54q28 20 63 24t73.5 -0.5t78.5 -14.5t78.5 -18t73 -10t61.5 9q31 -8 47.5 -35t17 -59t-16.5 -60.5t-51 -38.5q-37 -10 -67.5 -9.5t-59 5t-57 10.5
t-61.5 7.5t-72 -4.5t-89 -25z" />
    <glyph glyph-name="ograve" unicode="&#xf2;" horiz-adv-x="1120" 
d="M553 1020q85 0 152 -17t118.5 -45t88.5 -62.5t62 -69.5t40 -65.5t23 -50.5q35 -97 41.5 -193.5t-23.5 -196.5q-82 -263 -349 -326q-109 -26 -213.5 -16.5t-204.5 61.5q-96 49 -152 127.5t-79 181.5q-11 48 -15 99t-1 100.5t13 95.5t28 85q24 53 61.5 105t94.5 93.5
t134.5 67.5t180.5 26zM558 662q-28 0 -53 -11.5t-43.5 -34.5t-28.5 -57t-7 -79q3 -44 17 -73.5t34 -48t42.5 -26t42.5 -5.5q20 1 41 10t38.5 27.5t30 48t14.5 71.5q3 42 -7 75.5t-28 56t-42 34.5t-51 12zM386 1321q3 31 22.5 61t48.5 47.5t64 18t68 -25.5t57 -64t40.5 -77.5
t26 -76.5t12.5 -61q3 -31 -6.5 -52.5t-26.5 -32.5t-38.5 -11.5t-42.5 11.5q-29 29 -64 68.5t-67.5 78t-58 70.5t-35.5 46z" />
    <glyph glyph-name="oacute" unicode="&#xf3;" horiz-adv-x="1120" 
d="M553 1020q85 0 152 -17t118.5 -45t88.5 -62.5t62 -69.5t40 -65.5t23 -50.5q35 -97 41.5 -193.5t-23.5 -196.5q-82 -263 -349 -326q-109 -26 -213.5 -16.5t-204.5 61.5q-96 49 -152 127.5t-79 181.5q-11 48 -15 99t-1 100.5t13 95.5t28 85q24 53 61.5 105t94.5 93.5
t134.5 67.5t180.5 26zM558 662q-28 0 -53 -11.5t-43.5 -34.5t-28.5 -57t-7 -79q3 -44 17 -73.5t34 -48t42.5 -26t42.5 -5.5q20 1 41 10t38.5 27.5t30 48t14.5 71.5q3 42 -7 75.5t-28 56t-42 34.5t-51 12zM519 1452q28 13 63.5 10t65 -20t47 -47t10.5 -71q-7 -42 -28.5 -81.5
t-48.5 -73t-54.5 -59.5t-47.5 -41q-26 -18 -49 -20.5t-41 7.5t-28.5 29t-10.5 43q12 39 29.5 89t35.5 97.5t33.5 85t23.5 52.5z" />
    <glyph glyph-name="ocircumflex" unicode="&#xf4;" horiz-adv-x="1120" 
d="M553 1020q85 0 152 -17t118.5 -45t88.5 -62.5t62 -69.5t40 -65.5t23 -50.5q35 -97 41.5 -193.5t-23.5 -196.5q-82 -263 -349 -326q-109 -26 -213.5 -16.5t-204.5 61.5q-96 49 -152 127.5t-79 181.5q-11 48 -15 99t-1 100.5t13 95.5t28 85q24 53 61.5 105t94.5 93.5
t134.5 67.5t180.5 26zM558 662q-28 0 -53 -11.5t-43.5 -34.5t-28.5 -57t-7 -79q3 -44 17 -73.5t34 -48t42.5 -26t42.5 -5.5q20 1 41 10t38.5 27.5t30 48t14.5 71.5q3 42 -7 75.5t-28 56t-42 34.5t-51 12zM802 1147q3 -32 -8 -51.5t-28.5 -28t-38 -6t-35.5 16.5
q-19 18 -36.5 38t-32.5 40.5t-28 40t-22 35.5q-17 -27 -35.5 -52.5t-36 -46.5t-34 -36.5t-29.5 -22.5q-28 -15 -51 -14t-39.5 13t-24.5 32t-5 44q16 38 40.5 84.5t48.5 90.5t45 78.5t30 48.5q18 11 40 17t44.5 5t44.5 -10t39 -28q36 -39 63.5 -79.5t46.5 -79t29.5 -72
t12.5 -57.5z" />
    <glyph glyph-name="otilde" unicode="&#xf5;" horiz-adv-x="1120" 
d="M553 1020q85 0 152 -17t118.5 -45t88.5 -62.5t62 -69.5t40 -65.5t23 -50.5q35 -97 41.5 -193.5t-23.5 -196.5q-82 -263 -349 -326q-109 -26 -213.5 -16.5t-204.5 61.5q-96 49 -152 127.5t-79 181.5q-11 48 -15 99t-1 100.5t13 95.5t28 85q24 53 61.5 105t94.5 93.5
t134.5 67.5t180.5 26zM558 662q-28 0 -53 -11.5t-43.5 -34.5t-28.5 -57t-7 -79q3 -44 17 -73.5t34 -48t42.5 -26t42.5 -5.5q20 1 41 10t38.5 27.5t30 48t14.5 71.5q3 42 -7 75.5t-28 56t-42 34.5t-51 12zM361 1140q-35 16 -54 43.5t-21.5 59t11.5 62.5t45 54q28 20 63 24
t73.5 -0.5t78.5 -14.5t78.5 -18t73 -10t61.5 9q31 -8 47.5 -35t17 -59t-16.5 -60.5t-51 -38.5q-37 -10 -67.5 -9.5t-59 5t-57 10.5t-61.5 7.5t-72 -4.5t-89 -25z" />
    <glyph glyph-name="odieresis" unicode="&#xf6;" horiz-adv-x="1120" 
d="M553 1020q85 0 152 -17t118.5 -45t88.5 -62.5t62 -69.5t40 -65.5t23 -50.5q35 -97 41.5 -193.5t-23.5 -196.5q-82 -263 -349 -326q-109 -26 -213.5 -16.5t-204.5 61.5q-96 49 -152 127.5t-79 181.5q-11 48 -15 99t-1 100.5t13 95.5t28 85q24 53 61.5 105t94.5 93.5
t134.5 67.5t180.5 26zM558 662q-28 0 -53 -11.5t-43.5 -34.5t-28.5 -57t-7 -79q3 -44 17 -73.5t34 -48t42.5 -26t42.5 -5.5q20 1 41 10t38.5 27.5t30 48t14.5 71.5q3 42 -7 75.5t-28 56t-42 34.5t-51 12zM359 1080q-12 2 -25 3.5t-25 4.5q-48 11 -76 41.5t-33 79.5
q-5 41 3 81q6 39 29.5 63.5t60.5 36.5q53 18 109 6q57 -13 88.5 -56.5t26.5 -102.5q-2 -17 -5 -34t-9 -33q-17 -43 -54.5 -66t-89.5 -24zM758 1080q-12 2 -24.5 3.5t-24.5 4.5q-48 11 -76.5 41.5t-33.5 79.5q-3 42 3 81q7 39 30 63.5t60 36.5q54 18 109 6q57 -13 89 -56.5
t27 -102.5q-2 -17 -5 -34t-10 -33q-17 -43 -54 -66t-90 -24z" />
    <glyph glyph-name="ugrave" unicode="&#xf9;" horiz-adv-x="1093" 
d="M1021 340q-11 -96 -56.5 -165t-111 -114t-144.5 -66.5t-157 -21.5q-52 0 -105.5 4.5t-104 18t-96.5 38t-82.5 65t-62.5 98.5t-37 139q-10 68 -12 146t1.5 160t11.5 164.5t19 160.5q11 12 40.5 22.5t68.5 14.5t81.5 1t79.5 -18t63.5 -43.5t32.5 -73.5q2 -13 2 -48
t0.5 -82.5t1 -103t2 -111t5 -105.5t9.5 -86q6 -33 28 -52t48 -20.5t49.5 17t31.5 59.5q6 30 11 76t8 100.5t4 114t-0.5 116.5t-5.5 108t-11 89q19 20 54.5 34.5t77.5 20t86.5 -1t82 -28.5t63 -61.5t31.5 -100.5q3 -34 6 -62.5t5 -57t2.5 -60t-1.5 -71.5t-6.5 -92t-12.5 -122
zM372 1321q3 31 22.5 61t48.5 47.5t64 18t68 -25.5t57 -64t40.5 -77.5t26 -76.5t12.5 -61q3 -31 -6.5 -52.5t-26.5 -32.5t-38.5 -11.5t-42.5 11.5q-29 29 -64 68.5t-67.5 78t-58 70.5t-35.5 46z" />
    <glyph glyph-name="uacute" unicode="&#xfa;" horiz-adv-x="1093" 
d="M1021 340q-11 -96 -56.5 -165t-111 -114t-144.5 -66.5t-157 -21.5q-52 0 -105.5 4.5t-104 18t-96.5 38t-82.5 65t-62.5 98.5t-37 139q-10 68 -12 146t1.5 160t11.5 164.5t19 160.5q11 12 40.5 22.5t68.5 14.5t81.5 1t79.5 -18t63.5 -43.5t32.5 -73.5q2 -13 2 -48
t0.5 -82.5t1 -103t2 -111t5 -105.5t9.5 -86q6 -33 28 -52t48 -20.5t49.5 17t31.5 59.5q6 30 11 76t8 100.5t4 114t-0.5 116.5t-5.5 108t-11 89q19 20 54.5 34.5t77.5 20t86.5 -1t82 -28.5t63 -61.5t31.5 -100.5q3 -34 6 -62.5t5 -57t2.5 -60t-1.5 -71.5t-6.5 -92t-12.5 -122
zM505 1452q28 13 63.5 10t65 -20t47 -47t10.5 -71q-7 -42 -28.5 -81.5t-48.5 -73t-54.5 -59.5t-47.5 -41q-26 -18 -49 -20.5t-41 7.5t-28.5 29t-10.5 43q12 39 29.5 89t35.5 97.5t33.5 85t23.5 52.5z" />
    <glyph glyph-name="ucircumflex" unicode="&#xfb;" horiz-adv-x="1093" 
d="M1021 340q-11 -96 -56.5 -165t-111 -114t-144.5 -66.5t-157 -21.5q-52 0 -105.5 4.5t-104 18t-96.5 38t-82.5 65t-62.5 98.5t-37 139q-10 68 -12 146t1.5 160t11.5 164.5t19 160.5q11 12 40.5 22.5t68.5 14.5t81.5 1t79.5 -18t63.5 -43.5t32.5 -73.5q2 -13 2 -48
t0.5 -82.5t1 -103t2 -111t5 -105.5t9.5 -86q6 -33 28 -52t48 -20.5t49.5 17t31.5 59.5q6 30 11 76t8 100.5t4 114t-0.5 116.5t-5.5 108t-11 89q19 20 54.5 34.5t77.5 20t86.5 -1t82 -28.5t63 -61.5t31.5 -100.5q3 -34 6 -62.5t5 -57t2.5 -60t-1.5 -71.5t-6.5 -92t-12.5 -122
zM788 1147q3 -32 -8 -51.5t-28.5 -28t-38 -6t-35.5 16.5q-19 18 -36.5 38t-32.5 40.5t-28 40t-22 35.5q-17 -27 -35.5 -52.5t-36 -46.5t-34 -36.5t-29.5 -22.5q-28 -15 -51 -14t-39.5 13t-24.5 32t-5 44q16 38 40.5 84.5t48.5 90.5t45 78.5t30 48.5q18 11 40 17t44.5 5
t44.5 -10t39 -28q36 -39 63.5 -79.5t46.5 -79t29.5 -72t12.5 -57.5z" />
    <glyph glyph-name="udieresis" unicode="&#xfc;" horiz-adv-x="1093" 
d="M1021 340q-11 -96 -56.5 -165t-111 -114t-144.5 -66.5t-157 -21.5q-52 0 -105.5 4.5t-104 18t-96.5 38t-82.5 65t-62.5 98.5t-37 139q-10 68 -12 146t1.5 160t11.5 164.5t19 160.5q11 12 40.5 22.5t68.5 14.5t81.5 1t79.5 -18t63.5 -43.5t32.5 -73.5q2 -13 2 -48
t0.5 -82.5t1 -103t2 -111t5 -105.5t9.5 -86q6 -33 28 -52t48 -20.5t49.5 17t31.5 59.5q6 30 11 76t8 100.5t4 114t-0.5 116.5t-5.5 108t-11 89q19 20 54.5 34.5t77.5 20t86.5 -1t82 -28.5t63 -61.5t31.5 -100.5q3 -34 6 -62.5t5 -57t2.5 -60t-1.5 -71.5t-6.5 -92t-12.5 -122
zM345 1080q-12 2 -25 3.5t-25 4.5q-48 11 -76 41.5t-33 79.5q-5 41 3 81q6 39 29.5 63.5t60.5 36.5q53 18 109 6q57 -13 88.5 -56.5t26.5 -102.5q-2 -17 -5 -34t-9 -33q-17 -43 -54.5 -66t-89.5 -24zM744 1080q-12 2 -24.5 3.5t-24.5 4.5q-48 11 -76.5 41.5t-33.5 79.5
q-3 42 3 81q7 39 30 63.5t60 36.5q54 18 109 6q57 -13 89 -56.5t27 -102.5q-2 -17 -5 -34t-10 -33q-17 -43 -54 -66t-90 -24z" />
    <glyph glyph-name="yacute" unicode="&#xfd;" horiz-adv-x="949" 
d="M501 616q4 9 15 35t26 61.5t32.5 77.5t35 82t33.5 75.5t28 58.5q54 15 108 3t92 -45.5t51 -86.5t-15 -120q-25 -58 -50 -106.5t-52 -98t-56 -105t-62 -126.5q-15 -27 -15 -55v-72.5t-1 -75t-1.5 -61t-0.5 -31.5q-11 -15 -41.5 -26t-70 -15t-83 1t-80 24t-61.5 54t-27 89
v27v37.5t0.5 35.5t0.5 21q-1 13 -3.5 20.5t-7.5 18.5q-30 58 -68 131.5t-76 151.5t-73.5 154.5t-62.5 141.5q25 60 72 92.5t97 39.5t93.5 -9t63.5 -53q16 -30 34.5 -71.5t37 -85.5t36 -86t31.5 -73q3 -8 6 -14.5t6 -14.5q6 0 8 -1zM433 1452q28 13 63.5 10t65 -20t47 -47
t10.5 -71q-7 -42 -28.5 -81.5t-48.5 -73t-54.5 -59.5t-47.5 -41q-26 -18 -49 -20.5t-41 7.5t-28.5 29t-10.5 43q12 39 29.5 89t35.5 97.5t33.5 85t23.5 52.5z" />
    <glyph glyph-name="ydieresis" unicode="&#xff;" horiz-adv-x="949" 
d="M501 616q4 9 15 35t26 61.5t32.5 77.5t35 82t33.5 75.5t28 58.5q54 15 108 3t92 -45.5t51 -86.5t-15 -120q-25 -58 -50 -106.5t-52 -98t-56 -105t-62 -126.5q-15 -27 -15 -55v-72.5t-1 -75t-1.5 -61t-0.5 -31.5q-11 -15 -41.5 -26t-70 -15t-83 1t-80 24t-61.5 54t-27 89
v27v37.5t0.5 35.5t0.5 21q-1 13 -3.5 20.5t-7.5 18.5q-30 58 -68 131.5t-76 151.5t-73.5 154.5t-62.5 141.5q25 60 72 92.5t97 39.5t93.5 -9t63.5 -53q16 -30 34.5 -71.5t37 -85.5t36 -86t31.5 -73q3 -8 6 -14.5t6 -14.5q6 0 8 -1zM273 1080q-12 2 -25 3.5t-25 4.5
q-48 11 -76 41.5t-33 79.5q-5 41 3 81q6 39 29.5 63.5t60.5 36.5q53 18 109 6q57 -13 88.5 -56.5t26.5 -102.5q-2 -17 -5 -34t-9 -33q-17 -43 -54.5 -66t-89.5 -24zM672 1080q-12 2 -24.5 3.5t-24.5 4.5q-48 11 -76.5 41.5t-33.5 79.5q-3 42 3 81q7 39 30 63.5t60 36.5
q54 18 109 6q57 -13 89 -56.5t27 -102.5q-2 -17 -5 -34t-10 -33q-17 -43 -54 -66t-90 -24z" />
    <glyph glyph-name="Scaron" unicode="&#x160;" horiz-adv-x="942" 
d="M730 563q63 -39 98.5 -89.5t47.5 -105t3 -109t-34 -102.5t-63.5 -85t-85.5 -56q-33 -13 -79.5 -23.5t-100.5 -15t-113 -2t-117 14.5t-112.5 35.5t-99.5 60.5q-24 30 -31.5 66t-1.5 70t24.5 63t46.5 46.5t63.5 19t76.5 -18.5q53 -26 102.5 -39.5t89 -15t65.5 9.5t32 34
q8 30 -12.5 50t-77.5 24q-61 4 -122.5 20t-113.5 47.5t-89 80t-49 119.5q-3 21 -1.5 50.5t10.5 62.5t27 67t48 65.5t73.5 57.5t103.5 42q49 13 106 17t111.5 -1t103 -19t80.5 -35q44 -29 66.5 -61.5t28.5 -65t-2.5 -63.5t-26.5 -56t-43.5 -42.5t-54.5 -24.5q-18 22 -49 39.5
t-66 29t-71.5 16t-66 0.5t-48.5 -16t-19 -34q0 -17 14 -27t52 -15q55 -7 100 -18.5t80 -23.5t59 -24t38 -20zM229 1383q-3 31 8.5 51t29 28.5t37.5 6t35 -16.5q39 -35 69.5 -78.5t49.5 -75.5q18 27 36 52.5t36 46.5t34 36.5t29 22.5q28 15 51.5 14t40 -13t24 -32t4.5 -44
q-17 -38 -41 -84.5t-48 -90t-44.5 -78.5t-29.5 -49q-18 -11 -40 -16.5t-45 -4.5t-44.5 10t-39.5 28q-36 39 -63 79.5t-46 78.5t-30 71.5t-13 57.5z" />
    <glyph glyph-name="scaron" unicode="&#x161;" horiz-adv-x="942" 
d="M730 563q63 -39 98.5 -89.5t47.5 -105t3 -109t-34 -102.5t-63.5 -85t-85.5 -56q-33 -13 -79.5 -23.5t-100.5 -15t-113 -2t-117 14.5t-112.5 35.5t-99.5 60.5q-24 30 -31.5 66t-1.5 70t24.5 63t46.5 46.5t63.5 19t76.5 -18.5q53 -26 97.5 -41t78.5 -17.5t55 7t27 32.5
q4 15 5 25t-5 16.5t-21.5 10t-43.5 5.5q-61 4 -121.5 24t-111.5 56t-87 88.5t-48 123.5q-3 21 -1.5 50.5t10.5 62.5t27 67t48 65.5t73.5 57.5t103.5 42q49 13 106 17t111.5 -1t103 -19t80.5 -35q44 -29 66.5 -61.5t28.5 -65t-2.5 -63.5t-26.5 -56t-43.5 -42.5t-54.5 -24.5
q-18 22 -47.5 38t-63 25t-67.5 10.5t-61.5 -4.5t-45 -20t-17.5 -36q0 -17 14 -27t52 -15q110 -14 171 -30.5t88 -33.5zM229 1379q-3 31 8.5 51t29 28.5t37.5 6t35 -16.5q39 -35 69.5 -78.5t49.5 -75.5q18 27 36 52.5t36 46.5t34 36.5t29 22.5q28 15 51.5 14t40 -13t24 -32
t4.5 -44q-17 -38 -41 -84.5t-48 -90t-44.5 -78.5t-29.5 -49q-18 -11 -40 -16.5t-45 -4.5t-44.5 10t-39.5 28q-36 39 -63 79.5t-46 78.5t-30 71.5t-13 57.5z" />
    <glyph glyph-name="Ydieresis" unicode="&#x178;" horiz-adv-x="949" 
d="M501 616q4 9 15 35t26 62t33 78.5t35.5 83t33.5 76t28 58.5q54 15 108 3t92 -45.5t51 -86.5t-15 -120q-25 -58 -50 -107t-52 -99t-56.5 -106t-62.5 -127q-15 -27 -15 -55v-72.5t-1 -75t-1.5 -61t-0.5 -31.5q-11 -15 -41.5 -26t-70 -15t-83 1t-80 24t-61.5 54t-27 89v27
v37.5t0.5 35.5t0.5 21q-1 13 -3.5 20.5t-7.5 18.5q-30 58 -66.5 130t-73.5 148.5t-71 152t-61 140.5q25 60 72 92.5t97 39.5t93.5 -9t63.5 -53q16 -30 33.5 -70.5t34.5 -83t33 -83t30 -71.5q3 -8 6 -14.5t6 -14.5q6 0 8 -1zM273 1089q-12 2 -25 3.5t-25 4.5q-48 11 -76 41.5
t-33 79.5q-5 41 3 81q6 39 29.5 63.5t60.5 36.5q53 18 109 6q57 -13 88.5 -56.5t26.5 -102.5q-2 -17 -5 -34t-9 -33q-17 -43 -54.5 -66t-89.5 -24zM672 1089q-12 2 -24.5 3.5t-24.5 4.5q-48 11 -76.5 41.5t-33.5 79.5q-3 42 3 81q7 39 30 63.5t60 36.5q54 18 109 6
q57 -13 89 -56.5t27 -102.5q-2 -17 -5 -34t-10 -33q-17 -43 -54 -66t-90 -24z" />
    <glyph glyph-name="Zcaron" unicode="&#x17d;" horiz-adv-x="949" 
d="M467 337q40 0 90 1t105.5 1t114.5 -2t117 -9q30 -56 26 -113t-30.5 -103.5t-71 -77t-96.5 -34.5t-112.5 -4.5t-113.5 -0.5q-62 0 -122 2q-25 0 -57 1.5t-66 8t-66.5 19.5t-59 36t-44 56.5t-20.5 82.5q-4 67 19 126.5t66 117.5t102 115.5t126 120.5q-53 0 -102.5 -2
t-90.5 -3.5t-70.5 -1.5t-40.5 2q-16 20 -25 51t-9 66t9 70.5t29.5 65t53 48.5t79.5 22q31 2 81 3t110 1h124.5t123.5 -0.5t107.5 -1t76.5 -0.5q16 -19 29 -49.5t16 -68t-6 -79.5t-36 -84q-16 -25 -42 -57t-58.5 -67t-68.5 -71.5t-71.5 -71t-68 -64.5t-57.5 -52zM233 1362
q-3 31 8.5 51t29 28.5t37.5 6t35 -16.5q39 -35 69.5 -78.5t49.5 -75.5q18 27 36 52.5t36 46.5t34 36.5t29 22.5q28 15 51.5 14t40 -13t24 -32t4.5 -44q-17 -38 -41 -84.5t-48 -90t-44.5 -78.5t-29.5 -49q-18 -11 -40 -16.5t-45 -4.5t-44.5 10t-39.5 28q-36 39 -63 79.5
t-46 78.5t-30 71.5t-13 57.5z" />
    <glyph glyph-name="zcaron" unicode="&#x17e;" horiz-adv-x="949" 
d="M467 333q40 0 90 1t105.5 1t114.5 -2t117 -9q30 -56 26 -112.5t-30.5 -102.5t-71 -76t-96.5 -34t-112.5 -4.5t-113.5 -0.5q-62 0 -122 2q-25 0 -57 1.5t-66 8t-66.5 19.5t-59 36t-44 56.5t-20.5 82.5q-4 67 19 127.5t66 119t102 116.5t126 121q-53 0 -102.5 -2
t-90.5 -3.5t-70.5 -1.5t-40.5 2q-16 20 -25 51t-9 65.5t9 69.5t29.5 64t53 48t79.5 22q31 2 81 3t110 1h124.5t123.5 -0.5t107.5 -1t76.5 -0.5q16 -19 29 -49t16 -67t-6 -78.5t-36 -83.5q-16 -25 -42 -57.5t-58.5 -68.5t-68.5 -73.5t-71.5 -72.5t-68 -65.5t-57.5 -52.5z
M233 1379q-3 31 8.5 51t29 28.5t37.5 6t35 -16.5q39 -35 69.5 -78.5t49.5 -75.5q18 27 36 52.5t36 46.5t34 36.5t29 22.5q28 15 51.5 14t40 -13t24 -32t4.5 -44q-17 -38 -41 -84.5t-48 -90t-44.5 -78.5t-29.5 -49q-18 -11 -40 -16.5t-45 -4.5t-44.5 10t-39.5 28
q-36 39 -63 79.5t-46 78.5t-30 71.5t-13 57.5z" />
    <glyph glyph-name="circumflex" unicode="&#x2c6;" horiz-adv-x="560" 
d="M515 1147q3 -32 -8 -51.5t-28.5 -28t-38 -6t-35.5 16.5q-19 18 -36.5 38t-32.5 40.5t-28 40t-22 35.5q-17 -27 -35.5 -52.5t-36 -46.5t-34 -36.5t-29.5 -22.5q-28 -15 -51 -14t-39.5 13t-24.5 32t-5 44q16 38 40.5 84.5t48.5 90.5t45 78.5t30 48.5q18 11 40 17t44.5 5
t44.5 -10t39 -28q36 -39 63.5 -79.5t46.5 -79t29.5 -72t12.5 -57.5z" />
    <glyph glyph-name="caron" unicode="&#x2c7;" horiz-adv-x="1250" 
d="M363 1379q-3 31 8.5 51t29 28.5t37.5 6t35 -16.5q39 -35 69.5 -78.5t49.5 -75.5q18 27 36 52.5t36 46.5t34 36.5t29 22.5q28 15 51.5 14t40 -13t24 -32t4.5 -44q-17 -38 -41 -84.5t-48 -90t-44.5 -78.5t-29.5 -49q-18 -11 -40 -16.5t-45 -4.5t-44.5 10t-39.5 28
q-36 39 -63 79.5t-46 78.5t-30 71.5t-13 57.5z" />
    <glyph glyph-name="dotaccent" unicode="&#x2d9;" horiz-adv-x="1250" 
d="M606 1127q-13 2 -25.5 3.5t-25.5 4.5q-48 11 -75.5 41.5t-32.5 79.5q-2 20 -1.5 40.5t3.5 40.5q7 39 30 63.5t60 36.5q54 18 109 6q57 -13 89 -56.5t27 -102.5q-2 -17 -5 -34t-10 -33q-17 -44 -54 -66.5t-89 -23.5z" />
    <glyph glyph-name="ring" unicode="&#x2da;" horiz-adv-x="1250" 
d="M610 1051q-157 7 -196 132q-13 38 -14.5 76.5t3.5 76.5q8 54 32.5 88.5t58.5 53.5t74.5 24t81.5 0q79 -11 125 -63t48 -132q0 -29 -3 -59.5t-12 -59.5q-20 -69 -73 -104.5t-125 -32.5zM545 1289q1 -40 17 -67t48 -27q37 0 51.5 24t14.5 72q0 11 -2.5 25t-9.5 26.5t-19 21
t-30 8.5q-32 0 -51 -23t-19 -60z" />
    <glyph glyph-name="ogonek" unicode="&#x2db;" horiz-adv-x="1250" 
d="M708 -77q25 1 45 -17.5t29.5 -44.5t6.5 -54.5t-24 -47.5q-33 -30 -73.5 -46t-82.5 -20t-81.5 4.5t-72.5 29t-55.5 51.5t-28.5 73q-11 77 12 126t66.5 78t100.5 41.5t114 16.5q17 1 19.5 -15.5t-3 -37t-15.5 -37.5t-17 -17q-27 -1 -51.5 -9t-42 -22.5t-24.5 -35t2 -45.5
q7 -21 30 -29.5t50.5 -4t54 20t41.5 42.5z" />
    <glyph glyph-name="tilde" unicode="&#x2dc;" horiz-adv-x="618" 
d="M105 1140q-35 16 -54 43.5t-21.5 59t11.5 62.5t45 54q28 20 63 24t73.5 -0.5t78.5 -14.5t78.5 -18t73 -10t61.5 9q31 -8 47.5 -35t17 -59t-16.5 -60.5t-51 -38.5q-37 -10 -67.5 -9.5t-59 5t-57 10.5t-61.5 7.5t-72 -4.5t-89 -25z" />
    <glyph glyph-name="afii10023" unicode="&#x401;" horiz-adv-x="826" 
d="M25 230q-2 34 -3 92.5t-1 130t1 149.5t4 151.5t7 137.5t9 107q42 4 100 6.5t124 3.5t136.5 0.5t137.5 -2t126.5 -4.5t104.5 -6q9 -13 16.5 -40.5t8 -61t-8.5 -69.5t-32 -65t-62.5 -48t-100.5 -19h-208v-51q22 0 61 1t84 0.5t89.5 -5t76.5 -15.5q22 -50 24.5 -95.5
t-14.5 -81t-53.5 -57t-91.5 -23.5q-20 -2 -36.5 -2t-35.5 0.5t-43.5 1t-60.5 0.5v-62h23h325q29 -41 37.5 -90.5t-7.5 -94.5t-58 -79.5t-114 -43.5q-21 -3 -55 -5.5t-74.5 -3.5t-84.5 -0.5t-84 2t-72 5t-50 8.5q-71 16 -104.5 70.5t-40.5 157.5zM212 1066q-13 2 -26.5 3.5
t-24.5 4.5q-50 11 -77 42t-34 80q-2 20 -1 41t4 41q7 38 30.5 63.5t61.5 36.5q54 21 109 6q58 -12 90.5 -55.5t26.5 -102.5q-2 -18 -5 -35t-8 -33q-17 -44 -55.5 -68t-90.5 -24zM635 1066q-13 2 -25 3.5t-24 4.5q-51 11 -79 42t-33 80q-2 20 -1 41t5 41q11 78 90 100
q53 21 111 6q57 -12 88.5 -55.5t25.5 -102.5q0 -34 -13 -68q-17 -44 -54 -68t-91 -24z" />
    <glyph glyph-name="afii10062" unicode="&#x40e;" horiz-adv-x="979" 
d="M501 695q4 9 15.5 32t27 53.5t33 65t34.5 66.5t32 57.5t25 38.5q39 10 80.5 7t79 -16.5t67.5 -37t46.5 -55.5t16.5 -71t-23 -83q-11 -22 -33.5 -62t-52 -91t-64.5 -109.5t-71 -118t-71.5 -117t-66.5 -106t-56 -84.5t-40 -54q-55 -28 -103.5 -32.5t-88 8.5t-67.5 40.5
t-40.5 64t-7 79.5t32.5 87q22 36 33 52.5l17 25.5t10 15.5t13 23.5q5 11 0 23.5t-11 23.5q-33 58 -66 111.5t-64.5 107.5t-62 110.5t-59.5 122.5q18 40 47 68.5t62.5 45.5t69.5 23t68.5 1t58.5 -20t41 -39q18 -30 32 -58t27.5 -55.5t27 -55.5t29.5 -59q3 -7 6.5 -14t6.5 -15
h9z" />
    <glyph glyph-name="afii10017" unicode="&#x410;" 
d="M21 320q10 50 25 109.5t33.5 121.5t39 124.5t40.5 118t39.5 102.5t35.5 78q34 11 80 22t97.5 15.5t105.5 -1.5t103.5 -28.5t91.5 -65.5t71 -112q13 -33 30.5 -81.5t36 -106t37.5 -121.5t36.5 -128t32 -125.5t23.5 -113.5q-4 -27 -29 -53.5t-62.5 -45t-83 -24.5t-88.5 7.5
t-79 51t-56 105.5q-48 2 -98.5 0.5t-98.5 0.5q-13 -32 -24.5 -68.5t-22.5 -75.5q-92 -34 -159 -24t-107.5 52t-53 111.5t3.5 154.5zM423 438h123q-14 61 -29 120.5t-29 119.5q-3 -1 -9 -1q-14 -60 -28 -118.5t-28 -120.5z" />
    <glyph glyph-name="afii10018" unicode="&#x411;" horiz-adv-x="859" 
d="M708 612q47 -35 74.5 -80.5t39 -96.5t8 -103.5t-18.5 -101.5t-41 -91t-60 -71q-41 -36 -107 -56t-138 -24t-140.5 8.5t-115.5 42.5q-75 48 -115 119.5t-51 175.5q-10 95 -10.5 193.5t4 188t11.5 163t12 118.5q40 4 93.5 6t114 3t125 0.5t126 -1.5t116.5 -3.5t98 -5.5
q9 -13 15.5 -38t7 -56t-8.5 -63t-30.5 -58t-59 -43t-94.5 -17h-183v-52l2 -2q1 0 1.5 -0.5t1.5 -0.5h2q5 3 36 10t77 6t100.5 -16t107.5 -54zM402 304q23 -14 44 -16t38 4.5t27.5 21t12.5 34.5q2 25 -8.5 44t-28.5 27.5t-40.5 5t-43.5 -22.5q-2 -21 -4 -46.5t3 -51.5z" />
    <glyph glyph-name="afii10019" unicode="&#x412;" horiz-adv-x="858" 
d="M697 527q67 -23 104 -81.5t35 -140.5q-1 -75 -30 -135.5t-82.5 -103t-131 -65.5t-175.5 -23q-177 0 -273 80t-113 236q-7 59 -9 140.5t0 170.5t6.5 178t11.5 164q40 24 94 39.5t114.5 23t123.5 8t120 -6.5t104.5 -20.5t77.5 -33.5q60 -40 89.5 -95t33.5 -113t-17 -112.5
t-63 -91.5q-4 -4 -8.5 -8t-11.5 -10zM377 281q18 -10 40.5 -10.5t42.5 8.5q22 9 30.5 27.5t6.5 42.5q-2 20 -14.5 33t-31.5 18q-15 3 -37 2.5t-36 -14.5q-2 -26 -1.5 -53t0.5 -54zM370 634q12 -7 27 -8.5t28 4t22 19t9 37.5q-1 21 -12.5 31.5t-26 14t-28 0t-19.5 -10.5
q-6 -14 -7 -39t7 -48z" />
    <glyph glyph-name="afii10020" unicode="&#x413;" horiz-adv-x="818" 
d="M35 189q-4 35 -6 96.5t-2.5 136.5t1 157.5t4.5 160t7 144t9 108.5q41 4 98.5 6.5t123 3.5t135 0.5t136 -2t126 -4t103.5 -5.5q9 -14 16.5 -41.5t7.5 -60.5t-9 -68.5t-31.5 -64.5t-62 -47.5t-99.5 -18.5h-206q2 -23 3.5 -69.5t3 -107t2 -128.5t-0.5 -134.5t-3.5 -125
t-7.5 -99.5q-22 -16 -54 -24.5t-68.5 -8t-74 11.5t-69 34t-54 60t-28.5 90z" />
    <glyph glyph-name="afii10021" unicode="&#x414;" horiz-adv-x="1305" 
d="M1248 312q8 -15 13 -46t7.5 -71t3 -86t-0.5 -90t-4.5 -83.5t-7.5 -67.5q-17 -21 -47 -35.5t-65.5 -20t-72.5 1t-67.5 28.5t-51 61t-22.5 99q-8 0 -14.5 0.5t-13.5 1.5q-53 -2 -120 -4t-139 -3t-144.5 -1.5t-137.5 0.5q2 -35 3.5 -76t-0.5 -92q-58 -38 -117.5 -45.5
t-108 16t-80.5 77.5t-35 140q-1 20 -0.5 47.5t5.5 58t16.5 61.5t33 59.5t55.5 51t84 35.5q15 75 40.5 165.5t54.5 178t58 162.5t52 120q34 11 79.5 22t96.5 15.5t104 -1.5t101.5 -28t90.5 -64.5t70 -110.5q14 -34 29 -84t31 -109t31.5 -125t29.5 -131q49 -5 90 -12t70 -15z
M596 354q32 1 64.5 1h65.5q-17 93 -29.5 173.5t-20.5 134.5h-9q-14 -58 -27.5 -116.5t-27.5 -118.5q-4 -17 -7.5 -35.5t-8.5 -38.5z" />
    <glyph glyph-name="afii10022" unicode="&#x415;" horiz-adv-x="826" 
d="M39 231q-2 34 -3 92t-1 128.5t1.5 148t4 150.5t6 136.5t8.5 105.5q42 4 99 6.5t122.5 3.5t135.5 1t136 -1.5t125 -4.5t104 -6q9 -13 16.5 -40.5t7.5 -61t-9 -69t-31.5 -64.5t-62 -47.5t-99.5 -18.5h-206v-52q22 0 61 1.5t83 1t88 -4.5t76 -14q22 -50 25 -95t-14 -80
t-53 -56.5t-91 -24.5q-19 -1 -35.5 -1h-35.5t-43.5 0.5t-59.5 0.5v-61h23h321q28 -40 36.5 -89t-7 -94t-57 -79t-112.5 -43q-21 -3 -55 -5t-74 -3t-83 -0.5t-82.5 1.5t-71.5 4t-50 7q-71 18 -104 71.5t-39 155.5z" />
    <glyph glyph-name="afii10024" unicode="&#x416;" horiz-adv-x="1391" 
d="M1209 475q12 -27 33 -67.5t43.5 -85.5t44 -90.5t36.5 -82.5q-2 -35 -21.5 -68t-50.5 -56.5t-70 -35.5t-79 -5t-78 35.5t-68 85.5q-9 16 -20.5 41t-24.5 54.5t-26.5 62t-26.5 63.5q-3 -85 -8.5 -159.5t-12.5 -123.5q-32 -35 -85 -44.5t-106.5 10t-98 70t-60.5 136.5
q-4 18 -6.5 57t-4.5 92q-20 -47 -44 -103t-46 -107t-39.5 -91.5t-24.5 -56.5q-69 -17 -119 -13.5t-84.5 20.5t-54.5 44t-29.5 57t-9.5 59t6 50q11 39 27 73t33 64.5t33.5 58.5t29.5 55q3 6 2 15t-4 15q-42 88 -84.5 175.5t-84.5 175.5q5 35 28.5 63.5t56.5 48t72 28.5
t76 5.5t68 -21t49 -50.5q19 -36 38 -76t37 -80.5t34.5 -80t30.5 -74.5q0 53 1.5 103.5t4.5 94t7 78t10 55.5q24 21 57 34t70 15t74 -7.5t69 -34.5t55.5 -67t32.5 -103q3 -23 5 -58.5t3 -80.5q18 40 38.5 84.5t43.5 90.5t47.5 91t50.5 86q31 11 66 11t68.5 -11t62 -32
t46.5 -51.5t21.5 -69.5t-12.5 -86q-11 -32 -25 -61.5t-30 -59.5t-34 -62.5t-37 -71.5q-3 -7 -4 -15.5t2 -14.5z" />
    <glyph glyph-name="afii10025" unicode="&#x417;" horiz-adv-x="900" 
d="M777 538q43 -31 65.5 -75.5t27.5 -95.5t-6.5 -104t-36.5 -100t-62.5 -84t-84.5 -56q-33 -13 -79 -23.5t-100 -15t-113 -2t-117.5 15t-113 35t-99.5 59.5q-24 30 -31.5 65.5t-1 69t25 62.5t46.5 46t63.5 19t76.5 -18q53 -26 102.5 -39.5t89 -15t65.5 9.5t32 34q7 25 -7 44
t-43 30.5t-72 16.5t-95 4q-20 11 -34 31.5t-21 46t-5 52t14.5 48.5t36.5 36.5t62 15.5q36 0 65.5 2.5t50.5 8t32.5 14.5t11.5 23q0 22 -17 34t-44.5 17t-61 3t-67 -9t-63.5 -17.5t-50 -23.5q-23 11 -43 32t-33.5 47t-18.5 55t0.5 56.5t24 50t53.5 36.5q51 20 103.5 29
t101.5 9.5t91 -5.5t72 -15q59 -18 101 -45t70.5 -58t45 -65t24.5 -66t9 -60.5t-1 -49.5q-5 -33 -15 -62t-27 -53z" />
    <glyph glyph-name="afii10026" unicode="&#x418;" horiz-adv-x="1030" 
d="M394 572l4 -2q3 6 6.5 11.5t6.5 10.5q27 49 56.5 103t57.5 104t52.5 94t42.5 74q28 17 66 26.5t78.5 10t80 -9t72 -31.5t53.5 -57.5t24 -87.5q3 -40 3.5 -101.5t0 -133.5t-2.5 -149.5t-4 -150.5t-5 -137t-5 -109q-65 -42 -127 -49.5t-111.5 11t-81 60.5t-34.5 99
q-1 23 -1 42.5t1 43.5t2 55.5t3 78.5q-2 0 -4 0.5t-4 0.5q-3 -5 -6 -9t-6 -9q-6 -9 -20.5 -33.5t-33 -56.5t-40.5 -69t-41.5 -71t-36 -61.5t-25.5 -41.5q-62 -40 -125.5 -44.5t-117.5 21t-91.5 78t-46.5 127.5q-5 40 -7.5 103t-3.5 136t-1 150.5t1 146t2.5 123t2.5 81.5
q26 28 62.5 42.5t75.5 16.5t78 -7.5t70.5 -28.5t52.5 -47.5t25 -63.5q4 -42 5 -73t0 -62t-2 -67t-1 -88z" />
    <glyph glyph-name="afii10027" unicode="&#x419;" horiz-adv-x="1027" 
d="M315 1312q46 0 97 -2.5t105.5 4.5t110.5 28t111 68q35 -4 63 -30.5t40 -64.5t3.5 -80.5t-45.5 -77.5q-42 -40 -107 -65t-143.5 -35.5t-166.5 -6.5t-175 23q-25 28 -33.5 69t3 79t45 65t92.5 26zM394 572q0 52 1 88t2 67t0 62t-5 73q-4 35 -25 63.5t-52.5 47.5t-70.5 28.5
t-78 7.5t-75.5 -16.5t-62.5 -42.5q-1 -27 -2.5 -81.5t-2 -123t-1 -146t0.5 -150.5t3.5 -136t7.5 -103q9 -75 46.5 -127.5t91.5 -78t117.5 -21t125.5 44.5q9 14 25.5 41.5t36.5 61.5t41.5 71t40.5 69t33 56.5t20 33.5q3 5 6 9t7 9q2 0 3.5 -0.5t3.5 -0.5q-1 -47 -2.5 -78.5
t-2 -55.5t-0.5 -43.5t1 -42.5q3 -57 34 -99t80.5 -60.5t112 -11t127.5 49.5q2 45 4.5 109t5 137t4 150.5t2.5 149.5t0 133.5t-3 101.5q-4 52 -25 87.5t-53.5 57.5t-72 31.5t-80 9t-78.5 -10t-66 -26.5q-18 -30 -42.5 -74t-52.5 -94t-57.5 -104t-56.5 -103q-3 -5 -6 -10.5
t-7 -11.5q-1 1 -2 1t-2 1z" />
    <glyph glyph-name="afii10028" unicode="&#x41a;" horiz-adv-x="957" 
d="M398 636q26 39 48 74.5t45 70.5q14 21 35.5 52t44 64t43.5 64t35 52q53 11 104 -3.5t84.5 -49t42 -87t-22.5 -116.5q-20 -41 -33 -66t-26 -46.5t-28.5 -45.5t-39.5 -63q-11 -16 -1 -34q27 -52 57.5 -104.5t58.5 -102.5t51.5 -95.5t37.5 -83.5q-10 -33 -34.5 -62
t-58 -49.5t-73.5 -29.5t-79 -1.5t-75 35.5t-63 80q-8 16 -17 33.5t-20.5 39.5t-25 49.5t-31.5 62.5q-9 -14 -18 -29t-17 -29t-13.5 -26.5t-6.5 -20.5q-3 -16 -2.5 -55t4.5 -82q-22 -19 -54.5 -30.5t-70 -14t-76 4t-71 25t-55 49t-28.5 75.5q-6 42 -10.5 104.5t-7.5 136
t-4.5 153t-1 155t3 141.5t7.5 114q20 25 54 42t74 23t81 0.5t74.5 -24t55.5 -52t24 -82.5q1 -45 1.5 -68.5t0.5 -40.5t-1 -34t-2 -50v-23z" />
    <glyph glyph-name="afii10029" unicode="&#x41b;" horiz-adv-x="1002" 
d="M445 436h3h-3zM817 812q21 -51 45 -135.5t47.5 -182t44.5 -196.5t36 -180q-9 -33 -38 -60t-67 -44t-82 -21t-83 9.5t-70 46.5t-43 91q-17 78 -31.5 156t-27 149t-21.5 132t-15 105h-10q-14 -61 -28.5 -122t-28.5 -124q-13 -54 -26.5 -119.5t-25.5 -126t-22 -109
t-16 -68.5q-95 -35 -164.5 -25t-111 53.5t-55 114.5t3.5 159q10 52 25.5 113t34.5 124.5t40 127.5t42.5 121.5t41 105.5t36.5 80q36 12 83.5 23t101 15.5t109.5 -1.5t107 -29.5t94.5 -67.5t73.5 -115z" />
    <glyph glyph-name="afii10030" unicode="&#x41c;" horiz-adv-x="1252" 
d="M631 488q2 5 3 9.5t3 9.5q23 100 46 198.5t46 198.5q4 15 9.5 29.5t10.5 28.5q60 39 125.5 45.5t122 -16.5t97 -73.5t49.5 -124.5q4 -28 9.5 -76t12.5 -103t13.5 -110.5t11.5 -99.5q11 -86 19.5 -162.5t18.5 -162.5q-27 -35 -61.5 -55t-70.5 -27t-71.5 -0.5t-64 25
t-48 48t-23.5 69.5q-5 45 -7 78t-2.5 66.5t-1 73.5t-2.5 97q-4 0 -6 1q-4 -16 -6.5 -31.5t-6.5 -30.5q-21 -88 -41.5 -175t-42.5 -175q-16 -10 -43 -18.5t-59 -12t-65.5 0t-63.5 17.5t-53 40t-33 67q-9 36 -20.5 87t-23.5 100t-22 88.5t-14 51.5q-4 -57 -7.5 -109.5
t-7 -103.5t-7 -104t-7.5 -111q-41 -22 -83 -32.5t-80.5 -7.5t-71.5 20.5t-55 51.5t-30 86t2 123q13 89 32 180.5t33 180.5q14 83 29 165t29 166q19 18 51 30.5t70.5 17t79 -1.5t77 -25.5t65.5 -53t43 -85.5q7 -26 15.5 -59.5t17 -70.5t17.5 -75t18 -72q0 -2 3 -15t6 -28
t6 -28t4 -15h6z" />
    <glyph glyph-name="afii10031" unicode="&#x41d;" horiz-adv-x="1034" 
d="M419 654h192q1 42 1.5 87.5t1 87t2.5 76t5 54.5q31 24 70 35.5t80 10.5t80 -15t69.5 -39.5t49 -62t18.5 -84.5v-67v-95.5v-116v-129t-0.5 -134.5t-0.5 -131q0 -26 -0.5 -57.5t-2.5 -48.5q-11 -13 -41 -23t-69 -14.5t-81.5 -1.5t-79.5 18t-63 43.5t-32 73.5
q-3 19 -4.5 48.5t-2.5 60t-1.5 58t-0.5 43.5h-187v-307q-14 -13 -45.5 -24t-71.5 -16t-83 -0.5t-79.5 24.5t-62 58t-29.5 99q-2 27 -4 83t-4 127.5t-3.5 152t-1.5 158t1 145.5t4 113q33 27 72.5 41.5t80 16t78.5 -8t68.5 -29.5t50 -49.5t23.5 -67.5q3 -33 4 -66t1 -60
t-1 -45t-1 -22z" />
    <glyph glyph-name="afii10032" unicode="&#x41e;" horiz-adv-x="1117" 
d="M553 1020q85 0 152 -17t118.5 -45t88.5 -62.5t62 -69.5t40 -65.5t23 -50.5q35 -97 41.5 -193.5t-23.5 -196.5q-82 -263 -349 -326q-109 -26 -213.5 -16.5t-204.5 61.5q-96 49 -152 127.5t-79 181.5q-11 48 -15 99t-1 100.5t13 95.5t28 85q24 53 61.5 105t94.5 93.5
t134.5 67.5t180.5 26zM558 662q-28 0 -53 -11.5t-43.5 -34.5t-28.5 -57t-7 -79q3 -44 17 -73.5t34 -48t42.5 -26t42.5 -5.5q20 1 41 10t38.5 27.5t30 48t14.5 71.5q3 42 -7 75.5t-28 56t-42 34.5t-51 12z" />
    <glyph glyph-name="afii10033" unicode="&#x41f;" horiz-adv-x="1033" 
d="M518 1011q81 0 165 -8.5t153 -33.5t113 -70t44 -117v-645v-29t-0.5 -30t-1.5 -27.5t-2 -21.5q-11 -13 -40.5 -23t-68.5 -14.5t-81.5 -1.5t-79.5 18t-63.5 44t-32.5 75q-2 13 -3 55.5t-2 99.5t-1.5 121.5t-1 121t-0.5 97.5v52h-188v-645q-14 -13 -45.5 -24.5t-71 -16.5
t-82.5 -0.5t-80 24.5t-62 58.5t-29 100.5q-2 28 -4.5 81.5t-4.5 122t-3 145.5t-1.5 151t0.5 140t4 112q42 26 101.5 43t124.5 27t129 14t115 4z" />
    <glyph glyph-name="afii10034" unicode="&#x420;" horiz-adv-x="935" 
d="M764 349q-57 -43 -116 -58.5t-108.5 -17t-82.5 6t-39 10.5q-1 1 -2 0q-1 0 -2 -0.5t-2 -0.5t-1 -2v-32t-1 -61t-3 -78t-6 -82q-21 -23 -52.5 -36t-67.5 -14t-73 10t-69.5 36t-57 64.5t-35.5 96.5q-4 22 -7 76.5t-4.5 126t-1 151.5t3 154t7.5 134t13 90q22 21 69 39.5
t109 31t134 17.5t143.5 -1t137.5 -24t116 -52q40 -27 69 -70.5t45.5 -96t19 -110.5t-11 -114t-44 -106.5t-80.5 -87.5zM565 632q0 16 -11 31t-29.5 23.5t-42 8.5t-48.5 -15v-55.5t1 -49.5q0 -4 4 -8t7 -4h37.5t37.5 3q44 9 44 66z" />
    <glyph glyph-name="afii10035" unicode="&#x421;" horiz-adv-x="1012" 
d="M672 687q-45 12 -82.5 8.5t-74.5 -22.5q-26 -13 -43.5 -34.5t-26.5 -48t-11 -56t2 -57.5q6 -45 27 -75.5t51 -48.5t67 -23.5t75 0.5q25 3 53 14t52.5 23.5t44.5 24.5t29 17q35 -6 64.5 -29t48 -55.5t23.5 -72.5t-9.5 -81t-51 -79.5t-100.5 -68.5q-39 -18 -89.5 -27
t-104 -9.5t-105.5 5.5t-94 17q-131 34 -212.5 115.5t-119.5 208.5q-25 89 -25.5 177.5t29.5 176.5q17 50 44.5 93.5t62 79t74 62.5t78.5 45q50 22 117.5 36t144 12t159 -22.5t162.5 -66.5q13 -48 8 -88t-23 -71t-46 -52t-61 -32t-68.5 -10t-68.5 14z" />
    <glyph glyph-name="afii10036" unicode="&#x422;" horiz-adv-x="916" 
d="M859 986q13 -17 23 -47t12.5 -65t-4.5 -72t-28 -67.5t-57.5 -51.5t-92.5 -24q-26 -2 -43.5 -3t-20.5 -1q3 -68 2.5 -155t-3 -174t-7.5 -165t-12 -128q-21 -23 -52 -35t-65.5 -12t-71 12t-68 38.5t-55.5 67t-35 96.5q-4 21 -7 68.5t-5.5 110.5t-3.5 135t0 141
q-50 -3 -103 -2.5t-102 9.5q-16 20 -25 51t-9.5 66t9 70t30.5 64t54 48t81 22q31 2 84.5 3t117 1h132.5t131.5 -0.5t113.5 -0.5h80z" />
    <glyph glyph-name="afii10037" unicode="&#x423;" horiz-adv-x="979" 
d="M501 695q4 9 15.5 32t27 53.5t33 65t34.5 66.5t32 57.5t25 38.5q39 10 80.5 7t79 -16.5t67.5 -37t46.5 -55.5t16.5 -71t-23 -83q-11 -22 -33.5 -62t-52 -91t-64.5 -109.5t-71 -118t-71.5 -117t-66.5 -106t-56 -84.5t-40 -54q-55 -28 -103.5 -32.5t-88 8.5t-67.5 40.5
t-40.5 64t-7 79.5t32.5 87q22 36 33 52.5l17 25.5t10 15.5t13 23.5q5 11 0 23.5t-11 23.5q-33 58 -66 111.5t-64.5 107.5t-62 110.5t-59.5 122.5q18 40 47 68.5t62.5 45.5t69.5 23t68.5 1t58.5 -20t41 -39q18 -30 32 -58t27.5 -55.5t27 -55.5t29.5 -59q3 -7 6.5 -14t6.5 -15
h9z" />
    <glyph glyph-name="afii10038" unicode="&#x424;" horiz-adv-x="1390" 
d="M1202 905q47 -30 80.5 -74.5t52 -96.5t22 -108t-10 -110t-44.5 -102.5t-81 -85.5q-57 -42 -116 -57.5t-108.5 -16.5t-83 6t-38.5 11h-2q-1 0 -2 -0.5t-2 -0.5q-1 -1 -1 -2v-31.5t-1 -60t-3 -76.5t-6 -81q-21 -22 -52.5 -34.5t-67.5 -14t-73 9.5t-69.5 35.5t-57 63.5
t-35.5 94q-3 13 -4.5 39t-3.5 61q-1 1 -1.5 1t-1.5 1q-2 0 -2 -1q-6 -3 -36.5 -11t-76.5 -7t-102 15.5t-113 56.5q-75 55 -110 127t-35 147.5t32 147.5t91 126q48 45 131 73.5t184 43t211 15.5t212 -11t187.5 -35t136.5 -57zM480 538q3 0 6.5 4t4.5 7v32t1 32v40
q-25 15 -48.5 15t-42 -8.5t-30 -23.5t-11.5 -30q0 -56 45 -65q18 -3 37 -3h38zM978 541q44 9 44 65q0 15 -11.5 30t-30 23.5t-42 8.5t-47.5 -15v-103q1 -3 5 -7.5t7 -4.5h37.5t37.5 3z" />
    <glyph glyph-name="afii10039" unicode="&#x425;" horiz-adv-x="940" 
d="M752 472q12 -27 32 -68t42 -86t43 -91t35 -84q-3 -35 -23 -67.5t-51 -56t-70 -34.5t-79 -3t-78 37t-67 86q-13 26 -31.5 69.5t-38.5 92.5q-18 -41 -36.5 -82t-34.5 -77l-28 -63t-18 -40q-69 -16 -119 -11.5t-84 22.5t-54 45t-29 57t-8.5 59.5t7.5 50.5q12 38 28 71.5
t33 64t34 58.5t31 55q3 6 2.5 14.5t-3.5 14.5q-41 89 -82 177l-82 176q6 35 29.5 63.5t57 47.5t72.5 27.5t76 4.5t68 -22t48 -51q27 -53 52.5 -112t48.5 -116q35 72 76 150t85 146q47 16 101 6.5t95.5 -41.5t59.5 -84.5t-7 -122.5q-12 -32 -26.5 -61t-31 -59t-35 -62.5
t-37.5 -70.5q-4 -7 -4.5 -15.5t1.5 -14.5z" />
    <glyph glyph-name="afii10040" unicode="&#x426;" horiz-adv-x="1182" 
d="M1116 303q17 -20 28 -49.5t12.5 -62.5t-8 -65.5t-33.5 -59.5t-64.5 -45.5t-100.5 -21.5q-73 -4 -145 -6t-138.5 -2.5t-124.5 0.5t-102 2t-72 2.5t-34 1.5q-73 4 -124.5 17t-86 38.5t-53 64.5t-25.5 96q-5 45 -9 103.5t-6 123.5t-1.5 134t2.5 136t6.5 129t11.5 114
q11 12 41 22.5t69 15t81.5 1.5t79.5 -18t63.5 -43.5t32.5 -73.5q2 -13 3 -55t2 -98t1.5 -119.5t1 -118.5t0.5 -95.5v-51.5h187v635q14 12 45.5 23.5t71.5 16t83 0t79.5 -24t62 -57t29.5 -98.5q2 -28 4 -82t4 -123t3.5 -146t1.5 -151q35 -2 66 -4t55 -5z" />
    <glyph glyph-name="afii10041" unicode="&#x427;" horiz-adv-x="1019" 
d="M975 786q5 -31 7.5 -86.5t3.5 -124.5t0 -145.5t-4 -150t-7.5 -137t-10.5 -106.5q-21 -23 -52 -35.5t-65.5 -13t-70.5 12.5t-67.5 39.5t-55.5 68t-35 99.5q-1 1 -1 3q-59 0 -109 1t-88.5 2t-62 2t-29.5 1q-73 4 -124.5 18t-85.5 40t-52.5 67t-25.5 100q-9 71 -13 130
t-4 118t5 123t16 145q11 13 40.5 23.5t68.5 15t81.5 1t79.5 -19t63.5 -45t32.5 -76.5q2 -13 3 -37.5t2 -55t1.5 -63t1 -62t0.5 -53v-34.5q29 0 77 0.5t106 0.5q0 61 0.5 121.5t3 113.5t7 94.5t10.5 65.5q23 21 55.5 34.5t68.5 16t73 -7t68.5 -34.5t55 -67t32.5 -103z" />
    <glyph glyph-name="afii10042" unicode="&#x428;" horiz-adv-x="1612" 
d="M1568 800q4 -37 6 -100.5t2.5 -137t0 -150.5t-0.5 -141q0 -39 -7 -84.5t-32.5 -86t-76.5 -70t-139 -34.5q-54 -3 -124 -5t-148 -3t-159 -1.5t-158 0t-146 1.5t-121.5 1.5t-85 1.5t-36.5 1q-73 4 -125 17t-86 38.5t-52.5 65t-25.5 96.5q-5 46 -9 104.5t-6 123.5
t-1.5 134.5t2.5 136.5t6.5 129.5t11.5 114.5q11 13 41 23t68.5 14.5t81.5 1.5t79.5 -18t63 -43.5t32.5 -73.5q2 -13 3 -55t2 -98.5t2 -120t1.5 -119.5t0.5 -96.5v-51.5q30 0 78.5 0.5t108.5 0.5v637q14 12 45.5 24t71.5 16.5t83 0t79.5 -24.5t62 -58t29.5 -99q2 -28 4 -82
t4 -123t3.5 -146.5t1.5 -151.5h25.5h46t61.5 0.5t72 0.5q-1 66 -1.5 154t0 178.5t2 173.5t4.5 140q23 20 56.5 33t71 15.5t75 -6.5t69 -33t54 -64.5t28.5 -100.5z" />
    <glyph glyph-name="afii10043" unicode="&#x429;" horiz-adv-x="1799" 
d="M1731 302q17 -20 28 -50t12.5 -63t-8 -66t-33.5 -60.5t-64.5 -46t-100.5 -21.5q-54 -3 -135 -5t-176 -2.5t-199 -0.5t-204.5 0.5t-192 1.5t-162 2t-114 2t-47.5 1q-73 4 -124.5 17t-86 38.5t-53 65.5t-25.5 97q-6 46 -9.5 105t-5.5 124.5t-1.5 135.5t2.5 137.5t6.5 130.5
t11.5 115q11 12 41 22.5t69 15.5t81.5 1.5t79.5 -18.5t63 -43.5t32 -74.5q2 -13 3 -55.5t2 -99t2 -120.5t1.5 -120t0.5 -97v-52q30 0 78.5 0.5t108.5 0.5v641q14 12 45.5 23.5t71.5 16.5t83 0.5t79.5 -24.5t62 -58t29.5 -100q2 -28 4 -82.5t4 -124t3.5 -147t1.5 -152.5
q6 0 22.5 -0.5t41.5 -1t57 -1t69 -0.5q1 64 2 142.5t2 162.5t1 169t-1 163q23 20 56 32.5t69.5 15.5t73.5 -4.5t68.5 -26.5t54 -50.5t29.5 -77.5q4 -30 7 -88t4 -130.5t0.5 -154t-3.5 -157.5q74 -1 124 -1.5t58 -2.5z" />
    <glyph glyph-name="afii10044" unicode="&#x42a;" horiz-adv-x="1114" 
d="M941 647q50 -38 80.5 -88.5t44.5 -106.5t11 -114t-19 -110.5t-45.5 -96t-69.5 -70.5q-50 -33 -116 -51.5t-137.5 -24t-143.5 -0.5t-134 17.5t-109 31t-69 39.5q-7 27 -11.5 86.5t-7 137.5t-2.5 166.5t1 172.5q-45 2 -80.5 6t-56.5 10q-20 23 -33.5 55.5t-16 68.5t7 73
t34 68.5t65.5 55t101 32.5q20 3 51 5t70 4q39 1 78.5 -7.5t72.5 -25t54.5 -41.5t23.5 -56q5 -78 4 -120t-1 -56l1 -2q2 0 2.5 -0.5t1.5 -0.5h2q6 4 39.5 11t82.5 6t108 -17t116 -58zM611 316q25 -15 48.5 -15.5t42 8.5t29.5 24t11 30q0 59 -44 66q-18 4 -37 4h-38
q-3 0 -7 -4.5t-4 -7.5q-1 -26 -1 -50v-55z" />
    <glyph glyph-name="afii10045" unicode="&#x42b;" horiz-adv-x="1383" 
d="M1334 802q5 -30 7.5 -86.5t3.5 -127.5t0 -149.5t-4 -153.5t-7.5 -139.5t-10.5 -106.5q-31 -34 -83 -44t-105 8.5t-97.5 68t-60.5 134.5q-3 17 -6 53t-5 85t-3.5 107.5t-2 119t0.5 120.5t3 112t6.5 93t10.5 64q23 20 55.5 33t68.5 15.5t73 -7t68.5 -34t55 -65t32.5 -100.5
zM415 697h-2l-4 2q-1 0 -1 2q0 13 0.5 55t-4.5 120q-2 29 -19.5 54t-45 43t-63.5 27.5t-74.5 8.5t-78 -14.5t-74.5 -40.5q-3 -17 -6 -59t-5 -100.5t-3.5 -129t-2 -144t0.5 -145.5t3.5 -133.5t7 -108t10.5 -69.5q22 -21 69 -39.5t109 -31t134 -17.5t143.5 1t137.5 24t116 52
q40 26 69 69.5t45.5 96t19 110.5t-11 114t-44 107t-80.5 88q-57 42 -116 58t-108.5 17t-83 -6t-38.5 -11zM431 308q0 32 -0.5 55.5t0.5 49.5q0 3 4.5 7.5t7.5 4.5h37.5t36.5 -4q45 -7 45 -66q0 -15 -11.5 -30t-30 -24t-42 -8.5t-47.5 15.5z" />
    <glyph glyph-name="afii10046" unicode="&#x42c;" horiz-adv-x="930" 
d="M417 705q4 2 20.5 6.5t42.5 7.5t59 2.5t70.5 -7.5t76.5 -23.5t77 -44.5q50 -38 80.5 -88t44 -106.5t11 -114.5t-19 -110.5t-45.5 -95.5t-69 -70q-50 -34 -116 -52t-137.5 -24t-143.5 -1t-134 17.5t-109 31t-69 39.5q-6 23 -10 69.5t-6.5 108t-3.5 133.5t-1 145.5t1.5 144
t3.5 129t5 100.5t6 59q52 41 113.5 50.5t114 -4.5t89 -47t39.5 -77q5 -78 4 -119.5t-1 -55.5q0 -1 1 -2l4 -2q2 0 2 1zM433 315q25 -15 48.5 -15.5t42 8.5t29.5 24t11 31q0 57 -44 66q-18 3 -37 3h-38q-3 0 -7 -4.5t-4 -7.5q-1 -26 -1 -49.5v-55.5z" />
    <glyph glyph-name="afii10047" unicode="&#x42d;" horiz-adv-x="1030" 
d="M996 598q15 -91 4.5 -179t-51.5 -173q-47 -95 -123 -153.5t-176 -92.5q-66 -23 -144.5 -29.5t-159.5 9.5t-160 59t-146 120q-9 73 14 122t63.5 72t90.5 19t93 -36q45 -33 86.5 -45t77 -7.5t63 23.5t43.5 48q-61 2 -109 5.5t-74 10.5q-27 30 -36.5 72.5t0.5 82t41.5 68.5
t87.5 33q12 2 36 1.5t53 -0.5q-22 33 -59.5 53.5t-83 23t-95.5 -16t-98 -63.5q-34 11 -60.5 38t-41 62t-14.5 75.5t19.5 78.5t60 69.5t107.5 50.5q79 22 157 24.5t150 -14t135.5 -50.5t114 -86t85.5 -121t49 -154z" />
    <glyph glyph-name="afii10048" unicode="&#x42e;" horiz-adv-x="1619" 
d="M1545 723q36 -96 42.5 -193t-23.5 -196q-41 -131 -128 -213t-221 -114q-109 -26 -214 -16.5t-205 61.5q-93 48 -148 123.5t-80 174.5q-29 -1 -59 -1h-59q-3 -91 -7.5 -171.5t-12.5 -132.5q-21 -23 -54.5 -35t-72 -12t-78.5 12t-75.5 38.5t-62 67t-37.5 96.5
q-4 22 -7.5 78.5t-6 131t-3 159t1.5 161.5t6.5 139t12.5 92q23 21 58 34t75 15.5t81 -7t76.5 -34t61.5 -65t35 -100.5q2 -12 3.5 -33t2.5 -46.5t2 -52.5t2 -50q24 1 50.5 1h54.5q11 55 34 106q24 53 62 101.5t95 86t134.5 60.5t180.5 25q81 1 146 -14.5t116.5 -41t89.5 -58
t64.5 -65.5t43 -62.5t23.5 -49.5zM1195 497q2 43 -7.5 76t-27.5 55.5t-42.5 34.5t-51.5 12t-52 -11.5t-44 -34.5t-29 -57t-7 -79q3 -43 17.5 -73t34.5 -48t42.5 -25.5t42.5 -6.5q19 1 40 10t39 27.5t30 48t15 71.5z" />
    <glyph glyph-name="afii10049" unicode="&#x42f;" horiz-adv-x="924" 
d="M870 940q8 -30 13.5 -97.5t8 -154t3.5 -183t1.5 -185.5t0 -160.5t-0.5 -108.5q-48 -36 -109.5 -51t-118.5 -1.5t-99 57t-50 124.5q-3 35 -3.5 53.5t-0.5 29.5q-11 -37 -27.5 -75.5t-37 -75.5t-45.5 -70.5t-53 -59.5q-39 -11 -79 -7t-75 20t-61.5 43t-38 60.5t-5 73
t37.5 81.5q17 24 30 43.5t23 36.5q-5 3 -10.5 6.5t-10.5 7.5q-50 37 -80.5 89t-44 110.5t-11 119t19 115t45.5 99t69 71.5q50 34 116 52t137.5 24t143.5 1t134 -17.5t109 -31t69 -39.5zM493 697q-24 15 -47.5 15.5t-42 -8.5t-30 -24t-11.5 -30q0 -59 45 -66q18 -4 37 -4h38
q2 0 6.5 4.5t4.5 7.5q1 26 0.5 49.5t-0.5 55.5z" />
    <glyph glyph-name="afii10065" unicode="&#x430;" horiz-adv-x="1042" 
d="M36 309q10 52 26 113.5t35 126t40.5 129t42.5 122t41 106t37 80.5q35 12 82.5 23.5t101 16.5t109 -1.5t107 -29.5t95.5 -67.5t74 -116.5q14 -34 31.5 -84t36.5 -110t39 -126t37.5 -132.5t32.5 -130t25 -118.5q-4 -28 -30 -55.5t-65 -46.5t-85.5 -25.5t-91 8t-82.5 53
t-58 109.5q-49 2 -101.5 0.5t-102.5 0.5q-27 -67 -49 -149q-96 -35 -165 -25t-110.5 54t-55 115.5t2.5 159.5zM453 431h128q-32 126 -60 249q-4 -1 -10 -1q-14 -61 -28.5 -122.5t-29.5 -125.5z" />
    <glyph glyph-name="afii10066" unicode="&#x431;" horiz-adv-x="859" 
d="M708 612q47 -35 74.5 -80.5t39 -96.5t8 -103.5t-18.5 -101.5t-41 -91t-60 -71q-41 -36 -107 -56t-138 -24t-140.5 8.5t-115.5 42.5q-75 48 -115 119.5t-51 175.5q-10 95 -10.5 193.5t4 188t11.5 163t12 118.5q40 4 93.5 6t114 3t125 0.5t126 -1.5t116.5 -3.5t98 -5.5
q9 -13 15.5 -38t7 -56t-8.5 -63t-30.5 -58t-59 -43t-94.5 -17h-183v-52l2 -2q1 0 1.5 -0.5t1.5 -0.5h2q5 3 36 10t77 6t100.5 -16t107.5 -54zM402 304q23 -14 44 -16t38 4.5t27.5 21t12.5 34.5q2 25 -8.5 44t-28.5 27.5t-40.5 5t-43.5 -22.5q-2 -21 -4 -46.5t3 -51.5z" />
    <glyph glyph-name="afii10067" unicode="&#x432;" horiz-adv-x="858" 
d="M697 527q67 -23 104 -81.5t35 -140.5q-1 -75 -30 -135.5t-82.5 -103t-131 -65.5t-175.5 -23q-177 0 -273 80t-113 236q-7 59 -9 140.5t0 170.5t6.5 178t11.5 164q40 24 94 39.5t114.5 23t123.5 8t120 -6.5t104.5 -20.5t77.5 -33.5q60 -40 89.5 -95t33.5 -113t-17 -112.5
t-63 -91.5q-4 -4 -8.5 -8t-11.5 -10zM377 281q18 -10 40.5 -10.5t42.5 8.5q22 9 30.5 27.5t6.5 42.5q-2 20 -14.5 33t-31.5 18q-15 3 -37 2.5t-36 -14.5q-2 -26 -1.5 -53t0.5 -54zM370 634q12 -7 27 -8.5t28 4t22 19t9 37.5q-1 21 -12.5 31.5t-26 14t-28 0t-19.5 -10.5
q-6 -14 -7 -39t7 -48z" />
    <glyph glyph-name="afii10068" unicode="&#x433;" horiz-adv-x="818" 
d="M35 189q-4 35 -6 96.5t-2.5 136.5t1 157.5t4.5 160t7 144t9 108.5q41 4 98.5 6.5t123 3.5t135 0.5t136 -2t126 -4t103.5 -5.5q9 -14 16.5 -41.5t7.5 -60.5t-9 -68.5t-31.5 -64.5t-62 -47.5t-99.5 -18.5h-206q2 -23 3.5 -69.5t3 -107t2 -128.5t-0.5 -134.5t-3.5 -125
t-7.5 -99.5q-22 -16 -54 -24.5t-68.5 -8t-74 11.5t-69 34t-54 60t-28.5 90z" />
    <glyph glyph-name="afii10069" unicode="&#x434;" horiz-adv-x="1305" 
d="M1248 312q8 -15 13 -46t7.5 -71t3 -86t-0.5 -90t-4.5 -83.5t-7.5 -67.5q-17 -21 -47 -35.5t-65.5 -20t-72.5 1t-67.5 28.5t-51 61t-22.5 99q-8 0 -14.5 0.5t-13.5 1.5q-53 -2 -120 -4t-139 -3t-144.5 -1.5t-137.5 0.5q2 -35 3.5 -76t-0.5 -92q-58 -38 -117.5 -45.5
t-108 16t-80.5 77.5t-35 140q-1 20 -0.5 47.5t5.5 58t16.5 61.5t33 59.5t55.5 51t84 35.5q15 75 40.5 165.5t54.5 178t58 162.5t52 120q34 11 79.5 22t96.5 15.5t104 -1.5t101.5 -28t90.5 -64.5t70 -110.5q14 -34 29 -84t31 -109t31.5 -125t29.5 -131q49 -5 90 -12t70 -15z
M596 354q32 1 64.5 1h65.5q-17 93 -29.5 173.5t-20.5 134.5h-9q-14 -58 -27.5 -116.5t-27.5 -118.5q-4 -17 -7.5 -35.5t-8.5 -38.5z" />
    <glyph glyph-name="afii10070" unicode="&#x435;" horiz-adv-x="826" 
d="M39 231q-2 34 -3 92t-1 128.5t1.5 148t4 150.5t6 136.5t8.5 105.5q42 4 99 6.5t122.5 3.5t135.5 1t136 -1.5t125 -4.5t104 -6q9 -13 16.5 -40.5t7.5 -61t-9 -69t-31.5 -64.5t-62 -47.5t-99.5 -18.5h-206v-52q22 0 61 1.5t83 1t88 -4.5t76 -14q22 -50 25 -95t-14 -80
t-53 -56.5t-91 -24.5q-19 -1 -35.5 -1h-35.5t-43.5 0.5t-59.5 0.5v-61h23h321q28 -40 36.5 -89t-7 -94t-57 -79t-112.5 -43q-21 -3 -55 -5t-74 -3t-83 -0.5t-82.5 1.5t-71.5 4t-50 7q-71 18 -104 71.5t-39 155.5z" />
    <glyph glyph-name="afii10072" unicode="&#x436;" horiz-adv-x="1391" 
d="M1209 475q12 -27 33 -67.5t43.5 -85.5t44 -90.5t36.5 -82.5q-2 -35 -21.5 -68t-50.5 -56.5t-70 -35.5t-79 -5t-78 35.5t-68 85.5q-9 16 -20.5 41t-24.5 54.5t-26.5 62t-26.5 63.5q-3 -85 -8.5 -159.5t-12.5 -123.5q-32 -35 -85 -44.5t-106.5 10t-98 70t-60.5 136.5
q-4 18 -6.5 57t-4.5 92q-20 -47 -44 -103t-46 -107t-39.5 -91.5t-24.5 -56.5q-69 -17 -119 -13.5t-84.5 20.5t-54.5 44t-29.5 57t-9.5 59t6 50q11 39 27 73t33 64.5t33.5 58.5t29.5 55q3 6 2 15t-4 15q-42 88 -84.5 175.5t-84.5 175.5q5 35 28.5 63.5t56.5 48t72 28.5
t76 5.5t68 -21t49 -50.5q19 -36 38 -76t37 -80.5t34.5 -80t30.5 -74.5q0 53 1.5 103.5t4.5 94t7 78t10 55.5q24 21 57 34t70 15t74 -7.5t69 -34.5t55.5 -67t32.5 -103q3 -23 5 -58.5t3 -80.5q18 40 38.5 84.5t43.5 90.5t47.5 91t50.5 86q31 11 66 11t68.5 -11t62 -32
t46.5 -51.5t21.5 -69.5t-12.5 -86q-11 -32 -25 -61.5t-30 -59.5t-34 -62.5t-37 -71.5q-3 -7 -4 -15.5t2 -14.5z" />
    <glyph glyph-name="afii10073" unicode="&#x437;" horiz-adv-x="900" 
d="M777 538q43 -31 65.5 -75.5t27.5 -95.5t-6.5 -104t-36.5 -100t-62.5 -84t-84.5 -56q-33 -13 -79 -23.5t-100 -15t-113 -2t-117.5 15t-113 35t-99.5 59.5q-24 30 -31.5 65.5t-1 69t25 62.5t46.5 46t63.5 19t76.5 -18q53 -26 95.5 -38t74 -11t51 14t25.5 36q14 51 -28 68.5
t-146 14.5q-20 11 -34 31.5t-21 46t-5 52t14.5 48.5t36.5 36.5t62 15.5q36 0 59.5 1.5t37 6t19 12t5.5 21.5q0 22 -14.5 32.5t-38 12.5t-53 -3t-59 -14t-57 -21.5t-47.5 -25.5q-23 11 -42.5 34t-32.5 52.5t-17.5 62.5t2 63.5t25 55.5t53.5 39q51 20 103.5 29t101.5 9.5
t91 -5.5t72 -15q59 -18 101 -45t70.5 -58t45 -65t24.5 -66t9 -60.5t-1 -49.5q-5 -33 -15 -62t-27 -53z" />
    <glyph glyph-name="afii10074" unicode="&#x438;" horiz-adv-x="1030" 
d="M394 572l4 -2q3 6 6.5 11.5t6.5 10.5q27 49 56.5 103t57.5 104t52.5 94t42.5 74q28 17 66 26.5t78.5 10t80 -9t72 -31.5t53.5 -57.5t24 -87.5q3 -40 3.5 -101.5t0 -133.5t-2.5 -149.5t-4 -150.5t-5 -137t-5 -109q-65 -42 -127 -49.5t-111.5 11t-81 60.5t-34.5 99
q-1 23 -1 42.5t1 43.5t2 55.5t3 78.5q-2 0 -4 0.5t-4 0.5q-3 -5 -6 -9t-6 -9q-6 -9 -20.5 -33.5t-33 -56.5t-40.5 -69t-41.5 -71t-36 -61.5t-25.5 -41.5q-62 -40 -125.5 -44.5t-117.5 21t-91.5 78t-46.5 127.5q-5 40 -7.5 103t-3.5 136t-1 150.5t1 146t2.5 123t2.5 81.5
q26 28 62.5 42.5t75.5 16.5t78 -7.5t70.5 -28.5t52.5 -47.5t25 -63.5q4 -42 5 -73t0 -62t-2 -67t-1 -88z" />
    <glyph glyph-name="afii10075" unicode="&#x439;" horiz-adv-x="1027" 
d="M315 1312q46 0 97 -2.5t105.5 4.5t110.5 28t111 68q35 -4 63 -30.5t40 -64.5t3.5 -80.5t-45.5 -77.5q-42 -40 -107 -65t-143.5 -35.5t-166.5 -6.5t-175 23q-25 28 -33.5 69t3 79t45 65t92.5 26zM394 572q0 52 1 88t2 67t0 62t-5 73q-4 35 -25 63.5t-52.5 47.5t-70.5 28.5
t-78 7.5t-75.5 -16.5t-62.5 -42.5q-1 -27 -2.5 -81.5t-2 -123t-1 -146t0.5 -150.5t3.5 -136t7.5 -103q9 -75 46.5 -127.5t91.5 -78t117.5 -21t125.5 44.5q9 14 25.5 41.5t36.5 61.5t41.5 71t40.5 69t33 56.5t20 33.5q3 5 6 9t7 9q2 0 3.5 -0.5t3.5 -0.5q-1 -47 -2.5 -78.5
t-2 -55.5t-0.5 -43.5t1 -42.5q3 -57 34 -99t80.5 -60.5t112 -11t127.5 49.5q2 45 4.5 109t5 137t4 150.5t2.5 149.5t0 133.5t-3 101.5q-4 52 -25 87.5t-53.5 57.5t-72 31.5t-80 9t-78.5 -10t-66 -26.5q-18 -30 -42.5 -74t-52.5 -94t-57.5 -104t-56.5 -103q-3 -5 -6 -10.5
t-7 -11.5q-1 1 -2 1t-2 1z" />
    <glyph glyph-name="afii10076" unicode="&#x43a;" horiz-adv-x="957" 
d="M398 636q26 39 48 74.5t45 70.5q14 21 35.5 52t44 64t43.5 64t35 52q53 11 104 -3.5t84.5 -49t42 -87t-22.5 -116.5q-20 -41 -33 -66t-26 -46.5t-28.5 -45.5t-39.5 -63q-11 -16 -1 -34q27 -52 57.5 -104.5t58.5 -102.5t51.5 -95.5t37.5 -83.5q-10 -33 -34.5 -62
t-58 -49.5t-73.5 -29.5t-79 -1.5t-75 35.5t-63 80q-8 16 -17 33.5t-20.5 39.5t-25 49.5t-31.5 62.5q-9 -14 -18 -29t-17 -29t-13.5 -26.5t-6.5 -20.5q-3 -16 -2.5 -55t4.5 -82q-22 -19 -54.5 -30.5t-70 -14t-76 4t-71 25t-55 49t-28.5 75.5q-6 42 -10.5 104.5t-7.5 136
t-4.5 153t-1 155t3 141.5t7.5 114q20 25 54 42t74 23t81 0.5t74.5 -24t55.5 -52t24 -82.5q1 -45 1.5 -68.5t0.5 -40.5t-1 -34t-2 -50v-23z" />
    <glyph glyph-name="afii10077" unicode="&#x43b;" horiz-adv-x="1002" 
d="M445 436h3h-3zM817 812q21 -51 45 -135.5t47.5 -182t44.5 -196.5t36 -180q-9 -33 -38 -60t-67 -44t-82 -21t-83 9.5t-70 46.5t-43 91q-17 78 -31.5 156t-27 149t-21.5 132t-15 105h-10q-14 -61 -28.5 -122t-28.5 -124q-13 -54 -26.5 -119.5t-25.5 -126t-22 -109
t-16 -68.5q-95 -35 -164.5 -25t-111 53.5t-55 114.5t3.5 159q10 52 25.5 113t34.5 124.5t40 127.5t42.5 121.5t41 105.5t36.5 80q36 12 83.5 23t101 15.5t109.5 -1.5t107 -29.5t94.5 -67.5t73.5 -115z" />
    <glyph glyph-name="afii10078" unicode="&#x43c;" horiz-adv-x="1252" 
d="M631 488q2 5 3 9.5t3 9.5q23 100 46 198.5t46 198.5q4 15 9.5 29.5t10.5 28.5q60 39 125.5 45.5t122 -16.5t97 -73.5t49.5 -124.5q4 -28 9.5 -76t12.5 -103t13.5 -110.5t11.5 -99.5q11 -86 19.5 -162.5t18.5 -162.5q-27 -35 -61.5 -55t-70.5 -27t-71.5 -0.5t-64 25
t-48 48t-23.5 69.5q-5 45 -7 78t-2.5 66.5t-1 73.5t-2.5 97q-4 0 -6 1q-4 -16 -6.5 -31.5t-6.5 -30.5q-21 -88 -41.5 -175t-42.5 -175q-16 -10 -43 -18.5t-59 -12t-65.5 0t-63.5 17.5t-53 40t-33 67q-9 36 -20.5 87t-23.5 100t-22 88.5t-14 51.5q-4 -57 -7.5 -109.5
t-7 -103.5t-7 -104t-7.5 -111q-41 -22 -83 -32.5t-80.5 -7.5t-71.5 20.5t-55 51.5t-30 86t2 123q13 89 32 180.5t33 180.5q14 83 29 165t29 166q19 18 51 30.5t70.5 17t79 -1.5t77 -25.5t65.5 -53t43 -85.5q7 -26 15.5 -59.5t17 -70.5t17.5 -75t18 -72q0 -2 3 -15t6 -28
t6 -28t4 -15h6z" />
    <glyph glyph-name="afii10079" unicode="&#x43d;" horiz-adv-x="1034" 
d="M419 654h192q1 42 1.5 87.5t1 87t2.5 76t5 54.5q31 24 70 35.5t80 10.5t80 -15t69.5 -39.5t49 -62t18.5 -84.5v-67v-95.5v-116v-129t-0.5 -134.5t-0.5 -131q0 -26 -0.5 -57.5t-2.5 -48.5q-11 -13 -41 -23t-69 -14.5t-81.5 -1.5t-79.5 18t-63 43.5t-32 73.5
q-3 19 -4.5 48.5t-2.5 60t-1.5 58t-0.5 43.5h-187v-307q-14 -13 -45.5 -24t-71.5 -16t-83 -0.5t-79.5 24.5t-62 58t-29.5 99q-2 27 -4 83t-4 127.5t-3.5 152t-1.5 158t1 145.5t4 113q33 27 72.5 41.5t80 16t78.5 -8t68.5 -29.5t50 -49.5t23.5 -67.5q3 -33 4 -66t1 -60
t-1 -45t-1 -22z" />
    <glyph glyph-name="afii10080" unicode="&#x43e;" horiz-adv-x="1117" 
d="M553 1020q85 0 152 -17t118.5 -45t88.5 -62.5t62 -69.5t40 -65.5t23 -50.5q35 -97 41.5 -193.5t-23.5 -196.5q-82 -263 -349 -326q-109 -26 -213.5 -16.5t-204.5 61.5q-96 49 -152 127.5t-79 181.5q-11 48 -15 99t-1 100.5t13 95.5t28 85q24 53 61.5 105t94.5 93.5
t134.5 67.5t180.5 26zM558 662q-28 0 -53 -11.5t-43.5 -34.5t-28.5 -57t-7 -79q3 -44 17 -73.5t34 -48t42.5 -26t42.5 -5.5q20 1 41 10t38.5 27.5t30 48t14.5 71.5q3 42 -7 75.5t-28 56t-42 34.5t-51 12z" />
    <glyph glyph-name="afii10081" unicode="&#x43f;" horiz-adv-x="1033" 
d="M518 1011q81 0 165 -8.5t153 -33.5t113 -70t44 -117v-645v-29t-0.5 -30t-1.5 -27.5t-2 -21.5q-11 -13 -40.5 -23t-68.5 -14.5t-81.5 -1.5t-79.5 18t-63.5 44t-32.5 75q-2 13 -3 55.5t-2 99.5t-1.5 121.5t-1 121t-0.5 97.5v52h-188v-645q-14 -13 -45.5 -24.5t-71 -16.5
t-82.5 -0.5t-80 24.5t-62 58.5t-29 100.5q-2 28 -4.5 81.5t-4.5 122t-3 145.5t-1.5 151t0.5 140t4 112q42 26 101.5 43t124.5 27t129 14t115 4z" />
    <glyph glyph-name="afii10082" unicode="&#x440;" horiz-adv-x="935" 
d="M764 349q-57 -43 -116 -58.5t-108.5 -17t-82.5 6t-39 10.5q-1 1 -2 0q-1 0 -2 -0.5t-2 -0.5t-1 -2v-32t-1 -61t-3 -78t-6 -82q-21 -23 -52.5 -36t-67.5 -14t-73 10t-69.5 36t-57 64.5t-35.5 96.5q-4 22 -7 76.5t-4.5 126t-1 151.5t3 154t7.5 134t13 90q22 21 69 39.5
t109 31t134 17.5t143.5 -1t137.5 -24t116 -52q40 -27 69 -70.5t45.5 -96t19 -110.5t-11 -114t-44 -106.5t-80.5 -87.5zM565 632q0 16 -11 31t-29.5 23.5t-42 8.5t-48.5 -15v-55.5t1 -49.5q0 -4 4 -8t7 -4h37.5t37.5 3q44 9 44 66z" />
    <glyph glyph-name="afii10083" unicode="&#x441;" horiz-adv-x="982" 
d="M653 684q-46 12 -84 8t-76 -23q-26 -14 -43.5 -35.5t-26.5 -48t-11 -56t2 -58.5q6 -45 27 -75.5t51.5 -48.5t67.5 -23.5t75 0.5q26 3 54 13.5t52.5 23.5t44.5 25t29 17q35 -6 65 -29t48.5 -56t23.5 -73t-9.5 -81t-51 -80t-100.5 -69q-40 -19 -91 -27.5t-104.5 -9.5
t-106 5t-95.5 17q-132 35 -214 117t-119 210q-25 90 -26.5 179t29.5 178q17 50 45 93.5t63 79t74.5 63.5t79.5 46q49 22 117 36t145 11.5t160.5 -23.5t164.5 -67q18 -72 -1.5 -125.5t-61 -85.5t-95 -40t-102.5 12z" />
    <glyph glyph-name="afii10084" unicode="&#x442;" horiz-adv-x="916" 
d="M865 1000q14 -18 24 -48.5t12.5 -66.5t-5 -73t-28.5 -68.5t-58 -53t-94 -24.5q-27 -2 -44.5 -3t-20.5 -1q2 -46 2.5 -101.5t0 -114.5t-2.5 -118.5t-5 -114.5t-6.5 -102.5t-8.5 -81.5q-22 -23 -53.5 -35.5t-67 -12.5t-72.5 12.5t-69 39t-56.5 68t-35.5 98.5
q-4 21 -7.5 69.5t-5.5 112.5t-3.5 137t-0.5 144q-51 -3 -104.5 -2.5t-103.5 9.5q-16 21 -25.5 52.5t-9.5 67t9.5 71.5t30.5 65.5t55 49t82 22.5q32 2 86.5 2.5t119.5 1t135 0.5t133.5 -0.5t115.5 -0.5h81z" />
    <glyph glyph-name="afii10085" unicode="&#x443;" horiz-adv-x="979" 
d="M501 695q4 9 15.5 32t27 53.5t33 65t34.5 66.5t32 57.5t25 38.5q39 10 80.5 7t79 -16.5t67.5 -37t46.5 -55.5t16.5 -71t-23 -83q-11 -22 -33.5 -62t-52 -91t-64.5 -109.5t-71 -118t-71.5 -117t-66.5 -106t-56 -84.5t-40 -54q-55 -28 -103.5 -32.5t-88 8.5t-67.5 40.5
t-40.5 64t-7 79.5t32.5 87q22 36 33 52.5l17 25.5t10 15.5t13 23.5q5 11 0 23.5t-11 23.5q-33 58 -66 111.5t-64.5 107.5t-62 110.5t-59.5 122.5q18 40 47 68.5t62.5 45.5t69.5 23t68.5 1t58.5 -20t41 -39q18 -30 32 -58t27.5 -55.5t27 -55.5t29.5 -59q3 -7 6.5 -14t6.5 -15
h9z" />
    <glyph glyph-name="afii10086" unicode="&#x444;" horiz-adv-x="1390" 
d="M1202 905q47 -30 80.5 -74.5t52 -96.5t22 -108t-10 -110t-44.5 -102.5t-81 -85.5q-57 -42 -116 -57.5t-108.5 -16.5t-83 6t-38.5 11h-2q-1 0 -2 -0.5t-2 -0.5q-1 -1 -1 -2v-31.5t-1 -60t-3 -76.5t-6 -81q-21 -22 -52.5 -34.5t-67.5 -14t-73 9.5t-69.5 35.5t-57 63.5
t-35.5 94q-3 13 -4.5 39t-3.5 61q-1 1 -1.5 1t-1.5 1q-2 0 -2 -1q-6 -3 -36.5 -11t-76.5 -7t-102 15.5t-113 56.5q-75 55 -110 127t-35 147.5t32 147.5t91 126q48 45 131 73.5t184 43t211 15.5t212 -11t187.5 -35t136.5 -57zM480 538q3 0 6.5 4t4.5 7v32t1 32v40
q-25 15 -48.5 15t-42 -8.5t-30 -23.5t-11.5 -30q0 -56 45 -65q18 -3 37 -3h38zM978 541q44 9 44 65q0 15 -11.5 30t-30 23.5t-42 8.5t-47.5 -15v-103q1 -3 5 -7.5t7 -4.5h37.5t37.5 3z" />
    <glyph glyph-name="afii10087" unicode="&#x445;" horiz-adv-x="944" 
d="M761 469q12 -28 33 -69.5t43.5 -87.5t44 -93t35.5 -85q-2 -36 -22.5 -69.5t-52.5 -57.5t-72 -35t-81 -3.5t-79.5 37.5t-68.5 88q-14 26 -32.5 71t-38.5 94l-38 -84t-35.5 -78t-28.5 -64t-18 -41q-71 -16 -122 -11.5t-86 22.5t-55 46t-29 59t-8.5 60.5t7.5 51.5
q12 39 28 73.5t33.5 65.5t35 59.5t31.5 55.5q3 7 3 16t-4 14q-42 91 -84 180.5t-85 180.5q7 36 31.5 65t58.5 48.5t74 28t78 4.5t69.5 -22t48.5 -52q29 -54 54.5 -114.5t48.5 -118.5q35 72 77.5 152.5t87.5 150.5q32 11 68 10t70 -12.5t63 -33.5t47 -53.5t21 -71.5t-14 -87
q-12 -32 -27 -62t-32 -61t-35.5 -64.5t-38.5 -72.5q-4 -6 -5 -14.5t1 -15.5z" />
    <glyph glyph-name="afii10088" unicode="&#x446;" horiz-adv-x="1182" 
d="M1116 303q17 -20 28 -49.5t12.5 -62.5t-8 -65.5t-33.5 -59.5t-64.5 -45.5t-100.5 -21.5q-73 -4 -145 -6t-138.5 -2.5t-124.5 0.5t-102 2t-72 2.5t-34 1.5q-73 4 -124.5 17t-86 38.5t-53 64.5t-25.5 96q-5 45 -9 103.5t-6 123.5t-1.5 134t2.5 136t6.5 129t11.5 114
q11 12 41 22.5t69 15t81.5 1.5t79.5 -18t63.5 -43.5t32.5 -73.5q2 -13 3 -55t2 -98t1.5 -119.5t1 -118.5t0.5 -95.5v-51.5h187v635q14 12 45.5 23.5t71.5 16t83 0t79.5 -24t62 -57t29.5 -98.5q2 -28 4 -82t4 -123t3.5 -146t1.5 -151q35 -2 66 -4t55 -5z" />
    <glyph glyph-name="afii10089" unicode="&#x447;" horiz-adv-x="1019" 
d="M975 786q5 -31 7.5 -86.5t3.5 -124.5t0 -145.5t-4 -150t-7.5 -137t-10.5 -106.5q-21 -23 -52 -35.5t-65.5 -13t-70.5 12.5t-67.5 39.5t-55.5 68t-35 99.5q-1 1 -1 3q-59 0 -109 1t-88.5 2t-62 2t-29.5 1q-73 4 -124.5 18t-85.5 40t-52.5 67t-25.5 100q-9 71 -13 130
t-4 118t5 123t16 145q11 13 40.5 23.5t68.5 15t81.5 1t79.5 -19t63.5 -45t32.5 -76.5q2 -13 3 -37.5t2 -55t1.5 -63t1 -62t0.5 -53v-34.5q29 0 77 0.5t106 0.5q0 61 0.5 121.5t3 113.5t7 94.5t10.5 65.5q23 21 55.5 34.5t68.5 16t73 -7t68.5 -34.5t55 -67t32.5 -103z" />
    <glyph glyph-name="afii10090" unicode="&#x448;" horiz-adv-x="1612" 
d="M1568 800q4 -37 6 -100.5t2.5 -137t0 -150.5t-0.5 -141q0 -39 -7 -84.5t-32.5 -86t-76.5 -70t-139 -34.5q-54 -3 -124 -5t-148 -3t-159 -1.5t-158 0t-146 1.5t-121.5 1.5t-85 1.5t-36.5 1q-73 4 -125 17t-86 38.5t-52.5 65t-25.5 96.5q-5 46 -9 104.5t-6 123.5
t-1.5 134.5t2.5 136.5t6.5 129.5t11.5 114.5q11 13 41 23t68.5 14.5t81.5 1.5t79.5 -18t63 -43.5t32.5 -73.5q2 -13 3 -55t2 -98.5t2 -120t1.5 -119.5t0.5 -96.5v-51.5q30 0 78.5 0.5t108.5 0.5v637q14 12 45.5 24t71.5 16.5t83 0t79.5 -24.5t62 -58t29.5 -99q2 -28 4 -82
t4 -123t3.5 -146.5t1.5 -151.5h25.5h46t61.5 0.5t72 0.5q-1 66 -1.5 154t0 178.5t2 173.5t4.5 140q23 20 56.5 33t71 15.5t75 -6.5t69 -33t54 -64.5t28.5 -100.5z" />
    <glyph glyph-name="afii10091" unicode="&#x449;" horiz-adv-x="1799" 
d="M1731 302q17 -20 28 -50t12.5 -63t-8 -66t-33.5 -60.5t-64.5 -46t-100.5 -21.5q-54 -3 -135 -5t-176 -2.5t-199 -0.5t-204.5 0.5t-192 1.5t-162 2t-114 2t-47.5 1q-73 4 -124.5 17t-86 38.5t-53 65.5t-25.5 97q-6 46 -9.5 105t-5.5 124.5t-1.5 135.5t2.5 137.5t6.5 130.5
t11.5 115q11 12 41 22.5t69 15.5t81.5 1.5t79.5 -18.5t63 -43.5t32 -74.5q2 -13 3 -55.5t2 -99t2 -120.5t1.5 -120t0.5 -97v-52q30 0 78.5 0.5t108.5 0.5v641q14 12 45.5 23.5t71.5 16.5t83 0.5t79.5 -24.5t62 -58t29.5 -100q2 -28 4 -82.5t4 -124t3.5 -147t1.5 -152.5
q6 0 22.5 -0.5t41.5 -1t57 -1t69 -0.5q1 64 2 142.5t2 162.5t1 169t-1 163q23 20 56 32.5t69.5 15.5t73.5 -4.5t68.5 -26.5t54 -50.5t29.5 -77.5q4 -30 7 -88t4 -130.5t0.5 -154t-3.5 -157.5q74 -1 124 -1.5t58 -2.5z" />
    <glyph glyph-name="afii10092" unicode="&#x44a;" horiz-adv-x="1114" 
d="M941 647q50 -38 80.5 -88.5t44.5 -106.5t11 -114t-19 -110.5t-45.5 -96t-69.5 -70.5q-50 -33 -116 -51.5t-137.5 -24t-143.5 -0.5t-134 17.5t-109 31t-69 39.5q-7 27 -11.5 86.5t-7 137.5t-2.5 166.5t1 172.5q-45 2 -80.5 6t-56.5 10q-20 23 -33.5 55.5t-16 68.5t7 73
t34 68.5t65.5 55t101 32.5q20 3 51 5t70 4q39 1 78.5 -7.5t72.5 -25t54.5 -41.5t23.5 -56q5 -78 4 -120t-1 -56l1 -2q2 0 2.5 -0.5t1.5 -0.5h2q6 4 39.5 11t82.5 6t108 -17t116 -58zM611 316q25 -15 48.5 -15.5t42 8.5t29.5 24t11 30q0 59 -44 66q-18 4 -37 4h-38
q-3 0 -7 -4.5t-4 -7.5q-1 -26 -1 -50v-55z" />
    <glyph glyph-name="afii10093" unicode="&#x44b;" horiz-adv-x="1383" 
d="M1334 802q5 -30 7.5 -86.5t3.5 -127.5t0 -149.5t-4 -153.5t-7.5 -139.5t-10.5 -106.5q-31 -34 -83 -44t-105 8.5t-97.5 68t-60.5 134.5q-3 17 -6 53t-5 85t-3.5 107.5t-2 119t0.5 120.5t3 112t6.5 93t10.5 64q23 20 55.5 33t68.5 15.5t73 -7t68.5 -34t55 -65t32.5 -100.5
zM415 697h-2l-4 2q-1 0 -1 2q0 13 0.5 55t-4.5 120q-2 29 -19.5 54t-45 43t-63.5 27.5t-74.5 8.5t-78 -14.5t-74.5 -40.5q-3 -17 -6 -59t-5 -100.5t-3.5 -129t-2 -144t0.5 -145.5t3.5 -133.5t7 -108t10.5 -69.5q22 -21 69 -39.5t109 -31t134 -17.5t143.5 1t137.5 24t116 52
q40 26 69 69.5t45.5 96t19 110.5t-11 114t-44 107t-80.5 88q-57 42 -116 58t-108.5 17t-83 -6t-38.5 -11zM431 308q0 32 -0.5 55.5t0.5 49.5q0 3 4.5 7.5t7.5 4.5h37.5t36.5 -4q45 -7 45 -66q0 -15 -11.5 -30t-30 -24t-42 -8.5t-47.5 15.5z" />
    <glyph glyph-name="afii10094" unicode="&#x44c;" horiz-adv-x="930" 
d="M417 705q4 2 20.5 6.5t42.5 7.5t59 2.5t70.5 -7.5t76.5 -23.5t77 -44.5q50 -38 80.5 -88t44 -106.5t11 -114.5t-19 -110.5t-45.5 -95.5t-69 -70q-50 -34 -116 -52t-137.5 -24t-143.5 -1t-134 17.5t-109 31t-69 39.5q-6 23 -10 69.5t-6.5 108t-3.5 133.5t-1 145.5t1.5 144
t3.5 129t5 100.5t6 59q52 41 113.5 50.5t114 -4.5t89 -47t39.5 -77q5 -78 4 -119.5t-1 -55.5q0 -1 1 -2l4 -2q2 0 2 1zM433 315q25 -15 48.5 -15.5t42 8.5t29.5 24t11 31q0 57 -44 66q-18 3 -37 3h-38q-3 0 -7 -4.5t-4 -7.5q-1 -26 -1 -49.5v-55.5z" />
    <glyph glyph-name="afii10095" unicode="&#x44d;" horiz-adv-x="1030" 
d="M996 598q15 -91 4.5 -179t-51.5 -173q-47 -95 -123 -153.5t-176 -92.5q-66 -23 -144.5 -29.5t-159.5 9.5t-160 59t-146 120q-9 73 14 122t63.5 72t90.5 19t93 -36q45 -33 86.5 -45t77 -7.5t63 23.5t43.5 48q-61 2 -109 5.5t-74 10.5q-27 30 -36.5 72.5t0.5 82t41.5 68.5
t87.5 33q12 2 36 1.5t53 -0.5q-22 33 -59.5 53.5t-83 23t-95.5 -16t-98 -63.5q-34 11 -60.5 38t-41 62t-14.5 75.5t19.5 78.5t60 69.5t107.5 50.5q79 22 157 24.5t150 -14t135.5 -50.5t114 -86t85.5 -121t49 -154z" />
    <glyph glyph-name="afii10096" unicode="&#x44e;" horiz-adv-x="1619" 
d="M1545 719q36 -96 42.5 -193t-23.5 -196q-41 -131 -128 -213t-221 -114q-109 -26 -214 -16.5t-205 61.5q-93 48 -148 123.5t-80 174.5q-29 -1 -59 -1h-59q-2 -45 -3.5 -89.5t-4 -85t-5.5 -75t-7 -60.5q-21 -23 -54.5 -35t-72 -12t-78.5 12t-75.5 38.5t-62 67t-37.5 96.5
q-4 22 -7.5 78t-6 129t-3 156t1.5 158.5t6.5 137t12.5 91.5q23 21 58 34t75 15.5t81 -7t76.5 -34t61.5 -65t35 -100.5q2 -12 3.5 -30.5t2.5 -40.5t2 -46.5t2 -47.5q24 1 50.5 1h54.5q11 55 34 106q24 53 62 101.5t95 86t134.5 60.5t180.5 25q81 1 146 -14.5t116.5 -41
t89.5 -58t64.5 -65.5t43 -62.5t23.5 -49.5zM1195 493q2 43 -7.5 76t-27.5 55.5t-42.5 34.5t-51.5 12t-52 -11.5t-44 -34.5t-29 -57t-7 -79q3 -43 17.5 -73t34.5 -48t42.5 -25.5t42.5 -6.5q19 1 40 10t39 27.5t30 48t15 71.5z" />
    <glyph glyph-name="afii10097" unicode="&#x44f;" horiz-adv-x="924" 
d="M870 921q8 -30 13.5 -96t8 -150.5t3.5 -178.5t1.5 -181t0 -157t-0.5 -107q-48 -36 -109.5 -51t-118.5 -1.5t-99 57t-50 124.5q-3 35 -3.5 53.5t-0.5 29.5q-11 -37 -27.5 -75.5t-37 -75.5t-45.5 -70.5t-53 -59.5q-39 -11 -79 -7t-75 20t-61.5 43t-38 60.5t-5 73t37.5 81.5
q17 24 30 43.5t23 36.5q-5 3 -10.5 6.5t-10.5 7.5q-50 38 -80.5 88.5t-44 106.5t-11 114t19 110.5t45.5 95.5t69 70q50 34 116 52t137.5 24t143.5 1t134 -17.5t109 -31t69 -39.5zM493 678q-24 15 -47.5 15.5t-42 -8.5t-30 -24t-11.5 -30q0 -59 45 -66q18 -4 37 -4h38
q2 0 6.5 4.5t4.5 7.5q1 26 0.5 49.5t-0.5 55.5z" />
    <glyph glyph-name="afii10071" unicode="&#x451;" horiz-adv-x="826" 
d="M25 230q-2 34 -3 92.5t-1 130t1 149.5t4 151.5t7 137.5t9 107q42 4 100 6.5t124 3.5t136.5 0.5t137.5 -2t126.5 -4.5t104.5 -6q9 -13 16.5 -40.5t8 -61t-8.5 -69.5t-32 -65t-62.5 -48t-100.5 -19h-208v-51q22 0 61 1t84 0.5t89.5 -5t76.5 -15.5q22 -50 24.5 -95.5
t-14.5 -81t-53.5 -57t-91.5 -23.5q-20 -2 -36.5 -2t-35.5 0.5t-43.5 1t-60.5 0.5v-62h23h325q29 -41 37.5 -90.5t-7.5 -94.5t-58 -79.5t-114 -43.5q-21 -3 -55 -5.5t-74.5 -3.5t-84.5 -0.5t-84 2t-72 5t-50 8.5q-71 16 -104.5 70.5t-40.5 157.5zM212 1066q-13 2 -26.5 3.5
t-24.5 4.5q-50 11 -77 42t-34 80q-2 20 -1 41t4 41q7 38 30.5 63.5t61.5 36.5q54 21 109 6q58 -12 90.5 -55.5t26.5 -102.5q-2 -18 -5 -35t-8 -33q-17 -44 -55.5 -68t-90.5 -24zM635 1066q-13 2 -25 3.5t-24 4.5q-51 11 -79 42t-33 80q-2 20 -1 41t5 41q11 78 90 100
q53 21 111 6q57 -12 88.5 -55.5t25.5 -102.5q0 -34 -13 -68q-17 -44 -54 -68t-91 -24z" />
    <glyph glyph-name="uni04A2" unicode="&#x4a2;" horiz-adv-x="1195" 
d="M1138 285q17 -21 24 -52t1 -65.5t-26 -69.5t-56.5 -62.5t-90.5 -45t-128 -17.5q-39 0 -77.5 8t-70.5 25t-53.5 43.5t-26.5 63.5q-3 20 -4.5 50t-2.5 61t-1.5 59t-0.5 45h-192v-314q-14 -13 -46.5 -24.5t-73 -16.5t-85 -0.5t-82 25t-63.5 59t-30 101.5q-2 28 -4.5 85.5
t-4.5 130.5t-3 156t-1.5 162.5t0.5 149t4 116.5q34 28 75 42.5t82 16.5t80.5 -8.5t70.5 -31t51.5 -50.5t24.5 -69q3 -34 3.5 -67.5t0.5 -61.5t-1 -46.5t-1 -22.5h197q1 43 1.5 89.5t1.5 89t2.5 78t4.5 56.5q32 25 72 36.5t82 10t82 -15t71.5 -39.5t50.5 -64t19 -87v-66.5
v-104t-0.5 -119.5t-0.5 -113v-84v-33q36 -2 67.5 -4t57.5 -5z" />
    <glyph glyph-name="uni04A3" unicode="&#x4a3;" horiz-adv-x="1195" 
d="M1138 285q17 -21 24 -52t1 -65.5t-26 -69.5t-56.5 -62.5t-90.5 -45t-128 -17.5q-39 0 -77.5 8t-70.5 25t-53.5 43.5t-26.5 63.5q-3 20 -4.5 50t-2.5 61t-1.5 59t-0.5 45h-192v-314q-14 -13 -46.5 -24.5t-73 -16.5t-85 -0.5t-82 25t-63.5 59t-30 101.5q-2 28 -4.5 85.5
t-4.5 130.5t-3 156t-1.5 162.5t0.5 149t4 116.5q34 28 75 42.5t82 16.5t80.5 -8.5t70.5 -31t51.5 -50.5t24.5 -69q3 -34 3.5 -67.5t0.5 -61.5t-1 -46.5t-1 -22.5h197q1 43 1.5 89.5t1.5 89t2.5 78t4.5 56.5q32 25 72 36.5t82 10t82 -15t71.5 -39.5t50.5 -64t19 -87v-66.5
v-104t-0.5 -119.5t-0.5 -113v-84v-33q36 -2 67.5 -4t57.5 -5z" />
    <glyph glyph-name="uni04AE" unicode="&#x4ae;" horiz-adv-x="949" 
d="M501 616q4 9 15 34t26 59t33 73.5t35.5 78.5t33.5 73t28 57q54 15 108 3t92 -45.5t51 -86.5t-15 -120q-25 -58 -50 -104t-52 -93t-56.5 -100t-62.5 -124q-15 -27 -15 -55v-72.5t-1 -75t-1.5 -61t-0.5 -31.5q-11 -15 -41.5 -26t-70 -15t-83 1t-80 24t-61.5 54t-27 89v27
v37.5t0.5 35.5t0.5 21q-1 13 -3.5 20.5t-7.5 18.5q-30 58 -66.5 127.5t-73.5 142.5t-71 145.5t-61 137.5q25 60 72 92.5t97 39.5t93.5 -9t63.5 -53q16 -30 33.5 -67.5t34.5 -76.5t33 -77t30 -69q3 -8 6 -14.5t6 -14.5q6 0 8 -1z" />
    <glyph glyph-name="uni04AF" unicode="&#x4af;" horiz-adv-x="949" 
d="M501 616q4 9 15 34t26 59t33 73.5t35.5 78.5t33.5 73t28 57q54 15 108 3t92 -45.5t51 -86.5t-15 -120q-25 -58 -50 -104t-52 -93t-56.5 -100t-62.5 -124q-15 -27 -15 -55v-72.5t-1 -75t-1.5 -61t-0.5 -31.5q-11 -15 -41.5 -26t-70 -15t-83 1t-80 24t-61.5 54t-27 89v27
v37.5t0.5 35.5t0.5 21q-1 13 -3.5 20.5t-7.5 18.5q-30 58 -66.5 127.5t-73.5 142.5t-71 145.5t-61 137.5q25 60 72 92.5t97 39.5t93.5 -9t63.5 -53q16 -30 33.5 -67.5t34.5 -76.5t33 -77t30 -69q3 -8 6 -14.5t6 -14.5q6 0 8 -1z" />
    <glyph glyph-name="uni04E8" unicode="&#x4e8;" horiz-adv-x="1075" 
d="M1007 709q36 -95 42.5 -191t-23.5 -194q-80 -260 -344 -323q-108 -26 -211.5 -16.5t-203.5 60.5q-94 49 -149.5 126.5t-78.5 179.5q-11 48 -15 98.5t-1 99.5t13 94.5t28 83.5q23 52 60 103.5t93.5 93t133.5 67t179 26.5q84 1 150 -16.5t117 -45t87 -62t61 -69t40 -65
t22 -50.5zM534 662q-33 0 -62.5 -17t-47.5 -51q29 -2 60 -9t61 -14t58 -10.5t51 1.5q-14 48 -47 74t-73 26zM539 330q28 2 57.5 19.5t48.5 59.5q-31 -5 -57 -1.5t-52.5 9t-55 8t-65.5 -3.5q20 -51 56 -72t68 -19z" />
    <glyph glyph-name="uni04E9" unicode="&#x4e9;" horiz-adv-x="1079" 
d="M1007 709q36 -95 42.5 -191t-23.5 -194q-80 -260 -344 -323q-108 -26 -211.5 -16.5t-203.5 60.5q-94 49 -149.5 126.5t-78.5 179.5q-11 48 -15 98.5t-1 99.5t13 94.5t28 83.5q23 52 60 103.5t93.5 93t133.5 67t179 26.5q84 1 150 -16.5t117 -45t87 -62t61 -69t40 -65
t22 -50.5zM534 662q-33 0 -62.5 -17t-47.5 -51q29 -2 60 -9t61 -14t58 -10.5t51 1.5q-14 48 -47 74t-73 26zM539 330q28 2 57.5 19.5t48.5 59.5q-31 -5 -57 -1.5t-52.5 9t-55 8t-65.5 -3.5q20 -51 56 -72t68 -19z" />
    <glyph glyph-name="endash" unicode="&#x2013;" horiz-adv-x="1130" 
d="M241 627q31 5 92 7.5t138 3.5t163 0t167 -4t150.5 -7.5t112.5 -10.5q23 -22 35.5 -53.5t12.5 -67t-12.5 -72.5t-39.5 -69.5t-68.5 -57.5t-99.5 -36q-17 -3 -56 -6t-92 -5.5t-116.5 -4t-129.5 -1.5t-131 0.5t-121.5 3t-100 7t-66.5 10.5q-21 24 -34.5 57.5t-16 70.5t7 75
t34.5 70.5t67 56t104 33.5z" />
    <glyph glyph-name="emdash" unicode="&#x2014;" horiz-adv-x="1137" 
d="M241 627q31 5 92 7.5t138 3.5t163 0t167 -4t150.5 -7.5t112.5 -10.5q23 -22 35.5 -53.5t12.5 -67t-12.5 -72.5t-39.5 -69.5t-68.5 -57.5t-99.5 -36q-17 -3 -56 -6t-92 -5.5t-116.5 -4t-129.5 -1.5t-131 0.5t-121.5 3t-100 7t-66.5 10.5q-21 24 -34.5 57.5t-16 70.5t7 75
t34.5 70.5t67 56t104 33.5z" />
    <glyph glyph-name="quoteleft" unicode="&#x2018;" horiz-adv-x="421" 
d="M269 821q50 -15 79.5 -47t42 -70.5t9.5 -79t-17 -72.5q-11 -23 -26 -43t-36 -34.5t-49.5 -23t-64.5 -9.5q-48 -1 -83.5 15.5t-59 44t-35.5 64t-13 74.5q-1 49 13.5 99t36.5 95.5t48 85.5t50 69q31 39 67 52.5t66.5 10t50.5 -21.5t20 -42q-25 -48 -51.5 -87.5t-47.5 -79.5
z" />
    <glyph glyph-name="quoteright" unicode="&#x2019;" horiz-adv-x="433" 
d="M154 674q-50 15 -79.5 47t-42 70.5t-9.5 78.5t17 72q22 48 63 78t113 32q48 1 83.5 -15t59 -44t35.5 -64t13 -74q1 -49 -13.5 -99t-36 -96t-48 -86t-49.5 -69q-31 -39 -67 -52.5t-66.5 -9.5t-51 21.5t-20.5 41.5q25 48 51.5 87.5t47.5 80.5z" />
    <glyph glyph-name="quotesinglbase" unicode="&#x201a;" horiz-adv-x="428" 
d="M148 -8q-50 15 -79.5 47t-42 70.5t-10 79t17.5 72.5q21 46 62 77t114 33q48 1 83.5 -15.5t59 -44.5t35.5 -64t13 -74q1 -49 -13.5 -99t-36.5 -96t-48 -85.5t-50 -68.5q-31 -39 -67 -52.5t-66.5 -10t-50.5 21.5t-20 42q24 48 51 87t48 80z" />
    <glyph glyph-name="quotedblleft" unicode="&#x201c;" horiz-adv-x="876" 
d="M282 821q50 -15 79.5 -47t41.5 -70.5t9.5 -79t-17.5 -72.5q-21 -47 -62 -77.5t-113 -32.5q-48 -1 -83.5 15.5t-59 44t-35.5 64t-13 74.5q-1 49 13 99t36 95.5t48 85.5t50 69q31 39 67 52.5t66.5 10t51 -21.5t20.5 -42q-25 -48 -51.5 -87.5t-47.5 -79.5zM716 821
q50 -15 79.5 -47t42 -70.5t10 -79t-17.5 -72.5q-21 -47 -62 -77.5t-113 -32.5q-48 -1 -83.5 15.5t-59.5 44t-36 64t-13 74.5q-1 49 13.5 99t36.5 95.5t48 85.5t50 69q31 39 67 52.5t66.5 10t50.5 -21.5t20 -42q-24 -48 -50.5 -87.5t-48.5 -79.5z" />
    <glyph glyph-name="quotedblright" unicode="&#x201d;" horiz-adv-x="871" 
d="M153 674q-50 15 -79.5 47t-42 70.5t-10 78.5t17.5 72q21 48 62 78t114 32q48 1 83.5 -15t59 -44t35.5 -64t13 -74q1 -49 -13.5 -99t-36.5 -96t-48 -86t-50 -69q-31 -39 -66.5 -52.5t-66 -9.5t-51 21.5t-20.5 41.5q24 48 51 87.5t48 80.5zM583 674q-50 15 -79.5 47
t-42 70.5t-9.5 78.5t17 72q21 48 62 78t114 32q48 1 83.5 -15t59 -44t35.5 -64t13 -74q1 -49 -13.5 -99t-36 -96t-48 -86t-49.5 -69q-31 -39 -67 -52.5t-66.5 -9.5t-51 21.5t-20.5 41.5q25 48 51.5 87.5t47.5 80.5z" />
    <glyph glyph-name="quotedblbase" unicode="&#x201e;" horiz-adv-x="857" 
d="M155 -20q-50 15 -79.5 46.5t-41.5 70t-9.5 79t17.5 72.5q21 47 62 77.5t113 32.5q48 1 83.5 -15.5t59.5 -44t36 -64t13 -74.5q1 -49 -13.5 -99t-36.5 -96t-48 -86t-50 -69q-31 -38 -67 -51.5t-66.5 -9.5t-51 21.5t-20.5 41.5q25 48 51.5 87.5t47.5 80.5zM586 -20
q-50 15 -79.5 46.5t-42 70t-10 79t17.5 72.5q21 47 62 77.5t113 32.5q48 1 83.5 -15.5t59.5 -44t36 -64t13 -74.5q1 -49 -13.5 -99t-36.5 -96t-48 -86t-50 -69q-31 -38 -67 -51.5t-66.5 -9.5t-50.5 21.5t-20 41.5q24 48 50.5 87.5t48.5 80.5z" />
    <glyph glyph-name="dagger" unicode="&#x2020;" horiz-adv-x="814" 
d="M743 794q30 -48 37 -97.5t-13.5 -91.5t-70.5 -72t-134 -39q-1 -71 -2 -143t-3 -136t-4.5 -115.5t-5.5 -80.5q-50 -30 -100 -36t-92 16t-70.5 74t-35.5 139q-1 9 -1.5 34t-1.5 62.5t-1 85t1 101.5q-42 3 -88 7.5t-97 11.5q-38 67 -38.5 120.5t24.5 91t70.5 58t100.5 20.5
q8 0 18 0.5t23 0.5q3 48 7.5 92.5t9.5 85.5q68 36 121.5 36t91 -25.5t57 -71.5t19.5 -101v-18q51 -2 97 -4t81 -5z" />
    <glyph glyph-name="bullet" unicode="&#x2022;" horiz-adv-x="581" 
d="M296 232q-20 3 -41 5.5t-41 7.5q-78 17 -124 67.5t-54 129.5q-8 70 4 134q11 63 49 103.5t98 60.5q91 29 179 9q46 -10 83 -34t62 -58t36.5 -77t7.5 -91q-2 -28 -7.5 -55.5t-15.5 -53.5q-28 -72 -89.5 -109t-146.5 -39z" />
    <glyph glyph-name="ellipsis" unicode="&#x2026;" horiz-adv-x="1341" 
d="M223 -30q-15 2 -30.5 4t-30.5 6q-59 13 -93 50t-40 97q-6 50 3 100q8 48 36.5 78t73.5 44q67 22 133 7q34 -8 61.5 -26t46.5 -43.5t27.5 -57.5t5.5 -68q-2 -20 -5.5 -40.5t-11.5 -40.5q-21 -53 -67 -80.5t-109 -29.5zM673 -30q-16 2 -31.5 4t-30.5 6q-59 13 -93 50
t-40 97q-5 50 3 100q8 48 36.5 78t73.5 44q68 22 134 7q34 -8 61.5 -26t46.5 -43.5t27.5 -57.5t5.5 -68q-2 -20 -6 -40.5t-12 -40.5q-20 -53 -66 -80.5t-109 -29.5zM1122 -30q-15 2 -30.5 4t-30.5 6q-59 13 -93.5 50t-39.5 97q-6 50 3 100q8 48 36.5 78t73.5 44q67 22 133 7
q34 -8 61.5 -26t46.5 -43.5t27.5 -57.5t5.5 -68q-2 -20 -5.5 -40.5t-11.5 -40.5q-21 -53 -67 -80.5t-109 -29.5z" />
    <glyph glyph-name="guilsinglleft" unicode="&#x2039;" horiz-adv-x="833" 
 />
    <glyph glyph-name="Euro" unicode="&#x20ac;" horiz-adv-x="1102" 
d="M927 399q34 -7 63.5 -30t48 -56t23 -73.5t-9 -81.5t-49.5 -79.5t-98 -68.5q-39 -19 -89 -27.5t-102.5 -9.5t-103.5 5.5t-94 17.5q-254 66 -324 320q-3 11 -5.5 20.5t-4.5 18.5h-62.5t-55.5 2q-20 24 -23 48t5.5 43.5t26.5 32t41 13.5q5 1 19 1t34 1q0 4 -0.5 15.5
t-0.5 16.5q-56 -2 -100 3q-20 24 -24 49.5t4.5 46.5t26 34.5t40.5 14.5q8 1 28.5 1t52.5 1v1q33 100 98.5 167.5t157.5 113.5q61 31 129 45.5t140.5 10.5t149 -28t155.5 -71q18 -72 1 -127t-53.5 -87.5t-84.5 -39.5t-93 17q-20 10 -44 16t-50 5.5t-52 -7.5t-48 -23
q28 0 52 -0.5t45 -3.5q20 -24 24 -49t-4 -46t-26 -35t-41 -15q-8 0 -39.5 -0.5t-76.5 -1.5q0 -4 0.5 -15.5t0.5 -15.5v-2q47 0 88 0.5t75 -4.5q20 -24 24 -46t-4 -39.5t-25.5 -28t-41.5 -11.5h-11.5h-20t-24 -0.5t-23.5 -0.5q15 -19 37 -30.5t46.5 -17.5t49 -6.5t45.5 2.5
q35 7 63.5 20.5t51 28t38 27t24.5 18.5z" />
    <glyph glyph-name="approxequal" unicode="&#x2248;" horiz-adv-x="816" 
d="M135 557q-46 21 -71 57.5t-28 78.5t15 83t59 71q37 27 84 32.5t98 -1t104.5 -19.5t104 -23.5t96.5 -13.5t82 12q28 -7 47 -26t29 -44.5t10 -54.5t-9.5 -55.5t-29.5 -47t-51 -28.5q-49 -14 -89 -13.5t-78 7t-76 14.5t-82 10t-96.5 -5.5t-118.5 -33.5zM131 557
q-46 21 -71 57.5t-28 78.5t15 83t59 71q37 27 84 32.5t98 -1t104.5 -19.5t104 -23.5t96.5 -13.5t82 12q28 -7 47 -26t29 -44.5t10 -54.5t-9.5 -55.5t-29.5 -47t-51 -28.5q-49 -14 -89 -13.5t-78 7t-76 14.5t-82 10t-96.5 -5.5t-118.5 -33.5zM135 146q-46 21 -71 57.5
t-28 78.5t15 83t59 71q37 27 84 32.5t98 -1t104.5 -19.5t104 -23.5t96.5 -13.5t82 12q28 -7 47 -26t29 -44.5t10 -54.5t-9.5 -55.5t-29.5 -47t-51 -28.5q-49 -14 -89 -13.5t-78 7t-76 14.5t-82 10t-96.5 -5.5t-118.5 -33.5zM131 146q-46 21 -71 57.5t-28 78.5t15 83t59 71
q37 27 84 32.5t98 -1t104.5 -19.5t104 -23.5t96.5 -13.5t82 12q28 -7 47 -26t29 -44.5t10 -54.5t-9.5 -55.5t-29.5 -47t-51 -28.5q-49 -14 -89 -13.5t-78 7t-76 14.5t-82 10t-96.5 -5.5t-118.5 -33.5z" />
    <glyph glyph-name="aring.001" 
d="M15 302q10 50 25.5 111t34.5 125t40 128.5t42.5 122.5t41 106t35.5 79q34 11 80 22t97.5 15.5t105.5 -1.5t103.5 -28.5t91.5 -65.5t71 -112q13 -33 30.5 -82.5t36 -109.5t37.5 -126t36.5 -132t32 -128.5t23.5 -115.5q-4 -27 -29 -53.5t-62.5 -45t-83 -24.5t-88.5 7.5
t-79 51t-56 105.5q-48 2 -98.5 0.5t-98.5 0.5q-13 -32 -24.5 -68.5t-22.5 -75.5q-92 -34 -160 -24t-109.5 52t-55 111.5t2.5 154.5zM423 438h123q-14 61 -29 120.5t-29 119.5q-3 -1 -9 -1q-14 -60 -28 -118.5t-28 -120.5zM498 1103q-157 7 -196 132q-13 38 -14.5 76.5
t3.5 76.5q8 54 32.5 88.5t58.5 53.5t74.5 24t81.5 0q79 -11 125 -63t48 -132q0 -29 -3 -59.5t-12 -59.5q-20 -69 -73 -104.5t-125 -32.5zM433 1341q1 -40 17 -67t48 -27q37 0 51.5 24t14.5 72q0 11 -2.5 25t-9.5 26.5t-19 21t-30 8.5q-32 0 -51 -23t-19 -60z" />
    <glyph glyph-name="Ccedilla.001" 
d="M824 410q35 -7 65 -29.5t48.5 -56t23.5 -73.5t-9 -81t-50.5 -80t-100.5 -69q-45 -21 -103 -30t-120 -7q-24 -2 -46.5 -10t-37.5 -22t-20.5 -32.5t2.5 -41.5q7 -21 29 -28.5t48 -3.5t51.5 19t39.5 41q24 1 43 -17t28.5 -43t6.5 -52t-23 -45q-48 -43 -109.5 -57t-117.5 -2
t-98 49.5t-51 97.5q-10 63 5.5 106t47.5 72q-120 36 -195.5 116.5t-110.5 202.5q-26 90 -27 179t29 178q17 50 45 93.5t63 79.5t75 63.5t80 45.5q49 23 116.5 37t145.5 12t161 -23.5t164 -68.5q12 -48 7 -88t-23 -71t-46 -52.5t-61.5 -32t-69 -9.5t-68.5 14q-45 12 -83 8.5
t-75 -22.5q-27 -14 -44.5 -35.5t-27 -48.5t-11.5 -56.5t2 -59.5q6 -44 27 -74.5t52 -48.5t68.5 -24t75.5 0q25 3 53 14t52.5 24t44.5 25t29 17z" />
    </font>
</defs>
</svg>
