<svg xmlns="http://www.w3.org/2000/svg" xmlns:xlink="http://www.w3.org/1999/xlink" width="159" height="244" viewBox="0 0 159 244"><defs><clipPath id="a"><rect width="159" height="244" transform="translate(1207 492)" fill="#fff" stroke="#707070" stroke-width="1"/></clipPath></defs><g transform="translate(-1207 -492)" clip-path="url(#a)"><path d="M162.016,371.929a13.192,13.192,0,1,0-18.411-3.1A13.113,13.113,0,0,0,162.016,371.929Zm10.092,46.17a13.161,13.161,0,1,0-14.419-11.86A13.115,13.115,0,0,0,172.108,418.1Zm-14.393,44.939a13.147,13.147,0,1,0-6.567-17.441A13.178,13.178,0,0,0,157.714,463.038ZM122.688,494.7a13.162,13.162,0,1,0,3.047-18.344A13.239,13.239,0,0,0,122.688,494.7Zm-46.274,9.905A13.191,13.191,0,1,0,88.259,490.27,13.24,13.24,0,0,0,76.414,504.606ZM31.292,490.1a13.207,13.207,0,1,0,17.469-6.484A13.178,13.178,0,0,0,31.292,490.1ZM-.587,455.069a13.114,13.114,0,0,0-3.047,18.346A13.161,13.161,0,1,0-.587,455.069ZM-10.679,408.9a13.115,13.115,0,0,0-11.847,14.336A13.24,13.24,0,0,0-8.1,435.1,13.112,13.112,0,0,0,3.739,420.76,13.236,13.236,0,0,0-10.679,408.9Zm14.4-44.939a13.176,13.176,0,0,0-17.469,6.486,13.178,13.178,0,0,0,6.565,17.441A13.178,13.178,0,0,0,10.281,381.4,13.179,13.179,0,0,0,3.716,363.961ZM38.742,332.3a13.161,13.161,0,1,0-3.049,18.346A13.239,13.239,0,0,0,38.742,332.3Zm46.274-9.905a13.191,13.191,0,1,0-11.846,14.338A13.241,13.241,0,0,0,85.016,322.39Zm45.464,95.331a13.108,13.108,0,0,0,10.274-15.5,13.242,13.242,0,0,0-15.579-10.3,13.108,13.108,0,0,0-10.272,15.5A13.243,13.243,0,0,0,130.48,417.721ZM109.417,455.35a13.151,13.151,0,1,0-1.82-18.524A13.212,13.212,0,0,0,109.417,455.35Zm-42.643,7.259a13.2,13.2,0,1,0,13.288-13.019A13.23,13.23,0,0,0,66.774,462.608ZM34.168,434.116a13.194,13.194,0,1,0,18.544,2.138A13.117,13.117,0,0,0,34.168,434.116ZM35.771,391a13.15,13.15,0,1,0,10.053,15.71A13.148,13.148,0,0,0,35.771,391Zm34.622-25.781a13.249,13.249,0,0,0-17.708-5.935,13.106,13.106,0,0,0-5.891,17.635A13.246,13.246,0,0,0,64.5,382.849,13.107,13.107,0,0,0,70.393,365.215Zm21.934,54.647a13.206,13.206,0,1,0-17.469,6.486A13.174,13.174,0,0,0,92.327,419.861Zm20.04-43.976a13.206,13.206,0,1,0-17.467,6.49A13.173,13.173,0,0,0,112.367,375.885ZM130.137,336.9a13.206,13.206,0,1,0-17.469,6.486A13.179,13.179,0,0,0,130.137,336.9Z" transform="translate(1251.59 205.529)" fill="none" stroke="#ffd600" stroke-miterlimit="10" stroke-width="2" opacity="0.5"/></g></svg>