<svg id="Capa_2" data-name="Capa 2" xmlns="http://www.w3.org/2000/svg" viewBox="0 0 1500 1500"><defs><style>.cls-1{fill:none;stroke:#e83aaa;stroke-linecap:round;stroke-linejoin:round;stroke-width:46px;}</style></defs><title>Iconos_Ubicaciones</title><path class="cls-1" d="M1450.78,785.06A187.4,187.4,0,0,0,1433,705.53c-1.18-6.24-2.53-12.48-4.22-18.8L1304.62,379.09l-.84-2.77c-43.44-129.33-105.24-249-261.94-249H442.69C282.12,127.3,225.38,250,181,375.6L51.14,684C32.37,714.07,21.7,748.48,21.7,785.06v95.73A185.94,185.94,0,0,0,26.78,924a75.07,75.07,0,0,0-5.08,27.07v284.73a75.6,75.6,0,0,0,75.6,75.6H254.18a75.59,75.59,0,0,0,75.57-75.6V1093.42h821.94v142.39a75.61,75.61,0,0,0,75.61,75.6h147.89a75.6,75.6,0,0,0,75.61-75.6V951.05a75.64,75.64,0,0,0-5.07-27,187.23,187.23,0,0,0,5.07-43.23V785.06ZM273.12,406.49c49.43-139.46,89.18-182,169.57-182H1041.8c79.8,0,124.23,47.48,169.38,181.43l90.59,183.57a277.35,277.35,0,0,0-96.33-17H267a278.61,278.61,0,0,0-87.37,13.91Zm77.82,510.65H185.41a54,54,0,0,1,0-108H350.94a54,54,0,0,1,0,108Zm584.72-10.81h-385a34.19,34.19,0,0,1,0-68.38h385a34.19,34.19,0,1,1,0,68.38Zm347.23,10.81H1117.38a54,54,0,1,1,0-108h165.51a54,54,0,1,1,0,108Z"/></svg>