<svg id="Capa_1" data-name="Capa 1" xmlns="http://www.w3.org/2000/svg" viewBox="0 0 1500 1500"><defs><style>.cls-1{fill:none;stroke:#56200b;stroke-linecap:round;stroke-linejoin:round;stroke-width:46px;}</style></defs><title>Remodelados</title><path class="cls-1" d="M258.78,175.6S239.83,67.34,250.66,51.1s78.48-8.12,83.9-5.41S367,72.76,407.63,61.93,475.29,32.16,524,32.16,662,45.69,675.57,53.81s108.25,73.07,119.08,92,102.84,157,100.14,162.38-10.83,24.36-16.24,19-83.9-97.43-94.73-105.55-89.31-65-97.43-65-37.89,0-32.48,86.61h-8.12v13.53l-140.73-2.7A20.29,20.29,0,0,0,488.82,246l-8.12-59.55s-59.54-37.89-105.55-29.77S334.56,181,334.56,181Z"/><polygon class="cls-1" points="513.18 318.43 648.5 318.43 686.39 1432.24 529.42 1432.24 513.18 318.43"/><path class="cls-1" d="M1038.23,1142.5s0-795.69-24.36-825.46-46-27.06-46-121.79V100.53s0-29.77,21.65-32.48S1003,105.94,1003,105.94,984.1,214.2,1081.53,214.2s92-37.89,92-37.89S1138.36,54.52,1146.48,49.1s48.72-2.7,70.37,56.84S1275,212.84,1229,261.56s-89.31,70.37-89.31,211.1,0,638.72,2.7,654.95,32.48,94.73,51.43,108.26,81.19,46,48.71,116.38-56.83,116.37-83.9,116.37S1169.49,1355,1169.49,1355s21.65-54.12-59.54-54.12-89.32,43.3-89.32,43.3-2.7,64.95-8.11,81.19-24.36,37.89-35.19-35.18-21.65-129.91,0-154.27S1028.75,1170.92,1038.23,1142.5Z"/></svg>