<svg xmlns="http://www.w3.org/2000/svg" viewBox="0 0 1500 1500"><defs><style>.cls-1{fill:none;stroke-width:46px;}.cls-1,.cls-2{stroke:#623393;stroke-linecap:round;stroke-linejoin:round;}.cls-2,.cls-3{fill:#623393;}.cls-2{stroke-width:11px;}</style></defs><title>Iconos_Ubicaciones</title><g id="Capa_4" data-name="Capa 4"><g id="Café"><path class="cls-1" d="M36.15,632.8c-.68,114.58,16.28,447,234.5,581.4V1287H790.93"/><path class="cls-1" d="M34.89,623.15H1019c6,33.16-.62,145.23-.62,145.23"/><path class="cls-1" d="M1036.48,719.17h159.84s47.62,141.69-23.13,218.83"/><path class="cls-1" d="M294.64,275s-54,68.93,0,132.05,0,153.64,0,153.64"/><path class="cls-1" d="M498.38,170.89s-54,68.93,0,132,0,153.63,0,153.63"/><path class="cls-1" d="M717.93,275s-54,68.93,0,132.05,0,153.64,0,153.64"/><line class="cls-1" x1="35.52" y1="1286.96" x2="1018.36" y2="1286.96"/></g><g id="BISQUET"><path class="cls-1" d="M1358.72,1205.3h79.78c14.94,0,27,18.29,27,40.84h0c0,22.55-12.11,40.83-27,40.83h-838c-15,0-27-18.28-27-40.83h0c0-22.56,12.13-40.84,27-40.84h758.23"/><path class="cls-2" d="M880.46,950l21.08-1.85c-2.59-29.66-14.26-60-31.2-81.2-29.67-37.08-72.65-40.37-116.24-9.51h0a61,61,0,0,0-78.56-2A10.58,10.58,0,0,0,688.76,872a39.86,39.86,0,0,1,48.58-.89c-38.2,35.46-43.86,77.48-14.58,114.06,16.94,21.16,44,39.18,72.36,48.22,32.51,10.36,61.18,7.45,80.72-8.19l-13.19-16.53c-13.64,10.92-35.91,12.57-61.1,4.56-24.16-7.74-48-23.52-62.25-41.29-22.58-28.22-15-53.56,1.06-73.31l-1.45,20a10.58,10.58,0,0,0,21.1,1.56l1.55-20.94,8,10A10.58,10.58,0,0,0,786.09,896L778,885.88l21.17,3a10.58,10.58,0,1,0,3.57-20.86,5.58,5.58,0,0,0-.57-.08l-19.83-2.85c22.74-11.24,49.05-13,71.53,15.12,14.22,17.77,24.43,44.52,26.63,69.8h0"/><path class="cls-3" d="M828.36,942.3c9.11,0,17.83-8,17.4-17.4s-7.65-17.4-17.4-17.4c-9.1,0-17.82,8-17.4,17.4S818.61,942.3,828.36,942.3Z"/><path class="cls-3" d="M828.36,1001.77c9.11,0,17.83-8,17.4-17.4s-7.65-17.4-17.4-17.4c-9.1,0-17.82,8-17.4,17.4S818.61,1001.77,828.36,1001.77Z"/><path class="cls-3" d="M786.56,970.69c9.1,0,17.82-8,17.4-17.4s-7.64-17.4-17.4-17.4c-9.1,0-17.82,8-17.4,17.4s7.64,17.4,17.4,17.4Z"/><path class="cls-1" d="M1155.71,939.3A132,132,0,1,0,904.83,943a47.16,47.16,0,0,0,11.66,92.86c.43,0,25.91,0,39.29-21.18,7.94,9.67,23.56,17.66,36,17.57,23.77-.19,33-12.84,37.85-19.46,4.84,6.62,17,19.64,42.07,18.7,13.33-.49,25.43-8,33.38-18.7,10.46,18.36,37.7,19.09,37.7,19.09a47.16,47.16,0,0,0,12.88-92.53Z"/><rect class="cls-1" x="648.19" y="1035.81" width="753.64" height="166.91" rx="67.23" ry="67.23"/></g></g></svg>