<svg id="Capa_2" data-name="Capa 2" xmlns="http://www.w3.org/2000/svg" viewBox="0 0 1500 1500"><defs><style>.cls-1{fill:#41ad49;}</style></defs><title>Iconos_Ubicaciones</title><path class="cls-1" d="M468.41,1050.42H110.93V596.86a26.68,26.68,0,1,0-53.36,0V1077.1a26.68,26.68,0,0,0,26.68,26.68h8V1423.9a26.68,26.68,0,0,0,53.36,0V1223.8H407v200.1a26.68,26.68,0,1,0,53.36,0V1103.78h8a26.68,26.68,0,0,0,0-53.36Zm-61.36,120H145.61v-66.67H407v66.67Z"/><path class="cls-1" d="M1393.77,570.18a26.69,26.69,0,0,0-26.68,26.68v453.56H1009.58a26.68,26.68,0,1,0,0,53.36h8V1423.9a26.68,26.68,0,0,0,53.36,0V1223.8h261.47v200.1a26.68,26.68,0,1,0,53.36,0V1103.78h8a26.68,26.68,0,0,0,26.68-26.68V596.86A26.68,26.68,0,0,0,1393.77,570.18Zm-61.36,600.27H1071v-66.67h261.46v66.67Z"/><path class="cls-1" d="M1138.7,796.08h-373V435a26.68,26.68,0,0,0-53.36,0v361h-373a26.68,26.68,0,1,0,0,53.35h26.17v65.88A26.67,26.67,0,0,0,392.16,942h693.68a26.68,26.68,0,0,0,26.68-26.68V849.43h26.18a26.68,26.68,0,1,0,0-53.35Zm-79.54,92.55H418.84v-39.2h640.32v39.2Z"/><path class="cls-1" d="M861.24,1397.23H765.69v-393a26.68,26.68,0,0,0-53.36,0v393H616.76a26.68,26.68,0,0,0,0,53.36H861.24a26.68,26.68,0,0,0,0-53.36Z"/><path class="cls-1" d="M1468.17,325.41C1270,164,1021.06,73.8,765.68,70.56V34.84a26.68,26.68,0,1,0-53.36,0V70.56C456.94,73.8,208,164,9.83,325.41a26.68,26.68,0,0,0,16.85,47.37H1451.32a26.69,26.69,0,0,0,16.85-47.37Zm-1361.94-6A1086,1086,0,0,1,540.62,140C484.44,182,431.8,242.37,385,319.41Zm342,0c84-126.57,184-195.64,284.88-195.64h11.84c100.85,0,200.87,69.07,284.88,195.64Zm644.76,0c-46.75-77-99.4-137.42-155.58-179.42a1085.94,1085.94,0,0,1,434.39,179.42Z"/></svg>