<svg id="Capa_1" data-name="Capa 1" xmlns="http://www.w3.org/2000/svg" viewBox="0 0 1500 1500"><defs><style>.cls-1{fill:none;stroke:#fdd900;stroke-linecap:round;stroke-linejoin:round;stroke-width:46px;}</style></defs><title>VentaDeCervezaVino</title><g id="cerveza"><path class="cls-1" d="M1058,528.23c-51.31,39.06-51.31,93.51-51.12,111.84.25,18.91,4.85,38,10,56.11,4.72,16.76,9.91,33.34,12.7,50.55,13.45,59.08-44.6,70-59.74,32.1C947.43,722.92,965,664,938.73,634.56c-11-12.34-27.52-25.41-62.36-21.1-92.84,11.41-96.34,58.16-102.32,95.41l-1.12,7c-1.46,8.78-2.33,18.76-3.33,30.33-6.17,70.86-16.84,109.83-55.49,113-18.9,1.67-28.22-4.87-34.17-10.65-15.42-15-40.23-60.72-33.2-199.19,2-39.62-37.35-148.08-110.11-157.76"/><line class="cls-1" x1="421.46" y1="1269.05" x2="421.18" y2="1158.27"/><line class="cls-1" x1="1145.66" y1="520.32" x2="1145.66" y2="1269.05"/><path class="cls-1" d="M1167.07,601.14h131.5a22.72,22.72,0,0,0,2.86-.12c13.19-1.06,59.09-1.68,98.11,31,35.14,29.46,54.26,76.35,56.82,139.37,3.29,80.33-.91,279.69-110.5,395.33-46.77,49.31-106.78,77.28-178.79,83.54"/><path class="cls-1" d="M1167.07,709.11h83.65a13.93,13.93,0,0,0,1.82-.08c8.38-.66,37.56-1,62.37,20.19,22.34,19.17,34.49,49.67,36.12,90.67,2.12,52.27-.58,182-70.26,257.17-29.73,32.09-67.87,50.27-113.65,54.35"/><rect class="cls-1" x="359.37" y="1289.09" width="848.38" height="147.1" rx="65.84" ry="65.84"/><path class="cls-1" d="M754.37,415.23a105.1,105.1,0,1,0-83.44-169A105.12,105.12,0,0,0,468,301.17q1.26,4.65,2.94,9.17c-2.11-.13-4.28-.2-6.44-.2a105,105,0,1,0,98.55,68.75"/><path class="cls-1" d="M1017.1,484.19c2.06,0,4.1-.06,6.14-.13a105.08,105.08,0,1,0,158.7-137.78,107.9,107.9,0,0,0-7.64-7.93c.28-3.89.44-7.83.44-11.8a157.64,157.64,0,0,0-315.28,0"/><path class="cls-1" d="M680.75,200.24a135.38,135.38,0,0,1,269.61-24.9"/></g><path class="cls-1" d="M158.84,1440.31l294-3.82m-117.38-9.29-2.88-221.9c182.89-49.44,215.05-292.15,213.21-468.84l0-2,0-3.11c-1.3-99.63-13.32-177.11-14.55-184.83a29.7,29.7,0,0,0-29.71-25l-415,5.38a29.72,29.72,0,0,0-29.05,25.79c-1,7.75-11,85.51-9.74,185.15l0,3.1,0,2C50.48,919.6,89,1161.41,273,1206.07l2.88,221.9"/><line class="cls-1" x1="47.55" y1="717.44" x2="532.36" y2="711.15"/></svg>