<svg id="Capa_42" data-name="Capa 42" xmlns="http://www.w3.org/2000/svg" viewBox="0 0 1500 1500"><defs><style>.cls-1{fill:none;stroke:#000;stroke-linecap:round;stroke-linejoin:round;stroke-width:22px;}</style></defs><title>01_Malteadas</title><path class="cls-1" d="M405.5,562.5s33,772,313,765,315-765,315-765Z"/><line class="cls-1" x1="656" y1="1328" x2="656" y2="1447"/><line class="cls-1" x1="783" y1="1342" x2="783" y2="1447"/><line class="cls-1" x1="499" y1="1447" x2="927" y2="1447"/><path class="cls-1" d="M831,403H471s-67-8-66,76,68.87,83.5,68.87,83.5"/><path class="cls-1" d="M1008.46,562.5S1076,418,955,403c0,0,28-120-48-122s-188,0-188,0H532s-42.5,3.45-57.42,55.59a134.87,134.87,0,0,0-4.69,27.86"/><path class="cls-1" d="M993,150S823,44,783,61c-72.47,30.8-65,219-65,219"/><line class="cls-1" x1="681.64" y1="1256.83" x2="681.44" y2="1255.85"/><path class="cls-1" d="M639,1224S536.86,1107.57,518,914"/></svg>