<svg id="Capa_8" data-name="Capa 8" xmlns="http://www.w3.org/2000/svg" viewBox="0 0 1500 1500"><defs><style>.cls-1{fill:none;stroke:#000;stroke-linecap:round;stroke-linejoin:round;stroke-width:22px;}</style></defs><title>04_PanaderiÌa_Bisquets</title><path class="cls-1" d="M344,1081s-175,107-230,85S0,1077,27,1021,133,858,189,815c0,0,126.5,323.5,256.5,292.5S579,1061,579,1061"/><path d="M755.54,467.5a436.88,436.88,0,0,1,97.16,11.12,471,471,0,0,1,76.62,24.62,429.55,429.55,0,0,1,57.43,29.06c-28.34,199.72-68.52,481.29-77.94,543.09-8.06.95-23.57,2-52.87,2-50.63,0-120-3-175.76-5.42-36.22-1.56-67.84-2.93-86.08-3.12-2-10-5.08-27.87-9.62-59.65-5.14-36.07-11.4-84.78-18.59-144.77C552.76,755,539.45,632.47,532.67,569.17c-1.62-15.23-2.94-27.62-3.85-36.25C600.9,489.5,677.1,467.5,755.54,467.5m0-22c-74.82,0-160.7,19-250,76,0,0,2,19,5.3,50,14.87,139,56.62,520,67.53,520a.51.51,0,0,0,.17,0c1.23-.47,5.32-.68,11.71-.68,41.35,0,179.28,8.56,265.73,8.56,41.68,0,71.38-2,72.56-7.88,4-20,82-570,82-570s-105.35-76-255-76Z"/><path class="cls-1" d="M188.5,814.5s-23-86,111-161,206-82,206-82"/><path class="cls-1" d="M1005.24,558.57S1158.5,591.5,1225.5,651.5s140,121,94,187c-35.38,50.76-105.66,176.06-153.52,232.57-14.36,17-26.71,27.74-35.48,28.43-38,3-93.11-2.13-197.06-40.07"/><path class="cls-1" d="M1339,828c107,100,125.5,163.5,138.5,209.5s-23,93-23,93-46,64-152,11S1197,1089,1197,1089"/><path class="cls-1" d="M579,572s148-84,328-13"/><line class="cls-1" x1="931" y1="594" x2="931" y2="593"/></svg>