<svg id="Capa_15" data-name="Capa 15" xmlns="http://www.w3.org/2000/svg" xmlns:xlink="http://www.w3.org/1999/xlink" viewBox="0 0 1500 1500"><defs><style>.cls-1,.cls-2,.cls-4{fill:none;stroke:#000;stroke-linecap:round;stroke-linejoin:round;stroke-width:22px;}.cls-1{clip-rule:evenodd;}.cls-3{clip-path:url(#clip-path);}.cls-4{fill-rule:evenodd;}</style><clipPath id="clip-path"><path class="cls-1" d="M887.88,406h401.3V755.33c-.67,56.3-37.91,102-82.6,103.82-42,1.78-80.1-35.58-87.46-87.65q-.67-86.44-1.35-172.94C1094.39,530.08,1038,487.83,980,493.86c-49.72,5.16-93.53,45-113.43,102.58l-9.93,363.41c-9.48,43.73-39.42,75.74-74.15,80.13-41.48,5.27-82.54-29.7-93.42-83.36q-.57-32-1.13-64-2.65-149.64-5.3-299.24C666.1,528.06,617.39,482.48,562.35,480.2c-59.29-2.43-113.67,45.9-130.16,117.06q-2.74,77.87-5.43,155.74c-7.14,49.9-43.6,86.48-85.37,85.77-42-.69-77.75-38.91-83.47-89.4q-.44-171.71-.87-343.37,60.56,1.28,121.16,2.51Z"/></clipPath></defs><title>Hot_Cakes</title><path class="cls-2" d="M858.46,892.67h524.38c51.25,0,93.16,41.93,93.16,93.15v57c0,51.25-41.91,93.18-93.16,93.18H109.21c-51.22,0-93.15-41.93-93.15-93.18v-57c0-51.22,41.93-93.15,93.15-93.15H687.92"/><polyline class="cls-2" points="1118.18 649.33 906.85 649.33 865.1 649.33"/><path class="cls-2" d="M227.21,649.33H112.94c-53.29,0-96.89-43.6-96.89-96.88V502.89c0-53.29,43.6-96.89,96.89-96.89H1379.11c53.29,0,96.89,43.6,96.89,96.89v49.56c0,53.28-43.6,96.88-96.89,96.88L1289,649"/><polyline class="cls-2" points="683.61 649.33 471.47 649.33 430.37 649.33"/><polyline class="cls-2" points="439 649 479.39 649.33 643.36 649.33 683.61 649.33"/><path class="cls-2" d="M687.92,892.64H109.21c-51.22,0-93.15-41.9-93.15-93.15v-57c0-51.25,41.93-93.16,93.15-93.16H257.67"/><path class="cls-2" d="M1289.18,649.33h93.66c51.25,0,93.16,41.91,93.16,93.16v57c0,51.25-41.91,93.15-93.16,93.15H858.46"/><polyline class="cls-2" points="865.1 649.33 906.85 649.33 1084.39 649.33 1118.18 649.33"/><g class="cls-3"><rect class="cls-2" x="-23448.88" y="-17178.55" width="38120.04" height="59271.36"/></g><path class="cls-4" d="M887.88,406h401.3V755.33c-.67,56.3-37.91,102-82.6,103.82-42,1.78-80.1-35.58-87.46-87.65q-.67-86.44-1.35-172.94C1094.39,530.08,1038,487.83,980,493.86c-49.72,5.16-93.53,45-113.43,102.58l-9.93,363.41c-9.48,43.73-39.42,75.74-74.15,80.13-41.48,5.27-82.54-29.7-93.42-83.36q-.57-32-1.13-64-2.65-149.64-5.3-299.24C666.1,528.06,617.39,482.48,562.35,480.2c-59.29-2.43-113.67,45.9-130.16,117.06q-2.74,77.87-5.43,155.74c-7.14,49.9-43.6,86.48-85.37,85.77-42-.69-77.75-38.91-83.47-89.4q-.44-171.71-.87-343.37,60.56,1.28,121.16,2.51Z"/></svg>