<svg id="FALTA" xmlns="http://www.w3.org/2000/svg" viewBox="0 0 1500 1500"><defs><style>.cls-1,.cls-2{fill:none;stroke-linecap:round;stroke-linejoin:round;stroke-width:22px;}.cls-1{stroke:#050000;}.cls-2{stroke:#000;}</style></defs><title>08_Omelettes</title><path class="cls-1" d="M1162.25,417.92A559.94,559.94,0,0,1,1279,493.57C1401,596.22,1478.5,750,1478.5,922c0,309-250.52,559.55-559.55,559.55S359.39,1231,359.39,922,609.91,362.39,919,362.39a562.09,562.09,0,0,1,119.86,12.87q22.43,4.89,44.15,11.55c17.32,5.31,23,8.37,39.51,15.26"/><path class="cls-1" d="M1370.81,948.74c0,248.42-201.38,449.81-449.8,449.81S471.2,1197.16,471.2,948.74"/><circle class="cls-1" cx="167.21" cy="163" r="48.43"/><path class="cls-1" d="M93,266,356.82,535s101,64.92,169-13.4c46.48-53.52,44.31-115.41,18.55-147.35"/><path class="cls-1" d="M523.76,347.45,235.22,54.8s-71.6-51.29-149.42,0C18.07,99.43,20.88,163,50.27,211.43"/><path class="cls-2" d="M1175,927.62c-11.77,55.46,39.11,57.3,47.27,67.79,9.28,11.94,27.85,69.41-43.77,115.39s-105.66,64.1-125.12,88.42-83.11,85.32-155.62,22.1-115.39-76.92-160-85.32S633.41,1120.08,625,1057.3c-8.8-65.77,12.82-107,8.84-131.74,0,0-35.81-188.34,37.13-243.16s126.45-78.69,162.7-76.48,115.41,35.55,125.11,36.25c36.7,2.65,61-19.45,81.35-13.26s49.52,35.37,59.24,57,61.18,61.65,80,79.58c18.13,17.24,32.68,42.75,14.17,97.17"/><path class="cls-2" d="M854,1029a113.19,113.19,0,0,1,28.29-222.79c62.51,0,112.92,50.67,113.18,113.18.23,56.68-23.47,118.51-106.94,114.38"/><path class="cls-2" d="M888.37,846.18S953,844.68,964,927.84"/><line class="cls-2" x1="1182.06" y1="895.94" x2="1182.06" y2="895.49"/><line class="cls-2" x1="855.05" y1="850.55" x2="854.02" y2="850.11"/><line class="cls-2" x1="70.85" y1="239.48" x2="69.82" y2="239.03"/><line class="cls-2" x1="1371.32" y1="911.35" x2="1370.29" y2="910.91"/></svg>