<svg id="Capa_26" data-name="Capa 26" xmlns="http://www.w3.org/2000/svg" viewBox="0 0 1500 1500"><defs><style>.cls-1{fill:none;stroke:#000;stroke-linecap:round;stroke-linejoin:round;stroke-width:22px;}</style></defs><title>Enchiladas</title><path class="cls-1" d="M658,266c170.38,92.2,784.25,405.19,784.25,405.19s-194.75,36.26-187,86.47-6.48,103.88-74.29,141.48S1014,988,1014,988s-166,132-177,175c-8.54,33.37,15,48,15,48S186.83,907.58,44,814"/><path class="cls-1" d="M44,781c17.93-67.3,74.12-209.82,110.25-190.79,47.88,25.22,78.4,19,90.35,3S392,376.24,413.07,397.73s70.29,79.31,117.74-1.52c34-57.95,49.18-120.83,90.69-130.63"/><line class="cls-1" x1="235" y1="602" x2="1008" y2="982"/><line class="cls-1" x1="541" y1="471" x2="1251" y2="832"/><path class="cls-1" d="M1355.68,832c-4.17-29.62-8-71.57,22.71-77.48,41.75-8,90.89-8.81,63.86-83.33"/><path class="cls-1" d="M1113,1015c32.14,7.46,90.43,20.37,95.93.07,9.48-35,22.8-113.31,42-121.24,13.51-5.59,49.9-11.76,77.09-21.83"/><path class="cls-1" d="M847.91,1209.69s114.43,34.31,103.66,0-.91-71.86,27.53-64.93,61.91-2.25,70.91-32.89c6.61-22.52,9-57.1,18.59-79.09,3.45-7.93,7.83-14.22,13.68-17.71"/><path class="cls-1" d="M1051,516c-11,11-19,38-43,60-38.21,35-67.12,73.37-120.8,95.19s-194.53,104-203.92,142.23-79.61,64.15-96.63,75.34-79.35,96.67-77.28,156.47l-133.91-59s6.68-98,37.61-117c15.16-9.28,62.74-51,110.51-93.22"/><path class="cls-1" d="M577,725c27-18.26,224-145.38,285.93-202.22s78.33-97.73,88.64-96.46c8.41,1,49.3,23.57,79.86,38.08"/><line class="cls-1" x1="513" y1="454" x2="513" y2="453"/><line class="cls-1" x1="1354" y1="862" x2="1354" y2="861"/><line class="cls-1" x1="635" y1="305" x2="874" y2="426"/><line class="cls-1" x1="769" y1="812" x2="1008" y2="933"/></svg>