<svg id="Capa_37" data-name="Capa 37" xmlns="http://www.w3.org/2000/svg" viewBox="0 0 1500 1500"><defs><style>.cls-1{fill:none;stroke:#000;stroke-linecap:round;stroke-linejoin:round;stroke-width:22px;}</style></defs><title>Almuerzos</title><path class="cls-1" d="M500.34,545.1a143.58,143.58,0,1,1-67.77-69.74"/><path class="cls-1" d="M150,321.2s61.71-39.46,109.26-22.26,60.69,26.3,94.08,22.26,95.09-41.48,135.56-37.43,85,13.15,118.35,65.75,13.94,109.87,18.21,133.53c7.59,42,48.56,75.88,64.75,99.14s28.83,85.49,9.1,130.5c-24.88,56.8-48.56,76.89-99.14,87s-64.74,18.21-79.91,43.5S471.66,961.55,397.81,965.6s-126.45-59.69-126.45-59.69-44.51-71.82-65.76-74.86S72.07,822,39.7,748.1,27.56,628.73,46.78,603.44,106.46,537.68,98.37,477,96.35,366.72,150,321.2Z"/><path class="cls-1" d="M678.53,182.1l78.91-72L830.78,43s57.66,47.55,78.91,54.63,87,39.45,101.16,86,46.54,115.32,112.29,157.81S1240.49,403.14,1273.87,475s66.77,128.48,121.4,158.83,78.9,48.55,78.9,48.55l-73.89,75.37-78.86,80.42s-78.91-59.68-109.26-79.91-73.85-65.76-98.12-118.36-68.79-90-132.53-137.58S890.47,399.09,852,341.43c-29.11-43.66-114.48-111.69-154.22-142.14"/><path class="cls-1" d="M1360.37,738.49s-37.94-14.67-75.37-52.1-47.55-75.87-99.14-145.67-97.11-84-141.63-124.43S958.25,306,919.81,254.43,748.9,117.88,748.9,117.88"/><path class="cls-1" d="M441.31,1479.5l-13-14.35-53.54-59.07-80.15-88.44s30.35-9.1,52.61-51.59,43.5-95.09,113.3-126.45,120.38-41.48,147.7-104.2,58.67-116.34,105.2-139.6,117.35-28.33,152.76-93.07,82.95-125.44,82.95-125.44l145.68,153.76s-27.32,26.3-47.55,66.77-54.63,100.15-89,116.33-124.43,34.4-155.79,94.09S750.86,1233.68,691.18,1260,559.67,1300.44,532.35,1352c-19.56,37-50.18,87.44-67.27,110.77"/><path class="cls-1" d="M374.54,1405.65c29.34-18.21,66.77-93.07,66.77-93.07s25.29-56.65,71.82-77.89S647.68,1188.15,677,1127.46s36.41-117.35,111.27-150.73S904.07,943.94,940,881.63s42-69.29,42-69.29"/><line class="cls-1" x1="1001.24" y1="781.99" x2="1001.24" y2="780.98"/><line class="cls-1" x1="470.14" y1="505.82" x2="470.14" y2="504.8"/></svg>