<svg id="Capa_21" data-name="Capa 21" xmlns="http://www.w3.org/2000/svg" viewBox="0 0 1500 1500"><defs><style>.cls-1{fill:none;stroke:#000;stroke-linecap:round;stroke-linejoin:round;stroke-width:22px;}</style></defs><title>16_Milanesas</title><path class="cls-1" d="M93,735S-18,486,249,297s690-85,690-85,296.5,51.5,449.5,336.5-42,484-42,484-99,122-333,41-390-174-435-180S140.5,899.5,93,735Z"/><path class="cls-1" d="M78.34,774.11c2,20.86,4.34,42.17,7.3,62.84,8.85,62,22.71,118.24,44.36,139,103,99,381,49,453,73s355.5,188.5,421.5,208.5,195,46,282,0S1390,1163,1434,866"/><path class="cls-1" d="M525,401c80,14,104.5,65.11,104.5,115,0,64.89-62.46,117.5-139.5,117.5S350.5,580.89,350.5,516c0-46.49,25.5-103,96.5-113"/><line class="cls-1" x1="490" y1="400" x2="490" y2="399"/><path class="cls-1" d="M792,292s439,80,551,441"/><line class="cls-1" x1="1350" y1="785" x2="1350" y2="784"/></svg>