<svg id="Capa_28" data-name="Capa 28" xmlns="http://www.w3.org/2000/svg" viewBox="0 0 1500 1500"><defs><style>.cls-1{fill:none;stroke:#000;stroke-linecap:round;stroke-linejoin:round;stroke-width:22px;}</style></defs><title>Tradicionales_Mexicanos</title><path class="cls-1" d="M335,263c-21-24-27-69,13.42-86.15,7.4-3.14,14.81-8.22,25.08-10.35l24.39-5.08C476.23,145.05,587.5,121.5,587.5,121.5l364-80s80-3,56,61-183,489-183,489-40,83-125,20C627.49,558.13,420.32,350,357,290"/><path class="cls-1" d="M594,519s84.5-21.5,121.5-78.5S720,315,856,337"/><path class="cls-1" d="M1404,751l-1190.23-.5H171.5s-.77,18.22,1.19,48.28c8.26,126.91,65.12,464.8,433.81,532.72"/><path class="cls-1" d="M931,1332c381.53-59.66,473-398,473-546"/><path class="cls-1" d="M919,1225c-.28,56.18-1.26,195.63-8.5,208.5-9,16-18,39-122,38s-150,11-151-121-18-159,142-160c0,0,98.5-.5,138.5,2.5"/><polyline class="cls-1" points="310.09 1386.5 385.5 1386.5 463.63 1285.73"/><line class="cls-1" x1="280.24" y1="1128.51" x2="280" y2="1356"/><polyline class="cls-1" points="1125.71 1274.99 1194.5 1386.5 1286.5 1386.5 1286.5 1140.65"/><line class="cls-1" x1="279" y1="1386" x2="279" y2="1385"/><line class="cls-1" x1="888" y1="344" x2="888" y2="343"/><path class="cls-1" d="M981,1264s193-74,306-245"/></svg>