<svg id="Capa_35" data-name="Capa 35" xmlns="http://www.w3.org/2000/svg" viewBox="0 0 1500 1500"><defs><style>.cls-1{fill:none;stroke:#000;stroke-linecap:round;stroke-linejoin:round;stroke-width:22px;}</style></defs><title>Kids</title><path class="cls-1" d="M1166,1427l121.79-846.79s-244.92,71.66-537.88,71.66S212,580.21,212,580.21l121,873,826-.22"/><path class="cls-1" d="M836,642l83.38-536.59A28.17,28.17,0,0,1,950.76,80.9l119.35,14.66a23.52,23.52,0,0,1,20.48,26.21L1028.81,625"/><path class="cls-1" d="M1030.17,627.88l128.75-449a22.89,22.89,0,0,1,28.3-15.69l116.92,33.53a27.41,27.41,0,0,1,18.79,33.9L1230,556"/><path class="cls-1" d="M329,164c-5.13-1.6-16.23-.87-21.78.73L196.7,196.42a28.48,28.48,0,0,0-19.52,35.22l104,362.74"/><line class="cls-1" x1="471" y1="626" x2="343" y2="186"/><path class="cls-1" d="M646.87,646.48,579.94,101.39a24.09,24.09,0,0,0-26.85-21L432.2,95.25a26,26,0,0,0-22.66,29l61.63,502"/><path class="cls-1" d="M670.64,35.12a24.47,24.47,0,0,1,17.82-7.67H806.05a29.82,29.82,0,0,1,29.82,29.82V642.41"/><line class="cls-1" x1="663.95" y1="630.65" x2="663.95" y2="69.15"/><path class="cls-1" d="M633.85,857.34a60.05,60.05,0,1,1-39.39-24.76,59,59,0,0,1,10.64,2.77"/><circle class="cls-1" cx="915.24" cy="891.89" r="60.11"/><path class="cls-1" d="M479.48,1138.09S694,1394,995,1160"/><line class="cls-1" x1="1043" y1="1117" x2="1043" y2="1116"/><line class="cls-1" x1="1113" y1="1394" x2="1210" y2="670"/><line class="cls-1" x1="1043" y1="132" x2="975" y2="594"/><line class="cls-1" x1="528" y1="132" x2="598" y2="594"/></svg>