<?xml version="1.0" encoding="UTF-8"?>
<svg width="108px" height="142px" viewBox="0 0 108 142" version="1.1" xmlns="http://www.w3.org/2000/svg" xmlns:xlink="http://www.w3.org/1999/xlink">
    <!-- Generator: Sketch 51.3 (57544) - http://www.bohemiancoding.com/sketch -->
    <title>Shape Copy 2</title>
    <desc>Created with Sketch.</desc>
    <defs></defs>
    <g id="Page-1" stroke="none" stroke-width="1" fill="none" fill-rule="evenodd">
        <g id="Noches-de-antojo_popup" transform="translate(0.000000, -445.000000)" fill="#E7E8E9" fill-rule="nonzero">
            <path d="M71.1786221,464.373394 C72.7418758,460.859377 72.0350544,456.748947 69.387951,453.959973 C66.7408476,451.171 62.6751635,450.253144 59.0878913,451.634666 C55.5006192,453.016188 53.0987522,456.424811 53.0029687,460.270119 C52.9071853,464.115427 55.1363627,467.639571 58.6503973,469.198234 C63.4421818,471.29339 69.0266778,469.142702 71.1786221,464.373394 M93.0528705,487.217091 C96.1743633,484.966968 97.6312512,481.055289 96.74271,477.310037 C95.8541688,473.564784 92.7956545,470.725515 88.9964536,470.11906 C85.1972527,469.512604 81.4075753,471.258716 79.3983905,474.541413 C77.3892056,477.824109 77.5572576,481.995173 79.8240133,485.105406 C82.9111919,489.315867 88.8095183,490.2574 93.0528705,487.217091 M99.4570326,518.949859 C103.282758,518.562448 106.497589,515.907061 107.600453,512.223553 C108.703318,508.540045 107.476666,504.555022 104.493248,502.129173 C101.509829,499.703325 97.3581502,499.315172 93.9767155,501.14595 C90.5952809,502.976729 88.6511094,506.665303 89.051975,510.489399 C89.3093401,512.991216 90.5502966,515.288262 92.5017303,516.874993 C94.4531639,518.461724 96.9551465,519.208101 99.4570326,518.949859 M90.648826,550.177384 C95.434747,552.308525 101.04103,550.156203 103.174689,545.368548 C105.308348,540.580892 103.162434,534.968592 98.3801716,532.829241 C93.5979093,530.689889 87.9879462,532.832588 85.8460871,537.616575 C84.8010716,539.91741 84.7208692,542.54135 85.6234095,544.901802 C86.5259498,547.262254 88.3359673,549.162375 90.648826,550.177384 M65.8477231,572.115569 C68.9429853,576.341046 74.8729596,577.261554 79.1023064,574.173073 C83.3316532,571.084592 84.2635658,565.153192 81.1853024,560.915302 C78.1070391,556.677412 72.1808104,555.733064 67.9390912,558.804512 C65.8849985,560.282696 64.5078146,562.52212 64.1148872,565.023009 C63.7219599,567.523897 64.3459939,570.078092 65.8477231,572.115569 M34.0546429,578.520792 C34.6180499,583.732973 39.2977181,587.503349 44.5107783,586.945227 C49.7238385,586.387104 53.4991534,581.711518 52.9462489,576.498213 C52.3933444,571.284908 47.721282,567.505112 42.507108,568.052732 C39.9957885,568.321025 37.6940646,569.576354 36.1087409,571.542313 C34.5234172,573.508273 33.7844839,576.023663 34.0546429,578.534633 M2.82077666,569.628987 C1.25804078,573.143042 1.96555934,577.253127 4.61320346,580.04147 C7.26084758,582.829814 11.3267892,583.746859 14.9138559,582.36471 C18.5009226,580.982561 20.9021342,577.573629 20.9970829,573.728525 C21.0920316,569.88342 18.8620038,566.359981 15.3475328,564.802247 C10.5555892,562.705804 4.96998972,564.858016 2.82077666,569.628987 M-19.0498557,544.77913 C-22.1727006,547.028582 -23.6310403,550.940855 -22.7431978,554.687222 C-21.8553554,558.433589 -18.7967045,561.274038 -14.996961,561.880848 C-11.1972176,562.487657 -7.40693691,560.740966 -5.39782316,557.457236 C-3.38870941,554.173506 -3.55761861,550.001365 -5.82559694,546.891012 C-8.91388518,542.685327 -14.8067283,541.744254 -19.0498557,544.77913 M-25.4520018,513.050329 C-29.2783913,513.435736 -32.4948984,516.089892 -33.5993652,519.773265 C-34.703832,523.456639 -33.4783377,527.442468 -30.4952068,529.869311 C-27.512076,532.296154 -23.359906,532.685173 -19.9778234,530.854691 C-16.5957408,529.024208 -14.6510597,525.335394 -15.0519757,521.510981 C-15.5877317,516.30328 -20.2436796,512.515564 -25.4520018,513.050329 M-14.641799,481.825256 C-19.4284766,479.690036 -25.0387071,481.841026 -27.1740514,486.630184 C-29.3093956,491.419343 -27.161626,497.033973 -22.3763179,499.172265 C-17.5910099,501.310558 -11.9794018,499.163168 -9.84098836,494.375381 C-8.8004347,492.075833 -8.72236548,489.455319 -9.62417862,487.097828 C-10.5259918,484.740337 -12.332745,482.841781 -14.641799,481.825256 M8.15396186,459.884431 C5.05839553,455.658954 -0.872161249,454.738446 -5.10192353,457.826927 C-9.33168582,460.915408 -10.2636899,466.846808 -7.18512418,471.084698 C-4.10655842,475.322588 1.82025237,476.266936 6.06238826,473.195488 C8.11564326,471.716517 9.4921395,469.477197 9.88504572,466.976689 C10.2779519,464.47618 9.65460798,461.922337 8.15396186,459.884431 M68.8417696,501.58741 C71.7062092,499.016725 72.738693,494.97063 71.4567133,491.339975 C70.1747336,487.70932 66.8314457,485.211058 62.9892584,485.012694 C59.1470712,484.81433 55.5647096,486.955037 53.9163083,490.434403 C52.2679069,493.913769 52.8789791,498.044717 55.4639542,500.896743 C58.9832521,504.746494 64.9383026,505.056096 68.8371692,501.592014 M68.9900052,531.878368 C72.7838605,532.49061 76.5726844,530.75565 78.5884909,527.483075 C80.6042974,524.2105 80.4497555,520.045359 78.1969795,516.931242 C75.9442035,513.817124 72.0372326,512.367845 68.2991843,513.259684 C64.5611359,514.151524 61.7288079,517.208694 61.123855,521.00462 C60.7176922,523.491004 61.3195463,526.036747 62.7960707,528.077816 C64.2725951,530.118885 66.5018798,531.486757 68.9900052,531.878368 M45.2979251,550.281756 C47.934661,554.808517 53.7377629,556.344957 58.2680667,553.715756 C62.7983705,551.086555 64.3449768,545.284647 61.7247875,540.748283 C59.1045981,536.21192 53.3071451,534.654288 48.7672713,537.266921 C46.5727289,538.524137 44.9715443,540.606551 44.3199752,543.050834 C43.6684061,545.495118 44.0205029,548.098506 45.2979251,550.281756 M15.6290703,544.093051 C14.2541556,547.684188 15.1770184,551.750496 17.9671656,554.395141 C20.7573128,557.039785 24.8650135,557.741703 28.3741251,556.173466 C31.8832367,554.605229 34.1023737,551.075822 33.9963626,547.231626 C33.8903515,543.38743 31.4800793,539.985852 27.8898794,538.613644 C22.992972,536.771643 17.5264654,539.214648 15.6290703,544.093051 M2.58587474,519.460453 C-1.07297762,520.639503 -3.66052124,523.907192 -3.96918294,527.738531 C-4.27784464,531.569871 -2.24677594,535.209564 1.17614967,536.959013 C4.59907528,538.708462 8.73907404,538.222786 11.664062,535.728645 C14.58905,533.234504 15.7224053,529.223583 14.5352054,525.567727 C12.91742,520.585929 7.57175661,517.853773 2.58587474,519.460453 M14.6516645,490.527839 C10.2557286,487.677487 4.38377044,488.930485 1.5315898,493.327489 C-1.32059085,497.724492 -0.0745129425,503.602885 4.31577775,506.461941 C8.70606845,509.320996 14.580493,508.079633 17.4413631,503.688288 C18.8312437,501.57751 19.3185119,498.997478 18.7943137,496.524564 C18.2701154,494.051651 16.7781308,491.891916 14.6516645,490.527839 M46.9453003,515.465049 C46.3741897,510.255167 41.6908234,506.492169 36.4794224,507.055912 C31.2680215,507.619655 27.4979529,512.297101 28.0544832,517.508561 C28.6110135,522.72002 33.2838322,526.496104 38.4967901,525.946942 C41.0074701,525.677515 43.3082111,524.421704 44.8926884,522.455875 C46.4771658,520.490047 47.215534,517.975298 46.9453003,515.465049 M43.9458427,483.470089 C43.3774998,478.259772 38.6959393,474.494242 33.4841309,475.055397 C28.2723225,475.616553 24.4998882,480.292324 25.0540103,485.504172 C25.6081324,490.716021 30.2793996,494.494309 35.49272,493.947374 C38.0033456,493.679045 40.3044923,492.424373 41.8898097,490.45944 C43.475127,488.494506 44.2147185,485.980313 43.9458427,483.470089 M39.9450311,453.469608 C39.3763885,448.258791 34.6939732,444.493371 29.4819532,445.055598 C24.2699333,445.617826 20.4984308,450.295182 21.0543532,455.507371 C21.6102755,460.719559 26.2834863,464.496395 31.496863,463.946889 C36.7229562,463.385767 40.5050191,458.695314 39.9450311,453.469608" id="Shape-Copy-2"></path>
        </g>
    </g>
</svg>