<?xml version="1.0" encoding="UTF-8"?>
<svg width="112px" height="112px" viewBox="0 0 112 112" version="1.1" xmlns="http://www.w3.org/2000/svg" xmlns:xlink="http://www.w3.org/1999/xlink">
    <!-- Generator: Sketch 51.3 (57544) - http://www.bohemiancoding.com/sketch -->
    <title>Group</title>
    <desc>Created with Sketch.</desc>
    <defs>
        <circle id="path-1" cx="56" cy="56" r="56"></circle>
    </defs>
    <g id="Page-1" stroke="none" stroke-width="1" fill="none" fill-rule="evenodd">
        <g id="Noches-de-antojo_popup" transform="translate(-504.000000, -462.000000)">
            <g id="Group" transform="translate(504.000000, 462.000000)">
                <mask id="mask-2" fill="white">
                    <use xlink:href="#path-1"></use>
                </mask>
                <g id="Mask"></g>
                <g mask="url(#mask-2)" fill-rule="nonzero" id="Shape">
                    <g transform="translate(-11.000000, -9.000000)">
                        <polygon fill="#901A1D" points="106.367112 46.8574636 94.5514973 38.8165889 94.5514973 35.1496793 106.367112 43.1980758"></polygon>
                        <polygon fill="#901A1D" points="106.367112 46.8574636 118.186524 38.8165889 118.186524 35.1496793 106.367112 43.1980758"></polygon>
                        <polygon fill="#901A1D" points="82.7320856 58.5652478 70.9126738 50.5243732 70.9126738 46.8574636 82.7320856 54.9058601"></polygon>
                        <polygon fill="#901A1D" points="82.7320856 58.5652478 94.5514973 50.5243732 94.5514973 46.8574636 82.7320856 54.9058601"></polygon>
                        <polygon fill="#901A1D" points="130.005936 35.1496793 118.186524 27.1088047 118.186524 23.441895 130.005936 31.4902915"></polygon>
                        <polygon fill="#901A1D" points="59.093262 11.7341108 47.2738503 3.69323615 47.2738503 0.0300874636 59.093262 8.07848397"></polygon>
                        <polygon fill="#901A1D" points="59.093262 11.7341108 70.9126738 3.69323615 70.9126738 0.0300874636 59.093262 8.07848397"></polygon>
                        <polygon fill="#901A1D" points="35.4544385 23.441895 23.6388235 15.4010204 23.6388235 11.7378717 35.4544385 19.7862682"></polygon>
                        <polygon fill="#901A1D" points="35.4544385 23.441895 47.2738503 15.4010204 47.2738503 11.7378717 35.4544385 19.7862682"></polygon>
                        <polygon fill="#901A1D" points="106.367112 105.392624 94.5514973 97.3517493 94.5514973 93.6848397 106.367112 101.733236"></polygon>
                        <polygon fill="#901A1D" points="106.367112 105.392624 118.186524 97.3517493 118.186524 93.6848397 106.367112 101.733236"></polygon>
                        <polygon fill="#901A1D" points="82.7320856 117.100408 70.9126738 109.059534 70.9126738 105.392624 82.7320856 113.44102"></polygon>
                        <polygon fill="#901A1D" points="82.7320856 117.100408 94.5514973 109.059534 94.5514973 105.392624 82.7320856 113.44102"></polygon>
                        <polygon fill="#901A1D" points="59.093262 128.808192 47.2738503 120.767318 47.2738503 117.100408 59.093262 125.148805"></polygon>
                        <polygon fill="#901A1D" points="59.093262 128.808192 70.9126738 120.767318 70.9126738 117.100408 59.093262 125.148805"></polygon>
                        <polygon fill="#901A1D" points="130.005936 93.6848397 118.186524 85.643965 118.186524 81.9808163 130.005936 90.0292128"></polygon>
                        <polygon fill="#901A1D" points="82.7320856 58.5652478 70.9126738 50.5243732 70.9126738 46.8574636 82.7320856 54.9058601"></polygon>
                        <polygon fill="#901A1D" points="82.7320856 58.5652478 94.5514973 50.5243732 94.5514973 46.8574636 82.7320856 54.9058601"></polygon>
                        <polygon fill="#901A1D" points="59.093262 70.2730321 47.2738503 62.2321574 47.2738503 58.5652478 59.093262 66.6136443"></polygon>
                        <polygon fill="#901A1D" points="59.093262 70.2730321 70.9126738 62.2321574 70.9126738 58.5652478 59.093262 66.6136443"></polygon>
                        <polygon fill="#901A1D" points="35.4544385 81.9770554 23.6388235 73.9399417 23.6388235 70.2730321 35.4544385 78.3214286"></polygon>
                        <polygon fill="#901A1D" points="35.4544385 81.9770554 47.2738503 73.9399417 47.2738503 70.2730321 35.4544385 78.3214286"></polygon>
                        <polygon fill="#901A1D" points="11.8194118 35.1496793 0 27.1088047 0 23.441895 11.8194118 31.4902915"></polygon>
                        <polygon fill="#901A1D" points="11.8194118 35.1496793 23.6388235 27.1088047 23.6388235 23.441895 11.8194118 31.4902915"></polygon>
                        <polygon fill="#901A1D" points="11.8194118 93.6848397 0 85.643965 0 81.9808163 11.8194118 90.0292128"></polygon>
                        <polygon fill="#901A1D" points="11.8194118 93.6848397 23.6388235 85.643965 23.6388235 81.9808163 11.8194118 90.0292128"></polygon>
                        <polygon fill="#ED1C2C" points="35.4544385 35.1496793 23.6388235 27.1088047 23.6388235 23.441895 35.4544385 31.4902915"></polygon>
                        <polygon fill="#ED1C2C" points="35.4544385 35.1496793 47.2738503 27.1088047 47.2738503 23.441895 35.4544385 31.4902915"></polygon>
                        <polygon fill="#ED1C2C" points="106.367112 58.5652478 94.5514973 50.5243732 94.5514973 46.8574636 106.367112 54.9058601"></polygon>
                        <polygon fill="#ED1C2C" points="106.367112 58.5652478 118.186524 50.5243732 118.186524 46.8574636 106.367112 54.9058601"></polygon>
                        <polygon fill="#ED1C2C" points="130.005936 46.8574636 118.186524 38.8165889 118.186524 35.1496793 130.005936 43.1980758"></polygon>
                        <polygon fill="#ED1C2C" points="82.7320856 11.7341108 70.9126738 3.69323615 70.9126738 0.0300874636 82.7320856 8.07848397"></polygon>
                        <polygon fill="#ED1C2C" points="82.7320856 11.7341108 94.5514973 3.69323615 94.5514973 0.0300874636 82.7320856 8.07848397"></polygon>
                        <polygon fill="#ED1C2C" points="59.093262 23.441895 47.2738503 15.4010204 47.2738503 11.7378717 59.093262 19.7862682"></polygon>
                        <polygon fill="#ED1C2C" points="59.093262 23.441895 70.9126738 15.4010204 70.9126738 11.7378717 59.093262 19.7862682"></polygon>
                        <polygon fill="#ED1C2C" points="35.4544385 93.6848397 23.6388235 85.643965 23.6388235 81.9808163 35.4544385 90.0292128"></polygon>
                        <polygon fill="#ED1C2C" points="35.4544385 93.6848397 47.2738503 85.643965 47.2738503 81.9808163 35.4544385 90.0292128"></polygon>
                        <polygon fill="#ED1C2C" points="106.367112 117.100408 94.5514973 109.059534 94.5514973 105.392624 106.367112 113.44102"></polygon>
                        <polygon fill="#ED1C2C" points="106.367112 117.100408 118.186524 109.059534 118.186524 105.392624 106.367112 113.44102"></polygon>
                        <polygon fill="#ED1C2C" points="82.7320856 128.808192 70.9126738 120.767318 70.9126738 117.100408 82.7320856 125.148805"></polygon>
                        <polygon fill="#ED1C2C" points="82.7320856 128.808192 94.5514973 120.767318 94.5514973 117.100408 82.7320856 125.148805"></polygon>
                        <polygon fill="#ED1C2C" points="130.005936 105.392624 118.186524 97.3517493 118.186524 93.6848397 130.005936 101.733236"></polygon>
                        <polygon fill="#ED1C2C" points="106.367112 58.5652478 94.5514973 50.5243732 94.5514973 46.8574636 106.367112 54.9058601"></polygon>
                        <polygon fill="#ED1C2C" points="106.367112 58.5652478 118.186524 50.5243732 118.186524 46.8574636 106.367112 54.9058601"></polygon>
                        <polygon fill="#ED1C2C" points="82.7320856 70.2730321 70.9126738 62.2321574 70.9126738 58.5652478 82.7320856 66.6136443"></polygon>
                        <polygon fill="#ED1C2C" points="82.7320856 70.2730321 94.5514973 62.2321574 94.5514973 58.5652478 82.7320856 66.6136443"></polygon>
                        <polygon fill="#ED1C2C" points="59.093262 81.9770554 47.2738503 73.9399417 47.2738503 70.2730321 59.093262 78.3214286"></polygon>
                        <polygon fill="#ED1C2C" points="59.093262 81.9770554 70.9126738 73.9399417 70.9126738 70.2730321 59.093262 78.3214286"></polygon>
                        <polygon fill="#ED1C2C" points="11.8194118 46.8574636 0 38.8165889 0 35.1496793 11.8194118 43.1980758"></polygon>
                        <polygon fill="#ED1C2C" points="11.8194118 46.8574636 23.6388235 38.8165889 23.6388235 35.1496793 11.8194118 43.1980758"></polygon>
                        <polygon fill="#ED1C2C" points="11.8194118 105.392624 0 97.3517493 0 93.6848397 11.8194118 101.733236"></polygon>
                        <polygon fill="#ED1C2C" points="11.8194118 105.392624 23.6388235 97.3517493 23.6388235 93.6848397 11.8194118 101.733236"></polygon>
                        <polygon fill="#D68A66" points="59.093262 35.1496793 47.2738503 27.1088047 47.2738503 23.441895 59.093262 31.4902915"></polygon>
                        <polygon fill="#D68A66" points="59.093262 35.1496793 70.9126738 27.1088047 70.9126738 23.441895 59.093262 31.4902915"></polygon>
                        <polygon fill="#D68A66" points="35.4544385 46.8574636 23.6388235 38.8165889 23.6388235 35.1496793 35.4544385 43.1980758"></polygon>
                        <polygon fill="#D68A66" points="35.4544385 46.8574636 47.2738503 38.8165889 47.2738503 35.1496793 35.4544385 43.1980758"></polygon>
                        <polygon fill="#D68A66" points="130.005936 58.5652478 118.186524 50.5243732 118.186524 46.8574636 130.005936 54.9058601"></polygon>
                        <polygon fill="#D68A66" points="106.367112 11.7341108 94.5514973 3.69323615 94.5514973 0.0300874636 106.367112 8.07848397"></polygon>
                        <polygon fill="#D68A66" points="106.367112 11.7341108 118.186524 3.69323615 118.186524 0.0300874636 106.367112 8.07848397"></polygon>
                        <polygon fill="#D68A66" points="82.7320856 23.441895 70.9126738 15.4010204 70.9126738 11.7378717 82.7320856 19.7862682"></polygon>
                        <polygon fill="#D68A66" points="82.7320856 23.441895 94.5514973 15.4010204 94.5514973 11.7378717 82.7320856 19.7862682"></polygon>
                        <polygon fill="#D68A66" points="59.093262 93.6848397 47.2738503 85.643965 47.2738503 81.9808163 59.093262 90.0292128"></polygon>
                        <polygon fill="#D68A66" points="59.093262 93.6848397 70.9126738 85.643965 70.9126738 81.9808163 59.093262 90.0292128"></polygon>
                        <polygon fill="#D68A66" points="35.4544385 105.392624 23.6388235 97.3517493 23.6388235 93.6848397 35.4544385 101.733236"></polygon>
                        <polygon fill="#D68A66" points="35.4544385 105.392624 47.2738503 97.3517493 47.2738503 93.6848397 35.4544385 101.733236"></polygon>
                        <polygon fill="#D68A66" points="106.367112 128.808192 94.5514973 120.767318 94.5514973 117.100408 106.367112 125.148805"></polygon>
                        <polygon fill="#D68A66" points="106.367112 128.808192 118.186524 120.767318 118.186524 117.100408 106.367112 125.148805"></polygon>
                        <polygon fill="#D68A66" points="130.005936 117.100408 118.186524 109.059534 118.186524 105.392624 130.005936 113.44102"></polygon>
                        <polygon fill="#D68A66" points="106.367112 70.2730321 94.5514973 62.2321574 94.5514973 58.5652478 106.367112 66.6136443"></polygon>
                        <polygon fill="#D68A66" points="106.367112 70.2730321 118.186524 62.2321574 118.186524 58.5652478 106.367112 66.6136443"></polygon>
                        <polygon fill="#D68A66" points="82.7320856 81.9770554 70.9126738 73.9399417 70.9126738 70.2730321 82.7320856 78.3214286"></polygon>
                        <polygon fill="#D68A66" points="82.7320856 81.9770554 94.5514973 73.9399417 94.5514973 70.2730321 82.7320856 78.3214286"></polygon>
                        <polygon fill="#D68A66" points="130.005936 58.5652478 118.186524 50.5243732 118.186524 46.8574636 130.005936 54.9058601"></polygon>
                        <polygon fill="#D68A66" points="11.8194118 58.5652478 0 50.5243732 0 46.8574636 11.8194118 54.9058601"></polygon>
                        <polygon fill="#D68A66" points="11.8194118 58.5652478 23.6388235 50.5243732 23.6388235 46.8574636 11.8194118 54.9058601"></polygon>
                        <polygon fill="#D68A66" points="11.8194118 117.100408 0 109.059534 0 105.392624 11.8194118 113.44102"></polygon>
                        <polygon fill="#D68A66" points="11.8194118 117.100408 23.6388235 109.059534 23.6388235 105.392624 11.8194118 113.44102"></polygon>
                        <polygon fill="#D68A66" points="11.8194118 58.5652478 0 50.5243732 0 46.8574636 11.8194118 54.9058601"></polygon>
                        <polygon fill="#D68A66" points="11.8194118 58.5652478 23.6388235 50.5243732 23.6388235 46.8574636 11.8194118 54.9058601"></polygon>
                        <polygon fill="#5EABA4" points="35.4544385 58.5652478 23.6388235 50.5243732 23.6388235 46.8574636 35.4544385 54.9058601"></polygon>
                        <polygon fill="#ED1C2C" points="35.4544385 117.100408 23.6388235 109.059534 23.6388235 105.392624 35.4544385 113.44102"></polygon>
                        <polygon fill="#ED1C2C" points="35.4544385 58.5652478 23.6388235 50.5243732 23.6388235 46.8574636 35.4544385 54.9058601"></polygon>
                        <polygon fill="#ED1C2C" points="82.7320856 35.1496793 70.9126738 27.1088047 70.9126738 23.441895 82.7320856 31.4902915"></polygon>
                        <polygon fill="#ED1C2C" points="82.7320856 35.1496793 94.5514973 27.1088047 94.5514973 23.441895 82.7320856 31.4902915"></polygon>
                        <polygon fill="#ED1C2C" points="59.093262 46.8574636 47.2738503 38.8165889 47.2738503 35.1496793 59.093262 43.1980758"></polygon>
                        <polygon fill="#ED1C2C" points="59.093262 46.8574636 70.9126738 38.8165889 70.9126738 35.1496793 59.093262 43.1980758"></polygon>
                        <polygon fill="#ED1C2C" points="35.4544385 58.5652478 47.2738503 50.5243732 47.2738503 46.8574636 35.4544385 54.9058601"></polygon>
                        <polygon fill="#ED1C2C" points="106.367112 23.441895 94.5514973 15.4010204 94.5514973 11.7378717 106.367112 19.7862682"></polygon>
                        <polygon fill="#ED1C2C" points="106.367112 23.441895 118.186524 15.4010204 118.186524 11.7378717 106.367112 19.7862682"></polygon>
                        <polygon fill="#ED1C2C" points="130.005936 11.7341108 118.186524 3.69323615 118.186524 0.0300874636 130.005936 8.07848397"></polygon>
                        <polygon fill="#ED1C2C" points="82.7320856 93.6848397 70.9126738 85.643965 70.9126738 81.9808163 82.7320856 90.0292128"></polygon>
                        <polygon fill="#ED1C2C" points="82.7320856 93.6848397 94.5514973 85.643965 94.5514973 81.9808163 82.7320856 90.0292128"></polygon>
                        <polygon fill="#ED1C2C" points="59.093262 105.392624 47.2738503 97.3517493 47.2738503 93.6848397 59.093262 101.733236"></polygon>
                        <polygon fill="#ED1C2C" points="59.093262 105.392624 70.9126738 97.3517493 70.9126738 93.6848397 59.093262 101.733236"></polygon>
                        <polygon fill="#ED1C2C" points="35.4544385 117.100408 47.2738503 109.059534 47.2738503 105.392624 35.4544385 113.44102"></polygon>
                        <polygon fill="#ED1C2C" points="130.005936 128.808192 118.186524 120.767318 118.186524 117.100408 130.005936 125.148805"></polygon>
                        <polygon fill="#ED1C2C" points="35.4544385 58.5652478 47.2738503 50.5243732 47.2738503 46.8574636 35.4544385 54.9058601"></polygon>
                        <polygon fill="#ED1C2C" points="106.367112 81.9770554 94.5514973 73.9399417 94.5514973 70.2730321 106.367112 78.3214286"></polygon>
                        <polygon fill="#ED1C2C" points="106.367112 81.9770554 118.186524 73.9399417 118.186524 70.2730321 106.367112 78.3214286"></polygon>
                        <polygon fill="#ED1C2C" points="130.005936 70.2730321 118.186524 62.2321574 118.186524 58.5652478 130.005936 66.6136443"></polygon>
                        <polygon fill="#ED1C2C" points="11.8194118 11.7341108 0 3.69323615 0 0.0300874636 11.8194118 8.07848397"></polygon>
                        <polygon fill="#ED1C2C" points="11.8194118 11.7341108 23.6388235 3.69323615 23.6388235 0.0300874636 11.8194118 8.07848397"></polygon>
                        <polygon fill="#ED1C2C" points="11.8194118 128.808192 0 120.767318 0 117.100408 11.8194118 125.148805"></polygon>
                        <polygon fill="#ED1C2C" points="11.8194118 128.808192 23.6388235 120.767318 23.6388235 117.100408 11.8194118 125.148805"></polygon>
                        <polygon fill="#ED1C2C" points="11.8194118 70.2730321 0 62.2321574 0 58.5652478 11.8194118 66.6136443"></polygon>
                        <polygon fill="#ED1C2C" points="11.8194118 70.2730321 23.6388235 62.2321574 23.6388235 58.5652478 11.8194118 66.6136443"></polygon>
                        <polygon fill="#ED1C2C" points="106.367112 35.1496793 94.5514973 27.1088047 94.5514973 23.441895 106.367112 31.4902915"></polygon>
                        <polygon fill="#ED1C2C" points="106.367112 35.1496793 118.186524 27.1088047 118.186524 23.441895 106.367112 31.4902915"></polygon>
                        <polygon fill="#ED1C2C" points="82.7320856 46.8574636 70.9126738 38.8165889 70.9126738 35.1496793 82.7320856 43.1980758"></polygon>
                        <polygon fill="#ED1C2C" points="82.7320856 46.8574636 94.5514973 38.8165889 94.5514973 35.1496793 82.7320856 43.1980758"></polygon>
                        <polygon fill="#ED1C2C" points="59.093262 58.5652478 47.2738503 50.5243732 47.2738503 46.8574636 59.093262 54.9058601"></polygon>
                        <polygon fill="#ED1C2C" points="59.093262 58.5652478 70.9126738 50.5243732 70.9126738 46.8574636 59.093262 54.9058601"></polygon>
                        <polygon fill="#ED1C2C" points="35.4544385 11.7341108 23.6388235 3.69323615 23.6388235 0.0300874636 35.4544385 8.07848397"></polygon>
                        <polygon fill="#ED1C2C" points="35.4544385 11.7341108 47.2738503 3.69323615 47.2738503 0.0300874636 35.4544385 8.07848397"></polygon>
                        <polygon fill="#ED1C2C" points="130.005936 23.441895 118.186524 15.4010204 118.186524 11.7378717 130.005936 19.7862682"></polygon>
                        <polygon fill="#ED1C2C" points="106.367112 93.6848397 94.5514973 85.643965 94.5514973 81.9808163 106.367112 90.0292128"></polygon>
                        <polygon fill="#ED1C2C" points="106.367112 93.6848397 118.186524 85.643965 118.186524 81.9808163 106.367112 90.0292128"></polygon>
                        <polygon fill="#ED1C2C" points="82.7320856 105.392624 70.9126738 97.3517493 70.9126738 93.6848397 82.7320856 101.733236"></polygon>
                        <polygon fill="#ED1C2C" points="82.7320856 105.392624 94.5514973 97.3517493 94.5514973 93.6848397 82.7320856 101.733236"></polygon>
                        <polygon fill="#ED1C2C" points="59.093262 117.100408 47.2738503 109.059534 47.2738503 105.392624 59.093262 113.44102"></polygon>
                        <polygon fill="#ED1C2C" points="59.093262 117.100408 70.9126738 109.059534 70.9126738 105.392624 59.093262 113.44102"></polygon>
                        <polygon fill="#ED1C2C" points="35.4544385 128.808192 23.6388235 120.767318 23.6388235 117.100408 35.4544385 125.148805"></polygon>
                        <polygon fill="#ED1C2C" points="35.4544385 128.808192 47.2738503 120.767318 47.2738503 117.100408 35.4544385 125.148805"></polygon>
                        <polygon fill="#ED1C2C" points="59.093262 58.5652478 47.2738503 50.5243732 47.2738503 46.8574636 59.093262 54.9058601"></polygon>
                        <polygon fill="#ED1C2C" points="59.093262 58.5652478 70.9126738 50.5243732 70.9126738 46.8574636 59.093262 54.9058601"></polygon>
                        <polygon fill="#ED1C2C" points="35.4544385 70.2730321 23.6388235 62.2321574 23.6388235 58.5652478 35.4544385 66.6136443"></polygon>
                        <polygon fill="#ED1C2C" points="35.4544385 70.2730321 47.2738503 62.2321574 47.2738503 58.5652478 35.4544385 66.6136443"></polygon>
                        <polygon fill="#ED1C2C" points="130.005936 81.9770554 118.186524 73.9399417 118.186524 70.2730321 130.005936 78.3214286"></polygon>
                        <polygon fill="#ED1C2C" points="11.8194118 23.441895 0 15.4010204 0 11.7378717 11.8194118 19.7862682"></polygon>
                        <polygon fill="#ED1C2C" points="11.8194118 23.441895 23.6388235 15.4010204 23.6388235 11.7378717 11.8194118 19.7862682"></polygon>
                        <polygon fill="#ED1C2C" points="11.8194118 81.9770554 0 73.9399417 0 70.2730321 11.8194118 78.3214286"></polygon>
                        <polygon fill="#ED1C2C" points="11.8194118 81.9770554 23.6388235 73.9399417 23.6388235 70.2730321 11.8194118 78.3214286"></polygon>
                    </g>
                </g>
            </g>
        </g>
    </g>
</svg>