<?xml version="1.0" encoding="UTF-8"?>
<!-- Generator: Adobe Illustrator 23.1.0, SVG Export Plug-In . SVG Version: 6.00 Build 0)  -->
<svg version="1.1" id="Capa_1" xmlns="http://www.w3.org/2000/svg" xmlns:xlink="http://www.w3.org/1999/xlink" x="0px" y="0px" viewBox="0 0 183 71" style="enable-background:new 0 0 183 71;" xml:space="preserve">
<style type="text/css">
	.st0{fill:url(#SVGID_1_);}
</style>
<linearGradient id="SVGID_1_" gradientUnits="userSpaceOnUse" x1="4.5" y1="35.5" x2="179.5" y2="35.5" gradientTransform="matrix(-1 0 0 1 184 0)">
	<stop offset="0" style="stop-color:#D0A658"/>
	<stop offset="0.1443" style="stop-color:#F2CF4D"/>
	<stop offset="0.269" style="stop-color:#F5DC8F"/>
	<stop offset="0.4133" style="stop-color:#F2CF4D"/>
	<stop offset="0.532" style="stop-color:#E3B656"/>
	<stop offset="0.6458" style="stop-color:#F5DC8F"/>
	<stop offset="0.7704" style="stop-color:#F2CF4D"/>
	<stop offset="0.8704" style="stop-color:#D0A658"/>
	<stop offset="1" style="stop-color:#F2CF4D"/>
</linearGradient>
<path class="st0" d="M66.1,47.4c9.4,4.8,18.9,9.7,28.9,13.2c5.9,2.1,11.8,4.2,18.1,1.5c0.4-0.2,0.9,0,1.1,0.3c0.1,0.3,0.1,0.8,0,1.2  c-0.5,1.1-1.5,1.7-2.6,2c-3.4,1.1-6.9,1.6-10.6,1.1c-5.8-0.9-11.2-3-16.5-5.4c-7.3-3.4-14.4-7.2-21.4-11.3c-2.2-1.3-4.3-1.7-6.9-1  c-4.7,1.4-9.6,2-14.5,1.5c-3-0.3-5.8-1.1-7.7-3.8c-2-2.8-1.2-5.6,1.9-7c2.9-1.3,6-1.3,9-0.5c4.9,1.3,9.8,2.9,14.4,5  c1.6,0.7,3,0.9,4.7,0.2c6.6-2.4,13.2-5,19.6-7.8c0.5-0.2,1.2-0.3,1.2-1.3c-7.6-3-15.2-6.4-22.6-10c-1-0.5-1.9-0.4-3-0.3  c-9.2,1.4-18.5,1.6-27.7,0.3c-7-1-13.8-2.9-20.1-6.2c-2-1.1-3.9-2.3-5.4-4C3.7,12.4,4,9.3,7,7.1c1.2-0.9,2.5-1.4,3.8-1.9  c2.5-0.8,5-1.1,7.5-1.2c6.5-0.1,12.8,1.1,19,2.8c10.6,3,20.5,7.5,30.3,12.3c3.5,1.7,6.7,2.1,10.5,1.1C90.1,17,102,14,114,11.1  c13.2-3.1,26.7-4.9,40.3-3.5c6.2,0.6,12.3,1.7,18,4.4c2.2,1,4.3,2.3,5.9,4.3c0.8,0.9,1.5,1.9,1.1,3.3c-0.8-1.1-1.3-2.3-2.3-3.3  c-2.1-2.1-4.7-3.3-7.3-4.3c-6.2-2.3-12.6-3.2-19.2-3.6c-11.5-0.7-22.8,0.8-34,3.2c-13.7,2.9-27,7.2-40.6,10.3  c-0.3,0.1-0.5,0.4-0.4,0.9c5.7,2.6,11.5,5.3,17.3,8.1c1.7,0.8,3.2,0.9,4.9,0.3c8.9-3.1,18-4.3,27.4-3.4c5.3,0.5,10.4,1.8,15.2,4.2  c1.8,0.9,3.6,2,4.9,3.6c3.1,3.4,2.3,7-1.9,8.9c-1.5,0.7-3.1,1-4.7,1.1c-6.2,0.5-12.4-0.2-18.6-1c-10-1.3-19.6-3.7-29.1-7  c-1.2-0.4-2.2-0.6-3.5-0.1c-7.3,3.2-14.6,6.2-22.5,8.9C65.7,47,65.9,47.3,66.1,47.4z M47.5,18.4c-8.1-3.6-16.3-7.1-24.9-9.2  c-3.2-0.8-6.4-1.2-9.7-1c-1.3,0.1-2.6,0.4-3.8,0.9c-2.6,1.2-3,3.1-1.1,5.3c1.1,1.2,2.4,2.2,3.8,3c4.1,2.4,8.5,3.9,13,5.1  c10.9,2.8,21.9,2.9,33,1.5c0.1-0.2,0.1-0.5,0.2-0.7C54.5,21.7,51,20,47.5,18.4z M122.5,41.3c5.2,1,10.4,2,15.8,1.9  c1.7,0,3.3-0.2,4.8-0.8c2.8-1.1,3.2-3.2,1.3-5.6c-1.1-1.3-2.4-2.2-3.9-3c-4.1-2.3-8.5-3.5-13-4.1c-9.1-1.2-17.9,0.1-26.5,2.9  c-0.5,0.2-1,0.2-1.4,1.1C107,37.2,114.6,39.8,122.5,41.3z M41.8,40.9c-1.8-0.4-3.6-0.2-5.4,0.5c-2,0.8-2.4,2.3-1.3,4.2  c1.2,2,3.2,2.7,5.3,3.1c3.1,0.6,6.3,0.4,9.4-0.2c2.1-0.4,4.4-0.5,6.7-1.9C51.5,44.2,46.8,42.1,41.8,40.9z" Googl="true"/>
</svg>