<?xml version="1.0" encoding="UTF-8"?>
<!-- Generator: Adobe Illustrator 23.1.0, SVG Export Plug-In . SVG Version: 6.00 Build 0)  -->
<svg version="1.1" id="Capa_1" xmlns="http://www.w3.org/2000/svg" xmlns:xlink="http://www.w3.org/1999/xlink" x="0px" y="0px" viewBox="0 0 183 71" style="enable-background:new 0 0 183 71;" xml:space="preserve">
<style type="text/css">
	.st0{fill:url(#SVGID_1_);}
</style>
<linearGradient id="SVGID_1_" gradientUnits="userSpaceOnUse" x1="4.5" y1="35.5" x2="179.5" y2="35.5">
	<stop offset="0" style="stop-color:#D0A658"/>
	<stop offset="0.1443" style="stop-color:#F2CF4D"/>
	<stop offset="0.269" style="stop-color:#F5DC8F"/>
	<stop offset="0.4133" style="stop-color:#F2CF4D"/>
	<stop offset="0.532" style="stop-color:#E3B656"/>
	<stop offset="0.6458" style="stop-color:#F5DC8F"/>
	<stop offset="0.7704" style="stop-color:#F2CF4D"/>
	<stop offset="0.8704" style="stop-color:#D0A658"/>
	<stop offset="1" style="stop-color:#F2CF4D"/>
</linearGradient>
<path class="st0" d="M118.8,46.5c-7.9-2.7-15.2-5.7-22.5-8.9c-1.3-0.6-2.3-0.3-3.5,0.1c-9.5,3.3-19.1,5.7-29.1,7  c-6.2,0.8-12.4,1.5-18.6,1c-1.6-0.1-3.2-0.5-4.7-1.1c-4.2-1.9-4.9-5.5-1.9-8.9c1.4-1.5,3.1-2.6,4.9-3.6c4.8-2.5,9.9-3.7,15.2-4.2  c9.4-0.9,18.5,0.3,27.4,3.4c1.8,0.6,3.3,0.5,4.9-0.3c5.8-2.8,11.6-5.4,17.3-8.1c0.1-0.6,0-0.9-0.4-0.9C94.4,18.8,81,14.6,67.4,11.6  c-11.2-2.4-22.5-3.9-34-3.2c-6.5,0.4-13,1.3-19.2,3.6c-2.7,1-5.3,2.2-7.3,4.3c-0.9,0.9-1.5,2.1-2.3,3.3c-0.4-1.3,0.3-2.3,1.1-3.3  c1.6-2,3.7-3.2,5.9-4.3c5.7-2.6,11.8-3.7,18-4.4C43.3,6.2,56.7,8,70,11.1c12,2.8,23.9,5.9,35.8,9.1c3.8,1,7,0.7,10.5-1.1  c9.8-4.9,19.7-9.4,30.3-12.3c6.2-1.8,12.5-2.9,19-2.8c2.6,0,5.1,0.4,7.5,1.2c1.4,0.4,2.7,1,3.8,1.9c3,2.3,3.4,5.3,0.9,8.2  c-1.5,1.7-3.4,3-5.4,4c-6.3,3.3-13.1,5.2-20.1,6.2c-9.3,1.3-18.5,1.1-27.7-0.3c-1.1-0.2-2-0.2-3,0.3c-7.4,3.6-15,7-22.6,10  c-0.1,1,0.7,1,1.2,1.3c6.4,2.8,13,5.4,19.6,7.8c1.7,0.6,3.1,0.5,4.7-0.2c4.6-2.2,9.5-3.8,14.4-5c3-0.8,6.1-0.8,9,0.5  c3.1,1.4,3.9,4.2,1.9,7c-1.9,2.7-4.7,3.5-7.7,3.8c-4.9,0.5-9.8-0.1-14.5-1.5c-2.6-0.7-4.6-0.4-6.9,1c-6.9,4.1-14,7.9-21.4,11.3  c-5.3,2.5-10.7,4.5-16.5,5.4c-3.6,0.6-7.1,0-10.6-1.1c-1.1-0.3-2.1-0.9-2.6-2c-0.1-0.3-0.2-0.8,0-1.2c0.2-0.4,0.7-0.5,1.1-0.3  c6.3,2.7,12.3,0.5,18.1-1.5c10-3.6,19.5-8.4,28.9-13.2C118.1,47.3,118.3,47,118.8,46.5z M126,23.4c0.1,0.2,0.1,0.5,0.2,0.7  c11.1,1.5,22.1,1.3,33-1.5c4.6-1.2,9-2.7,13-5.1c1.4-0.8,2.7-1.8,3.8-3c1.9-2.3,1.6-4.1-1.1-5.3c-1.2-0.6-2.5-0.8-3.8-0.9  c-3.3-0.2-6.5,0.2-9.7,1c-8.6,2.2-16.8,5.6-24.9,9.2C133,20,129.5,21.7,126,23.4z M84.4,33.8c-0.3-0.9-0.9-0.9-1.4-1.1  c-8.6-2.8-17.5-4.1-26.5-2.9c-4.6,0.6-9,1.8-13,4.1c-1.4,0.8-2.8,1.7-3.9,3c-1.9,2.4-1.5,4.4,1.3,5.6c1.5,0.6,3.1,0.8,4.8,0.8  c5.3,0.1,10.6-0.9,15.8-1.9C69.4,39.8,77,37.2,84.4,33.8z M127.5,46.5c2.3,1.4,4.6,1.5,6.7,1.9c3.1,0.6,6.2,0.9,9.4,0.2  c2.1-0.4,4.1-1.1,5.3-3.1c1.1-1.9,0.6-3.3-1.3-4.2c-1.7-0.7-3.6-0.9-5.4-0.5C137.2,42.1,132.5,44.2,127.5,46.5z" Googl="true"/>
</svg>