<svg xmlns="http://www.w3.org/2000/svg" width="57.4" height="82" viewBox="0 0 57.4 82"><defs><style>.a{fill:#ed1c2c;}</style></defs><g transform="translate(-76.8)"><g transform="translate(76.8)"><path class="a" d="M110.967,0H83.633A6.841,6.841,0,0,0,76.8,6.833v49.2a6.841,6.841,0,0,0,6.833,6.833h24.6V60.133h-24.6a4.105,4.105,0,0,1-4.1-4.1V6.833a4.105,4.105,0,0,1,4.1-4.1h27.333a4.105,4.105,0,0,1,4.1,4.1V46.467H117.8V6.833A6.841,6.841,0,0,0,110.967,0Z" transform="translate(-76.8)"/></g><g transform="translate(95.933 19.647)"><path class="a" d="M231.241,139.43l-13.407-16.755-2.136,1.708,13.407,16.754a12.335,12.335,0,0,1,2.7,7.688v33.47H211.806A12.82,12.82,0,0,1,199,169.489v-4.961h-2.733v4.961a15.557,15.557,0,0,0,15.539,15.539h21.361a1.365,1.365,0,0,0,1.367-1.367V148.826A15.091,15.091,0,0,0,231.241,139.43Z" transform="translate(-196.267 -122.675)"/></g><g transform="translate(93.596 29.494)"><path class="a" d="M188.105,186.9a3.567,3.567,0,0,1,2.509,1.123l18.367,19.516,1.991-1.874L192.6,186.144a6.286,6.286,0,0,0-4.42-1.98,6.207,6.207,0,0,0-4.51,1.711c-.015.015-.124.119-.138.134a6.309,6.309,0,0,0-.362,8.558l11.771,13.9v4.228a18.285,18.285,0,0,0,11.82,17.052l.959-2.56a15.541,15.541,0,0,1-10.046-14.492v-4.729a1.372,1.372,0,0,0-.324-.884L185.263,192.8a3.608,3.608,0,0,1,.273-4.928A3.658,3.658,0,0,1,188.105,186.9Z" transform="translate(-181.674 -184.16)"/></g><g transform="translate(106.867 2.733)"><rect class="a" width="2.733" height="34.167"/></g><g transform="translate(100.033 45.1)"><rect class="a" width="2.733" height="16.4"/></g><g transform="translate(100.033 1.367)"><rect class="a" width="2.733" height="30.067"/></g><g transform="translate(83.633 6.833)"><rect class="a" width="2.733" height="17.767"/></g><g transform="translate(90.467 6.833)"><rect class="a" width="2.733" height="10.933"/></g><g transform="translate(83.633 45.1)"><path class="a" d="M129.034,281.6h-8.2a1.366,1.366,0,0,0-1.367,1.367v8.2a1.366,1.366,0,0,0,1.367,1.367h8.2a1.366,1.366,0,0,0,1.367-1.367v-8.2A1.366,1.366,0,0,0,129.034,281.6Zm-1.367,8.2H122.2v-5.467h5.467Z" transform="translate(-119.467 -281.6)"/></g></g></svg>