<svg xmlns="http://www.w3.org/2000/svg" width="102.583" height="78.83" viewBox="0 0 102.583 78.83"><defs><style>.a{fill:#ed1c2c;}</style></defs><g transform="translate(0 -59.277)"><g transform="translate(0 69.028)"><g transform="translate(0 0)"><path class="a" d="M100.964,167.307H98.235a46.911,46.911,0,0,0-45.228-45.318l4.8-4.8a5.417,5.417,0,0,0-6.512-8.535,5.416,5.416,0,0,0-6.513,8.535l4.8,4.8a46.651,46.651,0,0,0-20.411,5.493A1.62,1.62,0,0,0,30.7,130.34a43.44,43.44,0,0,1,9.8-3.8A43.976,43.976,0,0,1,51.037,125.2a1.625,1.625,0,0,0,.255.022,1.59,1.59,0,0,0,.262-.023,43.674,43.674,0,0,1,43.441,42.111H7.592a43.752,43.752,0,0,1,17.825-33.643,1.62,1.62,0,0,0-.959-2.924,1.594,1.594,0,0,0-.959.315A47.18,47.18,0,0,0,9.548,147.368a46.666,46.666,0,0,0-5.2,19.939H1.62A1.62,1.62,0,0,0,0,168.927a8.108,8.108,0,0,0,8.1,8.1H94.485a8.108,8.108,0,0,0,8.1-8.1A1.62,1.62,0,0,0,100.964,167.307ZM51.292,119.122,47.07,114.9a2.176,2.176,0,0,1,3.077-3.077,1.619,1.619,0,0,0,2.29,0,2.176,2.176,0,1,1,3.077,3.077Zm43.192,54.664H8.1a4.867,4.867,0,0,1-4.581-3.239H99.065A4.867,4.867,0,0,1,94.485,173.786Z" transform="translate(0 -107.947)"/></g></g><g transform="translate(3.597 59.278)"><g transform="translate(0 0)"><path class="a" d="M23.6,74.873c-5.393-5.393-.076-12.7.153-13a1.62,1.62,0,0,0-2.594-1.941,18.475,18.475,0,0,0-2.7,5.675,11.31,11.31,0,0,0,2.847,11.56c5.393,5.392.076,12.7-.15,13a1.62,1.62,0,1,0,2.592,1.944,18.47,18.47,0,0,0,2.7-5.675A11.309,11.309,0,0,0,23.6,74.873Z" transform="translate(-17.951 -59.281)"/></g></g><g transform="translate(21.84 59.277)"><path class="a" d="M113.684,68.39a3.941,3.941,0,0,1-1.256-4.195,6.041,6.041,0,0,1,1.256-2.153,1.62,1.62,0,0,0-2.291-2.291,9.148,9.148,0,0,0-2.011,3.333,7.171,7.171,0,0,0,2.011,7.6,3.973,3.973,0,0,1,1.255,4.226,6.163,6.163,0,0,1-1.268,2.19,1.62,1.62,0,0,0,2.311,2.27,9.266,9.266,0,0,0,2-3.357A7.208,7.208,0,0,0,113.684,68.39Z" transform="translate(-109.003 -59.277)"/></g><g transform="translate(89.983 59.278)"><path class="a" d="M454.758,77.166a11.309,11.309,0,0,0,2.847-11.56,18.466,18.466,0,0,0-2.7-5.675,1.62,1.62,0,0,0-2.594,1.941c.229.308,5.545,7.611.152,13a11.31,11.31,0,0,0-2.847,11.56,18.465,18.465,0,0,0,2.7,5.675,1.62,1.62,0,0,0,2.594-1.941C454.681,89.861,449.365,82.558,454.758,77.166Z" transform="translate(-449.11 -59.283)"/></g><g transform="translate(73.672 59.279)"><path class="a" d="M371.126,74.913a3.973,3.973,0,0,1,1.255-4.226,7.17,7.17,0,0,0,2.011-7.6,9.151,9.151,0,0,0-2.011-3.333,1.62,1.62,0,0,0-2.3,2.284,6.038,6.038,0,0,1,1.263,2.16A3.942,3.942,0,0,1,370.09,68.4a7.208,7.208,0,0,0-2.012,7.62,9.269,9.269,0,0,0,2,3.357,1.616,1.616,0,0,0,2.28.018,1.624,1.624,0,0,0,.031-2.287A6.162,6.162,0,0,1,371.126,74.913Z" transform="translate(-367.7 -59.285)"/></g></g></svg>