<svg xmlns="http://www.w3.org/2000/svg" width="147.495" height="101.597" viewBox="0 0 147.495 101.597" Googl="true"><defs><style>.a{fill:#ed1c2c;fill-rule:evenodd;}</style></defs><g transform="translate(23.495 33.04)"><path class="a"/><path class="a"/><path class="a"/><path class="a" d="M124.728,217.117c0,.125-.1.164-.224.091s-.161-.06-.084.025a5.83,5.83,0,0,1-1.343,1.687l-1.484,1.534,1.694-1.652a7.992,7.992,0,0,0,1.568-1.779c-.07-.07-.127-.027-.127.094m-3.586,3.945c0,.125-.1.164-.224.091s-.164-.063-.091.018.038.275-.079.433-.02.106.215-.114.372-.454.3-.523-.125-.026-.125.1M119.8,222.5a.207.207,0,0,0,.326.247c.171-.171.139-.414-.054-.414a.367.367,0,0,0-.272.167m49.52,10.7c-.177.237-.257.431-.178.431.157,0,.652-.717.557-.807-.032-.03-.2.139-.379.376m-2.082,2.441a10.471,10.471,0,0,1-1.818,1.661c-.176-.108-.612.431-.466.578.064.063.116.021.116-.094a.219.219,0,0,1,.227-.209,27.223,27.223,0,0,0,3.709-3.627,16.3,16.3,0,0,0-1.767,1.691m-2.884,2.561c-.121.147-.293.223-.38.169s-.159-.012-.159.092c0,.3.272.224.628-.169.178-.2.282-.359.229-.359a.8.8,0,0,0-.318.267m-38.374,1.114a8.539,8.539,0,0,0,1.85,1.846c.074,0-.15-.25-.5-.556s-.587-.631-.531-.722,0-.143-.127-.116a.2.2,0,0,1-.238-.2c-.009-.27-.456-.513-.456-.247" transform="translate(-101.122 -186.446)"/><path class="a" d="M94.875.442C68.338,2.425,44.094,17.328,36.041,36.606c-.485,1.161,1.531.788-14.6,2.7-11.126,1.32-13.6,1.641-13.925,1.8-2.087,1.064-1.378,4.415.94,4.442.277,0,6.118-.662,12.98-1.478s12.5-1.46,12.528-1.432a7.035,7.035,0,0,1-.189,1.254c-.133.661-.272,1.439-.31,1.73a1.137,1.137,0,0,1-.141.529c-.821,0-18.24,2.049-18.49,2.175a2.348,2.348,0,0,0,.956,4.475c.293,0,4.289-.413,8.88-.921s8.365-.905,8.387-.884c.045.045.271,2.729.232,2.766-.014.013-4.874.661-10.8,1.44-11.964,1.572-11.355,1.454-11.905,2.31a2.354,2.354,0,0,0,1.9,3.746c.314,0,20.476-2.61,21.407-2.771l.322-.056.305.986c.168.542.413,1.261.546,1.6l.241.613-1.171.172c-3.606.53-8.72,1.336-10.7,1.687-5.319.942-21.1,3.948-21.647,4.125a2.374,2.374,0,0,0,.223,4.533c.505.113.819.064,6.163-.962,14-2.687,17.73-3.349,24.992-4.432,2.052-.306,3.869-.579,4.037-.607.293-.049.334-.008,1.008,1.031a38.467,38.467,0,0,0,9.042,9.32A65.327,65.327,0,0,0,62,83.518l1.765.5a62.424,62.424,0,0,0,7.249,1.463c1.02.143,1.882.276,1.916.3s.629.064,1.322.1,1.828.1,2.521.137c7.221.429,18.146-.649,23.193-2.29.3-.1.827-.258,1.16-.353,9.559-2.729,19.046-7.06,24.578-11.221.485-.365,1.259-.923,1.72-1.241,9-6.213,16.829-17.015,19.22-26.53,5.6-22.3-11.3-40.846-39.922-43.8C104.89.387,96.833.3,94.875.442m8.218,4.672a57.249,57.249,0,0,1,16.033,2.868c22.569,7.524,30.308,27.353,17.982,46.071C122.128,76.8,85.1,87.889,58.976,77.454a34.111,34.111,0,0,1-5.127-2.5,5.038,5.038,0,0,0-1.019-.6c-2.484-1.113-7.368-5.336-9.553-8.26C27.146,44.509,49.066,13.8,85.86,6.435a75.536,75.536,0,0,1,14.712-1.4c.416.016,1.55.052,2.521.08M82.169,21.3c-4.52.4-7.869,5.581-6.25,9.675.066.165-.124.176-3.152.176H69.546l-.62.309c-.863.431-1.061.716-2.239,3.223a21.949,21.949,0,0,1-1.088,2.16c-.027-.027-.491-1.013-1.032-2.191-1.075-2.344-1.414-2.838-2.249-3.278L61.8,31.1H52.321l-.465.273a2.774,2.774,0,0,0-1.485,2.735l.036.819L55.6,44.98c5.459,10.57,5.515,10.666,6.43,11.115l.577.283h5.95l.522-.275c.815-.429.975-.687,4.184-6.725,1.663-3.129,3.088-5.8,3.167-5.942.125-.219.14.46.118,5.287l-.025,5.539.282.572c.74,1.506,1.154,1.636,5.343,1.676l3.407.032-.012,3.706c-.013,4.289,0,4.352.929,5.188.816.733.9.745,5.529.777l4.084.029.5-.245c1.583-.777,1.705-1.165,1.748-5.516a30.522,30.522,0,0,1,.128-3.55c.052,0,.514.073,1.027.163a12.959,12.959,0,0,0,9.389-2.208c.332-.261.418-.287.585-.183,5.3,3.3,12.851,3.516,17.328.485,4.688-3.174,5.626-9.968,1.907-13.816l-.779-.806,1.061-1.964c2.124-3.93,1.965-5.356-.721-6.479-5.983-2.5-13.461-1.388-16.555,2.464-.581.723-.39.77-1.593-.394a12.156,12.156,0,0,0-12.487-2.877c-.654.235-.7.238-1.2.089a15.612,15.612,0,0,0-3.442-.155H90.061l.066-.227A7.44,7.44,0,0,0,82.169,21.3m2.015,3.123a4.414,4.414,0,1,1-4.12,7.535,4.459,4.459,0,0,1,4.12-7.535m19.564,9.548c7.01,1.82,9.711,10.773,5.068,16.8-2.9,3.766-8.928,4.594-12.539,1.724a3.572,3.572,0,0,1-.683-.647c-.23-.6-.266.173-.266,5.65v5.8l-3.4-.073c-1.872-.04-3.406-.078-3.41-.086s.026-4.839.066-10.738.077-12.391.082-14.426l.009-3.7h6.756V35.38a6.551,6.551,0,0,0,.047,1.108,10.53,10.53,0,0,0,.832-.786,7.685,7.685,0,0,1,7.44-1.732m20.131.056a14.216,14.216,0,0,1,3.333.974c.148.115.049.345-.95,2.213L125.148,39.3l-.364-.161c-3.005-1.327-6.257-.672-5.415,1.092.3.638.581.75,3.522,1.432,3.537.82,5.112,2.684,4.986,5.9-.238,6.079-8.272,8.762-15.557,5.195-1.615-.79-1.542-.68-1-1.516a13.572,13.572,0,0,0,1.5-3.2c.266-.857.282-.88.489-.746,3.871,2.514,7.825,2.767,7.827.5,0-.924-.634-1.289-3.376-1.942-3.964-.945-5.388-2.517-5.164-5.7.326-4.608,4.953-7.122,11.277-6.128M63.248,39.081c1.253,2.728,2.3,4.96,2.332,4.96s1.1-2.219,2.373-4.932l2.318-4.932,3.817,0,3.816,0-.192.327c-.106.18-2.407,4.508-5.115,9.618l-4.922,9.29h-4.28l-4.82-9.34c-2.651-5.137-4.909-9.489-5.016-9.669l-.2-.328,3.8.026,3.8.027,2.277,4.96m18.15-3.9a5.872,5.872,0,0,0,4.325-.463l.63-.342v7.132c0,3.923-.03,8.227-.067,9.565l-.066,2.433H79.464l.067-5.363c.037-2.949.067-7.274.067-9.61V34.287l.58.349a6.683,6.683,0,0,0,1.221.547m17.359,4.565a4.571,4.571,0,0,0-2.03,7.834,4.627,4.627,0,0,0,6.695-.729,4.548,4.548,0,0,0-4.665-7.1m26.659,36.827c-.6.446-1.233.913-1.4,1.038-.33.248-2.232,1.424-3.277,2.025-.361.208-.665.386-.676.4s.623.026,1.412.035c4.956.054,9.04,2.184,9.8,5.108.936,3.612-3.175,8.413-9.158,10.693-9.1,3.468-18.978-.026-17.408-6.157.287-1.123,1.772-3.676,2.138-3.676a.093.093,0,0,0,.081-.1c0-.171-.175-.125-2.695.7-1.344.439-2.728.877-3.076.972-1.106.3-1.339.9-1.337,3.465.005,12.185,21.244,14.953,32.068,4.179,7.077-7.044,5.094-15.992-4.206-18.983a3.365,3.365,0,0,1-1.026-.425c.141-.229-.25,0-1.236.731m-79.271,4.6a6.869,6.869,0,0,0-.832.975c0,.053.011.077.025.052s.433-.463.93-.973a4.858,4.858,0,0,0,.807-.929,6.32,6.32,0,0,0-.931.876m.345.447a16.121,16.121,0,0,0-3.554,5.251c-.188.456-.346.738-.351.628l-.009-.2-.087.2c-.127.3-.119.476.017.392.08-.05.1-.017.05.1a1.1,1.1,0,0,0-.068.325c0,.082-.041.123-.09.093-.279-.173-.216,3.367.08,4.475,2.83,10.587,22.02,11.771,31.824,1.964,1.788-1.789,3.833-4.884,3.226-4.884-.122,0-.147-.056-.1-.214s.031-.192-.044-.145a.283.283,0,0,0-.112.219,13.286,13.286,0,0,1-3.882.029l-.908-.081-.353.424a18.16,18.16,0,0,1-8.479,5.6c-6.8,2.185-14.312.727-16.21-3.146-.361-.737-.524-1.442-.307-1.33.077.04.056,0-.046-.079-.492-.4.121-2.826,1.065-4.211,1.043-1.529,3.271-3.693,3.652-3.547.5.19.106-.188-.531-.515-.425-.218-1.423-.775-2.218-1.237s-1.511-.865-1.593-.9-.443.242-.979.787M44.9,82.638c-.361.457-.467.693-.147.327.252-.289.5-.655.434-.655a2.294,2.294,0,0,0-.287.327m-.746,1.056a1.806,1.806,0,0,0-.256.467c0,.078.28-.294.54-.717.183-.3-.051-.092-.284.25m-.709,1.235a1.671,1.671,0,0,0-.22.569c.025.025.164-.191.309-.481a1.765,1.765,0,0,0,.22-.569c-.023-.024-.162.193-.308.481M71,90.6a14.4,14.4,0,0,0-.983,1.069,19.823,19.823,0,0,0,1.927-1.928c.143-.259.127-.244-.943.859M47.229,91.7a.462.462,0,0,0,.168.294c.154.126.156.117.037-.114-.176-.338-.2-.363-.2-.18m21.2,1.029c-.443.313-.551.446-.172.213.524-.323.7-.458.6-.453a1.588,1.588,0,0,0-.431.24m-20.133.468a3.388,3.388,0,0,0,.6.512c.111.055-.046-.129-.348-.411-.66-.614-.809-.674-.253-.1m1.256,1a2.386,2.386,0,0,0,.549.3c.052,0-.12-.136-.382-.3-.62-.393-.759-.393-.168,0m.706.449a1.619,1.619,0,0,0,.766.33c.029-.029-.093-.126-.271-.215-.325-.161-.5-.2-.5-.116m13.693.272c-.09.057-.062.083.091.084a.377.377,0,0,0,.273-.083c.067-.108-.194-.109-.364,0m-.634.186c-.179.077-.17.087.076.094.152,0,.277-.038.277-.094,0-.118-.077-.118-.353,0m-11.6.2A.362.362,0,0,0,52,95.4c.213-.007.214-.01.019-.094-.278-.119-.376-.119-.3,0m10.185.2c-.179.077-.17.087.076.094.152,0,.277-.038.277-.094,0-.118-.078-.118-.353,0m-.958.2-.252.081.277.01c.153.006.278-.035.278-.091s-.011-.1-.025-.091-.138.046-.277.091m-1.26.2-.4.072.372.014a.66.66,0,0,0,.435-.086c.034-.055.048-.094.031-.087s-.213.047-.434.087m-5.116.071a1.11,1.11,0,0,0,.4,0c.1-.025-.006-.045-.228-.044s-.3.022-.175.046" transform="translate(-23.713 -33.409)"/></g></svg>