<svg xmlns="http://www.w3.org/2000/svg" xmlns:xlink="http://www.w3.org/1999/xlink" width="53.167" height="38.277" viewBox="0 0 53.167 38.277"><defs><style>.a{fill:url(#a);}.b{fill:url(#b);}.c{fill:url(#c);}.d{fill:url(#d);}.e{fill:url(#e);}</style><linearGradient id="a" x1="0.622" y1="0.623" x2="0.389" y2="0.319" gradientUnits="objectBoundingBox"><stop offset="0" stop-color="#d0a658"/><stop offset="0.144" stop-color="#f2cf4d"/><stop offset="0.269" stop-color="#f5dc8f"/><stop offset="0.413" stop-color="#f2cf4d"/><stop offset="0.532" stop-color="#e3b656"/><stop offset="0.646" stop-color="#f5dc8f"/><stop offset="0.77" stop-color="#f2cf4d"/><stop offset="0.87" stop-color="#d0a658"/><stop offset="1" stop-color="#f2cf4d"/></linearGradient><linearGradient id="b" x1="0.621" y1="0.382" x2="0.387" y2="0.684" xlink:href="#a"/><radialGradient id="c" cx="-353.046" cy="-222.971" r="38.457" gradientTransform="translate(-299.577 -184.661) scale(0.5)" xlink:href="#a"/><linearGradient id="d" x1="0" y1="0.502" x2="1.017" y2="0.502" xlink:href="#a"/><linearGradient id="e" x1="0" y1="0.502" x2="1.017" y2="0.502" xlink:href="#a"/></defs><g transform="translate(-224.433 -130.761)"><path class="a" d="M269.8,144.5a20.254,20.254,0,0,0-8.5,1.8c-2.6,1.2-5,3-6,5.6s-.7,5.5-1.5,8.6a11.465,11.465,0,0,1-6,7.1,13.89,13.89,0,0,1-4.5,1.4,6.384,6.384,0,0,1-4.9-1.2,2.195,2.195,0,0,1-.8-1.5,2.155,2.155,0,0,1,.4-1.6,7.28,7.28,0,0,1,1.9-1.7,25.283,25.283,0,0,1,4.2-1.8c2.9-.9,5.8-1.4,8.6-2.2,1.4-.4,2.8-.8,4.2-1.3a8.789,8.789,0,0,0,3.6-2.4,8.426,8.426,0,0,1-3.4,2.8,29.482,29.482,0,0,1-4.1,1.7c-2.8.9-5.7,1.6-8.4,2.6a19.1,19.1,0,0,0-3.8,1.8,5.792,5.792,0,0,0-1.4,1.2c-.2.4-.2.5.1.9.7.7,2.2.8,3.5.7a13.557,13.557,0,0,0,3.9-1.2,9.779,9.779,0,0,0,5.2-5.9c.8-2.6.6-5.8,1.9-8.7a10.38,10.38,0,0,1,2.9-3.7,15.629,15.629,0,0,1,4-2.2A22.33,22.33,0,0,1,269.8,144.5Z"/><path class="b" d="M269.8,155.5a18.908,18.908,0,0,1-8.8-1,13.1,13.1,0,0,1-4-2.2,8.9,8.9,0,0,1-2.9-3.7c-1.4-2.9-1.1-6.1-1.9-8.7A9.519,9.519,0,0,0,247,134a10.441,10.441,0,0,0-3.9-1.2,4.4,4.4,0,0,0-3.5.7c-.3.4-.4.5-.1.9a4.213,4.213,0,0,0,1.4,1.2,26.4,26.4,0,0,0,3.8,1.8c2.7,1,5.6,1.7,8.4,2.6a29.483,29.483,0,0,1,4.1,1.7,8.426,8.426,0,0,1,3.4,2.8,8.788,8.788,0,0,0-3.6-2.4c-1.4-.5-2.8-.9-4.2-1.3-2.8-.7-5.7-1.3-8.6-2.2a17.173,17.173,0,0,1-4.2-1.8,5.1,5.1,0,0,1-1.9-1.7,2.155,2.155,0,0,1-.4-1.6,2.751,2.751,0,0,1,.8-1.5,6.384,6.384,0,0,1,4.9-1.2,11.827,11.827,0,0,1,4.5,1.4,11.465,11.465,0,0,1,6,7.1c.8,3.1.5,6.1,1.5,8.6.9,2.6,3.3,4.4,6,5.6A17.092,17.092,0,0,0,269.8,155.5Z"/><path class="c" d="M265.3,147.4c-2.8,1.4-2.8,3.7,0,5.1a12.911,12.911,0,0,0,10.2,0c2.8-1.4,2.8-3.7,0-5.1A12.911,12.911,0,0,0,265.3,147.4Z"/><path class="d" d="M255.5,137.2a42.819,42.819,0,0,1-12.6,9.4,51.569,51.569,0,0,1-7.4,2.9c-2.5.7-5.6,1.2-8.2-.3a5.725,5.725,0,0,1-2.7-3.4,4.346,4.346,0,0,1,1.1-4.3,5.342,5.342,0,0,1,4.1-1.3,10,10,0,0,1,3.9,1.3,63.384,63.384,0,0,0,14.5,6,43.678,43.678,0,0,1-7.7-2c-2.5-.9-4.9-2-7.3-3.1a12.8,12.8,0,0,0-3.5-1.1,4.011,4.011,0,0,0-3.2,1,2.99,2.99,0,0,0-.7,3,4.5,4.5,0,0,0,2.1,2.6c2.1,1.2,4.7,1,7.2.3a63.371,63.371,0,0,0,7.3-2.6A46.494,46.494,0,0,0,255.5,137.2Z"/><path class="e" d="M255.5,162.8a52.547,52.547,0,0,0-13.1-8.5,48.854,48.854,0,0,0-7.3-2.6c-2.4-.7-5.1-.9-7.2.3a4.5,4.5,0,0,0-2.1,2.6,2.937,2.937,0,0,0,.7,3,4.011,4.011,0,0,0,3.2,1,10.978,10.978,0,0,0,3.5-1.1,47.057,47.057,0,0,1,7.3-3.1,66.925,66.925,0,0,1,7.7-2,68.2,68.2,0,0,0-14.5,6,10.579,10.579,0,0,1-3.9,1.3,5.226,5.226,0,0,1-4.1-1.3,4.291,4.291,0,0,1-1.1-4.3,5.147,5.147,0,0,1,2.7-3.4c2.6-1.5,5.7-1,8.2-.3a43.711,43.711,0,0,1,20,12.4Z"/></g></svg>