<svg xmlns="http://www.w3.org/2000/svg" width="82" height="82" viewBox="0 0 82 82"><defs><style>.a{fill:#ed1c2c;}</style></defs><g transform="translate(13.667 50.565)"><path class="a" d="M144.755,318.716c-.079-.133-.163-.26-.246-.372a5.326,5.326,0,0,0-7.433-1.227L121.8,328.028H105.834a1.367,1.367,0,0,1,0-2.733h8.883a4.789,4.789,0,0,0,4.783-4.783c0-.015,0-.141,0-.154a4.8,4.8,0,0,0-4.89-4.629H96.829a6.858,6.858,0,0,0-4.32,1.587l-6.683,5.562a1.371,1.371,0,0,0-.492,1.051v16.4a1.366,1.366,0,0,0,1.367,1.367h33.909a9.588,9.588,0,0,0,6.09-2.2l16.568-13.69A5.371,5.371,0,0,0,144.755,318.716Zm-3.15,4.923-16.647,13.75a6.858,6.858,0,0,1-4.35,1.572H88.067V324.568l6.192-5.155a4.111,4.111,0,0,1,2.582-.953h17.81a2.088,2.088,0,0,1,2.116,2.051,2.052,2.052,0,0,1-2.05,2.05h-8.883a4.1,4.1,0,0,0,0,8.2h16.4a1.385,1.385,0,0,0,.8-.254l15.637-11.167a2.593,2.593,0,0,1,3.628.607c.041.056.078.113.113.172A2.654,2.654,0,0,1,141.605,323.639Z" transform="translate(-85.334 -315.726)"/></g><g transform="translate(0 56.033)"><path class="a" d="M14.992,349.867H0V352.6H13.626v20.5H0v2.733H14.992a1.366,1.366,0,0,0,1.367-1.367V351.234A1.366,1.366,0,0,0,14.992,349.867Z" transform="translate(0 -349.867)"/></g><g transform="translate(2.733 68.333)"><path class="a" d="M21.167,426.667a4.1,4.1,0,1,0,4.1,4.1A4.1,4.1,0,0,0,21.167,426.667Zm0,5.467a1.367,1.367,0,1,1,1.367-1.367A1.368,1.368,0,0,1,21.167,432.134Z" transform="translate(-17.067 -426.667)"/></g><g transform="translate(0 42.367)"><path class="a" d="M80.634,264.533H1.367A1.366,1.366,0,0,0,0,265.9a9.578,9.578,0,0,0,9.567,9.567H72.433A9.579,9.579,0,0,0,82,265.9,1.365,1.365,0,0,0,80.634,264.533Zm-8.2,8.2H9.567a6.844,6.844,0,0,1-6.7-5.467H79.129A6.844,6.844,0,0,1,72.434,272.733Z" transform="translate(0 -264.533)"/></g><g transform="translate(5.467 6.833)"><path class="a" d="M69.666,42.667A35.574,35.574,0,0,0,34.133,78.2v1.367A1.366,1.366,0,0,0,35.5,80.934h68.334a1.365,1.365,0,0,0,1.367-1.367V78.2A35.573,35.573,0,0,0,69.666,42.667ZM36.866,78.2a32.8,32.8,0,1,1,65.6,0Z" transform="translate(-34.133 -42.667)"/></g><g transform="translate(15.889 22.423)"><path class="a" d="M101.841,140.006a30.551,30.551,0,0,0-2.632,3.418l2.278,1.51a27.928,27.928,0,0,1,2.4-3.113Z" transform="translate(-99.209 -140.006)"/></g><g transform="translate(20.425 12.3)"><path class="a" d="M148.106,76.8a29.959,29.959,0,0,0-20.575,8.162l1.872,1.991a27.231,27.231,0,0,1,18.7-7.42Z" transform="translate(-127.531 -76.8)"/></g><g transform="translate(37.273 0.001)"><g transform="translate(0)"><rect class="a" width="8" height="2" transform="translate(-0.273 -0.001)"/></g></g><g transform="translate(39.758 1.243)"><g transform="translate(0 0)"><rect class="a" width="2" height="8" transform="translate(0.242 -0.243)"/></g></g></svg>