<svg id="Capa_46" data-name="Capa 46" xmlns="http://www.w3.org/2000/svg" viewBox="0 0 1500 1500"><defs><style>.cls-1,.cls-2{fill:none;stroke-linecap:round;stroke-linejoin:round;stroke-width:22px;}.cls-1{stroke:#050000;}.cls-2{stroke:#000;}</style></defs><title>Comida del dia</title><path class="cls-1" d="M311,104.72a258.56,258.56,0,0,1,20-23.29c38.37-39.56,86.82-63.17,139.48-63.17,124.48,0,225.4,131.91,225.4,294.63S595,607.52,470.48,607.52a177.29,177.29,0,0,1-68.54-13.87c-91-37.91-156.86-149.28-156.86-280.76,0-54.5,11.32-105.53,31-149.32,3.45-7.66,10.92-22.37,14.87-29.57"/><path class="cls-1" d="M358.56,1449.77c18.9,11.72,70.37,31.23,114.52,31.23,66.63,0,98.91-42.69,98.91-42.69L529.88,597.18"/><line class="cls-1" x1="410.62" y1="597.11" x2="358.85" y2="1417.18"/><path class="cls-1" d="M972.21,470.12l1-423.59s0-28.65,21.49-28.65,22.51,28.65,22.51,28.65l-5.12,451.21,92.08,1V46.53s-2.13-34.79,21.49-34.79c33.77,0,26.6,34.79,26.6,34.79V567.32s-4.09,70.6-159.61,70.6-159.61-64.46-159.61-64.46V46.53s-2-28.65,18.41-28.65,17.4,28.65,17.4,28.65V498.77H973.23"/><path class="cls-1" d="M939.47,637.92,885.24,1441.1S923.1,1481,988.58,1481s104.36-43,104.36-43l-37.86-732.59"/><path class="cls-1" d="M626,430.27C595,500.43,537,547.64,470.48,547.64a141.25,141.25,0,0,1-54.61-11"/><line class="cls-1" x1="489.74" y1="760.56" x2="515.77" y2="1396.67"/><path class="cls-1" d="M923.1,1413.47c69.57,42,131.3.51,131.3.51"/><line class="cls-2" x1="1052.83" y1="667.17" x2="1052.7" y2="666.51"/><line class="cls-2" x1="384.45" y1="517.25" x2="384.31" y2="516.59"/></svg>