<svg id="Capa_48" data-name="Capa 48" xmlns="http://www.w3.org/2000/svg" viewBox="0 0 1500 1500"><defs><style>.cls-1,.cls-2{fill:none;stroke-linecap:round;stroke-linejoin:round;stroke-width:22px;}.cls-1{stroke:#000;}.cls-2{stroke:#050000;}</style></defs><title>Desayunos</title><path class="cls-1" d="M928.61,783l-15.06,15-62,62-92.85,92.77s-11-33.62-57.81-57-104.6-45.26-141.13-122.2S510.39,640.41,441.46,612.09,313.29,550.62,286.38,499.4,251.39,369.18,180,331.89,41.05,243.58,41.05,243.58L202.25,75.21s29.49,29.61,74.06,50.79,110.49,57.53,129.28,95.42,41.83,137.93,107.63,170.87,137.76,53.24,168.44,119S730.32,657,787.21,685.68C828,706.24,886.11,743.72,912,762"/><path class="cls-1" d="M851.08,860.25c-20.8-32.16-103.26-71.35-103.26-71.35s-62.29-26.27-87-77.55S605.46,562.54,538.64,531.89,410.2,495.34,371.29,412.81,331.53,284.5,262.72,246.5,186.12,202,186.12,202"/><line class="cls-1" x1="152.54" y1="181.6" x2="151.45" y2="181.63"/><path class="cls-1" d="M1298.85,1036.51a123.33,123.33,0,1,1-39.36-73.69"/><path class="cls-1" d="M1062.85,768.35s60.32-17.9,95.48,7.61,43.86,36.14,72.38,40.74,88.37-11.63,120.81,1.34,67,31.06,82.07,82.43-14.62,94-16.72,114.57c-3.72,36.46,22,74.18,29.87,97.24s3.48,77.42-23.51,109.9c-34,41-58.37,51.92-102.54,48.24s-57.78-.36-76.32,16.91-68.23,86.16-130.16,71.94-90.2-79.34-90.2-79.34-19.66-69.88-36.48-77.44-108.07-39.27-117.24-107.94,18.37-101.43,40.25-117.74,64.91-40.09,72.67-92.12S1007.76,793.18,1062.85,768.35Z"/><line class="cls-1" x1="1283.26" y1="996.9" x2="1283.5" y2="996.07"/><path class="cls-2" d="M918.84,1368.49c-93-112.15-802.65-800.88-802.65-800.88S72,535.69,64,589.72V1394s0,39.3,52.19,41.14,790.2,0,790.2,0,23.34-4.24,29.56-23.38c1.4-4.32,3.16-9.72,1.12-15.39"/><line class="cls-2" x1="148.12" y1="824.26" x2="200.31" y2="773.91"/><line class="cls-2" x1="159.78" y1="942.15" x2="263.55" y2="840.22"/><line class="cls-2" x1="148.12" y1="1082.14" x2="329.86" y2="908.38"/><line class="cls-2" x1="148.12" y1="1215.37" x2="394.94" y2="971.62"/><line class="cls-2" x1="440.99" y1="1050.82" x2="148.12" y2="1341.85"/><line class="cls-2" x1="281.35" y1="1341.85" x2="520.19" y2="1101.17"/><line class="cls-2" x1="588.35" y1="1164.41" x2="412.75" y2="1341.85"/><line class="cls-2" x1="539.23" y1="1341.85" x2="651.59" y2="1228.27"/><line class="cls-2" x1="665.71" y1="1341.85" x2="716.67" y2="1292.74"/><path class="cls-2" d="M256.18,678.75s84.73-30.7,138.76,55.25c35.51,56.5,92.1,141.84,125.25,162.71s77.37,76.48,75.22,136.79"/><path class="cls-2" d="M664,1101.17s79.67-1.23,107.91,43,62.29,127.64,62.29,127.64"/><line class="cls-1" x1="647.11" y1="1361.06" x2="646.98" y2="1360.46"/><line class="cls-1" x1="467.54" y1="1019.22" x2="467.39" y2="1018.52"/><line class="cls-1" x1="136.23" y1="959.85" x2="136.11" y2="959.25"/><path class="cls-1" d="M1343,272c.61,58.41-7.29,228-118.26,297"/><path class="cls-1" d="M923.64,541.9s-110.95-83.42-83-298.55h501.83"/><path class="cls-1" d="M1328,574l-486.09-.33S854.61,641,892.3,641h421.79s41.93-8,41.93-62.68"/><line class="cls-1" x1="1447" y1="288" x2="1344.58" y2="288.24"/><path class="cls-1" d="M1305.67,480s78.84,8.52,107.09-18.51c9.31-8.9,38-15.92,34.24-147.44"/><path class="cls-1" d="M1342,335.25h58.88s36.32,108.09-73.27,97.82"/><path class="cls-1" d="M1279.37,351.34s-1.7,88.51-54.63,135.94"/><path class="cls-1" d="M1019.77,51.09s-27.53,35.15,0,67.33,0,78.35,0,78.35"/><path class="cls-1" d="M1089.22,27.37s-27.52,35.15,0,67.34,0,78.34,0,78.34"/><path class="cls-1" d="M1158.25,55.32s-27.53,35.15,0,67.34,0,78.34,0,78.34"/><line class="cls-1" x1="1280.18" y1="319.23" x2="1280.18" y2="319.23"/></svg>