<svg id="Capa_50" data-name="Capa 50" xmlns="http://www.w3.org/2000/svg" viewBox="0 0 1500 1500"><defs><style>.cls-1{fill:none;stroke:#000;stroke-linecap:round;stroke-linejoin:round;stroke-width:22px;}</style></defs><title>Malteadas</title><path class="cls-1" d="M860.71,549.59c10.46-80.76,9.39-112.08,9.39-112.08H370.41s26.25,614.28,249.05,608.71c0,0,31.34,3.69,51.32-11.21"/><line class="cls-1" x1="569.73" y1="1046.62" x2="569.73" y2="1141.3"/><line class="cls-1" x1="670.78" y1="1057.76" x2="670.78" y2="1141.3"/><line class="cls-1" x1="444.8" y1="1141.3" x2="695.02" y2="1141.21"/><path class="cls-1" d="M709,310.6H422.52s-53.31-6.37-52.51,60.47,54.8,66.44,54.8,66.44"/><path class="cls-1" d="M850.17,437.51s53.75-115-42.53-126.91c0,0,22.28-95.48-38.19-97.08s-149.59,0-149.59,0H471.06s-33.81,2.75-45.69,44.24a107.05,107.05,0,0,0-3.73,22.17"/><path class="cls-1" d="M837.88,109.29S702.61,24.94,670.78,38.47C613.12,63,619.06,212.73,619.06,212.73"/><line class="cls-1" x1="590.13" y1="989.98" x2="589.97" y2="989.21"/><path class="cls-1" d="M556.2,963.86s-81.27-92.64-96.28-246.66"/><path class="cls-1" d="M639.29,774.21s26.26,614.27,249.06,608.7S1139,774.21,1139,774.21Z"/><line class="cls-1" x1="838.62" y1="1383.31" x2="838.62" y2="1478"/><line class="cls-1" x1="939.67" y1="1394.45" x2="939.67" y2="1478"/><line class="cls-1" x1="713.69" y1="1478" x2="1054.25" y2="1478"/><path class="cls-1" d="M977.86,647.3H691.41s-53.31-6.37-52.51,60.47,54.8,66.44,54.8,66.44"/><path class="cls-1" d="M1119.06,774.21s53.75-115-42.53-126.91c0,0,22.28-95.49-38.2-97.08s-149.59,0-149.59,0H740s-33.81,2.74-45.69,44.24a107,107,0,0,0-3.73,22.16"/><path class="cls-1" d="M1083.76,446S948.5,361.64,916.67,375.17C859,399.68,865,549.42,865,549.42"/><line class="cls-1" x1="859.02" y1="1326.68" x2="858.86" y2="1325.9"/><path class="cls-1" d="M825.09,1300.56s-81.27-92.64-96.28-246.67"/></svg>