<?xml version="1.0" encoding="utf-8"?>
<!-- Generator: Adobe Illustrator 22.1.0, SVG Export Plug-In . SVG Version: 6.00 Build 0)  -->
<svg version="1.1" xmlns="http://www.w3.org/2000/svg" xmlns:xlink="http://www.w3.org/1999/xlink" x="0px" y="0px"
	 viewBox="0 0 1500 1500" style="enable-background:new 0 0 1500 1500;" xml:space="preserve">
<style type="text/css">
	.st0{display:none;}
	.st1{display:inline;opacity:0.2;fill:#FDD900;}
	.st2{display:inline;}
	.st3{fill:none;stroke:#114A82;stroke-width:2;stroke-miterlimit:10;}
	.st4{display:inline;opacity:0.2;}
	.st5{opacity:0.2;}
	.st6{clip-path:url(#SVGID_2_);fill:#8F1A1D;}
	.st7{clip-path:url(#SVGID_2_);fill:#EC1C2C;}
	.st8{clip-path:url(#SVGID_2_);fill:#F39B73;}
	.st9{clip-path:url(#SVGID_2_);fill:#5EAAA3;}
	.st10{display:inline;fill:#544747;}
	.st11{fill:#FBAB18;}
	.st12{fill:#F5831F;}
	.st13{fill:#6CC4E8;}
	.st14{fill:#EC008C;}
	.st15{fill:#642A85;}
</style>
<g id="Desayunos" class="st0">
	<polygon class="st1" points="445.7,70 97.3,430.1 101.3,434.2 449.7,74.2 	"/>
	<polygon class="st1" points="550.5,29.1 57.6,538.3 61.7,542.5 554.5,33.2 	"/>
	<polygon class="st1" points="650.9,6.8 36,642.1 40.1,646.3 655,10.9 	"/>
	<polygon class="st1" points="722.7,0 29.5,716.2 33.5,720.4 726.7,4.1 	"/>
	<polygon class="st1" points="30.3,796.8 34.4,800.9 804.7,5 800.7,0.9 	"/>
	<polygon class="st1" points="859.6,7.3 36.5,857.7 40.6,861.9 863.7,11.4 	"/>
	<polygon class="st1" points="925.6,20.6 49.4,925.9 53.4,930.1 929.6,24.7 	"/>
	<polygon class="st1" points="976.4,35.4 63.8,978.4 67.8,982.6 980.4,39.6 	"/>
	<polygon class="st1" points="1034,57.4 85.1,1037.9 89.1,1042 1038,61.6 	"/>
	<polygon class="st1" points="1078.6,78.7 105.6,1083.9 109.7,1088.1 1082.6,82.8 	"/>
	<polygon class="st1" points="1129.3,107.7 133.7,1136.4 137.7,1140.5 1133.4,111.9 	"/>
	<polygon class="st1" points="1168.7,134.3 159.5,1177.1 163.5,1181.3 1172.8,138.5 	"/>
	<polygon class="st1" points="1213.6,169.5 193.5,1223.4 197.5,1227.6 1217.6,173.6 	"/>
	<polygon class="st1" points="1248.3,201 224,1259.3 228,1263.4 1252.3,205.1 	"/>
	<polygon class="st1" points="1287.5,241.9 263.6,1299.8 267.6,1304 1291.5,246 	"/>
	<polygon class="st1" points="1317.7,278.1 298.6,1331 302.6,1335.1 1321.7,282.2 	"/>
	<polygon class="st1" points="1351.3,324.7 343.8,1365.8 347.8,1369.9 1355.3,328.9 	"/>
	<polygon class="st1" points="1404.5,418.6 434.7,1420.7 438.7,1424.8 1408.5,422.8 	"/>
	<polygon class="st1" points="1376.8,365.8 383.5,1392 387.5,1396.2 1380.8,370 	"/>
	<polygon class="st1" points="1445.5,525 537.6,1463.1 541.6,1467.3 1449.6,529.2 	"/>
	<polygon class="st1" points="1424.7,465.1 479.6,1441.5 483.7,1445.7 1428.7,469.3 	"/>
	<polygon class="st1" points="655.5,1490.1 659.5,1494.2 1475.6,651 1471.6,646.9 	"/>
	<polygon class="st1" points="1459.5,578 588.9,1477.5 592.9,1481.6 1463.5,582.1 	"/>
	<polygon class="st1" points="794.1,1495.7 798.1,1499.9 1481.1,794.2 1477.1,790 	"/>
	<polygon class="st1" points="715.1,1495.9 719.1,1500 1481.2,712.6 1477.2,708.4 	"/>
	<polygon class="st1" points="1445.4,971.5 969.8,1463 973.8,1467.1 1449.4,975.7 	"/>
	<polygon class="st1" points="1469.4,865.3 867,1487.7 871,1491.9 1473.4,869.5 	"/>
	<polygon class="st1" points="1401,1084.8 1079.4,1417.1 1083.4,1421.2 1405,1089 	"/>
</g>
<g id="Temporada" class="st0">
	<g class="st2">
		<path class="st3" d="M1146.5,237.5c25.2-45.1,10.2-102.8-33.4-128.8c-43.6-26-99.4-10.6-124.6,34.5
			c-25.2,45.1-10.2,102.8,33.4,128.8S1121.4,282.7,1146.5,237.5z M1342.2,508.9c43.6-26,58.6-83.7,33.4-128.8
			c-25.2-45.1-81-60.6-124.6-34.5c-43.6,26-58.6,83.7-33.4,128.8C1242.8,519.5,1298.6,535,1342.2,508.9z M1380.4,845.1
			c50.4,0,91.2-42.2,91.2-94.3c0-52.1-40.8-94.3-91.2-94.3c-50.4,0-91.2,42.2-91.2,94.3C1289.2,802.9,1330.1,845.1,1380.4,845.1z
			 M1251,1156c43.6,26,99.4,10.6,124.6-34.5c25.2-45.1,10.2-102.8-33.4-128.8c-43.6-26-99.4-10.6-124.6,34.5
			C1192.4,1072.3,1207.4,1130,1251,1156z M988.6,1358.4c25.2,45.1,81,60.6,124.6,34.5c43.6-26,58.6-83.7,33.4-128.8
			c-25.2-45.1-81-60.6-124.6-34.5C978.3,1255.6,963.4,1313.3,988.6,1358.4z M663.5,1397.9c0,52.1,40.8,94.3,91.2,94.3
			c50.4,0,91.2-42.2,91.2-94.3c0-52.1-40.8-94.3-91.2-94.3C704.3,1303.6,663.5,1345.8,663.5,1397.9z M362.9,1264
			c-25.2,45.1-10.2,102.8,33.4,128.8c43.6,26,99.4,10.6,124.6-34.5c25.2-45.1,10.2-102.8-33.4-128.8
			C443.8,1203.5,388,1218.9,362.9,1264z M167.2,992.7c-43.6,26-58.6,83.7-33.4,128.8c25.2,45.1,81,60.6,124.6,34.5
			c43.6-26,58.6-83.7,33.4-128.8C266.6,982.1,210.8,966.6,167.2,992.7z M129,656.5c-50.4,0-91.2,42.2-91.2,94.3
			c0,52.1,40.8,94.3,91.2,94.3c50.4,0,91.2-42.2,91.2-94.3C220.2,698.7,179.4,656.5,129,656.5z M258.4,345.6
			c-43.6-26-99.4-10.6-124.6,34.5c-25.2,45.1-10.2,102.8,33.4,128.8c43.6,26,99.4,10.6,124.6-34.5C317,429.3,302,371.6,258.4,345.6z
			 M520.8,143.2c-25.2-45.1-81-60.6-124.6-34.5c-43.6,26-58.6,83.7-33.4,128.8s81,60.6,124.6,34.5C531.1,246,546,188.3,520.8,143.2z
			 M1079.5,630.3c40.7-30.6,49.8-89.6,20.2-131.7c-29.6-42.1-86.6-51.5-127.4-20.9c-40.7,30.6-49.8,89.6-20.2,131.7
			C981.7,651.6,1038.8,660.9,1079.5,630.3z M1054.9,938.6c48.7,13.5,98.7-16.4,111.7-66.7c13-50.3-15.8-102-64.5-115.5
			c-48.7-13.5-98.7,16.4-111.7,66.7C977.4,873.4,1006.3,925.1,1054.9,938.6z M807.7,1112.9c20.5,47.6,74.4,69,120.4,47.8
			c46-21.2,66.7-76.9,46.2-124.5c-20.5-47.6-74.4-69-120.4-47.8C808,1009.5,787.3,1065.3,807.7,1112.9z M521.3,1023.9
			c-22.9,46.4-5,103.2,39.9,126.9c44.9,23.7,99.8,5.2,122.7-41.2c22.9-46.4,5-103.2-39.9-126.9C599,959,544.1,977.5,521.3,1023.9z
			 M407.8,737.6c-49.3,10.8-80.7,60.9-70.2,111.9c10.5,50.9,58.9,83.5,108.2,72.6c49.3-10.8,80.7-60.9,70.2-111.9
			C505.5,759.3,457.1,726.8,407.8,737.6z M551.6,466.3c-39.1-32.8-96.6-26.5-128.3,13.9c-31.7,40.5-25.7,99.9,13.5,132.6
			c39.1,32.8,96.6,26.5,128.3-13.9C596.7,558.5,590.7,499.1,551.6,466.3z M845.9,757.8c0-52.1-40.8-94.3-91.2-94.3
			c-50.4,0-91.2,42.2-91.2,94.3c0,52.1,40.8,94.3,91.2,94.3C805.1,852.1,845.9,809.9,845.9,757.8z M845.9,411.1
			c0-52.1-40.8-94.3-91.2-94.3c-50.4,0-91.2,42.2-91.2,94.3s40.8,94.3,91.2,94.3C805.1,505.4,845.9,463.2,845.9,411.1z M845.9,103.7
			c0-52.1-40.8-94.3-91.2-94.3c-50.4,0-91.2,42.2-91.2,94.3c0,52.1,40.8,94.3,91.2,94.3C805.1,198,845.9,155.8,845.9,103.7z"/>
	</g>
</g>
<g id="Kids" class="st0">
	<g class="st4">
		<defs>
			<path id="SVGID_1_" class="st5" d="M6,747.5C6,1154.3,339,1484,749.8,1484c410.8,0,743.8-329.7,743.8-736.5
				c0-406.8-333-736.5-743.8-736.5C339,11,6,340.7,6,747.5"/>
		</defs>
		<clipPath id="SVGID_2_">
			<use xlink:href="#SVGID_1_"  style="overflow:visible;"/>
		</clipPath>
		<polygon class="st6" points="1464,311.1 1347.5,231.1 1347.5,194.6 1464,274.7 		"/>
		<polygon class="st6" points="1464,311.1 1580.6,231.1 1580.6,194.6 1464,274.7 		"/>
		<polygon class="st6" points="1464,1476.5 1347.5,1396.5 1347.5,1360 1464,1440.1 		"/>
		<polygon class="st6" points="1464,1476.5 1580.6,1396.5 1580.6,1360 1464,1440.1 		"/>
		<polygon class="st6" points="1464,893.8 1347.5,813.8 1347.5,777.3 1464,857.4 		"/>
		<polygon class="st6" points="1464,893.8 1580.6,813.8 1580.6,777.3 1464,857.4 		"/>
		<polygon class="st6" points="997.9,544.2 881.3,464.2 881.3,427.6 997.9,507.8 		"/>
		<polygon class="st6" points="997.9,544.2 1114.4,464.2 1114.4,427.6 997.9,507.8 		"/>
		<polygon class="st6" points="764.8,660.7 648.3,580.7 648.3,544.2 764.8,624.3 		"/>
		<polygon class="st6" points="764.8,660.7 881.3,580.7 881.3,544.2 764.8,624.3 		"/>
		<polygon class="st6" points="1231,427.7 1114.4,347.6 1114.4,311.1 1231,391.2 		"/>
		<polygon class="st6" points="1231,427.7 1347.5,347.6 1347.5,311.1 1231,391.2 		"/>
		<polygon class="st6" points="764.8,78 648.3,-2 648.3,-38.5 764.8,41.6 		"/>
		<polygon class="st6" points="764.8,78 881.3,-2 881.3,-38.5 764.8,41.6 		"/>
		<polygon class="st6" points="531.7,194.6 415.2,114.5 415.2,78 531.7,158.2 		"/>
		<polygon class="st6" points="531.7,194.6 648.3,114.5 648.3,78 531.7,158.2 		"/>
		<polygon class="st6" points="298.6,311.1 182.1,231.1 182.1,194.6 298.6,274.7 		"/>
		<polygon class="st6" points="298.6,311.1 415.2,231.1 415.2,194.6 298.6,274.7 		"/>
		<polygon class="st6" points="1231,1593.1 1114.4,1513 1114.4,1476.5 1231,1556.6 		"/>
		<polygon class="st6" points="1231,1593.1 1347.5,1513 1347.5,1476.5 1231,1556.6 		"/>
		<polygon class="st6" points="997.9,1126.9 881.3,1046.9 881.3,1010.3 997.9,1090.5 		"/>
		<polygon class="st6" points="997.9,1126.9 1114.4,1046.9 1114.4,1010.3 997.9,1090.5 		"/>
		<polygon class="st6" points="764.8,1243.4 648.3,1163.4 648.3,1126.9 764.8,1207 		"/>
		<polygon class="st6" points="764.8,1243.4 881.3,1163.4 881.3,1126.9 764.8,1207 		"/>
		<polygon class="st6" points="531.7,1360 415.2,1279.9 415.2,1243.4 531.7,1323.6 		"/>
		<polygon class="st6" points="531.7,1360 648.3,1279.9 648.3,1243.4 531.7,1323.6 		"/>
		<polygon class="st6" points="298.6,1476.5 182.1,1396.5 182.1,1360 298.6,1440.1 		"/>
		<polygon class="st6" points="298.6,1476.5 415.2,1396.5 415.2,1360 298.6,1440.1 		"/>
		<polygon class="st6" points="1231,1010.4 1114.4,930.3 1114.4,893.8 1231,973.9 		"/>
		<polygon class="st6" points="1231,1010.4 1347.5,930.3 1347.5,893.8 1231,973.9 		"/>
		<polygon class="st6" points="764.8,660.7 648.3,580.7 648.3,544.2 764.8,624.3 		"/>
		<polygon class="st6" points="764.8,660.7 881.3,580.7 881.3,544.2 764.8,624.3 		"/>
		<polygon class="st6" points="531.7,777.3 415.2,697.2 415.2,660.7 531.7,740.9 		"/>
		<polygon class="st6" points="531.7,777.3 648.3,697.2 648.3,660.7 531.7,740.9 		"/>
		<polygon class="st6" points="298.6,893.8 182.1,813.8 182.1,777.3 298.6,857.4 		"/>
		<polygon class="st6" points="298.6,893.8 415.2,813.8 415.2,777.3 298.6,857.4 		"/>
		<polygon class="st6" points="65.6,427.7 -51,347.6 -51,311.1 65.6,391.2 		"/>
		<polygon class="st6" points="65.6,427.7 182.1,347.6 182.1,311.1 65.6,391.2 		"/>
		<polygon class="st6" points="65.6,1593.1 -51,1513 -51,1476.5 65.6,1556.6 		"/>
		<polygon class="st6" points="65.6,1593.1 182.1,1513 182.1,1476.5 65.6,1556.6 		"/>
		<polygon class="st6" points="65.6,1010.4 -51,930.3 -51,893.8 65.6,973.9 		"/>
		<polygon class="st6" points="65.6,1010.4 182.1,930.3 182.1,893.8 65.6,973.9 		"/>
		<polygon class="st7" points="1464,427.7 1347.5,347.6 1347.5,311.1 1464,391.2 		"/>
		<polygon class="st7" points="1464,427.7 1580.6,347.6 1580.6,311.1 1464,391.2 		"/>
		<polygon class="st7" points="1464,1593.1 1347.5,1513 1347.5,1476.5 1464,1556.6 		"/>
		<polygon class="st7" points="1464,1593.1 1580.6,1513 1580.6,1476.5 1464,1556.6 		"/>
		<polygon class="st7" points="1464,1010.4 1347.5,930.3 1347.5,893.8 1464,973.9 		"/>
		<polygon class="st7" points="1464,1010.4 1580.6,930.3 1580.6,893.8 1464,973.9 		"/>
		<polygon class="st7" points="298.6,427.7 182.1,347.6 182.1,311.1 298.6,391.2 		"/>
		<polygon class="st7" points="298.6,427.7 415.2,347.6 415.2,311.1 298.6,391.2 		"/>
		<polygon class="st7" points="997.9,660.7 881.3,580.7 881.3,544.2 997.9,624.3 		"/>
		<polygon class="st7" points="997.9,660.7 1114.4,580.7 1114.4,544.2 997.9,624.3 		"/>
		<polygon class="st7" points="1231,544.2 1114.4,464.2 1114.4,427.6 1231,507.8 		"/>
		<polygon class="st7" points="1231,544.2 1347.5,464.2 1347.5,427.6 1231,507.8 		"/>
		<polygon class="st7" points="997.9,78 881.3,-2 881.3,-38.5 997.9,41.6 		"/>
		<polygon class="st7" points="997.9,78 1114.4,-2 1114.4,-38.5 997.9,41.6 		"/>
		<polygon class="st7" points="764.8,194.6 648.3,114.5 648.3,78 764.8,158.2 		"/>
		<polygon class="st7" points="764.8,194.6 881.3,114.5 881.3,78 764.8,158.2 		"/>
		<polygon class="st7" points="531.7,311.1 415.2,231.1 415.2,194.6 531.7,274.7 		"/>
		<polygon class="st7" points="531.7,311.1 648.3,231.1 648.3,194.6 531.7,274.7 		"/>
		<polygon class="st7" points="298.6,1593.1 182.1,1513 182.1,1476.5 298.6,1556.6 		"/>
		<polygon class="st7" points="298.6,1593.1 415.2,1513 415.2,1476.5 298.6,1556.6 		"/>
		<polygon class="st7" points="298.6,1010.4 182.1,930.3 182.1,893.8 298.6,973.9 		"/>
		<polygon class="st7" points="298.6,1010.4 415.2,930.3 415.2,893.8 298.6,973.9 		"/>
		<polygon class="st7" points="997.9,1243.4 881.3,1163.4 881.3,1126.9 997.9,1207 		"/>
		<polygon class="st7" points="997.9,1243.4 1114.4,1163.4 1114.4,1126.9 997.9,1207 		"/>
		<polygon class="st7" points="764.8,1360 648.3,1279.9 648.3,1243.4 764.8,1323.6 		"/>
		<polygon class="st7" points="764.8,1360 881.3,1279.9 881.3,1243.4 764.8,1323.6 		"/>
		<polygon class="st7" points="531.7,1476.5 415.2,1396.5 415.2,1360 531.7,1440.1 		"/>
		<polygon class="st7" points="531.7,1476.5 648.3,1396.5 648.3,1360 531.7,1440.1 		"/>
		<polygon class="st7" points="1231,1126.9 1114.4,1046.9 1114.4,1010.3 1231,1090.5 		"/>
		<polygon class="st7" points="1231,1126.9 1347.5,1046.9 1347.5,1010.3 1231,1090.5 		"/>
		<polygon class="st7" points="997.9,660.7 881.3,580.7 881.3,544.2 997.9,624.3 		"/>
		<polygon class="st7" points="997.9,660.7 1114.4,580.7 1114.4,544.2 997.9,624.3 		"/>
		<polygon class="st7" points="764.8,777.3 648.3,697.2 648.3,660.7 764.8,740.9 		"/>
		<polygon class="st7" points="764.8,777.3 881.3,697.2 881.3,660.7 764.8,740.9 		"/>
		<polygon class="st7" points="531.7,893.8 415.2,813.8 415.2,777.3 531.7,857.4 		"/>
		<polygon class="st7" points="531.7,893.8 648.3,813.8 648.3,777.3 531.7,857.4 		"/>
		<polygon class="st7" points="65.6,544.2 -51,464.2 -51,427.6 65.6,507.8 		"/>
		<polygon class="st7" points="65.6,544.2 182.1,464.2 182.1,427.6 65.6,507.8 		"/>
		<polygon class="st7" points="65.6,1126.9 -51,1046.9 -51,1010.3 65.6,1090.5 		"/>
		<polygon class="st7" points="65.6,1126.9 182.1,1046.9 182.1,1010.3 65.6,1090.5 		"/>
		<polygon class="st8" points="1464,544.2 1347.5,464.2 1347.5,427.6 1464,507.8 		"/>
		<polygon class="st8" points="1464,544.2 1580.6,464.2 1580.6,427.6 1464,507.8 		"/>
		<polygon class="st8" points="1464,1126.9 1347.5,1046.9 1347.5,1010.3 1464,1090.5 		"/>
		<polygon class="st8" points="1464,1126.9 1580.6,1046.9 1580.6,1010.3 1464,1090.5 		"/>
		<polygon class="st8" points="531.7,427.7 415.2,347.6 415.2,311.1 531.7,391.2 		"/>
		<polygon class="st8" points="531.7,427.7 648.3,347.6 648.3,311.1 531.7,391.2 		"/>
		<polygon class="st8" points="298.6,544.2 182.1,464.2 182.1,427.6 298.6,507.8 		"/>
		<polygon class="st8" points="298.6,544.2 415.2,464.2 415.2,427.6 298.6,507.8 		"/>
		<polygon class="st8" points="1231,660.7 1114.4,580.7 1114.4,544.2 1231,624.3 		"/>
		<polygon class="st8" points="1231,660.7 1347.5,580.7 1347.5,544.2 1231,624.3 		"/>
		<polygon class="st8" points="997.9,194.6 881.3,114.5 881.3,78 997.9,158.2 		"/>
		<polygon class="st8" points="997.9,194.6 1114.4,114.5 1114.4,78 997.9,158.2 		"/>
		<polygon class="st8" points="764.8,311.1 648.3,231.1 648.3,194.6 764.8,274.7 		"/>
		<polygon class="st8" points="764.8,311.1 881.3,231.1 881.3,194.6 764.8,274.7 		"/>
		<polygon class="st8" points="1231,78 1114.4,-2 1114.4,-38.5 1231,41.6 		"/>
		<polygon class="st8" points="1231,78 1347.5,-2 1347.5,-38.5 1231,41.6 		"/>
		<polygon class="st8" points="531.7,1593.1 415.2,1513 415.2,1476.5 531.7,1556.6 		"/>
		<polygon class="st8" points="531.7,1593.1 648.3,1513 648.3,1476.5 531.7,1556.6 		"/>
		<polygon class="st8" points="531.7,1010.4 415.2,930.3 415.2,893.8 531.7,973.9 		"/>
		<polygon class="st8" points="531.7,1010.4 648.3,930.3 648.3,893.8 531.7,973.9 		"/>
		<polygon class="st8" points="298.6,1126.9 182.1,1046.9 182.1,1010.3 298.6,1090.5 		"/>
		<polygon class="st8" points="298.6,1126.9 415.2,1046.9 415.2,1010.3 298.6,1090.5 		"/>
		<polygon class="st8" points="997.9,1360 881.3,1279.9 881.3,1243.4 997.9,1323.6 		"/>
		<polygon class="st8" points="997.9,1360 1114.4,1279.9 1114.4,1243.4 997.9,1323.6 		"/>
		<polygon class="st8" points="764.8,1476.5 648.3,1396.5 648.3,1360 764.8,1440.1 		"/>
		<polygon class="st8" points="764.8,1476.5 881.3,1396.5 881.3,1360 764.8,1440.1 		"/>
		<polygon class="st8" points="1231,1243.4 1114.4,1163.4 1114.4,1126.9 1231,1207 		"/>
		<polygon class="st8" points="1231,1243.4 1347.5,1163.4 1347.5,1126.9 1231,1207 		"/>
		<polygon class="st8" points="997.9,777.3 881.3,697.2 881.3,660.7 997.9,740.9 		"/>
		<polygon class="st8" points="997.9,777.3 1114.4,697.2 1114.4,660.7 997.9,740.9 		"/>
		<polygon class="st8" points="764.8,893.8 648.3,813.8 648.3,777.3 764.8,857.4 		"/>
		<polygon class="st8" points="764.8,893.8 881.3,813.8 881.3,777.3 764.8,857.4 		"/>
		<polygon class="st8" points="1231,660.7 1114.4,580.7 1114.4,544.2 1231,624.3 		"/>
		<polygon class="st8" points="1231,660.7 1347.5,580.7 1347.5,544.2 1231,624.3 		"/>
		<polygon class="st8" points="65.6,660.7 -51,580.7 -51,544.2 65.6,624.3 		"/>
		<polygon class="st8" points="65.6,660.7 182.1,580.7 182.1,544.2 65.6,624.3 		"/>
		<polygon class="st8" points="65.6,78 -51,-2 -51,-38.5 65.6,41.6 		"/>
		<polygon class="st8" points="65.6,78 182.1,-2 182.1,-38.5 65.6,41.6 		"/>
		<polygon class="st8" points="65.6,1243.4 -51,1163.4 -51,1126.9 65.6,1207 		"/>
		<polygon class="st8" points="65.6,1243.4 182.1,1163.4 182.1,1126.9 65.6,1207 		"/>
		<polygon class="st8" points="65.6,660.7 -51,580.7 -51,544.2 65.6,624.3 		"/>
		<polygon class="st8" points="65.6,660.7 182.1,580.7 182.1,544.2 65.6,624.3 		"/>
		<polygon class="st9" points="1464,660.7 1347.5,580.7 1347.5,544.2 1464,624.3 		"/>
		<polygon class="st7" points="1464,78 1347.5,-2 1347.5,-38.5 1464,41.6 		"/>
		<polygon class="st7" points="1464,1243.4 1347.5,1163.4 1347.5,1126.9 1464,1207 		"/>
		<polygon class="st7" points="1464,660.7 1347.5,580.7 1347.5,544.2 1464,624.3 		"/>
		<polygon class="st9" points="298.6,660.7 182.1,580.7 182.1,544.2 298.6,624.3 		"/>
		<polygon class="st7" points="298.6,78 182.1,-2 182.1,-38.5 298.6,41.6 		"/>
		<polygon class="st7" points="298.6,1243.4 182.1,1163.4 182.1,1126.9 298.6,1207 		"/>
		<polygon class="st7" points="298.6,660.7 182.1,580.7 182.1,544.2 298.6,624.3 		"/>
		<polygon class="st7" points="1464,660.7 1580.6,580.7 1580.6,544.2 1464,624.3 		"/>
		<polygon class="st7" points="1464,78 1580.6,-2 1580.6,-38.5 1464,41.6 		"/>
		<polygon class="st7" points="1464,1243.4 1580.6,1163.4 1580.6,1126.9 1464,1207 		"/>
		<polygon class="st7" points="1464,660.7 1580.6,580.7 1580.6,544.2 1464,624.3 		"/>
		<polygon class="st7" points="764.8,427.7 648.3,347.6 648.3,311.1 764.8,391.2 		"/>
		<polygon class="st7" points="764.8,427.7 881.3,347.6 881.3,311.1 764.8,391.2 		"/>
		<polygon class="st7" points="531.7,544.2 415.2,464.2 415.2,427.6 531.7,507.8 		"/>
		<polygon class="st7" points="531.7,544.2 648.3,464.2 648.3,427.6 531.7,507.8 		"/>
		<polygon class="st7" points="298.6,660.7 415.2,580.7 415.2,544.2 298.6,624.3 		"/>
		<polygon class="st7" points="298.6,78 415.2,-2 415.2,-38.5 298.6,41.6 		"/>
		<polygon class="st7" points="997.9,311.1 881.3,231.1 881.3,194.6 997.9,274.7 		"/>
		<polygon class="st7" points="997.9,311.1 1114.4,231.1 1114.4,194.6 997.9,274.7 		"/>
		<polygon class="st7" points="1231,194.6 1114.4,114.5 1114.4,78 1231,158.2 		"/>
		<polygon class="st7" points="1231,194.6 1347.5,114.5 1347.5,78 1231,158.2 		"/>
		<polygon class="st7" points="764.8,1593.1 648.3,1513 648.3,1476.5 764.8,1556.6 		"/>
		<polygon class="st7" points="764.8,1593.1 881.3,1513 881.3,1476.5 764.8,1556.6 		"/>
		<polygon class="st7" points="764.8,1010.4 648.3,930.3 648.3,893.8 764.8,973.9 		"/>
		<polygon class="st7" points="764.8,1010.4 881.3,930.3 881.3,893.8 764.8,973.9 		"/>
		<polygon class="st7" points="531.7,1126.9 415.2,1046.9 415.2,1010.3 531.7,1090.5 		"/>
		<polygon class="st7" points="531.7,1126.9 648.3,1046.9 648.3,1010.3 531.7,1090.5 		"/>
		<polygon class="st7" points="298.6,1243.4 415.2,1163.4 415.2,1126.9 298.6,1207 		"/>
		<polygon class="st7" points="997.9,1476.5 881.3,1396.5 881.3,1360 997.9,1440.1 		"/>
		<polygon class="st7" points="997.9,1476.5 1114.4,1396.5 1114.4,1360 997.9,1440.1 		"/>
		<polygon class="st7" points="1231,1360 1114.4,1279.9 1114.4,1243.4 1231,1323.6 		"/>
		<polygon class="st7" points="1231,1360 1347.5,1279.9 1347.5,1243.4 1231,1323.6 		"/>
		<polygon class="st7" points="298.6,660.7 415.2,580.7 415.2,544.2 298.6,624.3 		"/>
		<polygon class="st7" points="997.9,893.8 881.3,813.8 881.3,777.3 997.9,857.4 		"/>
		<polygon class="st7" points="997.9,893.8 1114.4,813.8 1114.4,777.3 997.9,857.4 		"/>
		<polygon class="st7" points="1231,777.3 1114.4,697.2 1114.4,660.7 1231,740.9 		"/>
		<polygon class="st7" points="1231,777.3 1347.5,697.2 1347.5,660.7 1231,740.9 		"/>
		<polygon class="st7" points="65.6,194.6 -51,114.5 -51,78 65.6,158.2 		"/>
		<polygon class="st7" points="65.6,194.6 182.1,114.5 182.1,78 65.6,158.2 		"/>
		<polygon class="st7" points="65.6,1360 -51,1279.9 -51,1243.4 65.6,1323.6 		"/>
		<polygon class="st7" points="65.6,1360 182.1,1279.9 182.1,1243.4 65.6,1323.6 		"/>
		<polygon class="st7" points="65.6,777.3 -51,697.2 -51,660.7 65.6,740.9 		"/>
		<polygon class="st7" points="65.6,777.3 182.1,697.2 182.1,660.7 65.6,740.9 		"/>
		<polygon class="st7" points="1464,194.6 1347.5,114.5 1347.5,78 1464,158.2 		"/>
		<polygon class="st7" points="1464,194.6 1580.6,114.5 1580.6,78 1464,158.2 		"/>
		<polygon class="st7" points="1464,1360 1347.5,1279.9 1347.5,1243.4 1464,1323.6 		"/>
		<polygon class="st7" points="1464,1360 1580.6,1279.9 1580.6,1243.4 1464,1323.6 		"/>
		<polygon class="st7" points="1464,777.3 1347.5,697.2 1347.5,660.7 1464,740.9 		"/>
		<polygon class="st7" points="1464,777.3 1580.6,697.2 1580.6,660.7 1464,740.9 		"/>
		<polygon class="st7" points="997.9,427.7 881.3,347.6 881.3,311.1 997.9,391.2 		"/>
		<polygon class="st7" points="997.9,427.7 1114.4,347.6 1114.4,311.1 997.9,391.2 		"/>
		<polygon class="st7" points="764.8,544.2 648.3,464.2 648.3,427.6 764.8,507.8 		"/>
		<polygon class="st7" points="764.8,544.2 881.3,464.2 881.3,427.6 764.8,507.8 		"/>
		<polygon class="st7" points="531.7,660.7 415.2,580.7 415.2,544.2 531.7,624.3 		"/>
		<polygon class="st7" points="531.7,660.7 648.3,580.7 648.3,544.2 531.7,624.3 		"/>
		<polygon class="st7" points="531.7,78 415.2,-2 415.2,-38.5 531.7,41.6 		"/>
		<polygon class="st7" points="531.7,78 648.3,-2 648.3,-38.5 531.7,41.6 		"/>
		<polygon class="st7" points="298.6,194.6 182.1,114.5 182.1,78 298.6,158.2 		"/>
		<polygon class="st7" points="298.6,194.6 415.2,114.5 415.2,78 298.6,158.2 		"/>
		<polygon class="st7" points="1231,311.1 1114.4,231.1 1114.4,194.6 1231,274.7 		"/>
		<polygon class="st7" points="1231,311.1 1347.5,231.1 1347.5,194.6 1231,274.7 		"/>
		<polygon class="st7" points="997.9,1593.1 881.3,1513 881.3,1476.5 997.9,1556.6 		"/>
		<polygon class="st7" points="997.9,1593.1 1114.4,1513 1114.4,1476.5 997.9,1556.6 		"/>
		<polygon class="st7" points="997.9,1010.4 881.3,930.3 881.3,893.8 997.9,973.9 		"/>
		<polygon class="st7" points="997.9,1010.4 1114.4,930.3 1114.4,893.8 997.9,973.9 		"/>
		<polygon class="st7" points="764.8,1126.9 648.3,1046.9 648.3,1010.3 764.8,1090.5 		"/>
		<polygon class="st7" points="764.8,1126.9 881.3,1046.9 881.3,1010.3 764.8,1090.5 		"/>
		<polygon class="st7" points="531.7,1243.4 415.2,1163.4 415.2,1126.9 531.7,1207 		"/>
		<polygon class="st7" points="531.7,1243.4 648.3,1163.4 648.3,1126.9 531.7,1207 		"/>
		<polygon class="st7" points="298.6,1360 182.1,1279.9 182.1,1243.4 298.6,1323.6 		"/>
		<polygon class="st7" points="298.6,1360 415.2,1279.9 415.2,1243.4 298.6,1323.6 		"/>
		<polygon class="st7" points="1231,1476.5 1114.4,1396.5 1114.4,1360 1231,1440.1 		"/>
		<polygon class="st7" points="1231,1476.5 1347.5,1396.5 1347.5,1360 1231,1440.1 		"/>
		<polygon class="st7" points="531.7,660.7 415.2,580.7 415.2,544.2 531.7,624.3 		"/>
		<polygon class="st7" points="531.7,660.7 648.3,580.7 648.3,544.2 531.7,624.3 		"/>
		<polygon class="st7" points="298.6,777.3 182.1,697.2 182.1,660.7 298.6,740.9 		"/>
		<polygon class="st7" points="298.6,777.3 415.2,697.2 415.2,660.7 298.6,740.9 		"/>
		<polygon class="st7" points="1231,893.8 1114.4,813.8 1114.4,777.3 1231,857.4 		"/>
		<polygon class="st7" points="1231,893.8 1347.5,813.8 1347.5,777.3 1231,857.4 		"/>
		<polygon class="st7" points="65.6,311.1 -51,231.1 -51,194.6 65.6,274.7 		"/>
		<polygon class="st7" points="65.6,311.1 182.1,231.1 182.1,194.6 65.6,274.7 		"/>
		<polygon class="st7" points="65.6,1476.5 -51,1396.5 -51,1360 65.6,1440.1 		"/>
		<polygon class="st7" points="65.6,1476.5 182.1,1396.5 182.1,1360 65.6,1440.1 		"/>
		<polygon class="st7" points="65.6,893.8 -51,813.8 -51,777.3 65.6,857.4 		"/>
		<polygon class="st7" points="65.6,893.8 182.1,813.8 182.1,777.3 65.6,857.4 		"/>
	</g>
</g>
<g id="Comidas_y_Cenas" class="st0">
	<path class="st10" d="M1060.9,176.3c18-48.8-7.3-102.6-56.4-120.2c-49.2-17.6-103.6,7.6-121.6,56.3c-18,48.8,7.3,102.6,56.4,120.2
		C988.4,250.3,1042.9,225.1,1060.9,176.3 M1308.2,406.9c40.2-33.4,45.5-92.6,11.9-132.3c-33.6-39.7-93.4-44.7-133.6-11.3
		c-40.2,33.4-45.5,92.6-11.9,132.3C1208.2,435.2,1268,440.3,1308.2,406.9 M1405.4,729.5c51.6-9.1,86.1-57.9,77.1-108.9
		c-9-51-58.1-85-109.7-76c-51.6,9.1-86.1,57.9-77.1,108.9C1304.7,704.5,1353.9,738.5,1405.4,729.5 M1326.6,1057.5
		c49.2,17.6,103.6-7.6,121.6-56.3c18-48.8-7.3-102.6-56.5-120.2c-49.2-17.6-103.6,7.6-121.6,56.3
		C1252.2,986,1277.4,1039.9,1326.6,1057.5 M1092.8,1303.2c33.6,39.7,93.4,44.7,133.6,11.3c40.2-33.4,45.5-92.6,11.9-132.3
		c-33.6-39.7-93.4-44.7-133.6-11.3C1064.5,1204.3,1059.2,1263.5,1092.8,1303.2 M766.6,1400.6c9,51,58.1,85,109.7,76
		c51.6-9.1,86.1-57.9,77.1-108.9c-9-51-58.1-85-109.7-76C792.2,1300.9,757.6,1349.6,766.6,1400.6 M435.6,1323.8
		c-18,48.8,7.3,102.6,56.5,120.2c49.2,17.6,103.6-7.6,121.6-56.3c18-48.8-7.3-102.6-56.4-120.2C508,1249.8,453.6,1275,435.6,1323.8
		 M188.3,1093.2c-40.2,33.4-45.5,92.6-11.9,132.3c33.6,39.7,93.4,44.7,133.6,11.3c40.2-33.4,45.5-92.6,11.9-132.3
		C288.3,1064.8,228.5,1059.8,188.3,1093.2 M91,770.6c-51.6,9.1-86.1,57.8-77.1,108.9c9,51,58.1,85,109.7,75.9
		c51.6-9.1,86.1-57.8,77.1-108.9C191.7,795.5,142.6,761.5,91,770.6 M169.9,442.6c-49.2-17.6-103.6,7.6-121.6,56.3
		c-18,48.8,7.3,102.6,56.5,120.2c49.2,17.6,103.6-7.6,121.6-56.3C244.3,514,219.1,460.2,169.9,442.6 M403.7,196.9
		c-33.6-39.7-93.4-44.7-133.6-11.3c-40.2,33.4-45.5,92.6-11.9,132.3c33.6,39.7,93.4,44.7,133.6,11.3
		C431.9,295.8,437.3,236.5,403.7,196.9 M1060.1,573.3c36.4-37.4,35.5-96.8-2.1-132.7c-37.6-36-97.6-34.8-134.1,2.6
		c-36.5,37.4-35.5,96.8,2.1,132.7C963.6,611.8,1023.7,610.7,1060.1,573.3 M1088.2,879.9c52.2,4.4,98.2-33.9,102.9-85.5
		c4.7-51.7-33.8-97.1-86-101.6c-52.2-4.4-98.2,33.9-102.9,85.5C997.5,830,1036,875.4,1088.2,879.9 M865.1,1095.3
		c29.2,42.9,88.1,54.2,131.6,25.1c43.5-29.1,55-87.4,25.8-130.4c-29.2-42.9-88.1-54.2-131.6-25.1
		C847.5,994,835.9,1052.3,865.1,1095.3 M556.3,1059.8c-15.4,49.6,12.7,102,62.7,117.1c50.1,15.1,103.1-12.9,118.5-62.6
		c15.4-49.6-12.7-102-62.7-117.1C624.8,982.2,571.7,1010.2,556.3,1059.8 M390.7,799.8c-48.6,19.5-72.1,74.3-52.6,122.3
		c19.5,48,74.8,71.2,123.3,51.6c48.6-19.5,72.2-74.3,52.6-122.3C494.5,803.4,439.3,780.3,390.7,799.8 M491,507.9
		c-45.8-25-103.5-8.6-129,36.8c-25.5,45.4-9,102.5,36.7,127.6c45.8,25.1,103.5,8.6,129-36.8C553.2,590.1,536.8,533,491,507.9
		 M842.9,740.4c-9-51-58.1-85-109.7-76c-51.6,9.1-86.1,57.9-77.1,108.9c9,51,58.1,85,109.7,76C817.3,840.2,851.9,791.5,842.9,740.4
		 M783,400.7c-9-51-58.1-85-109.7-76c-51.6,9.1-86.1,57.9-77.1,108.9c9,51,58.1,85,109.7,76C757.4,500.5,792,451.7,783,400.7
		 M729.8,99.4c-9-51-58.1-85-109.7-76C568.5,32.6,534,81.3,543,132.4c9,51,58.1,85,109.7,76C704.3,199.2,738.8,150.5,729.8,99.4"/>
</g>
<g id="Capa_5">
	<g class="st5">
		<path class="st11" d="M857.8,188.7c-1.1,6.6-7.4,11-14,9.9c-6.6-1.1-11-7.4-9.9-14c1.1-6.6,7.4-11,14-9.9
			C854.5,175.8,858.9,182.1,857.8,188.7"/>
		<path class="st11" d="M758.7,178.4c0,6.7-5.4,12.1-12.1,12.2c-6.7,0-12.1-5.4-12.2-12.1c0-6.7,5.4-12.1,12.1-12.2
			C753.3,166.3,758.7,171.7,758.7,178.4"/>
		<path class="st11" d="M758.1,30.4c0,6.7-5.4,12.1-12.1,12.2c-6.7,0-12.1-5.4-12.2-12.1c0-6.7,5.4-12.1,12.1-12.2
			C752.6,18.3,758.1,23.7,758.1,30.4"/>
		<path class="st11" d="M820.9,109.6c0,6.7-5.4,12.1-12.1,12.2c-6.7,0-12.1-5.4-12.2-12.1c0-6.7,5.4-12.1,12.1-12.2
			C815.4,97.5,820.8,102.9,820.9,109.6"/>
		<path class="st11" d="M708.6,106.8c1.2,6.6-3.2,12.9-9.8,14.1c-6.6,1.2-12.9-3.2-14.1-9.8c-1.2-6.6,3.2-12.9,9.8-14.1
			C701.1,95.9,707.5,100.3,708.6,106.8"/>
		<path class="st11" d="M597.6,123.7c2.3,6.3-0.9,13.3-7.2,15.6c-6.3,2.3-13.2-0.9-15.6-7.2c-2.3-6.3,0.9-13.3,7.2-15.6
			S595.3,117.4,597.6,123.7"/>
		<path class="st11" d="M491.3,159.5c3.4,5.8,1.4,13.2-4.4,16.6c-5.8,3.4-13.2,1.4-16.6-4.4c-3.4-5.8-1.4-13.2,4.4-16.6
			C480.5,151.8,487.9,153.7,491.3,159.5"/>
		<path class="st11" d="M392.7,213.3c4.3,5.1,3.7,12.8-1.4,17.1c-5.1,4.3-12.7,3.7-17.1-1.4c-4.3-5.1-3.7-12.8,1.4-17.1
			C380.7,207.5,388.4,208.2,392.7,213.3"/>
		<path class="st11" d="M305,283.4c5.1,4.3,5.8,11.9,1.6,17.1c-4.3,5.1-11.9,5.9-17.1,1.6c-5.1-4.3-5.8-11.9-1.6-17.1
			C292.2,279.8,299.8,279.1,305,283.4"/>
		<path class="st11" d="M230.7,367.7c5.8,3.3,7.8,10.7,4.5,16.5c-3.3,5.8-10.7,7.8-16.5,4.5c-5.8-3.3-7.8-10.7-4.5-16.5
			C217.5,366.4,224.9,364.4,230.7,367.7"/>
		<path class="st11" d="M172.3,463.6c6.3,2.3,9.6,9.2,7.3,15.5c-2.3,6.3-9.2,9.6-15.5,7.3c-6.3-2.3-9.6-9.2-7.3-15.5
			C159,464.6,166,461.3,172.3,463.6"/>
		<path class="st11" d="M131.3,568.2c6.6,1.1,11,7.4,9.9,14c-1.1,6.6-7.4,11-14,9.9c-6.6-1.1-11-7.4-9.9-14
			C118.5,571.5,124.7,567.1,131.3,568.2"/>
		<path class="st11" d="M109.1,678.4c6.7,0,12.1,5.4,12.2,12.1c0,6.7-5.4,12.1-12.1,12.2c-6.7,0-12.1-5.4-12.2-12.1
			C97,683.8,102.4,678.4,109.1,678.4"/>
		<path class="st11" d="M106.4,790.7c6.6-1.2,12.9,3.2,14.1,9.8c1.2,6.6-3.2,12.9-9.8,14.1c-6.6,1.2-12.9-3.2-14.1-9.8
			C95.4,798.2,99.8,791.9,106.4,790.7"/>
		<path class="st11" d="M123.2,901.8c6.3-2.3,13.2,0.9,15.6,7.2c2.3,6.3-0.9,13.3-7.2,15.6c-6.3,2.3-13.2-0.9-15.6-7.2
			C113.7,911.1,116.9,904.1,123.2,901.8"/>
		<path class="st11" d="M159,1008.3c5.8-3.4,13.2-1.4,16.6,4.4c3.4,5.8,1.4,13.2-4.4,16.6c-5.8,3.4-13.2,1.4-16.6-4.4
			C151.3,1019.1,153.2,1011.6,159,1008.3"/>
		<path class="st11" d="M212.7,1106.9c5.1-4.3,12.7-3.7,17.1,1.4c4.3,5.1,3.7,12.8-1.4,17.1c-5.1,4.3-12.7,3.7-17.1-1.4
			C207,1118.9,207.6,1111.2,212.7,1106.9"/>
		<path class="st11" d="M282.8,1194.7c4.3-5.1,11.9-5.9,17.1-1.6c5.1,4.3,5.8,11.9,1.6,17.1c-4.3,5.1-11.9,5.9-17.1,1.6
			C279.2,1207.5,278.5,1199.9,282.8,1194.7"/>
		<path class="st11" d="M367,1269c3.3-5.8,10.7-7.8,16.5-4.5c5.8,3.3,7.8,10.7,4.5,16.5c-3.3,5.8-10.7,7.8-16.5,4.5
			C365.7,1282.3,363.7,1274.8,367,1269"/>
		<path class="st11" d="M462.8,1327.6c2.3-6.3,9.2-9.6,15.5-7.3c6.3,2.3,9.6,9.2,7.3,15.5c-2.3,6.3-9.2,9.6-15.5,7.3
			C463.8,1340.8,460.5,1333.9,462.8,1327.6"/>
		<path class="st11" d="M567.3,1368.6c1.1-6.6,7.4-11,14-9.9c6.6,1.1,11,7.4,9.9,14c-1.1,6.6-7.4,11-14,9.9
			C570.6,1381.4,566.2,1375.2,567.3,1368.6"/>
		<path class="st11" d="M677.4,1390.8c0-6.7,5.4-12.1,12.1-12.2c6.7,0,12.1,5.4,12.2,12.1c0,6.7-5.4,12.1-12.1,12.2
			C682.8,1402.9,677.4,1397.5,677.4,1390.8"/>
		<path class="st11" d="M789.6,1393.5c-1.2-6.6,3.2-12.9,9.8-14.1c6.6-1.2,12.9,3.2,14.1,9.8c1.2,6.6-3.2,12.9-9.8,14.1
			C797.1,1404.5,790.8,1400.1,789.6,1393.5"/>
		<path class="st11" d="M900.6,1376.7c-2.3-6.3,0.9-13.3,7.2-15.6c6.3-2.3,13.2,0.9,15.6,7.2c2.3,6.3-0.9,13.3-7.2,15.6
			S902.9,1383,900.6,1376.7"/>
		<path class="st11" d="M1007,1340.9c-3.4-5.8-1.4-13.2,4.4-16.6c5.8-3.4,13.2-1.4,16.6,4.4c3.4,5.8,1.4,13.2-4.4,16.6
			C1017.8,1348.6,1010.3,1346.6,1007,1340.9"/>
		<path class="st11" d="M1105.5,1287.1c-4.3-5.1-3.7-12.8,1.4-17.1c5.1-4.3,12.7-3.7,17.1,1.4c4.3,5.1,3.7,12.8-1.4,17.1
			S1109.9,1292.2,1105.5,1287.1"/>
		<path class="st11" d="M1193.3,1217c-5.1-4.3-5.8-11.9-1.6-17.1c4.3-5.1,11.9-5.9,17.1-1.6s5.8,11.9,1.6,17.1
			C1206,1220.5,1198.4,1221.2,1193.3,1217"/>
		<path class="st11" d="M1267.5,1132.7c-5.8-3.3-7.8-10.7-4.5-16.5c3.3-5.8,10.7-7.8,16.5-4.5c5.8,3.3,7.8,10.7,4.5,16.5
			C1280.7,1134,1273.3,1136,1267.5,1132.7"/>
		<path class="st11" d="M1326,1036.8c-6.3-2.3-9.6-9.2-7.3-15.5c2.3-6.3,9.2-9.6,15.5-7.3c6.3,2.3,9.6,9.2,7.3,15.5
			C1339.2,1035.8,1332.3,1039,1326,1036.8"/>
		<path class="st11" d="M1366.9,932.1c-6.6-1.1-11-7.4-9.9-14c1.1-6.6,7.4-11,14-9.9c6.6,1.1,11,7.4,9.9,14
			S1373.5,933.3,1366.9,932.1"/>
		<path class="st11" d="M1389.1,822c-6.7,0-12.1-5.4-12.2-12.1c0-6.7,5.4-12.1,12.1-12.2c6.7,0,12.1,5.4,12.2,12.1
			C1401.2,816.5,1395.8,822,1389.1,822"/>
		<path class="st11" d="M1391.8,709.7c-6.6,1.2-12.9-3.2-14.1-9.8c-1.2-6.6,3.2-12.9,9.8-14.1c6.6-1.2,12.9,3.2,14.1,9.8
			C1402.8,702.2,1398.4,708.5,1391.8,709.7"/>
		<path class="st11" d="M1375,598.6c-6.3,2.3-13.2-0.9-15.6-7.2c-2.3-6.3,0.9-13.3,7.2-15.6c6.3-2.3,13.2,0.9,15.6,7.2
			C1384.5,589.3,1381.3,596.3,1375,598.6"/>
		<path class="st11" d="M1339.2,492.1c-5.8,3.4-13.2,1.4-16.6-4.4c-3.4-5.8-1.4-13.2,4.4-16.6c5.8-3.4,13.2-1.4,16.6,4.4
			C1347,481.3,1345,488.7,1339.2,492.1"/>
		<path class="st11" d="M1285.5,393.4c-5.1,4.3-12.7,3.7-17.1-1.4c-4.3-5.1-3.7-12.8,1.4-17.1c5.1-4.3,12.7-3.7,17.1,1.4
			C1291.2,381.5,1290.6,389.1,1285.5,393.4"/>
		<path class="st11" d="M1215.5,305.6c-4.3,5.1-11.9,5.9-17.1,1.6c-5.1-4.3-5.8-11.9-1.6-17.1c4.3-5.1,11.9-5.9,17.1-1.6
			C1219,292.8,1219.7,300.5,1215.5,305.6"/>
		<path class="st11" d="M1131.2,231.3c-3.3,5.8-10.7,7.8-16.5,4.5c-5.8-3.3-7.8-10.7-4.5-16.5c3.3-5.8,10.7-7.8,16.5-4.5
			C1132.5,218.1,1134.6,225.5,1131.2,231.3"/>
		<path class="st11" d="M1035.4,172.8c-2.3,6.3-9.2,9.6-15.5,7.3c-6.3-2.3-9.6-9.2-7.3-15.5c2.3-6.3,9.2-9.6,15.5-7.3
			C1034.4,159.5,1037.7,166.5,1035.4,172.8"/>
		<path class="st11" d="M930.9,131.8c-1.1,6.6-7.4,11-14,9.9c-6.6-1.1-11-7.4-9.9-14c1.1-6.6,7.4-11,14-9.9
			C927.6,118.9,932,125.2,930.9,131.8"/>
		<path class="st11" d="M633.1,39.8c1.2,6.6-3.2,12.9-9.8,14.1c-6.6,1.2-12.9-3.2-14.1-9.8c-1.2-6.6,3.2-12.9,9.8-14.1
			C625.6,28.8,631.9,33.2,633.1,39.8"/>
		<path class="st11" d="M511.6,70.8c2.3,6.3-0.9,13.3-7.2,15.6c-6.3,2.3-13.2-0.9-15.6-7.2c-2.3-6.3,0.9-13.3,7.2-15.6
			C502.3,61.3,509.3,64.5,511.6,70.8"/>
		<path class="st11" d="M397.4,122.4c3.4,5.8,1.4,13.2-4.4,16.6c-5.8,3.4-13.2,1.4-16.6-4.4c-3.4-5.8-1.4-13.2,4.4-16.6
			C386.6,114.6,394,116.6,397.4,122.4"/>
		<path class="st11" d="M293.8,193c4.3,5.1,3.7,12.8-1.4,17.1c-5.1,4.3-12.7,3.7-17.1-1.4c-4.3-5.1-3.7-12.8,1.4-17.1
			C281.8,187.3,289.5,187.9,293.8,193"/>
		<path class="st11" d="M204,280.6c5.1,4.3,5.8,11.9,1.6,17.1c-4.3,5.1-11.9,5.9-17.1,1.6c-5.1-4.3-5.8-11.9-1.6-17.1
			C191.3,277.1,198.9,276.4,204,280.6"/>
		<path class="st11" d="M130.9,382.5c5.8,3.3,7.8,10.7,4.5,16.5c-3.3,5.8-10.7,7.8-16.5,4.5c-5.8-3.3-7.8-10.7-4.5-16.5
			C117.7,381.2,125.1,379.2,130.9,382.5"/>
		<path class="st11" d="M76.5,495.6c6.3,2.3,9.6,9.2,7.3,15.5c-2.3,6.3-9.2,9.6-15.5,7.3c-6.3-2.3-9.6-9.2-7.3-15.5
			C63.2,496.6,70.2,493.3,76.5,495.6"/>
		<path class="st11" d="M42.5,616.3c6.6,1.1,11,7.4,9.9,14c-1.1,6.6-7.4,11-14,9.9c-6.6-1.1-11-7.4-9.9-14
			C29.7,619.6,35.9,615.2,42.5,616.3"/>
		<path class="st11" d="M30,741.2c6.7,0,12.1,5.4,12.2,12.1c0,6.7-5.4,12.1-12.1,12.2c-6.7,0-12.1-5.4-12.2-12.1
			C18,746.7,23.4,741.2,30,741.2"/>
		<path class="st11" d="M39.4,866.3c6.6-1.2,12.9,3.2,14.1,9.8c1.2,6.6-3.2,12.9-9.8,14.1s-12.9-3.2-14.1-9.8
			C28.5,873.8,32.8,867.5,39.4,866.3"/>
		<path class="st11" d="M70.3,987.9c6.3-2.3,13.2,0.9,15.6,7.2s-0.9,13.3-7.2,15.6c-6.3,2.3-13.2-0.9-15.6-7.2
			C60.9,997.2,64.1,990.2,70.3,987.9"/>
		<path class="st11" d="M121.9,1102.3c5.8-3.4,13.2-1.4,16.6,4.4c3.4,5.8,1.4,13.2-4.4,16.6c-5.8,3.4-13.2,1.4-16.6-4.4
			C114.2,1113.1,116.1,1105.6,121.9,1102.3"/>
		<path class="st11" d="M192.5,1205.9c5.1-4.3,12.7-3.7,17.1,1.4c4.3,5.1,3.7,12.8-1.4,17.1c-5.1,4.3-12.7,3.7-17.1-1.4
			C186.8,1217.9,187.4,1210.3,192.5,1205.9"/>
		<path class="st11" d="M280,1295.8c4.3-5.1,11.9-5.9,17.1-1.6c5.1,4.3,5.8,11.9,1.6,17.1c-4.3,5.1-11.9,5.9-17.1,1.6
			C276.5,1308.6,275.8,1300.9,280,1295.8"/>
		<path class="st11" d="M381.8,1369c3.3-5.8,10.7-7.8,16.5-4.5c5.8,3.3,7.8,10.7,4.5,16.5c-3.3,5.8-10.7,7.8-16.5,4.5
			C380.5,1382.2,378.5,1374.8,381.8,1369"/>
		<path class="st11" d="M494.7,1423.4c2.3-6.3,9.2-9.6,15.5-7.3c6.3,2.3,9.6,9.2,7.3,15.5c-2.3,6.3-9.2,9.6-15.5,7.3
			C495.8,1436.7,492.5,1429.8,494.7,1423.4"/>
		<path class="st11" d="M615.4,1457.4c1.1-6.6,7.4-11,14-9.9c6.6,1.1,11,7.4,9.9,14c-1.1,6.6-7.4,11-14,9.9
			C618.7,1470.3,614.3,1464,615.4,1457.4"/>
		<path class="st11" d="M740.1,1469.9c0-6.7,5.4-12.1,12.1-12.2c6.7,0,12.1,5.4,12.2,12.1c0,6.7-5.4,12.1-12.1,12.2
			C745.6,1482,740.2,1476.6,740.1,1469.9"/>
		<path class="st11" d="M865.1,1460.6c-1.2-6.6,3.2-12.9,9.8-14.1c6.6-1.2,12.9,3.2,14.1,9.8c1.2,6.6-3.2,12.9-9.8,14.1
			C872.6,1471.5,866.3,1467.1,865.1,1460.6"/>
		<path class="st11" d="M986.6,1429.6c-2.3-6.3,0.9-13.3,7.2-15.6c6.3-2.3,13.2,0.9,15.6,7.2c2.3,6.3-0.9,13.3-7.2,15.6
			C995.9,1439.1,988.9,1435.9,986.6,1429.6"/>
		<path class="st11" d="M1100.9,1378c-3.4-5.8-1.4-13.2,4.4-16.6c5.8-3.4,13.2-1.4,16.6,4.4c3.4,5.8,1.4,13.2-4.4,16.6
			C1111.7,1385.7,1104.3,1383.8,1100.9,1378"/>
		<path class="st11" d="M1204.5,1307.3c-4.3-5.1-3.7-12.8,1.4-17.1c5.1-4.3,12.7-3.7,17.1,1.4c4.3,5.1,3.7,12.8-1.4,17.1
			C1216.4,1313.1,1208.8,1312.4,1204.5,1307.3"/>
		<path class="st11" d="M1294.2,1219.7c-5.1-4.3-5.8-11.9-1.6-17.1c4.3-5.1,11.9-5.9,17.1-1.6c5.1,4.3,5.8,11.9,1.6,17.1
			C1307,1223.3,1299.3,1224,1294.2,1219.7"/>
		<path class="st11" d="M1367.4,1117.8c-5.8-3.3-7.8-10.7-4.5-16.5c3.3-5.8,10.7-7.8,16.5-4.5c5.8,3.3,7.8,10.7,4.5,16.5
			C1380.6,1119.1,1373.2,1121.2,1367.4,1117.8"/>
		<path class="st11" d="M1421.8,1004.8c-6.3-2.3-9.6-9.2-7.3-15.5c2.3-6.3,9.2-9.6,15.5-7.3c6.3,2.3,9.6,9.2,7.3,15.5
			C1435,1003.8,1428.1,1007.1,1421.8,1004.8"/>
		<path class="st11" d="M1455.7,884c-6.6-1.1-11-7.4-9.9-14c1.1-6.6,7.4-11,14-9.9c6.6,1.1,11,7.4,9.9,14
			C1468.6,880.7,1462.3,885.1,1455.7,884"/>
		<path class="st11" d="M1468.2,759.2c-6.7,0-12.1-5.4-12.2-12.1c0-6.7,5.4-12.1,12.1-12.2c6.7,0,12.1,5.4,12.2,12.1
			C1480.3,753.7,1474.9,759.1,1468.2,759.2"/>
		<path class="st11" d="M1458.8,634c-6.6,1.2-12.9-3.2-14.1-9.8c-1.2-6.6,3.2-12.9,9.8-14.1c6.6-1.2,12.9,3.2,14.1,9.8
			C1469.8,626.5,1465.4,632.9,1458.8,634"/>
		<path class="st11" d="M1427.9,512.5c-6.3,2.3-13.2-0.9-15.6-7.2c-2.3-6.3,0.9-13.3,7.2-15.6c6.3-2.3,13.2,0.9,15.6,7.2
			C1437.4,503.2,1434.2,510.1,1427.9,512.5"/>
		<path class="st11" d="M1376.3,398.1c-5.8,3.4-13.2,1.4-16.6-4.4c-3.4-5.8-1.4-13.2,4.4-16.6c5.8-3.4,13.2-1.4,16.6,4.4
			C1384.1,387.3,1382.1,394.7,1376.3,398.1"/>
		<path class="st11" d="M1305.7,294.4c-5.1,4.3-12.7,3.7-17.1-1.4c-4.3-5.1-3.7-12.8,1.4-17.1c5.1-4.3,12.7-3.7,17.1,1.4
			C1311.5,282.4,1310.8,290.1,1305.7,294.4"/>
		<path class="st11" d="M1218.2,204.6c-4.3,5.1-11.9,5.9-17.1,1.6s-5.8-11.9-1.6-17.1c4.3-5.1,11.9-5.9,17.1-1.6
			C1221.8,191.8,1222.5,199.4,1218.2,204.6"/>
		<path class="st11" d="M1116.4,131.3c-3.3,5.8-10.7,7.8-16.5,4.5c-5.8-3.3-7.8-10.7-4.5-16.5c3.3-5.8,10.7-7.8,16.5-4.5
			C1117.7,118.1,1119.7,125.5,1116.4,131.3"/>
		<path class="st11" d="M1003.5,76.9c-2.3,6.3-9.2,9.6-15.5,7.3c-6.3-2.3-9.6-9.2-7.3-15.5c2.3-6.3,9.2-9.6,15.5-7.3
			C1002.5,63.7,1005.7,70.6,1003.5,76.9"/>
		<path class="st11" d="M874.8,29.4c6.3,2.2,9.7,9.1,7.5,15.4c-2.2,6.3-9.1,9.7-15.4,7.5c-6.3-2.2-9.7-9.1-7.5-15.4
			C861.6,30.6,868.5,27.2,874.8,29.4"/>
		<path class="st11" d="M659.4,185.4c1.2,6.6-3.2,12.9-9.8,14.1c-6.6,1.2-12.9-3.2-14.1-9.8c-1.2-6.6,3.2-12.9,9.8-14.1
			C651.9,174.4,658.2,178.8,659.4,185.4"/>
		<path class="st11" d="M562.8,209.5c2.3,6.3-0.9,13.3-7.2,15.6c-6.3,2.3-13.2-0.9-15.6-7.2c-2.3-6.3,0.9-13.3,7.2-15.6
			C553.5,200.1,560.5,203.3,562.8,209.5"/>
		<path class="st11" d="M471.8,250.2c3.4,5.8,1.4,13.2-4.4,16.6c-5.8,3.4-13.2,1.4-16.6-4.4c-3.4-5.8-1.4-13.2,4.4-16.6
			C461,242.4,468.4,244.4,471.8,250.2"/>
		<path class="st11" d="M389.3,305.9c4.3,5.1,3.7,12.8-1.4,17.1c-5.1,4.3-12.7,3.7-17.1-1.4c-4.3-5.1-3.7-12.8,1.4-17.1
			C377.3,300.2,385,300.8,389.3,305.9"/>
		<path class="st11" d="M317.7,375.2c5.1,4.3,5.8,11.9,1.6,17.1c-4.3,5.1-11.9,5.9-17.1,1.6c-5.1-4.3-5.8-11.9-1.6-17.1
			C304.9,371.7,312.5,371,317.7,375.2"/>
		<path class="st11" d="M259.2,455.9c5.8,3.3,7.8,10.7,4.5,16.5c-3.3,5.8-10.7,7.8-16.5,4.5c-5.8-3.3-7.8-10.7-4.5-16.5
			C246,454.6,253.4,452.6,259.2,455.9"/>
		<path class="st11" d="M215.6,545.6c6.3,2.3,9.6,9.2,7.3,15.5c-2.3,6.3-9.2,9.6-15.5,7.3c-6.3-2.3-9.6-9.2-7.3-15.5
			C202.3,546.6,209.3,543.3,215.6,545.6"/>
		<path class="st11" d="M188.2,641.4c6.6,1.1,11,7.4,9.9,14c-1.1,6.6-7.4,11-14,9.9c-6.6-1.1-11-7.4-9.9-14
			C175.3,644.7,181.6,640.3,188.2,641.4"/>
		<path class="st11" d="M177.8,740.5c6.7,0,12.1,5.4,12.2,12.1c0,6.7-5.4,12.1-12.1,12.2c-6.7,0-12.1-5.4-12.2-12.1
			C165.7,746,171.1,740.6,177.8,740.5"/>
		<path class="st11" d="M184.8,840c6.6-1.2,12.9,3.2,14.1,9.8c1.2,6.6-3.2,12.9-9.8,14.1c-6.6,1.2-12.9-3.2-14.1-9.8
			C173.9,847.5,178.3,841.2,184.8,840"/>
		<path class="st11" d="M209,936.7c6.3-2.3,13.2,0.9,15.6,7.2c2.3,6.3-0.9,13.3-7.2,15.6c-6.3,2.3-13.2-0.9-15.6-7.2
			C199.5,946,202.7,939,209,936.7"/>
		<path class="st11" d="M249.6,1027.7c5.8-3.4,13.2-1.4,16.6,4.4c3.4,5.8,1.4,13.2-4.4,16.6c-5.8,3.4-13.2,1.4-16.6-4.4
			C241.8,1038.5,243.8,1031.1,249.6,1027.7"/>
		<path class="st11" d="M305.3,1110.4c5.1-4.3,12.7-3.7,17.1,1.4c4.3,5.1,3.7,12.8-1.4,17.1c-5.1,4.3-12.7,3.7-17.1-1.4
			C299.6,1122.3,300.2,1114.7,305.3,1110.4"/>
		<path class="st11" d="M374.5,1182c4.3-5.1,11.9-5.9,17.1-1.6c5.1,4.3,5.8,11.9,1.6,17.1c-4.3,5.1-11.9,5.9-17.1,1.6
			C371,1194.8,370.3,1187.2,374.5,1182"/>
		<path class="st11" d="M455.1,1240.6c3.3-5.8,10.7-7.8,16.5-4.5c5.8,3.3,7.8,10.7,4.5,16.5c-3.3,5.8-10.7,7.8-16.5,4.5
			C453.8,1253.8,451.8,1246.4,455.1,1240.6"/>
		<path class="st11" d="M544.7,1284.2c2.3-6.3,9.2-9.6,15.5-7.3c6.3,2.3,9.6,9.2,7.3,15.5c-2.3,6.3-9.2,9.6-15.5,7.3
			C545.7,1297.5,542.4,1290.5,544.7,1284.2"/>
		<path class="st11" d="M640.4,1311.6c1.1-6.6,7.4-11,14-9.9c6.6,1.1,11,7.4,9.9,14c-1.1,6.6-7.4,11-14,9.9
			C643.7,1324.5,639.3,1318.2,640.4,1311.6"/>
		<path class="st11" d="M739.5,1322c0-6.7,5.4-12.1,12.1-12.2c6.7,0,12.1,5.4,12.2,12.1c0,6.7-5.4,12.1-12.1,12.2
			C745,1334.1,739.5,1328.7,739.5,1322"/>
		<path class="st11" d="M838.8,1315c-1.2-6.6,3.2-12.9,9.8-14.1c6.6-1.2,12.9,3.2,14.1,9.8c1.2,6.6-3.2,12.9-9.8,14.1
			C846.3,1325.9,840,1321.6,838.8,1315"/>
		<path class="st11" d="M935.5,1290.8c-2.3-6.3,0.9-13.3,7.2-15.6c6.3-2.3,13.2,0.9,15.6,7.2c2.3,6.3-0.9,13.3-7.2,15.6
			C944.7,1300.3,937.8,1297.1,935.5,1290.8"/>
		<path class="st11" d="M1026.4,1250.2c-3.4-5.8-1.4-13.2,4.4-16.6c5.8-3.4,13.2-1.4,16.6,4.4c3.4,5.8,1.4,13.2-4.4,16.6
			C1037.2,1257.9,1029.8,1256,1026.4,1250.2"/>
		<path class="st11" d="M1109,1194.4c-4.3-5.1-3.7-12.8,1.4-17.1c5.1-4.3,12.7-3.7,17.1,1.4c4.3,5.1,3.7,12.8-1.4,17.1
			S1113.3,1199.5,1109,1194.4"/>
		<path class="st11" d="M1180.6,1125.1c-5.1-4.3-5.8-11.9-1.6-17.1c4.3-5.1,11.9-5.9,17.1-1.6c5.1,4.3,5.8,11.9,1.6,17.1
			C1193.3,1128.7,1185.7,1129.4,1180.6,1125.1"/>
		<path class="st11" d="M1239.1,1044.4c-5.8-3.3-7.8-10.7-4.5-16.5c3.3-5.8,10.7-7.8,16.5-4.5c5.8,3.3,7.8,10.7,4.5,16.5
			C1252.3,1045.7,1244.9,1047.7,1239.1,1044.4"/>
		<path class="st11" d="M1282.7,954.8c-6.3-2.3-9.6-9.2-7.3-15.5c2.3-6.3,9.2-9.6,15.5-7.3c6.3,2.3,9.6,9.2,7.3,15.5
			C1295.9,953.8,1289,957.1,1282.7,954.8"/>
		<path class="st11" d="M1310,859c-6.6-1.1-11-7.4-9.9-14c1.1-6.6,7.4-11,14-9.9c6.6,1.1,11,7.4,9.9,14
			C1322.9,855.7,1316.6,860.1,1310,859"/>
		<path class="st11" d="M1320.4,759.8c-6.7,0-12.1-5.4-12.2-12.1c0-6.7,5.4-12.1,12.1-12.2c6.7,0,12.1,5.4,12.2,12.1
			C1332.5,754.3,1327.1,759.8,1320.4,759.8"/>
		<path class="st11" d="M1313.4,660.4c-6.6,1.2-12.9-3.2-14.1-9.8c-1.2-6.6,3.2-12.9,9.8-14.1c6.6-1.2,12.9,3.2,14.1,9.8
			C1324.3,652.9,1320,659.2,1313.4,660.4"/>
		<path class="st11" d="M1289.2,563.7c-6.3,2.3-13.2-0.9-15.6-7.2c-2.3-6.3,0.9-13.3,7.2-15.6c6.3-2.3,13.2,0.9,15.6,7.2
			C1298.7,554.4,1295.5,561.3,1289.2,563.7"/>
		<path class="st11" d="M1248.7,472.6c-5.8,3.4-13.2,1.4-16.6-4.4c-3.4-5.8-1.4-13.2,4.4-16.6c5.8-3.4,13.2-1.4,16.6,4.4
			S1254.4,469.2,1248.7,472.6"/>
		<path class="st11" d="M1192.9,390c-5.1,4.3-12.7,3.7-17.1-1.4c-4.3-5.1-3.7-12.8,1.4-17.1c5.1-4.3,12.7-3.7,17.1,1.4
			C1198.7,378,1198,385.7,1192.9,390"/>
		<path class="st11" d="M1123.7,318.3c-4.3,5.1-11.9,5.9-17.1,1.6c-5.1-4.3-5.8-11.9-1.6-17.1c4.3-5.1,11.9-5.9,17.1-1.6
			C1127.3,305.5,1128,313.2,1123.7,318.3"/>
		<path class="st11" d="M1043.1,259.8c-3.3,5.8-10.7,7.8-16.5,4.5c-5.8-3.3-7.8-10.7-4.5-16.5c3.3-5.8,10.7-7.8,16.5-4.5
			C1044.4,246.6,1046.4,254,1043.1,259.8"/>
		<path class="st11" d="M953.5,216.1c-2.3,6.3-9.2,9.6-15.5,7.3c-6.3-2.3-9.6-9.2-7.3-15.5c2.3-6.3,9.2-9.6,15.5-7.3
			C952.5,202.9,955.8,209.8,953.5,216.1"/>
	</g>
</g>
<g id="Capa_6" class="st0">
	<g class="st4">
		<path class="st12" d="M779.7,215.6c0-16.2-13.5-29.3-30.2-29.3c-16.7,0-30.2,13.1-30.2,29.3c0,16.2,13.5,29.3,30.2,29.3
			C766.2,244.8,779.7,231.7,779.7,215.6"/>
		<path class="st12" d="M749.5,415.1c16.7,0,30.2-13.1,30.2-29.3s-13.5-29.3-30.2-29.3c-16.7,0-30.2,13.1-30.2,29.3
			S732.9,415.1,749.5,415.1"/>
		<path class="st12" d="M779.7,45.3c0-16.2-13.5-29.3-30.2-29.3c-16.7,0-30.2,13.1-30.2,29.3c0,16.2,13.5,29.3,30.2,29.3
			C766.2,74.5,779.7,61.4,779.7,45.3"/>
		<path class="st12" d="M530.1,77.6c-5.7-15.2-23-23-38.6-17.5c-15.7,5.5-23.7,22.3-18,37.5c5.7,15.2,23,23,38.6,17.5
			C527.7,109.6,535.8,92.8,530.1,77.6"/>
		<path class="st12" d="M307,190.9c-10.7-12.4-29.7-14-42.5-3.6c-12.8,10.4-14.4,28.8-3.7,41.2c10.7,12.4,29.7,14,42.5,3.6
			C316,221.8,317.7,203.3,307,190.9"/>
		<path class="st12" d="M137.3,371.4c-14.4-8.1-32.9-3.3-41.2,10.7c-8.3,14-3.4,31.9,11,40c14.4,8.1,32.9,3.3,41.2-10.7
			C156.6,397.4,151.7,379.5,137.3,371.4"/>
		<path class="st12" d="M41.4,597.3c-16.4-2.8-32,7.8-34.9,23.7C3.6,637,14.5,652.2,30.9,655c16.4,2.8,32-7.8,34.9-23.7
			C68.7,615.3,57.8,600.2,41.4,597.3"/>
		<path class="st12" d="M30.9,841.5c-16.4,2.8-27.4,18-24.5,33.9c2.9,15.9,18.5,26.5,34.9,23.7c16.4-2.8,27.4-18,24.5-33.9
			C63,849.3,47.3,838.7,30.9,841.5"/>
		<path class="st12" d="M107.1,1074.4c-14.4,8.1-19.4,26-11,40c8.3,14,26.8,18.8,41.2,10.7s19.4-26,11-40
			C140,1071.1,121.5,1066.3,107.1,1074.4"/>
		<path class="st12" d="M260.8,1267.9c-10.7,12.4-9,30.8,3.7,41.2c12.8,10.4,31.8,8.8,42.5-3.6c10.7-12.4,9-30.8-3.7-41.2
			C290.5,1253.9,271.5,1255.6,260.8,1267.9"/>
		<path class="st12" d="M473.4,1398.8c-5.7,15.2,2.4,32,18,37.5c15.7,5.5,33-2.3,38.6-17.5c5.7-15.2-2.4-32-18-37.5
			C496.4,1375.8,479.1,1383.6,473.4,1398.8"/>
		<path class="st12" d="M719.4,1451.2c0,16.2,13.5,29.3,30.2,29.3c16.7,0,30.2-13.1,30.2-29.3s-13.5-29.3-30.2-29.3
			C732.9,1421.9,719.4,1435,719.4,1451.2"/>
		<path class="st12" d="M968.9,1418.8c5.7,15.2,23,23,38.6,17.5c15.7-5.5,23.7-22.3,18-37.5c-5.7-15.2-23-23-38.6-17.5
			C971.3,1386.8,963.2,1403.6,968.9,1418.8"/>
		<path class="st12" d="M1192,1305.5c10.7,12.4,29.7,14,42.5,3.6c12.8-10.4,14.4-28.8,3.7-41.2c-10.7-12.4-29.7-14-42.5-3.6
			C1183,1274.7,1181.3,1293.2,1192,1305.5"/>
		<path class="st12" d="M1361.7,1125.1c14.4,8.1,32.9,3.3,41.2-10.7c8.3-14,3.4-31.9-11-40s-32.9-3.3-41.2,10.7
			C1342.4,1099.1,1347.3,1117,1361.7,1125.1"/>
		<path class="st12" d="M1457.6,899.1c16.4,2.8,32-7.8,34.9-23.7c2.9-15.9-8.1-31.1-24.5-33.9c-16.4-2.8-32,7.8-34.9,23.7
			S1441.2,896.3,1457.6,899.1"/>
		<path class="st12" d="M1468.1,655c16.4-2.8,27.4-18,24.5-33.9s-18.5-26.5-34.9-23.7c-16.4,2.8-27.4,18-24.5,33.9
			C1436,647.2,1451.7,657.8,1468.1,655"/>
		<path class="st12" d="M1391.9,422.1c14.4-8.1,19.4-26,11-40c-8.3-14-26.8-18.8-41.2-10.7c-14.4,8.1-19.4,26-11,40
			C1359,425.4,1377.5,430.2,1391.9,422.1"/>
		<path class="st12" d="M1238.2,228.5c10.7-12.4,9-30.8-3.7-41.2c-12.8-10.4-31.8-8.8-42.5,3.6c-10.7,12.4-9,30.8,3.7,41.2
			C1208.5,242.5,1227.5,240.9,1238.2,228.5"/>
		<path class="st12" d="M1025.6,97.7c5.7-15.2-2.4-32-18-37.5c-15.7-5.5-33,2.3-38.6,17.5c-5.7,15.2,2.4,32,18,37.5
			C1002.6,120.7,1019.9,112.8,1025.6,97.7"/>
		<path class="st12" d="M749.5,585.4c16.7,0,30.2-13.1,30.2-29.3c0-16.2-13.5-29.3-30.2-29.3c-16.7,0-30.2,13.1-30.2,29.3
			C719.4,572.3,732.9,585.4,749.5,585.4"/>
		<path class="st12" d="M749.5,777.5c16.7,0,30.2-13.1,30.2-29.3S766.2,719,749.5,719c-16.7,0-30.2,13.1-30.2,29.3
			S732.9,777.5,749.5,777.5"/>
		<path class="st12" d="M641.7,623.5c12.8-10.4,14.4-28.8,3.7-41.2c-10.7-12.4-29.7-14-42.5-3.6c-12.8,10.4-14.4,28.8-3.7,41.2
			C609.9,632.3,628.9,633.9,641.7,623.5"/>
		<path class="st12" d="M584.3,720c2.9-15.9-8.1-31.1-24.5-33.9c-16.4-2.8-32,7.8-34.9,23.7c-2.9,15.9,8.1,31.1,24.5,33.9
			C565.8,746.5,581.4,735.9,584.3,720"/>
		<path class="st12" d="M604.2,829.6c-8.3-14-26.8-18.8-41.2-10.7c-14.4,8.1-19.4,26-11,40c8.3,14,26.8,18.8,41.2,10.7
			C607.6,861.5,612.5,843.6,604.2,829.6"/>
		<path class="st12" d="M692.1,901.2c-15.6-5.5-32.9,2.3-38.6,17.5c-5.7,15.2,2.4,32,18,37.5c15.6,5.5,32.9-2.3,38.6-17.5
			C715.8,923.5,707.8,906.8,692.1,901.2"/>
		<path class="st12" d="M806.9,901.2c-15.6,5.5-23.7,22.3-18,37.5c5.7,15.2,23,23,38.6,17.5c15.6-5.5,23.7-22.3,18-37.5
			C839.8,903.5,822.5,895.7,806.9,901.2"/>
		<path class="st12" d="M894.8,829.6c-8.3,14-3.4,31.9,11,40c14.4,8.1,32.9,3.3,41.2-10.7c8.3-14,3.4-31.9-11-40
			C921.6,810.9,903.1,815.6,894.8,829.6"/>
		<path class="st12" d="M914.7,720c2.9,15.9,18.5,26.5,34.9,23.7c16.4-2.8,27.3-18,24.5-33.9c-2.9-15.9-18.5-26.5-34.9-23.7
			C922.8,688.9,911.8,704,914.7,720"/>
		<path class="st12" d="M857.3,623.5c12.8,10.4,31.8,8.8,42.5-3.6c10.7-12.4,9-30.8-3.7-41.2c-12.8-10.4-31.8-8.8-42.5,3.6
			C842.9,594.7,844.6,613.1,857.3,623.5"/>
		<path class="st12" d="M577.9,459.7c14.4-8.1,19.4-26,11-40c-8.3-14-26.8-18.8-41.2-10.7c-14.4,8.1-19.4,26-11,40
			C545,463,563.5,467.8,577.9,459.7"/>
		<path class="st12" d="M452.2,581.7c8.3-14,3.4-31.9-11-40c-14.4-8.1-32.9-3.3-41.2,10.7c-8.3,14-3.4,31.9,11,40
			C425.5,600.5,443.9,595.7,452.2,581.7"/>
		<path class="st12" d="M406.3,748.2c0-16.2-13.5-29.3-30.2-29.3S346,732.1,346,748.2s13.5,29.3,30.2,29.3S406.3,764.4,406.3,748.2"
			/>
		<path class="st12" d="M452.2,914.8c-8.3-14-26.8-18.8-41.2-10.7c-14.4,8.1-19.4,26-11,40c8.3,14,26.8,18.8,41.2,10.7
			C455.6,946.7,460.6,928.8,452.2,914.8"/>
		<path class="st12" d="M577.9,1036.7c-14.4-8.1-32.9-3.3-41.2,10.7c-8.3,14-3.4,31.9,11,40c14.4,8.1,32.9,3.3,41.2-10.7
			C597.2,1062.7,592.3,1044.8,577.9,1036.7"/>
		<path class="st12" d="M749.5,1081.3c-16.7,0-30.2,13.1-30.2,29.3c0,16.2,13.5,29.3,30.2,29.3c16.7,0,30.2-13.1,30.2-29.3
			C779.7,1094.4,766.2,1081.3,749.5,1081.3"/>
		<path class="st12" d="M921.1,1036.7c-14.4,8.1-19.4,26-11,40c8.3,14,26.8,18.8,41.2,10.7c14.4-8.1,19.4-26,11-40
			C954,1033.4,935.5,1028.6,921.1,1036.7"/>
		<path class="st12" d="M1046.8,914.8c-8.3,14-3.4,31.9,11,40c14.4,8.1,32.9,3.3,41.2-10.7c8.3-14,3.4-31.9-11-40
			C1073.5,896,1055.1,900.8,1046.8,914.8"/>
		<path class="st12" d="M1092.7,748.2c0,16.2,13.5,29.3,30.2,29.3c16.7,0,30.2-13.1,30.2-29.3s-13.5-29.3-30.2-29.3
			C1106.2,719,1092.7,732.1,1092.7,748.2"/>
		<path class="st12" d="M1046.8,581.7c8.3,14,26.8,18.8,41.2,10.7c14.4-8.1,19.4-26,11-40c-8.3-14-26.8-18.8-41.2-10.7
			C1043.4,549.8,1038.4,567.7,1046.8,581.7"/>
		<path class="st12" d="M921.1,459.7c14.4,8.1,32.9,3.3,41.2-10.7c8.3-14,3.4-31.9-11-40c-14.4-8.1-32.9-3.3-41.2,10.7
			C901.8,433.8,906.7,451.7,921.1,459.7"/>
		<path class="st12" d="M590.1,237.7c-5.7-15.2-23-23-38.6-17.5c-15.7,5.5-23.7,22.3-18,37.5c5.7,15.2,23,23,38.6,17.5
			C587.7,269.7,595.8,252.9,590.1,237.7"/>
		<path class="st12" d="M419.8,321.4c-10.7-12.4-29.7-14-42.5-3.6c-12.8,10.4-14.4,28.8-3.7,41.2c10.7,12.4,29.7,14,42.5,3.6
			C428.8,352.2,430.5,333.8,419.8,321.4"/>
		<path class="st12" d="M289.2,456.6c-14.4-8.1-32.9-3.3-41.2,10.7c-8.3,14-3.4,31.9,11,40c14.4,8.1,32.9,3.3,41.2-10.7
			C308.6,482.5,303.7,464.6,289.2,456.6"/>
		<path class="st12" d="M214.2,626.9c-16.4-2.8-32,7.8-34.9,23.7c-2.9,15.9,8.1,31.1,24.5,33.9c16.4,2.8,32-7.8,34.9-23.7
			C241.6,644.9,230.6,629.7,214.2,626.9"/>
		<path class="st12" d="M203.7,811.9c-16.4,2.8-27.4,18-24.5,33.9c2.9,15.9,18.5,26.5,34.9,23.7c16.4-2.8,27.3-18,24.5-33.9
			C235.8,819.7,220.1,809.1,203.7,811.9"/>
		<path class="st12" d="M259.1,989.2c-14.4,8.1-19.4,26-11,40c8.3,14,26.8,18.8,41.2,10.7s19.4-26,11-40
			C291.9,985.9,273.5,981.1,259.1,989.2"/>
		<path class="st12" d="M373.6,1137.5c-10.7,12.4-9,30.8,3.7,41.2c12.8,10.4,31.8,8.8,42.5-3.6c10.7-12.4,9-30.8-3.7-41.2
			C403.3,1123.5,384.3,1125.1,373.6,1137.5"/>
		<path class="st12" d="M533.4,1238.8c-5.7,15.2,2.4,32,18,37.5c15.7,5.5,33-2.3,38.6-17.5c5.7-15.2-2.4-32-18-37.5
			C556.4,1215.8,539.1,1223.6,533.4,1238.8"/>
		<path class="st12" d="M719.4,1280.9c0,16.2,13.5,29.3,30.2,29.3c16.7,0,30.2-13.1,30.2-29.3s-13.5-29.3-30.2-29.3
			C732.9,1251.6,719.4,1264.7,719.4,1280.9"/>
		<path class="st12" d="M908.9,1258.8c5.7,15.2,23,23,38.6,17.5c15.7-5.5,23.7-22.3,18-37.5c-5.7-15.2-23-23-38.6-17.5
			C911.3,1226.8,903.2,1243.6,908.9,1258.8"/>
		<path class="st12" d="M1079.2,1175.1c10.7,12.4,29.7,14,42.5,3.6c12.8-10.4,14.4-28.8,3.7-41.2c-10.7-12.4-29.7-14-42.5-3.6
			C1070.2,1144.3,1068.5,1162.7,1079.2,1175.1"/>
		<path class="st12" d="M1209.8,1039.9c14.4,8.1,32.9,3.3,41.2-10.7c8.3-14,3.4-31.9-11-40c-14.4-8.1-32.9-3.3-41.2,10.7
			C1190.4,1013.9,1195.3,1031.8,1209.8,1039.9"/>
		<path class="st12" d="M1284.8,869.5c16.4,2.8,32-7.8,34.9-23.7c2.9-15.9-8.1-31.1-24.5-33.9c-16.4-2.8-32,7.8-34.9,23.7
			C1257.4,851.6,1268.4,866.7,1284.8,869.5"/>
		<path class="st12" d="M1295.3,684.6c16.4-2.8,27.4-18,24.5-33.9c-2.9-15.9-18.5-26.5-34.9-23.7c-16.4,2.8-27.4,18-24.5,33.9
			C1263.2,676.7,1278.9,687.4,1295.3,684.6"/>
		<path class="st12" d="M1239.9,507.2c14.4-8.1,19.4-26,11-40c-8.3-14-26.8-18.8-41.2-10.7c-14.4,8.1-19.4,26-11,40
			C1207.1,510.5,1225.5,515.3,1239.9,507.2"/>
		<path class="st12" d="M1125.4,359c10.7-12.4,9-30.8-3.7-41.2c-12.8-10.4-31.8-8.8-42.5,3.6c-10.7,12.4-9,30.8,3.7,41.2
			C1095.7,373,1114.7,371.4,1125.4,359"/>
		<path class="st12" d="M965.6,257.7c5.7-15.2-2.4-32-18-37.5c-15.7-5.5-33,2.3-38.6,17.5c-5.7,15.2,2.4,32,18,37.5
			C942.6,280.7,959.9,272.9,965.6,257.7"/>
	</g>
</g>
<g id="Capa_7" class="st0">
	<g class="st4">
		<path class="st13" d="M779.7,215.6c0-16.2-13.5-29.3-30.2-29.3c-16.7,0-30.2,13.1-30.2,29.3c0,16.2,13.5,29.3,30.2,29.3
			C766.2,244.8,779.7,231.7,779.7,215.6"/>
		<path class="st13" d="M749.5,415.1c16.7,0,30.2-13.1,30.2-29.3s-13.5-29.3-30.2-29.3c-16.7,0-30.2,13.1-30.2,29.3
			S732.9,415.1,749.5,415.1"/>
		<path class="st13" d="M779.7,45.3c0-16.2-13.5-29.3-30.2-29.3c-16.7,0-30.2,13.1-30.2,29.3c0,16.2,13.5,29.3,30.2,29.3
			C766.2,74.5,779.7,61.4,779.7,45.3"/>
		<path class="st13" d="M530.1,77.6c-5.7-15.2-23-23-38.6-17.5c-15.7,5.5-23.7,22.3-18,37.5c5.7,15.2,23,23,38.6,17.5
			C527.7,109.6,535.8,92.8,530.1,77.6"/>
		<path class="st13" d="M307,190.9c-10.7-12.4-29.7-14-42.5-3.6c-12.8,10.4-14.4,28.8-3.7,41.2c10.7,12.4,29.7,14,42.5,3.6
			C316,221.8,317.7,203.3,307,190.9"/>
		<path class="st13" d="M137.3,371.4c-14.4-8.1-32.9-3.3-41.2,10.7c-8.3,14-3.4,31.9,11,40c14.4,8.1,32.9,3.3,41.2-10.7
			C156.6,397.4,151.7,379.5,137.3,371.4"/>
		<path class="st13" d="M41.4,597.3c-16.4-2.8-32,7.8-34.9,23.7C3.6,637,14.5,652.2,30.9,655c16.4,2.8,32-7.8,34.9-23.7
			C68.7,615.3,57.8,600.2,41.4,597.3"/>
		<path class="st13" d="M30.9,841.5c-16.4,2.8-27.4,18-24.5,33.9c2.9,15.9,18.5,26.5,34.9,23.7c16.4-2.8,27.4-18,24.5-33.9
			C63,849.3,47.3,838.7,30.9,841.5"/>
		<path class="st13" d="M107.1,1074.4c-14.4,8.1-19.4,26-11,40c8.3,14,26.8,18.8,41.2,10.7s19.4-26,11-40
			C140,1071.1,121.5,1066.3,107.1,1074.4"/>
		<path class="st13" d="M260.8,1267.9c-10.7,12.4-9,30.8,3.7,41.2c12.8,10.4,31.8,8.8,42.5-3.6c10.7-12.4,9-30.8-3.7-41.2
			C290.5,1253.9,271.5,1255.6,260.8,1267.9"/>
		<path class="st13" d="M473.4,1398.8c-5.7,15.2,2.4,32,18,37.5c15.7,5.5,33-2.3,38.6-17.5c5.7-15.2-2.4-32-18-37.5
			C496.4,1375.8,479.1,1383.6,473.4,1398.8"/>
		<path class="st13" d="M719.4,1451.2c0,16.2,13.5,29.3,30.2,29.3c16.7,0,30.2-13.1,30.2-29.3s-13.5-29.3-30.2-29.3
			C732.9,1421.9,719.4,1435,719.4,1451.2"/>
		<path class="st13" d="M968.9,1418.8c5.7,15.2,23,23,38.6,17.5c15.7-5.5,23.7-22.3,18-37.5c-5.7-15.2-23-23-38.6-17.5
			C971.3,1386.8,963.2,1403.6,968.9,1418.8"/>
		<path class="st13" d="M1192,1305.5c10.7,12.4,29.7,14,42.5,3.6c12.8-10.4,14.4-28.8,3.7-41.2c-10.7-12.4-29.7-14-42.5-3.6
			C1183,1274.7,1181.3,1293.2,1192,1305.5"/>
		<path class="st13" d="M1361.7,1125.1c14.4,8.1,32.9,3.3,41.2-10.7c8.3-14,3.4-31.9-11-40s-32.9-3.3-41.2,10.7
			C1342.4,1099.1,1347.3,1117,1361.7,1125.1"/>
		<path class="st13" d="M1457.6,899.1c16.4,2.8,32-7.8,34.9-23.7c2.9-15.9-8.1-31.1-24.5-33.9c-16.4-2.8-32,7.8-34.9,23.7
			S1441.2,896.3,1457.6,899.1"/>
		<path class="st13" d="M1468.1,655c16.4-2.8,27.4-18,24.5-33.9s-18.5-26.5-34.9-23.7c-16.4,2.8-27.4,18-24.5,33.9
			C1436,647.2,1451.7,657.8,1468.1,655"/>
		<path class="st13" d="M1391.9,422.1c14.4-8.1,19.4-26,11-40c-8.3-14-26.8-18.8-41.2-10.7c-14.4,8.1-19.4,26-11,40
			C1359,425.4,1377.5,430.2,1391.9,422.1"/>
		<path class="st13" d="M1238.2,228.5c10.7-12.4,9-30.8-3.7-41.2c-12.8-10.4-31.8-8.8-42.5,3.6c-10.7,12.4-9,30.8,3.7,41.2
			C1208.5,242.5,1227.5,240.9,1238.2,228.5"/>
		<path class="st13" d="M1025.6,97.7c5.7-15.2-2.4-32-18-37.5c-15.7-5.5-33,2.3-38.6,17.5c-5.7,15.2,2.4,32,18,37.5
			C1002.6,120.7,1019.9,112.8,1025.6,97.7"/>
		<path class="st13" d="M749.5,585.4c16.7,0,30.2-13.1,30.2-29.3c0-16.2-13.5-29.3-30.2-29.3c-16.7,0-30.2,13.1-30.2,29.3
			C719.4,572.3,732.9,585.4,749.5,585.4"/>
		<path class="st13" d="M749.5,777.5c16.7,0,30.2-13.1,30.2-29.3S766.2,719,749.5,719c-16.7,0-30.2,13.1-30.2,29.3
			S732.9,777.5,749.5,777.5"/>
		<path class="st13" d="M641.7,623.5c12.8-10.4,14.4-28.8,3.7-41.2c-10.7-12.4-29.7-14-42.5-3.6c-12.8,10.4-14.4,28.8-3.7,41.2
			C609.9,632.3,628.9,633.9,641.7,623.5"/>
		<path class="st13" d="M584.3,720c2.9-15.9-8.1-31.1-24.5-33.9c-16.4-2.8-32,7.8-34.9,23.7c-2.9,15.9,8.1,31.1,24.5,33.9
			C565.8,746.5,581.4,735.9,584.3,720"/>
		<path class="st13" d="M604.2,829.6c-8.3-14-26.8-18.8-41.2-10.7c-14.4,8.1-19.4,26-11,40c8.3,14,26.8,18.8,41.2,10.7
			C607.6,861.5,612.5,843.6,604.2,829.6"/>
		<path class="st13" d="M692.1,901.2c-15.6-5.5-32.9,2.3-38.6,17.5c-5.7,15.2,2.4,32,18,37.5c15.6,5.5,32.9-2.3,38.6-17.5
			C715.8,923.5,707.8,906.8,692.1,901.2"/>
		<path class="st13" d="M806.9,901.2c-15.6,5.5-23.7,22.3-18,37.5c5.7,15.2,23,23,38.6,17.5c15.6-5.5,23.7-22.3,18-37.5
			C839.8,903.5,822.5,895.7,806.9,901.2"/>
		<path class="st13" d="M894.8,829.6c-8.3,14-3.4,31.9,11,40c14.4,8.1,32.9,3.3,41.2-10.7c8.3-14,3.4-31.9-11-40
			C921.6,810.9,903.1,815.6,894.8,829.6"/>
		<path class="st13" d="M914.7,720c2.9,15.9,18.5,26.5,34.9,23.7c16.4-2.8,27.3-18,24.5-33.9c-2.9-15.9-18.5-26.5-34.9-23.7
			C922.8,688.9,911.8,704,914.7,720"/>
		<path class="st13" d="M857.3,623.5c12.8,10.4,31.8,8.8,42.5-3.6c10.7-12.4,9-30.8-3.7-41.2c-12.8-10.4-31.8-8.8-42.5,3.6
			C842.9,594.7,844.6,613.1,857.3,623.5"/>
		<path class="st13" d="M577.9,459.7c14.4-8.1,19.4-26,11-40c-8.3-14-26.8-18.8-41.2-10.7c-14.4,8.1-19.4,26-11,40
			C545,463,563.5,467.8,577.9,459.7"/>
		<path class="st13" d="M452.2,581.7c8.3-14,3.4-31.9-11-40c-14.4-8.1-32.9-3.3-41.2,10.7c-8.3,14-3.4,31.9,11,40
			C425.5,600.5,443.9,595.7,452.2,581.7"/>
		<path class="st13" d="M406.3,748.2c0-16.2-13.5-29.3-30.2-29.3S346,732.1,346,748.2s13.5,29.3,30.2,29.3S406.3,764.4,406.3,748.2"
			/>
		<path class="st13" d="M452.2,914.8c-8.3-14-26.8-18.8-41.2-10.7c-14.4,8.1-19.4,26-11,40c8.3,14,26.8,18.8,41.2,10.7
			C455.6,946.7,460.6,928.8,452.2,914.8"/>
		<path class="st13" d="M577.9,1036.7c-14.4-8.1-32.9-3.3-41.2,10.7c-8.3,14-3.4,31.9,11,40c14.4,8.1,32.9,3.3,41.2-10.7
			C597.2,1062.7,592.3,1044.8,577.9,1036.7"/>
		<path class="st13" d="M749.5,1081.3c-16.7,0-30.2,13.1-30.2,29.3c0,16.2,13.5,29.3,30.2,29.3c16.7,0,30.2-13.1,30.2-29.3
			C779.7,1094.4,766.2,1081.3,749.5,1081.3"/>
		<path class="st13" d="M921.1,1036.7c-14.4,8.1-19.4,26-11,40c8.3,14,26.8,18.8,41.2,10.7c14.4-8.1,19.4-26,11-40
			C954,1033.4,935.5,1028.6,921.1,1036.7"/>
		<path class="st13" d="M1046.8,914.8c-8.3,14-3.4,31.9,11,40c14.4,8.1,32.9,3.3,41.2-10.7c8.3-14,3.4-31.9-11-40
			C1073.5,896,1055.1,900.8,1046.8,914.8"/>
		<path class="st13" d="M1092.7,748.2c0,16.2,13.5,29.3,30.2,29.3c16.7,0,30.2-13.1,30.2-29.3s-13.5-29.3-30.2-29.3
			C1106.2,719,1092.7,732.1,1092.7,748.2"/>
		<path class="st13" d="M1046.8,581.7c8.3,14,26.8,18.8,41.2,10.7c14.4-8.1,19.4-26,11-40c-8.3-14-26.8-18.8-41.2-10.7
			C1043.4,549.8,1038.4,567.7,1046.8,581.7"/>
		<path class="st13" d="M921.1,459.7c14.4,8.1,32.9,3.3,41.2-10.7c8.3-14,3.4-31.9-11-40c-14.4-8.1-32.9-3.3-41.2,10.7
			C901.8,433.8,906.7,451.7,921.1,459.7"/>
		<path class="st13" d="M590.1,237.7c-5.7-15.2-23-23-38.6-17.5c-15.7,5.5-23.7,22.3-18,37.5c5.7,15.2,23,23,38.6,17.5
			C587.7,269.7,595.8,252.9,590.1,237.7"/>
		<path class="st13" d="M419.8,321.4c-10.7-12.4-29.7-14-42.5-3.6c-12.8,10.4-14.4,28.8-3.7,41.2c10.7,12.4,29.7,14,42.5,3.6
			C428.8,352.2,430.5,333.8,419.8,321.4"/>
		<path class="st13" d="M289.2,456.6c-14.4-8.1-32.9-3.3-41.2,10.7c-8.3,14-3.4,31.9,11,40c14.4,8.1,32.9,3.3,41.2-10.7
			C308.6,482.5,303.7,464.6,289.2,456.6"/>
		<path class="st13" d="M214.2,626.9c-16.4-2.8-32,7.8-34.9,23.7c-2.9,15.9,8.1,31.1,24.5,33.9c16.4,2.8,32-7.8,34.9-23.7
			C241.6,644.9,230.6,629.7,214.2,626.9"/>
		<path class="st13" d="M203.7,811.9c-16.4,2.8-27.4,18-24.5,33.9c2.9,15.9,18.5,26.5,34.9,23.7c16.4-2.8,27.3-18,24.5-33.9
			C235.8,819.7,220.1,809.1,203.7,811.9"/>
		<path class="st13" d="M259.1,989.2c-14.4,8.1-19.4,26-11,40c8.3,14,26.8,18.8,41.2,10.7s19.4-26,11-40
			C291.9,985.9,273.5,981.1,259.1,989.2"/>
		<path class="st13" d="M373.6,1137.5c-10.7,12.4-9,30.8,3.7,41.2c12.8,10.4,31.8,8.8,42.5-3.6c10.7-12.4,9-30.8-3.7-41.2
			C403.3,1123.5,384.3,1125.1,373.6,1137.5"/>
		<path class="st13" d="M533.4,1238.8c-5.7,15.2,2.4,32,18,37.5c15.7,5.5,33-2.3,38.6-17.5c5.7-15.2-2.4-32-18-37.5
			C556.4,1215.8,539.1,1223.6,533.4,1238.8"/>
		<path class="st13" d="M719.4,1280.9c0,16.2,13.5,29.3,30.2,29.3c16.7,0,30.2-13.1,30.2-29.3s-13.5-29.3-30.2-29.3
			C732.9,1251.6,719.4,1264.7,719.4,1280.9"/>
		<path class="st13" d="M908.9,1258.8c5.7,15.2,23,23,38.6,17.5c15.7-5.5,23.7-22.3,18-37.5c-5.7-15.2-23-23-38.6-17.5
			C911.3,1226.8,903.2,1243.6,908.9,1258.8"/>
		<path class="st13" d="M1079.2,1175.1c10.7,12.4,29.7,14,42.5,3.6c12.8-10.4,14.4-28.8,3.7-41.2c-10.7-12.4-29.7-14-42.5-3.6
			C1070.2,1144.3,1068.5,1162.7,1079.2,1175.1"/>
		<path class="st13" d="M1209.8,1039.9c14.4,8.1,32.9,3.3,41.2-10.7c8.3-14,3.4-31.9-11-40c-14.4-8.1-32.9-3.3-41.2,10.7
			C1190.4,1013.9,1195.3,1031.8,1209.8,1039.9"/>
		<path class="st13" d="M1284.8,869.5c16.4,2.8,32-7.8,34.9-23.7c2.9-15.9-8.1-31.1-24.5-33.9c-16.4-2.8-32,7.8-34.9,23.7
			C1257.4,851.6,1268.4,866.7,1284.8,869.5"/>
		<path class="st13" d="M1295.3,684.6c16.4-2.8,27.4-18,24.5-33.9c-2.9-15.9-18.5-26.5-34.9-23.7c-16.4,2.8-27.4,18-24.5,33.9
			C1263.2,676.7,1278.9,687.4,1295.3,684.6"/>
		<path class="st13" d="M1239.9,507.2c14.4-8.1,19.4-26,11-40c-8.3-14-26.8-18.8-41.2-10.7c-14.4,8.1-19.4,26-11,40
			C1207.1,510.5,1225.5,515.3,1239.9,507.2"/>
		<path class="st13" d="M1125.4,359c10.7-12.4,9-30.8-3.7-41.2c-12.8-10.4-31.8-8.8-42.5,3.6c-10.7,12.4-9,30.8,3.7,41.2
			C1095.7,373,1114.7,371.4,1125.4,359"/>
		<path class="st13" d="M965.6,257.7c5.7-15.2-2.4-32-18-37.5c-15.7-5.5-33,2.3-38.6,17.5c-5.7,15.2,2.4,32,18,37.5
			C942.6,280.7,959.9,272.9,965.6,257.7"/>
	</g>
</g>
<g id="Capa_8" class="st0">
	<g class="st4">
		<path class="st14" d="M779.7,215.6c0-16.2-13.5-29.3-30.2-29.3c-16.7,0-30.2,13.1-30.2,29.3c0,16.2,13.5,29.3,30.2,29.3
			C766.2,244.8,779.7,231.7,779.7,215.6"/>
		<path class="st14" d="M749.5,415.1c16.7,0,30.2-13.1,30.2-29.3s-13.5-29.3-30.2-29.3c-16.7,0-30.2,13.1-30.2,29.3
			S732.9,415.1,749.5,415.1"/>
		<path class="st14" d="M779.7,45.3c0-16.2-13.5-29.3-30.2-29.3c-16.7,0-30.2,13.1-30.2,29.3c0,16.2,13.5,29.3,30.2,29.3
			C766.2,74.5,779.7,61.4,779.7,45.3"/>
		<path class="st14" d="M530.1,77.6c-5.7-15.2-23-23-38.6-17.5c-15.7,5.5-23.7,22.3-18,37.5c5.7,15.2,23,23,38.6,17.5
			C527.7,109.6,535.8,92.8,530.1,77.6"/>
		<path class="st14" d="M307,190.9c-10.7-12.4-29.7-14-42.5-3.6c-12.8,10.4-14.4,28.8-3.7,41.2c10.7,12.4,29.7,14,42.5,3.6
			C316,221.8,317.7,203.3,307,190.9"/>
		<path class="st14" d="M137.3,371.4c-14.4-8.1-32.9-3.3-41.2,10.7c-8.3,14-3.4,31.9,11,40c14.4,8.1,32.9,3.3,41.2-10.7
			C156.6,397.4,151.7,379.5,137.3,371.4"/>
		<path class="st14" d="M41.4,597.3c-16.4-2.8-32,7.8-34.9,23.7C3.6,637,14.5,652.2,30.9,655c16.4,2.8,32-7.8,34.9-23.7
			C68.7,615.3,57.8,600.2,41.4,597.3"/>
		<path class="st14" d="M30.9,841.5c-16.4,2.8-27.4,18-24.5,33.9c2.9,15.9,18.5,26.5,34.9,23.7c16.4-2.8,27.4-18,24.5-33.9
			C63,849.3,47.3,838.7,30.9,841.5"/>
		<path class="st14" d="M107.1,1074.4c-14.4,8.1-19.4,26-11,40c8.3,14,26.8,18.8,41.2,10.7s19.4-26,11-40
			C140,1071.1,121.5,1066.3,107.1,1074.4"/>
		<path class="st14" d="M260.8,1267.9c-10.7,12.4-9,30.8,3.7,41.2c12.8,10.4,31.8,8.8,42.5-3.6c10.7-12.4,9-30.8-3.7-41.2
			C290.5,1253.9,271.5,1255.6,260.8,1267.9"/>
		<path class="st14" d="M473.4,1398.8c-5.7,15.2,2.4,32,18,37.5c15.7,5.5,33-2.3,38.6-17.5c5.7-15.2-2.4-32-18-37.5
			C496.4,1375.8,479.1,1383.6,473.4,1398.8"/>
		<path class="st14" d="M719.4,1451.2c0,16.2,13.5,29.3,30.2,29.3c16.7,0,30.2-13.1,30.2-29.3s-13.5-29.3-30.2-29.3
			C732.9,1421.9,719.4,1435,719.4,1451.2"/>
		<path class="st14" d="M968.9,1418.8c5.7,15.2,23,23,38.6,17.5c15.7-5.5,23.7-22.3,18-37.5c-5.7-15.2-23-23-38.6-17.5
			C971.3,1386.8,963.2,1403.6,968.9,1418.8"/>
		<path class="st14" d="M1192,1305.5c10.7,12.4,29.7,14,42.5,3.6c12.8-10.4,14.4-28.8,3.7-41.2c-10.7-12.4-29.7-14-42.5-3.6
			C1183,1274.7,1181.3,1293.2,1192,1305.5"/>
		<path class="st14" d="M1361.7,1125.1c14.4,8.1,32.9,3.3,41.2-10.7c8.3-14,3.4-31.9-11-40s-32.9-3.3-41.2,10.7
			C1342.4,1099.1,1347.3,1117,1361.7,1125.1"/>
		<path class="st14" d="M1457.6,899.1c16.4,2.8,32-7.8,34.9-23.7c2.9-15.9-8.1-31.1-24.5-33.9c-16.4-2.8-32,7.8-34.9,23.7
			S1441.2,896.3,1457.6,899.1"/>
		<path class="st14" d="M1468.1,655c16.4-2.8,27.4-18,24.5-33.9s-18.5-26.5-34.9-23.7c-16.4,2.8-27.4,18-24.5,33.9
			C1436,647.2,1451.7,657.8,1468.1,655"/>
		<path class="st14" d="M1391.9,422.1c14.4-8.1,19.4-26,11-40c-8.3-14-26.8-18.8-41.2-10.7c-14.4,8.1-19.4,26-11,40
			C1359,425.4,1377.5,430.2,1391.9,422.1"/>
		<path class="st14" d="M1238.2,228.5c10.7-12.4,9-30.8-3.7-41.2c-12.8-10.4-31.8-8.8-42.5,3.6c-10.7,12.4-9,30.8,3.7,41.2
			C1208.5,242.5,1227.5,240.9,1238.2,228.5"/>
		<path class="st14" d="M1025.6,97.7c5.7-15.2-2.4-32-18-37.5c-15.7-5.5-33,2.3-38.6,17.5c-5.7,15.2,2.4,32,18,37.5
			C1002.6,120.7,1019.9,112.8,1025.6,97.7"/>
		<path class="st14" d="M749.5,585.4c16.7,0,30.2-13.1,30.2-29.3c0-16.2-13.5-29.3-30.2-29.3c-16.7,0-30.2,13.1-30.2,29.3
			C719.4,572.3,732.9,585.4,749.5,585.4"/>
		<path class="st14" d="M749.5,777.5c16.7,0,30.2-13.1,30.2-29.3S766.2,719,749.5,719c-16.7,0-30.2,13.1-30.2,29.3
			S732.9,777.5,749.5,777.5"/>
		<path class="st14" d="M641.7,623.5c12.8-10.4,14.4-28.8,3.7-41.2c-10.7-12.4-29.7-14-42.5-3.6c-12.8,10.4-14.4,28.8-3.7,41.2
			C609.9,632.3,628.9,633.9,641.7,623.5"/>
		<path class="st14" d="M584.3,720c2.9-15.9-8.1-31.1-24.5-33.9c-16.4-2.8-32,7.8-34.9,23.7c-2.9,15.9,8.1,31.1,24.5,33.9
			C565.8,746.5,581.4,735.9,584.3,720"/>
		<path class="st14" d="M604.2,829.6c-8.3-14-26.8-18.8-41.2-10.7c-14.4,8.1-19.4,26-11,40c8.3,14,26.8,18.8,41.2,10.7
			C607.6,861.5,612.5,843.6,604.2,829.6"/>
		<path class="st14" d="M692.1,901.2c-15.6-5.5-32.9,2.3-38.6,17.5c-5.7,15.2,2.4,32,18,37.5c15.6,5.5,32.9-2.3,38.6-17.5
			C715.8,923.5,707.8,906.8,692.1,901.2"/>
		<path class="st14" d="M806.9,901.2c-15.6,5.5-23.7,22.3-18,37.5c5.7,15.2,23,23,38.6,17.5c15.6-5.5,23.7-22.3,18-37.5
			C839.8,903.5,822.5,895.7,806.9,901.2"/>
		<path class="st14" d="M894.8,829.6c-8.3,14-3.4,31.9,11,40c14.4,8.1,32.9,3.3,41.2-10.7c8.3-14,3.4-31.9-11-40
			C921.6,810.9,903.1,815.6,894.8,829.6"/>
		<path class="st14" d="M914.7,720c2.9,15.9,18.5,26.5,34.9,23.7c16.4-2.8,27.3-18,24.5-33.9c-2.9-15.9-18.5-26.5-34.9-23.7
			C922.8,688.9,911.8,704,914.7,720"/>
		<path class="st14" d="M857.3,623.5c12.8,10.4,31.8,8.8,42.5-3.6c10.7-12.4,9-30.8-3.7-41.2c-12.8-10.4-31.8-8.8-42.5,3.6
			C842.9,594.7,844.6,613.1,857.3,623.5"/>
		<path class="st14" d="M577.9,459.7c14.4-8.1,19.4-26,11-40c-8.3-14-26.8-18.8-41.2-10.7c-14.4,8.1-19.4,26-11,40
			C545,463,563.5,467.8,577.9,459.7"/>
		<path class="st14" d="M452.2,581.7c8.3-14,3.4-31.9-11-40c-14.4-8.1-32.9-3.3-41.2,10.7c-8.3,14-3.4,31.9,11,40
			C425.5,600.5,443.9,595.7,452.2,581.7"/>
		<path class="st14" d="M406.3,748.2c0-16.2-13.5-29.3-30.2-29.3S346,732.1,346,748.2s13.5,29.3,30.2,29.3S406.3,764.4,406.3,748.2"
			/>
		<path class="st14" d="M452.2,914.8c-8.3-14-26.8-18.8-41.2-10.7c-14.4,8.1-19.4,26-11,40c8.3,14,26.8,18.8,41.2,10.7
			C455.6,946.7,460.6,928.8,452.2,914.8"/>
		<path class="st14" d="M577.9,1036.7c-14.4-8.1-32.9-3.3-41.2,10.7c-8.3,14-3.4,31.9,11,40c14.4,8.1,32.9,3.3,41.2-10.7
			C597.2,1062.7,592.3,1044.8,577.9,1036.7"/>
		<path class="st14" d="M749.5,1081.3c-16.7,0-30.2,13.1-30.2,29.3c0,16.2,13.5,29.3,30.2,29.3c16.7,0,30.2-13.1,30.2-29.3
			C779.7,1094.4,766.2,1081.3,749.5,1081.3"/>
		<path class="st14" d="M921.1,1036.7c-14.4,8.1-19.4,26-11,40c8.3,14,26.8,18.8,41.2,10.7c14.4-8.1,19.4-26,11-40
			C954,1033.4,935.5,1028.6,921.1,1036.7"/>
		<path class="st14" d="M1046.8,914.8c-8.3,14-3.4,31.9,11,40c14.4,8.1,32.9,3.3,41.2-10.7c8.3-14,3.4-31.9-11-40
			C1073.5,896,1055.1,900.8,1046.8,914.8"/>
		<path class="st14" d="M1092.7,748.2c0,16.2,13.5,29.3,30.2,29.3c16.7,0,30.2-13.1,30.2-29.3s-13.5-29.3-30.2-29.3
			C1106.2,719,1092.7,732.1,1092.7,748.2"/>
		<path class="st14" d="M1046.8,581.7c8.3,14,26.8,18.8,41.2,10.7c14.4-8.1,19.4-26,11-40c-8.3-14-26.8-18.8-41.2-10.7
			C1043.4,549.8,1038.4,567.7,1046.8,581.7"/>
		<path class="st14" d="M921.1,459.7c14.4,8.1,32.9,3.3,41.2-10.7c8.3-14,3.4-31.9-11-40c-14.4-8.1-32.9-3.3-41.2,10.7
			C901.8,433.8,906.7,451.7,921.1,459.7"/>
		<path class="st14" d="M590.1,237.7c-5.7-15.2-23-23-38.6-17.5c-15.7,5.5-23.7,22.3-18,37.5c5.7,15.2,23,23,38.6,17.5
			C587.7,269.7,595.8,252.9,590.1,237.7"/>
		<path class="st14" d="M419.8,321.4c-10.7-12.4-29.7-14-42.5-3.6c-12.8,10.4-14.4,28.8-3.7,41.2c10.7,12.4,29.7,14,42.5,3.6
			C428.8,352.2,430.5,333.8,419.8,321.4"/>
		<path class="st14" d="M289.2,456.6c-14.4-8.1-32.9-3.3-41.2,10.7c-8.3,14-3.4,31.9,11,40c14.4,8.1,32.9,3.3,41.2-10.7
			C308.6,482.5,303.7,464.6,289.2,456.6"/>
		<path class="st14" d="M214.2,626.9c-16.4-2.8-32,7.8-34.9,23.7c-2.9,15.9,8.1,31.1,24.5,33.9c16.4,2.8,32-7.8,34.9-23.7
			C241.6,644.9,230.6,629.7,214.2,626.9"/>
		<path class="st14" d="M203.7,811.9c-16.4,2.8-27.4,18-24.5,33.9c2.9,15.9,18.5,26.5,34.9,23.7c16.4-2.8,27.3-18,24.5-33.9
			C235.8,819.7,220.1,809.1,203.7,811.9"/>
		<path class="st14" d="M259.1,989.2c-14.4,8.1-19.4,26-11,40c8.3,14,26.8,18.8,41.2,10.7s19.4-26,11-40
			C291.9,985.9,273.5,981.1,259.1,989.2"/>
		<path class="st14" d="M373.6,1137.5c-10.7,12.4-9,30.8,3.7,41.2c12.8,10.4,31.8,8.8,42.5-3.6c10.7-12.4,9-30.8-3.7-41.2
			C403.3,1123.5,384.3,1125.1,373.6,1137.5"/>
		<path class="st14" d="M533.4,1238.8c-5.7,15.2,2.4,32,18,37.5c15.7,5.5,33-2.3,38.6-17.5c5.7-15.2-2.4-32-18-37.5
			C556.4,1215.8,539.1,1223.6,533.4,1238.8"/>
		<path class="st14" d="M719.4,1280.9c0,16.2,13.5,29.3,30.2,29.3c16.7,0,30.2-13.1,30.2-29.3s-13.5-29.3-30.2-29.3
			C732.9,1251.6,719.4,1264.7,719.4,1280.9"/>
		<path class="st14" d="M908.9,1258.8c5.7,15.2,23,23,38.6,17.5c15.7-5.5,23.7-22.3,18-37.5c-5.7-15.2-23-23-38.6-17.5
			C911.3,1226.8,903.2,1243.6,908.9,1258.8"/>
		<path class="st14" d="M1079.2,1175.1c10.7,12.4,29.7,14,42.5,3.6c12.8-10.4,14.4-28.8,3.7-41.2c-10.7-12.4-29.7-14-42.5-3.6
			C1070.2,1144.3,1068.5,1162.7,1079.2,1175.1"/>
		<path class="st14" d="M1209.8,1039.9c14.4,8.1,32.9,3.3,41.2-10.7c8.3-14,3.4-31.9-11-40c-14.4-8.1-32.9-3.3-41.2,10.7
			C1190.4,1013.9,1195.3,1031.8,1209.8,1039.9"/>
		<path class="st14" d="M1284.8,869.5c16.4,2.8,32-7.8,34.9-23.7c2.9-15.9-8.1-31.1-24.5-33.9c-16.4-2.8-32,7.8-34.9,23.7
			C1257.4,851.6,1268.4,866.7,1284.8,869.5"/>
		<path class="st14" d="M1295.3,684.6c16.4-2.8,27.4-18,24.5-33.9c-2.9-15.9-18.5-26.5-34.9-23.7c-16.4,2.8-27.4,18-24.5,33.9
			C1263.2,676.7,1278.9,687.4,1295.3,684.6"/>
		<path class="st14" d="M1239.9,507.2c14.4-8.1,19.4-26,11-40c-8.3-14-26.8-18.8-41.2-10.7c-14.4,8.1-19.4,26-11,40
			C1207.1,510.5,1225.5,515.3,1239.9,507.2"/>
		<path class="st14" d="M1125.4,359c10.7-12.4,9-30.8-3.7-41.2c-12.8-10.4-31.8-8.8-42.5,3.6c-10.7,12.4-9,30.8,3.7,41.2
			C1095.7,373,1114.7,371.4,1125.4,359"/>
		<path class="st14" d="M965.6,257.7c5.7-15.2-2.4-32-18-37.5c-15.7-5.5-33,2.3-38.6,17.5c-5.7,15.2,2.4,32,18,37.5
			C942.6,280.7,959.9,272.9,965.6,257.7"/>
	</g>
</g>
<g id="Capa_9" class="st0">
	<g class="st4">
		<path class="st15" d="M857.8,188.7c-1.1,6.6-7.4,11-14,9.9c-6.6-1.1-11-7.4-9.9-14c1.1-6.6,7.4-11,14-9.9
			C854.5,175.8,858.9,182.1,857.8,188.7"/>
		<path class="st15" d="M758.7,178.4c0,6.7-5.4,12.1-12.1,12.2c-6.7,0-12.1-5.4-12.2-12.1c0-6.7,5.4-12.1,12.1-12.2
			C753.3,166.3,758.7,171.7,758.7,178.4"/>
		<path class="st15" d="M758.1,30.4c0,6.7-5.4,12.1-12.1,12.2c-6.7,0-12.1-5.4-12.2-12.1c0-6.7,5.4-12.1,12.1-12.2
			C752.6,18.3,758.1,23.7,758.1,30.4"/>
		<path class="st15" d="M820.9,109.6c0,6.7-5.4,12.1-12.1,12.2c-6.7,0-12.1-5.4-12.2-12.1c0-6.7,5.4-12.1,12.1-12.2
			C815.4,97.5,820.8,102.9,820.9,109.6"/>
		<path class="st15" d="M708.6,106.8c1.2,6.6-3.2,12.9-9.8,14.1c-6.6,1.2-12.9-3.2-14.1-9.8c-1.2-6.6,3.2-12.9,9.8-14.1
			C701.1,95.9,707.5,100.3,708.6,106.8"/>
		<path class="st15" d="M597.6,123.7c2.3,6.3-0.9,13.3-7.2,15.6c-6.3,2.3-13.2-0.9-15.6-7.2c-2.3-6.3,0.9-13.3,7.2-15.6
			S595.3,117.4,597.6,123.7"/>
		<path class="st15" d="M491.3,159.5c3.4,5.8,1.4,13.2-4.4,16.6c-5.8,3.4-13.2,1.4-16.6-4.4c-3.4-5.8-1.4-13.2,4.4-16.6
			C480.5,151.8,487.9,153.7,491.3,159.5"/>
		<path class="st15" d="M392.7,213.3c4.3,5.1,3.7,12.8-1.4,17.1c-5.1,4.3-12.7,3.7-17.1-1.4c-4.3-5.1-3.7-12.8,1.4-17.1
			C380.7,207.5,388.4,208.2,392.7,213.3"/>
		<path class="st15" d="M305,283.4c5.1,4.3,5.8,11.9,1.6,17.1c-4.3,5.1-11.9,5.9-17.1,1.6c-5.1-4.3-5.8-11.9-1.6-17.1
			C292.2,279.8,299.8,279.1,305,283.4"/>
		<path class="st15" d="M230.7,367.7c5.8,3.3,7.8,10.7,4.5,16.5c-3.3,5.8-10.7,7.8-16.5,4.5c-5.8-3.3-7.8-10.7-4.5-16.5
			C217.5,366.4,224.9,364.4,230.7,367.7"/>
		<path class="st15" d="M172.3,463.6c6.3,2.3,9.6,9.2,7.3,15.5c-2.3,6.3-9.2,9.6-15.5,7.3c-6.3-2.3-9.6-9.2-7.3-15.5
			C159,464.6,166,461.3,172.3,463.6"/>
		<path class="st15" d="M131.3,568.2c6.6,1.1,11,7.4,9.9,14c-1.1,6.6-7.4,11-14,9.9c-6.6-1.1-11-7.4-9.9-14
			C118.5,571.5,124.7,567.1,131.3,568.2"/>
		<path class="st15" d="M109.1,678.4c6.7,0,12.1,5.4,12.2,12.1c0,6.7-5.4,12.1-12.1,12.2c-6.7,0-12.1-5.4-12.2-12.1
			C97,683.8,102.4,678.4,109.1,678.4"/>
		<path class="st15" d="M106.4,790.7c6.6-1.2,12.9,3.2,14.1,9.8c1.2,6.6-3.2,12.9-9.8,14.1c-6.6,1.2-12.9-3.2-14.1-9.8
			C95.4,798.2,99.8,791.9,106.4,790.7"/>
		<path class="st15" d="M123.2,901.8c6.3-2.3,13.2,0.9,15.6,7.2c2.3,6.3-0.9,13.3-7.2,15.6c-6.3,2.3-13.2-0.9-15.6-7.2
			C113.7,911.1,116.9,904.1,123.2,901.8"/>
		<path class="st15" d="M159,1008.3c5.8-3.4,13.2-1.4,16.6,4.4c3.4,5.8,1.4,13.2-4.4,16.6c-5.8,3.4-13.2,1.4-16.6-4.4
			C151.3,1019.1,153.2,1011.6,159,1008.3"/>
		<path class="st15" d="M212.7,1106.9c5.1-4.3,12.7-3.7,17.1,1.4c4.3,5.1,3.7,12.8-1.4,17.1c-5.1,4.3-12.7,3.7-17.1-1.4
			C207,1118.9,207.6,1111.2,212.7,1106.9"/>
		<path class="st15" d="M282.8,1194.7c4.3-5.1,11.9-5.9,17.1-1.6c5.1,4.3,5.8,11.9,1.6,17.1c-4.3,5.1-11.9,5.9-17.1,1.6
			C279.2,1207.5,278.5,1199.9,282.8,1194.7"/>
		<path class="st15" d="M367,1269c3.3-5.8,10.7-7.8,16.5-4.5c5.8,3.3,7.8,10.7,4.5,16.5c-3.3,5.8-10.7,7.8-16.5,4.5
			C365.7,1282.3,363.7,1274.8,367,1269"/>
		<path class="st15" d="M462.8,1327.6c2.3-6.3,9.2-9.6,15.5-7.3c6.3,2.3,9.6,9.2,7.3,15.5c-2.3,6.3-9.2,9.6-15.5,7.3
			C463.8,1340.8,460.5,1333.9,462.8,1327.6"/>
		<path class="st15" d="M567.3,1368.6c1.1-6.6,7.4-11,14-9.9c6.6,1.1,11,7.4,9.9,14c-1.1,6.6-7.4,11-14,9.9
			C570.6,1381.4,566.2,1375.2,567.3,1368.6"/>
		<path class="st15" d="M677.4,1390.8c0-6.7,5.4-12.1,12.1-12.2c6.7,0,12.1,5.4,12.2,12.1c0,6.7-5.4,12.1-12.1,12.2
			C682.8,1402.9,677.4,1397.5,677.4,1390.8"/>
		<path class="st15" d="M789.6,1393.5c-1.2-6.6,3.2-12.9,9.8-14.1c6.6-1.2,12.9,3.2,14.1,9.8c1.2,6.6-3.2,12.9-9.8,14.1
			C797.1,1404.5,790.8,1400.1,789.6,1393.5"/>
		<path class="st15" d="M900.6,1376.7c-2.3-6.3,0.9-13.3,7.2-15.6c6.3-2.3,13.2,0.9,15.6,7.2c2.3,6.3-0.9,13.3-7.2,15.6
			S902.9,1383,900.6,1376.7"/>
		<path class="st15" d="M1007,1340.9c-3.4-5.8-1.4-13.2,4.4-16.6c5.8-3.4,13.2-1.4,16.6,4.4c3.4,5.8,1.4,13.2-4.4,16.6
			C1017.8,1348.6,1010.3,1346.6,1007,1340.9"/>
		<path class="st15" d="M1105.5,1287.1c-4.3-5.1-3.7-12.8,1.4-17.1c5.1-4.3,12.7-3.7,17.1,1.4c4.3,5.1,3.7,12.8-1.4,17.1
			S1109.9,1292.2,1105.5,1287.1"/>
		<path class="st15" d="M1193.3,1217c-5.1-4.3-5.8-11.9-1.6-17.1c4.3-5.1,11.9-5.9,17.1-1.6s5.8,11.9,1.6,17.1
			C1206,1220.5,1198.4,1221.2,1193.3,1217"/>
		<path class="st15" d="M1267.5,1132.7c-5.8-3.3-7.8-10.7-4.5-16.5c3.3-5.8,10.7-7.8,16.5-4.5c5.8,3.3,7.8,10.7,4.5,16.5
			C1280.7,1134,1273.3,1136,1267.5,1132.7"/>
		<path class="st15" d="M1326,1036.8c-6.3-2.3-9.6-9.2-7.3-15.5c2.3-6.3,9.2-9.6,15.5-7.3c6.3,2.3,9.6,9.2,7.3,15.5
			C1339.2,1035.8,1332.3,1039,1326,1036.8"/>
		<path class="st15" d="M1366.9,932.1c-6.6-1.1-11-7.4-9.9-14c1.1-6.6,7.4-11,14-9.9c6.6,1.1,11,7.4,9.9,14
			S1373.5,933.3,1366.9,932.1"/>
		<path class="st15" d="M1389.1,822c-6.7,0-12.1-5.4-12.2-12.1c0-6.7,5.4-12.1,12.1-12.2c6.7,0,12.1,5.4,12.2,12.1
			C1401.2,816.5,1395.8,822,1389.1,822"/>
		<path class="st15" d="M1391.8,709.7c-6.6,1.2-12.9-3.2-14.1-9.8c-1.2-6.6,3.2-12.9,9.8-14.1c6.6-1.2,12.9,3.2,14.1,9.8
			C1402.8,702.2,1398.4,708.5,1391.8,709.7"/>
		<path class="st15" d="M1375,598.6c-6.3,2.3-13.2-0.9-15.6-7.2c-2.3-6.3,0.9-13.3,7.2-15.6c6.3-2.3,13.2,0.9,15.6,7.2
			C1384.5,589.3,1381.3,596.3,1375,598.6"/>
		<path class="st15" d="M1339.2,492.1c-5.8,3.4-13.2,1.4-16.6-4.4c-3.4-5.8-1.4-13.2,4.4-16.6c5.8-3.4,13.2-1.4,16.6,4.4
			C1347,481.3,1345,488.7,1339.2,492.1"/>
		<path class="st15" d="M1285.5,393.4c-5.1,4.3-12.7,3.7-17.1-1.4c-4.3-5.1-3.7-12.8,1.4-17.1c5.1-4.3,12.7-3.7,17.1,1.4
			C1291.2,381.5,1290.6,389.1,1285.5,393.4"/>
		<path class="st15" d="M1215.5,305.6c-4.3,5.1-11.9,5.9-17.1,1.6c-5.1-4.3-5.8-11.9-1.6-17.1c4.3-5.1,11.9-5.9,17.1-1.6
			C1219,292.8,1219.7,300.5,1215.5,305.6"/>
		<path class="st15" d="M1131.2,231.3c-3.3,5.8-10.7,7.8-16.5,4.5c-5.8-3.3-7.8-10.7-4.5-16.5c3.3-5.8,10.7-7.8,16.5-4.5
			C1132.5,218.1,1134.6,225.5,1131.2,231.3"/>
		<path class="st15" d="M1035.4,172.8c-2.3,6.3-9.2,9.6-15.5,7.3c-6.3-2.3-9.6-9.2-7.3-15.5c2.3-6.3,9.2-9.6,15.5-7.3
			C1034.4,159.5,1037.7,166.5,1035.4,172.8"/>
		<path class="st15" d="M930.9,131.8c-1.1,6.6-7.4,11-14,9.9c-6.6-1.1-11-7.4-9.9-14c1.1-6.6,7.4-11,14-9.9
			C927.6,118.9,932,125.2,930.9,131.8"/>
		<path class="st15" d="M633.1,39.8c1.2,6.6-3.2,12.9-9.8,14.1c-6.6,1.2-12.9-3.2-14.1-9.8c-1.2-6.6,3.2-12.9,9.8-14.1
			C625.6,28.8,631.9,33.2,633.1,39.8"/>
		<path class="st15" d="M511.6,70.8c2.3,6.3-0.9,13.3-7.2,15.6c-6.3,2.3-13.2-0.9-15.6-7.2c-2.3-6.3,0.9-13.3,7.2-15.6
			C502.3,61.3,509.3,64.5,511.6,70.8"/>
		<path class="st15" d="M397.4,122.4c3.4,5.8,1.4,13.2-4.4,16.6c-5.8,3.4-13.2,1.4-16.6-4.4c-3.4-5.8-1.4-13.2,4.4-16.6
			C386.6,114.6,394,116.6,397.4,122.4"/>
		<path class="st15" d="M293.8,193c4.3,5.1,3.7,12.8-1.4,17.1c-5.1,4.3-12.7,3.7-17.1-1.4c-4.3-5.1-3.7-12.8,1.4-17.1
			C281.8,187.3,289.5,187.9,293.8,193"/>
		<path class="st15" d="M204,280.6c5.1,4.3,5.8,11.9,1.6,17.1c-4.3,5.1-11.9,5.9-17.1,1.6c-5.1-4.3-5.8-11.9-1.6-17.1
			C191.3,277.1,198.9,276.4,204,280.6"/>
		<path class="st15" d="M130.9,382.5c5.8,3.3,7.8,10.7,4.5,16.5c-3.3,5.8-10.7,7.8-16.5,4.5c-5.8-3.3-7.8-10.7-4.5-16.5
			C117.7,381.2,125.1,379.2,130.9,382.5"/>
		<path class="st15" d="M76.5,495.6c6.3,2.3,9.6,9.2,7.3,15.5c-2.3,6.3-9.2,9.6-15.5,7.3c-6.3-2.3-9.6-9.2-7.3-15.5
			C63.2,496.6,70.2,493.3,76.5,495.6"/>
		<path class="st15" d="M42.5,616.3c6.6,1.1,11,7.4,9.9,14c-1.1,6.6-7.4,11-14,9.9c-6.6-1.1-11-7.4-9.9-14
			C29.7,619.6,35.9,615.2,42.5,616.3"/>
		<path class="st15" d="M30,741.2c6.7,0,12.1,5.4,12.2,12.1c0,6.7-5.4,12.1-12.1,12.2c-6.7,0-12.1-5.4-12.2-12.1
			C18,746.7,23.4,741.2,30,741.2"/>
		<path class="st15" d="M39.4,866.3c6.6-1.2,12.9,3.2,14.1,9.8c1.2,6.6-3.2,12.9-9.8,14.1s-12.9-3.2-14.1-9.8
			C28.5,873.8,32.8,867.5,39.4,866.3"/>
		<path class="st15" d="M70.3,987.9c6.3-2.3,13.2,0.9,15.6,7.2s-0.9,13.3-7.2,15.6c-6.3,2.3-13.2-0.9-15.6-7.2
			C60.9,997.2,64.1,990.2,70.3,987.9"/>
		<path class="st15" d="M121.9,1102.3c5.8-3.4,13.2-1.4,16.6,4.4c3.4,5.8,1.4,13.2-4.4,16.6c-5.8,3.4-13.2,1.4-16.6-4.4
			C114.2,1113.1,116.1,1105.6,121.9,1102.3"/>
		<path class="st15" d="M192.5,1205.9c5.1-4.3,12.7-3.7,17.1,1.4c4.3,5.1,3.7,12.8-1.4,17.1c-5.1,4.3-12.7,3.7-17.1-1.4
			C186.8,1217.9,187.4,1210.3,192.5,1205.9"/>
		<path class="st15" d="M280,1295.8c4.3-5.1,11.9-5.9,17.1-1.6c5.1,4.3,5.8,11.9,1.6,17.1c-4.3,5.1-11.9,5.9-17.1,1.6
			C276.5,1308.6,275.8,1300.9,280,1295.8"/>
		<path class="st15" d="M381.8,1369c3.3-5.8,10.7-7.8,16.5-4.5c5.8,3.3,7.8,10.7,4.5,16.5c-3.3,5.8-10.7,7.8-16.5,4.5
			C380.5,1382.2,378.5,1374.8,381.8,1369"/>
		<path class="st15" d="M494.7,1423.4c2.3-6.3,9.2-9.6,15.5-7.3c6.3,2.3,9.6,9.2,7.3,15.5c-2.3,6.3-9.2,9.6-15.5,7.3
			C495.8,1436.7,492.5,1429.8,494.7,1423.4"/>
		<path class="st15" d="M615.4,1457.4c1.1-6.6,7.4-11,14-9.9c6.6,1.1,11,7.4,9.9,14c-1.1,6.6-7.4,11-14,9.9
			C618.7,1470.3,614.3,1464,615.4,1457.4"/>
		<path class="st15" d="M740.1,1469.9c0-6.7,5.4-12.1,12.1-12.2c6.7,0,12.1,5.4,12.2,12.1c0,6.7-5.4,12.1-12.1,12.2
			C745.6,1482,740.2,1476.6,740.1,1469.9"/>
		<path class="st15" d="M865.1,1460.6c-1.2-6.6,3.2-12.9,9.8-14.1c6.6-1.2,12.9,3.2,14.1,9.8c1.2,6.6-3.2,12.9-9.8,14.1
			C872.6,1471.5,866.3,1467.1,865.1,1460.6"/>
		<path class="st15" d="M986.6,1429.6c-2.3-6.3,0.9-13.3,7.2-15.6c6.3-2.3,13.2,0.9,15.6,7.2c2.3,6.3-0.9,13.3-7.2,15.6
			C995.9,1439.1,988.9,1435.9,986.6,1429.6"/>
		<path class="st15" d="M1100.9,1378c-3.4-5.8-1.4-13.2,4.4-16.6c5.8-3.4,13.2-1.4,16.6,4.4c3.4,5.8,1.4,13.2-4.4,16.6
			C1111.7,1385.7,1104.3,1383.8,1100.9,1378"/>
		<path class="st15" d="M1204.5,1307.3c-4.3-5.1-3.7-12.8,1.4-17.1c5.1-4.3,12.7-3.7,17.1,1.4c4.3,5.1,3.7,12.8-1.4,17.1
			C1216.4,1313.1,1208.8,1312.4,1204.5,1307.3"/>
		<path class="st15" d="M1294.2,1219.7c-5.1-4.3-5.8-11.9-1.6-17.1c4.3-5.1,11.9-5.9,17.1-1.6c5.1,4.3,5.8,11.9,1.6,17.1
			C1307,1223.3,1299.3,1224,1294.2,1219.7"/>
		<path class="st15" d="M1367.4,1117.8c-5.8-3.3-7.8-10.7-4.5-16.5c3.3-5.8,10.7-7.8,16.5-4.5c5.8,3.3,7.8,10.7,4.5,16.5
			C1380.6,1119.1,1373.2,1121.2,1367.4,1117.8"/>
		<path class="st15" d="M1421.8,1004.8c-6.3-2.3-9.6-9.2-7.3-15.5c2.3-6.3,9.2-9.6,15.5-7.3c6.3,2.3,9.6,9.2,7.3,15.5
			C1435,1003.8,1428.1,1007.1,1421.8,1004.8"/>
		<path class="st15" d="M1455.7,884c-6.6-1.1-11-7.4-9.9-14c1.1-6.6,7.4-11,14-9.9c6.6,1.1,11,7.4,9.9,14
			C1468.6,880.7,1462.3,885.1,1455.7,884"/>
		<path class="st15" d="M1468.2,759.2c-6.7,0-12.1-5.4-12.2-12.1c0-6.7,5.4-12.1,12.1-12.2c6.7,0,12.1,5.4,12.2,12.1
			C1480.3,753.7,1474.9,759.1,1468.2,759.2"/>
		<path class="st15" d="M1458.8,634c-6.6,1.2-12.9-3.2-14.1-9.8c-1.2-6.6,3.2-12.9,9.8-14.1c6.6-1.2,12.9,3.2,14.1,9.8
			C1469.8,626.5,1465.4,632.9,1458.8,634"/>
		<path class="st15" d="M1427.9,512.5c-6.3,2.3-13.2-0.9-15.6-7.2c-2.3-6.3,0.9-13.3,7.2-15.6c6.3-2.3,13.2,0.9,15.6,7.2
			C1437.4,503.2,1434.2,510.1,1427.9,512.5"/>
		<path class="st15" d="M1376.3,398.1c-5.8,3.4-13.2,1.4-16.6-4.4c-3.4-5.8-1.4-13.2,4.4-16.6c5.8-3.4,13.2-1.4,16.6,4.4
			C1384.1,387.3,1382.1,394.7,1376.3,398.1"/>
		<path class="st15" d="M1305.7,294.4c-5.1,4.3-12.7,3.7-17.1-1.4c-4.3-5.1-3.7-12.8,1.4-17.1c5.1-4.3,12.7-3.7,17.1,1.4
			C1311.5,282.4,1310.8,290.1,1305.7,294.4"/>
		<path class="st15" d="M1218.2,204.6c-4.3,5.1-11.9,5.9-17.1,1.6s-5.8-11.9-1.6-17.1c4.3-5.1,11.9-5.9,17.1-1.6
			C1221.8,191.8,1222.5,199.4,1218.2,204.6"/>
		<path class="st15" d="M1116.4,131.3c-3.3,5.8-10.7,7.8-16.5,4.5c-5.8-3.3-7.8-10.7-4.5-16.5c3.3-5.8,10.7-7.8,16.5-4.5
			C1117.7,118.1,1119.7,125.5,1116.4,131.3"/>
		<path class="st15" d="M1003.5,76.9c-2.3,6.3-9.2,9.6-15.5,7.3c-6.3-2.3-9.6-9.2-7.3-15.5c2.3-6.3,9.2-9.6,15.5-7.3
			C1002.5,63.7,1005.7,70.6,1003.5,76.9"/>
		<path class="st15" d="M874.8,29.4c6.3,2.2,9.7,9.1,7.5,15.4c-2.2,6.3-9.1,9.7-15.4,7.5c-6.3-2.2-9.7-9.1-7.5-15.4
			C861.6,30.6,868.5,27.2,874.8,29.4"/>
		<path class="st15" d="M659.4,185.4c1.2,6.6-3.2,12.9-9.8,14.1c-6.6,1.2-12.9-3.2-14.1-9.8c-1.2-6.6,3.2-12.9,9.8-14.1
			C651.9,174.4,658.2,178.8,659.4,185.4"/>
		<path class="st15" d="M562.8,209.5c2.3,6.3-0.9,13.3-7.2,15.6c-6.3,2.3-13.2-0.9-15.6-7.2c-2.3-6.3,0.9-13.3,7.2-15.6
			C553.5,200.1,560.5,203.3,562.8,209.5"/>
		<path class="st15" d="M471.8,250.2c3.4,5.8,1.4,13.2-4.4,16.6c-5.8,3.4-13.2,1.4-16.6-4.4c-3.4-5.8-1.4-13.2,4.4-16.6
			C461,242.4,468.4,244.4,471.8,250.2"/>
		<path class="st15" d="M389.3,305.9c4.3,5.1,3.7,12.8-1.4,17.1c-5.1,4.3-12.7,3.7-17.1-1.4c-4.3-5.1-3.7-12.8,1.4-17.1
			C377.3,300.2,385,300.8,389.3,305.9"/>
		<path class="st15" d="M317.7,375.2c5.1,4.3,5.8,11.9,1.6,17.1c-4.3,5.1-11.9,5.9-17.1,1.6c-5.1-4.3-5.8-11.9-1.6-17.1
			C304.9,371.7,312.5,371,317.7,375.2"/>
		<path class="st15" d="M259.2,455.9c5.8,3.3,7.8,10.7,4.5,16.5c-3.3,5.8-10.7,7.8-16.5,4.5c-5.8-3.3-7.8-10.7-4.5-16.5
			C246,454.6,253.4,452.6,259.2,455.9"/>
		<path class="st15" d="M215.6,545.6c6.3,2.3,9.6,9.2,7.3,15.5c-2.3,6.3-9.2,9.6-15.5,7.3c-6.3-2.3-9.6-9.2-7.3-15.5
			C202.3,546.6,209.3,543.3,215.6,545.6"/>
		<path class="st15" d="M188.2,641.4c6.6,1.1,11,7.4,9.9,14c-1.1,6.6-7.4,11-14,9.9c-6.6-1.1-11-7.4-9.9-14
			C175.3,644.7,181.6,640.3,188.2,641.4"/>
		<path class="st15" d="M177.8,740.5c6.7,0,12.1,5.4,12.2,12.1c0,6.7-5.4,12.1-12.1,12.2c-6.7,0-12.1-5.4-12.2-12.1
			C165.7,746,171.1,740.6,177.8,740.5"/>
		<path class="st15" d="M184.8,840c6.6-1.2,12.9,3.2,14.1,9.8c1.2,6.6-3.2,12.9-9.8,14.1c-6.6,1.2-12.9-3.2-14.1-9.8
			C173.9,847.5,178.3,841.2,184.8,840"/>
		<path class="st15" d="M209,936.7c6.3-2.3,13.2,0.9,15.6,7.2c2.3,6.3-0.9,13.3-7.2,15.6c-6.3,2.3-13.2-0.9-15.6-7.2
			C199.5,946,202.7,939,209,936.7"/>
		<path class="st15" d="M249.6,1027.7c5.8-3.4,13.2-1.4,16.6,4.4c3.4,5.8,1.4,13.2-4.4,16.6c-5.8,3.4-13.2,1.4-16.6-4.4
			C241.8,1038.5,243.8,1031.1,249.6,1027.7"/>
		<path class="st15" d="M305.3,1110.4c5.1-4.3,12.7-3.7,17.1,1.4c4.3,5.1,3.7,12.8-1.4,17.1c-5.1,4.3-12.7,3.7-17.1-1.4
			C299.6,1122.3,300.2,1114.7,305.3,1110.4"/>
		<path class="st15" d="M374.5,1182c4.3-5.1,11.9-5.9,17.1-1.6c5.1,4.3,5.8,11.9,1.6,17.1c-4.3,5.1-11.9,5.9-17.1,1.6
			C371,1194.8,370.3,1187.2,374.5,1182"/>
		<path class="st15" d="M455.1,1240.6c3.3-5.8,10.7-7.8,16.5-4.5c5.8,3.3,7.8,10.7,4.5,16.5c-3.3,5.8-10.7,7.8-16.5,4.5
			C453.8,1253.8,451.8,1246.4,455.1,1240.6"/>
		<path class="st15" d="M544.7,1284.2c2.3-6.3,9.2-9.6,15.5-7.3c6.3,2.3,9.6,9.2,7.3,15.5c-2.3,6.3-9.2,9.6-15.5,7.3
			C545.7,1297.5,542.4,1290.5,544.7,1284.2"/>
		<path class="st15" d="M640.4,1311.6c1.1-6.6,7.4-11,14-9.9c6.6,1.1,11,7.4,9.9,14c-1.1,6.6-7.4,11-14,9.9
			C643.7,1324.5,639.3,1318.2,640.4,1311.6"/>
		<path class="st15" d="M739.5,1322c0-6.7,5.4-12.1,12.1-12.2c6.7,0,12.1,5.4,12.2,12.1c0,6.7-5.4,12.1-12.1,12.2
			C745,1334.1,739.5,1328.7,739.5,1322"/>
		<path class="st15" d="M838.8,1315c-1.2-6.6,3.2-12.9,9.8-14.1c6.6-1.2,12.9,3.2,14.1,9.8c1.2,6.6-3.2,12.9-9.8,14.1
			C846.3,1325.9,840,1321.6,838.8,1315"/>
		<path class="st15" d="M935.5,1290.8c-2.3-6.3,0.9-13.3,7.2-15.6c6.3-2.3,13.2,0.9,15.6,7.2c2.3,6.3-0.9,13.3-7.2,15.6
			C944.7,1300.3,937.8,1297.1,935.5,1290.8"/>
		<path class="st15" d="M1026.4,1250.2c-3.4-5.8-1.4-13.2,4.4-16.6c5.8-3.4,13.2-1.4,16.6,4.4c3.4,5.8,1.4,13.2-4.4,16.6
			C1037.2,1257.9,1029.8,1256,1026.4,1250.2"/>
		<path class="st15" d="M1109,1194.4c-4.3-5.1-3.7-12.8,1.4-17.1c5.1-4.3,12.7-3.7,17.1,1.4c4.3,5.1,3.7,12.8-1.4,17.1
			S1113.3,1199.5,1109,1194.4"/>
		<path class="st15" d="M1180.6,1125.1c-5.1-4.3-5.8-11.9-1.6-17.1c4.3-5.1,11.9-5.9,17.1-1.6c5.1,4.3,5.8,11.9,1.6,17.1
			C1193.3,1128.7,1185.7,1129.4,1180.6,1125.1"/>
		<path class="st15" d="M1239.1,1044.4c-5.8-3.3-7.8-10.7-4.5-16.5c3.3-5.8,10.7-7.8,16.5-4.5c5.8,3.3,7.8,10.7,4.5,16.5
			C1252.3,1045.7,1244.9,1047.7,1239.1,1044.4"/>
		<path class="st15" d="M1282.7,954.8c-6.3-2.3-9.6-9.2-7.3-15.5c2.3-6.3,9.2-9.6,15.5-7.3c6.3,2.3,9.6,9.2,7.3,15.5
			C1295.9,953.8,1289,957.1,1282.7,954.8"/>
		<path class="st15" d="M1310,859c-6.6-1.1-11-7.4-9.9-14c1.1-6.6,7.4-11,14-9.9c6.6,1.1,11,7.4,9.9,14
			C1322.9,855.7,1316.6,860.1,1310,859"/>
		<path class="st15" d="M1320.4,759.8c-6.7,0-12.1-5.4-12.2-12.1c0-6.7,5.4-12.1,12.1-12.2c6.7,0,12.1,5.4,12.2,12.1
			C1332.5,754.3,1327.1,759.8,1320.4,759.8"/>
		<path class="st15" d="M1313.4,660.4c-6.6,1.2-12.9-3.2-14.1-9.8c-1.2-6.6,3.2-12.9,9.8-14.1c6.6-1.2,12.9,3.2,14.1,9.8
			C1324.3,652.9,1320,659.2,1313.4,660.4"/>
		<path class="st15" d="M1289.2,563.7c-6.3,2.3-13.2-0.9-15.6-7.2c-2.3-6.3,0.9-13.3,7.2-15.6c6.3-2.3,13.2,0.9,15.6,7.2
			C1298.7,554.4,1295.5,561.3,1289.2,563.7"/>
		<path class="st15" d="M1248.7,472.6c-5.8,3.4-13.2,1.4-16.6-4.4c-3.4-5.8-1.4-13.2,4.4-16.6c5.8-3.4,13.2-1.4,16.6,4.4
			S1254.4,469.2,1248.7,472.6"/>
		<path class="st15" d="M1192.9,390c-5.1,4.3-12.7,3.7-17.1-1.4c-4.3-5.1-3.7-12.8,1.4-17.1c5.1-4.3,12.7-3.7,17.1,1.4
			C1198.7,378,1198,385.7,1192.9,390"/>
		<path class="st15" d="M1123.7,318.3c-4.3,5.1-11.9,5.9-17.1,1.6c-5.1-4.3-5.8-11.9-1.6-17.1c4.3-5.1,11.9-5.9,17.1-1.6
			C1127.3,305.5,1128,313.2,1123.7,318.3"/>
		<path class="st15" d="M1043.1,259.8c-3.3,5.8-10.7,7.8-16.5,4.5c-5.8-3.3-7.8-10.7-4.5-16.5c3.3-5.8,10.7-7.8,16.5-4.5
			C1044.4,246.6,1046.4,254,1043.1,259.8"/>
		<path class="st15" d="M953.5,216.1c-2.3,6.3-9.2,9.6-15.5,7.3c-6.3-2.3-9.6-9.2-7.3-15.5c2.3-6.3,9.2-9.6,15.5-7.3
			C952.5,202.9,955.8,209.8,953.5,216.1"/>
	</g>
</g>
</svg>
