<svg id="Capa_52" data-name="Capa 52" xmlns="http://www.w3.org/2000/svg" viewBox="0 0 1500 1500"><defs><style>.cls-1{fill:none;stroke:#000;stroke-linecap:round;stroke-linejoin:round;stroke-width:22px;}</style></defs><title>Platillos_de_Temporada</title><path class="cls-1" d="M1370.89,859.14C1437.59,911,1476,971.88,1476,1037c0,189.43-325,343-726,343S24,1226.43,24,1037c0-66.7,40.3-129,110-181.62"/><path class="cls-1" d="M338.11,992.23C211.6,963.7,132,922.28,132,876.17c0-11.14-1-6.81,4-18.17"/><path class="cls-1" d="M1371,858.45v23.17c0,86.07-277.36,150.38-619.5,150.38-117.1,0-284.1-13.8-377.5-28"/><path class="cls-1" d="M453,60s37,30.23,74.3,79.15a471.7,471.7,0,0,1,28.79,42.17C605.19,262.67,636,374.89,547,486c0,0-211,234-94,425,0,0-242-192-112-379,84.39-121.39,213-258,127-422"/><path class="cls-1" d="M715,694c-6.2,32.89-12.53,99.79-6.53,133.88A236.28,236.28,0,0,0,740,911s-20.77-16.48-46.88-44.49c-63-67.59-157-202.3-65.12-334.51C758,345,882,171,740,60c0,0,263,215,94,426,0,0-61,69-103,137"/><path class="cls-1" d="M1041,901S799,709,929,522s254-361,112-472c0,0,263,215,94,426C1135,476,924,710,1041,901Z"/><path class="cls-1" d="M1412,1032s-94,284-648,284"/><line class="cls-1" x1="719.18" y1="1313.23" x2="719.18" y2="1313.23"/><line class="cls-1" x1="723.18" y1="662.23" x2="723.18" y2="662.23"/></svg>