<?xml version="1.0" encoding="UTF-8"?>
<svg width="235px" height="191px" viewBox="0 0 235 191" version="1.1" xmlns="http://www.w3.org/2000/svg" xmlns:xlink="http://www.w3.org/1999/xlink">
    <!-- Generator: Sketch 51.3 (57544) - http://www.bohemiancoding.com/sketch -->
    <title>Shape</title>
    <desc>Created with Sketch.</desc>
    <defs>
        <linearGradient x1="-236.395738%" y1="-209.647323%" x2="-32.6527256%" y2="187.824458%" id="linearGradient-1">
            <stop stop-color="#C37F2A" offset="0%"></stop>
            <stop stop-color="#FFE391" offset="39%"></stop>
            <stop stop-color="#9E5202" offset="78%"></stop>
            <stop stop-color="#EEA14D" offset="95%"></stop>
            <stop stop-color="#B16514" offset="100%"></stop>
        </linearGradient>
        <path d="M130.495098,1724.01744 C129.834967,1725.59624 129.834967,1727.37371 130.495098,1728.95251 C131.188733,1730.53854 132.394159,1731.84617 133.918621,1732.66632 C136.40695,1733.94913 139.270752,1734.304 141.996934,1733.66735 C139.294153,1735.5693 138.733576,1738.09189 138.993844,1737.67145 C139.916044,1736.78921 141.100008,1736.23061 142.367315,1736.07982 C143.658262,1736.09206 144.947812,1735.99157 146.221281,1735.77951 C146.605905,1735.73665 146.975668,1735.60654 147.302394,1735.39912 C147.759209,1735.14106 148.070436,1734.68566 148.14491,1734.1663 C148.219383,1733.64695 148.048674,1733.12243 147.682785,1732.7464 C147.183739,1732.24106 146.489449,1731.97796 145.780828,1732.02566 C146.760114,1731.39056 147.606658,1730.57121 148.273393,1729.61319 C148.57135,1729.1732 148.822949,1728.70355 149.024166,1728.21175 C149.136956,1728.82503 149.301033,1729.42777 149.51467,1730.0136 C150.774631,1733.225 153.148211,1735.87572 156.201552,1737.48126 C157.736891,1738.31233 159.386272,1738.91271 161.096589,1739.26309 C162.54598,1739.55923 164.02179,1739.70681 165.501122,1739.70354 L166.12176,1739.70354 C169.159296,1739.63249 172.151568,1738.95166 174.920815,1737.70149 C177.128783,1736.70586 179.131715,1735.30721 180.826893,1733.57725 C181.634023,1732.74217 182.348875,1731.8226 182.959087,1730.83444 C183.741402,1732.12148 184.694362,1733.29668 185.792002,1734.32802 C190.057311,1738.13748 195.713057,1740.0046 201.408072,1739.48331 C204.255858,1739.23315 206.99546,1738.27291 209.376272,1736.69045 C211.526722,1735.23331 213.201172,1733.17593 214.191227,1730.77438 C214.41042,1730.21095 214.58775,1729.63212 214.721773,1729.0426 L214.881937,1728.17171 C214.881937,1727.85138 214.95201,1727.56108 214.95201,1727.26077 C214.98083,1726.34561 214.872863,1725.43127 214.63168,1724.54799 C215.473279,1724.84814 216.392759,1724.84814 217.234358,1724.54799 C217.989003,1724.33561 218.61106,1723.80031 218.933573,1723.08576 C219.256086,1722.37122 219.24602,1721.55061 218.906079,1720.84419 C218.646396,1720.38095 218.265814,1719.99691 217.804945,1719.73305 C216.296828,1718.69464 214.686873,1717.81252 213.000001,1717.10035 C211.480966,1716.19562 210.364035,1714.74577 209.876787,1713.04619 C209.816725,1712.4756 208.815695,1715.14834 209.876787,1718.5118 L209.456354,1718.25153 C208.311488,1717.61485 207.080956,1717.14623 205.802594,1716.8601 L204.801564,1716.67992 L203.800534,1716.5698 C203.134343,1716.51409 202.464665,1716.51409 201.798474,1716.5698 C199.299334,1716.76073 196.946722,1717.82366 195.151634,1719.57288 C193.614117,1721.0396 192.779453,1723.09528 192.859275,1725.21868 C193.06523,1727.25316 194.214211,1729.07299 195.962468,1730.13372 C197.696907,1731.24209 199.769458,1731.69634 201.808484,1731.41504 C203.588079,1731.17849 205.186358,1730.20499 206.213017,1728.73228 C206.612655,1728.13091 206.86946,1727.4461 206.963789,1726.73023 C207.053165,1726.04792 206.949111,1725.35423 206.66348,1724.72817 C206.372477,1724.10677 205.93648,1723.56435 205.392172,1723.14655 C204.404713,1722.30507 203.145804,1721.84987 201.848525,1721.86524 C199.125723,1721.86524 196.923457,1723.71714 196.923457,1726.00949 C196.923457,1728.30184 199.125723,1730.16375 201.848525,1730.16375 L201.558227,1730.23382 C199.927103,1730.39638 198.29061,1729.98194 196.933467,1729.06262 C195.592659,1728.18239 194.737929,1726.72824 194.621088,1725.12858 C194.632264,1723.4167 195.358051,1721.78732 196.623148,1720.63397 C198.09418,1719.30954 199.972505,1718.52573 201.948628,1718.41169 C202.471738,1718.37171 202.997136,1718.37171 203.520246,1718.41169 L204.33108,1718.52181 L205.091863,1718.68197 C206.122114,1718.93476 207.110126,1719.33603 208.024881,1719.87319 C209.782514,1720.87758 211.134817,1722.46352 211.848816,1724.35779 C212.481114,1726.22236 212.369962,1728.25895 211.538497,1730.04363 C210.682535,1731.99748 209.268694,1733.65508 207.474315,1734.80852 C205.53866,1736.07711 203.314749,1736.83792 201.00766,1737.02079 C198.627634,1737.18044 196.24057,1736.83943 194.000449,1736.01976 C191.85287,1735.27312 189.890182,1734.07503 188.244526,1732.50615 C186.723122,1731.07479 185.578177,1729.29033 184.911096,1727.31082 C184.286891,1725.44322 184.166044,1723.44407 184.560735,1721.51488 C185.375897,1717.60322 187.603112,1714.12877 190.817173,1711.75486 C193.985045,1709.38018 197.739743,1707.91291 201.67835,1707.51051 C208.018252,1706.94422 214.356661,1708.61203 219.596789,1712.22534 L220.097304,1712.60573 C219.171246,1712.05585 218.211723,1711.56439 217.224348,1711.13422 C213.939972,1709.73221 210.422994,1708.95481 206.853676,1708.84187 C203.65482,1708.75705 200.4707,1709.30475 197.484034,1710.45353 C195.399642,1711.26493 193.449167,1712.38527 191.69808,1713.77694 C190.984082,1714.36355 190.31487,1715.00265 189.69602,1715.6889 C189.290999,1716.10857 189.001341,1716.62582 188.855154,1717.19044 C188.775072,1717.63089 188.855154,1717.96123 189.125432,1718.09136 C189.501723,1718.2021 189.90834,1718.12376 190.216555,1717.88115 C190.693548,1717.62126 191.123335,1717.28284 191.487863,1716.88012 C192.043753,1716.26808 192.63896,1715.69294 193.269697,1715.15835 C194.814337,1713.86974 196.545874,1712.82339 198.404982,1712.05517 C201.086317,1710.96141 203.957932,1710.41023 206.853676,1710.43351 C210.183639,1710.45873 213.479801,1711.10371 216.573678,1712.33546 C219.545835,1713.49866 222.265126,1715.22541 224.581919,1717.42068 C225.072424,1717.87114 226.073454,1718.89219 226.493887,1719.42273 C227.405967,1720.77191 228.222147,1722.1835 228.9364,1723.64706 C228.234714,1723.89109 227.751478,1724.53672 227.715144,1725.27874 C227.75578,1725.81416 228.009795,1726.31082 228.420136,1726.65716 C228.830476,1727.0035 229.362744,1727.1705 229.897389,1727.12063 L230.117616,1727.12063 C230.291258,1728.14391 230.401581,1729.17693 230.447956,1730.2138 C230.388361,1730.82086 230.271044,1731.42085 230.097595,1732.00564 C229.742857,1733.16083 229.212806,1734.2547 228.525978,1735.24897 C227.874587,1736.31157 226.914108,1737.1498 225.773145,1737.65143 C223.410714,1738.79261 220.197407,1738.73254 218.29545,1737.33111 C217.397837,1736.71472 216.773635,1735.77483 216.553658,1734.70841 C216.417805,1733.95076 216.511941,1733.16979 216.823936,1732.46611 C216.686738,1734.07112 217.720313,1735.54343 219.27646,1735.9597 C221.212321,1736.65901 223.370663,1735.86495 224.391724,1734.07777 C225.182537,1732.36601 224.181507,1730.43403 222.159426,1729.77335 C221.902366,1729.6853 221.637596,1729.62163 221.368613,1729.58316 L221.258499,1729.58316 C220.413481,1729.45349 219.54989,1729.52203 218.735903,1729.78336 C217.712213,1730.09135 216.820805,1730.7326 216.203297,1731.60523 C215.507507,1732.54246 215.192736,1733.70853 215.322391,1734.86858 C215.514755,1736.22272 216.234343,1737.44601 217.324451,1738.27207 C219.706903,1740.19404 223.650961,1740.38424 226.664062,1739.09291 C228.151079,1738.49921 229.4317,1737.48306 230.347853,1736.16991 C231.203177,1735.08397 231.863638,1733.85789 232.299862,1732.5462 C233.182118,1729.85018 233.368071,1726.97481 232.840418,1724.18762 C233.899263,1723.01165 235.299275,1722.19615 236.844538,1721.85523 L236.55424,1738.21201 C236.714067,1739.24102 237.600032,1740 238.641387,1740 C239.682742,1740 240.568707,1739.24102 240.728535,1738.21201 L240.448247,1721.78515 C241.957866,1722.06654 243.350801,1722.78738 244.452367,1723.85728 C243.832177,1726.74377 243.994608,1729.74355 244.922851,1732.5462 C245.359075,1733.85789 246.019536,1735.08397 246.87486,1736.16991 C247.791013,1737.48306 249.071633,1738.49921 250.558651,1739.09291 C253.561741,1740.38424 257.51581,1740.19404 259.908272,1738.27207 C260.99921,1737.44675 261.719017,1736.22308 261.910333,1734.86858 C262.039987,1733.70853 261.725216,1732.54246 261.029426,1731.60523 C260.411919,1730.7326 259.52051,1730.09135 258.49682,1729.78336 C257.686184,1729.52251 256.825949,1729.45396 255.984234,1729.58316 L255.864111,1729.58316 C255.595127,1729.62163 255.330357,1729.6853 255.073297,1729.77335 C253.071237,1730.43403 252.070206,1732.36601 252.841,1734.07777 C253.858403,1735.86342 256.013282,1736.65776 257.946253,1735.9597 C259.508893,1735.55103 260.549176,1734.07519 260.408787,1732.46611 C260.720783,1733.16979 260.814918,1733.95076 260.679066,1734.70841 C260.459088,1735.77483 259.834887,1736.71472 258.937273,1737.33111 C257.025306,1738.73254 253.822009,1738.79261 251.459578,1737.65143 C250.318615,1737.1498 249.358137,1736.31157 248.706745,1735.24897 C248.023801,1734.25244 247.494046,1733.15919 247.135128,1732.00564 C246.955305,1731.4229 246.841147,1730.82189 246.794778,1730.2138 C246.832416,1729.17675 246.939432,1728.14338 247.115107,1727.12063 L247.335334,1727.12063 C247.869979,1727.1705 248.402247,1727.0035 248.812587,1726.65716 C249.222928,1726.31082 249.476943,1725.81416 249.51758,1725.27874 C249.480156,1724.54023 249.002397,1723.89664 248.306333,1723.64706 C249.012835,1722.17939 249.829335,1720.76725 250.748847,1719.42273 C251.159269,1718.94224 252.160299,1717.92119 252.660814,1717.42068 C254.975259,1715.2224 257.695173,1713.49526 260.669055,1712.33546 C263.76613,1711.10271 267.065758,1710.45773 270.399068,1710.43351 C273.294523,1710.41339 276.165523,1710.96446 278.847762,1712.05517 C281.482091,1713.13183 283.844608,1714.77978 285.76488,1716.88012 C286.121777,1717.28684 286.549035,1717.62594 287.026178,1717.88115 C287.334393,1718.12376 287.741011,1718.2021 288.117301,1718.09136 C288.377569,1717.96123 288.477672,1717.63089 288.387579,1717.19044 C288.241393,1716.62582 287.951735,1716.10857 287.546714,1715.6889 C286.927864,1715.00265 286.258651,1714.36355 285.544654,1713.77694 C283.795033,1712.38311 281.844217,1711.26257 279.7587,1710.45353 C276.768976,1709.30319 273.581274,1708.75547 270.379047,1708.84187 C266.816324,1708.95589 263.306105,1709.73329 260.028396,1711.13422 C259.035827,1711.56023 258.07271,1712.05182 257.145429,1712.60573 L257.645944,1712.22534 C262.886073,1708.61203 269.224482,1706.94422 275.564383,1707.51051 C279.505996,1707.91312 283.263866,1709.38027 286.435571,1711.75486 C289.649632,1714.12877 291.876847,1717.60322 292.692009,1721.51488 C293.078303,1723.4453 292.954086,1725.44312 292.331638,1727.31082 C291.664456,1729.28789 290.523443,1731.07157 289.008218,1732.50615 C287.357757,1734.07378 285.392106,1735.2716 283.242284,1736.01976 C281.002528,1736.84088 278.615155,1737.18194 276.235074,1737.02079 C273.924533,1736.83957 271.696983,1736.0787 269.758409,1734.80852 C267.969775,1733.63312 266.56947,1731.95415 265.734268,1729.98357 C264.907872,1728.19762 264.796827,1726.163 265.423948,1724.29773 C266.138267,1722.40057 267.494869,1720.81374 269.257894,1719.81313 C270.168252,1719.27428 271.15322,1718.87287 272.180902,1718.62191 L272.951695,1718.46174 L273.762529,1718.35163 C274.282291,1718.31149 274.804374,1718.31149 275.324136,1718.35163 C277.30026,1718.46567 279.178584,1719.24948 280.649616,1720.57391 C281.918792,1721.72431 282.64542,1723.35558 282.651677,1725.06852 C282.539389,1726.6696 281.683558,1728.12562 280.339297,1729.00256 C278.982155,1729.92188 277.345662,1730.33631 275.714538,1730.17376 L275.43425,1730.10369 C278.157051,1730.10369 280.359318,1728.25179 280.359318,1725.94943 C280.359318,1723.64706 278.157051,1721.80517 275.43425,1721.80517 C274.138557,1721.78883 272.880411,1722.2402 271.890603,1723.07648 C271.342488,1723.49705 270.903117,1724.04283 270.609284,1724.66811 C270.333497,1725.29705 270.229855,1725.98799 270.308975,1726.67017 C270.403304,1727.38603 270.660109,1728.07084 271.059748,1728.67222 C272.08899,1730.14218 273.685945,1731.11487 275.46428,1731.35497 C277.503341,1731.63717 279.576198,1731.18285 281.310296,1730.07366 C283.058554,1729.01293 284.207535,1727.1931 284.41349,1725.15862 C284.497202,1723.03652 283.666069,1720.98057 282.131141,1719.51282 C280.332011,1717.76361 277.976308,1716.70089 275.474291,1716.50974 C274.8081,1716.45403 274.138421,1716.45403 273.47223,1716.50974 L272.4712,1716.61985 L271.47017,1716.80004 C270.191808,1717.08617 268.961276,1717.55479 267.81641,1718.19147 L267.405988,1718.45173 C268.407018,1715.08828 267.405988,1712.44557 267.405988,1712.98613 C266.91576,1714.68131 265.803986,1716.12911 264.292784,1717.04029 C262.60432,1717.75571 260.991363,1718.63763 259.477829,1719.67299 C259.01696,1719.93685 258.636379,1720.32089 258.376696,1720.78413 C258.036755,1721.49055 258.026689,1722.31116 258.349202,1723.0257 C258.671714,1723.74025 259.293772,1724.27555 260.048417,1724.48793 C260.890015,1724.78808 261.809496,1724.78808 262.651095,1724.48793 C262.405028,1725.37025 262.296973,1726.28534 262.330765,1727.20071 L262.410848,1728.11165 L262.561002,1728.98254 C262.690386,1729.57329 262.867825,1730.15247 263.091548,1730.71432 C264.076986,1733.14344 265.763705,1735.22396 267.936534,1736.69045 C270.302191,1738.30122 273.035887,1739.28934 275.884713,1739.5634 C281.576509,1740.08306 287.228538,1738.21598 291.490773,1734.40811 C292.588413,1733.37676 293.541373,1732.20156 294.323688,1730.91452 C294.933899,1731.90268 295.648752,1732.82225 296.455882,1733.65734 C298.15106,1735.38729 300.153991,1736.78595 302.36196,1737.78157 C305.131555,1739.0307 308.123614,1739.71149 311.161015,1739.78362 L311.781653,1739.78362 C313.260985,1739.78689 314.736795,1739.63931 316.186186,1739.34317 C317.896029,1738.99112 319.54517,1738.39082 321.081223,1737.56134 C324.131777,1735.95223 326.504288,1733.3027 327.768104,1730.09368 C327.990948,1729.51081 328.155258,1728.90723 328.258609,1728.29183 C328.46003,1728.78547 328.71516,1729.25544 329.019392,1729.69327 C329.677684,1730.65154 330.517762,1731.47121 331.491936,1732.10574 C330.786519,1732.05966 330.095949,1732.32274 329.599989,1732.82648 C329.23796,1733.20425 329.069838,1733.72756 329.144108,1734.24549 C329.218378,1734.76342 329.526782,1735.2184 329.980381,1735.47921 C330.308588,1735.68356 330.677636,1735.81341 331.061493,1735.8596 C332.334962,1736.07165 333.624513,1736.17214 334.915459,1736.1599 C336.182767,1736.31069 337.366731,1736.8693 338.288931,1737.75154 C338.58924,1738.13193 338.018653,1735.60934 335.285841,1733.74743 C335.9947,1733.89591 336.714493,1733.9863 337.438055,1734.01771 C338.11607,1735.57229 339.405383,1736.7783 341.001723,1737.35113 C342.601552,1737.89646 344.336971,1737.89646 345.936801,1737.35113 C347.449961,1736.8307 348.75324,1735.83305 349.650623,1734.50821 C350.922681,1732.50915 351.286523,1730.06413 350.651653,1727.78131 C352.55361,1730.02361 355.076206,1730.49409 354.655773,1730.26385 C353.804903,1729.54757 353.239985,1728.5492 353.064135,1727.45097 C353.07492,1726.37239 352.974283,1725.29557 352.763826,1724.23767 C352.718324,1723.91221 352.587035,1723.60472 352.383435,1723.34676 C351.732752,1722.53545 350.551073,1722.39722 349.730705,1723.03644 C349.236881,1723.40208 348.964851,1723.99525 349.009963,1724.60805 C348.021768,1723.3648 346.698329,1722.4304 345.196039,1721.91529 C345.806305,1721.82495 346.408705,1721.68774 346.997893,1721.50487 C350.051179,1720.57608 352.687202,1718.61587 354.455567,1715.95918 C355.275397,1714.71028 355.881,1713.3333 356.247411,1711.885 C356.54759,1710.6837 356.695567,1709.44943 356.687865,1708.21123 L356.687865,1707.66066 C356.609664,1705.09415 355.923511,1702.58284 354.685804,1700.33314 C353.642367,1698.44892 352.245467,1696.78352 350.57157,1695.42811 C349.715679,1694.74671 348.793427,1694.15312 347.818738,1693.65629 C349.081016,1693.03337 350.252907,1692.24201 351.302322,1691.30388 C355.013754,1688.04711 356.935286,1683.20606 356.467638,1678.29052 C356.167079,1675.85731 355.169359,1673.56291 353.594681,1671.68374 C352.034781,1669.8233 349.985531,1668.43633 347.678593,1667.67964 C347.11085,1667.49766 346.53251,1667.35057 345.946811,1667.23918 L345.075915,1667.10905 L344.164978,1667.04899 C343.252709,1667.01778 342.340363,1667.10867 341.452186,1667.31927 C341.756735,1666.6307 341.756735,1665.84562 341.452186,1665.15705 C340.807263,1663.75704 339.158539,1663.1332 337.748375,1663.75561 C337.305002,1663.96634 336.920049,1664.28255 336.627221,1664.67655 C335.621224,1665.92015 334.742587,1667.26157 334.004522,1668.68066 C333.015746,1669.99031 331.59869,1670.91139 330.000401,1671.28333 C329.409794,1671.33339 332.082544,1672.16424 335.456016,1671.28333 L335.205758,1671.62368 C334.573693,1672.53914 334.09995,1673.5543 333.804316,1674.62676 L333.624131,1675.44761 L333.504007,1676.24843 C333.443969,1676.8007 333.443969,1677.35786 333.504007,1677.91013 C333.960054,1682.27331 337.729697,1685.5301 342.112866,1685.34777 C344.045441,1685.22208 345.832988,1684.27916 347.027924,1682.75511 C348.125584,1681.39241 348.591507,1679.627 348.309242,1677.90012 C348.006196,1676.34274 347.026982,1675.00045 345.636492,1674.23636 C345.019336,1673.89134 344.337915,1673.67669 343.634432,1673.60572 C342.955882,1673.53253 342.269655,1673.62174 341.632371,1673.86598 C341.030241,1674.08788 340.488532,1674.44787 340.050744,1674.91706 C339.231913,1675.67646 338.76743,1676.74332 338.769425,1677.86008 C338.878127,1680.0725 340.703599,1681.81048 342.918695,1681.81048 C345.133791,1681.81048 346.959263,1680.0725 347.067965,1677.86008 L347.128027,1678.10033 C347.294443,1679.48755 346.873446,1680.88119 345.966832,1681.94427 C344.981887,1683.11093 343.548765,1683.80566 342.022773,1683.85623 C340.378097,1683.86885 338.785954,1683.27758 337.548169,1682.19453 C336.257005,1681.06305 335.459457,1679.47156 335.325882,1677.75998 C335.280719,1677.32738 335.280719,1676.89125 335.325882,1676.45864 C335.34952,1676.22982 335.386285,1676.00255 335.435995,1675.77795 L335.59616,1675.1473 C336.417192,1672.4363 338.55241,1670.32368 341.272001,1669.53154 C343.145288,1669.00484 345.138083,1669.09256 346.957852,1669.78179 C348.829405,1670.44014 350.477417,1671.61282 351.712745,1673.16526 C352.959309,1674.70742 353.731319,1676.57832 353.935032,1678.55079 C354.090174,1680.54253 353.746115,1682.54151 352.934002,1684.36676 C352.144657,1686.2126 350.942665,1687.85292 349.420386,1689.16168 C347.915191,1690.45911 346.140714,1691.40618 344.22504,1691.93452 C342.332842,1692.446 340.352845,1692.545 338.419065,1692.22482 C334.676426,1691.63472 331.241709,1689.801 328.669031,1687.01948 C326.353526,1684.5285 324.867181,1681.38095 324.414653,1678.01024 C324.086813,1675.06676 324.467794,1672.08757 325.525797,1669.32132 C326.355037,1667.05566 327.578452,1664.95451 329.139516,1663.11495 L329.519907,1662.68451 C328.98048,1663.45285 328.485817,1664.25166 328.038382,1665.07697 C326.660445,1667.74943 325.884811,1670.69137 325.766044,1673.69581 C325.67747,1676.38186 326.226333,1679.05069 327.367692,1681.4838 C328.198957,1683.26551 329.326046,1684.89352 330.701123,1686.29874 C331.291085,1686.90657 331.923312,1687.47189 332.593069,1687.99048 C333.041501,1688.33692 333.561155,1688.57965 334.114635,1688.70121 C334.545078,1688.76127 334.875418,1688.70121 335.015562,1688.46096 C335.155707,1688.22071 335.015562,1687.91039 334.805346,1687.56004 C334.526387,1687.17579 334.188558,1686.83797 333.804316,1686.55901 C333.19142,1686.10477 332.612612,1685.60626 332.072534,1685.06748 C330.817835,1683.82248 329.773228,1682.38235 328.979351,1680.8031 C327.891465,1678.62837 327.332407,1676.22752 327.347672,1673.79591 C327.390075,1670.99409 328.038941,1668.23471 329.249629,1665.70761 C330.472761,1663.17054 332.199562,1660.90902 334.324852,1659.06079 C334.795336,1658.66038 335.806376,1657.81952 336.326912,1657.47917 C337.687895,1656.7166 339.099283,1656.04769 340.551259,1655.47712 C340.92692,1656.23616 341.773936,1656.63875 342.599729,1656.45074 C343.425523,1656.26274 344.014785,1655.53317 344.024833,1654.6863 L344.024833,1654.4861 C345.050794,1654.34676 346.083198,1654.25989 347.118017,1654.22583 C347.725711,1654.26607 348.328668,1654.35986 348.919871,1654.50612 C350.050201,1654.80542 351.139475,1655.24248 352.163208,1655.80745 C353.174294,1656.32016 354.010433,1657.12146 354.565681,1658.10982 C355.738637,1660.05416 355.607755,1662.51712 354.235341,1664.3262 C353.557698,1665.10178 352.629689,1665.61537 351.612642,1665.77768 C350.853584,1665.88681 350.079284,1665.80422 349.360324,1665.53744 C350.843303,1665.73536 352.274946,1664.91494 352.853919,1663.53538 C353.176044,1662.72488 353.159246,1661.81898 352.807295,1661.02098 C352.455344,1660.22297 351.797717,1659.5997 350.981993,1659.29103 C349.282146,1658.62561 347.363272,1659.45117 346.677563,1661.14293 C346.591219,1661.35589 346.527471,1661.57733 346.487368,1661.80361 L346.487368,1661.8937 C346.36981,1662.59736 346.442384,1663.31964 346.697584,1663.98585 C347.042169,1664.87642 347.681681,1665.62192 348.509448,1666.09801 C350.678213,1667.38215 353.446167,1667.00036 355.186319,1665.17707 C357.05494,1663.01309 357.382228,1659.91584 356.007164,1657.4091 C355.361985,1656.11808 354.343574,1655.05084 353.084156,1654.34595 C351.968933,1653.6118 350.741636,1653.06408 349.450417,1652.72429 C346.730267,1651.98826 343.885379,1651.83476 341.101826,1652.27383 C339.977375,1651.46396 339.156304,1650.30108 338.769425,1648.97044 L355.126258,1649.21069 C355.778227,1649.26022 356.403021,1648.94045 356.744152,1648.38264 C357.085283,1647.82484 357.085283,1647.12297 356.744152,1646.56516 C356.403021,1646.00736 355.778227,1645.68759 355.126258,1645.73712 L338.699353,1645.97737 C338.995774,1644.6569 339.729464,1643.47524 340.781496,1642.62393 C343.665407,1643.12981 346.625418,1642.99309 349.450417,1642.22352 C350.738128,1641.8786 351.964125,1641.33484 353.084156,1640.61186 C354.3439,1639.90284 355.362086,1638.83236 356.007164,1637.53871 C357.382228,1635.03197 357.05494,1631.93472 355.186319,1629.77074 C354.284134,1628.83481 353.076902,1628.2525 351.782817,1628.12905 C350.641253,1628.01007 349.492026,1628.26662 348.509448,1628.8598 C347.680788,1629.33018 347.040566,1630.07298 346.697584,1630.96196 C346.444736,1631.62872 346.372225,1632.35037 346.487368,1633.05411 L346.487368,1633.15421 C346.526005,1633.37758 346.58981,1633.59586 346.677563,1633.80488 C347.363272,1635.49664 349.282146,1636.3222 350.981993,1635.65678 C351.827081,1635.34693 352.505401,1634.69983 352.854691,1633.87027 C353.203981,1633.04071 353.192823,1632.1033 352.823888,1631.28229 C352.247664,1629.9003 350.813976,1629.07871 349.330293,1629.28023 C350.050109,1629.01682 350.824387,1628.93768 351.582611,1629.05 C352.600257,1629.20387 353.529943,1629.71485 354.20531,1630.49148 C355.577724,1632.30056 355.708607,1634.76352 354.53565,1636.70786 C353.979801,1637.69326 353.143557,1638.49117 352.133177,1639.00021 C351.115492,1639.57784 350.024545,1640.01556 348.88984,1640.30154 C348.297918,1640.44618 347.695381,1640.54325 347.087986,1640.59184 C346.086956,1640.54179 344.90574,1640.47172 343.994803,1640.33157 L343.994803,1640.13137 C343.984754,1639.28451 343.395492,1638.55493 342.569698,1638.36693 C341.743905,1638.17893 340.896889,1638.58151 340.521228,1639.34056 C339.070777,1638.76646 337.659621,1638.09767 336.296881,1637.3385 C335.816386,1636.98814 334.805346,1636.15729 334.294821,1635.74687 C332.171773,1633.89654 330.445349,1631.63551 329.219598,1629.10005 C328.008006,1626.57327 327.359093,1623.81369 327.317641,1621.01175 C327.305007,1618.58044 327.863925,1616.18019 328.94932,1614.00456 C329.742906,1612.42812 330.787605,1610.99124 332.042503,1609.75019 C332.582581,1609.21141 333.16139,1608.7129 333.774285,1608.25866 C334.163039,1607.96131 334.501088,1607.60298 334.775315,1607.19758 C335.015562,1606.84722 335.115665,1606.52689 334.985531,1606.30666 C334.855398,1606.08644 334.515047,1606.00635 334.084604,1606.06641 C333.531124,1606.18797 333.01147,1606.4307 332.563039,1606.77714 C330.33492,1608.50199 328.544726,1610.72772 327.337661,1613.27381 C326.196302,1615.70692 325.647439,1618.37575 325.736013,1621.0618 C325.894924,1624.03934 326.701124,1626.94644 328.098444,1629.58054 C328.543544,1630.41042 329.038284,1631.21269 329.579969,1631.98301 L329.199577,1631.55257 C327.640557,1629.71529 326.4173,1627.6178 325.585859,1625.35621 C324.528529,1622.5863 324.147594,1619.60403 324.474715,1616.65728 C324.931058,1613.28769 326.416883,1610.14125 328.729093,1607.64804 C331.306155,1604.87578 334.739845,1603.04965 338.479127,1602.46272 C340.411575,1602.12902 342.393784,1602.22471 344.285101,1602.743 C346.198553,1603.27178 347.972252,1604.21501 349.480448,1605.50584 C351.005285,1606.81624 352.207605,1608.46043 352.994063,1610.31077 C353.80863,1612.13528 354.152798,1614.13489 353.995094,1616.12674 C353.791381,1618.09921 353.019371,1619.97011 351.772807,1621.51226 C350.536896,1623.06182 348.888765,1624.23112 347.017914,1624.88573 C345.198221,1625.57341 343.206971,1625.66456 341.332062,1625.14599 C338.616291,1624.34737 336.483696,1622.23734 335.656222,1619.53023 L335.496057,1618.88957 C335.446354,1618.66834 335.409587,1618.4444 335.385944,1618.21888 C335.340997,1617.78627 335.340997,1617.35016 335.385944,1616.91755 C335.513621,1615.20718 336.312466,1613.61669 337.60823,1612.49301 C338.841605,1611.40025 340.435037,1610.80138 342.082835,1610.81128 C343.612314,1610.86562 345.04644,1611.56812 346.026894,1612.74327 C346.930806,1613.80387 347.351626,1615.1933 347.188089,1616.5772 L347.128027,1616.81745 C347.019325,1614.60503 345.193853,1612.86705 342.978757,1612.86705 C340.763661,1612.86705 338.938189,1614.60503 338.829487,1616.81745 C338.824693,1617.93769 339.28941,1619.00871 340.110806,1619.77048 C340.550597,1620.23969 341.091487,1620.60256 341.692433,1620.83157 C342.334128,1621.05755 343.016916,1621.1429 343.694494,1621.08182 C344.396011,1621.00145 345.075624,1620.78738 345.696554,1620.45118 C347.087044,1619.68709 348.066258,1618.3448 348.369304,1616.78742 C348.652869,1615.06047 348.186808,1613.29454 347.087986,1611.93243 C345.891983,1610.41113 344.104229,1609.47174 342.172928,1609.34978 C337.786234,1609.15732 334.010607,1612.41928 333.564069,1616.78742 C333.503967,1617.33634 333.503967,1617.89019 333.564069,1618.43911 L333.684192,1619.23993 L333.864378,1620.05076 C334.157103,1621.12429 334.631068,1622.13993 335.26582,1623.05385 L335.516077,1623.40421 C332.142606,1622.53331 329.509897,1623.40421 330.060463,1623.40421 C331.658751,1623.77614 333.075808,1624.69723 334.064584,1626.00688 C334.805332,1627.42439 335.6838,1628.76556 336.687283,1630.01098 C336.981315,1630.40133 337.366166,1630.71402 337.808436,1630.92192 C339.215737,1631.55148 340.867568,1630.93092 341.512248,1629.53049 C341.816797,1628.84192 341.816797,1628.05684 341.512248,1627.36827 C342.400425,1627.57887 343.312771,1627.66976 344.22504,1627.63855 L345.135977,1627.57849 L346.006873,1627.44835 C346.594878,1627.34305 347.173864,1627.19244 347.738655,1626.99789 C350.050402,1626.25103 352.102184,1624.86235 353.654743,1622.99378 C355.23259,1621.12045 356.230869,1618.82824 356.5277,1616.39702 C356.993675,1611.48172 355.072435,1606.6414 351.362384,1603.38366 C350.312969,1602.44553 349.141078,1601.65417 347.878799,1601.03125 C348.85585,1600.5346 349.77845,1599.93743 350.631632,1599.24942 C352.312382,1597.901 353.710503,1596.23414 354.745866,1594.34439 C355.983472,1592.09825 356.669671,1589.59021 356.747926,1587.02688 L356.747926,1586.53638 C356.756295,1585.30473 356.608295,1584.077 356.307473,1582.88263 C355.946707,1581.43239 355.340699,1580.05448 354.515629,1578.80845 C352.753907,1576.14332 350.115803,1574.17803 347.057955,1573.25274 C346.467384,1573.07258 345.865422,1572.93212 345.256101,1572.83231 C345.741916,1572.67462 346.211267,1572.47012 346.657543,1572.22169 C347.584094,1571.68776 348.402378,1570.98492 349.070025,1570.14956 C349.024913,1570.76236 349.296943,1571.35553 349.790767,1571.72117 C350.609541,1572.36606 351.795673,1572.22731 352.443497,1571.41085 C352.647096,1571.15289 352.778386,1570.8454 352.823888,1570.51994 C353.034581,1569.46545 353.135224,1568.39193 353.124197,1567.31665 C353.302356,1566.2197 353.871224,1565.22418 354.725845,1564.51378 C355.106237,1564.26352 352.583641,1564.734 350.721725,1566.99632 C351.351885,1564.70993 350.988417,1562.2638 349.720695,1560.25941 C348.823313,1558.93458 347.520033,1557.93692 346.006873,1557.4165 C344.408714,1556.86117 342.669954,1556.86117 341.071795,1557.4165 C339.41096,1557.98741 338.083208,1559.25663 337.438055,1560.89006 C336.778348,1562.48584 336.855251,1564.29122 337.648272,1565.82512 C338.457051,1567.32665 339.956093,1568.331 341.652392,1568.50788 C342.444373,1568.60011 343.246943,1568.50408 343.994803,1568.22759 C344.743532,1567.9604 345.402422,1567.48878 345.89676,1566.86619 C346.795866,1565.73824 347.070224,1564.23492 346.627512,1562.86208 C346.247023,1561.70074 345.318152,1560.80183 344.144957,1560.45962 C343.311373,1560.22235 342.421913,1560.27529 341.622361,1560.60977 C341.16557,1560.80751 340.763647,1561.11325 340.451156,1561.50069 C339.863781,1562.21931 339.655434,1563.17547 339.890579,1564.07333 L339.990682,1564.35361 L339.990682,1564.46373 L340.050744,1564.56383 C340.141237,1564.74761 340.259399,1564.91641 340.401104,1565.06434 C340.857952,1565.81985 341.770769,1566.16694 342.614176,1565.90584 C343.457583,1565.64473 344.01462,1564.8426 343.964679,1563.96112 C343.914738,1563.07964 343.270666,1562.34556 342.403165,1562.18138 C342.793459,1562.01935 343.226437,1561.99119 343.634432,1562.1013 C344.246137,1562.28531 344.733315,1562.75017 344.945781,1563.35259 C345.233025,1564.17563 345.082179,1565.08824 344.545369,1565.77507 C344.256036,1566.1578 343.868668,1566.45524 343.424215,1566.63596 C342.904378,1566.83472 342.34805,1566.92005 341.792536,1566.88621 C340.590522,1566.78128 339.516658,1566.09282 338.91958,1565.04432 C338.304537,1563.8819 338.217074,1562.51165 338.679333,1561.28046 C339.164353,1559.98951 340.176523,1558.96642 341.462196,1558.46757 C344.158791,1557.4438 347.206917,1558.35454 348.89985,1560.68985 C349.643705,1561.75377 350.0864,1562.99885 350.181169,1564.29355 C350.277821,1565.45709 350.124224,1566.62784 349.730705,1567.72707 C349.116307,1569.40369 347.988256,1570.84352 346.507388,1571.8413 C346.028381,1572.16696 345.522733,1572.45159 344.995833,1572.69217 C344.064534,1572.55879 343.122573,1572.51521 342.182938,1572.56204 C340.48914,1572.64497 338.833155,1573.09225 337.327942,1573.87338 C335.952298,1574.61524 334.748296,1575.63846 333.794306,1576.87646 C333.644151,1574.46399 332.452925,1572.87235 332.543018,1573.29279 C332.712292,1574.42539 332.447732,1575.58016 331.802256,1576.5261 C331.048208,1577.30163 330.377215,1578.15379 329.800195,1579.06871 C329.612873,1579.33853 329.499025,1579.65247 329.469856,1579.97965 C329.431255,1580.47378 329.591263,1580.96291 329.914439,1581.33869 C330.237615,1581.71448 330.697283,1581.9459 331.191627,1581.9817 C331.317991,1581.99653 331.445655,1581.99653 331.572019,1581.9817 C331.430357,1582.80449 331.383336,1583.64078 331.431875,1584.47426 L331.431875,1585.0949 L331.431875,1585.21502 L331.431875,1585.43525 L331.431875,1585.70552 C331.502201,1586.13342 331.605959,1586.55514 331.742194,1586.96682 C332.554708,1589.35376 334.297823,1591.31076 336.575244,1592.39291 C338.852666,1593.47506 341.470878,1593.5904 343.834638,1592.71271 C345.309593,1592.09966 346.563032,1591.05223 347.428336,1589.70963 C348.18725,1588.51096 348.596352,1587.12418 348.609551,1585.70552 L348.609551,1585.50532 C348.603886,1585.14955 348.570416,1584.79478 348.509448,1584.44423 C348.445373,1584.08441 348.355039,1583.72977 348.23917,1583.38314 C348.005056,1582.71699 347.667219,1582.092 347.23814,1581.53124 C346.385882,1580.48083 345.227878,1579.72166 343.92473,1579.35901 C342.738869,1579.00831 341.476852,1579.00831 340.290991,1579.35901 C339.224721,1579.7066 338.289176,1580.36986 337.60823,1581.26096 C337.05385,1582.01917 336.708627,1582.90984 336.6072,1583.84361 C336.509351,1584.6054 336.58813,1585.37948 336.837437,1586.10593 C337.151049,1587.00755 337.74358,1587.7859 338.529178,1588.32821 C340.083449,1589.44849 342.186609,1589.42413 343.714514,1588.26815 C344.343673,1587.75766 344.786985,1587.05399 344.975812,1586.2661 C345.048039,1585.91057 345.071612,1585.54687 345.045884,1585.18499 C345.045884,1585.0048 345.045884,1584.87467 344.955791,1584.66445 L344.805637,1584.21399 C344.405984,1583.24816 343.486984,1582.59785 342.443206,1582.54228 C342.085849,1582.50287 341.727111,1582.60332 341.442176,1582.82256 C341.366853,1582.88822 341.323147,1582.98292 341.322052,1583.08283 C341.322052,1583.27303 341.532268,1583.36312 341.762505,1583.48324 L342.112866,1583.65342 C342.547564,1583.87393 342.860016,1584.27828 342.963742,1584.75455 C342.96896,1584.83788 342.96896,1584.92147 342.963742,1585.0048 C342.966934,1585.57708 342.685572,1586.11354 342.212969,1586.43627 C341.493029,1586.8465 340.599265,1586.79554 339.93062,1586.30614 C339.568305,1586.06393 339.291581,1585.71365 339.139806,1585.30511 C339.047363,1585.03465 339.003311,1584.75001 339.009673,1584.46425 C339.0024,1583.83351 339.20291,1583.21791 339.58026,1582.71245 C339.955693,1582.23941 340.465025,1581.89056 341.041764,1581.71142 C341.764089,1581.50037 342.531715,1581.50037 343.25404,1581.71142 C345.03794,1582.19104 346.285343,1583.79835 346.307182,1585.64546 L346.307182,1585.91574 C346.255033,1588.05256 344.959834,1589.96209 342.993772,1590.80075 C341.857928,1591.25874 340.616764,1591.39049 339.410085,1591.18114 C338.133997,1590.97864 336.934966,1590.43959 335.93651,1589.61954 C334.913329,1588.78439 334.140805,1587.68277 333.704213,1586.43627 C333.597837,1586.10801 333.51093,1585.77375 333.443945,1585.43525 L333.363863,1584.92472 L333.363863,1584.4142 C333.309936,1583.71939 333.33681,1583.02067 333.443945,1582.33206 C333.916426,1579.50697 335.652575,1577.05204 338.158797,1575.66522 C339.42427,1574.97667 340.825135,1574.5735 342.26302,1574.48401 C345.428159,1574.24491 348.562173,1575.2465 351.002013,1577.27687 C348.179108,1576.27585 345.706564,1577.06666 346.167038,1577.09669 C347.267708,1577.29727 348.261187,1577.88271 348.969922,1578.74838 C349.508548,1579.68855 350.14254,1580.57077 350.861869,1581.38109 C351.06925,1581.63954 351.337539,1581.84247 351.642673,1581.97169 C352.552918,1582.32446 353.582434,1581.93082 354.025124,1581.06076 C354.938448,1582.88417 355.408333,1584.89746 355.396536,1586.93679 L355.396536,1587.13699 C355.373917,1589.37649 354.850614,1591.58256 353.86496,1593.59362 C354.375485,1590.35029 352.673734,1587.95783 352.773837,1588.41831 C352.884238,1589.52564 352.58901,1590.63541 351.942982,1591.54151 C351.192252,1592.30544 350.521425,1593.14397 349.940922,1594.04408 C349.511109,1594.58242 349.41563,1595.31484 349.693066,1595.94537 C349.970503,1596.57591 350.574999,1597.00034 351.262281,1597.04716 C351.408686,1597.06273 351.55633,1597.06273 351.702735,1597.04716 C351.194438,1597.65742 350.635185,1598.22337 350.031014,1598.7389 C349.114032,1599.54129 348.106119,1600.23339 347.027924,1600.80101 C346.417809,1600.53196 345.792815,1600.29801 345.155998,1600.10029 C342.881681,1599.44056 340.492836,1599.27334 338.148787,1599.60979 C332.381171,1600.4097 327.25658,1603.70407 324.134365,1608.61903 C323.96419,1604.94526 322.132305,1602.52278 322.272449,1603.10337 C322.46451,1604.72912 322.058924,1606.36925 321.131275,1607.71811 C319.997592,1608.86454 318.99075,1610.12981 318.128184,1611.49198 C317.836597,1611.88294 317.659801,1612.34746 317.617659,1612.83336 C317.554063,1613.57093 317.788053,1614.30331 318.267516,1614.86739 C318.746979,1615.43146 319.432098,1615.78038 320.170286,1615.83644 C320.539094,1615.86999 320.910836,1615.82566 321.261409,1615.70631 L321.121264,1616.4771 C320.866089,1618.29674 320.866089,1620.14309 321.121264,1621.96273 C321.326162,1623.53236 321.684922,1625.07805 322.192367,1626.57746 C323.138507,1629.24273 324.537075,1631.72493 326.326621,1633.91499 C327.617301,1635.47548 329.089161,1636.87676 330.711133,1638.08927 C331.571789,1638.72507 332.471111,1639.30679 333.403904,1639.83106 C335.151818,1640.81157 337.014609,1641.57148 338.949611,1642.09338 C338.012427,1643.11579 337.366074,1644.37047 337.077684,1645.72711 C334.947335,1645.13106 333.032926,1643.93586 331.562008,1642.28358 C330.490906,1640.87213 329.730123,1639.11032 327.758094,1638.27947 C326.757064,1637.84903 325.675951,1637.98917 326.026312,1638.53974 C326.156446,1638.73994 326.316611,1639.54076 325.675951,1639.30052 C324.712028,1638.96806 323.686738,1638.85186 322.672861,1638.96017 C320.260378,1639.42064 319.139225,1640.73199 319.439534,1641.42269 C319.679781,1641.94323 320.700832,1642.03332 321.441594,1642.42372 C322.182356,1642.81412 322.012181,1643.21453 321.711872,1643.22454 C321.010755,1643.25046 320.311977,1643.32067 319.619719,1643.43476 C318.755934,1643.58843 317.915064,1643.85078 317.117144,1644.21556 C315.674895,1644.88954 314.468268,1645.98108 313.65358,1647.34877 C314.466228,1648.72058 315.67315,1649.81588 317.117144,1650.492 C317.916231,1650.85598 318.75658,1651.12153 319.619719,1651.28281 C320.31043,1651.38291 321.031172,1651.45299 321.711872,1651.48302 C322.012181,1651.48302 322.172346,1651.91346 321.441594,1652.28384 C320.710842,1652.65422 319.65976,1652.77434 319.439534,1653.28487 C319.219307,1653.79539 320.260378,1655.28692 322.672861,1655.72737 C323.685275,1655.84015 324.710105,1655.73084 325.675951,1655.40704 C326.316611,1655.1668 326.156446,1655.9476 326.026312,1656.15781 C325.675951,1656.70838 326.747054,1656.84852 327.758094,1656.41808 C329.760154,1655.58723 330.490906,1653.82542 331.562008,1652.41397 C333.037691,1650.7396 334.984575,1649.54984 337.147757,1649.00047 C337.486754,1650.33633 338.178172,1651.55668 339.149817,1652.5341 C336.097868,1653.35304 333.225719,1654.73479 330.681102,1656.60828 C329.05913,1657.82079 327.58727,1659.22207 326.29659,1660.78256 C324.507044,1662.97262 323.108476,1665.45482 322.162336,1668.12009 C321.611813,1669.69084 321.226012,1671.31455 321.011151,1672.96506 C320.755953,1674.78805 320.755953,1676.63771 321.011151,1678.4607 L321.151295,1679.22148 C320.800297,1679.10366 320.429551,1679.05604 320.060172,1679.08134 C319.323017,1679.14001 318.639525,1679.48966 318.160598,1680.05311 C317.68167,1680.61655 317.446694,1681.34744 317.507546,1682.08442 C317.547607,1682.57691 317.724425,1683.04842 318.018071,1683.44581 C318.884374,1684.80225 319.890941,1686.06381 321.021161,1687.20968 C321.94966,1688.55815 322.355325,1690.1986 322.162336,1691.82441 C322.022191,1692.40501 323.854077,1689.98252 324.024252,1686.30875 C327.156124,1691.20383 332.280284,1694.47596 338.038673,1695.25793 C340.382346,1695.60446 342.773345,1695.43709 345.045884,1694.76743 C345.685478,1694.58196 346.311038,1694.35114 346.917811,1694.07672 C347.991505,1694.64784 348.99867,1695.33606 349.920901,1696.12883 C350.525099,1696.64796 351.08433,1697.21723 351.592621,1697.83057 C351.446513,1697.81016 351.298276,1697.81016 351.152168,1697.83057 C350.656583,1697.87862 350.20056,1698.12213 349.884959,1698.50723 C349.569358,1698.89234 349.420187,1699.38732 349.470437,1699.88268 C349.507971,1700.20369 349.632591,1700.50831 349.830808,1700.76358 C350.409148,1701.67141 351.080091,1702.51679 351.832868,1703.28617 C352.478368,1704.18493 352.773791,1705.28831 352.663723,1706.38936 C352.56362,1706.85984 354.265372,1704.46738 353.754846,1701.23407 C354.788578,1703.22318 355.360017,1705.41996 355.426567,1707.66066 L355.426567,1707.84085 C355.438548,1709.88224 354.972299,1711.89807 354.065166,1713.72689 C353.615197,1712.85919 352.583241,1712.47059 351.672704,1712.82596 C351.364411,1712.94965 351.094823,1713.15357 350.8919,1713.41657 C350.169218,1714.22058 349.534935,1715.09985 348.999953,1716.03926 C348.291218,1716.90494 347.297739,1717.49038 346.197069,1717.69095 C345.736595,1717.69095 348.199129,1718.56185 351.032044,1717.51077 C348.592204,1719.54114 345.45819,1720.54273 342.293051,1720.30363 C341.73115,1720.14385 341.154095,1720.0432 340.57128,1720.00333 C336.878903,1719.17892 334.064957,1716.18241 333.473976,1712.44557 C333.366806,1711.76032 333.33993,1711.06492 333.393894,1710.37344 L333.393894,1709.87293 L333.473976,1709.3524 C333.540961,1709.01389 333.627868,1708.67963 333.734244,1708.35137 C334.170836,1707.10487 334.94336,1706.00325 335.966541,1705.1681 C336.964997,1704.34805 338.164027,1703.809 339.440116,1703.6065 C340.647864,1703.40508 341.887756,1703.54015 343.023803,1703.9969 C344.988297,1704.83203 346.283692,1706.73794 346.337213,1708.8719 L346.337213,1709.14218 C346.318769,1710.99048 345.06996,1712.5996 343.284071,1713.07622 C342.561746,1713.28727 341.794119,1713.28727 341.071795,1713.07622 C340.484105,1712.88177 339.97269,1712.50697 339.610291,1712.00512 C339.231656,1711.50415 339.030872,1710.89123 339.039703,1710.26333 C339.033257,1709.98084 339.077327,1709.69947 339.169837,1709.43248 C339.326768,1709.02686 339.602371,1708.678 339.960651,1708.43145 C340.632195,1707.94771 341.524387,1707.90076 342.243,1708.31133 C342.716974,1708.63284 342.998749,1709.17009 342.993772,1709.7428 C342.998723,1709.82948 342.998723,1709.91638 342.993772,1710.00306 C342.8835,1710.47377 342.572539,1710.87253 342.142897,1711.09418 L341.792536,1711.27437 C341.562299,1711.37447 341.372104,1711.46456 341.352083,1711.65476 C341.357673,1711.75361 341.400612,1711.84664 341.472207,1711.91503 C341.759408,1712.12971 342.116313,1712.22964 342.473237,1712.19531 C343.519398,1712.13798 344.439022,1711.48333 344.835668,1710.51359 L344.985822,1710.07314 C345.035874,1709.86292 345.045884,1709.73279 345.075915,1709.5526 C345.101643,1709.19072 345.07807,1708.82702 345.005843,1708.47149 C344.817016,1707.6836 344.373704,1706.97993 343.744545,1706.46944 C342.218872,1705.30695 340.111399,1705.28254 338.559209,1706.40938 C337.775773,1706.94959 337.183546,1707.72404 336.867468,1708.62165 C336.616618,1709.35122 336.537821,1710.12891 336.637231,1710.89398 C336.891156,1712.98777 338.348212,1714.73858 340.361063,1715.36857 C341.545456,1715.72927 342.810409,1715.72927 343.994803,1715.36857 C345.295296,1715.0056 346.452295,1714.25059 347.308212,1713.20635 C347.737291,1712.64559 348.075128,1712.0206 348.309242,1711.35445 C348.426298,1711.00818 348.516655,1710.65344 348.579521,1710.29336 C348.640969,1709.93951 348.67444,1709.58137 348.679624,1709.22226 L348.679624,1709.03207 C348.666424,1707.61341 348.257322,1706.22663 347.498408,1705.02796 C346.636991,1703.68194 345.382349,1702.63349 343.90471,1702.02488 C341.540051,1701.13816 338.916768,1701.24906 336.635386,1702.33219 C334.354004,1703.41533 332.609871,1705.37795 331.802256,1707.77077 C331.665875,1708.17559 331.562104,1708.59068 331.491936,1709.01205 L331.491936,1709.30235 L331.491936,1709.51256 L331.491936,1709.62267 L331.491936,1710.25332 C331.443941,1711.09013 331.490956,1711.92967 331.632081,1712.75589 C331.506049,1712.73618 331.377721,1712.73618 331.251689,1712.75589 C330.757345,1712.79169 330.297677,1713.02311 329.974501,1713.3989 C329.651325,1713.77468 329.491317,1714.26381 329.529917,1714.75794 C329.56086,1715.08472 329.674549,1715.39822 329.860257,1715.66888 C330.436219,1716.58763 331.107268,1717.44321 331.862318,1718.2215 C332.493349,1719.12913 332.767765,1720.23748 332.633111,1721.33469 C332.543018,1721.7351 333.734244,1720.16349 333.884398,1717.76102 C334.767469,1718.87773 335.858715,1719.8126 337.097705,1720.51385 C336.997602,1720.51385 336.877478,1720.57391 336.787386,1720.61395 C335.083896,1721.29186 333.857988,1722.81001 333.554058,1724.61806 C333.33724,1726.29663 334.119598,1727.9474 335.556119,1728.8424 C336.12976,1729.21255 336.768329,1729.4707 337.438055,1729.60318 C337.041577,1730.73876 337.003143,1731.96867 337.327942,1733.12679 C336.342611,1733.10751 335.363743,1732.96286 334.414944,1732.69635 C332.459535,1732.15709 330.714085,1731.03651 329.409794,1729.48305 C329.0373,1729.00601 328.702607,1728.50063 328.408764,1727.9715 C328.572307,1727.0434 328.626064,1726.09928 328.568928,1725.15862 C328.45581,1723.43205 327.908324,1721.76205 326.977291,1720.30363 C326.053577,1718.88285 324.83472,1717.67765 323.403613,1716.77001 C326.29659,1716.61985 328.178527,1715.42863 327.708042,1715.51872 C326.403979,1715.65552 325.089485,1715.38632 323.944169,1714.74793 C323.010752,1713.98434 322.004941,1713.3138 320.941079,1712.74588 C320.610543,1712.5452 320.235966,1712.42836 319.849956,1712.40553 C318.709918,1712.2398 317.640141,1712.99701 317.417453,1714.1273 C317.407523,1714.2539 317.407523,1714.38108 317.417453,1714.50769 C316.423207,1714.36505 315.417571,1714.31812 314.414362,1714.36754 L313.66359,1714.36754 L313.523446,1714.36754 L313.263178,1714.36754 L312.922828,1714.41759 C312.417025,1714.49356 311.91576,1714.59715 311.421282,1714.72791 C309.542435,1715.22858 307.820691,1716.1962 306.416132,1717.5408 C303.832773,1719.8947 303.053508,1723.64162 304.484144,1726.83033 C305.284878,1728.36706 306.544474,1729.61615 308.087852,1730.404 C309.559937,1731.21031 311.204718,1731.64983 312.882786,1731.68531 L313.123034,1731.68531 C313.548808,1731.67745 313.973556,1731.64066 314.394342,1731.5752 C314.827737,1731.51804 315.256102,1731.42768 315.67566,1731.30492 C316.467346,1731.08952 317.220524,1730.75178 317.907958,1730.30389 C319.119341,1729.5235 320.035364,1728.36086 320.510636,1727.00051 C320.936651,1725.82672 320.936651,1724.54056 320.510636,1723.36678 C320.051779,1722.23939 319.235996,1721.29351 318.188246,1720.67401 C316.444924,1719.60205 314.333893,1719.30462 312.362251,1719.85317 C311.321828,1720.13627 310.390585,1720.7257 309.6895,1721.54491 C308.345026,1723.02799 308.380036,1725.2993 309.769583,1726.74024 C310.444888,1727.39323 311.298141,1727.83204 312.222107,1728.00153 C312.652233,1728.07056 313.088789,1728.09071 313.523446,1728.06159 C313.731962,1728.04419 313.939225,1728.0141 314.144084,1727.9715 L314.684641,1727.81134 C315.778423,1727.51696 316.575707,1726.57616 316.686701,1725.44891 C316.72663,1725.08316 316.606141,1724.71804 316.356361,1724.44789 C316.272501,1724.36774 316.161987,1724.32139 316.046042,1724.31775 L315.98598,1724.31775 C315.755743,1724.31775 315.64563,1724.53798 315.515496,1724.76821 L315.305279,1725.11857 C315.008455,1725.57518 314.531855,1725.88442 313.99393,1725.96945 C313.887383,1725.97934 313.780147,1725.97934 313.6736,1725.96945 C313.021203,1725.97894 312.396747,1725.70506 311.961839,1725.21868 C311.467031,1724.5142 311.529518,1723.56024 312.111993,1722.92632 C312.432377,1722.54357 312.861926,1722.26768 313.34326,1722.13551 C313.667806,1722.03788 314.00541,1721.99061 314.34429,1721.99537 C315.083418,1721.99423 315.809336,1722.19127 316.446454,1722.56596 C317.015328,1722.9123 317.462948,1723.42637 317.727772,1724.03746 C317.978765,1724.75696 317.978765,1725.54025 317.727772,1726.25975 C316.957614,1728.16399 315.064219,1729.36997 313.01292,1729.26283 L312.68258,1729.26283 C310.268405,1729.3039 308.020697,1728.03646 306.806534,1725.94943 C306.260512,1724.83892 306.095178,1723.57957 306.336049,1722.36575 C306.606768,1721.0497 307.257617,1719.84198 308.207976,1718.89219 C309.279299,1717.83421 310.602068,1717.06604 312.051931,1716.65989 C312.429926,1716.54949 312.814389,1716.46257 313.203116,1716.39963 L313.823755,1716.31955 L314.424373,1716.31955 C315.255939,1716.27071 316.090222,1716.29751 316.916938,1716.39963 C320.136451,1716.76513 323.048397,1718.48317 324.925179,1721.12448 C325.735676,1722.3517 326.224491,1723.76306 326.346642,1725.22869 C326.475292,1726.67423 326.297928,1728.13066 325.826106,1729.50307 C325.232771,1731.18637 324.260029,1732.71056 322.98318,1733.95764 C324.254489,1731.13475 323.223428,1728.66221 323.193397,1729.12268 C322.916696,1730.28213 322.19837,1731.28778 321.191336,1731.92556 C320.078555,1732.44913 319.019177,1733.07939 318.028081,1733.80749 C317.726421,1734.00479 317.481446,1734.27737 317.31735,1734.5983 C317.122037,1735.05987 317.130148,1735.58236 317.339694,1736.03764 C317.54924,1736.49293 317.940844,1736.83891 318.418483,1736.99076 C316.168339,1737.90544 313.760088,1738.36804 311.33119,1738.35215 L311.100953,1738.35215 C308.441817,1738.33243 305.8101,1737.81288 303.342969,1736.82058 C307.226966,1737.33111 310.109933,1735.62936 309.549356,1735.73947 C308.248453,1735.84173 306.947,1735.54864 305.815514,1734.89861 C304.883179,1734.13356 303.877219,1733.46292 302.812423,1732.89656 C302.483668,1732.69681 302.114162,1732.57364 301.731311,1732.53619 C300.590262,1732.36115 299.50898,1733.10097 299.258766,1734.22792 C299.24847,1734.37122 299.24847,1734.51507 299.258766,1734.65836 C298.552993,1734.14882 297.883985,1733.5902 297.256706,1732.98665 C296.315312,1732.09086 295.488202,1731.08219 294.794172,1729.98357 C295.115773,1729.38383 295.393453,1728.76156 295.625027,1728.12166 C296.423948,1725.87617 296.62743,1723.462 296.215635,1721.11447 C295.348763,1716.44102 292.776555,1712.25629 288.998208,1709.37242 C287.886316,1708.49039 286.693054,1707.71611 285.43454,1707.06004 C289.869104,1706.88987 292.782102,1705.05799 292.08138,1705.19813 C290.155344,1705.39124 288.216388,1704.98948 286.525663,1704.04695 C285.114106,1702.90255 283.595529,1701.89688 281.990997,1701.04387 C281.5005,1700.75287 280.948392,1700.58141 280.379338,1700.54336 C278.695643,1700.30424 277.11994,1701.4266 276.79565,1703.09598 C276.76144,1703.46725 276.81635,1703.84132 276.955815,1704.1871 L276.034868,1704.05696 C273.843928,1703.79186 271.629018,1703.79186 269.438079,1704.05696 C267.465278,1704.26381 265.515295,1704.64911 263.612084,1705.20814 C260.470262,1706.11416 257.490732,1707.50934 254.782998,1709.34239 C252.94371,1710.59644 251.263088,1712.06867 249.777847,1713.72689 C249.009557,1714.57062 248.309944,1715.47442 247.685695,1716.42966 C246.520541,1718.13599 245.597487,1719.99557 244.942872,1721.95533 C243.66181,1720.99616 242.167905,1720.36083 240.588391,1720.10343 C241.361409,1717.87807 242.805913,1715.94741 244.722645,1714.57776 C246.414386,1713.50666 248.52656,1712.74588 249.5376,1710.76384 C250.048126,1709.76282 249.87795,1708.68171 249.217271,1709.04208 C248.967013,1709.1622 248.026045,1709.33238 248.316344,1708.68171 C248.696998,1707.72945 248.831274,1706.69656 248.706745,1705.67863 C248.156179,1703.26615 246.584561,1702.145 245.703655,1702.44531 C245.062996,1702.68556 244.962893,1703.7066 244.482398,1704.44736 C244.001904,1705.18812 243.53142,1705.00794 243.481368,1704.69762 C243.446221,1703.99862 243.362601,1703.3029 243.23111,1702.61548 C243.041966,1701.73964 242.724911,1700.89641 242.290142,1700.11292 C241.398951,1698.60974 240.082192,1697.40446 238.506248,1696.64936 C236.933921,1697.40214 235.623003,1698.60846 234.742375,1700.11292 C234.304128,1700.89584 233.98369,1701.7391 233.791396,1702.61548 C233.724782,1703.29408 233.694708,1703.97576 233.701304,1704.65758 C233.701304,1704.9679 233.190778,1705.11805 232.700274,1704.40732 C232.209769,1703.69659 232.109666,1702.61548 231.469007,1702.40527 C230.648162,1702.10496 229.066534,1703.22611 228.515968,1705.63859 C228.387801,1706.65828 228.529316,1707.69376 228.92639,1708.64167 C229.206678,1709.29233 228.26571,1709.12216 228.005442,1709.00204 C227.344762,1708.64167 227.184598,1709.72278 227.695123,1710.7238 C228.696153,1712.72586 230.808327,1713.46662 232.500068,1714.53772 C234.437502,1715.9077 235.880559,1717.86688 236.614301,1720.12345 C235.055353,1720.43759 233.595643,1721.12451 232.359923,1722.1255 C231.708767,1720.07653 230.761083,1718.13395 229.547029,1716.35959 C228.912359,1715.41182 228.213329,1714.50877 227.454876,1713.65681 C225.966505,1712.00176 224.286285,1710.52989 222.449725,1709.27231 C219.744575,1707.44108 216.768634,1706.046 213.63065,1705.13807 C211.726972,1704.58095 209.777163,1704.19567 207.804654,1703.98689 C205.610368,1703.72176 203.392142,1703.72176 201.197856,1703.98689 L200.286918,1704.11702 C200.421771,1703.77001 200.476521,1703.39703 200.447083,1703.0259 C200.118121,1701.35507 198.53936,1700.23367 196.853385,1700.47329 C196.284605,1700.5128 195.732829,1700.68416 195.241726,1700.9738 C193.637194,1701.82681 192.118617,1702.83248 190.70706,1703.97688 C189.016335,1704.9194 187.077379,1705.32117 185.151343,1705.12806 C184.450622,1704.97791 187.363619,1706.8198 191.798183,1706.98997 C190.539669,1707.64604 189.346407,1708.42032 188.234516,1709.30235 C184.456168,1712.18622 181.88396,1716.37095 181.017088,1721.04439 C180.610303,1723.39215 180.813677,1725.80504 181.607696,1728.05158 C181.840314,1728.6959 182.121406,1729.32166 182.448561,1729.9235 C181.748893,1731.02086 180.918642,1732.02926 179.976017,1732.92659 C179.350811,1733.53244 178.681631,1734.09121 177.973957,1734.5983 C177.99422,1734.45554 177.99422,1734.31062 177.973957,1734.16786 C177.723743,1733.04091 176.642461,1732.30109 175.501412,1732.47612 C175.121346,1732.51195 174.754737,1732.63529 174.43031,1732.83649 C173.365311,1733.40252 172.359319,1734.07318 171.42722,1734.83855 C170.295734,1735.48858 168.994281,1735.78167 167.693377,1735.67941 C167.132801,1735.5693 170.015767,1737.27104 173.899764,1736.76052 C171.433181,1737.75466 168.80111,1738.27428 166.141781,1738.29209 L165.911544,1738.29209 C163.485914,1738.30771 161.08099,1737.84509 158.834261,1736.93069 C159.310081,1736.7767 159.699281,1736.42983 159.906805,1735.97481 C160.114329,1735.51978 160.121071,1734.99848 159.925384,1734.53824 C159.758341,1734.21934 159.513974,1733.94744 159.214652,1733.74743 C158.227575,1733.01861 157.171445,1732.38829 156.061407,1731.8655 C155.057316,1731.22461 154.339939,1730.22029 154.059347,1729.06262 C154.059347,1728.60215 153.008266,1731.06468 154.269564,1733.89758 C153.001906,1732.64686 152.036422,1731.12332 151.446659,1729.44301 C150.965131,1728.07285 150.78751,1726.61431 150.926123,1725.16863 C151.04012,1723.70283 151.525899,1722.29028 152.337575,1721.06441 C154.212596,1718.42119 157.125477,1716.7026 160.345816,1716.33957 C161.172532,1716.23745 162.006816,1716.21064 162.838381,1716.25948 L163.44901,1716.25948 L164.069648,1716.33957 C164.455062,1716.40261 164.836188,1716.48953 165.210823,1716.59983 C166.660686,1717.00598 167.983456,1717.77415 169.054778,1718.83212 C170.00928,1719.77739 170.65793,1720.9875 170.916694,1722.30569 C171.165233,1723.51824 171.003232,1724.77903 170.456221,1725.88937 C169.245363,1727.9748 167.001344,1729.24233 164.590184,1729.20277 L164.259844,1729.20277 C162.205772,1729.3112 160.308806,1728.1055 159.534982,1726.19968 C159.283989,1725.48018 159.283989,1724.6969 159.534982,1723.9774 C159.796944,1723.3645 160.24525,1722.84966 160.816301,1722.50589 C161.453418,1722.1312 162.179336,1721.93417 162.918464,1721.93531 C163.257237,1721.93224 163.594589,1721.97946 163.919494,1722.07545 C164.397199,1722.20946 164.823027,1722.4852 165.140751,1722.86626 C165.723226,1723.50017 165.785713,1724.45414 165.290905,1725.15862 C164.854505,1725.64878 164.225271,1725.92315 163.569133,1725.90939 L163.268824,1725.90939 C162.728154,1725.82462 162.248349,1725.51565 161.947465,1725.05851 L161.737248,1724.70815 C161.597104,1724.47792 161.497001,1724.28772 161.266764,1724.25769 L161.206702,1724.25769 C161.0936,1724.26089 160.986065,1724.30748 160.906393,1724.38782 C160.644299,1724.65095 160.518649,1725.0205 160.566043,1725.38885 C160.682532,1726.51377 161.477525,1727.45186 162.568103,1727.75128 L163.10866,1727.91144 C163.313519,1727.95404 163.520782,1727.98412 163.729298,1728.00153 C164.163953,1728.03082 164.600528,1728.01067 165.030637,1727.94147 C165.955386,1727.77429 166.809275,1727.33515 167.483161,1726.68018 C168.872707,1725.23924 168.907718,1722.96793 167.563244,1721.48485 C166.862158,1720.66564 165.930916,1720.0762 164.890493,1719.79311 C162.922186,1719.24376 160.813895,1719.54132 159.074508,1720.61395 C158.038486,1721.23277 157.230731,1722.17047 156.772139,1723.28669 C156.351173,1724.46136 156.351173,1725.74576 156.772139,1726.92042 C157.259326,1728.28 158.181131,1729.44105 159.394838,1730.22381 C160.077657,1730.67354 160.827845,1731.01146 161.617125,1731.22484 C162.036683,1731.3476 162.465048,1731.43796 162.898443,1731.49512 C163.319336,1731.55969 163.744024,1731.59647 164.169751,1731.60523 L164.409999,1731.60523 C166.104301,1731.60878 167.774013,1731.19994 169.275005,1730.41401 C170.820367,1729.62891 172.080705,1728.37907 172.878714,1726.84034 C174.30935,1723.65163 173.530084,1719.90471 170.946725,1717.55081 C169.542166,1716.20621 167.820422,1715.23859 165.941575,1714.73792 C165.443937,1714.60624 164.939288,1714.50263 164.430019,1714.4276 L164.099679,1714.37755 L163.839412,1714.37755 L163.699267,1714.37755 L162.948495,1714.37755 C161.945286,1714.32813 160.93965,1714.37506 159.945404,1714.5177 C159.955334,1714.39109 159.955334,1714.26391 159.945404,1714.13731 C159.727401,1713.00847 158.660672,1712.2503 157.522911,1712.41554 C157.136378,1712.43547 156.761107,1712.55253 156.431789,1712.75589 C155.346912,1713.32008 154.320815,1713.99073 153.368636,1714.75794 C152.223551,1715.39696 150.908859,1715.66619 149.604763,1715.52873 C149.144289,1715.43864 151.026226,1716.62986 153.909193,1716.78002 C152.480417,1717.69059 151.262127,1718.89522 150.335515,1720.31364 C149.403222,1721.77076 148.858787,1723.44197 148.753888,1725.16863 C148.688702,1726.10887 148.73913,1727.05355 148.904042,1727.98151 C148.61389,1728.51287 148.279003,1729.01855 147.903012,1729.49306 C146.614715,1731.03643 144.891557,1732.15613 142.957923,1732.70636 C141.616878,1733.11488 140.211671,1733.27101 138.813658,1733.16683 C137.292539,1733.07958 135.812334,1732.641 134.489208,1731.88552 C133.20682,1731.143 132.212274,1729.98975 131.666303,1728.61216 C131.119496,1727.22709 131.192064,1725.67415 131.865655,1724.34611 C132.539246,1723.01807 133.749356,1722.0421 135.189929,1721.66503 C136.681327,1721.20452 138.28751,1721.28607 139.724596,1721.89527 C140.916342,1722.39985 141.753476,1723.49573 141.926862,1724.77823 C141.980829,1725.33842 141.880436,1725.9027 141.636563,1726.4099 C141.412904,1726.86894 141.066405,1727.25702 140.635533,1727.53105 C139.761843,1728.07165 138.701309,1728.22056 137.712525,1727.94147 C137.028525,1727.76645 136.472258,1727.26992 136.22099,1726.6101 C136.083499,1726.20773 136.116034,1725.76669 136.311083,1725.38885 C136.598824,1726.37972 137.533324,1727.04009 138.563401,1726.98048 C139.724148,1727.07327 140.744657,1726.21765 140.85576,1725.05851 C140.833402,1724.35379 140.414894,1723.72216 139.774647,1723.42684 C139.586049,1723.28302 139.381078,1723.16206 139.164019,1723.06647 L139.053906,1723.06647 L138.993844,1723.06647 L138.86371,1723.06647 L138.52336,1722.98639 C137.46351,1722.74369 136.350535,1722.94244 135.440187,1723.53695 C134.988277,1723.83167 134.616757,1724.23415 134.359074,1724.70815 C133.951758,1725.48813 133.890032,1726.40313 134.188899,1727.23074 C134.682725,1728.48619 135.766003,1729.41578 137.081876,1729.71329 C138.700811,1730.13986 140.424318,1729.87136 141.836769,1728.97253 C143.267465,1728.07235 144.047949,1726.42553 143.83883,1724.74819 C143.527547,1722.94346 142.304199,1721.42848 140.605502,1720.74409 C138.712322,1719.96312 136.600807,1719.89202 134.659383,1720.54388 C132.846586,1721.0684 131.336319,1722.32816 130.495098,1724.01744 Z M338.809467,1729.76334 C339.272017,1729.75629 339.732205,1729.69583 340.180878,1729.58316 C340.283306,1729.54919 340.383591,1729.50908 340.481187,1729.46303 C340.481187,1729.46303 340.481187,1729.46303 340.411115,1729.52309 C340.272721,1729.67525 340.157989,1729.84735 340.070765,1730.03362 L340.010703,1730.12371 L340.010703,1730.23382 L339.9106,1730.52412 C339.726926,1731.30381 339.8795,1732.1248 340.331032,1732.78644 C339.78455,1732.91952 339.229219,1733.01319 338.669322,1733.06673 C338.300608,1731.98692 338.350621,1730.80804 338.809467,1729.76334 Z M343.404195,1727.95148 C343.848647,1728.13219 344.236015,1728.42964 344.525349,1728.81236 C344.709024,1729.08535 344.838191,1729.39127 344.90574,1729.71329 C344.617321,1730.14629 344.281575,1730.54583 343.90471,1730.90451 C343.93861,1730.78328 343.962053,1730.65937 343.974782,1730.53413 C343.96378,1729.47657 343.100402,1728.62661 342.042794,1728.63218 C342.042794,1728.63218 341.972722,1728.63218 341.942691,1728.63218 C342.22922,1728.3979 342.481883,1728.12502 342.693463,1727.82135 C342.93713,1727.843 343.178352,1727.88655 343.414205,1727.95148 L343.404195,1727.95148 Z M344.405225,1731.95559 C344.265652,1732.09042 344.102875,1732.19894 343.92473,1732.27592 C344.124936,1732.18583 344.295112,1732.09573 344.445266,1731.97561 L344.405225,1731.95559 Z M337.478096,1721.86524 C338.041508,1721.641 338.635403,1721.50265 339.23991,1721.45481 C340.176825,1721.7609 341.149035,1721.94592 342.132887,1722.00538 C342.363123,1722.00538 342.58335,1722.00538 342.813587,1722.00538 C343.931848,1722.49644 344.842303,1723.36438 345.386234,1724.4579 C345.828765,1725.48307 345.933933,1726.62238 345.686543,1727.71123 C345.21773,1727.15074 344.610311,1726.72279 343.92473,1726.46996 C343.692361,1726.39571 343.454797,1726.33883 343.213999,1726.29979 C343.256225,1725.71222 343.138616,1725.12417 342.873649,1724.59804 C342.618792,1724.12202 342.246683,1723.7189 341.792536,1723.42684 C340.882188,1722.83233 339.769213,1722.63358 338.709364,1722.87627 L338.369013,1722.95636 L338.238879,1722.95636 L338.178818,1722.95636 L338.058694,1722.95636 C337.845765,1723.05387 337.644324,1723.17474 337.458076,1723.31673 C336.817829,1723.61205 336.399322,1724.24368 336.376963,1724.9484 C336.493164,1726.10904 337.516604,1726.96338 338.679333,1726.87037 C339.706859,1726.92896 340.637941,1726.26806 340.92164,1725.27874 C341.043647,1725.56233 341.088541,1725.87313 341.051774,1726.17966 C339.912102,1726.42117 338.886388,1727.03801 338.138776,1727.93146 C337.594615,1727.88697 337.069223,1727.71184 336.6072,1727.42094 C336.177343,1727.14571 335.831129,1726.75795 335.60617,1726.29979 C335.362298,1725.79258 335.261905,1725.2283 335.315871,1724.66811 C335.525316,1723.42472 336.35616,1722.37484 337.518138,1721.88526 L337.478096,1721.86524 Z M338.92959,1733.87756 C339.57779,1733.82797 340.220697,1733.72416 340.851568,1733.56724 C341.76114,1734.28861 342.972955,1734.50312 344.074885,1734.13783 C345.251725,1733.80191 346.183121,1732.90056 346.55744,1731.73536 C346.793111,1730.94847 346.793111,1730.10978 346.55744,1729.32289 C346.627512,1729.18274 346.717605,1729.05261 346.777666,1728.92248 C347.437797,1727.34368 347.437797,1725.56621 346.777666,1723.98741 C346.468318,1723.28051 346.018803,1722.6437 345.456307,1722.11549 C345.80049,1722.29764 346.134648,1722.49814 346.457337,1722.71611 C347.938205,1723.71388 349.066256,1725.15372 349.680654,1726.83033 C350.074085,1727.93306 350.22766,1729.10704 350.131117,1730.27386 C350.033124,1731.5648 349.590643,1732.80582 348.849799,1733.86755 C348.03711,1734.98469 346.885578,1735.80972 345.56642,1736.21997 C344.204772,1736.63266 342.745293,1736.58694 341.412145,1736.08983 C340.370662,1735.66588 339.50776,1734.89493 338.969631,1733.90759 L338.92959,1733.87756 Z" id="path-2"></path>
        <filter x="-3.1%" y="-2.7%" width="106.2%" height="107.7%" filterUnits="objectBoundingBox" id="filter-3">
            <feOffset dx="0" dy="2" in="SourceAlpha" result="shadowOffsetOuter1"></feOffset>
            <feGaussianBlur stdDeviation="2" in="shadowOffsetOuter1" result="shadowBlurOuter1"></feGaussianBlur>
            <feColorMatrix values="0 0 0 0 0   0 0 0 0 0   0 0 0 0 0  0 0 0 0.5 0" type="matrix" in="shadowBlurOuter1"></feColorMatrix>
        </filter>
    </defs>
    <g id="Page-1" stroke="none" stroke-width="1" fill="none" fill-rule="evenodd">
        <g id="Artboard-Copy-2" transform="translate(-126.000000, -1551.000000)" fill-rule="nonzero">
            <g id="Shape" transform="translate(243.500000, 1648.500000) rotate(-180.000000) translate(-243.500000, -1648.500000) ">
                <use fill="black" fill-opacity="1" filter="url(#filter-3)" xlink:href="#path-2"></use>
                <use fill="url(#linearGradient-1)" xlink:href="#path-2"></use>
            </g>
        </g>
    </g>
</svg>