<?xml version="1.0" encoding="UTF-8"?>
<svg width="216px" height="221px" viewBox="0 0 216 221" version="1.1" xmlns="http://www.w3.org/2000/svg" xmlns:xlink="http://www.w3.org/1999/xlink">
    <!-- Generator: Sketch 51.3 (57544) - http://www.bohemiancoding.com/sketch -->
    <title>Group 14</title>
    <desc>Created with Sketch.</desc>
    <defs></defs>
    <g id="Desktop-" stroke="none" stroke-width="1" fill="none" fill-rule="evenodd" opacity="0.6">
        <g id="Tarjeta-de-lealtad_registro" transform="translate(-38.000000, -759.000000)" fill="#F29100" fill-rule="nonzero">
            <g id="Group-14" transform="translate(38.000000, 759.000000)">
                <path d="M111.999954,28.9807952 C111.989355,26.7733546 110.19253,24.9917938 107.985079,25.0000284 C105.777628,25.008263 103.994144,26.8031796 104.000014,29.0106379 C104.005885,31.2180961 105.798891,33.0035013 108.006354,32.9999948 C109.069445,32.9983061 110.088135,32.5734941 110.837449,31.8193762 C111.586764,31.0652584 112.005058,30.0438756 111.999954,28.9807952" id="Shape"></path>
                <path d="M107.980839,58.9999541 C109.600961,59.0076916 111.065743,58.0373684 111.69051,56.5425384 C112.315278,55.0477083 111.976623,53.3236356 110.832843,52.1761956 C109.689063,51.0287557 107.96608,50.684595 106.469261,51.3045831 C104.972442,51.9245711 103.997444,53.3862456 104.000005,55.0063827 C103.998315,56.0638549 104.416773,57.0786871 105.163325,57.8276273 C105.909876,58.5765675 106.923367,58.9982662 107.980839,58.9999541" id="Shape"></path>
                <path d="M111.999995,3.98719501 C111.992925,1.77890385 110.197643,-0.00587238747 107.989344,1.45212427e-05 C105.781046,0.00590142995 103.995305,1.800224 104.000009,4.00852147 C104.004714,6.21681893 105.798083,8.00351677 108.006387,7.9999948 C110.216565,7.99293635 112.003537,6.19737671 111.999995,3.98719501" id="Shape"></path>
                <path d="M75.7584059,8.63120388 C75.0024243,6.5563122 72.7074631,5.48688257 70.6321677,6.24242667 C68.5568723,6.99797078 67.4869271,9.29244779 68.2422389,11.3675833 C68.9975507,13.4427188 71.2921666,14.512889 73.3677058,13.7580146 C74.3648438,13.3953551 75.1769843,12.6513766 75.6253608,11.6898417 C76.0737373,10.7283068 76.1215973,9.62803087 75.7584059,8.63120388" id="Shape"></path>
                <path d="M43.065552,26.4278427 C42.3848678,25.6157618 41.4071761,25.1073415 40.3489253,25.0151396 C39.2906745,24.9229376 38.2391641,25.2545602 37.4271851,25.9365902 C35.7341049,27.362907 35.5164923,29.8832882 36.9402353,31.5764241 C37.620693,32.3871657 38.5977632,32.8942239 39.6549357,32.9852392 C40.7121082,33.0762544 41.7620831,32.7437106 42.5721949,32.0612967 C44.2631146,30.6373801 44.4834287,28.1216984 43.065552,26.4278427" id="Shape"></path>
                <path d="M17.9912679,53.5354538 C16.0807837,52.4325198 13.6389431,53.0880796 12.5360701,55.0000082 C11.433197,56.9119367 12.0865525,59.3568751 13.9956999,60.4621265 C15.9048473,61.5673779 18.3474798,60.9147817 19.452667,59.0041929 C19.9912492,58.0868447 20.139832,56.9915788 19.8651432,55.9636588 C19.5904545,54.9357389 18.9154442,54.061047 17.9912679,53.5354538" id="Shape"></path>
                <path d="M4.70364775,87.0627548 C3.11055254,86.7775059 1.50262917,87.4808127 0.63042293,88.8443862 C-0.241783305,90.2079596 -0.206286522,91.9629236 0.720344117,93.2900974 C1.64697476,94.6172712 3.2820217,95.2549561 4.86227893,94.905494 C6.44253616,94.556032 7.65640084,93.2883317 7.93726611,91.6941292 C8.12451356,90.6508286 7.88870183,89.5758933 7.28193815,88.7068514 C6.67517448,87.8378095 5.74740828,87.2462015 4.70364775,87.0627548" id="Shape"></path>
                <path d="M3.32553941,125.057906 C1.72843462,125.331122 0.453944724,126.540852 0.0979329219,128.12151 C-0.25807888,129.702167 0.37472784,131.341448 1.7004965,132.272937 C3.02626515,133.204427 4.78305179,133.244083 6.14950468,132.373365 C7.51595757,131.502647 8.2220944,129.893591 7.93777452,128.298479 C7.5520517,126.134469 5.49225302,124.687247 3.32553941,125.057906" id="Shape"></path>
                <path d="M15.9968737,159.533402 C14.0856961,160.651599 13.4337239,163.098626 14.5357745,165.017301 C15.6497836,166.921524 18.0972604,167.565925 20.0067336,166.45776 C21.9162068,165.349595 22.5669628,162.907132 21.461399,160.998008 C20.3558352,159.088884 17.9112366,158.433681 15.9968737,159.533402" id="Shape"></path>
                <path d="M36.9327665,189.428602 C35.5151017,191.126431 35.7383184,193.644594 37.4327544,195.069088 C38.2455486,195.748452 39.2965924,196.077811 40.3537776,195.98443 C41.4109629,195.89105 42.3873197,195.382612 43.0672335,194.571398 C44.4848983,192.873569 44.2616816,190.355406 42.5672456,188.930912 C41.7544514,188.251548 40.7034076,187.922189 39.6462224,188.01557 C38.5890371,188.10895 37.6126803,188.617388 36.9327665,189.428602" id="Shape"></path>
                <path d="M68.2378832,207.639552 C67.4896017,209.717994 68.5653511,212.010197 70.6413326,212.760815 C72.7173141,213.511433 75.0083286,212.436558 75.7599387,210.35932 C76.5115488,208.282082 75.4394729,205.988155 73.3646965,205.234206 C71.2859211,204.493758 68.99909,205.56667 68.2378832,207.639552" id="Shape"></path>
                <path d="M104.000046,217.019205 C104.010645,219.226645 105.80747,221.008206 108.014921,220.999972 C110.222372,220.991737 112.005856,219.19682 111.999986,216.989362 C111.994115,214.781904 110.201109,212.996499 107.993646,213.000005 C106.930555,213.001694 105.911865,213.426506 105.162551,214.180624 C104.413236,214.934742 103.994942,215.956124 104.000046,217.019205" id="Shape"></path>
                <path d="M140.24294,210.36319 C140.794367,211.885091 142.208341,212.924427 143.824847,212.99606 C145.441353,213.067692 146.94164,212.157495 147.625405,210.690329 C148.309171,209.223164 148.041585,207.488334 146.947553,206.295623 C145.853521,205.102911 144.148768,204.687503 142.629039,205.243302 C141.632748,205.604049 140.821053,206.346848 140.373319,207.307558 C139.925584,208.268269 139.878669,209.367803 140.24294,210.36319" id="Shape"></path>
                <path d="M171.93364,194.579356 C173.358477,196.265932 175.881792,196.481514 177.572767,195.061141 C179.263743,193.640767 179.483504,191.121075 178.063893,189.43011 C176.644281,187.739144 174.121646,187.515776 172.426283,188.930924 C170.737034,190.359287 170.517112,192.88082 171.93364,194.579356" id="Shape"></path>
                <path d="M197.99962,166.466146 C199.913794,167.56698 202.35866,166.910763 203.463014,164.999738 C204.567368,163.088713 203.913839,160.645117 202.002612,159.539182 C200.091385,158.433247 197.644775,159.082942 196.535319,160.991015 C195.433024,162.907798 196.087302,165.354195 197.99962,166.466146" id="Shape"></path>
                <path d="M211.29685,130.937442 C212.889565,131.222129 214.496895,130.51908 215.369101,129.156234 C216.241306,127.793387 216.206549,126.039242 215.281043,124.712021 C214.355537,123.3848 212.721619,122.745985 211.141432,123.093551 C209.561245,123.441117 208.346107,124.70659 208.062822,126.299687 C207.875446,127.343743 208.111111,128.419456 208.717826,129.289515 C209.324541,130.159574 210.252451,130.752483 211.29685,130.937442" id="Shape"></path>
                <path d="M212.680651,94.9400213 C214.276664,94.6644468 215.548931,93.4537364 215.903041,91.8735392 C216.257151,90.293342 215.623202,88.6556012 214.297376,87.7254763 C212.971551,86.7953515 211.215577,86.7564565 209.849854,87.6269632 C208.484132,88.49747 207.778264,90.1055337 208.062035,91.69986 C208.444481,93.8685607 210.510865,95.31822 212.680651,94.9400213" id="Shape"></path>
                <path d="M201.990061,60.461027 C203.39492,59.6561968 204.175247,58.0846485 203.966523,56.4805087 C203.757798,54.8763688 202.601218,53.5562492 201.037063,53.1368249 C199.472908,52.7174007 197.809898,53.2814542 196.824884,54.5654961 C195.83987,55.8495379 195.727266,57.6001344 196.539674,58.9995193 C197.065332,59.9185232 197.936658,60.5898036 198.96008,60.8642317 C199.983502,61.1386598 201.074269,60.9935096 201.990061,60.461027" id="Shape"></path>
                <path d="M178.085316,31.4306265 C179.475302,29.7720416 179.256571,27.3065677 177.596098,25.9162846 C176.802184,25.2481376 175.772971,24.9237035 174.737524,25.0151901 C173.702078,25.1066768 172.746323,25.6064923 172.082977,26.4033952 C171.07437,27.4566975 170.738072,28.9812423 171.210536,30.3584426 C171.683,31.735643 172.885748,32.736742 174.330763,32.9555419 C175.775778,33.1743417 177.223039,32.5744992 178.085316,31.3994015" id="Shape"></path>
                <path d="M147.762117,11.3592589 C148.510398,9.28127826 147.434649,6.98958309 145.358667,6.23913197 C143.282686,5.48868085 140.991671,6.56331715 140.240061,8.64009454 C139.488451,10.7168719 140.560527,13.0102902 142.635303,13.7640713 C144.714259,14.5081241 147.00369,13.4342308 147.762117,11.3592589" id="Shape"></path>
                <path d="M107.987194,83.9999795 C109.606166,84.0051437 111.068598,83.0338705 111.691733,81.5396113 C112.314869,80.0453521 111.975808,78.3228177 110.832846,77.1761957 C109.689884,76.0295736 107.968445,75.6850106 106.472206,76.3033704 C104.975967,76.9217302 104.000029,78.3810544 104.00002,80.0000387 C103.996629,81.059714 104.415208,82.0771502 105.163316,82.8276536 C105.911424,83.5781571 106.927515,83.9999849 107.987194,83.9999795" id="Shape"></path>
                <path d="M107.980809,113.999954 C109.600934,114.007704 111.065726,113.037387 111.690503,111.542557 C112.315279,110.047727 111.97663,108.323648 110.83285,107.176203 C109.68907,106.028757 107.966084,105.684594 106.469261,106.304583 C104.972439,106.924572 103.99744,108.386252 104.000005,110.006393 C103.998312,111.063859 104.416766,112.078688 105.163312,112.827626 C105.909857,113.576564 106.923342,113.998263 107.980809,113.999954" id="Shape"></path>
                <path d="M91.5737167,91.0690761 C93.2629656,89.6407129 93.4828878,87.1191803 92.0663599,85.4206437 C90.6415228,83.7340676 88.118208,83.5184857 86.4272326,84.9388592 C84.7362573,86.3592328 84.5164956,88.8789248 85.9361072,90.5698902 C87.3557188,92.2608556 89.8783544,92.4842241 91.5737167,91.0690761" id="Shape"></path>
                <path d="M83.9414993,105.678965 C84.3156518,103.502655 82.8560249,101.434736 80.6805183,101.058988 C78.5050116,100.683239 76.4366035,102.141803 76.0594469,104.317595 C75.6822904,106.493386 77.1390611,108.563319 79.314047,108.942072 C81.4916017,109.314103 83.5601542,107.855437 83.9414993,105.678965" id="Shape"></path>
                <path d="M86.4489826,122.981923 C85.3370239,121.078412 82.8950853,120.434332 80.9897273,121.542001 C79.0843692,122.64967 78.4343864,125.091222 79.5366105,127.000391 C80.6388346,128.909561 83.0774524,129.566116 84.9884418,128.468201 C85.9150405,127.939838 86.5912495,127.061862 86.8657519,126.03074 C87.1402542,124.999618 86.9901335,123.901431 86.4489826,122.981923" id="Shape"></path>
                <path d="M100.375743,134.245493 C98.8561504,133.686874 97.1498872,134.100584 96.0543657,135.293278 C94.9588443,136.485971 94.6904092,138.222113 95.3745121,139.690329 C96.0586151,141.158544 97.5601586,142.068888 99.1774052,141.995917 C100.794652,141.922945 102.208226,140.881068 102.757502,139.357202 C103.12111,138.363404 103.07428,137.265627 102.62736,136.306451 C102.18044,135.347276 101.370222,134.605664 100.375743,134.245493" id="Shape"></path>
                <path d="M115.652905,134.232959 C114.127135,134.778715 113.081349,136.191189 113.004523,137.809951 C112.927698,139.428712 113.835014,140.933897 115.302238,141.621728 C116.769463,142.309559 118.506675,142.044121 119.701608,140.949525 C120.896541,139.854929 121.313078,138.147465 120.756459,136.625491 C119.998705,134.563652 117.722249,133.496455 115.652905,134.232959" id="Shape"></path>
                <path d="M129.5353,122.998029 C128.726244,124.401021 128.84228,126.153597 129.829235,127.437561 C130.816191,128.721525 132.479415,129.283649 134.042426,128.861503 C135.605437,128.439357 136.759972,127.116199 136.967032,125.50975 C137.174093,123.9033 136.392841,122.330389 134.988008,121.525335 C133.074369,120.436763 130.641434,121.093861 129.5353,122.998029" id="Shape"></path>
                <path d="M132.064285,105.714054 C132.458163,107.884464 134.535131,109.326178 136.706449,108.936384 C138.877768,108.546589 140.323473,106.472486 139.937699,104.300621 C139.551926,102.128756 137.480354,100.6793 135.307596,101.060989 C134.259,101.245195 133.327125,101.839834 132.718363,102.713204 C132.109601,103.586574 131.874196,104.666592 132.064285,105.714054" id="Shape"></path>
                <path d="M122.43775,91.0622174 C123.247838,91.7460406 124.29802,92.0780866 125.354561,91.9844535 C126.411103,91.8908204 127.386331,91.379278 128.063191,90.5636781 C129.104319,89.325466 129.295397,87.5825708 128.547217,86.1487001 C127.799036,84.7148294 126.259163,83.8727901 124.64652,84.0157062 C123.033877,84.1586223 121.66653,85.2583059 121.182855,86.8013464 C120.69918,88.3443869 121.194573,90.0264455 122.43775,91.0622174" id="Shape"></path>
                <path d="M84.0031263,66.466598 C85.9143039,65.3484015 86.5662761,62.9013741 85.4642255,60.9826987 C84.3502164,59.078476 81.9027396,58.4340754 79.9932664,59.5422401 C78.0837932,60.6504047 77.4330372,63.0928677 78.538601,65.0019917 C79.6441648,66.9111157 82.0887634,67.5663189 84.0031263,66.466598" id="Shape"></path>
                <path d="M64.4647004,85.0036945 C65.2737559,83.6002999 65.15772,81.8472207 64.1707645,80.562888 C63.183809,79.2785554 61.5205848,78.71627 59.9575739,79.1385368 C58.3945629,79.5608036 57.240028,80.8843415 57.0329677,82.4912524 C56.8259074,84.0981633 57.6071588,85.6715262 59.0119921,86.4768113 C60.9261037,87.5619734 63.356286,86.9054295 64.4647004,85.0036945" id="Shape"></path>
                <path d="M57.9999538,109.974359 C57.985814,107.768614 56.1887323,105.990626 53.9829513,106.000037 C51.7771703,106.009449 49.9953261,107.802707 50.0000092,110.008493 C50.0046923,112.214279 51.7941348,113.999955 53.9999359,114 C55.0647357,113.998309 56.085062,113.572816 56.8355808,112.817489 C57.5860996,112.062163 58.0050661,111.039143 57.9999538,109.974359" id="Shape"></path>
                <path d="M64.4587327,135.997707 C63.9330846,135.080438 63.0629234,134.410408 62.0410477,134.136072 C61.019172,133.861735 59.9299564,134.005744 59.0147345,134.536192 C57.6080751,135.339479 56.8255657,136.911047 57.0330463,138.516154 C57.2405268,140.121261 58.3970045,141.442778 59.9618012,141.862869 C61.5265978,142.28296 63.1905501,141.718625 64.1757245,140.433703 C65.1608988,139.14878 65.2726503,137.397138 64.4587327,135.997707" id="Shape"></path>
                <path d="M83.9930619,153.535454 C82.0820056,152.43252 79.6394339,153.08808 78.5362306,155.000008 C77.4330273,156.911937 78.0865784,159.356875 79.9962975,160.462126 C81.9060165,161.567378 84.3493804,160.914782 85.4548985,159.004193 C85.9918789,158.086431 86.1395189,156.991761 85.8648862,155.964358 C85.5902535,154.936956 84.9161939,154.062287 83.9930619,153.535454" id="Shape"></path>
                <path d="M108.019186,162.000046 C106.399645,161.992297 104.935261,162.961923 104.310113,164.455968 C103.684965,165.950013 104.022442,167.673588 105.164893,168.821535 C106.307345,169.969481 108.029279,170.315222 109.526302,169.697245 C111.023325,169.079268 111.999961,167.619549 111.99998,165.999986 C112.003368,164.941416 111.585664,163.924948 110.838937,163.174629 C110.092209,162.424309 109.077758,162.001734 108.019186,162.000046" id="Shape"></path>
                <path d="M134.009939,153.538973 C132.60508,154.343803 131.824753,155.915351 132.033477,157.519491 C132.242202,159.123631 133.398782,160.443751 134.962937,160.863175 C136.527092,161.282599 138.190102,160.718546 139.175116,159.434504 C140.16013,158.150462 140.272734,156.399866 139.460326,155.000481 C138.934668,154.081477 138.063342,153.410196 137.03992,153.135768 C136.016498,152.86134 134.925731,153.00649 134.009939,153.538973" id="Shape"></path>
                <path d="M151.5353,135.996305 C150.726244,137.3997 150.84228,139.152779 151.829235,140.437112 C152.816191,141.721445 154.479415,142.28373 156.042426,141.861463 C157.605437,141.439196 158.759972,140.115658 158.967032,138.508748 C159.174093,136.901837 158.392841,135.328474 156.988008,134.523189 C155.073896,133.438027 152.643714,134.094571 151.5353,135.996305" id="Shape"></path>
                <path d="M159.000021,110.019231 C159.010629,112.225835 160.806167,114.007043 163.012792,113.999979 C165.219418,113.992915 167.003514,112.200247 166.999995,109.99362 C166.996476,107.786993 165.20667,106.000026 163.000033,106 C161.93635,106.001696 160.917001,106.426309 160.166669,107.180247 C159.416336,107.934185 158.996615,108.955555 159.000021,110.019231" id="Shape"></path>
                <path d="M151.553268,85.0180773 C152.664891,86.9215877 155.106092,87.5656685 157.010874,86.4579993 C158.915656,85.3503301 159.565443,82.9087783 158.463552,80.9996088 C157.361661,79.0904392 154.92378,78.4338844 153.013368,79.5317995 C152.085718,80.0589128 151.40855,80.9369133 151.133992,81.9685581 C150.859434,83.0002029 151.010505,84.0989902 151.553268,85.0180773" id="Shape"></path>
                <path d="M133.997882,66.4661459 C135.912611,67.5669797 138.358185,66.9107628 139.462859,64.9997378 C140.567532,63.0887127 139.913814,60.6451168 138.002033,59.539182 C136.090253,58.4332472 133.642934,59.0829416 132.533158,60.9910146 C131.434285,62.9082862 132.088011,65.3519068 133.997882,66.4661459" id="Shape"></path>
                <path d="M83.7566467,33.6312039 C83.0008366,31.5563122 80.7063957,30.4868826 78.6315708,31.2424267 C76.556746,31.9979708 75.4870434,34.2924478 76.242184,36.3675833 C76.9973245,38.4427188 79.2914201,39.512889 81.3664887,38.7580146 C82.3644745,38.3967798 83.17755,37.6529769 83.6260461,36.6909674 C84.0745422,35.728958 84.1215373,34.6279376 83.7566467,33.6312039" id="Shape"></path>
                <path d="M59.966116,46.4053162 C59.2946734,45.6061503 58.3313145,45.105884 57.2887319,45.0149674 C56.2461493,44.9240509 55.2100887,45.2499613 54.4092942,45.9207434 C52.7401667,47.32754 52.522864,49.8110004 53.9225191,51.4838911 C54.814634,52.6220206 56.2606327,53.1832537 57.6911931,52.9466202 C59.1217534,52.7099866 60.3077194,51.7133919 60.7821494,50.3492178 C61.2565794,48.9850437 60.9434764,47.471812 59.966116,46.4053162" id="Shape"></path>
                <path d="M39.9912679,65.5354538 C38.0807837,64.4325198 35.6389431,65.0880796 34.5360701,67.0000082 C33.433197,68.9119367 34.0865525,71.3568751 35.9956999,72.4621265 C37.9048473,73.5673779 40.3474798,72.9147817 41.452667,71.0041929 C41.9912492,70.0868447 42.139832,68.9915788 41.8651432,67.9636588 C41.5904545,66.9357389 40.9154442,66.061047 39.9912679,65.5354538" id="Shape"></path>
                <path d="M30.7030382,92.0627548 C29.1101494,91.7775059 27.5024344,92.4808127 26.6303412,93.8443862 C25.758248,95.2079596 25.7937402,96.9629236 26.7202508,98.2900974 C27.6467613,99.6172712 29.2815964,100.254956 30.8616488,99.905494 C32.4417013,99.556032 33.6554086,98.2883317 33.9362375,96.6941292 C34.1252329,95.6506147 33.8901654,94.5747972 33.2831798,93.7053248 C32.6761942,92.8358524 31.7474745,92.2446107 30.7030382,92.0627548" id="Shape"></path>
                <path d="M29.3204465,120.057806 C27.7248198,120.332926 26.4524436,121.542977 26.0974857,123.122896 C25.7425278,124.702815 26.3750169,126.340903 27.6995966,127.272216 C29.0241762,128.203528 30.7795233,128.244327 32.1459347,127.375562 C33.512346,126.506796 34.2202458,124.899862 33.9390626,123.305157 C33.553291,121.137386 31.4906695,119.687156 29.3204465,120.057806" id="Shape"></path>
                <path d="M35.9976159,146.532937 C34.0826678,147.652817 33.4319042,150.106044 34.5405768,152.025632 C35.6584983,153.925982 38.1054109,154.565078 40.0120148,153.454688 C41.9186186,152.344297 42.5662232,149.90298 41.460096,147.995761 C40.3539688,146.088543 37.9110624,145.434345 35.9976159,146.532937" id="Shape"></path>
                <path d="M53.9409057,169.429237 C52.8970605,170.667096 52.7037422,172.411777 53.4513147,173.847753 C54.1988871,175.28373 55.7396831,176.127355 57.3534798,175.984288 C58.9672765,175.841222 60.3353023,174.739723 60.8180932,173.194672 C61.3008842,171.649621 60.8030751,169.96621 59.5573596,168.931325 C58.7471656,168.25166 57.6994842,167.922155 56.645681,168.015577 C55.5918778,168.108999 54.6186445,168.617662 53.9409057,169.429237" id="Shape"></path>
                <path d="M76.2378832,184.638371 C75.4896017,186.717271 76.5653511,189.009979 78.6413326,189.760762 C80.7173141,190.511545 83.0083286,189.436434 83.7599387,187.358738 C84.5115488,185.281042 83.4394729,182.98661 81.3646965,182.232496 C79.2861033,181.495634 77.0018518,182.567571 76.2378832,184.638371" id="Shape"></path>
                <path d="M104.000005,191.012805 C104.007075,193.221096 105.802357,195.005872 108.010656,194.999985 C110.218954,194.994099 112.004695,193.199776 111.999991,190.991479 C111.995286,188.783181 110.201917,186.996483 107.993613,187.000005 C105.783435,187.007064 103.996463,188.802623 104.000005,191.012805" id="Shape"></path>
                <path d="M132.243691,187.36526 C132.796073,188.887183 134.211089,189.925827 135.827997,189.996199 C137.444906,190.06657 138.944733,189.154787 139.627138,187.686605 C140.309543,186.218423 140.039904,184.483475 138.944128,183.291894 C137.848353,182.100313 136.14261,181.687166 134.623392,182.245371 C133.628269,182.607394 132.818059,183.350723 132.371591,184.311292 C131.925122,185.271861 131.879103,186.370695 132.243691,187.36526" id="Shape"></path>
                <path d="M155.939894,174.57259 C156.619583,175.38432 157.596395,175.892628 158.653825,175.98485 C159.711255,176.077071 160.761958,175.745589 161.573053,175.063875 C163.265721,173.63974 163.483453,171.121201 162.060106,169.430054 C161.381401,168.616821 160.404368,168.107394 159.34641,168.015126 C158.288451,167.922859 157.237335,168.255405 156.426947,168.938769 C154.734279,170.362904 154.516547,172.881443 155.939894,174.57259" id="Shape"></path>
                <path d="M174.003902,153.465839 C174.922531,153.995323 176.015463,154.138244 177.040367,153.862912 C178.065271,153.58758 178.937455,152.916748 179.463534,151.999154 C180.568191,150.08592 179.912511,147.644054 177.996098,146.534161 C177.077469,146.004677 175.984537,145.861756 174.959633,146.137088 C173.934729,146.41242 173.062545,147.083252 172.536466,148.000846 C171.431809,149.91408 172.087489,152.355946 174.003902,153.465839" id="Shape"></path>
                <path d="M186.296352,127.937245 C187.889447,128.222494 189.497371,127.519187 190.369577,126.155614 C191.241783,124.79204 191.206287,123.037076 190.279656,121.709903 C189.353025,120.382729 187.717978,119.745044 186.137721,120.094506 C184.557464,120.443968 183.343599,121.711668 183.062734,123.305871 C182.875486,124.349171 183.111298,125.424107 183.718062,126.293149 C184.324826,127.16219 185.252592,127.753798 186.296352,127.937245" id="Shape"></path>
                <path d="M187.680651,99.9396573 C189.276664,99.6640955 190.548931,98.4534406 190.903041,96.8733158 C191.257151,95.2931911 190.623202,93.6555253 189.297376,92.7254431 C187.971551,91.7953608 186.215577,91.7564676 184.849854,92.6269345 C183.484132,93.4974013 182.778264,95.1053913 183.062035,96.6996446 C183.244135,97.7419543 183.833247,98.6691176 184.699574,99.2768559 C185.5659,99.8845942 186.638356,100.12304 187.680651,99.9396573" id="Shape"></path>
                <path d="M177.985265,72.4638085 C179.391925,71.660521 180.174434,70.0889529 179.966954,68.4838462 C179.759473,66.8787394 178.602995,65.5572216 177.038199,65.1371307 C175.473402,64.7170399 173.80945,65.281375 172.824276,66.5662974 C171.839101,67.8512197 171.72735,69.6028618 172.541267,71.0022933 C173.066915,71.9195616 173.937077,72.5895921 174.958952,72.8639285 C175.980828,73.1382649 177.070044,72.9942557 177.985265,72.4638085" id="Shape"></path>
                <path d="M162.063191,51.5658518 C163.104319,50.3272297 163.295397,48.5837572 162.547217,47.1494117 C161.799036,45.7150662 160.259163,44.872748 158.64652,45.0157114 C157.033877,45.1586748 155.66653,46.2587227 155.182855,47.8022742 C154.69918,49.3458257 155.194573,51.0284413 156.43775,52.0645562 C157.248542,52.746951 158.29831,53.0780407 159.354324,52.9844234 C160.410338,52.8908061 161.385346,52.3802167 162.063191,51.5658518" id="Shape"></path>
                <path d="M139.764156,36.3547704 C140.509139,34.2756765 139.430607,31.9855593 137.35421,31.2375749 C135.277813,30.4895906 132.988533,31.5665149 132.238886,33.6439286 C131.489238,35.7213423 132.562628,38.0138787 134.637341,38.7665296 C136.71793,39.506337 139.005544,38.4301962 139.764156,36.3547704" id="Shape"></path>
            </g>
        </g>
    </g>
</svg>