<svg id="Capa_51" data-name="Capa 51" xmlns="http://www.w3.org/2000/svg" viewBox="0 0 1500 1500"><defs><style>.cls-1{fill:none;stroke:#000;stroke-linecap:round;stroke-linejoin:round;stroke-width:22px;}</style></defs><title>Verano_Niños</title><polyline class="cls-1" points="693.98 20.14 690.55 172.13 689.69 210.42 688.93 243.95 682 991"/><line class="cls-1" x1="389" y1="588" x2="1140" y2="588"/><line class="cls-1" x1="225" y1="588" x2="354.76" y2="588"/><line class="cls-1" x1="261" y1="662" x2="750" y2="53"/><line class="cls-1" x1="597" y1="20" x2="1116" y2="662"/><polyline class="cls-1" points="772 1234 682.5 1234 543 1234 1116 507"/><line class="cls-1" x1="261" y1="507" x2="806" y2="1234"/><path class="cls-1" d="M1267,1173s-8-196-151-192-130,197-130,197,52,268-130,285-174-170-174-170"/><line class="cls-1" x1="1173.02" y1="588.68" x2="1172.86" y2="587.9"/><line class="cls-1" x1="682.02" y1="1261.68" x2="681.86" y2="1260.9"/></svg>